<?xml version="1.0" encoding="UTF-8" standalone="no"?>
<!DOCTYPE svg PUBLIC "-//W3C//DTD SVG 1.1//EN"
 "http://www.w3.org/Graphics/SVG/1.1/DTD/svg11.dtd">
<!-- Generated by graphviz version 2.36.0 (20140111.2315)
 -->
<!-- Title: /home/travis/build/robotology/wb&#45;toolbox/toolbox/src/base/BlockInformation.cpp Pages: 1 -->
<svg width="240pt" height="162pt"
 viewBox="0.00 0.00 240.00 162.00" xmlns="http://www.w3.org/2000/svg" xmlns:xlink="http://www.w3.org/1999/xlink">
<g id="graph0" class="graph" transform="scale(1 1) rotate(0) translate(4 158)">
<title>/home/travis/build/robotology/wb&#45;toolbox/toolbox/src/base/BlockInformation.cpp</title>
<!-- Node1 -->
<g id="node1" class="node"><title>Node1</title>
<polygon fill="#bfbfbf" stroke="black" points="26.5,-112.5 26.5,-153.5 213.5,-153.5 213.5,-112.5 26.5,-112.5"/>
<text text-anchor="start" x="34.5" y="-141.5" font-family="Helvetica,sans-Serif" font-size="10.00">/home/travis/build</text>
<text text-anchor="start" x="34.5" y="-130.5" font-family="Helvetica,sans-Serif" font-size="10.00">/robotology/wb&#45;toolbox</text>
<text text-anchor="middle" x="120" y="-119.5" font-family="Helvetica,sans-Serif" font-size="10.00">/toolbox/src/base/BlockInformation.cpp</text>
</g>
<!-- Node2 -->
<g id="node2" class="node"><title>Node2</title>
<g id="a_node2"><a xlink:href="_block_information_8h.html" target="_top" xlink:title="BlockInformation.h">
<polygon fill="none" stroke="black" points="71,-56.5 71,-75.5 169,-75.5 169,-56.5 71,-56.5"/>
<text text-anchor="middle" x="120" y="-63.5" font-family="Helvetica,sans-Serif" font-size="10.00">BlockInformation.h</text>
</a>
</g>
</g>
<!-- Node1&#45;&gt;Node2 -->
<g id="edge1" class="edge"><title>Node1&#45;&gt;Node2</title>
<path fill="none" stroke="midnightblue" d="M120,-112.498C120,-104.065 120,-94.2351 120,-85.874"/>
<polygon fill="midnightblue" stroke="midnightblue" points="123.5,-85.6525 120,-75.6525 116.5,-85.6525 123.5,-85.6525"/>
</g>
<!-- Node3 -->
<g id="node3" class="node"><title>Node3</title>
<polygon fill="none" stroke="#bfbfbf" points="0,-0.5 0,-19.5 52,-19.5 52,-0.5 0,-0.5"/>
<text text-anchor="middle" x="26" y="-7.5" font-family="Helvetica,sans-Serif" font-size="10.00">memory</text>
</g>
<!-- Node2&#45;&gt;Node3 -->
<g id="edge2" class="edge"><title>Node2&#45;&gt;Node3</title>
<path fill="none" stroke="midnightblue" d="M104.897,-56.324C90.0967,-47.8215 67.3058,-34.7288 50.0178,-24.7975"/>
<polygon fill="midnightblue" stroke="midnightblue" points="51.4798,-21.6009 41.0652,-19.6545 47.9929,-27.6707 51.4798,-21.6009"/>
</g>
<!-- Node4 -->
<g id="node4" class="node"><title>Node4</title>
<polygon fill="none" stroke="#bfbfbf" points="70.5,-0.5 70.5,-19.5 111.5,-19.5 111.5,-0.5 70.5,-0.5"/>
<text text-anchor="middle" x="91" y="-7.5" font-family="Helvetica,sans-Serif" font-size="10.00">string</text>
</g>
<!-- Node2&#45;&gt;Node4 -->
<g id="edge3" class="edge"><title>Node2&#45;&gt;Node4</title>
<path fill="none" stroke="midnightblue" d="M115.211,-56.083C111.242,-48.6913 105.475,-37.9533 100.565,-28.8111"/>
<polygon fill="midnightblue" stroke="midnightblue" points="103.514,-26.9051 95.6997,-19.7511 97.3475,-30.217 103.514,-26.9051"/>
</g>
<!-- Node5 -->
<g id="node5" class="node"><title>Node5</title>
<polygon fill="none" stroke="#bfbfbf" points="130,-0.5 130,-19.5 170,-19.5 170,-0.5 130,-0.5"/>
<text text-anchor="middle" x="150" y="-7.5" font-family="Helvetica,sans-Serif" font-size="10.00">utility</text>
</g>
<!-- Node2&#45;&gt;Node5 -->
<g id="edge4" class="edge"><title>Node2&#45;&gt;Node5</title>
<path fill="none" stroke="midnightblue" d="M124.954,-56.083C129.104,-48.6127 135.153,-37.7244 140.267,-28.5199"/>
<polygon fill="midnightblue" stroke="midnightblue" points="143.341,-30.1924 145.138,-19.7511 137.222,-26.7929 143.341,-30.1924"/>
</g>
<!-- Node6 -->
<g id="node6" class="node"><title>Node6</title>
<polygon fill="none" stroke="#bfbfbf" points="188,-0.5 188,-19.5 232,-19.5 232,-0.5 188,-0.5"/>
<text text-anchor="middle" x="210" y="-7.5" font-family="Helvetica,sans-Serif" font-size="10.00">vector</text>
</g>
<!-- Node2&#45;&gt;Node6 -->
<g id="edge5" class="edge"><title>Node2&#45;&gt;Node6</title>
<path fill="none" stroke="midnightblue" d="M134.46,-56.324C148.5,-47.9002 170.048,-34.9709 186.543,-25.0741"/>
<polygon fill="midnightblue" stroke="midnightblue" points="188.802,-27.8007 195.576,-19.6545 185.2,-21.7983 188.802,-27.8007"/>
</g>
</g>
</svg>
