<?xml version="1.0" encoding="UTF-8" standalone="no"?>
<!DOCTYPE svg PUBLIC "-//W3C//DTD SVG 1.1//EN"
 "http://www.w3.org/Graphics/SVG/1.1/DTD/svg11.dtd">
<!-- Generated by graphviz version 2.36.0 (20140111.2315)
 -->
<!-- Title: /home/travis/build/robotology/wb&#45;toolbox/toolbox/core/include/Core/BlockInformation.h Pages: 1 -->
<!--zoomable 242 -->
<svg id="main" version="1.1" xmlns="http://www.w3.org/2000/svg" xmlns:xlink="http://www.w3.org/1999/xlink" xml:space="preserve" onload="init(evt)">
<style type="text/css"><![CDATA[
.edge:hover path { stroke: red; }
.edge:hover polygon { stroke: red; fill: red; }
]]></style>
<script type="text/javascript"><![CDATA[
var edges = document.getElementsByTagName('g');
if (edges && edges.length) {
  for (var i=0;i<edges.length;i++) {
    if (edges[i].id.substr(0,4)=='edge') {
      edges[i].setAttribute('class','edge');
    }
  }
}
]]></script>
        <defs>
                <circle id="rim" cx="0" cy="0" r="7"/>
                <circle id="rim2" cx="0" cy="0" r="3.5"/>
                <g id="zoomPlus">
                        <use xlink:href="#rim" fill="#404040">
                                <set attributeName="fill" to="#808080" begin="zoomplus.mouseover" end="zoomplus.mouseout"/>
                        </use>
                        <path d="M-4,0h8M0,-4v8" fill="none" stroke="white" stroke-width="1.5" pointer-events="none"/>
                </g>
                <g id="zoomMin">
                        <use xlink:href="#rim" fill="#404040">
                                <set attributeName="fill" to="#808080" begin="zoomminus.mouseover" end="zoomminus.mouseout"/>
                        </use>
                        <path d="M-4,0h8" fill="none" stroke="white" stroke-width="1.5" pointer-events="none"/>
                </g>
                <g id="dirArrow">
                        <path fill="none" stroke="white" stroke-width="1.5" d="M0,-3.0v7 M-2.5,-0.5L0,-3.0L2.5,-0.5"/>
                </g>
               <g id="resetDef">
                       <use xlink:href="#rim2" fill="#404040">
                               <set attributeName="fill" to="#808080" begin="reset.mouseover" end="reset.mouseout"/>
                       </use>
               </g>
        </defs>

<script type="text/javascript">
var viewWidth = 4473;
var viewHeight = 242;
var sectionId = 'dynsection-1';
</script>
<script xlink:href="svgpan.js"/>
<svg id="graph" class="graph">
<g id="viewport">
<title>/home/travis/build/robotology/wb&#45;toolbox/toolbox/core/include/Core/BlockInformation.h</title>
<!-- Node1 -->
<g id="node1" class="node"><title>Node1</title>
<polygon fill="#bfbfbf" stroke="black" points="2150.5,-181 2150.5,-233 2275.5,-233 2275.5,-181 2150.5,-181"/>
<text text-anchor="start" x="2158.5" y="-221" font-family="Helvetica,sans-Serif" font-size="10.00">/home/travis/build</text>
<text text-anchor="start" x="2158.5" y="-210" font-family="Helvetica,sans-Serif" font-size="10.00">/robotology/wb&#45;toolbox</text>
<text text-anchor="start" x="2158.5" y="-199" font-family="Helvetica,sans-Serif" font-size="10.00">/toolbox/core/include</text>
<text text-anchor="middle" x="2213" y="-188" font-family="Helvetica,sans-Serif" font-size="10.00">/Core/BlockInformation.h</text>
</g>
<!-- Node2 -->
<g id="node2" class="node"><title>Node2</title>
<g id="a_node2"><a xlink:href="_coder_block_information_8h.html" target="_top" xlink:title="/home/travis/build\l/robotology/wb&#45;toolbox\l/toolbox/core/include\l/Core/CoderBlockInformation.h">
<polygon fill="none" stroke="black" points="0,-91 0,-143 152,-143 152,-91 0,-91"/>
<text text-anchor="start" x="8" y="-131" font-family="Helvetica,sans-Serif" font-size="10.00">/home/travis/build</text>
<text text-anchor="start" x="8" y="-120" font-family="Helvetica,sans-Serif" font-size="10.00">/robotology/wb&#45;toolbox</text>
<text text-anchor="start" x="8" y="-109" font-family="Helvetica,sans-Serif" font-size="10.00">/toolbox/core/include</text>
<text text-anchor="middle" x="76" y="-98" font-family="Helvetica,sans-Serif" font-size="10.00">/Core/CoderBlockInformation.h</text>
</a>
</g>
</g>
<!-- Node1&#45;&gt;Node2 -->
<g id="edge1" class="edge"><title>Node1&#45;&gt;Node2</title>
<path fill="none" stroke="midnightblue" d="M2140.44,-206.394C1822.85,-207.722 553.67,-208.79 161,-144 158.107,-143.523 155.175,-142.973 152.226,-142.364"/>
<polygon fill="midnightblue" stroke="midnightblue" points="2140.46,-209.894 2150.44,-206.351 2140.43,-202.894 2140.46,-209.894"/>
</g>
<!-- Node4 -->
<g id="node4" class="node"><title>Node4</title>
<g id="a_node4"><a xlink:href="_simulink_block_information_8h.html" target="_top" xlink:title="/home/travis/build\l/robotology/wb&#45;toolbox\l/toolbox/core/include\l/Core/SimulinkBlockInformation.h">
<polygon fill="none" stroke="black" points="170.5,-91 170.5,-143 333.5,-143 333.5,-91 170.5,-91"/>
<text text-anchor="start" x="178.5" y="-131" font-family="Helvetica,sans-Serif" font-size="10.00">/home/travis/build</text>
<text text-anchor="start" x="178.5" y="-120" font-family="Helvetica,sans-Serif" font-size="10.00">/robotology/wb&#45;toolbox</text>
<text text-anchor="start" x="178.5" y="-109" font-family="Helvetica,sans-Serif" font-size="10.00">/toolbox/core/include</text>
<text text-anchor="middle" x="252" y="-98" font-family="Helvetica,sans-Serif" font-size="10.00">/Core/SimulinkBlockInformation.h</text>
</a>
</g>
</g>
<!-- Node1&#45;&gt;Node4 -->
<g id="edge3" class="edge"><title>Node1&#45;&gt;Node4</title>
<path fill="none" stroke="midnightblue" d="M2140.13,-205.966C1839.99,-205.46 698.593,-199.825 343,-144 339.916,-143.516 336.788,-142.96 333.641,-142.347"/>
<polygon fill="midnightblue" stroke="midnightblue" points="2140.44,-209.467 2150.45,-205.982 2140.45,-202.467 2140.44,-209.467"/>
</g>
<!-- Node7 -->
<g id="node7" class="node"><title>Node7</title>
<g id="a_node7"><a xlink:href="_block_8cpp.html" target="_top" xlink:title="/home/travis/build\l/robotology/wb&#45;toolbox\l/toolbox/core/src/Block.cpp">
<polygon fill="none" stroke="black" points="352,-96.5 352,-137.5 488,-137.5 488,-96.5 352,-96.5"/>
<text text-anchor="start" x="360" y="-125.5" font-family="Helvetica,sans-Serif" font-size="10.00">/home/travis/build</text>
<text text-anchor="start" x="360" y="-114.5" font-family="Helvetica,sans-Serif" font-size="10.00">/robotology/wb&#45;toolbox</text>
<text text-anchor="middle" x="420" y="-103.5" font-family="Helvetica,sans-Serif" font-size="10.00">/toolbox/core/src/Block.cpp</text>
</a>
</g>
</g>
<!-- Node1&#45;&gt;Node7 -->
<g id="edge6" class="edge"><title>Node1&#45;&gt;Node7</title>
<path fill="none" stroke="midnightblue" d="M2140.05,-206.127C1855.56,-206.196 820.543,-202.341 498,-144 489.432,-142.45 480.518,-140.163 471.91,-137.577"/>
<polygon fill="midnightblue" stroke="midnightblue" points="2140.25,-209.627 2150.25,-206.123 2140.25,-202.627 2140.25,-209.627"/>
</g>
<!-- Node8 -->
<g id="node8" class="node"><title>Node8</title>
<g id="a_node8"><a xlink:href="_block_information_8cpp.html" target="_top" xlink:title="/home/travis/build\l/robotology/wb&#45;toolbox\l/toolbox/core/src/BlockInformation.cpp">
<polygon fill="none" stroke="black" points="506.5,-96.5 506.5,-137.5 691.5,-137.5 691.5,-96.5 506.5,-96.5"/>
<text text-anchor="start" x="514.5" y="-125.5" font-family="Helvetica,sans-Serif" font-size="10.00">/home/travis/build</text>
<text text-anchor="start" x="514.5" y="-114.5" font-family="Helvetica,sans-Serif" font-size="10.00">/robotology/wb&#45;toolbox</text>
<text text-anchor="middle" x="599" y="-103.5" font-family="Helvetica,sans-Serif" font-size="10.00">/toolbox/core/src/BlockInformation.cpp</text>
</a>
</g>
</g>
<!-- Node1&#45;&gt;Node8 -->
<g id="edge7" class="edge"><title>Node1&#45;&gt;Node8</title>
<path fill="none" stroke="midnightblue" d="M2140.21,-205.026C1878.21,-201.209 983.82,-185.381 701,-144 690.06,-142.399 678.595,-140.103 667.462,-137.53"/>
<polygon fill="midnightblue" stroke="midnightblue" points="2140.32,-208.528 2150.37,-205.173 2140.42,-201.529 2140.32,-208.528"/>
</g>
<!-- Node9 -->
<g id="node9" class="node"><title>Node9</title>
<g id="a_node9"><a xlink:href="_centroidal_momentum_8cpp.html" target="_top" xlink:title="/home/travis/build\l/robotology/wb&#45;toolbox\l/toolbox/library/src/Centroidal\lMomentum.cpp">
<polygon fill="none" stroke="black" points="710,-91 710,-143 854,-143 854,-91 710,-91"/>
<text text-anchor="start" x="718" y="-131" font-family="Helvetica,sans-Serif" font-size="10.00">/home/travis/build</text>
<text text-anchor="start" x="718" y="-120" font-family="Helvetica,sans-Serif" font-size="10.00">/robotology/wb&#45;toolbox</text>
<text text-anchor="start" x="718" y="-109" font-family="Helvetica,sans-Serif" font-size="10.00">/toolbox/library/src/Centroidal</text>
<text text-anchor="middle" x="782" y="-98" font-family="Helvetica,sans-Serif" font-size="10.00">Momentum.cpp</text>
</a>
</g>
</g>
<!-- Node1&#45;&gt;Node9 -->
<g id="edge8" class="edge"><title>Node1&#45;&gt;Node9</title>
<path fill="none" stroke="midnightblue" d="M2140.33,-205.156C1897.04,-201.941 1112.44,-188.308 864,-144 860.765,-143.423 857.481,-142.753 854.18,-142.011"/>
<polygon fill="midnightblue" stroke="midnightblue" points="2140.43,-208.658 2150.48,-205.288 2140.52,-201.658 2140.43,-208.658"/>
</g>
<!-- Node10 -->
<g id="node10" class="node"><title>Node10</title>
<g id="a_node10"><a xlink:href="_discrete_filter_8cpp.html" target="_top" xlink:title="/home/travis/build\l/robotology/wb&#45;toolbox\l/toolbox/library/src/Discrete\lFilter.cpp">
<polygon fill="none" stroke="black" points="872.5,-91 872.5,-143 1009.5,-143 1009.5,-91 872.5,-91"/>
<text text-anchor="start" x="880.5" y="-131" font-family="Helvetica,sans-Serif" font-size="10.00">/home/travis/build</text>
<text text-anchor="start" x="880.5" y="-120" font-family="Helvetica,sans-Serif" font-size="10.00">/robotology/wb&#45;toolbox</text>
<text text-anchor="start" x="880.5" y="-109" font-family="Helvetica,sans-Serif" font-size="10.00">/toolbox/library/src/Discrete</text>
<text text-anchor="middle" x="941" y="-98" font-family="Helvetica,sans-Serif" font-size="10.00">Filter.cpp</text>
</a>
</g>
</g>
<!-- Node1&#45;&gt;Node10 -->
<g id="edge9" class="edge"><title>Node1&#45;&gt;Node10</title>
<path fill="none" stroke="midnightblue" d="M2140.4,-204.792C1916.03,-200.656 1235.82,-184.982 1019,-144 1015.91,-143.417 1012.78,-142.742 1009.64,-141.995"/>
<polygon fill="midnightblue" stroke="midnightblue" points="2140.36,-208.292 2150.42,-204.975 2140.49,-201.293 2140.36,-208.292"/>
</g>
<!-- Node11 -->
<g id="node11" class="node"><title>Node11</title>
<g id="a_node11"><a xlink:href="_dot_j_nu_8cpp.html" target="_top" xlink:title="/home/travis/build\l/robotology/wb&#45;toolbox\l/toolbox/library/src/DotJNu.cpp">
<polygon fill="none" stroke="black" points="1028,-96.5 1028,-137.5 1180,-137.5 1180,-96.5 1028,-96.5"/>
<text text-anchor="start" x="1036" y="-125.5" font-family="Helvetica,sans-Serif" font-size="10.00">/home/travis/build</text>
<text text-anchor="start" x="1036" y="-114.5" font-family="Helvetica,sans-Serif" font-size="10.00">/robotology/wb&#45;toolbox</text>
<text text-anchor="middle" x="1104" y="-103.5" font-family="Helvetica,sans-Serif" font-size="10.00">/toolbox/library/src/DotJNu.cpp</text>
</a>
</g>
</g>
<!-- Node1&#45;&gt;Node11 -->
<g id="edge10" class="edge"><title>Node1&#45;&gt;Node11</title>
<path fill="none" stroke="midnightblue" d="M2139.99,-203.786C1937.68,-197.3 1372.81,-176.71 1190,-144 1180.94,-142.379 1171.49,-140.124 1162.31,-137.614"/>
<polygon fill="midnightblue" stroke="midnightblue" points="2140.1,-207.291 2150.21,-204.112 2140.32,-200.295 2140.1,-207.291"/>
</g>
<!-- Node12 -->
<g id="node12" class="node"><title>Node12</title>
<g id="a_node12"><a xlink:href="_forward_kinematics_8cpp.html" target="_top" xlink:title="/home/travis/build\l/robotology/wb&#45;toolbox\l/toolbox/library/src/Forward\lKinematics.cpp">
<polygon fill="none" stroke="black" points="1198.5,-91 1198.5,-143 1333.5,-143 1333.5,-91 1198.5,-91"/>
<text text-anchor="start" x="1206.5" y="-131" font-family="Helvetica,sans-Serif" font-size="10.00">/home/travis/build</text>
<text text-anchor="start" x="1206.5" y="-120" font-family="Helvetica,sans-Serif" font-size="10.00">/robotology/wb&#45;toolbox</text>
<text text-anchor="start" x="1206.5" y="-109" font-family="Helvetica,sans-Serif" font-size="10.00">/toolbox/library/src/Forward</text>
<text text-anchor="middle" x="1266" y="-98" font-family="Helvetica,sans-Serif" font-size="10.00">Kinematics.cpp</text>
</a>
</g>
</g>
<!-- Node1&#45;&gt;Node12 -->
<g id="edge11" class="edge"><title>Node1&#45;&gt;Node12</title>
<path fill="none" stroke="midnightblue" d="M2140.05,-203.19C1959.38,-195.848 1494.82,-174.521 1343,-144 1339.96,-143.388 1336.87,-142.69 1333.76,-141.923"/>
<polygon fill="midnightblue" stroke="midnightblue" points="2140.11,-206.696 2150.24,-203.602 2140.39,-199.701 2140.11,-206.696"/>
</g>
<!-- Node13 -->
<g id="node13" class="node"><title>Node13</title>
<g id="a_node13"><a xlink:href="_get_limits_8cpp.html" target="_top" xlink:title="/home/travis/build\l/robotology/wb&#45;toolbox\l/toolbox/library/src/GetLimits.cpp">
<polygon fill="none" stroke="black" points="1351.5,-96.5 1351.5,-137.5 1512.5,-137.5 1512.5,-96.5 1351.5,-96.5"/>
<text text-anchor="start" x="1359.5" y="-125.5" font-family="Helvetica,sans-Serif" font-size="10.00">/home/travis/build</text>
<text text-anchor="start" x="1359.5" y="-114.5" font-family="Helvetica,sans-Serif" font-size="10.00">/robotology/wb&#45;toolbox</text>
<text text-anchor="middle" x="1432" y="-103.5" font-family="Helvetica,sans-Serif" font-size="10.00">/toolbox/library/src/GetLimits.cpp</text>
</a>
</g>
</g>
<!-- Node1&#45;&gt;Node13 -->
<g id="edge12" class="edge"><title>Node1&#45;&gt;Node13</title>
<path fill="none" stroke="midnightblue" d="M2139.68,-204.032C2012.8,-199.603 1744.52,-185.725 1522,-144 1512.89,-142.291 1503.37,-140.055 1494.08,-137.61"/>
<polygon fill="midnightblue" stroke="midnightblue" points="2139.93,-207.542 2150.04,-204.383 2140.16,-200.546 2139.93,-207.542"/>
</g>
<!-- Node14 -->
<g id="node14" class="node"><title>Node14</title>
<g id="a_node14"><a xlink:href="_get_measurement_8cpp.html" target="_top" xlink:title="/home/travis/build\l/robotology/wb&#45;toolbox\l/toolbox/library/src/GetMeasurement.cpp">
<polygon fill="none" stroke="black" points="1531,-96.5 1531,-137.5 1725,-137.5 1725,-96.5 1531,-96.5"/>
<text text-anchor="start" x="1539" y="-125.5" font-family="Helvetica,sans-Serif" font-size="10.00">/home/travis/build</text>
<text text-anchor="start" x="1539" y="-114.5" font-family="Helvetica,sans-Serif" font-size="10.00">/robotology/wb&#45;toolbox</text>
<text text-anchor="middle" x="1628" y="-103.5" font-family="Helvetica,sans-Serif" font-size="10.00">/toolbox/library/src/GetMeasurement.cpp</text>
</a>
</g>
</g>
<!-- Node1&#45;&gt;Node14 -->
<g id="edge13" class="edge"><title>Node1&#45;&gt;Node14</title>
<path fill="none" stroke="midnightblue" d="M2140.27,-199.143C2046.06,-189.677 1876.96,-170.698 1734,-144 1723.94,-142.122 1713.41,-139.879 1703.05,-137.509"/>
<polygon fill="midnightblue" stroke="midnightblue" points="2139.97,-202.63 2150.26,-200.14 2140.66,-195.665 2139.97,-202.63"/>
</g>
<!-- Node15 -->
<g id="node15" class="node"><title>Node15</title>
<g id="a_node15"><a xlink:href="_inverse_dynamics_8cpp.html" target="_top" xlink:title="/home/travis/build\l/robotology/wb&#45;toolbox\l/toolbox/library/src/Inverse\lDynamics.cpp">
<polygon fill="none" stroke="black" points="1743,-91 1743,-143 1875,-143 1875,-91 1743,-91"/>
<text text-anchor="start" x="1751" y="-131" font-family="Helvetica,sans-Serif" font-size="10.00">/home/travis/build</text>
<text text-anchor="start" x="1751" y="-120" font-family="Helvetica,sans-Serif" font-size="10.00">/robotology/wb&#45;toolbox</text>
<text text-anchor="start" x="1751" y="-109" font-family="Helvetica,sans-Serif" font-size="10.00">/toolbox/library/src/Inverse</text>
<text text-anchor="middle" x="1809" y="-98" font-family="Helvetica,sans-Serif" font-size="10.00">Dynamics.cpp</text>
</a>
</g>
</g>
<!-- Node1&#45;&gt;Node15 -->
<g id="edge14" class="edge"><title>Node1&#45;&gt;Node15</title>
<path fill="none" stroke="midnightblue" d="M2140.18,-195.438C2073.05,-184.958 1970.95,-167.13 1884,-144 1881.07,-143.221 1878.09,-142.383 1875.09,-141.503"/>
<polygon fill="midnightblue" stroke="midnightblue" points="2139.81,-198.923 2150.23,-196.993 2140.88,-192.006 2139.81,-198.923"/>
</g>
<!-- Node16 -->
<g id="node16" class="node"><title>Node16</title>
<g id="a_node16"><a xlink:href="_inverse_kinematics_8cpp.html" target="_top" xlink:title="/home/travis/build\l/robotology/wb&#45;toolbox\l/toolbox/library/src/Inverse\lKinematics.cpp">
<polygon fill="none" stroke="black" points="1893,-91 1893,-143 2025,-143 2025,-91 1893,-91"/>
<text text-anchor="start" x="1901" y="-131" font-family="Helvetica,sans-Serif" font-size="10.00">/home/travis/build</text>
<text text-anchor="start" x="1901" y="-120" font-family="Helvetica,sans-Serif" font-size="10.00">/robotology/wb&#45;toolbox</text>
<text text-anchor="start" x="1901" y="-109" font-family="Helvetica,sans-Serif" font-size="10.00">/toolbox/library/src/Inverse</text>
<text text-anchor="middle" x="1959" y="-98" font-family="Helvetica,sans-Serif" font-size="10.00">Kinematics.cpp</text>
</a>
</g>
</g>
<!-- Node1&#45;&gt;Node16 -->
<g id="edge15" class="edge"><title>Node1&#45;&gt;Node16</title>
<path fill="none" stroke="midnightblue" d="M2140.98,-181.06C2108.32,-169.749 2069.21,-156.202 2034,-144 2031.14,-143.007 2028.21,-141.993 2025.25,-140.969"/>
<polygon fill="midnightblue" stroke="midnightblue" points="2139.86,-184.375 2150.45,-184.341 2142.15,-177.761 2139.86,-184.375"/>
</g>
<!-- Node17 -->
<g id="node17" class="node"><title>Node17</title>
<g id="a_node17"><a xlink:href="_jacobian_8cpp.html" target="_top" xlink:title="/home/travis/build\l/robotology/wb&#45;toolbox\l/toolbox/library/src/Jacobian.cpp">
<polygon fill="none" stroke="black" points="2043,-96.5 2043,-137.5 2201,-137.5 2201,-96.5 2043,-96.5"/>
<text text-anchor="start" x="2051" y="-125.5" font-family="Helvetica,sans-Serif" font-size="10.00">/home/travis/build</text>
<text text-anchor="start" x="2051" y="-114.5" font-family="Helvetica,sans-Serif" font-size="10.00">/robotology/wb&#45;toolbox</text>
<text text-anchor="middle" x="2122" y="-103.5" font-family="Helvetica,sans-Serif" font-size="10.00">/toolbox/library/src/Jacobian.cpp</text>
</a>
</g>
</g>
<!-- Node1&#45;&gt;Node17 -->
<g id="edge16" class="edge"><title>Node1&#45;&gt;Node17</title>
<path fill="none" stroke="midnightblue" d="M2179.49,-173.594C2166.97,-161.487 2153.14,-148.118 2142.19,-137.525"/>
<polygon fill="midnightblue" stroke="midnightblue" points="2177.06,-176.111 2186.68,-180.547 2181.92,-171.079 2177.06,-176.111"/>
</g>
<!-- Node18 -->
<g id="node18" class="node"><title>Node18</title>
<g id="a_node18"><a xlink:href="_mass_matrix_8cpp.html" target="_top" xlink:title="/home/travis/build\l/robotology/wb&#45;toolbox\l/toolbox/library/src/MassMatrix.cpp">
<polygon fill="none" stroke="black" points="2219,-96.5 2219,-137.5 2389,-137.5 2389,-96.5 2219,-96.5"/>
<text text-anchor="start" x="2227" y="-125.5" font-family="Helvetica,sans-Serif" font-size="10.00">/home/travis/build</text>
<text text-anchor="start" x="2227" y="-114.5" font-family="Helvetica,sans-Serif" font-size="10.00">/robotology/wb&#45;toolbox</text>
<text text-anchor="middle" x="2304" y="-103.5" font-family="Helvetica,sans-Serif" font-size="10.00">/toolbox/library/src/MassMatrix.cpp</text>
</a>
</g>
</g>
<!-- Node1&#45;&gt;Node18 -->
<g id="edge17" class="edge"><title>Node1&#45;&gt;Node18</title>
<path fill="none" stroke="midnightblue" d="M2246.51,-173.594C2259.03,-161.487 2272.86,-148.118 2283.81,-137.525"/>
<polygon fill="midnightblue" stroke="midnightblue" points="2244.08,-171.079 2239.32,-180.547 2248.94,-176.111 2244.08,-171.079"/>
</g>
<!-- Node19 -->
<g id="node19" class="node"><title>Node19</title>
<g id="a_node19"><a xlink:href="_minimum_jerk_trajectory_generator_8cpp.html" target="_top" xlink:title="/home/travis/build\l/robotology/wb&#45;toolbox\l/toolbox/library/src/Minimum\lJerkTrajectoryGenerator.cpp">
<polygon fill="none" stroke="black" points="2407,-91 2407,-143 2547,-143 2547,-91 2407,-91"/>
<text text-anchor="start" x="2415" y="-131" font-family="Helvetica,sans-Serif" font-size="10.00">/home/travis/build</text>
<text text-anchor="start" x="2415" y="-120" font-family="Helvetica,sans-Serif" font-size="10.00">/robotology/wb&#45;toolbox</text>
<text text-anchor="start" x="2415" y="-109" font-family="Helvetica,sans-Serif" font-size="10.00">/toolbox/library/src/Minimum</text>
<text text-anchor="middle" x="2477" y="-98" font-family="Helvetica,sans-Serif" font-size="10.00">JerkTrajectoryGenerator.cpp</text>
</a>
</g>
</g>
<!-- Node1&#45;&gt;Node19 -->
<g id="edge18" class="edge"><title>Node1&#45;&gt;Node19</title>
<path fill="none" stroke="midnightblue" d="M2285.5,-181.832C2323.37,-169.211 2369.49,-153.837 2406.98,-141.34"/>
<polygon fill="midnightblue" stroke="midnightblue" points="2283.94,-178.662 2275.56,-185.145 2286.16,-185.303 2283.94,-178.662"/>
</g>
<!-- Node20 -->
<g id="node20" class="node"><title>Node20</title>
<g id="a_node20"><a xlink:href="_qp_oases_8cpp.html" target="_top" xlink:title="/home/travis/build\l/robotology/wb&#45;toolbox\l/toolbox/library/src/QpOases.cpp">
<polygon fill="none" stroke="black" points="2565,-96.5 2565,-137.5 2725,-137.5 2725,-96.5 2565,-96.5"/>
<text text-anchor="start" x="2573" y="-125.5" font-family="Helvetica,sans-Serif" font-size="10.00">/home/travis/build</text>
<text text-anchor="start" x="2573" y="-114.5" font-family="Helvetica,sans-Serif" font-size="10.00">/robotology/wb&#45;toolbox</text>
<text text-anchor="middle" x="2645" y="-103.5" font-family="Helvetica,sans-Serif" font-size="10.00">/toolbox/library/src/QpOases.cpp</text>
</a>
</g>
</g>
<!-- Node1&#45;&gt;Node20 -->
<g id="edge19" class="edge"><title>Node1&#45;&gt;Node20</title>
<path fill="none" stroke="midnightblue" d="M2285.69,-195.141C2355.43,-184.187 2463.51,-165.804 2556,-144 2564.15,-142.079 2572.66,-139.866 2581.05,-137.558"/>
<polygon fill="midnightblue" stroke="midnightblue" points="2285.02,-191.703 2275.68,-196.703 2286.1,-198.619 2285.02,-191.703"/>
</g>
<!-- Node21 -->
<g id="node21" class="node"><title>Node21</title>
<g id="a_node21"><a xlink:href="_real_time_synchronizer_8cpp.html" target="_top" xlink:title="/home/travis/build\l/robotology/wb&#45;toolbox\l/toolbox/library/src/RealTime\lSynchronizer.cpp">
<polygon fill="none" stroke="black" points="2743,-91 2743,-143 2885,-143 2885,-91 2743,-91"/>
<text text-anchor="start" x="2751" y="-131" font-family="Helvetica,sans-Serif" font-size="10.00">/home/travis/build</text>
<text text-anchor="start" x="2751" y="-120" font-family="Helvetica,sans-Serif" font-size="10.00">/robotology/wb&#45;toolbox</text>
<text text-anchor="start" x="2751" y="-109" font-family="Helvetica,sans-Serif" font-size="10.00">/toolbox/library/src/RealTime</text>
<text text-anchor="middle" x="2814" y="-98" font-family="Helvetica,sans-Serif" font-size="10.00">Synchronizer.cpp</text>
</a>
</g>
</g>
<!-- Node1&#45;&gt;Node21 -->
<g id="edge20" class="edge"><title>Node1&#45;&gt;Node21</title>
<path fill="none" stroke="midnightblue" d="M2285.95,-201.838C2387.4,-195.029 2576.38,-178.641 2734,-144 2736.85,-143.373 2739.75,-142.685 2742.66,-141.95"/>
<polygon fill="midnightblue" stroke="midnightblue" points="2285.56,-198.356 2275.81,-202.506 2286.02,-205.34 2285.56,-198.356"/>
</g>
<!-- Node22 -->
<g id="node22" class="node"><title>Node22</title>
<g id="a_node22"><a xlink:href="_relative_transform_8cpp.html" target="_top" xlink:title="/home/travis/build\l/robotology/wb&#45;toolbox\l/toolbox/library/src/Relative\lTransform.cpp">
<polygon fill="none" stroke="black" points="2903,-91 2903,-143 3039,-143 3039,-91 2903,-91"/>
<text text-anchor="start" x="2911" y="-131" font-family="Helvetica,sans-Serif" font-size="10.00">/home/travis/build</text>
<text text-anchor="start" x="2911" y="-120" font-family="Helvetica,sans-Serif" font-size="10.00">/robotology/wb&#45;toolbox</text>
<text text-anchor="start" x="2911" y="-109" font-family="Helvetica,sans-Serif" font-size="10.00">/toolbox/library/src/Relative</text>
<text text-anchor="middle" x="2971" y="-98" font-family="Helvetica,sans-Serif" font-size="10.00">Transform.cpp</text>
</a>
</g>
</g>
<!-- Node1&#45;&gt;Node22 -->
<g id="edge21" class="edge"><title>Node1&#45;&gt;Node22</title>
<path fill="none" stroke="midnightblue" d="M2285.95,-204.953C2411.5,-201.912 2675.95,-190.069 2894,-144 2896.9,-143.387 2899.84,-142.701 2902.8,-141.955"/>
<polygon fill="midnightblue" stroke="midnightblue" points="2285.62,-201.46 2275.7,-205.189 2285.78,-208.458 2285.62,-201.46"/>
</g>
<!-- Node23 -->
<g id="node23" class="node"><title>Node23</title>
<g id="a_node23"><a xlink:href="_remote_inverse_kinematics_8cpp.html" target="_top" xlink:title="/home/travis/build\l/robotology/wb&#45;toolbox\l/toolbox/library/src/RemoteInverse\lKinematics.cpp">
<polygon fill="none" stroke="black" points="3057.5,-91 3057.5,-143 3224.5,-143 3224.5,-91 3057.5,-91"/>
<text text-anchor="start" x="3065.5" y="-131" font-family="Helvetica,sans-Serif" font-size="10.00">/home/travis/build</text>
<text text-anchor="start" x="3065.5" y="-120" font-family="Helvetica,sans-Serif" font-size="10.00">/robotology/wb&#45;toolbox</text>
<text text-anchor="start" x="3065.5" y="-109" font-family="Helvetica,sans-Serif" font-size="10.00">/toolbox/library/src/RemoteInverse</text>
<text text-anchor="middle" x="3141" y="-98" font-family="Helvetica,sans-Serif" font-size="10.00">Kinematics.cpp</text>
</a>
</g>
</g>
<!-- Node1&#45;&gt;Node23 -->
<g id="edge22" class="edge"><title>Node1&#45;&gt;Node23</title>
<path fill="none" stroke="midnightblue" d="M2285.74,-205.435C2431.49,-203.243 2769.21,-192.821 3048,-144 3051.06,-143.465 3054.15,-142.872 3057.28,-142.231"/>
<polygon fill="midnightblue" stroke="midnightblue" points="2285.53,-201.938 2275.58,-205.58 2285.63,-208.937 2285.53,-201.938"/>
</g>
<!-- Node24 -->
<g id="node24" class="node"><title>Node24</title>
<g id="a_node24"><a xlink:href="_set_motor_parameters_8cpp.html" target="_top" xlink:title="/home/travis/build\l/robotology/wb&#45;toolbox\l/toolbox/library/src/SetMotor\lParameters.cpp">
<polygon fill="none" stroke="black" points="3243,-91 3243,-143 3383,-143 3383,-91 3243,-91"/>
<text text-anchor="start" x="3251" y="-131" font-family="Helvetica,sans-Serif" font-size="10.00">/home/travis/build</text>
<text text-anchor="start" x="3251" y="-120" font-family="Helvetica,sans-Serif" font-size="10.00">/robotology/wb&#45;toolbox</text>
<text text-anchor="start" x="3251" y="-109" font-family="Helvetica,sans-Serif" font-size="10.00">/toolbox/library/src/SetMotor</text>
<text text-anchor="middle" x="3313" y="-98" font-family="Helvetica,sans-Serif" font-size="10.00">Parameters.cpp</text>
</a>
</g>
</g>
<!-- Node1&#45;&gt;Node24 -->
<g id="edge23" class="edge"><title>Node1&#45;&gt;Node24</title>
<path fill="none" stroke="midnightblue" d="M2285.84,-203.97C2487.64,-197.964 3051.08,-178.511 3233,-144 3236.16,-143.401 3239.36,-142.713 3242.58,-141.956"/>
<polygon fill="midnightblue" stroke="midnightblue" points="2285.53,-200.477 2275.64,-204.271 2285.74,-207.474 2285.53,-200.477"/>
</g>
<!-- Node25 -->
<g id="node25" class="node"><title>Node25</title>
<g id="a_node25"><a xlink:href="_set_references_8cpp.html" target="_top" xlink:title="/home/travis/build\l/robotology/wb&#45;toolbox\l/toolbox/library/src/SetReferences.cpp">
<polygon fill="none" stroke="black" points="3401,-96.5 3401,-137.5 3585,-137.5 3585,-96.5 3401,-96.5"/>
<text text-anchor="start" x="3409" y="-125.5" font-family="Helvetica,sans-Serif" font-size="10.00">/home/travis/build</text>
<text text-anchor="start" x="3409" y="-114.5" font-family="Helvetica,sans-Serif" font-size="10.00">/robotology/wb&#45;toolbox</text>
<text text-anchor="middle" x="3493" y="-103.5" font-family="Helvetica,sans-Serif" font-size="10.00">/toolbox/library/src/SetReferences.cpp</text>
</a>
</g>
</g>
<!-- Node1&#45;&gt;Node25 -->
<g id="edge24" class="edge"><title>Node1&#45;&gt;Node25</title>
<path fill="none" stroke="midnightblue" d="M2286.06,-204.067C2508.79,-197.872 3177.11,-176.971 3392,-144 3402.65,-142.366 3413.8,-140.087 3424.65,-137.551"/>
<polygon fill="midnightblue" stroke="midnightblue" points="2285.7,-200.576 2275.8,-204.351 2285.89,-207.573 2285.7,-200.576"/>
</g>
<!-- Node26 -->
<g id="node26" class="node"><title>Node26</title>
<g id="a_node26"><a xlink:href="_simulator_synchronizer_8cpp.html" target="_top" xlink:title="/home/travis/build\l/robotology/wb&#45;toolbox\l/toolbox/library/src/Simulator\lSynchronizer.cpp">
<polygon fill="none" stroke="black" points="3603.5,-91 3603.5,-143 3744.5,-143 3744.5,-91 3603.5,-91"/>
<text text-anchor="start" x="3611.5" y="-131" font-family="Helvetica,sans-Serif" font-size="10.00">/home/travis/build</text>
<text text-anchor="start" x="3611.5" y="-120" font-family="Helvetica,sans-Serif" font-size="10.00">/robotology/wb&#45;toolbox</text>
<text text-anchor="start" x="3611.5" y="-109" font-family="Helvetica,sans-Serif" font-size="10.00">/toolbox/library/src/Simulator</text>
<text text-anchor="middle" x="3674" y="-98" font-family="Helvetica,sans-Serif" font-size="10.00">Synchronizer.cpp</text>
</a>
</g>
</g>
<!-- Node1&#45;&gt;Node26 -->
<g id="edge25" class="edge"><title>Node1&#45;&gt;Node26</title>
<path fill="none" stroke="midnightblue" d="M2286.13,-205.309C2533.75,-202.564 3339.38,-190.215 3594,-144 3597.02,-143.452 3600.08,-142.82 3603.16,-142.119"/>
<polygon fill="midnightblue" stroke="midnightblue" points="2285.76,-201.813 2275.8,-205.422 2285.84,-208.812 2285.76,-201.813"/>
</g>
<!-- Node27 -->
<g id="node27" class="node"><title>Node27</title>
<g id="a_node27"><a xlink:href="_w_b_block_8cpp.html" target="_top" xlink:title="/home/travis/build\l/robotology/wb&#45;toolbox\l/toolbox/library/src/WBBlock.cpp">
<polygon fill="none" stroke="black" points="3763,-96.5 3763,-137.5 3923,-137.5 3923,-96.5 3763,-96.5"/>
<text text-anchor="start" x="3771" y="-125.5" font-family="Helvetica,sans-Serif" font-size="10.00">/home/travis/build</text>
<text text-anchor="start" x="3771" y="-114.5" font-family="Helvetica,sans-Serif" font-size="10.00">/robotology/wb&#45;toolbox</text>
<text text-anchor="middle" x="3843" y="-103.5" font-family="Helvetica,sans-Serif" font-size="10.00">/toolbox/library/src/WBBlock.cpp</text>
</a>
</g>
</g>
<!-- Node1&#45;&gt;Node27 -->
<g id="edge26" class="edge"><title>Node1&#45;&gt;Node27</title>
<path fill="none" stroke="midnightblue" d="M2285.83,-205.391C2551.09,-202.813 3465.15,-190.67 3753,-144 3762.79,-142.412 3773.03,-140.105 3782.94,-137.511"/>
<polygon fill="midnightblue" stroke="midnightblue" points="2285.51,-201.894 2275.55,-205.49 2285.58,-208.894 2285.51,-201.894"/>
</g>
<!-- Node28 -->
<g id="node28" class="node"><title>Node28</title>
<g id="a_node28"><a xlink:href="_yarp_clock_8cpp.html" target="_top" xlink:title="/home/travis/build\l/robotology/wb&#45;toolbox\l/toolbox/library/src/YarpClock.cpp">
<polygon fill="none" stroke="black" points="3941,-96.5 3941,-137.5 4105,-137.5 4105,-96.5 3941,-96.5"/>
<text text-anchor="start" x="3949" y="-125.5" font-family="Helvetica,sans-Serif" font-size="10.00">/home/travis/build</text>
<text text-anchor="start" x="3949" y="-114.5" font-family="Helvetica,sans-Serif" font-size="10.00">/robotology/wb&#45;toolbox</text>
<text text-anchor="middle" x="4023" y="-103.5" font-family="Helvetica,sans-Serif" font-size="10.00">/toolbox/library/src/YarpClock.cpp</text>
</a>
</g>
</g>
<!-- Node1&#45;&gt;Node28 -->
<g id="edge27" class="edge"><title>Node1&#45;&gt;Node28</title>
<path fill="none" stroke="midnightblue" d="M2286.05,-205.718C2570.93,-204.253 3607.51,-195.426 3932,-144 3941.9,-142.431 3952.25,-140.134 3962.27,-137.544"/>
<polygon fill="midnightblue" stroke="midnightblue" points="2285.82,-202.219 2275.84,-205.769 2285.86,-209.219 2285.82,-202.219"/>
</g>
<!-- Node29 -->
<g id="node29" class="node"><title>Node29</title>
<g id="a_node29"><a xlink:href="_yarp_read_8cpp.html" target="_top" xlink:title="/home/travis/build\l/robotology/wb&#45;toolbox\l/toolbox/library/src/YarpRead.cpp">
<polygon fill="none" stroke="black" points="4123,-96.5 4123,-137.5 4285,-137.5 4285,-96.5 4123,-96.5"/>
<text text-anchor="start" x="4131" y="-125.5" font-family="Helvetica,sans-Serif" font-size="10.00">/home/travis/build</text>
<text text-anchor="start" x="4131" y="-114.5" font-family="Helvetica,sans-Serif" font-size="10.00">/robotology/wb&#45;toolbox</text>
<text text-anchor="middle" x="4204" y="-103.5" font-family="Helvetica,sans-Serif" font-size="10.00">/toolbox/library/src/YarpRead.cpp</text>
</a>
</g>
</g>
<!-- Node1&#45;&gt;Node29 -->
<g id="edge28" class="edge"><title>Node1&#45;&gt;Node29</title>
<path fill="none" stroke="midnightblue" d="M2286.07,-206.04C2589.63,-205.834 3752.18,-201.246 4114,-144 4123.8,-142.45 4134.04,-140.162 4143.95,-137.576"/>
<polygon fill="midnightblue" stroke="midnightblue" points="2285.63,-202.54 2275.63,-206.046 2285.64,-209.54 2285.63,-202.54"/>
</g>
<!-- Node30 -->
<g id="node30" class="node"><title>Node30</title>
<g id="a_node30"><a xlink:href="_yarp_write_8cpp.html" target="_top" xlink:title="/home/travis/build\l/robotology/wb&#45;toolbox\l/toolbox/library/src/YarpWrite.cpp">
<polygon fill="none" stroke="black" points="4303,-96.5 4303,-137.5 4465,-137.5 4465,-96.5 4303,-96.5"/>
<text text-anchor="start" x="4311" y="-125.5" font-family="Helvetica,sans-Serif" font-size="10.00">/home/travis/build</text>
<text text-anchor="start" x="4311" y="-114.5" font-family="Helvetica,sans-Serif" font-size="10.00">/robotology/wb&#45;toolbox</text>
<text text-anchor="middle" x="4384" y="-103.5" font-family="Helvetica,sans-Serif" font-size="10.00">/toolbox/library/src/YarpWrite.cpp</text>
</a>
</g>
</g>
<!-- Node1&#45;&gt;Node30 -->
<g id="edge29" class="edge"><title>Node1&#45;&gt;Node30</title>
<path fill="none" stroke="midnightblue" d="M2285.76,-206.281C2606.4,-207.141 3894.94,-206.562 4294,-144 4303.8,-142.463 4314.04,-140.183 4323.96,-137.6"/>
<polygon fill="midnightblue" stroke="midnightblue" points="2285.67,-202.78 2275.66,-206.252 2285.65,-209.78 2285.67,-202.78"/>
</g>
<!-- Node3 -->
<g id="node3" class="node"><title>Node3</title>
<g id="a_node3"><a xlink:href="_coder_block_information_8cpp.html" target="_top" xlink:title="/home/travis/build\l/robotology/wb&#45;toolbox\l/toolbox/core/src/CoderBlock\lInformation.cpp">
<polygon fill="none" stroke="black" points="4.5,-1 4.5,-53 147.5,-53 147.5,-1 4.5,-1"/>
<text text-anchor="start" x="12.5" y="-41" font-family="Helvetica,sans-Serif" font-size="10.00">/home/travis/build</text>
<text text-anchor="start" x="12.5" y="-30" font-family="Helvetica,sans-Serif" font-size="10.00">/robotology/wb&#45;toolbox</text>
<text text-anchor="start" x="12.5" y="-19" font-family="Helvetica,sans-Serif" font-size="10.00">/toolbox/core/src/CoderBlock</text>
<text text-anchor="middle" x="76" y="-8" font-family="Helvetica,sans-Serif" font-size="10.00">Information.cpp</text>
</a>
</g>
</g>
<!-- Node2&#45;&gt;Node3 -->
<g id="edge2" class="edge"><title>Node2&#45;&gt;Node3</title>
<path fill="none" stroke="midnightblue" d="M76,-80.4892C76,-71.3088 76,-61.616 76,-53.0921"/>
<polygon fill="midnightblue" stroke="midnightblue" points="72.5001,-80.5467 76,-90.5468 79.5001,-80.5468 72.5001,-80.5467"/>
</g>
<!-- Node5 -->
<g id="node5" class="node"><title>Node5</title>
<g id="a_node5"><a xlink:href="_simulink_block_information_8cpp.html" target="_top" xlink:title="/home/travis/build\l/robotology/wb&#45;toolbox\l/toolbox/core/src/SimulinkBlock\lInformation.cpp">
<polygon fill="none" stroke="black" points="169.5,-1 169.5,-53 324.5,-53 324.5,-1 169.5,-1"/>
<text text-anchor="start" x="177.5" y="-41" font-family="Helvetica,sans-Serif" font-size="10.00">/home/travis/build</text>
<text text-anchor="start" x="177.5" y="-30" font-family="Helvetica,sans-Serif" font-size="10.00">/robotology/wb&#45;toolbox</text>
<text text-anchor="start" x="177.5" y="-19" font-family="Helvetica,sans-Serif" font-size="10.00">/toolbox/core/src/SimulinkBlock</text>
<text text-anchor="middle" x="247" y="-8" font-family="Helvetica,sans-Serif" font-size="10.00">Information.cpp</text>
</a>
</g>
</g>
<!-- Node4&#45;&gt;Node5 -->
<g id="edge4" class="edge"><title>Node4&#45;&gt;Node5</title>
<path fill="none" stroke="midnightblue" d="M249.982,-80.4892C249.461,-71.3088 248.91,-61.616 248.426,-53.0921"/>
<polygon fill="midnightblue" stroke="midnightblue" points="246.492,-80.7614 250.554,-90.5468 253.481,-80.3643 246.492,-80.7614"/>
</g>
<!-- Node6 -->
<g id="node6" class="node"><title>Node6</title>
<g id="a_node6"><a xlink:href="_w_b_toolbox_8cpp.html" target="_top" xlink:title="/home/travis/build\l/robotology/wb&#45;toolbox\l/toolbox/core/src/WBToolbox.cpp">
<polygon fill="none" stroke="black" points="343,-6.5 343,-47.5 505,-47.5 505,-6.5 343,-6.5"/>
<text text-anchor="start" x="351" y="-35.5" font-family="Helvetica,sans-Serif" font-size="10.00">/home/travis/build</text>
<text text-anchor="start" x="351" y="-24.5" font-family="Helvetica,sans-Serif" font-size="10.00">/robotology/wb&#45;toolbox</text>
<text text-anchor="middle" x="424" y="-13.5" font-family="Helvetica,sans-Serif" font-size="10.00">/toolbox/core/src/WBToolbox.cpp</text>
</a>
</g>
</g>
<!-- Node4&#45;&gt;Node6 -->
<g id="edge5" class="edge"><title>Node4&#45;&gt;Node6</title>
<path fill="none" stroke="midnightblue" d="M310.275,-86.1848C335.142,-73.4622 363.472,-58.9678 385.636,-47.6283"/>
<polygon fill="midnightblue" stroke="midnightblue" points="308.597,-83.112 301.288,-90.7827 311.785,-89.3438 308.597,-83.112"/>
</g>
</g>
</svg>
        <g id="navigator" transform="translate(0 0)" fill="#404254">
                <rect fill="#f2f5e9" fill-opacity="0.5" stroke="#606060" stroke-width=".5" x="0" y="0" width="60" height="60"/>
                <use id="zoomplus" xlink:href="#zoomPlus" x="17" y="9" onmousedown="handleZoom(evt,'in')"/>
                <use id="zoomminus" xlink:href="#zoomMin" x="42" y="9" onmousedown="handleZoom(evt,'out')"/>
                <use id="reset" xlink:href="#resetDef" x="30" y="36" onmousedown="handleReset()"/>
                <g id="arrowUp" xlink:href="#dirArrow" transform="translate(30 24)" onmousedown="handlePan(0,-1)">
                  <use xlink:href="#rim" fill="#404040">
                        <set attributeName="fill" to="#808080" begin="arrowUp.mouseover" end="arrowUp.mouseout"/>
                  </use>
                  <path fill="none" stroke="white" stroke-width="1.5" d="M0,-3.0v7 M-2.5,-0.5L0,-3.0L2.5,-0.5"/>
                </g>
                <g id="arrowRight" xlink:href="#dirArrow" transform="rotate(90) translate(36 -43)" onmousedown="handlePan(1,0)">
                  <use xlink:href="#rim" fill="#404040">
                        <set attributeName="fill" to="#808080" begin="arrowRight.mouseover" end="arrowRight.mouseout"/>
                  </use>
                  <path fill="none" stroke="white" stroke-width="1.5" d="M0,-3.0v7 M-2.5,-0.5L0,-3.0L2.5,-0.5"/>
                </g>
                <g id="arrowDown" xlink:href="#dirArrow" transform="rotate(180) translate(-30 -48)" onmousedown="handlePan(0,1)">
                  <use xlink:href="#rim" fill="#404040">
                        <set attributeName="fill" to="#808080" begin="arrowDown.mouseover" end="arrowDown.mouseout"/>
                  </use>
                  <path fill="none" stroke="white" stroke-width="1.5" d="M0,-3.0v7 M-2.5,-0.5L0,-3.0L2.5,-0.5"/>
                </g>
                <g id="arrowLeft" xlink:href="#dirArrow" transform="rotate(270) translate(-36 17)" onmousedown="handlePan(-1,0)">
                  <use xlink:href="#rim" fill="#404040">
                        <set attributeName="fill" to="#808080" begin="arrowLeft.mouseover" end="arrowLeft.mouseout"/>
                  </use>
                  <path fill="none" stroke="white" stroke-width="1.5" d="M0,-3.0v7 M-2.5,-0.5L0,-3.0L2.5,-0.5"/>
                </g>
        </g>
        <svg viewBox="0 0 15 15" width="100%" height="30px" preserveAspectRatio="xMaxYMin meet">
         <g id="arrow_out" transform="scale(0.3 0.3)">
          <a xlink:href="_block_information_8h__dep__incl_org.svg" target="_base">
           <rect id="button" ry="5" rx="5" y="6" x="6" height="38" width="38"
                fill="#f2f5e9" fill-opacity="0.5" stroke="#606060" stroke-width="1.0"/>
           <path id="arrow"
             d="M 11.500037,31.436501 C 11.940474,20.09759 22.043105,11.32322 32.158766,21.979434 L 37.068811,17.246167 C 37.068811,17.246167 37.088388,32 37.088388,32 L 22.160133,31.978069 C 22.160133,31.978069 26.997745,27.140456 26.997745,27.140456 C 18.528582,18.264221 13.291696,25.230495 11.500037,31.436501 z"
             style="fill:#404040;"/>
          </a>
         </g>
        </svg>
</svg>
