<?xml version="1.0" encoding="UTF-8" standalone="no"?>
<!DOCTYPE svg PUBLIC "-//W3C//DTD SVG 1.1//EN"
 "http://www.w3.org/Graphics/SVG/1.1/DTD/svg11.dtd">
<!-- Generated by graphviz version 2.36.0 (20140111.2315)
 -->
<!-- Title: /home/travis/build/robotology/wb&#45;toolbox/toolbox/src/core/src/Block.cpp Pages: 1 -->
<svg width="519pt" height="230pt"
 viewBox="0.00 0.00 519.00 230.00" xmlns="http://www.w3.org/2000/svg" xmlns:xlink="http://www.w3.org/1999/xlink">
<g id="graph0" class="graph" transform="scale(1 1) rotate(0) translate(4 226)">
<title>/home/travis/build/robotology/wb&#45;toolbox/toolbox/src/core/src/Block.cpp</title>
<!-- Node1 -->
<g id="node1" class="node"><title>Node1</title>
<polygon fill="#bfbfbf" stroke="black" points="186.5,-169 186.5,-221 301.5,-221 301.5,-169 186.5,-169"/>
<text text-anchor="start" x="194.5" y="-209" font-family="Helvetica,sans-Serif" font-size="10.00">/home/travis/build</text>
<text text-anchor="start" x="194.5" y="-198" font-family="Helvetica,sans-Serif" font-size="10.00">/robotology/wb&#45;toolbox</text>
<text text-anchor="start" x="194.5" y="-187" font-family="Helvetica,sans-Serif" font-size="10.00">/toolbox/src/core/src</text>
<text text-anchor="middle" x="244" y="-176" font-family="Helvetica,sans-Serif" font-size="10.00">/Block.cpp</text>
</g>
<!-- Node2 -->
<g id="node2" class="node"><title>Node2</title>
<g id="a_node2"><a xlink:href="_block_8h.html" target="_top" xlink:title="Core/Block.h">
<polygon fill="none" stroke="black" points="207,-112.5 207,-131.5 281,-131.5 281,-112.5 207,-112.5"/>
<text text-anchor="middle" x="244" y="-119.5" font-family="Helvetica,sans-Serif" font-size="10.00">Core/Block.h</text>
</a>
</g>
</g>
<!-- Node1&#45;&gt;Node2 -->
<g id="edge1" class="edge"><title>Node1&#45;&gt;Node2</title>
<path fill="none" stroke="midnightblue" d="M244,-168.768C244,-159.89 244,-150.074 244,-141.816"/>
<polygon fill="midnightblue" stroke="midnightblue" points="247.5,-141.757 244,-131.757 240.5,-141.757 247.5,-141.757"/>
</g>
<!-- Node7 -->
<g id="node7" class="node"><title>Node7</title>
<g id="a_node7"><a xlink:href="_block_information_8h.html" target="_top" xlink:title="Core/BlockInformation.h">
<polygon fill="none" stroke="black" points="389,-56.5 389,-75.5 511,-75.5 511,-56.5 389,-56.5"/>
<text text-anchor="middle" x="450" y="-63.5" font-family="Helvetica,sans-Serif" font-size="10.00">Core/BlockInformation.h</text>
</a>
</g>
</g>
<!-- Node1&#45;&gt;Node7 -->
<g id="edge8" class="edge"><title>Node1&#45;&gt;Node7</title>
<path fill="none" stroke="midnightblue" d="M264.581,-168.894C280.364,-150.994 303.533,-127.455 328,-112 351.905,-96.9006 381.621,-85.8047 405.739,-78.4091"/>
<polygon fill="midnightblue" stroke="midnightblue" points="406.764,-81.7559 415.36,-75.5622 404.778,-75.0437 406.764,-81.7559"/>
</g>
<!-- Node10 -->
<g id="node10" class="node"><title>Node10</title>
<g id="a_node10"><a xlink:href="_log_8h.html" target="_top" xlink:title="Core/Log.h">
<polygon fill="none" stroke="black" points="-0.5,-56.5 -0.5,-75.5 64.5,-75.5 64.5,-56.5 -0.5,-56.5"/>
<text text-anchor="middle" x="32" y="-63.5" font-family="Helvetica,sans-Serif" font-size="10.00">Core/Log.h</text>
</a>
</g>
</g>
<!-- Node1&#45;&gt;Node10 -->
<g id="edge14" class="edge"><title>Node1&#45;&gt;Node10</title>
<path fill="none" stroke="midnightblue" d="M202.116,-168.909C158.028,-142.498 90.2389,-101.888 55.0228,-80.7919"/>
<polygon fill="midnightblue" stroke="midnightblue" points="56.7795,-77.7644 46.4024,-75.6278 53.1822,-83.7694 56.7795,-77.7644"/>
</g>
<!-- Node12 -->
<g id="node12" class="node"><title>Node12</title>
<g id="a_node12"><a xlink:href="_parameter_8h.html" target="_top" xlink:title="Core/Parameter.h">
<polygon fill="none" stroke="black" points="83,-56.5 83,-75.5 177,-75.5 177,-56.5 83,-56.5"/>
<text text-anchor="middle" x="130" y="-63.5" font-family="Helvetica,sans-Serif" font-size="10.00">Core/Parameter.h</text>
</a>
</g>
</g>
<!-- Node1&#45;&gt;Node12 -->
<g id="edge18" class="edge"><title>Node1&#45;&gt;Node12</title>
<path fill="none" stroke="midnightblue" d="M221.477,-168.909C198.678,-143.51 164.091,-104.978 144.631,-83.2998"/>
<polygon fill="midnightblue" stroke="midnightblue" points="147.029,-80.7315 137.745,-75.6278 141.82,-85.4075 147.029,-80.7315"/>
</g>
<!-- Node13 -->
<g id="node13" class="node"><title>Node13</title>
<polygon fill="none" stroke="#bfbfbf" points="337,-112.5 337,-131.5 389,-131.5 389,-112.5 337,-112.5"/>
<text text-anchor="middle" x="363" y="-119.5" font-family="Helvetica,sans-Serif" font-size="10.00">ostream</text>
</g>
<!-- Node1&#45;&gt;Node13 -->
<g id="edge21" class="edge"><title>Node1&#45;&gt;Node13</title>
<path fill="none" stroke="midnightblue" d="M285.955,-168.968C304.02,-158.19 324.455,-145.997 339.738,-136.879"/>
<polygon fill="midnightblue" stroke="midnightblue" points="341.726,-139.768 348.521,-131.639 338.14,-133.757 341.726,-139.768"/>
</g>
<!-- Node3 -->
<g id="node3" class="node"><title>Node3</title>
<g id="a_node3"><a xlink:href="_parameters_8h.html" target="_top" xlink:title="Core/Parameters.h">
<polygon fill="none" stroke="black" points="233.5,-56.5 233.5,-75.5 332.5,-75.5 332.5,-56.5 233.5,-56.5"/>
<text text-anchor="middle" x="283" y="-63.5" font-family="Helvetica,sans-Serif" font-size="10.00">Core/Parameters.h</text>
</a>
</g>
</g>
<!-- Node2&#45;&gt;Node3 -->
<g id="edge2" class="edge"><title>Node2&#45;&gt;Node3</title>
<path fill="none" stroke="midnightblue" d="M250.44,-112.083C255.949,-104.455 264.031,-93.2645 270.765,-83.9408"/>
<polygon fill="midnightblue" stroke="midnightblue" points="273.662,-85.9071 276.68,-75.7511 267.987,-81.8087 273.662,-85.9071"/>
</g>
<!-- Node5 -->
<g id="node5" class="node"><title>Node5</title>
<polygon fill="none" stroke="#bfbfbf" points="184.5,-0.5 184.5,-19.5 225.5,-19.5 225.5,-0.5 184.5,-0.5"/>
<text text-anchor="middle" x="205" y="-7.5" font-family="Helvetica,sans-Serif" font-size="10.00">string</text>
</g>
<!-- Node2&#45;&gt;Node5 -->
<g id="edge6" class="edge"><title>Node2&#45;&gt;Node5</title>
<path fill="none" stroke="midnightblue" d="M239.658,-112.18C235.343,-103.211 228.707,-88.8435 224,-76 218.311,-60.4766 213.138,-42.394 209.632,-29.2481"/>
<polygon fill="midnightblue" stroke="midnightblue" points="213.009,-28.3275 207.104,-19.5311 206.235,-30.0902 213.009,-28.3275"/>
</g>
<!-- Node6 -->
<g id="node6" class="node"><title>Node6</title>
<polygon fill="none" stroke="#bfbfbf" points="333,-0.5 333,-19.5 377,-19.5 377,-0.5 333,-0.5"/>
<text text-anchor="middle" x="355" y="-7.5" font-family="Helvetica,sans-Serif" font-size="10.00">vector</text>
</g>
<!-- Node2&#45;&gt;Node6 -->
<g id="edge7" class="edge"><title>Node2&#45;&gt;Node6</title>
<path fill="none" stroke="midnightblue" d="M281.373,-112.421C301.914,-105.812 326.164,-94.5619 341,-76 351.464,-62.9081 354.562,-43.759 355.283,-29.6343"/>
<polygon fill="midnightblue" stroke="midnightblue" points="358.783,-29.6514 355.448,-19.5954 351.784,-29.5367 358.783,-29.6514"/>
</g>
<!-- Node4 -->
<g id="node4" class="node"><title>Node4</title>
<polygon fill="none" stroke="#bfbfbf" points="257,-0.5 257,-19.5 309,-19.5 309,-0.5 257,-0.5"/>
<text text-anchor="middle" x="283" y="-7.5" font-family="Helvetica,sans-Serif" font-size="10.00">memory</text>
</g>
<!-- Node3&#45;&gt;Node4 -->
<g id="edge3" class="edge"><title>Node3&#45;&gt;Node4</title>
<path fill="none" stroke="midnightblue" d="M283,-56.083C283,-49.0059 283,-38.8611 283,-29.9865"/>
<polygon fill="midnightblue" stroke="midnightblue" points="286.5,-29.751 283,-19.7511 279.5,-29.7511 286.5,-29.751"/>
</g>
<!-- Node3&#45;&gt;Node5 -->
<g id="edge4" class="edge"><title>Node3&#45;&gt;Node5</title>
<path fill="none" stroke="midnightblue" d="M270.468,-56.324C258.414,-47.979 239.973,-35.2122 225.731,-25.3524"/>
<polygon fill="midnightblue" stroke="midnightblue" points="227.715,-22.469 217.501,-19.6545 223.731,-28.2243 227.715,-22.469"/>
</g>
<!-- Node3&#45;&gt;Node6 -->
<g id="edge5" class="edge"><title>Node3&#45;&gt;Node6</title>
<path fill="none" stroke="midnightblue" d="M294.568,-56.324C305.42,-48.1849 321.881,-35.8395 334.883,-26.0874"/>
<polygon fill="midnightblue" stroke="midnightblue" points="337.321,-28.6339 343.221,-19.8339 333.121,-23.0339 337.321,-28.6339"/>
</g>
<!-- Node7&#45;&gt;Node4 -->
<g id="edge9" class="edge"><title>Node7&#45;&gt;Node4</title>
<path fill="none" stroke="midnightblue" d="M423.538,-56.4435C395.239,-47.2928 350.195,-32.7279 318.755,-22.5614"/>
<polygon fill="midnightblue" stroke="midnightblue" points="319.655,-19.1741 309.063,-19.4275 317.501,-25.8345 319.655,-19.1741"/>
</g>
<!-- Node7&#45;&gt;Node5 -->
<g id="edge10" class="edge"><title>Node7&#45;&gt;Node5</title>
<path fill="none" stroke="midnightblue" d="M411.179,-56.4435C362.462,-45.706 279.924,-27.5139 235.492,-17.7206"/>
<polygon fill="midnightblue" stroke="midnightblue" points="236.096,-14.2699 225.577,-15.5354 234.589,-21.1058 236.096,-14.2699"/>
</g>
<!-- Node7&#45;&gt;Node6 -->
<g id="edge13" class="edge"><title>Node7&#45;&gt;Node6</title>
<path fill="none" stroke="midnightblue" d="M434.737,-56.324C419.779,-47.8215 396.745,-34.7288 379.273,-24.7975"/>
<polygon fill="midnightblue" stroke="midnightblue" points="380.649,-21.5534 370.226,-19.6545 377.19,-27.639 380.649,-21.5534"/>
</g>
<!-- Node8 -->
<g id="node8" class="node"><title>Node8</title>
<polygon fill="none" stroke="#bfbfbf" points="413,-0.5 413,-19.5 451,-19.5 451,-0.5 413,-0.5"/>
<text text-anchor="middle" x="432" y="-7.5" font-family="Helvetica,sans-Serif" font-size="10.00">tuple</text>
</g>
<!-- Node7&#45;&gt;Node8 -->
<g id="edge11" class="edge"><title>Node7&#45;&gt;Node8</title>
<path fill="none" stroke="midnightblue" d="M447.028,-56.083C444.616,-48.8486 441.136,-38.4087 438.132,-29.3968"/>
<polygon fill="midnightblue" stroke="midnightblue" points="441.4,-28.1311 434.917,-19.7511 434.759,-30.3447 441.4,-28.1311"/>
</g>
<!-- Node9 -->
<g id="node9" class="node"><title>Node9</title>
<polygon fill="none" stroke="#bfbfbf" points="469,-0.5 469,-19.5 509,-19.5 509,-0.5 469,-0.5"/>
<text text-anchor="middle" x="489" y="-7.5" font-family="Helvetica,sans-Serif" font-size="10.00">utility</text>
</g>
<!-- Node7&#45;&gt;Node9 -->
<g id="edge12" class="edge"><title>Node7&#45;&gt;Node9</title>
<path fill="none" stroke="midnightblue" d="M456.44,-56.083C461.949,-48.4554 470.031,-37.2645 476.765,-27.9408"/>
<polygon fill="midnightblue" stroke="midnightblue" points="479.662,-29.9071 482.68,-19.7511 473.987,-25.8087 479.662,-29.9071"/>
</g>
<!-- Node10&#45;&gt;Node4 -->
<g id="edge15" class="edge"><title>Node10&#45;&gt;Node4</title>
<path fill="none" stroke="midnightblue" d="M64.5565,-57.9958C111.615,-47.8718 198.337,-29.2144 247.163,-18.7099"/>
<polygon fill="midnightblue" stroke="midnightblue" points="247.939,-22.1231 256.979,-16.5981 246.467,-15.2797 247.939,-22.1231"/>
</g>
<!-- Node10&#45;&gt;Node5 -->
<g id="edge17" class="edge"><title>Node10&#45;&gt;Node5</title>
<path fill="none" stroke="midnightblue" d="M59.4124,-56.4435C90.792,-46.6487 142.044,-30.6509 174.618,-20.4836"/>
<polygon fill="midnightblue" stroke="midnightblue" points="175.985,-23.7233 184.488,-17.4026 173.899,-17.0413 175.985,-23.7233"/>
</g>
<!-- Node11 -->
<g id="node11" class="node"><title>Node11</title>
<polygon fill="none" stroke="#bfbfbf" points="6,-0.5 6,-19.5 58,-19.5 58,-0.5 6,-0.5"/>
<text text-anchor="middle" x="32" y="-7.5" font-family="Helvetica,sans-Serif" font-size="10.00">sstream</text>
</g>
<!-- Node10&#45;&gt;Node11 -->
<g id="edge16" class="edge"><title>Node10&#45;&gt;Node11</title>
<path fill="none" stroke="midnightblue" d="M32,-56.083C32,-49.0059 32,-38.8611 32,-29.9865"/>
<polygon fill="midnightblue" stroke="midnightblue" points="35.5001,-29.751 32,-19.7511 28.5001,-29.7511 35.5001,-29.751"/>
</g>
<!-- Node12&#45;&gt;Node5 -->
<g id="edge19" class="edge"><title>Node12&#45;&gt;Node5</title>
<path fill="none" stroke="midnightblue" d="M142.05,-56.324C153.463,-48.1066 170.831,-35.6017 184.435,-25.8069"/>
<polygon fill="midnightblue" stroke="midnightblue" points="186.66,-28.5174 192.731,-19.8339 182.57,-22.8366 186.66,-28.5174"/>
</g>
<!-- Node12&#45;&gt;Node6 -->
<g id="edge20" class="edge"><title>Node12&#45;&gt;Node6</title>
<path fill="none" stroke="midnightblue" d="M165.7,-56.4958C203.524,-47.4763 264.985,-32.7926 318,-20 319.486,-19.6414 321.006,-19.2741 322.54,-18.9027"/>
<polygon fill="midnightblue" stroke="midnightblue" points="323.805,-22.1975 332.698,-16.4387 322.155,-15.3948 323.805,-22.1975"/>
</g>
</g>
</svg>
