<?xml version="1.0" encoding="UTF-8" standalone="no"?>
<!DOCTYPE svg PUBLIC "-//W3C//DTD SVG 1.1//EN"
 "http://www.w3.org/Graphics/SVG/1.1/DTD/svg11.dtd">
<!-- Generated by graphviz version 2.36.0 (20140111.2315)
 -->
<!-- Title: /home/travis/build/robotology/wb&#45;toolbox/toolbox/src/core/src/BlockInformation.cpp Pages: 1 -->
<svg width="296pt" height="174pt"
 viewBox="0.00 0.00 296.00 174.00" xmlns="http://www.w3.org/2000/svg" xmlns:xlink="http://www.w3.org/1999/xlink">
<g id="graph0" class="graph" transform="scale(1 1) rotate(0) translate(4 170)">
<title>/home/travis/build/robotology/wb&#45;toolbox/toolbox/src/core/src/BlockInformation.cpp</title>
<!-- Node1 -->
<g id="node1" class="node"><title>Node1</title>
<polygon fill="#bfbfbf" stroke="black" points="91.5,-113 91.5,-165 206.5,-165 206.5,-113 91.5,-113"/>
<text text-anchor="start" x="99.5" y="-153" font-family="Helvetica,sans-Serif" font-size="10.00">/home/travis/build</text>
<text text-anchor="start" x="99.5" y="-142" font-family="Helvetica,sans-Serif" font-size="10.00">/robotology/wb&#45;toolbox</text>
<text text-anchor="start" x="99.5" y="-131" font-family="Helvetica,sans-Serif" font-size="10.00">/toolbox/src/core/src</text>
<text text-anchor="middle" x="149" y="-120" font-family="Helvetica,sans-Serif" font-size="10.00">/BlockInformation.cpp</text>
</g>
<!-- Node2 -->
<g id="node2" class="node"><title>Node2</title>
<g id="a_node2"><a xlink:href="_block_information_8h.html" target="_top" xlink:title="Core/BlockInformation.h">
<polygon fill="none" stroke="black" points="88,-56.5 88,-75.5 210,-75.5 210,-56.5 88,-56.5"/>
<text text-anchor="middle" x="149" y="-63.5" font-family="Helvetica,sans-Serif" font-size="10.00">Core/BlockInformation.h</text>
</a>
</g>
</g>
<!-- Node1&#45;&gt;Node2 -->
<g id="edge1" class="edge"><title>Node1&#45;&gt;Node2</title>
<path fill="none" stroke="midnightblue" d="M149,-112.768C149,-103.89 149,-94.0737 149,-85.8165"/>
<polygon fill="midnightblue" stroke="midnightblue" points="152.5,-85.7571 149,-75.7572 145.5,-85.7572 152.5,-85.7571"/>
</g>
<!-- Node3 -->
<g id="node3" class="node"><title>Node3</title>
<polygon fill="none" stroke="#bfbfbf" points="0,-0.5 0,-19.5 52,-19.5 52,-0.5 0,-0.5"/>
<text text-anchor="middle" x="26" y="-7.5" font-family="Helvetica,sans-Serif" font-size="10.00">memory</text>
</g>
<!-- Node2&#45;&gt;Node3 -->
<g id="edge2" class="edge"><title>Node2&#45;&gt;Node3</title>
<path fill="none" stroke="midnightblue" d="M129.51,-56.4435C109.358,-47.5961 77.6771,-33.6875 54.6692,-23.5865"/>
<polygon fill="midnightblue" stroke="midnightblue" points="55.962,-20.3316 45.3985,-19.5164 53.148,-26.7411 55.962,-20.3316"/>
</g>
<!-- Node4 -->
<g id="node4" class="node"><title>Node4</title>
<polygon fill="none" stroke="#bfbfbf" points="70.5,-0.5 70.5,-19.5 111.5,-19.5 111.5,-0.5 70.5,-0.5"/>
<text text-anchor="middle" x="91" y="-7.5" font-family="Helvetica,sans-Serif" font-size="10.00">string</text>
</g>
<!-- Node2&#45;&gt;Node4 -->
<g id="edge3" class="edge"><title>Node2&#45;&gt;Node4</title>
<path fill="none" stroke="midnightblue" d="M139.681,-56.324C131.107,-48.3414 118.188,-36.3128 107.812,-26.6529"/>
<polygon fill="midnightblue" stroke="midnightblue" points="110.192,-24.0865 100.488,-19.8339 105.422,-29.2098 110.192,-24.0865"/>
</g>
<!-- Node5 -->
<g id="node5" class="node"><title>Node5</title>
<polygon fill="none" stroke="#bfbfbf" points="130,-0.5 130,-19.5 168,-19.5 168,-0.5 130,-0.5"/>
<text text-anchor="middle" x="149" y="-7.5" font-family="Helvetica,sans-Serif" font-size="10.00">tuple</text>
</g>
<!-- Node2&#45;&gt;Node5 -->
<g id="edge4" class="edge"><title>Node2&#45;&gt;Node5</title>
<path fill="none" stroke="midnightblue" d="M149,-56.083C149,-49.0059 149,-38.8611 149,-29.9865"/>
<polygon fill="midnightblue" stroke="midnightblue" points="152.5,-29.751 149,-19.7511 145.5,-29.7511 152.5,-29.751"/>
</g>
<!-- Node6 -->
<g id="node6" class="node"><title>Node6</title>
<polygon fill="none" stroke="#bfbfbf" points="186,-0.5 186,-19.5 226,-19.5 226,-0.5 186,-0.5"/>
<text text-anchor="middle" x="206" y="-7.5" font-family="Helvetica,sans-Serif" font-size="10.00">utility</text>
</g>
<!-- Node2&#45;&gt;Node6 -->
<g id="edge5" class="edge"><title>Node2&#45;&gt;Node6</title>
<path fill="none" stroke="midnightblue" d="M158.158,-56.324C166.501,-48.4196 179.032,-36.5482 189.177,-26.9377"/>
<polygon fill="midnightblue" stroke="midnightblue" points="191.823,-29.2522 196.675,-19.8339 187.009,-24.1705 191.823,-29.2522"/>
</g>
<!-- Node7 -->
<g id="node7" class="node"><title>Node7</title>
<polygon fill="none" stroke="#bfbfbf" points="244,-0.5 244,-19.5 288,-19.5 288,-0.5 244,-0.5"/>
<text text-anchor="middle" x="266" y="-7.5" font-family="Helvetica,sans-Serif" font-size="10.00">vector</text>
</g>
<!-- Node2&#45;&gt;Node7 -->
<g id="edge6" class="edge"><title>Node2&#45;&gt;Node7</title>
<path fill="none" stroke="midnightblue" d="M167.539,-56.4435C186.623,-47.6356 216.575,-33.8116 238.436,-23.722"/>
<polygon fill="midnightblue" stroke="midnightblue" points="239.935,-26.8849 247.548,-19.5164 237.001,-20.5292 239.935,-26.8849"/>
</g>
</g>
</svg>
