<?xml version="1.0" encoding="UTF-8" standalone="no"?>
<!DOCTYPE svg PUBLIC "-//W3C//DTD SVG 1.1//EN"
 "http://www.w3.org/Graphics/SVG/1.1/DTD/svg11.dtd">
<!-- Generated by graphviz version 2.36.0 (20140111.2315)
 -->
<!-- Title: /home/travis/build/robotology/wb&#45;toolbox/toolbox/include/base/BlockInformation.h Pages: 1 -->
<!--zoomable 242 -->
<svg id="main" version="1.1" xmlns="http://www.w3.org/2000/svg" xmlns:xlink="http://www.w3.org/1999/xlink" xml:space="preserve" onload="init(evt)">
<style type="text/css"><![CDATA[
.edge:hover path { stroke: red; }
.edge:hover polygon { stroke: red; fill: red; }
]]></style>
<script type="text/javascript"><![CDATA[
var edges = document.getElementsByTagName('g');
if (edges && edges.length) {
  for (var i=0;i<edges.length;i++) {
    if (edges[i].id.substr(0,4)=='edge') {
      edges[i].setAttribute('class','edge');
    }
  }
}
]]></script>
        <defs>
                <circle id="rim" cx="0" cy="0" r="7"/>
                <circle id="rim2" cx="0" cy="0" r="3.5"/>
                <g id="zoomPlus">
                        <use xlink:href="#rim" fill="#404040">
                                <set attributeName="fill" to="#808080" begin="zoomplus.mouseover" end="zoomplus.mouseout"/>
                        </use>
                        <path d="M-4,0h8M0,-4v8" fill="none" stroke="white" stroke-width="1.5" pointer-events="none"/>
                </g>
                <g id="zoomMin">
                        <use xlink:href="#rim" fill="#404040">
                                <set attributeName="fill" to="#808080" begin="zoomminus.mouseover" end="zoomminus.mouseout"/>
                        </use>
                        <path d="M-4,0h8" fill="none" stroke="white" stroke-width="1.5" pointer-events="none"/>
                </g>
                <g id="dirArrow">
                        <path fill="none" stroke="white" stroke-width="1.5" d="M0,-3.0v7 M-2.5,-0.5L0,-3.0L2.5,-0.5"/>
                </g>
               <g id="resetDef">
                       <use xlink:href="#rim2" fill="#404040">
                               <set attributeName="fill" to="#808080" begin="reset.mouseover" end="reset.mouseout"/>
                       </use>
               </g>
        </defs>

<script type="text/javascript">
var viewWidth = 4565;
var viewHeight = 242;
var sectionId = 'dynsection-1';
</script>
<script xlink:href="svgpan.js"/>
<svg id="graph" class="graph">
<g id="viewport">
<title>/home/travis/build/robotology/wb&#45;toolbox/toolbox/include/base/BlockInformation.h</title>
<!-- Node1 -->
<g id="node1" class="node"><title>Node1</title>
<polygon fill="#bfbfbf" stroke="black" points="2190.5,-181 2190.5,-233 2305.5,-233 2305.5,-181 2190.5,-181"/>
<text text-anchor="start" x="2198.5" y="-221" font-family="Helvetica,sans-Serif" font-size="10.00">/home/travis/build</text>
<text text-anchor="start" x="2198.5" y="-210" font-family="Helvetica,sans-Serif" font-size="10.00">/robotology/wb&#45;toolbox</text>
<text text-anchor="start" x="2198.5" y="-199" font-family="Helvetica,sans-Serif" font-size="10.00">/toolbox/include/base</text>
<text text-anchor="middle" x="2248" y="-188" font-family="Helvetica,sans-Serif" font-size="10.00">/BlockInformation.h</text>
</g>
<!-- Node2 -->
<g id="node2" class="node"><title>Node2</title>
<g id="a_node2"><a xlink:href="_coder_block_information_8h.html" target="_top" xlink:title="/home/travis/build\l/robotology/wb&#45;toolbox\l/toolbox/include/base\l/CoderBlockInformation.h">
<polygon fill="none" stroke="black" points="18,-91 18,-143 146,-143 146,-91 18,-91"/>
<text text-anchor="start" x="26" y="-131" font-family="Helvetica,sans-Serif" font-size="10.00">/home/travis/build</text>
<text text-anchor="start" x="26" y="-120" font-family="Helvetica,sans-Serif" font-size="10.00">/robotology/wb&#45;toolbox</text>
<text text-anchor="start" x="26" y="-109" font-family="Helvetica,sans-Serif" font-size="10.00">/toolbox/include/base</text>
<text text-anchor="middle" x="82" y="-98" font-family="Helvetica,sans-Serif" font-size="10.00">/CoderBlockInformation.h</text>
</a>
</g>
</g>
<!-- Node1&#45;&gt;Node2 -->
<g id="edge1" class="edge"><title>Node1&#45;&gt;Node2</title>
<path fill="none" stroke="midnightblue" d="M2180.36,-205.101C1844.73,-200.493 366.255,-178.384 164,-144 158.111,-142.999 152.06,-141.676 146.042,-140.156"/>
<polygon fill="midnightblue" stroke="midnightblue" points="2180.37,-208.602 2190.42,-205.239 2180.47,-201.602 2180.37,-208.602"/>
</g>
<!-- Node4 -->
<g id="node4" class="node"><title>Node4</title>
<g id="a_node4"><a xlink:href="_simulink_block_information_8h.html" target="_top" xlink:title="/home/travis/build\l/robotology/wb&#45;toolbox\l/toolbox/include/base\l/SimulinkBlockInformation.h">
<polygon fill="none" stroke="black" points="173.5,-91 173.5,-143 312.5,-143 312.5,-91 173.5,-91"/>
<text text-anchor="start" x="181.5" y="-131" font-family="Helvetica,sans-Serif" font-size="10.00">/home/travis/build</text>
<text text-anchor="start" x="181.5" y="-120" font-family="Helvetica,sans-Serif" font-size="10.00">/robotology/wb&#45;toolbox</text>
<text text-anchor="start" x="181.5" y="-109" font-family="Helvetica,sans-Serif" font-size="10.00">/toolbox/include/base</text>
<text text-anchor="middle" x="243" y="-98" font-family="Helvetica,sans-Serif" font-size="10.00">/SimulinkBlockInformation.h</text>
</a>
</g>
</g>
<!-- Node1&#45;&gt;Node4 -->
<g id="edge3" class="edge"><title>Node1&#45;&gt;Node4</title>
<path fill="none" stroke="midnightblue" d="M2179.96,-206.407C1881.91,-207.792 689.899,-209.072 322,-144 318.872,-143.447 315.698,-142.797 312.509,-142.07"/>
<polygon fill="midnightblue" stroke="midnightblue" points="2180.2,-209.906 2190.19,-206.358 2180.17,-202.906 2180.2,-209.906"/>
</g>
<!-- Node7 -->
<g id="node7" class="node"><title>Node7</title>
<g id="a_node7"><a xlink:href="_block_8cpp.html" target="_top" xlink:title="/home/travis/build\l/robotology/wb&#45;toolbox\l/toolbox/src/base/Block.cpp">
<polygon fill="none" stroke="black" points="331,-96.5 331,-137.5 469,-137.5 469,-96.5 331,-96.5"/>
<text text-anchor="start" x="339" y="-125.5" font-family="Helvetica,sans-Serif" font-size="10.00">/home/travis/build</text>
<text text-anchor="start" x="339" y="-114.5" font-family="Helvetica,sans-Serif" font-size="10.00">/robotology/wb&#45;toolbox</text>
<text text-anchor="middle" x="400" y="-103.5" font-family="Helvetica,sans-Serif" font-size="10.00">/toolbox/src/base/Block.cpp</text>
</a>
</g>
</g>
<!-- Node1&#45;&gt;Node7 -->
<g id="edge6" class="edge"><title>Node1&#45;&gt;Node7</title>
<path fill="none" stroke="midnightblue" d="M2180,-206.179C1897.37,-206.531 814.635,-203.859 479,-144 470.329,-142.454 461.305,-140.168 452.588,-137.583"/>
<polygon fill="midnightblue" stroke="midnightblue" points="2180.11,-209.679 2190.11,-206.165 2180.1,-202.679 2180.11,-209.679"/>
</g>
<!-- Node8 -->
<g id="node8" class="node"><title>Node8</title>
<g id="a_node8"><a xlink:href="_block_information_8cpp.html" target="_top" xlink:title="/home/travis/build\l/robotology/wb&#45;toolbox\l/toolbox/src/base/BlockInformation.cpp">
<polygon fill="none" stroke="black" points="487.5,-96.5 487.5,-137.5 674.5,-137.5 674.5,-96.5 487.5,-96.5"/>
<text text-anchor="start" x="495.5" y="-125.5" font-family="Helvetica,sans-Serif" font-size="10.00">/home/travis/build</text>
<text text-anchor="start" x="495.5" y="-114.5" font-family="Helvetica,sans-Serif" font-size="10.00">/robotology/wb&#45;toolbox</text>
<text text-anchor="middle" x="581" y="-103.5" font-family="Helvetica,sans-Serif" font-size="10.00">/toolbox/src/base/BlockInformation.cpp</text>
</a>
</g>
</g>
<!-- Node1&#45;&gt;Node8 -->
<g id="edge7" class="edge"><title>Node1&#45;&gt;Node8</title>
<path fill="none" stroke="midnightblue" d="M2180.36,-205.187C1919.61,-201.764 979.428,-186.67 684,-144 672.957,-142.405 661.38,-140.112 650.14,-137.539"/>
<polygon fill="midnightblue" stroke="midnightblue" points="2180.4,-208.688 2190.45,-205.318 2180.49,-201.688 2180.4,-208.688"/>
</g>
<!-- Node9 -->
<g id="node9" class="node"><title>Node9</title>
<g id="a_node9"><a xlink:href="_w_b_block_8cpp.html" target="_top" xlink:title="/home/travis/build\l/robotology/wb&#45;toolbox\l/toolbox/src/base/WBBlock.cpp">
<polygon fill="none" stroke="black" points="692.5,-96.5 692.5,-137.5 847.5,-137.5 847.5,-96.5 692.5,-96.5"/>
<text text-anchor="start" x="700.5" y="-125.5" font-family="Helvetica,sans-Serif" font-size="10.00">/home/travis/build</text>
<text text-anchor="start" x="700.5" y="-114.5" font-family="Helvetica,sans-Serif" font-size="10.00">/robotology/wb&#45;toolbox</text>
<text text-anchor="middle" x="770" y="-103.5" font-family="Helvetica,sans-Serif" font-size="10.00">/toolbox/src/base/WBBlock.cpp</text>
</a>
</g>
</g>
<!-- Node1&#45;&gt;Node9 -->
<g id="edge8" class="edge"><title>Node1&#45;&gt;Node9</title>
<path fill="none" stroke="midnightblue" d="M2180.26,-205.183C1938.11,-201.918 1116.06,-187.796 857,-144 847.674,-142.423 837.94,-140.158 828.502,-137.612"/>
<polygon fill="midnightblue" stroke="midnightblue" points="2180.29,-208.683 2190.33,-205.317 2180.38,-201.684 2180.29,-208.683"/>
</g>
<!-- Node10 -->
<g id="node10" class="node"><title>Node10</title>
<g id="a_node10"><a xlink:href="_centroidal_momentum_8cpp.html" target="_top" xlink:title="/home/travis/build\l/robotology/wb&#45;toolbox\l/toolbox/src/CentroidalMomentum.cpp">
<polygon fill="none" stroke="black" points="866,-96.5 866,-137.5 1048,-137.5 1048,-96.5 866,-96.5"/>
<text text-anchor="start" x="874" y="-125.5" font-family="Helvetica,sans-Serif" font-size="10.00">/home/travis/build</text>
<text text-anchor="start" x="874" y="-114.5" font-family="Helvetica,sans-Serif" font-size="10.00">/robotology/wb&#45;toolbox</text>
<text text-anchor="middle" x="957" y="-103.5" font-family="Helvetica,sans-Serif" font-size="10.00">/toolbox/src/CentroidalMomentum.cpp</text>
</a>
</g>
</g>
<!-- Node1&#45;&gt;Node10 -->
<g id="edge9" class="edge"><title>Node1&#45;&gt;Node10</title>
<path fill="none" stroke="midnightblue" d="M2180.34,-204.279C1961.75,-198.437 1276.05,-177.822 1057,-144 1046.45,-142.371 1035.4,-140.095 1024.66,-137.561"/>
<polygon fill="midnightblue" stroke="midnightblue" points="2180.3,-207.779 2190.39,-204.546 2180.49,-200.782 2180.3,-207.779"/>
</g>
<!-- Node11 -->
<g id="node11" class="node"><title>Node11</title>
<g id="a_node11"><a xlink:href="_discrete_filter_8cpp.html" target="_top" xlink:title="/home/travis/build\l/robotology/wb&#45;toolbox\l/toolbox/src/DiscreteFilter.cpp">
<polygon fill="none" stroke="black" points="1066,-96.5 1066,-137.5 1214,-137.5 1214,-96.5 1066,-96.5"/>
<text text-anchor="start" x="1074" y="-125.5" font-family="Helvetica,sans-Serif" font-size="10.00">/home/travis/build</text>
<text text-anchor="start" x="1074" y="-114.5" font-family="Helvetica,sans-Serif" font-size="10.00">/robotology/wb&#45;toolbox</text>
<text text-anchor="middle" x="1140" y="-103.5" font-family="Helvetica,sans-Serif" font-size="10.00">/toolbox/src/DiscreteFilter.cpp</text>
</a>
</g>
</g>
<!-- Node1&#45;&gt;Node11 -->
<g id="edge10" class="edge"><title>Node1&#45;&gt;Node11</title>
<path fill="none" stroke="midnightblue" d="M2180.23,-204.016C1982.48,-197.891 1408.51,-177.636 1224,-144 1215.14,-142.385 1205.9,-140.133 1196.93,-137.624"/>
<polygon fill="midnightblue" stroke="midnightblue" points="2180.38,-207.522 2190.48,-204.331 2180.59,-200.525 2180.38,-207.522"/>
</g>
<!-- Node12 -->
<g id="node12" class="node"><title>Node12</title>
<g id="a_node12"><a xlink:href="_dot_j_nu_8cpp.html" target="_top" xlink:title="/home/travis/build\l/robotology/wb&#45;toolbox\l/toolbox/src/DotJNu.cpp">
<polygon fill="none" stroke="black" points="1232.5,-96.5 1232.5,-137.5 1355.5,-137.5 1355.5,-96.5 1232.5,-96.5"/>
<text text-anchor="start" x="1240.5" y="-125.5" font-family="Helvetica,sans-Serif" font-size="10.00">/home/travis/build</text>
<text text-anchor="start" x="1240.5" y="-114.5" font-family="Helvetica,sans-Serif" font-size="10.00">/robotology/wb&#45;toolbox</text>
<text text-anchor="middle" x="1294" y="-103.5" font-family="Helvetica,sans-Serif" font-size="10.00">/toolbox/src/DotJNu.cpp</text>
</a>
</g>
</g>
<!-- Node1&#45;&gt;Node12 -->
<g id="edge11" class="edge"><title>Node1&#45;&gt;Node12</title>
<path fill="none" stroke="midnightblue" d="M2180.38,-203.707C2001.79,-197.26 1520.53,-177.242 1365,-144 1357.43,-142.381 1349.57,-140.128 1341.97,-137.618"/>
<polygon fill="midnightblue" stroke="midnightblue" points="2180.32,-207.207 2190.44,-204.067 2180.57,-200.212 2180.32,-207.207"/>
</g>
<!-- Node13 -->
<g id="node13" class="node"><title>Node13</title>
<g id="a_node13"><a xlink:href="_forward_kinematics_8cpp.html" target="_top" xlink:title="/home/travis/build\l/robotology/wb&#45;toolbox\l/toolbox/src/ForwardKinematics.cpp">
<polygon fill="none" stroke="black" points="1373.5,-96.5 1373.5,-137.5 1546.5,-137.5 1546.5,-96.5 1373.5,-96.5"/>
<text text-anchor="start" x="1381.5" y="-125.5" font-family="Helvetica,sans-Serif" font-size="10.00">/home/travis/build</text>
<text text-anchor="start" x="1381.5" y="-114.5" font-family="Helvetica,sans-Serif" font-size="10.00">/robotology/wb&#45;toolbox</text>
<text text-anchor="middle" x="1460" y="-103.5" font-family="Helvetica,sans-Serif" font-size="10.00">/toolbox/src/ForwardKinematics.cpp</text>
</a>
</g>
</g>
<!-- Node1&#45;&gt;Node13 -->
<g id="edge12" class="edge"><title>Node1&#45;&gt;Node13</title>
<path fill="none" stroke="midnightblue" d="M2179.98,-203.854C2055.34,-199.049 1782.36,-184.472 1556,-144 1546.23,-142.253 1536,-139.978 1526.02,-137.502"/>
<polygon fill="midnightblue" stroke="midnightblue" points="2180.01,-207.357 2190.13,-204.236 2180.27,-200.362 2180.01,-207.357"/>
</g>
<!-- Node14 -->
<g id="node14" class="node"><title>Node14</title>
<g id="a_node14"><a xlink:href="_get_limits_8cpp.html" target="_top" xlink:title="/home/travis/build\l/robotology/wb&#45;toolbox\l/toolbox/src/GetLimits.cpp">
<polygon fill="none" stroke="black" points="1564.5,-96.5 1564.5,-137.5 1695.5,-137.5 1695.5,-96.5 1564.5,-96.5"/>
<text text-anchor="start" x="1572.5" y="-125.5" font-family="Helvetica,sans-Serif" font-size="10.00">/home/travis/build</text>
<text text-anchor="start" x="1572.5" y="-114.5" font-family="Helvetica,sans-Serif" font-size="10.00">/robotology/wb&#45;toolbox</text>
<text text-anchor="middle" x="1630" y="-103.5" font-family="Helvetica,sans-Serif" font-size="10.00">/toolbox/src/GetLimits.cpp</text>
</a>
</g>
</g>
<!-- Node1&#45;&gt;Node14 -->
<g id="edge13" class="edge"><title>Node1&#45;&gt;Node14</title>
<path fill="none" stroke="midnightblue" d="M2180.23,-203.051C2076.67,-197.474 1873.33,-182.296 1705,-144 1697.34,-142.257 1689.37,-140.002 1681.62,-137.548"/>
<polygon fill="midnightblue" stroke="midnightblue" points="2180.06,-206.547 2190.23,-203.576 2180.43,-199.557 2180.06,-206.547"/>
</g>
<!-- Node15 -->
<g id="node15" class="node"><title>Node15</title>
<g id="a_node15"><a xlink:href="_get_measurement_8cpp.html" target="_top" xlink:title="/home/travis/build\l/robotology/wb&#45;toolbox\l/toolbox/src/GetMeasurement.cpp">
<polygon fill="none" stroke="black" points="1714,-96.5 1714,-137.5 1878,-137.5 1878,-96.5 1714,-96.5"/>
<text text-anchor="start" x="1722" y="-125.5" font-family="Helvetica,sans-Serif" font-size="10.00">/home/travis/build</text>
<text text-anchor="start" x="1722" y="-114.5" font-family="Helvetica,sans-Serif" font-size="10.00">/robotology/wb&#45;toolbox</text>
<text text-anchor="middle" x="1796" y="-103.5" font-family="Helvetica,sans-Serif" font-size="10.00">/toolbox/src/GetMeasurement.cpp</text>
</a>
</g>
</g>
<!-- Node1&#45;&gt;Node15 -->
<g id="edge14" class="edge"><title>Node1&#45;&gt;Node15</title>
<path fill="none" stroke="midnightblue" d="M2180.45,-196.63C2107.59,-186.007 1988.41,-167.123 1887,-144 1878.67,-142.1 1869.97,-139.9 1861.39,-137.599"/>
<polygon fill="midnightblue" stroke="midnightblue" points="2180.01,-200.104 2190.41,-198.074 2181.02,-193.177 2180.01,-200.104"/>
</g>
<!-- Node16 -->
<g id="node16" class="node"><title>Node16</title>
<g id="a_node16"><a xlink:href="_inverse_dynamics_8cpp.html" target="_top" xlink:title="/home/travis/build\l/robotology/wb&#45;toolbox\l/toolbox/src/InverseDynamics.cpp">
<polygon fill="none" stroke="black" points="1896,-96.5 1896,-137.5 2062,-137.5 2062,-96.5 1896,-96.5"/>
<text text-anchor="start" x="1904" y="-125.5" font-family="Helvetica,sans-Serif" font-size="10.00">/home/travis/build</text>
<text text-anchor="start" x="1904" y="-114.5" font-family="Helvetica,sans-Serif" font-size="10.00">/robotology/wb&#45;toolbox</text>
<text text-anchor="middle" x="1979" y="-103.5" font-family="Helvetica,sans-Serif" font-size="10.00">/toolbox/src/InverseDynamics.cpp</text>
</a>
</g>
</g>
<!-- Node1&#45;&gt;Node16 -->
<g id="edge15" class="edge"><title>Node1&#45;&gt;Node16</title>
<path fill="none" stroke="midnightblue" d="M2180.64,-183.965C2137.1,-169.721 2080.93,-151.346 2038.94,-137.609"/>
<polygon fill="midnightblue" stroke="midnightblue" points="2179.7,-187.339 2190.29,-187.122 2181.88,-180.686 2179.7,-187.339"/>
</g>
<!-- Node17 -->
<g id="node17" class="node"><title>Node17</title>
<g id="a_node17"><a xlink:href="_inverse_kinematics_8cpp.html" target="_top" xlink:title="/home/travis/build\l/robotology/wb&#45;toolbox\l/toolbox/src/InverseKinematics.cpp">
<polygon fill="none" stroke="black" points="2080,-96.5 2080,-137.5 2250,-137.5 2250,-96.5 2080,-96.5"/>
<text text-anchor="start" x="2088" y="-125.5" font-family="Helvetica,sans-Serif" font-size="10.00">/home/travis/build</text>
<text text-anchor="start" x="2088" y="-114.5" font-family="Helvetica,sans-Serif" font-size="10.00">/robotology/wb&#45;toolbox</text>
<text text-anchor="middle" x="2165" y="-103.5" font-family="Helvetica,sans-Serif" font-size="10.00">/toolbox/src/InverseKinematics.cpp</text>
</a>
</g>
</g>
<!-- Node1&#45;&gt;Node17 -->
<g id="edge16" class="edge"><title>Node1&#45;&gt;Node17</title>
<path fill="none" stroke="midnightblue" d="M2217.12,-173.254C2205.78,-161.237 2193.31,-148.019 2183.42,-137.525"/>
<polygon fill="midnightblue" stroke="midnightblue" points="2214.59,-175.674 2223.99,-180.547 2219.68,-170.871 2214.59,-175.674"/>
</g>
<!-- Node18 -->
<g id="node18" class="node"><title>Node18</title>
<g id="a_node18"><a xlink:href="_jacobian_8cpp.html" target="_top" xlink:title="/home/travis/build\l/robotology/wb&#45;toolbox\l/toolbox/src/Jacobian.cpp">
<polygon fill="none" stroke="black" points="2268,-96.5 2268,-137.5 2396,-137.5 2396,-96.5 2268,-96.5"/>
<text text-anchor="start" x="2276" y="-125.5" font-family="Helvetica,sans-Serif" font-size="10.00">/home/travis/build</text>
<text text-anchor="start" x="2276" y="-114.5" font-family="Helvetica,sans-Serif" font-size="10.00">/robotology/wb&#45;toolbox</text>
<text text-anchor="middle" x="2332" y="-103.5" font-family="Helvetica,sans-Serif" font-size="10.00">/toolbox/src/Jacobian.cpp</text>
</a>
</g>
</g>
<!-- Node1&#45;&gt;Node18 -->
<g id="edge17" class="edge"><title>Node1&#45;&gt;Node18</title>
<path fill="none" stroke="midnightblue" d="M2279.26,-173.254C2290.73,-161.237 2303.35,-148.019 2313.36,-137.525"/>
<polygon fill="midnightblue" stroke="midnightblue" points="2276.67,-170.896 2272.3,-180.547 2281.73,-175.73 2276.67,-170.896"/>
</g>
<!-- Node19 -->
<g id="node19" class="node"><title>Node19</title>
<g id="a_node19"><a xlink:href="_mass_matrix_8cpp.html" target="_top" xlink:title="/home/travis/build\l/robotology/wb&#45;toolbox\l/toolbox/src/MassMatrix.cpp">
<polygon fill="none" stroke="black" points="2414,-96.5 2414,-137.5 2554,-137.5 2554,-96.5 2414,-96.5"/>
<text text-anchor="start" x="2422" y="-125.5" font-family="Helvetica,sans-Serif" font-size="10.00">/home/travis/build</text>
<text text-anchor="start" x="2422" y="-114.5" font-family="Helvetica,sans-Serif" font-size="10.00">/robotology/wb&#45;toolbox</text>
<text text-anchor="middle" x="2484" y="-103.5" font-family="Helvetica,sans-Serif" font-size="10.00">/toolbox/src/MassMatrix.cpp</text>
</a>
</g>
</g>
<!-- Node1&#45;&gt;Node19 -->
<g id="edge18" class="edge"><title>Node1&#45;&gt;Node19</title>
<path fill="none" stroke="midnightblue" d="M2315.42,-180.859C2352.36,-167.087 2397.45,-150.275 2431.69,-137.504"/>
<polygon fill="midnightblue" stroke="midnightblue" points="2313.88,-177.699 2305.73,-184.473 2316.32,-184.258 2313.88,-177.699"/>
</g>
<!-- Node20 -->
<g id="node20" class="node"><title>Node20</title>
<g id="a_node20"><a xlink:href="_minimum_jerk_trajectory_generator_8cpp.html" target="_top" xlink:title="/home/travis/build\l/robotology/wb&#45;toolbox\l/toolbox/src/MinimumJerkTrajectory\lGenerator.cpp">
<polygon fill="none" stroke="black" points="2572.5,-91 2572.5,-143 2745.5,-143 2745.5,-91 2572.5,-91"/>
<text text-anchor="start" x="2580.5" y="-131" font-family="Helvetica,sans-Serif" font-size="10.00">/home/travis/build</text>
<text text-anchor="start" x="2580.5" y="-120" font-family="Helvetica,sans-Serif" font-size="10.00">/robotology/wb&#45;toolbox</text>
<text text-anchor="start" x="2580.5" y="-109" font-family="Helvetica,sans-Serif" font-size="10.00">/toolbox/src/MinimumJerkTrajectory</text>
<text text-anchor="middle" x="2659" y="-98" font-family="Helvetica,sans-Serif" font-size="10.00">Generator.cpp</text>
</a>
</g>
</g>
<!-- Node1&#45;&gt;Node20 -->
<g id="edge19" class="edge"><title>Node1&#45;&gt;Node20</title>
<path fill="none" stroke="midnightblue" d="M2315.71,-194.094C2379.69,-182.506 2478.25,-163.792 2563,-144 2566.11,-143.274 2569.27,-142.516 2572.46,-141.737"/>
<polygon fill="midnightblue" stroke="midnightblue" points="2314.96,-190.672 2305.74,-195.891 2316.2,-197.56 2314.96,-190.672"/>
</g>
<!-- Node21 -->
<g id="node21" class="node"><title>Node21</title>
<g id="a_node21"><a xlink:href="_model_partitioner_8cpp.html" target="_top" xlink:title="/home/travis/build\l/robotology/wb&#45;toolbox\l/toolbox/src/ModelPartitioner.cpp">
<polygon fill="none" stroke="black" points="2764,-96.5 2764,-137.5 2924,-137.5 2924,-96.5 2764,-96.5"/>
<text text-anchor="start" x="2772" y="-125.5" font-family="Helvetica,sans-Serif" font-size="10.00">/home/travis/build</text>
<text text-anchor="start" x="2772" y="-114.5" font-family="Helvetica,sans-Serif" font-size="10.00">/robotology/wb&#45;toolbox</text>
<text text-anchor="middle" x="2844" y="-103.5" font-family="Helvetica,sans-Serif" font-size="10.00">/toolbox/src/ModelPartitioner.cpp</text>
</a>
</g>
</g>
<!-- Node1&#45;&gt;Node21 -->
<g id="edge20" class="edge"><title>Node1&#45;&gt;Node21</title>
<path fill="none" stroke="midnightblue" d="M2315.8,-201.145C2413.41,-193.377 2598.86,-175.704 2754,-144 2762.76,-142.209 2771.92,-139.988 2780.89,-137.603"/>
<polygon fill="midnightblue" stroke="midnightblue" points="2315.47,-197.66 2305.77,-201.933 2316.02,-204.639 2315.47,-197.66"/>
</g>
<!-- Node22 -->
<g id="node22" class="node"><title>Node22</title>
<g id="a_node22"><a xlink:href="_real_time_synchronizer_8cpp.html" target="_top" xlink:title="/home/travis/build\l/robotology/wb&#45;toolbox\l/toolbox/src/RealTimeSynchronizer.cpp">
<polygon fill="none" stroke="black" points="2942,-96.5 2942,-137.5 3130,-137.5 3130,-96.5 2942,-96.5"/>
<text text-anchor="start" x="2950" y="-125.5" font-family="Helvetica,sans-Serif" font-size="10.00">/home/travis/build</text>
<text text-anchor="start" x="2950" y="-114.5" font-family="Helvetica,sans-Serif" font-size="10.00">/robotology/wb&#45;toolbox</text>
<text text-anchor="middle" x="3036" y="-103.5" font-family="Helvetica,sans-Serif" font-size="10.00">/toolbox/src/RealTimeSynchronizer.cpp</text>
</a>
</g>
</g>
<!-- Node1&#45;&gt;Node22 -->
<g id="edge21" class="edge"><title>Node1&#45;&gt;Node22</title>
<path fill="none" stroke="midnightblue" d="M2315.74,-203.395C2439.23,-197.867 2708.88,-182.187 2933,-144 2943.36,-142.234 2954.22,-139.966 2964.83,-137.506"/>
<polygon fill="midnightblue" stroke="midnightblue" points="2315.51,-199.902 2305.68,-203.838 2315.82,-206.895 2315.51,-199.902"/>
</g>
<!-- Node23 -->
<g id="node23" class="node"><title>Node23</title>
<g id="a_node23"><a xlink:href="_relative_transform_8cpp.html" target="_top" xlink:title="/home/travis/build\l/robotology/wb&#45;toolbox\l/toolbox/src/RelativeTransform.cpp">
<polygon fill="none" stroke="black" points="3148,-96.5 3148,-137.5 3318,-137.5 3318,-96.5 3148,-96.5"/>
<text text-anchor="start" x="3156" y="-125.5" font-family="Helvetica,sans-Serif" font-size="10.00">/home/travis/build</text>
<text text-anchor="start" x="3156" y="-114.5" font-family="Helvetica,sans-Serif" font-size="10.00">/robotology/wb&#45;toolbox</text>
<text text-anchor="middle" x="3233" y="-103.5" font-family="Helvetica,sans-Serif" font-size="10.00">/toolbox/src/RelativeTransform.cpp</text>
</a>
</g>
</g>
<!-- Node1&#45;&gt;Node23 -->
<g id="edge22" class="edge"><title>Node1&#45;&gt;Node23</title>
<path fill="none" stroke="midnightblue" d="M2315.94,-205.894C2465.71,-204.653 2835.08,-196.063 3139,-144 3148.76,-142.328 3158.97,-140.062 3168.92,-137.561"/>
<polygon fill="midnightblue" stroke="midnightblue" points="2315.52,-202.397 2305.54,-205.971 2315.57,-209.397 2315.52,-202.397"/>
</g>
<!-- Node24 -->
<g id="node24" class="node"><title>Node24</title>
<g id="a_node24"><a xlink:href="_remote_inverse_kinematics_8cpp.html" target="_top" xlink:title="/home/travis/build\l/robotology/wb&#45;toolbox\l/toolbox/src/RemoteInverseKinematics.cpp">
<polygon fill="none" stroke="black" points="3336.5,-96.5 3336.5,-137.5 3541.5,-137.5 3541.5,-96.5 3336.5,-96.5"/>
<text text-anchor="start" x="3344.5" y="-125.5" font-family="Helvetica,sans-Serif" font-size="10.00">/home/travis/build</text>
<text text-anchor="start" x="3344.5" y="-114.5" font-family="Helvetica,sans-Serif" font-size="10.00">/robotology/wb&#45;toolbox</text>
<text text-anchor="middle" x="3439" y="-103.5" font-family="Helvetica,sans-Serif" font-size="10.00">/toolbox/src/RemoteInverseKinematics.cpp</text>
</a>
</g>
</g>
<!-- Node1&#45;&gt;Node24 -->
<g id="edge23" class="edge"><title>Node1&#45;&gt;Node24</title>
<path fill="none" stroke="midnightblue" d="M2315.76,-206.108C2486.43,-205.516 2947.51,-198.543 3327,-144 3338.66,-142.324 3350.89,-140.04 3362.81,-137.517"/>
<polygon fill="midnightblue" stroke="midnightblue" points="2315.65,-202.608 2305.66,-206.137 2315.67,-209.608 2315.65,-202.608"/>
</g>
<!-- Node25 -->
<g id="node25" class="node"><title>Node25</title>
<g id="a_node25"><a xlink:href="_set_low_level_p_i_d_8cpp.html" target="_top" xlink:title="/home/travis/build\l/robotology/wb&#45;toolbox\l/toolbox/src/SetLowLevelPID.cpp">
<polygon fill="none" stroke="black" points="3559.5,-96.5 3559.5,-137.5 3722.5,-137.5 3722.5,-96.5 3559.5,-96.5"/>
<text text-anchor="start" x="3567.5" y="-125.5" font-family="Helvetica,sans-Serif" font-size="10.00">/home/travis/build</text>
<text text-anchor="start" x="3567.5" y="-114.5" font-family="Helvetica,sans-Serif" font-size="10.00">/robotology/wb&#45;toolbox</text>
<text text-anchor="middle" x="3641" y="-103.5" font-family="Helvetica,sans-Serif" font-size="10.00">/toolbox/src/SetLowLevelPID.cpp</text>
</a>
</g>
</g>
<!-- Node1&#45;&gt;Node25 -->
<g id="edge24" class="edge"><title>Node1&#45;&gt;Node25</title>
<path fill="none" stroke="midnightblue" d="M2315.99,-204.832C2548.21,-200.518 3308.91,-183.635 3550,-144 3559.73,-142.401 3569.89,-140.123 3579.76,-137.572"/>
<polygon fill="midnightblue" stroke="midnightblue" points="2315.59,-201.338 2305.66,-205.022 2315.72,-208.337 2315.59,-201.338"/>
</g>
<!-- Node26 -->
<g id="node26" class="node"><title>Node26</title>
<g id="a_node26"><a xlink:href="_set_references_8cpp.html" target="_top" xlink:title="/home/travis/build\l/robotology/wb&#45;toolbox\l/toolbox/src/SetReferences.cpp">
<polygon fill="none" stroke="black" points="3740.5,-96.5 3740.5,-137.5 3895.5,-137.5 3895.5,-96.5 3740.5,-96.5"/>
<text text-anchor="start" x="3748.5" y="-125.5" font-family="Helvetica,sans-Serif" font-size="10.00">/home/travis/build</text>
<text text-anchor="start" x="3748.5" y="-114.5" font-family="Helvetica,sans-Serif" font-size="10.00">/robotology/wb&#45;toolbox</text>
<text text-anchor="middle" x="3818" y="-103.5" font-family="Helvetica,sans-Serif" font-size="10.00">/toolbox/src/SetReferences.cpp</text>
</a>
</g>
</g>
<!-- Node1&#45;&gt;Node26 -->
<g id="edge25" class="edge"><title>Node1&#45;&gt;Node26</title>
<path fill="none" stroke="midnightblue" d="M2315.94,-205.398C2568.54,-202.813 3453.23,-190.565 3731,-144 3740.48,-142.41 3750.39,-140.102 3759.97,-137.507"/>
<polygon fill="midnightblue" stroke="midnightblue" points="2315.77,-201.9 2305.8,-205.5 2315.84,-208.899 2315.77,-201.9"/>
</g>
<!-- Node27 -->
<g id="node27" class="node"><title>Node27</title>
<g id="a_node27"><a xlink:href="_simulator_synchronizer_8cpp.html" target="_top" xlink:title="/home/travis/build\l/robotology/wb&#45;toolbox\l/toolbox/src/SimulatorSynchronizer.cpp">
<polygon fill="none" stroke="black" points="3914,-96.5 3914,-137.5 4102,-137.5 4102,-96.5 3914,-96.5"/>
<text text-anchor="start" x="3922" y="-125.5" font-family="Helvetica,sans-Serif" font-size="10.00">/home/travis/build</text>
<text text-anchor="start" x="3922" y="-114.5" font-family="Helvetica,sans-Serif" font-size="10.00">/robotology/wb&#45;toolbox</text>
<text text-anchor="middle" x="4008" y="-103.5" font-family="Helvetica,sans-Serif" font-size="10.00">/toolbox/src/SimulatorSynchronizer.cpp</text>
</a>
</g>
</g>
<!-- Node1&#45;&gt;Node27 -->
<g id="edge26" class="edge"><title>Node1&#45;&gt;Node27</title>
<path fill="none" stroke="midnightblue" d="M2315.99,-205.336C2586.86,-202.397 3589.73,-188.672 3904,-144 3915.15,-142.415 3926.83,-140.128 3938.18,-137.558"/>
<polygon fill="midnightblue" stroke="midnightblue" points="2315.86,-201.837 2305.9,-205.444 2315.94,-208.836 2315.86,-201.837"/>
</g>
<!-- Node28 -->
<g id="node28" class="node"><title>Node28</title>
<g id="a_node28"><a xlink:href="_yarp_clock_8cpp.html" target="_top" xlink:title="/home/travis/build\l/robotology/wb&#45;toolbox\l/toolbox/src/YarpClock.cpp">
<polygon fill="none" stroke="black" points="4120.5,-96.5 4120.5,-137.5 4255.5,-137.5 4255.5,-96.5 4120.5,-96.5"/>
<text text-anchor="start" x="4128.5" y="-125.5" font-family="Helvetica,sans-Serif" font-size="10.00">/home/travis/build</text>
<text text-anchor="start" x="4128.5" y="-114.5" font-family="Helvetica,sans-Serif" font-size="10.00">/robotology/wb&#45;toolbox</text>
<text text-anchor="middle" x="4188" y="-103.5" font-family="Helvetica,sans-Serif" font-size="10.00">/toolbox/src/YarpClock.cpp</text>
</a>
</g>
</g>
<!-- Node1&#45;&gt;Node28 -->
<g id="edge27" class="edge"><title>Node1&#45;&gt;Node28</title>
<path fill="none" stroke="midnightblue" d="M2315.75,-206.388C2607.28,-207.651 3756.19,-208.365 4111,-144 4119.47,-142.464 4128.27,-140.183 4136.77,-137.601"/>
<polygon fill="midnightblue" stroke="midnightblue" points="2315.76,-202.888 2305.74,-206.343 2315.73,-209.888 2315.76,-202.888"/>
</g>
<!-- Node29 -->
<g id="node29" class="node"><title>Node29</title>
<g id="a_node29"><a xlink:href="_yarp_read_8cpp.html" target="_top" xlink:title="/home/travis/build\l/robotology/wb&#45;toolbox\l/toolbox/src/YarpRead.cpp">
<polygon fill="none" stroke="black" points="4273.5,-96.5 4273.5,-137.5 4406.5,-137.5 4406.5,-96.5 4273.5,-96.5"/>
<text text-anchor="start" x="4281.5" y="-125.5" font-family="Helvetica,sans-Serif" font-size="10.00">/home/travis/build</text>
<text text-anchor="start" x="4281.5" y="-114.5" font-family="Helvetica,sans-Serif" font-size="10.00">/robotology/wb&#45;toolbox</text>
<text text-anchor="middle" x="4340" y="-103.5" font-family="Helvetica,sans-Serif" font-size="10.00">/toolbox/src/YarpRead.cpp</text>
</a>
</g>
</g>
<!-- Node1&#45;&gt;Node29 -->
<g id="edge28" class="edge"><title>Node1&#45;&gt;Node29</title>
<path fill="none" stroke="midnightblue" d="M2316.08,-205.112C2645.85,-200.65 4069.27,-179.473 4264,-144 4272.37,-142.476 4281.06,-140.201 4289.46,-137.621"/>
<polygon fill="midnightblue" stroke="midnightblue" points="2315.68,-201.617 2305.73,-205.252 2315.77,-208.617 2315.68,-201.617"/>
</g>
<!-- Node30 -->
<g id="node30" class="node"><title>Node30</title>
<g id="a_node30"><a xlink:href="_yarp_write_8cpp.html" target="_top" xlink:title="/home/travis/build\l/robotology/wb&#45;toolbox\l/toolbox/src/YarpWrite.cpp">
<polygon fill="none" stroke="black" points="4424.5,-96.5 4424.5,-137.5 4557.5,-137.5 4557.5,-96.5 4424.5,-96.5"/>
<text text-anchor="start" x="4432.5" y="-125.5" font-family="Helvetica,sans-Serif" font-size="10.00">/home/travis/build</text>
<text text-anchor="start" x="4432.5" y="-114.5" font-family="Helvetica,sans-Serif" font-size="10.00">/robotology/wb&#45;toolbox</text>
<text text-anchor="middle" x="4491" y="-103.5" font-family="Helvetica,sans-Serif" font-size="10.00">/toolbox/src/YarpWrite.cpp</text>
</a>
</g>
</g>
<!-- Node1&#45;&gt;Node30 -->
<g id="edge29" class="edge"><title>Node1&#45;&gt;Node30</title>
<path fill="none" stroke="midnightblue" d="M2315.83,-205.272C2659.94,-201.415 4204.58,-182.097 4415,-144 4423.51,-142.46 4432.35,-140.14 4440.87,-137.51"/>
<polygon fill="midnightblue" stroke="midnightblue" points="2315.72,-201.773 2305.76,-205.384 2315.8,-208.772 2315.72,-201.773"/>
</g>
<!-- Node3 -->
<g id="node3" class="node"><title>Node3</title>
<g id="a_node3"><a xlink:href="_coder_block_information_8cpp.html" target="_top" xlink:title="/home/travis/build\l/robotology/wb&#45;toolbox\l/toolbox/src/base/CoderBlock\lInformation.cpp">
<polygon fill="none" stroke="black" points="0,-1 0,-53 146,-53 146,-1 0,-1"/>
<text text-anchor="start" x="8" y="-41" font-family="Helvetica,sans-Serif" font-size="10.00">/home/travis/build</text>
<text text-anchor="start" x="8" y="-30" font-family="Helvetica,sans-Serif" font-size="10.00">/robotology/wb&#45;toolbox</text>
<text text-anchor="start" x="8" y="-19" font-family="Helvetica,sans-Serif" font-size="10.00">/toolbox/src/base/CoderBlock</text>
<text text-anchor="middle" x="73" y="-8" font-family="Helvetica,sans-Serif" font-size="10.00">Information.cpp</text>
</a>
</g>
</g>
<!-- Node2&#45;&gt;Node3 -->
<g id="edge2" class="edge"><title>Node2&#45;&gt;Node3</title>
<path fill="none" stroke="midnightblue" d="M78.3682,-80.4892C77.4293,-71.3088 76.438,-61.616 75.5662,-53.0921"/>
<polygon fill="midnightblue" stroke="midnightblue" points="74.8975,-80.9548 79.3968,-90.5468 81.8612,-80.2425 74.8975,-80.9548"/>
</g>
<!-- Node5 -->
<g id="node5" class="node"><title>Node5</title>
<g id="a_node5"><a xlink:href="_simulink_block_information_8cpp.html" target="_top" xlink:title="/home/travis/build\l/robotology/wb&#45;toolbox\l/toolbox/src/base/SimulinkBlock\lInformation.cpp">
<polygon fill="none" stroke="black" points="164.5,-1 164.5,-53 321.5,-53 321.5,-1 164.5,-1"/>
<text text-anchor="start" x="172.5" y="-41" font-family="Helvetica,sans-Serif" font-size="10.00">/home/travis/build</text>
<text text-anchor="start" x="172.5" y="-30" font-family="Helvetica,sans-Serif" font-size="10.00">/robotology/wb&#45;toolbox</text>
<text text-anchor="start" x="172.5" y="-19" font-family="Helvetica,sans-Serif" font-size="10.00">/toolbox/src/base/SimulinkBlock</text>
<text text-anchor="middle" x="243" y="-8" font-family="Helvetica,sans-Serif" font-size="10.00">Information.cpp</text>
</a>
</g>
</g>
<!-- Node4&#45;&gt;Node5 -->
<g id="edge4" class="edge"><title>Node4&#45;&gt;Node5</title>
<path fill="none" stroke="midnightblue" d="M243,-80.4892C243,-71.3088 243,-61.616 243,-53.0921"/>
<polygon fill="midnightblue" stroke="midnightblue" points="239.5,-80.5467 243,-90.5468 246.5,-80.5468 239.5,-80.5467"/>
</g>
<!-- Node6 -->
<g id="node6" class="node"><title>Node6</title>
<g id="a_node6"><a xlink:href="_w_b_toolbox_8cpp.html" target="_top" xlink:title="/home/travis/build\l/robotology/wb&#45;toolbox\l/toolbox/src/base/WBToolbox.cpp">
<polygon fill="none" stroke="black" points="340,-6.5 340,-47.5 504,-47.5 504,-6.5 340,-6.5"/>
<text text-anchor="start" x="348" y="-35.5" font-family="Helvetica,sans-Serif" font-size="10.00">/home/travis/build</text>
<text text-anchor="start" x="348" y="-24.5" font-family="Helvetica,sans-Serif" font-size="10.00">/robotology/wb&#45;toolbox</text>
<text text-anchor="middle" x="422" y="-13.5" font-family="Helvetica,sans-Serif" font-size="10.00">/toolbox/src/base/WBToolbox.cpp</text>
</a>
</g>
</g>
<!-- Node4&#45;&gt;Node6 -->
<g id="edge5" class="edge"><title>Node4&#45;&gt;Node6</title>
<path fill="none" stroke="midnightblue" d="M303.307,-86.3521C329.267,-73.5894 358.908,-59.0175 382.074,-47.6283"/>
<polygon fill="midnightblue" stroke="midnightblue" points="301.724,-83.2298 294.294,-90.7827 304.813,-89.5118 301.724,-83.2298"/>
</g>
</g>
</svg>
        <g id="navigator" transform="translate(0 0)" fill="#404254">
                <rect fill="#f2f5e9" fill-opacity="0.5" stroke="#606060" stroke-width=".5" x="0" y="0" width="60" height="60"/>
                <use id="zoomplus" xlink:href="#zoomPlus" x="17" y="9" onmousedown="handleZoom(evt,'in')"/>
                <use id="zoomminus" xlink:href="#zoomMin" x="42" y="9" onmousedown="handleZoom(evt,'out')"/>
                <use id="reset" xlink:href="#resetDef" x="30" y="36" onmousedown="handleReset()"/>
                <g id="arrowUp" xlink:href="#dirArrow" transform="translate(30 24)" onmousedown="handlePan(0,-1)">
                  <use xlink:href="#rim" fill="#404040">
                        <set attributeName="fill" to="#808080" begin="arrowUp.mouseover" end="arrowUp.mouseout"/>
                  </use>
                  <path fill="none" stroke="white" stroke-width="1.5" d="M0,-3.0v7 M-2.5,-0.5L0,-3.0L2.5,-0.5"/>
                </g>
                <g id="arrowRight" xlink:href="#dirArrow" transform="rotate(90) translate(36 -43)" onmousedown="handlePan(1,0)">
                  <use xlink:href="#rim" fill="#404040">
                        <set attributeName="fill" to="#808080" begin="arrowRight.mouseover" end="arrowRight.mouseout"/>
                  </use>
                  <path fill="none" stroke="white" stroke-width="1.5" d="M0,-3.0v7 M-2.5,-0.5L0,-3.0L2.5,-0.5"/>
                </g>
                <g id="arrowDown" xlink:href="#dirArrow" transform="rotate(180) translate(-30 -48)" onmousedown="handlePan(0,1)">
                  <use xlink:href="#rim" fill="#404040">
                        <set attributeName="fill" to="#808080" begin="arrowDown.mouseover" end="arrowDown.mouseout"/>
                  </use>
                  <path fill="none" stroke="white" stroke-width="1.5" d="M0,-3.0v7 M-2.5,-0.5L0,-3.0L2.5,-0.5"/>
                </g>
                <g id="arrowLeft" xlink:href="#dirArrow" transform="rotate(270) translate(-36 17)" onmousedown="handlePan(-1,0)">
                  <use xlink:href="#rim" fill="#404040">
                        <set attributeName="fill" to="#808080" begin="arrowLeft.mouseover" end="arrowLeft.mouseout"/>
                  </use>
                  <path fill="none" stroke="white" stroke-width="1.5" d="M0,-3.0v7 M-2.5,-0.5L0,-3.0L2.5,-0.5"/>
                </g>
        </g>
        <svg viewBox="0 0 15 15" width="100%" height="30px" preserveAspectRatio="xMaxYMin meet">
         <g id="arrow_out" transform="scale(0.3 0.3)">
          <a xlink:href="_block_information_8h__dep__incl_org.svg" target="_base">
           <rect id="button" ry="5" rx="5" y="6" x="6" height="38" width="38"
                fill="#f2f5e9" fill-opacity="0.5" stroke="#606060" stroke-width="1.0"/>
           <path id="arrow"
             d="M 11.500037,31.436501 C 11.940474,20.09759 22.043105,11.32322 32.158766,21.979434 L 37.068811,17.246167 C 37.068811,17.246167 37.088388,32 37.088388,32 L 22.160133,31.978069 C 22.160133,31.978069 26.997745,27.140456 26.997745,27.140456 C 18.528582,18.264221 13.291696,25.230495 11.500037,31.436501 z"
             style="fill:#404040;"/>
          </a>
         </g>
        </svg>
</svg>
