<?xml version="1.0" encoding="UTF-8" standalone="no"?>
<!DOCTYPE svg PUBLIC "-//W3C//DTD SVG 1.1//EN"
 "http://www.w3.org/Graphics/SVG/1.1/DTD/svg11.dtd">
<!-- Generated by graphviz version 2.36.0 (20140111.2315)
 -->
<!-- Title: /home/travis/build/robotology/wb&#45;toolbox/toolbox/src/base/Block.cpp Pages: 1 -->
<svg width="448pt" height="218pt"
 viewBox="0.00 0.00 448.00 218.00" xmlns="http://www.w3.org/2000/svg" xmlns:xlink="http://www.w3.org/1999/xlink">
<g id="graph0" class="graph" transform="scale(1 1) rotate(0) translate(4 214)">
<title>/home/travis/build/robotology/wb&#45;toolbox/toolbox/src/base/Block.cpp</title>
<!-- Node1 -->
<g id="node1" class="node"><title>Node1</title>
<polygon fill="#bfbfbf" stroke="black" points="127,-168.5 127,-209.5 265,-209.5 265,-168.5 127,-168.5"/>
<text text-anchor="start" x="135" y="-197.5" font-family="Helvetica,sans-Serif" font-size="10.00">/home/travis/build</text>
<text text-anchor="start" x="135" y="-186.5" font-family="Helvetica,sans-Serif" font-size="10.00">/robotology/wb&#45;toolbox</text>
<text text-anchor="middle" x="196" y="-175.5" font-family="Helvetica,sans-Serif" font-size="10.00">/toolbox/src/base/Block.cpp</text>
</g>
<!-- Node2 -->
<g id="node2" class="node"><title>Node2</title>
<g id="a_node2"><a xlink:href="_block_8h.html" target="_top" xlink:title="Block.h">
<polygon fill="none" stroke="black" points="171,-112.5 171,-131.5 221,-131.5 221,-112.5 171,-112.5"/>
<text text-anchor="middle" x="196" y="-119.5" font-family="Helvetica,sans-Serif" font-size="10.00">Block.h</text>
</a>
</g>
</g>
<!-- Node1&#45;&gt;Node2 -->
<g id="edge1" class="edge"><title>Node1&#45;&gt;Node2</title>
<path fill="none" stroke="midnightblue" d="M196,-168.498C196,-160.065 196,-150.235 196,-141.874"/>
<polygon fill="midnightblue" stroke="midnightblue" points="199.5,-141.652 196,-131.652 192.5,-141.653 199.5,-141.652"/>
</g>
<!-- Node7 -->
<g id="node7" class="node"><title>Node7</title>
<g id="a_node7"><a xlink:href="_block_information_8h.html" target="_top" xlink:title="BlockInformation.h">
<polygon fill="none" stroke="black" points="323,-56.5 323,-75.5 421,-75.5 421,-56.5 323,-56.5"/>
<text text-anchor="middle" x="372" y="-63.5" font-family="Helvetica,sans-Serif" font-size="10.00">BlockInformation.h</text>
</a>
</g>
</g>
<!-- Node1&#45;&gt;Node7 -->
<g id="edge8" class="edge"><title>Node1&#45;&gt;Node7</title>
<path fill="none" stroke="midnightblue" d="M210.785,-168.403C224.224,-151.659 245.362,-127.835 268,-112 288.458,-97.6898 314.189,-86.5092 334.939,-78.8719"/>
<polygon fill="midnightblue" stroke="midnightblue" points="336.134,-82.1617 344.381,-75.5116 333.787,-75.5669 336.134,-82.1617"/>
</g>
<!-- Node10 -->
<g id="node10" class="node"><title>Node10</title>
<g id="a_node10"><a xlink:href="_log_8h.html" target="_top" xlink:title="Log.h">
<polygon fill="none" stroke="black" points="5.5,-56.5 5.5,-75.5 46.5,-75.5 46.5,-56.5 5.5,-56.5"/>
<text text-anchor="middle" x="26" y="-63.5" font-family="Helvetica,sans-Serif" font-size="10.00">Log.h</text>
</a>
</g>
</g>
<!-- Node1&#45;&gt;Node10 -->
<g id="edge14" class="edge"><title>Node1&#45;&gt;Node10</title>
<path fill="none" stroke="midnightblue" d="M168.308,-168.29C134.055,-143.91 76.5623,-102.988 46.1978,-81.3761"/>
<polygon fill="midnightblue" stroke="midnightblue" points="48.2239,-78.5221 38.0472,-75.5748 44.1647,-84.2251 48.2239,-78.5221"/>
</g>
<!-- Node12 -->
<g id="node12" class="node"><title>Node12</title>
<g id="a_node12"><a xlink:href="_parameter_8h.html" target="_top" xlink:title="Parameter.h">
<polygon fill="none" stroke="black" points="65,-56.5 65,-75.5 135,-75.5 135,-56.5 65,-56.5"/>
<text text-anchor="middle" x="100" y="-63.5" font-family="Helvetica,sans-Serif" font-size="10.00">Parameter.h</text>
</a>
</g>
</g>
<!-- Node1&#45;&gt;Node12 -->
<g id="edge18" class="edge"><title>Node1&#45;&gt;Node12</title>
<path fill="none" stroke="midnightblue" d="M180.362,-168.29C161.684,-144.747 130.767,-105.779 113.225,-83.6691"/>
<polygon fill="midnightblue" stroke="midnightblue" points="115.76,-81.2333 106.803,-75.5748 110.277,-85.5841 115.76,-81.2333"/>
</g>
<!-- Node13 -->
<g id="node13" class="node"><title>Node13</title>
<polygon fill="none" stroke="#bfbfbf" points="277,-112.5 277,-131.5 329,-131.5 329,-112.5 277,-112.5"/>
<text text-anchor="middle" x="303" y="-119.5" font-family="Helvetica,sans-Serif" font-size="10.00">ostream</text>
</g>
<!-- Node1&#45;&gt;Node13 -->
<g id="edge21" class="edge"><title>Node1&#45;&gt;Node13</title>
<path fill="none" stroke="midnightblue" d="M228.104,-168.498C244.824,-158.34 264.883,-146.155 280.032,-136.952"/>
<polygon fill="midnightblue" stroke="midnightblue" points="282.027,-139.836 288.757,-131.652 278.393,-133.853 282.027,-139.836"/>
</g>
<!-- Node3 -->
<g id="node3" class="node"><title>Node3</title>
<g id="a_node3"><a xlink:href="_parameters_8h.html" target="_top" xlink:title="Parameters.h">
<polygon fill="none" stroke="black" points="191.5,-56.5 191.5,-75.5 266.5,-75.5 266.5,-56.5 191.5,-56.5"/>
<text text-anchor="middle" x="229" y="-63.5" font-family="Helvetica,sans-Serif" font-size="10.00">Parameters.h</text>
</a>
</g>
</g>
<!-- Node2&#45;&gt;Node3 -->
<g id="edge2" class="edge"><title>Node2&#45;&gt;Node3</title>
<path fill="none" stroke="midnightblue" d="M201.449,-112.083C206.014,-104.613 212.668,-93.7244 218.293,-84.5199"/>
<polygon fill="midnightblue" stroke="midnightblue" points="221.424,-86.109 223.652,-75.7511 215.451,-82.4588 221.424,-86.109"/>
</g>
<!-- Node5 -->
<g id="node5" class="node"><title>Node5</title>
<polygon fill="none" stroke="#bfbfbf" points="142.5,-0.5 142.5,-19.5 183.5,-19.5 183.5,-0.5 142.5,-0.5"/>
<text text-anchor="middle" x="163" y="-7.5" font-family="Helvetica,sans-Serif" font-size="10.00">string</text>
</g>
<!-- Node2&#45;&gt;Node5 -->
<g id="edge6" class="edge"><title>Node2&#45;&gt;Node5</title>
<path fill="none" stroke="midnightblue" d="M193.272,-112.387C190.418,-103.339 185.828,-88.6897 182,-76 177.278,-60.3473 172.079,-42.5199 168.316,-29.4992"/>
<polygon fill="midnightblue" stroke="midnightblue" points="171.666,-28.4852 165.533,-19.8457 164.94,-30.4239 171.666,-28.4852"/>
</g>
<!-- Node6 -->
<g id="node6" class="node"><title>Node6</title>
<polygon fill="none" stroke="#bfbfbf" points="273,-0.5 273,-19.5 317,-19.5 317,-0.5 273,-0.5"/>
<text text-anchor="middle" x="295" y="-7.5" font-family="Helvetica,sans-Serif" font-size="10.00">vector</text>
</g>
<!-- Node2&#45;&gt;Node6 -->
<g id="edge7" class="edge"><title>Node2&#45;&gt;Node6</title>
<path fill="none" stroke="midnightblue" d="M221.076,-112.428C238.528,-105.252 261.079,-93.3648 275,-76 285.722,-62.6252 290.715,-43.5141 293.029,-29.4753"/>
<polygon fill="midnightblue" stroke="midnightblue" points="296.505,-29.8874 294.368,-19.5103 289.567,-28.9549 296.505,-29.8874"/>
</g>
<!-- Node4 -->
<g id="node4" class="node"><title>Node4</title>
<polygon fill="none" stroke="#bfbfbf" points="203,-0.5 203,-19.5 255,-19.5 255,-0.5 203,-0.5"/>
<text text-anchor="middle" x="229" y="-7.5" font-family="Helvetica,sans-Serif" font-size="10.00">memory</text>
</g>
<!-- Node3&#45;&gt;Node4 -->
<g id="edge3" class="edge"><title>Node3&#45;&gt;Node4</title>
<path fill="none" stroke="midnightblue" d="M229,-56.083C229,-49.0059 229,-38.8611 229,-29.9865"/>
<polygon fill="midnightblue" stroke="midnightblue" points="232.5,-29.751 229,-19.7511 225.5,-29.7511 232.5,-29.751"/>
</g>
<!-- Node3&#45;&gt;Node5 -->
<g id="edge4" class="edge"><title>Node3&#45;&gt;Node5</title>
<path fill="none" stroke="midnightblue" d="M218.396,-56.324C208.544,-48.2631 193.649,-36.0765 181.785,-26.3695"/>
<polygon fill="midnightblue" stroke="midnightblue" points="183.753,-23.4575 173.797,-19.8339 179.32,-28.8752 183.753,-23.4575"/>
</g>
<!-- Node3&#45;&gt;Node6 -->
<g id="edge5" class="edge"><title>Node3&#45;&gt;Node6</title>
<path fill="none" stroke="midnightblue" d="M239.604,-56.324C249.456,-48.2631 264.351,-36.0765 276.215,-26.3695"/>
<polygon fill="midnightblue" stroke="midnightblue" points="278.68,-28.8752 284.203,-19.8339 274.247,-23.4575 278.68,-28.8752"/>
</g>
<!-- Node7&#45;&gt;Node4 -->
<g id="edge9" class="edge"><title>Node7&#45;&gt;Node4</title>
<path fill="none" stroke="midnightblue" d="M349.341,-56.4435C325.598,-47.4776 288.091,-33.314 261.262,-23.1827"/>
<polygon fill="midnightblue" stroke="midnightblue" points="262.144,-19.7749 251.553,-19.5164 259.671,-26.3235 262.144,-19.7749"/>
</g>
<!-- Node7&#45;&gt;Node5 -->
<g id="edge10" class="edge"><title>Node7&#45;&gt;Node5</title>
<path fill="none" stroke="midnightblue" d="M336.781,-56.481C300.803,-47.6884 243.372,-33.4035 194,-20 193.79,-19.9431 193.58,-19.8859 193.369,-19.8283"/>
<polygon fill="midnightblue" stroke="midnightblue" points="194.222,-16.4327 183.649,-17.1037 192.333,-23.1729 194.222,-16.4327"/>
</g>
<!-- Node7&#45;&gt;Node6 -->
<g id="edge13" class="edge"><title>Node7&#45;&gt;Node6</title>
<path fill="none" stroke="midnightblue" d="M359.629,-56.324C347.842,-48.0577 329.868,-35.4527 315.864,-25.6322"/>
<polygon fill="midnightblue" stroke="midnightblue" points="317.538,-22.5307 307.341,-19.6545 313.518,-28.2619 317.538,-22.5307"/>
</g>
<!-- Node8 -->
<g id="node8" class="node"><title>Node8</title>
<polygon fill="none" stroke="#bfbfbf" points="344,-0.5 344,-19.5 382,-19.5 382,-0.5 344,-0.5"/>
<text text-anchor="middle" x="363" y="-7.5" font-family="Helvetica,sans-Serif" font-size="10.00">tuple</text>
</g>
<!-- Node7&#45;&gt;Node8 -->
<g id="edge11" class="edge"><title>Node7&#45;&gt;Node8</title>
<path fill="none" stroke="midnightblue" d="M370.514,-56.083C369.321,-48.9272 367.606,-38.6353 366.115,-29.6911"/>
<polygon fill="midnightblue" stroke="midnightblue" points="369.555,-29.0396 364.459,-19.7511 362.65,-30.1904 369.555,-29.0396"/>
</g>
<!-- Node9 -->
<g id="node9" class="node"><title>Node9</title>
<polygon fill="none" stroke="#bfbfbf" points="400,-0.5 400,-19.5 440,-19.5 440,-0.5 400,-0.5"/>
<text text-anchor="middle" x="420" y="-7.5" font-family="Helvetica,sans-Serif" font-size="10.00">utility</text>
</g>
<!-- Node7&#45;&gt;Node9 -->
<g id="edge12" class="edge"><title>Node7&#45;&gt;Node9</title>
<path fill="none" stroke="midnightblue" d="M379.926,-56.083C386.846,-48.2982 397.065,-36.8015 405.452,-27.3665"/>
<polygon fill="midnightblue" stroke="midnightblue" points="408.194,-29.5505 412.221,-19.7511 402.962,-24.8999 408.194,-29.5505"/>
</g>
<!-- Node10&#45;&gt;Node4 -->
<g id="edge15" class="edge"><title>Node10&#45;&gt;Node4</title>
<path fill="none" stroke="midnightblue" d="M46.6276,-58.7025C49.7621,-57.7772 52.9629,-56.8502 56,-56 103.192,-42.7883 157.99,-28.7534 193.054,-19.9378"/>
<polygon fill="midnightblue" stroke="midnightblue" points="193.986,-23.3126 202.834,-17.4856 192.283,-16.5227 193.986,-23.3126"/>
</g>
<!-- Node10&#45;&gt;Node5 -->
<g id="edge17" class="edge"><title>Node10&#45;&gt;Node5</title>
<path fill="none" stroke="midnightblue" d="M46.5103,-56.9157C69.4118,-47.8888 106.695,-33.1931 132.901,-22.8637"/>
<polygon fill="midnightblue" stroke="midnightblue" points="134.33,-26.0629 142.35,-19.1396 131.763,-19.5505 134.33,-26.0629"/>
</g>
<!-- Node11 -->
<g id="node11" class="node"><title>Node11</title>
<polygon fill="none" stroke="#bfbfbf" points="0,-0.5 0,-19.5 52,-19.5 52,-0.5 0,-0.5"/>
<text text-anchor="middle" x="26" y="-7.5" font-family="Helvetica,sans-Serif" font-size="10.00">sstream</text>
</g>
<!-- Node10&#45;&gt;Node11 -->
<g id="edge16" class="edge"><title>Node10&#45;&gt;Node11</title>
<path fill="none" stroke="midnightblue" d="M26,-56.083C26,-49.0059 26,-38.8611 26,-29.9865"/>
<polygon fill="midnightblue" stroke="midnightblue" points="29.5001,-29.751 26,-19.7511 22.5001,-29.7511 29.5001,-29.751"/>
</g>
<!-- Node12&#45;&gt;Node5 -->
<g id="edge19" class="edge"><title>Node12&#45;&gt;Node5</title>
<path fill="none" stroke="midnightblue" d="M110.122,-56.324C119.526,-48.2631 133.744,-36.0765 145.069,-26.3695"/>
<polygon fill="midnightblue" stroke="midnightblue" points="147.379,-28.9993 152.694,-19.8339 142.823,-23.6844 147.379,-28.9993"/>
</g>
<!-- Node12&#45;&gt;Node6 -->
<g id="edge20" class="edge"><title>Node12&#45;&gt;Node6</title>
<path fill="none" stroke="midnightblue" d="M131.785,-56.4277C162.915,-47.9991 211.94,-34.6384 263.369,-20.1493"/>
<polygon fill="midnightblue" stroke="midnightblue" points="264.323,-23.5168 272.996,-17.4317 262.421,-16.7801 264.323,-23.5168"/>
</g>
</g>
</svg>
