<?xml version="1.0" encoding="UTF-8" standalone="no"?>
<!DOCTYPE svg PUBLIC "-//W3C//DTD SVG 1.1//EN"
 "http://www.w3.org/Graphics/SVG/1.1/DTD/svg11.dtd">
<!-- Generated by graphviz version 2.36.0 (20140111.2315)
 -->
<!-- Title: /home/travis/build/robotology/wb&#45;toolbox/toolbox/core/include/Core/Block.h Pages: 1 -->
<svg width="193pt" height="174pt"
 viewBox="0.00 0.00 193.00 174.00" xmlns="http://www.w3.org/2000/svg" xmlns:xlink="http://www.w3.org/1999/xlink">
<g id="graph0" class="graph" transform="scale(1 1) rotate(0) translate(4 170)">
<title>/home/travis/build/robotology/wb&#45;toolbox/toolbox/core/include/Core/Block.h</title>
<!-- Node1 -->
<g id="node1" class="node"><title>Node1</title>
<polygon fill="#bfbfbf" stroke="black" points="34.5,-113 34.5,-165 149.5,-165 149.5,-113 34.5,-113"/>
<text text-anchor="start" x="42.5" y="-153" font-family="Helvetica,sans-Serif" font-size="10.00">/home/travis/build</text>
<text text-anchor="start" x="42.5" y="-142" font-family="Helvetica,sans-Serif" font-size="10.00">/robotology/wb&#45;toolbox</text>
<text text-anchor="start" x="42.5" y="-131" font-family="Helvetica,sans-Serif" font-size="10.00">/toolbox/core/include</text>
<text text-anchor="middle" x="92" y="-120" font-family="Helvetica,sans-Serif" font-size="10.00">/Core/Block.h</text>
</g>
<!-- Node2 -->
<g id="node2" class="node"><title>Node2</title>
<g id="a_node2"><a xlink:href="_parameters_8h.html" target="_top" xlink:title="Core/Parameters.h">
<polygon fill="none" stroke="black" points="42.5,-56.5 42.5,-75.5 141.5,-75.5 141.5,-56.5 42.5,-56.5"/>
<text text-anchor="middle" x="92" y="-63.5" font-family="Helvetica,sans-Serif" font-size="10.00">Core/Parameters.h</text>
</a>
</g>
</g>
<!-- Node1&#45;&gt;Node2 -->
<g id="edge1" class="edge"><title>Node1&#45;&gt;Node2</title>
<path fill="none" stroke="midnightblue" d="M92,-112.768C92,-103.89 92,-94.0737 92,-85.8165"/>
<polygon fill="midnightblue" stroke="midnightblue" points="95.5001,-85.7571 92,-75.7572 88.5001,-85.7572 95.5001,-85.7571"/>
</g>
<!-- Node4 -->
<g id="node4" class="node"><title>Node4</title>
<polygon fill="none" stroke="#bfbfbf" points="-0.5,-0.5 -0.5,-19.5 40.5,-19.5 40.5,-0.5 -0.5,-0.5"/>
<text text-anchor="middle" x="20" y="-7.5" font-family="Helvetica,sans-Serif" font-size="10.00">string</text>
</g>
<!-- Node1&#45;&gt;Node4 -->
<g id="edge5" class="edge"><title>Node1&#45;&gt;Node4</title>
<path fill="none" stroke="midnightblue" d="M61.8329,-112.887C51.195,-102.518 40.1222,-89.7139 33,-76 25.5412,-61.638 22.3541,-43.4409 20.9964,-29.9558"/>
<polygon fill="midnightblue" stroke="midnightblue" points="24.4818,-29.6296 20.2326,-19.9242 17.502,-30.1611 24.4818,-29.6296"/>
</g>
<!-- Node5 -->
<g id="node5" class="node"><title>Node5</title>
<polygon fill="none" stroke="#bfbfbf" points="142,-0.5 142,-19.5 186,-19.5 186,-0.5 142,-0.5"/>
<text text-anchor="middle" x="164" y="-7.5" font-family="Helvetica,sans-Serif" font-size="10.00">vector</text>
</g>
<!-- Node1&#45;&gt;Node5 -->
<g id="edge6" class="edge"><title>Node1&#45;&gt;Node5</title>
<path fill="none" stroke="midnightblue" d="M121.544,-112.748C131.988,-102.361 142.893,-89.5819 150,-76 157.526,-61.6172 161.009,-43.4222 162.619,-29.9431"/>
<polygon fill="midnightblue" stroke="midnightblue" points="166.109,-30.2052 163.578,-19.9172 159.141,-29.5381 166.109,-30.2052"/>
</g>
<!-- Node3 -->
<g id="node3" class="node"><title>Node3</title>
<polygon fill="none" stroke="#bfbfbf" points="66,-0.5 66,-19.5 118,-19.5 118,-0.5 66,-0.5"/>
<text text-anchor="middle" x="92" y="-7.5" font-family="Helvetica,sans-Serif" font-size="10.00">memory</text>
</g>
<!-- Node2&#45;&gt;Node3 -->
<g id="edge2" class="edge"><title>Node2&#45;&gt;Node3</title>
<path fill="none" stroke="midnightblue" d="M92,-56.083C92,-49.0059 92,-38.8611 92,-29.9865"/>
<polygon fill="midnightblue" stroke="midnightblue" points="95.5001,-29.751 92,-19.7511 88.5001,-29.7511 95.5001,-29.751"/>
</g>
<!-- Node2&#45;&gt;Node4 -->
<g id="edge3" class="edge"><title>Node2&#45;&gt;Node4</title>
<path fill="none" stroke="midnightblue" d="M80.432,-56.324C69.5798,-48.1849 53.1193,-35.8395 40.1166,-26.0874"/>
<polygon fill="midnightblue" stroke="midnightblue" points="41.8786,-23.0339 31.7785,-19.8339 37.6785,-28.6339 41.8786,-23.0339"/>
</g>
<!-- Node2&#45;&gt;Node5 -->
<g id="edge4" class="edge"><title>Node2&#45;&gt;Node5</title>
<path fill="none" stroke="midnightblue" d="M103.568,-56.324C114.42,-48.1849 130.881,-35.8395 143.883,-26.0874"/>
<polygon fill="midnightblue" stroke="midnightblue" points="146.321,-28.6339 152.221,-19.8339 142.121,-23.0339 146.321,-28.6339"/>
</g>
</g>
</svg>
