<?xml version="1.0" encoding="UTF-8" standalone="no"?>
<!DOCTYPE svg PUBLIC "-//W3C//DTD SVG 1.1//EN"
 "http://www.w3.org/Graphics/SVG/1.1/DTD/svg11.dtd">
<!-- Generated by graphviz version 2.36.0 (20140111.2315)
 -->
<!-- Title: /home/travis/build/robotology/wb&#45;toolbox/toolbox/include/base/BlockInformation.h Pages: 1 -->
<svg width="225pt" height="118pt"
 viewBox="0.00 0.00 225.00 118.00" xmlns="http://www.w3.org/2000/svg" xmlns:xlink="http://www.w3.org/1999/xlink">
<g id="graph0" class="graph" transform="scale(1 1) rotate(0) translate(4 114)">
<title>/home/travis/build/robotology/wb&#45;toolbox/toolbox/include/base/BlockInformation.h</title>
<!-- Node1 -->
<g id="node1" class="node"><title>Node1</title>
<polygon fill="#bfbfbf" stroke="black" points="48.5,-57 48.5,-109 163.5,-109 163.5,-57 48.5,-57"/>
<text text-anchor="start" x="56.5" y="-97" font-family="Helvetica,sans-Serif" font-size="10.00">/home/travis/build</text>
<text text-anchor="start" x="56.5" y="-86" font-family="Helvetica,sans-Serif" font-size="10.00">/robotology/wb&#45;toolbox</text>
<text text-anchor="start" x="56.5" y="-75" font-family="Helvetica,sans-Serif" font-size="10.00">/toolbox/include/base</text>
<text text-anchor="middle" x="106" y="-64" font-family="Helvetica,sans-Serif" font-size="10.00">/BlockInformation.h</text>
</g>
<!-- Node2 -->
<g id="node2" class="node"><title>Node2</title>
<polygon fill="none" stroke="#bfbfbf" points="-0.5,-0.5 -0.5,-19.5 40.5,-19.5 40.5,-0.5 -0.5,-0.5"/>
<text text-anchor="middle" x="20" y="-7.5" font-family="Helvetica,sans-Serif" font-size="10.00">string</text>
</g>
<!-- Node1&#45;&gt;Node2 -->
<g id="edge1" class="edge"><title>Node1&#45;&gt;Node2</title>
<path fill="none" stroke="midnightblue" d="M75.4375,-56.7681C63.0946,-46.5781 49.2559,-35.1531 38.4926,-26.2671"/>
<polygon fill="midnightblue" stroke="midnightblue" points="40.5471,-23.4246 30.6073,-19.7572 36.0905,-28.8227 40.5471,-23.4246"/>
</g>
<!-- Node3 -->
<g id="node3" class="node"><title>Node3</title>
<polygon fill="none" stroke="#bfbfbf" points="59,-0.5 59,-19.5 97,-19.5 97,-0.5 59,-0.5"/>
<text text-anchor="middle" x="78" y="-7.5" font-family="Helvetica,sans-Serif" font-size="10.00">tuple</text>
</g>
<!-- Node1&#45;&gt;Node3 -->
<g id="edge2" class="edge"><title>Node1&#45;&gt;Node3</title>
<path fill="none" stroke="midnightblue" d="M96.0494,-56.7681C92.4685,-47.6879 88.5008,-37.6271 85.1995,-29.2559"/>
<polygon fill="midnightblue" stroke="midnightblue" points="88.3782,-27.7758 81.4535,-19.7572 81.8663,-30.3439 88.3782,-27.7758"/>
</g>
<!-- Node4 -->
<g id="node4" class="node"><title>Node4</title>
<polygon fill="none" stroke="#bfbfbf" points="115,-0.5 115,-19.5 155,-19.5 155,-0.5 115,-0.5"/>
<text text-anchor="middle" x="135" y="-7.5" font-family="Helvetica,sans-Serif" font-size="10.00">utility</text>
</g>
<!-- Node1&#45;&gt;Node4 -->
<g id="edge3" class="edge"><title>Node1&#45;&gt;Node4</title>
<path fill="none" stroke="midnightblue" d="M116.306,-56.7681C120.015,-47.6879 124.124,-37.6271 127.543,-29.2559"/>
<polygon fill="midnightblue" stroke="midnightblue" points="130.882,-30.3382 131.423,-19.7572 124.402,-27.6912 130.882,-30.3382"/>
</g>
<!-- Node5 -->
<g id="node5" class="node"><title>Node5</title>
<polygon fill="none" stroke="#bfbfbf" points="173,-0.5 173,-19.5 217,-19.5 217,-0.5 173,-0.5"/>
<text text-anchor="middle" x="195" y="-7.5" font-family="Helvetica,sans-Serif" font-size="10.00">vector</text>
</g>
<!-- Node1&#45;&gt;Node5 -->
<g id="edge4" class="edge"><title>Node1&#45;&gt;Node5</title>
<path fill="none" stroke="midnightblue" d="M137.378,-56.9681C150.299,-46.6601 164.842,-35.0589 176.084,-26.09"/>
<polygon fill="midnightblue" stroke="midnightblue" points="178.322,-28.7819 183.957,-19.8095 173.957,-23.3098 178.322,-28.7819"/>
</g>
</g>
</svg>
