<?xml version="1.0" encoding="UTF-8" standalone="no"?>
<!DOCTYPE svg PUBLIC "-//W3C//DTD SVG 1.1//EN"
 "http://www.w3.org/Graphics/SVG/1.1/DTD/svg11.dtd">
<!-- Generated by graphviz version 2.36.0 (20140111.2315)
 -->
<!-- Title: /home/travis/build/robotology/wb&#45;toolbox/toolbox/src/CentroidalMomentum.cpp Pages: 1 -->
<svg width="1194pt" height="330pt"
 viewBox="0.00 0.00 1193.57 330.00" xmlns="http://www.w3.org/2000/svg" xmlns:xlink="http://www.w3.org/1999/xlink">
<g id="graph0" class="graph" transform="scale(1 1) rotate(0) translate(4 326)">
<title>/home/travis/build/robotology/wb&#45;toolbox/toolbox/src/CentroidalMomentum.cpp</title>
<!-- Node1 -->
<g id="node1" class="node"><title>Node1</title>
<polygon fill="#bfbfbf" stroke="black" points="459.567,-280.5 459.567,-321.5 641.567,-321.5 641.567,-280.5 459.567,-280.5"/>
<text text-anchor="start" x="467.567" y="-309.5" font-family="Helvetica,sans-Serif" font-size="10.00">/home/travis/build</text>
<text text-anchor="start" x="467.567" y="-298.5" font-family="Helvetica,sans-Serif" font-size="10.00">/robotology/wb&#45;toolbox</text>
<text text-anchor="middle" x="550.567" y="-287.5" font-family="Helvetica,sans-Serif" font-size="10.00">/toolbox/src/CentroidalMomentum.cpp</text>
</g>
<!-- Node2 -->
<g id="node2" class="node"><title>Node2</title>
<g id="a_node2"><a xlink:href="_centroidal_momentum_8h.html" target="_top" xlink:title="CentroidalMomentum.h">
<polygon fill="none" stroke="black" points="261.567,-224.5 261.567,-243.5 379.567,-243.5 379.567,-224.5 261.567,-224.5"/>
<text text-anchor="middle" x="320.567" y="-231.5" font-family="Helvetica,sans-Serif" font-size="10.00">CentroidalMomentum.h</text>
</a>
</g>
</g>
<!-- Node1&#45;&gt;Node2 -->
<g id="edge1" class="edge"><title>Node1&#45;&gt;Node2</title>
<path fill="none" stroke="midnightblue" d="M481.559,-280.498C442.107,-269.348 394.009,-255.755 360.713,-246.346"/>
<polygon fill="midnightblue" stroke="midnightblue" points="361.456,-242.919 350.881,-243.567 359.552,-249.655 361.456,-242.919"/>
</g>
<!-- Node9 -->
<g id="node9" class="node"><title>Node9</title>
<g id="a_node9"><a xlink:href="_block_information_8h.html" target="_top" xlink:title="BlockInformation.h">
<polygon fill="none" stroke="black" points="421.567,-56.5 421.567,-75.5 519.567,-75.5 519.567,-56.5 421.567,-56.5"/>
<text text-anchor="middle" x="470.567" y="-63.5" font-family="Helvetica,sans-Serif" font-size="10.00">BlockInformation.h</text>
</a>
</g>
</g>
<!-- Node1&#45;&gt;Node9 -->
<g id="edge13" class="edge"><title>Node1&#45;&gt;Node9</title>
<path fill="none" stroke="midnightblue" d="M539.329,-280.376C527.216,-258.479 508.124,-221.691 496.567,-188 484.469,-152.734 476.826,-109.685 473.157,-85.6054"/>
<polygon fill="midnightblue" stroke="midnightblue" points="476.619,-85.0882 471.711,-75.6987 469.692,-86.0994 476.619,-85.0882"/>
</g>
<!-- Node11 -->
<g id="node11" class="node"><title>Node11</title>
<g id="a_node11"><a xlink:href="_configuration_8h.html" target="_top" xlink:title="Configuration.h">
<polygon fill="none" stroke="black" points="14.0669,-56.5 14.0669,-75.5 97.0669,-75.5 97.0669,-56.5 14.0669,-56.5"/>
<text text-anchor="middle" x="55.5669" y="-63.5" font-family="Helvetica,sans-Serif" font-size="10.00">Configuration.h</text>
</a>
</g>
</g>
<!-- Node1&#45;&gt;Node11 -->
<g id="edge17" class="edge"><title>Node1&#45;&gt;Node11</title>
<path fill="none" stroke="midnightblue" d="M459.505,-295.688C398.319,-289.786 317.344,-276.002 252.567,-244 170.863,-203.636 97.5861,-119.674 68.6633,-83.8199"/>
<polygon fill="midnightblue" stroke="midnightblue" points="71.2492,-81.4482 62.2876,-75.7967 65.7689,-85.8032 71.2492,-81.4482"/>
</g>
<!-- Node12 -->
<g id="node12" class="node"><title>Node12</title>
<g id="a_node12"><a xlink:href="_log_8h.html" target="_top" xlink:title="Log.h">
<polygon fill="none" stroke="black" points="362.067,-56.5 362.067,-75.5 403.067,-75.5 403.067,-56.5 362.067,-56.5"/>
<text text-anchor="middle" x="382.567" y="-63.5" font-family="Helvetica,sans-Serif" font-size="10.00">Log.h</text>
</a>
</g>
</g>
<!-- Node1&#45;&gt;Node12 -->
<g id="edge21" class="edge"><title>Node1&#45;&gt;Node12</title>
<path fill="none" stroke="midnightblue" d="M535.249,-280.449C526.952,-269.759 516.581,-256.238 507.567,-244 464.904,-186.081 416.234,-115.933 394.333,-84.1398"/>
<polygon fill="midnightblue" stroke="midnightblue" points="396.983,-81.8161 388.432,-75.5603 391.216,-85.783 396.983,-81.8161"/>
</g>
<!-- Node14 -->
<g id="node14" class="node"><title>Node14</title>
<g id="a_node14"><a xlink:href="_robot_interface_8h.html" target="_top" xlink:title="RobotInterface.h">
<polygon fill="none" stroke="black" points="576.067,-56.5 576.067,-75.5 665.067,-75.5 665.067,-56.5 576.067,-56.5"/>
<text text-anchor="middle" x="620.567" y="-63.5" font-family="Helvetica,sans-Serif" font-size="10.00">RobotInterface.h</text>
</a>
</g>
</g>
<!-- Node1&#45;&gt;Node14 -->
<g id="edge25" class="edge"><title>Node1&#45;&gt;Node14</title>
<path fill="none" stroke="midnightblue" d="M556.535,-280.135C569.918,-235.59 602.16,-128.27 615.078,-85.2698"/>
<polygon fill="midnightblue" stroke="midnightblue" points="618.462,-86.1705 617.987,-75.5863 611.758,-84.1564 618.462,-86.1705"/>
</g>
<!-- Node16 -->
<g id="node16" class="node"><title>Node16</title>
<g id="a_node16"><a xlink:href="_signal_8h.html" target="_top" xlink:title="Signal.h">
<polygon fill="none" stroke="black" points="505.567,-168.5 505.567,-187.5 557.567,-187.5 557.567,-168.5 505.567,-168.5"/>
<text text-anchor="middle" x="531.567" y="-175.5" font-family="Helvetica,sans-Serif" font-size="10.00">Signal.h</text>
</a>
</g>
</g>
<!-- Node1&#45;&gt;Node16 -->
<g id="edge30" class="edge"><title>Node1&#45;&gt;Node16</title>
<path fill="none" stroke="midnightblue" d="M547.472,-280.29C543.874,-257.375 537.981,-219.846 534.468,-197.473"/>
<polygon fill="midnightblue" stroke="midnightblue" points="537.922,-196.911 532.913,-187.575 531.007,-197.997 537.922,-196.911"/>
</g>
<!-- Node17 -->
<g id="node17" class="node"><title>Node17</title>
<polygon fill="none" stroke="#bfbfbf" points="597.567,-224.5 597.567,-243.5 747.567,-243.5 747.567,-224.5 597.567,-224.5"/>
<text text-anchor="middle" x="672.567" y="-231.5" font-family="Helvetica,sans-Serif" font-size="10.00">iDynTree/Core/EigenHelpers.h</text>
</g>
<!-- Node1&#45;&gt;Node17 -->
<g id="edge32" class="edge"><title>Node1&#45;&gt;Node17</title>
<path fill="none" stroke="midnightblue" d="M587.171,-280.498C606.595,-270.149 629.971,-257.695 647.351,-248.435"/>
<polygon fill="midnightblue" stroke="midnightblue" points="649.147,-251.444 656.327,-243.652 645.856,-245.266 649.147,-251.444"/>
</g>
<!-- Node18 -->
<g id="node18" class="node"><title>Node18</title>
<polygon fill="none" stroke="#bfbfbf" points="765.567,-224.5 765.567,-243.5 935.567,-243.5 935.567,-224.5 765.567,-224.5"/>
<text text-anchor="middle" x="850.567" y="-231.5" font-family="Helvetica,sans-Serif" font-size="10.00">iDynTree/Core/SpatialMomentum.h</text>
</g>
<!-- Node1&#45;&gt;Node18 -->
<g id="edge33" class="edge"><title>Node1&#45;&gt;Node18</title>
<path fill="none" stroke="midnightblue" d="M640.577,-280.498C693.145,-269.108 757.482,-255.168 800.983,-245.743"/>
<polygon fill="midnightblue" stroke="midnightblue" points="801.994,-249.105 811.027,-243.567 800.512,-242.264 801.994,-249.105"/>
</g>
<!-- Node19 -->
<g id="node19" class="node"><title>Node19</title>
<polygon fill="none" stroke="#bfbfbf" points="954.067,-224.5 954.067,-243.5 1115.07,-243.5 1115.07,-224.5 954.067,-224.5"/>
<text text-anchor="middle" x="1034.57" y="-231.5" font-family="Helvetica,sans-Serif" font-size="10.00">iDynTree/KinDynComputations.h</text>
</g>
<!-- Node1&#45;&gt;Node19 -->
<g id="edge34" class="edge"><title>Node1&#45;&gt;Node19</title>
<path fill="none" stroke="midnightblue" d="M641.604,-287.774C733.965,-275.37 875.173,-256.406 960.788,-244.908"/>
<polygon fill="midnightblue" stroke="midnightblue" points="961.501,-248.344 970.946,-243.544 960.57,-241.406 961.501,-248.344"/>
</g>
<!-- Node20 -->
<g id="node20" class="node"><title>Node20</title>
<polygon fill="none" stroke="#bfbfbf" points="1133.57,-224.5 1133.57,-243.5 1185.57,-243.5 1185.57,-224.5 1133.57,-224.5"/>
<text text-anchor="middle" x="1159.57" y="-231.5" font-family="Helvetica,sans-Serif" font-size="10.00">ostream</text>
</g>
<!-- Node1&#45;&gt;Node20 -->
<g id="edge35" class="edge"><title>Node1&#45;&gt;Node20</title>
<path fill="none" stroke="midnightblue" d="M641.928,-295.239C753.373,-288.495 947.529,-273.723 1123.36,-243.754"/>
<polygon fill="midnightblue" stroke="midnightblue" points="1124.06,-247.186 1133.32,-242.038 1122.87,-240.288 1124.06,-247.186"/>
</g>
<!-- Node3 -->
<g id="node3" class="node"><title>Node3</title>
<g id="a_node3"><a xlink:href="_w_b_block_8h.html" target="_top" xlink:title="WBBlock.h">
<polygon fill="none" stroke="black" points="262.567,-168.5 262.567,-187.5 328.567,-187.5 328.567,-168.5 262.567,-168.5"/>
<text text-anchor="middle" x="295.567" y="-175.5" font-family="Helvetica,sans-Serif" font-size="10.00">WBBlock.h</text>
</a>
</g>
</g>
<!-- Node2&#45;&gt;Node3 -->
<g id="edge2" class="edge"><title>Node2&#45;&gt;Node3</title>
<path fill="none" stroke="midnightblue" d="M316.439,-224.083C313.053,-216.77 308.151,-206.181 303.948,-197.103"/>
<polygon fill="midnightblue" stroke="midnightblue" points="306.996,-195.355 299.618,-187.751 300.643,-198.296 306.996,-195.355"/>
</g>
<!-- Node6 -->
<g id="node6" class="node"><title>Node6</title>
<polygon fill="none" stroke="#bfbfbf" points="307.567,-0.5 307.567,-19.5 359.567,-19.5 359.567,-0.5 307.567,-0.5"/>
<text text-anchor="middle" x="333.567" y="-7.5" font-family="Helvetica,sans-Serif" font-size="10.00">memory</text>
</g>
<!-- Node2&#45;&gt;Node6 -->
<g id="edge11" class="edge"><title>Node2&#45;&gt;Node6</title>
<path fill="none" stroke="midnightblue" d="M324.933,-224.307C329.126,-215.437 335.167,-201.145 337.567,-188 347.942,-131.178 340.93,-62.4006 336.466,-29.8391"/>
<polygon fill="midnightblue" stroke="midnightblue" points="339.876,-28.9633 334.974,-19.5705 332.949,-29.97 339.876,-28.9633"/>
</g>
<!-- Node7 -->
<g id="node7" class="node"><title>Node7</title>
<polygon fill="none" stroke="#bfbfbf" points="237.067,-0.5 237.067,-19.5 278.067,-19.5 278.067,-0.5 237.067,-0.5"/>
<text text-anchor="middle" x="257.567" y="-7.5" font-family="Helvetica,sans-Serif" font-size="10.00">string</text>
</g>
<!-- Node2&#45;&gt;Node7 -->
<g id="edge12" class="edge"><title>Node2&#45;&gt;Node7</title>
<path fill="none" stroke="midnightblue" d="M297.778,-224.471C282.241,-217.316 262.859,-205.435 253.567,-188 226.031,-136.335 241.684,-63.5689 251.502,-29.7005"/>
<polygon fill="midnightblue" stroke="midnightblue" points="254.954,-30.3792 254.537,-19.7926 248.261,-28.3289 254.954,-30.3792"/>
</g>
<!-- Node4 -->
<g id="node4" class="node"><title>Node4</title>
<g id="a_node4"><a xlink:href="_block_8h.html" target="_top" xlink:title="Block.h">
<polygon fill="none" stroke="black" points="145.567,-112.5 145.567,-131.5 195.567,-131.5 195.567,-112.5 145.567,-112.5"/>
<text text-anchor="middle" x="170.567" y="-119.5" font-family="Helvetica,sans-Serif" font-size="10.00">Block.h</text>
</a>
</g>
</g>
<!-- Node3&#45;&gt;Node4 -->
<g id="edge3" class="edge"><title>Node3&#45;&gt;Node4</title>
<path fill="none" stroke="midnightblue" d="M275.76,-168.444C255.28,-159.596 223.084,-145.687 199.702,-135.586"/>
<polygon fill="midnightblue" stroke="midnightblue" points="200.849,-132.269 190.281,-131.516 198.073,-138.695 200.849,-132.269"/>
</g>
<!-- Node3&#45;&gt;Node6 -->
<g id="edge10" class="edge"><title>Node3&#45;&gt;Node6</title>
<path fill="none" stroke="midnightblue" d="M296.947,-168.422C300.219,-148.52 308.971,-97.722 319.567,-56 321.835,-47.0675 324.818,-37.2835 327.447,-29.1268"/>
<polygon fill="midnightblue" stroke="midnightblue" points="330.798,-30.1429 330.61,-19.5497 324.151,-27.9477 330.798,-30.1429"/>
</g>
<!-- Node5 -->
<g id="node5" class="node"><title>Node5</title>
<g id="a_node5"><a xlink:href="_parameters_8h.html" target="_top" xlink:title="Parameters.h">
<polygon fill="none" stroke="black" points="154.067,-56.5 154.067,-75.5 229.067,-75.5 229.067,-56.5 154.067,-56.5"/>
<text text-anchor="middle" x="191.567" y="-63.5" font-family="Helvetica,sans-Serif" font-size="10.00">Parameters.h</text>
</a>
</g>
</g>
<!-- Node4&#45;&gt;Node5 -->
<g id="edge4" class="edge"><title>Node4&#45;&gt;Node5</title>
<path fill="none" stroke="midnightblue" d="M174.035,-112.083C176.879,-104.77 180.996,-94.1814 184.527,-85.1034"/>
<polygon fill="midnightblue" stroke="midnightblue" points="187.801,-86.3397 188.164,-75.7511 181.277,-83.8025 187.801,-86.3397"/>
</g>
<!-- Node4&#45;&gt;Node7 -->
<g id="edge8" class="edge"><title>Node4&#45;&gt;Node7</title>
<path fill="none" stroke="midnightblue" d="M162.193,-112.435C150.531,-99.4372 132.152,-74.3076 144.567,-56 162.877,-28.9997 200.241,-18.1993 226.994,-13.8792"/>
<polygon fill="midnightblue" stroke="midnightblue" points="227.597,-17.329 237.017,-12.4787 226.629,-10.3963 227.597,-17.329"/>
</g>
<!-- Node8 -->
<g id="node8" class="node"><title>Node8</title>
<polygon fill="none" stroke="#bfbfbf" points="33.5669,-0.5 33.5669,-19.5 77.5669,-19.5 77.5669,-0.5 33.5669,-0.5"/>
<text text-anchor="middle" x="55.5669" y="-7.5" font-family="Helvetica,sans-Serif" font-size="10.00">vector</text>
</g>
<!-- Node4&#45;&gt;Node8 -->
<g id="edge9" class="edge"><title>Node4&#45;&gt;Node8</title>
<path fill="none" stroke="midnightblue" d="M145.262,-117.88C103.152,-112.112 21.621,-98.2928 4.56688,-76 -8.96149,-58.316 12.667,-38.1793 31.7913,-25.0661"/>
<polygon fill="midnightblue" stroke="midnightblue" points="33.7811,-27.9473 40.2666,-19.5694 29.9721,-22.0743 33.7811,-27.9473"/>
</g>
<!-- Node5&#45;&gt;Node6 -->
<g id="edge5" class="edge"><title>Node5&#45;&gt;Node6</title>
<path fill="none" stroke="midnightblue" d="M214.067,-56.4435C237.644,-47.4776 274.889,-33.314 301.531,-23.1827"/>
<polygon fill="midnightblue" stroke="midnightblue" points="303.069,-26.3424 311.172,-19.5164 300.581,-19.7995 303.069,-26.3424"/>
</g>
<!-- Node5&#45;&gt;Node7 -->
<g id="edge6" class="edge"><title>Node5&#45;&gt;Node7</title>
<path fill="none" stroke="midnightblue" d="M202.171,-56.324C212.023,-48.2631 226.918,-36.0765 238.782,-26.3695"/>
<polygon fill="midnightblue" stroke="midnightblue" points="241.247,-28.8752 246.77,-19.8339 236.814,-23.4575 241.247,-28.8752"/>
</g>
<!-- Node5&#45;&gt;Node8 -->
<g id="edge7" class="edge"><title>Node5&#45;&gt;Node8</title>
<path fill="none" stroke="midnightblue" d="M170.017,-56.4435C147.536,-47.5171 112.079,-33.4387 86.587,-23.3168"/>
<polygon fill="midnightblue" stroke="midnightblue" points="87.6015,-19.9539 77.0157,-19.5164 85.0182,-26.4598 87.6015,-19.9539"/>
</g>
<!-- Node9&#45;&gt;Node6 -->
<g id="edge14" class="edge"><title>Node9&#45;&gt;Node6</title>
<path fill="none" stroke="midnightblue" d="M448.859,-56.4435C426.212,-47.5171 390.495,-33.4387 364.815,-23.3168"/>
<polygon fill="midnightblue" stroke="midnightblue" points="365.76,-19.9273 355.173,-19.5164 363.193,-26.4397 365.76,-19.9273"/>
</g>
<!-- Node9&#45;&gt;Node7 -->
<g id="edge15" class="edge"><title>Node9&#45;&gt;Node7</title>
<path fill="none" stroke="midnightblue" d="M436.816,-56.4435C395.897,-46.0696 327.531,-28.7375 288.112,-18.7438"/>
<polygon fill="midnightblue" stroke="midnightblue" points="288.831,-15.3155 278.278,-16.2506 287.111,-22.1009 288.831,-15.3155"/>
</g>
<!-- Node10 -->
<g id="node10" class="node"><title>Node10</title>
<polygon fill="none" stroke="#bfbfbf" points="485.567,-0.5 485.567,-19.5 525.567,-19.5 525.567,-0.5 485.567,-0.5"/>
<text text-anchor="middle" x="505.567" y="-7.5" font-family="Helvetica,sans-Serif" font-size="10.00">utility</text>
</g>
<!-- Node9&#45;&gt;Node10 -->
<g id="edge16" class="edge"><title>Node9&#45;&gt;Node10</title>
<path fill="none" stroke="midnightblue" d="M476.346,-56.083C481.239,-48.5341 488.394,-37.4948 494.399,-28.2298"/>
<polygon fill="midnightblue" stroke="midnightblue" points="497.393,-30.0463 499.895,-19.7511 491.519,-26.239 497.393,-30.0463"/>
</g>
<!-- Node11&#45;&gt;Node6 -->
<g id="edge18" class="edge"><title>Node11&#45;&gt;Node6</title>
<path fill="none" stroke="midnightblue" d="M97.1863,-56.9157C151.602,-46.3457 246.032,-28.0033 297.532,-17.9995"/>
<polygon fill="midnightblue" stroke="midnightblue" points="298.389,-21.3986 307.538,-16.0559 297.054,-14.527 298.389,-21.3986"/>
</g>
<!-- Node11&#45;&gt;Node7 -->
<g id="edge19" class="edge"><title>Node11&#45;&gt;Node7</title>
<path fill="none" stroke="midnightblue" d="M87.5744,-56.4435C125.809,-46.2225 189.31,-29.2468 226.929,-19.1904"/>
<polygon fill="midnightblue" stroke="midnightblue" points="228.054,-22.5127 236.81,-16.5488 226.246,-15.7502 228.054,-22.5127"/>
</g>
<!-- Node11&#45;&gt;Node8 -->
<g id="edge20" class="edge"><title>Node11&#45;&gt;Node8</title>
<path fill="none" stroke="midnightblue" d="M55.5669,-56.083C55.5669,-49.0059 55.5669,-38.8611 55.5669,-29.9865"/>
<polygon fill="midnightblue" stroke="midnightblue" points="59.067,-29.751 55.5669,-19.7511 52.067,-29.7511 59.067,-29.751"/>
</g>
<!-- Node12&#45;&gt;Node6 -->
<g id="edge22" class="edge"><title>Node12&#45;&gt;Node6</title>
<path fill="none" stroke="midnightblue" d="M374.476,-56.083C367.412,-48.2982 356.979,-36.8015 348.418,-27.3665"/>
<polygon fill="midnightblue" stroke="midnightblue" points="350.82,-24.8047 341.508,-19.7511 345.636,-29.5087 350.82,-24.8047"/>
</g>
<!-- Node12&#45;&gt;Node7 -->
<g id="edge24" class="edge"><title>Node12&#45;&gt;Node7</title>
<path fill="none" stroke="midnightblue" d="M362.76,-56.4435C342.28,-47.5961 310.084,-33.6875 286.702,-23.5865"/>
<polygon fill="midnightblue" stroke="midnightblue" points="287.849,-20.2692 277.281,-19.5164 285.073,-26.6953 287.849,-20.2692"/>
</g>
<!-- Node13 -->
<g id="node13" class="node"><title>Node13</title>
<polygon fill="none" stroke="#bfbfbf" points="377.567,-0.5 377.567,-19.5 429.567,-19.5 429.567,-0.5 377.567,-0.5"/>
<text text-anchor="middle" x="403.567" y="-7.5" font-family="Helvetica,sans-Serif" font-size="10.00">sstream</text>
</g>
<!-- Node12&#45;&gt;Node13 -->
<g id="edge23" class="edge"><title>Node12&#45;&gt;Node13</title>
<path fill="none" stroke="midnightblue" d="M386.035,-56.083C388.879,-48.77 392.996,-38.1814 396.527,-29.1034"/>
<polygon fill="midnightblue" stroke="midnightblue" points="399.801,-30.3397 400.164,-19.7511 393.277,-27.8025 399.801,-30.3397"/>
</g>
<!-- Node14&#45;&gt;Node6 -->
<g id="edge26" class="edge"><title>Node14&#45;&gt;Node6</title>
<path fill="none" stroke="midnightblue" d="M575.757,-58.0398C527.286,-50.2793 447.534,-36.8416 369.844,-20.1532"/>
<polygon fill="midnightblue" stroke="midnightblue" points="370.404,-16.6934 359.89,-17.9942 368.921,-23.5343 370.404,-16.6934"/>
</g>
<!-- Node14&#45;&gt;Node7 -->
<g id="edge27" class="edge"><title>Node14&#45;&gt;Node7</title>
<path fill="none" stroke="midnightblue" d="M575.859,-59.8592C513.52,-52.4395 397.046,-37.6628 298.567,-20 295.267,-19.4082 291.83,-18.7385 288.41,-18.038"/>
<polygon fill="midnightblue" stroke="midnightblue" points="288.873,-14.5579 278.362,-15.8911 287.41,-21.4034 288.873,-14.5579"/>
</g>
<!-- Node14&#45;&gt;Node10 -->
<g id="edge29" class="edge"><title>Node14&#45;&gt;Node10</title>
<path fill="none" stroke="midnightblue" d="M602.345,-56.4435C583.671,-47.6751 554.411,-33.9355 532.95,-23.8579"/>
<polygon fill="midnightblue" stroke="midnightblue" points="534.243,-20.5988 523.704,-19.5164 531.268,-26.935 534.243,-20.5988"/>
</g>
<!-- Node15 -->
<g id="node15" class="node"><title>Node15</title>
<polygon fill="none" stroke="#bfbfbf" points="579.067,-0.5 579.067,-19.5 662.067,-19.5 662.067,-0.5 579.067,-0.5"/>
<text text-anchor="middle" x="620.567" y="-7.5" font-family="Helvetica,sans-Serif" font-size="10.00">unordered_map</text>
</g>
<!-- Node14&#45;&gt;Node15 -->
<g id="edge28" class="edge"><title>Node14&#45;&gt;Node15</title>
<path fill="none" stroke="midnightblue" d="M620.567,-56.083C620.567,-49.0059 620.567,-38.8611 620.567,-29.9865"/>
<polygon fill="midnightblue" stroke="midnightblue" points="624.067,-29.751 620.567,-19.7511 617.067,-29.7511 624.067,-29.751"/>
</g>
<!-- Node16&#45;&gt;Node6 -->
<g id="edge31" class="edge"><title>Node16&#45;&gt;Node6</title>
<path fill="none" stroke="midnightblue" d="M534.422,-168.461C541.068,-146.825 555.013,-89.2151 527.567,-56 483.397,-2.54631 442.646,-34.026 369.913,-20.035"/>
<polygon fill="midnightblue" stroke="midnightblue" points="370.435,-16.5668 359.92,-17.8637 368.949,-23.4072 370.435,-16.5668"/>
</g>
</g>
</svg>
