<?xml version="1.0" encoding="UTF-8" standalone="no"?>
<!DOCTYPE svg PUBLIC "-//W3C//DTD SVG 1.1//EN"
 "http://www.w3.org/Graphics/SVG/1.1/DTD/svg11.dtd">
<!-- Generated by graphviz version 2.36.0 (20140111.2315)
 -->
<!-- Title: /home/travis/build/robotology/wb&#45;toolbox/toolbox/src/CentroidalMomentum.cpp Pages: 1 -->
<svg width="1236pt" height="330pt"
 viewBox="0.00 0.00 1235.60 330.00" xmlns="http://www.w3.org/2000/svg" xmlns:xlink="http://www.w3.org/1999/xlink">
<g id="graph0" class="graph" transform="scale(1 1) rotate(0) translate(4 326)">
<title>/home/travis/build/robotology/wb&#45;toolbox/toolbox/src/CentroidalMomentum.cpp</title>
<!-- Node1 -->
<g id="node1" class="node"><title>Node1</title>
<polygon fill="#bfbfbf" stroke="black" points="482.599,-280.5 482.599,-321.5 664.599,-321.5 664.599,-280.5 482.599,-280.5"/>
<text text-anchor="start" x="490.599" y="-309.5" font-family="Helvetica,sans-Serif" font-size="10.00">/home/travis/build</text>
<text text-anchor="start" x="490.599" y="-298.5" font-family="Helvetica,sans-Serif" font-size="10.00">/robotology/wb&#45;toolbox</text>
<text text-anchor="middle" x="573.599" y="-287.5" font-family="Helvetica,sans-Serif" font-size="10.00">/toolbox/src/CentroidalMomentum.cpp</text>
</g>
<!-- Node2 -->
<g id="node2" class="node"><title>Node2</title>
<g id="a_node2"><a xlink:href="_centroidal_momentum_8h.html" target="_top" xlink:title="CentroidalMomentum.h">
<polygon fill="none" stroke="black" points="109.599,-224.5 109.599,-243.5 227.599,-243.5 227.599,-224.5 109.599,-224.5"/>
<text text-anchor="middle" x="168.599" y="-231.5" font-family="Helvetica,sans-Serif" font-size="10.00">CentroidalMomentum.h</text>
</a>
</g>
</g>
<!-- Node1&#45;&gt;Node2 -->
<g id="edge1" class="edge"><title>Node1&#45;&gt;Node2</title>
<path fill="none" stroke="midnightblue" d="M482.456,-285.372C406.022,-273.105 298.868,-255.907 231.623,-245.115"/>
<polygon fill="midnightblue" stroke="midnightblue" points="232.02,-241.634 221.592,-243.505 230.911,-248.546 232.02,-241.634"/>
</g>
<!-- Node9 -->
<g id="node9" class="node"><title>Node9</title>
<g id="a_node9"><a xlink:href="_block_information_8h.html" target="_top" xlink:title="BlockInformation.h">
<polygon fill="none" stroke="black" points="466.599,-56.5 466.599,-75.5 564.599,-75.5 564.599,-56.5 466.599,-56.5"/>
<text text-anchor="middle" x="515.599" y="-63.5" font-family="Helvetica,sans-Serif" font-size="10.00">BlockInformation.h</text>
</a>
</g>
</g>
<!-- Node1&#45;&gt;Node9 -->
<g id="edge14" class="edge"><title>Node1&#45;&gt;Node9</title>
<path fill="none" stroke="midnightblue" d="M568.653,-280.135C557.589,-235.684 530.964,-128.726 520.215,-85.5445"/>
<polygon fill="midnightblue" stroke="midnightblue" points="523.548,-84.4447 517.736,-75.5863 516.755,-86.1357 523.548,-84.4447"/>
</g>
<!-- Node10 -->
<g id="node10" class="node"><title>Node10</title>
<polygon fill="none" stroke="#bfbfbf" points="680.599,-0.5 680.599,-19.5 718.599,-19.5 718.599,-0.5 680.599,-0.5"/>
<text text-anchor="middle" x="699.599" y="-7.5" font-family="Helvetica,sans-Serif" font-size="10.00">tuple</text>
</g>
<!-- Node1&#45;&gt;Node10 -->
<g id="edge39" class="edge"><title>Node1&#45;&gt;Node10</title>
<path fill="none" stroke="midnightblue" d="M584.081,-280.343C604.33,-241.871 649.475,-153.609 679.599,-76 685.606,-60.5217 691.049,-42.4347 694.734,-29.2756"/>
<polygon fill="midnightblue" stroke="midnightblue" points="698.133,-30.1152 697.39,-19.5464 691.38,-28.2715 698.133,-30.1152"/>
</g>
<!-- Node12 -->
<g id="node12" class="node"><title>Node12</title>
<g id="a_node12"><a xlink:href="_configuration_8h.html" target="_top" xlink:title="Configuration.h">
<polygon fill="none" stroke="black" points="191.099,-56.5 191.099,-75.5 274.099,-75.5 274.099,-56.5 191.099,-56.5"/>
<text text-anchor="middle" x="232.599" y="-63.5" font-family="Helvetica,sans-Serif" font-size="10.00">Configuration.h</text>
</a>
</g>
</g>
<!-- Node1&#45;&gt;Node12 -->
<g id="edge19" class="edge"><title>Node1&#45;&gt;Node12</title>
<path fill="none" stroke="midnightblue" d="M522.299,-280.378C499.353,-270.716 472.396,-258.109 449.599,-244 368.08,-193.548 283.393,-115.801 248.786,-82.7429"/>
<polygon fill="midnightblue" stroke="midnightblue" points="251.089,-80.1018 241.456,-75.6911 246.236,-85.1464 251.089,-80.1018"/>
</g>
<!-- Node14 -->
<g id="node14" class="node"><title>Node14</title>
<g id="a_node14"><a xlink:href="_log_8h.html" target="_top" xlink:title="Log.h">
<polygon fill="none" stroke="black" points="369.099,-56.5 369.099,-75.5 410.099,-75.5 410.099,-56.5 369.099,-56.5"/>
<text text-anchor="middle" x="389.599" y="-63.5" font-family="Helvetica,sans-Serif" font-size="10.00">Log.h</text>
</a>
</g>
</g>
<!-- Node1&#45;&gt;Node14 -->
<g id="edge24" class="edge"><title>Node1&#45;&gt;Node14</title>
<path fill="none" stroke="midnightblue" d="M531.964,-280.38C496.913,-261.641 448.341,-230.039 421.599,-188 401.067,-155.725 393.641,-110.621 391.005,-85.5939"/>
<polygon fill="midnightblue" stroke="midnightblue" points="394.49,-85.2687 390.101,-75.6257 387.519,-85.901 394.49,-85.2687"/>
</g>
<!-- Node16 -->
<g id="node16" class="node"><title>Node16</title>
<g id="a_node16"><a xlink:href="_robot_interface_8h.html" target="_top" xlink:title="RobotInterface.h">
<polygon fill="none" stroke="black" points="582.099,-56.5 582.099,-75.5 671.099,-75.5 671.099,-56.5 582.099,-56.5"/>
<text text-anchor="middle" x="626.599" y="-63.5" font-family="Helvetica,sans-Serif" font-size="10.00">RobotInterface.h</text>
</a>
</g>
</g>
<!-- Node1&#45;&gt;Node16 -->
<g id="edge28" class="edge"><title>Node1&#45;&gt;Node16</title>
<path fill="none" stroke="midnightblue" d="M578.117,-280.135C588.228,-235.684 612.558,-128.726 622.38,-85.5445"/>
<polygon fill="midnightblue" stroke="midnightblue" points="625.84,-86.1136 624.645,-75.5863 619.015,-84.5609 625.84,-86.1136"/>
</g>
<!-- Node18 -->
<g id="node18" class="node"><title>Node18</title>
<g id="a_node18"><a xlink:href="_signal_8h.html" target="_top" xlink:title="Signal.h">
<polygon fill="none" stroke="black" points="430.599,-168.5 430.599,-187.5 482.599,-187.5 482.599,-168.5 430.599,-168.5"/>
<text text-anchor="middle" x="456.599" y="-175.5" font-family="Helvetica,sans-Serif" font-size="10.00">Signal.h</text>
</a>
</g>
</g>
<!-- Node1&#45;&gt;Node18 -->
<g id="edge33" class="edge"><title>Node1&#45;&gt;Node18</title>
<path fill="none" stroke="midnightblue" d="M548.56,-280.273C536.063,-269.976 521.005,-256.867 508.599,-244 493.928,-228.785 479.049,-209.741 468.987,-196.207"/>
<polygon fill="midnightblue" stroke="midnightblue" points="471.586,-193.832 462.852,-187.834 465.939,-197.969 471.586,-193.832"/>
</g>
<!-- Node19 -->
<g id="node19" class="node"><title>Node19</title>
<polygon fill="none" stroke="#bfbfbf" points="639.599,-224.5 639.599,-243.5 789.599,-243.5 789.599,-224.5 639.599,-224.5"/>
<text text-anchor="middle" x="714.599" y="-231.5" font-family="Helvetica,sans-Serif" font-size="10.00">iDynTree/Core/EigenHelpers.h</text>
</g>
<!-- Node1&#45;&gt;Node19 -->
<g id="edge35" class="edge"><title>Node1&#45;&gt;Node19</title>
<path fill="none" stroke="midnightblue" d="M615.903,-280.498C638.768,-269.957 666.371,-257.233 686.564,-247.923"/>
<polygon fill="midnightblue" stroke="midnightblue" points="688.213,-251.018 695.829,-243.652 685.283,-244.661 688.213,-251.018"/>
</g>
<!-- Node20 -->
<g id="node20" class="node"><title>Node20</title>
<polygon fill="none" stroke="#bfbfbf" points="807.599,-224.5 807.599,-243.5 977.599,-243.5 977.599,-224.5 807.599,-224.5"/>
<text text-anchor="middle" x="892.599" y="-231.5" font-family="Helvetica,sans-Serif" font-size="10.00">iDynTree/Core/SpatialMomentum.h</text>
</g>
<!-- Node1&#45;&gt;Node20 -->
<g id="edge36" class="edge"><title>Node1&#45;&gt;Node20</title>
<path fill="none" stroke="midnightblue" d="M665.011,-281.374C721.957,-269.77 793.158,-255.262 840.608,-245.594"/>
<polygon fill="midnightblue" stroke="midnightblue" points="841.554,-248.973 850.654,-243.547 840.157,-242.114 841.554,-248.973"/>
</g>
<!-- Node21 -->
<g id="node21" class="node"><title>Node21</title>
<polygon fill="none" stroke="#bfbfbf" points="996.099,-224.5 996.099,-243.5 1157.1,-243.5 1157.1,-224.5 996.099,-224.5"/>
<text text-anchor="middle" x="1076.6" y="-231.5" font-family="Helvetica,sans-Serif" font-size="10.00">iDynTree/KinDynComputations.h</text>
</g>
<!-- Node1&#45;&gt;Node21 -->
<g id="edge37" class="edge"><title>Node1&#45;&gt;Node21</title>
<path fill="none" stroke="midnightblue" d="M664.688,-288.229C760.78,-275.812 910.491,-256.465 1000.5,-244.834"/>
<polygon fill="midnightblue" stroke="midnightblue" points="1001.17,-248.277 1010.64,-243.524 1000.27,-241.335 1001.17,-248.277"/>
</g>
<!-- Node22 -->
<g id="node22" class="node"><title>Node22</title>
<polygon fill="none" stroke="#bfbfbf" points="1175.6,-224.5 1175.6,-243.5 1227.6,-243.5 1227.6,-224.5 1175.6,-224.5"/>
<text text-anchor="middle" x="1201.6" y="-231.5" font-family="Helvetica,sans-Serif" font-size="10.00">ostream</text>
</g>
<!-- Node1&#45;&gt;Node22 -->
<g id="edge38" class="edge"><title>Node1&#45;&gt;Node22</title>
<path fill="none" stroke="midnightblue" d="M664.675,-295.652C779.288,-289.223 982.194,-274.67 1165.27,-243.77"/>
<polygon fill="midnightblue" stroke="midnightblue" points="1166.08,-247.181 1175.35,-242.048 1164.9,-240.281 1166.08,-247.181"/>
</g>
<!-- Node3 -->
<g id="node3" class="node"><title>Node3</title>
<g id="a_node3"><a xlink:href="_w_b_block_8h.html" target="_top" xlink:title="WBBlock.h">
<polygon fill="none" stroke="black" points="133.599,-168.5 133.599,-187.5 199.599,-187.5 199.599,-168.5 133.599,-168.5"/>
<text text-anchor="middle" x="166.599" y="-175.5" font-family="Helvetica,sans-Serif" font-size="10.00">WBBlock.h</text>
</a>
</g>
</g>
<!-- Node2&#45;&gt;Node3 -->
<g id="edge2" class="edge"><title>Node2&#45;&gt;Node3</title>
<path fill="none" stroke="midnightblue" d="M168.268,-224.083C168.006,-217.006 167.63,-206.861 167.302,-197.986"/>
<polygon fill="midnightblue" stroke="midnightblue" points="170.79,-197.615 166.923,-187.751 163.795,-197.874 170.79,-197.615"/>
</g>
<!-- Node6 -->
<g id="node6" class="node"><title>Node6</title>
<polygon fill="none" stroke="#bfbfbf" points="303.599,-0.5 303.599,-19.5 355.599,-19.5 355.599,-0.5 303.599,-0.5"/>
<text text-anchor="middle" x="329.599" y="-7.5" font-family="Helvetica,sans-Serif" font-size="10.00">memory</text>
</g>
<!-- Node2&#45;&gt;Node6 -->
<g id="edge12" class="edge"><title>Node2&#45;&gt;Node6</title>
<path fill="none" stroke="midnightblue" d="M178.252,-224.391C202.715,-202.115 267.87,-139.845 305.599,-76 314.205,-61.4365 320.598,-43.2592 324.612,-29.833"/>
<polygon fill="midnightblue" stroke="midnightblue" points="328.08,-30.4303 327.421,-19.856 321.342,-28.5331 328.08,-30.4303"/>
</g>
<!-- Node7 -->
<g id="node7" class="node"><title>Node7</title>
<polygon fill="none" stroke="#bfbfbf" points="148.099,-0.5 148.099,-19.5 189.099,-19.5 189.099,-0.5 148.099,-0.5"/>
<text text-anchor="middle" x="168.599" y="-7.5" font-family="Helvetica,sans-Serif" font-size="10.00">string</text>
</g>
<!-- Node2&#45;&gt;Node7 -->
<g id="edge13" class="edge"><title>Node2&#45;&gt;Node7</title>
<path fill="none" stroke="midnightblue" d="M149.814,-224.404C97.9281,-199.505 -40.1938,-124.723 11.5985,-56 19.3202,-45.7542 94.5983,-27.503 138.049,-17.6873"/>
<polygon fill="midnightblue" stroke="midnightblue" points="138.84,-21.0969 147.835,-15.4976 137.312,-14.2658 138.84,-21.0969"/>
</g>
<!-- Node4 -->
<g id="node4" class="node"><title>Node4</title>
<g id="a_node4"><a xlink:href="_block_8h.html" target="_top" xlink:title="Block.h">
<polygon fill="none" stroke="black" points="58.5985,-112.5 58.5985,-131.5 108.599,-131.5 108.599,-112.5 58.5985,-112.5"/>
<text text-anchor="middle" x="83.5985" y="-119.5" font-family="Helvetica,sans-Serif" font-size="10.00">Block.h</text>
</a>
</g>
</g>
<!-- Node3&#45;&gt;Node4 -->
<g id="edge3" class="edge"><title>Node3&#45;&gt;Node4</title>
<path fill="none" stroke="midnightblue" d="M153.263,-168.324C140.437,-159.979 120.814,-147.212 105.659,-137.352"/>
<polygon fill="midnightblue" stroke="midnightblue" points="107.192,-134.174 96.9008,-131.655 103.374,-140.042 107.192,-134.174"/>
</g>
<!-- Node3&#45;&gt;Node6 -->
<g id="edge10" class="edge"><title>Node3&#45;&gt;Node6</title>
<path fill="none" stroke="midnightblue" d="M178.24,-168.316C200.059,-151.739 248.019,-113.853 282.599,-76 296.335,-60.9632 309.716,-41.893 318.664,-28.3054"/>
<polygon fill="midnightblue" stroke="midnightblue" points="321.613,-30.1902 324.101,-19.8915 315.734,-26.3911 321.613,-30.1902"/>
</g>
<!-- Node3&#45;&gt;Node7 -->
<g id="edge11" class="edge"><title>Node3&#45;&gt;Node7</title>
<path fill="none" stroke="midnightblue" d="M166.706,-168.075C167.021,-141.945 167.945,-65.2106 168.375,-29.577"/>
<polygon fill="midnightblue" stroke="midnightblue" points="171.874,-29.6096 168.495,-19.5681 164.875,-29.5252 171.874,-29.6096"/>
</g>
<!-- Node5 -->
<g id="node5" class="node"><title>Node5</title>
<g id="a_node5"><a xlink:href="_parameters_8h.html" target="_top" xlink:title="Parameters.h">
<polygon fill="none" stroke="black" points="21.0985,-56.5 21.0985,-75.5 96.0985,-75.5 96.0985,-56.5 21.0985,-56.5"/>
<text text-anchor="middle" x="58.5985" y="-63.5" font-family="Helvetica,sans-Serif" font-size="10.00">Parameters.h</text>
</a>
</g>
</g>
<!-- Node4&#45;&gt;Node5 -->
<g id="edge4" class="edge"><title>Node4&#45;&gt;Node5</title>
<path fill="none" stroke="midnightblue" d="M79.4703,-112.083C76.0846,-104.77 71.1825,-94.1814 66.9797,-85.1034"/>
<polygon fill="midnightblue" stroke="midnightblue" points="70.0274,-83.3553 62.65,-75.7511 63.6751,-86.2962 70.0274,-83.3553"/>
</g>
<!-- Node4&#45;&gt;Node7 -->
<g id="edge8" class="edge"><title>Node4&#45;&gt;Node7</title>
<path fill="none" stroke="midnightblue" d="M90.2683,-112.368C104.358,-94.135 137.36,-51.4257 155.713,-27.6752"/>
<polygon fill="midnightblue" stroke="midnightblue" points="158.615,-29.6444 161.96,-19.5914 153.076,-25.3642 158.615,-29.6444"/>
</g>
<!-- Node8 -->
<g id="node8" class="node"><title>Node8</title>
<polygon fill="none" stroke="#bfbfbf" points="60.5985,-0.5 60.5985,-19.5 104.599,-19.5 104.599,-0.5 60.5985,-0.5"/>
<text text-anchor="middle" x="82.5985" y="-7.5" font-family="Helvetica,sans-Serif" font-size="10.00">vector</text>
</g>
<!-- Node4&#45;&gt;Node8 -->
<g id="edge9" class="edge"><title>Node4&#45;&gt;Node8</title>
<path fill="none" stroke="midnightblue" d="M58.4519,-112.623C41.9043,-105.648 21.5312,-93.9209 11.5985,-76 -0.702874,-53.8052 26.5675,-35.0717 50.7942,-23.5019"/>
<polygon fill="midnightblue" stroke="midnightblue" points="52.4959,-26.5743 60.1815,-19.2817 49.6256,-20.1898 52.4959,-26.5743"/>
</g>
<!-- Node5&#45;&gt;Node6 -->
<g id="edge5" class="edge"><title>Node5&#45;&gt;Node6</title>
<path fill="none" stroke="midnightblue" d="M96.2799,-57.4915C148.392,-47.1076 241.836,-28.4877 293.238,-18.2452"/>
<polygon fill="midnightblue" stroke="midnightblue" points="294.113,-21.6398 303.236,-16.253 292.745,-14.7747 294.113,-21.6398"/>
</g>
<!-- Node5&#45;&gt;Node7 -->
<g id="edge6" class="edge"><title>Node5&#45;&gt;Node7</title>
<path fill="none" stroke="midnightblue" d="M76.2719,-56.324C93.9927,-47.6247 121.502,-34.1202 141.887,-24.113"/>
<polygon fill="midnightblue" stroke="midnightblue" points="143.535,-27.2031 150.969,-19.6545 140.45,-20.9195 143.535,-27.2031"/>
</g>
<!-- Node5&#45;&gt;Node8 -->
<g id="edge7" class="edge"><title>Node5&#45;&gt;Node8</title>
<path fill="none" stroke="midnightblue" d="M62.5617,-56.083C65.8119,-48.77 70.5179,-38.1814 74.5526,-29.1034"/>
<polygon fill="midnightblue" stroke="midnightblue" points="77.8461,-30.3107 78.7092,-19.7511 71.4494,-27.4677 77.8461,-30.3107"/>
</g>
<!-- Node9&#45;&gt;Node7 -->
<g id="edge15" class="edge"><title>Node9&#45;&gt;Node7</title>
<path fill="none" stroke="midnightblue" d="M466.59,-59.4659C405.093,-52.1648 296.534,-38.0948 204.599,-20 202.904,-19.6664 201.169,-19.304 199.421,-18.9224"/>
<polygon fill="midnightblue" stroke="midnightblue" points="199.992,-15.4616 189.458,-16.5951 198.4,-22.2781 199.992,-15.4616"/>
</g>
<!-- Node9&#45;&gt;Node8 -->
<g id="edge18" class="edge"><title>Node9&#45;&gt;Node8</title>
<path fill="none" stroke="midnightblue" d="M466.415,-59.7731C394.364,-51.9701 255.939,-36.4253 138.599,-20 130.801,-18.9085 122.411,-17.6208 114.559,-16.3659"/>
<polygon fill="midnightblue" stroke="midnightblue" points="115.075,-12.9039 104.643,-14.7545 113.952,-19.8133 115.075,-12.9039"/>
</g>
<!-- Node9&#45;&gt;Node10 -->
<g id="edge16" class="edge"><title>Node9&#45;&gt;Node10</title>
<path fill="none" stroke="midnightblue" d="M545.651,-56.4521C576.913,-47.5185 627.257,-33.0157 670.599,-20 670.7,-19.9697 670.801,-19.9393 670.902,-19.9088"/>
<polygon fill="midnightblue" stroke="midnightblue" points="672.039,-23.2214 680.583,-16.9563 669.996,-16.5259 672.039,-23.2214"/>
</g>
<!-- Node11 -->
<g id="node11" class="node"><title>Node11</title>
<polygon fill="none" stroke="#bfbfbf" points="507.599,-0.5 507.599,-19.5 547.599,-19.5 547.599,-0.5 507.599,-0.5"/>
<text text-anchor="middle" x="527.599" y="-7.5" font-family="Helvetica,sans-Serif" font-size="10.00">utility</text>
</g>
<!-- Node9&#45;&gt;Node11 -->
<g id="edge17" class="edge"><title>Node9&#45;&gt;Node11</title>
<path fill="none" stroke="midnightblue" d="M517.58,-56.083C519.17,-48.9272 521.457,-38.6353 523.445,-29.6911"/>
<polygon fill="midnightblue" stroke="midnightblue" points="526.901,-30.2722 525.654,-19.7511 520.068,-28.7537 526.901,-30.2722"/>
</g>
<!-- Node12&#45;&gt;Node6 -->
<g id="edge21" class="edge"><title>Node12&#45;&gt;Node6</title>
<path fill="none" stroke="midnightblue" d="M248.183,-56.324C263.598,-47.7428 287.411,-34.486 305.308,-24.5224"/>
<polygon fill="midnightblue" stroke="midnightblue" points="307.018,-27.5767 314.052,-19.6545 303.613,-21.4606 307.018,-27.5767"/>
</g>
<!-- Node12&#45;&gt;Node7 -->
<g id="edge22" class="edge"><title>Node12&#45;&gt;Node7</title>
<path fill="none" stroke="midnightblue" d="M222.316,-56.324C212.762,-48.2631 198.319,-36.0765 186.814,-26.3695"/>
<polygon fill="midnightblue" stroke="midnightblue" points="188.968,-23.6076 179.068,-19.8339 184.454,-28.9577 188.968,-23.6076"/>
</g>
<!-- Node12&#45;&gt;Node8 -->
<g id="edge23" class="edge"><title>Node12&#45;&gt;Node8</title>
<path fill="none" stroke="midnightblue" d="M208.831,-56.4435C183.262,-47.239 142.478,-32.5565 114.217,-22.3826"/>
<polygon fill="midnightblue" stroke="midnightblue" points="115.383,-19.0825 104.788,-18.9883 113.012,-25.6687 115.383,-19.0825"/>
</g>
<!-- Node13 -->
<g id="node13" class="node"><title>Node13</title>
<polygon fill="none" stroke="#bfbfbf" points="213.599,-0.5 213.599,-19.5 251.599,-19.5 251.599,-0.5 213.599,-0.5"/>
<text text-anchor="middle" x="232.599" y="-7.5" font-family="Helvetica,sans-Serif" font-size="10.00">array</text>
</g>
<!-- Node12&#45;&gt;Node13 -->
<g id="edge20" class="edge"><title>Node12&#45;&gt;Node13</title>
<path fill="none" stroke="midnightblue" d="M232.599,-56.083C232.599,-49.0059 232.599,-38.8611 232.599,-29.9865"/>
<polygon fill="midnightblue" stroke="midnightblue" points="236.099,-29.751 232.599,-19.7511 229.099,-29.7511 236.099,-29.751"/>
</g>
<!-- Node14&#45;&gt;Node6 -->
<g id="edge25" class="edge"><title>Node14&#45;&gt;Node6</title>
<path fill="none" stroke="midnightblue" d="M379.959,-56.324C371.089,-48.3414 357.724,-36.3128 346.991,-26.6529"/>
<polygon fill="midnightblue" stroke="midnightblue" points="349.188,-23.922 339.414,-19.8339 344.506,-29.1251 349.188,-23.922"/>
</g>
<!-- Node14&#45;&gt;Node7 -->
<g id="edge27" class="edge"><title>Node14&#45;&gt;Node7</title>
<path fill="none" stroke="midnightblue" d="M369.056,-60.0484C334.903,-51.806 264.292,-34.7214 204.599,-20 202.878,-19.5758 201.112,-19.1389 199.33,-18.6968"/>
<polygon fill="midnightblue" stroke="midnightblue" points="199.703,-15.1828 189.153,-16.1627 198.011,-21.9754 199.703,-15.1828"/>
</g>
<!-- Node15 -->
<g id="node15" class="node"><title>Node15</title>
<polygon fill="none" stroke="#bfbfbf" points="373.599,-0.5 373.599,-19.5 425.599,-19.5 425.599,-0.5 373.599,-0.5"/>
<text text-anchor="middle" x="399.599" y="-7.5" font-family="Helvetica,sans-Serif" font-size="10.00">sstream</text>
</g>
<!-- Node14&#45;&gt;Node15 -->
<g id="edge26" class="edge"><title>Node14&#45;&gt;Node15</title>
<path fill="none" stroke="midnightblue" d="M391.25,-56.083C392.575,-48.9272 394.481,-38.6353 396.137,-29.6911"/>
<polygon fill="midnightblue" stroke="midnightblue" points="399.598,-30.2212 397.978,-19.7511 392.716,-28.9466 399.598,-30.2212"/>
</g>
<!-- Node16&#45;&gt;Node6 -->
<g id="edge29" class="edge"><title>Node16&#45;&gt;Node6</title>
<path fill="none" stroke="midnightblue" d="M581.854,-57.5199C518.738,-46.9403 407.356,-28.1581 365.861,-20.0445"/>
<polygon fill="midnightblue" stroke="midnightblue" points="366.416,-16.5856 355.917,-18.013 365.014,-23.444 366.416,-16.5856"/>
</g>
<!-- Node16&#45;&gt;Node7 -->
<g id="edge30" class="edge"><title>Node16&#45;&gt;Node7</title>
<path fill="none" stroke="midnightblue" d="M581.844,-57.3015C578.719,-56.8376 575.614,-56.3983 572.599,-56 409.677,-34.4793 366.531,-48.0048 204.599,-20 202.896,-19.7056 201.156,-19.3742 199.404,-19.0167"/>
<polygon fill="midnightblue" stroke="midnightblue" points="199.953,-15.5526 189.427,-16.7606 198.409,-22.3802 199.953,-15.5526"/>
</g>
<!-- Node16&#45;&gt;Node11 -->
<g id="edge32" class="edge"><title>Node16&#45;&gt;Node11</title>
<path fill="none" stroke="midnightblue" d="M610.692,-56.324C594.96,-47.7428 570.656,-34.486 552.39,-24.5224"/>
<polygon fill="midnightblue" stroke="midnightblue" points="553.92,-21.3704 543.465,-19.6545 550.568,-27.5157 553.92,-21.3704"/>
</g>
<!-- Node17 -->
<g id="node17" class="node"><title>Node17</title>
<polygon fill="none" stroke="#bfbfbf" points="579.099,-0.5 579.099,-19.5 662.099,-19.5 662.099,-0.5 579.099,-0.5"/>
<text text-anchor="middle" x="620.599" y="-7.5" font-family="Helvetica,sans-Serif" font-size="10.00">unordered_map</text>
</g>
<!-- Node16&#45;&gt;Node17 -->
<g id="edge31" class="edge"><title>Node16&#45;&gt;Node17</title>
<path fill="none" stroke="midnightblue" d="M625.608,-56.083C624.813,-48.9272 623.669,-38.6353 622.675,-29.6911"/>
<polygon fill="midnightblue" stroke="midnightblue" points="626.154,-29.3034 621.571,-19.7511 619.197,-30.0765 626.154,-29.3034"/>
</g>
<!-- Node18&#45;&gt;Node6 -->
<g id="edge34" class="edge"><title>Node18&#45;&gt;Node6</title>
<path fill="none" stroke="midnightblue" d="M456.128,-168.291C454.533,-146.752 447.655,-90.2541 418.599,-56 404.738,-39.6594 383.479,-28.6012 365.214,-21.5369"/>
<polygon fill="midnightblue" stroke="midnightblue" points="366.311,-18.2118 355.716,-18.1075 363.933,-24.7958 366.311,-18.2118"/>
</g>
</g>
</svg>
