<?xml version="1.0" encoding="UTF-8" standalone="no"?>
<!DOCTYPE svg PUBLIC "-//W3C//DTD SVG 1.1//EN"
 "http://www.w3.org/Graphics/SVG/1.1/DTD/svg11.dtd">
<!-- Generated by graphviz version 2.43.0 (0)
 -->
<!-- Title: /home/runner/work/wb&#45;toolbox/wb&#45;toolbox/toolbox/library/src/CentroidalMomentum.cpp Pages: 1 -->
<svg width="1640pt" height="229pt"
 viewBox="0.00 0.00 1640.00 229.00" xmlns="http://www.w3.org/2000/svg" xmlns:xlink="http://www.w3.org/1999/xlink">
<g id="graph0" class="graph" transform="scale(1 1) rotate(0) translate(4 225)">
<title>/home/runner/work/wb&#45;toolbox/wb&#45;toolbox/toolbox/library/src/CentroidalMomentum.cpp</title>
<!-- Node1 -->
<g id="node1" class="node">
<title>Node1</title>
<g id="a_node1"><a xlink:title=" ">
<polygon fill="#bfbfbf" stroke="black" points="748.5,-179.5 748.5,-220.5 946.5,-220.5 946.5,-179.5 748.5,-179.5"/>
<text text-anchor="start" x="756.5" y="-208.5" font-family="Helvetica,sans-Serif" font-size="10.00">/home/runner/work/wb</text>
<text text-anchor="start" x="756.5" y="-197.5" font-family="Helvetica,sans-Serif" font-size="10.00">&#45;toolbox/wb&#45;toolbox/toolbox</text>
<text text-anchor="middle" x="847.5" y="-186.5" font-family="Helvetica,sans-Serif" font-size="10.00">/library/src/CentroidalMomentum.cpp</text>
</a>
</g>
</g>
<!-- Node2 -->
<g id="node2" class="node">
<title>Node2</title>
<g id="a_node2"><a xlink:href="_centroidal_momentum_8h.html" target="_top" xlink:title=" ">
<polygon fill="none" stroke="black" points="123.5,-112.5 123.5,-142.5 277.5,-142.5 277.5,-112.5 123.5,-112.5"/>
<text text-anchor="start" x="131.5" y="-130.5" font-family="Helvetica,sans-Serif" font-size="10.00">WBToolbox/Block/Centroidal</text>
<text text-anchor="middle" x="200.5" y="-119.5" font-family="Helvetica,sans-Serif" font-size="10.00">Momentum.h</text>
</a>
</g>
</g>
<!-- Node1&#45;&gt;Node2 -->
<g id="edge1" class="edge">
<title>Node1&#45;&gt;Node2</title>
<path fill="none" stroke="midnightblue" d="M748.18,-188.66C642.95,-177.63 471.97,-159.52 324.5,-143 312.64,-141.67 300.14,-140.24 287.83,-138.82"/>
<polygon fill="midnightblue" stroke="midnightblue" points="287.88,-135.3 277.55,-137.63 287.08,-142.26 287.88,-135.3"/>
</g>
<!-- Node7 -->
<g id="node7" class="node">
<title>Node7</title>
<g id="a_node7"><a xlink:href="_configuration_8h.html" target="_top" xlink:title=" ">
<polygon fill="none" stroke="black" points="448,-56.5 448,-75.5 623,-75.5 623,-56.5 448,-56.5"/>
<text text-anchor="middle" x="535.5" y="-63.5" font-family="Helvetica,sans-Serif" font-size="10.00">WBToolbox/Base/Configuration.h</text>
</a>
</g>
</g>
<!-- Node1&#45;&gt;Node7 -->
<g id="edge8" class="edge">
<title>Node1&#45;&gt;Node7</title>
<path fill="none" stroke="midnightblue" d="M748.34,-193.58C622.38,-185.67 418.47,-169 395.5,-143 366.74,-110.46 425.94,-89.24 476.01,-77.7"/>
<polygon fill="midnightblue" stroke="midnightblue" points="476.87,-81.1 485.88,-75.52 475.36,-74.26 476.87,-81.1"/>
</g>
<!-- Node10 -->
<g id="node10" class="node">
<title>Node10</title>
<g id="a_node10"><a xlink:href="_robot_interface_8h.html" target="_top" xlink:title=" ">
<polygon fill="none" stroke="black" points="247.5,-56.5 247.5,-75.5 429.5,-75.5 429.5,-56.5 247.5,-56.5"/>
<text text-anchor="middle" x="338.5" y="-63.5" font-family="Helvetica,sans-Serif" font-size="10.00">WBToolbox/Base/RobotInterface.h</text>
</a>
</g>
</g>
<!-- Node1&#45;&gt;Node10 -->
<g id="edge13" class="edge">
<title>Node1&#45;&gt;Node10</title>
<path fill="none" stroke="midnightblue" d="M748.26,-197.15C630.21,-193.23 441.77,-181.02 383.5,-143 362.99,-129.61 350.55,-103.34 344.1,-85.47"/>
<polygon fill="midnightblue" stroke="midnightblue" points="347.38,-84.25 340.91,-75.86 340.74,-86.45 347.38,-84.25"/>
</g>
<!-- Node13 -->
<g id="node13" class="node">
<title>Node13</title>
<g id="a_node13"><a xlink:title=" ">
<polygon fill="none" stroke="#bfbfbf" points="404.5,-118 404.5,-137 604.5,-137 604.5,-118 404.5,-118"/>
<text text-anchor="middle" x="504.5" y="-125" font-family="Helvetica,sans-Serif" font-size="10.00">BlockFactory/Core/BlockInformation.h</text>
</a>
</g>
</g>
<!-- Node1&#45;&gt;Node13 -->
<g id="edge18" class="edge">
<title>Node1&#45;&gt;Node13</title>
<path fill="none" stroke="midnightblue" d="M752.41,-179.46C688.84,-166.39 607.67,-149.71 555.87,-139.06"/>
<polygon fill="midnightblue" stroke="midnightblue" points="556.42,-135.6 545.92,-137.01 555.01,-142.45 556.42,-135.6"/>
</g>
<!-- Node14 -->
<g id="node14" class="node">
<title>Node14</title>
<g id="a_node14"><a xlink:title=" ">
<polygon fill="none" stroke="#bfbfbf" points="622.5,-118 622.5,-137 756.5,-137 756.5,-118 622.5,-118"/>
<text text-anchor="middle" x="689.5" y="-125" font-family="Helvetica,sans-Serif" font-size="10.00">BlockFactory/Core/Log.h</text>
</a>
</g>
</g>
<!-- Node1&#45;&gt;Node14 -->
<g id="edge19" class="edge">
<title>Node1&#45;&gt;Node14</title>
<path fill="none" stroke="midnightblue" d="M803.49,-179.36C776.2,-167.19 741.94,-151.9 718.14,-141.28"/>
<polygon fill="midnightblue" stroke="midnightblue" points="719.5,-138.05 708.94,-137.17 716.64,-144.44 719.5,-138.05"/>
</g>
<!-- Node15 -->
<g id="node15" class="node">
<title>Node15</title>
<g id="a_node15"><a xlink:title=" ">
<polygon fill="none" stroke="#bfbfbf" points="774.5,-118 774.5,-137 920.5,-137 920.5,-118 774.5,-118"/>
<text text-anchor="middle" x="847.5" y="-125" font-family="Helvetica,sans-Serif" font-size="10.00">BlockFactory/Core/Signal.h</text>
</a>
</g>
</g>
<!-- Node1&#45;&gt;Node15 -->
<g id="edge20" class="edge">
<title>Node1&#45;&gt;Node15</title>
<path fill="none" stroke="midnightblue" d="M847.5,-179.36C847.5,-169.3 847.5,-157.1 847.5,-147.18"/>
<polygon fill="midnightblue" stroke="midnightblue" points="851,-147.17 847.5,-137.17 844,-147.17 851,-147.17"/>
</g>
<!-- Node16 -->
<g id="node16" class="node">
<title>Node16</title>
<g id="a_node16"><a xlink:title=" ">
<polygon fill="none" stroke="#bfbfbf" points="939,-118 939,-137 1100,-137 1100,-118 939,-118"/>
<text text-anchor="middle" x="1019.5" y="-125" font-family="Helvetica,sans-Serif" font-size="10.00">iDynTree/Core/EigenHelpers.h</text>
</a>
</g>
</g>
<!-- Node1&#45;&gt;Node16 -->
<g id="edge21" class="edge">
<title>Node1&#45;&gt;Node16</title>
<path fill="none" stroke="midnightblue" d="M895.41,-179.36C925.38,-167.08 963.08,-151.63 989.02,-140.99"/>
<polygon fill="midnightblue" stroke="midnightblue" points="990.41,-144.2 998.34,-137.17 987.76,-137.73 990.41,-144.2"/>
</g>
<!-- Node17 -->
<g id="node17" class="node">
<title>Node17</title>
<g id="a_node17"><a xlink:title=" ">
<polygon fill="none" stroke="#bfbfbf" points="1118,-118 1118,-137 1305,-137 1305,-118 1118,-118"/>
<text text-anchor="middle" x="1211.5" y="-125" font-family="Helvetica,sans-Serif" font-size="10.00">iDynTree/Core/SpatialMomentum.h</text>
</a>
</g>
</g>
<!-- Node1&#45;&gt;Node17 -->
<g id="edge22" class="edge">
<title>Node1&#45;&gt;Node17</title>
<path fill="none" stroke="midnightblue" d="M946.96,-179.74C1014.74,-166.61 1101.88,-149.73 1157.23,-139.01"/>
<polygon fill="midnightblue" stroke="midnightblue" points="1158.03,-142.42 1167.18,-137.08 1156.7,-135.55 1158.03,-142.42"/>
</g>
<!-- Node18 -->
<g id="node18" class="node">
<title>Node18</title>
<g id="a_node18"><a xlink:title=" ">
<polygon fill="none" stroke="#bfbfbf" points="1323,-118 1323,-137 1498,-137 1498,-118 1323,-118"/>
<text text-anchor="middle" x="1410.5" y="-125" font-family="Helvetica,sans-Serif" font-size="10.00">iDynTree/KinDynComputations.h</text>
</a>
</g>
</g>
<!-- Node1&#45;&gt;Node18 -->
<g id="edge23" class="edge">
<title>Node1&#45;&gt;Node18</title>
<path fill="none" stroke="midnightblue" d="M946.91,-187.97C1041.53,-177.26 1187.86,-160.15 1314.5,-143 1324.69,-141.62 1335.47,-140.07 1345.99,-138.52"/>
<polygon fill="midnightblue" stroke="midnightblue" points="1346.59,-141.97 1355.97,-137.03 1345.56,-135.05 1346.59,-141.97"/>
</g>
<!-- Node19 -->
<g id="node19" class="node">
<title>Node19</title>
<g id="a_node19"><a xlink:title=" ">
<polygon fill="none" stroke="#bfbfbf" points="1516,-118 1516,-137 1573,-137 1573,-118 1516,-118"/>
<text text-anchor="middle" x="1544.5" y="-125" font-family="Helvetica,sans-Serif" font-size="10.00">ostream</text>
</a>
</g>
</g>
<!-- Node1&#45;&gt;Node19 -->
<g id="edge24" class="edge">
<title>Node1&#45;&gt;Node19</title>
<path fill="none" stroke="midnightblue" d="M946.73,-199.44C1077.09,-198.01 1312.36,-188.5 1507.5,-143 1510.33,-142.34 1513.24,-141.5 1516.12,-140.57"/>
<polygon fill="midnightblue" stroke="midnightblue" points="1517.43,-143.81 1525.63,-137.11 1515.04,-137.23 1517.43,-143.81"/>
</g>
<!-- Node20 -->
<g id="node20" class="node">
<title>Node20</title>
<g id="a_node20"><a xlink:title=" ">
<polygon fill="none" stroke="#bfbfbf" points="1591,-118 1591,-137 1632,-137 1632,-118 1591,-118"/>
<text text-anchor="middle" x="1611.5" y="-125" font-family="Helvetica,sans-Serif" font-size="10.00">tuple</text>
</a>
</g>
</g>
<!-- Node1&#45;&gt;Node20 -->
<g id="edge25" class="edge">
<title>Node1&#45;&gt;Node20</title>
<path fill="none" stroke="midnightblue" d="M946.52,-196.18C1118.59,-190.5 1465.56,-175.35 1582.5,-143 1584.22,-142.53 1585.95,-141.95 1587.67,-141.3"/>
<polygon fill="midnightblue" stroke="midnightblue" points="1589.5,-144.31 1597.19,-137.03 1586.63,-137.93 1589.5,-144.31"/>
</g>
<!-- Node3 -->
<g id="node3" class="node">
<title>Node3</title>
<g id="a_node3"><a xlink:href="_w_b_block_8h.html" target="_top" xlink:title=" ">
<polygon fill="none" stroke="black" points="0,-56.5 0,-75.5 153,-75.5 153,-56.5 0,-56.5"/>
<text text-anchor="middle" x="76.5" y="-63.5" font-family="Helvetica,sans-Serif" font-size="10.00">WBToolbox/Base/WBBlock.h</text>
</a>
</g>
</g>
<!-- Node2&#45;&gt;Node3 -->
<g id="edge2" class="edge">
<title>Node2&#45;&gt;Node3</title>
<path fill="none" stroke="midnightblue" d="M171.11,-112.4C150.68,-102.59 123.64,-89.62 103.7,-80.05"/>
<polygon fill="midnightblue" stroke="midnightblue" points="105.07,-76.83 94.54,-75.66 102.04,-83.14 105.07,-76.83"/>
</g>
<!-- Node5 -->
<g id="node5" class="node">
<title>Node5</title>
<g id="a_node5"><a xlink:title=" ">
<polygon fill="none" stroke="#bfbfbf" points="171.5,-0.5 171.5,-19.5 229.5,-19.5 229.5,-0.5 171.5,-0.5"/>
<text text-anchor="middle" x="200.5" y="-7.5" font-family="Helvetica,sans-Serif" font-size="10.00">memory</text>
</a>
</g>
</g>
<!-- Node2&#45;&gt;Node5 -->
<g id="edge6" class="edge">
<title>Node2&#45;&gt;Node5</title>
<path fill="none" stroke="midnightblue" d="M200.5,-112.34C200.5,-91.62 200.5,-53.02 200.5,-29.9"/>
<polygon fill="midnightblue" stroke="midnightblue" points="204,-29.67 200.5,-19.67 197,-29.67 204,-29.67"/>
</g>
<!-- Node6 -->
<g id="node6" class="node">
<title>Node6</title>
<g id="a_node6"><a xlink:title=" ">
<polygon fill="none" stroke="#bfbfbf" points="250.5,-0.5 250.5,-19.5 294.5,-19.5 294.5,-0.5 250.5,-0.5"/>
<text text-anchor="middle" x="272.5" y="-7.5" font-family="Helvetica,sans-Serif" font-size="10.00">string</text>
</a>
</g>
</g>
<!-- Node2&#45;&gt;Node6 -->
<g id="edge7" class="edge">
<title>Node2&#45;&gt;Node6</title>
<path fill="none" stroke="midnightblue" d="M207.32,-112.36C214.49,-97.87 226.41,-74.84 238.5,-56 244.78,-46.22 252.55,-35.83 259.08,-27.5"/>
<polygon fill="midnightblue" stroke="midnightblue" points="261.82,-29.68 265.31,-19.68 256.34,-25.31 261.82,-29.68"/>
</g>
<!-- Node4 -->
<g id="node4" class="node">
<title>Node4</title>
<g id="a_node4"><a xlink:title=" ">
<polygon fill="none" stroke="#bfbfbf" points="5,-0.5 5,-19.5 148,-19.5 148,-0.5 5,-0.5"/>
<text text-anchor="middle" x="76.5" y="-7.5" font-family="Helvetica,sans-Serif" font-size="10.00">BlockFactory/Core/Block.h</text>
</a>
</g>
</g>
<!-- Node3&#45;&gt;Node4 -->
<g id="edge3" class="edge">
<title>Node3&#45;&gt;Node4</title>
<path fill="none" stroke="midnightblue" d="M76.5,-56.08C76.5,-49.01 76.5,-38.86 76.5,-29.99"/>
<polygon fill="midnightblue" stroke="midnightblue" points="80,-29.75 76.5,-19.75 73,-29.75 80,-29.75"/>
</g>
<!-- Node3&#45;&gt;Node5 -->
<g id="edge4" class="edge">
<title>Node3&#45;&gt;Node5</title>
<path fill="none" stroke="midnightblue" d="M96.15,-56.44C116.46,-47.6 148.4,-33.69 171.6,-23.59"/>
<polygon fill="midnightblue" stroke="midnightblue" points="173.17,-26.72 180.94,-19.52 170.38,-20.3 173.17,-26.72"/>
</g>
<!-- Node3&#45;&gt;Node6 -->
<g id="edge5" class="edge">
<title>Node3&#45;&gt;Node6</title>
<path fill="none" stroke="midnightblue" d="M107.56,-56.44C143.96,-46.41 203.99,-29.88 240.71,-19.76"/>
<polygon fill="midnightblue" stroke="midnightblue" points="241.7,-23.12 250.41,-17.09 239.84,-16.37 241.7,-23.12"/>
</g>
<!-- Node7&#45;&gt;Node5 -->
<g id="edge10" class="edge">
<title>Node7&#45;&gt;Node5</title>
<path fill="none" stroke="midnightblue" d="M471.93,-56.47C412.25,-48.18 320.57,-34.71 241.5,-20 240.9,-19.89 240.29,-19.77 239.67,-19.66"/>
<polygon fill="midnightblue" stroke="midnightblue" points="240.06,-16.16 229.57,-17.62 238.68,-23.03 240.06,-16.16"/>
</g>
<!-- Node7&#45;&gt;Node6 -->
<g id="edge11" class="edge">
<title>Node7&#45;&gt;Node6</title>
<path fill="none" stroke="midnightblue" d="M485.23,-56.43C440.46,-48.52 373,-35.94 304.87,-19.92"/>
<polygon fill="midnightblue" stroke="midnightblue" points="305.36,-16.43 294.82,-17.53 303.74,-23.24 305.36,-16.43"/>
</g>
<!-- Node8 -->
<g id="node8" class="node">
<title>Node8</title>
<g id="a_node8"><a xlink:title=" ">
<polygon fill="none" stroke="#bfbfbf" points="565.5,-0.5 565.5,-19.5 607.5,-19.5 607.5,-0.5 565.5,-0.5"/>
<text text-anchor="middle" x="586.5" y="-7.5" font-family="Helvetica,sans-Serif" font-size="10.00">array</text>
</a>
</g>
</g>
<!-- Node7&#45;&gt;Node8 -->
<g id="edge9" class="edge">
<title>Node7&#45;&gt;Node8</title>
<path fill="none" stroke="midnightblue" d="M543.92,-56.08C551.35,-48.22 562.35,-36.57 571.31,-27.08"/>
<polygon fill="midnightblue" stroke="midnightblue" points="573.91,-29.42 578.24,-19.75 568.82,-24.62 573.91,-29.42"/>
</g>
<!-- Node9 -->
<g id="node9" class="node">
<title>Node9</title>
<g id="a_node9"><a xlink:title=" ">
<polygon fill="none" stroke="#bfbfbf" points="500,-0.5 500,-19.5 547,-19.5 547,-0.5 500,-0.5"/>
<text text-anchor="middle" x="523.5" y="-7.5" font-family="Helvetica,sans-Serif" font-size="10.00">vector</text>
</a>
</g>
</g>
<!-- Node7&#45;&gt;Node9 -->
<g id="edge12" class="edge">
<title>Node7&#45;&gt;Node9</title>
<path fill="none" stroke="midnightblue" d="M533.52,-56.08C531.93,-48.93 529.64,-38.64 527.65,-29.69"/>
<polygon fill="midnightblue" stroke="midnightblue" points="531.03,-28.75 525.44,-19.75 524.2,-30.27 531.03,-28.75"/>
</g>
<!-- Node10&#45;&gt;Node5 -->
<g id="edge14" class="edge">
<title>Node10&#45;&gt;Node5</title>
<path fill="none" stroke="midnightblue" d="M316.63,-56.44C293.72,-47.48 257.52,-33.31 231.63,-23.18"/>
<polygon fill="midnightblue" stroke="midnightblue" points="232.85,-19.9 222.26,-19.52 230.3,-26.42 232.85,-19.9"/>
</g>
<!-- Node10&#45;&gt;Node6 -->
<g id="edge15" class="edge">
<title>Node10&#45;&gt;Node6</title>
<path fill="none" stroke="midnightblue" d="M327.9,-56.32C318.04,-48.26 303.15,-36.08 291.28,-26.37"/>
<polygon fill="midnightblue" stroke="midnightblue" points="293.25,-23.46 283.3,-19.83 288.82,-28.88 293.25,-23.46"/>
</g>
<!-- Node11 -->
<g id="node11" class="node">
<title>Node11</title>
<g id="a_node11"><a xlink:title=" ">
<polygon fill="none" stroke="#bfbfbf" points="377,-0.5 377,-19.5 470,-19.5 470,-0.5 377,-0.5"/>
<text text-anchor="middle" x="423.5" y="-7.5" font-family="Helvetica,sans-Serif" font-size="10.00">unordered_map</text>
</a>
</g>
</g>
<!-- Node10&#45;&gt;Node11 -->
<g id="edge16" class="edge">
<title>Node10&#45;&gt;Node11</title>
<path fill="none" stroke="midnightblue" d="M352.16,-56.32C365.42,-47.9 385.77,-34.97 401.35,-25.07"/>
<polygon fill="midnightblue" stroke="midnightblue" points="403.31,-27.97 409.88,-19.65 399.56,-22.06 403.31,-27.97"/>
</g>
<!-- Node12 -->
<g id="node12" class="node">
<title>Node12</title>
<g id="a_node12"><a xlink:title=" ">
<polygon fill="none" stroke="#bfbfbf" points="314,-0.5 314,-19.5 359,-19.5 359,-0.5 314,-0.5"/>
<text text-anchor="middle" x="336.5" y="-7.5" font-family="Helvetica,sans-Serif" font-size="10.00">utility</text>
</a>
</g>
</g>
<!-- Node10&#45;&gt;Node12 -->
<g id="edge17" class="edge">
<title>Node10&#45;&gt;Node12</title>
<path fill="none" stroke="midnightblue" d="M338.17,-56.08C337.91,-49.01 337.53,-38.86 337.2,-29.99"/>
<polygon fill="midnightblue" stroke="midnightblue" points="340.69,-29.61 336.82,-19.75 333.7,-29.87 340.69,-29.61"/>
</g>
</g>
</svg>
