<?xml version="1.0" encoding="UTF-8" standalone="no"?>
<!DOCTYPE svg PUBLIC "-//W3C//DTD SVG 1.1//EN"
 "http://www.w3.org/Graphics/SVG/1.1/DTD/svg11.dtd">
<!-- Generated by graphviz version 2.36.0 (20140111.2315)
 -->
<!-- Title: /home/travis/build/robotology/wb&#45;toolbox/toolbox/src/CentroidalMomentum.cpp Pages: 1 -->
<svg width="1259pt" height="330pt"
 viewBox="0.00 0.00 1259.29 330.00" xmlns="http://www.w3.org/2000/svg" xmlns:xlink="http://www.w3.org/1999/xlink">
<g id="graph0" class="graph" transform="scale(1 1) rotate(0) translate(4 326)">
<title>/home/travis/build/robotology/wb&#45;toolbox/toolbox/src/CentroidalMomentum.cpp</title>
<!-- Node1 -->
<g id="node1" class="node"><title>Node1</title>
<polygon fill="#bfbfbf" stroke="black" points="488.293,-280.5 488.293,-321.5 670.293,-321.5 670.293,-280.5 488.293,-280.5"/>
<text text-anchor="start" x="496.293" y="-309.5" font-family="Helvetica,sans-Serif" font-size="10.00">/home/travis/build</text>
<text text-anchor="start" x="496.293" y="-298.5" font-family="Helvetica,sans-Serif" font-size="10.00">/robotology/wb&#45;toolbox</text>
<text text-anchor="middle" x="579.293" y="-287.5" font-family="Helvetica,sans-Serif" font-size="10.00">/toolbox/src/CentroidalMomentum.cpp</text>
</g>
<!-- Node2 -->
<g id="node2" class="node"><title>Node2</title>
<g id="a_node2"><a xlink:href="_centroidal_momentum_8h.html" target="_top" xlink:title="CentroidalMomentum.h">
<polygon fill="none" stroke="black" points="240.293,-224.5 240.293,-243.5 358.293,-243.5 358.293,-224.5 240.293,-224.5"/>
<text text-anchor="middle" x="299.293" y="-231.5" font-family="Helvetica,sans-Serif" font-size="10.00">CentroidalMomentum.h</text>
</a>
</g>
</g>
<!-- Node1&#45;&gt;Node2 -->
<g id="edge1" class="edge"><title>Node1&#45;&gt;Node2</title>
<path fill="none" stroke="midnightblue" d="M495.284,-280.498C446.427,-269.156 386.678,-255.286 346.086,-245.863"/>
<polygon fill="midnightblue" stroke="midnightblue" points="346.73,-242.419 336.197,-243.567 345.147,-249.238 346.73,-242.419"/>
</g>
<!-- Node9 -->
<g id="node9" class="node"><title>Node9</title>
<g id="a_node9"><a xlink:href="_block_information_8h.html" target="_top" xlink:title="BlockInformation.h">
<polygon fill="none" stroke="black" points="363.293,-56.5 363.293,-75.5 461.293,-75.5 461.293,-56.5 363.293,-56.5"/>
<text text-anchor="middle" x="412.293" y="-63.5" font-family="Helvetica,sans-Serif" font-size="10.00">BlockInformation.h</text>
</a>
</g>
</g>
<!-- Node1&#45;&gt;Node9 -->
<g id="edge13" class="edge"><title>Node1&#45;&gt;Node9</title>
<path fill="none" stroke="midnightblue" d="M555.315,-280.363C543.695,-270.192 529.979,-257.165 519.293,-244 476.005,-190.666 437.664,-118.205 421.048,-84.9841"/>
<polygon fill="midnightblue" stroke="midnightblue" points="424.004,-83.0666 416.438,-75.6507 417.728,-86.1667 424.004,-83.0666"/>
</g>
<!-- Node11 -->
<g id="node11" class="node"><title>Node11</title>
<g id="a_node11"><a xlink:href="_configuration_8h.html" target="_top" xlink:title="Configuration.h">
<polygon fill="none" stroke="black" points="15.7929,-56.5 15.7929,-75.5 98.7929,-75.5 98.7929,-56.5 15.7929,-56.5"/>
<text text-anchor="middle" x="57.2929" y="-63.5" font-family="Helvetica,sans-Serif" font-size="10.00">Configuration.h</text>
</a>
</g>
</g>
<!-- Node1&#45;&gt;Node11 -->
<g id="edge18" class="edge"><title>Node1&#45;&gt;Node11</title>
<path fill="none" stroke="midnightblue" d="M487.944,-291.801C400.244,-282.775 274.857,-266.5 231.293,-244 155.731,-204.973 93.2585,-120.919 68.6043,-84.4618"/>
<polygon fill="midnightblue" stroke="midnightblue" points="71.3644,-82.2912 62.9185,-75.8944 65.532,-86.1619 71.3644,-82.2912"/>
</g>
<!-- Node12 -->
<g id="node12" class="node"><title>Node12</title>
<g id="a_node12"><a xlink:href="_log_8h.html" target="_top" xlink:title="Log.h">
<polygon fill="none" stroke="black" points="479.793,-56.5 479.793,-75.5 520.793,-75.5 520.793,-56.5 479.793,-56.5"/>
<text text-anchor="middle" x="500.293" y="-63.5" font-family="Helvetica,sans-Serif" font-size="10.00">Log.h</text>
</a>
</g>
</g>
<!-- Node1&#45;&gt;Node12 -->
<g id="edge22" class="edge"><title>Node1&#45;&gt;Node12</title>
<path fill="none" stroke="midnightblue" d="M561.685,-280.255C544.044,-259.117 517.892,-223.767 506.293,-188 495.035,-153.284 496.282,-110.039 498.254,-85.7766"/>
<polygon fill="midnightblue" stroke="midnightblue" points="501.742,-86.072 499.199,-75.7869 494.773,-85.4128 501.742,-86.072"/>
</g>
<!-- Node14 -->
<g id="node14" class="node"><title>Node14</title>
<g id="a_node14"><a xlink:href="_robot_interface_8h.html" target="_top" xlink:title="RobotInterface.h">
<polygon fill="none" stroke="black" points="577.793,-56.5 577.793,-75.5 666.793,-75.5 666.793,-56.5 577.793,-56.5"/>
<text text-anchor="middle" x="622.293" y="-63.5" font-family="Helvetica,sans-Serif" font-size="10.00">RobotInterface.h</text>
</a>
</g>
</g>
<!-- Node1&#45;&gt;Node14 -->
<g id="edge26" class="edge"><title>Node1&#45;&gt;Node14</title>
<path fill="none" stroke="midnightblue" d="M582.959,-280.135C591.162,-235.684 610.902,-128.726 618.871,-85.5445"/>
<polygon fill="midnightblue" stroke="midnightblue" points="622.335,-86.0555 620.708,-75.5863 615.452,-84.785 622.335,-86.0555"/>
</g>
<!-- Node16 -->
<g id="node16" class="node"><title>Node16</title>
<g id="a_node16"><a xlink:href="_signal_8h.html" target="_top" xlink:title="Signal.h">
<polygon fill="none" stroke="black" points="515.293,-168.5 515.293,-187.5 567.293,-187.5 567.293,-168.5 515.293,-168.5"/>
<text text-anchor="middle" x="541.293" y="-175.5" font-family="Helvetica,sans-Serif" font-size="10.00">Signal.h</text>
</a>
</g>
</g>
<!-- Node1&#45;&gt;Node16 -->
<g id="edge31" class="edge"><title>Node1&#45;&gt;Node16</title>
<path fill="none" stroke="midnightblue" d="M573.103,-280.29C565.874,-257.27 554.013,-219.503 546.999,-197.168"/>
<polygon fill="midnightblue" stroke="midnightblue" points="550.321,-196.067 543.986,-187.575 543.643,-198.164 550.321,-196.067"/>
</g>
<!-- Node17 -->
<g id="node17" class="node"><title>Node17</title>
<polygon fill="none" stroke="#bfbfbf" points="607.293,-224.5 607.293,-243.5 757.293,-243.5 757.293,-224.5 607.293,-224.5"/>
<text text-anchor="middle" x="682.293" y="-231.5" font-family="Helvetica,sans-Serif" font-size="10.00">iDynTree/Core/EigenHelpers.h</text>
</g>
<!-- Node1&#45;&gt;Node17 -->
<g id="edge33" class="edge"><title>Node1&#45;&gt;Node17</title>
<path fill="none" stroke="midnightblue" d="M610.196,-280.498C626.14,-270.436 645.237,-258.385 659.77,-249.214"/>
<polygon fill="midnightblue" stroke="midnightblue" points="661.993,-251.949 668.582,-243.652 658.257,-246.029 661.993,-251.949"/>
</g>
<!-- Node18 -->
<g id="node18" class="node"><title>Node18</title>
<polygon fill="none" stroke="#bfbfbf" points="775.293,-224.5 775.293,-243.5 945.293,-243.5 945.293,-224.5 775.293,-224.5"/>
<text text-anchor="middle" x="860.293" y="-231.5" font-family="Helvetica,sans-Serif" font-size="10.00">iDynTree/Core/SpatialMomentum.h</text>
</g>
<!-- Node1&#45;&gt;Node18 -->
<g id="edge34" class="edge"><title>Node1&#45;&gt;Node18</title>
<path fill="none" stroke="midnightblue" d="M663.602,-280.498C712.633,-269.156 772.596,-255.286 813.333,-245.863"/>
<polygon fill="midnightblue" stroke="midnightblue" points="814.303,-249.231 823.257,-243.567 812.725,-242.411 814.303,-249.231"/>
</g>
<!-- Node19 -->
<g id="node19" class="node"><title>Node19</title>
<polygon fill="none" stroke="#bfbfbf" points="963.793,-224.5 963.793,-243.5 1124.79,-243.5 1124.79,-224.5 963.793,-224.5"/>
<text text-anchor="middle" x="1044.29" y="-231.5" font-family="Helvetica,sans-Serif" font-size="10.00">iDynTree/KinDynComputations.h</text>
</g>
<!-- Node1&#45;&gt;Node19 -->
<g id="edge35" class="edge"><title>Node1&#45;&gt;Node19</title>
<path fill="none" stroke="midnightblue" d="M670.33,-287.274C759.074,-274.869 892.177,-256.264 973.341,-244.918"/>
<polygon fill="midnightblue" stroke="midnightblue" points="974.043,-248.354 983.462,-243.503 973.074,-241.421 974.043,-248.354"/>
</g>
<!-- Node20 -->
<g id="node20" class="node"><title>Node20</title>
<polygon fill="none" stroke="#bfbfbf" points="1143.29,-224.5 1143.29,-243.5 1195.29,-243.5 1195.29,-224.5 1143.29,-224.5"/>
<text text-anchor="middle" x="1169.29" y="-231.5" font-family="Helvetica,sans-Serif" font-size="10.00">ostream</text>
</g>
<!-- Node1&#45;&gt;Node20 -->
<g id="edge36" class="edge"><title>Node1&#45;&gt;Node20</title>
<path fill="none" stroke="midnightblue" d="M670.526,-294.825C778.629,-287.781 964.215,-272.824 1132.98,-243.78"/>
<polygon fill="midnightblue" stroke="midnightblue" points="1133.79,-247.192 1143.04,-242.028 1132.59,-240.295 1133.79,-247.192"/>
</g>
<!-- Node21 -->
<g id="node21" class="node"><title>Node21</title>
<polygon fill="none" stroke="#bfbfbf" points="1213.29,-224.5 1213.29,-243.5 1251.29,-243.5 1251.29,-224.5 1213.29,-224.5"/>
<text text-anchor="middle" x="1232.29" y="-231.5" font-family="Helvetica,sans-Serif" font-size="10.00">tuple</text>
</g>
<!-- Node1&#45;&gt;Node21 -->
<g id="edge37" class="edge"><title>Node1&#45;&gt;Node21</title>
<path fill="none" stroke="midnightblue" d="M670.506,-298.14C790.943,-294.278 1009.42,-282.406 1203.08,-243.804"/>
<polygon fill="midnightblue" stroke="midnightblue" points="1204.05,-247.179 1213.16,-241.767 1202.67,-240.318 1204.05,-247.179"/>
</g>
<!-- Node3 -->
<g id="node3" class="node"><title>Node3</title>
<g id="a_node3"><a xlink:href="_w_b_block_8h.html" target="_top" xlink:title="WBBlock.h">
<polygon fill="none" stroke="black" points="241.293,-168.5 241.293,-187.5 307.293,-187.5 307.293,-168.5 241.293,-168.5"/>
<text text-anchor="middle" x="274.293" y="-175.5" font-family="Helvetica,sans-Serif" font-size="10.00">WBBlock.h</text>
</a>
</g>
</g>
<!-- Node2&#45;&gt;Node3 -->
<g id="edge2" class="edge"><title>Node2&#45;&gt;Node3</title>
<path fill="none" stroke="midnightblue" d="M295.165,-224.083C291.779,-216.77 286.877,-206.181 282.674,-197.103"/>
<polygon fill="midnightblue" stroke="midnightblue" points="285.722,-195.355 278.344,-187.751 279.37,-198.296 285.722,-195.355"/>
</g>
<!-- Node6 -->
<g id="node6" class="node"><title>Node6</title>
<polygon fill="none" stroke="#bfbfbf" points="347.293,-0.5 347.293,-19.5 399.293,-19.5 399.293,-0.5 347.293,-0.5"/>
<text text-anchor="middle" x="373.293" y="-7.5" font-family="Helvetica,sans-Serif" font-size="10.00">memory</text>
</g>
<!-- Node2&#45;&gt;Node6 -->
<g id="edge11" class="edge"><title>Node2&#45;&gt;Node6</title>
<path fill="none" stroke="midnightblue" d="M302.761,-224.447C306.353,-215.449 312.027,-200.839 316.293,-188 335.541,-130.064 333.939,-113.556 354.293,-56 357.513,-46.893 361.63,-36.9813 365.207,-28.784"/>
<polygon fill="midnightblue" stroke="midnightblue" points="368.467,-30.0658 369.342,-19.5071 362.074,-27.216 368.467,-30.0658"/>
</g>
<!-- Node7 -->
<g id="node7" class="node"><title>Node7</title>
<polygon fill="none" stroke="#bfbfbf" points="238.793,-0.5 238.793,-19.5 279.793,-19.5 279.793,-0.5 238.793,-0.5"/>
<text text-anchor="middle" x="259.293" y="-7.5" font-family="Helvetica,sans-Serif" font-size="10.00">string</text>
</g>
<!-- Node2&#45;&gt;Node7 -->
<g id="edge12" class="edge"><title>Node2&#45;&gt;Node7</title>
<path fill="none" stroke="midnightblue" d="M284.314,-224.48C250.457,-204.148 169.204,-148.988 146.293,-76 143.631,-67.5191 141.304,-63.3568 146.293,-56 164.603,-28.9997 201.967,-18.1993 228.72,-13.8792"/>
<polygon fill="midnightblue" stroke="midnightblue" points="229.323,-17.329 238.743,-12.4787 228.355,-10.3963 229.323,-17.329"/>
</g>
<!-- Node4 -->
<g id="node4" class="node"><title>Node4</title>
<g id="a_node4"><a xlink:href="_block_8h.html" target="_top" xlink:title="Block.h">
<polygon fill="none" stroke="black" points="194.293,-112.5 194.293,-131.5 244.293,-131.5 244.293,-112.5 194.293,-112.5"/>
<text text-anchor="middle" x="219.293" y="-119.5" font-family="Helvetica,sans-Serif" font-size="10.00">Block.h</text>
</a>
</g>
</g>
<!-- Node3&#45;&gt;Node4 -->
<g id="edge3" class="edge"><title>Node3&#45;&gt;Node4</title>
<path fill="none" stroke="midnightblue" d="M265.211,-168.083C257.122,-160.141 245.098,-148.335 235.383,-138.797"/>
<polygon fill="midnightblue" stroke="midnightblue" points="237.794,-136.26 228.206,-131.751 232.89,-141.254 237.794,-136.26"/>
</g>
<!-- Node3&#45;&gt;Node6 -->
<g id="edge10" class="edge"><title>Node3&#45;&gt;Node6</title>
<path fill="none" stroke="midnightblue" d="M276.113,-168.397C280.826,-147.568 294.937,-93.3932 321.293,-56 329.568,-44.2594 341.551,-33.615 351.928,-25.6296"/>
<polygon fill="midnightblue" stroke="midnightblue" points="354.169,-28.3262 360.151,-19.5816 350.021,-22.6873 354.169,-28.3262"/>
</g>
<!-- Node5 -->
<g id="node5" class="node"><title>Node5</title>
<g id="a_node5"><a xlink:href="_parameters_8h.html" target="_top" xlink:title="Parameters.h">
<polygon fill="none" stroke="black" points="155.793,-56.5 155.793,-75.5 230.793,-75.5 230.793,-56.5 155.793,-56.5"/>
<text text-anchor="middle" x="193.293" y="-63.5" font-family="Helvetica,sans-Serif" font-size="10.00">Parameters.h</text>
</a>
</g>
</g>
<!-- Node4&#45;&gt;Node5 -->
<g id="edge4" class="edge"><title>Node4&#45;&gt;Node5</title>
<path fill="none" stroke="midnightblue" d="M215,-112.083C211.441,-104.691 206.27,-93.9533 201.869,-84.8111"/>
<polygon fill="midnightblue" stroke="midnightblue" points="204.998,-83.2427 197.506,-75.7511 198.691,-86.2795 204.998,-83.2427"/>
</g>
<!-- Node4&#45;&gt;Node7 -->
<g id="edge8" class="edge"><title>Node4&#45;&gt;Node7</title>
<path fill="none" stroke="midnightblue" d="M223.597,-112.166C227.882,-103.186 234.495,-88.81 239.293,-76 245.116,-60.4514 250.577,-42.3714 254.316,-29.2328"/>
<polygon fill="midnightblue" stroke="midnightblue" points="257.709,-30.0952 257.022,-19.5226 250.966,-28.2158 257.709,-30.0952"/>
</g>
<!-- Node8 -->
<g id="node8" class="node"><title>Node8</title>
<polygon fill="none" stroke="#bfbfbf" points="103.293,-0.5 103.293,-19.5 147.293,-19.5 147.293,-0.5 103.293,-0.5"/>
<text text-anchor="middle" x="125.293" y="-7.5" font-family="Helvetica,sans-Serif" font-size="10.00">vector</text>
</g>
<!-- Node4&#45;&gt;Node8 -->
<g id="edge9" class="edge"><title>Node4&#45;&gt;Node8</title>
<path fill="none" stroke="midnightblue" d="M193.913,-119.512C142.659,-115.921 29.6799,-104.844 6.29294,-76 -20.4034,-43.0743 49.3294,-24.3089 93.047,-16.0734"/>
<polygon fill="midnightblue" stroke="midnightblue" points="93.7691,-19.4999 102.997,-14.2939 92.5366,-12.6092 93.7691,-19.4999"/>
</g>
<!-- Node5&#45;&gt;Node6 -->
<g id="edge5" class="edge"><title>Node5&#45;&gt;Node6</title>
<path fill="none" stroke="midnightblue" d="M221.814,-56.4435C253.078,-47.0645 303.3,-31.9978 337.263,-21.8089"/>
<polygon fill="midnightblue" stroke="midnightblue" points="338.67,-25.041 347.243,-18.8151 336.659,-18.3363 338.67,-25.041"/>
</g>
<!-- Node5&#45;&gt;Node7 -->
<g id="edge6" class="edge"><title>Node5&#45;&gt;Node7</title>
<path fill="none" stroke="midnightblue" d="M203.897,-56.324C213.749,-48.2631 228.644,-36.0765 240.508,-26.3695"/>
<polygon fill="midnightblue" stroke="midnightblue" points="242.973,-28.8752 248.496,-19.8339 238.54,-23.4575 242.973,-28.8752"/>
</g>
<!-- Node5&#45;&gt;Node8 -->
<g id="edge7" class="edge"><title>Node5&#45;&gt;Node8</title>
<path fill="none" stroke="midnightblue" d="M182.368,-56.324C172.118,-48.1849 156.572,-35.8395 144.292,-26.0874"/>
<polygon fill="midnightblue" stroke="midnightblue" points="146.425,-23.3119 136.417,-19.8339 142.072,-28.7937 146.425,-23.3119"/>
</g>
<!-- Node9&#45;&gt;Node6 -->
<g id="edge14" class="edge"><title>Node9&#45;&gt;Node6</title>
<path fill="none" stroke="midnightblue" d="M405.853,-56.083C400.344,-48.4554 392.262,-37.2645 385.528,-27.9408"/>
<polygon fill="midnightblue" stroke="midnightblue" points="388.305,-25.8087 379.613,-19.7511 382.631,-29.9071 388.305,-25.8087"/>
</g>
<!-- Node9&#45;&gt;Node7 -->
<g id="edge15" class="edge"><title>Node9&#45;&gt;Node7</title>
<path fill="none" stroke="midnightblue" d="M388.05,-56.4435C361.367,-47.0262 318.438,-31.8746 289.565,-21.6842"/>
<polygon fill="midnightblue" stroke="midnightblue" points="290.583,-18.332 279.988,-18.3042 288.253,-24.9329 290.583,-18.332"/>
</g>
<!-- Node9&#45;&gt;Node8 -->
<g id="edge17" class="edge"><title>Node9&#45;&gt;Node8</title>
<path fill="none" stroke="midnightblue" d="M366.817,-56.4435C308.408,-45.4536 208.494,-26.6546 157.417,-17.0442"/>
<polygon fill="midnightblue" stroke="midnightblue" points="158.06,-13.6038 147.585,-15.1943 156.765,-20.4831 158.06,-13.6038"/>
</g>
<!-- Node10 -->
<g id="node10" class="node"><title>Node10</title>
<polygon fill="none" stroke="#bfbfbf" points="533.293,-0.5 533.293,-19.5 573.293,-19.5 573.293,-0.5 533.293,-0.5"/>
<text text-anchor="middle" x="553.293" y="-7.5" font-family="Helvetica,sans-Serif" font-size="10.00">utility</text>
</g>
<!-- Node9&#45;&gt;Node10 -->
<g id="edge16" class="edge"><title>Node9&#45;&gt;Node10</title>
<path fill="none" stroke="midnightblue" d="M434.635,-56.4435C458.597,-47.2666 496.776,-32.6446 523.332,-22.4744"/>
<polygon fill="midnightblue" stroke="midnightblue" points="524.8,-25.6601 532.887,-18.8151 522.296,-19.1231 524.8,-25.6601"/>
</g>
<!-- Node11&#45;&gt;Node6 -->
<g id="edge19" class="edge"><title>Node11&#45;&gt;Node6</title>
<path fill="none" stroke="midnightblue" d="M98.9294,-57.8849C161.379,-47.2131 278.252,-27.2412 337.253,-17.1587"/>
<polygon fill="midnightblue" stroke="midnightblue" points="337.963,-20.5883 347.23,-15.4538 336.784,-13.6883 337.963,-20.5883"/>
</g>
<!-- Node11&#45;&gt;Node7 -->
<g id="edge20" class="edge"><title>Node11&#45;&gt;Node7</title>
<path fill="none" stroke="midnightblue" d="M89.3004,-56.4435C127.535,-46.2225 191.036,-29.2468 228.655,-19.1904"/>
<polygon fill="midnightblue" stroke="midnightblue" points="229.78,-22.5127 238.536,-16.5488 227.972,-15.7502 229.78,-22.5127"/>
</g>
<!-- Node11&#45;&gt;Node8 -->
<g id="edge21" class="edge"><title>Node11&#45;&gt;Node8</title>
<path fill="none" stroke="midnightblue" d="M68.2183,-56.324C78.4676,-48.1849 94.0136,-35.8395 106.294,-26.0874"/>
<polygon fill="midnightblue" stroke="midnightblue" points="108.514,-28.7937 114.169,-19.8339 104.161,-23.3119 108.514,-28.7937"/>
</g>
<!-- Node12&#45;&gt;Node6 -->
<g id="edge23" class="edge"><title>Node12&#45;&gt;Node6</title>
<path fill="none" stroke="midnightblue" d="M480.169,-56.4435C459.269,-47.5566 426.358,-33.5632 402.577,-23.4514"/>
<polygon fill="midnightblue" stroke="midnightblue" points="403.895,-20.2085 393.322,-19.5164 401.155,-26.6504 403.895,-20.2085"/>
</g>
<!-- Node12&#45;&gt;Node7 -->
<g id="edge25" class="edge"><title>Node12&#45;&gt;Node7</title>
<path fill="none" stroke="midnightblue" d="M479.672,-58.7906C476.218,-57.8146 472.662,-56.8489 469.293,-56 405.931,-40.0353 330.91,-24.8404 289.884,-16.8427"/>
<polygon fill="midnightblue" stroke="midnightblue" points="290.457,-13.3886 279.974,-14.9219 289.125,-20.2607 290.457,-13.3886"/>
</g>
<!-- Node13 -->
<g id="node13" class="node"><title>Node13</title>
<polygon fill="none" stroke="#bfbfbf" points="463.293,-0.5 463.293,-19.5 515.293,-19.5 515.293,-0.5 463.293,-0.5"/>
<text text-anchor="middle" x="489.293" y="-7.5" font-family="Helvetica,sans-Serif" font-size="10.00">sstream</text>
</g>
<!-- Node12&#45;&gt;Node13 -->
<g id="edge24" class="edge"><title>Node12&#45;&gt;Node13</title>
<path fill="none" stroke="midnightblue" d="M498.477,-56.083C497.019,-48.9272 494.922,-38.6353 493.1,-29.6911"/>
<polygon fill="midnightblue" stroke="midnightblue" points="496.501,-28.8512 491.076,-19.7511 489.642,-30.2485 496.501,-28.8512"/>
</g>
<!-- Node14&#45;&gt;Node6 -->
<g id="edge27" class="edge"><title>Node14&#45;&gt;Node6</title>
<path fill="none" stroke="midnightblue" d="M582.838,-56.4435C535.157,-46.1031 455.598,-28.8492 409.447,-18.8407"/>
<polygon fill="midnightblue" stroke="midnightblue" points="410.092,-15.3993 399.578,-16.7003 408.609,-22.2403 410.092,-15.3993"/>
</g>
<!-- Node14&#45;&gt;Node7 -->
<g id="edge28" class="edge"><title>Node14&#45;&gt;Node7</title>
<path fill="none" stroke="midnightblue" d="M577.782,-58.3785C502.999,-47.2538 354.036,-25.0941 289.866,-15.5481"/>
<polygon fill="midnightblue" stroke="midnightblue" points="290.371,-12.0847 279.965,-14.0751 289.341,-19.0085 290.371,-12.0847"/>
</g>
<!-- Node14&#45;&gt;Node10 -->
<g id="edge30" class="edge"><title>Node14&#45;&gt;Node10</title>
<path fill="none" stroke="midnightblue" d="M611.207,-56.324C600.807,-48.1849 585.032,-35.8395 572.571,-26.0874"/>
<polygon fill="midnightblue" stroke="midnightblue" points="574.613,-23.2407 564.581,-19.8339 570.299,-28.7533 574.613,-23.2407"/>
</g>
<!-- Node15 -->
<g id="node15" class="node"><title>Node15</title>
<polygon fill="none" stroke="#bfbfbf" points="591.793,-0.5 591.793,-19.5 674.793,-19.5 674.793,-0.5 591.793,-0.5"/>
<text text-anchor="middle" x="633.293" y="-7.5" font-family="Helvetica,sans-Serif" font-size="10.00">unordered_map</text>
</g>
<!-- Node14&#45;&gt;Node15 -->
<g id="edge29" class="edge"><title>Node14&#45;&gt;Node15</title>
<path fill="none" stroke="midnightblue" d="M624.109,-56.083C625.567,-48.9272 627.664,-38.6353 629.485,-29.6911"/>
<polygon fill="midnightblue" stroke="midnightblue" points="632.944,-30.2485 631.51,-19.7511 626.085,-28.8512 632.944,-30.2485"/>
</g>
<!-- Node16&#45;&gt;Node6 -->
<g id="edge32" class="edge"><title>Node16&#45;&gt;Node6</title>
<path fill="none" stroke="midnightblue" d="M543.351,-168.466C548.022,-146.841 556.986,-89.2544 529.293,-56 513.994,-37.6293 450.48,-23.8468 409.362,-16.6376"/>
<polygon fill="midnightblue" stroke="midnightblue" points="409.879,-13.1754 399.433,-14.9476 408.704,-20.0761 409.879,-13.1754"/>
</g>
</g>
</svg>
