<?xml version="1.0" encoding="UTF-8" standalone="no"?>
<!DOCTYPE svg PUBLIC "-//W3C//DTD SVG 1.1//EN"
 "http://www.w3.org/Graphics/SVG/1.1/DTD/svg11.dtd">
<!-- Generated by graphviz version 2.36.0 (20140111.2315)
 -->
<!-- Title: /home/travis/build/robotology/wb&#45;toolbox/toolbox/src/core/include/Core/CoderBlockInformation.h Pages: 1 -->
<svg width="321pt" height="174pt"
 viewBox="0.00 0.00 320.91 174.00" xmlns="http://www.w3.org/2000/svg" xmlns:xlink="http://www.w3.org/1999/xlink">
<g id="graph0" class="graph" transform="scale(1 1) rotate(0) translate(4 170)">
<title>/home/travis/build/robotology/wb&#45;toolbox/toolbox/src/core/include/Core/CoderBlockInformation.h</title>
<!-- Node1 -->
<g id="node1" class="node"><title>Node1</title>
<polygon fill="#bfbfbf" stroke="black" points="6.91394,-113 6.91394,-165 158.914,-165 158.914,-113 6.91394,-113"/>
<text text-anchor="start" x="14.9139" y="-153" font-family="Helvetica,sans-Serif" font-size="10.00">/home/travis/build</text>
<text text-anchor="start" x="14.9139" y="-142" font-family="Helvetica,sans-Serif" font-size="10.00">/robotology/wb&#45;toolbox</text>
<text text-anchor="start" x="14.9139" y="-131" font-family="Helvetica,sans-Serif" font-size="10.00">/toolbox/src/core/include</text>
<text text-anchor="middle" x="82.9139" y="-120" font-family="Helvetica,sans-Serif" font-size="10.00">/Core/CoderBlockInformation.h</text>
</g>
<!-- Node2 -->
<g id="node2" class="node"><title>Node2</title>
<g id="a_node2"><a xlink:href="_block_information_8h.html" target="_top" xlink:title="Core/BlockInformation.h">
<polygon fill="none" stroke="black" points="143.914,-56.5 143.914,-75.5 265.914,-75.5 265.914,-56.5 143.914,-56.5"/>
<text text-anchor="middle" x="204.914" y="-63.5" font-family="Helvetica,sans-Serif" font-size="10.00">Core/BlockInformation.h</text>
</a>
</g>
</g>
<!-- Node1&#45;&gt;Node2 -->
<g id="edge1" class="edge"><title>Node1&#45;&gt;Node2</title>
<path fill="none" stroke="midnightblue" d="M125.927,-112.968C144.447,-102.19 165.397,-89.9975 181.065,-80.879"/>
<polygon fill="midnightblue" stroke="midnightblue" points="183.187,-83.6939 190.07,-75.6389 179.666,-77.6438 183.187,-83.6939"/>
</g>
<!-- Node3 -->
<g id="node3" class="node"><title>Node3</title>
<polygon fill="none" stroke="#bfbfbf" points="23.9139,-0.5 23.9139,-19.5 75.9139,-19.5 75.9139,-0.5 23.9139,-0.5"/>
<text text-anchor="middle" x="49.9139" y="-7.5" font-family="Helvetica,sans-Serif" font-size="10.00">memory</text>
</g>
<!-- Node1&#45;&gt;Node3 -->
<g id="edge9" class="edge"><title>Node1&#45;&gt;Node3</title>
<path fill="none" stroke="midnightblue" d="M36.0849,-112.757C22.9009,-103.13 10.1837,-90.8315 2.91394,-76 -6.27209,-57.259 11.4071,-38.183 27.6435,-25.5878"/>
<polygon fill="midnightblue" stroke="midnightblue" points="29.8166,-28.3353 35.8527,-19.6281 25.7041,-22.6707 29.8166,-28.3353"/>
</g>
<!-- Node4 -->
<g id="node4" class="node"><title>Node4</title>
<polygon fill="none" stroke="#bfbfbf" points="95.4139,-0.5 95.4139,-19.5 136.414,-19.5 136.414,-0.5 95.4139,-0.5"/>
<text text-anchor="middle" x="115.914" y="-7.5" font-family="Helvetica,sans-Serif" font-size="10.00">string</text>
</g>
<!-- Node1&#45;&gt;Node4 -->
<g id="edge10" class="edge"><title>Node1&#45;&gt;Node4</title>
<path fill="none" stroke="midnightblue" d="M89.4337,-112.909C95.8291,-88.2964 105.429,-51.3524 111.143,-29.3617"/>
<polygon fill="midnightblue" stroke="midnightblue" points="114.545,-30.1867 113.672,-19.6278 107.77,-28.4262 114.545,-30.1867"/>
</g>
<!-- Node8 -->
<g id="node8" class="node"><title>Node8</title>
<g id="a_node8"><a xlink:href="_signal_8h.html" target="_top" xlink:title="Core/Signal.h">
<polygon fill="none" stroke="black" points="11.9139,-56.5 11.9139,-75.5 87.9139,-75.5 87.9139,-56.5 11.9139,-56.5"/>
<text text-anchor="middle" x="49.9139" y="-63.5" font-family="Helvetica,sans-Serif" font-size="10.00">Core/Signal.h</text>
</a>
</g>
</g>
<!-- Node1&#45;&gt;Node8 -->
<g id="edge7" class="edge"><title>Node1&#45;&gt;Node8</title>
<path fill="none" stroke="midnightblue" d="M71.1865,-112.768C66.9192,-103.587 62.1859,-93.4034 58.2697,-84.9775"/>
<polygon fill="midnightblue" stroke="midnightblue" points="61.373,-83.3503 53.9842,-75.7572 55.0252,-86.3007 61.373,-83.3503"/>
</g>
<!-- Node2&#45;&gt;Node3 -->
<g id="edge2" class="edge"><title>Node2&#45;&gt;Node3</title>
<path fill="none" stroke="midnightblue" d="M180.354,-56.4435C154.391,-47.3986 113.246,-33.064 84.1168,-22.9158"/>
<polygon fill="midnightblue" stroke="midnightblue" points="84.9541,-19.5013 74.3592,-19.5164 82.6511,-26.1116 84.9541,-19.5013"/>
</g>
<!-- Node2&#45;&gt;Node4 -->
<g id="edge3" class="edge"><title>Node2&#45;&gt;Node4</title>
<path fill="none" stroke="midnightblue" d="M190.615,-56.324C176.731,-47.9002 155.422,-34.9709 139.11,-25.0741"/>
<polygon fill="midnightblue" stroke="midnightblue" points="140.543,-21.8495 130.178,-19.6545 136.912,-27.8341 140.543,-21.8495"/>
</g>
<!-- Node5 -->
<g id="node5" class="node"><title>Node5</title>
<polygon fill="none" stroke="#bfbfbf" points="154.914,-0.5 154.914,-19.5 192.914,-19.5 192.914,-0.5 154.914,-0.5"/>
<text text-anchor="middle" x="173.914" y="-7.5" font-family="Helvetica,sans-Serif" font-size="10.00">tuple</text>
</g>
<!-- Node2&#45;&gt;Node5 -->
<g id="edge4" class="edge"><title>Node2&#45;&gt;Node5</title>
<path fill="none" stroke="midnightblue" d="M199.795,-56.083C195.506,-48.6127 189.256,-37.7244 183.972,-28.5199"/>
<polygon fill="midnightblue" stroke="midnightblue" points="186.952,-26.6811 178.938,-19.7511 180.881,-30.1662 186.952,-26.6811"/>
</g>
<!-- Node6 -->
<g id="node6" class="node"><title>Node6</title>
<polygon fill="none" stroke="#bfbfbf" points="210.914,-0.5 210.914,-19.5 250.914,-19.5 250.914,-0.5 210.914,-0.5"/>
<text text-anchor="middle" x="230.914" y="-7.5" font-family="Helvetica,sans-Serif" font-size="10.00">utility</text>
</g>
<!-- Node2&#45;&gt;Node6 -->
<g id="edge5" class="edge"><title>Node2&#45;&gt;Node6</title>
<path fill="none" stroke="midnightblue" d="M209.207,-56.083C212.766,-48.6913 217.936,-37.9533 222.338,-28.8111"/>
<polygon fill="midnightblue" stroke="midnightblue" points="225.516,-30.2795 226.7,-19.7511 219.209,-27.2427 225.516,-30.2795"/>
</g>
<!-- Node7 -->
<g id="node7" class="node"><title>Node7</title>
<polygon fill="none" stroke="#bfbfbf" points="268.914,-0.5 268.914,-19.5 312.914,-19.5 312.914,-0.5 268.914,-0.5"/>
<text text-anchor="middle" x="290.914" y="-7.5" font-family="Helvetica,sans-Serif" font-size="10.00">vector</text>
</g>
<!-- Node2&#45;&gt;Node7 -->
<g id="edge6" class="edge"><title>Node2&#45;&gt;Node7</title>
<path fill="none" stroke="midnightblue" d="M218.731,-56.324C232.147,-47.9002 252.738,-34.9709 268.5,-25.0741"/>
<polygon fill="midnightblue" stroke="midnightblue" points="270.523,-27.9364 277.131,-19.6545 266.801,-22.0081 270.523,-27.9364"/>
</g>
<!-- Node8&#45;&gt;Node3 -->
<g id="edge8" class="edge"><title>Node8&#45;&gt;Node3</title>
<path fill="none" stroke="midnightblue" d="M49.9139,-56.083C49.9139,-49.0059 49.9139,-38.8611 49.9139,-29.9865"/>
<polygon fill="midnightblue" stroke="midnightblue" points="53.414,-29.751 49.9139,-19.7511 46.414,-29.7511 53.414,-29.751"/>
</g>
</g>
</svg>
