<?xml version="1.0" encoding="UTF-8" standalone="no"?>
<!DOCTYPE svg PUBLIC "-//W3C//DTD SVG 1.1//EN"
 "http://www.w3.org/Graphics/SVG/1.1/DTD/svg11.dtd">
<!-- Generated by graphviz version 2.36.0 (20140111.2315)
 -->
<!-- Title: /home/travis/build/robotology/wb&#45;toolbox/toolbox/src/base/CoderBlockInformation.cpp Pages: 1 -->
<svg width="732pt" height="230pt"
 viewBox="0.00 0.00 732.00 230.00" xmlns="http://www.w3.org/2000/svg" xmlns:xlink="http://www.w3.org/1999/xlink">
<g id="graph0" class="graph" transform="scale(1 1) rotate(0) translate(4 226)">
<title>/home/travis/build/robotology/wb&#45;toolbox/toolbox/src/base/CoderBlockInformation.cpp</title>
<!-- Node1 -->
<g id="node1" class="node"><title>Node1</title>
<polygon fill="#bfbfbf" stroke="black" points="383,-169 383,-221 529,-221 529,-169 383,-169"/>
<text text-anchor="start" x="391" y="-209" font-family="Helvetica,sans-Serif" font-size="10.00">/home/travis/build</text>
<text text-anchor="start" x="391" y="-198" font-family="Helvetica,sans-Serif" font-size="10.00">/robotology/wb&#45;toolbox</text>
<text text-anchor="start" x="391" y="-187" font-family="Helvetica,sans-Serif" font-size="10.00">/toolbox/src/base/CoderBlock</text>
<text text-anchor="middle" x="456" y="-176" font-family="Helvetica,sans-Serif" font-size="10.00">Information.cpp</text>
</g>
<!-- Node2 -->
<g id="node2" class="node"><title>Node2</title>
<g id="a_node2"><a xlink:href="_coder_block_information_8h.html" target="_top" xlink:title="CoderBlockInformation.h">
<polygon fill="none" stroke="black" points="285.5,-112.5 285.5,-131.5 410.5,-131.5 410.5,-112.5 285.5,-112.5"/>
<text text-anchor="middle" x="348" y="-119.5" font-family="Helvetica,sans-Serif" font-size="10.00">CoderBlockInformation.h</text>
</a>
</g>
</g>
<!-- Node1&#45;&gt;Node2 -->
<g id="edge1" class="edge"><title>Node1&#45;&gt;Node2</title>
<path fill="none" stroke="midnightblue" d="M417.923,-168.968C401.683,-158.291 383.332,-146.227 369.506,-137.138"/>
<polygon fill="midnightblue" stroke="midnightblue" points="371.42,-134.208 361.141,-131.639 367.574,-140.057 371.42,-134.208"/>
</g>
<!-- Node5 -->
<g id="node5" class="node"><title>Node5</title>
<polygon fill="none" stroke="#bfbfbf" points="218.5,-0.5 218.5,-19.5 259.5,-19.5 259.5,-0.5 218.5,-0.5"/>
<text text-anchor="middle" x="239" y="-7.5" font-family="Helvetica,sans-Serif" font-size="10.00">string</text>
</g>
<!-- Node1&#45;&gt;Node5 -->
<g id="edge21" class="edge"><title>Node1&#45;&gt;Node5</title>
<path fill="none" stroke="midnightblue" d="M382.869,-184.5C346.419,-176.238 304.216,-160.807 276,-132 248.551,-103.976 241.393,-56.172 239.574,-29.8193"/>
<polygon fill="midnightblue" stroke="midnightblue" points="243.061,-29.4767 239.068,-19.663 236.07,-29.8245 243.061,-29.4767"/>
</g>
<!-- Node6 -->
<g id="node6" class="node"><title>Node6</title>
<polygon fill="none" stroke="#bfbfbf" points="485,-0.5 485,-19.5 525,-19.5 525,-0.5 485,-0.5"/>
<text text-anchor="middle" x="505" y="-7.5" font-family="Helvetica,sans-Serif" font-size="10.00">utility</text>
</g>
<!-- Node1&#45;&gt;Node6 -->
<g id="edge24" class="edge"><title>Node1&#45;&gt;Node6</title>
<path fill="none" stroke="midnightblue" d="M500.706,-168.728C513.542,-159.036 525.96,-146.707 533,-132 547.584,-101.533 542.279,-88.4781 533,-56 530.098,-45.8435 524.168,-35.747 518.51,-27.6991"/>
<polygon fill="midnightblue" stroke="midnightblue" points="521.219,-25.4786 512.412,-19.5891 515.624,-29.6853 521.219,-25.4786"/>
</g>
<!-- Node7 -->
<g id="node7" class="node"><title>Node7</title>
<polygon fill="none" stroke="#bfbfbf" points="371,-0.5 371,-19.5 415,-19.5 415,-0.5 371,-0.5"/>
<text text-anchor="middle" x="393" y="-7.5" font-family="Helvetica,sans-Serif" font-size="10.00">vector</text>
</g>
<!-- Node1&#45;&gt;Node7 -->
<g id="edge25" class="edge"><title>Node1&#45;&gt;Node7</title>
<path fill="none" stroke="midnightblue" d="M476.31,-168.765C497.122,-139.625 523.376,-91.1899 500,-56 483.511,-31.1773 450.369,-20.0167 425.315,-15.0172"/>
<polygon fill="midnightblue" stroke="midnightblue" points="425.6,-11.5137 415.145,-13.2299 424.388,-18.408 425.6,-11.5137"/>
</g>
<!-- Node9 -->
<g id="node9" class="node"><title>Node9</title>
<g id="a_node9"><a xlink:href="_log_8h.html" target="_top" xlink:title="Log.h">
<polygon fill="none" stroke="black" points="5.5,-56.5 5.5,-75.5 46.5,-75.5 46.5,-56.5 5.5,-56.5"/>
<text text-anchor="middle" x="26" y="-63.5" font-family="Helvetica,sans-Serif" font-size="10.00">Log.h</text>
</a>
</g>
</g>
<!-- Node1&#45;&gt;Node9 -->
<g id="edge10" class="edge"><title>Node1&#45;&gt;Node9</title>
<path fill="none" stroke="midnightblue" d="M382.818,-178.726C331.273,-167.373 260.88,-150.67 200,-132 148.509,-116.21 90.1452,-93.357 55.7916,-79.3776"/>
<polygon fill="midnightblue" stroke="midnightblue" points="56.9304,-76.062 46.3498,-75.5125 54.2784,-82.5402 56.9304,-76.062"/>
</g>
<!-- Node11 -->
<g id="node11" class="node"><title>Node11</title>
<g id="a_node11"><a xlink:href="_parameter_8h.html" target="_top" xlink:title="Parameter.h">
<polygon fill="none" stroke="black" points="421,-56.5 421,-75.5 491,-75.5 491,-56.5 421,-56.5"/>
<text text-anchor="middle" x="456" y="-63.5" font-family="Helvetica,sans-Serif" font-size="10.00">Parameter.h</text>
</a>
</g>
</g>
<!-- Node1&#45;&gt;Node11 -->
<g id="edge14" class="edge"><title>Node1&#45;&gt;Node11</title>
<path fill="none" stroke="midnightblue" d="M456,-168.909C456,-144.409 456,-107.69 456,-85.6639"/>
<polygon fill="midnightblue" stroke="midnightblue" points="459.5,-85.6278 456,-75.6278 452.5,-85.6279 459.5,-85.6278"/>
</g>
<!-- Node12 -->
<g id="node12" class="node"><title>Node12</title>
<g id="a_node12"><a xlink:href="_parameters_8h.html" target="_top" xlink:title="Parameters.h">
<polygon fill="none" stroke="black" points="135.5,-56.5 135.5,-75.5 210.5,-75.5 210.5,-56.5 135.5,-56.5"/>
<text text-anchor="middle" x="173" y="-63.5" font-family="Helvetica,sans-Serif" font-size="10.00">Parameters.h</text>
</a>
</g>
</g>
<!-- Node1&#45;&gt;Node12 -->
<g id="edge17" class="edge"><title>Node1&#45;&gt;Node12</title>
<path fill="none" stroke="midnightblue" d="M382.998,-186.362C334.962,-178.588 272.437,-163.021 225,-132 206.546,-119.932 191.618,-99.1596 182.568,-84.3455"/>
<polygon fill="midnightblue" stroke="midnightblue" points="185.546,-82.505 177.492,-75.6222 179.496,-86.0257 185.546,-82.505"/>
</g>
<!-- Node13 -->
<g id="node13" class="node"><title>Node13</title>
<polygon fill="none" stroke="#bfbfbf" points="585,-112.5 585,-131.5 623,-131.5 623,-112.5 585,-112.5"/>
<text text-anchor="middle" x="604" y="-119.5" font-family="Helvetica,sans-Serif" font-size="10.00">tuple</text>
</g>
<!-- Node1&#45;&gt;Node13 -->
<g id="edge22" class="edge"><title>Node1&#45;&gt;Node13</title>
<path fill="none" stroke="midnightblue" d="M508.179,-168.968C531.389,-157.834 557.743,-145.191 576.931,-135.986"/>
<polygon fill="midnightblue" stroke="midnightblue" points="578.49,-139.12 585.992,-131.639 575.462,-132.809 578.49,-139.12"/>
</g>
<!-- Node14 -->
<g id="node14" class="node"><title>Node14</title>
<polygon fill="none" stroke="#bfbfbf" points="641.5,-112.5 641.5,-131.5 724.5,-131.5 724.5,-112.5 641.5,-112.5"/>
<text text-anchor="middle" x="683" y="-119.5" font-family="Helvetica,sans-Serif" font-size="10.00">unordered_map</text>
</g>
<!-- Node1&#45;&gt;Node14 -->
<g id="edge23" class="edge"><title>Node1&#45;&gt;Node14</title>
<path fill="none" stroke="midnightblue" d="M529.074,-171.144C568.135,-158.927 614.545,-144.411 646.118,-134.536"/>
<polygon fill="midnightblue" stroke="midnightblue" points="647.32,-137.827 655.819,-131.501 645.23,-131.146 647.32,-137.827"/>
</g>
<!-- Node3 -->
<g id="node3" class="node"><title>Node3</title>
<g id="a_node3"><a xlink:href="_block_information_8h.html" target="_top" xlink:title="BlockInformation.h">
<polygon fill="none" stroke="black" points="267,-56.5 267,-75.5 365,-75.5 365,-56.5 267,-56.5"/>
<text text-anchor="middle" x="316" y="-63.5" font-family="Helvetica,sans-Serif" font-size="10.00">BlockInformation.h</text>
</a>
</g>
</g>
<!-- Node2&#45;&gt;Node3 -->
<g id="edge2" class="edge"><title>Node2&#45;&gt;Node3</title>
<path fill="none" stroke="midnightblue" d="M342.716,-112.083C338.289,-104.613 331.837,-93.7244 326.382,-84.5199"/>
<polygon fill="midnightblue" stroke="midnightblue" points="329.295,-82.5697 321.186,-75.7511 323.273,-86.1383 329.295,-82.5697"/>
</g>
<!-- Node2&#45;&gt;Node7 -->
<g id="edge9" class="edge"><title>Node2&#45;&gt;Node7</title>
<path fill="none" stroke="midnightblue" d="M353.545,-112.312C359.03,-103.444 367.395,-89.1551 373,-76 379.508,-60.7255 384.901,-42.6184 388.441,-29.3997"/>
<polygon fill="midnightblue" stroke="midnightblue" points="391.856,-30.1723 390.961,-19.6153 385.077,-28.426 391.856,-30.1723"/>
</g>
<!-- Node8 -->
<g id="node8" class="node"><title>Node8</title>
<g id="a_node8"><a xlink:href="_signal_8h.html" target="_top" xlink:title="Signal.h">
<polygon fill="none" stroke="black" points="65,-56.5 65,-75.5 117,-75.5 117,-56.5 65,-56.5"/>
<text text-anchor="middle" x="91" y="-63.5" font-family="Helvetica,sans-Serif" font-size="10.00">Signal.h</text>
</a>
</g>
</g>
<!-- Node2&#45;&gt;Node8 -->
<g id="edge7" class="edge"><title>Node2&#45;&gt;Node8</title>
<path fill="none" stroke="midnightblue" d="M302.358,-112.464C259.482,-104.284 193.313,-91.2512 127.104,-76.168"/>
<polygon fill="midnightblue" stroke="midnightblue" points="127.867,-72.7522 117.338,-73.928 126.302,-79.5751 127.867,-72.7522"/>
</g>
<!-- Node4 -->
<g id="node4" class="node"><title>Node4</title>
<polygon fill="none" stroke="#bfbfbf" points="109,-0.5 109,-19.5 161,-19.5 161,-0.5 109,-0.5"/>
<text text-anchor="middle" x="135" y="-7.5" font-family="Helvetica,sans-Serif" font-size="10.00">memory</text>
</g>
<!-- Node3&#45;&gt;Node4 -->
<g id="edge3" class="edge"><title>Node3&#45;&gt;Node4</title>
<path fill="none" stroke="midnightblue" d="M287.32,-56.4435C255.747,-47.0241 204.946,-31.8679 170.789,-21.6774"/>
<polygon fill="midnightblue" stroke="midnightblue" points="171.778,-18.3202 161.195,-18.8151 169.777,-25.028 171.778,-18.3202"/>
</g>
<!-- Node3&#45;&gt;Node5 -->
<g id="edge4" class="edge"><title>Node3&#45;&gt;Node5</title>
<path fill="none" stroke="midnightblue" d="M303.629,-56.324C291.842,-48.0577 273.868,-35.4527 259.864,-25.6322"/>
<polygon fill="midnightblue" stroke="midnightblue" points="261.538,-22.5307 251.341,-19.6545 257.518,-28.2619 261.538,-22.5307"/>
</g>
<!-- Node3&#45;&gt;Node6 -->
<g id="edge5" class="edge"><title>Node3&#45;&gt;Node6</title>
<path fill="none" stroke="midnightblue" d="M345.948,-56.4435C381.284,-46.3474 439.688,-29.6606 475.033,-19.562"/>
<polygon fill="midnightblue" stroke="midnightblue" points="476.128,-22.8894 484.781,-16.7767 474.205,-16.1587 476.128,-22.8894"/>
</g>
<!-- Node3&#45;&gt;Node7 -->
<g id="edge6" class="edge"><title>Node3&#45;&gt;Node7</title>
<path fill="none" stroke="midnightblue" d="M328.371,-56.324C340.158,-48.0577 358.132,-35.4527 372.136,-25.6322"/>
<polygon fill="midnightblue" stroke="midnightblue" points="374.482,-28.2619 380.659,-19.6545 370.462,-22.5307 374.482,-28.2619"/>
</g>
<!-- Node8&#45;&gt;Node4 -->
<g id="edge8" class="edge"><title>Node8&#45;&gt;Node4</title>
<path fill="none" stroke="midnightblue" d="M98.2657,-56.083C104.545,-48.3768 113.788,-37.0333 121.431,-27.6531"/>
<polygon fill="midnightblue" stroke="midnightblue" points="124.266,-29.7143 127.869,-19.7511 118.839,-25.2926 124.266,-29.7143"/>
</g>
<!-- Node9&#45;&gt;Node4 -->
<g id="edge11" class="edge"><title>Node9&#45;&gt;Node4</title>
<path fill="none" stroke="midnightblue" d="M43.5127,-56.324C61.0724,-47.6247 88.3314,-34.1202 108.531,-24.113"/>
<polygon fill="midnightblue" stroke="midnightblue" points="110.124,-27.23 117.531,-19.6545 107.016,-20.9575 110.124,-27.23"/>
</g>
<!-- Node9&#45;&gt;Node5 -->
<g id="edge13" class="edge"><title>Node9&#45;&gt;Node5</title>
<path fill="none" stroke="midnightblue" d="M46.6176,-58.666C49.7534,-57.7458 52.9573,-56.8299 56,-56 109.291,-41.4641 171.886,-26.5285 208.334,-18.0428"/>
<polygon fill="midnightblue" stroke="midnightblue" points="209.379,-21.3936 218.33,-15.725 207.797,-14.5745 209.379,-21.3936"/>
</g>
<!-- Node10 -->
<g id="node10" class="node"><title>Node10</title>
<polygon fill="none" stroke="#bfbfbf" points="0,-0.5 0,-19.5 52,-19.5 52,-0.5 0,-0.5"/>
<text text-anchor="middle" x="26" y="-7.5" font-family="Helvetica,sans-Serif" font-size="10.00">sstream</text>
</g>
<!-- Node9&#45;&gt;Node10 -->
<g id="edge12" class="edge"><title>Node9&#45;&gt;Node10</title>
<path fill="none" stroke="midnightblue" d="M26,-56.083C26,-49.0059 26,-38.8611 26,-29.9865"/>
<polygon fill="midnightblue" stroke="midnightblue" points="29.5001,-29.751 26,-19.7511 22.5001,-29.7511 29.5001,-29.751"/>
</g>
<!-- Node11&#45;&gt;Node5 -->
<g id="edge15" class="edge"><title>Node11&#45;&gt;Node5</title>
<path fill="none" stroke="midnightblue" d="M421.616,-56.4435C379.619,-45.9928 309.246,-28.4805 269.232,-18.5231"/>
<polygon fill="midnightblue" stroke="midnightblue" points="270.06,-15.1226 259.511,-16.1041 268.37,-21.9155 270.06,-15.1226"/>
</g>
<!-- Node11&#45;&gt;Node7 -->
<g id="edge16" class="edge"><title>Node11&#45;&gt;Node7</title>
<path fill="none" stroke="midnightblue" d="M445.878,-56.324C436.474,-48.2631 422.256,-36.0765 410.931,-26.3695"/>
<polygon fill="midnightblue" stroke="midnightblue" points="413.177,-23.6844 403.306,-19.8339 408.621,-28.9993 413.177,-23.6844"/>
</g>
<!-- Node12&#45;&gt;Node4 -->
<g id="edge18" class="edge"><title>Node12&#45;&gt;Node4</title>
<path fill="none" stroke="midnightblue" d="M166.725,-56.083C161.358,-48.4554 153.482,-37.2645 146.921,-27.9408"/>
<polygon fill="midnightblue" stroke="midnightblue" points="149.775,-25.9149 141.158,-19.7511 144.051,-29.9434 149.775,-25.9149"/>
</g>
<!-- Node12&#45;&gt;Node5 -->
<g id="edge19" class="edge"><title>Node12&#45;&gt;Node5</title>
<path fill="none" stroke="midnightblue" d="M183.604,-56.324C193.456,-48.2631 208.351,-36.0765 220.215,-26.3695"/>
<polygon fill="midnightblue" stroke="midnightblue" points="222.68,-28.8752 228.203,-19.8339 218.247,-23.4575 222.68,-28.8752"/>
</g>
<!-- Node12&#45;&gt;Node7 -->
<g id="edge20" class="edge"><title>Node12&#45;&gt;Node7</title>
<path fill="none" stroke="midnightblue" d="M207.86,-56.4435C249.879,-46.1296 319.92,-28.9378 360.742,-18.9179"/>
<polygon fill="midnightblue" stroke="midnightblue" points="361.823,-22.2566 370.7,-16.4736 360.154,-15.4584 361.823,-22.2566"/>
</g>
</g>
</svg>
