<?xml version="1.0" encoding="UTF-8" standalone="no"?>
<!DOCTYPE svg PUBLIC "-//W3C//DTD SVG 1.1//EN"
 "http://www.w3.org/Graphics/SVG/1.1/DTD/svg11.dtd">
<!-- Generated by graphviz version 2.36.0 (20140111.2315)
 -->
<!-- Title: /home/travis/build/robotology/wb&#45;toolbox/toolbox/src/base/CoderBlockInformation.cpp Pages: 1 -->
<svg width="733pt" height="230pt"
 viewBox="0.00 0.00 733.00 230.00" xmlns="http://www.w3.org/2000/svg" xmlns:xlink="http://www.w3.org/1999/xlink">
<g id="graph0" class="graph" transform="scale(1 1) rotate(0) translate(4 226)">
<title>/home/travis/build/robotology/wb&#45;toolbox/toolbox/src/base/CoderBlockInformation.cpp</title>
<!-- Node1 -->
<g id="node1" class="node"><title>Node1</title>
<polygon fill="#bfbfbf" stroke="black" points="285,-169 285,-221 431,-221 431,-169 285,-169"/>
<text text-anchor="start" x="293" y="-209" font-family="Helvetica,sans-Serif" font-size="10.00">/home/travis/build</text>
<text text-anchor="start" x="293" y="-198" font-family="Helvetica,sans-Serif" font-size="10.00">/robotology/wb&#45;toolbox</text>
<text text-anchor="start" x="293" y="-187" font-family="Helvetica,sans-Serif" font-size="10.00">/toolbox/src/base/CoderBlock</text>
<text text-anchor="middle" x="358" y="-176" font-family="Helvetica,sans-Serif" font-size="10.00">Information.cpp</text>
</g>
<!-- Node2 -->
<g id="node2" class="node"><title>Node2</title>
<g id="a_node2"><a xlink:href="_coder_block_information_8h.html" target="_top" xlink:title="CoderBlockInformation.h">
<polygon fill="none" stroke="black" points="341.5,-112.5 341.5,-131.5 466.5,-131.5 466.5,-112.5 341.5,-112.5"/>
<text text-anchor="middle" x="404" y="-119.5" font-family="Helvetica,sans-Serif" font-size="10.00">CoderBlockInformation.h</text>
</a>
</g>
</g>
<!-- Node1&#45;&gt;Node2 -->
<g id="edge1" class="edge"><title>Node1&#45;&gt;Node2</title>
<path fill="none" stroke="midnightblue" d="M374.347,-168.768C380.492,-159.284 387.329,-148.731 392.889,-140.15"/>
<polygon fill="midnightblue" stroke="midnightblue" points="395.826,-142.053 398.326,-131.757 389.952,-138.247 395.826,-142.053"/>
</g>
<!-- Node5 -->
<g id="node5" class="node"><title>Node5</title>
<polygon fill="none" stroke="#bfbfbf" points="120.5,-0.5 120.5,-19.5 161.5,-19.5 161.5,-0.5 120.5,-0.5"/>
<text text-anchor="middle" x="141" y="-7.5" font-family="Helvetica,sans-Serif" font-size="10.00">string</text>
</g>
<!-- Node1&#45;&gt;Node5 -->
<g id="edge22" class="edge"><title>Node1&#45;&gt;Node5</title>
<path fill="none" stroke="midnightblue" d="M284.78,-183.43C222.206,-170.107 135.856,-140.555 94,-76 82.4111,-58.1262 101.453,-38.4048 118.657,-25.4255"/>
<polygon fill="midnightblue" stroke="midnightblue" points="120.687,-28.277 126.813,-19.6331 116.634,-22.5699 120.687,-28.277"/>
</g>
<!-- Node6 -->
<g id="node6" class="node"><title>Node6</title>
<polygon fill="none" stroke="#bfbfbf" points="541,-0.5 541,-19.5 581,-19.5 581,-0.5 541,-0.5"/>
<text text-anchor="middle" x="561" y="-7.5" font-family="Helvetica,sans-Serif" font-size="10.00">utility</text>
</g>
<!-- Node1&#45;&gt;Node6 -->
<g id="edge24" class="edge"><title>Node1&#45;&gt;Node6</title>
<path fill="none" stroke="midnightblue" d="M431.082,-184.192C474.788,-175.681 529.837,-160.105 572,-132 604.663,-110.227 633.966,-91.3989 617,-56 610.747,-42.9542 598.664,-32.4921 587.318,-24.9506"/>
<polygon fill="midnightblue" stroke="midnightblue" points="588.854,-21.7869 578.502,-19.5351 585.191,-27.7515 588.854,-21.7869"/>
</g>
<!-- Node7 -->
<g id="node7" class="node"><title>Node7</title>
<polygon fill="none" stroke="#bfbfbf" points="382,-0.5 382,-19.5 426,-19.5 426,-0.5 382,-0.5"/>
<text text-anchor="middle" x="404" y="-7.5" font-family="Helvetica,sans-Serif" font-size="10.00">vector</text>
</g>
<!-- Node1&#45;&gt;Node7 -->
<g id="edge25" class="edge"><title>Node1&#45;&gt;Node7</title>
<path fill="none" stroke="midnightblue" d="M431.011,-180.28C488.195,-165.282 564.043,-135.03 601,-76 605.717,-68.4659 606.542,-62.9501 601,-56 580.734,-30.5832 486.575,-18.3835 436.125,-13.5843"/>
<polygon fill="midnightblue" stroke="midnightblue" points="436.341,-10.0896 426.066,-12.6704 435.708,-17.0609 436.341,-10.0896"/>
</g>
<!-- Node10 -->
<g id="node10" class="node"><title>Node10</title>
<g id="a_node10"><a xlink:href="_log_8h.html" target="_top" xlink:title="Log.h">
<polygon fill="none" stroke="black" points="5.5,-56.5 5.5,-75.5 46.5,-75.5 46.5,-56.5 5.5,-56.5"/>
<text text-anchor="middle" x="26" y="-63.5" font-family="Helvetica,sans-Serif" font-size="10.00">Log.h</text>
</a>
</g>
</g>
<!-- Node1&#45;&gt;Node10 -->
<g id="edge11" class="edge"><title>Node1&#45;&gt;Node10</title>
<path fill="none" stroke="midnightblue" d="M284.949,-185.878C208.793,-176.184 95.7687,-157.959 61,-132 45.6286,-120.524 36.2674,-100.248 31.1429,-85.3855"/>
<polygon fill="midnightblue" stroke="midnightblue" points="34.4491,-84.2307 28.1348,-75.723 27.7655,-86.3114 34.4491,-84.2307"/>
</g>
<!-- Node12 -->
<g id="node12" class="node"><title>Node12</title>
<g id="a_node12"><a xlink:href="_parameter_8h.html" target="_top" xlink:title="Parameter.h">
<polygon fill="none" stroke="black" points="197,-56.5 197,-75.5 267,-75.5 267,-56.5 197,-56.5"/>
<text text-anchor="middle" x="232" y="-63.5" font-family="Helvetica,sans-Serif" font-size="10.00">Parameter.h</text>
</a>
</g>
</g>
<!-- Node1&#45;&gt;Node12 -->
<g id="edge15" class="edge"><title>Node1&#45;&gt;Node12</title>
<path fill="none" stroke="midnightblue" d="M333.106,-168.909C307.684,-143.285 269.001,-104.295 247.604,-82.7282"/>
<polygon fill="midnightblue" stroke="midnightblue" points="250.088,-80.2617 240.56,-75.6278 245.118,-85.1919 250.088,-80.2617"/>
</g>
<!-- Node13 -->
<g id="node13" class="node"><title>Node13</title>
<g id="a_node13"><a xlink:href="_parameters_8h.html" target="_top" xlink:title="Parameters.h">
<polygon fill="none" stroke="black" points="103.5,-56.5 103.5,-75.5 178.5,-75.5 178.5,-56.5 103.5,-56.5"/>
<text text-anchor="middle" x="141" y="-63.5" font-family="Helvetica,sans-Serif" font-size="10.00">Parameters.h</text>
</a>
</g>
</g>
<!-- Node1&#45;&gt;Node13 -->
<g id="edge18" class="edge"><title>Node1&#45;&gt;Node13</title>
<path fill="none" stroke="midnightblue" d="M315.128,-168.909C270.001,-142.498 200.612,-101.888 164.566,-80.7919"/>
<polygon fill="midnightblue" stroke="midnightblue" points="166.141,-77.6582 155.742,-75.6278 162.605,-83.6996 166.141,-77.6582"/>
</g>
<!-- Node14 -->
<g id="node14" class="node"><title>Node14</title>
<polygon fill="none" stroke="#bfbfbf" points="687,-112.5 687,-131.5 725,-131.5 725,-112.5 687,-112.5"/>
<text text-anchor="middle" x="706" y="-119.5" font-family="Helvetica,sans-Serif" font-size="10.00">tuple</text>
</g>
<!-- Node1&#45;&gt;Node14 -->
<g id="edge23" class="edge"><title>Node1&#45;&gt;Node14</title>
<path fill="none" stroke="midnightblue" d="M431.2,-181.134C495.247,-169.51 590.653,-151.307 673,-132 674.268,-131.703 675.562,-131.39 676.866,-131.067"/>
<polygon fill="midnightblue" stroke="midnightblue" points="678.066,-134.372 686.865,-128.469 676.306,-127.597 678.066,-134.372"/>
</g>
<!-- Node3 -->
<g id="node3" class="node"><title>Node3</title>
<g id="a_node3"><a xlink:href="_block_information_8h.html" target="_top" xlink:title="BlockInformation.h">
<polygon fill="none" stroke="black" points="355,-56.5 355,-75.5 453,-75.5 453,-56.5 355,-56.5"/>
<text text-anchor="middle" x="404" y="-63.5" font-family="Helvetica,sans-Serif" font-size="10.00">BlockInformation.h</text>
</a>
</g>
</g>
<!-- Node2&#45;&gt;Node3 -->
<g id="edge2" class="edge"><title>Node2&#45;&gt;Node3</title>
<path fill="none" stroke="midnightblue" d="M404,-112.083C404,-105.006 404,-94.8611 404,-85.9865"/>
<polygon fill="midnightblue" stroke="midnightblue" points="407.5,-85.751 404,-75.7511 400.5,-85.7511 407.5,-85.751"/>
</g>
<!-- Node2&#45;&gt;Node7 -->
<g id="edge10" class="edge"><title>Node2&#45;&gt;Node7</title>
<path fill="none" stroke="midnightblue" d="M422.082,-112.39C435.562,-104.872 452.972,-92.5651 461,-76 470.876,-55.6197 449.308,-36.6826 429.931,-24.5678"/>
<polygon fill="midnightblue" stroke="midnightblue" points="431.699,-21.547 421.304,-19.5009 428.154,-27.5831 431.699,-21.547"/>
</g>
<!-- Node8 -->
<g id="node8" class="node"><title>Node8</title>
<g id="a_node8"><a xlink:href="_signal_8h.html" target="_top" xlink:title="Signal.h">
<polygon fill="none" stroke="black" points="285,-56.5 285,-75.5 337,-75.5 337,-56.5 285,-56.5"/>
<text text-anchor="middle" x="311" y="-63.5" font-family="Helvetica,sans-Serif" font-size="10.00">Signal.h</text>
</a>
</g>
</g>
<!-- Node2&#45;&gt;Node8 -->
<g id="edge7" class="edge"><title>Node2&#45;&gt;Node8</title>
<path fill="none" stroke="midnightblue" d="M389.058,-112.324C374.415,-103.822 351.866,-90.7288 334.762,-80.7975"/>
<polygon fill="midnightblue" stroke="midnightblue" points="336.31,-77.6491 325.905,-75.6545 332.795,-83.7027 336.31,-77.6491"/>
</g>
<!-- Node9 -->
<g id="node9" class="node"><title>Node9</title>
<polygon fill="none" stroke="#bfbfbf" points="509.5,-56.5 509.5,-75.5 592.5,-75.5 592.5,-56.5 509.5,-56.5"/>
<text text-anchor="middle" x="551" y="-63.5" font-family="Helvetica,sans-Serif" font-size="10.00">unordered_map</text>
</g>
<!-- Node2&#45;&gt;Node9 -->
<g id="edge9" class="edge"><title>Node2&#45;&gt;Node9</title>
<path fill="none" stroke="midnightblue" d="M427.293,-112.444C451.807,-103.438 490.596,-89.1891 518.2,-79.049"/>
<polygon fill="midnightblue" stroke="midnightblue" points="519.637,-82.25 527.816,-75.5164 517.223,-75.6793 519.637,-82.25"/>
</g>
<!-- Node4 -->
<g id="node4" class="node"><title>Node4</title>
<polygon fill="none" stroke="#bfbfbf" points="233,-0.5 233,-19.5 285,-19.5 285,-0.5 233,-0.5"/>
<text text-anchor="middle" x="259" y="-7.5" font-family="Helvetica,sans-Serif" font-size="10.00">memory</text>
</g>
<!-- Node3&#45;&gt;Node4 -->
<g id="edge3" class="edge"><title>Node3&#45;&gt;Node4</title>
<path fill="none" stroke="midnightblue" d="M381.024,-56.4435C356.843,-47.4381 318.582,-33.1891 291.354,-23.049"/>
<polygon fill="midnightblue" stroke="midnightblue" points="292.461,-19.7265 281.868,-19.5164 290.018,-26.2864 292.461,-19.7265"/>
</g>
<!-- Node3&#45;&gt;Node5 -->
<g id="edge4" class="edge"><title>Node3&#45;&gt;Node5</title>
<path fill="none" stroke="midnightblue" d="M362.327,-56.4435C309.272,-45.5501 218.849,-26.9841 171.68,-17.2994"/>
<polygon fill="midnightblue" stroke="midnightblue" points="172.255,-13.8445 161.756,-15.2616 170.847,-20.7014 172.255,-13.8445"/>
</g>
<!-- Node3&#45;&gt;Node6 -->
<g id="edge5" class="edge"><title>Node3&#45;&gt;Node6</title>
<path fill="none" stroke="midnightblue" d="M428.877,-56.4435C456.567,-46.9198 501.307,-31.5314 530.935,-21.3407"/>
<polygon fill="midnightblue" stroke="midnightblue" points="532.415,-24.5332 540.733,-17.971 530.138,-17.9138 532.415,-24.5332"/>
</g>
<!-- Node3&#45;&gt;Node7 -->
<g id="edge6" class="edge"><title>Node3&#45;&gt;Node7</title>
<path fill="none" stroke="midnightblue" d="M404,-56.083C404,-49.0059 404,-38.8611 404,-29.9865"/>
<polygon fill="midnightblue" stroke="midnightblue" points="407.5,-29.751 404,-19.7511 400.5,-29.7511 407.5,-29.751"/>
</g>
<!-- Node8&#45;&gt;Node4 -->
<g id="edge8" class="edge"><title>Node8&#45;&gt;Node4</title>
<path fill="none" stroke="midnightblue" d="M302.413,-56.083C294.841,-48.2195 283.622,-36.5688 274.486,-27.0813"/>
<polygon fill="midnightblue" stroke="midnightblue" points="276.885,-24.5266 267.427,-19.7511 271.842,-29.3821 276.885,-24.5266"/>
</g>
<!-- Node10&#45;&gt;Node4 -->
<g id="edge12" class="edge"><title>Node10&#45;&gt;Node4</title>
<path fill="none" stroke="midnightblue" d="M46.6772,-60.2079C86.2931,-51.0265 173.341,-30.8524 222.796,-19.3907"/>
<polygon fill="midnightblue" stroke="midnightblue" points="223.796,-22.7517 232.748,-17.0842 222.216,-15.9324 223.796,-22.7517"/>
</g>
<!-- Node10&#45;&gt;Node5 -->
<g id="edge14" class="edge"><title>Node10&#45;&gt;Node5</title>
<path fill="none" stroke="midnightblue" d="M44.2221,-56.4435C62.8957,-47.6751 92.156,-33.9355 113.617,-23.8579"/>
<polygon fill="midnightblue" stroke="midnightblue" points="115.299,-26.935 122.863,-19.5164 112.324,-20.5988 115.299,-26.935"/>
</g>
<!-- Node11 -->
<g id="node11" class="node"><title>Node11</title>
<polygon fill="none" stroke="#bfbfbf" points="0,-0.5 0,-19.5 52,-19.5 52,-0.5 0,-0.5"/>
<text text-anchor="middle" x="26" y="-7.5" font-family="Helvetica,sans-Serif" font-size="10.00">sstream</text>
</g>
<!-- Node10&#45;&gt;Node11 -->
<g id="edge13" class="edge"><title>Node10&#45;&gt;Node11</title>
<path fill="none" stroke="midnightblue" d="M26,-56.083C26,-49.0059 26,-38.8611 26,-29.9865"/>
<polygon fill="midnightblue" stroke="midnightblue" points="29.5001,-29.751 26,-19.7511 22.5001,-29.7511 29.5001,-29.751"/>
</g>
<!-- Node12&#45;&gt;Node5 -->
<g id="edge16" class="edge"><title>Node12&#45;&gt;Node5</title>
<path fill="none" stroke="midnightblue" d="M217.379,-56.324C203.051,-47.8215 180.987,-34.7288 164.251,-24.7975"/>
<polygon fill="midnightblue" stroke="midnightblue" points="165.97,-21.7478 155.584,-19.6545 162.398,-27.7677 165.97,-21.7478"/>
</g>
<!-- Node12&#45;&gt;Node7 -->
<g id="edge17" class="edge"><title>Node12&#45;&gt;Node7</title>
<path fill="none" stroke="midnightblue" d="M259.254,-56.4435C289.854,-46.8366 339.461,-31.2622 371.91,-21.0749"/>
<polygon fill="midnightblue" stroke="midnightblue" points="373.304,-24.3057 381.796,-17.971 371.207,-17.6271 373.304,-24.3057"/>
</g>
<!-- Node13&#45;&gt;Node4 -->
<g id="edge19" class="edge"><title>Node13&#45;&gt;Node4</title>
<path fill="none" stroke="midnightblue" d="M159.697,-56.4435C178.944,-47.6356 209.152,-33.8116 231.2,-23.722"/>
<polygon fill="midnightblue" stroke="midnightblue" points="232.753,-26.8603 240.39,-19.5164 229.84,-20.4951 232.753,-26.8603"/>
</g>
<!-- Node13&#45;&gt;Node5 -->
<g id="edge20" class="edge"><title>Node13&#45;&gt;Node5</title>
<path fill="none" stroke="midnightblue" d="M141,-56.083C141,-49.0059 141,-38.8611 141,-29.9865"/>
<polygon fill="midnightblue" stroke="midnightblue" points="144.5,-29.751 141,-19.7511 137.5,-29.7511 144.5,-29.751"/>
</g>
<!-- Node13&#45;&gt;Node7 -->
<g id="edge21" class="edge"><title>Node13&#45;&gt;Node7</title>
<path fill="none" stroke="midnightblue" d="M178.681,-57.2631C230.553,-46.6127 323.063,-27.6182 371.847,-17.6018"/>
<polygon fill="midnightblue" stroke="midnightblue" points="372.754,-20.9886 381.846,-15.5488 371.346,-14.1316 372.754,-20.9886"/>
</g>
</g>
</svg>
