<?xml version="1.0" encoding="UTF-8" standalone="no"?>
<!DOCTYPE svg PUBLIC "-//W3C//DTD SVG 1.1//EN"
 "http://www.w3.org/Graphics/SVG/1.1/DTD/svg11.dtd">
<!-- Generated by graphviz version 2.36.0 (20140111.2315)
 -->
<!-- Title: /home/travis/build/robotology/wb&#45;toolbox/toolbox/include/base/CoderBlockInformation.h Pages: 1 -->
<svg width="325pt" height="174pt"
 viewBox="0.00 0.00 325.00 174.00" xmlns="http://www.w3.org/2000/svg" xmlns:xlink="http://www.w3.org/1999/xlink">
<g id="graph0" class="graph" transform="scale(1 1) rotate(0) translate(4 170)">
<title>/home/travis/build/robotology/wb&#45;toolbox/toolbox/include/base/CoderBlockInformation.h</title>
<!-- Node1 -->
<g id="node1" class="node"><title>Node1</title>
<polygon fill="#bfbfbf" stroke="black" points="103,-113 103,-165 231,-165 231,-113 103,-113"/>
<text text-anchor="start" x="111" y="-153" font-family="Helvetica,sans-Serif" font-size="10.00">/home/travis/build</text>
<text text-anchor="start" x="111" y="-142" font-family="Helvetica,sans-Serif" font-size="10.00">/robotology/wb&#45;toolbox</text>
<text text-anchor="start" x="111" y="-131" font-family="Helvetica,sans-Serif" font-size="10.00">/toolbox/include/base</text>
<text text-anchor="middle" x="167" y="-120" font-family="Helvetica,sans-Serif" font-size="10.00">/CoderBlockInformation.h</text>
</g>
<!-- Node2 -->
<g id="node2" class="node"><title>Node2</title>
<g id="a_node2"><a xlink:href="_block_information_8h.html" target="_top" xlink:title="BlockInformation.h">
<polygon fill="none" stroke="black" points="80,-56.5 80,-75.5 178,-75.5 178,-56.5 80,-56.5"/>
<text text-anchor="middle" x="129" y="-63.5" font-family="Helvetica,sans-Serif" font-size="10.00">BlockInformation.h</text>
</a>
</g>
</g>
<!-- Node1&#45;&gt;Node2 -->
<g id="edge1" class="edge"><title>Node1&#45;&gt;Node2</title>
<path fill="none" stroke="midnightblue" d="M153.496,-112.768C148.528,-103.486 143.012,-93.1794 138.473,-84.7004"/>
<polygon fill="midnightblue" stroke="midnightblue" points="141.492,-82.9222 133.687,-75.7572 135.32,-86.2254 141.492,-82.9222"/>
</g>
<!-- Node6 -->
<g id="node6" class="node"><title>Node6</title>
<polygon fill="none" stroke="#bfbfbf" points="188,-0.5 188,-19.5 232,-19.5 232,-0.5 188,-0.5"/>
<text text-anchor="middle" x="210" y="-7.5" font-family="Helvetica,sans-Serif" font-size="10.00">vector</text>
</g>
<!-- Node1&#45;&gt;Node6 -->
<g id="edge9" class="edge"><title>Node1&#45;&gt;Node6</title>
<path fill="none" stroke="midnightblue" d="M175.495,-112.909C183.829,-88.2964 196.337,-51.3524 203.783,-29.3617"/>
<polygon fill="midnightblue" stroke="midnightblue" points="207.187,-30.2221 207.079,-19.6278 200.557,-27.9772 207.187,-30.2221"/>
</g>
<!-- Node7 -->
<g id="node7" class="node"><title>Node7</title>
<g id="a_node7"><a xlink:href="_signal_8h.html" target="_top" xlink:title="Signal.h">
<polygon fill="none" stroke="black" points="3,-56.5 3,-75.5 55,-75.5 55,-56.5 3,-56.5"/>
<text text-anchor="middle" x="29" y="-63.5" font-family="Helvetica,sans-Serif" font-size="10.00">Signal.h</text>
</a>
</g>
</g>
<!-- Node1&#45;&gt;Node7 -->
<g id="edge6" class="edge"><title>Node1&#45;&gt;Node7</title>
<path fill="none" stroke="midnightblue" d="M118.346,-112.968C97.0016,-101.986 72.8041,-89.5369 54.9794,-80.3662"/>
<polygon fill="midnightblue" stroke="midnightblue" points="56.2845,-77.1016 45.7911,-75.6389 53.082,-83.3261 56.2845,-77.1016"/>
</g>
<!-- Node8 -->
<g id="node8" class="node"><title>Node8</title>
<polygon fill="none" stroke="#bfbfbf" points="234.5,-56.5 234.5,-75.5 317.5,-75.5 317.5,-56.5 234.5,-56.5"/>
<text text-anchor="middle" x="276" y="-63.5" font-family="Helvetica,sans-Serif" font-size="10.00">unordered_map</text>
</g>
<!-- Node1&#45;&gt;Node8 -->
<g id="edge8" class="edge"><title>Node1&#45;&gt;Node8</title>
<path fill="none" stroke="midnightblue" d="M205.429,-112.968C221.82,-102.291 240.341,-90.2274 254.295,-81.1379"/>
<polygon fill="midnightblue" stroke="midnightblue" points="256.269,-84.0296 262.737,-75.6389 252.448,-78.1642 256.269,-84.0296"/>
</g>
<!-- Node3 -->
<g id="node3" class="node"><title>Node3</title>
<polygon fill="none" stroke="#bfbfbf" points="0,-0.5 0,-19.5 52,-19.5 52,-0.5 0,-0.5"/>
<text text-anchor="middle" x="26" y="-7.5" font-family="Helvetica,sans-Serif" font-size="10.00">memory</text>
</g>
<!-- Node2&#45;&gt;Node3 -->
<g id="edge2" class="edge"><title>Node2&#45;&gt;Node3</title>
<path fill="none" stroke="midnightblue" d="M112.451,-56.324C96.0084,-47.7034 70.5652,-34.3643 51.5316,-24.3855"/>
<polygon fill="midnightblue" stroke="midnightblue" points="52.9895,-21.198 42.5077,-19.6545 49.7391,-27.3977 52.9895,-21.198"/>
</g>
<!-- Node4 -->
<g id="node4" class="node"><title>Node4</title>
<polygon fill="none" stroke="#bfbfbf" points="70.5,-0.5 70.5,-19.5 111.5,-19.5 111.5,-0.5 70.5,-0.5"/>
<text text-anchor="middle" x="91" y="-7.5" font-family="Helvetica,sans-Serif" font-size="10.00">string</text>
</g>
<!-- Node2&#45;&gt;Node4 -->
<g id="edge3" class="edge"><title>Node2&#45;&gt;Node4</title>
<path fill="none" stroke="midnightblue" d="M122.725,-56.083C117.358,-48.4554 109.482,-37.2645 102.921,-27.9408"/>
<polygon fill="midnightblue" stroke="midnightblue" points="105.775,-25.9149 97.1582,-19.7511 100.051,-29.9434 105.775,-25.9149"/>
</g>
<!-- Node5 -->
<g id="node5" class="node"><title>Node5</title>
<polygon fill="none" stroke="#bfbfbf" points="130,-0.5 130,-19.5 170,-19.5 170,-0.5 130,-0.5"/>
<text text-anchor="middle" x="150" y="-7.5" font-family="Helvetica,sans-Serif" font-size="10.00">utility</text>
</g>
<!-- Node2&#45;&gt;Node5 -->
<g id="edge4" class="edge"><title>Node2&#45;&gt;Node5</title>
<path fill="none" stroke="midnightblue" d="M132.468,-56.083C135.312,-48.77 139.429,-38.1814 142.96,-29.1034"/>
<polygon fill="midnightblue" stroke="midnightblue" points="146.234,-30.3397 146.597,-19.7511 139.71,-27.8025 146.234,-30.3397"/>
</g>
<!-- Node2&#45;&gt;Node6 -->
<g id="edge5" class="edge"><title>Node2&#45;&gt;Node6</title>
<path fill="none" stroke="midnightblue" d="M142.014,-56.324C154.532,-47.979 173.682,-35.2122 188.471,-25.3524"/>
<polygon fill="midnightblue" stroke="midnightblue" points="190.639,-28.1137 197.018,-19.6545 186.756,-22.2894 190.639,-28.1137"/>
</g>
<!-- Node7&#45;&gt;Node3 -->
<g id="edge7" class="edge"><title>Node7&#45;&gt;Node3</title>
<path fill="none" stroke="midnightblue" d="M28.5046,-56.083C28.1114,-49.0059 27.5478,-38.8611 27.0548,-29.9865"/>
<polygon fill="midnightblue" stroke="midnightblue" points="30.5356,-29.5415 26.4862,-19.7511 23.5464,-29.9299 30.5356,-29.5415"/>
</g>
</g>
</svg>
