<?xml version="1.0" encoding="UTF-8" standalone="no"?>
<!DOCTYPE svg PUBLIC "-//W3C//DTD SVG 1.1//EN"
 "http://www.w3.org/Graphics/SVG/1.1/DTD/svg11.dtd">
<!-- Generated by graphviz version 2.36.0 (20140111.2315)
 -->
<!-- Title: /home/travis/build/robotology/wb&#45;toolbox/toolbox/include/base/CoderBlockInformation.h Pages: 1 -->
<svg width="340pt" height="174pt"
 viewBox="0.00 0.00 340.00 174.00" xmlns="http://www.w3.org/2000/svg" xmlns:xlink="http://www.w3.org/1999/xlink">
<g id="graph0" class="graph" transform="scale(1 1) rotate(0) translate(4 170)">
<title>/home/travis/build/robotology/wb&#45;toolbox/toolbox/include/base/CoderBlockInformation.h</title>
<!-- Node1 -->
<g id="node1" class="node"><title>Node1</title>
<polygon fill="#bfbfbf" stroke="black" points="109,-113 109,-165 237,-165 237,-113 109,-113"/>
<text text-anchor="start" x="117" y="-153" font-family="Helvetica,sans-Serif" font-size="10.00">/home/travis/build</text>
<text text-anchor="start" x="117" y="-142" font-family="Helvetica,sans-Serif" font-size="10.00">/robotology/wb&#45;toolbox</text>
<text text-anchor="start" x="117" y="-131" font-family="Helvetica,sans-Serif" font-size="10.00">/toolbox/include/base</text>
<text text-anchor="middle" x="173" y="-120" font-family="Helvetica,sans-Serif" font-size="10.00">/CoderBlockInformation.h</text>
</g>
<!-- Node2 -->
<g id="node2" class="node"><title>Node2</title>
<g id="a_node2"><a xlink:href="_block_information_8h.html" target="_top" xlink:title="BlockInformation.h">
<polygon fill="none" stroke="black" points="70,-56.5 70,-75.5 168,-75.5 168,-56.5 70,-56.5"/>
<text text-anchor="middle" x="119" y="-63.5" font-family="Helvetica,sans-Serif" font-size="10.00">BlockInformation.h</text>
</a>
</g>
</g>
<!-- Node1&#45;&gt;Node2 -->
<g id="edge1" class="edge"><title>Node1&#45;&gt;Node2</title>
<path fill="none" stroke="midnightblue" d="M153.81,-112.768C146.52,-103.183 138.399,-92.5062 131.836,-83.8768"/>
<polygon fill="midnightblue" stroke="midnightblue" points="134.5,-81.5978 125.66,-75.7572 128.928,-85.8354 134.5,-81.5978"/>
</g>
<!-- Node6 -->
<g id="node6" class="node"><title>Node6</title>
<g id="a_node6"><a xlink:href="_signal_8h.html" target="_top" xlink:title="Signal.h">
<polygon fill="none" stroke="black" points="0,-56.5 0,-75.5 52,-75.5 52,-56.5 0,-56.5"/>
<text text-anchor="middle" x="26" y="-63.5" font-family="Helvetica,sans-Serif" font-size="10.00">Signal.h</text>
</a>
</g>
</g>
<!-- Node1&#45;&gt;Node6 -->
<g id="edge5" class="edge"><title>Node1&#45;&gt;Node6</title>
<path fill="none" stroke="midnightblue" d="M121.173,-112.968C98.226,-101.885 72.1833,-89.3062 53.1481,-80.1123"/>
<polygon fill="midnightblue" stroke="midnightblue" points="54.4131,-76.8365 43.8861,-75.6389 51.3686,-83.1398 54.4131,-76.8365"/>
</g>
<!-- Node7 -->
<g id="node7" class="node"><title>Node7</title>
<polygon fill="none" stroke="#bfbfbf" points="186.5,-56.5 186.5,-75.5 269.5,-75.5 269.5,-56.5 186.5,-56.5"/>
<text text-anchor="middle" x="228" y="-63.5" font-family="Helvetica,sans-Serif" font-size="10.00">unordered_map</text>
</g>
<!-- Node1&#45;&gt;Node7 -->
<g id="edge7" class="edge"><title>Node1&#45;&gt;Node7</title>
<path fill="none" stroke="midnightblue" d="M192.546,-112.768C199.971,-103.183 208.242,-92.5062 214.926,-83.8768"/>
<polygon fill="midnightblue" stroke="midnightblue" points="217.859,-85.8061 221.216,-75.7572 212.325,-81.5193 217.859,-85.8061"/>
</g>
<!-- Node8 -->
<g id="node8" class="node"><title>Node8</title>
<polygon fill="none" stroke="#bfbfbf" points="288,-56.5 288,-75.5 332,-75.5 332,-56.5 288,-56.5"/>
<text text-anchor="middle" x="310" y="-63.5" font-family="Helvetica,sans-Serif" font-size="10.00">vector</text>
</g>
<!-- Node1&#45;&gt;Node8 -->
<g id="edge8" class="edge"><title>Node1&#45;&gt;Node8</title>
<path fill="none" stroke="midnightblue" d="M221.301,-112.968C242.491,-101.986 266.513,-89.5369 284.209,-80.3662"/>
<polygon fill="midnightblue" stroke="midnightblue" points="286.063,-83.3477 293.331,-75.6389 282.842,-77.1327 286.063,-83.3477"/>
</g>
<!-- Node3 -->
<g id="node3" class="node"><title>Node3</title>
<polygon fill="none" stroke="#bfbfbf" points="14,-0.5 14,-19.5 66,-19.5 66,-0.5 14,-0.5"/>
<text text-anchor="middle" x="40" y="-7.5" font-family="Helvetica,sans-Serif" font-size="10.00">memory</text>
</g>
<!-- Node2&#45;&gt;Node3 -->
<g id="edge2" class="edge"><title>Node2&#45;&gt;Node3</title>
<path fill="none" stroke="midnightblue" d="M106.307,-56.324C94.0989,-47.979 75.4215,-35.2122 60.9971,-25.3524"/>
<polygon fill="midnightblue" stroke="midnightblue" points="62.892,-22.4082 52.6612,-19.6545 58.9418,-28.1871 62.892,-22.4082"/>
</g>
<!-- Node4 -->
<g id="node4" class="node"><title>Node4</title>
<polygon fill="none" stroke="#bfbfbf" points="91.5,-0.5 91.5,-19.5 132.5,-19.5 132.5,-0.5 91.5,-0.5"/>
<text text-anchor="middle" x="112" y="-7.5" font-family="Helvetica,sans-Serif" font-size="10.00">string</text>
</g>
<!-- Node2&#45;&gt;Node4 -->
<g id="edge3" class="edge"><title>Node2&#45;&gt;Node4</title>
<path fill="none" stroke="midnightblue" d="M117.844,-56.083C116.916,-48.9272 115.582,-38.6353 114.423,-29.6911"/>
<polygon fill="midnightblue" stroke="midnightblue" points="117.891,-29.2181 113.134,-19.7511 110.949,-30.1181 117.891,-29.2181"/>
</g>
<!-- Node5 -->
<g id="node5" class="node"><title>Node5</title>
<polygon fill="none" stroke="#bfbfbf" points="151,-0.5 151,-19.5 191,-19.5 191,-0.5 151,-0.5"/>
<text text-anchor="middle" x="171" y="-7.5" font-family="Helvetica,sans-Serif" font-size="10.00">utility</text>
</g>
<!-- Node2&#45;&gt;Node5 -->
<g id="edge4" class="edge"><title>Node2&#45;&gt;Node5</title>
<path fill="none" stroke="midnightblue" d="M127.587,-56.083C135.159,-48.2195 146.378,-36.5688 155.514,-27.0813"/>
<polygon fill="midnightblue" stroke="midnightblue" points="158.158,-29.3821 162.573,-19.7511 153.115,-24.5266 158.158,-29.3821"/>
</g>
<!-- Node6&#45;&gt;Node3 -->
<g id="edge6" class="edge"><title>Node6&#45;&gt;Node3</title>
<path fill="none" stroke="midnightblue" d="M28.3118,-56.083C30.167,-48.9272 32.8353,-38.6353 35.1542,-29.6911"/>
<polygon fill="midnightblue" stroke="midnightblue" points="38.6095,-30.3094 37.7312,-19.7511 31.8335,-28.5527 38.6095,-30.3094"/>
</g>
</g>
</svg>
