<?xml version="1.0" encoding="UTF-8" standalone="no"?>
<!DOCTYPE svg PUBLIC "-//W3C//DTD SVG 1.1//EN"
 "http://www.w3.org/Graphics/SVG/1.1/DTD/svg11.dtd">
<!-- Generated by graphviz version 2.36.0 (20140111.2315)
 -->
<!-- Title: /home/travis/build/robotology/wb&#45;toolbox/toolbox/src/base/CoderBlockInformation.cpp Pages: 1 -->
<!--zoomable 230 -->
<svg id="main" version="1.1" xmlns="http://www.w3.org/2000/svg" xmlns:xlink="http://www.w3.org/1999/xlink" xml:space="preserve" onload="init(evt)">
<style type="text/css"><![CDATA[
.edge:hover path { stroke: red; }
.edge:hover polygon { stroke: red; fill: red; }
]]></style>
<script type="text/javascript"><![CDATA[
var edges = document.getElementsByTagName('g');
if (edges && edges.length) {
  for (var i=0;i<edges.length;i++) {
    if (edges[i].id.substr(0,4)=='edge') {
      edges[i].setAttribute('class','edge');
    }
  }
}
]]></script>
        <defs>
                <circle id="rim" cx="0" cy="0" r="7"/>
                <circle id="rim2" cx="0" cy="0" r="3.5"/>
                <g id="zoomPlus">
                        <use xlink:href="#rim" fill="#404040">
                                <set attributeName="fill" to="#808080" begin="zoomplus.mouseover" end="zoomplus.mouseout"/>
                        </use>
                        <path d="M-4,0h8M0,-4v8" fill="none" stroke="white" stroke-width="1.5" pointer-events="none"/>
                </g>
                <g id="zoomMin">
                        <use xlink:href="#rim" fill="#404040">
                                <set attributeName="fill" to="#808080" begin="zoomminus.mouseover" end="zoomminus.mouseout"/>
                        </use>
                        <path d="M-4,0h8" fill="none" stroke="white" stroke-width="1.5" pointer-events="none"/>
                </g>
                <g id="dirArrow">
                        <path fill="none" stroke="white" stroke-width="1.5" d="M0,-3.0v7 M-2.5,-0.5L0,-3.0L2.5,-0.5"/>
                </g>
               <g id="resetDef">
                       <use xlink:href="#rim2" fill="#404040">
                               <set attributeName="fill" to="#808080" begin="reset.mouseover" end="reset.mouseout"/>
                       </use>
               </g>
        </defs>

<script type="text/javascript">
var viewWidth = 688;
var viewHeight = 230;
var sectionId = 'dynsection-0';
</script>
<script xlink:href="svgpan.js"/>
<svg id="graph" class="graph">
<g id="viewport">
<title>/home/travis/build/robotology/wb&#45;toolbox/toolbox/src/base/CoderBlockInformation.cpp</title>
<!-- Node1 -->
<g id="node1" class="node"><title>Node1</title>
<polygon fill="#bfbfbf" stroke="black" points="393,-169 393,-221 539,-221 539,-169 393,-169"/>
<text text-anchor="start" x="401" y="-209" font-family="Helvetica,sans-Serif" font-size="10.00">/home/travis/build</text>
<text text-anchor="start" x="401" y="-198" font-family="Helvetica,sans-Serif" font-size="10.00">/robotology/wb&#45;toolbox</text>
<text text-anchor="start" x="401" y="-187" font-family="Helvetica,sans-Serif" font-size="10.00">/toolbox/src/base/CoderBlock</text>
<text text-anchor="middle" x="466" y="-176" font-family="Helvetica,sans-Serif" font-size="10.00">Information.cpp</text>
</g>
<!-- Node2 -->
<g id="node2" class="node"><title>Node2</title>
<g id="a_node2"><a xlink:href="_coder_block_information_8h.html" target="_top" xlink:title="CoderBlockInformation.h">
<polygon fill="none" stroke="black" points="279.5,-112.5 279.5,-131.5 404.5,-131.5 404.5,-112.5 279.5,-112.5"/>
<text text-anchor="middle" x="342" y="-119.5" font-family="Helvetica,sans-Serif" font-size="10.00">CoderBlockInformation.h</text>
</a>
</g>
</g>
<!-- Node1&#45;&gt;Node2 -->
<g id="edge1" class="edge"><title>Node1&#45;&gt;Node2</title>
<path fill="none" stroke="midnightblue" d="M422.282,-168.968C403.28,-158.088 381.763,-145.767 365.79,-136.622"/>
<polygon fill="midnightblue" stroke="midnightblue" points="367.505,-133.571 357.088,-131.639 364.027,-139.645 367.505,-133.571"/>
</g>
<!-- Node5 -->
<g id="node5" class="node"><title>Node5</title>
<polygon fill="none" stroke="#bfbfbf" points="417.5,-0.5 417.5,-19.5 458.5,-19.5 458.5,-0.5 417.5,-0.5"/>
<text text-anchor="middle" x="438" y="-7.5" font-family="Helvetica,sans-Serif" font-size="10.00">string</text>
</g>
<!-- Node1&#45;&gt;Node5 -->
<g id="edge25" class="edge"><title>Node1&#45;&gt;Node5</title>
<path fill="none" stroke="midnightblue" d="M458.994,-168.877C456.22,-157.686 453.37,-144.283 452,-132 448.249,-98.3577 463.717,-89.1777 457,-56 455.107,-46.6493 451.208,-36.8267 447.433,-28.7526"/>
<polygon fill="midnightblue" stroke="midnightblue" points="450.475,-27.0106 442.876,-19.6279 444.212,-30.1381 450.475,-27.0106"/>
</g>
<!-- Node6 -->
<g id="node6" class="node"><title>Node6</title>
<polygon fill="none" stroke="#bfbfbf" points="593,-0.5 593,-19.5 633,-19.5 633,-0.5 593,-0.5"/>
<text text-anchor="middle" x="613" y="-7.5" font-family="Helvetica,sans-Serif" font-size="10.00">utility</text>
</g>
<!-- Node1&#45;&gt;Node6 -->
<g id="edge26" class="edge"><title>Node1&#45;&gt;Node6</title>
<path fill="none" stroke="midnightblue" d="M539.219,-181.451C591.683,-170.794 655.818,-153.769 672,-132 697.54,-97.6422 656.323,-50.5025 630.807,-26.4632"/>
<polygon fill="midnightblue" stroke="midnightblue" points="632.929,-23.6614 623.179,-19.5154 628.215,-28.8366 632.929,-23.6614"/>
</g>
<!-- Node9 -->
<g id="node9" class="node"><title>Node9</title>
<polygon fill="none" stroke="#bfbfbf" points="543,-56.5 543,-75.5 587,-75.5 587,-56.5 543,-56.5"/>
<text text-anchor="middle" x="565" y="-63.5" font-family="Helvetica,sans-Serif" font-size="10.00">vector</text>
</g>
<!-- Node1&#45;&gt;Node9 -->
<g id="edge27" class="edge"><title>Node1&#45;&gt;Node9</title>
<path fill="none" stroke="midnightblue" d="M507.256,-168.999C520.914,-158.974 535.128,-146.37 545,-132 554.506,-118.163 559.622,-99.6446 562.292,-85.9139"/>
<polygon fill="midnightblue" stroke="midnightblue" points="565.801,-86.1551 564.003,-75.7139 558.897,-84.9974 565.801,-86.1551"/>
</g>
<!-- Node10 -->
<g id="node10" class="node"><title>Node10</title>
<g id="a_node10"><a xlink:href="_log_8h.html" target="_top" xlink:title="Log.h">
<polygon fill="none" stroke="black" points="5.5,-56.5 5.5,-75.5 46.5,-75.5 46.5,-56.5 5.5,-56.5"/>
<text text-anchor="middle" x="26" y="-63.5" font-family="Helvetica,sans-Serif" font-size="10.00">Log.h</text>
</a>
</g>
</g>
<!-- Node1&#45;&gt;Node10 -->
<g id="edge10" class="edge"><title>Node1&#45;&gt;Node10</title>
<path fill="none" stroke="midnightblue" d="M392.66,-192.524C317.105,-188.518 197.508,-175.132 104,-132 78.8797,-120.413 55.2452,-98.6045 40.7154,-83.4615"/>
<polygon fill="midnightblue" stroke="midnightblue" points="43.0017,-80.7805 33.6284,-75.8417 37.876,-85.5478 43.0017,-80.7805"/>
</g>
<!-- Node12 -->
<g id="node12" class="node"><title>Node12</title>
<g id="a_node12"><a xlink:href="_parameter_8h.html" target="_top" xlink:title="Parameter.h">
<polygon fill="none" stroke="black" points="593,-112.5 593,-131.5 663,-131.5 663,-112.5 593,-112.5"/>
<text text-anchor="middle" x="628" y="-119.5" font-family="Helvetica,sans-Serif" font-size="10.00">Parameter.h</text>
</a>
</g>
</g>
<!-- Node1&#45;&gt;Node12 -->
<g id="edge14" class="edge"><title>Node1&#45;&gt;Node12</title>
<path fill="none" stroke="midnightblue" d="M523.115,-168.968C548.752,-157.732 577.895,-144.96 598.943,-135.735"/>
<polygon fill="midnightblue" stroke="midnightblue" points="600.535,-138.859 608.289,-131.639 597.725,-132.447 600.535,-138.859"/>
</g>
<!-- Node13 -->
<g id="node13" class="node"><title>Node13</title>
<g id="a_node13"><a xlink:href="_parameters_8h.html" target="_top" xlink:title="Parameters.h">
<polygon fill="none" stroke="black" points="461.5,-112.5 461.5,-131.5 536.5,-131.5 536.5,-112.5 461.5,-112.5"/>
<text text-anchor="middle" x="499" y="-119.5" font-family="Helvetica,sans-Serif" font-size="10.00">Parameters.h</text>
</a>
</g>
</g>
<!-- Node1&#45;&gt;Node13 -->
<g id="edge17" class="edge"><title>Node1&#45;&gt;Node13</title>
<path fill="none" stroke="midnightblue" d="M477.727,-168.768C481.995,-159.587 486.728,-149.403 490.644,-140.978"/>
<polygon fill="midnightblue" stroke="midnightblue" points="493.889,-142.301 494.93,-131.757 487.541,-139.35 493.889,-142.301"/>
</g>
<!-- Node14 -->
<g id="node14" class="node"><title>Node14</title>
<g id="a_node14"><a xlink:href="_toolbox_singleton_8h.html" target="_top" xlink:title="ToolboxSingleton.h">
<polygon fill="none" stroke="black" points="113,-112.5 113,-131.5 213,-131.5 213,-112.5 113,-112.5"/>
<text text-anchor="middle" x="163" y="-119.5" font-family="Helvetica,sans-Serif" font-size="10.00">ToolboxSingleton.h</text>
</a>
</g>
</g>
<!-- Node1&#45;&gt;Node14 -->
<g id="edge21" class="edge"><title>Node1&#45;&gt;Node14</title>
<path fill="none" stroke="midnightblue" d="M392.652,-176.813C335.586,-163.441 258.148,-145.295 209.376,-133.867"/>
<polygon fill="midnightblue" stroke="midnightblue" points="209.957,-130.408 199.422,-131.534 208.36,-137.224 209.957,-130.408"/>
</g>
<!-- Node3 -->
<g id="node3" class="node"><title>Node3</title>
<g id="a_node3"><a xlink:href="_block_information_8h.html" target="_top" xlink:title="BlockInformation.h">
<polygon fill="none" stroke="black" points="351,-56.5 351,-75.5 449,-75.5 449,-56.5 351,-56.5"/>
<text text-anchor="middle" x="400" y="-63.5" font-family="Helvetica,sans-Serif" font-size="10.00">BlockInformation.h</text>
</a>
</g>
</g>
<!-- Node2&#45;&gt;Node3 -->
<g id="edge2" class="edge"><title>Node2&#45;&gt;Node3</title>
<path fill="none" stroke="midnightblue" d="M351.319,-112.324C359.893,-104.341 372.812,-92.3128 383.188,-82.6529"/>
<polygon fill="midnightblue" stroke="midnightblue" points="385.578,-85.2098 390.512,-75.8339 380.808,-80.0865 385.578,-85.2098"/>
</g>
<!-- Node7 -->
<g id="node7" class="node"><title>Node7</title>
<g id="a_node7"><a xlink:href="_signal_8h.html" target="_top" xlink:title="Signal.h">
<polygon fill="none" stroke="black" points="243,-56.5 243,-75.5 295,-75.5 295,-56.5 243,-56.5"/>
<text text-anchor="middle" x="269" y="-63.5" font-family="Helvetica,sans-Serif" font-size="10.00">Signal.h</text>
</a>
</g>
</g>
<!-- Node2&#45;&gt;Node7 -->
<g id="edge6" class="edge"><title>Node2&#45;&gt;Node7</title>
<path fill="none" stroke="midnightblue" d="M330.271,-112.324C319.163,-104.107 302.258,-91.6017 289.017,-81.8069"/>
<polygon fill="midnightblue" stroke="midnightblue" points="291.063,-78.9671 280.942,-75.8339 286.9,-84.5948 291.063,-78.9671"/>
</g>
<!-- Node8 -->
<g id="node8" class="node"><title>Node8</title>
<polygon fill="none" stroke="#bfbfbf" points="141.5,-56.5 141.5,-75.5 224.5,-75.5 224.5,-56.5 141.5,-56.5"/>
<text text-anchor="middle" x="183" y="-63.5" font-family="Helvetica,sans-Serif" font-size="10.00">unordered_map</text>
</g>
<!-- Node2&#45;&gt;Node8 -->
<g id="edge8" class="edge"><title>Node2&#45;&gt;Node8</title>
<path fill="none" stroke="midnightblue" d="M316.806,-112.444C290.057,-103.359 247.597,-88.9388 217.695,-78.7831"/>
<polygon fill="midnightblue" stroke="midnightblue" points="218.671,-75.4182 208.076,-75.5164 216.419,-82.0464 218.671,-75.4182"/>
</g>
<!-- Node2&#45;&gt;Node9 -->
<g id="edge9" class="edge"><title>Node2&#45;&gt;Node9</title>
<path fill="none" stroke="midnightblue" d="M377.335,-112.444C420.131,-102.08 491.603,-84.7732 532.893,-74.7747"/>
<polygon fill="midnightblue" stroke="midnightblue" points="533.809,-78.1541 542.705,-72.3989 532.162,-71.3508 533.809,-78.1541"/>
</g>
<!-- Node4 -->
<g id="node4" class="node"><title>Node4</title>
<polygon fill="none" stroke="#bfbfbf" points="243,-0.5 243,-19.5 295,-19.5 295,-0.5 243,-0.5"/>
<text text-anchor="middle" x="269" y="-7.5" font-family="Helvetica,sans-Serif" font-size="10.00">memory</text>
</g>
<!-- Node3&#45;&gt;Node4 -->
<g id="edge3" class="edge"><title>Node3&#45;&gt;Node4</title>
<path fill="none" stroke="midnightblue" d="M379.243,-56.4435C357.684,-47.5566 323.737,-33.5632 299.206,-23.4514"/>
<polygon fill="midnightblue" stroke="midnightblue" points="300.239,-20.0917 289.66,-19.5164 297.572,-26.5634 300.239,-20.0917"/>
</g>
<!-- Node3&#45;&gt;Node5 -->
<g id="edge4" class="edge"><title>Node3&#45;&gt;Node5</title>
<path fill="none" stroke="midnightblue" d="M406.275,-56.083C411.642,-48.4554 419.518,-37.2645 426.079,-27.9408"/>
<polygon fill="midnightblue" stroke="midnightblue" points="428.949,-29.9434 431.842,-19.7511 423.225,-25.9149 428.949,-29.9434"/>
</g>
<!-- Node3&#45;&gt;Node6 -->
<g id="edge5" class="edge"><title>Node3&#45;&gt;Node6</title>
<path fill="none" stroke="midnightblue" d="M433.75,-56.4435C474.885,-46.015 543.756,-28.5549 583.075,-18.5866"/>
<polygon fill="midnightblue" stroke="midnightblue" points="584.034,-21.9543 592.867,-16.1041 582.314,-15.169 584.034,-21.9543"/>
</g>
<!-- Node7&#45;&gt;Node4 -->
<g id="edge7" class="edge"><title>Node7&#45;&gt;Node4</title>
<path fill="none" stroke="midnightblue" d="M269,-56.083C269,-49.0059 269,-38.8611 269,-29.9865"/>
<polygon fill="midnightblue" stroke="midnightblue" points="272.5,-29.751 269,-19.7511 265.5,-29.7511 272.5,-29.751"/>
</g>
<!-- Node10&#45;&gt;Node4 -->
<g id="edge11" class="edge"><title>Node10&#45;&gt;Node4</title>
<path fill="none" stroke="midnightblue" d="M46.6954,-59.5373C51.3901,-58.3374 56.3599,-57.0981 61,-56 121.158,-41.7637 191.532,-26.9135 233.07,-18.3335"/>
<polygon fill="midnightblue" stroke="midnightblue" points="233.897,-21.7367 242.986,-16.2914 232.485,-14.8806 233.897,-21.7367"/>
</g>
<!-- Node10&#45;&gt;Node5 -->
<g id="edge13" class="edge"><title>Node10&#45;&gt;Node5</title>
<path fill="none" stroke="midnightblue" d="M46.7135,-62.2851C114.039,-53.4609 326.954,-25.5546 407.092,-15.0511"/>
<polygon fill="midnightblue" stroke="midnightblue" points="408.029,-18.4582 417.49,-13.6883 407.12,-11.5176 408.029,-18.4582"/>
</g>
<!-- Node11 -->
<g id="node11" class="node"><title>Node11</title>
<polygon fill="none" stroke="#bfbfbf" points="0,-0.5 0,-19.5 52,-19.5 52,-0.5 0,-0.5"/>
<text text-anchor="middle" x="26" y="-7.5" font-family="Helvetica,sans-Serif" font-size="10.00">sstream</text>
</g>
<!-- Node10&#45;&gt;Node11 -->
<g id="edge12" class="edge"><title>Node10&#45;&gt;Node11</title>
<path fill="none" stroke="midnightblue" d="M26,-56.083C26,-49.0059 26,-38.8611 26,-29.9865"/>
<polygon fill="midnightblue" stroke="midnightblue" points="29.5001,-29.751 26,-19.7511 22.5001,-29.7511 29.5001,-29.751"/>
</g>
<!-- Node12&#45;&gt;Node5 -->
<g id="edge15" class="edge"><title>Node12&#45;&gt;Node5</title>
<path fill="none" stroke="midnightblue" d="M626.019,-112.439C622.348,-98.5081 613.154,-70.9853 595,-56 558.694,-26.0308 503.442,-16.0069 469.091,-12.6628"/>
<polygon fill="midnightblue" stroke="midnightblue" points="468.98,-9.14133 458.723,-11.7949 468.396,-16.1169 468.98,-9.14133"/>
</g>
<!-- Node12&#45;&gt;Node9 -->
<g id="edge16" class="edge"><title>Node12&#45;&gt;Node9</title>
<path fill="none" stroke="midnightblue" d="M617.878,-112.324C608.474,-104.263 594.256,-92.0765 582.931,-82.3695"/>
<polygon fill="midnightblue" stroke="midnightblue" points="585.177,-79.6844 575.306,-75.8339 580.621,-84.9993 585.177,-79.6844"/>
</g>
<!-- Node13&#45;&gt;Node4 -->
<g id="edge18" class="edge"><title>Node13&#45;&gt;Node4</title>
<path fill="none" stroke="midnightblue" d="M461.337,-115.108C428.341,-108.833 379.878,-96.8564 342,-76 318.887,-63.2736 296.921,-42.0286 283.235,-27.3073"/>
<polygon fill="midnightblue" stroke="midnightblue" points="285.489,-24.5808 276.188,-19.5072 280.295,-29.2736 285.489,-24.5808"/>
</g>
<!-- Node13&#45;&gt;Node5 -->
<g id="edge19" class="edge"><title>Node13&#45;&gt;Node5</title>
<path fill="none" stroke="midnightblue" d="M499.844,-112.412C500.723,-99.3823 500.824,-74.2127 491,-56 484.285,-43.5503 472.612,-33.069 461.927,-25.3628"/>
<polygon fill="midnightblue" stroke="midnightblue" points="463.563,-22.2451 453.314,-19.5599 459.652,-28.0504 463.563,-22.2451"/>
</g>
<!-- Node13&#45;&gt;Node9 -->
<g id="edge20" class="edge"><title>Node13&#45;&gt;Node9</title>
<path fill="none" stroke="midnightblue" d="M509.604,-112.324C519.456,-104.263 534.351,-92.0765 546.215,-82.3695"/>
<polygon fill="midnightblue" stroke="midnightblue" points="548.68,-84.8752 554.203,-75.8339 544.247,-79.4575 548.68,-84.8752"/>
</g>
<!-- Node14&#45;&gt;Node4 -->
<g id="edge22" class="edge"><title>Node14&#45;&gt;Node4</title>
<path fill="none" stroke="midnightblue" d="M143.175,-112.395C118.624,-100.527 81.9988,-78.0871 99,-56 115.197,-34.9579 187.873,-21.7348 232.796,-15.4201"/>
<polygon fill="midnightblue" stroke="midnightblue" points="233.31,-18.8825 242.749,-14.0697 232.369,-11.946 233.31,-18.8825"/>
</g>
<!-- Node14&#45;&gt;Node5 -->
<g id="edge23" class="edge"><title>Node14&#45;&gt;Node5</title>
<path fill="none" stroke="midnightblue" d="M152.998,-112.163C139.07,-98.8087 117.127,-73.2205 132,-56 149.856,-35.3265 332.671,-19.086 406.915,-13.2936"/>
<polygon fill="midnightblue" stroke="midnightblue" points="407.345,-16.7709 417.048,-12.5155 406.809,-9.79148 407.345,-16.7709"/>
</g>
<!-- Node14&#45;&gt;Node8 -->
<g id="edge24" class="edge"><title>Node14&#45;&gt;Node8</title>
<path fill="none" stroke="midnightblue" d="M166.303,-112.083C168.982,-104.849 172.849,-94.4087 176.186,-85.3968"/>
<polygon fill="midnightblue" stroke="midnightblue" points="179.568,-86.3442 179.759,-75.7511 173.004,-83.9129 179.568,-86.3442"/>
</g>
</g>
</svg>
        <g id="navigator" transform="translate(0 0)" fill="#404254">
                <rect fill="#f2f5e9" fill-opacity="0.5" stroke="#606060" stroke-width=".5" x="0" y="0" width="60" height="60"/>
                <use id="zoomplus" xlink:href="#zoomPlus" x="17" y="9" onmousedown="handleZoom(evt,'in')"/>
                <use id="zoomminus" xlink:href="#zoomMin" x="42" y="9" onmousedown="handleZoom(evt,'out')"/>
                <use id="reset" xlink:href="#resetDef" x="30" y="36" onmousedown="handleReset()"/>
                <g id="arrowUp" xlink:href="#dirArrow" transform="translate(30 24)" onmousedown="handlePan(0,-1)">
                  <use xlink:href="#rim" fill="#404040">
                        <set attributeName="fill" to="#808080" begin="arrowUp.mouseover" end="arrowUp.mouseout"/>
                  </use>
                  <path fill="none" stroke="white" stroke-width="1.5" d="M0,-3.0v7 M-2.5,-0.5L0,-3.0L2.5,-0.5"/>
                </g>
                <g id="arrowRight" xlink:href="#dirArrow" transform="rotate(90) translate(36 -43)" onmousedown="handlePan(1,0)">
                  <use xlink:href="#rim" fill="#404040">
                        <set attributeName="fill" to="#808080" begin="arrowRight.mouseover" end="arrowRight.mouseout"/>
                  </use>
                  <path fill="none" stroke="white" stroke-width="1.5" d="M0,-3.0v7 M-2.5,-0.5L0,-3.0L2.5,-0.5"/>
                </g>
                <g id="arrowDown" xlink:href="#dirArrow" transform="rotate(180) translate(-30 -48)" onmousedown="handlePan(0,1)">
                  <use xlink:href="#rim" fill="#404040">
                        <set attributeName="fill" to="#808080" begin="arrowDown.mouseover" end="arrowDown.mouseout"/>
                  </use>
                  <path fill="none" stroke="white" stroke-width="1.5" d="M0,-3.0v7 M-2.5,-0.5L0,-3.0L2.5,-0.5"/>
                </g>
                <g id="arrowLeft" xlink:href="#dirArrow" transform="rotate(270) translate(-36 17)" onmousedown="handlePan(-1,0)">
                  <use xlink:href="#rim" fill="#404040">
                        <set attributeName="fill" to="#808080" begin="arrowLeft.mouseover" end="arrowLeft.mouseout"/>
                  </use>
                  <path fill="none" stroke="white" stroke-width="1.5" d="M0,-3.0v7 M-2.5,-0.5L0,-3.0L2.5,-0.5"/>
                </g>
        </g>
        <svg viewBox="0 0 15 15" width="100%" height="30px" preserveAspectRatio="xMaxYMin meet">
         <g id="arrow_out" transform="scale(0.3 0.3)">
          <a xlink:href="_coder_block_information_8cpp__incl_org.svg" target="_base">
           <rect id="button" ry="5" rx="5" y="6" x="6" height="38" width="38"
                fill="#f2f5e9" fill-opacity="0.5" stroke="#606060" stroke-width="1.0"/>
           <path id="arrow"
             d="M 11.500037,31.436501 C 11.940474,20.09759 22.043105,11.32322 32.158766,21.979434 L 37.068811,17.246167 C 37.068811,17.246167 37.088388,32 37.088388,32 L 22.160133,31.978069 C 22.160133,31.978069 26.997745,27.140456 26.997745,27.140456 C 18.528582,18.264221 13.291696,25.230495 11.500037,31.436501 z"
             style="fill:#404040;"/>
          </a>
         </g>
        </svg>
</svg>
