<?xml version="1.0" encoding="UTF-8" standalone="no"?>
<!DOCTYPE svg PUBLIC "-//W3C//DTD SVG 1.1//EN"
 "http://www.w3.org/Graphics/SVG/1.1/DTD/svg11.dtd">
<!-- Generated by graphviz version 2.36.0 (20140111.2315)
 -->
<!-- Title: /home/travis/build/robotology/wb&#45;toolbox/toolbox/src/base/CoderBlockInformation.cpp Pages: 1 -->
<svg width="809pt" height="230pt"
 viewBox="0.00 0.00 809.00 230.00" xmlns="http://www.w3.org/2000/svg" xmlns:xlink="http://www.w3.org/1999/xlink">
<g id="graph0" class="graph" transform="scale(1 1) rotate(0) translate(4 226)">
<title>/home/travis/build/robotology/wb&#45;toolbox/toolbox/src/base/CoderBlockInformation.cpp</title>
<!-- Node1 -->
<g id="node1" class="node"><title>Node1</title>
<polygon fill="#bfbfbf" stroke="black" points="235,-169 235,-221 381,-221 381,-169 235,-169"/>
<text text-anchor="start" x="243" y="-209" font-family="Helvetica,sans-Serif" font-size="10.00">/home/travis/build</text>
<text text-anchor="start" x="243" y="-198" font-family="Helvetica,sans-Serif" font-size="10.00">/robotology/wb&#45;toolbox</text>
<text text-anchor="start" x="243" y="-187" font-family="Helvetica,sans-Serif" font-size="10.00">/toolbox/src/base/CoderBlock</text>
<text text-anchor="middle" x="308" y="-176" font-family="Helvetica,sans-Serif" font-size="10.00">Information.cpp</text>
</g>
<!-- Node2 -->
<g id="node2" class="node"><title>Node2</title>
<g id="a_node2"><a xlink:href="_coder_block_information_8h.html" target="_top" xlink:title="CoderBlockInformation.h">
<polygon fill="none" stroke="black" points="426.5,-112.5 426.5,-131.5 551.5,-131.5 551.5,-112.5 426.5,-112.5"/>
<text text-anchor="middle" x="489" y="-119.5" font-family="Helvetica,sans-Serif" font-size="10.00">CoderBlockInformation.h</text>
</a>
</g>
</g>
<!-- Node1&#45;&gt;Node2 -->
<g id="edge1" class="edge"><title>Node1&#45;&gt;Node2</title>
<path fill="none" stroke="midnightblue" d="M371.814,-168.968C400.846,-157.58 433.903,-144.613 457.488,-135.361"/>
<polygon fill="midnightblue" stroke="midnightblue" points="458.946,-138.549 466.977,-131.639 456.389,-132.032 458.946,-138.549"/>
</g>
<!-- Node5 -->
<g id="node5" class="node"><title>Node5</title>
<polygon fill="none" stroke="#bfbfbf" points="111.5,-0.5 111.5,-19.5 152.5,-19.5 152.5,-0.5 111.5,-0.5"/>
<text text-anchor="middle" x="132" y="-7.5" font-family="Helvetica,sans-Serif" font-size="10.00">string</text>
</g>
<!-- Node1&#45;&gt;Node5 -->
<g id="edge26" class="edge"><title>Node1&#45;&gt;Node5</title>
<path fill="none" stroke="midnightblue" d="M234.946,-181.244C183.087,-170.528 119.953,-153.523 104,-132 80.7737,-100.666 104.351,-53.1993 120.185,-28.0437"/>
<polygon fill="midnightblue" stroke="midnightblue" points="123.185,-29.852 125.761,-19.5751 117.339,-26.0026 123.185,-29.852"/>
</g>
<!-- Node6 -->
<g id="node6" class="node"><title>Node6</title>
<polygon fill="none" stroke="#bfbfbf" points="668,-0.5 668,-19.5 708,-19.5 708,-0.5 668,-0.5"/>
<text text-anchor="middle" x="688" y="-7.5" font-family="Helvetica,sans-Serif" font-size="10.00">utility</text>
</g>
<!-- Node1&#45;&gt;Node6 -->
<g id="edge28" class="edge"><title>Node1&#45;&gt;Node6</title>
<path fill="none" stroke="midnightblue" d="M381.086,-188.518C442.988,-181.622 532.769,-166.207 604,-132 639.293,-115.052 651.15,-109.138 672,-76 680.8,-62.0138 684.761,-43.5121 686.543,-29.8255"/>
<polygon fill="midnightblue" stroke="midnightblue" points="690.046,-29.9713 687.586,-19.6661 683.083,-29.2563 690.046,-29.9713"/>
</g>
<!-- Node7 -->
<g id="node7" class="node"><title>Node7</title>
<polygon fill="none" stroke="#bfbfbf" points="560,-0.5 560,-19.5 604,-19.5 604,-0.5 560,-0.5"/>
<text text-anchor="middle" x="582" y="-7.5" font-family="Helvetica,sans-Serif" font-size="10.00">vector</text>
</g>
<!-- Node1&#45;&gt;Node7 -->
<g id="edge29" class="edge"><title>Node1&#45;&gt;Node7</title>
<path fill="none" stroke="midnightblue" d="M381.32,-180.734C474.914,-161.986 628.118,-124.543 656,-76 669.216,-52.9909 639.221,-33.9934 613.544,-22.5983"/>
<polygon fill="midnightblue" stroke="midnightblue" points="614.589,-19.2418 604.013,-18.6107 611.887,-25.6994 614.589,-19.2418"/>
</g>
<!-- Node10 -->
<g id="node10" class="node"><title>Node10</title>
<g id="a_node10"><a xlink:href="_log_8h.html" target="_top" xlink:title="Log.h">
<polygon fill="none" stroke="black" points="5.5,-56.5 5.5,-75.5 46.5,-75.5 46.5,-56.5 5.5,-56.5"/>
<text text-anchor="middle" x="26" y="-63.5" font-family="Helvetica,sans-Serif" font-size="10.00">Log.h</text>
</a>
</g>
</g>
<!-- Node1&#45;&gt;Node10 -->
<g id="edge11" class="edge"><title>Node1&#45;&gt;Node10</title>
<path fill="none" stroke="midnightblue" d="M234.993,-191.094C181.867,-185.576 110.805,-170.765 61,-132 45.862,-120.217 36.4613,-99.994 31.2636,-85.2271"/>
<polygon fill="midnightblue" stroke="midnightblue" points="34.5773,-84.0981 28.1999,-75.6377 27.9093,-86.2285 34.5773,-84.0981"/>
</g>
<!-- Node12 -->
<g id="node12" class="node"><title>Node12</title>
<g id="a_node12"><a xlink:href="_parameter_8h.html" target="_top" xlink:title="Parameter.h">
<polygon fill="none" stroke="black" points="273,-56.5 273,-75.5 343,-75.5 343,-56.5 273,-56.5"/>
<text text-anchor="middle" x="308" y="-63.5" font-family="Helvetica,sans-Serif" font-size="10.00">Parameter.h</text>
</a>
</g>
</g>
<!-- Node1&#45;&gt;Node12 -->
<g id="edge15" class="edge"><title>Node1&#45;&gt;Node12</title>
<path fill="none" stroke="midnightblue" d="M308,-168.909C308,-144.409 308,-107.69 308,-85.6639"/>
<polygon fill="midnightblue" stroke="midnightblue" points="311.5,-85.6278 308,-75.6278 304.5,-85.6279 311.5,-85.6278"/>
</g>
<!-- Node13 -->
<g id="node13" class="node"><title>Node13</title>
<g id="a_node13"><a xlink:href="_parameters_8h.html" target="_top" xlink:title="Parameters.h">
<polygon fill="none" stroke="black" points="179.5,-56.5 179.5,-75.5 254.5,-75.5 254.5,-56.5 179.5,-56.5"/>
<text text-anchor="middle" x="217" y="-63.5" font-family="Helvetica,sans-Serif" font-size="10.00">Parameters.h</text>
</a>
</g>
</g>
<!-- Node1&#45;&gt;Node13 -->
<g id="edge18" class="edge"><title>Node1&#45;&gt;Node13</title>
<path fill="none" stroke="midnightblue" d="M290.021,-168.909C271.983,-143.734 244.701,-105.659 229.095,-83.8792"/>
<polygon fill="midnightblue" stroke="midnightblue" points="231.852,-81.7179 223.182,-75.6278 226.162,-85.7951 231.852,-81.7179"/>
</g>
<!-- Node14 -->
<g id="node14" class="node"><title>Node14</title>
<g id="a_node14"><a xlink:href="_toolbox_singleton_8h.html" target="_top" xlink:title="ToolboxSingleton.h">
<polygon fill="none" stroke="black" points="113,-112.5 113,-131.5 213,-131.5 213,-112.5 113,-112.5"/>
<text text-anchor="middle" x="163" y="-119.5" font-family="Helvetica,sans-Serif" font-size="10.00">ToolboxSingleton.h</text>
</a>
</g>
</g>
<!-- Node1&#45;&gt;Node14 -->
<g id="edge22" class="edge"><title>Node1&#45;&gt;Node14</title>
<path fill="none" stroke="midnightblue" d="M256.878,-168.968C234.243,-157.885 208.555,-145.306 189.779,-136.112"/>
<polygon fill="midnightblue" stroke="midnightblue" points="191.163,-132.893 180.643,-131.639 188.085,-139.18 191.163,-132.893"/>
</g>
<!-- Node15 -->
<g id="node15" class="node"><title>Node15</title>
<polygon fill="none" stroke="#bfbfbf" points="763,-112.5 763,-131.5 801,-131.5 801,-112.5 763,-112.5"/>
<text text-anchor="middle" x="782" y="-119.5" font-family="Helvetica,sans-Serif" font-size="10.00">tuple</text>
</g>
<!-- Node1&#45;&gt;Node15 -->
<g id="edge27" class="edge"><title>Node1&#45;&gt;Node15</title>
<path fill="none" stroke="midnightblue" d="M381.058,-186.596C468.927,-177.032 620.64,-158.416 749,-132 750.276,-131.737 751.576,-131.454 752.885,-131.154"/>
<polygon fill="midnightblue" stroke="midnightblue" points="754.052,-134.471 762.904,-128.648 752.354,-127.68 754.052,-134.471"/>
</g>
<!-- Node3 -->
<g id="node3" class="node"><title>Node3</title>
<g id="a_node3"><a xlink:href="_block_information_8h.html" target="_top" xlink:title="BlockInformation.h">
<polygon fill="none" stroke="black" points="533,-56.5 533,-75.5 631,-75.5 631,-56.5 533,-56.5"/>
<text text-anchor="middle" x="582" y="-63.5" font-family="Helvetica,sans-Serif" font-size="10.00">BlockInformation.h</text>
</a>
</g>
</g>
<!-- Node2&#45;&gt;Node3 -->
<g id="edge2" class="edge"><title>Node2&#45;&gt;Node3</title>
<path fill="none" stroke="midnightblue" d="M503.942,-112.324C518.585,-103.822 541.134,-90.7288 558.238,-80.7975"/>
<polygon fill="midnightblue" stroke="midnightblue" points="560.205,-83.7027 567.095,-75.6545 556.69,-77.6491 560.205,-83.7027"/>
</g>
<!-- Node2&#45;&gt;Node7 -->
<g id="edge10" class="edge"><title>Node2&#45;&gt;Node7</title>
<path fill="none" stroke="midnightblue" d="M551.845,-118.964C583.342,-114.359 618.957,-102.939 639,-76 652.876,-57.3505 629.1,-37.476 608.152,-24.6846"/>
<polygon fill="midnightblue" stroke="midnightblue" points="609.873,-21.6372 599.465,-19.6604 606.369,-27.6967 609.873,-21.6372"/>
</g>
<!-- Node8 -->
<g id="node8" class="node"><title>Node8</title>
<g id="a_node8"><a xlink:href="_signal_8h.html" target="_top" xlink:title="Signal.h">
<polygon fill="none" stroke="black" points="463,-56.5 463,-75.5 515,-75.5 515,-56.5 463,-56.5"/>
<text text-anchor="middle" x="489" y="-63.5" font-family="Helvetica,sans-Serif" font-size="10.00">Signal.h</text>
</a>
</g>
</g>
<!-- Node2&#45;&gt;Node8 -->
<g id="edge7" class="edge"><title>Node2&#45;&gt;Node8</title>
<path fill="none" stroke="midnightblue" d="M489,-112.083C489,-105.006 489,-94.8611 489,-85.9865"/>
<polygon fill="midnightblue" stroke="midnightblue" points="492.5,-85.751 489,-75.7511 485.5,-85.7511 492.5,-85.751"/>
</g>
<!-- Node9 -->
<g id="node9" class="node"><title>Node9</title>
<polygon fill="none" stroke="#bfbfbf" points="361.5,-56.5 361.5,-75.5 444.5,-75.5 444.5,-56.5 361.5,-56.5"/>
<text text-anchor="middle" x="403" y="-63.5" font-family="Helvetica,sans-Serif" font-size="10.00">unordered_map</text>
</g>
<!-- Node2&#45;&gt;Node9 -->
<g id="edge9" class="edge"><title>Node2&#45;&gt;Node9</title>
<path fill="none" stroke="midnightblue" d="M475.183,-112.324C461.767,-103.9 441.176,-90.9709 425.414,-81.0741"/>
<polygon fill="midnightblue" stroke="midnightblue" points="427.113,-78.0081 416.783,-75.6545 423.391,-83.9364 427.113,-78.0081"/>
</g>
<!-- Node4 -->
<g id="node4" class="node"><title>Node4</title>
<polygon fill="none" stroke="#bfbfbf" points="191,-0.5 191,-19.5 243,-19.5 243,-0.5 191,-0.5"/>
<text text-anchor="middle" x="217" y="-7.5" font-family="Helvetica,sans-Serif" font-size="10.00">memory</text>
</g>
<!-- Node3&#45;&gt;Node4 -->
<g id="edge3" class="edge"><title>Node3&#45;&gt;Node4</title>
<path fill="none" stroke="midnightblue" d="M532.957,-57.3602C529.926,-56.8973 526.922,-56.4409 524,-56 426.219,-41.2474 310.809,-24.513 253.334,-16.225"/>
<polygon fill="midnightblue" stroke="midnightblue" points="253.69,-12.7403 243.293,-14.7781 252.692,-19.6687 253.69,-12.7403"/>
</g>
<!-- Node3&#45;&gt;Node5 -->
<g id="edge4" class="edge"><title>Node3&#45;&gt;Node5</title>
<path fill="none" stroke="midnightblue" d="M532.976,-57.2199C529.941,-56.7918 526.93,-56.3814 524,-56 372.438,-36.276 333.313,-41.5525 182,-20 175.847,-19.1235 169.292,-18.0477 163.024,-16.9485"/>
<polygon fill="midnightblue" stroke="midnightblue" points="163.33,-13.4471 152.866,-15.108 162.082,-20.3349 163.33,-13.4471"/>
</g>
<!-- Node3&#45;&gt;Node6 -->
<g id="edge5" class="edge"><title>Node3&#45;&gt;Node6</title>
<path fill="none" stroke="midnightblue" d="M599.031,-56.324C616.03,-47.6641 642.376,-34.2424 661.993,-24.249"/>
<polygon fill="midnightblue" stroke="midnightblue" points="663.69,-27.3125 671.012,-19.6545 660.512,-21.0752 663.69,-27.3125"/>
</g>
<!-- Node3&#45;&gt;Node7 -->
<g id="edge6" class="edge"><title>Node3&#45;&gt;Node7</title>
<path fill="none" stroke="midnightblue" d="M582,-56.083C582,-49.0059 582,-38.8611 582,-29.9865"/>
<polygon fill="midnightblue" stroke="midnightblue" points="585.5,-29.751 582,-19.7511 578.5,-29.7511 585.5,-29.751"/>
</g>
<!-- Node8&#45;&gt;Node4 -->
<g id="edge8" class="edge"><title>Node8&#45;&gt;Node4</title>
<path fill="none" stroke="midnightblue" d="M462.694,-58.2412C459.436,-57.4579 456.146,-56.6926 453,-56 382.56,-40.4924 299.602,-25.4028 253.177,-17.2421"/>
<polygon fill="midnightblue" stroke="midnightblue" points="253.745,-13.7884 243.291,-15.5122 252.538,-20.6836 253.745,-13.7884"/>
</g>
<!-- Node10&#45;&gt;Node4 -->
<g id="edge12" class="edge"><title>Node10&#45;&gt;Node4</title>
<path fill="none" stroke="midnightblue" d="M46.8039,-59.1183C79.0014,-50.0153 141.315,-32.3979 180.948,-21.1927"/>
<polygon fill="midnightblue" stroke="midnightblue" points="182.077,-24.5108 190.748,-18.4222 180.172,-17.7748 182.077,-24.5108"/>
</g>
<!-- Node10&#45;&gt;Node5 -->
<g id="edge14" class="edge"><title>Node10&#45;&gt;Node5</title>
<path fill="none" stroke="midnightblue" d="M43.0307,-56.324C60.0298,-47.6641 86.3761,-34.2424 105.993,-24.249"/>
<polygon fill="midnightblue" stroke="midnightblue" points="107.69,-27.3125 115.012,-19.6545 104.512,-21.0752 107.69,-27.3125"/>
</g>
<!-- Node11 -->
<g id="node11" class="node"><title>Node11</title>
<polygon fill="none" stroke="#bfbfbf" points="0,-0.5 0,-19.5 52,-19.5 52,-0.5 0,-0.5"/>
<text text-anchor="middle" x="26" y="-7.5" font-family="Helvetica,sans-Serif" font-size="10.00">sstream</text>
</g>
<!-- Node10&#45;&gt;Node11 -->
<g id="edge13" class="edge"><title>Node10&#45;&gt;Node11</title>
<path fill="none" stroke="midnightblue" d="M26,-56.083C26,-49.0059 26,-38.8611 26,-29.9865"/>
<polygon fill="midnightblue" stroke="midnightblue" points="29.5001,-29.751 26,-19.7511 22.5001,-29.7511 29.5001,-29.751"/>
</g>
<!-- Node12&#45;&gt;Node5 -->
<g id="edge16" class="edge"><title>Node12&#45;&gt;Node5</title>
<path fill="none" stroke="midnightblue" d="M280.112,-56.4435C247.962,-46.5794 195.308,-30.424 162.208,-20.2685"/>
<polygon fill="midnightblue" stroke="midnightblue" points="163.195,-16.9102 152.608,-17.323 161.142,-23.6023 163.195,-16.9102"/>
</g>
<!-- Node12&#45;&gt;Node7 -->
<g id="edge17" class="edge"><title>Node12&#45;&gt;Node7</title>
<path fill="none" stroke="midnightblue" d="M343.059,-57.8007C346.082,-57.1884 349.095,-56.5813 352,-56 422.547,-41.8839 505.369,-25.7991 549.852,-17.2"/>
<polygon fill="midnightblue" stroke="midnightblue" points="550.63,-20.6144 559.785,-15.281 549.302,-13.7415 550.63,-20.6144"/>
</g>
<!-- Node13&#45;&gt;Node4 -->
<g id="edge19" class="edge"><title>Node13&#45;&gt;Node4</title>
<path fill="none" stroke="midnightblue" d="M217,-56.083C217,-49.0059 217,-38.8611 217,-29.9865"/>
<polygon fill="midnightblue" stroke="midnightblue" points="220.5,-29.751 217,-19.7511 213.5,-29.7511 220.5,-29.751"/>
</g>
<!-- Node13&#45;&gt;Node5 -->
<g id="edge20" class="edge"><title>Node13&#45;&gt;Node5</title>
<path fill="none" stroke="midnightblue" d="M203.343,-56.324C190.084,-47.9002 169.732,-34.9709 154.154,-25.0741"/>
<polygon fill="midnightblue" stroke="midnightblue" points="155.94,-22.0626 145.623,-19.6545 152.187,-27.9711 155.94,-22.0626"/>
</g>
<!-- Node13&#45;&gt;Node7 -->
<g id="edge21" class="edge"><title>Node13&#45;&gt;Node7</title>
<path fill="none" stroke="midnightblue" d="M254.681,-57.6174C257.83,-57.0513 260.968,-56.5046 264,-56 368.119,-38.6748 492.135,-22.3664 549.691,-15.0443"/>
<polygon fill="midnightblue" stroke="midnightblue" points="550.487,-18.4715 559.968,-13.7427 549.608,-11.527 550.487,-18.4715"/>
</g>
<!-- Node14&#45;&gt;Node4 -->
<g id="edge23" class="edge"><title>Node14&#45;&gt;Node4</title>
<path fill="none" stroke="midnightblue" d="M162.131,-112.493C161.19,-99.5688 160.881,-74.5353 170,-56 175.863,-44.0833 186.253,-33.6215 195.775,-25.7915"/>
<polygon fill="midnightblue" stroke="midnightblue" points="198.001,-28.4947 203.785,-19.6176 193.728,-22.9505 198.001,-28.4947"/>
</g>
<!-- Node14&#45;&gt;Node5 -->
<g id="edge24" class="edge"><title>Node14&#45;&gt;Node5</title>
<path fill="none" stroke="midnightblue" d="M156.341,-112.252C150.133,-103.568 141.218,-89.6178 137,-76 132.338,-60.9485 131.268,-43.0444 131.262,-29.8417"/>
<polygon fill="midnightblue" stroke="midnightblue" points="134.765,-29.7077 131.467,-19.6394 127.767,-29.5671 134.765,-29.7077"/>
</g>
<!-- Node14&#45;&gt;Node9 -->
<g id="edge25" class="edge"><title>Node14&#45;&gt;Node9</title>
<path fill="none" stroke="midnightblue" d="M201.029,-112.444C242.808,-103.043 309.982,-87.9291 355.27,-77.7393"/>
<polygon fill="midnightblue" stroke="midnightblue" points="356.161,-81.1263 365.149,-75.5164 354.625,-74.297 356.161,-81.1263"/>
</g>
</g>
</svg>
