<?xml version="1.0" encoding="UTF-8" standalone="no"?>
<!DOCTYPE svg PUBLIC "-//W3C//DTD SVG 1.1//EN"
 "http://www.w3.org/Graphics/SVG/1.1/DTD/svg11.dtd">
<!-- Generated by graphviz version 2.43.0 (0)
 -->
<!-- Title: /home/runner/work/wb&#45;toolbox/wb&#45;toolbox/toolbox/base/include/WBToolbox/Base/Configuration.h Pages: 1 -->
<svg width="254pt" height="117pt"
 viewBox="0.00 0.00 253.50 117.00" xmlns="http://www.w3.org/2000/svg" xmlns:xlink="http://www.w3.org/1999/xlink">
<g id="graph0" class="graph" transform="scale(1 1) rotate(0) translate(4 113)">
<title>/home/runner/work/wb&#45;toolbox/wb&#45;toolbox/toolbox/base/include/WBToolbox/Base/Configuration.h</title>
<!-- Node1 -->
<g id="node1" class="node">
<title>Node1</title>
<g id="a_node1"><a xlink:title=" ">
<polygon fill="#bfbfbf" stroke="black" points="40.5,-56.5 40.5,-108.5 205.5,-108.5 205.5,-56.5 40.5,-56.5"/>
<text text-anchor="start" x="48.5" y="-96.5" font-family="Helvetica,sans-Serif" font-size="10.00">/home/runner/work/wb</text>
<text text-anchor="start" x="48.5" y="-85.5" font-family="Helvetica,sans-Serif" font-size="10.00">&#45;toolbox/wb&#45;toolbox/toolbox</text>
<text text-anchor="start" x="48.5" y="-74.5" font-family="Helvetica,sans-Serif" font-size="10.00">/base/include/WBToolbox/Base</text>
<text text-anchor="middle" x="123" y="-63.5" font-family="Helvetica,sans-Serif" font-size="10.00">/Configuration.h</text>
</a>
</g>
</g>
<!-- Node2 -->
<g id="node2" class="node">
<title>Node2</title>
<g id="a_node2"><a xlink:title=" ">
<polygon fill="none" stroke="#bfbfbf" points="0,-0.5 0,-19.5 42,-19.5 42,-0.5 0,-0.5"/>
<text text-anchor="middle" x="21" y="-7.5" font-family="Helvetica,sans-Serif" font-size="10.00">array</text>
</a>
</g>
</g>
<!-- Node1&#45;&gt;Node2 -->
<g id="edge1" class="edge">
<title>Node1&#45;&gt;Node2</title>
<path fill="none" stroke="midnightblue" d="M86.75,-56.45C71.82,-46.13 55.05,-34.53 42.18,-25.64"/>
<polygon fill="midnightblue" stroke="midnightblue" points="43.8,-22.5 33.58,-19.7 39.82,-28.26 43.8,-22.5"/>
</g>
<!-- Node3 -->
<g id="node3" class="node">
<title>Node3</title>
<g id="a_node3"><a xlink:title=" ">
<polygon fill="none" stroke="#bfbfbf" points="60,-0.5 60,-19.5 118,-19.5 118,-0.5 60,-0.5"/>
<text text-anchor="middle" x="89" y="-7.5" font-family="Helvetica,sans-Serif" font-size="10.00">memory</text>
</a>
</g>
</g>
<!-- Node1&#45;&gt;Node3 -->
<g id="edge2" class="edge">
<title>Node1&#45;&gt;Node3</title>
<path fill="none" stroke="midnightblue" d="M110.92,-56.45C106.52,-47.33 101.64,-37.22 97.61,-28.85"/>
<polygon fill="midnightblue" stroke="midnightblue" points="100.69,-27.18 93.19,-19.7 94.39,-30.22 100.69,-27.18"/>
</g>
<!-- Node4 -->
<g id="node4" class="node">
<title>Node4</title>
<g id="a_node4"><a xlink:title=" ">
<polygon fill="none" stroke="#bfbfbf" points="136,-0.5 136,-19.5 180,-19.5 180,-0.5 136,-0.5"/>
<text text-anchor="middle" x="158" y="-7.5" font-family="Helvetica,sans-Serif" font-size="10.00">string</text>
</a>
</g>
</g>
<!-- Node1&#45;&gt;Node4 -->
<g id="edge3" class="edge">
<title>Node1&#45;&gt;Node4</title>
<path fill="none" stroke="midnightblue" d="M135.44,-56.45C139.96,-47.33 144.98,-37.22 149.14,-28.85"/>
<polygon fill="midnightblue" stroke="midnightblue" points="152.37,-30.21 153.68,-19.7 146.1,-27.1 152.37,-30.21"/>
</g>
<!-- Node5 -->
<g id="node5" class="node">
<title>Node5</title>
<g id="a_node5"><a xlink:title=" ">
<polygon fill="none" stroke="#bfbfbf" points="198.5,-0.5 198.5,-19.5 245.5,-19.5 245.5,-0.5 198.5,-0.5"/>
<text text-anchor="middle" x="222" y="-7.5" font-family="Helvetica,sans-Serif" font-size="10.00">vector</text>
</a>
</g>
</g>
<!-- Node1&#45;&gt;Node5 -->
<g id="edge4" class="edge">
<title>Node1&#45;&gt;Node5</title>
<path fill="none" stroke="midnightblue" d="M158.18,-56.45C172.67,-46.13 188.95,-34.53 201.44,-25.64"/>
<polygon fill="midnightblue" stroke="midnightblue" points="203.67,-28.35 209.79,-19.7 199.61,-22.65 203.67,-28.35"/>
</g>
</g>
</svg>
