<?xml version="1.0" encoding="UTF-8" standalone="no"?>
<!DOCTYPE svg PUBLIC "-//W3C//DTD SVG 1.1//EN"
 "http://www.w3.org/Graphics/SVG/1.1/DTD/svg11.dtd">
<!-- Generated by graphviz version 2.36.0 (20140111.2315)
 -->
<!-- Title: /home/travis/build/robotology/wb&#45;toolbox/toolbox/core/include/Core/ConvertStdVector.h Pages: 1 -->
<svg width="138pt" height="118pt"
 viewBox="0.00 0.00 138.00 118.00" xmlns="http://www.w3.org/2000/svg" xmlns:xlink="http://www.w3.org/1999/xlink">
<g id="graph0" class="graph" transform="scale(1 1) rotate(0) translate(4 114)">
<title>/home/travis/build/robotology/wb&#45;toolbox/toolbox/core/include/Core/ConvertStdVector.h</title>
<!-- Node1 -->
<g id="node1" class="node"><title>Node1</title>
<polygon fill="#bfbfbf" stroke="black" points="0,-57 0,-109 130,-109 130,-57 0,-57"/>
<text text-anchor="start" x="8" y="-97" font-family="Helvetica,sans-Serif" font-size="10.00">/home/travis/build</text>
<text text-anchor="start" x="8" y="-86" font-family="Helvetica,sans-Serif" font-size="10.00">/robotology/wb&#45;toolbox</text>
<text text-anchor="start" x="8" y="-75" font-family="Helvetica,sans-Serif" font-size="10.00">/toolbox/core/include</text>
<text text-anchor="middle" x="65" y="-64" font-family="Helvetica,sans-Serif" font-size="10.00">/Core/ConvertStdVector.h</text>
</g>
<!-- Node2 -->
<g id="node2" class="node"><title>Node2</title>
<polygon fill="none" stroke="#bfbfbf" points="14.5,-0.5 14.5,-19.5 55.5,-19.5 55.5,-0.5 14.5,-0.5"/>
<text text-anchor="middle" x="35" y="-7.5" font-family="Helvetica,sans-Serif" font-size="10.00">string</text>
</g>
<!-- Node1&#45;&gt;Node2 -->
<g id="edge1" class="edge"><title>Node1&#45;&gt;Node2</title>
<path fill="none" stroke="midnightblue" d="M54.3387,-56.7681C50.4593,-47.587 46.1564,-37.4034 42.5961,-28.9775"/>
<polygon fill="midnightblue" stroke="midnightblue" points="45.8164,-27.6063 38.7002,-19.7572 39.3684,-30.3309 45.8164,-27.6063"/>
</g>
<!-- Node3 -->
<g id="node3" class="node"><title>Node3</title>
<polygon fill="none" stroke="#bfbfbf" points="74,-0.5 74,-19.5 118,-19.5 118,-0.5 74,-0.5"/>
<text text-anchor="middle" x="96" y="-7.5" font-family="Helvetica,sans-Serif" font-size="10.00">vector</text>
</g>
<!-- Node1&#45;&gt;Node3 -->
<g id="edge2" class="edge"><title>Node1&#45;&gt;Node3</title>
<path fill="none" stroke="midnightblue" d="M76.0167,-56.7681C80.0254,-47.587 84.4718,-37.4034 88.1507,-28.9775"/>
<polygon fill="midnightblue" stroke="midnightblue" points="91.3826,-30.3222 92.1765,-19.7572 84.9674,-27.5212 91.3826,-30.3222"/>
</g>
</g>
</svg>
