<?xml version="1.0" encoding="UTF-8" standalone="no"?>
<!DOCTYPE svg PUBLIC "-//W3C//DTD SVG 1.1//EN"
 "http://www.w3.org/Graphics/SVG/1.1/DTD/svg11.dtd">
<!-- Generated by graphviz version 2.43.0 (0)
 -->
<!-- Title: /home/runner/work/wb&#45;toolbox/wb&#45;toolbox/toolbox/base/include/WBToolbox/Base/Configuration.h Pages: 1 -->
<svg width="3021pt" height="150pt"
 viewBox="0.00 0.00 3020.50 150.00" xmlns="http://www.w3.org/2000/svg" xmlns:xlink="http://www.w3.org/1999/xlink">
<g id="graph0" class="graph" transform="scale(1 1) rotate(0) translate(4 146)">
<title>/home/runner/work/wb&#45;toolbox/wb&#45;toolbox/toolbox/base/include/WBToolbox/Base/Configuration.h</title>
<!-- Node1 -->
<g id="node1" class="node">
<title>Node1</title>
<g id="a_node1"><a xlink:title=" ">
<polygon fill="#bfbfbf" stroke="black" points="1435,-89.5 1435,-141.5 1600,-141.5 1600,-89.5 1435,-89.5"/>
<text text-anchor="start" x="1443" y="-129.5" font-family="Helvetica,sans-Serif" font-size="10.00">/home/runner/work/wb</text>
<text text-anchor="start" x="1443" y="-118.5" font-family="Helvetica,sans-Serif" font-size="10.00">&#45;toolbox/wb&#45;toolbox/toolbox</text>
<text text-anchor="start" x="1443" y="-107.5" font-family="Helvetica,sans-Serif" font-size="10.00">/base/include/WBToolbox/Base</text>
<text text-anchor="middle" x="1517.5" y="-96.5" font-family="Helvetica,sans-Serif" font-size="10.00">/Configuration.h</text>
</a>
</g>
</g>
<!-- Node2 -->
<g id="node2" class="node">
<title>Node2</title>
<g id="a_node2"><a xlink:href="_configuration_8cpp.html" target="_top" xlink:title=" ">
<polygon fill="none" stroke="black" points="0,-6 0,-47 155,-47 155,-6 0,-6"/>
<text text-anchor="start" x="8" y="-35" font-family="Helvetica,sans-Serif" font-size="10.00">/home/runner/work/wb</text>
<text text-anchor="start" x="8" y="-24" font-family="Helvetica,sans-Serif" font-size="10.00">&#45;toolbox/wb&#45;toolbox/toolbox</text>
<text text-anchor="middle" x="77.5" y="-13" font-family="Helvetica,sans-Serif" font-size="10.00">/base/src/Configuration.cpp</text>
</a>
</g>
</g>
<!-- Node1&#45;&gt;Node2 -->
<g id="edge1" class="edge">
<title>Node1&#45;&gt;Node2</title>
<path fill="none" stroke="midnightblue" d="M1424.52,-113.21C1160.02,-109.08 406.8,-93.97 163.5,-53 154.75,-51.53 145.63,-49.44 136.74,-47.1"/>
<polygon fill="midnightblue" stroke="midnightblue" points="1424.81,-116.72 1434.86,-113.37 1424.91,-109.72 1424.81,-116.72"/>
</g>
<!-- Node3 -->
<g id="node3" class="node">
<title>Node3</title>
<g id="a_node3"><a xlink:href="_robot_interface_8cpp.html" target="_top" xlink:title=" ">
<polygon fill="none" stroke="black" points="173,-6 173,-47 328,-47 328,-6 173,-6"/>
<text text-anchor="start" x="181" y="-35" font-family="Helvetica,sans-Serif" font-size="10.00">/home/runner/work/wb</text>
<text text-anchor="start" x="181" y="-24" font-family="Helvetica,sans-Serif" font-size="10.00">&#45;toolbox/wb&#45;toolbox/toolbox</text>
<text text-anchor="middle" x="250.5" y="-13" font-family="Helvetica,sans-Serif" font-size="10.00">/base/src/RobotInterface.cpp</text>
</a>
</g>
</g>
<!-- Node1&#45;&gt;Node3 -->
<g id="edge2" class="edge">
<title>Node1&#45;&gt;Node3</title>
<path fill="none" stroke="midnightblue" d="M1424.8,-112.5C1184.41,-106.86 545.21,-88.86 336.5,-53 327.75,-51.5 318.64,-49.4 309.75,-47.05"/>
<polygon fill="midnightblue" stroke="midnightblue" points="1424.83,-116 1434.91,-112.74 1424.99,-109 1424.83,-116"/>
</g>
<!-- Node4 -->
<g id="node4" class="node">
<title>Node4</title>
<g id="a_node4"><a xlink:href="_w_b_block_8cpp.html" target="_top" xlink:title=" ">
<polygon fill="none" stroke="black" points="346,-6 346,-47 501,-47 501,-6 346,-6"/>
<text text-anchor="start" x="354" y="-35" font-family="Helvetica,sans-Serif" font-size="10.00">/home/runner/work/wb</text>
<text text-anchor="start" x="354" y="-24" font-family="Helvetica,sans-Serif" font-size="10.00">&#45;toolbox/wb&#45;toolbox/toolbox</text>
<text text-anchor="middle" x="423.5" y="-13" font-family="Helvetica,sans-Serif" font-size="10.00">/base/src/WBBlock.cpp</text>
</a>
</g>
</g>
<!-- Node1&#45;&gt;Node4 -->
<g id="edge3" class="edge">
<title>Node1&#45;&gt;Node4</title>
<path fill="none" stroke="midnightblue" d="M1424.57,-111.53C1209.73,-104.23 683.73,-83.73 509.5,-53 500.91,-51.49 491.97,-49.41 483.23,-47.1"/>
<polygon fill="midnightblue" stroke="midnightblue" points="1424.76,-115.04 1434.87,-111.88 1425,-108.04 1424.76,-115.04"/>
</g>
<!-- Node5 -->
<g id="node5" class="node">
<title>Node5</title>
<g id="a_node5"><a xlink:href="_whole_body_singleton_8cpp.html" target="_top" xlink:title=" ">
<polygon fill="none" stroke="black" points="519,-6 519,-47 704,-47 704,-6 519,-6"/>
<text text-anchor="start" x="527" y="-35" font-family="Helvetica,sans-Serif" font-size="10.00">/home/runner/work/wb</text>
<text text-anchor="start" x="527" y="-24" font-family="Helvetica,sans-Serif" font-size="10.00">&#45;toolbox/wb&#45;toolbox/toolbox</text>
<text text-anchor="middle" x="611.5" y="-13" font-family="Helvetica,sans-Serif" font-size="10.00">/base/src/WholeBodySingleton.cpp</text>
</a>
</g>
</g>
<!-- Node1&#45;&gt;Node5 -->
<g id="edge4" class="edge">
<title>Node1&#45;&gt;Node5</title>
<path fill="none" stroke="midnightblue" d="M1424.67,-112.48C1274.37,-108.06 968.81,-94.37 713.5,-53 703.59,-51.39 693.23,-49.3 683.07,-47"/>
<polygon fill="midnightblue" stroke="midnightblue" points="1424.69,-115.98 1434.78,-112.76 1424.89,-108.98 1424.69,-115.98"/>
</g>
<!-- Node6 -->
<g id="node6" class="node">
<title>Node6</title>
<g id="a_node6"><a xlink:href="_centroidal_momentum_8cpp.html" target="_top" xlink:title=" ">
<polygon fill="none" stroke="black" points="722.5,-6 722.5,-47 920.5,-47 920.5,-6 722.5,-6"/>
<text text-anchor="start" x="730.5" y="-35" font-family="Helvetica,sans-Serif" font-size="10.00">/home/runner/work/wb</text>
<text text-anchor="start" x="730.5" y="-24" font-family="Helvetica,sans-Serif" font-size="10.00">&#45;toolbox/wb&#45;toolbox/toolbox</text>
<text text-anchor="middle" x="821.5" y="-13" font-family="Helvetica,sans-Serif" font-size="10.00">/library/src/CentroidalMomentum.cpp</text>
</a>
</g>
</g>
<!-- Node1&#45;&gt;Node6 -->
<g id="edge5" class="edge">
<title>Node1&#45;&gt;Node6</title>
<path fill="none" stroke="midnightblue" d="M1424.47,-108.46C1308.13,-100.05 1103.12,-82.45 929.5,-53 919.53,-51.31 909.1,-49.24 898.83,-47.02"/>
<polygon fill="midnightblue" stroke="midnightblue" points="1424.54,-111.97 1434.76,-109.19 1425.04,-104.99 1424.54,-111.97"/>
</g>
<!-- Node7 -->
<g id="node7" class="node">
<title>Node7</title>
<g id="a_node7"><a xlink:href="_centroidal_total_momentum_matrix_8cpp.html" target="_top" xlink:title=" ">
<polygon fill="none" stroke="black" points="939,-0.5 939,-52.5 1140,-52.5 1140,-0.5 939,-0.5"/>
<text text-anchor="start" x="947" y="-40.5" font-family="Helvetica,sans-Serif" font-size="10.00">/home/runner/work/wb</text>
<text text-anchor="start" x="947" y="-29.5" font-family="Helvetica,sans-Serif" font-size="10.00">&#45;toolbox/wb&#45;toolbox/toolbox</text>
<text text-anchor="start" x="947" y="-18.5" font-family="Helvetica,sans-Serif" font-size="10.00">/library/src/CentroidalTotalMomentum</text>
<text text-anchor="middle" x="1039.5" y="-7.5" font-family="Helvetica,sans-Serif" font-size="10.00">Matrix.cpp</text>
</a>
</g>
</g>
<!-- Node1&#45;&gt;Node7 -->
<g id="edge6" class="edge">
<title>Node1&#45;&gt;Node7</title>
<path fill="none" stroke="midnightblue" d="M1424.45,-100.7C1349.66,-89.19 1242.02,-71.71 1148.5,-53 1145.74,-52.45 1142.94,-51.88 1140.11,-51.29"/>
<polygon fill="midnightblue" stroke="midnightblue" points="1424.37,-104.22 1434.78,-102.28 1425.43,-97.31 1424.37,-104.22"/>
</g>
<!-- Node8 -->
<g id="node8" class="node">
<title>Node8</title>
<g id="a_node8"><a xlink:href="_dot_j_nu_8cpp.html" target="_top" xlink:title=" ">
<polygon fill="none" stroke="black" points="1158,-6 1158,-47 1313,-47 1313,-6 1158,-6"/>
<text text-anchor="start" x="1166" y="-35" font-family="Helvetica,sans-Serif" font-size="10.00">/home/runner/work/wb</text>
<text text-anchor="start" x="1166" y="-24" font-family="Helvetica,sans-Serif" font-size="10.00">&#45;toolbox/wb&#45;toolbox/toolbox</text>
<text text-anchor="middle" x="1235.5" y="-13" font-family="Helvetica,sans-Serif" font-size="10.00">/library/src/DotJNu.cpp</text>
</a>
</g>
</g>
<!-- Node1&#45;&gt;Node8 -->
<g id="edge7" class="edge">
<title>Node1&#45;&gt;Node8</title>
<path fill="none" stroke="midnightblue" d="M1426.72,-86.49C1385.11,-73.66 1336.8,-58.75 1299.14,-47.13"/>
<polygon fill="midnightblue" stroke="midnightblue" points="1425.72,-89.85 1436.31,-89.45 1427.79,-83.16 1425.72,-89.85"/>
</g>
<!-- Node9 -->
<g id="node9" class="node">
<title>Node9</title>
<g id="a_node9"><a xlink:href="_forward_kinematics_8cpp.html" target="_top" xlink:title=" ">
<polygon fill="none" stroke="black" points="1331,-6 1331,-47 1516,-47 1516,-6 1331,-6"/>
<text text-anchor="start" x="1339" y="-35" font-family="Helvetica,sans-Serif" font-size="10.00">/home/runner/work/wb</text>
<text text-anchor="start" x="1339" y="-24" font-family="Helvetica,sans-Serif" font-size="10.00">&#45;toolbox/wb&#45;toolbox/toolbox</text>
<text text-anchor="middle" x="1423.5" y="-13" font-family="Helvetica,sans-Serif" font-size="10.00">/library/src/ForwardKinematics.cpp</text>
</a>
</g>
</g>
<!-- Node1&#45;&gt;Node9 -->
<g id="edge8" class="edge">
<title>Node1&#45;&gt;Node9</title>
<path fill="none" stroke="midnightblue" d="M1482.94,-82.51C1470.11,-70.64 1455.94,-57.53 1444.66,-47.08"/>
<polygon fill="midnightblue" stroke="midnightblue" points="1480.59,-85.11 1490.31,-89.34 1485.35,-79.97 1480.59,-85.11"/>
</g>
<!-- Node10 -->
<g id="node10" class="node">
<title>Node10</title>
<g id="a_node10"><a xlink:href="_get_limits_8cpp.html" target="_top" xlink:title=" ">
<polygon fill="none" stroke="black" points="1534,-6 1534,-47 1689,-47 1689,-6 1534,-6"/>
<text text-anchor="start" x="1542" y="-35" font-family="Helvetica,sans-Serif" font-size="10.00">/home/runner/work/wb</text>
<text text-anchor="start" x="1542" y="-24" font-family="Helvetica,sans-Serif" font-size="10.00">&#45;toolbox/wb&#45;toolbox/toolbox</text>
<text text-anchor="middle" x="1611.5" y="-13" font-family="Helvetica,sans-Serif" font-size="10.00">/library/src/GetLimits.cpp</text>
</a>
</g>
</g>
<!-- Node1&#45;&gt;Node10 -->
<g id="edge9" class="edge">
<title>Node1&#45;&gt;Node10</title>
<path fill="none" stroke="midnightblue" d="M1552.06,-82.51C1564.89,-70.64 1579.06,-57.53 1590.34,-47.08"/>
<polygon fill="midnightblue" stroke="midnightblue" points="1549.65,-79.97 1544.69,-89.34 1554.41,-85.11 1549.65,-79.97"/>
</g>
<!-- Node11 -->
<g id="node11" class="node">
<title>Node11</title>
<g id="a_node11"><a xlink:href="_get_measurement_8cpp.html" target="_top" xlink:title=" ">
<polygon fill="none" stroke="black" points="1707.5,-6 1707.5,-47 1883.5,-47 1883.5,-6 1707.5,-6"/>
<text text-anchor="start" x="1715.5" y="-35" font-family="Helvetica,sans-Serif" font-size="10.00">/home/runner/work/wb</text>
<text text-anchor="start" x="1715.5" y="-24" font-family="Helvetica,sans-Serif" font-size="10.00">&#45;toolbox/wb&#45;toolbox/toolbox</text>
<text text-anchor="middle" x="1795.5" y="-13" font-family="Helvetica,sans-Serif" font-size="10.00">/library/src/GetMeasurement.cpp</text>
</a>
</g>
</g>
<!-- Node1&#45;&gt;Node11 -->
<g id="edge10" class="edge">
<title>Node1&#45;&gt;Node11</title>
<path fill="none" stroke="midnightblue" d="M1607.25,-86.41C1648.21,-73.59 1695.72,-58.73 1732.76,-47.13"/>
<polygon fill="midnightblue" stroke="midnightblue" points="1606.03,-83.13 1597.54,-89.45 1608.13,-89.81 1606.03,-83.13"/>
</g>
<!-- Node12 -->
<g id="node12" class="node">
<title>Node12</title>
<g id="a_node12"><a xlink:href="_inverse_dynamics_8cpp.html" target="_top" xlink:title=" ">
<polygon fill="none" stroke="black" points="1901.5,-6 1901.5,-47 2077.5,-47 2077.5,-6 1901.5,-6"/>
<text text-anchor="start" x="1909.5" y="-35" font-family="Helvetica,sans-Serif" font-size="10.00">/home/runner/work/wb</text>
<text text-anchor="start" x="1909.5" y="-24" font-family="Helvetica,sans-Serif" font-size="10.00">&#45;toolbox/wb&#45;toolbox/toolbox</text>
<text text-anchor="middle" x="1989.5" y="-13" font-family="Helvetica,sans-Serif" font-size="10.00">/library/src/InverseDynamics.cpp</text>
</a>
</g>
</g>
<!-- Node1&#45;&gt;Node12 -->
<g id="edge11" class="edge">
<title>Node1&#45;&gt;Node12</title>
<path fill="none" stroke="midnightblue" d="M1610.27,-101.78C1686.44,-90.74 1796.94,-73.35 1892.5,-53 1900.93,-51.2 1909.73,-49.15 1918.43,-47"/>
<polygon fill="midnightblue" stroke="midnightblue" points="1609.62,-98.34 1600.22,-103.23 1610.62,-105.26 1609.62,-98.34"/>
</g>
<!-- Node13 -->
<g id="node13" class="node">
<title>Node13</title>
<g id="a_node13"><a xlink:href="_jacobian_8cpp.html" target="_top" xlink:title=" ">
<polygon fill="none" stroke="black" points="2096,-6 2096,-47 2251,-47 2251,-6 2096,-6"/>
<text text-anchor="start" x="2104" y="-35" font-family="Helvetica,sans-Serif" font-size="10.00">/home/runner/work/wb</text>
<text text-anchor="start" x="2104" y="-24" font-family="Helvetica,sans-Serif" font-size="10.00">&#45;toolbox/wb&#45;toolbox/toolbox</text>
<text text-anchor="middle" x="2173.5" y="-13" font-family="Helvetica,sans-Serif" font-size="10.00">/library/src/Jacobian.cpp</text>
</a>
</g>
</g>
<!-- Node1&#45;&gt;Node13 -->
<g id="edge12" class="edge">
<title>Node1&#45;&gt;Node13</title>
<path fill="none" stroke="midnightblue" d="M1610.19,-109.55C1723.45,-102.33 1920.49,-86.03 2086.5,-53 2094.68,-51.37 2103.2,-49.33 2111.58,-47.1"/>
<polygon fill="midnightblue" stroke="midnightblue" points="1609.93,-106.06 1600.17,-110.17 1610.37,-113.04 1609.93,-106.06"/>
</g>
<!-- Node14 -->
<g id="node14" class="node">
<title>Node14</title>
<g id="a_node14"><a xlink:href="_mass_matrix_8cpp.html" target="_top" xlink:title=" ">
<polygon fill="none" stroke="black" points="2269,-6 2269,-47 2424,-47 2424,-6 2269,-6"/>
<text text-anchor="start" x="2277" y="-35" font-family="Helvetica,sans-Serif" font-size="10.00">/home/runner/work/wb</text>
<text text-anchor="start" x="2277" y="-24" font-family="Helvetica,sans-Serif" font-size="10.00">&#45;toolbox/wb&#45;toolbox/toolbox</text>
<text text-anchor="middle" x="2346.5" y="-13" font-family="Helvetica,sans-Serif" font-size="10.00">/library/src/MassMatrix.cpp</text>
</a>
</g>
</g>
<!-- Node1&#45;&gt;Node14 -->
<g id="edge13" class="edge">
<title>Node1&#45;&gt;Node14</title>
<path fill="none" stroke="midnightblue" d="M1610.51,-112.92C1752.02,-109.15 2029.35,-96.36 2260.5,-53 2268.92,-51.42 2277.69,-49.34 2286.27,-47.05"/>
<polygon fill="midnightblue" stroke="midnightblue" points="1610.05,-109.43 1600.15,-113.19 1610.23,-116.43 1610.05,-109.43"/>
</g>
<!-- Node15 -->
<g id="node15" class="node">
<title>Node15</title>
<g id="a_node15"><a xlink:href="_relative_transform_8cpp.html" target="_top" xlink:title=" ">
<polygon fill="none" stroke="black" points="2442,-6 2442,-47 2623,-47 2623,-6 2442,-6"/>
<text text-anchor="start" x="2450" y="-35" font-family="Helvetica,sans-Serif" font-size="10.00">/home/runner/work/wb</text>
<text text-anchor="start" x="2450" y="-24" font-family="Helvetica,sans-Serif" font-size="10.00">&#45;toolbox/wb&#45;toolbox/toolbox</text>
<text text-anchor="middle" x="2532.5" y="-13" font-family="Helvetica,sans-Serif" font-size="10.00">/library/src/RelativeTransform.cpp</text>
</a>
</g>
</g>
<!-- Node1&#45;&gt;Node15 -->
<g id="edge14" class="edge">
<title>Node1&#45;&gt;Node15</title>
<path fill="none" stroke="midnightblue" d="M1610.37,-113.92C1776.54,-111.64 2135.25,-101 2433.5,-53 2443.23,-51.43 2453.39,-49.35 2463.34,-47.04"/>
<polygon fill="midnightblue" stroke="midnightblue" points="1610.14,-110.43 1600.19,-114.06 1610.23,-117.42 1610.14,-110.43"/>
</g>
<!-- Node16 -->
<g id="node16" class="node">
<title>Node16</title>
<g id="a_node16"><a xlink:href="_set_motor_parameters_8cpp.html" target="_top" xlink:title=" ">
<polygon fill="none" stroke="black" points="2641,-6 2641,-47 2832,-47 2832,-6 2641,-6"/>
<text text-anchor="start" x="2649" y="-35" font-family="Helvetica,sans-Serif" font-size="10.00">/home/runner/work/wb</text>
<text text-anchor="start" x="2649" y="-24" font-family="Helvetica,sans-Serif" font-size="10.00">&#45;toolbox/wb&#45;toolbox/toolbox</text>
<text text-anchor="middle" x="2736.5" y="-13" font-family="Helvetica,sans-Serif" font-size="10.00">/library/src/SetMotorParameters.cpp</text>
</a>
</g>
</g>
<!-- Node1&#45;&gt;Node16 -->
<g id="edge15" class="edge">
<title>Node1&#45;&gt;Node16</title>
<path fill="none" stroke="midnightblue" d="M1610.26,-115.17C1802.19,-115.28 2256.43,-108.98 2632.5,-53 2642.89,-51.45 2653.76,-49.35 2664.39,-47"/>
<polygon fill="midnightblue" stroke="midnightblue" points="1610.21,-111.67 1600.21,-115.16 1610.2,-118.67 1610.21,-111.67"/>
</g>
<!-- Node17 -->
<g id="node17" class="node">
<title>Node17</title>
<g id="a_node17"><a xlink:href="_set_references_8cpp.html" target="_top" xlink:title=" ">
<polygon fill="none" stroke="black" points="2850.5,-6 2850.5,-47 3012.5,-47 3012.5,-6 2850.5,-6"/>
<text text-anchor="start" x="2858.5" y="-35" font-family="Helvetica,sans-Serif" font-size="10.00">/home/runner/work/wb</text>
<text text-anchor="start" x="2858.5" y="-24" font-family="Helvetica,sans-Serif" font-size="10.00">&#45;toolbox/wb&#45;toolbox/toolbox</text>
<text text-anchor="middle" x="2931.5" y="-13" font-family="Helvetica,sans-Serif" font-size="10.00">/library/src/SetReferences.cpp</text>
</a>
</g>
</g>
<!-- Node1&#45;&gt;Node17 -->
<g id="edge16" class="edge">
<title>Node1&#45;&gt;Node17</title>
<path fill="none" stroke="midnightblue" d="M1610.23,-112.96C1870.44,-108.2 2603.92,-91.65 2841.5,-53 2850.64,-51.51 2860.17,-49.43 2869.46,-47.08"/>
<polygon fill="midnightblue" stroke="midnightblue" points="1609.99,-109.46 1600.06,-113.14 1610.12,-116.46 1609.99,-109.46"/>
</g>
</g>
</svg>
