<?xml version="1.0" encoding="UTF-8" standalone="no"?>
<!DOCTYPE svg PUBLIC "-//W3C//DTD SVG 1.1//EN"
 "http://www.w3.org/Graphics/SVG/1.1/DTD/svg11.dtd">
<!-- Generated by graphviz version 2.36.0 (20140111.2315)
 -->
<!-- Title: /home/travis/build/robotology/wb&#45;toolbox/toolbox/src/DiscreteFilter.cpp Pages: 1 -->
<!--zoomable 274 -->
<svg id="main" version="1.1" xmlns="http://www.w3.org/2000/svg" xmlns:xlink="http://www.w3.org/1999/xlink" xml:space="preserve" onload="init(evt)">
<style type="text/css"><![CDATA[
.edge:hover path { stroke: red; }
.edge:hover polygon { stroke: red; fill: red; }
]]></style>
<script type="text/javascript"><![CDATA[
var edges = document.getElementsByTagName('g');
if (edges && edges.length) {
  for (var i=0;i<edges.length;i++) {
    if (edges[i].id.substr(0,4)=='edge') {
      edges[i].setAttribute('class','edge');
    }
  }
}
]]></script>
        <defs>
                <circle id="rim" cx="0" cy="0" r="7"/>
                <circle id="rim2" cx="0" cy="0" r="3.5"/>
                <g id="zoomPlus">
                        <use xlink:href="#rim" fill="#404040">
                                <set attributeName="fill" to="#808080" begin="zoomplus.mouseover" end="zoomplus.mouseout"/>
                        </use>
                        <path d="M-4,0h8M0,-4v8" fill="none" stroke="white" stroke-width="1.5" pointer-events="none"/>
                </g>
                <g id="zoomMin">
                        <use xlink:href="#rim" fill="#404040">
                                <set attributeName="fill" to="#808080" begin="zoomminus.mouseover" end="zoomminus.mouseout"/>
                        </use>
                        <path d="M-4,0h8" fill="none" stroke="white" stroke-width="1.5" pointer-events="none"/>
                </g>
                <g id="dirArrow">
                        <path fill="none" stroke="white" stroke-width="1.5" d="M0,-3.0v7 M-2.5,-0.5L0,-3.0L2.5,-0.5"/>
                </g>
               <g id="resetDef">
                       <use xlink:href="#rim2" fill="#404040">
                               <set attributeName="fill" to="#808080" begin="reset.mouseover" end="reset.mouseout"/>
                       </use>
               </g>
        </defs>

<script type="text/javascript">
var viewWidth = 764;
var viewHeight = 274;
var sectionId = 'dynsection-0';
</script>
<script xlink:href="svgpan.js"/>
<svg id="graph" class="graph">
<g id="viewport">
<title>/home/travis/build/robotology/wb&#45;toolbox/toolbox/src/DiscreteFilter.cpp</title>
<!-- Node1 -->
<g id="node1" class="node"><title>Node1</title>
<polygon fill="#bfbfbf" stroke="black" points="306.911,-224.5 306.911,-265.5 454.911,-265.5 454.911,-224.5 306.911,-224.5"/>
<text text-anchor="start" x="314.911" y="-253.5" font-family="Helvetica,sans-Serif" font-size="10.00">/home/travis/build</text>
<text text-anchor="start" x="314.911" y="-242.5" font-family="Helvetica,sans-Serif" font-size="10.00">/robotology/wb&#45;toolbox</text>
<text text-anchor="middle" x="380.911" y="-231.5" font-family="Helvetica,sans-Serif" font-size="10.00">/toolbox/src/DiscreteFilter.cpp</text>
</g>
<!-- Node2 -->
<g id="node2" class="node"><title>Node2</title>
<g id="a_node2"><a xlink:href="_discrete_filter_8h.html" target="_top" xlink:title="DiscreteFilter.h">
<polygon fill="none" stroke="black" points="269.411,-168.5 269.411,-187.5 352.411,-187.5 352.411,-168.5 269.411,-168.5"/>
<text text-anchor="middle" x="310.911" y="-175.5" font-family="Helvetica,sans-Serif" font-size="10.00">DiscreteFilter.h</text>
</a>
</g>
</g>
<!-- Node1&#45;&gt;Node2 -->
<g id="edge1" class="edge"><title>Node1&#45;&gt;Node2</title>
<path fill="none" stroke="midnightblue" d="M359.908,-224.498C349.589,-214.915 337.325,-203.528 327.649,-194.543"/>
<polygon fill="midnightblue" stroke="midnightblue" points="329.938,-191.892 320.229,-187.652 325.175,-197.022 329.938,-191.892"/>
</g>
<!-- Node4 -->
<g id="node4" class="node"><title>Node4</title>
<g id="a_node4"><a xlink:href="_parameters_8h.html" target="_top" xlink:title="Parameters.h">
<polygon fill="none" stroke="black" points="185.411,-56.5 185.411,-75.5 260.411,-75.5 260.411,-56.5 185.411,-56.5"/>
<text text-anchor="middle" x="222.911" y="-63.5" font-family="Helvetica,sans-Serif" font-size="10.00">Parameters.h</text>
</a>
</g>
</g>
<!-- Node1&#45;&gt;Node4 -->
<g id="edge22" class="edge"><title>Node1&#45;&gt;Node4</title>
<path fill="none" stroke="midnightblue" d="M314.501,-224.407C294.797,-215.883 274.585,-204.066 259.911,-188 233.455,-159.036 225.904,-111.604 223.757,-85.5614"/>
<polygon fill="midnightblue" stroke="midnightblue" points="227.247,-85.2904 223.115,-75.5345 220.261,-85.7378 227.247,-85.2904"/>
</g>
<!-- Node6 -->
<g id="node6" class="node"><title>Node6</title>
<polygon fill="none" stroke="#bfbfbf" points="268.411,-0.5 268.411,-19.5 309.411,-19.5 309.411,-0.5 268.411,-0.5"/>
<text text-anchor="middle" x="288.911" y="-7.5" font-family="Helvetica,sans-Serif" font-size="10.00">string</text>
</g>
<!-- Node1&#45;&gt;Node6 -->
<g id="edge28" class="edge"><title>Node1&#45;&gt;Node6</title>
<path fill="none" stroke="midnightblue" d="M307.948,-224.379C285.373,-215.818 261.561,-203.985 242.911,-188 198.869,-150.253 191.357,-131.91 175.911,-76 173.543,-67.4321 170.922,-63.3568 175.911,-56 194.221,-28.9997 231.585,-18.1993 258.337,-13.8792"/>
<polygon fill="midnightblue" stroke="midnightblue" points="258.941,-17.329 268.36,-12.4787 257.972,-10.3963 258.941,-17.329"/>
</g>
<!-- Node7 -->
<g id="node7" class="node"><title>Node7</title>
<polygon fill="none" stroke="#bfbfbf" points="83.9106,-0.5 83.9106,-19.5 127.911,-19.5 127.911,-0.5 83.9106,-0.5"/>
<text text-anchor="middle" x="105.911" y="-7.5" font-family="Helvetica,sans-Serif" font-size="10.00">vector</text>
</g>
<!-- Node1&#45;&gt;Node7 -->
<g id="edge29" class="edge"><title>Node1&#45;&gt;Node7</title>
<path fill="none" stroke="midnightblue" d="M306.817,-236.668C231.322,-228.035 120.436,-211.79 84.9106,-188 29.2067,-150.697 -23.8228,-112.723 11.9106,-56 25.3976,-34.5906 52.2021,-23.1431 73.7484,-17.1627"/>
<polygon fill="midnightblue" stroke="midnightblue" points="74.6667,-20.5409 83.5159,-14.7149 72.965,-13.7509 74.6667,-20.5409"/>
</g>
<!-- Node8 -->
<g id="node8" class="node"><title>Node8</title>
<g id="a_node8"><a xlink:href="_block_information_8h.html" target="_top" xlink:title="BlockInformation.h">
<polygon fill="none" stroke="black" points="392.911,-56.5 392.911,-75.5 490.911,-75.5 490.911,-56.5 392.911,-56.5"/>
<text text-anchor="middle" x="441.911" y="-63.5" font-family="Helvetica,sans-Serif" font-size="10.00">BlockInformation.h</text>
</a>
</g>
</g>
<!-- Node1&#45;&gt;Node8 -->
<g id="edge11" class="edge"><title>Node1&#45;&gt;Node8</title>
<path fill="none" stroke="midnightblue" d="M387.672,-224.382C399.544,-189.932 423.975,-119.042 435.555,-85.4424"/>
<polygon fill="midnightblue" stroke="midnightblue" points="439.003,-86.1785 438.952,-75.5838 432.385,-83.8977 439.003,-86.1785"/>
</g>
<!-- Node10 -->
<g id="node10" class="node"><title>Node10</title>
<g id="a_node10"><a xlink:href="_log_8h.html" target="_top" xlink:title="Log.h">
<polygon fill="none" stroke="black" points="422.411,-168.5 422.411,-187.5 463.411,-187.5 463.411,-168.5 422.411,-168.5"/>
<text text-anchor="middle" x="442.911" y="-175.5" font-family="Helvetica,sans-Serif" font-size="10.00">Log.h</text>
</a>
</g>
</g>
<!-- Node1&#45;&gt;Node10 -->
<g id="edge15" class="edge"><title>Node1&#45;&gt;Node10</title>
<path fill="none" stroke="midnightblue" d="M399.513,-224.498C408.47,-215.107 419.081,-203.983 427.568,-195.085"/>
<polygon fill="midnightblue" stroke="midnightblue" points="430.288,-197.304 434.657,-187.652 425.223,-192.473 430.288,-197.304"/>
</g>
<!-- Node11 -->
<g id="node11" class="node"><title>Node11</title>
<polygon fill="none" stroke="#bfbfbf" points="522.911,-112.5 522.911,-131.5 574.911,-131.5 574.911,-112.5 522.911,-112.5"/>
<text text-anchor="middle" x="548.911" y="-119.5" font-family="Helvetica,sans-Serif" font-size="10.00">sstream</text>
</g>
<!-- Node1&#45;&gt;Node11 -->
<g id="edge27" class="edge"><title>Node1&#45;&gt;Node11</title>
<path fill="none" stroke="midnightblue" d="M415.401,-224.427C432.754,-214.17 453.876,-201.049 471.911,-188 493.436,-172.425 516.522,-152.453 531.741,-138.782"/>
<polygon fill="midnightblue" stroke="midnightblue" points="534.269,-141.214 539.326,-131.904 529.567,-136.028 534.269,-141.214"/>
</g>
<!-- Node12 -->
<g id="node12" class="node"><title>Node12</title>
<g id="a_node12"><a xlink:href="_parameter_8h.html" target="_top" xlink:title="Parameter.h">
<polygon fill="none" stroke="black" points="20.9106,-56.5 20.9106,-75.5 90.9106,-75.5 90.9106,-56.5 20.9106,-56.5"/>
<text text-anchor="middle" x="55.9106" y="-63.5" font-family="Helvetica,sans-Serif" font-size="10.00">Parameter.h</text>
</a>
</g>
</g>
<!-- Node1&#45;&gt;Node12 -->
<g id="edge19" class="edge"><title>Node1&#45;&gt;Node12</title>
<path fill="none" stroke="midnightblue" d="M306.609,-236.863C235.604,-228.667 135.047,-213.03 104.911,-188 73.4845,-161.899 62.0205,-112.566 57.9877,-85.6571"/>
<polygon fill="midnightblue" stroke="midnightblue" points="61.4438,-85.0928 56.6778,-75.6305 54.5028,-85.9997 61.4438,-85.0928"/>
</g>
<!-- Node13 -->
<g id="node13" class="node"><title>Node13</title>
<g id="a_node13"><a xlink:href="_signal_8h.html" target="_top" xlink:title="Signal.h">
<polygon fill="none" stroke="black" points="592.911,-112.5 592.911,-131.5 644.911,-131.5 644.911,-112.5 592.911,-112.5"/>
<text text-anchor="middle" x="618.911" y="-119.5" font-family="Helvetica,sans-Serif" font-size="10.00">Signal.h</text>
</a>
</g>
</g>
<!-- Node1&#45;&gt;Node13 -->
<g id="edge23" class="edge"><title>Node1&#45;&gt;Node13</title>
<path fill="none" stroke="midnightblue" d="M423.503,-224.455C446.058,-213.937 474.141,-200.574 498.911,-188 532.482,-170.957 570.613,-150.027 594.707,-136.603"/>
<polygon fill="midnightblue" stroke="midnightblue" points="596.494,-139.614 603.516,-131.68 593.08,-133.503 596.494,-139.614"/>
</g>
<!-- Node14 -->
<g id="node14" class="node"><title>Node14</title>
<polygon fill="none" stroke="#bfbfbf" points="558.411,-168.5 558.411,-187.5 647.411,-187.5 647.411,-168.5 558.411,-168.5"/>
<text text-anchor="middle" x="602.911" y="-175.5" font-family="Helvetica,sans-Serif" font-size="10.00">iCub/ctrl/filters.h</text>
</g>
<!-- Node1&#45;&gt;Node14 -->
<g id="edge25" class="edge"><title>Node1&#45;&gt;Node14</title>
<path fill="none" stroke="midnightblue" d="M447.518,-224.498C485.434,-213.396 531.623,-199.872 563.744,-190.468"/>
<polygon fill="midnightblue" stroke="midnightblue" points="565.037,-193.736 573.651,-187.567 563.07,-187.018 565.037,-193.736"/>
</g>
<!-- Node15 -->
<g id="node15" class="node"><title>Node15</title>
<polygon fill="none" stroke="#bfbfbf" points="665.411,-168.5 665.411,-187.5 756.411,-187.5 756.411,-168.5 665.411,-168.5"/>
<text text-anchor="middle" x="710.911" y="-175.5" font-family="Helvetica,sans-Serif" font-size="10.00">yarp/sig/Vector.h</text>
</g>
<!-- Node1&#45;&gt;Node15 -->
<g id="edge26" class="edge"><title>Node1&#45;&gt;Node15</title>
<path fill="none" stroke="midnightblue" d="M454.969,-229.413C516.509,-217.291 602.593,-200.335 657.553,-189.51"/>
<polygon fill="midnightblue" stroke="midnightblue" points="658.305,-192.929 667.44,-187.562 656.952,-186.061 658.305,-192.929"/>
</g>
<!-- Node3 -->
<g id="node3" class="node"><title>Node3</title>
<g id="a_node3"><a xlink:href="_block_8h.html" target="_top" xlink:title="Block.h">
<polygon fill="none" stroke="black" points="248.911,-112.5 248.911,-131.5 298.911,-131.5 298.911,-112.5 248.911,-112.5"/>
<text text-anchor="middle" x="273.911" y="-119.5" font-family="Helvetica,sans-Serif" font-size="10.00">Block.h</text>
</a>
</g>
</g>
<!-- Node2&#45;&gt;Node3 -->
<g id="edge2" class="edge"><title>Node2&#45;&gt;Node3</title>
<path fill="none" stroke="midnightblue" d="M304.801,-168.083C299.628,-160.534 292.064,-149.495 285.716,-140.23"/>
<polygon fill="midnightblue" stroke="midnightblue" points="288.446,-138.022 279.907,-131.751 282.672,-141.979 288.446,-138.022"/>
</g>
<!-- Node5 -->
<g id="node5" class="node"><title>Node5</title>
<polygon fill="none" stroke="#bfbfbf" points="492.911,-0.5 492.911,-19.5 544.911,-19.5 544.911,-0.5 492.911,-0.5"/>
<text text-anchor="middle" x="518.911" y="-7.5" font-family="Helvetica,sans-Serif" font-size="10.00">memory</text>
</g>
<!-- Node2&#45;&gt;Node5 -->
<g id="edge9" class="edge"><title>Node2&#45;&gt;Node5</title>
<path fill="none" stroke="midnightblue" d="M342.025,-168.443C383.75,-155.383 457.378,-126.512 498.911,-76 509.798,-62.7591 514.769,-43.6301 517.032,-29.5505"/>
<polygon fill="midnightblue" stroke="midnightblue" points="520.514,-29.9175 518.329,-19.5506 513.572,-29.0176 520.514,-29.9175"/>
</g>
<!-- Node2&#45;&gt;Node6 -->
<g id="edge10" class="edge"><title>Node2&#45;&gt;Node6</title>
<path fill="none" stroke="midnightblue" d="M310.893,-168.137C310.78,-155.596 310.239,-131.973 307.911,-112 304.528,-82.9763 297.697,-49.7529 293.215,-29.581"/>
<polygon fill="midnightblue" stroke="midnightblue" points="296.573,-28.5621 290.947,-19.5844 289.746,-30.1109 296.573,-28.5621"/>
</g>
<!-- Node3&#45;&gt;Node4 -->
<g id="edge3" class="edge"><title>Node3&#45;&gt;Node4</title>
<path fill="none" stroke="midnightblue" d="M265.489,-112.083C258.062,-104.22 247.059,-92.5688 238.098,-83.0813"/>
<polygon fill="midnightblue" stroke="midnightblue" points="240.586,-80.618 231.175,-75.7511 235.497,-85.4244 240.586,-80.618"/>
</g>
<!-- Node3&#45;&gt;Node6 -->
<g id="edge7" class="edge"><title>Node3&#45;&gt;Node6</title>
<path fill="none" stroke="midnightblue" d="M275.088,-112.368C277.508,-94.617 283.092,-53.6664 286.375,-29.5974"/>
<polygon fill="midnightblue" stroke="midnightblue" points="289.856,-29.9726 287.739,-19.5914 282.92,-29.0268 289.856,-29.9726"/>
</g>
<!-- Node3&#45;&gt;Node7 -->
<g id="edge8" class="edge"><title>Node3&#45;&gt;Node7</title>
<path fill="none" stroke="midnightblue" d="M249.835,-112.43C229.283,-104.547 199.41,-91.7147 175.911,-76 154.706,-61.8203 133.713,-41.215 120.331,-27.0243"/>
<polygon fill="midnightblue" stroke="midnightblue" points="122.744,-24.4784 113.388,-19.5073 117.602,-29.228 122.744,-24.4784"/>
</g>
<!-- Node4&#45;&gt;Node5 -->
<g id="edge4" class="edge"><title>Node4&#45;&gt;Node5</title>
<path fill="none" stroke="midnightblue" d="M260.737,-58.2073C309.38,-49.4559 396.464,-33.7334 470.911,-20 474.786,-19.285 478.837,-18.5329 482.872,-17.7808"/>
<polygon fill="midnightblue" stroke="midnightblue" points="483.572,-21.2107 492.758,-15.9323 482.285,-14.3299 483.572,-21.2107"/>
</g>
<!-- Node4&#45;&gt;Node6 -->
<g id="edge5" class="edge"><title>Node4&#45;&gt;Node6</title>
<path fill="none" stroke="midnightblue" d="M233.515,-56.324C243.367,-48.2631 258.262,-36.0765 270.126,-26.3695"/>
<polygon fill="midnightblue" stroke="midnightblue" points="272.59,-28.8752 278.114,-19.8339 268.158,-23.4575 272.59,-28.8752"/>
</g>
<!-- Node4&#45;&gt;Node7 -->
<g id="edge6" class="edge"><title>Node4&#45;&gt;Node7</title>
<path fill="none" stroke="midnightblue" d="M204.372,-56.4435C185.288,-47.6356 155.336,-33.8116 133.475,-23.722"/>
<polygon fill="midnightblue" stroke="midnightblue" points="134.909,-20.5292 124.363,-19.5164 131.976,-26.8849 134.909,-20.5292"/>
</g>
<!-- Node8&#45;&gt;Node5 -->
<g id="edge12" class="edge"><title>Node8&#45;&gt;Node5</title>
<path fill="none" stroke="midnightblue" d="M454.282,-56.324C466.069,-48.0577 484.043,-35.4527 498.046,-25.6322"/>
<polygon fill="midnightblue" stroke="midnightblue" points="500.392,-28.2619 506.57,-19.6545 496.373,-22.5307 500.392,-28.2619"/>
</g>
<!-- Node8&#45;&gt;Node6 -->
<g id="edge13" class="edge"><title>Node8&#45;&gt;Node6</title>
<path fill="none" stroke="midnightblue" d="M417.667,-56.4435C390.985,-47.0262 348.055,-31.8746 319.182,-21.6842"/>
<polygon fill="midnightblue" stroke="midnightblue" points="320.201,-18.332 309.606,-18.3042 317.871,-24.9329 320.201,-18.332"/>
</g>
<!-- Node9 -->
<g id="node9" class="node"><title>Node9</title>
<polygon fill="none" stroke="#bfbfbf" points="421.911,-0.5 421.911,-19.5 461.911,-19.5 461.911,-0.5 421.911,-0.5"/>
<text text-anchor="middle" x="441.911" y="-7.5" font-family="Helvetica,sans-Serif" font-size="10.00">utility</text>
</g>
<!-- Node8&#45;&gt;Node9 -->
<g id="edge14" class="edge"><title>Node8&#45;&gt;Node9</title>
<path fill="none" stroke="midnightblue" d="M441.911,-56.083C441.911,-49.0059 441.911,-38.8611 441.911,-29.9865"/>
<polygon fill="midnightblue" stroke="midnightblue" points="445.411,-29.751 441.911,-19.7511 438.411,-29.7511 445.411,-29.751"/>
</g>
<!-- Node10&#45;&gt;Node5 -->
<g id="edge16" class="edge"><title>Node10&#45;&gt;Node5</title>
<path fill="none" stroke="midnightblue" d="M454.931,-168.391C475.585,-152.764 517.11,-117.482 532.911,-76 538.747,-60.6785 533.797,-42.3501 528.234,-29.0675"/>
<polygon fill="midnightblue" stroke="midnightblue" points="531.239,-27.2296 523.835,-19.6508 524.897,-30.1923 531.239,-27.2296"/>
</g>
<!-- Node10&#45;&gt;Node6 -->
<g id="edge18" class="edge"><title>Node10&#45;&gt;Node6</title>
<path fill="none" stroke="midnightblue" d="M434.631,-168.075C409.865,-141.38 336.099,-61.865 304.053,-27.3218"/>
<polygon fill="midnightblue" stroke="midnightblue" points="306.226,-24.5188 296.859,-19.5681 301.095,-29.2796 306.226,-24.5188"/>
</g>
<!-- Node10&#45;&gt;Node11 -->
<g id="edge17" class="edge"><title>Node10&#45;&gt;Node11</title>
<path fill="none" stroke="midnightblue" d="M459.941,-168.324C476.94,-159.664 503.287,-146.242 522.903,-136.249"/>
<polygon fill="midnightblue" stroke="midnightblue" points="524.6,-139.312 531.922,-131.655 521.423,-133.075 524.6,-139.312"/>
</g>
<!-- Node12&#45;&gt;Node6 -->
<g id="edge20" class="edge"><title>Node12&#45;&gt;Node6</title>
<path fill="none" stroke="midnightblue" d="M91.0453,-56.8572C136.615,-46.2961 215.357,-28.0467 258.49,-18.0502"/>
<polygon fill="midnightblue" stroke="midnightblue" points="259.443,-21.4222 268.395,-15.7548 257.863,-14.603 259.443,-21.4222"/>
</g>
<!-- Node12&#45;&gt;Node7 -->
<g id="edge21" class="edge"><title>Node12&#45;&gt;Node7</title>
<path fill="none" stroke="midnightblue" d="M64.1671,-56.083C71.3752,-48.2982 82.0203,-36.8015 90.7564,-27.3665"/>
<polygon fill="midnightblue" stroke="midnightblue" points="93.5818,-29.4666 97.8077,-19.7511 88.4454,-24.7108 93.5818,-29.4666"/>
</g>
<!-- Node13&#45;&gt;Node5 -->
<g id="edge24" class="edge"><title>Node13&#45;&gt;Node5</title>
<path fill="none" stroke="midnightblue" d="M613.266,-112.115C604.825,-99.138 588.062,-74.5314 570.911,-56 560.9,-45.1846 548.454,-34.3368 538.248,-26.0024"/>
<polygon fill="midnightblue" stroke="midnightblue" points="540.3,-23.1617 530.304,-19.6485 535.927,-28.6281 540.3,-23.1617"/>
</g>
</g>
</svg>
        <g id="navigator" transform="translate(0 0)" fill="#404254">
                <rect fill="#f2f5e9" fill-opacity="0.5" stroke="#606060" stroke-width=".5" x="0" y="0" width="60" height="60"/>
                <use id="zoomplus" xlink:href="#zoomPlus" x="17" y="9" onmousedown="handleZoom(evt,'in')"/>
                <use id="zoomminus" xlink:href="#zoomMin" x="42" y="9" onmousedown="handleZoom(evt,'out')"/>
                <use id="reset" xlink:href="#resetDef" x="30" y="36" onmousedown="handleReset()"/>
                <g id="arrowUp" xlink:href="#dirArrow" transform="translate(30 24)" onmousedown="handlePan(0,-1)">
                  <use xlink:href="#rim" fill="#404040">
                        <set attributeName="fill" to="#808080" begin="arrowUp.mouseover" end="arrowUp.mouseout"/>
                  </use>
                  <path fill="none" stroke="white" stroke-width="1.5" d="M0,-3.0v7 M-2.5,-0.5L0,-3.0L2.5,-0.5"/>
                </g>
                <g id="arrowRight" xlink:href="#dirArrow" transform="rotate(90) translate(36 -43)" onmousedown="handlePan(1,0)">
                  <use xlink:href="#rim" fill="#404040">
                        <set attributeName="fill" to="#808080" begin="arrowRight.mouseover" end="arrowRight.mouseout"/>
                  </use>
                  <path fill="none" stroke="white" stroke-width="1.5" d="M0,-3.0v7 M-2.5,-0.5L0,-3.0L2.5,-0.5"/>
                </g>
                <g id="arrowDown" xlink:href="#dirArrow" transform="rotate(180) translate(-30 -48)" onmousedown="handlePan(0,1)">
                  <use xlink:href="#rim" fill="#404040">
                        <set attributeName="fill" to="#808080" begin="arrowDown.mouseover" end="arrowDown.mouseout"/>
                  </use>
                  <path fill="none" stroke="white" stroke-width="1.5" d="M0,-3.0v7 M-2.5,-0.5L0,-3.0L2.5,-0.5"/>
                </g>
                <g id="arrowLeft" xlink:href="#dirArrow" transform="rotate(270) translate(-36 17)" onmousedown="handlePan(-1,0)">
                  <use xlink:href="#rim" fill="#404040">
                        <set attributeName="fill" to="#808080" begin="arrowLeft.mouseover" end="arrowLeft.mouseout"/>
                  </use>
                  <path fill="none" stroke="white" stroke-width="1.5" d="M0,-3.0v7 M-2.5,-0.5L0,-3.0L2.5,-0.5"/>
                </g>
        </g>
        <svg viewBox="0 0 15 15" width="100%" height="30px" preserveAspectRatio="xMaxYMin meet">
         <g id="arrow_out" transform="scale(0.3 0.3)">
          <a xlink:href="_discrete_filter_8cpp__incl_org.svg" target="_base">
           <rect id="button" ry="5" rx="5" y="6" x="6" height="38" width="38"
                fill="#f2f5e9" fill-opacity="0.5" stroke="#606060" stroke-width="1.0"/>
           <path id="arrow"
             d="M 11.500037,31.436501 C 11.940474,20.09759 22.043105,11.32322 32.158766,21.979434 L 37.068811,17.246167 C 37.068811,17.246167 37.088388,32 37.088388,32 L 22.160133,31.978069 C 22.160133,31.978069 26.997745,27.140456 26.997745,27.140456 C 18.528582,18.264221 13.291696,25.230495 11.500037,31.436501 z"
             style="fill:#404040;"/>
          </a>
         </g>
        </svg>
</svg>
