<?xml version="1.0" encoding="UTF-8" standalone="no"?>
<!DOCTYPE svg PUBLIC "-//W3C//DTD SVG 1.1//EN"
 "http://www.w3.org/Graphics/SVG/1.1/DTD/svg11.dtd">
<!-- Generated by graphviz version 2.36.0 (20140111.2315)
 -->
<!-- Title: /home/travis/build/robotology/wb&#45;toolbox/toolbox/src/DiscreteFilter.cpp Pages: 1 -->
<svg width="833pt" height="274pt"
 viewBox="0.00 0.00 832.56 274.00" xmlns="http://www.w3.org/2000/svg" xmlns:xlink="http://www.w3.org/1999/xlink">
<g id="graph0" class="graph" transform="scale(1 1) rotate(0) translate(4 270)">
<title>/home/travis/build/robotology/wb&#45;toolbox/toolbox/src/DiscreteFilter.cpp</title>
<!-- Node1 -->
<g id="node1" class="node"><title>Node1</title>
<polygon fill="#bfbfbf" stroke="black" points="355.564,-224.5 355.564,-265.5 503.564,-265.5 503.564,-224.5 355.564,-224.5"/>
<text text-anchor="start" x="363.564" y="-253.5" font-family="Helvetica,sans-Serif" font-size="10.00">/home/travis/build</text>
<text text-anchor="start" x="363.564" y="-242.5" font-family="Helvetica,sans-Serif" font-size="10.00">/robotology/wb&#45;toolbox</text>
<text text-anchor="middle" x="429.564" y="-231.5" font-family="Helvetica,sans-Serif" font-size="10.00">/toolbox/src/DiscreteFilter.cpp</text>
</g>
<!-- Node2 -->
<g id="node2" class="node"><title>Node2</title>
<g id="a_node2"><a xlink:href="_discrete_filter_8h.html" target="_top" xlink:title="DiscreteFilter.h">
<polygon fill="none" stroke="black" points="290.064,-168.5 290.064,-187.5 373.064,-187.5 373.064,-168.5 290.064,-168.5"/>
<text text-anchor="middle" x="331.564" y="-175.5" font-family="Helvetica,sans-Serif" font-size="10.00">DiscreteFilter.h</text>
</a>
</g>
</g>
<!-- Node1&#45;&gt;Node2 -->
<g id="edge1" class="edge"><title>Node1&#45;&gt;Node2</title>
<path fill="none" stroke="midnightblue" d="M400.16,-224.498C384.991,-214.436 366.821,-202.385 352.993,-193.214"/>
<polygon fill="midnightblue" stroke="midnightblue" points="354.877,-190.263 344.609,-187.652 351.008,-196.097 354.877,-190.263"/>
</g>
<!-- Node4 -->
<g id="node4" class="node"><title>Node4</title>
<g id="a_node4"><a xlink:href="_parameters_8h.html" target="_top" xlink:title="Parameters.h">
<polygon fill="none" stroke="black" points="187.064,-56.5 187.064,-75.5 262.064,-75.5 262.064,-56.5 187.064,-56.5"/>
<text text-anchor="middle" x="224.564" y="-63.5" font-family="Helvetica,sans-Serif" font-size="10.00">Parameters.h</text>
</a>
</g>
</g>
<!-- Node1&#45;&gt;Node4 -->
<g id="edge23" class="edge"><title>Node1&#45;&gt;Node4</title>
<path fill="none" stroke="midnightblue" d="M355.31,-225.858C329.885,-217.221 302.378,-204.965 280.564,-188 247.627,-162.386 233.31,-112.855 227.72,-85.7852"/>
<polygon fill="midnightblue" stroke="midnightblue" points="231.111,-84.879 225.83,-75.6943 224.231,-86.1677 231.111,-84.879"/>
</g>
<!-- Node6 -->
<g id="node6" class="node"><title>Node6</title>
<polygon fill="none" stroke="#bfbfbf" points="270.064,-0.5 270.064,-19.5 311.064,-19.5 311.064,-0.5 270.064,-0.5"/>
<text text-anchor="middle" x="290.564" y="-7.5" font-family="Helvetica,sans-Serif" font-size="10.00">string</text>
</g>
<!-- Node1&#45;&gt;Node6 -->
<g id="edge29" class="edge"><title>Node1&#45;&gt;Node6</title>
<path fill="none" stroke="midnightblue" d="M355.431,-230.201C323.774,-221.739 287.715,-208.462 259.564,-188 209.66,-151.728 196.735,-134.639 177.564,-76 174.801,-67.5512 172.575,-63.3568 177.564,-56 195.874,-28.9997 233.238,-18.1993 259.99,-13.8792"/>
<polygon fill="midnightblue" stroke="midnightblue" points="260.594,-17.329 270.013,-12.4787 259.625,-10.3963 260.594,-17.329"/>
</g>
<!-- Node7 -->
<g id="node7" class="node"><title>Node7</title>
<polygon fill="none" stroke="#bfbfbf" points="136.564,-0.5 136.564,-19.5 180.564,-19.5 180.564,-0.5 136.564,-0.5"/>
<text text-anchor="middle" x="158.564" y="-7.5" font-family="Helvetica,sans-Serif" font-size="10.00">vector</text>
</g>
<!-- Node1&#45;&gt;Node7 -->
<g id="edge31" class="edge"><title>Node1&#45;&gt;Node7</title>
<path fill="none" stroke="midnightblue" d="M355.528,-238.893C268.306,-231.689 129.786,-216.164 86.5635,-188 30.3951,-151.4 -26.2,-109.975 13.5635,-56 39.2382,-21.1494 91.6443,-12.4937 125.919,-10.7666"/>
<polygon fill="midnightblue" stroke="midnightblue" points="126.473,-14.2504 136.353,-10.4249 126.244,-7.25419 126.473,-14.2504"/>
</g>
<!-- Node8 -->
<g id="node8" class="node"><title>Node8</title>
<g id="a_node8"><a xlink:href="_block_information_8h.html" target="_top" xlink:title="BlockInformation.h">
<polygon fill="none" stroke="black" points="356.564,-56.5 356.564,-75.5 454.564,-75.5 454.564,-56.5 356.564,-56.5"/>
<text text-anchor="middle" x="405.564" y="-63.5" font-family="Helvetica,sans-Serif" font-size="10.00">BlockInformation.h</text>
</a>
</g>
</g>
<!-- Node1&#45;&gt;Node8 -->
<g id="edge11" class="edge"><title>Node1&#45;&gt;Node8</title>
<path fill="none" stroke="midnightblue" d="M426.903,-224.382C422.253,-190.082 412.704,-119.658 408.124,-85.8828"/>
<polygon fill="midnightblue" stroke="midnightblue" points="411.539,-85.0228 406.727,-75.5838 404.603,-85.9634 411.539,-85.0228"/>
</g>
<!-- Node10 -->
<g id="node10" class="node"><title>Node10</title>
<g id="a_node10"><a xlink:href="_log_8h.html" target="_top" xlink:title="Log.h">
<polygon fill="none" stroke="black" points="434.064,-168.5 434.064,-187.5 475.064,-187.5 475.064,-168.5 434.064,-168.5"/>
<text text-anchor="middle" x="454.564" y="-175.5" font-family="Helvetica,sans-Serif" font-size="10.00">Log.h</text>
</a>
</g>
</g>
<!-- Node1&#45;&gt;Node10 -->
<g id="edge16" class="edge"><title>Node1&#45;&gt;Node10</title>
<path fill="none" stroke="midnightblue" d="M437.064,-224.498C440.418,-215.778 444.347,-205.563 447.631,-197.024"/>
<polygon fill="midnightblue" stroke="midnightblue" points="450.912,-198.242 451.236,-187.652 444.379,-195.73 450.912,-198.242"/>
</g>
<!-- Node11 -->
<g id="node11" class="node"><title>Node11</title>
<polygon fill="none" stroke="#bfbfbf" points="586.564,-112.5 586.564,-131.5 638.564,-131.5 638.564,-112.5 586.564,-112.5"/>
<text text-anchor="middle" x="612.564" y="-119.5" font-family="Helvetica,sans-Serif" font-size="10.00">sstream</text>
</g>
<!-- Node1&#45;&gt;Node11 -->
<g id="edge28" class="edge"><title>Node1&#45;&gt;Node11</title>
<path fill="none" stroke="midnightblue" d="M452.488,-224.387C471.835,-208.291 500.612,-185.4 527.564,-168 545.974,-156.114 567.848,-144.588 584.795,-136.177"/>
<polygon fill="midnightblue" stroke="midnightblue" points="586.696,-139.143 594.141,-131.605 583.62,-132.856 586.696,-139.143"/>
</g>
<!-- Node12 -->
<g id="node12" class="node"><title>Node12</title>
<g id="a_node12"><a xlink:href="_parameter_8h.html" target="_top" xlink:title="Parameter.h">
<polygon fill="none" stroke="black" points="22.5635,-56.5 22.5635,-75.5 92.5635,-75.5 92.5635,-56.5 22.5635,-56.5"/>
<text text-anchor="middle" x="57.5635" y="-63.5" font-family="Helvetica,sans-Serif" font-size="10.00">Parameter.h</text>
</a>
</g>
</g>
<!-- Node1&#45;&gt;Node12 -->
<g id="edge20" class="edge"><title>Node1&#45;&gt;Node12</title>
<path fill="none" stroke="midnightblue" d="M355.234,-239.397C272.008,-232.842 143.882,-218.107 106.564,-188 74.7685,-162.349 63.4551,-112.833 59.5438,-85.7755"/>
<polygon fill="midnightblue" stroke="midnightblue" points="62.9964,-85.1779 58.2825,-75.6895 56.0505,-86.0465 62.9964,-85.1779"/>
</g>
<!-- Node13 -->
<g id="node13" class="node"><title>Node13</title>
<g id="a_node13"><a xlink:href="_signal_8h.html" target="_top" xlink:title="Signal.h">
<polygon fill="none" stroke="black" points="656.564,-112.5 656.564,-131.5 708.564,-131.5 708.564,-112.5 656.564,-112.5"/>
<text text-anchor="middle" x="682.564" y="-119.5" font-family="Helvetica,sans-Serif" font-size="10.00">Signal.h</text>
</a>
</g>
</g>
<!-- Node1&#45;&gt;Node13 -->
<g id="edge24" class="edge"><title>Node1&#45;&gt;Node13</title>
<path fill="none" stroke="midnightblue" d="M464.093,-224.409C482.893,-213.708 506.543,-200.188 527.564,-188 542.73,-179.206 545.731,-175.529 561.564,-168 589.493,-154.718 622.469,-142.681 646.936,-134.404"/>
<polygon fill="midnightblue" stroke="midnightblue" points="648.151,-137.689 656.529,-131.204 645.936,-131.049 648.151,-137.689"/>
</g>
<!-- Node14 -->
<g id="node14" class="node"><title>Node14</title>
<polygon fill="none" stroke="#bfbfbf" points="570.064,-168.5 570.064,-187.5 659.064,-187.5 659.064,-168.5 570.064,-168.5"/>
<text text-anchor="middle" x="614.564" y="-175.5" font-family="Helvetica,sans-Serif" font-size="10.00">iCub/ctrl/filters.h</text>
</g>
<!-- Node1&#45;&gt;Node14 -->
<g id="edge26" class="edge"><title>Node1&#45;&gt;Node14</title>
<path fill="none" stroke="midnightblue" d="M485.07,-224.498C516.025,-213.622 553.597,-200.421 580.28,-191.045"/>
<polygon fill="midnightblue" stroke="midnightblue" points="581.663,-194.27 589.937,-187.652 579.342,-187.665 581.663,-194.27"/>
</g>
<!-- Node15 -->
<g id="node15" class="node"><title>Node15</title>
<polygon fill="none" stroke="#bfbfbf" points="677.064,-168.5 677.064,-187.5 768.064,-187.5 768.064,-168.5 677.064,-168.5"/>
<text text-anchor="middle" x="722.564" y="-175.5" font-family="Helvetica,sans-Serif" font-size="10.00">yarp/sig/Vector.h</text>
</g>
<!-- Node1&#45;&gt;Node15 -->
<g id="edge27" class="edge"><title>Node1&#45;&gt;Node15</title>
<path fill="none" stroke="midnightblue" d="M503.879,-227.514C557.424,-215.635 628.12,-199.952 674.435,-189.677"/>
<polygon fill="midnightblue" stroke="midnightblue" points="675.215,-193.089 684.22,-187.506 673.699,-186.255 675.215,-193.089"/>
</g>
<!-- Node16 -->
<g id="node16" class="node"><title>Node16</title>
<polygon fill="none" stroke="#bfbfbf" points="786.564,-168.5 786.564,-187.5 824.564,-187.5 824.564,-168.5 786.564,-168.5"/>
<text text-anchor="middle" x="805.564" y="-175.5" font-family="Helvetica,sans-Serif" font-size="10.00">tuple</text>
</g>
<!-- Node1&#45;&gt;Node16 -->
<g id="edge30" class="edge"><title>Node1&#45;&gt;Node16</title>
<path fill="none" stroke="midnightblue" d="M503.6,-235.127C574.26,-225.937 683.44,-209.85 776.564,-188 776.663,-187.977 776.763,-187.953 776.862,-187.93"/>
<polygon fill="midnightblue" stroke="midnightblue" points="777.576,-191.362 786.325,-185.386 775.759,-184.602 777.576,-191.362"/>
</g>
<!-- Node3 -->
<g id="node3" class="node"><title>Node3</title>
<g id="a_node3"><a xlink:href="_block_8h.html" target="_top" xlink:title="Block.h">
<polygon fill="none" stroke="black" points="250.564,-112.5 250.564,-131.5 300.564,-131.5 300.564,-112.5 250.564,-112.5"/>
<text text-anchor="middle" x="275.564" y="-119.5" font-family="Helvetica,sans-Serif" font-size="10.00">Block.h</text>
</a>
</g>
</g>
<!-- Node2&#45;&gt;Node3 -->
<g id="edge2" class="edge"><title>Node2&#45;&gt;Node3</title>
<path fill="none" stroke="midnightblue" d="M322.566,-168.324C314.369,-160.42 302.058,-148.548 292.091,-138.938"/>
<polygon fill="midnightblue" stroke="midnightblue" points="294.353,-136.256 284.725,-131.834 289.494,-141.295 294.353,-136.256"/>
</g>
<!-- Node5 -->
<g id="node5" class="node"><title>Node5</title>
<polygon fill="none" stroke="#bfbfbf" points="456.564,-0.5 456.564,-19.5 508.564,-19.5 508.564,-0.5 456.564,-0.5"/>
<text text-anchor="middle" x="482.564" y="-7.5" font-family="Helvetica,sans-Serif" font-size="10.00">memory</text>
</g>
<!-- Node2&#45;&gt;Node5 -->
<g id="edge9" class="edge"><title>Node2&#45;&gt;Node5</title>
<path fill="none" stroke="midnightblue" d="M348.764,-168.321C376.765,-153.323 432.128,-119.896 462.564,-76 472.129,-62.2039 477.239,-43.6811 479.891,-29.9382"/>
<polygon fill="midnightblue" stroke="midnightblue" points="483.401,-30.1651 481.585,-19.7271 476.496,-29.0193 483.401,-30.1651"/>
</g>
<!-- Node2&#45;&gt;Node6 -->
<g id="edge10" class="edge"><title>Node2&#45;&gt;Node6</title>
<path fill="none" stroke="midnightblue" d="M329.359,-168.075C322.905,-141.945 303.953,-65.2106 295.152,-29.577"/>
<polygon fill="midnightblue" stroke="midnightblue" points="298.476,-28.4371 292.68,-19.5681 291.68,-30.1156 298.476,-28.4371"/>
</g>
<!-- Node3&#45;&gt;Node4 -->
<g id="edge3" class="edge"><title>Node3&#45;&gt;Node4</title>
<path fill="none" stroke="midnightblue" d="M267.142,-112.083C259.715,-104.22 248.712,-92.5688 239.751,-83.0813"/>
<polygon fill="midnightblue" stroke="midnightblue" points="242.239,-80.618 232.828,-75.7511 237.15,-85.4244 242.239,-80.618"/>
</g>
<!-- Node3&#45;&gt;Node6 -->
<g id="edge7" class="edge"><title>Node3&#45;&gt;Node6</title>
<path fill="none" stroke="midnightblue" d="M276.741,-112.368C279.161,-94.617 284.745,-53.6664 288.027,-29.5974"/>
<polygon fill="midnightblue" stroke="midnightblue" points="291.509,-29.9726 289.392,-19.5914 284.573,-29.0268 291.509,-29.9726"/>
</g>
<!-- Node3&#45;&gt;Node7 -->
<g id="edge8" class="edge"><title>Node3&#45;&gt;Node7</title>
<path fill="none" stroke="midnightblue" d="M250.263,-115.653C228.045,-109.673 196.408,-97.8204 177.564,-76 166.406,-63.0813 161.793,-43.909 159.89,-29.7316"/>
<polygon fill="midnightblue" stroke="midnightblue" points="163.359,-29.2451 158.872,-19.6475 156.394,-29.9486 163.359,-29.2451"/>
</g>
<!-- Node4&#45;&gt;Node5 -->
<g id="edge4" class="edge"><title>Node4&#45;&gt;Node5</title>
<path fill="none" stroke="midnightblue" d="M262.079,-57.1479C311.426,-46.8195 397.571,-28.7891 446.291,-18.5919"/>
<polygon fill="midnightblue" stroke="midnightblue" points="447.311,-21.9543 456.382,-16.4799 445.877,-15.1028 447.311,-21.9543"/>
</g>
<!-- Node4&#45;&gt;Node6 -->
<g id="edge5" class="edge"><title>Node4&#45;&gt;Node6</title>
<path fill="none" stroke="midnightblue" d="M235.168,-56.324C245.02,-48.2631 259.914,-36.0765 271.779,-26.3695"/>
<polygon fill="midnightblue" stroke="midnightblue" points="274.243,-28.8752 279.767,-19.8339 269.811,-23.4575 274.243,-28.8752"/>
</g>
<!-- Node4&#45;&gt;Node7 -->
<g id="edge6" class="edge"><title>Node4&#45;&gt;Node7</title>
<path fill="none" stroke="midnightblue" d="M213.959,-56.324C204.107,-48.2631 189.213,-36.0765 177.348,-26.3695"/>
<polygon fill="midnightblue" stroke="midnightblue" points="179.316,-23.4575 169.36,-19.8339 174.884,-28.8752 179.316,-23.4575"/>
</g>
<!-- Node8&#45;&gt;Node5 -->
<g id="edge12" class="edge"><title>Node8&#45;&gt;Node5</title>
<path fill="none" stroke="midnightblue" d="M417.935,-56.324C429.722,-48.0577 447.696,-35.4527 461.699,-25.6322"/>
<polygon fill="midnightblue" stroke="midnightblue" points="464.045,-28.2619 470.223,-19.6545 460.026,-22.5307 464.045,-28.2619"/>
</g>
<!-- Node8&#45;&gt;Node6 -->
<g id="edge13" class="edge"><title>Node8&#45;&gt;Node6</title>
<path fill="none" stroke="midnightblue" d="M387.341,-56.4435C368.668,-47.6751 339.408,-33.9355 317.946,-23.8579"/>
<polygon fill="midnightblue" stroke="midnightblue" points="319.24,-20.5988 308.7,-19.5164 316.264,-26.935 319.24,-20.5988"/>
</g>
<!-- Node8&#45;&gt;Node7 -->
<g id="edge15" class="edge"><title>Node8&#45;&gt;Node7</title>
<path fill="none" stroke="midnightblue" d="M366.426,-56.4435C317.713,-45.7937 235.457,-27.8106 190.409,-17.9623"/>
<polygon fill="midnightblue" stroke="midnightblue" points="191.11,-14.5329 180.593,-15.8162 189.615,-21.3714 191.11,-14.5329"/>
</g>
<!-- Node9 -->
<g id="node9" class="node"><title>Node9</title>
<polygon fill="none" stroke="#bfbfbf" points="385.564,-0.5 385.564,-19.5 425.564,-19.5 425.564,-0.5 385.564,-0.5"/>
<text text-anchor="middle" x="405.564" y="-7.5" font-family="Helvetica,sans-Serif" font-size="10.00">utility</text>
</g>
<!-- Node8&#45;&gt;Node9 -->
<g id="edge14" class="edge"><title>Node8&#45;&gt;Node9</title>
<path fill="none" stroke="midnightblue" d="M405.564,-56.083C405.564,-49.0059 405.564,-38.8611 405.564,-29.9865"/>
<polygon fill="midnightblue" stroke="midnightblue" points="409.064,-29.751 405.564,-19.7511 402.064,-29.7511 409.064,-29.751"/>
</g>
<!-- Node10&#45;&gt;Node5 -->
<g id="edge17" class="edge"><title>Node10&#45;&gt;Node5</title>
<path fill="none" stroke="midnightblue" d="M475.17,-171.82C494.358,-165.781 521.853,-153.734 534.564,-132 551.616,-102.843 548.605,-86.7209 534.564,-56 528.786,-43.3602 517.511,-32.911 506.933,-25.2737"/>
<polygon fill="midnightblue" stroke="midnightblue" points="508.605,-22.1817 498.347,-19.5333 504.715,-28.0009 508.605,-22.1817"/>
</g>
<!-- Node10&#45;&gt;Node6 -->
<g id="edge19" class="edge"><title>Node10&#45;&gt;Node6</title>
<path fill="none" stroke="midnightblue" d="M458.668,-168.259C468.146,-146.647 488.809,-89.9954 462.564,-56 445.407,-33.777 365.779,-20.4143 321.129,-14.5413"/>
<polygon fill="midnightblue" stroke="midnightblue" points="321.476,-11.0573 311.115,-13.2725 320.596,-18.0018 321.476,-11.0573"/>
</g>
<!-- Node10&#45;&gt;Node11 -->
<g id="edge18" class="edge"><title>Node10&#45;&gt;Node11</title>
<path fill="none" stroke="midnightblue" d="M475.219,-169.94C501.26,-161.041 546.409,-145.61 577.803,-134.88"/>
<polygon fill="midnightblue" stroke="midnightblue" points="579.14,-138.122 587.471,-131.576 576.876,-131.498 579.14,-138.122"/>
</g>
<!-- Node12&#45;&gt;Node6 -->
<g id="edge21" class="edge"><title>Node12&#45;&gt;Node6</title>
<path fill="none" stroke="midnightblue" d="M92.6982,-56.8572C138.267,-46.2961 217.01,-28.0467 260.143,-18.0502"/>
<polygon fill="midnightblue" stroke="midnightblue" points="261.096,-21.4222 270.048,-15.7548 259.515,-14.603 261.096,-21.4222"/>
</g>
<!-- Node12&#45;&gt;Node7 -->
<g id="edge22" class="edge"><title>Node12&#45;&gt;Node7</title>
<path fill="none" stroke="midnightblue" d="M73.7909,-56.324C89.9145,-47.7034 114.864,-34.3643 133.528,-24.3855"/>
<polygon fill="midnightblue" stroke="midnightblue" points="135.208,-27.456 142.376,-19.6545 131.907,-21.283 135.208,-27.456"/>
</g>
<!-- Node13&#45;&gt;Node5 -->
<g id="edge25" class="edge"><title>Node13&#45;&gt;Node5</title>
<path fill="none" stroke="midnightblue" d="M668.851,-112.476C648.212,-99.7444 607.824,-75.2022 572.564,-56 551.852,-44.7208 527.957,-32.8235 509.995,-24.0967"/>
<polygon fill="midnightblue" stroke="midnightblue" points="511.211,-20.7974 500.684,-19.5987 508.166,-27.1004 511.211,-20.7974"/>
</g>
</g>
</svg>
