<?xml version="1.0" encoding="UTF-8" standalone="no"?>
<!DOCTYPE svg PUBLIC "-//W3C//DTD SVG 1.1//EN"
 "http://www.w3.org/Graphics/SVG/1.1/DTD/svg11.dtd">
<!-- Generated by graphviz version 2.36.0 (20140111.2315)
 -->
<!-- Title: /home/travis/build/robotology/wb&#45;toolbox/toolbox/src/DotJNu.cpp Pages: 1 -->
<!--zoomable 330 -->
<svg id="main" version="1.1" xmlns="http://www.w3.org/2000/svg" xmlns:xlink="http://www.w3.org/1999/xlink" xml:space="preserve" onload="init(evt)">
<style type="text/css"><![CDATA[
.edge:hover path { stroke: red; }
.edge:hover polygon { stroke: red; fill: red; }
]]></style>
<script type="text/javascript"><![CDATA[
var edges = document.getElementsByTagName('g');
if (edges && edges.length) {
  for (var i=0;i<edges.length;i++) {
    if (edges[i].id.substr(0,4)=='edge') {
      edges[i].setAttribute('class','edge');
    }
  }
}
]]></script>
        <defs>
                <circle id="rim" cx="0" cy="0" r="7"/>
                <circle id="rim2" cx="0" cy="0" r="3.5"/>
                <g id="zoomPlus">
                        <use xlink:href="#rim" fill="#404040">
                                <set attributeName="fill" to="#808080" begin="zoomplus.mouseover" end="zoomplus.mouseout"/>
                        </use>
                        <path d="M-4,0h8M0,-4v8" fill="none" stroke="white" stroke-width="1.5" pointer-events="none"/>
                </g>
                <g id="zoomMin">
                        <use xlink:href="#rim" fill="#404040">
                                <set attributeName="fill" to="#808080" begin="zoomminus.mouseover" end="zoomminus.mouseout"/>
                        </use>
                        <path d="M-4,0h8" fill="none" stroke="white" stroke-width="1.5" pointer-events="none"/>
                </g>
                <g id="dirArrow">
                        <path fill="none" stroke="white" stroke-width="1.5" d="M0,-3.0v7 M-2.5,-0.5L0,-3.0L2.5,-0.5"/>
                </g>
               <g id="resetDef">
                       <use xlink:href="#rim2" fill="#404040">
                               <set attributeName="fill" to="#808080" begin="reset.mouseover" end="reset.mouseout"/>
                       </use>
               </g>
        </defs>

<script type="text/javascript">
var viewWidth = 1476;
var viewHeight = 330;
var sectionId = 'dynsection-0';
</script>
<script xlink:href="svgpan.js"/>
<svg id="graph" class="graph">
<g id="viewport">
<title>/home/travis/build/robotology/wb&#45;toolbox/toolbox/src/DotJNu.cpp</title>
<!-- Node1 -->
<g id="node1" class="node"><title>Node1</title>
<polygon fill="#bfbfbf" stroke="black" points="585.5,-280.5 585.5,-321.5 708.5,-321.5 708.5,-280.5 585.5,-280.5"/>
<text text-anchor="start" x="593.5" y="-309.5" font-family="Helvetica,sans-Serif" font-size="10.00">/home/travis/build</text>
<text text-anchor="start" x="593.5" y="-298.5" font-family="Helvetica,sans-Serif" font-size="10.00">/robotology/wb&#45;toolbox</text>
<text text-anchor="middle" x="647" y="-287.5" font-family="Helvetica,sans-Serif" font-size="10.00">/toolbox/src/DotJNu.cpp</text>
</g>
<!-- Node2 -->
<g id="node2" class="node"><title>Node2</title>
<g id="a_node2"><a xlink:href="_dot_j_nu_8h.html" target="_top" xlink:title="DotJNu.h">
<polygon fill="none" stroke="black" points="204.5,-224.5 204.5,-243.5 263.5,-243.5 263.5,-224.5 204.5,-224.5"/>
<text text-anchor="middle" x="234" y="-231.5" font-family="Helvetica,sans-Serif" font-size="10.00">DotJNu.h</text>
</a>
</g>
</g>
<!-- Node1&#45;&gt;Node2 -->
<g id="edge1" class="edge"><title>Node1&#45;&gt;Node2</title>
<path fill="none" stroke="midnightblue" d="M585.17,-290.269C499.164,-276.733 345.875,-252.607 273.681,-241.245"/>
<polygon fill="midnightblue" stroke="midnightblue" points="274.058,-237.762 263.636,-239.664 272.97,-244.676 274.058,-237.762"/>
</g>
<!-- Node5 -->
<g id="node5" class="node"><title>Node5</title>
<g id="a_node5"><a xlink:href="_parameters_8h.html" target="_top" xlink:title="Parameters.h">
<polygon fill="none" stroke="black" points="341.5,-56.5 341.5,-75.5 416.5,-75.5 416.5,-56.5 341.5,-56.5"/>
<text text-anchor="middle" x="379" y="-63.5" font-family="Helvetica,sans-Serif" font-size="10.00">Parameters.h</text>
</a>
</g>
</g>
<!-- Node1&#45;&gt;Node5 -->
<g id="edge32" class="edge"><title>Node1&#45;&gt;Node5</title>
<path fill="none" stroke="midnightblue" d="M624.15,-280.135C571.718,-234.55 443.669,-123.223 396.672,-82.3639"/>
<polygon fill="midnightblue" stroke="midnightblue" points="398.719,-79.5061 388.876,-75.5863 394.126,-84.7888 398.719,-79.5061"/>
</g>
<!-- Node6 -->
<g id="node6" class="node"><title>Node6</title>
<polygon fill="none" stroke="#bfbfbf" points="173,-0.5 173,-19.5 225,-19.5 225,-0.5 173,-0.5"/>
<text text-anchor="middle" x="199" y="-7.5" font-family="Helvetica,sans-Serif" font-size="10.00">memory</text>
</g>
<!-- Node1&#45;&gt;Node6 -->
<g id="edge44" class="edge"><title>Node1&#45;&gt;Node6</title>
<path fill="none" stroke="midnightblue" d="M585.35,-298.655C446.835,-293.964 123,-272.95 123,-179 123,-179 123,-179 123,-121 123,-81.2757 156.964,-45.5045 179.482,-26.1536"/>
<polygon fill="midnightblue" stroke="midnightblue" points="181.976,-28.6337 187.457,-19.5672 177.518,-23.2364 181.976,-28.6337"/>
</g>
<!-- Node9 -->
<g id="node9" class="node"><title>Node9</title>
<g id="a_node9"><a xlink:href="_block_information_8h.html" target="_top" xlink:title="BlockInformation.h">
<polygon fill="none" stroke="black" points="769,-56.5 769,-75.5 867,-75.5 867,-56.5 769,-56.5"/>
<text text-anchor="middle" x="818" y="-63.5" font-family="Helvetica,sans-Serif" font-size="10.00">BlockInformation.h</text>
</a>
</g>
</g>
<!-- Node1&#45;&gt;Node9 -->
<g id="edge14" class="edge"><title>Node1&#45;&gt;Node9</title>
<path fill="none" stroke="midnightblue" d="M661.579,-280.135C694.687,-235.022 775.048,-125.526 805.775,-83.658"/>
<polygon fill="midnightblue" stroke="midnightblue" points="808.603,-85.719 811.698,-75.5863 802.96,-81.5774 808.603,-85.719"/>
</g>
<!-- Node10 -->
<g id="node10" class="node"><title>Node10</title>
<polygon fill="none" stroke="#bfbfbf" points="858,-0.5 858,-19.5 896,-19.5 896,-0.5 858,-0.5"/>
<text text-anchor="middle" x="877" y="-7.5" font-family="Helvetica,sans-Serif" font-size="10.00">tuple</text>
</g>
<!-- Node1&#45;&gt;Node10 -->
<g id="edge46" class="edge"><title>Node1&#45;&gt;Node10</title>
<path fill="none" stroke="midnightblue" d="M671.411,-280.189C725.637,-235.572 853.077,-127.127 875,-76 881.257,-61.4083 881.243,-43.2338 879.96,-29.8158"/>
<polygon fill="midnightblue" stroke="midnightblue" points="883.426,-29.3255 878.693,-19.8464 876.482,-30.2079 883.426,-29.3255"/>
</g>
<!-- Node12 -->
<g id="node12" class="node"><title>Node12</title>
<g id="a_node12"><a xlink:href="_configuration_8h.html" target="_top" xlink:title="Configuration.h">
<polygon fill="none" stroke="black" points="434.5,-56.5 434.5,-75.5 517.5,-75.5 517.5,-56.5 434.5,-56.5"/>
<text text-anchor="middle" x="476" y="-63.5" font-family="Helvetica,sans-Serif" font-size="10.00">Configuration.h</text>
</a>
</g>
</g>
<!-- Node1&#45;&gt;Node12 -->
<g id="edge20" class="edge"><title>Node1&#45;&gt;Node12</title>
<path fill="none" stroke="midnightblue" d="M632.421,-280.135C599.313,-235.022 518.952,-125.526 488.225,-83.658"/>
<polygon fill="midnightblue" stroke="midnightblue" points="491.04,-81.5774 482.302,-75.5863 485.397,-85.719 491.04,-81.5774"/>
</g>
<!-- Node14 -->
<g id="node14" class="node"><title>Node14</title>
<g id="a_node14"><a xlink:href="_log_8h.html" target="_top" xlink:title="Log.h">
<polygon fill="none" stroke="black" points="53.5,-56.5 53.5,-75.5 94.5,-75.5 94.5,-56.5 53.5,-56.5"/>
<text text-anchor="middle" x="74" y="-63.5" font-family="Helvetica,sans-Serif" font-size="10.00">Log.h</text>
</a>
</g>
</g>
<!-- Node1&#45;&gt;Node14 -->
<g id="edge25" class="edge"><title>Node1&#45;&gt;Node14</title>
<path fill="none" stroke="midnightblue" d="M585.257,-297.645C451.387,-291.964 143.62,-275.589 109,-244 64.1086,-203.039 67.1565,-122.509 71.2655,-85.9073"/>
<polygon fill="midnightblue" stroke="midnightblue" points="74.7775,-86.0368 72.5774,-75.6729 67.8343,-85.1467 74.7775,-86.0368"/>
</g>
<!-- Node16 -->
<g id="node16" class="node"><title>Node16</title>
<g id="a_node16"><a xlink:href="_parameter_8h.html" target="_top" xlink:title="Parameter.h">
<polygon fill="none" stroke="black" points="574,-56.5 574,-75.5 644,-75.5 644,-56.5 574,-56.5"/>
<text text-anchor="middle" x="609" y="-63.5" font-family="Helvetica,sans-Serif" font-size="10.00">Parameter.h</text>
</a>
</g>
</g>
<!-- Node1&#45;&gt;Node16 -->
<g id="edge29" class="edge"><title>Node1&#45;&gt;Node16</title>
<path fill="none" stroke="midnightblue" d="M641.543,-280.421C638.703,-269.723 635.345,-256.203 633,-244 622.001,-186.772 614.218,-118.185 610.856,-85.753"/>
<polygon fill="midnightblue" stroke="midnightblue" points="614.31,-85.1244 609.819,-75.5283 607.346,-85.8303 614.31,-85.1244"/>
</g>
<!-- Node17 -->
<g id="node17" class="node"><title>Node17</title>
<g id="a_node17"><a xlink:href="_robot_interface_8h.html" target="_top" xlink:title="RobotInterface.h">
<polygon fill="none" stroke="black" points="662.5,-56.5 662.5,-75.5 751.5,-75.5 751.5,-56.5 662.5,-56.5"/>
<text text-anchor="middle" x="707" y="-63.5" font-family="Helvetica,sans-Serif" font-size="10.00">RobotInterface.h</text>
</a>
</g>
</g>
<!-- Node1&#45;&gt;Node17 -->
<g id="edge33" class="edge"><title>Node1&#45;&gt;Node17</title>
<path fill="none" stroke="midnightblue" d="M646.099,-280.433C645.201,-245.238 646.605,-169.561 671,-112 675.52,-101.335 683.315,-91.1117 690.499,-83.1128"/>
<polygon fill="midnightblue" stroke="midnightblue" points="693.238,-85.3118 697.6,-75.6567 688.169,-80.4841 693.238,-85.3118"/>
</g>
<!-- Node19 -->
<g id="node19" class="node"><title>Node19</title>
<g id="a_node19"><a xlink:href="_signal_8h.html" target="_top" xlink:title="Signal.h">
<polygon fill="none" stroke="black" points="0,-168.5 0,-187.5 52,-187.5 52,-168.5 0,-168.5"/>
<text text-anchor="middle" x="26" y="-175.5" font-family="Helvetica,sans-Serif" font-size="10.00">Signal.h</text>
</a>
</g>
</g>
<!-- Node1&#45;&gt;Node19 -->
<g id="edge38" class="edge"><title>Node1&#45;&gt;Node19</title>
<path fill="none" stroke="midnightblue" d="M585.103,-300.6C454.275,-300.822 154.64,-295.506 69,-244 51.2886,-233.348 39.4041,-212.266 32.6987,-196.993"/>
<polygon fill="midnightblue" stroke="midnightblue" points="35.8718,-195.504 28.8759,-187.547 29.383,-198.13 35.8718,-195.504"/>
</g>
<!-- Node20 -->
<g id="node20" class="node"><title>Node20</title>
<polygon fill="none" stroke="#bfbfbf" points="751,-224.5 751,-243.5 901,-243.5 901,-224.5 751,-224.5"/>
<text text-anchor="middle" x="826" y="-231.5" font-family="Helvetica,sans-Serif" font-size="10.00">iDynTree/Core/EigenHelpers.h</text>
</g>
<!-- Node1&#45;&gt;Node20 -->
<g id="edge40" class="edge"><title>Node1&#45;&gt;Node20</title>
<path fill="none" stroke="midnightblue" d="M700.706,-280.498C730.525,-269.67 766.691,-256.537 792.487,-247.17"/>
<polygon fill="midnightblue" stroke="midnightblue" points="793.968,-250.356 802.172,-243.652 791.578,-243.776 793.968,-250.356"/>
</g>
<!-- Node21 -->
<g id="node21" class="node"><title>Node21</title>
<polygon fill="none" stroke="#bfbfbf" points="919.5,-224.5 919.5,-243.5 1072.5,-243.5 1072.5,-224.5 919.5,-224.5"/>
<text text-anchor="middle" x="996" y="-231.5" font-family="Helvetica,sans-Serif" font-size="10.00">iDynTree/Core/VectorFixSize.h</text>
</g>
<!-- Node1&#45;&gt;Node21 -->
<g id="edge41" class="edge"><title>Node1&#45;&gt;Node21</title>
<path fill="none" stroke="midnightblue" d="M708.591,-288.529C774.118,-276.325 876.87,-257.188 940.127,-245.406"/>
<polygon fill="midnightblue" stroke="midnightblue" points="941.121,-248.781 950.311,-243.509 939.839,-241.9 941.121,-248.781"/>
</g>
<!-- Node22 -->
<g id="node22" class="node"><title>Node22</title>
<polygon fill="none" stroke="#bfbfbf" points="1090.5,-224.5 1090.5,-243.5 1251.5,-243.5 1251.5,-224.5 1090.5,-224.5"/>
<text text-anchor="middle" x="1171" y="-231.5" font-family="Helvetica,sans-Serif" font-size="10.00">iDynTree/KinDynComputations.h</text>
</g>
<!-- Node1&#45;&gt;Node22 -->
<g id="edge42" class="edge"><title>Node1&#45;&gt;Node22</title>
<path fill="none" stroke="midnightblue" d="M708.65,-292.353C803.952,-280.531 986.981,-257.827 1091.91,-244.811"/>
<polygon fill="midnightblue" stroke="midnightblue" points="1092.63,-248.249 1102.12,-243.544 1091.77,-241.302 1092.63,-248.249"/>
</g>
<!-- Node23 -->
<g id="node23" class="node"><title>Node23</title>
<polygon fill="none" stroke="#bfbfbf" points="1270,-224.5 1270,-243.5 1398,-243.5 1398,-224.5 1270,-224.5"/>
<text text-anchor="middle" x="1334" y="-231.5" font-family="Helvetica,sans-Serif" font-size="10.00">iDynTree/Model/Indices.h</text>
</g>
<!-- Node1&#45;&gt;Node23 -->
<g id="edge43" class="edge"><title>Node1&#45;&gt;Node23</title>
<path fill="none" stroke="midnightblue" d="M708.837,-294.967C817.705,-285.971 1050.95,-266.093 1259.61,-244.009"/>
<polygon fill="midnightblue" stroke="midnightblue" points="1260.26,-247.459 1269.84,-242.923 1259.52,-240.499 1260.26,-247.459"/>
</g>
<!-- Node24 -->
<g id="node24" class="node"><title>Node24</title>
<polygon fill="none" stroke="#bfbfbf" points="1416,-224.5 1416,-243.5 1468,-243.5 1468,-224.5 1416,-224.5"/>
<text text-anchor="middle" x="1442" y="-231.5" font-family="Helvetica,sans-Serif" font-size="10.00">ostream</text>
</g>
<!-- Node1&#45;&gt;Node24 -->
<g id="edge45" class="edge"><title>Node1&#45;&gt;Node24</title>
<path fill="none" stroke="midnightblue" d="M708.513,-299.172C836.744,-296.645 1141.93,-286.461 1405.58,-243.946"/>
<polygon fill="midnightblue" stroke="midnightblue" points="1406.43,-247.354 1415.73,-242.289 1405.3,-240.446 1406.43,-247.354"/>
</g>
<!-- Node3 -->
<g id="node3" class="node"><title>Node3</title>
<g id="a_node3"><a xlink:href="_w_b_block_8h.html" target="_top" xlink:title="WBBlock.h">
<polygon fill="none" stroke="black" points="235,-168.5 235,-187.5 301,-187.5 301,-168.5 235,-168.5"/>
<text text-anchor="middle" x="268" y="-175.5" font-family="Helvetica,sans-Serif" font-size="10.00">WBBlock.h</text>
</a>
</g>
</g>
<!-- Node2&#45;&gt;Node3 -->
<g id="edge2" class="edge"><title>Node2&#45;&gt;Node3</title>
<path fill="none" stroke="midnightblue" d="M239.614,-224.083C244.367,-216.534 251.318,-205.495 257.152,-196.23"/>
<polygon fill="midnightblue" stroke="midnightblue" points="260.124,-198.078 262.49,-187.751 254.2,-194.349 260.124,-198.078"/>
</g>
<!-- Node2&#45;&gt;Node6 -->
<g id="edge12" class="edge"><title>Node2&#45;&gt;Node6</title>
<path fill="none" stroke="midnightblue" d="M219.339,-224.402C207.594,-216.585 191.969,-203.862 185,-188 161.384,-134.247 180.659,-62.4997 192.075,-29.29"/>
<polygon fill="midnightblue" stroke="midnightblue" points="195.474,-30.181 195.572,-19.5866 188.889,-27.8077 195.474,-30.181"/>
</g>
<!-- Node7 -->
<g id="node7" class="node"><title>Node7</title>
<polygon fill="none" stroke="#bfbfbf" points="358.5,-0.5 358.5,-19.5 399.5,-19.5 399.5,-0.5 358.5,-0.5"/>
<text text-anchor="middle" x="379" y="-7.5" font-family="Helvetica,sans-Serif" font-size="10.00">string</text>
</g>
<!-- Node2&#45;&gt;Node7 -->
<g id="edge13" class="edge"><title>Node2&#45;&gt;Node7</title>
<path fill="none" stroke="midnightblue" d="M230.607,-224.354C226.146,-211.674 219.584,-187.434 226,-168 245.424,-109.167 263.759,-98.331 309,-56 322.114,-43.7292 338.998,-32.7645 352.898,-24.731"/>
<polygon fill="midnightblue" stroke="midnightblue" points="354.946,-27.5962 361.962,-19.6576 351.527,-21.488 354.946,-27.5962"/>
</g>
<!-- Node4 -->
<g id="node4" class="node"><title>Node4</title>
<g id="a_node4"><a xlink:href="_block_8h.html" target="_top" xlink:title="Block.h">
<polygon fill="none" stroke="black" points="329,-112.5 329,-131.5 379,-131.5 379,-112.5 329,-112.5"/>
<text text-anchor="middle" x="354" y="-119.5" font-family="Helvetica,sans-Serif" font-size="10.00">Block.h</text>
</a>
</g>
</g>
<!-- Node3&#45;&gt;Node4 -->
<g id="edge3" class="edge"><title>Node3&#45;&gt;Node4</title>
<path fill="none" stroke="midnightblue" d="M281.817,-168.324C295.233,-159.9 315.824,-146.971 331.586,-137.074"/>
<polygon fill="midnightblue" stroke="midnightblue" points="333.609,-139.936 340.217,-131.655 329.887,-134.008 333.609,-139.936"/>
</g>
<!-- Node3&#45;&gt;Node6 -->
<g id="edge10" class="edge"><title>Node3&#45;&gt;Node6</title>
<path fill="none" stroke="midnightblue" d="M264.29,-168.075C253.382,-141.832 221.257,-64.5453 206.53,-29.1165"/>
<polygon fill="midnightblue" stroke="midnightblue" points="209.632,-27.4588 202.561,-19.5681 203.168,-30.1456 209.632,-27.4588"/>
</g>
<!-- Node3&#45;&gt;Node7 -->
<g id="edge11" class="edge"><title>Node3&#45;&gt;Node7</title>
<path fill="none" stroke="midnightblue" d="M270.715,-168.404C277.572,-147.591 297.121,-93.448 326,-56 334.869,-44.4999 347.107,-33.87 357.59,-25.8324"/>
<polygon fill="midnightblue" stroke="midnightblue" points="359.897,-28.4795 365.87,-19.7283 355.744,-22.8452 359.897,-28.4795"/>
</g>
<!-- Node4&#45;&gt;Node5 -->
<g id="edge4" class="edge"><title>Node4&#45;&gt;Node5</title>
<path fill="none" stroke="midnightblue" d="M358.128,-112.083C361.514,-104.77 366.416,-94.1814 370.619,-85.1034"/>
<polygon fill="midnightblue" stroke="midnightblue" points="373.923,-86.2962 374.949,-75.7511 367.571,-83.3553 373.923,-86.2962"/>
</g>
<!-- Node4&#45;&gt;Node7 -->
<g id="edge8" class="edge"><title>Node4&#45;&gt;Node7</title>
<path fill="none" stroke="midnightblue" d="M347.108,-112.43C337.876,-99.8448 323.579,-75.7217 332,-56 337.147,-43.9469 347.281,-33.5764 356.826,-25.8389"/>
<polygon fill="midnightblue" stroke="midnightblue" points="359.04,-28.5532 364.922,-19.7409 354.828,-22.9619 359.04,-28.5532"/>
</g>
<!-- Node8 -->
<g id="node8" class="node"><title>Node8</title>
<polygon fill="none" stroke="#bfbfbf" points="524,-0.5 524,-19.5 568,-19.5 568,-0.5 524,-0.5"/>
<text text-anchor="middle" x="546" y="-7.5" font-family="Helvetica,sans-Serif" font-size="10.00">vector</text>
</g>
<!-- Node4&#45;&gt;Node8 -->
<g id="edge9" class="edge"><title>Node4&#45;&gt;Node8</title>
<path fill="none" stroke="midnightblue" d="M379.252,-121.629C416.383,-121.144 485.663,-114.654 526,-76 538.511,-64.0108 543.251,-44.4045 545.017,-29.8555"/>
<polygon fill="midnightblue" stroke="midnightblue" points="548.536,-29.7724 545.888,-19.5139 541.561,-29.1848 548.536,-29.7724"/>
</g>
<!-- Node5&#45;&gt;Node6 -->
<g id="edge5" class="edge"><title>Node5&#45;&gt;Node6</title>
<path fill="none" stroke="midnightblue" d="M350.478,-56.4435C319.215,-47.0645 268.993,-31.9978 235.03,-21.8089"/>
<polygon fill="midnightblue" stroke="midnightblue" points="235.634,-18.3363 225.05,-18.8151 233.623,-25.041 235.634,-18.3363"/>
</g>
<!-- Node5&#45;&gt;Node7 -->
<g id="edge6" class="edge"><title>Node5&#45;&gt;Node7</title>
<path fill="none" stroke="midnightblue" d="M379,-56.083C379,-49.0059 379,-38.8611 379,-29.9865"/>
<polygon fill="midnightblue" stroke="midnightblue" points="382.5,-29.751 379,-19.7511 375.5,-29.7511 382.5,-29.751"/>
</g>
<!-- Node5&#45;&gt;Node8 -->
<g id="edge7" class="edge"><title>Node5&#45;&gt;Node8</title>
<path fill="none" stroke="midnightblue" d="M405.462,-56.4435C435.006,-46.8902 482.8,-31.436 514.313,-21.2461"/>
<polygon fill="midnightblue" stroke="midnightblue" points="515.491,-24.5438 523.929,-18.1368 513.337,-17.8833 515.491,-24.5438"/>
</g>
<!-- Node9&#45;&gt;Node6 -->
<g id="edge15" class="edge"><title>Node9&#45;&gt;Node6</title>
<path fill="none" stroke="midnightblue" d="M768.987,-57.134C765.949,-56.7272 762.935,-56.3449 760,-56 562.543,-32.7928 324.557,-18.048 235.217,-12.9747"/>
<polygon fill="midnightblue" stroke="midnightblue" points="235.252,-9.47122 225.072,-12.404 234.859,-16.4602 235.252,-9.47122"/>
</g>
<!-- Node9&#45;&gt;Node7 -->
<g id="edge16" class="edge"><title>Node9&#45;&gt;Node7</title>
<path fill="none" stroke="midnightblue" d="M768.972,-57.2544C765.938,-56.8178 762.928,-56.396 760,-56 621.672,-37.2945 586.544,-37.0275 448,-20 435.388,-18.4499 421.491,-16.6542 409.494,-15.0764"/>
<polygon fill="midnightblue" stroke="midnightblue" points="409.893,-11.5988 399.521,-13.7576 408.975,-18.5384 409.893,-11.5988"/>
</g>
<!-- Node9&#45;&gt;Node8 -->
<g id="edge19" class="edge"><title>Node9&#45;&gt;Node8</title>
<path fill="none" stroke="midnightblue" d="M774.901,-56.4435C720.194,-45.5826 627.071,-27.0949 578.169,-17.3864"/>
<polygon fill="midnightblue" stroke="midnightblue" points="578.641,-13.9119 568.151,-15.3976 577.278,-20.7779 578.641,-13.9119"/>
</g>
<!-- Node9&#45;&gt;Node10 -->
<g id="edge17" class="edge"><title>Node9&#45;&gt;Node10</title>
<path fill="none" stroke="midnightblue" d="M827.479,-56.324C836.201,-48.3414 849.343,-36.3128 859.898,-26.6529"/>
<polygon fill="midnightblue" stroke="midnightblue" points="862.334,-29.1674 867.348,-19.8339 857.608,-24.0036 862.334,-29.1674"/>
</g>
<!-- Node11 -->
<g id="node11" class="node"><title>Node11</title>
<polygon fill="none" stroke="#bfbfbf" points="782,-0.5 782,-19.5 822,-19.5 822,-0.5 782,-0.5"/>
<text text-anchor="middle" x="802" y="-7.5" font-family="Helvetica,sans-Serif" font-size="10.00">utility</text>
</g>
<!-- Node9&#45;&gt;Node11 -->
<g id="edge18" class="edge"><title>Node9&#45;&gt;Node11</title>
<path fill="none" stroke="midnightblue" d="M815.358,-56.083C813.214,-48.8486 810.121,-38.4087 807.451,-29.3968"/>
<polygon fill="midnightblue" stroke="midnightblue" points="810.79,-28.3447 804.593,-19.7511 804.078,-30.3334 810.79,-28.3447"/>
</g>
<!-- Node12&#45;&gt;Node6 -->
<g id="edge22" class="edge"><title>Node12&#45;&gt;Node6</title>
<path fill="none" stroke="midnightblue" d="M434.23,-56.8572C380.076,-46.2999 286.512,-28.06 235.221,-18.0612"/>
<polygon fill="midnightblue" stroke="midnightblue" points="235.734,-14.5953 225.249,-16.1172 234.395,-21.466 235.734,-14.5953"/>
</g>
<!-- Node12&#45;&gt;Node7 -->
<g id="edge23" class="edge"><title>Node12&#45;&gt;Node7</title>
<path fill="none" stroke="midnightblue" d="M460.415,-56.324C445.001,-47.7428 421.188,-34.486 403.29,-24.5224"/>
<polygon fill="midnightblue" stroke="midnightblue" points="404.986,-21.4606 394.546,-19.6545 401.581,-27.5767 404.986,-21.4606"/>
</g>
<!-- Node12&#45;&gt;Node8 -->
<g id="edge24" class="edge"><title>Node12&#45;&gt;Node8</title>
<path fill="none" stroke="midnightblue" d="M487.247,-56.324C497.797,-48.1849 513.801,-35.8395 526.442,-26.0874"/>
<polygon fill="midnightblue" stroke="midnightblue" points="528.769,-28.7132 534.549,-19.8339 524.493,-23.1707 528.769,-28.7132"/>
</g>
<!-- Node13 -->
<g id="node13" class="node"><title>Node13</title>
<polygon fill="none" stroke="#bfbfbf" points="457,-0.5 457,-19.5 495,-19.5 495,-0.5 457,-0.5"/>
<text text-anchor="middle" x="476" y="-7.5" font-family="Helvetica,sans-Serif" font-size="10.00">array</text>
</g>
<!-- Node12&#45;&gt;Node13 -->
<g id="edge21" class="edge"><title>Node12&#45;&gt;Node13</title>
<path fill="none" stroke="midnightblue" d="M476,-56.083C476,-49.0059 476,-38.8611 476,-29.9865"/>
<polygon fill="midnightblue" stroke="midnightblue" points="479.5,-29.751 476,-19.7511 472.5,-29.7511 479.5,-29.751"/>
</g>
<!-- Node14&#45;&gt;Node6 -->
<g id="edge26" class="edge"><title>Node14&#45;&gt;Node6</title>
<path fill="none" stroke="midnightblue" d="M93.8066,-56.4435C114.287,-47.5961 146.483,-33.6875 169.865,-23.5865"/>
<polygon fill="midnightblue" stroke="midnightblue" points="171.494,-26.6953 179.286,-19.5164 168.718,-20.2692 171.494,-26.6953"/>
</g>
<!-- Node14&#45;&gt;Node7 -->
<g id="edge28" class="edge"><title>Node14&#45;&gt;Node7</title>
<path fill="none" stroke="midnightblue" d="M94.9639,-61.2884C147.763,-51.9404 286.406,-27.3937 348.345,-16.4275"/>
<polygon fill="midnightblue" stroke="midnightblue" points="349.056,-19.8561 358.293,-14.6662 347.836,-12.9633 349.056,-19.8561"/>
</g>
<!-- Node15 -->
<g id="node15" class="node"><title>Node15</title>
<polygon fill="none" stroke="#bfbfbf" points="48,-0.5 48,-19.5 100,-19.5 100,-0.5 48,-0.5"/>
<text text-anchor="middle" x="74" y="-7.5" font-family="Helvetica,sans-Serif" font-size="10.00">sstream</text>
</g>
<!-- Node14&#45;&gt;Node15 -->
<g id="edge27" class="edge"><title>Node14&#45;&gt;Node15</title>
<path fill="none" stroke="midnightblue" d="M74,-56.083C74,-49.0059 74,-38.8611 74,-29.9865"/>
<polygon fill="midnightblue" stroke="midnightblue" points="77.5001,-29.751 74,-19.7511 70.5001,-29.7511 77.5001,-29.751"/>
</g>
<!-- Node16&#45;&gt;Node7 -->
<g id="edge30" class="edge"><title>Node16&#45;&gt;Node7</title>
<path fill="none" stroke="midnightblue" d="M573.818,-56.7398C528.943,-46.2041 452.074,-28.1566 409.546,-18.1716"/>
<polygon fill="midnightblue" stroke="midnightblue" points="410.299,-14.7533 399.763,-15.8749 408.699,-21.568 410.299,-14.7533"/>
</g>
<!-- Node16&#45;&gt;Node8 -->
<g id="edge31" class="edge"><title>Node16&#45;&gt;Node8</title>
<path fill="none" stroke="midnightblue" d="M598.878,-56.324C589.474,-48.2631 575.256,-36.0765 563.931,-26.3695"/>
<polygon fill="midnightblue" stroke="midnightblue" points="566.177,-23.6844 556.306,-19.8339 561.621,-28.9993 566.177,-23.6844"/>
</g>
<!-- Node17&#45;&gt;Node6 -->
<g id="edge34" class="edge"><title>Node17&#45;&gt;Node6</title>
<path fill="none" stroke="midnightblue" d="M662.245,-57.306C659.12,-56.841 656.015,-56.4002 653,-56 498.146,-35.4441 312.433,-19.8524 235.318,-13.7764"/>
<polygon fill="midnightblue" stroke="midnightblue" points="235.415,-10.2733 225.172,-12.9827 234.869,-17.252 235.415,-10.2733"/>
</g>
<!-- Node17&#45;&gt;Node7 -->
<g id="edge35" class="edge"><title>Node17&#45;&gt;Node7</title>
<path fill="none" stroke="midnightblue" d="M662.212,-57.527C659.095,-57.0094 656.001,-56.4964 653,-56 564.64,-41.3809 460.221,-24.2803 409.589,-15.9995"/>
<polygon fill="midnightblue" stroke="midnightblue" points="410.06,-12.5301 399.626,-14.3704 408.93,-19.4383 410.06,-12.5301"/>
</g>
<!-- Node17&#45;&gt;Node11 -->
<g id="edge37" class="edge"><title>Node17&#45;&gt;Node11</title>
<path fill="none" stroke="midnightblue" d="M722.263,-56.324C737.221,-47.8215 760.255,-34.7288 777.727,-24.7975"/>
<polygon fill="midnightblue" stroke="midnightblue" points="779.81,-27.639 786.774,-19.6545 776.351,-21.5534 779.81,-27.639"/>
</g>
<!-- Node18 -->
<g id="node18" class="node"><title>Node18</title>
<polygon fill="none" stroke="#bfbfbf" points="665.5,-0.5 665.5,-19.5 748.5,-19.5 748.5,-0.5 665.5,-0.5"/>
<text text-anchor="middle" x="707" y="-7.5" font-family="Helvetica,sans-Serif" font-size="10.00">unordered_map</text>
</g>
<!-- Node17&#45;&gt;Node18 -->
<g id="edge36" class="edge"><title>Node17&#45;&gt;Node18</title>
<path fill="none" stroke="midnightblue" d="M707,-56.083C707,-49.0059 707,-38.8611 707,-29.9865"/>
<polygon fill="midnightblue" stroke="midnightblue" points="710.5,-29.751 707,-19.7511 703.5,-29.7511 710.5,-29.751"/>
</g>
<!-- Node19&#45;&gt;Node6 -->
<g id="edge39" class="edge"><title>Node19&#45;&gt;Node6</title>
<path fill="none" stroke="midnightblue" d="M24.4483,-168.411C21.0456,-146.656 15.3585,-88.7907 44,-56 59.5584,-38.1877 121.993,-24.3 162.719,-16.906"/>
<polygon fill="midnightblue" stroke="midnightblue" points="163.576,-20.3089 172.816,-15.1243 162.36,-13.4154 163.576,-20.3089"/>
</g>
</g>
</svg>
        <g id="navigator" transform="translate(0 0)" fill="#404254">
                <rect fill="#f2f5e9" fill-opacity="0.5" stroke="#606060" stroke-width=".5" x="0" y="0" width="60" height="60"/>
                <use id="zoomplus" xlink:href="#zoomPlus" x="17" y="9" onmousedown="handleZoom(evt,'in')"/>
                <use id="zoomminus" xlink:href="#zoomMin" x="42" y="9" onmousedown="handleZoom(evt,'out')"/>
                <use id="reset" xlink:href="#resetDef" x="30" y="36" onmousedown="handleReset()"/>
                <g id="arrowUp" xlink:href="#dirArrow" transform="translate(30 24)" onmousedown="handlePan(0,-1)">
                  <use xlink:href="#rim" fill="#404040">
                        <set attributeName="fill" to="#808080" begin="arrowUp.mouseover" end="arrowUp.mouseout"/>
                  </use>
                  <path fill="none" stroke="white" stroke-width="1.5" d="M0,-3.0v7 M-2.5,-0.5L0,-3.0L2.5,-0.5"/>
                </g>
                <g id="arrowRight" xlink:href="#dirArrow" transform="rotate(90) translate(36 -43)" onmousedown="handlePan(1,0)">
                  <use xlink:href="#rim" fill="#404040">
                        <set attributeName="fill" to="#808080" begin="arrowRight.mouseover" end="arrowRight.mouseout"/>
                  </use>
                  <path fill="none" stroke="white" stroke-width="1.5" d="M0,-3.0v7 M-2.5,-0.5L0,-3.0L2.5,-0.5"/>
                </g>
                <g id="arrowDown" xlink:href="#dirArrow" transform="rotate(180) translate(-30 -48)" onmousedown="handlePan(0,1)">
                  <use xlink:href="#rim" fill="#404040">
                        <set attributeName="fill" to="#808080" begin="arrowDown.mouseover" end="arrowDown.mouseout"/>
                  </use>
                  <path fill="none" stroke="white" stroke-width="1.5" d="M0,-3.0v7 M-2.5,-0.5L0,-3.0L2.5,-0.5"/>
                </g>
                <g id="arrowLeft" xlink:href="#dirArrow" transform="rotate(270) translate(-36 17)" onmousedown="handlePan(-1,0)">
                  <use xlink:href="#rim" fill="#404040">
                        <set attributeName="fill" to="#808080" begin="arrowLeft.mouseover" end="arrowLeft.mouseout"/>
                  </use>
                  <path fill="none" stroke="white" stroke-width="1.5" d="M0,-3.0v7 M-2.5,-0.5L0,-3.0L2.5,-0.5"/>
                </g>
        </g>
        <svg viewBox="0 0 15 15" width="100%" height="30px" preserveAspectRatio="xMaxYMin meet">
         <g id="arrow_out" transform="scale(0.3 0.3)">
          <a xlink:href="_dot_j_nu_8cpp__incl_org.svg" target="_base">
           <rect id="button" ry="5" rx="5" y="6" x="6" height="38" width="38"
                fill="#f2f5e9" fill-opacity="0.5" stroke="#606060" stroke-width="1.0"/>
           <path id="arrow"
             d="M 11.500037,31.436501 C 11.940474,20.09759 22.043105,11.32322 32.158766,21.979434 L 37.068811,17.246167 C 37.068811,17.246167 37.088388,32 37.088388,32 L 22.160133,31.978069 C 22.160133,31.978069 26.997745,27.140456 26.997745,27.140456 C 18.528582,18.264221 13.291696,25.230495 11.500037,31.436501 z"
             style="fill:#404040;"/>
          </a>
         </g>
        </svg>
</svg>
