<?xml version="1.0" encoding="UTF-8" standalone="no"?>
<!DOCTYPE svg PUBLIC "-//W3C//DTD SVG 1.1//EN"
 "http://www.w3.org/Graphics/SVG/1.1/DTD/svg11.dtd">
<!-- Generated by graphviz version 2.36.0 (20140111.2315)
 -->
<!-- Title: /home/travis/build/robotology/wb&#45;toolbox/toolbox/src/DotJNu.cpp Pages: 1 -->
<!--zoomable 330 -->
<svg id="main" version="1.1" xmlns="http://www.w3.org/2000/svg" xmlns:xlink="http://www.w3.org/1999/xlink" xml:space="preserve" onload="init(evt)">
<style type="text/css"><![CDATA[
.edge:hover path { stroke: red; }
.edge:hover polygon { stroke: red; fill: red; }
]]></style>
<script type="text/javascript"><![CDATA[
var edges = document.getElementsByTagName('g');
if (edges && edges.length) {
  for (var i=0;i<edges.length;i++) {
    if (edges[i].id.substr(0,4)=='edge') {
      edges[i].setAttribute('class','edge');
    }
  }
}
]]></script>
        <defs>
                <circle id="rim" cx="0" cy="0" r="7"/>
                <circle id="rim2" cx="0" cy="0" r="3.5"/>
                <g id="zoomPlus">
                        <use xlink:href="#rim" fill="#404040">
                                <set attributeName="fill" to="#808080" begin="zoomplus.mouseover" end="zoomplus.mouseout"/>
                        </use>
                        <path d="M-4,0h8M0,-4v8" fill="none" stroke="white" stroke-width="1.5" pointer-events="none"/>
                </g>
                <g id="zoomMin">
                        <use xlink:href="#rim" fill="#404040">
                                <set attributeName="fill" to="#808080" begin="zoomminus.mouseover" end="zoomminus.mouseout"/>
                        </use>
                        <path d="M-4,0h8" fill="none" stroke="white" stroke-width="1.5" pointer-events="none"/>
                </g>
                <g id="dirArrow">
                        <path fill="none" stroke="white" stroke-width="1.5" d="M0,-3.0v7 M-2.5,-0.5L0,-3.0L2.5,-0.5"/>
                </g>
               <g id="resetDef">
                       <use xlink:href="#rim2" fill="#404040">
                               <set attributeName="fill" to="#808080" begin="reset.mouseover" end="reset.mouseout"/>
                       </use>
               </g>
        </defs>

<script type="text/javascript">
var viewWidth = 1522;
var viewHeight = 330;
var sectionId = 'dynsection-0';
</script>
<script xlink:href="svgpan.js"/>
<svg id="graph" class="graph">
<g id="viewport">
<title>/home/travis/build/robotology/wb&#45;toolbox/toolbox/src/DotJNu.cpp</title>
<!-- Node1 -->
<g id="node1" class="node"><title>Node1</title>
<polygon fill="#bfbfbf" stroke="black" points="613.5,-280.5 613.5,-321.5 736.5,-321.5 736.5,-280.5 613.5,-280.5"/>
<text text-anchor="start" x="621.5" y="-309.5" font-family="Helvetica,sans-Serif" font-size="10.00">/home/travis/build</text>
<text text-anchor="start" x="621.5" y="-298.5" font-family="Helvetica,sans-Serif" font-size="10.00">/robotology/wb&#45;toolbox</text>
<text text-anchor="middle" x="675" y="-287.5" font-family="Helvetica,sans-Serif" font-size="10.00">/toolbox/src/DotJNu.cpp</text>
</g>
<!-- Node2 -->
<g id="node2" class="node"><title>Node2</title>
<g id="a_node2"><a xlink:href="_dot_j_nu_8h.html" target="_top" xlink:title="DotJNu.h">
<polygon fill="none" stroke="black" points="385.5,-224.5 385.5,-243.5 444.5,-243.5 444.5,-224.5 385.5,-224.5"/>
<text text-anchor="middle" x="415" y="-231.5" font-family="Helvetica,sans-Serif" font-size="10.00">DotJNu.h</text>
</a>
</g>
</g>
<!-- Node1&#45;&gt;Node2 -->
<g id="edge1" class="edge"><title>Node1&#45;&gt;Node2</title>
<path fill="none" stroke="midnightblue" d="M613.384,-284.596C564.274,-272.318 496.962,-255.491 454.738,-244.934"/>
<polygon fill="midnightblue" stroke="midnightblue" points="455.38,-241.487 444.829,-242.457 453.682,-248.278 455.38,-241.487"/>
</g>
<!-- Node5 -->
<g id="node5" class="node"><title>Node5</title>
<g id="a_node5"><a xlink:href="_parameters_8h.html" target="_top" xlink:title="Parameters.h">
<polygon fill="none" stroke="black" points="227.5,-56.5 227.5,-75.5 302.5,-75.5 302.5,-56.5 227.5,-56.5"/>
<text text-anchor="middle" x="265" y="-63.5" font-family="Helvetica,sans-Serif" font-size="10.00">Parameters.h</text>
</a>
</g>
</g>
<!-- Node1&#45;&gt;Node5 -->
<g id="edge29" class="edge"><title>Node1&#45;&gt;Node5</title>
<path fill="none" stroke="midnightblue" d="M613.304,-299.72C549.996,-296.951 450.495,-285.535 376,-244 313.718,-209.275 281.633,-123.5 270.096,-85.5608"/>
<polygon fill="midnightblue" stroke="midnightblue" points="273.418,-84.4485 267.271,-75.8191 266.695,-86.3982 273.418,-84.4485"/>
</g>
<!-- Node6 -->
<g id="node6" class="node"><title>Node6</title>
<polygon fill="none" stroke="#bfbfbf" points="496,-0.5 496,-19.5 548,-19.5 548,-0.5 496,-0.5"/>
<text text-anchor="middle" x="522" y="-7.5" font-family="Helvetica,sans-Serif" font-size="10.00">memory</text>
</g>
<!-- Node1&#45;&gt;Node6 -->
<g id="edge41" class="edge"><title>Node1&#45;&gt;Node6</title>
<path fill="none" stroke="midnightblue" d="M652.609,-280.113C630.19,-257.9 599,-219.683 599,-179 599,-179 599,-179 599,-121 599,-90.7745 596.079,-80.9376 579,-56 570.512,-43.6058 557.577,-33.0009 546.174,-25.2045"/>
<polygon fill="midnightblue" stroke="midnightblue" points="547.769,-22.0675 537.472,-19.5735 543.966,-27.9445 547.769,-22.0675"/>
</g>
<!-- Node9 -->
<g id="node9" class="node"><title>Node9</title>
<g id="a_node9"><a xlink:href="_block_information_8h.html" target="_top" xlink:title="BlockInformation.h">
<polygon fill="none" stroke="black" points="473,-56.5 473,-75.5 571,-75.5 571,-56.5 473,-56.5"/>
<text text-anchor="middle" x="522" y="-63.5" font-family="Helvetica,sans-Serif" font-size="10.00">BlockInformation.h</text>
</a>
</g>
</g>
<!-- Node1&#45;&gt;Node9 -->
<g id="edge13" class="edge"><title>Node1&#45;&gt;Node9</title>
<path fill="none" stroke="midnightblue" d="M631.116,-280.499C614.77,-271.404 597.237,-259.192 585,-244 545.845,-195.389 530.024,-120.547 524.532,-85.8544"/>
<polygon fill="midnightblue" stroke="midnightblue" points="527.96,-85.1105 523.046,-75.7242 521.035,-86.1262 527.96,-85.1105"/>
</g>
<!-- Node11 -->
<g id="node11" class="node"><title>Node11</title>
<g id="a_node11"><a xlink:href="_configuration_8h.html" target="_top" xlink:title="Configuration.h">
<polygon fill="none" stroke="black" points="126.5,-56.5 126.5,-75.5 209.5,-75.5 209.5,-56.5 126.5,-56.5"/>
<text text-anchor="middle" x="168" y="-63.5" font-family="Helvetica,sans-Serif" font-size="10.00">Configuration.h</text>
</a>
</g>
</g>
<!-- Node1&#45;&gt;Node11 -->
<g id="edge18" class="edge"><title>Node1&#45;&gt;Node11</title>
<path fill="none" stroke="midnightblue" d="M613.205,-300.337C544.555,-298.318 432.175,-287.743 347,-244 270.272,-204.595 205.46,-120.746 179.795,-84.4023"/>
<polygon fill="midnightblue" stroke="midnightblue" points="182.447,-82.0849 173.872,-75.8627 176.695,-86.0745 182.447,-82.0849"/>
</g>
<!-- Node12 -->
<g id="node12" class="node"><title>Node12</title>
<g id="a_node12"><a xlink:href="_log_8h.html" target="_top" xlink:title="Log.h">
<polygon fill="none" stroke="black" points="627.5,-56.5 627.5,-75.5 668.5,-75.5 668.5,-56.5 627.5,-56.5"/>
<text text-anchor="middle" x="648" y="-63.5" font-family="Helvetica,sans-Serif" font-size="10.00">Log.h</text>
</a>
</g>
</g>
<!-- Node1&#45;&gt;Node12 -->
<g id="edge22" class="edge"><title>Node1&#45;&gt;Node12</title>
<path fill="none" stroke="midnightblue" d="M671.024,-280.261C666.677,-257.955 659.823,-220.515 656,-188 651.754,-151.883 649.596,-109.417 648.641,-85.6128"/>
<polygon fill="midnightblue" stroke="midnightblue" points="652.135,-85.3984 648.265,-75.5359 645.14,-85.6594 652.135,-85.3984"/>
</g>
<!-- Node14 -->
<g id="node14" class="node"><title>Node14</title>
<g id="a_node14"><a xlink:href="_parameter_8h.html" target="_top" xlink:title="Parameter.h">
<polygon fill="none" stroke="black" points="0,-56.5 0,-75.5 70,-75.5 70,-56.5 0,-56.5"/>
<text text-anchor="middle" x="35" y="-63.5" font-family="Helvetica,sans-Serif" font-size="10.00">Parameter.h</text>
</a>
</g>
</g>
<!-- Node1&#45;&gt;Node14 -->
<g id="edge26" class="edge"><title>Node1&#45;&gt;Node14</title>
<path fill="none" stroke="midnightblue" d="M613.459,-298.283C539.453,-294.484 412.522,-282.381 311,-244 203.901,-203.511 94.7127,-117.377 52.8356,-82.322"/>
<polygon fill="midnightblue" stroke="midnightblue" points="55.0583,-79.6179 45.1615,-75.8356 50.5395,-84.9641 55.0583,-79.6179"/>
</g>
<!-- Node15 -->
<g id="node15" class="node"><title>Node15</title>
<g id="a_node15"><a xlink:href="_robot_interface_8h.html" target="_top" xlink:title="RobotInterface.h">
<polygon fill="none" stroke="black" points="725.5,-56.5 725.5,-75.5 814.5,-75.5 814.5,-56.5 725.5,-56.5"/>
<text text-anchor="middle" x="770" y="-63.5" font-family="Helvetica,sans-Serif" font-size="10.00">RobotInterface.h</text>
</a>
</g>
</g>
<!-- Node1&#45;&gt;Node15 -->
<g id="edge30" class="edge"><title>Node1&#45;&gt;Node15</title>
<path fill="none" stroke="midnightblue" d="M684.502,-280.378C695.12,-258.176 712.58,-220.83 726,-188 740.742,-151.935 755.807,-108.887 763.921,-85.0843"/>
<polygon fill="midnightblue" stroke="midnightblue" points="767.242,-86.1908 767.134,-75.5965 760.611,-83.9456 767.242,-86.1908"/>
</g>
<!-- Node17 -->
<g id="node17" class="node"><title>Node17</title>
<g id="a_node17"><a xlink:href="_signal_8h.html" target="_top" xlink:title="Signal.h">
<polygon fill="none" stroke="black" points="665,-168.5 665,-187.5 717,-187.5 717,-168.5 665,-168.5"/>
<text text-anchor="middle" x="691" y="-175.5" font-family="Helvetica,sans-Serif" font-size="10.00">Signal.h</text>
</a>
</g>
</g>
<!-- Node1&#45;&gt;Node17 -->
<g id="edge35" class="edge"><title>Node1&#45;&gt;Node17</title>
<path fill="none" stroke="midnightblue" d="M677.606,-280.29C680.623,-257.48 685.554,-220.189 688.517,-197.781"/>
<polygon fill="midnightblue" stroke="midnightblue" points="692.025,-197.947 689.866,-187.575 685.085,-197.03 692.025,-197.947"/>
</g>
<!-- Node18 -->
<g id="node18" class="node"><title>Node18</title>
<polygon fill="none" stroke="#bfbfbf" points="741,-224.5 741,-243.5 891,-243.5 891,-224.5 741,-224.5"/>
<text text-anchor="middle" x="816" y="-231.5" font-family="Helvetica,sans-Serif" font-size="10.00">iDynTree/Core/EigenHelpers.h</text>
</g>
<!-- Node1&#45;&gt;Node18 -->
<g id="edge37" class="edge"><title>Node1&#45;&gt;Node18</title>
<path fill="none" stroke="midnightblue" d="M717.305,-280.498C740.17,-269.957 767.772,-257.233 787.966,-247.923"/>
<polygon fill="midnightblue" stroke="midnightblue" points="789.615,-251.018 797.231,-243.652 786.684,-244.661 789.615,-251.018"/>
</g>
<!-- Node19 -->
<g id="node19" class="node"><title>Node19</title>
<polygon fill="none" stroke="#bfbfbf" points="909.5,-224.5 909.5,-243.5 1062.5,-243.5 1062.5,-224.5 909.5,-224.5"/>
<text text-anchor="middle" x="986" y="-231.5" font-family="Helvetica,sans-Serif" font-size="10.00">iDynTree/Core/VectorFixSize.h</text>
</g>
<!-- Node1&#45;&gt;Node19 -->
<g id="edge38" class="edge"><title>Node1&#45;&gt;Node19</title>
<path fill="none" stroke="midnightblue" d="M736.815,-287.08C794.895,-274.942 880.774,-256.993 935.031,-245.653"/>
<polygon fill="midnightblue" stroke="midnightblue" points="936.039,-249.018 945.112,-243.546 934.607,-242.166 936.039,-249.018"/>
</g>
<!-- Node20 -->
<g id="node20" class="node"><title>Node20</title>
<polygon fill="none" stroke="#bfbfbf" points="1080.5,-224.5 1080.5,-243.5 1241.5,-243.5 1241.5,-224.5 1080.5,-224.5"/>
<text text-anchor="middle" x="1161" y="-231.5" font-family="Helvetica,sans-Serif" font-size="10.00">iDynTree/KinDynComputations.h</text>
</g>
<!-- Node1&#45;&gt;Node20 -->
<g id="edge39" class="edge"><title>Node1&#45;&gt;Node20</title>
<path fill="none" stroke="midnightblue" d="M736.552,-291.768C825.887,-279.82 991.238,-257.705 1087.06,-244.889"/>
<polygon fill="midnightblue" stroke="midnightblue" points="1087.8,-248.321 1097.25,-243.526 1086.88,-241.383 1087.8,-248.321"/>
</g>
<!-- Node21 -->
<g id="node21" class="node"><title>Node21</title>
<polygon fill="none" stroke="#bfbfbf" points="1260,-224.5 1260,-243.5 1388,-243.5 1388,-224.5 1260,-224.5"/>
<text text-anchor="middle" x="1324" y="-231.5" font-family="Helvetica,sans-Serif" font-size="10.00">iDynTree/Model/Indices.h</text>
</g>
<!-- Node1&#45;&gt;Node21 -->
<g id="edge40" class="edge"><title>Node1&#45;&gt;Node21</title>
<path fill="none" stroke="midnightblue" d="M736.742,-294.476C840.293,-285.103 1055.78,-265.139 1249.74,-244.003"/>
<polygon fill="midnightblue" stroke="midnightblue" points="1250.28,-247.465 1259.84,-242.899 1249.51,-240.506 1250.28,-247.465"/>
</g>
<!-- Node22 -->
<g id="node22" class="node"><title>Node22</title>
<polygon fill="none" stroke="#bfbfbf" points="1406,-224.5 1406,-243.5 1458,-243.5 1458,-224.5 1406,-224.5"/>
<text text-anchor="middle" x="1432" y="-231.5" font-family="Helvetica,sans-Serif" font-size="10.00">ostream</text>
</g>
<!-- Node1&#45;&gt;Node22 -->
<g id="edge42" class="edge"><title>Node1&#45;&gt;Node22</title>
<path fill="none" stroke="midnightblue" d="M736.768,-298.829C860.426,-295.702 1147.15,-284.511 1395.79,-243.921"/>
<polygon fill="midnightblue" stroke="midnightblue" points="1396.44,-247.361 1405.73,-242.278 1395.29,-240.455 1396.44,-247.361"/>
</g>
<!-- Node23 -->
<g id="node23" class="node"><title>Node23</title>
<polygon fill="none" stroke="#bfbfbf" points="1476,-224.5 1476,-243.5 1514,-243.5 1514,-224.5 1476,-224.5"/>
<text text-anchor="middle" x="1495" y="-231.5" font-family="Helvetica,sans-Serif" font-size="10.00">tuple</text>
</g>
<!-- Node1&#45;&gt;Node23 -->
<g id="edge43" class="edge"><title>Node1&#45;&gt;Node23</title>
<path fill="none" stroke="midnightblue" d="M736.512,-300.647C868.918,-300.968 1190.54,-295.98 1465.7,-243.773"/>
<polygon fill="midnightblue" stroke="midnightblue" points="1466.72,-247.141 1475.88,-241.816 1465.4,-240.267 1466.72,-247.141"/>
</g>
<!-- Node3 -->
<g id="node3" class="node"><title>Node3</title>
<g id="a_node3"><a xlink:href="_w_b_block_8h.html" target="_top" xlink:title="WBBlock.h">
<polygon fill="none" stroke="black" points="351,-168.5 351,-187.5 417,-187.5 417,-168.5 351,-168.5"/>
<text text-anchor="middle" x="384" y="-175.5" font-family="Helvetica,sans-Serif" font-size="10.00">WBBlock.h</text>
</a>
</g>
</g>
<!-- Node2&#45;&gt;Node3 -->
<g id="edge2" class="edge"><title>Node2&#45;&gt;Node3</title>
<path fill="none" stroke="midnightblue" d="M409.881,-224.083C405.592,-216.613 399.342,-205.724 394.058,-196.52"/>
<polygon fill="midnightblue" stroke="midnightblue" points="397.038,-194.681 389.024,-187.751 390.967,-198.166 397.038,-194.681"/>
</g>
<!-- Node2&#45;&gt;Node6 -->
<g id="edge11" class="edge"><title>Node2&#45;&gt;Node6</title>
<path fill="none" stroke="midnightblue" d="M417.222,-224.389C426.142,-189.911 459.096,-63.3166 464,-56 472.482,-43.3458 485.688,-32.698 497.357,-24.9417"/>
<polygon fill="midnightblue" stroke="midnightblue" points="499.272,-27.8722 505.878,-19.5887 495.548,-21.9449 499.272,-27.8722"/>
</g>
<!-- Node7 -->
<g id="node7" class="node"><title>Node7</title>
<polygon fill="none" stroke="#bfbfbf" points="329.5,-0.5 329.5,-19.5 370.5,-19.5 370.5,-0.5 329.5,-0.5"/>
<text text-anchor="middle" x="350" y="-7.5" font-family="Helvetica,sans-Serif" font-size="10.00">string</text>
</g>
<!-- Node2&#45;&gt;Node7 -->
<g id="edge12" class="edge"><title>Node2&#45;&gt;Node7</title>
<path fill="none" stroke="midnightblue" d="M393.871,-224.452C377.725,-216.967 355.942,-204.676 342,-188 324.848,-167.485 324.976,-158.274 320,-132 312.984,-94.9524 329.411,-52.2901 340.623,-28.8133"/>
<polygon fill="midnightblue" stroke="midnightblue" points="343.822,-30.241 345.165,-19.7316 337.562,-27.1099 343.822,-30.241"/>
</g>
<!-- Node4 -->
<g id="node4" class="node"><title>Node4</title>
<g id="a_node4"><a xlink:href="_block_8h.html" target="_top" xlink:title="Block.h">
<polygon fill="none" stroke="black" points="329,-112.5 329,-131.5 379,-131.5 379,-112.5 329,-112.5"/>
<text text-anchor="middle" x="354" y="-119.5" font-family="Helvetica,sans-Serif" font-size="10.00">Block.h</text>
</a>
</g>
</g>
<!-- Node3&#45;&gt;Node4 -->
<g id="edge3" class="edge"><title>Node3&#45;&gt;Node4</title>
<path fill="none" stroke="midnightblue" d="M379.046,-168.083C374.896,-160.613 368.847,-149.724 363.733,-140.52"/>
<polygon fill="midnightblue" stroke="midnightblue" points="366.778,-138.793 358.862,-131.751 360.659,-142.192 366.778,-138.793"/>
</g>
<!-- Node3&#45;&gt;Node6 -->
<g id="edge10" class="edge"><title>Node3&#45;&gt;Node6</title>
<path fill="none" stroke="midnightblue" d="M385.188,-168.249C388.547,-146.615 399.966,-89.9183 431,-56 445.724,-39.9076 467.479,-28.8576 486.026,-21.7356"/>
<polygon fill="midnightblue" stroke="midnightblue" points="487.432,-24.9495 495.656,-18.2697 485.061,-18.3631 487.432,-24.9495"/>
</g>
<!-- Node4&#45;&gt;Node5 -->
<g id="edge4" class="edge"><title>Node4&#45;&gt;Node5</title>
<path fill="none" stroke="midnightblue" d="M339.701,-112.324C325.817,-103.9 304.508,-90.9709 288.196,-81.0741"/>
<polygon fill="midnightblue" stroke="midnightblue" points="289.629,-77.8495 279.264,-75.6545 285.998,-83.8341 289.629,-77.8495"/>
</g>
<!-- Node4&#45;&gt;Node7 -->
<g id="edge8" class="edge"><title>Node4&#45;&gt;Node7</title>
<path fill="none" stroke="midnightblue" d="M353.686,-112.368C353.041,-94.617 351.552,-53.6664 350.676,-29.5974"/>
<polygon fill="midnightblue" stroke="midnightblue" points="354.174,-29.4576 350.312,-19.5914 347.178,-29.712 354.174,-29.4576"/>
</g>
<!-- Node8 -->
<g id="node8" class="node"><title>Node8</title>
<polygon fill="none" stroke="#bfbfbf" points="146,-0.5 146,-19.5 190,-19.5 190,-0.5 146,-0.5"/>
<text text-anchor="middle" x="168" y="-7.5" font-family="Helvetica,sans-Serif" font-size="10.00">vector</text>
</g>
<!-- Node4&#45;&gt;Node8 -->
<g id="edge9" class="edge"><title>Node4&#45;&gt;Node8</title>
<path fill="none" stroke="midnightblue" d="M328.773,-120.113C273.339,-117.579 143.71,-108.258 117,-76 102.721,-58.7546 124.816,-38.3737 144.236,-25.0925"/>
<polygon fill="midnightblue" stroke="midnightblue" points="146.339,-27.9003 152.831,-19.5267 142.534,-22.0248 146.339,-27.9003"/>
</g>
<!-- Node5&#45;&gt;Node6 -->
<g id="edge5" class="edge"><title>Node5&#45;&gt;Node6</title>
<path fill="none" stroke="midnightblue" d="M302.645,-57.0901C351.874,-46.7463 437.527,-28.7492 485.952,-18.5742"/>
<polygon fill="midnightblue" stroke="midnightblue" points="486.915,-21.9484 495.982,-16.4669 485.476,-15.098 486.915,-21.9484"/>
</g>
<!-- Node5&#45;&gt;Node7 -->
<g id="edge6" class="edge"><title>Node5&#45;&gt;Node7</title>
<path fill="none" stroke="midnightblue" d="M278.657,-56.324C291.916,-47.9002 312.268,-34.9709 327.846,-25.0741"/>
<polygon fill="midnightblue" stroke="midnightblue" points="329.813,-27.9711 336.377,-19.6545 326.06,-22.0626 329.813,-27.9711"/>
</g>
<!-- Node5&#45;&gt;Node8 -->
<g id="edge7" class="edge"><title>Node5&#45;&gt;Node8</title>
<path fill="none" stroke="midnightblue" d="M249.415,-56.324C234.001,-47.7428 210.188,-34.486 192.29,-24.5224"/>
<polygon fill="midnightblue" stroke="midnightblue" points="193.986,-21.4606 183.546,-19.6545 190.581,-27.5767 193.986,-21.4606"/>
</g>
<!-- Node9&#45;&gt;Node6 -->
<g id="edge14" class="edge"><title>Node9&#45;&gt;Node6</title>
<path fill="none" stroke="midnightblue" d="M522,-56.083C522,-49.0059 522,-38.8611 522,-29.9865"/>
<polygon fill="midnightblue" stroke="midnightblue" points="525.5,-29.751 522,-19.7511 518.5,-29.7511 525.5,-29.751"/>
</g>
<!-- Node9&#45;&gt;Node7 -->
<g id="edge15" class="edge"><title>Node9&#45;&gt;Node7</title>
<path fill="none" stroke="midnightblue" d="M494.746,-56.4435C463.633,-46.6756 412.871,-30.7385 380.473,-20.5673"/>
<polygon fill="midnightblue" stroke="midnightblue" points="381.238,-17.1388 370.648,-17.4826 379.141,-23.8174 381.238,-17.1388"/>
</g>
<!-- Node9&#45;&gt;Node8 -->
<g id="edge17" class="edge"><title>Node9&#45;&gt;Node8</title>
<path fill="none" stroke="midnightblue" d="M472.778,-57.4915C399.146,-46.2595 262.344,-25.3914 200.203,-15.9123"/>
<polygon fill="midnightblue" stroke="midnightblue" points="200.608,-12.4337 190.195,-14.3856 199.552,-19.3536 200.608,-12.4337"/>
</g>
<!-- Node10 -->
<g id="node10" class="node"><title>Node10</title>
<polygon fill="none" stroke="#bfbfbf" points="681,-0.5 681,-19.5 721,-19.5 721,-0.5 681,-0.5"/>
<text text-anchor="middle" x="701" y="-7.5" font-family="Helvetica,sans-Serif" font-size="10.00">utility</text>
</g>
<!-- Node9&#45;&gt;Node10 -->
<g id="edge16" class="edge"><title>Node9&#45;&gt;Node10</title>
<path fill="none" stroke="midnightblue" d="M550.78,-56.4539C579.048,-48.0409 623.65,-34.7152 670.922,-20.3101"/>
<polygon fill="midnightblue" stroke="midnightblue" points="672.183,-23.5848 680.726,-17.3187 670.14,-16.8895 672.183,-23.5848"/>
</g>
<!-- Node11&#45;&gt;Node6 -->
<g id="edge19" class="edge"><title>Node11&#45;&gt;Node6</title>
<path fill="none" stroke="midnightblue" d="M209.725,-57.3893C212.524,-56.9097 215.302,-56.4424 218,-56 314.651,-40.1518 429.009,-23.8931 485.979,-15.9619"/>
<polygon fill="midnightblue" stroke="midnightblue" points="486.508,-19.4221 495.932,-14.5799 485.546,-12.4887 486.508,-19.4221"/>
</g>
<!-- Node11&#45;&gt;Node7 -->
<g id="edge20" class="edge"><title>Node11&#45;&gt;Node7</title>
<path fill="none" stroke="midnightblue" d="M196.838,-56.4435C230.357,-46.4985 285.428,-30.1587 319.599,-20.02"/>
<polygon fill="midnightblue" stroke="midnightblue" points="320.895,-23.2864 329.486,-17.0865 318.904,-16.5756 320.895,-23.2864"/>
</g>
<!-- Node11&#45;&gt;Node8 -->
<g id="edge21" class="edge"><title>Node11&#45;&gt;Node8</title>
<path fill="none" stroke="midnightblue" d="M168,-56.083C168,-49.0059 168,-38.8611 168,-29.9865"/>
<polygon fill="midnightblue" stroke="midnightblue" points="171.5,-29.751 168,-19.7511 164.5,-29.7511 171.5,-29.751"/>
</g>
<!-- Node12&#45;&gt;Node6 -->
<g id="edge23" class="edge"><title>Node12&#45;&gt;Node6</title>
<path fill="none" stroke="midnightblue" d="M628.035,-56.4435C607.391,-47.5961 574.937,-33.6875 551.368,-23.5865"/>
<polygon fill="midnightblue" stroke="midnightblue" points="552.442,-20.2387 541.872,-19.5164 549.684,-26.6727 552.442,-20.2387"/>
</g>
<!-- Node12&#45;&gt;Node7 -->
<g id="edge25" class="edge"><title>Node12&#45;&gt;Node7</title>
<path fill="none" stroke="midnightblue" d="M627.045,-61.2028C575.304,-51.8269 441.298,-27.544 380.636,-16.5515"/>
<polygon fill="midnightblue" stroke="midnightblue" points="381,-13.0605 370.536,-14.7213 379.752,-19.9483 381,-13.0605"/>
</g>
<!-- Node13 -->
<g id="node13" class="node"><title>Node13</title>
<polygon fill="none" stroke="#bfbfbf" points="611,-0.5 611,-19.5 663,-19.5 663,-0.5 611,-0.5"/>
<text text-anchor="middle" x="637" y="-7.5" font-family="Helvetica,sans-Serif" font-size="10.00">sstream</text>
</g>
<!-- Node12&#45;&gt;Node13 -->
<g id="edge24" class="edge"><title>Node12&#45;&gt;Node13</title>
<path fill="none" stroke="midnightblue" d="M646.184,-56.083C644.726,-48.9272 642.629,-38.6353 640.807,-29.6911"/>
<polygon fill="midnightblue" stroke="midnightblue" points="644.208,-28.8512 638.783,-19.7511 637.349,-30.2485 644.208,-28.8512"/>
</g>
<!-- Node14&#45;&gt;Node7 -->
<g id="edge27" class="edge"><title>Node14&#45;&gt;Node7</title>
<path fill="none" stroke="midnightblue" d="M70.2176,-58.9627C132.335,-48.3141 260.347,-26.3692 319.186,-16.2824"/>
<polygon fill="midnightblue" stroke="midnightblue" points="320.071,-19.6818 329.336,-14.5424 318.889,-12.7824 320.071,-19.6818"/>
</g>
<!-- Node14&#45;&gt;Node8 -->
<g id="edge28" class="edge"><title>Node14&#45;&gt;Node8</title>
<path fill="none" stroke="midnightblue" d="M56.0742,-56.4435C78.0598,-47.5171 112.734,-33.4387 137.664,-23.3168"/>
<polygon fill="midnightblue" stroke="midnightblue" points="139.076,-26.5213 147.024,-19.5164 136.442,-20.0355 139.076,-26.5213"/>
</g>
<!-- Node15&#45;&gt;Node6 -->
<g id="edge31" class="edge"><title>Node15&#45;&gt;Node6</title>
<path fill="none" stroke="midnightblue" d="M730.704,-56.4435C683.214,-46.1031 603.974,-28.8492 558.009,-18.8407"/>
<polygon fill="midnightblue" stroke="midnightblue" points="558.695,-15.4081 548.179,-16.7003 557.206,-22.2479 558.695,-15.4081"/>
</g>
<!-- Node15&#45;&gt;Node7 -->
<g id="edge32" class="edge"><title>Node15&#45;&gt;Node7</title>
<path fill="none" stroke="midnightblue" d="M725.45,-59.2722C639.73,-48.251 453.848,-24.3519 380.576,-14.9312"/>
<polygon fill="midnightblue" stroke="midnightblue" points="380.972,-11.4534 370.608,-13.6495 380.08,-18.3963 380.972,-11.4534"/>
</g>
<!-- Node15&#45;&gt;Node10 -->
<g id="edge34" class="edge"><title>Node15&#45;&gt;Node10</title>
<path fill="none" stroke="midnightblue" d="M758.914,-56.324C748.514,-48.1849 732.739,-35.8395 720.278,-26.0874"/>
<polygon fill="midnightblue" stroke="midnightblue" points="722.32,-23.2407 712.288,-19.8339 718.006,-28.7533 722.32,-23.2407"/>
</g>
<!-- Node16 -->
<g id="node16" class="node"><title>Node16</title>
<polygon fill="none" stroke="#bfbfbf" points="739.5,-0.5 739.5,-19.5 822.5,-19.5 822.5,-0.5 739.5,-0.5"/>
<text text-anchor="middle" x="781" y="-7.5" font-family="Helvetica,sans-Serif" font-size="10.00">unordered_map</text>
</g>
<!-- Node15&#45;&gt;Node16 -->
<g id="edge33" class="edge"><title>Node15&#45;&gt;Node16</title>
<path fill="none" stroke="midnightblue" d="M771.816,-56.083C773.274,-48.9272 775.371,-38.6353 777.193,-29.6911"/>
<polygon fill="midnightblue" stroke="midnightblue" points="780.651,-30.2485 779.217,-19.7511 773.792,-28.8512 780.651,-30.2485"/>
</g>
<!-- Node17&#45;&gt;Node6 -->
<g id="edge36" class="edge"><title>Node17&#45;&gt;Node6</title>
<path fill="none" stroke="midnightblue" d="M692.886,-168.449C697.128,-146.783 704.985,-89.1091 677,-56 661.701,-37.899 598.94,-24.0708 558.123,-16.7723"/>
<polygon fill="midnightblue" stroke="midnightblue" points="558.712,-13.3224 548.26,-15.0589 557.514,-20.2191 558.712,-13.3224"/>
</g>
</g>
</svg>
        <g id="navigator" transform="translate(0 0)" fill="#404254">
                <rect fill="#f2f5e9" fill-opacity="0.5" stroke="#606060" stroke-width=".5" x="0" y="0" width="60" height="60"/>
                <use id="zoomplus" xlink:href="#zoomPlus" x="17" y="9" onmousedown="handleZoom(evt,'in')"/>
                <use id="zoomminus" xlink:href="#zoomMin" x="42" y="9" onmousedown="handleZoom(evt,'out')"/>
                <use id="reset" xlink:href="#resetDef" x="30" y="36" onmousedown="handleReset()"/>
                <g id="arrowUp" xlink:href="#dirArrow" transform="translate(30 24)" onmousedown="handlePan(0,-1)">
                  <use xlink:href="#rim" fill="#404040">
                        <set attributeName="fill" to="#808080" begin="arrowUp.mouseover" end="arrowUp.mouseout"/>
                  </use>
                  <path fill="none" stroke="white" stroke-width="1.5" d="M0,-3.0v7 M-2.5,-0.5L0,-3.0L2.5,-0.5"/>
                </g>
                <g id="arrowRight" xlink:href="#dirArrow" transform="rotate(90) translate(36 -43)" onmousedown="handlePan(1,0)">
                  <use xlink:href="#rim" fill="#404040">
                        <set attributeName="fill" to="#808080" begin="arrowRight.mouseover" end="arrowRight.mouseout"/>
                  </use>
                  <path fill="none" stroke="white" stroke-width="1.5" d="M0,-3.0v7 M-2.5,-0.5L0,-3.0L2.5,-0.5"/>
                </g>
                <g id="arrowDown" xlink:href="#dirArrow" transform="rotate(180) translate(-30 -48)" onmousedown="handlePan(0,1)">
                  <use xlink:href="#rim" fill="#404040">
                        <set attributeName="fill" to="#808080" begin="arrowDown.mouseover" end="arrowDown.mouseout"/>
                  </use>
                  <path fill="none" stroke="white" stroke-width="1.5" d="M0,-3.0v7 M-2.5,-0.5L0,-3.0L2.5,-0.5"/>
                </g>
                <g id="arrowLeft" xlink:href="#dirArrow" transform="rotate(270) translate(-36 17)" onmousedown="handlePan(-1,0)">
                  <use xlink:href="#rim" fill="#404040">
                        <set attributeName="fill" to="#808080" begin="arrowLeft.mouseover" end="arrowLeft.mouseout"/>
                  </use>
                  <path fill="none" stroke="white" stroke-width="1.5" d="M0,-3.0v7 M-2.5,-0.5L0,-3.0L2.5,-0.5"/>
                </g>
        </g>
        <svg viewBox="0 0 15 15" width="100%" height="30px" preserveAspectRatio="xMaxYMin meet">
         <g id="arrow_out" transform="scale(0.3 0.3)">
          <a xlink:href="_dot_j_nu_8cpp__incl_org.svg" target="_base">
           <rect id="button" ry="5" rx="5" y="6" x="6" height="38" width="38"
                fill="#f2f5e9" fill-opacity="0.5" stroke="#606060" stroke-width="1.0"/>
           <path id="arrow"
             d="M 11.500037,31.436501 C 11.940474,20.09759 22.043105,11.32322 32.158766,21.979434 L 37.068811,17.246167 C 37.068811,17.246167 37.088388,32 37.088388,32 L 22.160133,31.978069 C 22.160133,31.978069 26.997745,27.140456 26.997745,27.140456 C 18.528582,18.264221 13.291696,25.230495 11.500037,31.436501 z"
             style="fill:#404040;"/>
          </a>
         </g>
        </svg>
</svg>
