<?xml version="1.0" encoding="UTF-8" standalone="no"?>
<!DOCTYPE svg PUBLIC "-//W3C//DTD SVG 1.1//EN"
 "http://www.w3.org/Graphics/SVG/1.1/DTD/svg11.dtd">
<!-- Generated by graphviz version 2.36.0 (20140111.2315)
 -->
<!-- Title: /home/travis/build/robotology/wb&#45;toolbox/toolbox/src/base/Factory.cpp Pages: 1 -->
<svg width="1736pt" height="386pt"
 viewBox="0.00 0.00 1736.00 386.00" xmlns="http://www.w3.org/2000/svg" xmlns:xlink="http://www.w3.org/1999/xlink">
<g id="graph0" class="graph" transform="scale(1 1) rotate(0) translate(4 382)">
<title>/home/travis/build/robotology/wb&#45;toolbox/toolbox/src/base/Factory.cpp</title>
<!-- Node1 -->
<g id="node1" class="node"><title>Node1</title>
<polygon fill="#bfbfbf" stroke="black" points="1301,-336.5 1301,-377.5 1447,-377.5 1447,-336.5 1301,-336.5"/>
<text text-anchor="start" x="1309" y="-365.5" font-family="Helvetica,sans-Serif" font-size="10.00">/home/travis/build</text>
<text text-anchor="start" x="1309" y="-354.5" font-family="Helvetica,sans-Serif" font-size="10.00">/robotology/wb&#45;toolbox</text>
<text text-anchor="middle" x="1374" y="-343.5" font-family="Helvetica,sans-Serif" font-size="10.00">/toolbox/src/base/Factory.cpp</text>
</g>
<!-- Node2 -->
<g id="node2" class="node"><title>Node2</title>
<g id="a_node2"><a xlink:href="_factory_8h.html" target="_top" xlink:title="Factory.h">
<polygon fill="none" stroke="black" points="937,-280.5 937,-299.5 995,-299.5 995,-280.5 937,-280.5"/>
<text text-anchor="middle" x="966" y="-287.5" font-family="Helvetica,sans-Serif" font-size="10.00">Factory.h</text>
</a>
</g>
</g>
<!-- Node1&#45;&gt;Node2 -->
<g id="edge1" class="edge"><title>Node1&#45;&gt;Node2</title>
<path fill="none" stroke="midnightblue" d="M1300.59,-344.304C1214.13,-330.531 1073.69,-308.156 1005.56,-297.303"/>
<polygon fill="midnightblue" stroke="midnightblue" points="1005.7,-293.78 995.271,-295.663 1004.6,-300.693 1005.7,-293.78"/>
</g>
<!-- Node8 -->
<g id="node8" class="node"><title>Node8</title>
<polygon fill="none" stroke="#bfbfbf" points="944.5,-0.5 944.5,-19.5 985.5,-19.5 985.5,-0.5 944.5,-0.5"/>
<text text-anchor="middle" x="965" y="-7.5" font-family="Helvetica,sans-Serif" font-size="10.00">string</text>
</g>
<!-- Node1&#45;&gt;Node8 -->
<g id="edge79" class="edge"><title>Node1&#45;&gt;Node8</title>
<path fill="none" stroke="midnightblue" d="M1447.35,-346.064C1551.04,-329.928 1728,-293.779 1728,-235 1728,-235 1728,-235 1728,-121 1728,-80.1449 1700.22,-72.8413 1663,-56 1601.66,-28.2453 1122.71,-14.8058 995.783,-11.7093"/>
<polygon fill="midnightblue" stroke="midnightblue" points="995.683,-8.20592 985.601,-11.4648 995.515,-15.2039 995.683,-8.20592"/>
</g>
<!-- Node3 -->
<g id="node3" class="node"><title>Node3</title>
<g id="a_node3"><a xlink:href="_get_limits_8h.html" target="_top" xlink:title="GetLimits.h">
<polygon fill="none" stroke="black" points="877.5,-224.5 877.5,-243.5 944.5,-243.5 944.5,-224.5 877.5,-224.5"/>
<text text-anchor="middle" x="911" y="-231.5" font-family="Helvetica,sans-Serif" font-size="10.00">GetLimits.h</text>
</a>
</g>
</g>
<!-- Node2&#45;&gt;Node3 -->
<g id="edge2" class="edge"><title>Node2&#45;&gt;Node3</title>
<path fill="none" stroke="midnightblue" d="M956.918,-280.083C948.829,-272.141 936.805,-260.335 927.09,-250.797"/>
<polygon fill="midnightblue" stroke="midnightblue" points="929.501,-248.26 919.913,-243.751 924.597,-253.254 929.501,-248.26"/>
</g>
<!-- Node10 -->
<g id="node10" class="node"><title>Node10</title>
<g id="a_node10"><a xlink:href="_get_measurement_8h.html" target="_top" xlink:title="GetMeasurement.h">
<polygon fill="none" stroke="black" points="759,-224.5 759,-243.5 859,-243.5 859,-224.5 759,-224.5"/>
<text text-anchor="middle" x="809" y="-231.5" font-family="Helvetica,sans-Serif" font-size="10.00">GetMeasurement.h</text>
</a>
</g>
</g>
<!-- Node2&#45;&gt;Node10 -->
<g id="edge15" class="edge"><title>Node2&#45;&gt;Node10</title>
<path fill="none" stroke="midnightblue" d="M941.123,-280.444C914.711,-271.359 872.785,-256.939 843.258,-246.783"/>
<polygon fill="midnightblue" stroke="midnightblue" points="844.355,-243.459 833.761,-243.516 842.079,-250.079 844.355,-243.459"/>
</g>
<!-- Node11 -->
<g id="node11" class="node"><title>Node11</title>
<g id="a_node11"><a xlink:href="_model_partitioner_8h.html" target="_top" xlink:title="ModelPartitioner.h">
<polygon fill="none" stroke="black" points="76.5,-224.5 76.5,-243.5 171.5,-243.5 171.5,-224.5 76.5,-224.5"/>
<text text-anchor="middle" x="124" y="-231.5" font-family="Helvetica,sans-Serif" font-size="10.00">ModelPartitioner.h</text>
</a>
</g>
</g>
<!-- Node2&#45;&gt;Node11 -->
<g id="edge19" class="edge"><title>Node2&#45;&gt;Node11</title>
<path fill="none" stroke="midnightblue" d="M936.648,-288.4C834.106,-286.079 482.209,-276.202 181.829,-244.094"/>
<polygon fill="midnightblue" stroke="midnightblue" points="181.932,-240.585 171.614,-242.992 181.181,-247.545 181.932,-240.585"/>
</g>
<!-- Node12 -->
<g id="node12" class="node"><title>Node12</title>
<g id="a_node12"><a xlink:href="_real_time_synchronizer_8h.html" target="_top" xlink:title="RealTimeSynchronizer.h">
<polygon fill="none" stroke="black" points="1576,-168.5 1576,-187.5 1700,-187.5 1700,-168.5 1576,-168.5"/>
<text text-anchor="middle" x="1638" y="-175.5" font-family="Helvetica,sans-Serif" font-size="10.00">RealTimeSynchronizer.h</text>
</a>
</g>
</g>
<!-- Node2&#45;&gt;Node12 -->
<g id="edge23" class="edge"><title>Node2&#45;&gt;Node12</title>
<path fill="none" stroke="midnightblue" d="M995.028,-287.51C1064.46,-283.607 1245.4,-271.433 1394,-244 1468.7,-230.209 1554.07,-205.306 1601.44,-190.653"/>
<polygon fill="midnightblue" stroke="midnightblue" points="1602.73,-193.918 1611.23,-187.602 1600.64,-187.235 1602.73,-193.918"/>
</g>
<!-- Node13 -->
<g id="node13" class="node"><title>Node13</title>
<g id="a_node13"><a xlink:href="_set_low_level_p_i_d_8h.html" target="_top" xlink:title="SetLowLevelPID.h">
<polygon fill="none" stroke="black" points="317,-224.5 317,-243.5 415,-243.5 415,-224.5 317,-224.5"/>
<text text-anchor="middle" x="366" y="-231.5" font-family="Helvetica,sans-Serif" font-size="10.00">SetLowLevelPID.h</text>
</a>
</g>
</g>
<!-- Node2&#45;&gt;Node13 -->
<g id="edge27" class="edge"><title>Node2&#45;&gt;Node13</title>
<path fill="none" stroke="midnightblue" d="M936.844,-287.311C856.855,-282.523 627.057,-267.727 425.212,-244.062"/>
<polygon fill="midnightblue" stroke="midnightblue" points="425.356,-240.555 415.014,-242.856 424.534,-247.507 425.356,-240.555"/>
</g>
<!-- Node14 -->
<g id="node14" class="node"><title>Node14</title>
<g id="a_node14"><a xlink:href="_set_references_8h.html" target="_top" xlink:title="SetReferences.h">
<polygon fill="none" stroke="black" points="1099,-224.5 1099,-243.5 1189,-243.5 1189,-224.5 1099,-224.5"/>
<text text-anchor="middle" x="1144" y="-231.5" font-family="Helvetica,sans-Serif" font-size="10.00">SetReferences.h</text>
</a>
</g>
</g>
<!-- Node2&#45;&gt;Node14 -->
<g id="edge31" class="edge"><title>Node2&#45;&gt;Node14</title>
<path fill="none" stroke="midnightblue" d="M994.205,-280.444C1024.41,-271.28 1072.51,-256.688 1106.03,-246.519"/>
<polygon fill="midnightblue" stroke="midnightblue" points="1107.37,-249.769 1115.93,-243.516 1105.34,-243.07 1107.37,-249.769"/>
</g>
<!-- Node15 -->
<g id="node15" class="node"><title>Node15</title>
<g id="a_node15"><a xlink:href="_simulator_synchronizer_8h.html" target="_top" xlink:title="SimulatorSynchronizer.h">
<polygon fill="none" stroke="black" points="1434.5,-168.5 1434.5,-187.5 1557.5,-187.5 1557.5,-168.5 1434.5,-168.5"/>
<text text-anchor="middle" x="1496" y="-175.5" font-family="Helvetica,sans-Serif" font-size="10.00">SimulatorSynchronizer.h</text>
</a>
</g>
</g>
<!-- Node2&#45;&gt;Node15 -->
<g id="edge35" class="edge"><title>Node2&#45;&gt;Node15</title>
<path fill="none" stroke="midnightblue" d="M995.233,-288.674C1060.59,-287.285 1222.99,-280.148 1353,-244 1396.95,-231.78 1444.52,-207.777 1472.21,-192.607"/>
<polygon fill="midnightblue" stroke="midnightblue" points="1474.1,-195.562 1481.14,-187.643 1470.7,-189.443 1474.1,-195.562"/>
</g>
<!-- Node16 -->
<g id="node16" class="node"><title>Node16</title>
<g id="a_node16"><a xlink:href="_yarp_clock_8h.html" target="_top" xlink:title="YarpClock.h">
<polygon fill="none" stroke="black" points="1172.5,-168.5 1172.5,-187.5 1243.5,-187.5 1243.5,-168.5 1172.5,-168.5"/>
<text text-anchor="middle" x="1208" y="-175.5" font-family="Helvetica,sans-Serif" font-size="10.00">YarpClock.h</text>
</a>
</g>
</g>
<!-- Node2&#45;&gt;Node16 -->
<g id="edge40" class="edge"><title>Node2&#45;&gt;Node16</title>
<path fill="none" stroke="midnightblue" d="M995.079,-289.61C1067.62,-290.447 1253.53,-288.15 1292,-244 1310.86,-222.361 1275.73,-203.006 1245.29,-191.158"/>
<polygon fill="midnightblue" stroke="midnightblue" points="1246.24,-187.777 1235.65,-187.581 1243.81,-194.34 1246.24,-187.777"/>
</g>
<!-- Node17 -->
<g id="node17" class="node"><title>Node17</title>
<g id="a_node17"><a xlink:href="_yarp_read_8h.html" target="_top" xlink:title="YarpRead.h">
<polygon fill="none" stroke="black" points="1262,-168.5 1262,-187.5 1330,-187.5 1330,-168.5 1262,-168.5"/>
<text text-anchor="middle" x="1296" y="-175.5" font-family="Helvetica,sans-Serif" font-size="10.00">YarpRead.h</text>
</a>
</g>
</g>
<!-- Node2&#45;&gt;Node17 -->
<g id="edge43" class="edge"><title>Node2&#45;&gt;Node17</title>
<path fill="none" stroke="midnightblue" d="M995.196,-287.34C1074.33,-282.547 1288.38,-267.504 1309,-244 1320.35,-231.067 1314.01,-211.072 1306.77,-196.674"/>
<polygon fill="midnightblue" stroke="midnightblue" points="1309.73,-194.801 1301.82,-187.755 1303.61,-198.198 1309.73,-194.801"/>
</g>
<!-- Node18 -->
<g id="node18" class="node"><title>Node18</title>
<g id="a_node18"><a xlink:href="_yarp_write_8h.html" target="_top" xlink:title="YarpWrite.h">
<polygon fill="none" stroke="black" points="1348,-168.5 1348,-187.5 1416,-187.5 1416,-168.5 1348,-168.5"/>
<text text-anchor="middle" x="1382" y="-175.5" font-family="Helvetica,sans-Serif" font-size="10.00">YarpWrite.h</text>
</a>
</g>
</g>
<!-- Node2&#45;&gt;Node18 -->
<g id="edge47" class="edge"><title>Node2&#45;&gt;Node18</title>
<path fill="none" stroke="midnightblue" d="M995.113,-288.076C1070.42,-285.263 1269.73,-275.013 1327,-244 1347.05,-233.145 1362.9,-211.78 1372.34,-196.506"/>
<polygon fill="midnightblue" stroke="midnightblue" points="1375.57,-197.92 1377.59,-187.521 1369.52,-194.386 1375.57,-197.92"/>
</g>
<!-- Node19 -->
<g id="node19" class="node"><title>Node19</title>
<g id="a_node19"><a xlink:href="_centroidal_momentum_8h.html" target="_top" xlink:title="CentroidalMomentum.h">
<polygon fill="none" stroke="black" points="963,-224.5 963,-243.5 1081,-243.5 1081,-224.5 963,-224.5"/>
<text text-anchor="middle" x="1022" y="-231.5" font-family="Helvetica,sans-Serif" font-size="10.00">CentroidalMomentum.h</text>
</a>
</g>
</g>
<!-- Node2&#45;&gt;Node19 -->
<g id="edge51" class="edge"><title>Node2&#45;&gt;Node19</title>
<path fill="none" stroke="midnightblue" d="M974.997,-280.324C983.194,-272.42 995.506,-260.548 1005.47,-250.938"/>
<polygon fill="midnightblue" stroke="midnightblue" points="1008.07,-253.295 1012.84,-243.834 1003.21,-248.256 1008.07,-253.295"/>
</g>
<!-- Node20 -->
<g id="node20" class="node"><title>Node20</title>
<g id="a_node20"><a xlink:href="_dot_j_nu_8h.html" target="_top" xlink:title="DotJNu.h">
<polygon fill="none" stroke="black" points="-0.5,-224.5 -0.5,-243.5 58.5,-243.5 58.5,-224.5 -0.5,-224.5"/>
<text text-anchor="middle" x="29" y="-231.5" font-family="Helvetica,sans-Serif" font-size="10.00">DotJNu.h</text>
</a>
</g>
</g>
<!-- Node2&#45;&gt;Node20 -->
<g id="edge55" class="edge"><title>Node2&#45;&gt;Node20</title>
<path fill="none" stroke="midnightblue" d="M936.711,-289.467C824.881,-290.846 414.137,-292.221 68.7157,-243.998"/>
<polygon fill="midnightblue" stroke="midnightblue" points="69.1638,-240.527 58.7725,-242.594 68.1847,-247.458 69.1638,-240.527"/>
</g>
<!-- Node21 -->
<g id="node21" class="node"><title>Node21</title>
<g id="a_node21"><a xlink:href="_forward_kinematics_8h.html" target="_top" xlink:title="ForwardKinematics.h">
<polygon fill="none" stroke="black" points="189.5,-224.5 189.5,-243.5 298.5,-243.5 298.5,-224.5 189.5,-224.5"/>
<text text-anchor="middle" x="244" y="-231.5" font-family="Helvetica,sans-Serif" font-size="10.00">ForwardKinematics.h</text>
</a>
</g>
</g>
<!-- Node2&#45;&gt;Node21 -->
<g id="edge59" class="edge"><title>Node2&#45;&gt;Node21</title>
<path fill="none" stroke="midnightblue" d="M936.75,-287.746C845.535,-283.678 558.007,-269.664 308.75,-244.001"/>
<polygon fill="midnightblue" stroke="midnightblue" points="309.089,-240.517 298.781,-242.966 308.366,-247.48 309.089,-240.517"/>
</g>
<!-- Node22 -->
<g id="node22" class="node"><title>Node22</title>
<g id="a_node22"><a xlink:href="_inverse_dynamics_8h.html" target="_top" xlink:title="InverseDynamics.h">
<polygon fill="none" stroke="black" points="433.5,-224.5 433.5,-243.5 534.5,-243.5 534.5,-224.5 433.5,-224.5"/>
<text text-anchor="middle" x="484" y="-231.5" font-family="Helvetica,sans-Serif" font-size="10.00">InverseDynamics.h</text>
</a>
</g>
</g>
<!-- Node2&#45;&gt;Node22 -->
<g id="edge63" class="edge"><title>Node2&#45;&gt;Node22</title>
<path fill="none" stroke="midnightblue" d="M936.788,-286.318C869.621,-280.059 698.808,-263.614 544.834,-244.056"/>
<polygon fill="midnightblue" stroke="midnightblue" points="545.081,-240.559 534.718,-242.763 544.194,-247.502 545.081,-240.559"/>
</g>
<!-- Node23 -->
<g id="node23" class="node"><title>Node23</title>
<g id="a_node23"><a xlink:href="_jacobian_8h.html" target="_top" xlink:title="Jacobian.h">
<polygon fill="none" stroke="black" points="553,-224.5 553,-243.5 617,-243.5 617,-224.5 553,-224.5"/>
<text text-anchor="middle" x="585" y="-231.5" font-family="Helvetica,sans-Serif" font-size="10.00">Jacobian.h</text>
</a>
</g>
</g>
<!-- Node2&#45;&gt;Node23 -->
<g id="edge67" class="edge"><title>Node2&#45;&gt;Node23</title>
<path fill="none" stroke="midnightblue" d="M936.765,-285.973C879.385,-279.852 747.814,-264.928 627.313,-244.103"/>
<polygon fill="midnightblue" stroke="midnightblue" points="627.631,-240.606 617.178,-242.333 626.427,-247.501 627.631,-240.606"/>
</g>
<!-- Node24 -->
<g id="node24" class="node"><title>Node24</title>
<g id="a_node24"><a xlink:href="_mass_matrix_8h.html" target="_top" xlink:title="MassMatrix.h">
<polygon fill="none" stroke="black" points="1207,-224.5 1207,-243.5 1283,-243.5 1283,-224.5 1207,-224.5"/>
<text text-anchor="middle" x="1245" y="-231.5" font-family="Helvetica,sans-Serif" font-size="10.00">MassMatrix.h</text>
</a>
</g>
</g>
<!-- Node2&#45;&gt;Node24 -->
<g id="edge71" class="edge"><title>Node2&#45;&gt;Node24</title>
<path fill="none" stroke="midnightblue" d="M995.068,-283.374C1042.86,-274.123 1138.53,-255.608 1196.65,-244.359"/>
<polygon fill="midnightblue" stroke="midnightblue" points="1197.54,-247.751 1206.69,-242.415 1196.21,-240.879 1197.54,-247.751"/>
</g>
<!-- Node25 -->
<g id="node25" class="node"><title>Node25</title>
<g id="a_node25"><a xlink:href="_relative_transform_8h.html" target="_top" xlink:title="RelativeTransform.h">
<polygon fill="none" stroke="black" points="635.5,-224.5 635.5,-243.5 740.5,-243.5 740.5,-224.5 635.5,-224.5"/>
<text text-anchor="middle" x="688" y="-231.5" font-family="Helvetica,sans-Serif" font-size="10.00">RelativeTransform.h</text>
</a>
</g>
</g>
<!-- Node2&#45;&gt;Node25 -->
<g id="edge75" class="edge"><title>Node2&#45;&gt;Node25</title>
<path fill="none" stroke="midnightblue" d="M936.775,-283.323C890.615,-274.357 800.111,-256.777 741.926,-245.475"/>
<polygon fill="midnightblue" stroke="midnightblue" points="742.295,-241.981 731.812,-243.51 740.961,-248.853 742.295,-241.981"/>
</g>
<!-- Node4 -->
<g id="node4" class="node"><title>Node4</title>
<g id="a_node4"><a xlink:href="_w_b_block_8h.html" target="_top" xlink:title="WBBlock.h">
<polygon fill="none" stroke="black" points="605,-168.5 605,-187.5 671,-187.5 671,-168.5 605,-168.5"/>
<text text-anchor="middle" x="638" y="-175.5" font-family="Helvetica,sans-Serif" font-size="10.00">WBBlock.h</text>
</a>
</g>
</g>
<!-- Node3&#45;&gt;Node4 -->
<g id="edge3" class="edge"><title>Node3&#45;&gt;Node4</title>
<path fill="none" stroke="midnightblue" d="M877.208,-225.884C874.096,-225.241 870.99,-224.605 868,-224 802.934,-210.826 727.379,-196.166 681.136,-187.265"/>
<polygon fill="midnightblue" stroke="midnightblue" points="681.645,-183.798 671.164,-185.347 680.323,-190.673 681.645,-183.798"/>
</g>
<!-- Node7 -->
<g id="node7" class="node"><title>Node7</title>
<polygon fill="none" stroke="#bfbfbf" points="806,-0.5 806,-19.5 858,-19.5 858,-0.5 806,-0.5"/>
<text text-anchor="middle" x="832" y="-7.5" font-family="Helvetica,sans-Serif" font-size="10.00">memory</text>
</g>
<!-- Node3&#45;&gt;Node7 -->
<g id="edge13" class="edge"><title>Node3&#45;&gt;Node7</title>
<path fill="none" stroke="midnightblue" d="M907.903,-224.297C896.23,-191.494 854.733,-74.8835 838.54,-29.3774"/>
<polygon fill="midnightblue" stroke="midnightblue" points="841.811,-28.1316 835.161,-19.8837 835.217,-30.4784 841.811,-28.1316"/>
</g>
<!-- Node3&#45;&gt;Node8 -->
<g id="edge14" class="edge"><title>Node3&#45;&gt;Node8</title>
<path fill="none" stroke="midnightblue" d="M900.838,-224.185C892.092,-215.87 880.1,-202.539 875,-188 872.058,-179.612 872.713,-176.59 875,-168 889.89,-112.083 929.94,-55.3605 951.24,-27.9345"/>
<polygon fill="midnightblue" stroke="midnightblue" points="954.217,-29.8127 957.681,-19.8001 948.729,-25.4672 954.217,-29.8127"/>
</g>
<!-- Node5 -->
<g id="node5" class="node"><title>Node5</title>
<g id="a_node5"><a xlink:href="_block_8h.html" target="_top" xlink:title="Block.h">
<polygon fill="none" stroke="black" points="1310,-112.5 1310,-131.5 1360,-131.5 1360,-112.5 1310,-112.5"/>
<text text-anchor="middle" x="1335" y="-119.5" font-family="Helvetica,sans-Serif" font-size="10.00">Block.h</text>
</a>
</g>
</g>
<!-- Node4&#45;&gt;Node5 -->
<g id="edge4" class="edge"><title>Node4&#45;&gt;Node5</title>
<path fill="none" stroke="midnightblue" d="M671.149,-174.432C787.88,-165.388 1179.33,-135.061 1299.57,-125.745"/>
<polygon fill="midnightblue" stroke="midnightblue" points="1300,-129.222 1309.7,-124.96 1299.46,-122.243 1300,-129.222"/>
</g>
<!-- Node4&#45;&gt;Node7 -->
<g id="edge11" class="edge"><title>Node4&#45;&gt;Node7</title>
<path fill="none" stroke="midnightblue" d="M635.604,-168.428C630.102,-146.715 619.075,-88.9387 647,-56 665.968,-33.6264 747.552,-20.6466 795.815,-14.789"/>
<polygon fill="midnightblue" stroke="midnightblue" points="796.338,-18.2519 805.863,-13.6138 795.524,-11.2993 796.338,-18.2519"/>
</g>
<!-- Node4&#45;&gt;Node8 -->
<g id="edge12" class="edge"><title>Node4&#45;&gt;Node8</title>
<path fill="none" stroke="midnightblue" d="M638.547,-168.296C640.464,-145.751 648.897,-85.185 685,-56 704.217,-40.4652 865.493,-21.6209 934.199,-14.2116"/>
<polygon fill="midnightblue" stroke="midnightblue" points="934.823,-17.6649 944.395,-13.1229 934.08,-10.7045 934.823,-17.6649"/>
</g>
<!-- Node6 -->
<g id="node6" class="node"><title>Node6</title>
<g id="a_node6"><a xlink:href="_parameters_8h.html" target="_top" xlink:title="Parameters.h">
<polygon fill="none" stroke="black" points="1297.5,-56.5 1297.5,-75.5 1372.5,-75.5 1372.5,-56.5 1297.5,-56.5"/>
<text text-anchor="middle" x="1335" y="-63.5" font-family="Helvetica,sans-Serif" font-size="10.00">Parameters.h</text>
</a>
</g>
</g>
<!-- Node5&#45;&gt;Node6 -->
<g id="edge5" class="edge"><title>Node5&#45;&gt;Node6</title>
<path fill="none" stroke="midnightblue" d="M1335,-112.083C1335,-105.006 1335,-94.8611 1335,-85.9865"/>
<polygon fill="midnightblue" stroke="midnightblue" points="1338.5,-85.751 1335,-75.7511 1331.5,-85.7511 1338.5,-85.751"/>
</g>
<!-- Node5&#45;&gt;Node8 -->
<g id="edge9" class="edge"><title>Node5&#45;&gt;Node8</title>
<path fill="none" stroke="midnightblue" d="M1325.92,-112.153C1310.63,-97.8106 1278.12,-69.7097 1245,-56 1159.45,-20.5938 1048.51,-12.9225 995.631,-11.3446"/>
<polygon fill="midnightblue" stroke="midnightblue" points="995.64,-7.84389 985.557,-11.0982 995.469,-14.8418 995.64,-7.84389"/>
</g>
<!-- Node9 -->
<g id="node9" class="node"><title>Node9</title>
<polygon fill="none" stroke="#bfbfbf" points="1379,-0.5 1379,-19.5 1423,-19.5 1423,-0.5 1379,-0.5"/>
<text text-anchor="middle" x="1401" y="-7.5" font-family="Helvetica,sans-Serif" font-size="10.00">vector</text>
</g>
<!-- Node5&#45;&gt;Node9 -->
<g id="edge10" class="edge"><title>Node5&#45;&gt;Node9</title>
<path fill="none" stroke="midnightblue" d="M1346.82,-112.258C1357.22,-103.991 1372.04,-90.6905 1381,-76 1389.74,-61.6656 1394.94,-43.2025 1397.84,-29.619"/>
<polygon fill="midnightblue" stroke="midnightblue" points="1401.32,-30.033 1399.76,-19.5544 1394.45,-28.7217 1401.32,-30.033"/>
</g>
<!-- Node6&#45;&gt;Node7 -->
<g id="edge6" class="edge"><title>Node6&#45;&gt;Node7</title>
<path fill="none" stroke="midnightblue" d="M1297.19,-60.9412C1203.26,-50.8564 960.201,-24.7631 868.099,-14.8755"/>
<polygon fill="midnightblue" stroke="midnightblue" points="868.457,-11.3938 858.14,-13.8063 867.71,-18.3538 868.457,-11.3938"/>
</g>
<!-- Node6&#45;&gt;Node8 -->
<g id="edge7" class="edge"><title>Node6&#45;&gt;Node8</title>
<path fill="none" stroke="midnightblue" d="M1297.25,-58.3257C1292.46,-57.5197 1287.62,-56.7259 1283,-56 1177.95,-39.4811 1052.94,-22.6007 996.005,-15.0647"/>
<polygon fill="midnightblue" stroke="midnightblue" points="996.241,-11.5656 985.869,-13.7267 995.325,-18.5054 996.241,-11.5656"/>
</g>
<!-- Node6&#45;&gt;Node9 -->
<g id="edge8" class="edge"><title>Node6&#45;&gt;Node9</title>
<path fill="none" stroke="midnightblue" d="M1345.6,-56.324C1355.46,-48.2631 1370.35,-36.0765 1382.22,-26.3695"/>
<polygon fill="midnightblue" stroke="midnightblue" points="1384.68,-28.8752 1390.2,-19.8339 1380.25,-23.4575 1384.68,-28.8752"/>
</g>
<!-- Node10&#45;&gt;Node4 -->
<g id="edge16" class="edge"><title>Node10&#45;&gt;Node4</title>
<path fill="none" stroke="midnightblue" d="M781.905,-224.444C753.012,-215.32 707.075,-200.813 674.895,-190.651"/>
<polygon fill="midnightblue" stroke="midnightblue" points="675.559,-187.19 664.969,-187.516 673.451,-193.865 675.559,-187.19"/>
</g>
<!-- Node10&#45;&gt;Node7 -->
<g id="edge17" class="edge"><title>Node10&#45;&gt;Node7</title>
<path fill="none" stroke="midnightblue" d="M806.309,-224.237C798.69,-197.941 778.795,-117.719 799,-56 802.49,-45.3397 809.573,-35.1174 816.286,-27.1175"/>
<polygon fill="midnightblue" stroke="midnightblue" points="818.904,-29.4395 822.98,-19.66 813.695,-24.7633 818.904,-29.4395"/>
</g>
<!-- Node10&#45;&gt;Node8 -->
<g id="edge18" class="edge"><title>Node10&#45;&gt;Node8</title>
<path fill="none" stroke="midnightblue" d="M813.04,-224.306C825.715,-197.537 866.736,-114.623 915,-56 923.956,-45.1216 935.577,-34.5013 945.361,-26.3124"/>
<polygon fill="midnightblue" stroke="midnightblue" points="947.823,-28.8214 953.373,-19.7965 943.406,-23.3905 947.823,-28.8214"/>
</g>
<!-- Node11&#45;&gt;Node4 -->
<g id="edge20" class="edge"><title>Node11&#45;&gt;Node4</title>
<path fill="none" stroke="midnightblue" d="M171.63,-225.141C174.459,-224.738 177.266,-224.354 180,-224 331.853,-204.356 513.022,-188.905 594.511,-182.377"/>
<polygon fill="midnightblue" stroke="midnightblue" points="595.182,-185.835 604.873,-181.553 594.627,-178.857 595.182,-185.835"/>
</g>
<!-- Node11&#45;&gt;Node7 -->
<g id="edge21" class="edge"><title>Node11&#45;&gt;Node7</title>
<path fill="none" stroke="midnightblue" d="M123.872,-224.111C123.981,-194.486 128.747,-98.5865 184,-56 232.542,-18.5857 665.914,-12.2646 795.537,-11.2089"/>
<polygon fill="midnightblue" stroke="midnightblue" points="795.76,-14.7074 805.733,-11.1318 795.707,-7.70761 795.76,-14.7074"/>
</g>
<!-- Node11&#45;&gt;Node8 -->
<g id="edge22" class="edge"><title>Node11&#45;&gt;Node8</title>
<path fill="none" stroke="midnightblue" d="M135.791,-224.283C164.641,-203.202 241.509,-148.51 311,-112 532.73,4.49656 617.508,-42.1232 867,-20 889.544,-18.0009 914.998,-15.6609 934.313,-13.868"/>
<polygon fill="midnightblue" stroke="midnightblue" points="934.722,-17.3451 944.355,-12.9339 934.074,-10.3752 934.722,-17.3451"/>
</g>
<!-- Node12&#45;&gt;Node5 -->
<g id="edge24" class="edge"><title>Node12&#45;&gt;Node5</title>
<path fill="none" stroke="midnightblue" d="M1589.99,-168.444C1528.82,-157.542 1424.54,-138.957 1370.23,-129.278"/>
<polygon fill="midnightblue" stroke="midnightblue" points="1370.52,-125.775 1360.06,-127.466 1369.29,-132.667 1370.52,-125.775"/>
</g>
<!-- Node12&#45;&gt;Node7 -->
<g id="edge25" class="edge"><title>Node12&#45;&gt;Node7</title>
<path fill="none" stroke="midnightblue" d="M1627.08,-168.206C1597.4,-144.892 1511.94,-81.5459 1429,-56 1218.61,8.79661 1154.43,-37.5816 935,-20 912.856,-18.2258 888.051,-16.0637 868.332,-14.3033"/>
<polygon fill="midnightblue" stroke="midnightblue" points="868.512,-10.8054 858.239,-13.3977 867.886,-17.7774 868.512,-10.8054"/>
</g>
<!-- Node12&#45;&gt;Node8 -->
<g id="edge26" class="edge"><title>Node12&#45;&gt;Node8</title>
<path fill="none" stroke="midnightblue" d="M1642.02,-168.254C1651.53,-146.13 1672.45,-87.47 1643,-56 1620.58,-32.0447 1124.99,-15.7378 995.649,-11.8797"/>
<polygon fill="midnightblue" stroke="midnightblue" points="995.726,-8.38053 985.628,-11.5839 995.52,-15.3775 995.726,-8.38053"/>
</g>
<!-- Node13&#45;&gt;Node4 -->
<g id="edge28" class="edge"><title>Node13&#45;&gt;Node4</title>
<path fill="none" stroke="midnightblue" d="M409.099,-224.444C459.971,-214.344 544.063,-197.649 594.924,-187.552"/>
<polygon fill="midnightblue" stroke="midnightblue" points="595.815,-190.943 604.942,-185.563 594.452,-184.077 595.815,-190.943"/>
</g>
<!-- Node13&#45;&gt;Node7 -->
<g id="edge29" class="edge"><title>Node13&#45;&gt;Node7</title>
<path fill="none" stroke="midnightblue" d="M364.689,-224.316C360.859,-195.337 352.912,-101.243 403,-56 431.921,-29.8765 697.465,-16.4832 795.691,-12.3901"/>
<polygon fill="midnightblue" stroke="midnightblue" points="795.894,-15.8848 805.743,-11.9795 795.608,-8.89063 795.894,-15.8848"/>
</g>
<!-- Node13&#45;&gt;Node8 -->
<g id="edge30" class="edge"><title>Node13&#45;&gt;Node8</title>
<path fill="none" stroke="midnightblue" d="M373.059,-224.146C397.883,-193.782 484.979,-93.6756 583,-56 615.578,-43.4783 849.7,-21.3977 934.465,-13.7212"/>
<polygon fill="midnightblue" stroke="midnightblue" points="934.848,-17.2009 944.494,-12.8171 934.22,-10.2291 934.848,-17.2009"/>
</g>
<!-- Node14&#45;&gt;Node4 -->
<g id="edge32" class="edge"><title>Node14&#45;&gt;Node4</title>
<path fill="none" stroke="midnightblue" d="M1098.95,-225.264C1095.93,-224.815 1092.92,-224.388 1090,-224 940.561,-204.13 762.259,-188.842 681.533,-182.373"/>
<polygon fill="midnightblue" stroke="midnightblue" points="681.507,-178.86 671.261,-181.556 680.952,-185.838 681.507,-178.86"/>
</g>
<!-- Node14&#45;&gt;Node7 -->
<g id="edge33" class="edge"><title>Node14&#45;&gt;Node7</title>
<path fill="none" stroke="midnightblue" d="M1127.59,-224.471C1111.34,-215.841 1085.94,-201.832 1065,-188 1059.44,-184.329 906.476,-67.7747 851.468,-25.8431"/>
<polygon fill="midnightblue" stroke="midnightblue" points="853.309,-22.8455 843.235,-19.5663 849.066,-28.4124 853.309,-22.8455"/>
</g>
<!-- Node14&#45;&gt;Node8 -->
<g id="edge34" class="edge"><title>Node14&#45;&gt;Node8</title>
<path fill="none" stroke="midnightblue" d="M1098.9,-225.198C1074.74,-218.89 1046.09,-207.681 1027,-188 1024.11,-185.018 986.394,-74.2127 971.24,-29.464"/>
<polygon fill="midnightblue" stroke="midnightblue" points="974.504,-28.1907 967.984,-19.8398 967.874,-30.4341 974.504,-28.1907"/>
</g>
<!-- Node15&#45;&gt;Node5 -->
<g id="edge36" class="edge"><title>Node15&#45;&gt;Node5</title>
<path fill="none" stroke="midnightblue" d="M1470.49,-168.444C1443.32,-159.332 1400.16,-144.854 1369.86,-134.694"/>
<polygon fill="midnightblue" stroke="midnightblue" points="1370.72,-131.289 1360.13,-131.428 1368.49,-137.926 1370.72,-131.289"/>
</g>
<!-- Node15&#45;&gt;Node7 -->
<g id="edge37" class="edge"><title>Node15&#45;&gt;Node7</title>
<path fill="none" stroke="midnightblue" d="M1492.25,-168.264C1481.78,-145.094 1449.75,-82.0746 1401,-56 1309.41,-7.01386 1038.51,-28.5206 935,-20 912.86,-18.1776 888.055,-16.0139 868.336,-14.2647"/>
<polygon fill="midnightblue" stroke="midnightblue" points="868.512,-10.7667 858.241,-13.3662 867.892,-17.7391 868.512,-10.7667"/>
</g>
<!-- Node15&#45;&gt;Node8 -->
<g id="edge38" class="edge"><title>Node15&#45;&gt;Node8</title>
<path fill="none" stroke="midnightblue" d="M1499.03,-168.214C1506.08,-145.999 1520.8,-87.1407 1491,-56 1456.66,-20.1081 1103.22,-12.7342 995.801,-11.3175"/>
<polygon fill="midnightblue" stroke="midnightblue" points="995.669,-7.81572 985.626,-11.1917 995.582,-14.8152 995.669,-7.81572"/>
</g>
<!-- Node15&#45;&gt;Node9 -->
<g id="edge39" class="edge"><title>Node15&#45;&gt;Node9</title>
<path fill="none" stroke="midnightblue" d="M1498.43,-168.196C1503.74,-146.923 1514.18,-91.8351 1491,-56 1478.01,-35.9239 1453.18,-24.4518 1432.89,-18.1222"/>
<polygon fill="midnightblue" stroke="midnightblue" points="1433.65,-14.6989 1423.07,-15.3377 1431.74,-21.4333 1433.65,-14.6989"/>
</g>
<!-- Node16&#45;&gt;Node5 -->
<g id="edge41" class="edge"><title>Node16&#45;&gt;Node5</title>
<path fill="none" stroke="midnightblue" d="M1228.12,-168.444C1249.02,-159.557 1281.93,-145.563 1305.72,-135.451"/>
<polygon fill="midnightblue" stroke="midnightblue" points="1307.14,-138.65 1314.97,-131.516 1304.4,-132.208 1307.14,-138.65"/>
</g>
<!-- Node16&#45;&gt;Node8 -->
<g id="edge42" class="edge"><title>Node16&#45;&gt;Node8</title>
<path fill="none" stroke="midnightblue" d="M1205.06,-168.435C1197,-146.226 1172.31,-86.4011 1131,-56 1090.57,-26.2489 1031.66,-16.1664 995.968,-12.7501"/>
<polygon fill="midnightblue" stroke="midnightblue" points="995.941,-9.23571 985.684,-11.8895 995.357,-16.2113 995.941,-9.23571"/>
</g>
<!-- Node17&#45;&gt;Node5 -->
<g id="edge44" class="edge"><title>Node17&#45;&gt;Node5</title>
<path fill="none" stroke="midnightblue" d="M1302.44,-168.083C1307.95,-160.455 1316.03,-149.264 1322.76,-139.941"/>
<polygon fill="midnightblue" stroke="midnightblue" points="1325.66,-141.907 1328.68,-131.751 1319.99,-137.809 1325.66,-141.907"/>
</g>
<!-- Node17&#45;&gt;Node7 -->
<g id="edge45" class="edge"><title>Node17&#45;&gt;Node7</title>
<path fill="none" stroke="midnightblue" d="M1284.87,-168.31C1255.41,-145.799 1172.27,-85.3088 1093,-56 1052.33,-40.9648 929.939,-23.6605 868.301,-15.5899"/>
<polygon fill="midnightblue" stroke="midnightblue" points="868.609,-12.1005 858.242,-14.2841 867.708,-19.0423 868.609,-12.1005"/>
</g>
<!-- Node17&#45;&gt;Node8 -->
<g id="edge46" class="edge"><title>Node17&#45;&gt;Node8</title>
<path fill="none" stroke="midnightblue" d="M1292.35,-168.222C1282.41,-145.501 1252.51,-84.5458 1207,-56 1172.14,-34.1334 1052.77,-19.6994 995.773,-13.8903"/>
<polygon fill="midnightblue" stroke="midnightblue" points="995.866,-10.3825 985.569,-12.875 995.173,-17.3481 995.866,-10.3825"/>
</g>
<!-- Node18&#45;&gt;Node5 -->
<g id="edge48" class="edge"><title>Node18&#45;&gt;Node5</title>
<path fill="none" stroke="midnightblue" d="M1374.24,-168.083C1367.46,-160.298 1357.46,-148.801 1349.24,-139.367"/>
<polygon fill="midnightblue" stroke="midnightblue" points="1351.82,-136.996 1342.62,-131.751 1346.54,-141.592 1351.82,-136.996"/>
</g>
<!-- Node18&#45;&gt;Node7 -->
<g id="edge49" class="edge"><title>Node18&#45;&gt;Node7</title>
<path fill="none" stroke="midnightblue" d="M1385.39,-168.261C1393.33,-146.155 1410.33,-87.5324 1381,-56 1347.14,-19.5977 984.542,-24.1639 935,-20 912.863,-18.1395 888.058,-15.9745 868.338,-14.2342"/>
<polygon fill="midnightblue" stroke="midnightblue" points="868.513,-10.7361 858.243,-13.3413 867.896,-17.7089 868.513,-10.7361"/>
</g>
<!-- Node18&#45;&gt;Node8 -->
<g id="edge50" class="edge"><title>Node18&#45;&gt;Node8</title>
<path fill="none" stroke="midnightblue" d="M1385.34,-168.308C1393.16,-146.313 1409.9,-87.9286 1381,-56 1355.18,-27.4742 1087.18,-15.3431 995.532,-12.0079"/>
<polygon fill="midnightblue" stroke="midnightblue" points="995.619,-8.50889 985.502,-11.6526 995.372,-15.5045 995.619,-8.50889"/>
</g>
<!-- Node19&#45;&gt;Node4 -->
<g id="edge52" class="edge"><title>Node19&#45;&gt;Node4</title>
<path fill="none" stroke="midnightblue" d="M962.842,-224.681C884.999,-213.734 750.017,-194.752 681.134,-185.066"/>
<polygon fill="midnightblue" stroke="midnightblue" points="681.455,-181.577 671.065,-183.65 680.481,-188.508 681.455,-181.577"/>
</g>
<!-- Node19&#45;&gt;Node7 -->
<g id="edge53" class="edge"><title>Node19&#45;&gt;Node7</title>
<path fill="none" stroke="midnightblue" d="M1013.25,-224.207C1004.42,-215.259 990.502,-200.908 979,-188 927.746,-130.482 870.284,-59.1668 845.06,-27.4905"/>
<polygon fill="midnightblue" stroke="midnightblue" points="847.793,-25.3042 838.832,-19.6516 842.312,-29.6586 847.793,-25.3042"/>
</g>
<!-- Node19&#45;&gt;Node8 -->
<g id="edge54" class="edge"><title>Node19&#45;&gt;Node8</title>
<path fill="none" stroke="midnightblue" d="M1013.42,-224.18C1005.67,-215.659 994.659,-202.014 989,-188 967.085,-133.726 964.439,-63.2671 964.561,-29.992"/>
<polygon fill="midnightblue" stroke="midnightblue" points="968.063,-29.9051 964.693,-19.8605 961.063,-29.8141 968.063,-29.9051"/>
</g>
<!-- Node20&#45;&gt;Node4 -->
<g id="edge56" class="edge"><title>Node20&#45;&gt;Node4</title>
<path fill="none" stroke="midnightblue" d="M58.7848,-225.488C61.5512,-224.929 64.3209,-224.42 67,-224 262.531,-193.327 499.182,-183.148 594.813,-180.137"/>
<polygon fill="midnightblue" stroke="midnightblue" points="595.075,-183.63 604.964,-179.827 594.862,-176.633 595.075,-183.63"/>
</g>
<!-- Node20&#45;&gt;Node7 -->
<g id="edge57" class="edge"><title>Node20&#45;&gt;Node7</title>
<path fill="none" stroke="midnightblue" d="M36.5429,-224.172C44.144,-215.196 56.1295,-200.824 66,-188 110.087,-130.721 97.8108,-91.0944 161,-56 216.596,-25.1229 663.583,-14.2085 795.486,-11.6424"/>
<polygon fill="midnightblue" stroke="midnightblue" points="795.916,-15.135 805.847,-11.4455 795.783,-8.13624 795.916,-15.135"/>
</g>
<!-- Node20&#45;&gt;Node8 -->
<g id="edge58" class="edge"><title>Node20&#45;&gt;Node8</title>
<path fill="none" stroke="midnightblue" d="M31.7723,-224.09C36.5469,-210.165 47.6199,-183.265 66,-168 183.21,-70.657 240.801,-86.8776 390,-56 598.191,-12.9137 655.137,-37.7221 867,-20 889.554,-18.1134 915.007,-15.7694 934.32,-13.9465"/>
<polygon fill="midnightblue" stroke="midnightblue" points="934.736,-17.4229 944.36,-12.9937 934.074,-10.4542 934.736,-17.4229"/>
</g>
<!-- Node21&#45;&gt;Node4 -->
<g id="edge60" class="edge"><title>Node21&#45;&gt;Node4</title>
<path fill="none" stroke="midnightblue" d="M298.811,-225.277C301.919,-224.844 304.999,-224.416 308,-224 410.813,-209.761 531.696,-193.365 594.756,-184.838"/>
<polygon fill="midnightblue" stroke="midnightblue" points="595.296,-188.297 604.737,-183.489 594.358,-181.36 595.296,-188.297"/>
</g>
<!-- Node21&#45;&gt;Node7 -->
<g id="edge61" class="edge"><title>Node21&#45;&gt;Node7</title>
<path fill="none" stroke="midnightblue" d="M249.57,-224.268C270.666,-191.488 346.368,-76.6002 384,-56 454.645,-17.3283 701.818,-11.7565 795.569,-11.0543"/>
<polygon fill="midnightblue" stroke="midnightblue" points="795.727,-14.5535 805.705,-10.9932 795.684,-7.55366 795.727,-14.5535"/>
</g>
<!-- Node21&#45;&gt;Node8 -->
<g id="edge62" class="edge"><title>Node21&#45;&gt;Node8</title>
<path fill="none" stroke="midnightblue" d="M245.589,-224.245C248.506,-210.535 255.948,-183.921 272,-168 363.076,-77.6701 413.769,-87.9544 538,-56 557.203,-51.0606 839.525,-23.2393 934.264,-13.99"/>
<polygon fill="midnightblue" stroke="midnightblue" points="934.743,-17.46 944.356,-13.0058 934.064,-10.4931 934.743,-17.46"/>
</g>
<!-- Node22&#45;&gt;Node4 -->
<g id="edge64" class="edge"><title>Node22&#45;&gt;Node4</title>
<path fill="none" stroke="midnightblue" d="M508.402,-224.444C534.197,-215.399 575.077,-201.064 604.018,-190.916"/>
<polygon fill="midnightblue" stroke="midnightblue" points="605.434,-194.128 613.712,-187.516 603.118,-187.523 605.434,-194.128"/>
</g>
<!-- Node22&#45;&gt;Node7 -->
<g id="edge65" class="edge"><title>Node22&#45;&gt;Node7</title>
<path fill="none" stroke="midnightblue" d="M484.231,-224.277C485.51,-195.177 493.839,-100.746 548,-56 585.079,-25.3666 727.242,-15.3536 795.288,-12.2747"/>
<polygon fill="midnightblue" stroke="midnightblue" points="795.703,-15.7603 805.545,-11.838 795.405,-8.76661 795.703,-15.7603"/>
</g>
<!-- Node22&#45;&gt;Node8 -->
<g id="edge66" class="edge"><title>Node22&#45;&gt;Node8</title>
<path fill="none" stroke="midnightblue" d="M481.671,-224.438C478.628,-211.442 474.709,-186.316 484,-168 522.124,-92.8444 558.869,-87.5806 637,-56 664.293,-44.9683 857.955,-22.7748 934.234,-14.3487"/>
<polygon fill="midnightblue" stroke="midnightblue" points="934.631,-17.8262 944.189,-13.2537 933.866,-10.8681 934.631,-17.8262"/>
</g>
<!-- Node23&#45;&gt;Node4 -->
<g id="edge68" class="edge"><title>Node23&#45;&gt;Node4</title>
<path fill="none" stroke="midnightblue" d="M593.752,-224.083C601.47,-216.22 612.905,-204.569 622.217,-195.081"/>
<polygon fill="midnightblue" stroke="midnightblue" points="624.904,-197.34 629.411,-187.751 619.908,-192.436 624.904,-197.34"/>
</g>
<!-- Node23&#45;&gt;Node7 -->
<g id="edge69" class="edge"><title>Node23&#45;&gt;Node7</title>
<path fill="none" stroke="midnightblue" d="M579.96,-224.355C564.324,-196.281 520.182,-106.576 563,-56 592.405,-21.2679 729.307,-13.3231 795.701,-11.5202"/>
<polygon fill="midnightblue" stroke="midnightblue" points="795.811,-15.0187 805.724,-11.2804 795.643,-8.02068 795.811,-15.0187"/>
</g>
<!-- Node23&#45;&gt;Node8 -->
<g id="edge70" class="edge"><title>Node23&#45;&gt;Node8</title>
<path fill="none" stroke="midnightblue" d="M585.414,-224.313C586.254,-211.583 588.745,-187.281 596,-168 616.59,-113.28 616.216,-88.2247 665,-56 687.258,-41.2974 862.182,-21.6817 934.19,-14.138"/>
<polygon fill="midnightblue" stroke="midnightblue" points="934.847,-17.5887 944.432,-13.074 934.124,-10.6262 934.847,-17.5887"/>
</g>
<!-- Node24&#45;&gt;Node4 -->
<g id="edge72" class="edge"><title>Node24&#45;&gt;Node4</title>
<path fill="none" stroke="midnightblue" d="M1206.84,-225.332C1203.85,-224.842 1200.88,-224.39 1198,-224 1006.32,-198.025 775.555,-185.289 681.289,-180.868"/>
<polygon fill="midnightblue" stroke="midnightblue" points="681.424,-177.371 671.273,-180.406 681.101,-184.363 681.424,-177.371"/>
</g>
<!-- Node24&#45;&gt;Node7 -->
<g id="edge73" class="edge"><title>Node24&#45;&gt;Node7</title>
<path fill="none" stroke="midnightblue" d="M1223.78,-224.373C1203.12,-215.779 1170.96,-201.893 1144,-188 1041.28,-135.067 1021.27,-111.664 920,-56 899.7,-44.8412 876.338,-32.9373 858.789,-24.1774"/>
<polygon fill="midnightblue" stroke="midnightblue" points="860.206,-20.9737 849.694,-19.6589 857.092,-27.2426 860.206,-20.9737"/>
</g>
<!-- Node24&#45;&gt;Node8 -->
<g id="edge74" class="edge"><title>Node24&#45;&gt;Node8</title>
<path fill="none" stroke="midnightblue" d="M1221.44,-224.414C1203.64,-216.978 1179.53,-204.769 1163,-188 1116.38,-140.709 1143.33,-99.3172 1093,-56 1065.3,-32.1563 1024.15,-20.6845 996.032,-15.3467"/>
<polygon fill="midnightblue" stroke="midnightblue" points="996.403,-11.8587 985.95,-13.5883 995.2,-18.7546 996.403,-11.8587"/>
</g>
<!-- Node25&#45;&gt;Node4 -->
<g id="edge76" class="edge"><title>Node25&#45;&gt;Node4</title>
<path fill="none" stroke="midnightblue" d="M679.744,-224.083C672.535,-216.298 661.89,-204.801 653.154,-195.367"/>
<polygon fill="midnightblue" stroke="midnightblue" points="655.465,-192.711 646.103,-187.751 650.329,-197.467 655.465,-192.711"/>
</g>
<!-- Node25&#45;&gt;Node7 -->
<g id="edge77" class="edge"><title>Node25&#45;&gt;Node7</title>
<path fill="none" stroke="midnightblue" d="M692.851,-224.419C711.679,-191.153 779.433,-71.7662 791,-56 798.486,-45.7969 807.938,-35.2941 815.88,-27.0039"/>
<polygon fill="midnightblue" stroke="midnightblue" points="818.423,-29.4095 822.918,-19.8155 813.421,-24.5124 818.423,-29.4095"/>
</g>
<!-- Node25&#45;&gt;Node8 -->
<g id="edge78" class="edge"><title>Node25&#45;&gt;Node8</title>
<path fill="none" stroke="midnightblue" d="M689.546,-224.099C692.263,-210.661 698.986,-184.966 713,-168 774.987,-92.9558 882.637,-43.199 934.86,-22.2547"/>
<polygon fill="midnightblue" stroke="midnightblue" points="936.215,-25.4829 944.239,-18.5651 933.652,-18.9687 936.215,-25.4829"/>
</g>
</g>
</svg>
