<?xml version="1.0" encoding="UTF-8" standalone="no"?>
<!DOCTYPE svg PUBLIC "-//W3C//DTD SVG 1.1//EN"
 "http://www.w3.org/Graphics/SVG/1.1/DTD/svg11.dtd">
<!-- Generated by graphviz version 2.36.0 (20140111.2315)
 -->
<!-- Title: /home/travis/build/robotology/wb&#45;toolbox/toolbox/include/base/Factory.h Pages: 1 -->
<!--zoomable 342 -->
<svg id="main" version="1.1" xmlns="http://www.w3.org/2000/svg" xmlns:xlink="http://www.w3.org/1999/xlink" xml:space="preserve" onload="init(evt)">
<style type="text/css"><![CDATA[
.edge:hover path { stroke: red; }
.edge:hover polygon { stroke: red; fill: red; }
]]></style>
<script type="text/javascript"><![CDATA[
var edges = document.getElementsByTagName('g');
if (edges && edges.length) {
  for (var i=0;i<edges.length;i++) {
    if (edges[i].id.substr(0,4)=='edge') {
      edges[i].setAttribute('class','edge');
    }
  }
}
]]></script>
        <defs>
                <circle id="rim" cx="0" cy="0" r="7"/>
                <circle id="rim2" cx="0" cy="0" r="3.5"/>
                <g id="zoomPlus">
                        <use xlink:href="#rim" fill="#404040">
                                <set attributeName="fill" to="#808080" begin="zoomplus.mouseover" end="zoomplus.mouseout"/>
                        </use>
                        <path d="M-4,0h8M0,-4v8" fill="none" stroke="white" stroke-width="1.5" pointer-events="none"/>
                </g>
                <g id="zoomMin">
                        <use xlink:href="#rim" fill="#404040">
                                <set attributeName="fill" to="#808080" begin="zoomminus.mouseover" end="zoomminus.mouseout"/>
                        </use>
                        <path d="M-4,0h8" fill="none" stroke="white" stroke-width="1.5" pointer-events="none"/>
                </g>
                <g id="dirArrow">
                        <path fill="none" stroke="white" stroke-width="1.5" d="M0,-3.0v7 M-2.5,-0.5L0,-3.0L2.5,-0.5"/>
                </g>
               <g id="resetDef">
                       <use xlink:href="#rim2" fill="#404040">
                               <set attributeName="fill" to="#808080" begin="reset.mouseover" end="reset.mouseout"/>
                       </use>
               </g>
        </defs>

<script type="text/javascript">
var viewWidth = 1609;
var viewHeight = 342;
var sectionId = 'dynsection-0';
</script>
<script xlink:href="svgpan.js"/>
<svg id="graph" class="graph">
<g id="viewport">
<title>/home/travis/build/robotology/wb&#45;toolbox/toolbox/include/base/Factory.h</title>
<!-- Node1 -->
<g id="node1" class="node"><title>Node1</title>
<polygon fill="#bfbfbf" stroke="black" points="728.5,-281 728.5,-333 843.5,-333 843.5,-281 728.5,-281"/>
<text text-anchor="start" x="736.5" y="-321" font-family="Helvetica,sans-Serif" font-size="10.00">/home/travis/build</text>
<text text-anchor="start" x="736.5" y="-310" font-family="Helvetica,sans-Serif" font-size="10.00">/robotology/wb&#45;toolbox</text>
<text text-anchor="start" x="736.5" y="-299" font-family="Helvetica,sans-Serif" font-size="10.00">/toolbox/include/base</text>
<text text-anchor="middle" x="786" y="-288" font-family="Helvetica,sans-Serif" font-size="10.00">/Factory.h</text>
</g>
<!-- Node2 -->
<g id="node2" class="node"><title>Node2</title>
<g id="a_node2"><a xlink:href="_get_limits_8h.html" target="_top" xlink:title="GetLimits.h">
<polygon fill="none" stroke="black" points="1397.5,-224.5 1397.5,-243.5 1464.5,-243.5 1464.5,-224.5 1397.5,-224.5"/>
<text text-anchor="middle" x="1431" y="-231.5" font-family="Helvetica,sans-Serif" font-size="10.00">GetLimits.h</text>
</a>
</g>
</g>
<!-- Node1&#45;&gt;Node2 -->
<g id="edge1" class="edge"><title>Node1&#45;&gt;Node2</title>
<path fill="none" stroke="midnightblue" d="M843.826,-301.578C950.66,-293.058 1186.04,-272.643 1383,-244 1384.47,-243.786 1385.96,-243.56 1387.47,-243.324"/>
<polygon fill="midnightblue" stroke="midnightblue" points="1388.2,-246.749 1397.49,-241.645 1387.05,-239.845 1388.2,-246.749"/>
</g>
<!-- Node9 -->
<g id="node9" class="node"><title>Node9</title>
<g id="a_node9"><a xlink:href="_get_measurement_8h.html" target="_top" xlink:title="GetMeasurement.h">
<polygon fill="none" stroke="black" points="1241,-224.5 1241,-243.5 1341,-243.5 1341,-224.5 1241,-224.5"/>
<text text-anchor="middle" x="1291" y="-231.5" font-family="Helvetica,sans-Serif" font-size="10.00">GetMeasurement.h</text>
</a>
</g>
</g>
<!-- Node1&#45;&gt;Node9 -->
<g id="edge14" class="edge"><title>Node1&#45;&gt;Node9</title>
<path fill="none" stroke="midnightblue" d="M843.632,-298.166C928.492,-286.587 1092.04,-264.102 1231,-244 1231.1,-243.985 1231.2,-243.971 1231.3,-243.956"/>
<polygon fill="midnightblue" stroke="midnightblue" points="1231.53,-247.461 1240.92,-242.553 1230.51,-240.534 1231.53,-247.461"/>
</g>
<!-- Node10 -->
<g id="node10" class="node"><title>Node10</title>
<g id="a_node10"><a xlink:href="_model_partitioner_8h.html" target="_top" xlink:title="ModelPartitioner.h">
<polygon fill="none" stroke="black" points="1127.5,-224.5 1127.5,-243.5 1222.5,-243.5 1222.5,-224.5 1127.5,-224.5"/>
<text text-anchor="middle" x="1175" y="-231.5" font-family="Helvetica,sans-Serif" font-size="10.00">ModelPartitioner.h</text>
</a>
</g>
</g>
<!-- Node1&#45;&gt;Node10 -->
<g id="edge18" class="edge"><title>Node1&#45;&gt;Node10</title>
<path fill="none" stroke="midnightblue" d="M843.817,-295.447C917.699,-281.962 1044.79,-258.767 1118.18,-245.37"/>
<polygon fill="midnightblue" stroke="midnightblue" points="1118.96,-248.786 1128.17,-243.547 1117.71,-241.899 1118.96,-248.786"/>
</g>
<!-- Node11 -->
<g id="node11" class="node"><title>Node11</title>
<g id="a_node11"><a xlink:href="_real_time_synchronizer_8h.html" target="_top" xlink:title="RealTimeSynchronizer.h">
<polygon fill="none" stroke="black" points="1162,-168.5 1162,-187.5 1286,-187.5 1286,-168.5 1162,-168.5"/>
<text text-anchor="middle" x="1224" y="-175.5" font-family="Helvetica,sans-Serif" font-size="10.00">RealTimeSynchronizer.h</text>
</a>
</g>
</g>
<!-- Node1&#45;&gt;Node11 -->
<g id="edge22" class="edge"><title>Node1&#45;&gt;Node11</title>
<path fill="none" stroke="midnightblue" d="M843.716,-303.936C980.717,-298.444 1316.6,-281.277 1350,-244 1374.08,-217.13 1329.27,-199.72 1286.57,-189.746"/>
<polygon fill="midnightblue" stroke="midnightblue" points="1287.19,-186.298 1276.67,-187.55 1285.67,-193.132 1287.19,-186.298"/>
</g>
<!-- Node12 -->
<g id="node12" class="node"><title>Node12</title>
<g id="a_node12"><a xlink:href="_set_low_level_p_i_d_8h.html" target="_top" xlink:title="SetLowLevelPID.h">
<polygon fill="none" stroke="black" points="638,-224.5 638,-243.5 736,-243.5 736,-224.5 638,-224.5"/>
<text text-anchor="middle" x="687" y="-231.5" font-family="Helvetica,sans-Serif" font-size="10.00">SetLowLevelPID.h</text>
</a>
</g>
</g>
<!-- Node1&#45;&gt;Node12 -->
<g id="edge26" class="edge"><title>Node1&#45;&gt;Node12</title>
<path fill="none" stroke="midnightblue" d="M751.096,-280.968C736.582,-270.559 720.23,-258.831 707.674,-249.827"/>
<polygon fill="midnightblue" stroke="midnightblue" points="709.45,-246.793 699.284,-243.81 705.37,-252.482 709.45,-246.793"/>
</g>
<!-- Node13 -->
<g id="node13" class="node"><title>Node13</title>
<g id="a_node13"><a xlink:href="_set_references_8h.html" target="_top" xlink:title="SetReferences.h">
<polygon fill="none" stroke="black" points="530,-224.5 530,-243.5 620,-243.5 620,-224.5 530,-224.5"/>
<text text-anchor="middle" x="575" y="-231.5" font-family="Helvetica,sans-Serif" font-size="10.00">SetReferences.h</text>
</a>
</g>
</g>
<!-- Node1&#45;&gt;Node13 -->
<g id="edge30" class="edge"><title>Node1&#45;&gt;Node13</title>
<path fill="none" stroke="midnightblue" d="M728.343,-286.599C690.578,-273.891 642.436,-257.692 610.263,-246.866"/>
<polygon fill="midnightblue" stroke="midnightblue" points="611.006,-243.423 600.412,-243.551 608.774,-250.058 611.006,-243.423"/>
</g>
<!-- Node14 -->
<g id="node14" class="node"><title>Node14</title>
<g id="a_node14"><a xlink:href="_simulator_synchronizer_8h.html" target="_top" xlink:title="SimulatorSynchronizer.h">
<polygon fill="none" stroke="black" points="-0.5,-168.5 -0.5,-187.5 122.5,-187.5 122.5,-168.5 -0.5,-168.5"/>
<text text-anchor="middle" x="61" y="-175.5" font-family="Helvetica,sans-Serif" font-size="10.00">SimulatorSynchronizer.h</text>
</a>
</g>
</g>
<!-- Node1&#45;&gt;Node14 -->
<g id="edge34" class="edge"><title>Node1&#45;&gt;Node14</title>
<path fill="none" stroke="midnightblue" d="M728.092,-305.126C624.122,-302.364 399.614,-290.953 217,-244 169.051,-231.672 116.536,-207.356 86.3065,-192.211"/>
<polygon fill="midnightblue" stroke="midnightblue" points="87.8098,-189.049 77.3087,-187.643 84.641,-195.291 87.8098,-189.049"/>
</g>
<!-- Node15 -->
<g id="node15" class="node"><title>Node15</title>
<g id="a_node15"><a xlink:href="_yarp_clock_8h.html" target="_top" xlink:title="YarpClock.h">
<polygon fill="none" stroke="black" points="140.5,-168.5 140.5,-187.5 211.5,-187.5 211.5,-168.5 140.5,-168.5"/>
<text text-anchor="middle" x="176" y="-175.5" font-family="Helvetica,sans-Serif" font-size="10.00">YarpClock.h</text>
</a>
</g>
</g>
<!-- Node1&#45;&gt;Node15 -->
<g id="edge39" class="edge"><title>Node1&#45;&gt;Node15</title>
<path fill="none" stroke="midnightblue" d="M728.068,-303.649C607.659,-298.062 334.543,-281.547 250,-244 225.211,-232.991 202.73,-210.669 189.215,-195.28"/>
<polygon fill="midnightblue" stroke="midnightblue" points="191.807,-192.925 182.671,-187.56 186.467,-197.452 191.807,-192.925"/>
</g>
<!-- Node16 -->
<g id="node16" class="node"><title>Node16</title>
<g id="a_node16"><a xlink:href="_yarp_read_8h.html" target="_top" xlink:title="YarpRead.h">
<polygon fill="none" stroke="black" points="316,-168.5 316,-187.5 384,-187.5 384,-168.5 316,-168.5"/>
<text text-anchor="middle" x="350" y="-175.5" font-family="Helvetica,sans-Serif" font-size="10.00">YarpRead.h</text>
</a>
</g>
</g>
<!-- Node1&#45;&gt;Node16 -->
<g id="edge42" class="edge"><title>Node1&#45;&gt;Node16</title>
<path fill="none" stroke="midnightblue" d="M728.47,-303.317C600.278,-296.748 300.049,-277.876 270,-244 251.436,-223.072 285.376,-203.465 314.62,-191.37"/>
<polygon fill="midnightblue" stroke="midnightblue" points="316.254,-194.488 324.274,-187.565 313.687,-187.975 316.254,-194.488"/>
</g>
<!-- Node17 -->
<g id="node17" class="node"><title>Node17</title>
<g id="a_node17"><a xlink:href="_yarp_write_8h.html" target="_top" xlink:title="YarpWrite.h">
<polygon fill="none" stroke="black" points="230,-168.5 230,-187.5 298,-187.5 298,-168.5 230,-168.5"/>
<text text-anchor="middle" x="264" y="-175.5" font-family="Helvetica,sans-Serif" font-size="10.00">YarpWrite.h</text>
</a>
</g>
</g>
<!-- Node1&#45;&gt;Node17 -->
<g id="edge46" class="edge"><title>Node1&#45;&gt;Node17</title>
<path fill="none" stroke="midnightblue" d="M728.441,-303.441C598.574,-297.079 291.677,-278.513 261,-244 249.996,-231.62 252.581,-212.098 256.799,-197.677"/>
<polygon fill="midnightblue" stroke="midnightblue" points="260.236,-198.44 260.145,-187.846 253.609,-196.185 260.236,-198.44"/>
</g>
<!-- Node18 -->
<g id="node18" class="node"><title>Node18</title>
<g id="a_node18"><a xlink:href="_centroidal_momentum_8h.html" target="_top" xlink:title="CentroidalMomentum.h">
<polygon fill="none" stroke="black" points="1483,-224.5 1483,-243.5 1601,-243.5 1601,-224.5 1483,-224.5"/>
<text text-anchor="middle" x="1542" y="-231.5" font-family="Helvetica,sans-Serif" font-size="10.00">CentroidalMomentum.h</text>
</a>
</g>
</g>
<!-- Node1&#45;&gt;Node18 -->
<g id="edge50" class="edge"><title>Node1&#45;&gt;Node18</title>
<path fill="none" stroke="midnightblue" d="M843.529,-301.585C960.027,-292.474 1232.41,-270.317 1472.94,-243.961"/>
<polygon fill="midnightblue" stroke="midnightblue" points="1473.37,-247.435 1482.92,-242.862 1472.6,-240.477 1473.37,-247.435"/>
</g>
<!-- Node19 -->
<g id="node19" class="node"><title>Node19</title>
<g id="a_node19"><a xlink:href="_dot_j_nu_8h.html" target="_top" xlink:title="DotJNu.h">
<polygon fill="none" stroke="black" points="836.5,-224.5 836.5,-243.5 895.5,-243.5 895.5,-224.5 836.5,-224.5"/>
<text text-anchor="middle" x="866" y="-231.5" font-family="Helvetica,sans-Serif" font-size="10.00">DotJNu.h</text>
</a>
</g>
</g>
<!-- Node1&#45;&gt;Node19 -->
<g id="edge54" class="edge"><title>Node1&#45;&gt;Node19</title>
<path fill="none" stroke="midnightblue" d="M814.43,-280.768C825.798,-270.679 838.53,-259.379 848.499,-250.532"/>
<polygon fill="midnightblue" stroke="midnightblue" points="850.977,-253.013 856.133,-243.757 846.33,-247.777 850.977,-253.013"/>
</g>
<!-- Node20 -->
<g id="node20" class="node"><title>Node20</title>
<g id="a_node20"><a xlink:href="_forward_kinematics_8h.html" target="_top" xlink:title="ForwardKinematics.h">
<polygon fill="none" stroke="black" points="402.5,-224.5 402.5,-243.5 511.5,-243.5 511.5,-224.5 402.5,-224.5"/>
<text text-anchor="middle" x="457" y="-231.5" font-family="Helvetica,sans-Serif" font-size="10.00">ForwardKinematics.h</text>
</a>
</g>
</g>
<!-- Node1&#45;&gt;Node20 -->
<g id="edge58" class="edge"><title>Node1&#45;&gt;Node20</title>
<path fill="none" stroke="midnightblue" d="M728.316,-293.551C665.426,-279.98 565.839,-258.488 506.413,-245.664"/>
<polygon fill="midnightblue" stroke="midnightblue" points="507.03,-242.216 496.517,-243.528 505.554,-249.059 507.03,-242.216"/>
</g>
<!-- Node21 -->
<g id="node21" class="node"><title>Node21</title>
<g id="a_node21"><a xlink:href="_inverse_dynamics_8h.html" target="_top" xlink:title="InverseDynamics.h">
<polygon fill="none" stroke="black" points="913.5,-224.5 913.5,-243.5 1014.5,-243.5 1014.5,-224.5 913.5,-224.5"/>
<text text-anchor="middle" x="964" y="-231.5" font-family="Helvetica,sans-Serif" font-size="10.00">InverseDynamics.h</text>
</a>
</g>
</g>
<!-- Node1&#45;&gt;Node21 -->
<g id="edge62" class="edge"><title>Node1&#45;&gt;Node21</title>
<path fill="none" stroke="midnightblue" d="M843.791,-282.948C873.413,-271.133 908.315,-257.211 932.858,-247.422"/>
<polygon fill="midnightblue" stroke="midnightblue" points="934.379,-250.583 942.371,-243.627 931.786,-244.081 934.379,-250.583"/>
</g>
<!-- Node22 -->
<g id="node22" class="node"><title>Node22</title>
<g id="a_node22"><a xlink:href="_jacobian_8h.html" target="_top" xlink:title="Jacobian.h">
<polygon fill="none" stroke="black" points="754,-224.5 754,-243.5 818,-243.5 818,-224.5 754,-224.5"/>
<text text-anchor="middle" x="786" y="-231.5" font-family="Helvetica,sans-Serif" font-size="10.00">Jacobian.h</text>
</a>
</g>
</g>
<!-- Node1&#45;&gt;Node22 -->
<g id="edge66" class="edge"><title>Node1&#45;&gt;Node22</title>
<path fill="none" stroke="midnightblue" d="M786,-280.768C786,-271.89 786,-262.074 786,-253.816"/>
<polygon fill="midnightblue" stroke="midnightblue" points="789.5,-253.757 786,-243.757 782.5,-253.757 789.5,-253.757"/>
</g>
<!-- Node23 -->
<g id="node23" class="node"><title>Node23</title>
<g id="a_node23"><a xlink:href="_mass_matrix_8h.html" target="_top" xlink:title="MassMatrix.h">
<polygon fill="none" stroke="black" points="1033,-224.5 1033,-243.5 1109,-243.5 1109,-224.5 1033,-224.5"/>
<text text-anchor="middle" x="1071" y="-231.5" font-family="Helvetica,sans-Serif" font-size="10.00">MassMatrix.h</text>
</a>
</g>
</g>
<!-- Node1&#45;&gt;Node23 -->
<g id="edge70" class="edge"><title>Node1&#45;&gt;Node23</title>
<path fill="none" stroke="midnightblue" d="M843.674,-291.632C897.846,-278.137 977.733,-258.235 1026.96,-245.972"/>
<polygon fill="midnightblue" stroke="midnightblue" points="1027.82,-249.365 1036.68,-243.551 1026.13,-242.572 1027.82,-249.365"/>
</g>
<!-- Node24 -->
<g id="node24" class="node"><title>Node24</title>
<g id="a_node24"><a xlink:href="_relative_transform_8h.html" target="_top" xlink:title="RelativeTransform.h">
<polygon fill="none" stroke="black" points="279.5,-224.5 279.5,-243.5 384.5,-243.5 384.5,-224.5 279.5,-224.5"/>
<text text-anchor="middle" x="332" y="-231.5" font-family="Helvetica,sans-Serif" font-size="10.00">RelativeTransform.h</text>
</a>
</g>
</g>
<!-- Node1&#45;&gt;Node24 -->
<g id="edge74" class="edge"><title>Node1&#45;&gt;Node24</title>
<path fill="none" stroke="midnightblue" d="M728.039,-296.936C642.5,-283.558 483.081,-258.627 394.832,-244.826"/>
<polygon fill="midnightblue" stroke="midnightblue" points="395.114,-241.328 384.693,-243.241 394.032,-248.244 395.114,-241.328"/>
</g>
<!-- Node3 -->
<g id="node3" class="node"><title>Node3</title>
<g id="a_node3"><a xlink:href="_w_b_block_8h.html" target="_top" xlink:title="WBBlock.h">
<polygon fill="none" stroke="black" points="833,-168.5 833,-187.5 899,-187.5 899,-168.5 833,-168.5"/>
<text text-anchor="middle" x="866" y="-175.5" font-family="Helvetica,sans-Serif" font-size="10.00">WBBlock.h</text>
</a>
</g>
</g>
<!-- Node2&#45;&gt;Node3 -->
<g id="edge2" class="edge"><title>Node2&#45;&gt;Node3</title>
<path fill="none" stroke="midnightblue" d="M1397.12,-229.099C1382.62,-227.464 1365.48,-225.58 1350,-224 1187.4,-207.41 993.813,-190.166 909.185,-182.753"/>
<polygon fill="midnightblue" stroke="midnightblue" points="909.442,-179.262 899.175,-181.878 908.832,-186.236 909.442,-179.262"/>
</g>
<!-- Node6 -->
<g id="node6" class="node"><title>Node6</title>
<polygon fill="none" stroke="#bfbfbf" points="1032,-0.5 1032,-19.5 1084,-19.5 1084,-0.5 1032,-0.5"/>
<text text-anchor="middle" x="1058" y="-7.5" font-family="Helvetica,sans-Serif" font-size="10.00">memory</text>
</g>
<!-- Node2&#45;&gt;Node6 -->
<g id="edge12" class="edge"><title>Node2&#45;&gt;Node6</title>
<path fill="none" stroke="midnightblue" d="M1430.35,-224.491C1427.62,-195.254 1414.31,-98.3834 1356,-56 1314.84,-26.0811 1164.18,-15.6484 1094.19,-12.3629"/>
<polygon fill="midnightblue" stroke="midnightblue" points="1094.22,-8.8609 1084.07,-11.9118 1093.91,-15.854 1094.22,-8.8609"/>
</g>
<!-- Node7 -->
<g id="node7" class="node"><title>Node7</title>
<polygon fill="none" stroke="#bfbfbf" points="619.5,-0.5 619.5,-19.5 660.5,-19.5 660.5,-0.5 619.5,-0.5"/>
<text text-anchor="middle" x="640" y="-7.5" font-family="Helvetica,sans-Serif" font-size="10.00">string</text>
</g>
<!-- Node2&#45;&gt;Node7 -->
<g id="edge13" class="edge"><title>Node2&#45;&gt;Node7</title>
<path fill="none" stroke="midnightblue" d="M1419.35,-224.368C1378.65,-194.728 1238.02,-96.7023 1105,-56 1023.3,-31.0006 761.126,-16.6706 670.871,-12.3808"/>
<polygon fill="midnightblue" stroke="midnightblue" points="670.893,-8.87814 660.74,-11.9074 670.566,-15.8705 670.893,-8.87814"/>
</g>
<!-- Node4 -->
<g id="node4" class="node"><title>Node4</title>
<g id="a_node4"><a xlink:href="_block_8h.html" target="_top" xlink:title="Block.h">
<polygon fill="none" stroke="black" points="258,-112.5 258,-131.5 308,-131.5 308,-112.5 258,-112.5"/>
<text text-anchor="middle" x="283" y="-119.5" font-family="Helvetica,sans-Serif" font-size="10.00">Block.h</text>
</a>
</g>
</g>
<!-- Node3&#45;&gt;Node4 -->
<g id="edge3" class="edge"><title>Node3&#45;&gt;Node4</title>
<path fill="none" stroke="midnightblue" d="M832.985,-173.942C731.216,-164.516 422.908,-135.959 318.22,-126.262"/>
<polygon fill="midnightblue" stroke="midnightblue" points="318.451,-122.769 308.171,-125.331 317.805,-129.739 318.451,-122.769"/>
</g>
<!-- Node3&#45;&gt;Node6 -->
<g id="edge10" class="edge"><title>Node3&#45;&gt;Node6</title>
<path fill="none" stroke="midnightblue" d="M890.394,-168.405C926.625,-154.459 994.606,-123.575 1034,-76 1045.02,-62.6941 1051.23,-43.8618 1054.55,-29.8906"/>
<polygon fill="midnightblue" stroke="midnightblue" points="1058.02,-30.432 1056.64,-19.9267 1051.17,-28.996 1058.02,-30.432"/>
</g>
<!-- Node3&#45;&gt;Node7 -->
<g id="edge11" class="edge"><title>Node3&#45;&gt;Node7</title>
<path fill="none" stroke="midnightblue" d="M861.274,-168.308C848.889,-146.314 813.293,-87.9303 768,-56 738.296,-35.0594 697.902,-23.0146 670.494,-16.7491"/>
<polygon fill="midnightblue" stroke="midnightblue" points="671.188,-13.3185 660.674,-14.6243 669.708,-20.1602 671.188,-13.3185"/>
</g>
<!-- Node5 -->
<g id="node5" class="node"><title>Node5</title>
<g id="a_node5"><a xlink:href="_parameters_8h.html" target="_top" xlink:title="Parameters.h">
<polygon fill="none" stroke="black" points="194.5,-56.5 194.5,-75.5 269.5,-75.5 269.5,-56.5 194.5,-56.5"/>
<text text-anchor="middle" x="232" y="-63.5" font-family="Helvetica,sans-Serif" font-size="10.00">Parameters.h</text>
</a>
</g>
</g>
<!-- Node4&#45;&gt;Node5 -->
<g id="edge4" class="edge"><title>Node4&#45;&gt;Node5</title>
<path fill="none" stroke="midnightblue" d="M274.578,-112.083C267.152,-104.22 256.148,-92.5688 247.188,-83.0813"/>
<polygon fill="midnightblue" stroke="midnightblue" points="249.676,-80.618 240.265,-75.7511 244.587,-85.4244 249.676,-80.618"/>
</g>
<!-- Node4&#45;&gt;Node7 -->
<g id="edge8" class="edge"><title>Node4&#45;&gt;Node7</title>
<path fill="none" stroke="midnightblue" d="M290.489,-112.122C303.179,-97.7348 330.426,-69.5713 360,-56 444.147,-17.3859 555.752,-11.2194 609.073,-10.6665"/>
<polygon fill="midnightblue" stroke="midnightblue" points="609.251,-14.1659 619.236,-10.6234 609.221,-7.16595 609.251,-14.1659"/>
</g>
<!-- Node8 -->
<g id="node8" class="node"><title>Node8</title>
<polygon fill="none" stroke="#bfbfbf" points="106,-0.5 106,-19.5 150,-19.5 150,-0.5 106,-0.5"/>
<text text-anchor="middle" x="128" y="-7.5" font-family="Helvetica,sans-Serif" font-size="10.00">vector</text>
</g>
<!-- Node4&#45;&gt;Node8 -->
<g id="edge9" class="edge"><title>Node4&#45;&gt;Node8</title>
<path fill="none" stroke="midnightblue" d="M257.671,-112.726C236.893,-105.183 207.364,-92.6741 185,-76 166.838,-62.4587 150.278,-42.2895 139.744,-28.0153"/>
<polygon fill="midnightblue" stroke="midnightblue" points="142.401,-25.7128 133.736,-19.6154 136.707,-29.7852 142.401,-25.7128"/>
</g>
<!-- Node5&#45;&gt;Node6 -->
<g id="edge5" class="edge"><title>Node5&#45;&gt;Node6</title>
<path fill="none" stroke="midnightblue" d="M269.629,-60.9101C285.745,-59.2434 304.783,-57.3867 322,-56 590.322,-34.3892 914.422,-17.9192 1021.63,-12.7255"/>
<polygon fill="midnightblue" stroke="midnightblue" points="1022.08,-16.2081 1031.9,-12.2305 1021.74,-9.21619 1022.08,-16.2081"/>
</g>
<!-- Node5&#45;&gt;Node7 -->
<g id="edge6" class="edge"><title>Node5&#45;&gt;Node7</title>
<path fill="none" stroke="midnightblue" d="M269.741,-58.2597C274.535,-57.4648 279.379,-56.6916 284,-56 404.021,-38.0376 547.523,-21.3551 609.272,-14.4057"/>
<polygon fill="midnightblue" stroke="midnightblue" points="609.939,-17.8529 619.487,-13.261 609.16,-10.8964 609.939,-17.8529"/>
</g>
<!-- Node5&#45;&gt;Node8 -->
<g id="edge7" class="edge"><title>Node5&#45;&gt;Node8</title>
<path fill="none" stroke="midnightblue" d="M215.291,-56.324C198.688,-47.7034 172.998,-34.3643 153.78,-24.3855"/>
<polygon fill="midnightblue" stroke="midnightblue" points="155.156,-21.1565 144.668,-19.6545 151.93,-27.3689 155.156,-21.1565"/>
</g>
<!-- Node9&#45;&gt;Node3 -->
<g id="edge15" class="edge"><title>Node9&#45;&gt;Node3</title>
<path fill="none" stroke="midnightblue" d="M1240.92,-225.388C1237.57,-224.909 1234.24,-224.442 1231,-224 1114.87,-208.134 977.6,-191.883 909.226,-183.958"/>
<polygon fill="midnightblue" stroke="midnightblue" points="909.589,-180.476 899.253,-182.804 908.785,-187.43 909.589,-180.476"/>
</g>
<!-- Node9&#45;&gt;Node6 -->
<g id="edge16" class="edge"><title>Node9&#45;&gt;Node6</title>
<path fill="none" stroke="midnightblue" d="M1306.28,-224.418C1318.97,-216.527 1336.58,-203.69 1347,-188 1379.69,-138.767 1379.52,-89.7334 1331,-56 1293.36,-29.8314 1160.08,-17.669 1094.71,-13.1744"/>
<polygon fill="midnightblue" stroke="midnightblue" points="1094.66,-9.66359 1084.45,-12.494 1094.19,-16.6482 1094.66,-9.66359"/>
</g>
<!-- Node9&#45;&gt;Node7 -->
<g id="edge17" class="edge"><title>Node9&#45;&gt;Node7</title>
<path fill="none" stroke="midnightblue" d="M1259.74,-224.49C1231.4,-216.38 1188.72,-203.179 1153,-188 1033.36,-137.156 1015.8,-95.6433 892,-56 814.483,-31.1771 718.899,-18.8396 670.776,-13.8279"/>
<polygon fill="midnightblue" stroke="midnightblue" points="671,-10.3329 660.699,-12.8143 670.299,-17.2977 671,-10.3329"/>
</g>
<!-- Node10&#45;&gt;Node3 -->
<g id="edge19" class="edge"><title>Node10&#45;&gt;Node3</title>
<path fill="none" stroke="midnightblue" d="M1127.4,-224.681C1067.83,-214.271 966.674,-196.594 909.231,-186.555"/>
<polygon fill="midnightblue" stroke="midnightblue" points="909.828,-183.106 899.375,-184.832 908.623,-190.002 909.828,-183.106"/>
</g>
<!-- Node10&#45;&gt;Node6 -->
<g id="edge20" class="edge"><title>Node10&#45;&gt;Node6</title>
<path fill="none" stroke="midnightblue" d="M1216.92,-224.461C1254.94,-215.985 1307.36,-202.231 1323,-188 1349.11,-164.253 1357.16,-145.48 1346,-112 1336.16,-82.4854 1330.46,-72.3703 1304,-56 1269.43,-34.6101 1153.81,-20.4351 1094.21,-14.3647"/>
<polygon fill="midnightblue" stroke="midnightblue" points="1094.41,-10.8672 1084.11,-13.3592 1093.71,-17.8327 1094.41,-10.8672"/>
</g>
<!-- Node10&#45;&gt;Node7 -->
<g id="edge21" class="edge"><title>Node10&#45;&gt;Node7</title>
<path fill="none" stroke="midnightblue" d="M1162.85,-224.493C1121.69,-196.074 982.95,-103.546 855,-56 791.728,-32.4884 713.17,-19.977 670.711,-14.4942"/>
<polygon fill="midnightblue" stroke="midnightblue" points="671.081,-11.0133 660.725,-13.2492 670.215,-17.9596 671.081,-11.0133"/>
</g>
<!-- Node11&#45;&gt;Node4 -->
<g id="edge23" class="edge"><title>Node11&#45;&gt;Node4</title>
<path fill="none" stroke="midnightblue" d="M1161.89,-173.436C981.219,-163.068 459.722,-133.141 318.583,-125.042"/>
<polygon fill="midnightblue" stroke="midnightblue" points="318.523,-121.533 308.339,-124.454 318.122,-128.521 318.523,-121.533"/>
</g>
<!-- Node11&#45;&gt;Node6 -->
<g id="edge24" class="edge"><title>Node11&#45;&gt;Node6</title>
<path fill="none" stroke="midnightblue" d="M1231.55,-168.385C1249.3,-147.061 1290.13,-91.0158 1262,-56 1241.34,-30.2893 1147.07,-18.3977 1094.21,-13.6668"/>
<polygon fill="midnightblue" stroke="midnightblue" points="1094.49,-10.1777 1084.22,-12.8141 1093.89,-17.1523 1094.49,-10.1777"/>
</g>
<!-- Node11&#45;&gt;Node7 -->
<g id="edge25" class="edge"><title>Node11&#45;&gt;Node7</title>
<path fill="none" stroke="midnightblue" d="M1216.58,-168.169C1196.31,-144.763 1137.11,-81.2094 1072,-56 998.496,-27.5404 756.946,-15.5529 670.834,-12.1135"/>
<polygon fill="midnightblue" stroke="midnightblue" points="670.792,-8.60934 660.663,-11.7185 670.52,-15.6041 670.792,-8.60934"/>
</g>
<!-- Node12&#45;&gt;Node3 -->
<g id="edge27" class="edge"><title>Node12&#45;&gt;Node3</title>
<path fill="none" stroke="midnightblue" d="M715.363,-224.444C745.738,-215.28 794.11,-200.688 827.816,-190.519"/>
<polygon fill="midnightblue" stroke="midnightblue" points="829.207,-193.756 837.77,-187.516 827.185,-187.054 829.207,-193.756"/>
</g>
<!-- Node12&#45;&gt;Node6 -->
<g id="edge28" class="edge"><title>Node12&#45;&gt;Node6</title>
<path fill="none" stroke="midnightblue" d="M697.314,-224.175C730.286,-196.309 836.847,-108.915 937,-56 964.345,-41.5526 997.366,-29.6057 1022,-21.6612"/>
<polygon fill="midnightblue" stroke="midnightblue" points="1023.18,-24.9575 1031.67,-18.6094 1021.08,-18.2822 1023.18,-24.9575"/>
</g>
<!-- Node12&#45;&gt;Node7 -->
<g id="edge29" class="edge"><title>Node12&#45;&gt;Node7</title>
<path fill="none" stroke="midnightblue" d="M684.272,-224.435C681.463,-215.428 677.074,-200.81 674,-188 660.279,-130.821 648.381,-62.2106 643.024,-29.7633"/>
<polygon fill="midnightblue" stroke="midnightblue" points="646.419,-28.8392 641.354,-19.5334 639.511,-29.9665 646.419,-28.8392"/>
</g>
<!-- Node13&#45;&gt;Node3 -->
<g id="edge31" class="edge"><title>Node13&#45;&gt;Node3</title>
<path fill="none" stroke="midnightblue" d="M620.149,-224.622C675.491,-214.352 768.595,-197.075 822.957,-186.987"/>
<polygon fill="midnightblue" stroke="midnightblue" points="823.771,-190.396 832.964,-185.13 822.494,-183.514 823.771,-190.396"/>
</g>
<!-- Node13&#45;&gt;Node6 -->
<g id="edge32" class="edge"><title>Node13&#45;&gt;Node6</title>
<path fill="none" stroke="midnightblue" d="M588.145,-224.484C631.338,-196.807 773.44,-108.177 901,-56 941.258,-39.533 989.641,-26.6429 1021.96,-18.9557"/>
<polygon fill="midnightblue" stroke="midnightblue" points="1022.91,-22.327 1031.85,-16.6447 1021.32,-15.5103 1022.91,-22.327"/>
</g>
<!-- Node13&#45;&gt;Node7 -->
<g id="edge33" class="edge"><title>Node13&#45;&gt;Node7</title>
<path fill="none" stroke="midnightblue" d="M577.548,-224.297C587.132,-191.563 621.151,-75.3752 634.535,-29.6664"/>
<polygon fill="midnightblue" stroke="midnightblue" points="637.948,-30.4643 637.399,-19.8837 631.23,-28.4973 637.948,-30.4643"/>
</g>
<!-- Node14&#45;&gt;Node4 -->
<g id="edge35" class="edge"><title>Node14&#45;&gt;Node4</title>
<path fill="none" stroke="midnightblue" d="M96.1766,-168.444C137.767,-158.327 206.56,-141.593 248.051,-131.501"/>
<polygon fill="midnightblue" stroke="midnightblue" points="249.088,-134.851 257.978,-129.086 247.434,-128.049 249.088,-134.851"/>
</g>
<!-- Node14&#45;&gt;Node6 -->
<g id="edge36" class="edge"><title>Node14&#45;&gt;Node6</title>
<path fill="none" stroke="midnightblue" d="M83.327,-168.421C118.294,-155.181 188.265,-129.474 249,-112 355.094,-81.4761 381.897,-72.8578 491,-56 689.807,-25.2817 931.261,-14.9565 1021.59,-12.0204"/>
<polygon fill="midnightblue" stroke="midnightblue" points="1021.96,-15.5106 1031.84,-11.6981 1021.74,-8.51407 1021.96,-15.5106"/>
</g>
<!-- Node14&#45;&gt;Node7 -->
<g id="edge37" class="edge"><title>Node14&#45;&gt;Node7</title>
<path fill="none" stroke="midnightblue" d="M64.8407,-168.304C75.5495,-145.235 108.194,-82.4413 157,-56 235.529,-13.4555 515.488,-10.5189 609.191,-10.7628"/>
<polygon fill="midnightblue" stroke="midnightblue" points="609.407,-14.2636 619.422,-10.8045 609.436,-7.26369 609.407,-14.2636"/>
</g>
<!-- Node14&#45;&gt;Node8 -->
<g id="edge38" class="edge"><title>Node14&#45;&gt;Node8</title>
<path fill="none" stroke="midnightblue" d="M55.5163,-168.337C43.0132,-147.374 15.1792,-92.9248 38,-56 50.5708,-35.66 75.4275,-24.2062 95.8387,-17.9508"/>
<polygon fill="midnightblue" stroke="midnightblue" points="97.023,-21.2545 105.723,-15.2076 95.1509,-14.5094 97.023,-21.2545"/>
</g>
<!-- Node15&#45;&gt;Node4 -->
<g id="edge40" class="edge"><title>Node15&#45;&gt;Node4</title>
<path fill="none" stroke="midnightblue" d="M193.191,-168.324C210.351,-159.664 236.946,-146.242 256.747,-136.249"/>
<polygon fill="midnightblue" stroke="midnightblue" points="258.501,-139.285 265.851,-131.655 255.347,-133.035 258.501,-139.285"/>
</g>
<!-- Node15&#45;&gt;Node7 -->
<g id="edge41" class="edge"><title>Node15&#45;&gt;Node7</title>
<path fill="none" stroke="midnightblue" d="M172.137,-168.304C163.021,-146.298 143.027,-87.8924 172,-56 201.424,-23.6113 509.924,-13.9089 609.323,-11.6121"/>
<polygon fill="midnightblue" stroke="midnightblue" points="609.413,-15.1111 619.332,-11.3898 609.257,-8.11283 609.413,-15.1111"/>
</g>
<!-- Node16&#45;&gt;Node4 -->
<g id="edge43" class="edge"><title>Node16&#45;&gt;Node4</title>
<path fill="none" stroke="midnightblue" d="M339.235,-168.324C329.234,-160.263 314.113,-148.077 302.07,-138.369"/>
<polygon fill="midnightblue" stroke="midnightblue" points="303.943,-135.384 293.961,-131.834 299.55,-140.834 303.943,-135.384"/>
</g>
<!-- Node16&#45;&gt;Node6 -->
<g id="edge44" class="edge"><title>Node16&#45;&gt;Node6</title>
<path fill="none" stroke="midnightblue" d="M364.956,-168.441C405.463,-145.71 521.297,-83.683 626,-56 768.962,-18.2013 946.399,-11.9064 1021.6,-11.03"/>
<polygon fill="midnightblue" stroke="midnightblue" points="1021.97,-14.5269 1031.94,-10.9369 1021.91,-7.52715 1021.97,-14.5269"/>
</g>
<!-- Node16&#45;&gt;Node7 -->
<g id="edge45" class="edge"><title>Node16&#45;&gt;Node7</title>
<path fill="none" stroke="midnightblue" d="M350.664,-168.341C352.876,-145.905 362.05,-85.5799 398,-56 429.92,-29.7358 551.798,-17.4686 609.442,-13.0424"/>
<polygon fill="midnightblue" stroke="midnightblue" points="609.707,-16.5324 619.422,-12.3055 609.192,-9.55144 609.707,-16.5324"/>
</g>
<!-- Node17&#45;&gt;Node4 -->
<g id="edge47" class="edge"><title>Node17&#45;&gt;Node4</title>
<path fill="none" stroke="midnightblue" d="M267.137,-168.083C269.683,-160.849 273.356,-150.409 276.527,-141.397"/>
<polygon fill="midnightblue" stroke="midnightblue" points="279.903,-142.346 279.921,-131.751 273.3,-140.023 279.903,-142.346"/>
</g>
<!-- Node17&#45;&gt;Node6 -->
<g id="edge48" class="edge"><title>Node17&#45;&gt;Node6</title>
<path fill="none" stroke="midnightblue" d="M280.169,-168.392C323.944,-145.54 449.012,-83.2375 561,-56 729.757,-14.9551 938.972,-10.5982 1021.8,-10.6395"/>
<polygon fill="midnightblue" stroke="midnightblue" points="1021.94,-14.1398 1031.95,-10.6676 1021.96,-7.13986 1021.94,-14.1398"/>
</g>
<!-- Node17&#45;&gt;Node7 -->
<g id="edge49" class="edge"><title>Node17&#45;&gt;Node7</title>
<path fill="none" stroke="midnightblue" d="M250.847,-168.442C220.517,-147.712 150.806,-93.7424 185,-56 213.478,-24.5665 511.573,-14.2529 609.221,-11.7043"/>
<polygon fill="midnightblue" stroke="midnightblue" points="609.424,-15.2004 619.333,-11.4497 609.248,-8.2026 609.424,-15.2004"/>
</g>
<!-- Node18&#45;&gt;Node3 -->
<g id="edge51" class="edge"><title>Node18&#45;&gt;Node3</title>
<path fill="none" stroke="midnightblue" d="M1482.93,-225.075C1479.57,-224.693 1476.24,-224.332 1473,-224 1262.07,-202.442 1008.9,-187.033 909.276,-181.378"/>
<polygon fill="midnightblue" stroke="midnightblue" points="909.467,-177.883 899.286,-180.814 909.073,-184.872 909.467,-177.883"/>
</g>
<!-- Node18&#45;&gt;Node6 -->
<g id="edge52" class="edge"><title>Node18&#45;&gt;Node6</title>
<path fill="none" stroke="midnightblue" d="M1544.05,-224.394C1550.31,-195.662 1566.01,-102.258 1518,-56 1487.69,-26.796 1198.04,-15.2343 1094.54,-12.0136"/>
<polygon fill="midnightblue" stroke="midnightblue" points="1094.37,-8.50699 1084.27,-11.7026 1094.16,-15.5038 1094.37,-8.50699"/>
</g>
<!-- Node18&#45;&gt;Node7 -->
<g id="edge53" class="edge"><title>Node18&#45;&gt;Node7</title>
<path fill="none" stroke="midnightblue" d="M1529.83,-224.414C1510.7,-211.166 1472.14,-185.448 1437,-168 1312.88,-106.371 1280.99,-87.3306 1146,-56 969.59,-15.0571 750.627,-10.8436 670.876,-10.7792"/>
<polygon fill="midnightblue" stroke="midnightblue" points="670.561,-7.27958 660.566,-10.7943 670.571,-14.2796 670.561,-7.27958"/>
</g>
<!-- Node19&#45;&gt;Node3 -->
<g id="edge55" class="edge"><title>Node19&#45;&gt;Node3</title>
<path fill="none" stroke="midnightblue" d="M866,-224.083C866,-217.006 866,-206.861 866,-197.986"/>
<polygon fill="midnightblue" stroke="midnightblue" points="869.5,-197.751 866,-187.751 862.5,-197.751 869.5,-197.751"/>
</g>
<!-- Node19&#45;&gt;Node6 -->
<g id="edge56" class="edge"><title>Node19&#45;&gt;Node6</title>
<path fill="none" stroke="midnightblue" d="M884.842,-224.397C925.086,-204.825 1018.64,-152.647 1054,-76 1060.66,-61.5628 1061.21,-43.3732 1060.35,-29.91"/>
<polygon fill="midnightblue" stroke="midnightblue" points="1063.83,-29.5245 1059.41,-19.8987 1056.86,-30.184 1063.83,-29.5245"/>
</g>
<!-- Node19&#45;&gt;Node7 -->
<g id="edge57" class="edge"><title>Node19&#45;&gt;Node7</title>
<path fill="none" stroke="midnightblue" d="M857.566,-224.436C832.178,-198.698 754.152,-119.872 688,-56 677.704,-46.0586 665.988,-35.0688 656.708,-26.4383"/>
<polygon fill="midnightblue" stroke="midnightblue" points="658.99,-23.7808 649.278,-19.547 654.23,-28.9133 658.99,-23.7808"/>
</g>
<!-- Node20&#45;&gt;Node3 -->
<g id="edge59" class="edge"><title>Node20&#45;&gt;Node3</title>
<path fill="none" stroke="midnightblue" d="M511.808,-225.256C514.917,-224.828 517.998,-224.407 521,-224 629.519,-209.293 757.367,-192.847 822.738,-184.502"/>
<polygon fill="midnightblue" stroke="midnightblue" points="823.204,-187.971 832.681,-183.233 822.318,-181.027 823.204,-187.971"/>
</g>
<!-- Node20&#45;&gt;Node6 -->
<g id="edge60" class="edge"><title>Node20&#45;&gt;Node6</title>
<path fill="none" stroke="midnightblue" d="M473.258,-224.37C526.644,-196.342 701.978,-106.761 856,-56 912.661,-37.3262 980.802,-23.945 1021.69,-16.8468"/>
<polygon fill="midnightblue" stroke="midnightblue" points="1022.46,-20.2672 1031.73,-15.1366 1021.28,-13.3667 1022.46,-20.2672"/>
</g>
<!-- Node20&#45;&gt;Node7 -->
<g id="edge61" class="edge"><title>Node20&#45;&gt;Node7</title>
<path fill="none" stroke="midnightblue" d="M464.174,-224.297C491.557,-191.079 589.784,-71.9179 626.247,-27.6839"/>
<polygon fill="midnightblue" stroke="midnightblue" points="629.017,-29.8263 632.677,-19.8837 623.615,-25.3738 629.017,-29.8263"/>
</g>
<!-- Node21&#45;&gt;Node3 -->
<g id="edge63" class="edge"><title>Node21&#45;&gt;Node3</title>
<path fill="none" stroke="midnightblue" d="M948.255,-224.324C932.681,-215.743 908.623,-202.486 890.541,-192.522"/>
<polygon fill="midnightblue" stroke="midnightblue" points="892.154,-189.415 881.706,-187.655 888.776,-195.546 892.154,-189.415"/>
</g>
<!-- Node21&#45;&gt;Node6 -->
<g id="edge64" class="edge"><title>Node21&#45;&gt;Node6</title>
<path fill="none" stroke="midnightblue" d="M988.6,-224.431C1037.03,-206.053 1143.69,-157.75 1186,-76 1206.09,-37.1896 1138.61,-21.0506 1094.1,-14.7335"/>
<polygon fill="midnightblue" stroke="midnightblue" points="1094.53,-11.2611 1084.16,-13.43 1093.62,-18.2016 1094.53,-11.2611"/>
</g>
<!-- Node21&#45;&gt;Node7 -->
<g id="edge65" class="edge"><title>Node21&#45;&gt;Node7</title>
<path fill="none" stroke="midnightblue" d="M958.396,-224.4C939.218,-195.689 873.018,-102.343 794,-56 754.928,-33.0851 703.355,-21.1245 670.928,-15.4476"/>
<polygon fill="midnightblue" stroke="midnightblue" points="671.148,-11.9366 660.711,-13.7566 670.005,-18.8426 671.148,-11.9366"/>
</g>
<!-- Node22&#45;&gt;Node3 -->
<g id="edge67" class="edge"><title>Node22&#45;&gt;Node3</title>
<path fill="none" stroke="midnightblue" d="M798.853,-224.324C811.216,-215.979 830.13,-203.212 844.737,-193.352"/>
<polygon fill="midnightblue" stroke="midnightblue" points="846.848,-196.15 853.179,-187.655 842.932,-190.348 846.848,-196.15"/>
</g>
<!-- Node22&#45;&gt;Node6 -->
<g id="edge68" class="edge"><title>Node22&#45;&gt;Node6</title>
<path fill="none" stroke="midnightblue" d="M789.606,-224.192C795.374,-210.875 807.706,-185.335 824,-168 887.03,-100.941 983.784,-47.6587 1030.66,-24.1171"/>
<polygon fill="midnightblue" stroke="midnightblue" points="1032.47,-27.1266 1039.88,-19.5508 1029.36,-20.8542 1032.47,-27.1266"/>
</g>
<!-- Node22&#45;&gt;Node7 -->
<g id="edge69" class="edge"><title>Node22&#45;&gt;Node7</title>
<path fill="none" stroke="midnightblue" d="M779.005,-224.196C771.97,-215.239 760.918,-200.881 752,-188 712.416,-130.831 669.478,-60.3126 650.282,-28.2839"/>
<polygon fill="midnightblue" stroke="midnightblue" points="653.25,-26.4271 645.117,-19.637 647.24,-30.0169 653.25,-26.4271"/>
</g>
<!-- Node23&#45;&gt;Node3 -->
<g id="edge71" class="edge"><title>Node23&#45;&gt;Node3</title>
<path fill="none" stroke="midnightblue" d="M1038.52,-224.444C1003.28,-215.162 946.896,-200.309 908.241,-190.127"/>
<polygon fill="midnightblue" stroke="midnightblue" points="908.893,-186.679 898.331,-187.516 907.109,-193.448 908.893,-186.679"/>
</g>
<!-- Node23&#45;&gt;Node6 -->
<g id="edge72" class="edge"><title>Node23&#45;&gt;Node6</title>
<path fill="none" stroke="midnightblue" d="M1109.03,-225.64C1172.32,-213.348 1292.53,-189.8 1294,-188 1316.63,-160.344 1390.24,-174.769 1281,-56 1256.32,-29.1682 1151.28,-17.6338 1094.6,-13.2871"/>
<polygon fill="midnightblue" stroke="midnightblue" points="1094.51,-9.77118 1084.28,-12.5341 1094,-16.7526 1094.51,-9.77118"/>
</g>
<!-- Node23&#45;&gt;Node7 -->
<g id="edge73" class="edge"><title>Node23&#45;&gt;Node7</title>
<path fill="none" stroke="midnightblue" d="M1061.86,-224.493C1030.83,-196.077 925.643,-103.555 822,-56 771.784,-32.9591 708.144,-20.689 670.96,-15.0362"/>
<polygon fill="midnightblue" stroke="midnightblue" points="671.159,-11.5285 660.76,-13.5517 670.151,-18.4555 671.159,-11.5285"/>
</g>
<!-- Node24&#45;&gt;Node3 -->
<g id="edge75" class="edge"><title>Node24&#45;&gt;Node3</title>
<path fill="none" stroke="midnightblue" d="M384.549,-225.071C387.406,-224.695 390.237,-224.335 393,-224 551.042,-204.836 739.621,-188.991 822.871,-182.353"/>
<polygon fill="midnightblue" stroke="midnightblue" points="823.272,-185.832 832.964,-181.552 822.718,-178.854 823.272,-185.832"/>
</g>
<!-- Node24&#45;&gt;Node6 -->
<g id="edge76" class="edge"><title>Node24&#45;&gt;Node6</title>
<path fill="none" stroke="midnightblue" d="M350.609,-224.411C412.601,-196.127 618.291,-104.925 797,-56 875.668,-34.4631 970.627,-21.167 1021.53,-15.0318"/>
<polygon fill="midnightblue" stroke="midnightblue" points="1022.18,-18.4793 1031.7,-13.8309 1021.36,-11.5275 1022.18,-18.4793"/>
</g>
<!-- Node24&#45;&gt;Node7 -->
<g id="edge77" class="edge"><title>Node24&#45;&gt;Node7</title>
<path fill="none" stroke="midnightblue" d="M344.074,-224.297C390.939,-190.518 561.098,-67.8708 619.871,-25.5088"/>
<polygon fill="midnightblue" stroke="midnightblue" points="621.944,-28.3291 628.01,-19.6425 617.851,-22.6504 621.944,-28.3291"/>
</g>
</g>
</svg>
        <g id="navigator" transform="translate(0 0)" fill="#404254">
                <rect fill="#f2f5e9" fill-opacity="0.5" stroke="#606060" stroke-width=".5" x="0" y="0" width="60" height="60"/>
                <use id="zoomplus" xlink:href="#zoomPlus" x="17" y="9" onmousedown="handleZoom(evt,'in')"/>
                <use id="zoomminus" xlink:href="#zoomMin" x="42" y="9" onmousedown="handleZoom(evt,'out')"/>
                <use id="reset" xlink:href="#resetDef" x="30" y="36" onmousedown="handleReset()"/>
                <g id="arrowUp" xlink:href="#dirArrow" transform="translate(30 24)" onmousedown="handlePan(0,-1)">
                  <use xlink:href="#rim" fill="#404040">
                        <set attributeName="fill" to="#808080" begin="arrowUp.mouseover" end="arrowUp.mouseout"/>
                  </use>
                  <path fill="none" stroke="white" stroke-width="1.5" d="M0,-3.0v7 M-2.5,-0.5L0,-3.0L2.5,-0.5"/>
                </g>
                <g id="arrowRight" xlink:href="#dirArrow" transform="rotate(90) translate(36 -43)" onmousedown="handlePan(1,0)">
                  <use xlink:href="#rim" fill="#404040">
                        <set attributeName="fill" to="#808080" begin="arrowRight.mouseover" end="arrowRight.mouseout"/>
                  </use>
                  <path fill="none" stroke="white" stroke-width="1.5" d="M0,-3.0v7 M-2.5,-0.5L0,-3.0L2.5,-0.5"/>
                </g>
                <g id="arrowDown" xlink:href="#dirArrow" transform="rotate(180) translate(-30 -48)" onmousedown="handlePan(0,1)">
                  <use xlink:href="#rim" fill="#404040">
                        <set attributeName="fill" to="#808080" begin="arrowDown.mouseover" end="arrowDown.mouseout"/>
                  </use>
                  <path fill="none" stroke="white" stroke-width="1.5" d="M0,-3.0v7 M-2.5,-0.5L0,-3.0L2.5,-0.5"/>
                </g>
                <g id="arrowLeft" xlink:href="#dirArrow" transform="rotate(270) translate(-36 17)" onmousedown="handlePan(-1,0)">
                  <use xlink:href="#rim" fill="#404040">
                        <set attributeName="fill" to="#808080" begin="arrowLeft.mouseover" end="arrowLeft.mouseout"/>
                  </use>
                  <path fill="none" stroke="white" stroke-width="1.5" d="M0,-3.0v7 M-2.5,-0.5L0,-3.0L2.5,-0.5"/>
                </g>
        </g>
        <svg viewBox="0 0 15 15" width="100%" height="30px" preserveAspectRatio="xMaxYMin meet">
         <g id="arrow_out" transform="scale(0.3 0.3)">
          <a xlink:href="_factory_8h__incl_org.svg" target="_base">
           <rect id="button" ry="5" rx="5" y="6" x="6" height="38" width="38"
                fill="#f2f5e9" fill-opacity="0.5" stroke="#606060" stroke-width="1.0"/>
           <path id="arrow"
             d="M 11.500037,31.436501 C 11.940474,20.09759 22.043105,11.32322 32.158766,21.979434 L 37.068811,17.246167 C 37.068811,17.246167 37.088388,32 37.088388,32 L 22.160133,31.978069 C 22.160133,31.978069 26.997745,27.140456 26.997745,27.140456 C 18.528582,18.264221 13.291696,25.230495 11.500037,31.436501 z"
             style="fill:#404040;"/>
          </a>
         </g>
        </svg>
</svg>
