<?xml version="1.0" encoding="UTF-8" standalone="no"?>
<!DOCTYPE svg PUBLIC "-//W3C//DTD SVG 1.1//EN"
 "http://www.w3.org/Graphics/SVG/1.1/DTD/svg11.dtd">
<!-- Generated by graphviz version 2.36.0 (20140111.2315)
 -->
<!-- Title: /home/travis/build/robotology/wb&#45;toolbox/toolbox/src/base/Factory.cpp Pages: 1 -->
<!--zoomable 330 -->
<svg id="main" version="1.1" xmlns="http://www.w3.org/2000/svg" xmlns:xlink="http://www.w3.org/1999/xlink" xml:space="preserve" onload="init(evt)">
<style type="text/css"><![CDATA[
.edge:hover path { stroke: red; }
.edge:hover polygon { stroke: red; fill: red; }
]]></style>
<script type="text/javascript"><![CDATA[
var edges = document.getElementsByTagName('g');
if (edges && edges.length) {
  for (var i=0;i<edges.length;i++) {
    if (edges[i].id.substr(0,4)=='edge') {
      edges[i].setAttribute('class','edge');
    }
  }
}
]]></script>
        <defs>
                <circle id="rim" cx="0" cy="0" r="7"/>
                <circle id="rim2" cx="0" cy="0" r="3.5"/>
                <g id="zoomPlus">
                        <use xlink:href="#rim" fill="#404040">
                                <set attributeName="fill" to="#808080" begin="zoomplus.mouseover" end="zoomplus.mouseout"/>
                        </use>
                        <path d="M-4,0h8M0,-4v8" fill="none" stroke="white" stroke-width="1.5" pointer-events="none"/>
                </g>
                <g id="zoomMin">
                        <use xlink:href="#rim" fill="#404040">
                                <set attributeName="fill" to="#808080" begin="zoomminus.mouseover" end="zoomminus.mouseout"/>
                        </use>
                        <path d="M-4,0h8" fill="none" stroke="white" stroke-width="1.5" pointer-events="none"/>
                </g>
                <g id="dirArrow">
                        <path fill="none" stroke="white" stroke-width="1.5" d="M0,-3.0v7 M-2.5,-0.5L0,-3.0L2.5,-0.5"/>
                </g>
               <g id="resetDef">
                       <use xlink:href="#rim2" fill="#404040">
                               <set attributeName="fill" to="#808080" begin="reset.mouseover" end="reset.mouseout"/>
                       </use>
               </g>
        </defs>

<script type="text/javascript">
var viewWidth = 1699;
var viewHeight = 330;
var sectionId = 'dynsection-0';
</script>
<script xlink:href="svgpan.js"/>
<svg id="graph" class="graph">
<g id="viewport">
<title>/home/travis/build/robotology/wb&#45;toolbox/toolbox/src/base/Factory.cpp</title>
<!-- Node1 -->
<g id="node1" class="node"><title>Node1</title>
<polygon fill="#bfbfbf" stroke="black" points="883,-280.5 883,-321.5 1029,-321.5 1029,-280.5 883,-280.5"/>
<text text-anchor="start" x="891" y="-309.5" font-family="Helvetica,sans-Serif" font-size="10.00">/home/travis/build</text>
<text text-anchor="start" x="891" y="-298.5" font-family="Helvetica,sans-Serif" font-size="10.00">/robotology/wb&#45;toolbox</text>
<text text-anchor="middle" x="956" y="-287.5" font-family="Helvetica,sans-Serif" font-size="10.00">/toolbox/src/base/Factory.cpp</text>
</g>
<!-- Node2 -->
<g id="node2" class="node"><title>Node2</title>
<g id="a_node2"><a xlink:href="_get_limits_8h.html" target="_top" xlink:title="GetLimits.h">
<polygon fill="none" stroke="black" points="-0.5,-224.5 -0.5,-243.5 66.5,-243.5 66.5,-224.5 -0.5,-224.5"/>
<text text-anchor="middle" x="33" y="-231.5" font-family="Helvetica,sans-Serif" font-size="10.00">GetLimits.h</text>
</a>
</g>
</g>
<!-- Node1&#45;&gt;Node2 -->
<g id="edge1" class="edge"><title>Node1&#45;&gt;Node2</title>
<path fill="none" stroke="midnightblue" d="M882.926,-298.871C733.365,-295.797 381.531,-284.645 77.0774,-243.932"/>
<polygon fill="midnightblue" stroke="midnightblue" points="77.1007,-240.403 66.7221,-242.533 76.1636,-247.34 77.1007,-240.403"/>
</g>
<!-- Node7 -->
<g id="node7" class="node"><title>Node7</title>
<polygon fill="none" stroke="#bfbfbf" points="1010.5,-0.5 1010.5,-19.5 1051.5,-19.5 1051.5,-0.5 1010.5,-0.5"/>
<text text-anchor="middle" x="1031" y="-7.5" font-family="Helvetica,sans-Serif" font-size="10.00">string</text>
</g>
<!-- Node1&#45;&gt;Node7 -->
<g id="edge78" class="edge"><title>Node1&#45;&gt;Node7</title>
<path fill="none" stroke="midnightblue" d="M1029.16,-295.578C1215.07,-283.366 1691,-245.601 1691,-179 1691,-179 1691,-179 1691,-121 1691,-51.9951 1616.7,-73.688 1550,-56 1456.79,-31.2804 1158.72,-16.5179 1061.78,-12.2772"/>
<polygon fill="midnightblue" stroke="midnightblue" points="1061.89,-8.77879 1051.75,-11.8447 1061.59,-15.7723 1061.89,-8.77879"/>
</g>
<!-- Node9 -->
<g id="node9" class="node"><title>Node9</title>
<g id="a_node9"><a xlink:href="_get_measurement_8h.html" target="_top" xlink:title="GetMeasurement.h">
<polygon fill="none" stroke="black" points="743,-224.5 743,-243.5 843,-243.5 843,-224.5 743,-224.5"/>
<text text-anchor="middle" x="793" y="-231.5" font-family="Helvetica,sans-Serif" font-size="10.00">GetMeasurement.h</text>
</a>
</g>
</g>
<!-- Node1&#45;&gt;Node9 -->
<g id="edge14" class="edge"><title>Node1&#45;&gt;Node9</title>
<path fill="none" stroke="midnightblue" d="M907.095,-280.498C880.181,-269.766 847.59,-256.769 824.143,-247.419"/>
<polygon fill="midnightblue" stroke="midnightblue" points="825.283,-244.106 814.698,-243.652 822.69,-250.608 825.283,-244.106"/>
</g>
<!-- Node10 -->
<g id="node10" class="node"><title>Node10</title>
<g id="a_node10"><a xlink:href="_model_partitioner_8h.html" target="_top" xlink:title="ModelPartitioner.h">
<polygon fill="none" stroke="black" points="1186.5,-224.5 1186.5,-243.5 1281.5,-243.5 1281.5,-224.5 1186.5,-224.5"/>
<text text-anchor="middle" x="1234" y="-231.5" font-family="Helvetica,sans-Serif" font-size="10.00">ModelPartitioner.h</text>
</a>
</g>
</g>
<!-- Node1&#45;&gt;Node10 -->
<g id="edge18" class="edge"><title>Node1&#45;&gt;Node10</title>
<path fill="none" stroke="midnightblue" d="M1029.04,-282.922C1079.23,-271.187 1144.36,-255.959 1187.58,-245.853"/>
<polygon fill="midnightblue" stroke="midnightblue" points="1188.6,-249.211 1197.54,-243.526 1187,-242.395 1188.6,-249.211"/>
</g>
<!-- Node11 -->
<g id="node11" class="node"><title>Node11</title>
<g id="a_node11"><a xlink:href="_real_time_synchronizer_8h.html" target="_top" xlink:title="RealTimeSynchronizer.h">
<polygon fill="none" stroke="black" points="1411,-168.5 1411,-187.5 1535,-187.5 1535,-168.5 1411,-168.5"/>
<text text-anchor="middle" x="1473" y="-175.5" font-family="Helvetica,sans-Serif" font-size="10.00">RealTimeSynchronizer.h</text>
</a>
</g>
</g>
<!-- Node1&#45;&gt;Node11 -->
<g id="edge22" class="edge"><title>Node1&#45;&gt;Node11</title>
<path fill="none" stroke="midnightblue" d="M1029.33,-296.786C1109.14,-291.625 1239.71,-278.281 1347,-244 1385.71,-231.633 1426.89,-208.185 1451.26,-193.091"/>
<polygon fill="midnightblue" stroke="midnightblue" points="1453.43,-195.858 1460.03,-187.568 1449.7,-189.935 1453.43,-195.858"/>
</g>
<!-- Node12 -->
<g id="node12" class="node"><title>Node12</title>
<g id="a_node12"><a xlink:href="_set_low_level_p_i_d_8h.html" target="_top" xlink:title="SetLowLevelPID.h">
<polygon fill="none" stroke="black" points="221,-224.5 221,-243.5 319,-243.5 319,-224.5 221,-224.5"/>
<text text-anchor="middle" x="270" y="-231.5" font-family="Helvetica,sans-Serif" font-size="10.00">SetLowLevelPID.h</text>
</a>
</g>
</g>
<!-- Node1&#45;&gt;Node12 -->
<g id="edge26" class="edge"><title>Node1&#45;&gt;Node12</title>
<path fill="none" stroke="midnightblue" d="M882.836,-295.027C767.417,-286.838 535.813,-269.018 329.15,-244.067"/>
<polygon fill="midnightblue" stroke="midnightblue" points="329.366,-240.568 319.017,-242.835 328.521,-247.516 329.366,-240.568"/>
</g>
<!-- Node13 -->
<g id="node13" class="node"><title>Node13</title>
<g id="a_node13"><a xlink:href="_set_references_8h.html" target="_top" xlink:title="SetReferences.h">
<polygon fill="none" stroke="black" points="861,-224.5 861,-243.5 951,-243.5 951,-224.5 861,-224.5"/>
<text text-anchor="middle" x="906" y="-231.5" font-family="Helvetica,sans-Serif" font-size="10.00">SetReferences.h</text>
</a>
</g>
</g>
<!-- Node1&#45;&gt;Node13 -->
<g id="edge30" class="edge"><title>Node1&#45;&gt;Node13</title>
<path fill="none" stroke="midnightblue" d="M940.998,-280.498C933.922,-271.299 925.566,-260.436 918.794,-251.632"/>
<polygon fill="midnightblue" stroke="midnightblue" points="921.527,-249.445 912.656,-243.652 915.979,-253.713 921.527,-249.445"/>
</g>
<!-- Node14 -->
<g id="node14" class="node"><title>Node14</title>
<g id="a_node14"><a xlink:href="_simulator_synchronizer_8h.html" target="_top" xlink:title="SimulatorSynchronizer.h">
<polygon fill="none" stroke="black" points="1183.5,-168.5 1183.5,-187.5 1306.5,-187.5 1306.5,-168.5 1183.5,-168.5"/>
<text text-anchor="middle" x="1245" y="-175.5" font-family="Helvetica,sans-Serif" font-size="10.00">SimulatorSynchronizer.h</text>
</a>
</g>
</g>
<!-- Node1&#45;&gt;Node14 -->
<g id="edge34" class="edge"><title>Node1&#45;&gt;Node14</title>
<path fill="none" stroke="midnightblue" d="M1029.05,-299.054C1121.23,-296.132 1272.01,-285.019 1307,-244 1322.9,-225.356 1295.92,-205.11 1272.71,-192.252"/>
<polygon fill="midnightblue" stroke="midnightblue" points="1274.26,-189.11 1263.78,-187.544 1270.99,-195.302 1274.26,-189.11"/>
</g>
<!-- Node15 -->
<g id="node15" class="node"><title>Node15</title>
<g id="a_node15"><a xlink:href="_yarp_clock_8h.html" target="_top" xlink:title="YarpClock.h">
<polygon fill="none" stroke="black" points="1553.5,-168.5 1553.5,-187.5 1624.5,-187.5 1624.5,-168.5 1553.5,-168.5"/>
<text text-anchor="middle" x="1589" y="-175.5" font-family="Helvetica,sans-Serif" font-size="10.00">YarpClock.h</text>
</a>
</g>
</g>
<!-- Node1&#45;&gt;Node15 -->
<g id="edge39" class="edge"><title>Node1&#45;&gt;Node15</title>
<path fill="none" stroke="midnightblue" d="M1029.18,-294.455C1115.13,-287.022 1261.65,-271.471 1385,-244 1447.21,-230.145 1517.61,-205.689 1557.31,-191.049"/>
<polygon fill="midnightblue" stroke="midnightblue" points="1558.57,-194.316 1566.72,-187.551 1556.13,-187.755 1558.57,-194.316"/>
</g>
<!-- Node16 -->
<g id="node16" class="node"><title>Node16</title>
<g id="a_node16"><a xlink:href="_yarp_read_8h.html" target="_top" xlink:title="YarpRead.h">
<polygon fill="none" stroke="black" points="1097,-168.5 1097,-187.5 1165,-187.5 1165,-168.5 1097,-168.5"/>
<text text-anchor="middle" x="1131" y="-175.5" font-family="Helvetica,sans-Serif" font-size="10.00">YarpRead.h</text>
</a>
</g>
</g>
<!-- Node1&#45;&gt;Node16 -->
<g id="edge42" class="edge"><title>Node1&#45;&gt;Node16</title>
<path fill="none" stroke="midnightblue" d="M1029.35,-298.352C1117.38,-294.644 1257.29,-282.653 1290,-244 1295.74,-237.215 1295.36,-231.09 1290,-224 1282.9,-214.613 1219.58,-198.772 1175.02,-188.607"/>
<polygon fill="midnightblue" stroke="midnightblue" points="1175.79,-185.193 1165.27,-186.403 1174.25,-192.02 1175.79,-185.193"/>
</g>
<!-- Node17 -->
<g id="node17" class="node"><title>Node17</title>
<g id="a_node17"><a xlink:href="_yarp_write_8h.html" target="_top" xlink:title="YarpWrite.h">
<polygon fill="none" stroke="black" points="1325,-168.5 1325,-187.5 1393,-187.5 1393,-168.5 1325,-168.5"/>
<text text-anchor="middle" x="1359" y="-175.5" font-family="Helvetica,sans-Serif" font-size="10.00">YarpWrite.h</text>
</a>
</g>
</g>
<!-- Node1&#45;&gt;Node17 -->
<g id="edge46" class="edge"><title>Node1&#45;&gt;Node17</title>
<path fill="none" stroke="midnightblue" d="M1029.33,-296.513C1122.78,-290.783 1277.78,-276.576 1324,-244 1339.68,-232.949 1348.99,-212.602 1354.02,-197.606"/>
<polygon fill="midnightblue" stroke="midnightblue" points="1357.42,-198.426 1356.95,-187.842 1350.72,-196.411 1357.42,-198.426"/>
</g>
<!-- Node18 -->
<g id="node18" class="node"><title>Node18</title>
<g id="a_node18"><a xlink:href="_centroidal_momentum_8h.html" target="_top" xlink:title="CentroidalMomentum.h">
<polygon fill="none" stroke="black" points="85,-224.5 85,-243.5 203,-243.5 203,-224.5 85,-224.5"/>
<text text-anchor="middle" x="144" y="-231.5" font-family="Helvetica,sans-Serif" font-size="10.00">CentroidalMomentum.h</text>
</a>
</g>
</g>
<!-- Node1&#45;&gt;Node18 -->
<g id="edge50" class="edge"><title>Node1&#45;&gt;Node18</title>
<path fill="none" stroke="midnightblue" d="M882.748,-295.862C750.961,-288.117 464.95,-269.93 213.379,-244.091"/>
<polygon fill="midnightblue" stroke="midnightblue" points="213.622,-240.597 203.315,-243.051 212.902,-247.56 213.622,-240.597"/>
</g>
<!-- Node19 -->
<g id="node19" class="node"><title>Node19</title>
<g id="a_node19"><a xlink:href="_dot_j_nu_8h.html" target="_top" xlink:title="DotJNu.h">
<polygon fill="none" stroke="black" points="337.5,-224.5 337.5,-243.5 396.5,-243.5 396.5,-224.5 337.5,-224.5"/>
<text text-anchor="middle" x="367" y="-231.5" font-family="Helvetica,sans-Serif" font-size="10.00">DotJNu.h</text>
</a>
</g>
</g>
<!-- Node1&#45;&gt;Node19 -->
<g id="edge54" class="edge"><title>Node1&#45;&gt;Node19</title>
<path fill="none" stroke="midnightblue" d="M882.948,-295.639C779.014,-288.756 582.424,-273.226 406.737,-244.113"/>
<polygon fill="midnightblue" stroke="midnightblue" points="407.236,-240.648 396.795,-242.447 406.079,-247.552 407.236,-240.648"/>
</g>
<!-- Node20 -->
<g id="node20" class="node"><title>Node20</title>
<g id="a_node20"><a xlink:href="_forward_kinematics_8h.html" target="_top" xlink:title="ForwardKinematics.h">
<polygon fill="none" stroke="black" points="414.5,-224.5 414.5,-243.5 523.5,-243.5 523.5,-224.5 414.5,-224.5"/>
<text text-anchor="middle" x="469" y="-231.5" font-family="Helvetica,sans-Serif" font-size="10.00">ForwardKinematics.h</text>
</a>
</g>
</g>
<!-- Node1&#45;&gt;Node20 -->
<g id="edge58" class="edge"><title>Node1&#45;&gt;Node20</title>
<path fill="none" stroke="midnightblue" d="M882.814,-290.573C800.423,-279.906 662.263,-261.857 533.661,-244.218"/>
<polygon fill="midnightblue" stroke="midnightblue" points="534.014,-240.734 523.631,-242.84 533.061,-247.669 534.014,-240.734"/>
</g>
<!-- Node21 -->
<g id="node21" class="node"><title>Node21</title>
<g id="a_node21"><a xlink:href="_inverse_dynamics_8h.html" target="_top" xlink:title="InverseDynamics.h">
<polygon fill="none" stroke="black" points="541.5,-224.5 541.5,-243.5 642.5,-243.5 642.5,-224.5 541.5,-224.5"/>
<text text-anchor="middle" x="592" y="-231.5" font-family="Helvetica,sans-Serif" font-size="10.00">InverseDynamics.h</text>
</a>
</g>
</g>
<!-- Node1&#45;&gt;Node21 -->
<g id="edge62" class="edge"><title>Node1&#45;&gt;Node21</title>
<path fill="none" stroke="midnightblue" d="M882.777,-286.924C814.144,-274.668 712.911,-256.591 649.793,-245.32"/>
<polygon fill="midnightblue" stroke="midnightblue" points="650.078,-241.816 639.618,-243.503 648.847,-248.707 650.078,-241.816"/>
</g>
<!-- Node22 -->
<g id="node22" class="node"><title>Node22</title>
<g id="a_node22"><a xlink:href="_jacobian_8h.html" target="_top" xlink:title="Jacobian.h">
<polygon fill="none" stroke="black" points="661,-224.5 661,-243.5 725,-243.5 725,-224.5 661,-224.5"/>
<text text-anchor="middle" x="693" y="-231.5" font-family="Helvetica,sans-Serif" font-size="10.00">Jacobian.h</text>
</a>
</g>
</g>
<!-- Node1&#45;&gt;Node22 -->
<g id="edge66" class="edge"><title>Node1&#45;&gt;Node22</title>
<path fill="none" stroke="midnightblue" d="M882.74,-281.894C835.061,-270.11 774.582,-255.163 734.885,-245.352"/>
<polygon fill="midnightblue" stroke="midnightblue" points="735.56,-241.913 725.013,-242.912 733.881,-248.709 735.56,-241.913"/>
</g>
<!-- Node23 -->
<g id="node23" class="node"><title>Node23</title>
<g id="a_node23"><a xlink:href="_mass_matrix_8h.html" target="_top" xlink:title="MassMatrix.h">
<polygon fill="none" stroke="black" points="969,-224.5 969,-243.5 1045,-243.5 1045,-224.5 969,-224.5"/>
<text text-anchor="middle" x="1007" y="-231.5" font-family="Helvetica,sans-Serif" font-size="10.00">MassMatrix.h</text>
</a>
</g>
</g>
<!-- Node1&#45;&gt;Node23 -->
<g id="edge70" class="edge"><title>Node1&#45;&gt;Node23</title>
<path fill="none" stroke="midnightblue" d="M971.302,-280.498C978.519,-271.299 987.042,-260.436 993.95,-251.632"/>
<polygon fill="midnightblue" stroke="midnightblue" points="996.792,-253.68 1000.21,-243.652 991.285,-249.359 996.792,-253.68"/>
</g>
<!-- Node24 -->
<g id="node24" class="node"><title>Node24</title>
<g id="a_node24"><a xlink:href="_relative_transform_8h.html" target="_top" xlink:title="RelativeTransform.h">
<polygon fill="none" stroke="black" points="1063.5,-224.5 1063.5,-243.5 1168.5,-243.5 1168.5,-224.5 1063.5,-224.5"/>
<text text-anchor="middle" x="1116" y="-231.5" font-family="Helvetica,sans-Serif" font-size="10.00">RelativeTransform.h</text>
</a>
</g>
</g>
<!-- Node1&#45;&gt;Node24 -->
<g id="edge74" class="edge"><title>Node1&#45;&gt;Node24</title>
<path fill="none" stroke="midnightblue" d="M1004.01,-280.498C1030.42,-269.766 1062.41,-256.769 1085.43,-247.419"/>
<polygon fill="midnightblue" stroke="midnightblue" points="1086.75,-250.659 1094.7,-243.652 1084.12,-244.174 1086.75,-250.659"/>
</g>
<!-- Node3 -->
<g id="node3" class="node"><title>Node3</title>
<g id="a_node3"><a xlink:href="_w_b_block_8h.html" target="_top" xlink:title="WBBlock.h">
<polygon fill="none" stroke="black" points="633,-168.5 633,-187.5 699,-187.5 699,-168.5 633,-168.5"/>
<text text-anchor="middle" x="666" y="-175.5" font-family="Helvetica,sans-Serif" font-size="10.00">WBBlock.h</text>
</a>
</g>
</g>
<!-- Node2&#45;&gt;Node3 -->
<g id="edge2" class="edge"><title>Node2&#45;&gt;Node3</title>
<path fill="none" stroke="midnightblue" d="M66.7278,-225.508C69.8532,-224.944 72.9796,-224.429 76,-224 279.374,-195.086 525.011,-183.886 622.802,-180.368"/>
<polygon fill="midnightblue" stroke="midnightblue" points="623.023,-183.863 632.894,-180.014 622.777,-176.867 623.023,-183.863"/>
</g>
<!-- Node6 -->
<g id="node6" class="node"><title>Node6</title>
<polygon fill="none" stroke="#bfbfbf" points="450,-0.5 450,-19.5 502,-19.5 502,-0.5 450,-0.5"/>
<text text-anchor="middle" x="476" y="-7.5" font-family="Helvetica,sans-Serif" font-size="10.00">memory</text>
</g>
<!-- Node2&#45;&gt;Node6 -->
<g id="edge12" class="edge"><title>Node2&#45;&gt;Node6</title>
<path fill="none" stroke="midnightblue" d="M40.4546,-224.246C65.8517,-195.047 152.618,-100.337 246,-56 309.765,-25.7246 392.733,-15.817 439.593,-12.5755"/>
<polygon fill="midnightblue" stroke="midnightblue" points="440.098,-16.0508 449.86,-11.9329 439.661,-9.06449 440.098,-16.0508"/>
</g>
<!-- Node2&#45;&gt;Node7 -->
<g id="edge13" class="edge"><title>Node2&#45;&gt;Node7</title>
<path fill="none" stroke="midnightblue" d="M59.3969,-224.44C147.267,-196.247 438.286,-105.295 685,-56 800.155,-32.9914 939.319,-19.0247 1000.09,-13.6"/>
<polygon fill="midnightblue" stroke="midnightblue" points="1000.51,-17.0766 1010.17,-12.7152 999.902,-10.1034 1000.51,-17.0766"/>
</g>
<!-- Node4 -->
<g id="node4" class="node"><title>Node4</title>
<g id="a_node4"><a xlink:href="_block_8h.html" target="_top" xlink:title="Block.h">
<polygon fill="none" stroke="black" points="1401,-112.5 1401,-131.5 1451,-131.5 1451,-112.5 1401,-112.5"/>
<text text-anchor="middle" x="1426" y="-119.5" font-family="Helvetica,sans-Serif" font-size="10.00">Block.h</text>
</a>
</g>
</g>
<!-- Node3&#45;&gt;Node4 -->
<g id="edge3" class="edge"><title>Node3&#45;&gt;Node4</title>
<path fill="none" stroke="midnightblue" d="M699.145,-174.645C823.639,-165.799 1262.71,-134.602 1390.72,-125.507"/>
<polygon fill="midnightblue" stroke="midnightblue" points="1391.04,-128.993 1400.77,-124.793 1390.54,-122.01 1391.04,-128.993"/>
</g>
<!-- Node3&#45;&gt;Node6 -->
<g id="edge10" class="edge"><title>Node3&#45;&gt;Node6</title>
<path fill="none" stroke="midnightblue" d="M632.885,-170.594C571.144,-158.612 444.513,-133.848 443,-132 421.608,-105.86 432.491,-88.1014 443,-56 446.49,-45.3397 453.573,-35.1174 460.286,-27.1175"/>
<polygon fill="midnightblue" stroke="midnightblue" points="462.904,-29.4395 466.98,-19.66 457.695,-24.7633 462.904,-29.4395"/>
</g>
<!-- Node3&#45;&gt;Node7 -->
<g id="edge11" class="edge"><title>Node3&#45;&gt;Node7</title>
<path fill="none" stroke="midnightblue" d="M699.097,-173.564C731.042,-168.809 779.381,-157.678 813,-132 844.749,-107.75 828.793,-79.6375 861,-56 902.779,-25.3377 963.895,-15.5531 1000.34,-12.4405"/>
<polygon fill="midnightblue" stroke="midnightblue" points="1000.65,-15.927 1010.36,-11.7001 1000.13,-8.94603 1000.65,-15.927"/>
</g>
<!-- Node5 -->
<g id="node5" class="node"><title>Node5</title>
<g id="a_node5"><a xlink:href="_parameters_8h.html" target="_top" xlink:title="Parameters.h">
<polygon fill="none" stroke="black" points="1363.5,-56.5 1363.5,-75.5 1438.5,-75.5 1438.5,-56.5 1363.5,-56.5"/>
<text text-anchor="middle" x="1401" y="-63.5" font-family="Helvetica,sans-Serif" font-size="10.00">Parameters.h</text>
</a>
</g>
</g>
<!-- Node4&#45;&gt;Node5 -->
<g id="edge4" class="edge"><title>Node4&#45;&gt;Node5</title>
<path fill="none" stroke="midnightblue" d="M1421.87,-112.083C1418.49,-104.77 1413.58,-94.1814 1409.38,-85.1034"/>
<polygon fill="midnightblue" stroke="midnightblue" points="1412.43,-83.3553 1405.05,-75.7511 1406.08,-86.2962 1412.43,-83.3553"/>
</g>
<!-- Node4&#45;&gt;Node7 -->
<g id="edge8" class="edge"><title>Node4&#45;&gt;Node7</title>
<path fill="none" stroke="midnightblue" d="M1412.33,-112.457C1386.64,-96.5451 1331.89,-63.3157 1311,-56 1223.84,-25.4713 1114.08,-15.521 1061.63,-12.3829"/>
<polygon fill="midnightblue" stroke="midnightblue" points="1061.82,-8.88773 1051.64,-11.8269 1061.43,-15.8769 1061.82,-8.88773"/>
</g>
<!-- Node8 -->
<g id="node8" class="node"><title>Node8</title>
<polygon fill="none" stroke="#bfbfbf" points="1445,-0.5 1445,-19.5 1489,-19.5 1489,-0.5 1445,-0.5"/>
<text text-anchor="middle" x="1467" y="-7.5" font-family="Helvetica,sans-Serif" font-size="10.00">vector</text>
</g>
<!-- Node4&#45;&gt;Node8 -->
<g id="edge9" class="edge"><title>Node4&#45;&gt;Node8</title>
<path fill="none" stroke="midnightblue" d="M1443.2,-112.386C1456.25,-104.794 1473.23,-92.3889 1481,-76 1488.09,-61.0373 1482.84,-42.4358 1476.85,-28.9706"/>
<polygon fill="midnightblue" stroke="midnightblue" points="1479.9,-27.2288 1472.32,-19.8202 1473.62,-30.3349 1479.9,-27.2288"/>
</g>
<!-- Node5&#45;&gt;Node6 -->
<g id="edge5" class="edge"><title>Node5&#45;&gt;Node6</title>
<path fill="none" stroke="midnightblue" d="M1363.3,-62.7994C1213.33,-54.0441 659.997,-21.7415 512.39,-13.1244"/>
<polygon fill="midnightblue" stroke="midnightblue" points="512.27,-9.61152 502.083,-12.5227 511.862,-16.5996 512.27,-9.61152"/>
</g>
<!-- Node5&#45;&gt;Node7 -->
<g id="edge6" class="edge"><title>Node5&#45;&gt;Node7</title>
<path fill="none" stroke="midnightblue" d="M1363.25,-58.3257C1358.46,-57.5197 1353.62,-56.7259 1349,-56 1243.95,-39.4811 1118.94,-22.6007 1062.01,-15.0647"/>
<polygon fill="midnightblue" stroke="midnightblue" points="1062.24,-11.5656 1051.87,-13.7267 1061.32,-18.5054 1062.24,-11.5656"/>
</g>
<!-- Node5&#45;&gt;Node8 -->
<g id="edge7" class="edge"><title>Node5&#45;&gt;Node8</title>
<path fill="none" stroke="midnightblue" d="M1411.6,-56.324C1421.46,-48.2631 1436.35,-36.0765 1448.22,-26.3695"/>
<polygon fill="midnightblue" stroke="midnightblue" points="1450.68,-28.8752 1456.2,-19.8339 1446.25,-23.4575 1450.68,-28.8752"/>
</g>
<!-- Node9&#45;&gt;Node3 -->
<g id="edge15" class="edge"><title>Node9&#45;&gt;Node3</title>
<path fill="none" stroke="midnightblue" d="M772.876,-224.444C751.976,-215.557 719.065,-201.563 695.284,-191.451"/>
<polygon fill="midnightblue" stroke="midnightblue" points="696.602,-188.208 686.029,-187.516 693.862,-194.65 696.602,-188.208"/>
</g>
<!-- Node9&#45;&gt;Node6 -->
<g id="edge16" class="edge"><title>Node9&#45;&gt;Node6</title>
<path fill="none" stroke="midnightblue" d="M784.533,-224.132C770.238,-209.76 739.757,-181.617 708,-168 614.116,-127.745 548.923,-208.296 481,-132 455.923,-103.832 463.533,-55.7318 470.336,-29.4611"/>
<polygon fill="midnightblue" stroke="midnightblue" points="473.754,-30.2353 473.104,-19.6604 467.017,-28.3326 473.754,-30.2353"/>
</g>
<!-- Node9&#45;&gt;Node7 -->
<g id="edge17" class="edge"><title>Node9&#45;&gt;Node7</title>
<path fill="none" stroke="midnightblue" d="M802.33,-224.297C838.246,-190.796 967.877,-69.8796 1014.31,-26.5688"/>
<polygon fill="midnightblue" stroke="midnightblue" points="1016.81,-29.0229 1021.73,-19.6425 1012.03,-23.9041 1016.81,-29.0229"/>
</g>
<!-- Node10&#45;&gt;Node3 -->
<g id="edge19" class="edge"><title>Node10&#45;&gt;Node3</title>
<path fill="none" stroke="midnightblue" d="M1186.45,-225.241C1183.25,-224.798 1180.08,-224.379 1177,-224 1004.36,-202.794 797.708,-187.753 709.432,-181.813"/>
<polygon fill="midnightblue" stroke="midnightblue" points="709.474,-178.308 699.263,-181.134 709.008,-185.292 709.474,-178.308"/>
</g>
<!-- Node10&#45;&gt;Node6 -->
<g id="edge20" class="edge"><title>Node10&#45;&gt;Node6</title>
<path fill="none" stroke="midnightblue" d="M1204.75,-224.433C1086.34,-189.754 642.678,-59.8159 512.267,-21.6216"/>
<polygon fill="midnightblue" stroke="midnightblue" points="512.954,-18.176 502.373,-18.7241 510.987,-24.8938 512.954,-18.176"/>
</g>
<!-- Node10&#45;&gt;Node7 -->
<g id="edge21" class="edge"><title>Node10&#45;&gt;Node7</title>
<path fill="none" stroke="midnightblue" d="M1281.86,-231.113C1382.75,-226.643 1609.95,-213.796 1633,-188 1638.92,-181.372 1636.49,-176.175 1633,-168 1604.73,-101.799 1581.49,-85.8803 1516,-56 1434.5,-18.8168 1155.72,-12.3578 1062.01,-11.2358"/>
<polygon fill="midnightblue" stroke="midnightblue" points="1061.81,-7.73358 1051.78,-11.1261 1061.74,-14.7332 1061.81,-7.73358"/>
</g>
<!-- Node11&#45;&gt;Node4 -->
<g id="edge23" class="edge"><title>Node11&#45;&gt;Node4</title>
<path fill="none" stroke="midnightblue" d="M1465.24,-168.083C1458.46,-160.298 1448.46,-148.801 1440.24,-139.367"/>
<polygon fill="midnightblue" stroke="midnightblue" points="1442.82,-136.996 1433.62,-131.751 1437.54,-141.592 1442.82,-136.996"/>
</g>
<!-- Node11&#45;&gt;Node6 -->
<g id="edge24" class="edge"><title>Node11&#45;&gt;Node6</title>
<path fill="none" stroke="midnightblue" d="M1450.24,-168.452C1388.7,-145.751 1213.44,-83.7893 1062,-56 856.616,-18.3127 605.121,-12.123 512.487,-11.1563"/>
<polygon fill="midnightblue" stroke="midnightblue" points="512.274,-7.65435 502.243,-11.0644 512.212,-14.6541 512.274,-7.65435"/>
</g>
<!-- Node11&#45;&gt;Node7 -->
<g id="edge25" class="edge"><title>Node11&#45;&gt;Node7</title>
<path fill="none" stroke="midnightblue" d="M1476.04,-168.33C1483.29,-145.868 1498.75,-85.4851 1467,-56 1437.37,-28.4817 1156.36,-15.6373 1061.84,-12.0704"/>
<polygon fill="midnightblue" stroke="midnightblue" points="1061.9,-8.57 1051.77,-11.6991 1061.64,-15.5653 1061.9,-8.57"/>
</g>
<!-- Node12&#45;&gt;Node3 -->
<g id="edge27" class="edge"><title>Node12&#45;&gt;Node3</title>
<path fill="none" stroke="midnightblue" d="M319.037,-225.315C322.069,-224.863 325.075,-224.422 328,-224 433.733,-208.76 558.35,-192.646 622.692,-184.462"/>
<polygon fill="midnightblue" stroke="midnightblue" points="623.384,-187.902 632.863,-183.171 622.502,-180.958 623.384,-187.902"/>
</g>
<!-- Node12&#45;&gt;Node6 -->
<g id="edge28" class="edge"><title>Node12&#45;&gt;Node6</title>
<path fill="none" stroke="midnightblue" d="M267.805,-224.499C261.033,-196.101 243.608,-103.628 290,-56 310.517,-34.9364 391.589,-21.487 439.664,-15.1927"/>
<polygon fill="midnightblue" stroke="midnightblue" points="440.197,-18.6532 449.677,-13.9225 439.316,-11.7089 440.197,-18.6532"/>
</g>
<!-- Node12&#45;&gt;Node7 -->
<g id="edge29" class="edge"><title>Node12&#45;&gt;Node7</title>
<path fill="none" stroke="midnightblue" d="M301.473,-224.454C333.621,-215.641 384.93,-201.34 429,-188 456.712,-179.612 463.022,-175.454 491,-168 565.628,-148.118 591.354,-165.378 661,-132 709.137,-108.93 705.327,-77.9169 754,-56 837.33,-18.477 947.261,-11.7822 1000.07,-10.884"/>
<polygon fill="midnightblue" stroke="midnightblue" points="1000.19,-14.3831 1010.15,-10.7727 1000.11,-7.38349 1000.19,-14.3831"/>
</g>
<!-- Node13&#45;&gt;Node3 -->
<g id="edge31" class="edge"><title>Node13&#45;&gt;Node3</title>
<path fill="none" stroke="midnightblue" d="M867.971,-224.444C824.717,-214.711 754.245,-198.855 709.019,-188.679"/>
<polygon fill="midnightblue" stroke="midnightblue" points="709.738,-185.254 699.213,-186.473 708.201,-192.083 709.738,-185.254"/>
</g>
<!-- Node13&#45;&gt;Node6 -->
<g id="edge32" class="edge"><title>Node13&#45;&gt;Node6</title>
<path fill="none" stroke="midnightblue" d="M887.891,-224.499C857.686,-210.653 794.822,-183.25 739,-168 643.424,-141.889 595.048,-195.507 519,-132 488.156,-106.242 479.429,-56.7699 476.965,-29.7474"/>
<polygon fill="midnightblue" stroke="midnightblue" points="480.449,-29.4009 476.246,-19.6755 473.467,-29.8993 480.449,-29.4009"/>
</g>
<!-- Node13&#45;&gt;Node7 -->
<g id="edge33" class="edge"><title>Node13&#45;&gt;Node7</title>
<path fill="none" stroke="midnightblue" d="M923.518,-224.383C937.61,-216.635 956.98,-204.019 969,-188 988.47,-162.052 1015.19,-69.2587 1026.08,-29.4035"/>
<polygon fill="midnightblue" stroke="midnightblue" points="1029.48,-30.2325 1028.72,-19.6657 1022.73,-28.406 1029.48,-30.2325"/>
</g>
<!-- Node14&#45;&gt;Node4 -->
<g id="edge35" class="edge"><title>Node14&#45;&gt;Node4</title>
<path fill="none" stroke="midnightblue" d="M1273.68,-168.444C1305.48,-158.957 1356.78,-143.651 1390.94,-133.46"/>
<polygon fill="midnightblue" stroke="midnightblue" points="1392.37,-136.686 1400.95,-130.473 1390.37,-129.978 1392.37,-136.686"/>
</g>
<!-- Node14&#45;&gt;Node6 -->
<g id="edge36" class="edge"><title>Node14&#45;&gt;Node6</title>
<path fill="none" stroke="midnightblue" d="M1230.06,-168.367C1189.6,-145.454 1073.88,-83.0141 969,-56 802.355,-13.0759 594.807,-9.76843 512.279,-10.3648"/>
<polygon fill="midnightblue" stroke="midnightblue" points="512.126,-6.86601 502.161,-10.4627 512.194,-13.8657 512.126,-6.86601"/>
</g>
<!-- Node14&#45;&gt;Node7 -->
<g id="edge37" class="edge"><title>Node14&#45;&gt;Node7</title>
<path fill="none" stroke="midnightblue" d="M1249.19,-168.486C1259.13,-146.907 1281.35,-89.419 1254,-56 1230.08,-26.772 1117.44,-16.0996 1061.99,-12.5707"/>
<polygon fill="midnightblue" stroke="midnightblue" points="1061.9,-9.05898 1051.71,-11.9568 1061.48,-16.0465 1061.9,-9.05898"/>
</g>
<!-- Node14&#45;&gt;Node8 -->
<g id="edge38" class="edge"><title>Node14&#45;&gt;Node8</title>
<path fill="none" stroke="midnightblue" d="M1264.31,-168.397C1312.29,-146.875 1434.01,-91.3325 1447,-76 1458.08,-62.9203 1463.03,-43.7696 1465.23,-29.6411"/>
<polygon fill="midnightblue" stroke="midnightblue" points="1468.72,-29.9539 1466.48,-19.599 1461.77,-29.092 1468.72,-29.9539"/>
</g>
<!-- Node15&#45;&gt;Node4 -->
<g id="edge40" class="edge"><title>Node15&#45;&gt;Node4</title>
<path fill="none" stroke="midnightblue" d="M1563.17,-168.444C1535.59,-159.306 1491.71,-144.769 1461.03,-134.604"/>
<polygon fill="midnightblue" stroke="midnightblue" points="1461.76,-131.161 1451.17,-131.339 1459.56,-137.806 1461.76,-131.161"/>
</g>
<!-- Node15&#45;&gt;Node7 -->
<g id="edge41" class="edge"><title>Node15&#45;&gt;Node7</title>
<path fill="none" stroke="midnightblue" d="M1584.82,-168.31C1573.2,-145.254 1538.07,-82.4922 1488,-56 1413.68,-16.6753 1151.59,-11.6035 1061.6,-11.0366"/>
<polygon fill="midnightblue" stroke="midnightblue" points="1061.52,-7.53623 1051.5,-10.9878 1061.49,-14.5361 1061.52,-7.53623"/>
</g>
<!-- Node16&#45;&gt;Node4 -->
<g id="edge43" class="edge"><title>Node16&#45;&gt;Node4</title>
<path fill="none" stroke="midnightblue" d="M1165.25,-169.736C1168.21,-169.138 1171.15,-168.552 1174,-168 1251.23,-153.026 1342.14,-137.245 1390.89,-128.932"/>
<polygon fill="midnightblue" stroke="midnightblue" points="1391.65,-132.354 1400.92,-127.226 1390.47,-125.453 1391.65,-132.354"/>
</g>
<!-- Node16&#45;&gt;Node6 -->
<g id="edge44" class="edge"><title>Node16&#45;&gt;Node6</title>
<path fill="none" stroke="midnightblue" d="M1120.58,-168.314C1092.28,-145.269 1010.71,-82.5317 931,-56 853.403,-30.1702 605.934,-16.767 512.333,-12.5205"/>
<polygon fill="midnightblue" stroke="midnightblue" points="512.361,-9.01839 502.215,-12.0702 512.05,-16.0115 512.361,-9.01839"/>
</g>
<!-- Node16&#45;&gt;Node7 -->
<g id="edge45" class="edge"><title>Node16&#45;&gt;Node7</title>
<path fill="none" stroke="midnightblue" d="M1148.73,-168.363C1186.7,-148.747 1269.7,-99.1874 1235,-56 1213.63,-29.4066 1113.51,-17.5974 1061.92,-13.2046"/>
<polygon fill="midnightblue" stroke="midnightblue" points="1061.94,-9.69504 1051.69,-12.3771 1061.37,-16.6722 1061.94,-9.69504"/>
</g>
<!-- Node17&#45;&gt;Node4 -->
<g id="edge47" class="edge"><title>Node17&#45;&gt;Node4</title>
<path fill="none" stroke="midnightblue" d="M1369.76,-168.324C1379.77,-160.263 1394.89,-148.077 1406.93,-138.369"/>
<polygon fill="midnightblue" stroke="midnightblue" points="1409.45,-140.834 1415.04,-131.834 1405.06,-135.384 1409.45,-140.834"/>
</g>
<!-- Node17&#45;&gt;Node6 -->
<g id="edge48" class="edge"><title>Node17&#45;&gt;Node6</title>
<path fill="none" stroke="midnightblue" d="M1336.84,-168.394C1271.39,-143.116 1079.49,-69.9845 1014,-56 828.336,-16.3526 599.672,-11.2735 512.283,-10.8809"/>
<polygon fill="midnightblue" stroke="midnightblue" points="512.108,-7.38051 502.098,-10.854 512.089,-14.3805 512.108,-7.38051"/>
</g>
<!-- Node17&#45;&gt;Node7 -->
<g id="edge49" class="edge"><title>Node17&#45;&gt;Node7</title>
<path fill="none" stroke="midnightblue" d="M1386.93,-168.363C1413.81,-159.418 1451.59,-144.961 1460,-132 1472.03,-113.469 1462.24,-69.5059 1447,-56 1418.27,-30.5336 1153.3,-16.4398 1061.86,-12.3025"/>
<polygon fill="midnightblue" stroke="midnightblue" points="1061.74,-8.79386 1051.59,-11.8472 1061.43,-15.787 1061.74,-8.79386"/>
</g>
<!-- Node18&#45;&gt;Node3 -->
<g id="edge51" class="edge"><title>Node18&#45;&gt;Node3</title>
<path fill="none" stroke="midnightblue" d="M203.324,-225.032C206.256,-224.675 209.161,-224.328 212,-224 362.6,-206.575 541.797,-190.05 622.638,-182.821"/>
<polygon fill="midnightblue" stroke="midnightblue" points="623.271,-186.278 632.921,-181.904 622.649,-179.306 623.271,-186.278"/>
</g>
<!-- Node18&#45;&gt;Node6 -->
<g id="edge52" class="edge"><title>Node18&#45;&gt;Node6</title>
<path fill="none" stroke="midnightblue" d="M147.603,-224.279C160.101,-195.186 204.598,-100.773 273,-56 324.202,-22.4856 396.609,-13.6247 439.685,-11.4627"/>
<polygon fill="midnightblue" stroke="midnightblue" points="439.864,-14.9584 449.713,-11.0544 439.579,-7.96415 439.864,-14.9584"/>
</g>
<!-- Node18&#45;&gt;Node7 -->
<g id="edge53" class="edge"><title>Node18&#45;&gt;Node7</title>
<path fill="none" stroke="midnightblue" d="M202.277,-224.474C263.943,-215.081 356.956,-199.75 391,-188 409.041,-181.773 410.969,-174.256 429,-168 511.849,-139.253 542.983,-167.883 623,-132 673.293,-109.447 670.273,-77.5601 721,-56 816.921,-15.2313 942.961,-10.2838 1000.27,-10.3726"/>
<polygon fill="midnightblue" stroke="midnightblue" points="1000.44,-13.8738 1010.46,-10.4442 1000.49,-6.87393 1000.44,-13.8738"/>
</g>
<!-- Node19&#45;&gt;Node3 -->
<g id="edge55" class="edge"><title>Node19&#45;&gt;Node3</title>
<path fill="none" stroke="midnightblue" d="M396.832,-225.751C399.589,-225.136 402.343,-224.543 405,-224 481.284,-208.406 570.846,-193.753 622.743,-185.618"/>
<polygon fill="midnightblue" stroke="midnightblue" points="623.575,-189.031 632.916,-184.032 622.496,-182.115 623.575,-189.031"/>
</g>
<!-- Node19&#45;&gt;Node6 -->
<g id="edge56" class="edge"><title>Node19&#45;&gt;Node6</title>
<path fill="none" stroke="midnightblue" d="M350.775,-224.479C337.562,-216.71 319.444,-204.012 309,-188 276.949,-138.862 267.896,-97.86 309,-56 343.422,-20.9449 402.061,-12.3174 439.9,-10.6557"/>
<polygon fill="midnightblue" stroke="midnightblue" points="440.093,-14.1516 449.984,-10.3556 439.884,-7.15474 440.093,-14.1516"/>
</g>
<!-- Node19&#45;&gt;Node7 -->
<g id="edge57" class="edge"><title>Node19&#45;&gt;Node7</title>
<path fill="none" stroke="midnightblue" d="M389.653,-224.443C424.766,-211.345 494.587,-185.958 555,-168 618.235,-149.204 640.531,-162.551 699,-132 744.505,-108.223 739.765,-78.3244 786,-56 857.326,-21.5606 951.994,-13.3663 1000.1,-11.4916"/>
<polygon fill="midnightblue" stroke="midnightblue" points="1000.3,-14.9869 1010.18,-11.166 1000.08,-7.99056 1000.3,-14.9869"/>
</g>
<!-- Node20&#45;&gt;Node3 -->
<g id="edge59" class="edge"><title>Node20&#45;&gt;Node3</title>
<path fill="none" stroke="midnightblue" d="M500.215,-224.444C533.933,-215.201 587.8,-200.436 624.932,-190.257"/>
<polygon fill="midnightblue" stroke="midnightblue" points="626.212,-193.536 634.931,-187.516 624.361,-186.785 626.212,-193.536"/>
</g>
<!-- Node20&#45;&gt;Node6 -->
<g id="edge60" class="edge"><title>Node20&#45;&gt;Node6</title>
<path fill="none" stroke="midnightblue" d="M421.737,-224.462C384.391,-216.641 336.675,-203.88 325,-188 290.25,-140.733 289.937,-103.036 325,-56 351.263,-20.7686 404.025,-12.0337 439.687,-10.4147"/>
<polygon fill="midnightblue" stroke="midnightblue" points="439.812,-13.9127 449.706,-10.1247 439.609,-6.91561 439.812,-13.9127"/>
</g>
<!-- Node20&#45;&gt;Node7 -->
<g id="edge61" class="edge"><title>Node20&#45;&gt;Node7</title>
<path fill="none" stroke="midnightblue" d="M484.512,-224.45C509.356,-211.02 559.869,-184.784 605,-168 661.995,-146.803 684.208,-162.18 737,-132 779.02,-107.978 772.269,-78.7322 815,-56 875.325,-23.9083 956.457,-14.6908 1000.11,-12.0514"/>
<polygon fill="midnightblue" stroke="midnightblue" points="1000.56,-15.5326 1010.36,-11.5122 1000.19,-8.54221 1000.56,-15.5326"/>
</g>
<!-- Node21&#45;&gt;Node3 -->
<g id="edge63" class="edge"><title>Node21&#45;&gt;Node3</title>
<path fill="none" stroke="midnightblue" d="M603.889,-224.324C615.15,-216.107 632.287,-203.602 645.709,-193.807"/>
<polygon fill="midnightblue" stroke="midnightblue" points="647.88,-196.556 653.894,-187.834 643.753,-190.901 647.88,-196.556"/>
</g>
<!-- Node21&#45;&gt;Node6 -->
<g id="edge64" class="edge"><title>Node21&#45;&gt;Node6</title>
<path fill="none" stroke="midnightblue" d="M563.627,-224.499C508.359,-207.304 389.684,-167.047 367,-132 348.647,-103.644 348.218,-84.0742 367,-56 383.109,-31.9218 414.712,-20.7131 439.759,-15.5033"/>
<polygon fill="midnightblue" stroke="midnightblue" points="440.482,-18.9292 449.681,-13.6736 439.212,-12.0453 440.482,-18.9292"/>
</g>
<!-- Node21&#45;&gt;Node7 -->
<g id="edge65" class="edge"><title>Node21&#45;&gt;Node7</title>
<path fill="none" stroke="midnightblue" d="M593.768,-224.352C597.108,-210.295 605.716,-182.596 624,-168 677.919,-124.958 715.998,-167.759 775,-132 813.259,-108.812 802.724,-79.1591 841,-56 891.345,-25.5385 960.772,-15.697 1000.26,-12.5175"/>
<polygon fill="midnightblue" stroke="midnightblue" points="1000.6,-16.0021 1010.32,-11.8002 1000.1,-9.0198 1000.6,-16.0021"/>
</g>
<!-- Node22&#45;&gt;Node3 -->
<g id="edge67" class="edge"><title>Node22&#45;&gt;Node3</title>
<path fill="none" stroke="midnightblue" d="M688.541,-224.083C684.846,-216.691 679.477,-205.953 674.906,-196.811"/>
<polygon fill="midnightblue" stroke="midnightblue" points="677.978,-195.13 670.376,-187.751 671.717,-198.261 677.978,-195.13"/>
</g>
<!-- Node22&#45;&gt;Node6 -->
<g id="edge68" class="edge"><title>Node22&#45;&gt;Node6</title>
<path fill="none" stroke="midnightblue" d="M660.785,-225.485C596.531,-209.775 456.262,-171.618 429,-132 421.815,-121.559 418.799,-88.0592 433,-56 438.093,-44.5023 447.442,-34.1587 456.124,-26.296"/>
<polygon fill="midnightblue" stroke="midnightblue" points="458.408,-28.9486 463.77,-19.8107 453.88,-23.6105 458.408,-28.9486"/>
</g>
<!-- Node22&#45;&gt;Node7 -->
<g id="edge69" class="edge"><title>Node22&#45;&gt;Node7</title>
<path fill="none" stroke="midnightblue" d="M705.651,-224.396C743.718,-198.546 860.644,-119.442 959,-56 975.462,-45.382 994.234,-33.6616 1008.48,-24.8445"/>
<polygon fill="midnightblue" stroke="midnightblue" points="1010.45,-27.7418 1017.12,-19.5105 1006.78,-21.7854 1010.45,-27.7418"/>
</g>
<!-- Node23&#45;&gt;Node3 -->
<g id="edge71" class="edge"><title>Node23&#45;&gt;Node3</title>
<path fill="none" stroke="midnightblue" d="M968.802,-225.562C965.826,-225.02 962.866,-224.493 960,-224 871.136,-208.696 766.702,-193.332 709.291,-185.11"/>
<polygon fill="midnightblue" stroke="midnightblue" points="709.528,-181.609 699.133,-183.66 708.538,-188.538 709.528,-181.609"/>
</g>
<!-- Node23&#45;&gt;Node6 -->
<g id="edge72" class="edge"><title>Node23&#45;&gt;Node6</title>
<path fill="none" stroke="midnightblue" d="M981.402,-224.44C940.073,-210.877 855.906,-184.318 783,-168 683.745,-145.784 642.662,-186.837 557,-132 536.82,-119.081 502.11,-58.9447 485.455,-28.6047"/>
<polygon fill="midnightblue" stroke="midnightblue" points="488.396,-26.6852 480.546,-19.569 482.245,-30.0269 488.396,-26.6852"/>
</g>
<!-- Node23&#45;&gt;Node7 -->
<g id="edge73" class="edge"><title>Node23&#45;&gt;Node7</title>
<path fill="none" stroke="midnightblue" d="M1007.94,-224.297C1011.47,-191.633 1023.99,-75.8661 1028.95,-29.9573"/>
<polygon fill="midnightblue" stroke="midnightblue" points="1032.44,-30.202 1030.04,-19.8837 1025.48,-29.4496 1032.44,-30.202"/>
</g>
<!-- Node24&#45;&gt;Node3 -->
<g id="edge75" class="edge"><title>Node24&#45;&gt;Node3</title>
<path fill="none" stroke="midnightblue" d="M1063.25,-225.238C1060.12,-224.81 1057.02,-224.394 1054,-224 929.024,-207.685 781.004,-191.341 709.274,-183.609"/>
<polygon fill="midnightblue" stroke="midnightblue" points="709.573,-180.121 699.256,-182.532 708.825,-187.081 709.573,-180.121"/>
</g>
<!-- Node24&#45;&gt;Node6 -->
<g id="edge76" class="edge"><title>Node24&#45;&gt;Node6</title>
<path fill="none" stroke="midnightblue" d="M1063.23,-224.65C1019.7,-217.098 956.61,-204.618 903,-188 746.977,-139.637 569.112,-56.2805 502.779,-24.1545"/>
<polygon fill="midnightblue" stroke="midnightblue" points="503.987,-20.85 493.463,-19.6236 500.925,-27.1449 503.987,-20.85"/>
</g>
<!-- Node24&#45;&gt;Node7 -->
<g id="edge77" class="edge"><title>Node24&#45;&gt;Node7</title>
<path fill="none" stroke="midnightblue" d="M1109.75,-224.397C1103.58,-215.596 1094.19,-201.357 1088,-188 1062.37,-132.718 1043.55,-62.737 1035.43,-29.7831"/>
<polygon fill="midnightblue" stroke="midnightblue" points="1038.76,-28.6557 1033.01,-19.7559 1031.95,-30.298 1038.76,-28.6557"/>
</g>
</g>
</svg>
        <g id="navigator" transform="translate(0 0)" fill="#404254">
                <rect fill="#f2f5e9" fill-opacity="0.5" stroke="#606060" stroke-width=".5" x="0" y="0" width="60" height="60"/>
                <use id="zoomplus" xlink:href="#zoomPlus" x="17" y="9" onmousedown="handleZoom(evt,'in')"/>
                <use id="zoomminus" xlink:href="#zoomMin" x="42" y="9" onmousedown="handleZoom(evt,'out')"/>
                <use id="reset" xlink:href="#resetDef" x="30" y="36" onmousedown="handleReset()"/>
                <g id="arrowUp" xlink:href="#dirArrow" transform="translate(30 24)" onmousedown="handlePan(0,-1)">
                  <use xlink:href="#rim" fill="#404040">
                        <set attributeName="fill" to="#808080" begin="arrowUp.mouseover" end="arrowUp.mouseout"/>
                  </use>
                  <path fill="none" stroke="white" stroke-width="1.5" d="M0,-3.0v7 M-2.5,-0.5L0,-3.0L2.5,-0.5"/>
                </g>
                <g id="arrowRight" xlink:href="#dirArrow" transform="rotate(90) translate(36 -43)" onmousedown="handlePan(1,0)">
                  <use xlink:href="#rim" fill="#404040">
                        <set attributeName="fill" to="#808080" begin="arrowRight.mouseover" end="arrowRight.mouseout"/>
                  </use>
                  <path fill="none" stroke="white" stroke-width="1.5" d="M0,-3.0v7 M-2.5,-0.5L0,-3.0L2.5,-0.5"/>
                </g>
                <g id="arrowDown" xlink:href="#dirArrow" transform="rotate(180) translate(-30 -48)" onmousedown="handlePan(0,1)">
                  <use xlink:href="#rim" fill="#404040">
                        <set attributeName="fill" to="#808080" begin="arrowDown.mouseover" end="arrowDown.mouseout"/>
                  </use>
                  <path fill="none" stroke="white" stroke-width="1.5" d="M0,-3.0v7 M-2.5,-0.5L0,-3.0L2.5,-0.5"/>
                </g>
                <g id="arrowLeft" xlink:href="#dirArrow" transform="rotate(270) translate(-36 17)" onmousedown="handlePan(-1,0)">
                  <use xlink:href="#rim" fill="#404040">
                        <set attributeName="fill" to="#808080" begin="arrowLeft.mouseover" end="arrowLeft.mouseout"/>
                  </use>
                  <path fill="none" stroke="white" stroke-width="1.5" d="M0,-3.0v7 M-2.5,-0.5L0,-3.0L2.5,-0.5"/>
                </g>
        </g>
        <svg viewBox="0 0 15 15" width="100%" height="30px" preserveAspectRatio="xMaxYMin meet">
         <g id="arrow_out" transform="scale(0.3 0.3)">
          <a xlink:href="_factory_8cpp__incl_org.svg" target="_base">
           <rect id="button" ry="5" rx="5" y="6" x="6" height="38" width="38"
                fill="#f2f5e9" fill-opacity="0.5" stroke="#606060" stroke-width="1.0"/>
           <path id="arrow"
             d="M 11.500037,31.436501 C 11.940474,20.09759 22.043105,11.32322 32.158766,21.979434 L 37.068811,17.246167 C 37.068811,17.246167 37.088388,32 37.088388,32 L 22.160133,31.978069 C 22.160133,31.978069 26.997745,27.140456 26.997745,27.140456 C 18.528582,18.264221 13.291696,25.230495 11.500037,31.436501 z"
             style="fill:#404040;"/>
          </a>
         </g>
        </svg>
</svg>
