<?xml version="1.0" encoding="UTF-8" standalone="no"?>
<!DOCTYPE svg PUBLIC "-//W3C//DTD SVG 1.1//EN"
 "http://www.w3.org/Graphics/SVG/1.1/DTD/svg11.dtd">
<!-- Generated by graphviz version 2.36.0 (20140111.2315)
 -->
<!-- Title: /home/travis/build/robotology/wb&#45;toolbox/toolbox/library/include/Block/ForwardKinematics.h Pages: 1 -->
<svg width="313pt" height="152pt"
 viewBox="0.00 0.00 313.00 152.00" xmlns="http://www.w3.org/2000/svg" xmlns:xlink="http://www.w3.org/1999/xlink">
<g id="graph0" class="graph" transform="scale(1 1) rotate(0) translate(4 148)">
<title>/home/travis/build/robotology/wb&#45;toolbox/toolbox/library/include/Block/ForwardKinematics.h</title>
<!-- Node1 -->
<g id="node1" class="node"><title>Node1</title>
<polygon fill="#bfbfbf" stroke="black" points="87,-91 87,-143 227,-143 227,-91 87,-91"/>
<text text-anchor="start" x="95" y="-131" font-family="Helvetica,sans-Serif" font-size="10.00">/home/travis/build</text>
<text text-anchor="start" x="95" y="-120" font-family="Helvetica,sans-Serif" font-size="10.00">/robotology/wb&#45;toolbox</text>
<text text-anchor="start" x="95" y="-109" font-family="Helvetica,sans-Serif" font-size="10.00">/toolbox/library/include</text>
<text text-anchor="middle" x="157" y="-98" font-family="Helvetica,sans-Serif" font-size="10.00">/Block/ForwardKinematics.h</text>
</g>
<!-- Node2 -->
<g id="node2" class="node"><title>Node2</title>
<g id="a_node2"><a xlink:href="_factory_8cpp.html" target="_top" xlink:title="/home/travis/build\l/robotology/wb&#45;toolbox\l/toolbox/library/src/Factory.cpp">
<polygon fill="none" stroke="black" points="0,-6.5 0,-47.5 152,-47.5 152,-6.5 0,-6.5"/>
<text text-anchor="start" x="8" y="-35.5" font-family="Helvetica,sans-Serif" font-size="10.00">/home/travis/build</text>
<text text-anchor="start" x="8" y="-24.5" font-family="Helvetica,sans-Serif" font-size="10.00">/robotology/wb&#45;toolbox</text>
<text text-anchor="middle" x="76" y="-13.5" font-family="Helvetica,sans-Serif" font-size="10.00">/toolbox/library/src/Factory.cpp</text>
</a>
</g>
</g>
<!-- Node1&#45;&gt;Node2 -->
<g id="edge1" class="edge"><title>Node1&#45;&gt;Node2</title>
<path fill="none" stroke="midnightblue" d="M126.546,-82.9141C115.568,-70.988 103.54,-57.92 93.9718,-47.5249"/>
<polygon fill="midnightblue" stroke="midnightblue" points="124.224,-85.5594 133.571,-90.5468 129.374,-80.8187 124.224,-85.5594"/>
</g>
<!-- Node3 -->
<g id="node3" class="node"><title>Node3</title>
<g id="a_node3"><a xlink:href="_forward_kinematics_8cpp.html" target="_top" xlink:title="/home/travis/build\l/robotology/wb&#45;toolbox\l/toolbox/library/src/Forward\lKinematics.cpp">
<polygon fill="none" stroke="black" points="170.5,-1 170.5,-53 305.5,-53 305.5,-1 170.5,-1"/>
<text text-anchor="start" x="178.5" y="-41" font-family="Helvetica,sans-Serif" font-size="10.00">/home/travis/build</text>
<text text-anchor="start" x="178.5" y="-30" font-family="Helvetica,sans-Serif" font-size="10.00">/robotology/wb&#45;toolbox</text>
<text text-anchor="start" x="178.5" y="-19" font-family="Helvetica,sans-Serif" font-size="10.00">/toolbox/library/src/Forward</text>
<text text-anchor="middle" x="238" y="-8" font-family="Helvetica,sans-Serif" font-size="10.00">Kinematics.cpp</text>
</a>
</g>
</g>
<!-- Node1&#45;&gt;Node3 -->
<g id="edge2" class="edge"><title>Node1&#45;&gt;Node3</title>
<path fill="none" stroke="midnightblue" d="M187.247,-83.1386C196.399,-73.1958 206.299,-62.4408 214.904,-53.0921"/>
<polygon fill="midnightblue" stroke="midnightblue" points="184.626,-80.8187 180.429,-90.5468 189.776,-85.5594 184.626,-80.8187"/>
</g>
</g>
</svg>
