<?xml version="1.0" encoding="UTF-8" standalone="no"?>
<!DOCTYPE svg PUBLIC "-//W3C//DTD SVG 1.1//EN"
 "http://www.w3.org/Graphics/SVG/1.1/DTD/svg11.dtd">
<!-- Generated by graphviz version 2.36.0 (20140111.2315)
 -->
<!-- Title: /home/travis/build/robotology/wb&#45;toolbox/toolbox/src/library/src/ForwardKinematics.cpp Pages: 1 -->
<!--zoomable 342 -->
<svg id="main" version="1.1" xmlns="http://www.w3.org/2000/svg" xmlns:xlink="http://www.w3.org/1999/xlink" xml:space="preserve" onload="init(evt)">
<style type="text/css"><![CDATA[
.edge:hover path { stroke: red; }
.edge:hover polygon { stroke: red; fill: red; }
]]></style>
<script type="text/javascript"><![CDATA[
var edges = document.getElementsByTagName('g');
if (edges && edges.length) {
  for (var i=0;i<edges.length;i++) {
    if (edges[i].id.substr(0,4)=='edge') {
      edges[i].setAttribute('class','edge');
    }
  }
}
]]></script>
        <defs>
                <circle id="rim" cx="0" cy="0" r="7"/>
                <circle id="rim2" cx="0" cy="0" r="3.5"/>
                <g id="zoomPlus">
                        <use xlink:href="#rim" fill="#404040">
                                <set attributeName="fill" to="#808080" begin="zoomplus.mouseover" end="zoomplus.mouseout"/>
                        </use>
                        <path d="M-4,0h8M0,-4v8" fill="none" stroke="white" stroke-width="1.5" pointer-events="none"/>
                </g>
                <g id="zoomMin">
                        <use xlink:href="#rim" fill="#404040">
                                <set attributeName="fill" to="#808080" begin="zoomminus.mouseover" end="zoomminus.mouseout"/>
                        </use>
                        <path d="M-4,0h8" fill="none" stroke="white" stroke-width="1.5" pointer-events="none"/>
                </g>
                <g id="dirArrow">
                        <path fill="none" stroke="white" stroke-width="1.5" d="M0,-3.0v7 M-2.5,-0.5L0,-3.0L2.5,-0.5"/>
                </g>
               <g id="resetDef">
                       <use xlink:href="#rim2" fill="#404040">
                               <set attributeName="fill" to="#808080" begin="reset.mouseover" end="reset.mouseout"/>
                       </use>
               </g>
        </defs>

<script type="text/javascript">
var viewWidth = 1656;
var viewHeight = 342;
var sectionId = 'dynsection-0';
</script>
<script xlink:href="svgpan.js"/>
<svg id="graph" class="graph">
<g id="viewport">
<title>/home/travis/build/robotology/wb&#45;toolbox/toolbox/src/library/src/ForwardKinematics.cpp</title>
<!-- Node1 -->
<g id="node1" class="node"><title>Node1</title>
<polygon fill="#bfbfbf" stroke="black" points="738,-281 738,-333 860,-333 860,-281 738,-281"/>
<text text-anchor="start" x="746" y="-321" font-family="Helvetica,sans-Serif" font-size="10.00">/home/travis/build</text>
<text text-anchor="start" x="746" y="-310" font-family="Helvetica,sans-Serif" font-size="10.00">/robotology/wb&#45;toolbox</text>
<text text-anchor="start" x="746" y="-299" font-family="Helvetica,sans-Serif" font-size="10.00">/toolbox/src/library/src</text>
<text text-anchor="middle" x="799" y="-288" font-family="Helvetica,sans-Serif" font-size="10.00">/ForwardKinematics.cpp</text>
</g>
<!-- Node2 -->
<g id="node2" class="node"><title>Node2</title>
<g id="a_node2"><a xlink:href="_forward_kinematics_8h.html" target="_top" xlink:title="ForwardKinematics.h">
<polygon fill="none" stroke="black" points="482.5,-224.5 482.5,-243.5 591.5,-243.5 591.5,-224.5 482.5,-224.5"/>
<text text-anchor="middle" x="537" y="-231.5" font-family="Helvetica,sans-Serif" font-size="10.00">ForwardKinematics.h</text>
</a>
</g>
</g>
<!-- Node1&#45;&gt;Node2 -->
<g id="edge1" class="edge"><title>Node1&#45;&gt;Node2</title>
<path fill="none" stroke="midnightblue" d="M737.903,-289.443C688.908,-276.166 621.463,-257.889 578.544,-246.258"/>
<polygon fill="midnightblue" stroke="midnightblue" points="579.284,-242.832 568.716,-243.595 577.453,-249.589 579.284,-242.832"/>
</g>
<!-- Node5 -->
<g id="node5" class="node"><title>Node5</title>
<g id="a_node5"><a xlink:href="_parameters_8h.html" target="_top" xlink:title="Core/Parameters.h">
<polygon fill="none" stroke="black" points="276.5,-56.5 276.5,-75.5 375.5,-75.5 375.5,-56.5 276.5,-56.5"/>
<text text-anchor="middle" x="326" y="-63.5" font-family="Helvetica,sans-Serif" font-size="10.00">Core/Parameters.h</text>
</a>
</g>
</g>
<!-- Node1&#45;&gt;Node5 -->
<g id="edge37" class="edge"><title>Node1&#45;&gt;Node5</title>
<path fill="none" stroke="midnightblue" d="M737.796,-301.579C670.722,-295.105 560.959,-279.668 473,-244 398.512,-213.794 364.91,-204.876 331,-132 324.285,-117.57 323.439,-99.3793 324.04,-85.9142"/>
<polygon fill="midnightblue" stroke="midnightblue" points="327.533,-86.1341 324.788,-75.9011 320.553,-85.6125 327.533,-86.1341"/>
</g>
<!-- Node9 -->
<g id="node9" class="node"><title>Node9</title>
<g id="a_node9"><a xlink:href="_configuration_8h.html" target="_top" xlink:title="Base/Configuration.h">
<polygon fill="none" stroke="black" points="150,-56.5 150,-75.5 258,-75.5 258,-56.5 150,-56.5"/>
<text text-anchor="middle" x="204" y="-63.5" font-family="Helvetica,sans-Serif" font-size="10.00">Base/Configuration.h</text>
</a>
</g>
</g>
<!-- Node1&#45;&gt;Node9 -->
<g id="edge14" class="edge"><title>Node1&#45;&gt;Node9</title>
<path fill="none" stroke="midnightblue" d="M737.73,-304.888C660.986,-301.516 526.841,-288.995 422,-244 332.415,-205.552 249.769,-119.171 217.884,-83.2003"/>
<polygon fill="midnightblue" stroke="midnightblue" points="220.432,-80.7979 211.216,-75.5717 215.162,-85.4045 220.432,-80.7979"/>
</g>
<!-- Node11 -->
<g id="node11" class="node"><title>Node11</title>
<g id="a_node11"><a xlink:href="_robot_interface_8h.html" target="_top" xlink:title="Base/RobotInterface.h">
<polygon fill="none" stroke="black" points="846.5,-56.5 846.5,-75.5 961.5,-75.5 961.5,-56.5 846.5,-56.5"/>
<text text-anchor="middle" x="904" y="-63.5" font-family="Helvetica,sans-Serif" font-size="10.00">Base/RobotInterface.h</text>
</a>
</g>
</g>
<!-- Node1&#45;&gt;Node11 -->
<g id="edge19" class="edge"><title>Node1&#45;&gt;Node11</title>
<path fill="none" stroke="midnightblue" d="M805.032,-280.821C809.295,-264.379 815.563,-242.593 823,-224 844.093,-171.27 877.05,-112.681 893.673,-84.2963"/>
<polygon fill="midnightblue" stroke="midnightblue" points="896.752,-85.965 898.825,-75.575 890.725,-82.4045 896.752,-85.965"/>
</g>
<!-- Node14 -->
<g id="node14" class="node"><title>Node14</title>
<g id="a_node14"><a xlink:href="_block_information_8h.html" target="_top" xlink:title="Core/BlockInformation.h">
<polygon fill="none" stroke="black" points="706,-56.5 706,-75.5 828,-75.5 828,-56.5 706,-56.5"/>
<text text-anchor="middle" x="767" y="-63.5" font-family="Helvetica,sans-Serif" font-size="10.00">Core/BlockInformation.h</text>
</a>
</g>
</g>
<!-- Node1&#45;&gt;Node14 -->
<g id="edge24" class="edge"><title>Node1&#45;&gt;Node14</title>
<path fill="none" stroke="midnightblue" d="M792.583,-280.796C789.918,-269.59 786.99,-256.198 785,-244 775.654,-186.713 770.33,-118.153 768.159,-85.7404"/>
<polygon fill="midnightblue" stroke="midnightblue" points="771.636,-85.2762 767.5,-75.5221 764.651,-85.7266 771.636,-85.2762"/>
</g>
<!-- Node15 -->
<g id="node15" class="node"><title>Node15</title>
<polygon fill="none" stroke="#bfbfbf" points="806,-0.5 806,-19.5 844,-19.5 844,-0.5 806,-0.5"/>
<text text-anchor="middle" x="825" y="-7.5" font-family="Helvetica,sans-Serif" font-size="10.00">tuple</text>
</g>
<!-- Node1&#45;&gt;Node15 -->
<g id="edge46" class="edge"><title>Node1&#45;&gt;Node15</title>
<path fill="none" stroke="midnightblue" d="M816.534,-280.708C827.919,-264.412 843.161,-242.827 857,-224 906.014,-157.317 943.492,-154.399 970,-76 972.847,-67.5794 975.272,-63.1565 970,-56 970,-56 896.345,-33.1414 854.025,-20.0078"/>
<polygon fill="midnightblue" stroke="midnightblue" points="854.843,-16.597 844.255,-16.9757 852.768,-23.2824 854.843,-16.597"/>
</g>
<!-- Node16 -->
<g id="node16" class="node"><title>Node16</title>
<g id="a_node16"><a xlink:href="_log_8h.html" target="_top" xlink:title="Core/Log.h">
<polygon fill="none" stroke="black" points="622.5,-56.5 622.5,-75.5 687.5,-75.5 687.5,-56.5 622.5,-56.5"/>
<text text-anchor="middle" x="655" y="-63.5" font-family="Helvetica,sans-Serif" font-size="10.00">Core/Log.h</text>
</a>
</g>
</g>
<!-- Node1&#45;&gt;Node16 -->
<g id="edge30" class="edge"><title>Node1&#45;&gt;Node16</title>
<path fill="none" stroke="midnightblue" d="M783.862,-280.875C754.581,-232.277 690.854,-126.508 665.608,-84.6058"/>
<polygon fill="midnightblue" stroke="midnightblue" points="668.474,-82.5811 660.315,-75.822 662.478,-86.1937 668.474,-82.5811"/>
</g>
<!-- Node18 -->
<g id="node18" class="node"><title>Node18</title>
<g id="a_node18"><a xlink:href="_parameter_8h.html" target="_top" xlink:title="Core/Parameter.h">
<polygon fill="none" stroke="black" points="0,-56.5 0,-75.5 94,-75.5 94,-56.5 0,-56.5"/>
<text text-anchor="middle" x="47" y="-63.5" font-family="Helvetica,sans-Serif" font-size="10.00">Core/Parameter.h</text>
</a>
</g>
</g>
<!-- Node1&#45;&gt;Node18 -->
<g id="edge34" class="edge"><title>Node1&#45;&gt;Node18</title>
<path fill="none" stroke="midnightblue" d="M737.992,-303.422C655.242,-298.482 503.675,-284.283 381,-244 254.509,-202.464 118.743,-115.602 67.8404,-81.3383"/>
<polygon fill="midnightblue" stroke="midnightblue" points="69.5852,-78.2926 59.3447,-75.5754 65.6556,-84.0856 69.5852,-78.2926"/>
</g>
<!-- Node19 -->
<g id="node19" class="node"><title>Node19</title>
<g id="a_node19"><a xlink:href="_signal_8h.html" target="_top" xlink:title="Core/Signal.h">
<polygon fill="none" stroke="black" points="604,-168.5 604,-187.5 680,-187.5 680,-168.5 604,-168.5"/>
<text text-anchor="middle" x="642" y="-175.5" font-family="Helvetica,sans-Serif" font-size="10.00">Core/Signal.h</text>
</a>
</g>
</g>
<!-- Node1&#45;&gt;Node19 -->
<g id="edge38" class="edge"><title>Node1&#45;&gt;Node19</title>
<path fill="none" stroke="midnightblue" d="M755.908,-280.833C739.099,-270.271 720.053,-257.347 704,-244 685.926,-228.973 667.644,-209.11 655.663,-195.314"/>
<polygon fill="midnightblue" stroke="midnightblue" points="658.233,-192.934 649.076,-187.605 652.911,-197.481 658.233,-192.934"/>
</g>
<!-- Node20 -->
<g id="node20" class="node"><title>Node20</title>
<polygon fill="none" stroke="#bfbfbf" points="865.5,-224.5 865.5,-243.5 930.5,-243.5 930.5,-224.5 865.5,-224.5"/>
<text text-anchor="middle" x="898" y="-231.5" font-family="Helvetica,sans-Serif" font-size="10.00">Eigen/Core</text>
</g>
<!-- Node1&#45;&gt;Node20 -->
<g id="edge40" class="edge"><title>Node1&#45;&gt;Node20</title>
<path fill="none" stroke="midnightblue" d="M833.904,-280.968C848.418,-270.559 864.77,-258.831 877.326,-249.827"/>
<polygon fill="midnightblue" stroke="midnightblue" points="879.63,-252.482 885.716,-243.81 875.55,-246.793 879.63,-252.482"/>
</g>
<!-- Node21 -->
<g id="node21" class="node"><title>Node21</title>
<polygon fill="none" stroke="#bfbfbf" points="948,-224.5 948,-243.5 1098,-243.5 1098,-224.5 948,-224.5"/>
<text text-anchor="middle" x="1023" y="-231.5" font-family="Helvetica,sans-Serif" font-size="10.00">iDynTree/Core/EigenHelpers.h</text>
</g>
<!-- Node1&#45;&gt;Node21 -->
<g id="edge41" class="edge"><title>Node1&#45;&gt;Node21</title>
<path fill="none" stroke="midnightblue" d="M860.209,-286.599C900.648,-273.781 952.295,-257.411 986.447,-246.586"/>
<polygon fill="midnightblue" stroke="midnightblue" points="987.547,-249.909 996.022,-243.551 985.432,-243.236 987.547,-249.909"/>
</g>
<!-- Node22 -->
<g id="node22" class="node"><title>Node22</title>
<polygon fill="none" stroke="#bfbfbf" points="1116,-224.5 1116,-243.5 1252,-243.5 1252,-224.5 1116,-224.5"/>
<text text-anchor="middle" x="1184" y="-231.5" font-family="Helvetica,sans-Serif" font-size="10.00">iDynTree/Core/Transform.h</text>
</g>
<!-- Node1&#45;&gt;Node22 -->
<g id="edge42" class="edge"><title>Node1&#45;&gt;Node22</title>
<path fill="none" stroke="midnightblue" d="M860.004,-294.75C933.566,-281.184 1056.2,-258.568 1127.63,-245.396"/>
<polygon fill="midnightblue" stroke="midnightblue" points="1128.58,-248.779 1137.78,-243.523 1127.31,-241.895 1128.58,-248.779"/>
</g>
<!-- Node23 -->
<g id="node23" class="node"><title>Node23</title>
<polygon fill="none" stroke="#bfbfbf" points="1270.5,-224.5 1270.5,-243.5 1431.5,-243.5 1431.5,-224.5 1270.5,-224.5"/>
<text text-anchor="middle" x="1351" y="-231.5" font-family="Helvetica,sans-Serif" font-size="10.00">iDynTree/KinDynComputations.h</text>
</g>
<!-- Node1&#45;&gt;Node23 -->
<g id="edge43" class="edge"><title>Node1&#45;&gt;Node23</title>
<path fill="none" stroke="midnightblue" d="M860.183,-298.13C961.579,-285.089 1164.21,-259.026 1274.76,-244.807"/>
<polygon fill="midnightblue" stroke="midnightblue" points="1275.36,-248.258 1284.83,-243.511 1274.47,-241.315 1275.36,-248.258"/>
</g>
<!-- Node24 -->
<g id="node24" class="node"><title>Node24</title>
<polygon fill="none" stroke="#bfbfbf" points="1450,-224.5 1450,-243.5 1578,-243.5 1578,-224.5 1450,-224.5"/>
<text text-anchor="middle" x="1514" y="-231.5" font-family="Helvetica,sans-Serif" font-size="10.00">iDynTree/Model/Indices.h</text>
</g>
<!-- Node1&#45;&gt;Node24 -->
<g id="edge44" class="edge"><title>Node1&#45;&gt;Node24</title>
<path fill="none" stroke="midnightblue" d="M860.035,-300.6C972.335,-290.555 1219.53,-267.931 1439.7,-244.006"/>
<polygon fill="midnightblue" stroke="midnightblue" points="1440.27,-247.464 1449.84,-242.902 1439.52,-240.506 1440.27,-247.464"/>
</g>
<!-- Node25 -->
<g id="node25" class="node"><title>Node25</title>
<polygon fill="none" stroke="#bfbfbf" points="1596,-224.5 1596,-243.5 1648,-243.5 1648,-224.5 1596,-224.5"/>
<text text-anchor="middle" x="1622" y="-231.5" font-family="Helvetica,sans-Serif" font-size="10.00">ostream</text>
</g>
<!-- Node1&#45;&gt;Node25 -->
<g id="edge45" class="edge"><title>Node1&#45;&gt;Node25</title>
<path fill="none" stroke="midnightblue" d="M860.24,-304.784C991.724,-301.398 1310.73,-289.021 1585.56,-243.961"/>
<polygon fill="midnightblue" stroke="midnightblue" points="1586.44,-247.363 1595.73,-242.275 1585.29,-240.458 1586.44,-247.363"/>
</g>
<!-- Node3 -->
<g id="node3" class="node"><title>Node3</title>
<g id="a_node3"><a xlink:href="_w_b_block_8h.html" target="_top" xlink:title="Base/WBBlock.h">
<polygon fill="none" stroke="black" points="397,-168.5 397,-187.5 489,-187.5 489,-168.5 397,-168.5"/>
<text text-anchor="middle" x="443" y="-175.5" font-family="Helvetica,sans-Serif" font-size="10.00">Base/WBBlock.h</text>
</a>
</g>
</g>
<!-- Node2&#45;&gt;Node3 -->
<g id="edge2" class="edge"><title>Node2&#45;&gt;Node3</title>
<path fill="none" stroke="midnightblue" d="M521.897,-224.324C507.097,-215.822 484.306,-202.729 467.018,-192.797"/>
<polygon fill="midnightblue" stroke="midnightblue" points="468.48,-189.601 458.065,-187.655 464.993,-195.671 468.48,-189.601"/>
</g>
<!-- Node6 -->
<g id="node6" class="node"><title>Node6</title>
<polygon fill="none" stroke="#bfbfbf" points="544,-0.5 544,-19.5 596,-19.5 596,-0.5 544,-0.5"/>
<text text-anchor="middle" x="570" y="-7.5" font-family="Helvetica,sans-Serif" font-size="10.00">memory</text>
</g>
<!-- Node2&#45;&gt;Node6 -->
<g id="edge12" class="edge"><title>Node2&#45;&gt;Node6</title>
<path fill="none" stroke="midnightblue" d="M538.294,-224.297C543.149,-191.633 560.358,-75.8661 567.182,-29.9573"/>
<polygon fill="midnightblue" stroke="midnightblue" points="570.671,-30.2897 568.679,-19.8837 563.747,-29.2604 570.671,-30.2897"/>
</g>
<!-- Node7 -->
<g id="node7" class="node"><title>Node7</title>
<polygon fill="none" stroke="#bfbfbf" points="421.5,-0.5 421.5,-19.5 462.5,-19.5 462.5,-0.5 421.5,-0.5"/>
<text text-anchor="middle" x="442" y="-7.5" font-family="Helvetica,sans-Serif" font-size="10.00">string</text>
</g>
<!-- Node2&#45;&gt;Node7 -->
<g id="edge13" class="edge"><title>Node2&#45;&gt;Node7</title>
<path fill="none" stroke="midnightblue" d="M533.276,-224.297C519.209,-191.425 469.127,-74.3911 449.741,-29.0904"/>
<polygon fill="midnightblue" stroke="midnightblue" points="452.954,-27.7004 445.802,-19.8837 446.518,-30.4543 452.954,-27.7004"/>
</g>
<!-- Node4 -->
<g id="node4" class="node"><title>Node4</title>
<g id="a_node4"><a xlink:href="_block_8h.html" target="_top" xlink:title="Core/Block.h">
<polygon fill="none" stroke="black" points="340,-112.5 340,-131.5 414,-131.5 414,-112.5 340,-112.5"/>
<text text-anchor="middle" x="377" y="-119.5" font-family="Helvetica,sans-Serif" font-size="10.00">Core/Block.h</text>
</a>
</g>
</g>
<!-- Node3&#45;&gt;Node4 -->
<g id="edge3" class="edge"><title>Node3&#45;&gt;Node4</title>
<path fill="none" stroke="midnightblue" d="M432.396,-168.324C422.544,-160.263 407.649,-148.077 395.785,-138.369"/>
<polygon fill="midnightblue" stroke="midnightblue" points="397.753,-135.457 387.797,-131.834 393.32,-140.875 397.753,-135.457"/>
</g>
<!-- Node3&#45;&gt;Node6 -->
<g id="edge10" class="edge"><title>Node3&#45;&gt;Node6</title>
<path fill="none" stroke="midnightblue" d="M449.828,-168.075C470.165,-141.493 530.57,-62.5379 557.175,-27.7633"/>
<polygon fill="midnightblue" stroke="midnightblue" points="560.148,-29.6371 563.445,-19.5681 554.589,-25.3836 560.148,-29.6371"/>
</g>
<!-- Node3&#45;&gt;Node7 -->
<g id="edge11" class="edge"><title>Node3&#45;&gt;Node7</title>
<path fill="none" stroke="midnightblue" d="M442.946,-168.075C442.789,-141.945 442.327,-65.2106 442.112,-29.577"/>
<polygon fill="midnightblue" stroke="midnightblue" points="445.612,-29.5468 442.052,-19.5681 438.612,-29.589 445.612,-29.5468"/>
</g>
<!-- Node4&#45;&gt;Node5 -->
<g id="edge4" class="edge"><title>Node4&#45;&gt;Node5</title>
<path fill="none" stroke="midnightblue" d="M368.578,-112.083C361.152,-104.22 350.148,-92.5688 341.188,-83.0813"/>
<polygon fill="midnightblue" stroke="midnightblue" points="343.676,-80.618 334.265,-75.7511 338.587,-85.4244 343.676,-80.618"/>
</g>
<!-- Node4&#45;&gt;Node7 -->
<g id="edge8" class="edge"><title>Node4&#45;&gt;Node7</title>
<path fill="none" stroke="midnightblue" d="M382.1,-112.368C392.78,-94.2957 417.668,-52.1764 431.773,-28.3074"/>
<polygon fill="midnightblue" stroke="midnightblue" points="434.849,-29.9813 436.923,-19.5914 428.823,-26.4201 434.849,-29.9813"/>
</g>
<!-- Node8 -->
<g id="node8" class="node"><title>Node8</title>
<polygon fill="none" stroke="#bfbfbf" points="152,-0.5 152,-19.5 196,-19.5 196,-0.5 152,-0.5"/>
<text text-anchor="middle" x="174" y="-7.5" font-family="Helvetica,sans-Serif" font-size="10.00">vector</text>
</g>
<!-- Node4&#45;&gt;Node8 -->
<g id="edge9" class="edge"><title>Node4&#45;&gt;Node8</title>
<path fill="none" stroke="midnightblue" d="M339.744,-119.477C279.716,-116.155 165.794,-105.968 141,-76 128.611,-61.0259 142.96,-40.6278 156.426,-26.7009"/>
<polygon fill="midnightblue" stroke="midnightblue" points="158.898,-29.1789 163.641,-19.705 154.026,-24.1534 158.898,-29.1789"/>
</g>
<!-- Node5&#45;&gt;Node6 -->
<g id="edge5" class="edge"><title>Node5&#45;&gt;Node6</title>
<path fill="none" stroke="midnightblue" d="M364.663,-56.4435C411.163,-46.1524 488.605,-29.0136 533.922,-18.9844"/>
<polygon fill="midnightblue" stroke="midnightblue" points="534.89,-22.355 543.898,-16.7767 533.378,-15.5203 534.89,-22.355"/>
</g>
<!-- Node5&#45;&gt;Node7 -->
<g id="edge6" class="edge"><title>Node5&#45;&gt;Node7</title>
<path fill="none" stroke="midnightblue" d="M344.381,-56.4435C363.216,-47.6751 392.731,-33.9355 414.379,-23.8579"/>
<polygon fill="midnightblue" stroke="midnightblue" points="416.117,-26.9098 423.705,-19.5164 413.162,-20.5637 416.117,-26.9098"/>
</g>
<!-- Node5&#45;&gt;Node8 -->
<g id="edge7" class="edge"><title>Node5&#45;&gt;Node8</title>
<path fill="none" stroke="midnightblue" d="M301.915,-56.4435C276.006,-47.239 234.677,-32.5565 206.04,-22.3826"/>
<polygon fill="midnightblue" stroke="midnightblue" points="207.08,-19.038 196.486,-18.9883 204.737,-25.6341 207.08,-19.038"/>
</g>
<!-- Node9&#45;&gt;Node6 -->
<g id="edge16" class="edge"><title>Node9&#45;&gt;Node6</title>
<path fill="none" stroke="midnightblue" d="M258.005,-57.0321C333.537,-45.888 468.722,-25.9427 533.473,-16.3893"/>
<polygon fill="midnightblue" stroke="midnightblue" points="534.227,-19.8159 543.609,-14.8937 533.205,-12.8909 534.227,-19.8159"/>
</g>
<!-- Node9&#45;&gt;Node7 -->
<g id="edge17" class="edge"><title>Node9&#45;&gt;Node7</title>
<path fill="none" stroke="midnightblue" d="M241.712,-56.4435C288.694,-45.7836 368.059,-27.7765 411.438,-17.9343"/>
<polygon fill="midnightblue" stroke="midnightblue" points="412.418,-21.3009 421.396,-15.6749 410.869,-14.4744 412.418,-21.3009"/>
</g>
<!-- Node9&#45;&gt;Node8 -->
<g id="edge18" class="edge"><title>Node9&#45;&gt;Node8</title>
<path fill="none" stroke="midnightblue" d="M199.046,-56.083C194.896,-48.6127 188.847,-37.7244 183.733,-28.5199"/>
<polygon fill="midnightblue" stroke="midnightblue" points="186.778,-26.7929 178.862,-19.7511 180.659,-30.1924 186.778,-26.7929"/>
</g>
<!-- Node10 -->
<g id="node10" class="node"><title>Node10</title>
<polygon fill="none" stroke="#bfbfbf" points="214,-0.5 214,-19.5 252,-19.5 252,-0.5 214,-0.5"/>
<text text-anchor="middle" x="233" y="-7.5" font-family="Helvetica,sans-Serif" font-size="10.00">array</text>
</g>
<!-- Node9&#45;&gt;Node10 -->
<g id="edge15" class="edge"><title>Node9&#45;&gt;Node10</title>
<path fill="none" stroke="midnightblue" d="M208.789,-56.083C212.758,-48.6913 218.525,-37.9533 223.435,-28.8111"/>
<polygon fill="midnightblue" stroke="midnightblue" points="226.653,-30.217 228.3,-19.7511 220.486,-26.9051 226.653,-30.217"/>
</g>
<!-- Node11&#45;&gt;Node6 -->
<g id="edge20" class="edge"><title>Node11&#45;&gt;Node6</title>
<path fill="none" stroke="midnightblue" d="M847.902,-56.4659C790.573,-47.6614 699,-33.3673 620,-20 615.525,-19.2429 610.83,-18.4265 606.182,-17.6053"/>
<polygon fill="midnightblue" stroke="midnightblue" points="606.651,-14.1337 596.191,-15.8211 605.42,-21.0246 606.651,-14.1337"/>
</g>
<!-- Node11&#45;&gt;Node7 -->
<g id="edge21" class="edge"><title>Node11&#45;&gt;Node7</title>
<path fill="none" stroke="midnightblue" d="M846.266,-57.1698C843.132,-56.7682 840.028,-56.3758 837,-56 701.396,-39.1697 539.292,-21.4575 472.777,-14.2933"/>
<polygon fill="midnightblue" stroke="midnightblue" points="472.895,-10.7859 462.578,-13.1968 472.146,-17.7458 472.895,-10.7859"/>
</g>
<!-- Node12 -->
<g id="node12" class="node"><title>Node12</title>
<polygon fill="none" stroke="#bfbfbf" points="862.5,-0.5 862.5,-19.5 945.5,-19.5 945.5,-0.5 862.5,-0.5"/>
<text text-anchor="middle" x="904" y="-7.5" font-family="Helvetica,sans-Serif" font-size="10.00">unordered_map</text>
</g>
<!-- Node11&#45;&gt;Node12 -->
<g id="edge22" class="edge"><title>Node11&#45;&gt;Node12</title>
<path fill="none" stroke="midnightblue" d="M904,-56.083C904,-49.0059 904,-38.8611 904,-29.9865"/>
<polygon fill="midnightblue" stroke="midnightblue" points="907.5,-29.751 904,-19.7511 900.5,-29.7511 907.5,-29.751"/>
</g>
<!-- Node13 -->
<g id="node13" class="node"><title>Node13</title>
<polygon fill="none" stroke="#bfbfbf" points="747,-0.5 747,-19.5 787,-19.5 787,-0.5 747,-0.5"/>
<text text-anchor="middle" x="767" y="-7.5" font-family="Helvetica,sans-Serif" font-size="10.00">utility</text>
</g>
<!-- Node11&#45;&gt;Node13 -->
<g id="edge23" class="edge"><title>Node11&#45;&gt;Node13</title>
<path fill="none" stroke="midnightblue" d="M882.292,-56.4435C859.246,-47.3596 822.663,-32.9402 796.898,-22.7847"/>
<polygon fill="midnightblue" stroke="midnightblue" points="797.854,-19.3992 787.267,-18.9883 795.287,-25.9116 797.854,-19.3992"/>
</g>
<!-- Node14&#45;&gt;Node6 -->
<g id="edge25" class="edge"><title>Node14&#45;&gt;Node6</title>
<path fill="none" stroke="midnightblue" d="M735.785,-56.4435C700.48,-46.7662 643.086,-31.0336 605.941,-20.8518"/>
<polygon fill="midnightblue" stroke="midnightblue" points="606.606,-17.405 596.036,-18.1368 604.755,-24.156 606.606,-17.405"/>
</g>
<!-- Node14&#45;&gt;Node7 -->
<g id="edge26" class="edge"><title>Node14&#45;&gt;Node7</title>
<path fill="none" stroke="midnightblue" d="M715.503,-56.4435C647.066,-45.0725 528.313,-25.3413 472.563,-16.0781"/>
<polygon fill="midnightblue" stroke="midnightblue" points="473.037,-12.6091 462.599,-14.4226 471.89,-19.5144 473.037,-12.6091"/>
</g>
<!-- Node14&#45;&gt;Node8 -->
<g id="edge29" class="edge"><title>Node14&#45;&gt;Node8</title>
<path fill="none" stroke="midnightblue" d="M705.832,-57.0378C702.508,-56.6703 699.214,-56.3214 696,-56 481.573,-34.5638 422.146,-57.9844 206.283,-19.8566"/>
<polygon fill="midnightblue" stroke="midnightblue" points="206.679,-16.3718 196.218,-18.0546 205.445,-23.2622 206.679,-16.3718"/>
</g>
<!-- Node14&#45;&gt;Node13 -->
<g id="edge28" class="edge"><title>Node14&#45;&gt;Node13</title>
<path fill="none" stroke="midnightblue" d="M767,-56.083C767,-49.0059 767,-38.8611 767,-29.9865"/>
<polygon fill="midnightblue" stroke="midnightblue" points="770.5,-29.751 767,-19.7511 763.5,-29.7511 770.5,-29.751"/>
</g>
<!-- Node14&#45;&gt;Node15 -->
<g id="edge27" class="edge"><title>Node14&#45;&gt;Node15</title>
<path fill="none" stroke="midnightblue" d="M776.319,-56.324C784.893,-48.3414 797.812,-36.3128 808.188,-26.6529"/>
<polygon fill="midnightblue" stroke="midnightblue" points="810.578,-29.2098 815.512,-19.8339 805.808,-24.0865 810.578,-29.2098"/>
</g>
<!-- Node16&#45;&gt;Node6 -->
<g id="edge31" class="edge"><title>Node16&#45;&gt;Node6</title>
<path fill="none" stroke="midnightblue" d="M641.343,-56.324C628.084,-47.9002 607.732,-34.9709 592.154,-25.0741"/>
<polygon fill="midnightblue" stroke="midnightblue" points="593.94,-22.0626 583.623,-19.6545 590.187,-27.9711 593.94,-22.0626"/>
</g>
<!-- Node16&#45;&gt;Node7 -->
<g id="edge33" class="edge"><title>Node16&#45;&gt;Node7</title>
<path fill="none" stroke="midnightblue" d="M622.186,-56.6808C581.372,-46.3337 512.239,-28.807 472.521,-18.7377"/>
<polygon fill="midnightblue" stroke="midnightblue" points="473.173,-15.2923 462.619,-16.2274 471.452,-22.0776 473.173,-15.2923"/>
</g>
<!-- Node17 -->
<g id="node17" class="node"><title>Node17</title>
<polygon fill="none" stroke="#bfbfbf" points="629,-0.5 629,-19.5 681,-19.5 681,-0.5 629,-0.5"/>
<text text-anchor="middle" x="655" y="-7.5" font-family="Helvetica,sans-Serif" font-size="10.00">sstream</text>
</g>
<!-- Node16&#45;&gt;Node17 -->
<g id="edge32" class="edge"><title>Node16&#45;&gt;Node17</title>
<path fill="none" stroke="midnightblue" d="M655,-56.083C655,-49.0059 655,-38.8611 655,-29.9865"/>
<polygon fill="midnightblue" stroke="midnightblue" points="658.5,-29.751 655,-19.7511 651.5,-29.7511 658.5,-29.751"/>
</g>
<!-- Node18&#45;&gt;Node7 -->
<g id="edge35" class="edge"><title>Node18&#45;&gt;Node7</title>
<path fill="none" stroke="midnightblue" d="M94.2539,-58.54C176.087,-47.3527 342.022,-24.6678 410.922,-15.2486"/>
<polygon fill="midnightblue" stroke="midnightblue" points="411.686,-18.6769 421.12,-13.8545 410.738,-11.7414 411.686,-18.6769"/>
</g>
<!-- Node18&#45;&gt;Node8 -->
<g id="edge36" class="edge"><title>Node18&#45;&gt;Node8</title>
<path fill="none" stroke="midnightblue" d="M67.1235,-56.4435C88.0243,-47.5566 120.935,-33.5632 144.716,-23.4514"/>
<polygon fill="midnightblue" stroke="midnightblue" points="146.138,-26.6504 153.971,-19.5164 143.398,-20.2085 146.138,-26.6504"/>
</g>
<!-- Node19&#45;&gt;Node6 -->
<g id="edge39" class="edge"><title>Node19&#45;&gt;Node6</title>
<path fill="none" stroke="midnightblue" d="M638.129,-168.075C626.746,-141.832 593.224,-64.5453 577.858,-29.1165"/>
<polygon fill="midnightblue" stroke="midnightblue" points="580.906,-27.3496 573.716,-19.5681 574.485,-30.1351 580.906,-27.3496"/>
</g>
</g>
</svg>
        <g id="navigator" transform="translate(0 0)" fill="#404254">
                <rect fill="#f2f5e9" fill-opacity="0.5" stroke="#606060" stroke-width=".5" x="0" y="0" width="60" height="60"/>
                <use id="zoomplus" xlink:href="#zoomPlus" x="17" y="9" onmousedown="handleZoom(evt,'in')"/>
                <use id="zoomminus" xlink:href="#zoomMin" x="42" y="9" onmousedown="handleZoom(evt,'out')"/>
                <use id="reset" xlink:href="#resetDef" x="30" y="36" onmousedown="handleReset()"/>
                <g id="arrowUp" xlink:href="#dirArrow" transform="translate(30 24)" onmousedown="handlePan(0,-1)">
                  <use xlink:href="#rim" fill="#404040">
                        <set attributeName="fill" to="#808080" begin="arrowUp.mouseover" end="arrowUp.mouseout"/>
                  </use>
                  <path fill="none" stroke="white" stroke-width="1.5" d="M0,-3.0v7 M-2.5,-0.5L0,-3.0L2.5,-0.5"/>
                </g>
                <g id="arrowRight" xlink:href="#dirArrow" transform="rotate(90) translate(36 -43)" onmousedown="handlePan(1,0)">
                  <use xlink:href="#rim" fill="#404040">
                        <set attributeName="fill" to="#808080" begin="arrowRight.mouseover" end="arrowRight.mouseout"/>
                  </use>
                  <path fill="none" stroke="white" stroke-width="1.5" d="M0,-3.0v7 M-2.5,-0.5L0,-3.0L2.5,-0.5"/>
                </g>
                <g id="arrowDown" xlink:href="#dirArrow" transform="rotate(180) translate(-30 -48)" onmousedown="handlePan(0,1)">
                  <use xlink:href="#rim" fill="#404040">
                        <set attributeName="fill" to="#808080" begin="arrowDown.mouseover" end="arrowDown.mouseout"/>
                  </use>
                  <path fill="none" stroke="white" stroke-width="1.5" d="M0,-3.0v7 M-2.5,-0.5L0,-3.0L2.5,-0.5"/>
                </g>
                <g id="arrowLeft" xlink:href="#dirArrow" transform="rotate(270) translate(-36 17)" onmousedown="handlePan(-1,0)">
                  <use xlink:href="#rim" fill="#404040">
                        <set attributeName="fill" to="#808080" begin="arrowLeft.mouseover" end="arrowLeft.mouseout"/>
                  </use>
                  <path fill="none" stroke="white" stroke-width="1.5" d="M0,-3.0v7 M-2.5,-0.5L0,-3.0L2.5,-0.5"/>
                </g>
        </g>
        <svg viewBox="0 0 15 15" width="100%" height="30px" preserveAspectRatio="xMaxYMin meet">
         <g id="arrow_out" transform="scale(0.3 0.3)">
          <a xlink:href="_forward_kinematics_8cpp__incl_org.svg" target="_base">
           <rect id="button" ry="5" rx="5" y="6" x="6" height="38" width="38"
                fill="#f2f5e9" fill-opacity="0.5" stroke="#606060" stroke-width="1.0"/>
           <path id="arrow"
             d="M 11.500037,31.436501 C 11.940474,20.09759 22.043105,11.32322 32.158766,21.979434 L 37.068811,17.246167 C 37.068811,17.246167 37.088388,32 37.088388,32 L 22.160133,31.978069 C 22.160133,31.978069 26.997745,27.140456 26.997745,27.140456 C 18.528582,18.264221 13.291696,25.230495 11.500037,31.436501 z"
             style="fill:#404040;"/>
          </a>
         </g>
        </svg>
</svg>
