<?xml version="1.0" encoding="UTF-8" standalone="no"?>
<!DOCTYPE svg PUBLIC "-//W3C//DTD SVG 1.1//EN"
 "http://www.w3.org/Graphics/SVG/1.1/DTD/svg11.dtd">
<!-- Generated by graphviz version 2.36.0 (20140111.2315)
 -->
<!-- Title: /home/travis/build/robotology/wb&#45;toolbox/toolbox/src/ForwardKinematics.cpp Pages: 1 -->
<svg width="1540pt" height="330pt"
 viewBox="0.00 0.00 1540.00 330.00" xmlns="http://www.w3.org/2000/svg" xmlns:xlink="http://www.w3.org/1999/xlink">
<g id="graph0" class="graph" transform="scale(1 1) rotate(0) translate(4 326)">
<title>/home/travis/build/robotology/wb&#45;toolbox/toolbox/src/ForwardKinematics.cpp</title>
<!-- Node1 -->
<g id="node1" class="node"><title>Node1</title>
<polygon fill="#bfbfbf" stroke="black" points="596.5,-280.5 596.5,-321.5 769.5,-321.5 769.5,-280.5 596.5,-280.5"/>
<text text-anchor="start" x="604.5" y="-309.5" font-family="Helvetica,sans-Serif" font-size="10.00">/home/travis/build</text>
<text text-anchor="start" x="604.5" y="-298.5" font-family="Helvetica,sans-Serif" font-size="10.00">/robotology/wb&#45;toolbox</text>
<text text-anchor="middle" x="683" y="-287.5" font-family="Helvetica,sans-Serif" font-size="10.00">/toolbox/src/ForwardKinematics.cpp</text>
</g>
<!-- Node2 -->
<g id="node2" class="node"><title>Node2</title>
<g id="a_node2"><a xlink:href="_forward_kinematics_8h.html" target="_top" xlink:title="ForwardKinematics.h">
<polygon fill="none" stroke="black" points="365.5,-224.5 365.5,-243.5 474.5,-243.5 474.5,-224.5 365.5,-224.5"/>
<text text-anchor="middle" x="420" y="-231.5" font-family="Helvetica,sans-Serif" font-size="10.00">ForwardKinematics.h</text>
</a>
</g>
</g>
<!-- Node1&#45;&gt;Node2 -->
<g id="edge1" class="edge"><title>Node1&#45;&gt;Node2</title>
<path fill="none" stroke="midnightblue" d="M604.091,-280.498C558.395,-269.204 502.555,-255.403 464.438,-245.983"/>
<polygon fill="midnightblue" stroke="midnightblue" points="465.211,-242.569 454.664,-243.567 463.532,-249.364 465.211,-242.569"/>
</g>
<!-- Node5 -->
<g id="node5" class="node"><title>Node5</title>
<g id="a_node5"><a xlink:href="_parameters_8h.html" target="_top" xlink:title="Parameters.h">
<polygon fill="none" stroke="black" points="222.5,-56.5 222.5,-75.5 297.5,-75.5 297.5,-56.5 222.5,-56.5"/>
<text text-anchor="middle" x="260" y="-63.5" font-family="Helvetica,sans-Serif" font-size="10.00">Parameters.h</text>
</a>
</g>
</g>
<!-- Node1&#45;&gt;Node5 -->
<g id="edge31" class="edge"><title>Node1&#45;&gt;Node5</title>
<path fill="none" stroke="midnightblue" d="M596.29,-292.138C513.521,-283.397 395.716,-267.363 356,-244 297.018,-209.303 272.107,-124.178 263.648,-86.0319"/>
<polygon fill="midnightblue" stroke="midnightblue" points="266.987,-84.892 261.532,-75.8093 260.132,-86.3113 266.987,-84.892"/>
</g>
<!-- Node9 -->
<g id="node9" class="node"><title>Node9</title>
<g id="a_node9"><a xlink:href="_block_information_8h.html" target="_top" xlink:title="BlockInformation.h">
<polygon fill="none" stroke="black" points="722,-56.5 722,-75.5 820,-75.5 820,-56.5 722,-56.5"/>
<text text-anchor="middle" x="771" y="-63.5" font-family="Helvetica,sans-Serif" font-size="10.00">BlockInformation.h</text>
</a>
</g>
</g>
<!-- Node1&#45;&gt;Node9 -->
<g id="edge14" class="edge"><title>Node1&#45;&gt;Node9</title>
<path fill="none" stroke="midnightblue" d="M688.686,-280.487C693.298,-265.049 700.14,-243.001 707,-224 725.428,-172.959 750.506,-114.009 763.098,-85.0127"/>
<polygon fill="midnightblue" stroke="midnightblue" points="766.346,-86.3203 767.138,-75.7551 759.931,-83.521 766.346,-86.3203"/>
</g>
<!-- Node10 -->
<g id="node10" class="node"><title>Node10</title>
<polygon fill="none" stroke="#bfbfbf" points="812,-0.5 812,-19.5 850,-19.5 850,-0.5 812,-0.5"/>
<text text-anchor="middle" x="831" y="-7.5" font-family="Helvetica,sans-Serif" font-size="10.00">tuple</text>
</g>
<!-- Node1&#45;&gt;Node10 -->
<g id="edge45" class="edge"><title>Node1&#45;&gt;Node10</title>
<path fill="none" stroke="midnightblue" d="M697.726,-280.252C731.693,-234.263 813.713,-120.554 828,-76 832.802,-61.024 833.269,-43.1132 832.695,-29.8888"/>
<polygon fill="midnightblue" stroke="midnightblue" points="836.17,-29.4071 832.005,-19.6652 829.186,-29.878 836.17,-29.4071"/>
</g>
<!-- Node12 -->
<g id="node12" class="node"><title>Node12</title>
<g id="a_node12"><a xlink:href="_configuration_8h.html" target="_top" xlink:title="Configuration.h">
<polygon fill="none" stroke="black" points="121.5,-56.5 121.5,-75.5 204.5,-75.5 204.5,-56.5 121.5,-56.5"/>
<text text-anchor="middle" x="163" y="-63.5" font-family="Helvetica,sans-Serif" font-size="10.00">Configuration.h</text>
</a>
</g>
</g>
<!-- Node1&#45;&gt;Node12 -->
<g id="edge19" class="edge"><title>Node1&#45;&gt;Node12</title>
<path fill="none" stroke="midnightblue" d="M596.172,-292.755C506.688,-284.15 374.087,-267.885 329,-244 255.526,-205.076 196.677,-120.967 173.573,-84.4781"/>
<polygon fill="midnightblue" stroke="midnightblue" points="176.498,-82.5537 168.251,-75.9031 170.551,-86.2453 176.498,-82.5537"/>
</g>
<!-- Node14 -->
<g id="node14" class="node"><title>Node14</title>
<g id="a_node14"><a xlink:href="_log_8h.html" target="_top" xlink:title="Log.h">
<polygon fill="none" stroke="black" points="556.5,-56.5 556.5,-75.5 597.5,-75.5 597.5,-56.5 556.5,-56.5"/>
<text text-anchor="middle" x="577" y="-63.5" font-family="Helvetica,sans-Serif" font-size="10.00">Log.h</text>
</a>
</g>
</g>
<!-- Node1&#45;&gt;Node14 -->
<g id="edge24" class="edge"><title>Node1&#45;&gt;Node14</title>
<path fill="none" stroke="midnightblue" d="M673.962,-280.135C653.611,-235.401 604.459,-127.358 585.064,-84.7255"/>
<polygon fill="midnightblue" stroke="midnightblue" points="588.233,-83.2393 580.906,-75.5863 581.861,-86.138 588.233,-83.2393"/>
</g>
<!-- Node16 -->
<g id="node16" class="node"><title>Node16</title>
<g id="a_node16"><a xlink:href="_parameter_8h.html" target="_top" xlink:title="Parameter.h">
<polygon fill="none" stroke="black" points="468,-56.5 468,-75.5 538,-75.5 538,-56.5 468,-56.5"/>
<text text-anchor="middle" x="503" y="-63.5" font-family="Helvetica,sans-Serif" font-size="10.00">Parameter.h</text>
</a>
</g>
</g>
<!-- Node1&#45;&gt;Node16 -->
<g id="edge28" class="edge"><title>Node1&#45;&gt;Node16</title>
<path fill="none" stroke="midnightblue" d="M667.653,-280.135C632.803,-235.022 548.213,-125.526 515.869,-83.658"/>
<polygon fill="midnightblue" stroke="midnightblue" points="518.517,-81.3602 509.633,-75.5863 512.977,-85.6397 518.517,-81.3602"/>
</g>
<!-- Node17 -->
<g id="node17" class="node"><title>Node17</title>
<g id="a_node17"><a xlink:href="_robot_interface_8h.html" target="_top" xlink:title="RobotInterface.h">
<polygon fill="none" stroke="black" points="615.5,-56.5 615.5,-75.5 704.5,-75.5 704.5,-56.5 615.5,-56.5"/>
<text text-anchor="middle" x="660" y="-63.5" font-family="Helvetica,sans-Serif" font-size="10.00">RobotInterface.h</text>
</a>
</g>
</g>
<!-- Node1&#45;&gt;Node17 -->
<g id="edge32" class="edge"><title>Node1&#45;&gt;Node17</title>
<path fill="none" stroke="midnightblue" d="M677.132,-280.491C674.173,-269.814 670.831,-256.291 669,-244 660.48,-186.81 659.619,-118.205 659.763,-85.761"/>
<polygon fill="midnightblue" stroke="midnightblue" points="663.265,-85.5615 659.85,-75.5322 656.265,-85.5023 663.265,-85.5615"/>
</g>
<!-- Node19 -->
<g id="node19" class="node"><title>Node19</title>
<g id="a_node19"><a xlink:href="_signal_8h.html" target="_top" xlink:title="Signal.h">
<polygon fill="none" stroke="black" points="0,-168.5 0,-187.5 52,-187.5 52,-168.5 0,-168.5"/>
<text text-anchor="middle" x="26" y="-175.5" font-family="Helvetica,sans-Serif" font-size="10.00">Signal.h</text>
</a>
</g>
</g>
<!-- Node1&#45;&gt;Node19 -->
<g id="edge37" class="edge"><title>Node1&#45;&gt;Node19</title>
<path fill="none" stroke="midnightblue" d="M596.283,-300.099C451.153,-298.933 166.363,-290.553 79,-244 59.1828,-233.44 44.008,-212.014 35.0741,-196.646"/>
<polygon fill="midnightblue" stroke="midnightblue" points="37.9916,-194.687 30.1184,-187.597 31.852,-198.049 37.9916,-194.687"/>
</g>
<!-- Node20 -->
<g id="node20" class="node"><title>Node20</title>
<polygon fill="none" stroke="#bfbfbf" points="749.5,-224.5 749.5,-243.5 814.5,-243.5 814.5,-224.5 749.5,-224.5"/>
<text text-anchor="middle" x="782" y="-231.5" font-family="Helvetica,sans-Serif" font-size="10.00">Eigen/Core</text>
</g>
<!-- Node1&#45;&gt;Node20 -->
<g id="edge39" class="edge"><title>Node1&#45;&gt;Node20</title>
<path fill="none" stroke="midnightblue" d="M712.703,-280.498C728.028,-270.436 746.383,-258.385 760.352,-249.214"/>
<polygon fill="midnightblue" stroke="midnightblue" points="762.383,-252.067 768.822,-243.652 758.541,-246.215 762.383,-252.067"/>
</g>
<!-- Node21 -->
<g id="node21" class="node"><title>Node21</title>
<polygon fill="none" stroke="#bfbfbf" points="832,-224.5 832,-243.5 982,-243.5 982,-224.5 832,-224.5"/>
<text text-anchor="middle" x="907" y="-231.5" font-family="Helvetica,sans-Serif" font-size="10.00">iDynTree/Core/EigenHelpers.h</text>
</g>
<!-- Node1&#45;&gt;Node21 -->
<g id="edge40" class="edge"><title>Node1&#45;&gt;Node21</title>
<path fill="none" stroke="midnightblue" d="M750.207,-280.498C788.465,-269.396 835.07,-255.872 867.481,-246.468"/>
<polygon fill="midnightblue" stroke="midnightblue" points="868.848,-249.715 877.477,-243.567 866.897,-242.993 868.848,-249.715"/>
</g>
<!-- Node22 -->
<g id="node22" class="node"><title>Node22</title>
<polygon fill="none" stroke="#bfbfbf" points="1000,-224.5 1000,-243.5 1136,-243.5 1136,-224.5 1000,-224.5"/>
<text text-anchor="middle" x="1068" y="-231.5" font-family="Helvetica,sans-Serif" font-size="10.00">iDynTree/Core/Transform.h</text>
</g>
<!-- Node1&#45;&gt;Node22 -->
<g id="edge41" class="edge"><title>Node1&#45;&gt;Node22</title>
<path fill="none" stroke="midnightblue" d="M769.882,-285.332C842.3,-273.105 943.602,-256.002 1007.49,-245.216"/>
<polygon fill="midnightblue" stroke="midnightblue" points="1008.14,-248.656 1017.41,-243.54 1006.97,-241.754 1008.14,-248.656"/>
</g>
<!-- Node23 -->
<g id="node23" class="node"><title>Node23</title>
<polygon fill="none" stroke="#bfbfbf" points="1154.5,-224.5 1154.5,-243.5 1315.5,-243.5 1315.5,-224.5 1154.5,-224.5"/>
<text text-anchor="middle" x="1235" y="-231.5" font-family="Helvetica,sans-Serif" font-size="10.00">iDynTree/KinDynComputations.h</text>
</g>
<!-- Node1&#45;&gt;Node23 -->
<g id="edge42" class="edge"><title>Node1&#45;&gt;Node23</title>
<path fill="none" stroke="midnightblue" d="M769.553,-289.808C874.383,-277.464 1049.68,-256.823 1152.6,-244.703"/>
<polygon fill="midnightblue" stroke="midnightblue" points="1153.12,-248.166 1162.64,-243.521 1152.3,-241.214 1153.12,-248.166"/>
</g>
<!-- Node24 -->
<g id="node24" class="node"><title>Node24</title>
<polygon fill="none" stroke="#bfbfbf" points="1334,-224.5 1334,-243.5 1462,-243.5 1462,-224.5 1334,-224.5"/>
<text text-anchor="middle" x="1398" y="-231.5" font-family="Helvetica,sans-Serif" font-size="10.00">iDynTree/Model/Indices.h</text>
</g>
<!-- Node1&#45;&gt;Node24 -->
<g id="edge43" class="edge"><title>Node1&#45;&gt;Node24</title>
<path fill="none" stroke="midnightblue" d="M769.661,-293.366C890.949,-283.872 1118.48,-265.299 1323.77,-243.987"/>
<polygon fill="midnightblue" stroke="midnightblue" points="1324.26,-247.456 1333.84,-242.938 1323.53,-240.494 1324.26,-247.456"/>
</g>
<!-- Node25 -->
<g id="node25" class="node"><title>Node25</title>
<polygon fill="none" stroke="#bfbfbf" points="1480,-224.5 1480,-243.5 1532,-243.5 1532,-224.5 1480,-224.5"/>
<text text-anchor="middle" x="1506" y="-231.5" font-family="Helvetica,sans-Serif" font-size="10.00">ostream</text>
</g>
<!-- Node1&#45;&gt;Node25 -->
<g id="edge44" class="edge"><title>Node1&#45;&gt;Node25</title>
<path fill="none" stroke="midnightblue" d="M769.585,-298.949C913.445,-296.08 1210.7,-285.388 1469.76,-243.912"/>
<polygon fill="midnightblue" stroke="midnightblue" points="1470.42,-247.351 1479.73,-242.297 1469.3,-240.441 1470.42,-247.351"/>
</g>
<!-- Node3 -->
<g id="node3" class="node"><title>Node3</title>
<g id="a_node3"><a xlink:href="_w_b_block_8h.html" target="_top" xlink:title="WBBlock.h">
<polygon fill="none" stroke="black" points="320,-168.5 320,-187.5 386,-187.5 386,-168.5 320,-168.5"/>
<text text-anchor="middle" x="353" y="-175.5" font-family="Helvetica,sans-Serif" font-size="10.00">WBBlock.h</text>
</a>
</g>
</g>
<!-- Node2&#45;&gt;Node3 -->
<g id="edge2" class="edge"><title>Node2&#45;&gt;Node3</title>
<path fill="none" stroke="midnightblue" d="M409.235,-224.324C399.234,-216.263 384.113,-204.077 372.07,-194.369"/>
<polygon fill="midnightblue" stroke="midnightblue" points="373.943,-191.384 363.961,-187.834 369.55,-196.834 373.943,-191.384"/>
</g>
<!-- Node6 -->
<g id="node6" class="node"><title>Node6</title>
<polygon fill="none" stroke="#bfbfbf" points="169,-0.5 169,-19.5 221,-19.5 221,-0.5 169,-0.5"/>
<text text-anchor="middle" x="195" y="-7.5" font-family="Helvetica,sans-Serif" font-size="10.00">memory</text>
</g>
<!-- Node2&#45;&gt;Node6 -->
<g id="edge12" class="edge"><title>Node2&#45;&gt;Node6</title>
<path fill="none" stroke="midnightblue" d="M368.847,-224.498C309.178,-212.46 210.045,-185.655 142,-132 112.5,-108.738 85.2493,-87.9573 105,-56 111.59,-45.3378 139.071,-32.4893 161.952,-23.2558"/>
<polygon fill="midnightblue" stroke="midnightblue" points="163.378,-26.4558 171.402,-19.5368 160.815,-19.942 163.378,-26.4558"/>
</g>
<!-- Node7 -->
<g id="node7" class="node"><title>Node7</title>
<polygon fill="none" stroke="#bfbfbf" points="419.5,-0.5 419.5,-19.5 460.5,-19.5 460.5,-0.5 419.5,-0.5"/>
<text text-anchor="middle" x="440" y="-7.5" font-family="Helvetica,sans-Serif" font-size="10.00">string</text>
</g>
<!-- Node2&#45;&gt;Node7 -->
<g id="edge13" class="edge"><title>Node2&#45;&gt;Node7</title>
<path fill="none" stroke="midnightblue" d="M420.784,-224.297C423.727,-191.633 434.156,-75.8661 438.292,-29.9573"/>
<polygon fill="midnightblue" stroke="midnightblue" points="441.788,-30.1575 439.2,-19.8837 434.816,-29.5293 441.788,-30.1575"/>
</g>
<!-- Node4 -->
<g id="node4" class="node"><title>Node4</title>
<g id="a_node4"><a xlink:href="_block_8h.html" target="_top" xlink:title="Block.h">
<polygon fill="none" stroke="black" points="312,-112.5 312,-131.5 362,-131.5 362,-112.5 312,-112.5"/>
<text text-anchor="middle" x="337" y="-119.5" font-family="Helvetica,sans-Serif" font-size="10.00">Block.h</text>
</a>
</g>
</g>
<!-- Node3&#45;&gt;Node4 -->
<g id="edge3" class="edge"><title>Node3&#45;&gt;Node4</title>
<path fill="none" stroke="midnightblue" d="M350.358,-168.083C348.214,-160.849 345.121,-150.409 342.451,-141.397"/>
<polygon fill="midnightblue" stroke="midnightblue" points="345.79,-140.345 339.593,-131.751 339.078,-142.333 345.79,-140.345"/>
</g>
<!-- Node3&#45;&gt;Node6 -->
<g id="edge10" class="edge"><title>Node3&#45;&gt;Node6</title>
<path fill="none" stroke="midnightblue" d="M319.718,-174.286C265.35,-167.854 158.859,-146.446 112,-76 96.2445,-52.3139 130.217,-33.4289 159.341,-22.2464"/>
<polygon fill="midnightblue" stroke="midnightblue" points="160.75,-25.4585 168.953,-18.7535 158.359,-18.8794 160.75,-25.4585"/>
</g>
<!-- Node3&#45;&gt;Node7 -->
<g id="edge11" class="edge"><title>Node3&#45;&gt;Node7</title>
<path fill="none" stroke="midnightblue" d="M357.677,-168.075C371.491,-141.719 412.287,-63.878 430.744,-28.6608"/>
<polygon fill="midnightblue" stroke="midnightblue" points="433.967,-30.0501 435.509,-19.5681 427.767,-26.8007 433.967,-30.0501"/>
</g>
<!-- Node4&#45;&gt;Node5 -->
<g id="edge4" class="edge"><title>Node4&#45;&gt;Node5</title>
<path fill="none" stroke="midnightblue" d="M324.629,-112.324C312.842,-104.058 294.868,-91.4527 280.864,-81.6322"/>
<polygon fill="midnightblue" stroke="midnightblue" points="282.538,-78.5307 272.341,-75.6545 278.518,-84.2619 282.538,-78.5307"/>
</g>
<!-- Node4&#45;&gt;Node7 -->
<g id="edge8" class="edge"><title>Node4&#45;&gt;Node7</title>
<path fill="none" stroke="midnightblue" d="M343.106,-112.157C352.21,-99.2322 370.187,-74.69 388,-56 398.167,-45.3319 410.619,-34.4894 420.789,-26.1209"/>
<polygon fill="midnightblue" stroke="midnightblue" points="423.117,-28.7394 428.695,-19.7314 418.717,-23.2953 423.117,-28.7394"/>
</g>
<!-- Node8 -->
<g id="node8" class="node"><title>Node8</title>
<polygon fill="none" stroke="#bfbfbf" points="304,-0.5 304,-19.5 348,-19.5 348,-0.5 304,-0.5"/>
<text text-anchor="middle" x="326" y="-7.5" font-family="Helvetica,sans-Serif" font-size="10.00">vector</text>
</g>
<!-- Node4&#45;&gt;Node8 -->
<g id="edge9" class="edge"><title>Node4&#45;&gt;Node8</title>
<path fill="none" stroke="midnightblue" d="M336.137,-112.368C334.362,-94.617 330.267,-53.6664 327.86,-29.5974"/>
<polygon fill="midnightblue" stroke="midnightblue" points="331.337,-29.1935 326.859,-19.5914 324.372,-29.8901 331.337,-29.1935"/>
</g>
<!-- Node5&#45;&gt;Node6 -->
<g id="edge5" class="edge"><title>Node5&#45;&gt;Node6</title>
<path fill="none" stroke="midnightblue" d="M249.557,-56.324C239.854,-48.2631 225.185,-36.0765 213.5,-26.3695"/>
<polygon fill="midnightblue" stroke="midnightblue" points="215.562,-23.532 205.633,-19.8339 211.089,-28.9163 215.562,-23.532"/>
</g>
<!-- Node5&#45;&gt;Node7 -->
<g id="edge6" class="edge"><title>Node5&#45;&gt;Node7</title>
<path fill="none" stroke="midnightblue" d="M288.522,-56.4435C321.582,-46.5255 375.842,-30.2473 409.658,-20.1025"/>
<polygon fill="midnightblue" stroke="midnightblue" points="410.878,-23.3908 419.45,-17.1649 408.866,-16.686 410.878,-23.3908"/>
</g>
<!-- Node5&#45;&gt;Node8 -->
<g id="edge7" class="edge"><title>Node5&#45;&gt;Node8</title>
<path fill="none" stroke="midnightblue" d="M270.604,-56.324C280.456,-48.2631 295.351,-36.0765 307.215,-26.3695"/>
<polygon fill="midnightblue" stroke="midnightblue" points="309.68,-28.8752 315.203,-19.8339 305.247,-23.4575 309.68,-28.8752"/>
</g>
<!-- Node9&#45;&gt;Node7 -->
<g id="edge15" class="edge"><title>Node9&#45;&gt;Node7</title>
<path fill="none" stroke="midnightblue" d="M721.803,-56.974C652.462,-45.6615 528.043,-25.3635 470.601,-15.9922"/>
<polygon fill="midnightblue" stroke="midnightblue" points="471.116,-12.5301 460.683,-14.3742 469.988,-19.4387 471.116,-12.5301"/>
</g>
<!-- Node9&#45;&gt;Node8 -->
<g id="edge18" class="edge"><title>Node9&#45;&gt;Node8</title>
<path fill="none" stroke="midnightblue" d="M721.971,-57.2575C718.937,-56.8201 715.928,-56.3973 713,-56 644.364,-46.6877 437.857,-23.4741 358.006,-14.5619"/>
<polygon fill="midnightblue" stroke="midnightblue" points="358.367,-11.0806 348.041,-13.4506 357.591,-18.0374 358.367,-11.0806"/>
</g>
<!-- Node9&#45;&gt;Node10 -->
<g id="edge16" class="edge"><title>Node9&#45;&gt;Node10</title>
<path fill="none" stroke="midnightblue" d="M780.64,-56.324C789.51,-48.3414 802.875,-36.3128 813.608,-26.6529"/>
<polygon fill="midnightblue" stroke="midnightblue" points="816.093,-29.1251 821.185,-19.8339 811.41,-23.922 816.093,-29.1251"/>
</g>
<!-- Node11 -->
<g id="node11" class="node"><title>Node11</title>
<polygon fill="none" stroke="#bfbfbf" points="736,-0.5 736,-19.5 776,-19.5 776,-0.5 736,-0.5"/>
<text text-anchor="middle" x="756" y="-7.5" font-family="Helvetica,sans-Serif" font-size="10.00">utility</text>
</g>
<!-- Node9&#45;&gt;Node11 -->
<g id="edge17" class="edge"><title>Node9&#45;&gt;Node11</title>
<path fill="none" stroke="midnightblue" d="M768.523,-56.083C766.514,-48.8486 763.614,-38.4087 761.11,-29.3968"/>
<polygon fill="midnightblue" stroke="midnightblue" points="764.48,-28.4495 758.431,-19.7511 757.735,-30.323 764.48,-28.4495"/>
</g>
<!-- Node12&#45;&gt;Node6 -->
<g id="edge21" class="edge"><title>Node12&#45;&gt;Node6</title>
<path fill="none" stroke="midnightblue" d="M168.284,-56.083C172.711,-48.6127 179.163,-37.7244 184.618,-28.5199"/>
<polygon fill="midnightblue" stroke="midnightblue" points="187.727,-30.1383 189.814,-19.7511 181.705,-26.5697 187.727,-30.1383"/>
</g>
<!-- Node12&#45;&gt;Node7 -->
<g id="edge22" class="edge"><title>Node12&#45;&gt;Node7</title>
<path fill="none" stroke="midnightblue" d="M204.77,-56.8572C261.069,-45.8819 359.961,-26.6033 409.668,-16.9131"/>
<polygon fill="midnightblue" stroke="midnightblue" points="410.35,-20.3461 419.496,-14.9972 409.011,-13.4754 410.35,-20.3461"/>
</g>
<!-- Node12&#45;&gt;Node8 -->
<g id="edge23" class="edge"><title>Node12&#45;&gt;Node8</title>
<path fill="none" stroke="midnightblue" d="M188.828,-56.4435C217.378,-46.985 263.389,-31.7421 294.152,-21.551"/>
<polygon fill="midnightblue" stroke="midnightblue" points="295.56,-24.7715 303.952,-18.3042 293.359,-18.1266 295.56,-24.7715"/>
</g>
<!-- Node13 -->
<g id="node13" class="node"><title>Node13</title>
<polygon fill="none" stroke="#bfbfbf" points="113,-0.5 113,-19.5 151,-19.5 151,-0.5 113,-0.5"/>
<text text-anchor="middle" x="132" y="-7.5" font-family="Helvetica,sans-Serif" font-size="10.00">array</text>
</g>
<!-- Node12&#45;&gt;Node13 -->
<g id="edge20" class="edge"><title>Node12&#45;&gt;Node13</title>
<path fill="none" stroke="midnightblue" d="M157.881,-56.083C153.592,-48.6127 147.342,-37.7244 142.058,-28.5199"/>
<polygon fill="midnightblue" stroke="midnightblue" points="145.038,-26.6811 137.024,-19.7511 138.967,-30.1662 145.038,-26.6811"/>
</g>
<!-- Node14&#45;&gt;Node6 -->
<g id="edge25" class="edge"><title>Node14&#45;&gt;Node6</title>
<path fill="none" stroke="midnightblue" d="M556.458,-58.3526C553.312,-57.4756 550.085,-56.6553 547,-56 487.213,-43.3003 308.647,-23.254 231.341,-14.8784"/>
<polygon fill="midnightblue" stroke="midnightblue" points="231.446,-11.3695 221.128,-13.776 230.695,-18.329 231.446,-11.3695"/>
</g>
<!-- Node14&#45;&gt;Node7 -->
<g id="edge27" class="edge"><title>Node14&#45;&gt;Node7</title>
<path fill="none" stroke="midnightblue" d="M556.49,-56.9157C533.588,-47.8888 496.305,-33.1931 470.099,-22.8637"/>
<polygon fill="midnightblue" stroke="midnightblue" points="471.237,-19.5505 460.65,-19.1396 468.67,-26.0629 471.237,-19.5505"/>
</g>
<!-- Node15 -->
<g id="node15" class="node"><title>Node15</title>
<polygon fill="none" stroke="#bfbfbf" points="549,-0.5 549,-19.5 601,-19.5 601,-0.5 549,-0.5"/>
<text text-anchor="middle" x="575" y="-7.5" font-family="Helvetica,sans-Serif" font-size="10.00">sstream</text>
</g>
<!-- Node14&#45;&gt;Node15 -->
<g id="edge26" class="edge"><title>Node14&#45;&gt;Node15</title>
<path fill="none" stroke="midnightblue" d="M576.67,-56.083C576.408,-49.0059 576.032,-38.8611 575.703,-29.9865"/>
<polygon fill="midnightblue" stroke="midnightblue" points="579.192,-29.6147 575.324,-19.7511 572.197,-29.8738 579.192,-29.6147"/>
</g>
<!-- Node16&#45;&gt;Node7 -->
<g id="edge29" class="edge"><title>Node16&#45;&gt;Node7</title>
<path fill="none" stroke="midnightblue" d="M492.878,-56.324C483.474,-48.2631 469.256,-36.0765 457.931,-26.3695"/>
<polygon fill="midnightblue" stroke="midnightblue" points="460.177,-23.6844 450.306,-19.8339 455.621,-28.9993 460.177,-23.6844"/>
</g>
<!-- Node16&#45;&gt;Node8 -->
<g id="edge30" class="edge"><title>Node16&#45;&gt;Node8</title>
<path fill="none" stroke="midnightblue" d="M474.954,-56.4435C443.063,-46.7141 391.111,-30.8642 357.755,-20.688"/>
<polygon fill="midnightblue" stroke="midnightblue" points="358.629,-17.2955 348.043,-17.7251 356.587,-23.9909 358.629,-17.2955"/>
</g>
<!-- Node17&#45;&gt;Node6 -->
<g id="edge33" class="edge"><title>Node17&#45;&gt;Node6</title>
<path fill="none" stroke="midnightblue" d="M615.24,-57.3415C612.116,-56.8681 609.013,-56.4157 606,-56 468.025,-36.9639 303.086,-20.9322 231.327,-14.2869"/>
<polygon fill="midnightblue" stroke="midnightblue" points="231.308,-10.7704 221.029,-13.3386 230.666,-17.7409 231.308,-10.7704"/>
</g>
<!-- Node17&#45;&gt;Node7 -->
<g id="edge34" class="edge"><title>Node17&#45;&gt;Node7</title>
<path fill="none" stroke="midnightblue" d="M625.14,-56.4435C582.563,-45.9928 511.217,-28.4805 470.65,-18.5231"/>
<polygon fill="midnightblue" stroke="midnightblue" points="471.341,-15.0889 460.795,-16.1041 469.672,-21.8871 471.341,-15.0889"/>
</g>
<!-- Node17&#45;&gt;Node11 -->
<g id="edge36" class="edge"><title>Node17&#45;&gt;Node11</title>
<path fill="none" stroke="midnightblue" d="M675.424,-56.324C690.54,-47.8215 713.815,-34.7288 731.471,-24.7975"/>
<polygon fill="midnightblue" stroke="midnightblue" points="733.614,-27.6077 740.614,-19.6545 730.183,-21.5066 733.614,-27.6077"/>
</g>
<!-- Node18 -->
<g id="node18" class="node"><title>Node18</title>
<polygon fill="none" stroke="#bfbfbf" points="619.5,-0.5 619.5,-19.5 702.5,-19.5 702.5,-0.5 619.5,-0.5"/>
<text text-anchor="middle" x="661" y="-7.5" font-family="Helvetica,sans-Serif" font-size="10.00">unordered_map</text>
</g>
<!-- Node17&#45;&gt;Node18 -->
<g id="edge35" class="edge"><title>Node17&#45;&gt;Node18</title>
<path fill="none" stroke="midnightblue" d="M660.165,-56.083C660.296,-49.0059 660.484,-38.8611 660.648,-29.9865"/>
<polygon fill="midnightblue" stroke="midnightblue" points="664.152,-29.8142 660.838,-19.7511 657.153,-29.6845 664.152,-29.8142"/>
</g>
<!-- Node19&#45;&gt;Node6 -->
<g id="edge38" class="edge"><title>Node19&#45;&gt;Node6</title>
<path fill="none" stroke="midnightblue" d="M24.2009,-168.442C20.1779,-146.76 12.8819,-89.0515 41,-56 44.9245,-51.387 114.619,-32.266 158.891,-20.4831"/>
<polygon fill="midnightblue" stroke="midnightblue" points="159.962,-23.82 168.731,-17.8735 158.168,-17.0539 159.962,-23.82"/>
</g>
</g>
</svg>
