<?xml version="1.0" encoding="UTF-8" standalone="no"?>
<!DOCTYPE svg PUBLIC "-//W3C//DTD SVG 1.1//EN"
 "http://www.w3.org/Graphics/SVG/1.1/DTD/svg11.dtd">
<!-- Generated by graphviz version 2.36.0 (20140111.2315)
 -->
<!-- Title: /home/travis/build/robotology/wb&#45;toolbox/toolbox/include/ForwardKinematics.h Pages: 1 -->
<svg width="237pt" height="274pt"
 viewBox="0.00 0.00 237.00 274.00" xmlns="http://www.w3.org/2000/svg" xmlns:xlink="http://www.w3.org/1999/xlink">
<g id="graph0" class="graph" transform="scale(1 1) rotate(0) translate(4 270)">
<title>/home/travis/build/robotology/wb&#45;toolbox/toolbox/include/ForwardKinematics.h</title>
<!-- Node1 -->
<g id="node1" class="node"><title>Node1</title>
<polygon fill="#bfbfbf" stroke="black" points="0,-224.5 0,-265.5 180,-265.5 180,-224.5 0,-224.5"/>
<text text-anchor="start" x="8" y="-253.5" font-family="Helvetica,sans-Serif" font-size="10.00">/home/travis/build</text>
<text text-anchor="start" x="8" y="-242.5" font-family="Helvetica,sans-Serif" font-size="10.00">/robotology/wb&#45;toolbox</text>
<text text-anchor="middle" x="90" y="-231.5" font-family="Helvetica,sans-Serif" font-size="10.00">/toolbox/include/ForwardKinematics.h</text>
</g>
<!-- Node2 -->
<g id="node2" class="node"><title>Node2</title>
<g id="a_node2"><a xlink:href="_w_b_block_8h.html" target="_top" xlink:title="WBBlock.h">
<polygon fill="none" stroke="black" points="57,-168.5 57,-187.5 123,-187.5 123,-168.5 57,-168.5"/>
<text text-anchor="middle" x="90" y="-175.5" font-family="Helvetica,sans-Serif" font-size="10.00">WBBlock.h</text>
</a>
</g>
</g>
<!-- Node1&#45;&gt;Node2 -->
<g id="edge1" class="edge"><title>Node1&#45;&gt;Node2</title>
<path fill="none" stroke="midnightblue" d="M90,-224.498C90,-216.065 90,-206.235 90,-197.874"/>
<polygon fill="midnightblue" stroke="midnightblue" points="93.5001,-197.652 90,-187.652 86.5001,-197.653 93.5001,-197.652"/>
</g>
<!-- Node5 -->
<g id="node5" class="node"><title>Node5</title>
<polygon fill="none" stroke="#bfbfbf" points="13,-0.5 13,-19.5 65,-19.5 65,-0.5 13,-0.5"/>
<text text-anchor="middle" x="39" y="-7.5" font-family="Helvetica,sans-Serif" font-size="10.00">memory</text>
</g>
<!-- Node1&#45;&gt;Node5 -->
<g id="edge10" class="edge"><title>Node1&#45;&gt;Node5</title>
<path fill="none" stroke="midnightblue" d="M70.7973,-224.481C62.1835,-214.436 52.8789,-201.485 48,-188 28.2416,-133.389 32.7262,-63.09 36.4461,-29.9223"/>
<polygon fill="midnightblue" stroke="midnightblue" points="39.9409,-30.1783 37.689,-19.8255 32.9934,-29.323 39.9409,-30.1783"/>
</g>
<!-- Node6 -->
<g id="node6" class="node"><title>Node6</title>
<polygon fill="none" stroke="#bfbfbf" points="188.5,-0.5 188.5,-19.5 229.5,-19.5 229.5,-0.5 188.5,-0.5"/>
<text text-anchor="middle" x="209" y="-7.5" font-family="Helvetica,sans-Serif" font-size="10.00">string</text>
</g>
<!-- Node1&#45;&gt;Node6 -->
<g id="edge11" class="edge"><title>Node1&#45;&gt;Node6</title>
<path fill="none" stroke="midnightblue" d="M110.391,-224.059C138.755,-194.735 188.793,-136.84 208,-76 212.73,-61.0166 212.611,-43.1065 211.519,-29.8842"/>
<polygon fill="midnightblue" stroke="midnightblue" points="214.968,-29.2247 210.405,-19.6627 208.009,-29.9829 214.968,-29.2247"/>
</g>
<!-- Node3 -->
<g id="node3" class="node"><title>Node3</title>
<g id="a_node3"><a xlink:href="_block_8h.html" target="_top" xlink:title="Block.h">
<polygon fill="none" stroke="black" points="93,-112.5 93,-131.5 143,-131.5 143,-112.5 93,-112.5"/>
<text text-anchor="middle" x="118" y="-119.5" font-family="Helvetica,sans-Serif" font-size="10.00">Block.h</text>
</a>
</g>
</g>
<!-- Node2&#45;&gt;Node3 -->
<g id="edge2" class="edge"><title>Node2&#45;&gt;Node3</title>
<path fill="none" stroke="midnightblue" d="M94.6236,-168.083C98.4563,-160.691 104.024,-149.953 108.765,-140.811"/>
<polygon fill="midnightblue" stroke="midnightblue" points="111.966,-142.24 113.462,-131.751 105.752,-139.018 111.966,-142.24"/>
</g>
<!-- Node2&#45;&gt;Node5 -->
<g id="edge9" class="edge"><title>Node2&#45;&gt;Node5</title>
<path fill="none" stroke="midnightblue" d="M87.258,-168.075C79.2302,-141.945 55.6551,-65.2106 44.7074,-29.577"/>
<polygon fill="midnightblue" stroke="midnightblue" points="47.9149,-28.0992 41.6324,-19.5681 41.2236,-30.1551 47.9149,-28.0992"/>
</g>
<!-- Node4 -->
<g id="node4" class="node"><title>Node4</title>
<g id="a_node4"><a xlink:href="_parameters_8h.html" target="_top" xlink:title="Parameters.h">
<polygon fill="none" stroke="black" points="105.5,-56.5 105.5,-75.5 180.5,-75.5 180.5,-56.5 105.5,-56.5"/>
<text text-anchor="middle" x="143" y="-63.5" font-family="Helvetica,sans-Serif" font-size="10.00">Parameters.h</text>
</a>
</g>
</g>
<!-- Node3&#45;&gt;Node4 -->
<g id="edge3" class="edge"><title>Node3&#45;&gt;Node4</title>
<path fill="none" stroke="midnightblue" d="M122.128,-112.083C125.514,-104.77 130.416,-94.1814 134.619,-85.1034"/>
<polygon fill="midnightblue" stroke="midnightblue" points="137.923,-86.2962 138.949,-75.7511 131.571,-83.3553 137.923,-86.2962"/>
</g>
<!-- Node3&#45;&gt;Node6 -->
<g id="edge7" class="edge"><title>Node3&#45;&gt;Node6</title>
<path fill="none" stroke="midnightblue" d="M139.226,-112.441C155.085,-105.021 176.157,-92.8176 189,-76 199.291,-62.5244 204.33,-43.7127 206.771,-29.7925"/>
<polygon fill="midnightblue" stroke="midnightblue" points="210.237,-30.2741 208.222,-19.8728 203.311,-29.2607 210.237,-30.2741"/>
</g>
<!-- Node7 -->
<g id="node7" class="node"><title>Node7</title>
<polygon fill="none" stroke="#bfbfbf" points="102,-0.5 102,-19.5 146,-19.5 146,-0.5 102,-0.5"/>
<text text-anchor="middle" x="124" y="-7.5" font-family="Helvetica,sans-Serif" font-size="10.00">vector</text>
</g>
<!-- Node3&#45;&gt;Node7 -->
<g id="edge8" class="edge"><title>Node3&#45;&gt;Node7</title>
<path fill="none" stroke="midnightblue" d="M111.77,-112.24C103.719,-99.8215 91.3653,-76.3432 97,-56 99.7919,-45.9205 105.509,-35.832 110.967,-27.7694"/>
<polygon fill="midnightblue" stroke="midnightblue" points="113.825,-29.7899 116.849,-19.6357 108.153,-25.6881 113.825,-29.7899"/>
</g>
<!-- Node4&#45;&gt;Node5 -->
<g id="edge4" class="edge"><title>Node4&#45;&gt;Node5</title>
<path fill="none" stroke="midnightblue" d="M126.291,-56.324C109.688,-47.7034 83.9979,-34.3643 64.7795,-24.3855"/>
<polygon fill="midnightblue" stroke="midnightblue" points="66.1558,-21.1565 55.6679,-19.6545 62.93,-27.3689 66.1558,-21.1565"/>
</g>
<!-- Node4&#45;&gt;Node6 -->
<g id="edge5" class="edge"><title>Node4&#45;&gt;Node6</title>
<path fill="none" stroke="midnightblue" d="M153.604,-56.324C163.456,-48.2631 178.351,-36.0765 190.215,-26.3695"/>
<polygon fill="midnightblue" stroke="midnightblue" points="192.68,-28.8752 198.203,-19.8339 188.247,-23.4575 192.68,-28.8752"/>
</g>
<!-- Node4&#45;&gt;Node7 -->
<g id="edge6" class="edge"><title>Node4&#45;&gt;Node7</title>
<path fill="none" stroke="midnightblue" d="M139.863,-56.083C137.317,-48.8486 133.644,-38.4087 130.473,-29.3968"/>
<polygon fill="midnightblue" stroke="midnightblue" points="133.7,-28.0225 127.079,-19.7511 127.097,-30.3459 133.7,-28.0225"/>
</g>
</g>
</svg>
