<?xml version="1.0" encoding="UTF-8" standalone="no"?>
<!DOCTYPE svg PUBLIC "-//W3C//DTD SVG 1.1//EN"
 "http://www.w3.org/Graphics/SVG/1.1/DTD/svg11.dtd">
<!-- Generated by graphviz version 2.36.0 (20140111.2315)
 -->
<!-- Title: /home/travis/build/robotology/wb&#45;toolbox/toolbox/src/ForwardKinematics.cpp Pages: 1 -->
<svg width="1563pt" height="330pt"
 viewBox="0.00 0.00 1563.00 330.00" xmlns="http://www.w3.org/2000/svg" xmlns:xlink="http://www.w3.org/1999/xlink">
<g id="graph0" class="graph" transform="scale(1 1) rotate(0) translate(4 326)">
<title>/home/travis/build/robotology/wb&#45;toolbox/toolbox/src/ForwardKinematics.cpp</title>
<!-- Node1 -->
<g id="node1" class="node"><title>Node1</title>
<polygon fill="#bfbfbf" stroke="black" points="619.5,-280.5 619.5,-321.5 792.5,-321.5 792.5,-280.5 619.5,-280.5"/>
<text text-anchor="start" x="627.5" y="-309.5" font-family="Helvetica,sans-Serif" font-size="10.00">/home/travis/build</text>
<text text-anchor="start" x="627.5" y="-298.5" font-family="Helvetica,sans-Serif" font-size="10.00">/robotology/wb&#45;toolbox</text>
<text text-anchor="middle" x="706" y="-287.5" font-family="Helvetica,sans-Serif" font-size="10.00">/toolbox/src/ForwardKinematics.cpp</text>
</g>
<!-- Node2 -->
<g id="node2" class="node"><title>Node2</title>
<g id="a_node2"><a xlink:href="_forward_kinematics_8h.html" target="_top" xlink:title="ForwardKinematics.h">
<polygon fill="none" stroke="black" points="318.5,-224.5 318.5,-243.5 427.5,-243.5 427.5,-224.5 318.5,-224.5"/>
<text text-anchor="middle" x="373" y="-231.5" font-family="Helvetica,sans-Serif" font-size="10.00">ForwardKinematics.h</text>
</a>
</g>
</g>
<!-- Node1&#45;&gt;Node2 -->
<g id="edge1" class="edge"><title>Node1&#45;&gt;Node2</title>
<path fill="none" stroke="midnightblue" d="M619.377,-283.092C558.494,-271.208 478.935,-255.678 426.932,-245.527"/>
<polygon fill="midnightblue" stroke="midnightblue" points="427.398,-242.052 416.913,-243.572 426.057,-248.923 427.398,-242.052"/>
</g>
<!-- Node5 -->
<g id="node5" class="node"><title>Node5</title>
<g id="a_node5"><a xlink:href="_parameters_8h.html" target="_top" xlink:title="Parameters.h">
<polygon fill="none" stroke="black" points="126.5,-56.5 126.5,-75.5 201.5,-75.5 201.5,-56.5 126.5,-56.5"/>
<text text-anchor="middle" x="164" y="-63.5" font-family="Helvetica,sans-Serif" font-size="10.00">Parameters.h</text>
</a>
</g>
</g>
<!-- Node1&#45;&gt;Node5 -->
<g id="edge32" class="edge"><title>Node1&#45;&gt;Node5</title>
<path fill="none" stroke="midnightblue" d="M619.277,-296.376C537.53,-290.966 412.472,-277.497 309,-244 258.309,-227.59 238.514,-227.72 203,-188 176.858,-158.762 168.217,-111.811 165.377,-85.8273"/>
<polygon fill="midnightblue" stroke="midnightblue" points="168.855,-85.434 164.459,-75.7945 161.885,-86.0717 168.855,-85.434"/>
</g>
<!-- Node9 -->
<g id="node9" class="node"><title>Node9</title>
<g id="a_node9"><a xlink:href="_block_information_8h.html" target="_top" xlink:title="BlockInformation.h">
<polygon fill="none" stroke="black" points="610,-56.5 610,-75.5 708,-75.5 708,-56.5 610,-56.5"/>
<text text-anchor="middle" x="659" y="-63.5" font-family="Helvetica,sans-Serif" font-size="10.00">BlockInformation.h</text>
</a>
</g>
</g>
<!-- Node1&#45;&gt;Node9 -->
<g id="edge14" class="edge"><title>Node1&#45;&gt;Node9</title>
<path fill="none" stroke="midnightblue" d="M700.783,-280.372C698.014,-269.659 694.647,-256.141 692,-244 679.488,-186.606 667.563,-118.097 662.105,-85.7178"/>
<polygon fill="midnightblue" stroke="midnightblue" points="665.5,-84.7966 660.398,-75.511 658.596,-85.9514 665.5,-84.7966"/>
</g>
<!-- Node10 -->
<g id="node10" class="node"><title>Node10</title>
<polygon fill="none" stroke="#bfbfbf" points="824,-0.5 824,-19.5 862,-19.5 862,-0.5 824,-0.5"/>
<text text-anchor="middle" x="843" y="-7.5" font-family="Helvetica,sans-Serif" font-size="10.00">tuple</text>
</g>
<!-- Node1&#45;&gt;Node10 -->
<g id="edge46" class="edge"><title>Node1&#45;&gt;Node10</title>
<path fill="none" stroke="midnightblue" d="M717.922,-280.209C740.658,-241.865 790.813,-154.321 823,-76 829.311,-60.6429 834.724,-42.544 838.32,-29.3494"/>
<polygon fill="midnightblue" stroke="midnightblue" points="841.729,-30.1493 840.894,-19.5874 834.96,-28.3645 841.729,-30.1493"/>
</g>
<!-- Node12 -->
<g id="node12" class="node"><title>Node12</title>
<g id="a_node12"><a xlink:href="_configuration_8h.html" target="_top" xlink:title="Configuration.h">
<polygon fill="none" stroke="black" points="334.5,-56.5 334.5,-75.5 417.5,-75.5 417.5,-56.5 334.5,-56.5"/>
<text text-anchor="middle" x="376" y="-63.5" font-family="Helvetica,sans-Serif" font-size="10.00">Configuration.h</text>
</a>
</g>
</g>
<!-- Node1&#45;&gt;Node12 -->
<g id="edge20" class="edge"><title>Node1&#45;&gt;Node12</title>
<path fill="none" stroke="midnightblue" d="M663.23,-280.499C642.663,-270.506 617.979,-257.594 597,-244 516.034,-191.536 429.318,-115.481 393.258,-82.8443"/>
<polygon fill="midnightblue" stroke="midnightblue" points="395.342,-80.009 385.591,-75.8667 390.631,-85.186 395.342,-80.009"/>
</g>
<!-- Node14 -->
<g id="node14" class="node"><title>Node14</title>
<g id="a_node14"><a xlink:href="_log_8h.html" target="_top" xlink:title="Log.h">
<polygon fill="none" stroke="black" points="550.5,-56.5 550.5,-75.5 591.5,-75.5 591.5,-56.5 550.5,-56.5"/>
<text text-anchor="middle" x="571" y="-63.5" font-family="Helvetica,sans-Serif" font-size="10.00">Log.h</text>
</a>
</g>
</g>
<!-- Node1&#45;&gt;Node14 -->
<g id="edge25" class="edge"><title>Node1&#45;&gt;Node14</title>
<path fill="none" stroke="midnightblue" d="M694.49,-280.135C668.516,-235.306 605.706,-126.901 581.114,-84.456"/>
<polygon fill="midnightblue" stroke="midnightblue" points="584.017,-82.4842 575.975,-75.5863 577.96,-85.9936 584.017,-82.4842"/>
</g>
<!-- Node16 -->
<g id="node16" class="node"><title>Node16</title>
<g id="a_node16"><a xlink:href="_parameter_8h.html" target="_top" xlink:title="Parameter.h">
<polygon fill="none" stroke="black" points="0,-56.5 0,-75.5 70,-75.5 70,-56.5 0,-56.5"/>
<text text-anchor="middle" x="35" y="-63.5" font-family="Helvetica,sans-Serif" font-size="10.00">Parameter.h</text>
</a>
</g>
</g>
<!-- Node1&#45;&gt;Node16 -->
<g id="edge29" class="edge"><title>Node1&#45;&gt;Node16</title>
<path fill="none" stroke="midnightblue" d="M619.309,-295.332C505.108,-288.179 311.126,-272.272 246,-244 158.665,-206.086 79.5341,-120.065 48.6842,-83.7134"/>
<polygon fill="midnightblue" stroke="midnightblue" points="51.0035,-81.0306 41.9056,-75.6013 45.632,-85.5192 51.0035,-81.0306"/>
</g>
<!-- Node17 -->
<g id="node17" class="node"><title>Node17</title>
<g id="a_node17"><a xlink:href="_robot_interface_8h.html" target="_top" xlink:title="RobotInterface.h">
<polygon fill="none" stroke="black" points="725.5,-56.5 725.5,-75.5 814.5,-75.5 814.5,-56.5 725.5,-56.5"/>
<text text-anchor="middle" x="770" y="-63.5" font-family="Helvetica,sans-Serif" font-size="10.00">RobotInterface.h</text>
</a>
</g>
</g>
<!-- Node1&#45;&gt;Node17 -->
<g id="edge33" class="edge"><title>Node1&#45;&gt;Node17</title>
<path fill="none" stroke="midnightblue" d="M711.457,-280.135C723.692,-235.59 753.17,-128.27 764.982,-85.2698"/>
<polygon fill="midnightblue" stroke="midnightblue" points="768.368,-86.1562 767.642,-75.5863 761.618,-84.3021 768.368,-86.1562"/>
</g>
<!-- Node19 -->
<g id="node19" class="node"><title>Node19</title>
<g id="a_node19"><a xlink:href="_signal_8h.html" target="_top" xlink:title="Signal.h">
<polygon fill="none" stroke="black" points="550,-168.5 550,-187.5 602,-187.5 602,-168.5 550,-168.5"/>
<text text-anchor="middle" x="576" y="-175.5" font-family="Helvetica,sans-Serif" font-size="10.00">Signal.h</text>
</a>
</g>
</g>
<!-- Node1&#45;&gt;Node19 -->
<g id="edge38" class="edge"><title>Node1&#45;&gt;Node19</title>
<path fill="none" stroke="midnightblue" d="M665.955,-280.391C649.242,-270.931 630.408,-258.48 616,-244 602.312,-230.244 591.194,-210.954 584.186,-196.964"/>
<polygon fill="midnightblue" stroke="midnightblue" points="587.306,-195.376 579.831,-187.869 580.993,-198.4 587.306,-195.376"/>
</g>
<!-- Node20 -->
<g id="node20" class="node"><title>Node20</title>
<polygon fill="none" stroke="#bfbfbf" points="772.5,-224.5 772.5,-243.5 837.5,-243.5 837.5,-224.5 772.5,-224.5"/>
<text text-anchor="middle" x="805" y="-231.5" font-family="Helvetica,sans-Serif" font-size="10.00">Eigen/Core</text>
</g>
<!-- Node1&#45;&gt;Node20 -->
<g id="edge40" class="edge"><title>Node1&#45;&gt;Node20</title>
<path fill="none" stroke="midnightblue" d="M735.703,-280.498C751.028,-270.436 769.383,-258.385 783.352,-249.214"/>
<polygon fill="midnightblue" stroke="midnightblue" points="785.383,-252.067 791.822,-243.652 781.541,-246.215 785.383,-252.067"/>
</g>
<!-- Node21 -->
<g id="node21" class="node"><title>Node21</title>
<polygon fill="none" stroke="#bfbfbf" points="855,-224.5 855,-243.5 1005,-243.5 1005,-224.5 855,-224.5"/>
<text text-anchor="middle" x="930" y="-231.5" font-family="Helvetica,sans-Serif" font-size="10.00">iDynTree/Core/EigenHelpers.h</text>
</g>
<!-- Node1&#45;&gt;Node21 -->
<g id="edge41" class="edge"><title>Node1&#45;&gt;Node21</title>
<path fill="none" stroke="midnightblue" d="M773.207,-280.498C811.465,-269.396 858.07,-255.872 890.481,-246.468"/>
<polygon fill="midnightblue" stroke="midnightblue" points="891.848,-249.715 900.477,-243.567 889.897,-242.993 891.848,-249.715"/>
</g>
<!-- Node22 -->
<g id="node22" class="node"><title>Node22</title>
<polygon fill="none" stroke="#bfbfbf" points="1023,-224.5 1023,-243.5 1159,-243.5 1159,-224.5 1023,-224.5"/>
<text text-anchor="middle" x="1091" y="-231.5" font-family="Helvetica,sans-Serif" font-size="10.00">iDynTree/Core/Transform.h</text>
</g>
<!-- Node1&#45;&gt;Node22 -->
<g id="edge42" class="edge"><title>Node1&#45;&gt;Node22</title>
<path fill="none" stroke="midnightblue" d="M792.882,-285.332C865.3,-273.105 966.602,-256.002 1030.49,-245.216"/>
<polygon fill="midnightblue" stroke="midnightblue" points="1031.14,-248.656 1040.41,-243.54 1029.97,-241.754 1031.14,-248.656"/>
</g>
<!-- Node23 -->
<g id="node23" class="node"><title>Node23</title>
<polygon fill="none" stroke="#bfbfbf" points="1177.5,-224.5 1177.5,-243.5 1338.5,-243.5 1338.5,-224.5 1177.5,-224.5"/>
<text text-anchor="middle" x="1258" y="-231.5" font-family="Helvetica,sans-Serif" font-size="10.00">iDynTree/KinDynComputations.h</text>
</g>
<!-- Node1&#45;&gt;Node23 -->
<g id="edge43" class="edge"><title>Node1&#45;&gt;Node23</title>
<path fill="none" stroke="midnightblue" d="M792.553,-289.808C897.383,-277.464 1072.68,-256.823 1175.6,-244.703"/>
<polygon fill="midnightblue" stroke="midnightblue" points="1176.12,-248.166 1185.64,-243.521 1175.3,-241.214 1176.12,-248.166"/>
</g>
<!-- Node24 -->
<g id="node24" class="node"><title>Node24</title>
<polygon fill="none" stroke="#bfbfbf" points="1357,-224.5 1357,-243.5 1485,-243.5 1485,-224.5 1357,-224.5"/>
<text text-anchor="middle" x="1421" y="-231.5" font-family="Helvetica,sans-Serif" font-size="10.00">iDynTree/Model/Indices.h</text>
</g>
<!-- Node1&#45;&gt;Node24 -->
<g id="edge44" class="edge"><title>Node1&#45;&gt;Node24</title>
<path fill="none" stroke="midnightblue" d="M792.661,-293.366C913.949,-283.872 1141.48,-265.299 1346.77,-243.987"/>
<polygon fill="midnightblue" stroke="midnightblue" points="1347.26,-247.456 1356.84,-242.938 1346.53,-240.494 1347.26,-247.456"/>
</g>
<!-- Node25 -->
<g id="node25" class="node"><title>Node25</title>
<polygon fill="none" stroke="#bfbfbf" points="1503,-224.5 1503,-243.5 1555,-243.5 1555,-224.5 1503,-224.5"/>
<text text-anchor="middle" x="1529" y="-231.5" font-family="Helvetica,sans-Serif" font-size="10.00">ostream</text>
</g>
<!-- Node1&#45;&gt;Node25 -->
<g id="edge45" class="edge"><title>Node1&#45;&gt;Node25</title>
<path fill="none" stroke="midnightblue" d="M792.585,-298.949C936.445,-296.08 1233.7,-285.388 1492.76,-243.912"/>
<polygon fill="midnightblue" stroke="midnightblue" points="1493.42,-247.351 1502.73,-242.297 1492.3,-240.441 1493.42,-247.351"/>
</g>
<!-- Node3 -->
<g id="node3" class="node"><title>Node3</title>
<g id="a_node3"><a xlink:href="_w_b_block_8h.html" target="_top" xlink:title="WBBlock.h">
<polygon fill="none" stroke="black" points="212,-168.5 212,-187.5 278,-187.5 278,-168.5 212,-168.5"/>
<text text-anchor="middle" x="245" y="-175.5" font-family="Helvetica,sans-Serif" font-size="10.00">WBBlock.h</text>
</a>
</g>
</g>
<!-- Node2&#45;&gt;Node3 -->
<g id="edge2" class="edge"><title>Node2&#45;&gt;Node3</title>
<path fill="none" stroke="midnightblue" d="M352.718,-224.444C331.653,-215.557 298.483,-201.563 274.514,-191.451"/>
<polygon fill="midnightblue" stroke="midnightblue" points="275.761,-188.179 265.187,-187.516 273.04,-194.628 275.761,-188.179"/>
</g>
<!-- Node6 -->
<g id="node6" class="node"><title>Node6</title>
<polygon fill="none" stroke="#bfbfbf" points="466,-0.5 466,-19.5 518,-19.5 518,-0.5 466,-0.5"/>
<text text-anchor="middle" x="492" y="-7.5" font-family="Helvetica,sans-Serif" font-size="10.00">memory</text>
</g>
<!-- Node2&#45;&gt;Node6 -->
<g id="edge12" class="edge"><title>Node2&#45;&gt;Node6</title>
<path fill="none" stroke="midnightblue" d="M377.665,-224.297C395.323,-191.356 458.284,-73.898 482.456,-28.8052"/>
<polygon fill="midnightblue" stroke="midnightblue" points="485.598,-30.3509 487.238,-19.8837 479.429,-27.0438 485.598,-30.3509"/>
</g>
<!-- Node7 -->
<g id="node7" class="node"><title>Node7</title>
<polygon fill="none" stroke="#bfbfbf" points="285.5,-0.5 285.5,-19.5 326.5,-19.5 326.5,-0.5 285.5,-0.5"/>
<text text-anchor="middle" x="306" y="-7.5" font-family="Helvetica,sans-Serif" font-size="10.00">string</text>
</g>
<!-- Node2&#45;&gt;Node7 -->
<g id="edge13" class="edge"><title>Node2&#45;&gt;Node7</title>
<path fill="none" stroke="midnightblue" d="M370.255,-224.159C362.854,-200.29 341.902,-132.527 325,-76 320.316,-60.3357 315.115,-42.5093 311.34,-29.492"/>
<polygon fill="midnightblue" stroke="midnightblue" points="314.689,-28.4745 308.547,-19.8415 307.965,-30.4204 314.689,-28.4745"/>
</g>
<!-- Node4 -->
<g id="node4" class="node"><title>Node4</title>
<g id="a_node4"><a xlink:href="_block_8h.html" target="_top" xlink:title="Block.h">
<polygon fill="none" stroke="black" points="190,-112.5 190,-131.5 240,-131.5 240,-112.5 190,-112.5"/>
<text text-anchor="middle" x="215" y="-119.5" font-family="Helvetica,sans-Serif" font-size="10.00">Block.h</text>
</a>
</g>
</g>
<!-- Node3&#45;&gt;Node4 -->
<g id="edge3" class="edge"><title>Node3&#45;&gt;Node4</title>
<path fill="none" stroke="midnightblue" d="M240.046,-168.083C235.896,-160.613 229.847,-149.724 224.733,-140.52"/>
<polygon fill="midnightblue" stroke="midnightblue" points="227.778,-138.793 219.862,-131.751 221.659,-142.192 227.778,-138.793"/>
</g>
<!-- Node3&#45;&gt;Node6 -->
<g id="edge10" class="edge"><title>Node3&#45;&gt;Node6</title>
<path fill="none" stroke="midnightblue" d="M264.251,-168.376C298.477,-152.595 371.442,-116.908 426,-76 445.393,-61.4592 464.828,-41.5097 477.533,-27.5603"/>
<polygon fill="midnightblue" stroke="midnightblue" points="480.458,-29.54 484.514,-19.7523 475.24,-24.8745 480.458,-29.54"/>
</g>
<!-- Node3&#45;&gt;Node7 -->
<g id="edge11" class="edge"><title>Node3&#45;&gt;Node7</title>
<path fill="none" stroke="midnightblue" d="M248.28,-168.075C257.923,-141.832 286.324,-64.5453 299.343,-29.1165"/>
<polygon fill="midnightblue" stroke="midnightblue" points="302.687,-30.1617 302.851,-19.5681 296.117,-27.7472 302.687,-30.1617"/>
</g>
<!-- Node4&#45;&gt;Node5 -->
<g id="edge4" class="edge"><title>Node4&#45;&gt;Node5</title>
<path fill="none" stroke="midnightblue" d="M206.578,-112.083C199.152,-104.22 188.148,-92.5688 179.188,-83.0813"/>
<polygon fill="midnightblue" stroke="midnightblue" points="181.676,-80.618 172.265,-75.7511 176.587,-85.4244 181.676,-80.618"/>
</g>
<!-- Node4&#45;&gt;Node7 -->
<g id="edge8" class="edge"><title>Node4&#45;&gt;Node7</title>
<path fill="none" stroke="midnightblue" d="M219.029,-112.442C225.379,-99.4534 238.59,-74.3356 254,-56 263.362,-44.8612 275.595,-34.129 285.845,-25.941"/>
<polygon fill="midnightblue" stroke="midnightblue" points="288.124,-28.6026 293.881,-19.7083 283.834,-23.0713 288.124,-28.6026"/>
</g>
<!-- Node8 -->
<g id="node8" class="node"><title>Node8</title>
<polygon fill="none" stroke="#bfbfbf" points="142,-0.5 142,-19.5 186,-19.5 186,-0.5 142,-0.5"/>
<text text-anchor="middle" x="164" y="-7.5" font-family="Helvetica,sans-Serif" font-size="10.00">vector</text>
</g>
<!-- Node4&#45;&gt;Node8 -->
<g id="edge9" class="edge"><title>Node4&#45;&gt;Node8</title>
<path fill="none" stroke="midnightblue" d="M189.931,-117.213C166.555,-112.206 132.967,-100.901 117,-76 105.606,-58.2307 124.183,-38.7159 141.233,-25.7522"/>
<polygon fill="midnightblue" stroke="midnightblue" points="143.732,-28.269 149.843,-19.6142 139.668,-22.5691 143.732,-28.269"/>
</g>
<!-- Node5&#45;&gt;Node6 -->
<g id="edge5" class="edge"><title>Node5&#45;&gt;Node6</title>
<path fill="none" stroke="midnightblue" d="M201.626,-58.8055C265.094,-48.3564 392.636,-27.3587 455.404,-17.025"/>
<polygon fill="midnightblue" stroke="midnightblue" points="456.324,-20.4208 465.622,-15.3427 455.186,-13.5137 456.324,-20.4208"/>
</g>
<!-- Node5&#45;&gt;Node7 -->
<g id="edge6" class="edge"><title>Node5&#45;&gt;Node7</title>
<path fill="none" stroke="midnightblue" d="M186.5,-56.4435C210.632,-47.2666 249.083,-32.6446 275.827,-22.4744"/>
<polygon fill="midnightblue" stroke="midnightblue" points="277.346,-25.6411 285.449,-18.8151 274.858,-19.0982 277.346,-25.6411"/>
</g>
<!-- Node5&#45;&gt;Node8 -->
<g id="edge7" class="edge"><title>Node5&#45;&gt;Node8</title>
<path fill="none" stroke="midnightblue" d="M164,-56.083C164,-49.0059 164,-38.8611 164,-29.9865"/>
<polygon fill="midnightblue" stroke="midnightblue" points="167.5,-29.751 164,-19.7511 160.5,-29.7511 167.5,-29.751"/>
</g>
<!-- Node9&#45;&gt;Node6 -->
<g id="edge15" class="edge"><title>Node9&#45;&gt;Node6</title>
<path fill="none" stroke="midnightblue" d="M632.538,-56.4435C604.239,-47.2928 559.195,-32.7279 527.755,-22.5614"/>
<polygon fill="midnightblue" stroke="midnightblue" points="528.655,-19.1741 518.063,-19.4275 526.501,-25.8345 528.655,-19.1741"/>
</g>
<!-- Node9&#45;&gt;Node7 -->
<g id="edge16" class="edge"><title>Node9&#45;&gt;Node7</title>
<path fill="none" stroke="midnightblue" d="M609.75,-57.4516C606.451,-56.957 603.178,-56.4693 600,-56 488.077,-39.4694 459.38,-39.8646 348,-20 344.334,-19.3461 340.5,-18.6049 336.703,-17.8353"/>
<polygon fill="midnightblue" stroke="midnightblue" points="337.386,-14.4024 326.88,-15.7722 335.947,-21.253 337.386,-14.4024"/>
</g>
<!-- Node9&#45;&gt;Node8 -->
<g id="edge19" class="edge"><title>Node9&#45;&gt;Node8</title>
<path fill="none" stroke="midnightblue" d="M609.77,-57.3076C606.466,-56.8477 603.186,-56.4072 600,-56 449.585,-36.777 269.161,-20.2146 196.583,-13.8181"/>
<polygon fill="midnightblue" stroke="midnightblue" points="196.545,-10.3013 186.277,-12.9144 195.933,-17.2746 196.545,-10.3013"/>
</g>
<!-- Node9&#45;&gt;Node10 -->
<g id="edge17" class="edge"><title>Node9&#45;&gt;Node10</title>
<path fill="none" stroke="midnightblue" d="M689.052,-56.4521C720.314,-47.5185 770.658,-33.0157 814,-20 814.101,-19.9697 814.202,-19.9393 814.303,-19.9088"/>
<polygon fill="midnightblue" stroke="midnightblue" points="815.44,-23.2214 823.984,-16.9563 813.398,-16.5259 815.44,-23.2214"/>
</g>
<!-- Node11 -->
<g id="node11" class="node"><title>Node11</title>
<polygon fill="none" stroke="#bfbfbf" points="651,-0.5 651,-19.5 691,-19.5 691,-0.5 651,-0.5"/>
<text text-anchor="middle" x="671" y="-7.5" font-family="Helvetica,sans-Serif" font-size="10.00">utility</text>
</g>
<!-- Node9&#45;&gt;Node11 -->
<g id="edge18" class="edge"><title>Node9&#45;&gt;Node11</title>
<path fill="none" stroke="midnightblue" d="M660.982,-56.083C662.572,-48.9272 664.859,-38.6353 666.846,-29.6911"/>
<polygon fill="midnightblue" stroke="midnightblue" points="670.303,-30.2722 669.055,-19.7511 663.469,-28.7537 670.303,-30.2722"/>
</g>
<!-- Node12&#45;&gt;Node6 -->
<g id="edge22" class="edge"><title>Node12&#45;&gt;Node6</title>
<path fill="none" stroke="midnightblue" d="M394.381,-56.4435C413.216,-47.6751 442.731,-33.9355 464.379,-23.8579"/>
<polygon fill="midnightblue" stroke="midnightblue" points="466.117,-26.9098 473.705,-19.5164 463.162,-20.5637 466.117,-26.9098"/>
</g>
<!-- Node12&#45;&gt;Node7 -->
<g id="edge23" class="edge"><title>Node12&#45;&gt;Node7</title>
<path fill="none" stroke="midnightblue" d="M364.753,-56.324C354.203,-48.1849 338.199,-35.8395 325.558,-26.0874"/>
<polygon fill="midnightblue" stroke="midnightblue" points="327.507,-23.1707 317.451,-19.8339 323.231,-28.7132 327.507,-23.1707"/>
</g>
<!-- Node12&#45;&gt;Node8 -->
<g id="edge24" class="edge"><title>Node12&#45;&gt;Node8</title>
<path fill="none" stroke="midnightblue" d="M342.408,-56.4435C302.217,-46.2061 235.422,-29.1924 195.965,-19.1421"/>
<polygon fill="midnightblue" stroke="midnightblue" points="196.635,-15.7011 186.081,-16.6243 194.907,-22.4845 196.635,-15.7011"/>
</g>
<!-- Node13 -->
<g id="node13" class="node"><title>Node13</title>
<polygon fill="none" stroke="#bfbfbf" points="357,-0.5 357,-19.5 395,-19.5 395,-0.5 357,-0.5"/>
<text text-anchor="middle" x="376" y="-7.5" font-family="Helvetica,sans-Serif" font-size="10.00">array</text>
</g>
<!-- Node12&#45;&gt;Node13 -->
<g id="edge21" class="edge"><title>Node12&#45;&gt;Node13</title>
<path fill="none" stroke="midnightblue" d="M376,-56.083C376,-49.0059 376,-38.8611 376,-29.9865"/>
<polygon fill="midnightblue" stroke="midnightblue" points="379.5,-29.751 376,-19.7511 372.5,-29.7511 379.5,-29.751"/>
</g>
<!-- Node14&#45;&gt;Node6 -->
<g id="edge26" class="edge"><title>Node14&#45;&gt;Node6</title>
<path fill="none" stroke="midnightblue" d="M558.307,-56.324C546.099,-47.979 527.422,-35.2122 512.997,-25.3524"/>
<polygon fill="midnightblue" stroke="midnightblue" points="514.892,-22.4082 504.661,-19.6545 510.942,-28.1871 514.892,-22.4082"/>
</g>
<!-- Node14&#45;&gt;Node7 -->
<g id="edge28" class="edge"><title>Node14&#45;&gt;Node7</title>
<path fill="none" stroke="midnightblue" d="M550.384,-60.9256C511.019,-53.1265 422.436,-35.485 348,-20 344.354,-19.2415 340.532,-18.4365 336.742,-17.632"/>
<polygon fill="midnightblue" stroke="midnightblue" points="337.436,-14.2013 326.926,-15.5356 335.974,-21.0469 337.436,-14.2013"/>
</g>
<!-- Node15 -->
<g id="node15" class="node"><title>Node15</title>
<polygon fill="none" stroke="#bfbfbf" points="545,-0.5 545,-19.5 597,-19.5 597,-0.5 545,-0.5"/>
<text text-anchor="middle" x="571" y="-7.5" font-family="Helvetica,sans-Serif" font-size="10.00">sstream</text>
</g>
<!-- Node14&#45;&gt;Node15 -->
<g id="edge27" class="edge"><title>Node14&#45;&gt;Node15</title>
<path fill="none" stroke="midnightblue" d="M571,-56.083C571,-49.0059 571,-38.8611 571,-29.9865"/>
<polygon fill="midnightblue" stroke="midnightblue" points="574.5,-29.751 571,-19.7511 567.5,-29.7511 574.5,-29.751"/>
</g>
<!-- Node16&#45;&gt;Node7 -->
<g id="edge30" class="edge"><title>Node16&#45;&gt;Node7</title>
<path fill="none" stroke="midnightblue" d="M70.1507,-57.9958C123.632,-47.3389 224.566,-27.2268 275.279,-17.1214"/>
<polygon fill="midnightblue" stroke="midnightblue" points="276.181,-20.5107 285.304,-15.1239 274.813,-13.6457 276.181,-20.5107"/>
</g>
<!-- Node16&#45;&gt;Node8 -->
<g id="edge31" class="edge"><title>Node16&#45;&gt;Node8</title>
<path fill="none" stroke="midnightblue" d="M55.4404,-56.4435C76.6704,-47.5566 110.099,-33.5632 134.255,-23.4514"/>
<polygon fill="midnightblue" stroke="midnightblue" points="135.782,-26.6064 143.655,-19.5164 133.079,-20.1493 135.782,-26.6064"/>
</g>
<!-- Node17&#45;&gt;Node6 -->
<g id="edge34" class="edge"><title>Node17&#45;&gt;Node6</title>
<path fill="none" stroke="midnightblue" d="M725.11,-56.5298C677.981,-47.5991 601.737,-33.0435 536,-20 533.366,-19.4774 530.645,-18.9326 527.907,-18.3809"/>
<polygon fill="midnightblue" stroke="midnightblue" points="528.544,-14.9389 518.048,-16.3808 527.152,-21.7992 528.544,-14.9389"/>
</g>
<!-- Node17&#45;&gt;Node7 -->
<g id="edge35" class="edge"><title>Node17&#45;&gt;Node7</title>
<path fill="none" stroke="midnightblue" d="M725.246,-57.3015C722.12,-56.8376 719.015,-56.3983 716,-56 553.079,-34.4793 510.384,-45.2573 348,-20 344.32,-19.4277 340.478,-18.7361 336.677,-17.9937"/>
<polygon fill="midnightblue" stroke="midnightblue" points="337.352,-14.5593 326.849,-15.9565 335.931,-21.4136 337.352,-14.5593"/>
</g>
<!-- Node17&#45;&gt;Node11 -->
<g id="edge37" class="edge"><title>Node17&#45;&gt;Node11</title>
<path fill="none" stroke="midnightblue" d="M754.094,-56.324C738.362,-47.7428 714.058,-34.486 695.791,-24.5224"/>
<polygon fill="midnightblue" stroke="midnightblue" points="697.322,-21.3704 686.867,-19.6545 693.97,-27.5157 697.322,-21.3704"/>
</g>
<!-- Node18 -->
<g id="node18" class="node"><title>Node18</title>
<polygon fill="none" stroke="#bfbfbf" points="722.5,-0.5 722.5,-19.5 805.5,-19.5 805.5,-0.5 722.5,-0.5"/>
<text text-anchor="middle" x="764" y="-7.5" font-family="Helvetica,sans-Serif" font-size="10.00">unordered_map</text>
</g>
<!-- Node17&#45;&gt;Node18 -->
<g id="edge36" class="edge"><title>Node17&#45;&gt;Node18</title>
<path fill="none" stroke="midnightblue" d="M769.009,-56.083C768.214,-48.9272 767.071,-38.6353 766.077,-29.6911"/>
<polygon fill="midnightblue" stroke="midnightblue" points="769.555,-29.3034 764.972,-19.7511 762.598,-30.0765 769.555,-29.3034"/>
</g>
<!-- Node19&#45;&gt;Node6 -->
<g id="edge39" class="edge"><title>Node19&#45;&gt;Node6</title>
<path fill="none" stroke="midnightblue" d="M571.484,-168.075C558.147,-141.719 518.758,-63.878 500.937,-28.6608"/>
<polygon fill="midnightblue" stroke="midnightblue" points="503.974,-26.9105 496.336,-19.5681 497.728,-30.0711 503.974,-26.9105"/>
</g>
</g>
</svg>
