<?xml version="1.0" encoding="UTF-8" standalone="no"?>
<!DOCTYPE svg PUBLIC "-//W3C//DTD SVG 1.1//EN"
 "http://www.w3.org/Graphics/SVG/1.1/DTD/svg11.dtd">
<!-- Generated by graphviz version 2.36.0 (20140111.2315)
 -->
<!-- Title: /home/travis/build/robotology/wb&#45;toolbox/toolbox/src/ForwardKinematics.cpp Pages: 1 -->
<!--zoomable 330 -->
<svg id="main" version="1.1" xmlns="http://www.w3.org/2000/svg" xmlns:xlink="http://www.w3.org/1999/xlink" xml:space="preserve" onload="init(evt)">
<style type="text/css"><![CDATA[
.edge:hover path { stroke: red; }
.edge:hover polygon { stroke: red; fill: red; }
]]></style>
<script type="text/javascript"><![CDATA[
var edges = document.getElementsByTagName('g');
if (edges && edges.length) {
  for (var i=0;i<edges.length;i++) {
    if (edges[i].id.substr(0,4)=='edge') {
      edges[i].setAttribute('class','edge');
    }
  }
}
]]></script>
        <defs>
                <circle id="rim" cx="0" cy="0" r="7"/>
                <circle id="rim2" cx="0" cy="0" r="3.5"/>
                <g id="zoomPlus">
                        <use xlink:href="#rim" fill="#404040">
                                <set attributeName="fill" to="#808080" begin="zoomplus.mouseover" end="zoomplus.mouseout"/>
                        </use>
                        <path d="M-4,0h8M0,-4v8" fill="none" stroke="white" stroke-width="1.5" pointer-events="none"/>
                </g>
                <g id="zoomMin">
                        <use xlink:href="#rim" fill="#404040">
                                <set attributeName="fill" to="#808080" begin="zoomminus.mouseover" end="zoomminus.mouseout"/>
                        </use>
                        <path d="M-4,0h8" fill="none" stroke="white" stroke-width="1.5" pointer-events="none"/>
                </g>
                <g id="dirArrow">
                        <path fill="none" stroke="white" stroke-width="1.5" d="M0,-3.0v7 M-2.5,-0.5L0,-3.0L2.5,-0.5"/>
                </g>
               <g id="resetDef">
                       <use xlink:href="#rim2" fill="#404040">
                               <set attributeName="fill" to="#808080" begin="reset.mouseover" end="reset.mouseout"/>
                       </use>
               </g>
        </defs>

<script type="text/javascript">
var viewWidth = 1540;
var viewHeight = 330;
var sectionId = 'dynsection-0';
</script>
<script xlink:href="svgpan.js"/>
<svg id="graph" class="graph">
<g id="viewport">
<title>/home/travis/build/robotology/wb&#45;toolbox/toolbox/src/ForwardKinematics.cpp</title>
<!-- Node1 -->
<g id="node1" class="node"><title>Node1</title>
<polygon fill="#bfbfbf" stroke="black" points="578.5,-280.5 578.5,-321.5 751.5,-321.5 751.5,-280.5 578.5,-280.5"/>
<text text-anchor="start" x="586.5" y="-309.5" font-family="Helvetica,sans-Serif" font-size="10.00">/home/travis/build</text>
<text text-anchor="start" x="586.5" y="-298.5" font-family="Helvetica,sans-Serif" font-size="10.00">/robotology/wb&#45;toolbox</text>
<text text-anchor="middle" x="665" y="-287.5" font-family="Helvetica,sans-Serif" font-size="10.00">/toolbox/src/ForwardKinematics.cpp</text>
</g>
<!-- Node2 -->
<g id="node2" class="node"><title>Node2</title>
<g id="a_node2"><a xlink:href="_forward_kinematics_8h.html" target="_top" xlink:title="ForwardKinematics.h">
<polygon fill="none" stroke="black" points="371.5,-224.5 371.5,-243.5 480.5,-243.5 480.5,-224.5 371.5,-224.5"/>
<text text-anchor="middle" x="426" y="-231.5" font-family="Helvetica,sans-Serif" font-size="10.00">ForwardKinematics.h</text>
</a>
</g>
</g>
<!-- Node1&#45;&gt;Node2 -->
<g id="edge1" class="edge"><title>Node1&#45;&gt;Node2</title>
<path fill="none" stroke="midnightblue" d="M593.292,-280.498C552.12,-269.3 501.885,-255.638 467.271,-246.224"/>
<polygon fill="midnightblue" stroke="midnightblue" points="468.069,-242.814 457.5,-243.567 466.231,-249.569 468.069,-242.814"/>
</g>
<!-- Node5 -->
<g id="node5" class="node"><title>Node5</title>
<g id="a_node5"><a xlink:href="_parameters_8h.html" target="_top" xlink:title="Parameters.h">
<polygon fill="none" stroke="black" points="227.5,-56.5 227.5,-75.5 302.5,-75.5 302.5,-56.5 227.5,-56.5"/>
<text text-anchor="middle" x="265" y="-63.5" font-family="Helvetica,sans-Serif" font-size="10.00">Parameters.h</text>
</a>
</g>
</g>
<!-- Node1&#45;&gt;Node5 -->
<g id="edge29" class="edge"><title>Node1&#45;&gt;Node5</title>
<path fill="none" stroke="midnightblue" d="M578.419,-292.672C516.506,-285.373 432.083,-271.157 362,-244 318.072,-226.978 296.059,-228.504 272,-188 253.083,-156.152 256.872,-110.888 261.085,-85.7189"/>
<polygon fill="midnightblue" stroke="midnightblue" points="264.563,-86.1636 262.971,-75.6891 257.684,-84.8703 264.563,-86.1636"/>
</g>
<!-- Node9 -->
<g id="node9" class="node"><title>Node9</title>
<g id="a_node9"><a xlink:href="_block_information_8h.html" target="_top" xlink:title="BlockInformation.h">
<polygon fill="none" stroke="black" points="473,-56.5 473,-75.5 571,-75.5 571,-56.5 473,-56.5"/>
<text text-anchor="middle" x="522" y="-63.5" font-family="Helvetica,sans-Serif" font-size="10.00">BlockInformation.h</text>
</a>
</g>
</g>
<!-- Node1&#45;&gt;Node9 -->
<g id="edge13" class="edge"><title>Node1&#45;&gt;Node9</title>
<path fill="none" stroke="midnightblue" d="M645.893,-280.443C636.303,-270.085 624.871,-256.87 616,-244 578.225,-189.199 544.417,-117.464 529.74,-84.7029"/>
<polygon fill="midnightblue" stroke="midnightblue" points="532.916,-83.2321 525.666,-75.5066 526.516,-86.0673 532.916,-83.2321"/>
</g>
<!-- Node11 -->
<g id="node11" class="node"><title>Node11</title>
<g id="a_node11"><a xlink:href="_configuration_8h.html" target="_top" xlink:title="Configuration.h">
<polygon fill="none" stroke="black" points="126.5,-56.5 126.5,-75.5 209.5,-75.5 209.5,-56.5 126.5,-56.5"/>
<text text-anchor="middle" x="168" y="-63.5" font-family="Helvetica,sans-Serif" font-size="10.00">Configuration.h</text>
</a>
</g>
</g>
<!-- Node1&#45;&gt;Node11 -->
<g id="edge18" class="edge"><title>Node1&#45;&gt;Node11</title>
<path fill="none" stroke="midnightblue" d="M578.414,-293.737C487.084,-285.877 350.247,-270.154 305,-244 238.86,-205.77 193.51,-121.873 176.023,-84.9946"/>
<polygon fill="midnightblue" stroke="midnightblue" points="179.03,-83.1551 171.667,-75.537 172.672,-86.0841 179.03,-83.1551"/>
</g>
<!-- Node12 -->
<g id="node12" class="node"><title>Node12</title>
<g id="a_node12"><a xlink:href="_log_8h.html" target="_top" xlink:title="Log.h">
<polygon fill="none" stroke="black" points="589.5,-56.5 589.5,-75.5 630.5,-75.5 630.5,-56.5 589.5,-56.5"/>
<text text-anchor="middle" x="610" y="-63.5" font-family="Helvetica,sans-Serif" font-size="10.00">Log.h</text>
</a>
</g>
</g>
<!-- Node1&#45;&gt;Node12 -->
<g id="edge22" class="edge"><title>Node1&#45;&gt;Node12</title>
<path fill="none" stroke="midnightblue" d="M651.44,-280.483C637.391,-258.973 616.345,-222.794 608,-188 599.536,-152.71 603.405,-109.954 606.817,-85.875"/>
<polygon fill="midnightblue" stroke="midnightblue" points="610.326,-86.0872 608.399,-75.669 603.408,-85.0147 610.326,-86.0872"/>
</g>
<!-- Node14 -->
<g id="node14" class="node"><title>Node14</title>
<g id="a_node14"><a xlink:href="_parameter_8h.html" target="_top" xlink:title="Parameter.h">
<polygon fill="none" stroke="black" points="0,-56.5 0,-75.5 70,-75.5 70,-56.5 0,-56.5"/>
<text text-anchor="middle" x="35" y="-63.5" font-family="Helvetica,sans-Serif" font-size="10.00">Parameter.h</text>
</a>
</g>
</g>
<!-- Node1&#45;&gt;Node14 -->
<g id="edge26" class="edge"><title>Node1&#45;&gt;Node14</title>
<path fill="none" stroke="midnightblue" d="M578.312,-299.667C496.893,-296.596 373.108,-284.722 274,-244 178.095,-204.594 85.5885,-118.098 50.1613,-82.6367"/>
<polygon fill="midnightblue" stroke="midnightblue" points="52.6417,-80.1673 43.1259,-75.509 47.6598,-85.0847 52.6417,-80.1673"/>
</g>
<!-- Node15 -->
<g id="node15" class="node"><title>Node15</title>
<g id="a_node15"><a xlink:href="_robot_interface_8h.html" target="_top" xlink:title="RobotInterface.h">
<polygon fill="none" stroke="black" points="687.5,-56.5 687.5,-75.5 776.5,-75.5 776.5,-56.5 687.5,-56.5"/>
<text text-anchor="middle" x="732" y="-63.5" font-family="Helvetica,sans-Serif" font-size="10.00">RobotInterface.h</text>
</a>
</g>
</g>
<!-- Node1&#45;&gt;Node15 -->
<g id="edge30" class="edge"><title>Node1&#45;&gt;Node15</title>
<path fill="none" stroke="midnightblue" d="M669.999,-280.267C673.94,-264.897 679.645,-243.045 685,-224 699.136,-173.725 717.163,-114.833 726.234,-85.5262"/>
<polygon fill="midnightblue" stroke="midnightblue" points="729.624,-86.4103 729.246,-75.8223 722.939,-84.3356 729.624,-86.4103"/>
</g>
<!-- Node17 -->
<g id="node17" class="node"><title>Node17</title>
<g id="a_node17"><a xlink:href="_signal_8h.html" target="_top" xlink:title="Signal.h">
<polygon fill="none" stroke="black" points="617,-168.5 617,-187.5 669,-187.5 669,-168.5 617,-168.5"/>
<text text-anchor="middle" x="643" y="-175.5" font-family="Helvetica,sans-Serif" font-size="10.00">Signal.h</text>
</a>
</g>
</g>
<!-- Node1&#45;&gt;Node17 -->
<g id="edge35" class="edge"><title>Node1&#45;&gt;Node17</title>
<path fill="none" stroke="midnightblue" d="M659.483,-280.433C656.626,-269.738 653.27,-256.217 651,-244 648.14,-228.61 646.043,-210.975 644.715,-197.96"/>
<polygon fill="midnightblue" stroke="midnightblue" points="648.187,-197.503 643.746,-187.884 641.219,-198.173 648.187,-197.503"/>
</g>
<!-- Node18 -->
<g id="node18" class="node"><title>Node18</title>
<polygon fill="none" stroke="#bfbfbf" points="693.5,-224.5 693.5,-243.5 758.5,-243.5 758.5,-224.5 693.5,-224.5"/>
<text text-anchor="middle" x="726" y="-231.5" font-family="Helvetica,sans-Serif" font-size="10.00">Eigen/Core</text>
</g>
<!-- Node1&#45;&gt;Node18 -->
<g id="edge37" class="edge"><title>Node1&#45;&gt;Node18</title>
<path fill="none" stroke="midnightblue" d="M683.302,-280.498C692.115,-271.107 702.555,-259.983 710.905,-251.085"/>
<polygon fill="midnightblue" stroke="midnightblue" points="713.589,-253.34 717.88,-243.652 708.485,-248.549 713.589,-253.34"/>
</g>
<!-- Node19 -->
<g id="node19" class="node"><title>Node19</title>
<polygon fill="none" stroke="#bfbfbf" points="776,-224.5 776,-243.5 926,-243.5 926,-224.5 776,-224.5"/>
<text text-anchor="middle" x="851" y="-231.5" font-family="Helvetica,sans-Serif" font-size="10.00">iDynTree/Core/EigenHelpers.h</text>
</g>
<!-- Node1&#45;&gt;Node19 -->
<g id="edge38" class="edge"><title>Node1&#45;&gt;Node19</title>
<path fill="none" stroke="midnightblue" d="M720.806,-280.498C751.928,-269.622 789.704,-256.421 816.531,-247.045"/>
<polygon fill="midnightblue" stroke="midnightblue" points="817.955,-250.256 826.241,-243.652 815.646,-243.647 817.955,-250.256"/>
</g>
<!-- Node20 -->
<g id="node20" class="node"><title>Node20</title>
<polygon fill="none" stroke="#bfbfbf" points="944,-224.5 944,-243.5 1080,-243.5 1080,-224.5 944,-224.5"/>
<text text-anchor="middle" x="1012" y="-231.5" font-family="Helvetica,sans-Serif" font-size="10.00">iDynTree/Core/Transform.h</text>
</g>
<!-- Node1&#45;&gt;Node20 -->
<g id="edge39" class="edge"><title>Node1&#45;&gt;Node20</title>
<path fill="none" stroke="midnightblue" d="M751.668,-283.765C815.731,-271.765 901.076,-255.778 956.282,-245.437"/>
<polygon fill="midnightblue" stroke="midnightblue" points="957.043,-248.856 966.227,-243.574 955.754,-241.975 957.043,-248.856"/>
</g>
<!-- Node21 -->
<g id="node21" class="node"><title>Node21</title>
<polygon fill="none" stroke="#bfbfbf" points="1098.5,-224.5 1098.5,-243.5 1259.5,-243.5 1259.5,-224.5 1098.5,-224.5"/>
<text text-anchor="middle" x="1179" y="-231.5" font-family="Helvetica,sans-Serif" font-size="10.00">iDynTree/KinDynComputations.h</text>
</g>
<!-- Node1&#45;&gt;Node21 -->
<g id="edge40" class="edge"><title>Node1&#45;&gt;Node21</title>
<path fill="none" stroke="midnightblue" d="M751.612,-289.047C849.609,-276.655 1007.76,-256.655 1101.73,-244.772"/>
<polygon fill="midnightblue" stroke="midnightblue" points="1102.25,-248.233 1111.74,-243.506 1101.38,-241.288 1102.25,-248.233"/>
</g>
<!-- Node22 -->
<g id="node22" class="node"><title>Node22</title>
<polygon fill="none" stroke="#bfbfbf" points="1278,-224.5 1278,-243.5 1406,-243.5 1406,-224.5 1278,-224.5"/>
<text text-anchor="middle" x="1342" y="-231.5" font-family="Helvetica,sans-Serif" font-size="10.00">iDynTree/Model/Indices.h</text>
</g>
<!-- Node1&#45;&gt;Node22 -->
<g id="edge41" class="edge"><title>Node1&#45;&gt;Node22</title>
<path fill="none" stroke="midnightblue" d="M751.703,-292.727C866.856,-282.893 1076.86,-264.352 1267.62,-244.01"/>
<polygon fill="midnightblue" stroke="midnightblue" points="1268.27,-247.461 1277.84,-242.917 1267.52,-240.501 1268.27,-247.461"/>
</g>
<!-- Node23 -->
<g id="node23" class="node"><title>Node23</title>
<polygon fill="none" stroke="#bfbfbf" points="1424,-224.5 1424,-243.5 1476,-243.5 1476,-224.5 1424,-224.5"/>
<text text-anchor="middle" x="1450" y="-231.5" font-family="Helvetica,sans-Serif" font-size="10.00">ostream</text>
</g>
<!-- Node1&#45;&gt;Node23 -->
<g id="edge42" class="edge"><title>Node1&#45;&gt;Node23</title>
<path fill="none" stroke="midnightblue" d="M751.637,-298.504C889.97,-295.019 1169.2,-283.494 1413.59,-243.947"/>
<polygon fill="midnightblue" stroke="midnightblue" points="1414.43,-247.357 1423.73,-242.287 1413.3,-240.449 1414.43,-247.357"/>
</g>
<!-- Node24 -->
<g id="node24" class="node"><title>Node24</title>
<polygon fill="none" stroke="#bfbfbf" points="1494,-224.5 1494,-243.5 1532,-243.5 1532,-224.5 1494,-224.5"/>
<text text-anchor="middle" x="1513" y="-231.5" font-family="Helvetica,sans-Serif" font-size="10.00">tuple</text>
</g>
<!-- Node1&#45;&gt;Node24 -->
<g id="edge43" class="edge"><title>Node1&#45;&gt;Node24</title>
<path fill="none" stroke="midnightblue" d="M751.767,-300.947C900.545,-301.066 1213.61,-294.747 1483.88,-243.734"/>
<polygon fill="midnightblue" stroke="midnightblue" points="1484.72,-247.137 1493.88,-241.822 1483.4,-240.262 1484.72,-247.137"/>
</g>
<!-- Node3 -->
<g id="node3" class="node"><title>Node3</title>
<g id="a_node3"><a xlink:href="_w_b_block_8h.html" target="_top" xlink:title="WBBlock.h">
<polygon fill="none" stroke="black" points="281,-168.5 281,-187.5 347,-187.5 347,-168.5 281,-168.5"/>
<text text-anchor="middle" x="314" y="-175.5" font-family="Helvetica,sans-Serif" font-size="10.00">WBBlock.h</text>
</a>
</g>
</g>
<!-- Node2&#45;&gt;Node3 -->
<g id="edge2" class="edge"><title>Node2&#45;&gt;Node3</title>
<path fill="none" stroke="midnightblue" d="M408.005,-224.324C389.962,-215.625 361.953,-202.12 341.197,-192.113"/>
<polygon fill="midnightblue" stroke="midnightblue" points="342.478,-188.845 331.95,-187.655 339.438,-195.15 342.478,-188.845"/>
</g>
<!-- Node6 -->
<g id="node6" class="node"><title>Node6</title>
<polygon fill="none" stroke="#bfbfbf" points="457,-0.5 457,-19.5 509,-19.5 509,-0.5 457,-0.5"/>
<text text-anchor="middle" x="483" y="-7.5" font-family="Helvetica,sans-Serif" font-size="10.00">memory</text>
</g>
<!-- Node2&#45;&gt;Node6 -->
<g id="edge11" class="edge"><title>Node2&#45;&gt;Node6</title>
<path fill="none" stroke="midnightblue" d="M427.261,-224.378C431.173,-198.477 444.054,-119.245 464,-56 466.869,-46.9014 470.886,-37.1092 474.488,-28.9902"/>
<polygon fill="midnightblue" stroke="midnightblue" points="477.725,-30.328 478.71,-19.7791 471.361,-27.4111 477.725,-30.328"/>
</g>
<!-- Node7 -->
<g id="node7" class="node"><title>Node7</title>
<polygon fill="none" stroke="#bfbfbf" points="329.5,-0.5 329.5,-19.5 370.5,-19.5 370.5,-0.5 329.5,-0.5"/>
<text text-anchor="middle" x="350" y="-7.5" font-family="Helvetica,sans-Serif" font-size="10.00">string</text>
</g>
<!-- Node2&#45;&gt;Node7 -->
<g id="edge12" class="edge"><title>Node2&#45;&gt;Node7</title>
<path fill="none" stroke="midnightblue" d="M423.021,-224.297C411.791,-191.494 371.87,-74.8835 356.291,-29.3774"/>
<polygon fill="midnightblue" stroke="midnightblue" points="359.592,-28.2111 353.041,-19.8837 352.969,-30.4783 359.592,-28.2111"/>
</g>
<!-- Node4 -->
<g id="node4" class="node"><title>Node4</title>
<g id="a_node4"><a xlink:href="_block_8h.html" target="_top" xlink:title="Block.h">
<polygon fill="none" stroke="black" points="285,-112.5 285,-131.5 335,-131.5 335,-112.5 285,-112.5"/>
<text text-anchor="middle" x="310" y="-119.5" font-family="Helvetica,sans-Serif" font-size="10.00">Block.h</text>
</a>
</g>
</g>
<!-- Node3&#45;&gt;Node4 -->
<g id="edge3" class="edge"><title>Node3&#45;&gt;Node4</title>
<path fill="none" stroke="midnightblue" d="M313.339,-168.083C312.815,-161.006 312.064,-150.861 311.406,-141.986"/>
<polygon fill="midnightblue" stroke="midnightblue" points="314.877,-141.465 310.648,-131.751 307.897,-141.982 314.877,-141.465"/>
</g>
<!-- Node3&#45;&gt;Node6 -->
<g id="edge10" class="edge"><title>Node3&#45;&gt;Node6</title>
<path fill="none" stroke="midnightblue" d="M321.973,-168.235C340.541,-147.939 388.337,-96.3692 431,-56 441.84,-45.7429 454.492,-34.7736 464.602,-26.2332"/>
<polygon fill="midnightblue" stroke="midnightblue" points="466.983,-28.8043 472.4,-19.6994 462.487,-23.4385 466.983,-28.8043"/>
</g>
<!-- Node4&#45;&gt;Node5 -->
<g id="edge4" class="edge"><title>Node4&#45;&gt;Node5</title>
<path fill="none" stroke="midnightblue" d="M302.569,-112.083C296.147,-104.377 286.694,-93.0333 278.878,-83.6531"/>
<polygon fill="midnightblue" stroke="midnightblue" points="281.383,-81.1927 272.293,-75.7511 276.006,-85.674 281.383,-81.1927"/>
</g>
<!-- Node4&#45;&gt;Node7 -->
<g id="edge8" class="edge"><title>Node4&#45;&gt;Node7</title>
<path fill="none" stroke="midnightblue" d="M313.139,-112.368C319.623,-94.5366 334.62,-53.2953 343.356,-29.2717"/>
<polygon fill="midnightblue" stroke="midnightblue" points="346.748,-30.1855 346.876,-19.5914 340.169,-27.7932 346.748,-30.1855"/>
</g>
<!-- Node8 -->
<g id="node8" class="node"><title>Node8</title>
<polygon fill="none" stroke="#bfbfbf" points="146,-0.5 146,-19.5 190,-19.5 190,-0.5 146,-0.5"/>
<text text-anchor="middle" x="168" y="-7.5" font-family="Helvetica,sans-Serif" font-size="10.00">vector</text>
</g>
<!-- Node4&#45;&gt;Node8 -->
<g id="edge9" class="edge"><title>Node4&#45;&gt;Node8</title>
<path fill="none" stroke="midnightblue" d="M284.806,-118.925C237.37,-114.441 137.694,-102.074 117,-76 103.159,-58.56 124.854,-38.3714 144.079,-25.1795"/>
<polygon fill="midnightblue" stroke="midnightblue" points="146.121,-28.027 152.602,-19.6457 142.309,-22.1559 146.121,-28.027"/>
</g>
<!-- Node5&#45;&gt;Node6 -->
<g id="edge5" class="edge"><title>Node5&#45;&gt;Node6</title>
<path fill="none" stroke="midnightblue" d="M299.543,-56.4435C339.83,-46.4641 406.112,-30.0457 447.01,-19.915"/>
<polygon fill="midnightblue" stroke="midnightblue" points="447.964,-23.2844 456.829,-17.4826 446.281,-16.4898 447.964,-23.2844"/>
</g>
<!-- Node5&#45;&gt;Node7 -->
<g id="edge6" class="edge"><title>Node5&#45;&gt;Node7</title>
<path fill="none" stroke="midnightblue" d="M278.657,-56.324C291.916,-47.9002 312.268,-34.9709 327.846,-25.0741"/>
<polygon fill="midnightblue" stroke="midnightblue" points="329.813,-27.9711 336.377,-19.6545 326.06,-22.0626 329.813,-27.9711"/>
</g>
<!-- Node5&#45;&gt;Node8 -->
<g id="edge7" class="edge"><title>Node5&#45;&gt;Node8</title>
<path fill="none" stroke="midnightblue" d="M249.415,-56.324C234.001,-47.7428 210.188,-34.486 192.29,-24.5224"/>
<polygon fill="midnightblue" stroke="midnightblue" points="193.986,-21.4606 183.546,-19.6545 190.581,-27.5767 193.986,-21.4606"/>
</g>
<!-- Node9&#45;&gt;Node6 -->
<g id="edge14" class="edge"><title>Node9&#45;&gt;Node6</title>
<path fill="none" stroke="midnightblue" d="M515.56,-56.083C510.051,-48.4554 501.969,-37.2645 495.235,-27.9408"/>
<polygon fill="midnightblue" stroke="midnightblue" points="498.013,-25.8087 489.32,-19.7511 492.338,-29.9071 498.013,-25.8087"/>
</g>
<!-- Node9&#45;&gt;Node7 -->
<g id="edge15" class="edge"><title>Node9&#45;&gt;Node7</title>
<path fill="none" stroke="midnightblue" d="M494.746,-56.4435C463.633,-46.6756 412.871,-30.7385 380.473,-20.5673"/>
<polygon fill="midnightblue" stroke="midnightblue" points="381.238,-17.1388 370.648,-17.4826 379.141,-23.8174 381.238,-17.1388"/>
</g>
<!-- Node9&#45;&gt;Node8 -->
<g id="edge17" class="edge"><title>Node9&#45;&gt;Node8</title>
<path fill="none" stroke="midnightblue" d="M472.778,-57.4915C399.146,-46.2595 262.344,-25.3914 200.203,-15.9123"/>
<polygon fill="midnightblue" stroke="midnightblue" points="200.608,-12.4337 190.195,-14.3856 199.552,-19.3536 200.608,-12.4337"/>
</g>
<!-- Node10 -->
<g id="node10" class="node"><title>Node10</title>
<polygon fill="none" stroke="#bfbfbf" points="643,-0.5 643,-19.5 683,-19.5 683,-0.5 643,-0.5"/>
<text text-anchor="middle" x="663" y="-7.5" font-family="Helvetica,sans-Serif" font-size="10.00">utility</text>
</g>
<!-- Node9&#45;&gt;Node10 -->
<g id="edge16" class="edge"><title>Node9&#45;&gt;Node10</title>
<path fill="none" stroke="midnightblue" d="M544.342,-56.4435C568.304,-47.2666 606.483,-32.6446 633.039,-22.4744"/>
<polygon fill="midnightblue" stroke="midnightblue" points="634.507,-25.6601 642.594,-18.8151 632.004,-19.1231 634.507,-25.6601"/>
</g>
<!-- Node11&#45;&gt;Node6 -->
<g id="edge19" class="edge"><title>Node11&#45;&gt;Node6</title>
<path fill="none" stroke="midnightblue" d="M209.736,-57.4556C212.532,-56.96 215.307,-56.4711 218,-56 299.709,-41.7089 395.712,-25.5683 446.764,-17.0367"/>
<polygon fill="midnightblue" stroke="midnightblue" points="447.369,-20.4842 456.656,-15.3848 446.216,-13.5798 447.369,-20.4842"/>
</g>
<!-- Node11&#45;&gt;Node7 -->
<g id="edge20" class="edge"><title>Node11&#45;&gt;Node7</title>
<path fill="none" stroke="midnightblue" d="M196.838,-56.4435C230.357,-46.4985 285.428,-30.1587 319.599,-20.02"/>
<polygon fill="midnightblue" stroke="midnightblue" points="320.895,-23.2864 329.486,-17.0865 318.904,-16.5756 320.895,-23.2864"/>
</g>
<!-- Node11&#45;&gt;Node8 -->
<g id="edge21" class="edge"><title>Node11&#45;&gt;Node8</title>
<path fill="none" stroke="midnightblue" d="M168,-56.083C168,-49.0059 168,-38.8611 168,-29.9865"/>
<polygon fill="midnightblue" stroke="midnightblue" points="171.5,-29.751 168,-19.7511 164.5,-29.7511 171.5,-29.751"/>
</g>
<!-- Node12&#45;&gt;Node6 -->
<g id="edge23" class="edge"><title>Node12&#45;&gt;Node6</title>
<path fill="none" stroke="midnightblue" d="M589.876,-56.4435C568.976,-47.5566 536.065,-33.5632 512.284,-23.4514"/>
<polygon fill="midnightblue" stroke="midnightblue" points="513.602,-20.2085 503.029,-19.5164 510.862,-26.6504 513.602,-20.2085"/>
</g>
<!-- Node12&#45;&gt;Node7 -->
<g id="edge25" class="edge"><title>Node12&#45;&gt;Node7</title>
<path fill="none" stroke="midnightblue" d="M589.391,-58.741C585.936,-57.7709 582.376,-56.8202 579,-56 508.618,-38.9034 424.869,-23.7414 380.739,-16.1484"/>
<polygon fill="midnightblue" stroke="midnightblue" points="381.107,-12.6607 370.661,-14.4278 379.929,-19.5609 381.107,-12.6607"/>
</g>
<!-- Node13 -->
<g id="node13" class="node"><title>Node13</title>
<polygon fill="none" stroke="#bfbfbf" points="573,-0.5 573,-19.5 625,-19.5 625,-0.5 573,-0.5"/>
<text text-anchor="middle" x="599" y="-7.5" font-family="Helvetica,sans-Serif" font-size="10.00">sstream</text>
</g>
<!-- Node12&#45;&gt;Node13 -->
<g id="edge24" class="edge"><title>Node12&#45;&gt;Node13</title>
<path fill="none" stroke="midnightblue" d="M608.184,-56.083C606.726,-48.9272 604.629,-38.6353 602.807,-29.6911"/>
<polygon fill="midnightblue" stroke="midnightblue" points="606.208,-28.8512 600.783,-19.7511 599.349,-30.2485 606.208,-28.8512"/>
</g>
<!-- Node14&#45;&gt;Node7 -->
<g id="edge27" class="edge"><title>Node14&#45;&gt;Node7</title>
<path fill="none" stroke="midnightblue" d="M70.2176,-58.9627C132.335,-48.3141 260.347,-26.3692 319.186,-16.2824"/>
<polygon fill="midnightblue" stroke="midnightblue" points="320.071,-19.6818 329.336,-14.5424 318.889,-12.7824 320.071,-19.6818"/>
</g>
<!-- Node14&#45;&gt;Node8 -->
<g id="edge28" class="edge"><title>Node14&#45;&gt;Node8</title>
<path fill="none" stroke="midnightblue" d="M56.0742,-56.4435C78.0598,-47.5171 112.734,-33.4387 137.664,-23.3168"/>
<polygon fill="midnightblue" stroke="midnightblue" points="139.076,-26.5213 147.024,-19.5164 136.442,-20.0355 139.076,-26.5213"/>
</g>
<!-- Node15&#45;&gt;Node6 -->
<g id="edge31" class="edge"><title>Node15&#45;&gt;Node6</title>
<path fill="none" stroke="midnightblue" d="M692.545,-56.4435C644.864,-46.1031 565.305,-28.8492 519.154,-18.8407"/>
<polygon fill="midnightblue" stroke="midnightblue" points="519.8,-15.3993 509.285,-16.7003 518.316,-22.2403 519.8,-15.3993"/>
</g>
<!-- Node15&#45;&gt;Node7 -->
<g id="edge32" class="edge"><title>Node15&#45;&gt;Node7</title>
<path fill="none" stroke="midnightblue" d="M687.432,-58.6998C608.969,-47.6082 448.111,-24.869 380.745,-15.3461"/>
<polygon fill="midnightblue" stroke="midnightblue" points="381.154,-11.8693 370.763,-13.935 380.174,-18.8003 381.154,-11.8693"/>
</g>
<!-- Node15&#45;&gt;Node10 -->
<g id="edge34" class="edge"><title>Node15&#45;&gt;Node10</title>
<path fill="none" stroke="midnightblue" d="M720.914,-56.324C710.514,-48.1849 694.739,-35.8395 682.278,-26.0874"/>
<polygon fill="midnightblue" stroke="midnightblue" points="684.32,-23.2407 674.288,-19.8339 680.006,-28.7533 684.32,-23.2407"/>
</g>
<!-- Node16 -->
<g id="node16" class="node"><title>Node16</title>
<polygon fill="none" stroke="#bfbfbf" points="701.5,-0.5 701.5,-19.5 784.5,-19.5 784.5,-0.5 701.5,-0.5"/>
<text text-anchor="middle" x="743" y="-7.5" font-family="Helvetica,sans-Serif" font-size="10.00">unordered_map</text>
</g>
<!-- Node15&#45;&gt;Node16 -->
<g id="edge33" class="edge"><title>Node15&#45;&gt;Node16</title>
<path fill="none" stroke="midnightblue" d="M733.816,-56.083C735.274,-48.9272 737.371,-38.6353 739.193,-29.6911"/>
<polygon fill="midnightblue" stroke="midnightblue" points="742.651,-30.2485 741.217,-19.7511 735.792,-28.8512 742.651,-30.2485"/>
</g>
<!-- Node17&#45;&gt;Node6 -->
<g id="edge36" class="edge"><title>Node17&#45;&gt;Node6</title>
<path fill="none" stroke="midnightblue" d="M645.832,-168.239C652.241,-146.581 665.34,-89.8334 639,-56 624.314,-37.136 560.6,-23.5139 519.278,-16.4691"/>
<polygon fill="midnightblue" stroke="midnightblue" points="519.735,-12.9972 509.298,-14.8206 518.594,-19.9036 519.735,-12.9972"/>
</g>
</g>
</svg>
        <g id="navigator" transform="translate(0 0)" fill="#404254">
                <rect fill="#f2f5e9" fill-opacity="0.5" stroke="#606060" stroke-width=".5" x="0" y="0" width="60" height="60"/>
                <use id="zoomplus" xlink:href="#zoomPlus" x="17" y="9" onmousedown="handleZoom(evt,'in')"/>
                <use id="zoomminus" xlink:href="#zoomMin" x="42" y="9" onmousedown="handleZoom(evt,'out')"/>
                <use id="reset" xlink:href="#resetDef" x="30" y="36" onmousedown="handleReset()"/>
                <g id="arrowUp" xlink:href="#dirArrow" transform="translate(30 24)" onmousedown="handlePan(0,-1)">
                  <use xlink:href="#rim" fill="#404040">
                        <set attributeName="fill" to="#808080" begin="arrowUp.mouseover" end="arrowUp.mouseout"/>
                  </use>
                  <path fill="none" stroke="white" stroke-width="1.5" d="M0,-3.0v7 M-2.5,-0.5L0,-3.0L2.5,-0.5"/>
                </g>
                <g id="arrowRight" xlink:href="#dirArrow" transform="rotate(90) translate(36 -43)" onmousedown="handlePan(1,0)">
                  <use xlink:href="#rim" fill="#404040">
                        <set attributeName="fill" to="#808080" begin="arrowRight.mouseover" end="arrowRight.mouseout"/>
                  </use>
                  <path fill="none" stroke="white" stroke-width="1.5" d="M0,-3.0v7 M-2.5,-0.5L0,-3.0L2.5,-0.5"/>
                </g>
                <g id="arrowDown" xlink:href="#dirArrow" transform="rotate(180) translate(-30 -48)" onmousedown="handlePan(0,1)">
                  <use xlink:href="#rim" fill="#404040">
                        <set attributeName="fill" to="#808080" begin="arrowDown.mouseover" end="arrowDown.mouseout"/>
                  </use>
                  <path fill="none" stroke="white" stroke-width="1.5" d="M0,-3.0v7 M-2.5,-0.5L0,-3.0L2.5,-0.5"/>
                </g>
                <g id="arrowLeft" xlink:href="#dirArrow" transform="rotate(270) translate(-36 17)" onmousedown="handlePan(-1,0)">
                  <use xlink:href="#rim" fill="#404040">
                        <set attributeName="fill" to="#808080" begin="arrowLeft.mouseover" end="arrowLeft.mouseout"/>
                  </use>
                  <path fill="none" stroke="white" stroke-width="1.5" d="M0,-3.0v7 M-2.5,-0.5L0,-3.0L2.5,-0.5"/>
                </g>
        </g>
        <svg viewBox="0 0 15 15" width="100%" height="30px" preserveAspectRatio="xMaxYMin meet">
         <g id="arrow_out" transform="scale(0.3 0.3)">
          <a xlink:href="_forward_kinematics_8cpp__incl_org.svg" target="_base">
           <rect id="button" ry="5" rx="5" y="6" x="6" height="38" width="38"
                fill="#f2f5e9" fill-opacity="0.5" stroke="#606060" stroke-width="1.0"/>
           <path id="arrow"
             d="M 11.500037,31.436501 C 11.940474,20.09759 22.043105,11.32322 32.158766,21.979434 L 37.068811,17.246167 C 37.068811,17.246167 37.088388,32 37.088388,32 L 22.160133,31.978069 C 22.160133,31.978069 26.997745,27.140456 26.997745,27.140456 C 18.528582,18.264221 13.291696,25.230495 11.500037,31.436501 z"
             style="fill:#404040;"/>
          </a>
         </g>
        </svg>
</svg>
