<?xml version="1.0" encoding="UTF-8" standalone="no"?>
<!DOCTYPE svg PUBLIC "-//W3C//DTD SVG 1.1//EN"
 "http://www.w3.org/Graphics/SVG/1.1/DTD/svg11.dtd">
<!-- Generated by graphviz version 2.36.0 (20140111.2315)
 -->
<!-- Title: /home/travis/build/robotology/wb&#45;toolbox/toolbox/src/GetLimits.cpp Pages: 1 -->
<svg width="1773pt" height="330pt"
 viewBox="0.00 0.00 1773.50 330.00" xmlns="http://www.w3.org/2000/svg" xmlns:xlink="http://www.w3.org/1999/xlink">
<g id="graph0" class="graph" transform="scale(1 1) rotate(0) translate(4 326)">
<title>/home/travis/build/robotology/wb&#45;toolbox/toolbox/src/GetLimits.cpp</title>
<!-- Node1 -->
<g id="node1" class="node"><title>Node1</title>
<polygon fill="#bfbfbf" stroke="black" points="706.999,-280.5 706.999,-321.5 837.999,-321.5 837.999,-280.5 706.999,-280.5"/>
<text text-anchor="start" x="714.999" y="-309.5" font-family="Helvetica,sans-Serif" font-size="10.00">/home/travis/build</text>
<text text-anchor="start" x="714.999" y="-298.5" font-family="Helvetica,sans-Serif" font-size="10.00">/robotology/wb&#45;toolbox</text>
<text text-anchor="middle" x="772.499" y="-287.5" font-family="Helvetica,sans-Serif" font-size="10.00">/toolbox/src/GetLimits.cpp</text>
</g>
<!-- Node2 -->
<g id="node2" class="node"><title>Node2</title>
<g id="a_node2"><a xlink:href="_get_limits_8h.html" target="_top" xlink:title="GetLimits.h">
<polygon fill="none" stroke="black" points="320.999,-224.5 320.999,-243.5 387.999,-243.5 387.999,-224.5 320.999,-224.5"/>
<text text-anchor="middle" x="354.499" y="-231.5" font-family="Helvetica,sans-Serif" font-size="10.00">GetLimits.h</text>
</a>
</g>
</g>
<!-- Node1&#45;&gt;Node2 -->
<g id="edge1" class="edge"><title>Node1&#45;&gt;Node2</title>
<path fill="none" stroke="midnightblue" d="M706.985,-290.37C633.704,-279.507 511.498,-261.118 406.499,-244 403.702,-243.544 400.821,-243.067 397.918,-242.58"/>
<polygon fill="midnightblue" stroke="midnightblue" points="398.495,-239.128 388.05,-240.906 397.324,-246.029 398.495,-239.128"/>
</g>
<!-- Node5 -->
<g id="node5" class="node"><title>Node5</title>
<g id="a_node5"><a xlink:href="_parameters_8h.html" target="_top" xlink:title="Parameters.h">
<polygon fill="none" stroke="black" points="154.999,-56.5 154.999,-75.5 229.999,-75.5 229.999,-56.5 154.999,-56.5"/>
<text text-anchor="middle" x="192.499" y="-63.5" font-family="Helvetica,sans-Serif" font-size="10.00">Parameters.h</text>
</a>
</g>
</g>
<!-- Node1&#45;&gt;Node5 -->
<g id="edge30" class="edge"><title>Node1&#45;&gt;Node5</title>
<path fill="none" stroke="midnightblue" d="M706.742,-295.954C597.144,-288.556 382.177,-271.073 311.499,-244 270.97,-228.475 258.355,-222.094 231.499,-188 207.338,-157.328 197.946,-111.265 194.448,-85.7299"/>
<polygon fill="midnightblue" stroke="midnightblue" points="197.896,-85.0806 193.224,-75.5711 190.946,-85.918 197.896,-85.0806"/>
</g>
<!-- Node8 -->
<g id="node8" class="node"><title>Node8</title>
<polygon fill="none" stroke="#bfbfbf" points="137.499,-0.5 137.499,-19.5 181.499,-19.5 181.499,-0.5 137.499,-0.5"/>
<text text-anchor="middle" x="159.499" y="-7.5" font-family="Helvetica,sans-Serif" font-size="10.00">vector</text>
</g>
<!-- Node1&#45;&gt;Node8 -->
<g id="edge47" class="edge"><title>Node1&#45;&gt;Node8</title>
<path fill="none" stroke="midnightblue" d="M706.679,-296.583C519.988,-286.018 0.499318,-250.224 0.499318,-179 0.499318,-179 0.499318,-179 0.499318,-121 0.499318,-90.9022 -1.49795,-77.5637 19.4993,-56 47.9827,-26.7483 95.5134,-16.4824 127.178,-12.8969"/>
<polygon fill="midnightblue" stroke="midnightblue" points="127.643,-16.3684 137.258,-11.9193 126.967,-9.40109 127.643,-16.3684"/>
</g>
<!-- Node9 -->
<g id="node9" class="node"><title>Node9</title>
<g id="a_node9"><a xlink:href="_block_information_8h.html" target="_top" xlink:title="BlockInformation.h">
<polygon fill="none" stroke="black" points="540.499,-56.5 540.499,-75.5 638.499,-75.5 638.499,-56.5 540.499,-56.5"/>
<text text-anchor="middle" x="589.499" y="-63.5" font-family="Helvetica,sans-Serif" font-size="10.00">BlockInformation.h</text>
</a>
</g>
</g>
<!-- Node1&#45;&gt;Node9 -->
<g id="edge14" class="edge"><title>Node1&#45;&gt;Node9</title>
<path fill="none" stroke="midnightblue" d="M725.319,-280.382C707.706,-271.302 688.586,-259.131 674.499,-244 629.855,-196.046 604.335,-120.329 594.387,-85.566"/>
<polygon fill="midnightblue" stroke="midnightblue" points="597.729,-84.518 591.7,-75.8057 590.98,-86.376 597.729,-84.518"/>
</g>
<!-- Node11 -->
<g id="node11" class="node"><title>Node11</title>
<g id="a_node11"><a xlink:href="_configuration_8h.html" target="_top" xlink:title="Configuration.h">
<polygon fill="none" stroke="black" points="362.999,-56.5 362.999,-75.5 445.999,-75.5 445.999,-56.5 362.999,-56.5"/>
<text text-anchor="middle" x="404.499" y="-63.5" font-family="Helvetica,sans-Serif" font-size="10.00">Configuration.h</text>
</a>
</g>
</g>
<!-- Node1&#45;&gt;Node11 -->
<g id="edge19" class="edge"><title>Node1&#45;&gt;Node11</title>
<path fill="none" stroke="midnightblue" d="M726.447,-280.382C704.239,-270.362 677.494,-257.46 654.499,-244 563.853,-190.939 464.268,-114.396 423.493,-82.1883"/>
<polygon fill="midnightblue" stroke="midnightblue" points="425.503,-79.3153 415.494,-75.8414 421.152,-84.7989 425.503,-79.3153"/>
</g>
<!-- Node12 -->
<g id="node12" class="node"><title>Node12</title>
<g id="a_node12"><a xlink:href="_log_8h.html" target="_top" xlink:title="Log.h">
<polygon fill="none" stroke="black" points="656.999,-56.5 656.999,-75.5 697.999,-75.5 697.999,-56.5 656.999,-56.5"/>
<text text-anchor="middle" x="677.499" y="-63.5" font-family="Helvetica,sans-Serif" font-size="10.00">Log.h</text>
</a>
</g>
</g>
<!-- Node1&#45;&gt;Node12 -->
<g id="edge23" class="edge"><title>Node1&#45;&gt;Node12</title>
<path fill="none" stroke="midnightblue" d="M738.209,-280.439C723.462,-270.83 706.821,-258.249 694.499,-244 676.166,-222.799 672.132,-215.232 665.499,-188 656.831,-152.41 665.427,-109.476 671.865,-85.5046"/>
<polygon fill="midnightblue" stroke="midnightblue" points="675.3,-86.2237 674.685,-75.6468 668.57,-84.2986 675.3,-86.2237"/>
</g>
<!-- Node14 -->
<g id="node14" class="node"><title>Node14</title>
<g id="a_node14"><a xlink:href="_parameter_8h.html" target="_top" xlink:title="Parameter.h">
<polygon fill="none" stroke="black" points="28.4993,-56.5 28.4993,-75.5 98.4993,-75.5 98.4993,-56.5 28.4993,-56.5"/>
<text text-anchor="middle" x="63.4993" y="-63.5" font-family="Helvetica,sans-Serif" font-size="10.00">Parameter.h</text>
</a>
</g>
</g>
<!-- Node1&#45;&gt;Node14 -->
<g id="edge27" class="edge"><title>Node1&#45;&gt;Node14</title>
<path fill="none" stroke="midnightblue" d="M706.942,-297.634C588.308,-292.554 343.102,-278.17 265.499,-244 180.524,-206.584 105.527,-120.286 76.3977,-83.7872"/>
<polygon fill="midnightblue" stroke="midnightblue" points="78.9302,-81.345 70.0019,-75.6408 73.4243,-85.6677 78.9302,-81.345"/>
</g>
<!-- Node15 -->
<g id="node15" class="node"><title>Node15</title>
<g id="a_node15"><a xlink:href="_robot_interface_8h.html" target="_top" xlink:title="RobotInterface.h">
<polygon fill="none" stroke="black" points="754.999,-56.5 754.999,-75.5 843.999,-75.5 843.999,-56.5 754.999,-56.5"/>
<text text-anchor="middle" x="799.499" y="-63.5" font-family="Helvetica,sans-Serif" font-size="10.00">RobotInterface.h</text>
</a>
</g>
</g>
<!-- Node1&#45;&gt;Node15 -->
<g id="edge31" class="edge"><title>Node1&#45;&gt;Node15</title>
<path fill="none" stroke="midnightblue" d="M756.843,-280.25C749.75,-270.051 742.146,-257.034 738.499,-244 736.104,-235.44 736.862,-232.737 738.499,-224 748.431,-171.012 775.694,-112.92 790.175,-84.5553"/>
<polygon fill="midnightblue" stroke="midnightblue" points="793.368,-86.0017 794.876,-75.5148 787.157,-82.7723 793.368,-86.0017"/>
</g>
<!-- Node17 -->
<g id="node17" class="node"><title>Node17</title>
<g id="a_node17"><a xlink:href="_signal_8h.html" target="_top" xlink:title="Signal.h">
<polygon fill="none" stroke="black" points="674.499,-168.5 674.499,-187.5 726.499,-187.5 726.499,-168.5 674.499,-168.5"/>
<text text-anchor="middle" x="700.499" y="-175.5" font-family="Helvetica,sans-Serif" font-size="10.00">Signal.h</text>
</a>
</g>
</g>
<!-- Node1&#45;&gt;Node17 -->
<g id="edge36" class="edge"><title>Node1&#45;&gt;Node17</title>
<path fill="none" stroke="midnightblue" d="M738.12,-280.244C725.279,-270.979 712.004,-258.714 704.499,-244 697.195,-229.679 696.771,-211.215 697.837,-197.627"/>
<polygon fill="midnightblue" stroke="midnightblue" points="701.33,-197.886 698.965,-187.559 694.373,-197.107 701.33,-197.886"/>
</g>
<!-- Node18 -->
<g id="node18" class="node"><title>Node18</title>
<polygon fill="none" stroke="#bfbfbf" points="746.999,-224.5 746.999,-243.5 907.999,-243.5 907.999,-224.5 746.999,-224.5"/>
<text text-anchor="middle" x="827.499" y="-231.5" font-family="Helvetica,sans-Serif" font-size="10.00">iDynTree/KinDynComputations.h</text>
</g>
<!-- Node1&#45;&gt;Node18 -->
<g id="edge38" class="edge"><title>Node1&#45;&gt;Node18</title>
<path fill="none" stroke="midnightblue" d="M789.001,-280.498C796.866,-271.203 806.168,-260.21 813.658,-251.358"/>
<polygon fill="midnightblue" stroke="midnightblue" points="816.39,-253.547 820.178,-243.652 811.047,-249.026 816.39,-253.547"/>
</g>
<!-- Node19 -->
<g id="node19" class="node"><title>Node19</title>
<polygon fill="none" stroke="#bfbfbf" points="925.999,-224.5 925.999,-243.5 1047,-243.5 1047,-224.5 925.999,-224.5"/>
<text text-anchor="middle" x="986.499" y="-231.5" font-family="Helvetica,sans-Serif" font-size="10.00">iDynTree/Model/IJoint.h</text>
</g>
<!-- Node1&#45;&gt;Node19 -->
<g id="edge39" class="edge"><title>Node1&#45;&gt;Node19</title>
<path fill="none" stroke="midnightblue" d="M836.706,-280.498C873.098,-269.444 917.395,-255.99 948.342,-246.59"/>
<polygon fill="midnightblue" stroke="midnightblue" points="949.743,-249.822 958.294,-243.567 947.708,-243.124 949.743,-249.822"/>
</g>
<!-- Node20 -->
<g id="node20" class="node"><title>Node20</title>
<polygon fill="none" stroke="#bfbfbf" points="1065.5,-224.5 1065.5,-243.5 1193.5,-243.5 1193.5,-224.5 1065.5,-224.5"/>
<text text-anchor="middle" x="1129.5" y="-231.5" font-family="Helvetica,sans-Serif" font-size="10.00">iDynTree/Model/Indices.h</text>
</g>
<!-- Node1&#45;&gt;Node20 -->
<g id="edge40" class="edge"><title>Node1&#45;&gt;Node20</title>
<path fill="none" stroke="midnightblue" d="M838.395,-288.002C905.711,-275.746 1009.14,-256.914 1072.88,-245.309"/>
<polygon fill="midnightblue" stroke="midnightblue" points="1073.55,-248.745 1082.76,-243.51 1072.29,-241.858 1073.55,-248.745"/>
</g>
<!-- Node21 -->
<g id="node21" class="node"><title>Node21</title>
<polygon fill="none" stroke="#bfbfbf" points="1212,-224.5 1212,-243.5 1335,-243.5 1335,-224.5 1212,-224.5"/>
<text text-anchor="middle" x="1273.5" y="-231.5" font-family="Helvetica,sans-Serif" font-size="10.00">iDynTree/Model/Model.h</text>
</g>
<!-- Node1&#45;&gt;Node21 -->
<g id="edge41" class="edge"><title>Node1&#45;&gt;Node21</title>
<path fill="none" stroke="midnightblue" d="M838.254,-291.469C932.353,-279.261 1104.77,-256.892 1201.96,-244.282"/>
<polygon fill="midnightblue" stroke="midnightblue" points="1202.52,-247.738 1211.99,-242.98 1201.62,-240.796 1202.52,-247.738"/>
</g>
<!-- Node22 -->
<g id="node22" class="node"><title>Node22</title>
<polygon fill="none" stroke="#bfbfbf" points="1353.5,-224.5 1353.5,-243.5 1519.5,-243.5 1519.5,-224.5 1353.5,-224.5"/>
<text text-anchor="middle" x="1436.5" y="-231.5" font-family="Helvetica,sans-Serif" font-size="10.00">yarp/dev/ControlBoardInterfaces.h</text>
</g>
<!-- Node1&#45;&gt;Node22 -->
<g id="edge42" class="edge"><title>Node1&#45;&gt;Node22</title>
<path fill="none" stroke="midnightblue" d="M838.288,-293.56C956.943,-281.945 1207.08,-257.459 1343.3,-244.124"/>
<polygon fill="midnightblue" stroke="midnightblue" points="1343.69,-247.602 1353.31,-243.144 1343.01,-240.635 1343.69,-247.602"/>
</g>
<!-- Node23 -->
<g id="node23" class="node"><title>Node23</title>
<polygon fill="none" stroke="#bfbfbf" points="1537.5,-224.5 1537.5,-243.5 1581.5,-243.5 1581.5,-224.5 1537.5,-224.5"/>
<text text-anchor="middle" x="1559.5" y="-231.5" font-family="Helvetica,sans-Serif" font-size="10.00">cmath</text>
</g>
<!-- Node1&#45;&gt;Node23 -->
<g id="edge43" class="edge"><title>Node1&#45;&gt;Node23</title>
<path fill="none" stroke="midnightblue" d="M838.048,-299.724C968.209,-298.186 1268.34,-289.694 1527.31,-243.84"/>
<polygon fill="midnightblue" stroke="midnightblue" points="1528.06,-247.263 1537.28,-242.053 1526.82,-240.372 1528.06,-247.263"/>
</g>
<!-- Node24 -->
<g id="node24" class="node"><title>Node24</title>
<polygon fill="none" stroke="#bfbfbf" points="1599.5,-224.5 1599.5,-243.5 1639.5,-243.5 1639.5,-224.5 1599.5,-224.5"/>
<text text-anchor="middle" x="1619.5" y="-231.5" font-family="Helvetica,sans-Serif" font-size="10.00">limits</text>
</g>
<!-- Node1&#45;&gt;Node24 -->
<g id="edge44" class="edge"><title>Node1&#45;&gt;Node24</title>
<path fill="none" stroke="midnightblue" d="M838.242,-300.436C977.823,-300.283 1313.59,-294.192 1589.5,-244 1589.6,-243.982 1589.7,-243.963 1589.8,-243.945"/>
<polygon fill="midnightblue" stroke="midnightblue" points="1590.37,-247.405 1599.32,-241.722 1588.78,-240.589 1590.37,-247.405"/>
</g>
<!-- Node25 -->
<g id="node25" class="node"><title>Node25</title>
<polygon fill="none" stroke="#bfbfbf" points="1657.5,-224.5 1657.5,-243.5 1709.5,-243.5 1709.5,-224.5 1657.5,-224.5"/>
<text text-anchor="middle" x="1683.5" y="-231.5" font-family="Helvetica,sans-Serif" font-size="10.00">ostream</text>
</g>
<!-- Node1&#45;&gt;Node25 -->
<g id="edge45" class="edge"><title>Node1&#45;&gt;Node25</title>
<path fill="none" stroke="midnightblue" d="M838.074,-299.999C982.854,-299.094 1340.64,-291.893 1647.27,-243.895"/>
<polygon fill="midnightblue" stroke="midnightblue" points="1647.91,-247.338 1657.24,-242.317 1646.81,-240.424 1647.91,-247.338"/>
</g>
<!-- Node26 -->
<g id="node26" class="node"><title>Node26</title>
<polygon fill="none" stroke="#bfbfbf" points="1727.5,-224.5 1727.5,-243.5 1765.5,-243.5 1765.5,-224.5 1727.5,-224.5"/>
<text text-anchor="middle" x="1746.5" y="-231.5" font-family="Helvetica,sans-Serif" font-size="10.00">tuple</text>
</g>
<!-- Node1&#45;&gt;Node26 -->
<g id="edge46" class="edge"><title>Node1&#45;&gt;Node26</title>
<path fill="none" stroke="midnightblue" d="M838.029,-298.267C1020.06,-293.119 1530.22,-276.333 1717.39,-243.665"/>
<polygon fill="midnightblue" stroke="midnightblue" points="1718.17,-247.079 1727.38,-241.845 1716.92,-240.192 1718.17,-247.079"/>
</g>
<!-- Node3 -->
<g id="node3" class="node"><title>Node3</title>
<g id="a_node3"><a xlink:href="_w_b_block_8h.html" target="_top" xlink:title="WBBlock.h">
<polygon fill="none" stroke="black" points="240.499,-168.5 240.499,-187.5 306.499,-187.5 306.499,-168.5 240.499,-168.5"/>
<text text-anchor="middle" x="273.499" y="-175.5" font-family="Helvetica,sans-Serif" font-size="10.00">WBBlock.h</text>
</a>
</g>
</g>
<!-- Node2&#45;&gt;Node3 -->
<g id="edge2" class="edge"><title>Node2&#45;&gt;Node3</title>
<path fill="none" stroke="midnightblue" d="M341.485,-224.324C328.968,-215.979 309.818,-203.212 295.028,-193.352"/>
<polygon fill="midnightblue" stroke="midnightblue" points="296.743,-190.289 286.481,-187.655 292.86,-196.114 296.743,-190.289"/>
</g>
<!-- Node6 -->
<g id="node6" class="node"><title>Node6</title>
<polygon fill="none" stroke="#bfbfbf" points="498.499,-0.5 498.499,-19.5 550.499,-19.5 550.499,-0.5 498.499,-0.5"/>
<text text-anchor="middle" x="524.499" y="-7.5" font-family="Helvetica,sans-Serif" font-size="10.00">memory</text>
</g>
<!-- Node2&#45;&gt;Node6 -->
<g id="edge12" class="edge"><title>Node2&#45;&gt;Node6</title>
<path fill="none" stroke="midnightblue" d="M361.86,-224.344C381.675,-200.935 437.546,-134.214 480.499,-76 492.218,-60.1175 504.762,-41.3994 513.445,-28.1388"/>
<polygon fill="midnightblue" stroke="midnightblue" points="516.502,-29.8578 519.019,-19.5661 510.633,-26.0421 516.502,-29.8578"/>
</g>
<!-- Node7 -->
<g id="node7" class="node"><title>Node7</title>
<polygon fill="none" stroke="#bfbfbf" points="313.999,-0.5 313.999,-19.5 354.999,-19.5 354.999,-0.5 313.999,-0.5"/>
<text text-anchor="middle" x="334.499" y="-7.5" font-family="Helvetica,sans-Serif" font-size="10.00">string</text>
</g>
<!-- Node2&#45;&gt;Node7 -->
<g id="edge13" class="edge"><title>Node2&#45;&gt;Node7</title>
<path fill="none" stroke="midnightblue" d="M353.715,-224.297C350.773,-191.633 340.343,-75.8661 336.207,-29.9573"/>
<polygon fill="midnightblue" stroke="midnightblue" points="339.683,-29.5293 335.3,-19.8837 332.711,-30.1575 339.683,-29.5293"/>
</g>
<!-- Node4 -->
<g id="node4" class="node"><title>Node4</title>
<g id="a_node4"><a xlink:href="_block_8h.html" target="_top" xlink:title="Block.h">
<polygon fill="none" stroke="black" points="218.499,-112.5 218.499,-131.5 268.499,-131.5 268.499,-112.5 218.499,-112.5"/>
<text text-anchor="middle" x="243.499" y="-119.5" font-family="Helvetica,sans-Serif" font-size="10.00">Block.h</text>
</a>
</g>
</g>
<!-- Node3&#45;&gt;Node4 -->
<g id="edge3" class="edge"><title>Node3&#45;&gt;Node4</title>
<path fill="none" stroke="midnightblue" d="M268.545,-168.083C264.395,-160.613 258.346,-149.724 253.233,-140.52"/>
<polygon fill="midnightblue" stroke="midnightblue" points="256.277,-138.793 248.361,-131.751 250.158,-142.192 256.277,-138.793"/>
</g>
<!-- Node3&#45;&gt;Node6 -->
<g id="edge10" class="edge"><title>Node3&#45;&gt;Node6</title>
<path fill="none" stroke="midnightblue" d="M292.094,-168.465C325.899,-152.557 399.055,-116.313 454.499,-76 474.907,-61.1621 495.781,-41.0031 509.36,-27.0882"/>
<polygon fill="midnightblue" stroke="midnightblue" points="512.05,-29.3406 516.453,-19.7043 507.001,-24.4912 512.05,-29.3406"/>
</g>
<!-- Node3&#45;&gt;Node7 -->
<g id="edge11" class="edge"><title>Node3&#45;&gt;Node7</title>
<path fill="none" stroke="midnightblue" d="M276.779,-168.075C286.422,-141.832 314.823,-64.5453 327.842,-29.1165"/>
<polygon fill="midnightblue" stroke="midnightblue" points="331.187,-30.1617 331.351,-19.5681 324.616,-27.7472 331.187,-30.1617"/>
</g>
<!-- Node4&#45;&gt;Node5 -->
<g id="edge4" class="edge"><title>Node4&#45;&gt;Node5</title>
<path fill="none" stroke="midnightblue" d="M235.078,-112.083C227.651,-104.22 216.648,-92.5688 207.687,-83.0813"/>
<polygon fill="midnightblue" stroke="midnightblue" points="210.175,-80.618 200.764,-75.7511 205.086,-85.4244 210.175,-80.618"/>
</g>
<!-- Node4&#45;&gt;Node7 -->
<g id="edge8" class="edge"><title>Node4&#45;&gt;Node7</title>
<path fill="none" stroke="midnightblue" d="M247.529,-112.442C253.878,-99.4534 267.089,-74.3356 282.499,-56 291.861,-44.8612 304.095,-34.129 314.344,-25.941"/>
<polygon fill="midnightblue" stroke="midnightblue" points="316.623,-28.6026 322.38,-19.7083 312.333,-23.0713 316.623,-28.6026"/>
</g>
<!-- Node4&#45;&gt;Node8 -->
<g id="edge9" class="edge"><title>Node4&#45;&gt;Node8</title>
<path fill="none" stroke="midnightblue" d="M218.43,-117.213C195.054,-112.206 161.466,-100.901 145.499,-76 136.374,-61.7685 142.271,-42.5471 148.99,-28.7027"/>
<polygon fill="midnightblue" stroke="midnightblue" points="152.167,-30.1849 153.824,-19.7204 146.003,-26.8676 152.167,-30.1849"/>
</g>
<!-- Node5&#45;&gt;Node6 -->
<g id="edge5" class="edge"><title>Node5&#45;&gt;Node6</title>
<path fill="none" stroke="midnightblue" d="M230.261,-58.8581C294.658,-48.3839 424.888,-27.2019 488.243,-16.8971"/>
<polygon fill="midnightblue" stroke="midnightblue" points="488.871,-20.3411 498.179,-15.281 487.747,-13.4319 488.871,-20.3411"/>
</g>
<!-- Node5&#45;&gt;Node7 -->
<g id="edge6" class="edge"><title>Node5&#45;&gt;Node7</title>
<path fill="none" stroke="midnightblue" d="M215,-56.4435C239.132,-47.2666 277.582,-32.6446 304.326,-22.4744"/>
<polygon fill="midnightblue" stroke="midnightblue" points="305.846,-25.6411 313.948,-18.8151 303.357,-19.0982 305.846,-25.6411"/>
</g>
<!-- Node5&#45;&gt;Node8 -->
<g id="edge7" class="edge"><title>Node5&#45;&gt;Node8</title>
<path fill="none" stroke="midnightblue" d="M187.05,-56.083C182.485,-48.6127 175.831,-37.7244 170.206,-28.5199"/>
<polygon fill="midnightblue" stroke="midnightblue" points="173.048,-26.4588 164.847,-19.7511 167.075,-30.109 173.048,-26.4588"/>
</g>
<!-- Node9&#45;&gt;Node6 -->
<g id="edge15" class="edge"><title>Node9&#45;&gt;Node6</title>
<path fill="none" stroke="midnightblue" d="M579.056,-56.324C569.353,-48.2631 554.684,-36.0765 543,-26.3695"/>
<polygon fill="midnightblue" stroke="midnightblue" points="545.061,-23.532 535.133,-19.8339 540.588,-28.9163 545.061,-23.532"/>
</g>
<!-- Node9&#45;&gt;Node7 -->
<g id="edge16" class="edge"><title>Node9&#45;&gt;Node7</title>
<path fill="none" stroke="midnightblue" d="M549.094,-56.4435C498.021,-45.6282 411.235,-27.2498 365.236,-17.509"/>
<polygon fill="midnightblue" stroke="midnightblue" points="365.774,-14.0453 355.266,-15.3976 364.324,-20.8934 365.774,-14.0453"/>
</g>
<!-- Node9&#45;&gt;Node8 -->
<g id="edge18" class="edge"><title>Node9&#45;&gt;Node8</title>
<path fill="none" stroke="midnightblue" d="M540.173,-58.8055C451.233,-47.6364 266.32,-24.4146 191.729,-15.0475"/>
<polygon fill="midnightblue" stroke="midnightblue" points="191.907,-11.5424 181.549,-13.7691 191.035,-18.4879 191.907,-11.5424"/>
</g>
<!-- Node10 -->
<g id="node10" class="node"><title>Node10</title>
<polygon fill="none" stroke="#bfbfbf" points="581.499,-0.5 581.499,-19.5 621.499,-19.5 621.499,-0.5 581.499,-0.5"/>
<text text-anchor="middle" x="601.499" y="-7.5" font-family="Helvetica,sans-Serif" font-size="10.00">utility</text>
</g>
<!-- Node9&#45;&gt;Node10 -->
<g id="edge17" class="edge"><title>Node9&#45;&gt;Node10</title>
<path fill="none" stroke="midnightblue" d="M591.481,-56.083C593.071,-48.9272 595.358,-38.6353 597.346,-29.6911"/>
<polygon fill="midnightblue" stroke="midnightblue" points="600.802,-30.2722 599.555,-19.7511 593.969,-28.7537 600.802,-30.2722"/>
</g>
<!-- Node11&#45;&gt;Node6 -->
<g id="edge20" class="edge"><title>Node11&#45;&gt;Node6</title>
<path fill="none" stroke="midnightblue" d="M423.514,-56.4435C443.087,-47.6356 473.807,-33.8116 496.228,-23.722"/>
<polygon fill="midnightblue" stroke="midnightblue" points="497.891,-26.8119 505.574,-19.5164 495.018,-20.4284 497.891,-26.8119"/>
</g>
<!-- Node11&#45;&gt;Node7 -->
<g id="edge21" class="edge"><title>Node11&#45;&gt;Node7</title>
<path fill="none" stroke="midnightblue" d="M393.253,-56.324C382.702,-48.1849 366.699,-35.8395 354.057,-26.0874"/>
<polygon fill="midnightblue" stroke="midnightblue" points="356.006,-23.1707 345.951,-19.8339 351.731,-28.7132 356.006,-23.1707"/>
</g>
<!-- Node11&#45;&gt;Node8 -->
<g id="edge22" class="edge"><title>Node11&#45;&gt;Node8</title>
<path fill="none" stroke="midnightblue" d="M365.678,-56.4435C317.586,-45.8437 236.535,-27.9792 191.719,-18.1014"/>
<polygon fill="midnightblue" stroke="midnightblue" points="192.193,-14.6221 181.674,-15.8876 190.687,-21.458 192.193,-14.6221"/>
</g>
<!-- Node12&#45;&gt;Node6 -->
<g id="edge24" class="edge"><title>Node12&#45;&gt;Node6</title>
<path fill="none" stroke="midnightblue" d="M656.865,-57.7173C631.656,-48.8199 588.65,-33.6413 558.518,-23.0067"/>
<polygon fill="midnightblue" stroke="midnightblue" points="559.433,-19.6178 548.838,-19.59 557.103,-26.2188 559.433,-19.6178"/>
</g>
<!-- Node12&#45;&gt;Node7 -->
<g id="edge26" class="edge"><title>Node12&#45;&gt;Node7</title>
<path fill="none" stroke="midnightblue" d="M656.924,-58.5928C653.465,-57.6406 649.895,-56.7342 646.499,-56 544.486,-33.9473 421.316,-19.778 365.124,-13.9849"/>
<polygon fill="midnightblue" stroke="midnightblue" points="365.42,-10.497 355.118,-12.9693 364.713,-17.4613 365.42,-10.497"/>
</g>
<!-- Node13 -->
<g id="node13" class="node"><title>Node13</title>
<polygon fill="none" stroke="#bfbfbf" points="651.499,-0.5 651.499,-19.5 703.499,-19.5 703.499,-0.5 651.499,-0.5"/>
<text text-anchor="middle" x="677.499" y="-7.5" font-family="Helvetica,sans-Serif" font-size="10.00">sstream</text>
</g>
<!-- Node12&#45;&gt;Node13 -->
<g id="edge25" class="edge"><title>Node12&#45;&gt;Node13</title>
<path fill="none" stroke="midnightblue" d="M677.499,-56.083C677.499,-49.0059 677.499,-38.8611 677.499,-29.9865"/>
<polygon fill="midnightblue" stroke="midnightblue" points="680.999,-29.751 677.499,-19.7511 673.999,-29.7511 680.999,-29.751"/>
</g>
<!-- Node14&#45;&gt;Node7 -->
<g id="edge28" class="edge"><title>Node14&#45;&gt;Node7</title>
<path fill="none" stroke="midnightblue" d="M98.65,-57.9958C152.132,-47.3389 253.065,-27.2268 303.779,-17.1214"/>
<polygon fill="midnightblue" stroke="midnightblue" points="304.68,-20.5107 313.803,-15.1239 303.312,-13.6457 304.68,-20.5107"/>
</g>
<!-- Node14&#45;&gt;Node8 -->
<g id="edge29" class="edge"><title>Node14&#45;&gt;Node8</title>
<path fill="none" stroke="midnightblue" d="M78.9234,-56.324C94.0389,-47.8215 117.315,-34.7288 134.97,-24.7975"/>
<polygon fill="midnightblue" stroke="midnightblue" points="137.114,-27.6077 144.114,-19.6545 133.682,-21.5066 137.114,-27.6077"/>
</g>
<!-- Node15&#45;&gt;Node6 -->
<g id="edge32" class="edge"><title>Node15&#45;&gt;Node6</title>
<path fill="none" stroke="midnightblue" d="M755.925,-56.4435C702.054,-45.8653 611.338,-28.052 560.972,-18.1619"/>
<polygon fill="midnightblue" stroke="midnightblue" points="561.352,-14.6697 550.865,-16.1772 560.003,-21.5385 561.352,-14.6697"/>
</g>
<!-- Node15&#45;&gt;Node7 -->
<g id="edge33" class="edge"><title>Node15&#45;&gt;Node7</title>
<path fill="none" stroke="midnightblue" d="M754.913,-59.8223C661.15,-48.9336 445.6,-23.9021 365.348,-14.5825"/>
<polygon fill="midnightblue" stroke="midnightblue" points="365.717,-11.1019 355.38,-13.4249 364.91,-18.0552 365.717,-11.1019"/>
</g>
<!-- Node15&#45;&gt;Node10 -->
<g id="edge35" class="edge"><title>Node15&#45;&gt;Node10</title>
<path fill="none" stroke="midnightblue" d="M768.126,-56.4435C730.549,-46.1953 668.073,-29.1565 631.237,-19.1103"/>
<polygon fill="midnightblue" stroke="midnightblue" points="632.138,-15.7282 621.569,-16.4736 630.296,-22.4815 632.138,-15.7282"/>
</g>
<!-- Node16 -->
<g id="node16" class="node"><title>Node16</title>
<polygon fill="none" stroke="#bfbfbf" points="757.999,-0.5 757.999,-19.5 840.999,-19.5 840.999,-0.5 757.999,-0.5"/>
<text text-anchor="middle" x="799.499" y="-7.5" font-family="Helvetica,sans-Serif" font-size="10.00">unordered_map</text>
</g>
<!-- Node15&#45;&gt;Node16 -->
<g id="edge34" class="edge"><title>Node15&#45;&gt;Node16</title>
<path fill="none" stroke="midnightblue" d="M799.499,-56.083C799.499,-49.0059 799.499,-38.8611 799.499,-29.9865"/>
<polygon fill="midnightblue" stroke="midnightblue" points="802.999,-29.751 799.499,-19.7511 795.999,-29.7511 802.999,-29.751"/>
</g>
<!-- Node17&#45;&gt;Node6 -->
<g id="edge37" class="edge"><title>Node17&#45;&gt;Node6</title>
<path fill="none" stroke="midnightblue" d="M704.415,-168.233C713.434,-146.561 732.948,-89.7852 706.499,-56 701.95,-50.1884 612.459,-30.0169 560.693,-18.7551"/>
<polygon fill="midnightblue" stroke="midnightblue" points="561.393,-15.3258 550.879,-16.6285 559.911,-22.167 561.393,-15.3258"/>
</g>
</g>
</svg>
