<?xml version="1.0" encoding="UTF-8" standalone="no"?>
<!DOCTYPE svg PUBLIC "-//W3C//DTD SVG 1.1//EN"
 "http://www.w3.org/Graphics/SVG/1.1/DTD/svg11.dtd">
<!-- Generated by graphviz version 2.36.0 (20140111.2315)
 -->
<!-- Title: /home/travis/build/robotology/wb&#45;toolbox/toolbox/src/library/src/GetMeasurement.cpp Pages: 1 -->
<svg width="1741pt" height="342pt"
 viewBox="0.00 0.00 1740.64 342.00" xmlns="http://www.w3.org/2000/svg" xmlns:xlink="http://www.w3.org/1999/xlink">
<g id="graph0" class="graph" transform="scale(1 1) rotate(0) translate(4 338)">
<title>/home/travis/build/robotology/wb&#45;toolbox/toolbox/src/library/src/GetMeasurement.cpp</title>
<!-- Node1 -->
<g id="node1" class="node"><title>Node1</title>
<polygon fill="#bfbfbf" stroke="black" points="773.138,-281 773.138,-333 888.138,-333 888.138,-281 773.138,-281"/>
<text text-anchor="start" x="781.138" y="-321" font-family="Helvetica,sans-Serif" font-size="10.00">/home/travis/build</text>
<text text-anchor="start" x="781.138" y="-310" font-family="Helvetica,sans-Serif" font-size="10.00">/robotology/wb&#45;toolbox</text>
<text text-anchor="start" x="781.138" y="-299" font-family="Helvetica,sans-Serif" font-size="10.00">/toolbox/src/library/src</text>
<text text-anchor="middle" x="830.638" y="-288" font-family="Helvetica,sans-Serif" font-size="10.00">/GetMeasurement.cpp</text>
</g>
<!-- Node2 -->
<g id="node2" class="node"><title>Node2</title>
<g id="a_node2"><a xlink:href="_get_measurement_8h.html" target="_top" xlink:title="GetMeasurement.h">
<polygon fill="none" stroke="black" points="413.638,-224.5 413.638,-243.5 513.638,-243.5 513.638,-224.5 413.638,-224.5"/>
<text text-anchor="middle" x="463.638" y="-231.5" font-family="Helvetica,sans-Serif" font-size="10.00">GetMeasurement.h</text>
</a>
</g>
</g>
<!-- Node1&#45;&gt;Node2 -->
<g id="edge1" class="edge"><title>Node1&#45;&gt;Node2</title>
<path fill="none" stroke="midnightblue" d="M772.891,-294.828C703.002,-281.307 586.219,-258.715 517.923,-245.502"/>
<polygon fill="midnightblue" stroke="midnightblue" points="518.284,-242.007 507.802,-243.544 516.955,-248.88 518.284,-242.007"/>
</g>
<!-- Node5 -->
<g id="node5" class="node"><title>Node5</title>
<g id="a_node5"><a xlink:href="_parameters_8h.html" target="_top" xlink:title="Core/Parameters.h">
<polygon fill="none" stroke="black" points="179.138,-56.5 179.138,-75.5 278.138,-75.5 278.138,-56.5 179.138,-56.5"/>
<text text-anchor="middle" x="228.638" y="-63.5" font-family="Helvetica,sans-Serif" font-size="10.00">Core/Parameters.h</text>
</a>
</g>
</g>
<!-- Node1&#45;&gt;Node5 -->
<g id="edge37" class="edge"><title>Node1&#45;&gt;Node5</title>
<path fill="none" stroke="midnightblue" d="M772.674,-302.16C641.156,-292.231 325.948,-261.191 253.638,-188 226.717,-160.751 225.189,-112.64 226.728,-86.0318"/>
<polygon fill="midnightblue" stroke="midnightblue" points="230.24,-86.0138 227.54,-75.7688 223.262,-85.4615 230.24,-86.0138"/>
</g>
<!-- Node8 -->
<g id="node8" class="node"><title>Node8</title>
<polygon fill="none" stroke="#bfbfbf" points="167.638,-0.5 167.638,-19.5 211.638,-19.5 211.638,-0.5 167.638,-0.5"/>
<text text-anchor="middle" x="189.638" y="-7.5" font-family="Helvetica,sans-Serif" font-size="10.00">vector</text>
</g>
<!-- Node1&#45;&gt;Node8 -->
<g id="edge48" class="edge"><title>Node1&#45;&gt;Node8</title>
<path fill="none" stroke="midnightblue" d="M772.933,-303.266C584.708,-293.591 0.638289,-257.263 0.638289,-179 0.638289,-179 0.638289,-179 0.638289,-121 0.638289,-90.9022 -1.91487,-77.008 19.6383,-56 56.8087,-19.7697 119.588,-11.8145 157.567,-10.5578"/>
<polygon fill="midnightblue" stroke="midnightblue" points="157.649,-14.0569 167.579,-10.363 157.513,-7.05827 157.649,-14.0569"/>
</g>
<!-- Node9 -->
<g id="node9" class="node"><title>Node9</title>
<g id="a_node9"><a xlink:href="_configuration_8h.html" target="_top" xlink:title="Base/Configuration.h">
<polygon fill="none" stroke="black" points="410.638,-56.5 410.638,-75.5 518.638,-75.5 518.638,-56.5 410.638,-56.5"/>
<text text-anchor="middle" x="464.638" y="-63.5" font-family="Helvetica,sans-Serif" font-size="10.00">Base/Configuration.h</text>
</a>
</g>
</g>
<!-- Node1&#45;&gt;Node9 -->
<g id="edge14" class="edge"><title>Node1&#45;&gt;Node9</title>
<path fill="none" stroke="midnightblue" d="M775.555,-280.916C753.66,-270.317 728.524,-257.345 706.638,-244 619.046,-190.589 522.884,-114.505 483.268,-82.3182"/>
<polygon fill="midnightblue" stroke="midnightblue" points="485.238,-79.4086 475.278,-75.7975 480.812,-84.8318 485.238,-79.4086"/>
</g>
<!-- Node11 -->
<g id="node11" class="node"><title>Node11</title>
<g id="a_node11"><a xlink:href="_robot_interface_8h.html" target="_top" xlink:title="Base/RobotInterface.h">
<polygon fill="none" stroke="black" points="875.138,-56.5 875.138,-75.5 990.138,-75.5 990.138,-56.5 875.138,-56.5"/>
<text text-anchor="middle" x="932.638" y="-63.5" font-family="Helvetica,sans-Serif" font-size="10.00">Base/RobotInterface.h</text>
</a>
</g>
</g>
<!-- Node1&#45;&gt;Node11 -->
<g id="edge19" class="edge"><title>Node1&#45;&gt;Node11</title>
<path fill="none" stroke="midnightblue" d="M836.765,-280.858C841.067,-264.432 847.343,-242.649 854.638,-224 875.171,-171.517 906.809,-112.818 922.744,-84.353"/>
<polygon fill="midnightblue" stroke="midnightblue" points="925.814,-86.0342 927.682,-75.6053 919.718,-82.5932 925.814,-86.0342"/>
</g>
<!-- Node14 -->
<g id="node14" class="node"><title>Node14</title>
<g id="a_node14"><a xlink:href="_block_information_8h.html" target="_top" xlink:title="Core/BlockInformation.h">
<polygon fill="none" stroke="black" points="734.638,-56.5 734.638,-75.5 856.638,-75.5 856.638,-56.5 734.638,-56.5"/>
<text text-anchor="middle" x="795.638" y="-63.5" font-family="Helvetica,sans-Serif" font-size="10.00">Core/BlockInformation.h</text>
</a>
</g>
</g>
<!-- Node1&#45;&gt;Node14 -->
<g id="edge24" class="edge"><title>Node1&#45;&gt;Node14</title>
<path fill="none" stroke="midnightblue" d="M824.318,-280.78C821.671,-269.571 818.73,-256.181 816.638,-244 806.795,-186.687 800.087,-118.14 797.215,-85.735"/>
<polygon fill="midnightblue" stroke="midnightblue" points="800.681,-85.1809 796.332,-75.5195 793.707,-85.7838 800.681,-85.1809"/>
</g>
<!-- Node15 -->
<g id="node15" class="node"><title>Node15</title>
<polygon fill="none" stroke="#bfbfbf" points="995.638,-0.5 995.638,-19.5 1033.64,-19.5 1033.64,-0.5 995.638,-0.5"/>
<text text-anchor="middle" x="1014.64" y="-7.5" font-family="Helvetica,sans-Serif" font-size="10.00">tuple</text>
</g>
<!-- Node1&#45;&gt;Node15 -->
<g id="edge47" class="edge"><title>Node1&#45;&gt;Node15</title>
<path fill="none" stroke="midnightblue" d="M847.868,-280.713C859.056,-264.418 874.036,-242.834 887.638,-224 935.778,-157.344 963.436,-150.305 998.638,-76 1005.64,-61.2307 1009.77,-43.0738 1012.08,-29.7076"/>
<polygon fill="midnightblue" stroke="midnightblue" points="1015.55,-30.2033 1013.61,-19.7864 1008.63,-29.1353 1015.55,-30.2033"/>
</g>
<!-- Node16 -->
<g id="node16" class="node"><title>Node16</title>
<g id="a_node16"><a xlink:href="_log_8h.html" target="_top" xlink:title="Core/Log.h">
<polygon fill="none" stroke="black" points="613.138,-56.5 613.138,-75.5 678.138,-75.5 678.138,-56.5 613.138,-56.5"/>
<text text-anchor="middle" x="645.638" y="-63.5" font-family="Helvetica,sans-Serif" font-size="10.00">Core/Log.h</text>
</a>
</g>
</g>
<!-- Node1&#45;&gt;Node16 -->
<g id="edge30" class="edge"><title>Node1&#45;&gt;Node16</title>
<path fill="none" stroke="midnightblue" d="M784.542,-280.854C750.763,-260.153 706.321,-227.791 679.638,-188 658.245,-156.096 650.196,-110.853 647.256,-85.7025"/>
<polygon fill="midnightblue" stroke="midnightblue" points="650.73,-85.2744 646.235,-75.6808 643.766,-85.9841 650.73,-85.2744"/>
</g>
<!-- Node18 -->
<g id="node18" class="node"><title>Node18</title>
<g id="a_node18"><a xlink:href="_parameter_8h.html" target="_top" xlink:title="Core/Parameter.h">
<polygon fill="none" stroke="black" points="28.6383,-56.5 28.6383,-75.5 122.638,-75.5 122.638,-56.5 28.6383,-56.5"/>
<text text-anchor="middle" x="75.6383" y="-63.5" font-family="Helvetica,sans-Serif" font-size="10.00">Core/Parameter.h</text>
</a>
</g>
</g>
<!-- Node1&#45;&gt;Node18 -->
<g id="edge34" class="edge"><title>Node1&#45;&gt;Node18</title>
<path fill="none" stroke="midnightblue" d="M772.979,-302.87C655.906,-295.906 394.431,-277.081 311.638,-244 216.534,-206 126.009,-119.367 90.9382,-83.2647"/>
<polygon fill="midnightblue" stroke="midnightblue" points="93.0452,-80.4048 83.5989,-75.6071 87.9916,-85.2484 93.0452,-80.4048"/>
</g>
<!-- Node19 -->
<g id="node19" class="node"><title>Node19</title>
<g id="a_node19"><a xlink:href="_signal_8h.html" target="_top" xlink:title="Core/Signal.h">
<polygon fill="none" stroke="black" points="688.638,-168.5 688.638,-187.5 764.638,-187.5 764.638,-168.5 688.638,-168.5"/>
<text text-anchor="middle" x="726.638" y="-175.5" font-family="Helvetica,sans-Serif" font-size="10.00">Core/Signal.h</text>
</a>
</g>
</g>
<!-- Node1&#45;&gt;Node19 -->
<g id="edge38" class="edge"><title>Node1&#45;&gt;Node19</title>
<path fill="none" stroke="midnightblue" d="M809.253,-280.772C799.809,-269.561 788.609,-256.172 778.638,-244 765.394,-227.832 750.518,-209.186 740.081,-196.023"/>
<polygon fill="midnightblue" stroke="midnightblue" points="742.589,-193.553 733.639,-187.884 737.1,-197.897 742.589,-193.553"/>
</g>
<!-- Node20 -->
<g id="node20" class="node"><title>Node20</title>
<polygon fill="none" stroke="#bfbfbf" points="896.638,-224.5 896.638,-243.5 1028.64,-243.5 1028.64,-224.5 896.638,-224.5"/>
<text text-anchor="middle" x="962.638" y="-231.5" font-family="Helvetica,sans-Serif" font-size="10.00">yarp/dev/ICurrentControl.h</text>
</g>
<!-- Node1&#45;&gt;Node20 -->
<g id="edge40" class="edge"><title>Node1&#45;&gt;Node20</title>
<path fill="none" stroke="midnightblue" d="M877.177,-280.968C897.404,-270.088 920.31,-257.767 937.313,-248.622"/>
<polygon fill="midnightblue" stroke="midnightblue" points="939.428,-251.458 946.577,-243.639 936.112,-245.294 939.428,-251.458"/>
</g>
<!-- Node21 -->
<g id="node21" class="node"><title>Node21</title>
<polygon fill="none" stroke="#bfbfbf" points="1046.64,-224.5 1046.64,-243.5 1156.64,-243.5 1156.64,-224.5 1046.64,-224.5"/>
<text text-anchor="middle" x="1101.64" y="-231.5" font-family="Helvetica,sans-Serif" font-size="10.00">yarp/dev/IEncoders.h</text>
</g>
<!-- Node1&#45;&gt;Node21 -->
<g id="edge41" class="edge"><title>Node1&#45;&gt;Node21</title>
<path fill="none" stroke="midnightblue" d="M888.442,-290.856C939.602,-277.452 1013.08,-258.202 1059.05,-246.159"/>
<polygon fill="midnightblue" stroke="midnightblue" points="1060.2,-249.476 1068.98,-243.556 1058.42,-242.704 1060.2,-249.476"/>
</g>
<!-- Node22 -->
<g id="node22" class="node"><title>Node22</title>
<polygon fill="none" stroke="#bfbfbf" points="1174.64,-224.5 1174.64,-243.5 1308.64,-243.5 1308.64,-224.5 1174.64,-224.5"/>
<text text-anchor="middle" x="1241.64" y="-231.5" font-family="Helvetica,sans-Serif" font-size="10.00">yarp/dev/IMotorEncoders.h</text>
</g>
<!-- Node1&#45;&gt;Node22 -->
<g id="edge42" class="edge"><title>Node1&#45;&gt;Node22</title>
<path fill="none" stroke="midnightblue" d="M888.219,-296.053C965.814,-282.648 1103.27,-258.904 1181.93,-245.314"/>
<polygon fill="midnightblue" stroke="midnightblue" points="1182.91,-248.698 1192.17,-243.546 1181.72,-241.8 1182.91,-248.698"/>
</g>
<!-- Node23 -->
<g id="node23" class="node"><title>Node23</title>
<polygon fill="none" stroke="#bfbfbf" points="1327.14,-224.5 1327.14,-243.5 1452.14,-243.5 1452.14,-224.5 1327.14,-224.5"/>
<text text-anchor="middle" x="1389.64" y="-231.5" font-family="Helvetica,sans-Serif" font-size="10.00">yarp/dev/IPWMControl.h</text>
</g>
<!-- Node1&#45;&gt;Node23 -->
<g id="edge43" class="edge"><title>Node1&#45;&gt;Node23</title>
<path fill="none" stroke="midnightblue" d="M888.356,-298.669C990.878,-285.648 1204.51,-258.513 1316.91,-244.237"/>
<polygon fill="midnightblue" stroke="midnightblue" points="1317.66,-247.671 1327.14,-242.938 1316.78,-240.726 1317.66,-247.671"/>
</g>
<!-- Node24 -->
<g id="node24" class="node"><title>Node24</title>
<polygon fill="none" stroke="#bfbfbf" points="1470.64,-224.5 1470.64,-243.5 1600.64,-243.5 1600.64,-224.5 1470.64,-224.5"/>
<text text-anchor="middle" x="1535.64" y="-231.5" font-family="Helvetica,sans-Serif" font-size="10.00">yarp/dev/ITorqueControl.h</text>
</g>
<!-- Node1&#45;&gt;Node24 -->
<g id="edge44" class="edge"><title>Node1&#45;&gt;Node24</title>
<path fill="none" stroke="midnightblue" d="M888.442,-300.727C999.43,-290.511 1250.05,-266.995 1460.64,-244 1460.74,-243.989 1460.84,-243.978 1460.94,-243.967"/>
<polygon fill="midnightblue" stroke="midnightblue" points="1461.05,-247.476 1470.61,-242.89 1460.28,-240.519 1461.05,-247.476"/>
</g>
<!-- Node25 -->
<g id="node25" class="node"><title>Node25</title>
<polygon fill="none" stroke="#bfbfbf" points="1618.64,-224.5 1618.64,-243.5 1662.64,-243.5 1662.64,-224.5 1618.64,-224.5"/>
<text text-anchor="middle" x="1640.64" y="-231.5" font-family="Helvetica,sans-Serif" font-size="10.00">cmath</text>
</g>
<!-- Node1&#45;&gt;Node25 -->
<g id="edge45" class="edge"><title>Node1&#45;&gt;Node25</title>
<path fill="none" stroke="midnightblue" d="M888.33,-305.401C1016.63,-303.211 1335.16,-293.034 1608.31,-243.878"/>
<polygon fill="midnightblue" stroke="midnightblue" points="1609.21,-247.273 1618.42,-242.038 1607.95,-240.386 1609.21,-247.273"/>
</g>
<!-- Node26 -->
<g id="node26" class="node"><title>Node26</title>
<polygon fill="none" stroke="#bfbfbf" points="1680.64,-224.5 1680.64,-243.5 1732.64,-243.5 1732.64,-224.5 1680.64,-224.5"/>
<text text-anchor="middle" x="1706.64" y="-231.5" font-family="Helvetica,sans-Serif" font-size="10.00">ostream</text>
</g>
<!-- Node1&#45;&gt;Node26 -->
<g id="edge46" class="edge"><title>Node1&#45;&gt;Node26</title>
<path fill="none" stroke="midnightblue" d="M888.321,-305.138C1023.5,-302.39 1371.25,-291.093 1670.23,-243.739"/>
<polygon fill="midnightblue" stroke="midnightblue" points="1671.08,-247.148 1680.4,-242.111 1669.97,-240.236 1671.08,-247.148"/>
</g>
<!-- Node3 -->
<g id="node3" class="node"><title>Node3</title>
<g id="a_node3"><a xlink:href="_w_b_block_8h.html" target="_top" xlink:title="Base/WBBlock.h">
<polygon fill="none" stroke="black" points="262.638,-168.5 262.638,-187.5 354.638,-187.5 354.638,-168.5 262.638,-168.5"/>
<text text-anchor="middle" x="308.638" y="-175.5" font-family="Helvetica,sans-Serif" font-size="10.00">Base/WBBlock.h</text>
</a>
</g>
</g>
<!-- Node2&#45;&gt;Node3 -->
<g id="edge2" class="edge"><title>Node2&#45;&gt;Node3</title>
<path fill="none" stroke="midnightblue" d="M439.078,-224.444C413.116,-215.399 371.97,-201.064 342.841,-190.916"/>
<polygon fill="midnightblue" stroke="midnightblue" points="343.678,-187.501 333.084,-187.516 341.375,-194.112 343.678,-187.501"/>
</g>
<!-- Node6 -->
<g id="node6" class="node"><title>Node6</title>
<polygon fill="none" stroke="#bfbfbf" points="558.638,-0.5 558.638,-19.5 610.638,-19.5 610.638,-0.5 558.638,-0.5"/>
<text text-anchor="middle" x="584.638" y="-7.5" font-family="Helvetica,sans-Serif" font-size="10.00">memory</text>
</g>
<!-- Node2&#45;&gt;Node6 -->
<g id="edge12" class="edge"><title>Node2&#45;&gt;Node6</title>
<path fill="none" stroke="midnightblue" d="M468.839,-224.247C482.838,-200.597 522.31,-133.329 552.638,-76 560.899,-60.3841 569.728,-42.3377 576.015,-29.2282"/>
<polygon fill="midnightblue" stroke="midnightblue" points="579.311,-30.4471 580.452,-19.9139 572.991,-27.4364 579.311,-30.4471"/>
</g>
<!-- Node7 -->
<g id="node7" class="node"><title>Node7</title>
<polygon fill="none" stroke="#bfbfbf" points="362.138,-0.5 362.138,-19.5 403.138,-19.5 403.138,-0.5 362.138,-0.5"/>
<text text-anchor="middle" x="382.638" y="-7.5" font-family="Helvetica,sans-Serif" font-size="10.00">string</text>
</g>
<!-- Node2&#45;&gt;Node7 -->
<g id="edge13" class="edge"><title>Node2&#45;&gt;Node7</title>
<path fill="none" stroke="midnightblue" d="M459.856,-224.253C449.706,-200.618 421.309,-133.384 401.638,-76 396.337,-60.534 391.188,-42.6904 387.591,-29.6161"/>
<polygon fill="midnightblue" stroke="midnightblue" points="390.956,-28.6507 384.965,-19.9122 384.199,-30.4793 390.956,-28.6507"/>
</g>
<!-- Node4 -->
<g id="node4" class="node"><title>Node4</title>
<g id="a_node4"><a xlink:href="_block_8h.html" target="_top" xlink:title="Core/Block.h">
<polygon fill="none" stroke="black" points="242.638,-112.5 242.638,-131.5 316.638,-131.5 316.638,-112.5 242.638,-112.5"/>
<text text-anchor="middle" x="279.638" y="-119.5" font-family="Helvetica,sans-Serif" font-size="10.00">Core/Block.h</text>
</a>
</g>
</g>
<!-- Node3&#45;&gt;Node4 -->
<g id="edge3" class="edge"><title>Node3&#45;&gt;Node4</title>
<path fill="none" stroke="midnightblue" d="M303.85,-168.083C299.88,-160.691 294.113,-149.953 289.204,-140.811"/>
<polygon fill="midnightblue" stroke="midnightblue" points="292.153,-138.905 284.338,-131.751 285.986,-142.217 292.153,-138.905"/>
</g>
<!-- Node3&#45;&gt;Node6 -->
<g id="edge10" class="edge"><title>Node3&#45;&gt;Node6</title>
<path fill="none" stroke="midnightblue" d="M336.216,-168.466C379.783,-154.108 465.914,-122.1 527.638,-76 545.789,-62.4437 562.351,-42.2772 572.888,-28.0078"/>
<polygon fill="midnightblue" stroke="midnightblue" points="575.924,-29.7797 578.899,-19.611 570.232,-25.7052 575.924,-29.7797"/>
</g>
<!-- Node3&#45;&gt;Node7 -->
<g id="edge11" class="edge"><title>Node3&#45;&gt;Node7</title>
<path fill="none" stroke="midnightblue" d="M312.617,-168.075C324.316,-141.832 358.769,-64.5453 374.562,-29.1165"/>
<polygon fill="midnightblue" stroke="midnightblue" points="377.944,-30.1268 378.819,-19.5681 371.55,-27.2766 377.944,-30.1268"/>
</g>
<!-- Node4&#45;&gt;Node5 -->
<g id="edge4" class="edge"><title>Node4&#45;&gt;Node5</title>
<path fill="none" stroke="midnightblue" d="M271.217,-112.083C263.79,-104.22 252.787,-92.5688 243.826,-83.0813"/>
<polygon fill="midnightblue" stroke="midnightblue" points="246.314,-80.618 236.903,-75.7511 241.225,-85.4244 246.314,-80.618"/>
</g>
<!-- Node4&#45;&gt;Node7 -->
<g id="edge8" class="edge"><title>Node4&#45;&gt;Node7</title>
<path fill="none" stroke="midnightblue" d="M285.744,-112.157C294.848,-99.2322 312.826,-74.69 330.638,-56 340.805,-45.3319 353.258,-34.4894 363.427,-26.1209"/>
<polygon fill="midnightblue" stroke="midnightblue" points="365.756,-28.7394 371.333,-19.7314 361.356,-23.2953 365.756,-28.7394"/>
</g>
<!-- Node4&#45;&gt;Node8 -->
<g id="edge9" class="edge"><title>Node4&#45;&gt;Node8</title>
<path fill="none" stroke="midnightblue" d="M242.537,-116.484C217.352,-111.273 185.797,-100.069 169.638,-76 159.907,-61.5044 168.091,-42.067 176.741,-28.2336"/>
<polygon fill="midnightblue" stroke="midnightblue" points="179.833,-29.9118 182.589,-19.6815 174.055,-25.9605 179.833,-29.9118"/>
</g>
<!-- Node5&#45;&gt;Node6 -->
<g id="edge5" class="edge"><title>Node5&#45;&gt;Node6</title>
<path fill="none" stroke="midnightblue" d="M278.139,-57.4915C350.711,-46.4834 484.303,-26.2194 548.429,-16.4925"/>
<polygon fill="midnightblue" stroke="midnightblue" points="549.108,-19.9296 558.47,-14.9694 548.058,-13.0087 549.108,-19.9296"/>
</g>
<!-- Node5&#45;&gt;Node7 -->
<g id="edge6" class="edge"><title>Node5&#45;&gt;Node7</title>
<path fill="none" stroke="midnightblue" d="M253.04,-56.4435C279.897,-47.0262 323.107,-31.8746 352.169,-21.6842"/>
<polygon fill="midnightblue" stroke="midnightblue" points="353.529,-24.916 361.808,-18.3042 351.213,-18.3104 353.529,-24.916"/>
</g>
<!-- Node5&#45;&gt;Node8 -->
<g id="edge7" class="edge"><title>Node5&#45;&gt;Node8</title>
<path fill="none" stroke="midnightblue" d="M222.198,-56.083C216.689,-48.4554 208.607,-37.2645 201.873,-27.9408"/>
<polygon fill="midnightblue" stroke="midnightblue" points="204.651,-25.8087 195.959,-19.7511 198.976,-29.9071 204.651,-25.8087"/>
</g>
<!-- Node9&#45;&gt;Node6 -->
<g id="edge16" class="edge"><title>Node9&#45;&gt;Node6</title>
<path fill="none" stroke="midnightblue" d="M483.653,-56.4435C503.226,-47.6356 533.946,-33.8116 556.367,-23.722"/>
<polygon fill="midnightblue" stroke="midnightblue" points="558.03,-26.8119 565.713,-19.5164 555.157,-20.4284 558.03,-26.8119"/>
</g>
<!-- Node9&#45;&gt;Node7 -->
<g id="edge17" class="edge"><title>Node9&#45;&gt;Node7</title>
<path fill="none" stroke="midnightblue" d="M451.464,-56.324C438.792,-47.979 419.405,-35.2122 404.433,-25.3524"/>
<polygon fill="midnightblue" stroke="midnightblue" points="406.057,-22.2313 395.78,-19.6545 402.207,-28.0776 406.057,-22.2313"/>
</g>
<!-- Node9&#45;&gt;Node8 -->
<g id="edge18" class="edge"><title>Node9&#45;&gt;Node8</title>
<path fill="none" stroke="midnightblue" d="M421.064,-56.4435C365.613,-45.5549 271.123,-27.0005 221.784,-17.3123"/>
<polygon fill="midnightblue" stroke="midnightblue" points="222.173,-13.8219 211.686,-15.3294 220.824,-20.6907 222.173,-13.8219"/>
</g>
<!-- Node10 -->
<g id="node10" class="node"><title>Node10</title>
<polygon fill="none" stroke="#bfbfbf" points="445.638,-0.5 445.638,-19.5 483.638,-19.5 483.638,-0.5 445.638,-0.5"/>
<text text-anchor="middle" x="464.638" y="-7.5" font-family="Helvetica,sans-Serif" font-size="10.00">array</text>
</g>
<!-- Node9&#45;&gt;Node10 -->
<g id="edge15" class="edge"><title>Node9&#45;&gt;Node10</title>
<path fill="none" stroke="midnightblue" d="M464.638,-56.083C464.638,-49.0059 464.638,-38.8611 464.638,-29.9865"/>
<polygon fill="midnightblue" stroke="midnightblue" points="468.138,-29.751 464.638,-19.7511 461.138,-29.7511 468.138,-29.751"/>
</g>
<!-- Node11&#45;&gt;Node6 -->
<g id="edge20" class="edge"><title>Node11&#45;&gt;Node6</title>
<path fill="none" stroke="midnightblue" d="M875.094,-57.073C798.28,-46.4429 667.311,-28.134 621.015,-19.9782"/>
<polygon fill="midnightblue" stroke="midnightblue" points="621.414,-16.4923 610.941,-18.0909 620.125,-23.3726 621.414,-16.4923"/>
</g>
<!-- Node11&#45;&gt;Node7 -->
<g id="edge21" class="edge"><title>Node11&#45;&gt;Node7</title>
<path fill="none" stroke="midnightblue" d="M874.917,-57.0607C871.78,-56.6873 868.672,-56.3308 865.638,-56 675.429,-35.257 626.496,-43.7475 436.638,-20 429.052,-19.0511 420.902,-17.81 413.292,-16.554"/>
<polygon fill="midnightblue" stroke="midnightblue" points="413.797,-13.0898 403.351,-14.858 412.62,-19.9901 413.797,-13.0898"/>
</g>
<!-- Node12 -->
<g id="node12" class="node"><title>Node12</title>
<polygon fill="none" stroke="#bfbfbf" points="891.138,-0.5 891.138,-19.5 974.138,-19.5 974.138,-0.5 891.138,-0.5"/>
<text text-anchor="middle" x="932.638" y="-7.5" font-family="Helvetica,sans-Serif" font-size="10.00">unordered_map</text>
</g>
<!-- Node11&#45;&gt;Node12 -->
<g id="edge22" class="edge"><title>Node11&#45;&gt;Node12</title>
<path fill="none" stroke="midnightblue" d="M932.638,-56.083C932.638,-49.0059 932.638,-38.8611 932.638,-29.9865"/>
<polygon fill="midnightblue" stroke="midnightblue" points="936.138,-29.751 932.638,-19.7511 929.138,-29.7511 936.138,-29.751"/>
</g>
<!-- Node13 -->
<g id="node13" class="node"><title>Node13</title>
<polygon fill="none" stroke="#bfbfbf" points="803.638,-0.5 803.638,-19.5 843.638,-19.5 843.638,-0.5 803.638,-0.5"/>
<text text-anchor="middle" x="823.638" y="-7.5" font-family="Helvetica,sans-Serif" font-size="10.00">utility</text>
</g>
<!-- Node11&#45;&gt;Node13 -->
<g id="edge23" class="edge"><title>Node11&#45;&gt;Node13</title>
<path fill="none" stroke="midnightblue" d="M915.126,-56.324C897.566,-47.6247 870.307,-34.1202 850.107,-24.113"/>
<polygon fill="midnightblue" stroke="midnightblue" points="851.622,-20.9575 841.108,-19.6545 848.514,-27.23 851.622,-20.9575"/>
</g>
<!-- Node14&#45;&gt;Node6 -->
<g id="edge25" class="edge"><title>Node14&#45;&gt;Node6</title>
<path fill="none" stroke="midnightblue" d="M762.222,-56.4705C728.822,-47.9422 675.729,-34.3765 620.901,-20.3215"/>
<polygon fill="midnightblue" stroke="midnightblue" points="621.567,-16.879 611.011,-17.7856 619.828,-23.6596 621.567,-16.879"/>
</g>
<!-- Node14&#45;&gt;Node7 -->
<g id="edge26" class="edge"><title>Node14&#45;&gt;Node7</title>
<path fill="none" stroke="midnightblue" d="M734.557,-58.106C663.036,-49.8573 541.06,-35.2399 436.638,-20 429.073,-18.8959 420.931,-17.5971 413.321,-16.335"/>
<polygon fill="midnightblue" stroke="midnightblue" points="413.821,-12.8699 403.378,-14.6583 412.657,-19.7725 413.821,-12.8699"/>
</g>
<!-- Node14&#45;&gt;Node8 -->
<g id="edge29" class="edge"><title>Node14&#45;&gt;Node8</title>
<path fill="none" stroke="midnightblue" d="M734.478,-59.55C607.315,-48.2187 318.209,-22.4568 221.686,-13.8557"/>
<polygon fill="midnightblue" stroke="midnightblue" points="221.933,-10.3639 211.661,-12.9625 221.311,-17.3363 221.933,-10.3639"/>
</g>
<!-- Node14&#45;&gt;Node13 -->
<g id="edge28" class="edge"><title>Node14&#45;&gt;Node13</title>
<path fill="none" stroke="midnightblue" d="M800.262,-56.083C804.095,-48.6913 809.663,-37.9533 814.403,-28.8111"/>
<polygon fill="midnightblue" stroke="midnightblue" points="817.605,-30.2398 819.101,-19.7511 811.39,-27.0175 817.605,-30.2398"/>
</g>
<!-- Node14&#45;&gt;Node15 -->
<g id="edge27" class="edge"><title>Node14&#45;&gt;Node15</title>
<path fill="none" stroke="midnightblue" d="M832.996,-56.4507C870.818,-47.6919 930.941,-33.485 982.638,-20 983.542,-19.7642 984.46,-19.5223 985.386,-19.2759"/>
<polygon fill="midnightblue" stroke="midnightblue" points="986.656,-22.557 995.38,-16.5443 984.811,-15.8047 986.656,-22.557"/>
</g>
<!-- Node16&#45;&gt;Node6 -->
<g id="edge31" class="edge"><title>Node16&#45;&gt;Node6</title>
<path fill="none" stroke="midnightblue" d="M635.838,-56.324C626.82,-48.3414 613.232,-36.3128 602.32,-26.6529"/>
<polygon fill="midnightblue" stroke="midnightblue" points="604.425,-23.8416 594.617,-19.8339 599.785,-29.083 604.425,-23.8416"/>
</g>
<!-- Node16&#45;&gt;Node7 -->
<g id="edge33" class="edge"><title>Node16&#45;&gt;Node7</title>
<path fill="none" stroke="midnightblue" d="M613.126,-58.3244C561.931,-47.813 463.227,-27.5467 413.242,-17.2838"/>
<polygon fill="midnightblue" stroke="midnightblue" points="413.85,-13.8356 403.35,-15.2527 412.442,-20.6925 413.85,-13.8356"/>
</g>
<!-- Node17 -->
<g id="node17" class="node"><title>Node17</title>
<polygon fill="none" stroke="#bfbfbf" points="628.638,-0.5 628.638,-19.5 680.638,-19.5 680.638,-0.5 628.638,-0.5"/>
<text text-anchor="middle" x="654.638" y="-7.5" font-family="Helvetica,sans-Serif" font-size="10.00">sstream</text>
</g>
<!-- Node16&#45;&gt;Node17 -->
<g id="edge32" class="edge"><title>Node16&#45;&gt;Node17</title>
<path fill="none" stroke="midnightblue" d="M647.124,-56.083C648.317,-48.9272 650.032,-38.6353 651.523,-29.6911"/>
<polygon fill="midnightblue" stroke="midnightblue" points="654.988,-30.1904 653.18,-19.7511 648.083,-29.0396 654.988,-30.1904"/>
</g>
<!-- Node18&#45;&gt;Node7 -->
<g id="edge35" class="edge"><title>Node18&#45;&gt;Node7</title>
<path fill="none" stroke="midnightblue" d="M122.934,-56.6808C186.638,-45.4756 298.209,-25.8508 351.968,-16.3948"/>
<polygon fill="midnightblue" stroke="midnightblue" points="352.675,-19.8243 361.917,-14.6447 351.462,-12.9301 352.675,-19.8243"/>
</g>
<!-- Node18&#45;&gt;Node8 -->
<g id="edge36" class="edge"><title>Node18&#45;&gt;Node8</title>
<path fill="none" stroke="midnightblue" d="M93.7019,-56.4435C112.213,-47.6751 141.219,-33.9355 162.494,-23.8579"/>
<polygon fill="midnightblue" stroke="midnightblue" points="164.12,-26.9604 171.659,-19.5164 161.123,-20.6343 164.12,-26.9604"/>
</g>
<!-- Node19&#45;&gt;Node6 -->
<g id="edge39" class="edge"><title>Node19&#45;&gt;Node6</title>
<path fill="none" stroke="midnightblue" d="M726.113,-168.187C724.366,-146.41 716.982,-89.4133 686.638,-56 677.119,-45.5181 645.164,-32.3189 619.528,-22.9321"/>
<polygon fill="midnightblue" stroke="midnightblue" points="620.666,-19.6221 610.072,-19.5348 618.299,-26.2099 620.666,-19.6221"/>
</g>
</g>
</svg>
