<?xml version="1.0" encoding="UTF-8" standalone="no"?>
<!DOCTYPE svg PUBLIC "-//W3C//DTD SVG 1.1//EN"
 "http://www.w3.org/Graphics/SVG/1.1/DTD/svg11.dtd">
<!-- Generated by graphviz version 2.43.0 (0)
 -->
<!-- Title: /home/runner/work/wb&#45;toolbox/wb&#45;toolbox/toolbox/library/src/GetMeasurement.cpp Pages: 1 -->
<svg width="2361pt" height="218pt"
 viewBox="0.00 0.00 2361.00 218.00" xmlns="http://www.w3.org/2000/svg" xmlns:xlink="http://www.w3.org/1999/xlink">
<g id="graph0" class="graph" transform="scale(1 1) rotate(0) translate(4 214)">
<title>/home/runner/work/wb&#45;toolbox/wb&#45;toolbox/toolbox/library/src/GetMeasurement.cpp</title>
<!-- Node1 -->
<g id="node1" class="node">
<title>Node1</title>
<g id="a_node1"><a xlink:title=" ">
<polygon fill="#bfbfbf" stroke="black" points="1213.5,-168.5 1213.5,-209.5 1389.5,-209.5 1389.5,-168.5 1213.5,-168.5"/>
<text text-anchor="start" x="1221.5" y="-197.5" font-family="Helvetica,sans-Serif" font-size="10.00">/home/runner/work/wb</text>
<text text-anchor="start" x="1221.5" y="-186.5" font-family="Helvetica,sans-Serif" font-size="10.00">&#45;toolbox/wb&#45;toolbox/toolbox</text>
<text text-anchor="middle" x="1301.5" y="-175.5" font-family="Helvetica,sans-Serif" font-size="10.00">/library/src/GetMeasurement.cpp</text>
</a>
</g>
</g>
<!-- Node2 -->
<g id="node2" class="node">
<title>Node2</title>
<g id="a_node2"><a xlink:href="_get_measurement_8h.html" target="_top" xlink:title=" ">
<polygon fill="none" stroke="black" points="0,-112.5 0,-131.5 197,-131.5 197,-112.5 0,-112.5"/>
<text text-anchor="middle" x="98.5" y="-119.5" font-family="Helvetica,sans-Serif" font-size="10.00">WBToolbox/Block/GetMeasurement.h</text>
</a>
</g>
</g>
<!-- Node1&#45;&gt;Node2 -->
<g id="edge1" class="edge">
<title>Node1&#45;&gt;Node2</title>
<path fill="none" stroke="midnightblue" d="M1213.36,-184.48C1028.78,-176.9 587.82,-157.65 207.14,-132.09"/>
<polygon fill="midnightblue" stroke="midnightblue" points="207.24,-128.59 197.02,-131.41 206.77,-135.57 207.24,-128.59"/>
</g>
<!-- Node7 -->
<g id="node7" class="node">
<title>Node7</title>
<g id="a_node7"><a xlink:href="_configuration_8h.html" target="_top" xlink:title=" ">
<polygon fill="none" stroke="black" points="215,-112.5 215,-131.5 390,-131.5 390,-112.5 215,-112.5"/>
<text text-anchor="middle" x="302.5" y="-119.5" font-family="Helvetica,sans-Serif" font-size="10.00">WBToolbox/Base/Configuration.h</text>
</a>
</g>
</g>
<!-- Node1&#45;&gt;Node7 -->
<g id="edge8" class="edge">
<title>Node1&#45;&gt;Node7</title>
<path fill="none" stroke="midnightblue" d="M1213.28,-183.25C1052.42,-174.41 700.71,-154.31 404.5,-132 403.18,-131.9 401.85,-131.8 400.51,-131.7"/>
<polygon fill="midnightblue" stroke="midnightblue" points="400.37,-128.17 390.12,-130.88 399.82,-135.15 400.37,-128.17"/>
</g>
<!-- Node9 -->
<g id="node9" class="node">
<title>Node9</title>
<g id="a_node9"><a xlink:title=" ">
<polygon fill="none" stroke="#bfbfbf" points="368,-56.5 368,-75.5 415,-75.5 415,-56.5 368,-56.5"/>
<text text-anchor="middle" x="391.5" y="-63.5" font-family="Helvetica,sans-Serif" font-size="10.00">vector</text>
</a>
</g>
</g>
<!-- Node1&#45;&gt;Node9 -->
<g id="edge31" class="edge">
<title>Node1&#45;&gt;Node9</title>
<path fill="none" stroke="midnightblue" d="M1213.16,-185.29C1012.25,-178.67 533.17,-160.12 465.5,-132 440.45,-121.59 418.03,-99.13 404.6,-83.54"/>
<polygon fill="midnightblue" stroke="midnightblue" points="407.18,-81.17 398.11,-75.71 401.8,-85.64 407.18,-81.17"/>
</g>
<!-- Node10 -->
<g id="node10" class="node">
<title>Node10</title>
<g id="a_node10"><a xlink:href="_robot_interface_8h.html" target="_top" xlink:title=" ">
<polygon fill="none" stroke="black" points="433.5,-56.5 433.5,-75.5 615.5,-75.5 615.5,-56.5 433.5,-56.5"/>
<text text-anchor="middle" x="524.5" y="-63.5" font-family="Helvetica,sans-Serif" font-size="10.00">WBToolbox/Base/RobotInterface.h</text>
</a>
</g>
</g>
<!-- Node1&#45;&gt;Node10 -->
<g id="edge13" class="edge">
<title>Node1&#45;&gt;Node10</title>
<path fill="none" stroke="midnightblue" d="M1213.36,-188.66C1010.69,-189.24 525.06,-185.03 475.5,-132 460.35,-115.79 482.2,-95.03 501.37,-81.38"/>
<polygon fill="midnightblue" stroke="midnightblue" points="503.52,-84.15 509.85,-75.66 499.6,-78.35 503.52,-84.15"/>
</g>
<!-- Node13 -->
<g id="node13" class="node">
<title>Node13</title>
<g id="a_node13"><a xlink:title=" ">
<polygon fill="none" stroke="#bfbfbf" points="484.5,-112.5 484.5,-131.5 684.5,-131.5 684.5,-112.5 484.5,-112.5"/>
<text text-anchor="middle" x="584.5" y="-119.5" font-family="Helvetica,sans-Serif" font-size="10.00">BlockFactory/Core/BlockInformation.h</text>
</a>
</g>
</g>
<!-- Node1&#45;&gt;Node13 -->
<g id="edge18" class="edge">
<title>Node1&#45;&gt;Node13</title>
<path fill="none" stroke="midnightblue" d="M1213.22,-180C1080.44,-167.96 829.85,-145.24 688.43,-132.42"/>
<polygon fill="midnightblue" stroke="midnightblue" points="688.71,-128.93 678.44,-131.52 688.08,-135.9 688.71,-128.93"/>
</g>
<!-- Node14 -->
<g id="node14" class="node">
<title>Node14</title>
<g id="a_node14"><a xlink:title=" ">
<polygon fill="none" stroke="#bfbfbf" points="702.5,-112.5 702.5,-131.5 836.5,-131.5 836.5,-112.5 702.5,-112.5"/>
<text text-anchor="middle" x="769.5" y="-119.5" font-family="Helvetica,sans-Serif" font-size="10.00">BlockFactory/Core/Log.h</text>
</a>
</g>
</g>
<!-- Node1&#45;&gt;Node14 -->
<g id="edge19" class="edge">
<title>Node1&#45;&gt;Node14</title>
<path fill="none" stroke="midnightblue" d="M1213.35,-177.23C1111.11,-164.74 944.16,-144.34 846.79,-132.44"/>
<polygon fill="midnightblue" stroke="midnightblue" points="847.07,-128.95 836.72,-131.21 846.22,-135.9 847.07,-128.95"/>
</g>
<!-- Node15 -->
<g id="node15" class="node">
<title>Node15</title>
<g id="a_node15"><a xlink:title=" ">
<polygon fill="none" stroke="#bfbfbf" points="854.5,-112.5 854.5,-131.5 1020.5,-131.5 1020.5,-112.5 854.5,-112.5"/>
<text text-anchor="middle" x="937.5" y="-119.5" font-family="Helvetica,sans-Serif" font-size="10.00">BlockFactory/Core/Parameter.h</text>
</a>
</g>
</g>
<!-- Node1&#45;&gt;Node15 -->
<g id="edge20" class="edge">
<title>Node1&#45;&gt;Node15</title>
<path fill="none" stroke="midnightblue" d="M1213.39,-172.27C1145.7,-160.18 1054.16,-143.83 995.46,-133.35"/>
<polygon fill="midnightblue" stroke="midnightblue" points="995.72,-129.84 985.26,-131.53 994.49,-136.73 995.72,-129.84"/>
</g>
<!-- Node16 -->
<g id="node16" class="node">
<title>Node16</title>
<g id="a_node16"><a xlink:title=" ">
<polygon fill="none" stroke="#bfbfbf" points="1038.5,-112.5 1038.5,-131.5 1210.5,-131.5 1210.5,-112.5 1038.5,-112.5"/>
<text text-anchor="middle" x="1124.5" y="-119.5" font-family="Helvetica,sans-Serif" font-size="10.00">BlockFactory/Core/Parameters.h</text>
</a>
</g>
</g>
<!-- Node1&#45;&gt;Node16 -->
<g id="edge21" class="edge">
<title>Node1&#45;&gt;Node16</title>
<path fill="none" stroke="midnightblue" d="M1248.39,-168.5C1218.91,-157.67 1183.15,-144.54 1157.64,-135.17"/>
<polygon fill="midnightblue" stroke="midnightblue" points="1158.66,-131.81 1148.06,-131.65 1156.24,-138.39 1158.66,-131.81"/>
</g>
<!-- Node17 -->
<g id="node17" class="node">
<title>Node17</title>
<g id="a_node17"><a xlink:title=" ">
<polygon fill="none" stroke="#bfbfbf" points="1228.5,-112.5 1228.5,-131.5 1374.5,-131.5 1374.5,-112.5 1228.5,-112.5"/>
<text text-anchor="middle" x="1301.5" y="-119.5" font-family="Helvetica,sans-Serif" font-size="10.00">BlockFactory/Core/Signal.h</text>
</a>
</g>
</g>
<!-- Node1&#45;&gt;Node17 -->
<g id="edge22" class="edge">
<title>Node1&#45;&gt;Node17</title>
<path fill="none" stroke="midnightblue" d="M1301.5,-168.5C1301.5,-160.07 1301.5,-150.24 1301.5,-141.87"/>
<polygon fill="midnightblue" stroke="midnightblue" points="1305,-141.65 1301.5,-131.65 1298,-141.65 1305,-141.65"/>
</g>
<!-- Node18 -->
<g id="node18" class="node">
<title>Node18</title>
<g id="a_node18"><a xlink:title=" ">
<polygon fill="none" stroke="#bfbfbf" points="1392.5,-112.5 1392.5,-131.5 1538.5,-131.5 1538.5,-112.5 1392.5,-112.5"/>
<text text-anchor="middle" x="1465.5" y="-119.5" font-family="Helvetica,sans-Serif" font-size="10.00">yarp/dev/ICurrentControl.h</text>
</a>
</g>
</g>
<!-- Node1&#45;&gt;Node18 -->
<g id="edge23" class="edge">
<title>Node1&#45;&gt;Node18</title>
<path fill="none" stroke="midnightblue" d="M1350.71,-168.5C1377.78,-157.77 1410.57,-144.77 1434.17,-135.42"/>
<polygon fill="midnightblue" stroke="midnightblue" points="1435.66,-138.59 1443.67,-131.65 1433.08,-132.08 1435.66,-138.59"/>
</g>
<!-- Node19 -->
<g id="node19" class="node">
<title>Node19</title>
<g id="a_node19"><a xlink:title=" ">
<polygon fill="none" stroke="#bfbfbf" points="1557,-112.5 1557,-131.5 1676,-131.5 1676,-112.5 1557,-112.5"/>
<text text-anchor="middle" x="1616.5" y="-119.5" font-family="Helvetica,sans-Serif" font-size="10.00">yarp/dev/IEncoders.h</text>
</a>
</g>
</g>
<!-- Node1&#45;&gt;Node19 -->
<g id="edge24" class="edge">
<title>Node1&#45;&gt;Node19</title>
<path fill="none" stroke="midnightblue" d="M1389.66,-169.81C1446.13,-158.16 1517.45,-143.44 1564.89,-133.65"/>
<polygon fill="midnightblue" stroke="midnightblue" points="1565.85,-137.03 1574.93,-131.58 1564.43,-130.17 1565.85,-137.03"/>
</g>
<!-- Node20 -->
<g id="node20" class="node">
<title>Node20</title>
<g id="a_node20"><a xlink:title=" ">
<polygon fill="none" stroke="#bfbfbf" points="1694,-112.5 1694,-131.5 1841,-131.5 1841,-112.5 1694,-112.5"/>
<text text-anchor="middle" x="1767.5" y="-119.5" font-family="Helvetica,sans-Serif" font-size="10.00">yarp/dev/IMotorEncoders.h</text>
</a>
</g>
</g>
<!-- Node1&#45;&gt;Node20 -->
<g id="edge25" class="edge">
<title>Node1&#45;&gt;Node20</title>
<path fill="none" stroke="midnightblue" d="M1389.7,-175.7C1478.61,-163.3 1614.12,-144.39 1696.39,-132.92"/>
<polygon fill="midnightblue" stroke="midnightblue" points="1696.98,-136.37 1706.4,-131.52 1696.01,-129.44 1696.98,-136.37"/>
</g>
<!-- Node21 -->
<g id="node21" class="node">
<title>Node21</title>
<g id="a_node21"><a xlink:title=" ">
<polygon fill="none" stroke="#bfbfbf" points="1859.5,-112.5 1859.5,-131.5 1993.5,-131.5 1993.5,-112.5 1859.5,-112.5"/>
<text text-anchor="middle" x="1926.5" y="-119.5" font-family="Helvetica,sans-Serif" font-size="10.00">yarp/dev/IPWMControl.h</text>
</a>
</g>
</g>
<!-- Node1&#45;&gt;Node21 -->
<g id="edge26" class="edge">
<title>Node1&#45;&gt;Node21</title>
<path fill="none" stroke="midnightblue" d="M1389.98,-179.42C1496.4,-169 1680.76,-150.63 1849.32,-132.12"/>
<polygon fill="midnightblue" stroke="midnightblue" points="1849.81,-135.58 1859.37,-131.01 1849.05,-128.62 1849.81,-135.58"/>
</g>
<!-- Node22 -->
<g id="node22" class="node">
<title>Node22</title>
<g id="a_node22"><a xlink:title=" ">
<polygon fill="none" stroke="#bfbfbf" points="2011.5,-112.5 2011.5,-131.5 2153.5,-131.5 2153.5,-112.5 2011.5,-112.5"/>
<text text-anchor="middle" x="2082.5" y="-119.5" font-family="Helvetica,sans-Serif" font-size="10.00">yarp/dev/ITorqueControl.h</text>
</a>
</g>
</g>
<!-- Node1&#45;&gt;Node22 -->
<g id="edge27" class="edge">
<title>Node1&#45;&gt;Node22</title>
<path fill="none" stroke="midnightblue" d="M1389.56,-181.88C1520.52,-172.58 1774.65,-153.74 2001.32,-132.09"/>
<polygon fill="midnightblue" stroke="midnightblue" points="2001.79,-135.56 2011.41,-131.12 2001.12,-128.59 2001.79,-135.56"/>
</g>
<!-- Node23 -->
<g id="node23" class="node">
<title>Node23</title>
<g id="a_node23"><a xlink:title=" ">
<polygon fill="none" stroke="#bfbfbf" points="2172,-112.5 2172,-131.5 2219,-131.5 2219,-112.5 2172,-112.5"/>
<text text-anchor="middle" x="2195.5" y="-119.5" font-family="Helvetica,sans-Serif" font-size="10.00">cmath</text>
</a>
</g>
</g>
<!-- Node1&#45;&gt;Node23 -->
<g id="edge28" class="edge">
<title>Node1&#45;&gt;Node23</title>
<path fill="none" stroke="midnightblue" d="M1389.55,-188.09C1544.31,-186.99 1875.02,-178.92 2161.66,-131.76"/>
<polygon fill="midnightblue" stroke="midnightblue" points="2162.54,-135.16 2171.83,-130.07 2161.39,-128.26 2162.54,-135.16"/>
</g>
<!-- Node24 -->
<g id="node24" class="node">
<title>Node24</title>
<g id="a_node24"><a xlink:title=" ">
<polygon fill="none" stroke="#bfbfbf" points="2237,-112.5 2237,-131.5 2294,-131.5 2294,-112.5 2237,-112.5"/>
<text text-anchor="middle" x="2265.5" y="-119.5" font-family="Helvetica,sans-Serif" font-size="10.00">ostream</text>
</a>
</g>
</g>
<!-- Node1&#45;&gt;Node24 -->
<g id="edge29" class="edge">
<title>Node1&#45;&gt;Node24</title>
<path fill="none" stroke="midnightblue" d="M1389.59,-187.89C1553.19,-186.54 1914.91,-178.22 2226.78,-132"/>
<polygon fill="midnightblue" stroke="midnightblue" points="2227.55,-135.43 2236.92,-130.49 2226.51,-128.51 2227.55,-135.43"/>
</g>
<!-- Node25 -->
<g id="node25" class="node">
<title>Node25</title>
<g id="a_node25"><a xlink:title=" ">
<polygon fill="none" stroke="#bfbfbf" points="2312,-112.5 2312,-131.5 2353,-131.5 2353,-112.5 2312,-112.5"/>
<text text-anchor="middle" x="2332.5" y="-119.5" font-family="Helvetica,sans-Serif" font-size="10.00">tuple</text>
</a>
</g>
</g>
<!-- Node1&#45;&gt;Node25 -->
<g id="edge30" class="edge">
<title>Node1&#45;&gt;Node25</title>
<path fill="none" stroke="midnightblue" d="M1389.79,-185.84C1597.02,-180.32 2110.87,-163.98 2301.81,-131.85"/>
<polygon fill="midnightblue" stroke="midnightblue" points="2302.5,-135.28 2311.74,-130.11 2301.29,-128.39 2302.5,-135.28"/>
</g>
<!-- Node3 -->
<g id="node3" class="node">
<title>Node3</title>
<g id="a_node3"><a xlink:href="_w_b_block_8h.html" target="_top" xlink:title=" ">
<polygon fill="none" stroke="black" points="22,-56.5 22,-75.5 175,-75.5 175,-56.5 22,-56.5"/>
<text text-anchor="middle" x="98.5" y="-63.5" font-family="Helvetica,sans-Serif" font-size="10.00">WBToolbox/Base/WBBlock.h</text>
</a>
</g>
</g>
<!-- Node2&#45;&gt;Node3 -->
<g id="edge2" class="edge">
<title>Node2&#45;&gt;Node3</title>
<path fill="none" stroke="midnightblue" d="M98.5,-112.08C98.5,-105.01 98.5,-94.86 98.5,-85.99"/>
<polygon fill="midnightblue" stroke="midnightblue" points="102,-85.75 98.5,-75.75 95,-85.75 102,-85.75"/>
</g>
<!-- Node5 -->
<g id="node5" class="node">
<title>Node5</title>
<g id="a_node5"><a xlink:title=" ">
<polygon fill="none" stroke="#bfbfbf" points="250.5,-0.5 250.5,-19.5 308.5,-19.5 308.5,-0.5 250.5,-0.5"/>
<text text-anchor="middle" x="279.5" y="-7.5" font-family="Helvetica,sans-Serif" font-size="10.00">memory</text>
</a>
</g>
</g>
<!-- Node2&#45;&gt;Node5 -->
<g id="edge6" class="edge">
<title>Node2&#45;&gt;Node5</title>
<path fill="none" stroke="midnightblue" d="M116.06,-112.4C133.47,-103.72 160.74,-89.67 183.5,-76 210.46,-59.8 240.27,-39.16 259.41,-25.54"/>
<polygon fill="midnightblue" stroke="midnightblue" points="261.56,-28.31 267.65,-19.64 257.48,-22.61 261.56,-28.31"/>
</g>
<!-- Node6 -->
<g id="node6" class="node">
<title>Node6</title>
<g id="a_node6"><a xlink:title=" ">
<polygon fill="none" stroke="#bfbfbf" points="188.5,-0.5 188.5,-19.5 232.5,-19.5 232.5,-0.5 188.5,-0.5"/>
<text text-anchor="middle" x="210.5" y="-7.5" font-family="Helvetica,sans-Serif" font-size="10.00">string</text>
</a>
</g>
</g>
<!-- Node2&#45;&gt;Node6 -->
<g id="edge7" class="edge">
<title>Node2&#45;&gt;Node6</title>
<path fill="none" stroke="midnightblue" d="M69.43,-112.4C37.27,-101.42 -7.53,-80.84 12.5,-56 57.94,0.36 101.52,-35.03 178.15,-19.72"/>
<polygon fill="midnightblue" stroke="midnightblue" points="179.18,-23.08 188.17,-17.47 177.64,-16.25 179.18,-23.08"/>
</g>
<!-- Node4 -->
<g id="node4" class="node">
<title>Node4</title>
<g id="a_node4"><a xlink:title=" ">
<polygon fill="none" stroke="#bfbfbf" points="27,-0.5 27,-19.5 170,-19.5 170,-0.5 27,-0.5"/>
<text text-anchor="middle" x="98.5" y="-7.5" font-family="Helvetica,sans-Serif" font-size="10.00">BlockFactory/Core/Block.h</text>
</a>
</g>
</g>
<!-- Node3&#45;&gt;Node4 -->
<g id="edge3" class="edge">
<title>Node3&#45;&gt;Node4</title>
<path fill="none" stroke="midnightblue" d="M98.5,-56.08C98.5,-49.01 98.5,-38.86 98.5,-29.99"/>
<polygon fill="midnightblue" stroke="midnightblue" points="102,-29.75 98.5,-19.75 95,-29.75 102,-29.75"/>
</g>
<!-- Node3&#45;&gt;Node5 -->
<g id="edge4" class="edge">
<title>Node3&#45;&gt;Node5</title>
<path fill="none" stroke="midnightblue" d="M127.18,-56.44C158.03,-47.24 207.23,-32.56 241.33,-22.39"/>
<polygon fill="midnightblue" stroke="midnightblue" points="242.37,-25.73 250.95,-19.52 240.37,-19.02 242.37,-25.73"/>
</g>
<!-- Node3&#45;&gt;Node6 -->
<g id="edge5" class="edge">
<title>Node3&#45;&gt;Node6</title>
<path fill="none" stroke="midnightblue" d="M116.49,-56.32C134.54,-47.62 162.55,-34.12 183.3,-24.11"/>
<polygon fill="midnightblue" stroke="midnightblue" points="185.06,-27.15 192.55,-19.65 182.02,-20.84 185.06,-27.15"/>
</g>
<!-- Node7&#45;&gt;Node5 -->
<g id="edge10" class="edge">
<title>Node7&#45;&gt;Node5</title>
<path fill="none" stroke="midnightblue" d="M300.7,-112.37C296.98,-94.62 288.42,-53.67 283.39,-29.6"/>
<polygon fill="midnightblue" stroke="midnightblue" points="286.77,-28.66 281.3,-19.59 279.92,-30.1 286.77,-28.66"/>
</g>
<!-- Node7&#45;&gt;Node6 -->
<g id="edge11" class="edge">
<title>Node7&#45;&gt;Node6</title>
<path fill="none" stroke="midnightblue" d="M295.28,-112.37C279.96,-94.05 244,-51.05 224.18,-27.36"/>
<polygon fill="midnightblue" stroke="midnightblue" points="226.79,-25.02 217.69,-19.59 221.42,-29.51 226.79,-25.02"/>
</g>
<!-- Node8 -->
<g id="node8" class="node">
<title>Node8</title>
<g id="a_node8"><a xlink:title=" ">
<polygon fill="none" stroke="#bfbfbf" points="307.5,-56.5 307.5,-75.5 349.5,-75.5 349.5,-56.5 307.5,-56.5"/>
<text text-anchor="middle" x="328.5" y="-63.5" font-family="Helvetica,sans-Serif" font-size="10.00">array</text>
</a>
</g>
</g>
<!-- Node7&#45;&gt;Node8 -->
<g id="edge9" class="edge">
<title>Node7&#45;&gt;Node8</title>
<path fill="none" stroke="midnightblue" d="M306.79,-112.08C310.35,-104.69 315.52,-93.95 319.92,-84.81"/>
<polygon fill="midnightblue" stroke="midnightblue" points="323.1,-86.28 324.29,-75.75 316.79,-83.24 323.1,-86.28"/>
</g>
<!-- Node7&#45;&gt;Node9 -->
<g id="edge12" class="edge">
<title>Node7&#45;&gt;Node9</title>
<path fill="none" stroke="midnightblue" d="M316.8,-112.32C330.68,-103.9 351.99,-90.97 368.3,-81.07"/>
<polygon fill="midnightblue" stroke="midnightblue" points="370.5,-83.83 377.24,-75.65 366.87,-77.85 370.5,-83.83"/>
</g>
<!-- Node10&#45;&gt;Node5 -->
<g id="edge14" class="edge">
<title>Node10&#45;&gt;Node5</title>
<path fill="none" stroke="midnightblue" d="M485.68,-56.44C439.89,-46.35 364.23,-29.68 318.41,-19.58"/>
<polygon fill="midnightblue" stroke="midnightblue" points="319.07,-16.14 308.55,-17.4 317.56,-22.97 319.07,-16.14"/>
</g>
<!-- Node10&#45;&gt;Node6 -->
<g id="edge15" class="edge">
<title>Node10&#45;&gt;Node6</title>
<path fill="none" stroke="midnightblue" d="M455.42,-56.47C400.2,-49.09 320.68,-37.21 242.75,-20.05"/>
<polygon fill="midnightblue" stroke="midnightblue" points="243.29,-16.59 232.76,-17.82 241.76,-23.42 243.29,-16.59"/>
</g>
<!-- Node11 -->
<g id="node11" class="node">
<title>Node11</title>
<g id="a_node11"><a xlink:title=" ">
<polygon fill="none" stroke="#bfbfbf" points="521,-0.5 521,-19.5 614,-19.5 614,-0.5 521,-0.5"/>
<text text-anchor="middle" x="567.5" y="-7.5" font-family="Helvetica,sans-Serif" font-size="10.00">unordered_map</text>
</a>
</g>
</g>
<!-- Node10&#45;&gt;Node11 -->
<g id="edge16" class="edge">
<title>Node10&#45;&gt;Node11</title>
<path fill="none" stroke="midnightblue" d="M531.6,-56.08C537.74,-48.38 546.77,-37.03 554.24,-27.65"/>
<polygon fill="midnightblue" stroke="midnightblue" points="557.04,-29.75 560.53,-19.75 551.56,-25.39 557.04,-29.75"/>
</g>
<!-- Node12 -->
<g id="node12" class="node">
<title>Node12</title>
<g id="a_node12"><a xlink:title=" ">
<polygon fill="none" stroke="#bfbfbf" points="458,-0.5 458,-19.5 503,-19.5 503,-0.5 458,-0.5"/>
<text text-anchor="middle" x="480.5" y="-7.5" font-family="Helvetica,sans-Serif" font-size="10.00">utility</text>
</a>
</g>
</g>
<!-- Node10&#45;&gt;Node12 -->
<g id="edge17" class="edge">
<title>Node10&#45;&gt;Node12</title>
<path fill="none" stroke="midnightblue" d="M517.23,-56.08C510.96,-48.38 501.71,-37.03 494.07,-27.65"/>
<polygon fill="midnightblue" stroke="midnightblue" points="496.66,-25.29 487.63,-19.75 491.23,-29.71 496.66,-25.29"/>
</g>
</g>
</svg>
