<?xml version="1.0" encoding="UTF-8" standalone="no"?>
<!DOCTYPE svg PUBLIC "-//W3C//DTD SVG 1.1//EN"
 "http://www.w3.org/Graphics/SVG/1.1/DTD/svg11.dtd">
<!-- Generated by graphviz version 2.36.0 (20140111.2315)
 -->
<!-- Title: /home/travis/build/robotology/wb&#45;toolbox/toolbox/src/GetMeasurement.cpp Pages: 1 -->
<svg width="1607pt" height="330pt"
 viewBox="0.00 0.00 1606.66 330.00" xmlns="http://www.w3.org/2000/svg" xmlns:xlink="http://www.w3.org/1999/xlink">
<g id="graph0" class="graph" transform="scale(1 1) rotate(0) translate(4 326)">
<title>/home/travis/build/robotology/wb&#45;toolbox/toolbox/src/GetMeasurement.cpp</title>
<!-- Node1 -->
<g id="node1" class="node"><title>Node1</title>
<polygon fill="#bfbfbf" stroke="black" points="614.664,-280.5 614.664,-321.5 778.664,-321.5 778.664,-280.5 614.664,-280.5"/>
<text text-anchor="start" x="622.664" y="-309.5" font-family="Helvetica,sans-Serif" font-size="10.00">/home/travis/build</text>
<text text-anchor="start" x="622.664" y="-298.5" font-family="Helvetica,sans-Serif" font-size="10.00">/robotology/wb&#45;toolbox</text>
<text text-anchor="middle" x="696.664" y="-287.5" font-family="Helvetica,sans-Serif" font-size="10.00">/toolbox/src/GetMeasurement.cpp</text>
</g>
<!-- Node2 -->
<g id="node2" class="node"><title>Node2</title>
<g id="a_node2"><a xlink:href="_get_measurement_8h.html" target="_top" xlink:title="GetMeasurement.h">
<polygon fill="none" stroke="black" points="432.664,-224.5 432.664,-243.5 532.664,-243.5 532.664,-224.5 432.664,-224.5"/>
<text text-anchor="middle" x="482.664" y="-231.5" font-family="Helvetica,sans-Serif" font-size="10.00">GetMeasurement.h</text>
</a>
</g>
</g>
<!-- Node1&#45;&gt;Node2 -->
<g id="edge1" class="edge"><title>Node1&#45;&gt;Node2</title>
<path fill="none" stroke="midnightblue" d="M632.457,-280.498C596.066,-269.444 551.768,-255.99 520.822,-246.59"/>
<polygon fill="midnightblue" stroke="midnightblue" points="521.455,-243.124 510.869,-243.567 519.421,-249.822 521.455,-243.124"/>
</g>
<!-- Node5 -->
<g id="node5" class="node"><title>Node5</title>
<g id="a_node5"><a xlink:href="_parameters_8h.html" target="_top" xlink:title="Parameters.h">
<polygon fill="none" stroke="black" points="257.164,-56.5 257.164,-75.5 332.164,-75.5 332.164,-56.5 257.164,-56.5"/>
<text text-anchor="middle" x="294.664" y="-63.5" font-family="Helvetica,sans-Serif" font-size="10.00">Parameters.h</text>
</a>
</g>
</g>
<!-- Node1&#45;&gt;Node5 -->
<g id="edge32" class="edge"><title>Node1&#45;&gt;Node5</title>
<path fill="none" stroke="midnightblue" d="M614.553,-294.867C558.228,-288.612 483.206,-274.743 423.664,-244 361.113,-211.703 345.543,-193.708 311.664,-132 303.77,-117.622 299.419,-99.4261 297.1,-85.9458"/>
<polygon fill="midnightblue" stroke="midnightblue" points="300.541,-85.2895 295.598,-75.9186 293.618,-86.3269 300.541,-85.2895"/>
</g>
<!-- Node8 -->
<g id="node8" class="node"><title>Node8</title>
<polygon fill="none" stroke="#bfbfbf" points="174.664,-0.5 174.664,-19.5 218.664,-19.5 218.664,-0.5 174.664,-0.5"/>
<text text-anchor="middle" x="196.664" y="-7.5" font-family="Helvetica,sans-Serif" font-size="10.00">vector</text>
</g>
<!-- Node1&#45;&gt;Node8 -->
<g id="edge48" class="edge"><title>Node1&#45;&gt;Node8</title>
<path fill="none" stroke="midnightblue" d="M614.434,-294.205C430.261,-280.123 0.66398,-240.668 0.66398,-179 0.66398,-179 0.66398,-179 0.66398,-121 0.66398,-90.9022 -1.99194,-76.9021 19.664,-56 40.194,-36.1846 119.344,-21.9891 164.541,-15.3057"/>
<polygon fill="midnightblue" stroke="midnightblue" points="165.041,-18.7698 174.441,-13.8815 164.044,-11.8412 165.041,-18.7698"/>
</g>
<!-- Node9 -->
<g id="node9" class="node"><title>Node9</title>
<g id="a_node9"><a xlink:href="_block_information_8h.html" target="_top" xlink:title="BlockInformation.h">
<polygon fill="none" stroke="black" points="638.664,-56.5 638.664,-75.5 736.664,-75.5 736.664,-56.5 638.664,-56.5"/>
<text text-anchor="middle" x="687.664" y="-63.5" font-family="Helvetica,sans-Serif" font-size="10.00">BlockInformation.h</text>
</a>
</g>
</g>
<!-- Node1&#45;&gt;Node9 -->
<g id="edge14" class="edge"><title>Node1&#45;&gt;Node9</title>
<path fill="none" stroke="midnightblue" d="M690.474,-280.267C687.461,-269.64 684.17,-256.234 682.664,-244 675.496,-185.773 679.42,-170.577 682.664,-112 683.143,-103.358 684.135,-93.8252 685.11,-85.7666"/>
<polygon fill="midnightblue" stroke="midnightblue" points="688.612,-85.969 686.421,-75.6032 681.67,-85.0728 688.612,-85.969"/>
</g>
<!-- Node10 -->
<g id="node10" class="node"><title>Node10</title>
<polygon fill="none" stroke="#bfbfbf" points="852.664,-0.5 852.664,-19.5 890.664,-19.5 890.664,-0.5 852.664,-0.5"/>
<text text-anchor="middle" x="871.664" y="-7.5" font-family="Helvetica,sans-Serif" font-size="10.00">tuple</text>
</g>
<!-- Node1&#45;&gt;Node10 -->
<g id="edge47" class="edge"><title>Node1&#45;&gt;Node10</title>
<path fill="none" stroke="midnightblue" d="M711.404,-280.384C745.94,-234.162 830.755,-119.076 851.664,-76 858.914,-61.0633 864.234,-42.9229 867.557,-29.6056"/>
<polygon fill="midnightblue" stroke="midnightblue" points="870.997,-30.2651 869.876,-19.7297 864.182,-28.6645 870.997,-30.2651"/>
</g>
<!-- Node12 -->
<g id="node12" class="node"><title>Node12</title>
<g id="a_node12"><a xlink:href="_configuration_8h.html" target="_top" xlink:title="Configuration.h">
<polygon fill="none" stroke="black" points="29.164,-56.5 29.164,-75.5 112.164,-75.5 112.164,-56.5 29.164,-56.5"/>
<text text-anchor="middle" x="70.664" y="-63.5" font-family="Helvetica,sans-Serif" font-size="10.00">Configuration.h</text>
</a>
</g>
</g>
<!-- Node1&#45;&gt;Node12 -->
<g id="edge20" class="edge"><title>Node1&#45;&gt;Node12</title>
<path fill="none" stroke="midnightblue" d="M614.399,-296.441C541.653,-291.081 433.712,-277.65 345.664,-244 238.986,-203.23 130.175,-117.257 88.4395,-82.2832"/>
<polygon fill="midnightblue" stroke="midnightblue" points="90.6863,-79.5996 80.7914,-75.8125 86.165,-84.9435 90.6863,-79.5996"/>
</g>
<!-- Node14 -->
<g id="node14" class="node"><title>Node14</title>
<g id="a_node14"><a xlink:href="_log_8h.html" target="_top" xlink:title="Log.h">
<polygon fill="none" stroke="black" points="579.164,-56.5 579.164,-75.5 620.164,-75.5 620.164,-56.5 579.164,-56.5"/>
<text text-anchor="middle" x="599.664" y="-63.5" font-family="Helvetica,sans-Serif" font-size="10.00">Log.h</text>
</a>
</g>
</g>
<!-- Node1&#45;&gt;Node14 -->
<g id="edge25" class="edge"><title>Node1&#45;&gt;Node14</title>
<path fill="none" stroke="midnightblue" d="M688.394,-280.135C669.81,-235.495 624.982,-127.814 607.156,-84.9968"/>
<polygon fill="midnightblue" stroke="midnightblue" points="610.313,-83.4731 603.239,-75.5863 603.851,-86.1635 610.313,-83.4731"/>
</g>
<!-- Node16 -->
<g id="node16" class="node"><title>Node16</title>
<g id="a_node16"><a xlink:href="_parameter_8h.html" target="_top" xlink:title="Parameter.h">
<polygon fill="none" stroke="black" points="130.664,-56.5 130.664,-75.5 200.664,-75.5 200.664,-56.5 130.664,-56.5"/>
<text text-anchor="middle" x="165.664" y="-63.5" font-family="Helvetica,sans-Serif" font-size="10.00">Parameter.h</text>
</a>
</g>
</g>
<!-- Node1&#45;&gt;Node16 -->
<g id="edge29" class="edge"><title>Node1&#45;&gt;Node16</title>
<path fill="none" stroke="midnightblue" d="M614.4,-296.184C549.952,-290.633 459.343,-277.069 386.664,-244 297.606,-203.479 213.435,-118.968 180.39,-83.3688"/>
<polygon fill="midnightblue" stroke="midnightblue" points="182.788,-80.8056 173.452,-75.7978 177.628,-85.535 182.788,-80.8056"/>
</g>
<!-- Node17 -->
<g id="node17" class="node"><title>Node17</title>
<g id="a_node17"><a xlink:href="_robot_interface_8h.html" target="_top" xlink:title="RobotInterface.h">
<polygon fill="none" stroke="black" points="754.164,-56.5 754.164,-75.5 843.164,-75.5 843.164,-56.5 754.164,-56.5"/>
<text text-anchor="middle" x="798.664" y="-63.5" font-family="Helvetica,sans-Serif" font-size="10.00">RobotInterface.h</text>
</a>
</g>
</g>
<!-- Node1&#45;&gt;Node17 -->
<g id="edge33" class="edge"><title>Node1&#45;&gt;Node17</title>
<path fill="none" stroke="midnightblue" d="M701.963,-280.34C706.362,-264.819 713.105,-242.734 720.664,-224 741.75,-171.737 773.141,-112.939 788.897,-84.4035"/>
<polygon fill="midnightblue" stroke="midnightblue" points="791.974,-86.0728 793.776,-75.6323 785.856,-82.6701 791.974,-86.0728"/>
</g>
<!-- Node19 -->
<g id="node19" class="node"><title>Node19</title>
<g id="a_node19"><a xlink:href="_signal_8h.html" target="_top" xlink:title="Signal.h">
<polygon fill="none" stroke="black" points="540.664,-168.5 540.664,-187.5 592.664,-187.5 592.664,-168.5 540.664,-168.5"/>
<text text-anchor="middle" x="566.664" y="-175.5" font-family="Helvetica,sans-Serif" font-size="10.00">Signal.h</text>
</a>
</g>
</g>
<!-- Node1&#45;&gt;Node19 -->
<g id="edge38" class="edge"><title>Node1&#45;&gt;Node19</title>
<path fill="none" stroke="midnightblue" d="M656.619,-280.391C639.906,-270.931 621.072,-258.48 606.664,-244 592.976,-230.244 581.858,-210.954 574.85,-196.964"/>
<polygon fill="midnightblue" stroke="midnightblue" points="577.97,-195.376 570.495,-187.869 571.657,-198.4 577.97,-195.376"/>
</g>
<!-- Node20 -->
<g id="node20" class="node"><title>Node20</title>
<polygon fill="none" stroke="#bfbfbf" points="762.664,-224.5 762.664,-243.5 894.664,-243.5 894.664,-224.5 762.664,-224.5"/>
<text text-anchor="middle" x="828.664" y="-231.5" font-family="Helvetica,sans-Serif" font-size="10.00">yarp/dev/ICurrentControl.h</text>
</g>
<!-- Node1&#45;&gt;Node20 -->
<g id="edge40" class="edge"><title>Node1&#45;&gt;Node20</title>
<path fill="none" stroke="midnightblue" d="M736.268,-280.498C757.479,-270.053 783.045,-257.464 801.902,-248.178"/>
<polygon fill="midnightblue" stroke="midnightblue" points="803.668,-251.21 811.093,-243.652 800.575,-244.93 803.668,-251.21"/>
</g>
<!-- Node21 -->
<g id="node21" class="node"><title>Node21</title>
<polygon fill="none" stroke="#bfbfbf" points="912.664,-224.5 912.664,-243.5 1022.66,-243.5 1022.66,-224.5 912.664,-224.5"/>
<text text-anchor="middle" x="967.664" y="-231.5" font-family="Helvetica,sans-Serif" font-size="10.00">yarp/dev/IEncoders.h</text>
</g>
<!-- Node1&#45;&gt;Node21 -->
<g id="edge41" class="edge"><title>Node1&#45;&gt;Node21</title>
<path fill="none" stroke="midnightblue" d="M777.973,-280.498C825.159,-269.18 882.842,-255.345 922.125,-245.923"/>
<polygon fill="midnightblue" stroke="midnightblue" points="923.038,-249.303 931.946,-243.567 921.405,-242.496 923.038,-249.303"/>
</g>
<!-- Node22 -->
<g id="node22" class="node"><title>Node22</title>
<polygon fill="none" stroke="#bfbfbf" points="1040.66,-224.5 1040.66,-243.5 1174.66,-243.5 1174.66,-224.5 1040.66,-224.5"/>
<text text-anchor="middle" x="1107.66" y="-231.5" font-family="Helvetica,sans-Serif" font-size="10.00">yarp/dev/IMotorEncoders.h</text>
</g>
<!-- Node1&#45;&gt;Node22 -->
<g id="edge42" class="edge"><title>Node1&#45;&gt;Node22</title>
<path fill="none" stroke="midnightblue" d="M778.848,-287.003C856.772,-274.679 972.235,-256.418 1043.57,-245.137"/>
<polygon fill="midnightblue" stroke="midnightblue" points="1044.43,-248.544 1053.76,-243.524 1043.34,-241.63 1044.43,-248.544"/>
</g>
<!-- Node23 -->
<g id="node23" class="node"><title>Node23</title>
<polygon fill="none" stroke="#bfbfbf" points="1193.16,-224.5 1193.16,-243.5 1318.16,-243.5 1318.16,-224.5 1193.16,-224.5"/>
<text text-anchor="middle" x="1255.66" y="-231.5" font-family="Helvetica,sans-Serif" font-size="10.00">yarp/dev/IPWMControl.h</text>
</g>
<!-- Node1&#45;&gt;Node23 -->
<g id="edge43" class="edge"><title>Node1&#45;&gt;Node23</title>
<path fill="none" stroke="midnightblue" d="M778.983,-290.785C873.666,-280.129 1034.09,-261.901 1182.62,-244.115"/>
<polygon fill="midnightblue" stroke="midnightblue" points="1183.33,-247.556 1192.84,-242.89 1182.49,-240.605 1183.33,-247.556"/>
</g>
<!-- Node24 -->
<g id="node24" class="node"><title>Node24</title>
<polygon fill="none" stroke="#bfbfbf" points="1336.66,-224.5 1336.66,-243.5 1466.66,-243.5 1466.66,-224.5 1336.66,-224.5"/>
<text text-anchor="middle" x="1401.66" y="-231.5" font-family="Helvetica,sans-Serif" font-size="10.00">yarp/dev/ITorqueControl.h</text>
</g>
<!-- Node1&#45;&gt;Node24 -->
<g id="edge44" class="edge"><title>Node1&#45;&gt;Node24</title>
<path fill="none" stroke="midnightblue" d="M778.795,-293.511C899.124,-283.82 1130.35,-264.499 1326.66,-244 1326.77,-243.989 1326.87,-243.979 1326.97,-243.968"/>
<polygon fill="midnightblue" stroke="midnightblue" points="1327.07,-247.478 1336.64,-242.928 1326.32,-240.518 1327.07,-247.478"/>
</g>
<!-- Node25 -->
<g id="node25" class="node"><title>Node25</title>
<polygon fill="none" stroke="#bfbfbf" points="1484.66,-224.5 1484.66,-243.5 1528.66,-243.5 1528.66,-224.5 1484.66,-224.5"/>
<text text-anchor="middle" x="1506.66" y="-231.5" font-family="Helvetica,sans-Serif" font-size="10.00">cmath</text>
</g>
<!-- Node1&#45;&gt;Node25 -->
<g id="edge45" class="edge"><title>Node1&#45;&gt;Node25</title>
<path fill="none" stroke="midnightblue" d="M778.673,-299.761C919.624,-298.113 1216.74,-289.214 1474.52,-243.827"/>
<polygon fill="midnightblue" stroke="midnightblue" points="1475.22,-247.259 1484.45,-242.058 1473.99,-240.368 1475.22,-247.259"/>
</g>
<!-- Node26 -->
<g id="node26" class="node"><title>Node26</title>
<polygon fill="none" stroke="#bfbfbf" points="1546.66,-224.5 1546.66,-243.5 1598.66,-243.5 1598.66,-224.5 1546.66,-224.5"/>
<text text-anchor="middle" x="1572.66" y="-231.5" font-family="Helvetica,sans-Serif" font-size="10.00">ostream</text>
</g>
<!-- Node1&#45;&gt;Node26 -->
<g id="edge46" class="edge"><title>Node1&#45;&gt;Node26</title>
<path fill="none" stroke="midnightblue" d="M778.88,-299.37C928.127,-297.166 1253.5,-287.484 1536.38,-243.705"/>
<polygon fill="midnightblue" stroke="midnightblue" points="1537.09,-247.137 1546.43,-242.133 1536.01,-240.221 1537.09,-247.137"/>
</g>
<!-- Node3 -->
<g id="node3" class="node"><title>Node3</title>
<g id="a_node3"><a xlink:href="_w_b_block_8h.html" target="_top" xlink:title="WBBlock.h">
<polygon fill="none" stroke="black" points="372.664,-168.5 372.664,-187.5 438.664,-187.5 438.664,-168.5 372.664,-168.5"/>
<text text-anchor="middle" x="405.664" y="-175.5" font-family="Helvetica,sans-Serif" font-size="10.00">WBBlock.h</text>
</a>
</g>
</g>
<!-- Node2&#45;&gt;Node3 -->
<g id="edge2" class="edge"><title>Node2&#45;&gt;Node3</title>
<path fill="none" stroke="midnightblue" d="M470.293,-224.324C458.505,-216.058 440.532,-203.453 426.528,-193.632"/>
<polygon fill="midnightblue" stroke="midnightblue" points="428.202,-190.531 418.005,-187.655 424.182,-196.262 428.202,-190.531"/>
</g>
<!-- Node6 -->
<g id="node6" class="node"><title>Node6</title>
<polygon fill="none" stroke="#bfbfbf" points="494.664,-0.5 494.664,-19.5 546.664,-19.5 546.664,-0.5 494.664,-0.5"/>
<text text-anchor="middle" x="520.664" y="-7.5" font-family="Helvetica,sans-Serif" font-size="10.00">memory</text>
</g>
<!-- Node2&#45;&gt;Node6 -->
<g id="edge12" class="edge"><title>Node2&#45;&gt;Node6</title>
<path fill="none" stroke="midnightblue" d="M484.154,-224.297C489.745,-191.633 509.561,-75.8661 517.419,-29.9573"/>
<polygon fill="midnightblue" stroke="midnightblue" points="520.906,-30.3309 519.143,-19.8837 514.006,-29.1499 520.906,-30.3309"/>
</g>
<!-- Node7 -->
<g id="node7" class="node"><title>Node7</title>
<polygon fill="none" stroke="#bfbfbf" points="378.164,-0.5 378.164,-19.5 419.164,-19.5 419.164,-0.5 378.164,-0.5"/>
<text text-anchor="middle" x="398.664" y="-7.5" font-family="Helvetica,sans-Serif" font-size="10.00">string</text>
</g>
<!-- Node2&#45;&gt;Node7 -->
<g id="edge13" class="edge"><title>Node2&#45;&gt;Node7</title>
<path fill="none" stroke="midnightblue" d="M479.371,-224.297C466.959,-191.494 422.836,-74.8835 405.618,-29.3774"/>
<polygon fill="midnightblue" stroke="midnightblue" points="408.838,-27.998 402.025,-19.8837 402.291,-30.4753 408.838,-27.998"/>
</g>
<!-- Node4 -->
<g id="node4" class="node"><title>Node4</title>
<g id="a_node4"><a xlink:href="_block_8h.html" target="_top" xlink:title="Block.h">
<polygon fill="none" stroke="black" points="320.664,-112.5 320.664,-131.5 370.664,-131.5 370.664,-112.5 320.664,-112.5"/>
<text text-anchor="middle" x="345.664" y="-119.5" font-family="Helvetica,sans-Serif" font-size="10.00">Block.h</text>
</a>
</g>
</g>
<!-- Node3&#45;&gt;Node4 -->
<g id="edge3" class="edge"><title>Node3&#45;&gt;Node4</title>
<path fill="none" stroke="midnightblue" d="M396.024,-168.324C387.154,-160.341 373.789,-148.313 363.056,-138.653"/>
<polygon fill="midnightblue" stroke="midnightblue" points="365.254,-135.922 355.479,-131.834 360.571,-141.125 365.254,-135.922"/>
</g>
<!-- Node3&#45;&gt;Node6 -->
<g id="edge10" class="edge"><title>Node3&#45;&gt;Node6</title>
<path fill="none" stroke="midnightblue" d="M411.847,-168.075C430.184,-141.606 484.495,-63.2089 508.742,-28.2097"/>
<polygon fill="midnightblue" stroke="midnightblue" points="511.911,-29.7814 514.728,-19.5681 506.156,-25.7951 511.911,-29.7814"/>
</g>
<!-- Node3&#45;&gt;Node7 -->
<g id="edge11" class="edge"><title>Node3&#45;&gt;Node7</title>
<path fill="none" stroke="midnightblue" d="M405.288,-168.075C404.186,-141.945 400.95,-65.2106 399.447,-29.577"/>
<polygon fill="midnightblue" stroke="midnightblue" points="402.944,-29.4117 399.025,-19.5681 395.95,-29.7067 402.944,-29.4117"/>
</g>
<!-- Node4&#45;&gt;Node5 -->
<g id="edge4" class="edge"><title>Node4&#45;&gt;Node5</title>
<path fill="none" stroke="midnightblue" d="M337.242,-112.083C329.816,-104.22 318.812,-92.5688 309.852,-83.0813"/>
<polygon fill="midnightblue" stroke="midnightblue" points="312.34,-80.618 302.929,-75.7511 307.251,-85.4244 312.34,-80.618"/>
</g>
<!-- Node4&#45;&gt;Node7 -->
<g id="edge8" class="edge"><title>Node4&#45;&gt;Node7</title>
<path fill="none" stroke="midnightblue" d="M349.823,-112.368C358.492,-94.376 378.644,-52.5503 390.171,-28.6267"/>
<polygon fill="midnightblue" stroke="midnightblue" points="393.337,-30.1195 394.524,-19.5914 387.031,-27.081 393.337,-30.1195"/>
</g>
<!-- Node4&#45;&gt;Node8 -->
<g id="edge9" class="edge"><title>Node4&#45;&gt;Node8</title>
<path fill="none" stroke="midnightblue" d="M320.512,-113.19C299.567,-105.854 269.711,-93.3946 247.664,-76 230.829,-62.7176 216.264,-42.7812 207.059,-28.4922"/>
<polygon fill="midnightblue" stroke="midnightblue" points="209.824,-26.3092 201.58,-19.6533 203.874,-29.997 209.824,-26.3092"/>
</g>
<!-- Node5&#45;&gt;Node6 -->
<g id="edge5" class="edge"><title>Node5&#45;&gt;Node6</title>
<path fill="none" stroke="midnightblue" d="M330.474,-56.4435C372.673,-46.3606 442.383,-29.7042 484.664,-19.6016"/>
<polygon fill="midnightblue" stroke="midnightblue" points="485.62,-22.9719 494.533,-17.2437 483.993,-16.1636 485.62,-22.9719"/>
</g>
<!-- Node5&#45;&gt;Node7 -->
<g id="edge6" class="edge"><title>Node5&#45;&gt;Node7</title>
<path fill="none" stroke="midnightblue" d="M311.373,-56.324C327.976,-47.7034 353.666,-34.3643 372.884,-24.3855"/>
<polygon fill="midnightblue" stroke="midnightblue" points="374.734,-27.3689 381.996,-19.6545 371.508,-21.1565 374.734,-27.3689"/>
</g>
<!-- Node5&#45;&gt;Node8 -->
<g id="edge7" class="edge"><title>Node5&#45;&gt;Node8</title>
<path fill="none" stroke="midnightblue" d="M278.919,-56.324C263.345,-47.7428 239.287,-34.486 221.205,-24.5224"/>
<polygon fill="midnightblue" stroke="midnightblue" points="222.818,-21.4152 212.37,-19.6545 219.44,-27.546 222.818,-21.4152"/>
</g>
<!-- Node9&#45;&gt;Node6 -->
<g id="edge15" class="edge"><title>Node9&#45;&gt;Node6</title>
<path fill="none" stroke="midnightblue" d="M661.202,-56.4435C632.903,-47.2928 587.859,-32.7279 556.419,-22.5614"/>
<polygon fill="midnightblue" stroke="midnightblue" points="557.319,-19.1741 546.727,-19.4275 555.165,-25.8345 557.319,-19.1741"/>
</g>
<!-- Node9&#45;&gt;Node7 -->
<g id="edge16" class="edge"><title>Node9&#45;&gt;Node7</title>
<path fill="none" stroke="midnightblue" d="M641.871,-56.4435C582.435,-45.3378 480.319,-26.2573 429.401,-16.7433"/>
<polygon fill="midnightblue" stroke="midnightblue" points="429.819,-13.2609 419.347,-14.8646 428.534,-20.1418 429.819,-13.2609"/>
</g>
<!-- Node9&#45;&gt;Node8 -->
<g id="edge19" class="edge"><title>Node9&#45;&gt;Node8</title>
<path fill="none" stroke="midnightblue" d="M638.433,-57.3111C635.129,-56.8504 631.85,-56.4087 628.664,-56 479.624,-36.881 300.858,-20.2607 228.947,-13.8334"/>
<polygon fill="midnightblue" stroke="midnightblue" points="229.007,-10.325 218.736,-12.9252 228.387,-17.2974 229.007,-10.325"/>
</g>
<!-- Node9&#45;&gt;Node10 -->
<g id="edge17" class="edge"><title>Node9&#45;&gt;Node10</title>
<path fill="none" stroke="midnightblue" d="M717.716,-56.4521C748.978,-47.5185 799.322,-33.0157 842.664,-20 842.765,-19.9697 842.866,-19.9393 842.967,-19.9088"/>
<polygon fill="midnightblue" stroke="midnightblue" points="844.104,-23.2214 852.648,-16.9563 842.062,-16.5259 844.104,-23.2214"/>
</g>
<!-- Node11 -->
<g id="node11" class="node"><title>Node11</title>
<polygon fill="none" stroke="#bfbfbf" points="679.664,-0.5 679.664,-19.5 719.664,-19.5 719.664,-0.5 679.664,-0.5"/>
<text text-anchor="middle" x="699.664" y="-7.5" font-family="Helvetica,sans-Serif" font-size="10.00">utility</text>
</g>
<!-- Node9&#45;&gt;Node11 -->
<g id="edge18" class="edge"><title>Node9&#45;&gt;Node11</title>
<path fill="none" stroke="midnightblue" d="M689.646,-56.083C691.236,-48.9272 693.523,-38.6353 695.51,-29.6911"/>
<polygon fill="midnightblue" stroke="midnightblue" points="698.967,-30.2722 697.719,-19.7511 692.133,-28.7537 698.967,-30.2722"/>
</g>
<!-- Node12&#45;&gt;Node6 -->
<g id="edge22" class="edge"><title>Node12&#45;&gt;Node6</title>
<path fill="none" stroke="midnightblue" d="M112.378,-57.4203C115.517,-56.9169 118.638,-56.4371 121.664,-56 191.384,-45.9267 399.705,-23.7114 484.328,-14.8041"/>
<polygon fill="midnightblue" stroke="midnightblue" points="484.908,-18.2626 494.487,-13.7363 484.176,-11.301 484.908,-18.2626"/>
</g>
<!-- Node12&#45;&gt;Node7 -->
<g id="edge23" class="edge"><title>Node12&#45;&gt;Node7</title>
<path fill="none" stroke="midnightblue" d="M112.405,-57.5863C115.537,-57.0446 118.65,-56.5107 121.664,-56 211.132,-40.8393 317.038,-23.9192 368.106,-15.8248"/>
<polygon fill="midnightblue" stroke="midnightblue" points="368.816,-19.2561 378.146,-14.2353 367.721,-12.3422 368.816,-19.2561"/>
</g>
<!-- Node12&#45;&gt;Node8 -->
<g id="edge24" class="edge"><title>Node12&#45;&gt;Node8</title>
<path fill="none" stroke="midnightblue" d="M90.6291,-56.4435C111.273,-47.5961 143.727,-33.6875 167.296,-23.5865"/>
<polygon fill="midnightblue" stroke="midnightblue" points="168.98,-26.6727 176.792,-19.5164 166.222,-20.2387 168.98,-26.6727"/>
</g>
<!-- Node13 -->
<g id="node13" class="node"><title>Node13</title>
<polygon fill="none" stroke="#bfbfbf" points="51.664,-0.5 51.664,-19.5 89.664,-19.5 89.664,-0.5 51.664,-0.5"/>
<text text-anchor="middle" x="70.664" y="-7.5" font-family="Helvetica,sans-Serif" font-size="10.00">array</text>
</g>
<!-- Node12&#45;&gt;Node13 -->
<g id="edge21" class="edge"><title>Node12&#45;&gt;Node13</title>
<path fill="none" stroke="midnightblue" d="M70.664,-56.083C70.664,-49.0059 70.664,-38.8611 70.664,-29.9865"/>
<polygon fill="midnightblue" stroke="midnightblue" points="74.1641,-29.751 70.664,-19.7511 67.1641,-29.7511 74.1641,-29.751"/>
</g>
<!-- Node14&#45;&gt;Node6 -->
<g id="edge26" class="edge"><title>Node14&#45;&gt;Node6</title>
<path fill="none" stroke="midnightblue" d="M586.971,-56.324C574.763,-47.979 556.086,-35.2122 541.661,-25.3524"/>
<polygon fill="midnightblue" stroke="midnightblue" points="543.556,-22.4082 533.325,-19.6545 539.606,-28.1871 543.556,-22.4082"/>
</g>
<!-- Node14&#45;&gt;Node7 -->
<g id="edge28" class="edge"><title>Node14&#45;&gt;Node7</title>
<path fill="none" stroke="midnightblue" d="M578.911,-59.4244C543.311,-49.8603 470.452,-30.2864 429.098,-19.1762"/>
<polygon fill="midnightblue" stroke="midnightblue" points="429.87,-15.7597 419.305,-16.5452 428.054,-22.52 429.87,-15.7597"/>
</g>
<!-- Node15 -->
<g id="node15" class="node"><title>Node15</title>
<polygon fill="none" stroke="#bfbfbf" points="573.664,-0.5 573.664,-19.5 625.664,-19.5 625.664,-0.5 573.664,-0.5"/>
<text text-anchor="middle" x="599.664" y="-7.5" font-family="Helvetica,sans-Serif" font-size="10.00">sstream</text>
</g>
<!-- Node14&#45;&gt;Node15 -->
<g id="edge27" class="edge"><title>Node14&#45;&gt;Node15</title>
<path fill="none" stroke="midnightblue" d="M599.664,-56.083C599.664,-49.0059 599.664,-38.8611 599.664,-29.9865"/>
<polygon fill="midnightblue" stroke="midnightblue" points="603.164,-29.751 599.664,-19.7511 596.164,-29.7511 603.164,-29.751"/>
</g>
<!-- Node16&#45;&gt;Node7 -->
<g id="edge30" class="edge"><title>Node16&#45;&gt;Node7</title>
<path fill="none" stroke="midnightblue" d="M200.799,-56.8572C246.368,-46.2961 325.111,-28.0467 368.244,-18.0502"/>
<polygon fill="midnightblue" stroke="midnightblue" points="369.196,-21.4222 378.148,-15.7548 367.616,-14.603 369.196,-21.4222"/>
</g>
<!-- Node16&#45;&gt;Node8 -->
<g id="edge31" class="edge"><title>Node16&#45;&gt;Node8</title>
<path fill="none" stroke="midnightblue" d="M170.783,-56.083C175.072,-48.6127 181.322,-37.7244 186.606,-28.5199"/>
<polygon fill="midnightblue" stroke="midnightblue" points="189.697,-30.1662 191.64,-19.7511 183.626,-26.6811 189.697,-30.1662"/>
</g>
<!-- Node17&#45;&gt;Node6 -->
<g id="edge34" class="edge"><title>Node17&#45;&gt;Node6</title>
<path fill="none" stroke="midnightblue" d="M753.774,-56.5298C706.645,-47.5991 630.401,-33.0435 564.664,-20 562.03,-19.4774 559.309,-18.9326 556.571,-18.3809"/>
<polygon fill="midnightblue" stroke="midnightblue" points="557.208,-14.9389 546.712,-16.3808 555.816,-21.7992 557.208,-14.9389"/>
</g>
<!-- Node17&#45;&gt;Node7 -->
<g id="edge35" class="edge"><title>Node17&#45;&gt;Node7</title>
<path fill="none" stroke="midnightblue" d="M753.894,-57.4116C750.773,-56.9215 747.672,-56.4462 744.664,-56 628.503,-38.7718 489.857,-21.8309 429.393,-14.6217"/>
<polygon fill="midnightblue" stroke="midnightblue" points="429.713,-11.1352 419.369,-13.4305 428.886,-18.0862 429.713,-11.1352"/>
</g>
<!-- Node17&#45;&gt;Node11 -->
<g id="edge37" class="edge"><title>Node17&#45;&gt;Node11</title>
<path fill="none" stroke="midnightblue" d="M782.758,-56.324C767.026,-47.7428 742.722,-34.486 724.455,-24.5224"/>
<polygon fill="midnightblue" stroke="midnightblue" points="725.986,-21.3704 715.531,-19.6545 722.634,-27.5157 725.986,-21.3704"/>
</g>
<!-- Node18 -->
<g id="node18" class="node"><title>Node18</title>
<polygon fill="none" stroke="#bfbfbf" points="751.164,-0.5 751.164,-19.5 834.164,-19.5 834.164,-0.5 751.164,-0.5"/>
<text text-anchor="middle" x="792.664" y="-7.5" font-family="Helvetica,sans-Serif" font-size="10.00">unordered_map</text>
</g>
<!-- Node17&#45;&gt;Node18 -->
<g id="edge36" class="edge"><title>Node17&#45;&gt;Node18</title>
<path fill="none" stroke="midnightblue" d="M797.673,-56.083C796.878,-48.9272 795.735,-38.6353 794.741,-29.6911"/>
<polygon fill="midnightblue" stroke="midnightblue" points="798.219,-29.3034 793.636,-19.7511 791.262,-30.0765 798.219,-29.3034"/>
</g>
<!-- Node19&#45;&gt;Node6 -->
<g id="edge39" class="edge"><title>Node19&#45;&gt;Node6</title>
<path fill="none" stroke="midnightblue" d="M564.191,-168.075C556.95,-141.945 535.686,-65.2106 525.812,-29.577"/>
<polygon fill="midnightblue" stroke="midnightblue" points="529.082,-28.2703 523.038,-19.5681 522.336,-30.1396 529.082,-28.2703"/>
</g>
</g>
</svg>
