<?xml version="1.0" encoding="UTF-8" standalone="no"?>
<!DOCTYPE svg PUBLIC "-//W3C//DTD SVG 1.1//EN"
 "http://www.w3.org/Graphics/SVG/1.1/DTD/svg11.dtd">
<!-- Generated by graphviz version 2.36.0 (20140111.2315)
 -->
<!-- Title: /home/travis/build/robotology/wb&#45;toolbox/toolbox/src/GetMeasurement.cpp Pages: 1 -->
<svg width="1643pt" height="330pt"
 viewBox="0.00 0.00 1642.51 330.00" xmlns="http://www.w3.org/2000/svg" xmlns:xlink="http://www.w3.org/1999/xlink">
<g id="graph0" class="graph" transform="scale(1 1) rotate(0) translate(4 326)">
<title>/home/travis/build/robotology/wb&#45;toolbox/toolbox/src/GetMeasurement.cpp</title>
<!-- Node1 -->
<g id="node1" class="node"><title>Node1</title>
<polygon fill="#bfbfbf" stroke="black" points="632.51,-280.5 632.51,-321.5 796.51,-321.5 796.51,-280.5 632.51,-280.5"/>
<text text-anchor="start" x="640.51" y="-309.5" font-family="Helvetica,sans-Serif" font-size="10.00">/home/travis/build</text>
<text text-anchor="start" x="640.51" y="-298.5" font-family="Helvetica,sans-Serif" font-size="10.00">/robotology/wb&#45;toolbox</text>
<text text-anchor="middle" x="714.51" y="-287.5" font-family="Helvetica,sans-Serif" font-size="10.00">/toolbox/src/GetMeasurement.cpp</text>
</g>
<!-- Node2 -->
<g id="node2" class="node"><title>Node2</title>
<g id="a_node2"><a xlink:href="_get_measurement_8h.html" target="_top" xlink:title="GetMeasurement.h">
<polygon fill="none" stroke="black" points="489.51,-224.5 489.51,-243.5 589.51,-243.5 589.51,-224.5 489.51,-224.5"/>
<text text-anchor="middle" x="539.51" y="-231.5" font-family="Helvetica,sans-Serif" font-size="10.00">GetMeasurement.h</text>
</a>
</g>
</g>
<!-- Node1&#45;&gt;Node2 -->
<g id="edge1" class="edge"><title>Node1&#45;&gt;Node2</title>
<path fill="none" stroke="midnightblue" d="M662.005,-280.498C632.852,-269.67 597.494,-256.537 572.275,-247.17"/>
<polygon fill="midnightblue" stroke="midnightblue" points="573.398,-243.853 562.806,-243.652 570.961,-250.415 573.398,-243.853"/>
</g>
<!-- Node5 -->
<g id="node5" class="node"><title>Node5</title>
<g id="a_node5"><a xlink:href="_parameters_8h.html" target="_top" xlink:title="Parameters.h">
<polygon fill="none" stroke="black" points="256.01,-56.5 256.01,-75.5 331.01,-75.5 331.01,-56.5 256.01,-56.5"/>
<text text-anchor="middle" x="293.51" y="-63.5" font-family="Helvetica,sans-Serif" font-size="10.00">Parameters.h</text>
</a>
</g>
</g>
<!-- Node1&#45;&gt;Node5 -->
<g id="edge29" class="edge"><title>Node1&#45;&gt;Node5</title>
<path fill="none" stroke="midnightblue" d="M632.268,-293.655C581.312,-286.888 515.998,-272.902 464.51,-244 390.975,-202.723 329.188,-119.888 304.741,-84.1076"/>
<polygon fill="midnightblue" stroke="midnightblue" points="307.58,-82.0571 299.1,-75.7058 301.768,-85.9591 307.58,-82.0571"/>
</g>
<!-- Node8 -->
<g id="node8" class="node"><title>Node8</title>
<polygon fill="none" stroke="#bfbfbf" points="139.51,-0.5 139.51,-19.5 183.51,-19.5 183.51,-0.5 139.51,-0.5"/>
<text text-anchor="middle" x="161.51" y="-7.5" font-family="Helvetica,sans-Serif" font-size="10.00">vector</text>
</g>
<!-- Node1&#45;&gt;Node8 -->
<g id="edge45" class="edge"><title>Node1&#45;&gt;Node8</title>
<path fill="none" stroke="midnightblue" d="M632.257,-294.57C444.511,-281.075 0.510381,-242.452 0.510381,-179 0.510381,-179 0.510381,-179 0.510381,-121 0.510381,-90.9022 -1.53114,-77.5205 19.5104,-56 48.5861,-26.2625 97.1698,-16.1286 129.277,-12.7038"/>
<polygon fill="midnightblue" stroke="midnightblue" points="129.838,-16.1675 139.482,-11.781 129.207,-9.19594 129.838,-16.1675"/>
</g>
<!-- Node9 -->
<g id="node9" class="node"><title>Node9</title>
<g id="a_node9"><a xlink:href="_block_information_8h.html" target="_top" xlink:title="BlockInformation.h">
<polygon fill="none" stroke="black" points="425.51,-56.5 425.51,-75.5 523.51,-75.5 523.51,-56.5 425.51,-56.5"/>
<text text-anchor="middle" x="474.51" y="-63.5" font-family="Helvetica,sans-Serif" font-size="10.00">BlockInformation.h</text>
</a>
</g>
</g>
<!-- Node1&#45;&gt;Node9 -->
<g id="edge13" class="edge"><title>Node1&#45;&gt;Node9</title>
<path fill="none" stroke="midnightblue" d="M632.406,-290.905C572.946,-282.459 499.767,-267.577 480.51,-244 442.952,-198.017 458.641,-120.696 468.617,-85.4767"/>
<polygon fill="midnightblue" stroke="midnightblue" points="472.055,-86.1986 471.581,-75.6144 465.351,-84.184 472.055,-86.1986"/>
</g>
<!-- Node11 -->
<g id="node11" class="node"><title>Node11</title>
<g id="a_node11"><a xlink:href="_configuration_8h.html" target="_top" xlink:title="Configuration.h">
<polygon fill="none" stroke="black" points="155.01,-56.5 155.01,-75.5 238.01,-75.5 238.01,-56.5 155.01,-56.5"/>
<text text-anchor="middle" x="196.51" y="-63.5" font-family="Helvetica,sans-Serif" font-size="10.00">Configuration.h</text>
</a>
</g>
</g>
<!-- Node1&#45;&gt;Node11 -->
<g id="edge18" class="edge"><title>Node1&#45;&gt;Node11</title>
<path fill="none" stroke="midnightblue" d="M632.276,-293.307C574.643,-286.33 496.898,-272.238 433.51,-244 339.745,-202.229 247.918,-117.781 212.166,-82.7653"/>
<polygon fill="midnightblue" stroke="midnightblue" points="214.608,-80.2579 205.039,-75.7086 209.682,-85.2319 214.608,-80.2579"/>
</g>
<!-- Node12 -->
<g id="node12" class="node"><title>Node12</title>
<g id="a_node12"><a xlink:href="_log_8h.html" target="_top" xlink:title="Log.h">
<polygon fill="none" stroke="black" points="618.01,-56.5 618.01,-75.5 659.01,-75.5 659.01,-56.5 618.01,-56.5"/>
<text text-anchor="middle" x="638.51" y="-63.5" font-family="Helvetica,sans-Serif" font-size="10.00">Log.h</text>
</a>
</g>
</g>
<!-- Node1&#45;&gt;Node12 -->
<g id="edge22" class="edge"><title>Node1&#45;&gt;Node12</title>
<path fill="none" stroke="midnightblue" d="M701.989,-280.191C688.828,-258.431 668.537,-222.04 657.51,-188 646.191,-153.057 641.497,-110.18 639.641,-85.9852"/>
<polygon fill="midnightblue" stroke="midnightblue" points="643.113,-85.4635 638.941,-75.7249 636.129,-85.94 643.113,-85.4635"/>
</g>
<!-- Node14 -->
<g id="node14" class="node"><title>Node14</title>
<g id="a_node14"><a xlink:href="_parameter_8h.html" target="_top" xlink:title="Parameter.h">
<polygon fill="none" stroke="black" points="28.5104,-56.5 28.5104,-75.5 98.5104,-75.5 98.5104,-56.5 28.5104,-56.5"/>
<text text-anchor="middle" x="63.5104" y="-63.5" font-family="Helvetica,sans-Serif" font-size="10.00">Parameter.h</text>
</a>
</g>
</g>
<!-- Node1&#45;&gt;Node14 -->
<g id="edge26" class="edge"><title>Node1&#45;&gt;Node14</title>
<path fill="none" stroke="midnightblue" d="M632.5,-292.892C566.765,-285.486 472.887,-271.034 394.51,-244 269.823,-200.992 135.391,-115.348 84.5655,-81.3714"/>
<polygon fill="midnightblue" stroke="midnightblue" points="86.3192,-78.3327 76.0695,-75.6504 82.4093,-84.1391 86.3192,-78.3327"/>
</g>
<!-- Node15 -->
<g id="node15" class="node"><title>Node15</title>
<g id="a_node15"><a xlink:href="_robot_interface_8h.html" target="_top" xlink:title="RobotInterface.h">
<polygon fill="none" stroke="black" points="716.01,-56.5 716.01,-75.5 805.01,-75.5 805.01,-56.5 716.01,-56.5"/>
<text text-anchor="middle" x="760.51" y="-63.5" font-family="Helvetica,sans-Serif" font-size="10.00">RobotInterface.h</text>
</a>
</g>
</g>
<!-- Node1&#45;&gt;Node15 -->
<g id="edge30" class="edge"><title>Node1&#45;&gt;Node15</title>
<path fill="none" stroke="midnightblue" d="M718.432,-280.135C727.208,-235.684 748.324,-128.726 756.849,-85.5445"/>
<polygon fill="midnightblue" stroke="midnightblue" points="760.312,-86.0749 758.815,-75.5863 753.445,-84.719 760.312,-86.0749"/>
</g>
<!-- Node17 -->
<g id="node17" class="node"><title>Node17</title>
<g id="a_node17"><a xlink:href="_signal_8h.html" target="_top" xlink:title="Signal.h">
<polygon fill="none" stroke="black" points="666.51,-168.5 666.51,-187.5 718.51,-187.5 718.51,-168.5 666.51,-168.5"/>
<text text-anchor="middle" x="692.51" y="-175.5" font-family="Helvetica,sans-Serif" font-size="10.00">Signal.h</text>
</a>
</g>
</g>
<!-- Node1&#45;&gt;Node17 -->
<g id="edge35" class="edge"><title>Node1&#45;&gt;Node17</title>
<path fill="none" stroke="midnightblue" d="M708.993,-280.433C706.136,-269.738 702.781,-256.217 700.51,-244 697.651,-228.61 695.553,-210.975 694.225,-197.96"/>
<polygon fill="midnightblue" stroke="midnightblue" points="697.697,-197.503 693.256,-187.884 690.73,-198.173 697.697,-197.503"/>
</g>
<!-- Node18 -->
<g id="node18" class="node"><title>Node18</title>
<polygon fill="none" stroke="#bfbfbf" points="742.51,-224.5 742.51,-243.5 874.51,-243.5 874.51,-224.5 742.51,-224.5"/>
<text text-anchor="middle" x="808.51" y="-231.5" font-family="Helvetica,sans-Serif" font-size="10.00">yarp/dev/ICurrentControl.h</text>
</g>
<!-- Node1&#45;&gt;Node18 -->
<g id="edge37" class="edge"><title>Node1&#45;&gt;Node18</title>
<path fill="none" stroke="midnightblue" d="M742.713,-280.498C757.125,-270.532 774.361,-258.614 787.575,-249.476"/>
<polygon fill="midnightblue" stroke="midnightblue" points="789.763,-252.219 795.998,-243.652 785.782,-246.461 789.763,-252.219"/>
</g>
<!-- Node19 -->
<g id="node19" class="node"><title>Node19</title>
<polygon fill="none" stroke="#bfbfbf" points="892.51,-224.5 892.51,-243.5 1002.51,-243.5 1002.51,-224.5 892.51,-224.5"/>
<text text-anchor="middle" x="947.51" y="-231.5" font-family="Helvetica,sans-Serif" font-size="10.00">yarp/dev/IEncoders.h</text>
</g>
<!-- Node1&#45;&gt;Node19 -->
<g id="edge38" class="edge"><title>Node1&#45;&gt;Node19</title>
<path fill="none" stroke="midnightblue" d="M784.418,-280.498C824.385,-269.348 873.11,-255.755 906.841,-246.346"/>
<polygon fill="midnightblue" stroke="midnightblue" points="908.109,-249.626 916.801,-243.567 906.228,-242.883 908.109,-249.626"/>
</g>
<!-- Node20 -->
<g id="node20" class="node"><title>Node20</title>
<polygon fill="none" stroke="#bfbfbf" points="1020.51,-224.5 1020.51,-243.5 1154.51,-243.5 1154.51,-224.5 1020.51,-224.5"/>
<text text-anchor="middle" x="1087.51" y="-231.5" font-family="Helvetica,sans-Serif" font-size="10.00">yarp/dev/IMotorEncoders.h</text>
</g>
<!-- Node1&#45;&gt;Node20 -->
<g id="edge39" class="edge"><title>Node1&#45;&gt;Node20</title>
<path fill="none" stroke="midnightblue" d="M796.829,-285.655C866.942,-273.437 965.979,-256.178 1028.45,-245.292"/>
<polygon fill="midnightblue" stroke="midnightblue" points="1029.28,-248.7 1038.53,-243.535 1028.08,-241.804 1029.28,-248.7"/>
</g>
<!-- Node21 -->
<g id="node21" class="node"><title>Node21</title>
<polygon fill="none" stroke="#bfbfbf" points="1173.01,-224.5 1173.01,-243.5 1298.01,-243.5 1298.01,-224.5 1173.01,-224.5"/>
<text text-anchor="middle" x="1235.51" y="-231.5" font-family="Helvetica,sans-Serif" font-size="10.00">yarp/dev/IPWMControl.h</text>
</g>
<!-- Node1&#45;&gt;Node21 -->
<g id="edge40" class="edge"><title>Node1&#45;&gt;Node21</title>
<path fill="none" stroke="midnightblue" d="M796.854,-289.737C884.706,-278.786 1028.26,-260.886 1162.61,-244.112"/>
<polygon fill="midnightblue" stroke="midnightblue" points="1163.19,-247.567 1172.68,-242.855 1162.33,-240.621 1163.19,-247.567"/>
</g>
<!-- Node22 -->
<g id="node22" class="node"><title>Node22</title>
<polygon fill="none" stroke="#bfbfbf" points="1316.51,-224.5 1316.51,-243.5 1446.51,-243.5 1446.51,-224.5 1316.51,-224.5"/>
<text text-anchor="middle" x="1381.51" y="-231.5" font-family="Helvetica,sans-Serif" font-size="10.00">yarp/dev/ITorqueControl.h</text>
</g>
<!-- Node1&#45;&gt;Node22 -->
<g id="edge41" class="edge"><title>Node1&#45;&gt;Node22</title>
<path fill="none" stroke="midnightblue" d="M796.938,-292.861C911.375,-282.8 1124.82,-263.491 1306.51,-244 1306.61,-243.989 1306.71,-243.978 1306.82,-243.967"/>
<polygon fill="midnightblue" stroke="midnightblue" points="1306.92,-247.477 1316.48,-242.905 1306.16,-240.519 1306.92,-247.477"/>
</g>
<!-- Node23 -->
<g id="node23" class="node"><title>Node23</title>
<polygon fill="none" stroke="#bfbfbf" points="1464.51,-224.5 1464.51,-243.5 1508.51,-243.5 1508.51,-224.5 1464.51,-224.5"/>
<text text-anchor="middle" x="1486.51" y="-231.5" font-family="Helvetica,sans-Serif" font-size="10.00">cmath</text>
</g>
<!-- Node1&#45;&gt;Node23 -->
<g id="edge42" class="edge"><title>Node1&#45;&gt;Node23</title>
<path fill="none" stroke="midnightblue" d="M796.625,-299.326C932.183,-296.999 1211.14,-287.085 1454.2,-243.865"/>
<polygon fill="midnightblue" stroke="midnightblue" points="1455.07,-247.266 1464.29,-242.048 1453.83,-240.376 1455.07,-247.266"/>
</g>
<!-- Node24 -->
<g id="node24" class="node"><title>Node24</title>
<polygon fill="none" stroke="#bfbfbf" points="1526.51,-224.5 1526.51,-243.5 1578.51,-243.5 1578.51,-224.5 1526.51,-224.5"/>
<text text-anchor="middle" x="1552.51" y="-231.5" font-family="Helvetica,sans-Serif" font-size="10.00">ostream</text>
</g>
<!-- Node1&#45;&gt;Node24 -->
<g id="edge43" class="edge"><title>Node1&#45;&gt;Node24</title>
<path fill="none" stroke="midnightblue" d="M796.731,-299C940.803,-296.209 1248.18,-285.626 1516.35,-243.693"/>
<polygon fill="midnightblue" stroke="midnightblue" points="1516.94,-247.142 1526.27,-242.124 1515.85,-240.228 1516.94,-247.142"/>
</g>
<!-- Node25 -->
<g id="node25" class="node"><title>Node25</title>
<polygon fill="none" stroke="#bfbfbf" points="1596.51,-224.5 1596.51,-243.5 1634.51,-243.5 1634.51,-224.5 1596.51,-224.5"/>
<text text-anchor="middle" x="1615.51" y="-231.5" font-family="Helvetica,sans-Serif" font-size="10.00">tuple</text>
</g>
<!-- Node1&#45;&gt;Node25 -->
<g id="edge44" class="edge"><title>Node1&#45;&gt;Node25</title>
<path fill="none" stroke="midnightblue" d="M796.619,-297.321C980.024,-290.926 1419.31,-273.219 1586.49,-243.659"/>
<polygon fill="midnightblue" stroke="midnightblue" points="1587.19,-247.089 1596.39,-241.833 1585.92,-240.205 1587.19,-247.089"/>
</g>
<!-- Node3 -->
<g id="node3" class="node"><title>Node3</title>
<g id="a_node3"><a xlink:href="_w_b_block_8h.html" target="_top" xlink:title="WBBlock.h">
<polygon fill="none" stroke="black" points="544.51,-168.5 544.51,-187.5 610.51,-187.5 610.51,-168.5 544.51,-168.5"/>
<text text-anchor="middle" x="577.51" y="-175.5" font-family="Helvetica,sans-Serif" font-size="10.00">WBBlock.h</text>
</a>
</g>
</g>
<!-- Node2&#45;&gt;Node3 -->
<g id="edge2" class="edge"><title>Node2&#45;&gt;Node3</title>
<path fill="none" stroke="midnightblue" d="M545.785,-224.083C551.153,-216.455 559.028,-205.264 565.589,-195.941"/>
<polygon fill="midnightblue" stroke="midnightblue" points="568.46,-197.943 571.352,-187.751 562.735,-193.915 568.46,-197.943"/>
</g>
<!-- Node6 -->
<g id="node6" class="node"><title>Node6</title>
<polygon fill="none" stroke="#bfbfbf" points="522.51,-0.5 522.51,-19.5 574.51,-19.5 574.51,-0.5 522.51,-0.5"/>
<text text-anchor="middle" x="548.51" y="-7.5" font-family="Helvetica,sans-Serif" font-size="10.00">memory</text>
</g>
<!-- Node2&#45;&gt;Node6 -->
<g id="edge11" class="edge"><title>Node2&#45;&gt;Node6</title>
<path fill="none" stroke="midnightblue" d="M538.516,-224.388C537.526,-215.342 536.073,-200.694 535.51,-188 532.957,-130.429 541.073,-62.5035 545.632,-30.0827"/>
<polygon fill="midnightblue" stroke="midnightblue" points="549.148,-30.2294 547.124,-19.8296 542.22,-29.2212 549.148,-30.2294"/>
</g>
<!-- Node7 -->
<g id="node7" class="node"><title>Node7</title>
<polygon fill="none" stroke="#bfbfbf" points="358.01,-0.5 358.01,-19.5 399.01,-19.5 399.01,-0.5 358.01,-0.5"/>
<text text-anchor="middle" x="378.51" y="-7.5" font-family="Helvetica,sans-Serif" font-size="10.00">string</text>
</g>
<!-- Node2&#45;&gt;Node7 -->
<g id="edge12" class="edge"><title>Node2&#45;&gt;Node7</title>
<path fill="none" stroke="midnightblue" d="M510.404,-224.462C472.177,-211.499 406.62,-182.817 378.51,-132 360.61,-99.6404 367.328,-54.5683 373.271,-29.5691"/>
<polygon fill="midnightblue" stroke="midnightblue" points="376.731,-30.1718 375.856,-19.6132 369.955,-28.4127 376.731,-30.1718"/>
</g>
<!-- Node4 -->
<g id="node4" class="node"><title>Node4</title>
<g id="a_node4"><a xlink:href="_block_8h.html" target="_top" xlink:title="Block.h">
<polygon fill="none" stroke="black" points="387.51,-112.5 387.51,-131.5 437.51,-131.5 437.51,-112.5 387.51,-112.5"/>
<text text-anchor="middle" x="412.51" y="-119.5" font-family="Helvetica,sans-Serif" font-size="10.00">Block.h</text>
</a>
</g>
</g>
<!-- Node3&#45;&gt;Node4 -->
<g id="edge3" class="edge"><title>Node3&#45;&gt;Node4</title>
<path fill="none" stroke="midnightblue" d="M551.366,-168.444C523.241,-159.239 478.379,-144.557 447.292,-134.383"/>
<polygon fill="midnightblue" stroke="midnightblue" points="448.314,-131.035 437.721,-131.251 446.136,-137.688 448.314,-131.035"/>
</g>
<!-- Node3&#45;&gt;Node6 -->
<g id="edge10" class="edge"><title>Node3&#45;&gt;Node6</title>
<path fill="none" stroke="midnightblue" d="M577.426,-168.365C577.065,-148.345 575.185,-97.3135 565.51,-56 563.392,-46.9538 559.904,-37.2717 556.638,-29.2148"/>
<polygon fill="midnightblue" stroke="midnightblue" points="559.744,-27.577 552.604,-19.7496 553.305,-30.3212 559.744,-27.577"/>
</g>
<!-- Node4&#45;&gt;Node5 -->
<g id="edge4" class="edge"><title>Node4&#45;&gt;Node5</title>
<path fill="none" stroke="midnightblue" d="M393.654,-112.444C374.244,-103.636 343.78,-89.8116 321.546,-79.722"/>
<polygon fill="midnightblue" stroke="midnightblue" points="322.831,-76.4615 312.278,-75.5164 319.938,-82.836 322.831,-76.4615"/>
</g>
<!-- Node4&#45;&gt;Node7 -->
<g id="edge8" class="edge"><title>Node4&#45;&gt;Node7</title>
<path fill="none" stroke="midnightblue" d="M409.842,-112.368C404.331,-94.5366 391.583,-53.2953 384.158,-29.2717"/>
<polygon fill="midnightblue" stroke="midnightblue" points="387.463,-28.1119 381.166,-19.5914 380.775,-30.179 387.463,-28.1119"/>
</g>
<!-- Node4&#45;&gt;Node8 -->
<g id="edge9" class="edge"><title>Node4&#45;&gt;Node8</title>
<path fill="none" stroke="midnightblue" d="M387.325,-120.707C326.895,-119.416 176.394,-112.524 145.51,-76 134.292,-62.7329 141.633,-42.7939 149.682,-28.5001"/>
<polygon fill="midnightblue" stroke="midnightblue" points="152.868,-30.0041 155.149,-19.6578 146.913,-26.3231 152.868,-30.0041"/>
</g>
<!-- Node5&#45;&gt;Node6 -->
<g id="edge5" class="edge"><title>Node5&#45;&gt;Node6</title>
<path fill="none" stroke="midnightblue" d="M331.137,-57.0321C379.925,-46.7005 464.435,-28.8041 512.447,-18.637"/>
<polygon fill="midnightblue" stroke="midnightblue" points="513.339,-22.0257 522.397,-16.5299 511.889,-15.1776 513.339,-22.0257"/>
</g>
<!-- Node5&#45;&gt;Node7 -->
<g id="edge6" class="edge"><title>Node5&#45;&gt;Node7</title>
<path fill="none" stroke="midnightblue" d="M307.167,-56.324C320.427,-47.9002 340.778,-34.9709 356.357,-25.0741"/>
<polygon fill="midnightblue" stroke="midnightblue" points="358.324,-27.9711 364.888,-19.6545 354.57,-22.0626 358.324,-27.9711"/>
</g>
<!-- Node5&#45;&gt;Node8 -->
<g id="edge7" class="edge"><title>Node5&#45;&gt;Node8</title>
<path fill="none" stroke="midnightblue" d="M272.595,-56.4435C250.774,-47.5171 216.361,-33.4387 191.618,-23.3168"/>
<polygon fill="midnightblue" stroke="midnightblue" points="192.909,-20.0634 182.328,-19.5164 190.259,-26.5422 192.909,-20.0634"/>
</g>
<!-- Node9&#45;&gt;Node6 -->
<g id="edge14" class="edge"><title>Node9&#45;&gt;Node6</title>
<path fill="none" stroke="midnightblue" d="M486.4,-56.324C497.661,-48.1066 514.797,-35.6017 528.22,-25.8069"/>
<polygon fill="midnightblue" stroke="midnightblue" points="530.39,-28.5559 536.405,-19.8339 526.264,-22.9014 530.39,-28.5559"/>
</g>
<!-- Node9&#45;&gt;Node7 -->
<g id="edge15" class="edge"><title>Node9&#45;&gt;Node7</title>
<path fill="none" stroke="midnightblue" d="M459.086,-56.324C443.971,-47.8215 420.695,-34.7288 403.039,-24.7975"/>
<polygon fill="midnightblue" stroke="midnightblue" points="404.328,-21.5066 393.896,-19.6545 400.896,-27.6077 404.328,-21.5066"/>
</g>
<!-- Node9&#45;&gt;Node8 -->
<g id="edge17" class="edge"><title>Node9&#45;&gt;Node8</title>
<path fill="none" stroke="midnightblue" d="M425.26,-56.5031C360.539,-45.3372 248.667,-26.0365 193.778,-16.5669"/>
<polygon fill="midnightblue" stroke="midnightblue" points="194.04,-13.0605 183.591,-14.8094 192.85,-19.9586 194.04,-13.0605"/>
</g>
<!-- Node10 -->
<g id="node10" class="node"><title>Node10</title>
<polygon fill="none" stroke="#bfbfbf" points="592.51,-0.5 592.51,-19.5 632.51,-19.5 632.51,-0.5 592.51,-0.5"/>
<text text-anchor="middle" x="612.51" y="-7.5" font-family="Helvetica,sans-Serif" font-size="10.00">utility</text>
</g>
<!-- Node9&#45;&gt;Node10 -->
<g id="edge16" class="edge"><title>Node9&#45;&gt;Node10</title>
<path fill="none" stroke="midnightblue" d="M496.377,-56.4435C519.694,-47.3194 556.767,-32.8125 582.738,-22.6501"/>
<polygon fill="midnightblue" stroke="midnightblue" points="584.059,-25.8917 592.096,-18.9883 581.508,-19.373 584.059,-25.8917"/>
</g>
<!-- Node11&#45;&gt;Node6 -->
<g id="edge19" class="edge"><title>Node11&#45;&gt;Node6</title>
<path fill="none" stroke="midnightblue" d="M238.236,-57.3923C241.035,-56.912 243.812,-56.4437 246.51,-56 342.286,-40.2483 455.552,-24.0083 512.292,-16.0367"/>
<polygon fill="midnightblue" stroke="midnightblue" points="512.794,-19.5006 522.211,-14.6464 511.822,-12.5683 512.794,-19.5006"/>
</g>
<!-- Node11&#45;&gt;Node7 -->
<g id="edge20" class="edge"><title>Node11&#45;&gt;Node7</title>
<path fill="none" stroke="midnightblue" d="M225.349,-56.4435C258.867,-46.4985 313.938,-30.1587 348.11,-20.02"/>
<polygon fill="midnightblue" stroke="midnightblue" points="349.405,-23.2864 357.997,-17.0865 347.414,-16.5756 349.405,-23.2864"/>
</g>
<!-- Node11&#45;&gt;Node8 -->
<g id="edge21" class="edge"><title>Node11&#45;&gt;Node8</title>
<path fill="none" stroke="midnightblue" d="M190.731,-56.083C185.838,-48.5341 178.683,-37.4948 172.678,-28.2298"/>
<polygon fill="midnightblue" stroke="midnightblue" points="175.558,-26.239 167.182,-19.7511 169.684,-30.0463 175.558,-26.239"/>
</g>
<!-- Node12&#45;&gt;Node6 -->
<g id="edge23" class="edge"><title>Node12&#45;&gt;Node6</title>
<path fill="none" stroke="midnightblue" d="M624.05,-56.324C610.011,-47.9002 588.462,-34.9709 571.967,-25.0741"/>
<polygon fill="midnightblue" stroke="midnightblue" points="573.31,-21.7983 562.935,-19.6545 569.709,-27.8007 573.31,-21.7983"/>
</g>
<!-- Node12&#45;&gt;Node7 -->
<g id="edge25" class="edge"><title>Node12&#45;&gt;Node7</title>
<path fill="none" stroke="midnightblue" d="M617.673,-60.6722C571.92,-51.1697 462.501,-28.4443 409.004,-17.3334"/>
<polygon fill="midnightblue" stroke="midnightblue" points="409.589,-13.8802 399.086,-15.2734 408.165,-20.7339 409.589,-13.8802"/>
</g>
<!-- Node13 -->
<g id="node13" class="node"><title>Node13</title>
<polygon fill="none" stroke="#bfbfbf" points="650.51,-0.5 650.51,-19.5 702.51,-19.5 702.51,-0.5 650.51,-0.5"/>
<text text-anchor="middle" x="676.51" y="-7.5" font-family="Helvetica,sans-Serif" font-size="10.00">sstream</text>
</g>
<!-- Node12&#45;&gt;Node13 -->
<g id="edge24" class="edge"><title>Node12&#45;&gt;Node13</title>
<path fill="none" stroke="midnightblue" d="M644.785,-56.083C650.153,-48.4554 658.028,-37.2645 664.589,-27.9408"/>
<polygon fill="midnightblue" stroke="midnightblue" points="667.46,-29.9434 670.352,-19.7511 661.735,-25.9149 667.46,-29.9434"/>
</g>
<!-- Node14&#45;&gt;Node7 -->
<g id="edge27" class="edge"><title>Node14&#45;&gt;Node7</title>
<path fill="none" stroke="midnightblue" d="M98.728,-58.9627C160.845,-48.3141 288.857,-26.3692 347.696,-16.2824"/>
<polygon fill="midnightblue" stroke="midnightblue" points="348.582,-19.6818 357.847,-14.5424 347.399,-12.7824 348.582,-19.6818"/>
</g>
<!-- Node14&#45;&gt;Node8 -->
<g id="edge28" class="edge"><title>Node14&#45;&gt;Node8</title>
<path fill="none" stroke="midnightblue" d="M79.2558,-56.324C94.829,-47.7428 118.888,-34.486 136.97,-24.5224"/>
<polygon fill="midnightblue" stroke="midnightblue" points="138.735,-27.546 145.804,-19.6545 135.357,-21.4152 138.735,-27.546"/>
</g>
<!-- Node15&#45;&gt;Node6 -->
<g id="edge31" class="edge"><title>Node15&#45;&gt;Node6</title>
<path fill="none" stroke="midnightblue" d="M726.901,-56.4842C693.309,-47.9664 639.911,-34.4095 584.819,-20.3301"/>
<polygon fill="midnightblue" stroke="midnightblue" points="585.437,-16.8755 574.882,-17.7894 583.703,-23.6573 585.437,-16.8755"/>
</g>
<!-- Node15&#45;&gt;Node7 -->
<g id="edge32" class="edge"><title>Node15&#45;&gt;Node7</title>
<path fill="none" stroke="midnightblue" d="M715.943,-58.6998C637.479,-47.6082 476.621,-24.869 409.255,-15.3461"/>
<polygon fill="midnightblue" stroke="midnightblue" points="409.664,-11.8693 399.273,-13.935 408.685,-18.8003 409.664,-11.8693"/>
</g>
<!-- Node15&#45;&gt;Node10 -->
<g id="edge34" class="edge"><title>Node15&#45;&gt;Node10</title>
<path fill="none" stroke="midnightblue" d="M737.059,-56.4435C711.361,-47.0673 670.085,-32.0068 642.16,-21.818"/>
<polygon fill="midnightblue" stroke="midnightblue" points="643.123,-18.4439 632.529,-18.3042 640.724,-25.0198 643.123,-18.4439"/>
</g>
<!-- Node16 -->
<g id="node16" class="node"><title>Node16</title>
<polygon fill="none" stroke="#bfbfbf" points="721.01,-0.5 721.01,-19.5 804.01,-19.5 804.01,-0.5 721.01,-0.5"/>
<text text-anchor="middle" x="762.51" y="-7.5" font-family="Helvetica,sans-Serif" font-size="10.00">unordered_map</text>
</g>
<!-- Node15&#45;&gt;Node16 -->
<g id="edge33" class="edge"><title>Node15&#45;&gt;Node16</title>
<path fill="none" stroke="midnightblue" d="M760.841,-56.083C761.103,-49.0059 761.478,-38.8611 761.807,-29.9865"/>
<polygon fill="midnightblue" stroke="midnightblue" points="765.314,-29.8738 762.186,-19.7511 758.318,-29.6147 765.314,-29.8738"/>
</g>
<!-- Node17&#45;&gt;Node6 -->
<g id="edge36" class="edge"><title>Node17&#45;&gt;Node6</title>
<path fill="none" stroke="midnightblue" d="M693.328,-168.489C694.916,-146.918 696.057,-89.448 667.51,-56 656.431,-43.0189 615.367,-29.3126 584.554,-20.4865"/>
<polygon fill="midnightblue" stroke="midnightblue" points="585.129,-17.0131 574.556,-17.6886 583.243,-23.7541 585.129,-17.0131"/>
</g>
</g>
</svg>
