<?xml version="1.0" encoding="UTF-8" standalone="no"?>
<!DOCTYPE svg PUBLIC "-//W3C//DTD SVG 1.1//EN"
 "http://www.w3.org/Graphics/SVG/1.1/DTD/svg11.dtd">
<!-- Generated by graphviz version 2.36.0 (20140111.2315)
 -->
<!-- Title: /home/travis/build/robotology/wb&#45;toolbox/toolbox/src/InverseKinematics.cpp Pages: 1 -->
<svg width="2166pt" height="174pt"
 viewBox="0.00 0.00 2166.00 174.00" xmlns="http://www.w3.org/2000/svg" xmlns:xlink="http://www.w3.org/1999/xlink">
<g id="graph0" class="graph" transform="scale(1 1) rotate(0) translate(4 170)">
<title>/home/travis/build/robotology/wb&#45;toolbox/toolbox/src/InverseKinematics.cpp</title>
<!-- Node1 -->
<g id="node1" class="node"><title>Node1</title>
<polygon fill="#bfbfbf" stroke="black" points="946,-124.5 946,-165.5 1116,-165.5 1116,-124.5 946,-124.5"/>
<text text-anchor="start" x="954" y="-153.5" font-family="Helvetica,sans-Serif" font-size="10.00">/home/travis/build</text>
<text text-anchor="start" x="954" y="-142.5" font-family="Helvetica,sans-Serif" font-size="10.00">/robotology/wb&#45;toolbox</text>
<text text-anchor="middle" x="1031" y="-131.5" font-family="Helvetica,sans-Serif" font-size="10.00">/toolbox/src/InverseKinematics.cpp</text>
</g>
<!-- Node2 -->
<g id="node2" class="node"><title>Node2</title>
<g id="a_node2"><a xlink:href="_inverse_kinematics_8h.html" target="_top" xlink:title="InverseKinematics.h">
<polygon fill="none" stroke="black" points="19,-62.5 19,-81.5 125,-81.5 125,-62.5 19,-62.5"/>
<text text-anchor="middle" x="72" y="-69.5" font-family="Helvetica,sans-Serif" font-size="10.00">InverseKinematics.h</text>
</a>
</g>
</g>
<!-- Node1&#45;&gt;Node2 -->
<g id="edge1" class="edge"><title>Node1&#45;&gt;Node2</title>
<path fill="none" stroke="midnightblue" d="M945.937,-141.548C789.629,-136.374 446.376,-121.904 159,-88 148.388,-86.748 137.103,-85.0654 126.299,-83.2796"/>
<polygon fill="midnightblue" stroke="midnightblue" points="126.572,-79.7757 116.126,-81.5466 125.396,-86.6763 126.572,-79.7757"/>
</g>
<!-- Node4 -->
<g id="node4" class="node"><title>Node4</title>
<g id="a_node4"><a xlink:href="_block_information_8h.html" target="_top" xlink:title="BlockInformation.h">
<polygon fill="none" stroke="black" points="168,-62.5 168,-81.5 266,-81.5 266,-62.5 168,-62.5"/>
<text text-anchor="middle" x="217" y="-69.5" font-family="Helvetica,sans-Serif" font-size="10.00">BlockInformation.h</text>
</a>
</g>
</g>
<!-- Node1&#45;&gt;Node4 -->
<g id="edge3" class="edge"><title>Node1&#45;&gt;Node4</title>
<path fill="none" stroke="midnightblue" d="M945.947,-142.653C805.395,-139.323 516.204,-127.794 275,-88 268.67,-86.9556 262.022,-85.5436 255.578,-84.0017"/>
<polygon fill="midnightblue" stroke="midnightblue" points="256.247,-80.5607 245.694,-81.5061 254.533,-87.3477 256.247,-80.5607"/>
</g>
<!-- Node10 -->
<g id="node10" class="node"><title>Node10</title>
<polygon fill="none" stroke="#bfbfbf" points="284,-62.5 284,-81.5 330,-81.5 330,-62.5 284,-62.5"/>
<text text-anchor="middle" x="307" y="-69.5" font-family="Helvetica,sans-Serif" font-size="10.00">Error.h</text>
</g>
<!-- Node1&#45;&gt;Node10 -->
<g id="edge9" class="edge"><title>Node1&#45;&gt;Node10</title>
<path fill="none" stroke="midnightblue" d="M945.707,-140.893C786.775,-134.478 451.272,-117.812 339,-88 336.648,-87.3756 334.257,-86.5846 331.896,-85.6938"/>
<polygon fill="midnightblue" stroke="midnightblue" points="333.096,-82.3995 322.528,-81.6398 330.316,-88.8237 333.096,-82.3995"/>
</g>
<!-- Node11 -->
<g id="node11" class="node"><title>Node11</title>
<g id="a_node11"><a xlink:href="_signal_8h.html" target="_top" xlink:title="Signal.h">
<polygon fill="none" stroke="black" points="348,-62.5 348,-81.5 400,-81.5 400,-62.5 348,-62.5"/>
<text text-anchor="middle" x="374" y="-69.5" font-family="Helvetica,sans-Serif" font-size="10.00">Signal.h</text>
</a>
</g>
</g>
<!-- Node1&#45;&gt;Node11 -->
<g id="edge10" class="edge"><title>Node1&#45;&gt;Node11</title>
<path fill="none" stroke="midnightblue" d="M945.837,-144.736C824.697,-143.903 596.514,-135.349 409,-88 406.176,-87.2868 403.287,-86.3748 400.439,-85.3535"/>
<polygon fill="midnightblue" stroke="midnightblue" points="401.654,-82.0698 391.07,-81.5902 399.045,-88.5654 401.654,-82.0698"/>
</g>
<!-- Node12 -->
<g id="node12" class="node"><title>Node12</title>
<polygon fill="none" stroke="#bfbfbf" points="418,-62.5 418,-81.5 498,-81.5 498,-62.5 418,-62.5"/>
<text text-anchor="middle" x="458" y="-69.5" font-family="Helvetica,sans-Serif" font-size="10.00">WBInterface.h</text>
</g>
<!-- Node1&#45;&gt;Node12 -->
<g id="edge12" class="edge"><title>Node1&#45;&gt;Node12</title>
<path fill="none" stroke="midnightblue" d="M945.568,-139.708C841.406,-133.364 660.398,-118.744 508,-88 503.147,-87.021 498.089,-85.7769 493.134,-84.4253"/>
<polygon fill="midnightblue" stroke="midnightblue" points="493.785,-80.9702 483.206,-81.5506 491.838,-87.694 493.785,-80.9702"/>
</g>
<!-- Node13 -->
<g id="node13" class="node"><title>Node13</title>
<polygon fill="none" stroke="#bfbfbf" points="516.5,-62.5 516.5,-81.5 581.5,-81.5 581.5,-62.5 516.5,-62.5"/>
<text text-anchor="middle" x="549" y="-69.5" font-family="Helvetica,sans-Serif" font-size="10.00">Eigen/Core</text>
</g>
<!-- Node1&#45;&gt;Node13 -->
<g id="edge13" class="edge"><title>Node1&#45;&gt;Node13</title>
<path fill="none" stroke="midnightblue" d="M945.668,-138.633C856.297,-131.739 712.325,-117.023 591,-88 587.32,-87.1196 583.514,-86.0286 579.764,-84.8395"/>
<polygon fill="midnightblue" stroke="midnightblue" points="580.691,-81.4576 570.096,-81.5402 578.43,-88.0824 580.691,-81.4576"/>
</g>
<!-- Node14 -->
<g id="node14" class="node"><title>Node14</title>
<polygon fill="none" stroke="#bfbfbf" points="599.5,-62.5 599.5,-81.5 702.5,-81.5 702.5,-62.5 599.5,-62.5"/>
<text text-anchor="middle" x="651" y="-69.5" font-family="Helvetica,sans-Serif" font-size="10.00">iCub/iKin/iKinFwd.h</text>
</g>
<!-- Node1&#45;&gt;Node14 -->
<g id="edge14" class="edge"><title>Node1&#45;&gt;Node14</title>
<path fill="none" stroke="midnightblue" d="M945.738,-130.634C881.315,-120.148 790.821,-104.59 712,-88 706.12,-86.7625 699.946,-85.3629 693.877,-83.9283"/>
<polygon fill="midnightblue" stroke="midnightblue" points="694.373,-80.4477 683.831,-81.5034 692.731,-87.2523 694.373,-80.4477"/>
</g>
<!-- Node15 -->
<g id="node15" class="node"><title>Node15</title>
<polygon fill="none" stroke="#bfbfbf" points="721,-62.5 721,-81.5 829,-81.5 829,-62.5 721,-62.5"/>
<text text-anchor="middle" x="775" y="-69.5" font-family="Helvetica,sans-Serif" font-size="10.00">iCub/iKin/iKinIpOpt.h</text>
</g>
<!-- Node1&#45;&gt;Node15 -->
<g id="edge15" class="edge"><title>Node1&#45;&gt;Node15</title>
<path fill="none" stroke="midnightblue" d="M960.369,-124.411C913.77,-111.487 854.381,-95.0159 815.556,-84.248"/>
<polygon fill="midnightblue" stroke="midnightblue" points="816.236,-80.8044 805.664,-81.5045 814.365,-87.5498 816.236,-80.8044"/>
</g>
<!-- Node16 -->
<g id="node16" class="node"><title>Node16</title>
<polygon fill="none" stroke="#bfbfbf" points="847.5,-62.5 847.5,-81.5 1026.5,-81.5 1026.5,-62.5 847.5,-62.5"/>
<text text-anchor="middle" x="937" y="-69.5" font-family="Helvetica,sans-Serif" font-size="10.00">iDynTree/Model/DenavitHartenberg.h</text>
</g>
<!-- Node1&#45;&gt;Node16 -->
<g id="edge16" class="edge"><title>Node1&#45;&gt;Node16</title>
<path fill="none" stroke="midnightblue" d="M1005.07,-124.411C989.764,-112.854 970.708,-98.4603 956.654,-87.8449"/>
<polygon fill="midnightblue" stroke="midnightblue" points="958.717,-85.0171 948.628,-81.7828 954.498,-90.6028 958.717,-85.0171"/>
</g>
<!-- Node17 -->
<g id="node17" class="node"><title>Node17</title>
<polygon fill="none" stroke="#bfbfbf" points="1044.5,-62.5 1044.5,-81.5 1207.5,-81.5 1207.5,-62.5 1044.5,-62.5"/>
<text text-anchor="middle" x="1126" y="-69.5" font-family="Helvetica,sans-Serif" font-size="10.00">iDynTree/ModelIO/ModelLoader.h</text>
</g>
<!-- Node1&#45;&gt;Node17 -->
<g id="edge17" class="edge"><title>Node1&#45;&gt;Node17</title>
<path fill="none" stroke="midnightblue" d="M1057.21,-124.411C1072.67,-112.854 1091.93,-98.4603 1106.14,-87.8449"/>
<polygon fill="midnightblue" stroke="midnightblue" points="1108.33,-90.5729 1114.25,-81.7828 1104.14,-84.9658 1108.33,-90.5729"/>
</g>
<!-- Node18 -->
<g id="node18" class="node"><title>Node18</title>
<polygon fill="none" stroke="#bfbfbf" points="1225.5,-62.5 1225.5,-81.5 1364.5,-81.5 1364.5,-62.5 1225.5,-62.5"/>
<text text-anchor="middle" x="1295" y="-69.5" font-family="Helvetica,sans-Serif" font-size="10.00">iDynTree/iKinConversions.h</text>
</g>
<!-- Node1&#45;&gt;Node18 -->
<g id="edge18" class="edge"><title>Node1&#45;&gt;Node18</title>
<path fill="none" stroke="midnightblue" d="M1103.84,-124.411C1152.1,-111.432 1213.66,-94.8756 1253.69,-84.1108"/>
<polygon fill="midnightblue" stroke="midnightblue" points="1254.63,-87.4816 1263.38,-81.5045 1252.81,-80.7217 1254.63,-87.4816"/>
</g>
<!-- Node19 -->
<g id="node19" class="node"><title>Node19</title>
<polygon fill="none" stroke="#bfbfbf" points="1382.5,-62.5 1382.5,-81.5 1511.5,-81.5 1511.5,-62.5 1382.5,-62.5"/>
<text text-anchor="middle" x="1447" y="-69.5" font-family="Helvetica,sans-Serif" font-size="10.00">wbi/wholeBodyInterface.h</text>
</g>
<!-- Node1&#45;&gt;Node19 -->
<g id="edge19" class="edge"><title>Node1&#45;&gt;Node19</title>
<path fill="none" stroke="midnightblue" d="M1116.19,-130.965C1185.47,-120.143 1285.71,-103.988 1373,-88 1380.62,-86.6052 1388.66,-85.0555 1396.52,-83.4968"/>
<polygon fill="midnightblue" stroke="midnightblue" points="1397.22,-86.9253 1406.34,-81.5284 1395.85,-80.0618 1397.22,-86.9253"/>
</g>
<!-- Node20 -->
<g id="node20" class="node"><title>Node20</title>
<polygon fill="none" stroke="#bfbfbf" points="1529.5,-62.5 1529.5,-81.5 1658.5,-81.5 1658.5,-62.5 1529.5,-62.5"/>
<text text-anchor="middle" x="1594" y="-69.5" font-family="Helvetica,sans-Serif" font-size="10.00">yarp/os/ResourceFinder.h</text>
</g>
<!-- Node1&#45;&gt;Node20 -->
<g id="edge20" class="edge"><title>Node1&#45;&gt;Node20</title>
<path fill="none" stroke="midnightblue" d="M1116.11,-136.492C1213.9,-127.346 1379.05,-110.313 1520,-88 1528.1,-86.7177 1536.66,-85.1662 1544.97,-83.5538"/>
<polygon fill="midnightblue" stroke="midnightblue" points="1545.82,-86.9547 1554.94,-81.5708 1544.45,-80.0892 1545.82,-86.9547"/>
</g>
<!-- Node21 -->
<g id="node21" class="node"><title>Node21</title>
<polygon fill="none" stroke="#bfbfbf" points="1676.5,-62.5 1676.5,-81.5 1765.5,-81.5 1765.5,-62.5 1676.5,-62.5"/>
<text text-anchor="middle" x="1721" y="-69.5" font-family="Helvetica,sans-Serif" font-size="10.00">yarp/sig/Matrix.h</text>
</g>
<!-- Node1&#45;&gt;Node21 -->
<g id="edge21" class="edge"><title>Node1&#45;&gt;Node21</title>
<path fill="none" stroke="midnightblue" d="M1116.02,-141.457C1238.61,-136.675 1471.77,-123.401 1667,-88 1672.56,-86.9909 1678.39,-85.6668 1684.06,-84.2227"/>
<polygon fill="midnightblue" stroke="midnightblue" points="1685.29,-87.5176 1694.03,-81.5358 1683.46,-80.7587 1685.29,-87.5176"/>
</g>
<!-- Node22 -->
<g id="node22" class="node"><title>Node22</title>
<polygon fill="none" stroke="#bfbfbf" points="1783.5,-62.5 1783.5,-81.5 1874.5,-81.5 1874.5,-62.5 1783.5,-62.5"/>
<text text-anchor="middle" x="1829" y="-69.5" font-family="Helvetica,sans-Serif" font-size="10.00">yarp/sig/Vector.h</text>
</g>
<!-- Node1&#45;&gt;Node22 -->
<g id="edge22" class="edge"><title>Node1&#45;&gt;Node22</title>
<path fill="none" stroke="midnightblue" d="M1116.05,-142.856C1254.78,-139.815 1538.01,-128.69 1774,-88 1779.87,-86.9873 1786.03,-85.6211 1792,-84.1236"/>
<polygon fill="midnightblue" stroke="midnightblue" points="1793.05,-87.4678 1801.81,-81.5189 1791.25,-80.7021 1793.05,-87.4678"/>
</g>
<!-- Node23 -->
<g id="node23" class="node"><title>Node23</title>
<polygon fill="none" stroke="#bfbfbf" points="1893,-57 1893,-87 2017,-87 2017,-57 1893,-57"/>
<text text-anchor="start" x="1901" y="-75" font-family="Helvetica,sans-Serif" font-size="10.00">yarpWholeBodyInterface</text>
<text text-anchor="middle" x="1955" y="-64" font-family="Helvetica,sans-Serif" font-size="10.00">/yarpWbiUtil.h</text>
</g>
<!-- Node1&#45;&gt;Node23 -->
<g id="edge23" class="edge"><title>Node1&#45;&gt;Node23</title>
<path fill="none" stroke="midnightblue" d="M1116.04,-142.34C1267.99,-138.512 1596.13,-126.34 1882.48,-87.9231"/>
<polygon fill="midnightblue" stroke="midnightblue" points="1883.21,-91.3564 1892.65,-86.5454 1882.27,-84.4198 1883.21,-91.3564"/>
</g>
<!-- Node24 -->
<g id="node24" class="node"><title>Node24</title>
<polygon fill="none" stroke="#bfbfbf" points="2035,-62.5 2035,-81.5 2089,-81.5 2089,-62.5 2035,-62.5"/>
<text text-anchor="middle" x="2062" y="-69.5" font-family="Helvetica,sans-Serif" font-size="10.00">iostream</text>
</g>
<!-- Node1&#45;&gt;Node24 -->
<g id="edge24" class="edge"><title>Node1&#45;&gt;Node24</title>
<path fill="none" stroke="midnightblue" d="M1116.08,-142.785C1323.92,-139.241 1852.98,-126.597 2025,-88 2028.25,-87.2716 2031.58,-86.289 2034.84,-85.1732"/>
<polygon fill="midnightblue" stroke="midnightblue" points="2036.23,-88.391 2044.32,-81.5467 2033.73,-81.8537 2036.23,-88.391"/>
</g>
<!-- Node25 -->
<g id="node25" class="node"><title>Node25</title>
<polygon fill="none" stroke="#bfbfbf" points="2107.5,-62.5 2107.5,-81.5 2158.5,-81.5 2158.5,-62.5 2107.5,-62.5"/>
<text text-anchor="middle" x="2133" y="-69.5" font-family="Helvetica,sans-Serif" font-size="10.00">typeinfo</text>
</g>
<!-- Node1&#45;&gt;Node25 -->
<g id="edge25" class="edge"><title>Node1&#45;&gt;Node25</title>
<path fill="none" stroke="midnightblue" d="M1116.31,-143.378C1335.1,-141.167 1912.02,-131.283 2098,-88 2100.9,-87.3257 2103.86,-86.4249 2106.77,-85.3982"/>
<polygon fill="midnightblue" stroke="midnightblue" points="2108.34,-88.5394 2116.32,-81.5681 2105.73,-82.0425 2108.34,-88.5394"/>
</g>
<!-- Node3 -->
<g id="node3" class="node"><title>Node3</title>
<polygon fill="none" stroke="#bfbfbf" points="-0.5,-0.5 -0.5,-19.5 94.5,-19.5 94.5,-0.5 -0.5,-0.5"/>
<text text-anchor="middle" x="47" y="-7.5" font-family="Helvetica,sans-Serif" font-size="10.00">WBIModelBlock.h</text>
</g>
<!-- Node2&#45;&gt;Node3 -->
<g id="edge2" class="edge"><title>Node2&#45;&gt;Node3</title>
<path fill="none" stroke="midnightblue" d="M68.4181,-62.4035C64.8166,-53.7599 59.1542,-40.17 54.5559,-29.1341"/>
<polygon fill="midnightblue" stroke="midnightblue" points="57.6522,-27.4652 50.5752,-19.5806 51.1907,-30.1575 57.6522,-27.4652"/>
</g>
<!-- Node5 -->
<g id="node5" class="node"><title>Node5</title>
<polygon fill="none" stroke="#bfbfbf" points="348,-0.5 348,-19.5 400,-19.5 400,-0.5 348,-0.5"/>
<text text-anchor="middle" x="374" y="-7.5" font-family="Helvetica,sans-Serif" font-size="10.00">memory</text>
</g>
<!-- Node4&#45;&gt;Node5 -->
<g id="edge4" class="edge"><title>Node4&#45;&gt;Node5</title>
<path fill="none" stroke="midnightblue" d="M239.494,-62.4035C266.309,-52.1559 311.315,-34.9561 341.809,-23.3021"/>
<polygon fill="midnightblue" stroke="midnightblue" points="343.456,-26.4199 351.547,-19.5806 340.957,-19.8811 343.456,-26.4199"/>
</g>
<!-- Node6 -->
<g id="node6" class="node"><title>Node6</title>
<polygon fill="none" stroke="#bfbfbf" points="112.5,-0.5 112.5,-19.5 153.5,-19.5 153.5,-0.5 112.5,-0.5"/>
<text text-anchor="middle" x="133" y="-7.5" font-family="Helvetica,sans-Serif" font-size="10.00">string</text>
</g>
<!-- Node4&#45;&gt;Node6 -->
<g id="edge5" class="edge"><title>Node4&#45;&gt;Node6</title>
<path fill="none" stroke="midnightblue" d="M204.965,-62.4035C191.492,-52.7797 169.434,-37.0242 153.285,-25.4891"/>
<polygon fill="midnightblue" stroke="midnightblue" points="155.185,-22.5449 145.013,-19.5806 151.116,-28.2411 155.185,-22.5449"/>
</g>
<!-- Node7 -->
<g id="node7" class="node"><title>Node7</title>
<polygon fill="none" stroke="#bfbfbf" points="172,-0.5 172,-19.5 210,-19.5 210,-0.5 172,-0.5"/>
<text text-anchor="middle" x="191" y="-7.5" font-family="Helvetica,sans-Serif" font-size="10.00">tuple</text>
</g>
<!-- Node4&#45;&gt;Node7 -->
<g id="edge6" class="edge"><title>Node4&#45;&gt;Node7</title>
<path fill="none" stroke="midnightblue" d="M213.275,-62.4035C209.491,-53.6707 203.519,-39.8893 198.711,-28.7936"/>
<polygon fill="midnightblue" stroke="midnightblue" points="201.906,-27.3645 194.718,-19.5806 195.483,-30.1478 201.906,-27.3645"/>
</g>
<!-- Node8 -->
<g id="node8" class="node"><title>Node8</title>
<polygon fill="none" stroke="#bfbfbf" points="228,-0.5 228,-19.5 268,-19.5 268,-0.5 228,-0.5"/>
<text text-anchor="middle" x="248" y="-7.5" font-family="Helvetica,sans-Serif" font-size="10.00">utility</text>
</g>
<!-- Node4&#45;&gt;Node8 -->
<g id="edge7" class="edge"><title>Node4&#45;&gt;Node8</title>
<path fill="none" stroke="midnightblue" d="M221.442,-62.4035C225.953,-53.6707 233.074,-39.8893 238.807,-28.7936"/>
<polygon fill="midnightblue" stroke="midnightblue" points="242.086,-30.0714 243.567,-19.5806 235.867,-26.8583 242.086,-30.0714"/>
</g>
<!-- Node9 -->
<g id="node9" class="node"><title>Node9</title>
<polygon fill="none" stroke="#bfbfbf" points="286,-0.5 286,-19.5 330,-19.5 330,-0.5 286,-0.5"/>
<text text-anchor="middle" x="308" y="-7.5" font-family="Helvetica,sans-Serif" font-size="10.00">vector</text>
</g>
<!-- Node4&#45;&gt;Node9 -->
<g id="edge8" class="edge"><title>Node4&#45;&gt;Node9</title>
<path fill="none" stroke="midnightblue" d="M230.038,-62.4035C244.769,-52.6905 268.973,-36.7319 286.509,-25.1697"/>
<polygon fill="midnightblue" stroke="midnightblue" points="288.564,-28.0072 294.986,-19.5806 284.711,-22.1632 288.564,-28.0072"/>
</g>
<!-- Node11&#45;&gt;Node5 -->
<g id="edge11" class="edge"><title>Node11&#45;&gt;Node5</title>
<path fill="none" stroke="midnightblue" d="M374,-62.4035C374,-53.9381 374,-40.7283 374,-29.8199"/>
<polygon fill="midnightblue" stroke="midnightblue" points="377.5,-29.5806 374,-19.5806 370.5,-29.5806 377.5,-29.5806"/>
</g>
</g>
</svg>
