<?xml version="1.0" encoding="UTF-8" standalone="no"?>
<!DOCTYPE svg PUBLIC "-//W3C//DTD SVG 1.1//EN"
 "http://www.w3.org/Graphics/SVG/1.1/DTD/svg11.dtd">
<!-- Generated by graphviz version 2.36.0 (20140111.2315)
 -->
<!-- Title: /home/travis/build/robotology/wb&#45;toolbox/toolbox/src/library/src/InverseKinematics.cpp Pages: 1 -->
<!--zoomable 186 -->
<svg id="main" version="1.1" xmlns="http://www.w3.org/2000/svg" xmlns:xlink="http://www.w3.org/1999/xlink" xml:space="preserve" onload="init(evt)">
<style type="text/css"><![CDATA[
.edge:hover path { stroke: red; }
.edge:hover polygon { stroke: red; fill: red; }
]]></style>
<script type="text/javascript"><![CDATA[
var edges = document.getElementsByTagName('g');
if (edges && edges.length) {
  for (var i=0;i<edges.length;i++) {
    if (edges[i].id.substr(0,4)=='edge') {
      edges[i].setAttribute('class','edge');
    }
  }
}
]]></script>
        <defs>
                <circle id="rim" cx="0" cy="0" r="7"/>
                <circle id="rim2" cx="0" cy="0" r="3.5"/>
                <g id="zoomPlus">
                        <use xlink:href="#rim" fill="#404040">
                                <set attributeName="fill" to="#808080" begin="zoomplus.mouseover" end="zoomplus.mouseout"/>
                        </use>
                        <path d="M-4,0h8M0,-4v8" fill="none" stroke="white" stroke-width="1.5" pointer-events="none"/>
                </g>
                <g id="zoomMin">
                        <use xlink:href="#rim" fill="#404040">
                                <set attributeName="fill" to="#808080" begin="zoomminus.mouseover" end="zoomminus.mouseout"/>
                        </use>
                        <path d="M-4,0h8" fill="none" stroke="white" stroke-width="1.5" pointer-events="none"/>
                </g>
                <g id="dirArrow">
                        <path fill="none" stroke="white" stroke-width="1.5" d="M0,-3.0v7 M-2.5,-0.5L0,-3.0L2.5,-0.5"/>
                </g>
               <g id="resetDef">
                       <use xlink:href="#rim2" fill="#404040">
                               <set attributeName="fill" to="#808080" begin="reset.mouseover" end="reset.mouseout"/>
                       </use>
               </g>
        </defs>

<script type="text/javascript">
var viewWidth = 2166;
var viewHeight = 186;
var sectionId = 'dynsection-0';
</script>
<script xlink:href="svgpan.js"/>
<svg id="graph" class="graph">
<g id="viewport">
<title>/home/travis/build/robotology/wb&#45;toolbox/toolbox/src/library/src/InverseKinematics.cpp</title>
<!-- Node1 -->
<g id="node1" class="node"><title>Node1</title>
<polygon fill="#bfbfbf" stroke="black" points="971.5,-125 971.5,-177 1090.5,-177 1090.5,-125 971.5,-125"/>
<text text-anchor="start" x="979.5" y="-165" font-family="Helvetica,sans-Serif" font-size="10.00">/home/travis/build</text>
<text text-anchor="start" x="979.5" y="-154" font-family="Helvetica,sans-Serif" font-size="10.00">/robotology/wb&#45;toolbox</text>
<text text-anchor="start" x="979.5" y="-143" font-family="Helvetica,sans-Serif" font-size="10.00">/toolbox/src/library/src</text>
<text text-anchor="middle" x="1031" y="-132" font-family="Helvetica,sans-Serif" font-size="10.00">/InverseKinematics.cpp</text>
</g>
<!-- Node2 -->
<g id="node2" class="node"><title>Node2</title>
<g id="a_node2"><a xlink:href="_inverse_kinematics_8h.html" target="_top" xlink:title="InverseKinematics.h">
<polygon fill="none" stroke="black" points="19,-62.5 19,-81.5 125,-81.5 125,-62.5 19,-62.5"/>
<text text-anchor="middle" x="72" y="-69.5" font-family="Helvetica,sans-Serif" font-size="10.00">InverseKinematics.h</text>
</a>
</g>
</g>
<!-- Node1&#45;&gt;Node2 -->
<g id="edge1" class="edge"><title>Node1&#45;&gt;Node2</title>
<path fill="none" stroke="midnightblue" d="M971.333,-147.811C829.864,-142.175 463.153,-124.939 159,-88 148.507,-86.7257 137.355,-85.0494 126.659,-83.2803"/>
<polygon fill="midnightblue" stroke="midnightblue" points="127.026,-79.7925 116.58,-81.5657 125.852,-86.6934 127.026,-79.7925"/>
</g>
<!-- Node4 -->
<g id="node4" class="node"><title>Node4</title>
<g id="a_node4"><a xlink:href="_block_information_8h.html" target="_top" xlink:title="BlockInformation.h">
<polygon fill="none" stroke="black" points="168,-62.5 168,-81.5 266,-81.5 266,-62.5 168,-62.5"/>
<text text-anchor="middle" x="217" y="-69.5" font-family="Helvetica,sans-Serif" font-size="10.00">BlockInformation.h</text>
</a>
</g>
</g>
<!-- Node1&#45;&gt;Node4 -->
<g id="edge3" class="edge"><title>Node1&#45;&gt;Node4</title>
<path fill="none" stroke="midnightblue" d="M971.272,-148.572C842.955,-144.747 531.776,-131.404 275,-88 268.741,-86.942 262.17,-85.536 255.791,-84.0079"/>
<polygon fill="midnightblue" stroke="midnightblue" points="256.551,-80.5899 245.998,-81.5388 254.839,-87.3775 256.551,-80.5899"/>
</g>
<!-- Node10 -->
<g id="node10" class="node"><title>Node10</title>
<polygon fill="none" stroke="#bfbfbf" points="284,-62.5 284,-81.5 330,-81.5 330,-62.5 284,-62.5"/>
<text text-anchor="middle" x="307" y="-69.5" font-family="Helvetica,sans-Serif" font-size="10.00">Error.h</text>
</g>
<!-- Node1&#45;&gt;Node10 -->
<g id="edge9" class="edge"><title>Node1&#45;&gt;Node10</title>
<path fill="none" stroke="midnightblue" d="M971.379,-147.324C826.227,-140.381 457.702,-120.067 339,-88 336.651,-87.3654 334.262,-86.5675 331.902,-85.6721"/>
<polygon fill="midnightblue" stroke="midnightblue" points="333.103,-82.3783 322.536,-81.611 330.318,-88.8005 333.103,-82.3783"/>
</g>
<!-- Node11 -->
<g id="node11" class="node"><title>Node11</title>
<g id="a_node11"><a xlink:href="_signal_8h.html" target="_top" xlink:title="Signal.h">
<polygon fill="none" stroke="black" points="348,-62.5 348,-81.5 400,-81.5 400,-62.5 348,-62.5"/>
<text text-anchor="middle" x="374" y="-69.5" font-family="Helvetica,sans-Serif" font-size="10.00">Signal.h</text>
</a>
</g>
</g>
<!-- Node1&#45;&gt;Node11 -->
<g id="edge10" class="edge"><title>Node1&#45;&gt;Node11</title>
<path fill="none" stroke="midnightblue" d="M971.207,-150.054C859.113,-148.84 610.511,-139.91 409,-88 406.179,-87.2733 403.292,-86.3525 400.446,-85.3257"/>
<polygon fill="midnightblue" stroke="midnightblue" points="401.663,-82.0426 391.079,-81.5557 399.049,-88.5364 401.663,-82.0426"/>
</g>
<!-- Node12 -->
<g id="node12" class="node"><title>Node12</title>
<polygon fill="none" stroke="#bfbfbf" points="418,-62.5 418,-81.5 498,-81.5 498,-62.5 418,-62.5"/>
<text text-anchor="middle" x="458" y="-69.5" font-family="Helvetica,sans-Serif" font-size="10.00">WBInterface.h</text>
</g>
<!-- Node1&#45;&gt;Node12 -->
<g id="edge12" class="edge"><title>Node1&#45;&gt;Node12</title>
<path fill="none" stroke="midnightblue" d="M971.242,-146.301C873.534,-139.5 673.845,-122.435 508,-88 503.206,-87.0045 498.208,-85.761 493.306,-84.4186"/>
<polygon fill="midnightblue" stroke="midnightblue" points="494.053,-80.9914 483.475,-81.5719 492.106,-87.7152 494.053,-80.9914"/>
</g>
<!-- Node13 -->
<g id="node13" class="node"><title>Node13</title>
<polygon fill="none" stroke="#bfbfbf" points="516.5,-62.5 516.5,-81.5 581.5,-81.5 581.5,-62.5 516.5,-62.5"/>
<text text-anchor="middle" x="549" y="-69.5" font-family="Helvetica,sans-Serif" font-size="10.00">Eigen/Core</text>
</g>
<!-- Node1&#45;&gt;Node13 -->
<g id="edge13" class="edge"><title>Node1&#45;&gt;Node13</title>
<path fill="none" stroke="midnightblue" d="M971.202,-145.449C885.873,-138.083 724.705,-120.933 591,-88 587.405,-87.1146 583.689,-86.0367 580.02,-84.8691"/>
<polygon fill="midnightblue" stroke="midnightblue" points="581.136,-81.5518 570.542,-81.6394 578.879,-88.1777 581.136,-81.5518"/>
</g>
<!-- Node14 -->
<g id="node14" class="node"><title>Node14</title>
<polygon fill="none" stroke="#bfbfbf" points="599.5,-62.5 599.5,-81.5 702.5,-81.5 702.5,-62.5 599.5,-62.5"/>
<text text-anchor="middle" x="651" y="-69.5" font-family="Helvetica,sans-Serif" font-size="10.00">iCub/iKin/iKinFwd.h</text>
</g>
<!-- Node1&#45;&gt;Node14 -->
<g id="edge14" class="edge"><title>Node1&#45;&gt;Node14</title>
<path fill="none" stroke="midnightblue" d="M971.439,-139.328C907.225,-127.612 802.09,-107.819 712,-88 706.268,-86.7391 700.251,-85.3455 694.321,-83.9307"/>
<polygon fill="midnightblue" stroke="midnightblue" points="695.034,-80.5021 684.491,-81.5494 693.386,-87.3054 695.034,-80.5021"/>
</g>
<!-- Node15 -->
<g id="node15" class="node"><title>Node15</title>
<polygon fill="none" stroke="#bfbfbf" points="721,-62.5 721,-81.5 829,-81.5 829,-62.5 721,-62.5"/>
<text text-anchor="middle" x="775" y="-69.5" font-family="Helvetica,sans-Serif" font-size="10.00">iCub/iKin/iKinIpOpt.h</text>
</g>
<!-- Node1&#45;&gt;Node15 -->
<g id="edge15" class="edge"><title>Node1&#45;&gt;Node15</title>
<path fill="none" stroke="midnightblue" d="M971.302,-132.044C922.575,-117.388 855.171,-97.1139 813.37,-84.541"/>
<polygon fill="midnightblue" stroke="midnightblue" points="814.162,-81.1243 803.577,-81.5955 812.145,-87.8276 814.162,-81.1243"/>
</g>
<!-- Node16 -->
<g id="node16" class="node"><title>Node16</title>
<polygon fill="none" stroke="#bfbfbf" points="847.5,-62.5 847.5,-81.5 1026.5,-81.5 1026.5,-62.5 847.5,-62.5"/>
<text text-anchor="middle" x="937" y="-69.5" font-family="Helvetica,sans-Serif" font-size="10.00">iDynTree/Model/DenavitHartenberg.h</text>
</g>
<!-- Node1&#45;&gt;Node16 -->
<g id="edge16" class="edge"><title>Node1&#45;&gt;Node16</title>
<path fill="none" stroke="midnightblue" d="M1000.22,-124.787C985.429,-112.671 968.195,-98.5533 955.46,-88.1212"/>
<polygon fill="midnightblue" stroke="midnightblue" points="957.401,-85.187 947.447,-81.5577 952.965,-90.6022 957.401,-85.187"/>
</g>
<!-- Node17 -->
<g id="node17" class="node"><title>Node17</title>
<polygon fill="none" stroke="#bfbfbf" points="1044.5,-62.5 1044.5,-81.5 1207.5,-81.5 1207.5,-62.5 1044.5,-62.5"/>
<text text-anchor="middle" x="1126" y="-69.5" font-family="Helvetica,sans-Serif" font-size="10.00">iDynTree/ModelIO/ModelLoader.h</text>
</g>
<!-- Node1&#45;&gt;Node17 -->
<g id="edge17" class="edge"><title>Node1&#45;&gt;Node17</title>
<path fill="none" stroke="midnightblue" d="M1062.11,-124.787C1077.06,-112.671 1094.47,-98.5533 1107.34,-88.1212"/>
<polygon fill="midnightblue" stroke="midnightblue" points="1109.88,-90.5735 1115.44,-81.5577 1105.47,-85.1354 1109.88,-90.5735"/>
</g>
<!-- Node18 -->
<g id="node18" class="node"><title>Node18</title>
<polygon fill="none" stroke="#bfbfbf" points="1225.5,-62.5 1225.5,-81.5 1364.5,-81.5 1364.5,-62.5 1225.5,-62.5"/>
<text text-anchor="middle" x="1295" y="-69.5" font-family="Helvetica,sans-Serif" font-size="10.00">iDynTree/iKinConversions.h</text>
</g>
<!-- Node1&#45;&gt;Node18 -->
<g id="edge18" class="edge"><title>Node1&#45;&gt;Node18</title>
<path fill="none" stroke="midnightblue" d="M1090.58,-132.624C1141.23,-117.851 1212.48,-97.0674 1256.1,-84.3446"/>
<polygon fill="midnightblue" stroke="midnightblue" points="1257.15,-87.6849 1265.77,-81.5249 1255.19,-80.9649 1257.15,-87.6849"/>
</g>
<!-- Node19 -->
<g id="node19" class="node"><title>Node19</title>
<polygon fill="none" stroke="#bfbfbf" points="1382.5,-62.5 1382.5,-81.5 1511.5,-81.5 1511.5,-62.5 1382.5,-62.5"/>
<text text-anchor="middle" x="1447" y="-69.5" font-family="Helvetica,sans-Serif" font-size="10.00">wbi/wholeBodyInterface.h</text>
</g>
<!-- Node1&#45;&gt;Node19 -->
<g id="edge19" class="edge"><title>Node1&#45;&gt;Node19</title>
<path fill="none" stroke="midnightblue" d="M1090.69,-139.564C1158.99,-127.533 1274.18,-106.97 1373,-88 1380.34,-86.5909 1388.08,-85.0655 1395.68,-83.5454"/>
<polygon fill="midnightblue" stroke="midnightblue" points="1396.43,-86.9646 1405.54,-81.5603 1395.05,-80.1022 1396.43,-86.9646"/>
</g>
<!-- Node20 -->
<g id="node20" class="node"><title>Node20</title>
<polygon fill="none" stroke="#bfbfbf" points="1529.5,-62.5 1529.5,-81.5 1658.5,-81.5 1658.5,-62.5 1529.5,-62.5"/>
<text text-anchor="middle" x="1594" y="-69.5" font-family="Helvetica,sans-Serif" font-size="10.00">yarp/os/ResourceFinder.h</text>
</g>
<!-- Node1&#45;&gt;Node20 -->
<g id="edge20" class="edge"><title>Node1&#45;&gt;Node20</title>
<path fill="none" stroke="midnightblue" d="M1090.67,-143.872C1182.99,-134.067 1365.9,-113.352 1520,-88 1528,-86.6838 1536.45,-85.128 1544.68,-83.5253"/>
<polygon fill="midnightblue" stroke="midnightblue" points="1545.42,-86.946 1554.54,-81.5598 1544.05,-80.0808 1545.42,-86.946"/>
</g>
<!-- Node21 -->
<g id="node21" class="node"><title>Node21</title>
<polygon fill="none" stroke="#bfbfbf" points="1676.5,-62.5 1676.5,-81.5 1765.5,-81.5 1765.5,-62.5 1676.5,-62.5"/>
<text text-anchor="middle" x="1721" y="-69.5" font-family="Helvetica,sans-Serif" font-size="10.00">yarp/sig/Matrix.h</text>
</g>
<!-- Node1&#45;&gt;Node21 -->
<g id="edge21" class="edge"><title>Node1&#45;&gt;Node21</title>
<path fill="none" stroke="midnightblue" d="M1090.67,-147.643C1203.89,-142.408 1457.32,-127.036 1667,-88 1672.5,-86.976 1678.25,-85.6553 1683.87,-84.2228"/>
<polygon fill="midnightblue" stroke="midnightblue" points="1685,-87.5435 1693.74,-81.5635 1683.18,-80.7843 1685,-87.5435"/>
</g>
<!-- Node22 -->
<g id="node22" class="node"><title>Node22</title>
<polygon fill="none" stroke="#bfbfbf" points="1783.5,-62.5 1783.5,-81.5 1874.5,-81.5 1874.5,-62.5 1783.5,-62.5"/>
<text text-anchor="middle" x="1829" y="-69.5" font-family="Helvetica,sans-Serif" font-size="10.00">yarp/sig/Vector.h</text>
</g>
<!-- Node1&#45;&gt;Node22 -->
<g id="edge22" class="edge"><title>Node1&#45;&gt;Node22</title>
<path fill="none" stroke="midnightblue" d="M1090.71,-148.717C1217.49,-145.183 1522.57,-132.392 1774,-88 1779.81,-86.9748 1785.89,-85.6143 1791.81,-84.1302"/>
<polygon fill="midnightblue" stroke="midnightblue" points="1792.76,-87.499 1801.53,-81.5531 1790.96,-80.7327 1792.76,-87.499"/>
</g>
<!-- Node23 -->
<g id="node23" class="node"><title>Node23</title>
<polygon fill="none" stroke="#bfbfbf" points="1893,-57 1893,-87 2017,-87 2017,-57 1893,-57"/>
<text text-anchor="start" x="1901" y="-75" font-family="Helvetica,sans-Serif" font-size="10.00">yarpWholeBodyInterface</text>
<text text-anchor="middle" x="1955" y="-64" font-family="Helvetica,sans-Serif" font-size="10.00">/yarpWbiUtil.h</text>
</g>
<!-- Node1&#45;&gt;Node23 -->
<g id="edge23" class="edge"><title>Node1&#45;&gt;Node23</title>
<path fill="none" stroke="midnightblue" d="M1090.68,-148.381C1228.46,-144.056 1579.41,-129.687 1882.34,-87.951"/>
<polygon fill="midnightblue" stroke="midnightblue" points="1883.23,-91.3623 1892.65,-86.5183 1882.26,-84.4291 1883.23,-91.3623"/>
</g>
<!-- Node24 -->
<g id="node24" class="node"><title>Node24</title>
<polygon fill="none" stroke="#bfbfbf" points="2035,-62.5 2035,-81.5 2089,-81.5 2089,-62.5 2035,-62.5"/>
<text text-anchor="middle" x="2062" y="-69.5" font-family="Helvetica,sans-Serif" font-size="10.00">iostream</text>
</g>
<!-- Node1&#45;&gt;Node24 -->
<g id="edge24" class="edge"><title>Node1&#45;&gt;Node24</title>
<path fill="none" stroke="midnightblue" d="M1090.51,-148.798C1276.56,-144.646 1845.45,-128.855 2025,-88 2028.24,-87.2618 2031.57,-86.2731 2034.84,-85.1538"/>
<polygon fill="midnightblue" stroke="midnightblue" points="2036.23,-88.371 2044.31,-81.5238 2033.72,-81.8346 2036.23,-88.371"/>
</g>
<!-- Node25 -->
<g id="node25" class="node"><title>Node25</title>
<polygon fill="none" stroke="#bfbfbf" points="2107.5,-62.5 2107.5,-81.5 2158.5,-81.5 2158.5,-62.5 2107.5,-62.5"/>
<text text-anchor="middle" x="2133" y="-69.5" font-family="Helvetica,sans-Serif" font-size="10.00">typeinfo</text>
</g>
<!-- Node1&#45;&gt;Node25 -->
<g id="edge25" class="edge"><title>Node1&#45;&gt;Node25</title>
<path fill="none" stroke="midnightblue" d="M1090.76,-149.24C1286.1,-146.33 1904.3,-133.654 2098,-88 2100.9,-87.3175 2103.85,-86.4115 2106.77,-85.3816"/>
<polygon fill="midnightblue" stroke="midnightblue" points="2108.34,-88.522 2116.31,-81.5478 2105.73,-82.0262 2108.34,-88.522"/>
</g>
<!-- Node3 -->
<g id="node3" class="node"><title>Node3</title>
<polygon fill="none" stroke="#bfbfbf" points="-0.5,-0.5 -0.5,-19.5 94.5,-19.5 94.5,-0.5 -0.5,-0.5"/>
<text text-anchor="middle" x="47" y="-7.5" font-family="Helvetica,sans-Serif" font-size="10.00">WBIModelBlock.h</text>
</g>
<!-- Node2&#45;&gt;Node3 -->
<g id="edge2" class="edge"><title>Node2&#45;&gt;Node3</title>
<path fill="none" stroke="midnightblue" d="M68.4181,-62.4035C64.8166,-53.7599 59.1542,-40.17 54.5559,-29.1341"/>
<polygon fill="midnightblue" stroke="midnightblue" points="57.6522,-27.4652 50.5752,-19.5806 51.1907,-30.1575 57.6522,-27.4652"/>
</g>
<!-- Node5 -->
<g id="node5" class="node"><title>Node5</title>
<polygon fill="none" stroke="#bfbfbf" points="348,-0.5 348,-19.5 400,-19.5 400,-0.5 348,-0.5"/>
<text text-anchor="middle" x="374" y="-7.5" font-family="Helvetica,sans-Serif" font-size="10.00">memory</text>
</g>
<!-- Node4&#45;&gt;Node5 -->
<g id="edge4" class="edge"><title>Node4&#45;&gt;Node5</title>
<path fill="none" stroke="midnightblue" d="M239.494,-62.4035C266.309,-52.1559 311.315,-34.9561 341.809,-23.3021"/>
<polygon fill="midnightblue" stroke="midnightblue" points="343.456,-26.4199 351.547,-19.5806 340.957,-19.8811 343.456,-26.4199"/>
</g>
<!-- Node6 -->
<g id="node6" class="node"><title>Node6</title>
<polygon fill="none" stroke="#bfbfbf" points="112.5,-0.5 112.5,-19.5 153.5,-19.5 153.5,-0.5 112.5,-0.5"/>
<text text-anchor="middle" x="133" y="-7.5" font-family="Helvetica,sans-Serif" font-size="10.00">string</text>
</g>
<!-- Node4&#45;&gt;Node6 -->
<g id="edge5" class="edge"><title>Node4&#45;&gt;Node6</title>
<path fill="none" stroke="midnightblue" d="M204.965,-62.4035C191.492,-52.7797 169.434,-37.0242 153.285,-25.4891"/>
<polygon fill="midnightblue" stroke="midnightblue" points="155.185,-22.5449 145.013,-19.5806 151.116,-28.2411 155.185,-22.5449"/>
</g>
<!-- Node7 -->
<g id="node7" class="node"><title>Node7</title>
<polygon fill="none" stroke="#bfbfbf" points="172,-0.5 172,-19.5 210,-19.5 210,-0.5 172,-0.5"/>
<text text-anchor="middle" x="191" y="-7.5" font-family="Helvetica,sans-Serif" font-size="10.00">tuple</text>
</g>
<!-- Node4&#45;&gt;Node7 -->
<g id="edge6" class="edge"><title>Node4&#45;&gt;Node7</title>
<path fill="none" stroke="midnightblue" d="M213.275,-62.4035C209.491,-53.6707 203.519,-39.8893 198.711,-28.7936"/>
<polygon fill="midnightblue" stroke="midnightblue" points="201.906,-27.3645 194.718,-19.5806 195.483,-30.1478 201.906,-27.3645"/>
</g>
<!-- Node8 -->
<g id="node8" class="node"><title>Node8</title>
<polygon fill="none" stroke="#bfbfbf" points="228,-0.5 228,-19.5 268,-19.5 268,-0.5 228,-0.5"/>
<text text-anchor="middle" x="248" y="-7.5" font-family="Helvetica,sans-Serif" font-size="10.00">utility</text>
</g>
<!-- Node4&#45;&gt;Node8 -->
<g id="edge7" class="edge"><title>Node4&#45;&gt;Node8</title>
<path fill="none" stroke="midnightblue" d="M221.442,-62.4035C225.953,-53.6707 233.074,-39.8893 238.807,-28.7936"/>
<polygon fill="midnightblue" stroke="midnightblue" points="242.086,-30.0714 243.567,-19.5806 235.867,-26.8583 242.086,-30.0714"/>
</g>
<!-- Node9 -->
<g id="node9" class="node"><title>Node9</title>
<polygon fill="none" stroke="#bfbfbf" points="286,-0.5 286,-19.5 330,-19.5 330,-0.5 286,-0.5"/>
<text text-anchor="middle" x="308" y="-7.5" font-family="Helvetica,sans-Serif" font-size="10.00">vector</text>
</g>
<!-- Node4&#45;&gt;Node9 -->
<g id="edge8" class="edge"><title>Node4&#45;&gt;Node9</title>
<path fill="none" stroke="midnightblue" d="M230.038,-62.4035C244.769,-52.6905 268.973,-36.7319 286.509,-25.1697"/>
<polygon fill="midnightblue" stroke="midnightblue" points="288.564,-28.0072 294.986,-19.5806 284.711,-22.1632 288.564,-28.0072"/>
</g>
<!-- Node11&#45;&gt;Node5 -->
<g id="edge11" class="edge"><title>Node11&#45;&gt;Node5</title>
<path fill="none" stroke="midnightblue" d="M374,-62.4035C374,-53.9381 374,-40.7283 374,-29.8199"/>
<polygon fill="midnightblue" stroke="midnightblue" points="377.5,-29.5806 374,-19.5806 370.5,-29.5806 377.5,-29.5806"/>
</g>
</g>
</svg>
        <g id="navigator" transform="translate(0 0)" fill="#404254">
                <rect fill="#f2f5e9" fill-opacity="0.5" stroke="#606060" stroke-width=".5" x="0" y="0" width="60" height="60"/>
                <use id="zoomplus" xlink:href="#zoomPlus" x="17" y="9" onmousedown="handleZoom(evt,'in')"/>
                <use id="zoomminus" xlink:href="#zoomMin" x="42" y="9" onmousedown="handleZoom(evt,'out')"/>
                <use id="reset" xlink:href="#resetDef" x="30" y="36" onmousedown="handleReset()"/>
                <g id="arrowUp" xlink:href="#dirArrow" transform="translate(30 24)" onmousedown="handlePan(0,-1)">
                  <use xlink:href="#rim" fill="#404040">
                        <set attributeName="fill" to="#808080" begin="arrowUp.mouseover" end="arrowUp.mouseout"/>
                  </use>
                  <path fill="none" stroke="white" stroke-width="1.5" d="M0,-3.0v7 M-2.5,-0.5L0,-3.0L2.5,-0.5"/>
                </g>
                <g id="arrowRight" xlink:href="#dirArrow" transform="rotate(90) translate(36 -43)" onmousedown="handlePan(1,0)">
                  <use xlink:href="#rim" fill="#404040">
                        <set attributeName="fill" to="#808080" begin="arrowRight.mouseover" end="arrowRight.mouseout"/>
                  </use>
                  <path fill="none" stroke="white" stroke-width="1.5" d="M0,-3.0v7 M-2.5,-0.5L0,-3.0L2.5,-0.5"/>
                </g>
                <g id="arrowDown" xlink:href="#dirArrow" transform="rotate(180) translate(-30 -48)" onmousedown="handlePan(0,1)">
                  <use xlink:href="#rim" fill="#404040">
                        <set attributeName="fill" to="#808080" begin="arrowDown.mouseover" end="arrowDown.mouseout"/>
                  </use>
                  <path fill="none" stroke="white" stroke-width="1.5" d="M0,-3.0v7 M-2.5,-0.5L0,-3.0L2.5,-0.5"/>
                </g>
                <g id="arrowLeft" xlink:href="#dirArrow" transform="rotate(270) translate(-36 17)" onmousedown="handlePan(-1,0)">
                  <use xlink:href="#rim" fill="#404040">
                        <set attributeName="fill" to="#808080" begin="arrowLeft.mouseover" end="arrowLeft.mouseout"/>
                  </use>
                  <path fill="none" stroke="white" stroke-width="1.5" d="M0,-3.0v7 M-2.5,-0.5L0,-3.0L2.5,-0.5"/>
                </g>
        </g>
        <svg viewBox="0 0 15 15" width="100%" height="30px" preserveAspectRatio="xMaxYMin meet">
         <g id="arrow_out" transform="scale(0.3 0.3)">
          <a xlink:href="_inverse_kinematics_8cpp__incl_org.svg" target="_base">
           <rect id="button" ry="5" rx="5" y="6" x="6" height="38" width="38"
                fill="#f2f5e9" fill-opacity="0.5" stroke="#606060" stroke-width="1.0"/>
           <path id="arrow"
             d="M 11.500037,31.436501 C 11.940474,20.09759 22.043105,11.32322 32.158766,21.979434 L 37.068811,17.246167 C 37.068811,17.246167 37.088388,32 37.088388,32 L 22.160133,31.978069 C 22.160133,31.978069 26.997745,27.140456 26.997745,27.140456 C 18.528582,18.264221 13.291696,25.230495 11.500037,31.436501 z"
             style="fill:#404040;"/>
          </a>
         </g>
        </svg>
</svg>
