<?xml version="1.0" encoding="UTF-8" standalone="no"?>
<!DOCTYPE svg PUBLIC "-//W3C//DTD SVG 1.1//EN"
 "http://www.w3.org/Graphics/SVG/1.1/DTD/svg11.dtd">
<!-- Generated by graphviz version 2.38.0 (20140413.2041)
 -->
<!-- Title: /home/travis/build/robotology/wb&#45;toolbox/toolbox/library/src/InverseDynamics.cpp Pages: 1 -->
<svg width="2505pt" height="240pt"
 viewBox="0.00 0.00 2504.85 240.00" xmlns="http://www.w3.org/2000/svg" xmlns:xlink="http://www.w3.org/1999/xlink">
<g id="graph0" class="graph" transform="scale(1 1) rotate(0) translate(4 236)">
<title>/home/travis/build/robotology/wb&#45;toolbox/toolbox/library/src/InverseDynamics.cpp</title>
<!-- Node1 -->
<g id="node1" class="node"><title>Node1</title>
<polygon fill="#bfbfbf" stroke="black" points="1110.35,-179.5 1110.35,-231.5 1252.35,-231.5 1252.35,-179.5 1110.35,-179.5"/>
<text text-anchor="start" x="1118.35" y="-219.5" font-family="Helvetica,sans-Serif" font-size="10.00">/home/travis/build</text>
<text text-anchor="start" x="1118.35" y="-208.5" font-family="Helvetica,sans-Serif" font-size="10.00">/robotology/wb&#45;toolbox</text>
<text text-anchor="start" x="1118.35" y="-197.5" font-family="Helvetica,sans-Serif" font-size="10.00">/toolbox/library/src/Inverse</text>
<text text-anchor="middle" x="1181.35" y="-186.5" font-family="Helvetica,sans-Serif" font-size="10.00">Dynamics.cpp</text>
</g>
<!-- Node2 -->
<g id="node2" class="node"><title>Node2</title>
<g id="a_node2"><a xlink:href="_inverse_dynamics_8h.html" target="_top" xlink:title="WBToolbox/Block/InverseDynamics.h">
<polygon fill="none" stroke="black" points="105.854,-118 105.854,-137 294.854,-137 294.854,-118 105.854,-118"/>
<text text-anchor="middle" x="200.354" y="-125" font-family="Helvetica,sans-Serif" font-size="10.00">WBToolbox/Block/InverseDynamics.h</text>
</a>
</g>
</g>
<!-- Node1&#45;&gt;Node2 -->
<g id="edge1" class="edge"><title>Node1&#45;&gt;Node2</title>
<path fill="none" stroke="midnightblue" d="M1110.16,-200.472C963.154,-191.917 615.431,-170.449 324.354,-143 309.627,-141.611 293.939,-139.932 278.849,-138.217"/>
<polygon fill="midnightblue" stroke="midnightblue" points="278.852,-134.694 268.517,-137.026 278.05,-141.648 278.852,-134.694"/>
</g>
<!-- Node5 -->
<g id="node5" class="node"><title>Node5</title>
<polygon fill="none" stroke="#bfbfbf" points="171.854,-0.5 171.854,-19.5 228.854,-19.5 228.854,-0.5 171.854,-0.5"/>
<text text-anchor="middle" x="200.354" y="-7.5" font-family="Helvetica,sans-Serif" font-size="10.00">memory</text>
</g>
<!-- Node1&#45;&gt;Node5 -->
<g id="edge30" class="edge"><title>Node1&#45;&gt;Node5</title>
<path fill="none" stroke="midnightblue" d="M1110.17,-202.902C883.96,-197.487 190.838,-178.18 96.3544,-143 45.1085,-123.919 -24.5966,-98.8667 9.35439,-56 50.7782,-3.69819 90.6216,-33.103 161.51,-19.9391"/>
<polygon fill="midnightblue" stroke="midnightblue" points="162.659,-23.2739 171.722,-17.7862 161.215,-16.4244 162.659,-23.2739"/>
</g>
<!-- Node7 -->
<g id="node7" class="node"><title>Node7</title>
<g id="a_node7"><a xlink:href="_configuration_8h.html" target="_top" xlink:title="WBToolbox/Base/Configuration.h">
<polygon fill="none" stroke="black" points="452.354,-56.5 452.354,-75.5 622.354,-75.5 622.354,-56.5 452.354,-56.5"/>
<text text-anchor="middle" x="537.354" y="-63.5" font-family="Helvetica,sans-Serif" font-size="10.00">WBToolbox/Base/Configuration.h</text>
</a>
</g>
</g>
<!-- Node1&#45;&gt;Node7 -->
<g id="edge8" class="edge"><title>Node1&#45;&gt;Node7</title>
<path fill="none" stroke="midnightblue" d="M1110.27,-204.312C925.918,-203.088 443.361,-194.909 395.354,-143 365.453,-110.668 426.093,-89.3522 477.184,-77.7359"/>
<polygon fill="midnightblue" stroke="midnightblue" points="478.221,-81.0922 487.246,-75.5416 476.73,-74.2529 478.221,-81.0922"/>
</g>
<!-- Node10 -->
<g id="node10" class="node"><title>Node10</title>
<g id="a_node10"><a xlink:href="_robot_interface_8h.html" target="_top" xlink:title="WBToolbox/Base/RobotInterface.h">
<polygon fill="none" stroke="black" points="258.854,-56.5 258.854,-75.5 433.854,-75.5 433.854,-56.5 258.854,-56.5"/>
<text text-anchor="middle" x="346.354" y="-63.5" font-family="Helvetica,sans-Serif" font-size="10.00">WBToolbox/Base/RobotInterface.h</text>
</a>
</g>
</g>
<!-- Node1&#45;&gt;Node10 -->
<g id="edge13" class="edge"><title>Node1&#45;&gt;Node10</title>
<path fill="none" stroke="midnightblue" d="M1110.15,-202.976C925.928,-198.479 443.804,-182.984 384.354,-143 364.892,-129.91 354.946,-103.763 350.204,-85.8271"/>
<polygon fill="midnightblue" stroke="midnightblue" points="353.57,-84.8514 347.885,-75.9112 346.754,-86.4455 353.57,-84.8514"/>
</g>
<!-- Node13 -->
<g id="node13" class="node"><title>Node13</title>
<polygon fill="none" stroke="#bfbfbf" points="404.354,-118 404.354,-137 598.354,-137 598.354,-118 404.354,-118"/>
<text text-anchor="middle" x="501.354" y="-125" font-family="Helvetica,sans-Serif" font-size="10.00">BlockFactory/Core/BlockInformation.h</text>
</g>
<!-- Node1&#45;&gt;Node13 -->
<g id="edge18" class="edge"><title>Node1&#45;&gt;Node13</title>
<path fill="none" stroke="midnightblue" d="M1110.14,-197.545C1001.56,-186.789 788.171,-165.049 607.354,-143 595.687,-141.577 583.311,-139.972 571.289,-138.361"/>
<polygon fill="midnightblue" stroke="midnightblue" points="571.676,-134.882 561.297,-137.011 570.738,-141.819 571.676,-134.882"/>
</g>
<!-- Node14 -->
<g id="node14" class="node"><title>Node14</title>
<polygon fill="none" stroke="#bfbfbf" points="616.854,-118 616.854,-137 747.854,-137 747.854,-118 616.854,-118"/>
<text text-anchor="middle" x="682.354" y="-125" font-family="Helvetica,sans-Serif" font-size="10.00">BlockFactory/Core/Log.h</text>
</g>
<!-- Node1&#45;&gt;Node14 -->
<g id="edge19" class="edge"><title>Node1&#45;&gt;Node14</title>
<path fill="none" stroke="midnightblue" d="M1110.3,-195.231C1025.95,-183.988 881.116,-163.927 757.354,-143 749.99,-141.755 742.236,-140.356 734.62,-138.93"/>
<polygon fill="midnightblue" stroke="midnightblue" points="735.209,-135.48 724.732,-137.053 733.903,-142.357 735.209,-135.48"/>
</g>
<!-- Node15 -->
<g id="node15" class="node"><title>Node15</title>
<polygon fill="none" stroke="#bfbfbf" points="765.854,-118 765.854,-137 908.854,-137 908.854,-118 765.854,-118"/>
<text text-anchor="middle" x="837.354" y="-125" font-family="Helvetica,sans-Serif" font-size="10.00">BlockFactory/Core/Signal.h</text>
</g>
<!-- Node1&#45;&gt;Node15 -->
<g id="edge20" class="edge"><title>Node1&#45;&gt;Node15</title>
<path fill="none" stroke="midnightblue" d="M1110.08,-188.753C1043.06,-173.946 944.537,-152.18 886.071,-139.263"/>
<polygon fill="midnightblue" stroke="midnightblue" points="886.508,-135.775 875.988,-137.035 884.998,-142.61 886.508,-135.775"/>
</g>
<!-- Node16 -->
<g id="node16" class="node"><title>Node16</title>
<polygon fill="none" stroke="#bfbfbf" points="927.354,-118 927.354,-137 995.354,-137 995.354,-118 927.354,-118"/>
<text text-anchor="middle" x="961.354" y="-125" font-family="Helvetica,sans-Serif" font-size="10.00">Eigen/Core</text>
</g>
<!-- Node1&#45;&gt;Node16 -->
<g id="edge21" class="edge"><title>Node1&#45;&gt;Node16</title>
<path fill="none" stroke="midnightblue" d="M1110.23,-179.93C1071.88,-166.682 1026.3,-150.936 995.765,-140.387"/>
<polygon fill="midnightblue" stroke="midnightblue" points="996.614,-136.978 986.019,-137.02 994.328,-143.594 996.614,-136.978"/>
</g>
<!-- Node17 -->
<g id="node17" class="node"><title>Node17</title>
<polygon fill="none" stroke="#bfbfbf" points="1013.35,-118 1013.35,-137 1171.35,-137 1171.35,-118 1013.35,-118"/>
<text text-anchor="middle" x="1092.35" y="-125" font-family="Helvetica,sans-Serif" font-size="10.00">iDynTree/Core/EigenHelpers.h</text>
</g>
<!-- Node1&#45;&gt;Node17 -->
<g id="edge22" class="edge"><title>Node1&#45;&gt;Node17</title>
<path fill="none" stroke="midnightblue" d="M1151.72,-179.193C1138.05,-167.518 1122.26,-154.037 1110.4,-143.913"/>
<polygon fill="midnightblue" stroke="midnightblue" points="1112.43,-141.041 1102.55,-137.209 1107.88,-146.364 1112.43,-141.041"/>
</g>
<!-- Node18 -->
<g id="node18" class="node"><title>Node18</title>
<polygon fill="none" stroke="#bfbfbf" points="1189.35,-118 1189.35,-137 1353.35,-137 1353.35,-118 1189.35,-118"/>
<text text-anchor="middle" x="1271.35" y="-125" font-family="Helvetica,sans-Serif" font-size="10.00">iDynTree/Core/VectorDynSize.h</text>
</g>
<!-- Node1&#45;&gt;Node18 -->
<g id="edge23" class="edge"><title>Node1&#45;&gt;Node18</title>
<path fill="none" stroke="midnightblue" d="M1211.32,-179.193C1225.15,-167.518 1241.11,-154.037 1253.1,-143.913"/>
<polygon fill="midnightblue" stroke="midnightblue" points="1255.66,-146.335 1261.04,-137.209 1251.14,-140.987 1255.66,-146.335"/>
</g>
<!-- Node19 -->
<g id="node19" class="node"><title>Node19</title>
<polygon fill="none" stroke="#bfbfbf" points="1371.35,-118 1371.35,-137 1529.35,-137 1529.35,-118 1371.35,-118"/>
<text text-anchor="middle" x="1450.35" y="-125" font-family="Helvetica,sans-Serif" font-size="10.00">iDynTree/Core/VectorFixSize.h</text>
</g>
<!-- Node1&#45;&gt;Node19 -->
<g id="edge24" class="edge"><title>Node1&#45;&gt;Node19</title>
<path fill="none" stroke="midnightblue" d="M1252.38,-184.432C1302.86,-170.172 1368.8,-151.54 1410.38,-139.793"/>
<polygon fill="midnightblue" stroke="midnightblue" points="1411.47,-143.122 1420.15,-137.035 1409.57,-136.385 1411.47,-143.122"/>
</g>
<!-- Node20 -->
<g id="node20" class="node"><title>Node20</title>
<polygon fill="none" stroke="#bfbfbf" points="1547.85,-118 1547.85,-137 1676.85,-137 1676.85,-118 1547.85,-118"/>
<text text-anchor="middle" x="1612.35" y="-125" font-family="Helvetica,sans-Serif" font-size="10.00">iDynTree/Core/Wrench.h</text>
</g>
<!-- Node1&#45;&gt;Node20 -->
<g id="edge25" class="edge"><title>Node1&#45;&gt;Node20</title>
<path fill="none" stroke="midnightblue" d="M1252.56,-192.727C1324.68,-180.687 1439.39,-161.218 1538.35,-143 1545.19,-141.742 1552.37,-140.382 1559.46,-139.017"/>
<polygon fill="midnightblue" stroke="midnightblue" points="1560.58,-142.365 1569.73,-137.024 1559.25,-135.493 1560.58,-142.365"/>
</g>
<!-- Node21 -->
<g id="node21" class="node"><title>Node21</title>
<polygon fill="none" stroke="#bfbfbf" points="1695.35,-118 1695.35,-137 1865.35,-137 1865.35,-118 1695.35,-118"/>
<text text-anchor="middle" x="1780.35" y="-125" font-family="Helvetica,sans-Serif" font-size="10.00">iDynTree/KinDynComputations.h</text>
</g>
<!-- Node1&#45;&gt;Node21 -->
<g id="edge26" class="edge"><title>Node1&#45;&gt;Node21</title>
<path fill="none" stroke="midnightblue" d="M1252.53,-196.555C1350.39,-185.468 1531.93,-164.308 1686.35,-143 1696.29,-141.629 1706.81,-140.092 1717.06,-138.545"/>
<polygon fill="midnightblue" stroke="midnightblue" points="1717.85,-141.966 1727.21,-137.001 1716.79,-135.046 1717.85,-141.966"/>
</g>
<!-- Node22 -->
<g id="node22" class="node"><title>Node22</title>
<polygon fill="none" stroke="#bfbfbf" points="1883.85,-112.5 1883.85,-142.5 2032.85,-142.5 2032.85,-112.5 1883.85,-112.5"/>
<text text-anchor="start" x="1891.85" y="-130.5" font-family="Helvetica,sans-Serif" font-size="10.00">iDynTree/Model/FreeFloating</text>
<text text-anchor="middle" x="1958.35" y="-119.5" font-family="Helvetica,sans-Serif" font-size="10.00">State.h</text>
</g>
<!-- Node1&#45;&gt;Node22 -->
<g id="edge27" class="edge"><title>Node1&#45;&gt;Node22</title>
<path fill="none" stroke="midnightblue" d="M1252.4,-200.136C1376.36,-192.094 1640.37,-173.079 1873.71,-143.01"/>
<polygon fill="midnightblue" stroke="midnightblue" points="1874.28,-146.465 1883.75,-141.707 1873.38,-139.523 1874.28,-146.465"/>
</g>
<!-- Node23 -->
<g id="node23" class="node"><title>Node23</title>
<polygon fill="none" stroke="#bfbfbf" points="2050.85,-118 2050.85,-137 2197.85,-137 2197.85,-118 2050.85,-118"/>
<text text-anchor="middle" x="2124.35" y="-125" font-family="Helvetica,sans-Serif" font-size="10.00">iDynTree/Model/JointState.h</text>
</g>
<!-- Node1&#45;&gt;Node23 -->
<g id="edge28" class="edge"><title>Node1&#45;&gt;Node23</title>
<path fill="none" stroke="midnightblue" d="M1252.47,-201.918C1400.12,-196.008 1750.48,-179.131 2042.35,-143 2051.63,-141.852 2061.44,-140.36 2070.94,-138.77"/>
<polygon fill="midnightblue" stroke="midnightblue" points="2071.82,-142.17 2081.07,-137.018 2070.62,-135.273 2071.82,-142.17"/>
</g>
<!-- Node24 -->
<g id="node24" class="node"><title>Node24</title>
<polygon fill="none" stroke="#bfbfbf" points="2216.35,-118 2216.35,-137 2362.35,-137 2362.35,-118 2216.35,-118"/>
<text text-anchor="middle" x="2289.35" y="-125" font-family="Helvetica,sans-Serif" font-size="10.00">iDynTree/Model/LinkState.h</text>
</g>
<!-- Node1&#45;&gt;Node24 -->
<g id="edge29" class="edge"><title>Node1&#45;&gt;Node24</title>
<path fill="none" stroke="midnightblue" d="M1252.51,-203.053C1419.66,-199.041 1850.27,-185.132 2207.35,-143 2216.84,-141.881 2226.89,-140.374 2236.58,-138.754"/>
<polygon fill="midnightblue" stroke="midnightblue" points="2237.25,-142.19 2246.51,-137.036 2236.06,-135.292 2237.25,-142.19"/>
</g>
<!-- Node25 -->
<g id="node25" class="node"><title>Node25</title>
<polygon fill="none" stroke="#bfbfbf" points="2380.85,-118 2380.85,-137 2437.85,-137 2437.85,-118 2380.85,-118"/>
<text text-anchor="middle" x="2409.35" y="-125" font-family="Helvetica,sans-Serif" font-size="10.00">ostream</text>
</g>
<!-- Node1&#45;&gt;Node25 -->
<g id="edge31" class="edge"><title>Node1&#45;&gt;Node25</title>
<path fill="none" stroke="midnightblue" d="M1252.55,-203.73C1475.13,-200.865 2155.79,-188.514 2371.35,-143 2374.43,-142.35 2377.59,-141.487 2380.71,-140.505"/>
<polygon fill="midnightblue" stroke="midnightblue" points="2382.12,-143.717 2390.38,-137.076 2379.78,-137.12 2382.12,-143.717"/>
</g>
<!-- Node26 -->
<g id="node26" class="node"><title>Node26</title>
<polygon fill="none" stroke="#bfbfbf" points="2455.85,-118 2455.85,-137 2496.85,-137 2496.85,-118 2455.85,-118"/>
<text text-anchor="middle" x="2476.35" y="-125" font-family="Helvetica,sans-Serif" font-size="10.00">tuple</text>
</g>
<!-- Node1&#45;&gt;Node26 -->
<g id="edge32" class="edge"><title>Node1&#45;&gt;Node26</title>
<path fill="none" stroke="midnightblue" d="M1252.38,-204.888C1484.52,-205.559 2219.05,-202.781 2447.35,-143 2449.08,-142.549 2450.82,-141.988 2452.54,-141.352"/>
<polygon fill="midnightblue" stroke="midnightblue" points="2454.35,-144.376 2462.07,-137.113 2451.51,-137.981 2454.35,-144.376"/>
</g>
<!-- Node3 -->
<g id="node3" class="node"><title>Node3</title>
<g id="a_node3"><a xlink:href="_w_b_block_8h.html" target="_top" xlink:title="WBToolbox/Base/WBBlock.h">
<polygon fill="none" stroke="black" points="18.3544,-56.5 18.3544,-75.5 164.354,-75.5 164.354,-56.5 18.3544,-56.5"/>
<text text-anchor="middle" x="91.3544" y="-63.5" font-family="Helvetica,sans-Serif" font-size="10.00">WBToolbox/Base/WBBlock.h</text>
</a>
</g>
</g>
<!-- Node2&#45;&gt;Node3 -->
<g id="edge2" class="edge"><title>Node2&#45;&gt;Node3</title>
<path fill="none" stroke="midnightblue" d="M184.737,-117.975C166.768,-108.166 137.033,-91.9346 115.948,-80.425"/>
<polygon fill="midnightblue" stroke="midnightblue" points="117.397,-77.2284 106.942,-75.5091 114.043,-83.3726 117.397,-77.2284"/>
</g>
<!-- Node2&#45;&gt;Node5 -->
<g id="edge6" class="edge"><title>Node2&#45;&gt;Node5</title>
<path fill="none" stroke="midnightblue" d="M200.354,-117.819C200.354,-99.2568 200.354,-55.3391 200.354,-29.9734"/>
<polygon fill="midnightblue" stroke="midnightblue" points="203.854,-29.782 200.354,-19.782 196.854,-29.782 203.854,-29.782"/>
</g>
<!-- Node6 -->
<g id="node6" class="node"><title>Node6</title>
<polygon fill="none" stroke="#bfbfbf" points="255.354,-0.5 255.354,-19.5 299.354,-19.5 299.354,-0.5 255.354,-0.5"/>
<text text-anchor="middle" x="277.354" y="-7.5" font-family="Helvetica,sans-Serif" font-size="10.00">string</text>
</g>
<!-- Node2&#45;&gt;Node6 -->
<g id="edge7" class="edge"><title>Node2&#45;&gt;Node6</title>
<path fill="none" stroke="midnightblue" d="M206.142,-117.819C218.795,-98.8387 249.122,-53.348 265.829,-28.2882"/>
<polygon fill="midnightblue" stroke="midnightblue" points="268.865,-30.044 271.5,-19.782 263.04,-26.1611 268.865,-30.044"/>
</g>
<!-- Node4 -->
<g id="node4" class="node"><title>Node4</title>
<polygon fill="none" stroke="#bfbfbf" points="13.3544,-0.5 13.3544,-19.5 153.354,-19.5 153.354,-0.5 13.3544,-0.5"/>
<text text-anchor="middle" x="83.3544" y="-7.5" font-family="Helvetica,sans-Serif" font-size="10.00">BlockFactory/Core/Block.h</text>
</g>
<!-- Node3&#45;&gt;Node4 -->
<g id="edge3" class="edge"><title>Node3&#45;&gt;Node4</title>
<path fill="none" stroke="midnightblue" d="M90.0334,-56.083C88.9732,-48.9272 87.4485,-38.6353 86.1234,-29.6911"/>
<polygon fill="midnightblue" stroke="midnightblue" points="89.5786,-29.1302 84.6508,-19.7511 82.6542,-30.1561 89.5786,-29.1302"/>
</g>
<!-- Node3&#45;&gt;Node5 -->
<g id="edge4" class="edge"><title>Node3&#45;&gt;Node5</title>
<path fill="none" stroke="midnightblue" d="M108.867,-56.324C126.427,-47.6247 153.686,-34.1202 173.886,-24.113"/>
<polygon fill="midnightblue" stroke="midnightblue" points="175.478,-27.23 182.885,-19.6545 172.371,-20.9575 175.478,-27.23"/>
</g>
<!-- Node3&#45;&gt;Node6 -->
<g id="edge5" class="edge"><title>Node3&#45;&gt;Node6</title>
<path fill="none" stroke="midnightblue" d="M120.827,-56.4435C154.856,-46.5639 210.624,-30.3734 245.594,-20.2208"/>
<polygon fill="midnightblue" stroke="midnightblue" points="246.673,-23.552 255.301,-17.4026 244.722,-16.8296 246.673,-23.552"/>
</g>
<!-- Node7&#45;&gt;Node5 -->
<g id="edge10" class="edge"><title>Node7&#45;&gt;Node5</title>
<path fill="none" stroke="midnightblue" d="M477.607,-56.4704C418.7,-47.8938 326.168,-33.9733 246.354,-20 243.987,-19.5856 241.554,-19.147 239.102,-18.6954"/>
<polygon fill="midnightblue" stroke="midnightblue" points="239.507,-15.2101 229.031,-16.7936 238.208,-22.0886 239.507,-15.2101"/>
</g>
<!-- Node7&#45;&gt;Node6 -->
<g id="edge11" class="edge"><title>Node7&#45;&gt;Node6</title>
<path fill="none" stroke="midnightblue" d="M490.657,-56.4266C445.041,-47.8713 373.715,-34.0145 312.354,-20 311.445,-19.7922 310.522,-19.5782 309.592,-19.3593"/>
<polygon fill="midnightblue" stroke="midnightblue" points="310.074,-15.874 299.528,-16.8954 308.409,-22.6732 310.074,-15.874"/>
</g>
<!-- Node8 -->
<g id="node8" class="node"><title>Node8</title>
<polygon fill="none" stroke="#bfbfbf" points="567.854,-0.5 567.854,-19.5 608.854,-19.5 608.854,-0.5 567.854,-0.5"/>
<text text-anchor="middle" x="588.354" y="-7.5" font-family="Helvetica,sans-Serif" font-size="10.00">array</text>
</g>
<!-- Node7&#45;&gt;Node8 -->
<g id="edge9" class="edge"><title>Node7&#45;&gt;Node8</title>
<path fill="none" stroke="midnightblue" d="M545.776,-56.083C553.203,-48.2195 564.206,-36.5688 573.167,-27.0813"/>
<polygon fill="midnightblue" stroke="midnightblue" points="575.768,-29.4244 580.089,-19.7511 570.679,-24.618 575.768,-29.4244"/>
</g>
<!-- Node9 -->
<g id="node9" class="node"><title>Node9</title>
<polygon fill="none" stroke="#bfbfbf" points="502.854,-0.5 502.854,-19.5 549.854,-19.5 549.854,-0.5 502.854,-0.5"/>
<text text-anchor="middle" x="526.354" y="-7.5" font-family="Helvetica,sans-Serif" font-size="10.00">vector</text>
</g>
<!-- Node7&#45;&gt;Node9 -->
<g id="edge12" class="edge"><title>Node7&#45;&gt;Node9</title>
<path fill="none" stroke="midnightblue" d="M535.538,-56.083C534.08,-48.9272 531.984,-38.6353 530.162,-29.6911"/>
<polygon fill="midnightblue" stroke="midnightblue" points="533.563,-28.8512 528.137,-19.7511 526.704,-30.2485 533.563,-28.8512"/>
</g>
<!-- Node10&#45;&gt;Node5 -->
<g id="edge14" class="edge"><title>Node10&#45;&gt;Node5</title>
<path fill="none" stroke="midnightblue" d="M323.22,-56.4435C298.872,-47.4381 260.347,-33.1891 232.931,-23.049"/>
<polygon fill="midnightblue" stroke="midnightblue" points="233.973,-19.7028 223.38,-19.5164 231.545,-26.2681 233.973,-19.7028"/>
</g>
<!-- Node10&#45;&gt;Node6 -->
<g id="edge15" class="edge"><title>Node10&#45;&gt;Node6</title>
<path fill="none" stroke="midnightblue" d="M335.268,-56.324C324.868,-48.1849 309.094,-35.8395 296.633,-26.0874"/>
<polygon fill="midnightblue" stroke="midnightblue" points="298.674,-23.2407 288.642,-19.8339 294.36,-28.7533 298.674,-23.2407"/>
</g>
<!-- Node11 -->
<g id="node11" class="node"><title>Node11</title>
<polygon fill="none" stroke="#bfbfbf" points="380.854,-0.5 380.854,-19.5 473.854,-19.5 473.854,-0.5 380.854,-0.5"/>
<text text-anchor="middle" x="427.354" y="-7.5" font-family="Helvetica,sans-Serif" font-size="10.00">unordered_map</text>
</g>
<!-- Node10&#45;&gt;Node11 -->
<g id="edge16" class="edge"><title>Node10&#45;&gt;Node11</title>
<path fill="none" stroke="midnightblue" d="M359.368,-56.324C371.886,-47.979 391.036,-35.2122 405.826,-25.3524"/>
<polygon fill="midnightblue" stroke="midnightblue" points="407.994,-28.1137 414.373,-19.6545 404.111,-22.2894 407.994,-28.1137"/>
</g>
<!-- Node12 -->
<g id="node12" class="node"><title>Node12</title>
<polygon fill="none" stroke="#bfbfbf" points="321.354,-0.5 321.354,-19.5 363.354,-19.5 363.354,-0.5 321.354,-0.5"/>
<text text-anchor="middle" x="342.354" y="-7.5" font-family="Helvetica,sans-Serif" font-size="10.00">utility</text>
</g>
<!-- Node10&#45;&gt;Node12 -->
<g id="edge17" class="edge"><title>Node10&#45;&gt;Node12</title>
<path fill="none" stroke="midnightblue" d="M345.694,-56.083C345.17,-49.0059 344.418,-38.8611 343.761,-29.9865"/>
<polygon fill="midnightblue" stroke="midnightblue" points="347.232,-29.4652 343.003,-19.7511 340.251,-29.9823 347.232,-29.4652"/>
</g>
</g>
</svg>
