<?xml version="1.0" encoding="UTF-8" standalone="no"?>
<!DOCTYPE svg PUBLIC "-//W3C//DTD SVG 1.1//EN"
 "http://www.w3.org/Graphics/SVG/1.1/DTD/svg11.dtd">
<!-- Generated by graphviz version 2.36.0 (20140111.2315)
 -->
<!-- Title: /home/travis/build/robotology/wb&#45;toolbox/toolbox/src/InverseDynamics.cpp Pages: 1 -->
<!--zoomable 342 -->
<svg id="main" version="1.1" xmlns="http://www.w3.org/2000/svg" xmlns:xlink="http://www.w3.org/1999/xlink" xml:space="preserve" onload="init(evt)">
<style type="text/css"><![CDATA[
.edge:hover path { stroke: red; }
.edge:hover polygon { stroke: red; fill: red; }
]]></style>
<script type="text/javascript"><![CDATA[
var edges = document.getElementsByTagName('g');
if (edges && edges.length) {
  for (var i=0;i<edges.length;i++) {
    if (edges[i].id.substr(0,4)=='edge') {
      edges[i].setAttribute('class','edge');
    }
  }
}
]]></script>
        <defs>
                <circle id="rim" cx="0" cy="0" r="7"/>
                <circle id="rim2" cx="0" cy="0" r="3.5"/>
                <g id="zoomPlus">
                        <use xlink:href="#rim" fill="#404040">
                                <set attributeName="fill" to="#808080" begin="zoomplus.mouseover" end="zoomplus.mouseout"/>
                        </use>
                        <path d="M-4,0h8M0,-4v8" fill="none" stroke="white" stroke-width="1.5" pointer-events="none"/>
                </g>
                <g id="zoomMin">
                        <use xlink:href="#rim" fill="#404040">
                                <set attributeName="fill" to="#808080" begin="zoomminus.mouseover" end="zoomminus.mouseout"/>
                        </use>
                        <path d="M-4,0h8" fill="none" stroke="white" stroke-width="1.5" pointer-events="none"/>
                </g>
                <g id="dirArrow">
                        <path fill="none" stroke="white" stroke-width="1.5" d="M0,-3.0v7 M-2.5,-0.5L0,-3.0L2.5,-0.5"/>
                </g>
               <g id="resetDef">
                       <use xlink:href="#rim2" fill="#404040">
                               <set attributeName="fill" to="#808080" begin="reset.mouseover" end="reset.mouseout"/>
                       </use>
               </g>
        </defs>

<script type="text/javascript">
var viewWidth = 2170;
var viewHeight = 342;
var sectionId = 'dynsection-0';
</script>
<script xlink:href="svgpan.js"/>
<svg id="graph" class="graph">
<g id="viewport">
<title>/home/travis/build/robotology/wb&#45;toolbox/toolbox/src/InverseDynamics.cpp</title>
<!-- Node1 -->
<g id="node1" class="node"><title>Node1</title>
<polygon fill="#bfbfbf" stroke="black" points="725,-292.5 725,-333.5 891,-333.5 891,-292.5 725,-292.5"/>
<text text-anchor="start" x="733" y="-321.5" font-family="Helvetica,sans-Serif" font-size="10.00">/home/travis/build</text>
<text text-anchor="start" x="733" y="-310.5" font-family="Helvetica,sans-Serif" font-size="10.00">/robotology/wb&#45;toolbox</text>
<text text-anchor="middle" x="808" y="-299.5" font-family="Helvetica,sans-Serif" font-size="10.00">/toolbox/src/InverseDynamics.cpp</text>
</g>
<!-- Node2 -->
<g id="node2" class="node"><title>Node2</title>
<g id="a_node2"><a xlink:href="_inverse_dynamics_8h.html" target="_top" xlink:title="InverseDynamics.h">
<polygon fill="none" stroke="black" points="384.5,-230.5 384.5,-249.5 485.5,-249.5 485.5,-230.5 384.5,-230.5"/>
<text text-anchor="middle" x="435" y="-237.5" font-family="Helvetica,sans-Serif" font-size="10.00">InverseDynamics.h</text>
</a>
</g>
</g>
<!-- Node1&#45;&gt;Node2 -->
<g id="edge1" class="edge"><title>Node1&#45;&gt;Node2</title>
<path fill="none" stroke="midnightblue" d="M724.777,-296.629C664.985,-285.52 582.479,-270.058 510,-256 502.658,-254.576 494.917,-253.053 487.307,-251.542"/>
<polygon fill="midnightblue" stroke="midnightblue" points="487.914,-248.095 477.423,-249.574 486.547,-254.96 487.914,-248.095"/>
</g>
<!-- Node6 -->
<g id="node6" class="node"><title>Node6</title>
<polygon fill="none" stroke="#bfbfbf" points="132,-0.5 132,-19.5 184,-19.5 184,-0.5 132,-0.5"/>
<text text-anchor="middle" x="158" y="-7.5" font-family="Helvetica,sans-Serif" font-size="10.00">memory</text>
</g>
<!-- Node1&#45;&gt;Node6 -->
<g id="edge44" class="edge"><title>Node1&#45;&gt;Node6</title>
<path fill="none" stroke="midnightblue" d="M724.95,-306.968C518.763,-293.367 0,-251.904 0,-179 0,-179 0,-179 0,-121 0,-61.8363 75.5407,-31.8986 122.157,-19.0568"/>
<polygon fill="midnightblue" stroke="midnightblue" points="123.123,-22.4217 131.91,-16.5013 121.349,-15.6503 123.123,-22.4217"/>
</g>
<!-- Node9 -->
<g id="node9" class="node"><title>Node9</title>
<g id="a_node9"><a xlink:href="_block_information_8h.html" target="_top" xlink:title="BlockInformation.h">
<polygon fill="none" stroke="black" points="671,-56.5 671,-75.5 769,-75.5 769,-56.5 671,-56.5"/>
<text text-anchor="middle" x="720" y="-63.5" font-family="Helvetica,sans-Serif" font-size="10.00">BlockInformation.h</text>
</a>
</g>
</g>
<!-- Node1&#45;&gt;Node9 -->
<g id="edge14" class="edge"><title>Node1&#45;&gt;Node9</title>
<path fill="none" stroke="midnightblue" d="M724.723,-295.555C703.734,-287.255 683.606,-274.772 671,-256 633.876,-200.719 682.581,-118.987 707.251,-83.9513"/>
<polygon fill="midnightblue" stroke="midnightblue" points="710.175,-85.8804 713.21,-75.7296 704.508,-81.7722 710.175,-85.8804"/>
</g>
<!-- Node10 -->
<g id="node10" class="node"><title>Node10</title>
<polygon fill="none" stroke="#bfbfbf" points="761,-0.5 761,-19.5 799,-19.5 799,-0.5 761,-0.5"/>
<text text-anchor="middle" x="780" y="-7.5" font-family="Helvetica,sans-Serif" font-size="10.00">tuple</text>
</g>
<!-- Node1&#45;&gt;Node10 -->
<g id="edge46" class="edge"><title>Node1&#45;&gt;Node10</title>
<path fill="none" stroke="midnightblue" d="M747.399,-292.454C730.738,-283.983 714.622,-272.183 705,-256 677.718,-210.114 738.904,-225.54 777,-76 780.883,-60.7596 781.43,-42.872 781.121,-29.7237"/>
<polygon fill="midnightblue" stroke="midnightblue" points="784.611,-29.4178 780.691,-19.5748 777.617,-29.7139 784.611,-29.4178"/>
</g>
<!-- Node12 -->
<g id="node12" class="node"><title>Node12</title>
<g id="a_node12"><a xlink:href="_configuration_8h.html" target="_top" xlink:title="Configuration.h">
<polygon fill="none" stroke="black" points="289.5,-56.5 289.5,-75.5 372.5,-75.5 372.5,-56.5 289.5,-56.5"/>
<text text-anchor="middle" x="331" y="-63.5" font-family="Helvetica,sans-Serif" font-size="10.00">Configuration.h</text>
</a>
</g>
</g>
<!-- Node1&#45;&gt;Node12 -->
<g id="edge19" class="edge"><title>Node1&#45;&gt;Node12</title>
<path fill="none" stroke="midnightblue" d="M724.901,-297.507C684.486,-288.639 635.923,-275.226 595,-256 492.119,-207.665 387.508,-118.204 347.731,-82.4004"/>
<polygon fill="midnightblue" stroke="midnightblue" points="350.007,-79.7397 340.251,-75.6089 345.301,-84.9223 350.007,-79.7397"/>
</g>
<!-- Node14 -->
<g id="node14" class="node"><title>Node14</title>
<g id="a_node14"><a xlink:href="_log_8h.html" target="_top" xlink:title="Log.h">
<polygon fill="none" stroke="black" points="505.5,-56.5 505.5,-75.5 546.5,-75.5 546.5,-56.5 505.5,-56.5"/>
<text text-anchor="middle" x="526" y="-63.5" font-family="Helvetica,sans-Serif" font-size="10.00">Log.h</text>
</a>
</g>
</g>
<!-- Node1&#45;&gt;Node14 -->
<g id="edge24" class="edge"><title>Node1&#45;&gt;Node14</title>
<path fill="none" stroke="midnightblue" d="M724.945,-299.868C692.282,-291.771 656.178,-278.317 629,-256 572.225,-209.378 541.907,-122.902 530.893,-85.2776"/>
<polygon fill="midnightblue" stroke="midnightblue" points="534.263,-84.3303 528.189,-75.6491 527.523,-86.223 534.263,-84.3303"/>
</g>
<!-- Node16 -->
<g id="node16" class="node"><title>Node16</title>
<g id="a_node16"><a xlink:href="_robot_interface_8h.html" target="_top" xlink:title="RobotInterface.h">
<polygon fill="none" stroke="black" points="564.5,-56.5 564.5,-75.5 653.5,-75.5 653.5,-56.5 564.5,-56.5"/>
<text text-anchor="middle" x="609" y="-63.5" font-family="Helvetica,sans-Serif" font-size="10.00">RobotInterface.h</text>
</a>
</g>
</g>
<!-- Node1&#45;&gt;Node16 -->
<g id="edge28" class="edge"><title>Node1&#45;&gt;Node16</title>
<path fill="none" stroke="midnightblue" d="M724.821,-297.869C698.915,-289.632 672.359,-276.602 654,-256 610.465,-207.146 607.071,-123.794 607.98,-86.2889"/>
<polygon fill="midnightblue" stroke="midnightblue" points="611.495,-85.9512 608.38,-75.8245 604.5,-85.6832 611.495,-85.9512"/>
</g>
<!-- Node18 -->
<g id="node18" class="node"><title>Node18</title>
<g id="a_node18"><a xlink:href="_signal_8h.html" target="_top" xlink:title="Signal.h">
<polygon fill="none" stroke="black" points="28,-168.5 28,-187.5 80,-187.5 80,-168.5 28,-168.5"/>
<text text-anchor="middle" x="54" y="-175.5" font-family="Helvetica,sans-Serif" font-size="10.00">Signal.h</text>
</a>
</g>
</g>
<!-- Node1&#45;&gt;Node18 -->
<g id="edge33" class="edge"><title>Node1&#45;&gt;Node18</title>
<path fill="none" stroke="midnightblue" d="M724.985,-303.927C637.52,-294.8 495.953,-278.263 375,-256 270.519,-236.769 149.04,-205.016 89.9613,-188.958"/>
<polygon fill="midnightblue" stroke="midnightblue" points="90.5807,-185.499 80.0119,-186.241 88.7369,-192.252 90.5807,-185.499"/>
</g>
<!-- Node19 -->
<g id="node19" class="node"><title>Node19</title>
<polygon fill="none" stroke="#bfbfbf" points="713.5,-230.5 713.5,-249.5 778.5,-249.5 778.5,-230.5 713.5,-230.5"/>
<text text-anchor="middle" x="746" y="-237.5" font-family="Helvetica,sans-Serif" font-size="10.00">Eigen/Core</text>
</g>
<!-- Node1&#45;&gt;Node19 -->
<g id="edge35" class="edge"><title>Node1&#45;&gt;Node19</title>
<path fill="none" stroke="midnightblue" d="M790.73,-292.223C781.117,-281.214 769.297,-267.679 760.222,-257.287"/>
<polygon fill="midnightblue" stroke="midnightblue" points="762.842,-254.965 753.628,-249.735 757.569,-259.569 762.842,-254.965"/>
</g>
<!-- Node20 -->
<g id="node20" class="node"><title>Node20</title>
<polygon fill="none" stroke="#bfbfbf" points="796,-230.5 796,-249.5 946,-249.5 946,-230.5 796,-230.5"/>
<text text-anchor="middle" x="871" y="-237.5" font-family="Helvetica,sans-Serif" font-size="10.00">iDynTree/Core/EigenHelpers.h</text>
</g>
<!-- Node1&#45;&gt;Node20 -->
<g id="edge36" class="edge"><title>Node1&#45;&gt;Node20</title>
<path fill="none" stroke="midnightblue" d="M825.549,-292.223C835.317,-281.214 847.327,-267.679 856.548,-257.287"/>
<polygon fill="midnightblue" stroke="midnightblue" points="859.23,-259.538 863.249,-249.735 853.994,-254.892 859.23,-259.538"/>
</g>
<!-- Node21 -->
<g id="node21" class="node"><title>Node21</title>
<polygon fill="none" stroke="#bfbfbf" points="964,-230.5 964,-249.5 1122,-249.5 1122,-230.5 964,-230.5"/>
<text text-anchor="middle" x="1043" y="-237.5" font-family="Helvetica,sans-Serif" font-size="10.00">iDynTree/Core/VectorDynSize.h</text>
</g>
<!-- Node1&#45;&gt;Node21 -->
<g id="edge37" class="edge"><title>Node1&#45;&gt;Node21</title>
<path fill="none" stroke="midnightblue" d="M872.837,-292.411C915.249,-279.597 969.203,-263.296 1004.86,-252.524"/>
<polygon fill="midnightblue" stroke="midnightblue" points="1006.29,-255.747 1014.85,-249.504 1004.27,-249.046 1006.29,-255.747"/>
</g>
<!-- Node22 -->
<g id="node22" class="node"><title>Node22</title>
<polygon fill="none" stroke="#bfbfbf" points="1140.5,-230.5 1140.5,-249.5 1293.5,-249.5 1293.5,-230.5 1140.5,-230.5"/>
<text text-anchor="middle" x="1217" y="-237.5" font-family="Helvetica,sans-Serif" font-size="10.00">iDynTree/Core/VectorFixSize.h</text>
</g>
<!-- Node1&#45;&gt;Node22 -->
<g id="edge38" class="edge"><title>Node1&#45;&gt;Node22</title>
<path fill="none" stroke="midnightblue" d="M891.26,-297.547C970.512,-283.789 1087.78,-263.431 1157.88,-251.264"/>
<polygon fill="midnightblue" stroke="midnightblue" points="1158.61,-254.688 1167.87,-249.53 1157.41,-247.792 1158.61,-254.688"/>
</g>
<!-- Node23 -->
<g id="node23" class="node"><title>Node23</title>
<polygon fill="none" stroke="#bfbfbf" points="1311.5,-230.5 1311.5,-249.5 1436.5,-249.5 1436.5,-230.5 1311.5,-230.5"/>
<text text-anchor="middle" x="1374" y="-237.5" font-family="Helvetica,sans-Serif" font-size="10.00">iDynTree/Core/Wrench.h</text>
</g>
<!-- Node1&#45;&gt;Node23 -->
<g id="edge39" class="edge"><title>Node1&#45;&gt;Node23</title>
<path fill="none" stroke="midnightblue" d="M891.355,-304.923C989.82,-296.016 1158.4,-279.047 1302,-256 1309.89,-254.734 1318.22,-253.19 1326.31,-251.581"/>
<polygon fill="midnightblue" stroke="midnightblue" points="1327.28,-254.955 1336.38,-249.523 1325.88,-248.097 1327.28,-254.955"/>
</g>
<!-- Node24 -->
<g id="node24" class="node"><title>Node24</title>
<polygon fill="none" stroke="#bfbfbf" points="1454.5,-230.5 1454.5,-249.5 1615.5,-249.5 1615.5,-230.5 1454.5,-230.5"/>
<text text-anchor="middle" x="1535" y="-237.5" font-family="Helvetica,sans-Serif" font-size="10.00">iDynTree/KinDynComputations.h</text>
</g>
<!-- Node1&#45;&gt;Node24 -->
<g id="edge40" class="edge"><title>Node1&#45;&gt;Node24</title>
<path fill="none" stroke="midnightblue" d="M891.185,-306.751C1013.03,-298.596 1247.04,-281.16 1445,-256 1455.71,-254.639 1467.09,-252.94 1478.03,-251.179"/>
<polygon fill="midnightblue" stroke="midnightblue" points="1478.63,-254.629 1487.92,-249.552 1477.49,-247.721 1478.63,-254.629"/>
</g>
<!-- Node25 -->
<g id="node25" class="node"><title>Node25</title>
<polygon fill="none" stroke="#bfbfbf" points="1633.5,-225 1633.5,-255 1776.5,-255 1776.5,-225 1633.5,-225"/>
<text text-anchor="start" x="1641.5" y="-243" font-family="Helvetica,sans-Serif" font-size="10.00">iDynTree/Model/FreeFloating</text>
<text text-anchor="middle" x="1705" y="-232" font-family="Helvetica,sans-Serif" font-size="10.00">State.h</text>
</g>
<!-- Node1&#45;&gt;Node25 -->
<g id="edge41" class="edge"><title>Node1&#45;&gt;Node25</title>
<path fill="none" stroke="midnightblue" d="M891.123,-309.442C1037.22,-304.254 1349.64,-290.074 1622.96,-256.032"/>
<polygon fill="midnightblue" stroke="midnightblue" points="1623.59,-259.481 1633.08,-254.761 1622.72,-252.535 1623.59,-259.481"/>
</g>
<!-- Node26 -->
<g id="node26" class="node"><title>Node26</title>
<polygon fill="none" stroke="#bfbfbf" points="1794.5,-230.5 1794.5,-249.5 1935.5,-249.5 1935.5,-230.5 1794.5,-230.5"/>
<text text-anchor="middle" x="1865" y="-237.5" font-family="Helvetica,sans-Serif" font-size="10.00">iDynTree/Model/JointState.h</text>
</g>
<!-- Node1&#45;&gt;Node26 -->
<g id="edge42" class="edge"><title>Node1&#45;&gt;Node26</title>
<path fill="none" stroke="midnightblue" d="M891.313,-310.817C1060.39,-307.626 1455.71,-296.14 1785,-256 1794.68,-254.82 1804.96,-253.186 1814.81,-251.428"/>
<polygon fill="midnightblue" stroke="midnightblue" points="1815.67,-254.827 1824.87,-249.565 1814.4,-247.944 1815.67,-254.827"/>
</g>
<!-- Node27 -->
<g id="node27" class="node"><title>Node27</title>
<polygon fill="none" stroke="#bfbfbf" points="1954,-230.5 1954,-249.5 2092,-249.5 2092,-230.5 1954,-230.5"/>
<text text-anchor="middle" x="2023" y="-237.5" font-family="Helvetica,sans-Serif" font-size="10.00">iDynTree/Model/LinkState.h</text>
</g>
<!-- Node1&#45;&gt;Node27 -->
<g id="edge43" class="edge"><title>Node1&#45;&gt;Node27</title>
<path fill="none" stroke="midnightblue" d="M891,-311.833C1079.07,-310.597 1551.84,-302.669 1944,-256 1953.67,-254.849 1963.94,-253.211 1973.76,-251.438"/>
<polygon fill="midnightblue" stroke="midnightblue" points="1974.6,-254.84 1983.79,-249.555 1973.31,-247.961 1974.6,-254.84"/>
</g>
<!-- Node28 -->
<g id="node28" class="node"><title>Node28</title>
<polygon fill="none" stroke="#bfbfbf" points="2110,-230.5 2110,-249.5 2162,-249.5 2162,-230.5 2110,-230.5"/>
<text text-anchor="middle" x="2136" y="-237.5" font-family="Helvetica,sans-Serif" font-size="10.00">ostream</text>
</g>
<!-- Node1&#45;&gt;Node28 -->
<g id="edge45" class="edge"><title>Node1&#45;&gt;Node28</title>
<path fill="none" stroke="midnightblue" d="M891.064,-312.299C1138.77,-312.575 1869.47,-308.77 2101,-256 2103.9,-255.339 2106.86,-254.447 2109.78,-253.425"/>
<polygon fill="midnightblue" stroke="midnightblue" points="2111.34,-256.568 2119.33,-249.601 2108.74,-250.069 2111.34,-256.568"/>
</g>
<!-- Node3 -->
<g id="node3" class="node"><title>Node3</title>
<g id="a_node3"><a xlink:href="_w_b_block_8h.html" target="_top" xlink:title="WBBlock.h">
<polygon fill="none" stroke="black" points="292,-168.5 292,-187.5 358,-187.5 358,-168.5 292,-168.5"/>
<text text-anchor="middle" x="325" y="-175.5" font-family="Helvetica,sans-Serif" font-size="10.00">WBBlock.h</text>
</a>
</g>
</g>
<!-- Node2&#45;&gt;Node3 -->
<g id="edge2" class="edge"><title>Node2&#45;&gt;Node3</title>
<path fill="none" stroke="midnightblue" d="M419.24,-230.403C401.024,-220.468 370.827,-203.997 349.532,-192.381"/>
<polygon fill="midnightblue" stroke="midnightblue" points="351.186,-189.297 340.731,-187.581 347.834,-195.442 351.186,-189.297"/>
</g>
<!-- Node2&#45;&gt;Node6 -->
<g id="edge12" class="edge"><title>Node2&#45;&gt;Node6</title>
<path fill="none" stroke="midnightblue" d="M398.584,-230.49C366.878,-222.23 320.283,-208 283,-188 247.276,-168.836 239.736,-160.595 211,-132 188.563,-109.674 179.378,-105.132 167,-76 160.798,-61.4027 158.68,-43.4587 158.038,-30.1252"/>
<polygon fill="midnightblue" stroke="midnightblue" points="161.529,-29.7072 157.788,-19.7946 154.531,-29.8763 161.529,-29.7072"/>
</g>
<!-- Node7 -->
<g id="node7" class="node"><title>Node7</title>
<polygon fill="none" stroke="#bfbfbf" points="428.5,-0.5 428.5,-19.5 469.5,-19.5 469.5,-0.5 428.5,-0.5"/>
<text text-anchor="middle" x="449" y="-7.5" font-family="Helvetica,sans-Serif" font-size="10.00">string</text>
</g>
<!-- Node2&#45;&gt;Node7 -->
<g id="edge13" class="edge"><title>Node2&#45;&gt;Node7</title>
<path fill="none" stroke="midnightblue" d="M435.532,-230.341C437.576,-197.046 444.959,-76.8045 447.839,-29.912"/>
<polygon fill="midnightblue" stroke="midnightblue" points="451.348,-29.8638 448.468,-19.6681 444.361,-29.4348 451.348,-29.8638"/>
</g>
<!-- Node4 -->
<g id="node4" class="node"><title>Node4</title>
<g id="a_node4"><a xlink:href="_block_8h.html" target="_top" xlink:title="Block.h">
<polygon fill="none" stroke="black" points="254,-112.5 254,-131.5 304,-131.5 304,-112.5 254,-112.5"/>
<text text-anchor="middle" x="279" y="-119.5" font-family="Helvetica,sans-Serif" font-size="10.00">Block.h</text>
</a>
</g>
</g>
<!-- Node3&#45;&gt;Node4 -->
<g id="edge3" class="edge"><title>Node3&#45;&gt;Node4</title>
<path fill="none" stroke="midnightblue" d="M317.404,-168.083C310.773,-160.298 300.979,-148.801 292.942,-139.367"/>
<polygon fill="midnightblue" stroke="midnightblue" points="295.604,-137.094 286.455,-131.751 290.275,-141.633 295.604,-137.094"/>
</g>
<!-- Node3&#45;&gt;Node6 -->
<g id="edge10" class="edge"><title>Node3&#45;&gt;Node6</title>
<path fill="none" stroke="midnightblue" d="M304.006,-168.403C271.989,-154.163 211.375,-122.557 180,-76 170.533,-61.9525 164.796,-43.4576 161.565,-29.7892"/>
<polygon fill="midnightblue" stroke="midnightblue" points="164.913,-28.7029 159.415,-19.6465 158.065,-30.155 164.913,-28.7029"/>
</g>
<!-- Node3&#45;&gt;Node7 -->
<g id="edge11" class="edge"><title>Node3&#45;&gt;Node7</title>
<path fill="none" stroke="midnightblue" d="M332.712,-168.379C347.851,-151.294 382.227,-111.699 408,-76 419.312,-60.3315 430.949,-41.5852 438.921,-28.2598"/>
<polygon fill="midnightblue" stroke="midnightblue" points="441.943,-30.0254 444.022,-19.6365 435.918,-26.4616 441.943,-30.0254"/>
</g>
<!-- Node5 -->
<g id="node5" class="node"><title>Node5</title>
<g id="a_node5"><a xlink:href="_parameters_8h.html" target="_top" xlink:title="Parameters.h">
<polygon fill="none" stroke="black" points="196.5,-56.5 196.5,-75.5 271.5,-75.5 271.5,-56.5 196.5,-56.5"/>
<text text-anchor="middle" x="234" y="-63.5" font-family="Helvetica,sans-Serif" font-size="10.00">Parameters.h</text>
</a>
</g>
</g>
<!-- Node4&#45;&gt;Node5 -->
<g id="edge4" class="edge"><title>Node4&#45;&gt;Node5</title>
<path fill="none" stroke="midnightblue" d="M271.569,-112.083C265.147,-104.377 255.694,-93.0333 247.878,-83.6531"/>
<polygon fill="midnightblue" stroke="midnightblue" points="250.383,-81.1927 241.293,-75.7511 245.006,-85.674 250.383,-81.1927"/>
</g>
<!-- Node4&#45;&gt;Node7 -->
<g id="edge8" class="edge"><title>Node4&#45;&gt;Node7</title>
<path fill="none" stroke="midnightblue" d="M304.139,-112.695C325.58,-104.978 356.701,-92.2401 381,-76 401.885,-62.0417 422.221,-41.3917 435.128,-27.1301"/>
<polygon fill="midnightblue" stroke="midnightblue" points="437.812,-29.3787 441.818,-19.5702 432.57,-24.74 437.812,-29.3787"/>
</g>
<!-- Node8 -->
<g id="node8" class="node"><title>Node8</title>
<polygon fill="none" stroke="#bfbfbf" points="231,-0.5 231,-19.5 275,-19.5 275,-0.5 231,-0.5"/>
<text text-anchor="middle" x="253" y="-7.5" font-family="Helvetica,sans-Serif" font-size="10.00">vector</text>
</g>
<!-- Node4&#45;&gt;Node8 -->
<g id="edge9" class="edge"><title>Node4&#45;&gt;Node8</title>
<path fill="none" stroke="midnightblue" d="M253.727,-116.324C231.845,-110.795 201.497,-99.2294 187,-76 174.053,-55.2552 199.769,-36.2228 222.788,-24.1868"/>
<polygon fill="midnightblue" stroke="midnightblue" points="224.619,-27.186 232.04,-19.6242 221.523,-20.9078 224.619,-27.186"/>
</g>
<!-- Node5&#45;&gt;Node6 -->
<g id="edge5" class="edge"><title>Node5&#45;&gt;Node6</title>
<path fill="none" stroke="midnightblue" d="M221.789,-56.324C210.224,-48.1066 192.625,-35.6017 178.839,-25.8069"/>
<polygon fill="midnightblue" stroke="midnightblue" points="180.612,-22.7729 170.433,-19.8339 176.557,-28.4791 180.612,-22.7729"/>
</g>
<!-- Node5&#45;&gt;Node7 -->
<g id="edge6" class="edge"><title>Node5&#45;&gt;Node7</title>
<path fill="none" stroke="midnightblue" d="M268.067,-56.4435C309.48,-46.0423 378.742,-28.6462 418.482,-18.6651"/>
<polygon fill="midnightblue" stroke="midnightblue" points="419.541,-22.0078 428.387,-16.1772 417.836,-15.2186 419.541,-22.0078"/>
</g>
<!-- Node5&#45;&gt;Node8 -->
<g id="edge7" class="edge"><title>Node5&#45;&gt;Node8</title>
<path fill="none" stroke="midnightblue" d="M237.137,-56.083C239.683,-48.8486 243.356,-38.4087 246.527,-29.3968"/>
<polygon fill="midnightblue" stroke="midnightblue" points="249.903,-30.3459 249.921,-19.7511 243.3,-28.0225 249.903,-30.3459"/>
</g>
<!-- Node9&#45;&gt;Node7 -->
<g id="edge15" class="edge"><title>Node9&#45;&gt;Node7</title>
<path fill="none" stroke="midnightblue" d="M673.901,-56.426C627.219,-47.648 552.979,-33.4265 489,-20 485.963,-19.3627 482.801,-18.6815 479.643,-17.9897"/>
<polygon fill="midnightblue" stroke="midnightblue" points="480.257,-14.5408 469.736,-15.7853 478.737,-21.3738 480.257,-14.5408"/>
</g>
<!-- Node9&#45;&gt;Node8 -->
<g id="edge18" class="edge"><title>Node9&#45;&gt;Node8</title>
<path fill="none" stroke="midnightblue" d="M670.979,-57.2028C667.943,-56.779 664.931,-56.3741 662,-56 502.935,-35.6983 461.809,-42.2207 303,-20 297.322,-19.2056 291.304,-18.2343 285.485,-17.2273"/>
<polygon fill="midnightblue" stroke="midnightblue" points="285.802,-13.7284 275.341,-15.4065 284.565,-20.6183 285.802,-13.7284"/>
</g>
<!-- Node9&#45;&gt;Node10 -->
<g id="edge16" class="edge"><title>Node9&#45;&gt;Node10</title>
<path fill="none" stroke="midnightblue" d="M729.64,-56.324C738.51,-48.3414 751.875,-36.3128 762.608,-26.6529"/>
<polygon fill="midnightblue" stroke="midnightblue" points="765.093,-29.1251 770.185,-19.8339 760.41,-23.922 765.093,-29.1251"/>
</g>
<!-- Node11 -->
<g id="node11" class="node"><title>Node11</title>
<polygon fill="none" stroke="#bfbfbf" points="685,-0.5 685,-19.5 725,-19.5 725,-0.5 685,-0.5"/>
<text text-anchor="middle" x="705" y="-7.5" font-family="Helvetica,sans-Serif" font-size="10.00">utility</text>
</g>
<!-- Node9&#45;&gt;Node11 -->
<g id="edge17" class="edge"><title>Node9&#45;&gt;Node11</title>
<path fill="none" stroke="midnightblue" d="M717.523,-56.083C715.514,-48.8486 712.614,-38.4087 710.11,-29.3968"/>
<polygon fill="midnightblue" stroke="midnightblue" points="713.48,-28.4495 707.431,-19.7511 706.735,-30.323 713.48,-28.4495"/>
</g>
<!-- Node12&#45;&gt;Node6 -->
<g id="edge21" class="edge"><title>Node12&#45;&gt;Node6</title>
<path fill="none" stroke="midnightblue" d="M303.588,-56.4435C273.885,-47.1723 226.378,-32.3435 193.76,-22.1622"/>
<polygon fill="midnightblue" stroke="midnightblue" points="194.74,-18.8016 184.152,-19.1629 192.655,-25.4837 194.74,-18.8016"/>
</g>
<!-- Node12&#45;&gt;Node7 -->
<g id="edge22" class="edge"><title>Node12&#45;&gt;Node7</title>
<path fill="none" stroke="midnightblue" d="M349.697,-56.4435C368.944,-47.6356 399.152,-33.8116 421.2,-23.722"/>
<polygon fill="midnightblue" stroke="midnightblue" points="422.753,-26.8603 430.39,-19.5164 419.84,-20.4951 422.753,-26.8603"/>
</g>
<!-- Node12&#45;&gt;Node8 -->
<g id="edge23" class="edge"><title>Node12&#45;&gt;Node8</title>
<path fill="none" stroke="midnightblue" d="M318.468,-56.324C306.414,-47.979 287.973,-35.2122 273.731,-25.3524"/>
<polygon fill="midnightblue" stroke="midnightblue" points="275.715,-22.469 265.501,-19.6545 271.731,-28.2243 275.715,-22.469"/>
</g>
<!-- Node13 -->
<g id="node13" class="node"><title>Node13</title>
<polygon fill="none" stroke="#bfbfbf" points="312,-0.5 312,-19.5 350,-19.5 350,-0.5 312,-0.5"/>
<text text-anchor="middle" x="331" y="-7.5" font-family="Helvetica,sans-Serif" font-size="10.00">array</text>
</g>
<!-- Node12&#45;&gt;Node13 -->
<g id="edge20" class="edge"><title>Node12&#45;&gt;Node13</title>
<path fill="none" stroke="midnightblue" d="M331,-56.083C331,-49.0059 331,-38.8611 331,-29.9865"/>
<polygon fill="midnightblue" stroke="midnightblue" points="334.5,-29.751 331,-19.7511 327.5,-29.7511 334.5,-29.751"/>
</g>
<!-- Node14&#45;&gt;Node6 -->
<g id="edge25" class="edge"><title>Node14&#45;&gt;Node6</title>
<path fill="none" stroke="midnightblue" d="M505.426,-61.981C445.504,-53.1881 270.54,-27.514 194.259,-16.3206"/>
<polygon fill="midnightblue" stroke="midnightblue" points="194.575,-12.8296 184.173,-14.8406 193.559,-19.7554 194.575,-12.8296"/>
</g>
<!-- Node14&#45;&gt;Node7 -->
<g id="edge27" class="edge"><title>Node14&#45;&gt;Node7</title>
<path fill="none" stroke="midnightblue" d="M513.629,-56.324C501.842,-48.0577 483.868,-35.4527 469.864,-25.6322"/>
<polygon fill="midnightblue" stroke="midnightblue" points="471.538,-22.5307 461.341,-19.6545 467.518,-28.2619 471.538,-22.5307"/>
</g>
<!-- Node15 -->
<g id="node15" class="node"><title>Node15</title>
<polygon fill="none" stroke="#bfbfbf" points="498,-0.5 498,-19.5 550,-19.5 550,-0.5 498,-0.5"/>
<text text-anchor="middle" x="524" y="-7.5" font-family="Helvetica,sans-Serif" font-size="10.00">sstream</text>
</g>
<!-- Node14&#45;&gt;Node15 -->
<g id="edge26" class="edge"><title>Node14&#45;&gt;Node15</title>
<path fill="none" stroke="midnightblue" d="M525.67,-56.083C525.408,-49.0059 525.032,-38.8611 524.703,-29.9865"/>
<polygon fill="midnightblue" stroke="midnightblue" points="528.192,-29.6147 524.324,-19.7511 521.197,-29.8738 528.192,-29.6147"/>
</g>
<!-- Node16&#45;&gt;Node6 -->
<g id="edge29" class="edge"><title>Node16&#45;&gt;Node6</title>
<path fill="none" stroke="midnightblue" d="M564.241,-57.3367C561.117,-56.8645 558.013,-56.4136 555,-56 407.521,-35.7552 369.725,-38.3673 222,-20 212.939,-18.8734 203.172,-17.5537 194.063,-16.2774"/>
<polygon fill="midnightblue" stroke="midnightblue" points="194.524,-12.8078 184.131,-14.8675 193.54,-19.7383 194.524,-12.8078"/>
</g>
<!-- Node16&#45;&gt;Node7 -->
<g id="edge30" class="edge"><title>Node16&#45;&gt;Node7</title>
<path fill="none" stroke="midnightblue" d="M583.648,-56.4435C555.306,-46.8782 509.435,-31.3969 479.244,-21.2075"/>
<polygon fill="midnightblue" stroke="midnightblue" points="480.249,-17.8526 469.655,-17.971 478.01,-24.4851 480.249,-17.8526"/>
</g>
<!-- Node16&#45;&gt;Node11 -->
<g id="edge32" class="edge"><title>Node16&#45;&gt;Node11</title>
<path fill="none" stroke="midnightblue" d="M624.424,-56.324C639.54,-47.8215 662.815,-34.7288 680.471,-24.7975"/>
<polygon fill="midnightblue" stroke="midnightblue" points="682.614,-27.6077 689.614,-19.6545 679.183,-21.5066 682.614,-27.6077"/>
</g>
<!-- Node17 -->
<g id="node17" class="node"><title>Node17</title>
<polygon fill="none" stroke="#bfbfbf" points="568.5,-0.5 568.5,-19.5 651.5,-19.5 651.5,-0.5 568.5,-0.5"/>
<text text-anchor="middle" x="610" y="-7.5" font-family="Helvetica,sans-Serif" font-size="10.00">unordered_map</text>
</g>
<!-- Node16&#45;&gt;Node17 -->
<g id="edge31" class="edge"><title>Node16&#45;&gt;Node17</title>
<path fill="none" stroke="midnightblue" d="M609.165,-56.083C609.296,-49.0059 609.484,-38.8611 609.648,-29.9865"/>
<polygon fill="midnightblue" stroke="midnightblue" points="613.152,-29.8142 609.838,-19.7511 606.153,-29.6845 613.152,-29.8142"/>
</g>
<!-- Node18&#45;&gt;Node6 -->
<g id="edge34" class="edge"><title>Node18&#45;&gt;Node6</title>
<path fill="none" stroke="midnightblue" d="M53.3951,-168.43C52.3448,-147.208 52.3631,-91.3763 78,-56 88.8413,-41.0402 106.271,-30.4009 122.098,-23.2369"/>
<polygon fill="midnightblue" stroke="midnightblue" points="123.806,-26.3157 131.672,-19.218 121.097,-19.8613 123.806,-26.3157"/>
</g>
</g>
</svg>
        <g id="navigator" transform="translate(0 0)" fill="#404254">
                <rect fill="#f2f5e9" fill-opacity="0.5" stroke="#606060" stroke-width=".5" x="0" y="0" width="60" height="60"/>
                <use id="zoomplus" xlink:href="#zoomPlus" x="17" y="9" onmousedown="handleZoom(evt,'in')"/>
                <use id="zoomminus" xlink:href="#zoomMin" x="42" y="9" onmousedown="handleZoom(evt,'out')"/>
                <use id="reset" xlink:href="#resetDef" x="30" y="36" onmousedown="handleReset()"/>
                <g id="arrowUp" xlink:href="#dirArrow" transform="translate(30 24)" onmousedown="handlePan(0,-1)">
                  <use xlink:href="#rim" fill="#404040">
                        <set attributeName="fill" to="#808080" begin="arrowUp.mouseover" end="arrowUp.mouseout"/>
                  </use>
                  <path fill="none" stroke="white" stroke-width="1.5" d="M0,-3.0v7 M-2.5,-0.5L0,-3.0L2.5,-0.5"/>
                </g>
                <g id="arrowRight" xlink:href="#dirArrow" transform="rotate(90) translate(36 -43)" onmousedown="handlePan(1,0)">
                  <use xlink:href="#rim" fill="#404040">
                        <set attributeName="fill" to="#808080" begin="arrowRight.mouseover" end="arrowRight.mouseout"/>
                  </use>
                  <path fill="none" stroke="white" stroke-width="1.5" d="M0,-3.0v7 M-2.5,-0.5L0,-3.0L2.5,-0.5"/>
                </g>
                <g id="arrowDown" xlink:href="#dirArrow" transform="rotate(180) translate(-30 -48)" onmousedown="handlePan(0,1)">
                  <use xlink:href="#rim" fill="#404040">
                        <set attributeName="fill" to="#808080" begin="arrowDown.mouseover" end="arrowDown.mouseout"/>
                  </use>
                  <path fill="none" stroke="white" stroke-width="1.5" d="M0,-3.0v7 M-2.5,-0.5L0,-3.0L2.5,-0.5"/>
                </g>
                <g id="arrowLeft" xlink:href="#dirArrow" transform="rotate(270) translate(-36 17)" onmousedown="handlePan(-1,0)">
                  <use xlink:href="#rim" fill="#404040">
                        <set attributeName="fill" to="#808080" begin="arrowLeft.mouseover" end="arrowLeft.mouseout"/>
                  </use>
                  <path fill="none" stroke="white" stroke-width="1.5" d="M0,-3.0v7 M-2.5,-0.5L0,-3.0L2.5,-0.5"/>
                </g>
        </g>
        <svg viewBox="0 0 15 15" width="100%" height="30px" preserveAspectRatio="xMaxYMin meet">
         <g id="arrow_out" transform="scale(0.3 0.3)">
          <a xlink:href="_inverse_dynamics_8cpp__incl_org.svg" target="_base">
           <rect id="button" ry="5" rx="5" y="6" x="6" height="38" width="38"
                fill="#f2f5e9" fill-opacity="0.5" stroke="#606060" stroke-width="1.0"/>
           <path id="arrow"
             d="M 11.500037,31.436501 C 11.940474,20.09759 22.043105,11.32322 32.158766,21.979434 L 37.068811,17.246167 C 37.068811,17.246167 37.088388,32 37.088388,32 L 22.160133,31.978069 C 22.160133,31.978069 26.997745,27.140456 26.997745,27.140456 C 18.528582,18.264221 13.291696,25.230495 11.500037,31.436501 z"
             style="fill:#404040;"/>
          </a>
         </g>
        </svg>
</svg>
