<?xml version="1.0" encoding="UTF-8" standalone="no"?>
<!DOCTYPE svg PUBLIC "-//W3C//DTD SVG 1.1//EN"
 "http://www.w3.org/Graphics/SVG/1.1/DTD/svg11.dtd">
<!-- Generated by graphviz version 2.36.0 (20140111.2315)
 -->
<!-- Title: /home/travis/build/robotology/wb&#45;toolbox/toolbox/src/InverseDynamics.cpp Pages: 1 -->
<svg width="2094pt" height="342pt"
 viewBox="0.00 0.00 2094.00 342.00" xmlns="http://www.w3.org/2000/svg" xmlns:xlink="http://www.w3.org/1999/xlink">
<g id="graph0" class="graph" transform="scale(1 1) rotate(0) translate(4 338)">
<title>/home/travis/build/robotology/wb&#45;toolbox/toolbox/src/InverseDynamics.cpp</title>
<!-- Node1 -->
<g id="node1" class="node"><title>Node1</title>
<polygon fill="#bfbfbf" stroke="black" points="742,-292.5 742,-333.5 908,-333.5 908,-292.5 742,-292.5"/>
<text text-anchor="start" x="750" y="-321.5" font-family="Helvetica,sans-Serif" font-size="10.00">/home/travis/build</text>
<text text-anchor="start" x="750" y="-310.5" font-family="Helvetica,sans-Serif" font-size="10.00">/robotology/wb&#45;toolbox</text>
<text text-anchor="middle" x="825" y="-299.5" font-family="Helvetica,sans-Serif" font-size="10.00">/toolbox/src/InverseDynamics.cpp</text>
</g>
<!-- Node2 -->
<g id="node2" class="node"><title>Node2</title>
<g id="a_node2"><a xlink:href="_inverse_dynamics_8h.html" target="_top" xlink:title="InverseDynamics.h">
<polygon fill="none" stroke="black" points="192.5,-230.5 192.5,-249.5 293.5,-249.5 293.5,-230.5 192.5,-230.5"/>
<text text-anchor="middle" x="243" y="-237.5" font-family="Helvetica,sans-Serif" font-size="10.00">InverseDynamics.h</text>
</a>
</g>
</g>
<!-- Node1&#45;&gt;Node2 -->
<g id="edge1" class="edge"><title>Node1&#45;&gt;Node2</title>
<path fill="none" stroke="midnightblue" d="M741.635,-302.613C647.096,-291.855 488.362,-273.453 352,-256 336.38,-254.001 319.516,-251.733 303.829,-249.578"/>
<polygon fill="midnightblue" stroke="midnightblue" points="304.101,-246.083 293.716,-248.182 303.143,-253.017 304.101,-246.083"/>
</g>
<!-- Node6 -->
<g id="node6" class="node"><title>Node6</title>
<polygon fill="none" stroke="#bfbfbf" points="208,-0.5 208,-19.5 260,-19.5 260,-0.5 208,-0.5"/>
<text text-anchor="middle" x="234" y="-7.5" font-family="Helvetica,sans-Serif" font-size="10.00">memory</text>
</g>
<!-- Node1&#45;&gt;Node6 -->
<g id="edge42" class="edge"><title>Node1&#45;&gt;Node6</title>
<path fill="none" stroke="midnightblue" d="M741.789,-310.799C579.555,-307.584 226.894,-296.073 113,-256 55.6714,-235.829 0,-239.774 0,-179 0,-179 0,-179 0,-121 0,-34.8918 131.38,-16.0658 197.254,-12.0384"/>
<polygon fill="midnightblue" stroke="midnightblue" points="197.809,-15.5141 207.612,-11.4943 197.442,-8.52374 197.809,-15.5141"/>
</g>
<!-- Node9 -->
<g id="node9" class="node"><title>Node9</title>
<g id="a_node9"><a xlink:href="_block_information_8h.html" target="_top" xlink:title="BlockInformation.h">
<polygon fill="none" stroke="black" points="467,-56.5 467,-75.5 565,-75.5 565,-56.5 467,-56.5"/>
<text text-anchor="middle" x="516" y="-63.5" font-family="Helvetica,sans-Serif" font-size="10.00">BlockInformation.h</text>
</a>
</g>
</g>
<!-- Node1&#45;&gt;Node9 -->
<g id="edge13" class="edge"><title>Node1&#45;&gt;Node9</title>
<path fill="none" stroke="midnightblue" d="M741.974,-306.608C666.933,-299.894 564.186,-285.494 537,-256 493.2,-208.481 504.105,-123.127 511.664,-85.5824"/>
<polygon fill="midnightblue" stroke="midnightblue" points="515.138,-86.0752 513.838,-75.5604 508.297,-84.591 515.138,-86.0752"/>
</g>
<!-- Node11 -->
<g id="node11" class="node"><title>Node11</title>
<g id="a_node11"><a xlink:href="_configuration_8h.html" target="_top" xlink:title="Configuration.h">
<polygon fill="none" stroke="black" points="289.5,-56.5 289.5,-75.5 372.5,-75.5 372.5,-56.5 289.5,-56.5"/>
<text text-anchor="middle" x="331" y="-63.5" font-family="Helvetica,sans-Serif" font-size="10.00">Configuration.h</text>
</a>
</g>
</g>
<!-- Node1&#45;&gt;Node11 -->
<g id="edge18" class="edge"><title>Node1&#45;&gt;Node11</title>
<path fill="none" stroke="midnightblue" d="M741.945,-310.911C676.314,-306.899 584.222,-294.074 513,-256 432.636,-213.039 366.734,-121.81 341.765,-83.9827"/>
<polygon fill="midnightblue" stroke="midnightblue" points="344.693,-82.0642 336.315,-75.5781 338.819,-85.8727 344.693,-82.0642"/>
</g>
<!-- Node12 -->
<g id="node12" class="node"><title>Node12</title>
<g id="a_node12"><a xlink:href="_log_8h.html" target="_top" xlink:title="Log.h">
<polygon fill="none" stroke="black" points="583.5,-56.5 583.5,-75.5 624.5,-75.5 624.5,-56.5 583.5,-56.5"/>
<text text-anchor="middle" x="604" y="-63.5" font-family="Helvetica,sans-Serif" font-size="10.00">Log.h</text>
</a>
</g>
</g>
<!-- Node1&#45;&gt;Node12 -->
<g id="edge22" class="edge"><title>Node1&#45;&gt;Node12</title>
<path fill="none" stroke="midnightblue" d="M741.954,-305.986C671.813,-298.974 579.175,-284.497 556,-256 513.843,-204.163 565.217,-119.919 590.964,-84.0459"/>
<polygon fill="midnightblue" stroke="midnightblue" points="594.042,-85.769 597.167,-75.6454 588.411,-81.6107 594.042,-85.769"/>
</g>
<!-- Node14 -->
<g id="node14" class="node"><title>Node14</title>
<g id="a_node14"><a xlink:href="_robot_interface_8h.html" target="_top" xlink:title="RobotInterface.h">
<polygon fill="none" stroke="black" points="642.5,-56.5 642.5,-75.5 731.5,-75.5 731.5,-56.5 642.5,-56.5"/>
<text text-anchor="middle" x="687" y="-63.5" font-family="Helvetica,sans-Serif" font-size="10.00">RobotInterface.h</text>
</a>
</g>
</g>
<!-- Node1&#45;&gt;Node14 -->
<g id="edge26" class="edge"><title>Node1&#45;&gt;Node14</title>
<path fill="none" stroke="midnightblue" d="M741.982,-304.633C676.935,-296.939 594.033,-282.219 573,-256 525.008,-196.172 621.751,-114.362 666.242,-81.5162"/>
<polygon fill="midnightblue" stroke="midnightblue" points="668.337,-84.3202 674.385,-75.621 664.232,-78.6501 668.337,-84.3202"/>
</g>
<!-- Node16 -->
<g id="node16" class="node"><title>Node16</title>
<g id="a_node16"><a xlink:href="_signal_8h.html" target="_top" xlink:title="Signal.h">
<polygon fill="none" stroke="black" points="28,-168.5 28,-187.5 80,-187.5 80,-168.5 28,-168.5"/>
<text text-anchor="middle" x="54" y="-175.5" font-family="Helvetica,sans-Serif" font-size="10.00">Signal.h</text>
</a>
</g>
</g>
<!-- Node1&#45;&gt;Node16 -->
<g id="edge31" class="edge"><title>Node1&#45;&gt;Node16</title>
<path fill="none" stroke="midnightblue" d="M741.808,-309.368C592.405,-303.877 284.736,-288.878 183,-256 140.307,-242.203 96.7417,-212.18 72.7543,-193.967"/>
<polygon fill="midnightblue" stroke="midnightblue" points="74.6117,-190.979 64.5621,-187.624 70.326,-196.513 74.6117,-190.979"/>
</g>
<!-- Node17 -->
<g id="node17" class="node"><title>Node17</title>
<polygon fill="none" stroke="#bfbfbf" points="581.5,-230.5 581.5,-249.5 646.5,-249.5 646.5,-230.5 581.5,-230.5"/>
<text text-anchor="middle" x="614" y="-237.5" font-family="Helvetica,sans-Serif" font-size="10.00">Eigen/Core</text>
</g>
<!-- Node1&#45;&gt;Node17 -->
<g id="edge33" class="edge"><title>Node1&#45;&gt;Node17</title>
<path fill="none" stroke="midnightblue" d="M763.859,-292.391C731.427,-281.855 690.956,-268.496 655,-256 652.248,-255.044 649.398,-254.036 646.542,-253.015"/>
<polygon fill="midnightblue" stroke="midnightblue" points="647.533,-249.651 636.939,-249.541 645.152,-256.234 647.533,-249.651"/>
</g>
<!-- Node18 -->
<g id="node18" class="node"><title>Node18</title>
<polygon fill="none" stroke="#bfbfbf" points="664,-230.5 664,-249.5 814,-249.5 814,-230.5 664,-230.5"/>
<text text-anchor="middle" x="739" y="-237.5" font-family="Helvetica,sans-Serif" font-size="10.00">iDynTree/Core/EigenHelpers.h</text>
</g>
<!-- Node1&#45;&gt;Node18 -->
<g id="edge34" class="edge"><title>Node1&#45;&gt;Node18</title>
<path fill="none" stroke="midnightblue" d="M801.044,-292.223C787.314,-280.887 770.338,-266.872 757.616,-256.369"/>
<polygon fill="midnightblue" stroke="midnightblue" points="759.52,-253.402 749.58,-249.735 755.064,-258.8 759.52,-253.402"/>
</g>
<!-- Node19 -->
<g id="node19" class="node"><title>Node19</title>
<polygon fill="none" stroke="#bfbfbf" points="832,-230.5 832,-249.5 990,-249.5 990,-230.5 832,-230.5"/>
<text text-anchor="middle" x="911" y="-237.5" font-family="Helvetica,sans-Serif" font-size="10.00">iDynTree/Core/VectorDynSize.h</text>
</g>
<!-- Node1&#45;&gt;Node19 -->
<g id="edge35" class="edge"><title>Node1&#45;&gt;Node19</title>
<path fill="none" stroke="midnightblue" d="M848.956,-292.223C862.686,-280.887 879.662,-266.872 892.384,-256.369"/>
<polygon fill="midnightblue" stroke="midnightblue" points="894.936,-258.8 900.42,-249.735 890.48,-253.402 894.936,-258.8"/>
</g>
<!-- Node20 -->
<g id="node20" class="node"><title>Node20</title>
<polygon fill="none" stroke="#bfbfbf" points="1008.5,-230.5 1008.5,-249.5 1161.5,-249.5 1161.5,-230.5 1008.5,-230.5"/>
<text text-anchor="middle" x="1085" y="-237.5" font-family="Helvetica,sans-Serif" font-size="10.00">iDynTree/Core/VectorFixSize.h</text>
</g>
<!-- Node1&#45;&gt;Node20 -->
<g id="edge36" class="edge"><title>Node1&#45;&gt;Node20</title>
<path fill="none" stroke="midnightblue" d="M896.734,-292.411C944.162,-279.46 1004.64,-262.946 1044.06,-252.179"/>
<polygon fill="midnightblue" stroke="midnightblue" points="1045.13,-255.515 1053.86,-249.504 1043.29,-248.762 1045.13,-255.515"/>
</g>
<!-- Node21 -->
<g id="node21" class="node"><title>Node21</title>
<polygon fill="none" stroke="#bfbfbf" points="1179.5,-230.5 1179.5,-249.5 1304.5,-249.5 1304.5,-230.5 1179.5,-230.5"/>
<text text-anchor="middle" x="1242" y="-237.5" font-family="Helvetica,sans-Serif" font-size="10.00">iDynTree/Core/Wrench.h</text>
</g>
<!-- Node1&#45;&gt;Node21 -->
<g id="edge37" class="edge"><title>Node1&#45;&gt;Node21</title>
<path fill="none" stroke="midnightblue" d="M908.134,-299.567C978.126,-288.845 1080.8,-272.522 1170,-256 1177.33,-254.642 1185.07,-253.122 1192.64,-251.586"/>
<polygon fill="midnightblue" stroke="midnightblue" points="1193.36,-255.011 1202.45,-249.569 1191.95,-248.155 1193.36,-255.011"/>
</g>
<!-- Node22 -->
<g id="node22" class="node"><title>Node22</title>
<polygon fill="none" stroke="#bfbfbf" points="1322.5,-230.5 1322.5,-249.5 1483.5,-249.5 1483.5,-230.5 1322.5,-230.5"/>
<text text-anchor="middle" x="1403" y="-237.5" font-family="Helvetica,sans-Serif" font-size="10.00">iDynTree/KinDynComputations.h</text>
</g>
<!-- Node1&#45;&gt;Node22 -->
<g id="edge38" class="edge"><title>Node1&#45;&gt;Node22</title>
<path fill="none" stroke="midnightblue" d="M908.056,-303.77C1005.3,-293.833 1171.13,-275.95 1313,-256 1323.22,-254.562 1334.07,-252.885 1344.57,-251.182"/>
<polygon fill="midnightblue" stroke="midnightblue" points="1345.19,-254.627 1354.49,-249.549 1344.06,-247.72 1345.19,-254.627"/>
</g>
<!-- Node23 -->
<g id="node23" class="node"><title>Node23</title>
<polygon fill="none" stroke="#bfbfbf" points="1501.5,-225 1501.5,-255 1644.5,-255 1644.5,-225 1501.5,-225"/>
<text text-anchor="start" x="1509.5" y="-243" font-family="Helvetica,sans-Serif" font-size="10.00">iDynTree/Model/FreeFloating</text>
<text text-anchor="middle" x="1573" y="-232" font-family="Helvetica,sans-Serif" font-size="10.00">State.h</text>
</g>
<!-- Node1&#45;&gt;Node23 -->
<g id="edge39" class="edge"><title>Node1&#45;&gt;Node23</title>
<path fill="none" stroke="midnightblue" d="M908.215,-307.676C1032.8,-300.612 1275.33,-284.575 1491.14,-256.029"/>
<polygon fill="midnightblue" stroke="midnightblue" points="1491.62,-259.496 1501.07,-254.704 1490.7,-252.557 1491.62,-259.496"/>
</g>
<!-- Node24 -->
<g id="node24" class="node"><title>Node24</title>
<polygon fill="none" stroke="#bfbfbf" points="1662.5,-230.5 1662.5,-249.5 1803.5,-249.5 1803.5,-230.5 1662.5,-230.5"/>
<text text-anchor="middle" x="1733" y="-237.5" font-family="Helvetica,sans-Serif" font-size="10.00">iDynTree/Model/JointState.h</text>
</g>
<!-- Node1&#45;&gt;Node24 -->
<g id="edge40" class="edge"><title>Node1&#45;&gt;Node24</title>
<path fill="none" stroke="midnightblue" d="M908.167,-309.616C1057.73,-304.61 1381.79,-290.475 1653,-256 1662.57,-254.783 1672.73,-253.148 1682.48,-251.405"/>
<polygon fill="midnightblue" stroke="midnightblue" points="1683.25,-254.822 1692.45,-249.562 1681.98,-247.938 1683.25,-254.822"/>
</g>
<!-- Node25 -->
<g id="node25" class="node"><title>Node25</title>
<polygon fill="none" stroke="#bfbfbf" points="1822,-230.5 1822,-249.5 1960,-249.5 1960,-230.5 1822,-230.5"/>
<text text-anchor="middle" x="1891" y="-237.5" font-family="Helvetica,sans-Serif" font-size="10.00">iDynTree/Model/LinkState.h</text>
</g>
<!-- Node1&#45;&gt;Node25 -->
<g id="edge41" class="edge"><title>Node1&#45;&gt;Node25</title>
<path fill="none" stroke="midnightblue" d="M908.192,-310.952C1078.46,-307.998 1478.75,-296.913 1812,-256 1821.56,-254.826 1831.71,-253.194 1841.44,-251.438"/>
<polygon fill="midnightblue" stroke="midnightblue" points="1842.19,-254.857 1851.38,-249.575 1840.9,-247.977 1842.19,-254.857"/>
</g>
<!-- Node26 -->
<g id="node26" class="node"><title>Node26</title>
<polygon fill="none" stroke="#bfbfbf" points="1978,-230.5 1978,-249.5 2030,-249.5 2030,-230.5 1978,-230.5"/>
<text text-anchor="middle" x="2004" y="-237.5" font-family="Helvetica,sans-Serif" font-size="10.00">ostream</text>
</g>
<!-- Node1&#45;&gt;Node26 -->
<g id="edge43" class="edge"><title>Node1&#45;&gt;Node26</title>
<path fill="none" stroke="midnightblue" d="M908.088,-311.746C1135.95,-310.443 1767.13,-302.606 1969,-256 1971.9,-255.331 1974.86,-254.433 1977.77,-253.409"/>
<polygon fill="midnightblue" stroke="midnightblue" points="1979.34,-256.55 1987.32,-249.581 1976.74,-250.053 1979.34,-256.55"/>
</g>
<!-- Node27 -->
<g id="node27" class="node"><title>Node27</title>
<polygon fill="none" stroke="#bfbfbf" points="2048,-230.5 2048,-249.5 2086,-249.5 2086,-230.5 2048,-230.5"/>
<text text-anchor="middle" x="2067" y="-237.5" font-family="Helvetica,sans-Serif" font-size="10.00">tuple</text>
</g>
<!-- Node1&#45;&gt;Node27 -->
<g id="edge44" class="edge"><title>Node1&#45;&gt;Node27</title>
<path fill="none" stroke="midnightblue" d="M908.432,-310.288C1164.89,-304.73 1930.88,-285.802 2039,-256 2040.91,-255.472 2042.84,-254.797 2044.75,-254.025"/>
<polygon fill="midnightblue" stroke="midnightblue" points="2046.38,-257.124 2053.84,-249.605 2043.32,-250.828 2046.38,-257.124"/>
</g>
<!-- Node3 -->
<g id="node3" class="node"><title>Node3</title>
<g id="a_node3"><a xlink:href="_w_b_block_8h.html" target="_top" xlink:title="WBBlock.h">
<polygon fill="none" stroke="black" points="201,-168.5 201,-187.5 267,-187.5 267,-168.5 201,-168.5"/>
<text text-anchor="middle" x="234" y="-175.5" font-family="Helvetica,sans-Serif" font-size="10.00">WBBlock.h</text>
</a>
</g>
</g>
<!-- Node2&#45;&gt;Node3 -->
<g id="edge2" class="edge"><title>Node2&#45;&gt;Node3</title>
<path fill="none" stroke="midnightblue" d="M241.711,-230.403C240.427,-221.849 238.417,-208.45 236.771,-197.476"/>
<polygon fill="midnightblue" stroke="midnightblue" points="240.232,-196.951 235.287,-187.581 233.309,-197.989 240.232,-196.951"/>
</g>
<!-- Node2&#45;&gt;Node6 -->
<g id="edge11" class="edge"><title>Node2&#45;&gt;Node6</title>
<path fill="none" stroke="midnightblue" d="M230.709,-230.39C218.759,-221.302 201.116,-205.841 192,-188 169.06,-143.105 178.013,-126.257 174,-76 173.293,-67.1393 170.025,-63.9505 174,-56 180.728,-42.5432 193.606,-32.0665 205.712,-24.6212"/>
<polygon fill="midnightblue" stroke="midnightblue" points="207.733,-27.4985 214.704,-19.5195 204.279,-21.4101 207.733,-27.4985"/>
</g>
<!-- Node7 -->
<g id="node7" class="node"><title>Node7</title>
<polygon fill="none" stroke="#bfbfbf" points="418.5,-0.5 418.5,-19.5 459.5,-19.5 459.5,-0.5 418.5,-0.5"/>
<text text-anchor="middle" x="439" y="-7.5" font-family="Helvetica,sans-Serif" font-size="10.00">string</text>
</g>
<!-- Node2&#45;&gt;Node7 -->
<g id="edge12" class="edge"><title>Node2&#45;&gt;Node7</title>
<path fill="none" stroke="midnightblue" d="M253.685,-230.412C281.544,-207.613 357.591,-142.732 406,-76 416.659,-61.3061 425.734,-42.6722 431.653,-29.1265"/>
<polygon fill="midnightblue" stroke="midnightblue" points="434.879,-30.4837 435.538,-19.9094 428.429,-27.7646 434.879,-30.4837"/>
</g>
<!-- Node4 -->
<g id="node4" class="node"><title>Node4</title>
<g id="a_node4"><a xlink:href="_block_8h.html" target="_top" xlink:title="Block.h">
<polygon fill="none" stroke="black" points="209,-112.5 209,-131.5 259,-131.5 259,-112.5 209,-112.5"/>
<text text-anchor="middle" x="234" y="-119.5" font-family="Helvetica,sans-Serif" font-size="10.00">Block.h</text>
</a>
</g>
</g>
<!-- Node3&#45;&gt;Node4 -->
<g id="edge3" class="edge"><title>Node3&#45;&gt;Node4</title>
<path fill="none" stroke="midnightblue" d="M234,-168.083C234,-161.006 234,-150.861 234,-141.986"/>
<polygon fill="midnightblue" stroke="midnightblue" points="237.5,-141.751 234,-131.751 230.5,-141.751 237.5,-141.751"/>
</g>
<!-- Node3&#45;&gt;Node6 -->
<g id="edge10" class="edge"><title>Node3&#45;&gt;Node6</title>
<path fill="none" stroke="midnightblue" d="M226.098,-168.25C218.578,-159.564 207.35,-145.614 200,-132 187.445,-108.744 184.511,-102.041 180,-76 178.483,-67.2415 176.23,-64.0497 180,-56 186.045,-43.0941 197.812,-32.5985 208.823,-24.9999"/>
<polygon fill="midnightblue" stroke="midnightblue" points="210.828,-27.8723 217.367,-19.5364 207.057,-21.9748 210.828,-27.8723"/>
</g>
<!-- Node5 -->
<g id="node5" class="node"><title>Node5</title>
<g id="a_node5"><a xlink:href="_parameters_8h.html" target="_top" xlink:title="Parameters.h">
<polygon fill="none" stroke="black" points="196.5,-56.5 196.5,-75.5 271.5,-75.5 271.5,-56.5 196.5,-56.5"/>
<text text-anchor="middle" x="234" y="-63.5" font-family="Helvetica,sans-Serif" font-size="10.00">Parameters.h</text>
</a>
</g>
</g>
<!-- Node4&#45;&gt;Node5 -->
<g id="edge4" class="edge"><title>Node4&#45;&gt;Node5</title>
<path fill="none" stroke="midnightblue" d="M234,-112.083C234,-105.006 234,-94.8611 234,-85.9865"/>
<polygon fill="midnightblue" stroke="midnightblue" points="237.5,-85.751 234,-75.7511 230.5,-85.7511 237.5,-85.751"/>
</g>
<!-- Node4&#45;&gt;Node7 -->
<g id="edge8" class="edge"><title>Node4&#45;&gt;Node7</title>
<path fill="none" stroke="midnightblue" d="M259.145,-117.553C289.89,-112.424 342.567,-100.615 381,-76 400.432,-63.5541 417.304,-42.8542 427.765,-28.1604"/>
<polygon fill="midnightblue" stroke="midnightblue" points="430.919,-29.7487 433.675,-19.5188 425.141,-25.7967 430.919,-29.7487"/>
</g>
<!-- Node8 -->
<g id="node8" class="node"><title>Node8</title>
<polygon fill="none" stroke="#bfbfbf" points="294,-0.5 294,-19.5 338,-19.5 338,-0.5 294,-0.5"/>
<text text-anchor="middle" x="316" y="-7.5" font-family="Helvetica,sans-Serif" font-size="10.00">vector</text>
</g>
<!-- Node4&#45;&gt;Node8 -->
<g id="edge9" class="edge"><title>Node4&#45;&gt;Node8</title>
<path fill="none" stroke="midnightblue" d="M219.884,-112.412C201.295,-100.004 172.566,-76.3226 187,-56 198.42,-39.9208 249.438,-25.7426 283.79,-17.7808"/>
<polygon fill="midnightblue" stroke="midnightblue" points="284.867,-21.126 293.853,-15.5142 283.329,-14.297 284.867,-21.126"/>
</g>
<!-- Node5&#45;&gt;Node6 -->
<g id="edge5" class="edge"><title>Node5&#45;&gt;Node6</title>
<path fill="none" stroke="midnightblue" d="M234,-56.083C234,-49.0059 234,-38.8611 234,-29.9865"/>
<polygon fill="midnightblue" stroke="midnightblue" points="237.5,-29.751 234,-19.7511 230.5,-29.7511 237.5,-29.751"/>
</g>
<!-- Node5&#45;&gt;Node7 -->
<g id="edge6" class="edge"><title>Node5&#45;&gt;Node7</title>
<path fill="none" stroke="midnightblue" d="M266.483,-56.4435C305.388,-46.1953 370.073,-29.1565 408.211,-19.1103"/>
<polygon fill="midnightblue" stroke="midnightblue" points="409.442,-22.4055 418.221,-16.4736 407.659,-15.6364 409.442,-22.4055"/>
</g>
<!-- Node5&#45;&gt;Node8 -->
<g id="edge7" class="edge"><title>Node5&#45;&gt;Node8</title>
<path fill="none" stroke="midnightblue" d="M247.175,-56.324C259.847,-47.979 279.233,-35.2122 294.206,-25.3524"/>
<polygon fill="midnightblue" stroke="midnightblue" points="296.431,-28.0776 302.858,-19.6545 292.581,-22.2313 296.431,-28.0776"/>
</g>
<!-- Node9&#45;&gt;Node6 -->
<g id="edge14" class="edge"><title>Node9&#45;&gt;Node6</title>
<path fill="none" stroke="midnightblue" d="M471.316,-56.4435C415.668,-45.7875 321.679,-27.7897 270.269,-17.945"/>
<polygon fill="midnightblue" stroke="midnightblue" points="270.755,-14.4748 260.276,-16.0315 269.439,-21.3499 270.755,-14.4748"/>
</g>
<!-- Node9&#45;&gt;Node7 -->
<g id="edge15" class="edge"><title>Node9&#45;&gt;Node7</title>
<path fill="none" stroke="midnightblue" d="M503.629,-56.324C491.842,-48.0577 473.868,-35.4527 459.864,-25.6322"/>
<polygon fill="midnightblue" stroke="midnightblue" points="461.538,-22.5307 451.341,-19.6545 457.518,-28.2619 461.538,-22.5307"/>
</g>
<!-- Node9&#45;&gt;Node8 -->
<g id="edge17" class="edge"><title>Node9&#45;&gt;Node8</title>
<path fill="none" stroke="midnightblue" d="M484.309,-56.4435C447.058,-46.3856 385.581,-29.7869 348.137,-19.677"/>
<polygon fill="midnightblue" stroke="midnightblue" points="348.82,-16.2361 338.253,-17.0084 346.995,-22.9942 348.82,-16.2361"/>
</g>
<!-- Node10 -->
<g id="node10" class="node"><title>Node10</title>
<polygon fill="none" stroke="#bfbfbf" points="507,-0.5 507,-19.5 547,-19.5 547,-0.5 507,-0.5"/>
<text text-anchor="middle" x="527" y="-7.5" font-family="Helvetica,sans-Serif" font-size="10.00">utility</text>
</g>
<!-- Node9&#45;&gt;Node10 -->
<g id="edge16" class="edge"><title>Node9&#45;&gt;Node10</title>
<path fill="none" stroke="midnightblue" d="M517.816,-56.083C519.274,-48.9272 521.371,-38.6353 523.193,-29.6911"/>
<polygon fill="midnightblue" stroke="midnightblue" points="526.651,-30.2485 525.217,-19.7511 519.792,-28.8512 526.651,-30.2485"/>
</g>
<!-- Node11&#45;&gt;Node6 -->
<g id="edge19" class="edge"><title>Node11&#45;&gt;Node6</title>
<path fill="none" stroke="midnightblue" d="M315.415,-56.324C300.001,-47.7428 276.188,-34.486 258.29,-24.5224"/>
<polygon fill="midnightblue" stroke="midnightblue" points="259.986,-21.4606 249.546,-19.6545 256.581,-27.5767 259.986,-21.4606"/>
</g>
<!-- Node11&#45;&gt;Node7 -->
<g id="edge20" class="edge"><title>Node11&#45;&gt;Node7</title>
<path fill="none" stroke="midnightblue" d="M348.352,-56.324C365.672,-47.6641 392.515,-34.2424 412.502,-24.249"/>
<polygon fill="midnightblue" stroke="midnightblue" points="414.312,-27.2572 421.691,-19.6545 411.181,-20.9962 414.312,-27.2572"/>
</g>
<!-- Node11&#45;&gt;Node8 -->
<g id="edge21" class="edge"><title>Node11&#45;&gt;Node8</title>
<path fill="none" stroke="midnightblue" d="M328.523,-56.083C326.514,-48.8486 323.614,-38.4087 321.11,-29.3968"/>
<polygon fill="midnightblue" stroke="midnightblue" points="324.48,-28.4495 318.431,-19.7511 317.735,-30.323 324.48,-28.4495"/>
</g>
<!-- Node12&#45;&gt;Node6 -->
<g id="edge23" class="edge"><title>Node12&#45;&gt;Node6</title>
<path fill="none" stroke="midnightblue" d="M583.437,-58.5375C579.976,-57.5919 576.403,-56.7021 573,-56 446.665,-29.9358 412.557,-39.2149 285,-20 280.196,-19.2764 275.148,-18.4573 270.173,-17.6153"/>
<polygon fill="midnightblue" stroke="midnightblue" points="270.617,-14.14 260.166,-15.878 269.42,-21.0369 270.617,-14.14"/>
</g>
<!-- Node12&#45;&gt;Node7 -->
<g id="edge25" class="edge"><title>Node12&#45;&gt;Node7</title>
<path fill="none" stroke="midnightblue" d="M583.436,-58.27C554.704,-48.8667 502.352,-31.7333 469.191,-20.8806"/>
<polygon fill="midnightblue" stroke="midnightblue" points="470.156,-17.5138 459.563,-17.7297 467.978,-24.1666 470.156,-17.5138"/>
</g>
<!-- Node13 -->
<g id="node13" class="node"><title>Node13</title>
<polygon fill="none" stroke="#bfbfbf" points="576,-0.5 576,-19.5 628,-19.5 628,-0.5 576,-0.5"/>
<text text-anchor="middle" x="602" y="-7.5" font-family="Helvetica,sans-Serif" font-size="10.00">sstream</text>
</g>
<!-- Node12&#45;&gt;Node13 -->
<g id="edge24" class="edge"><title>Node12&#45;&gt;Node13</title>
<path fill="none" stroke="midnightblue" d="M603.67,-56.083C603.408,-49.0059 603.032,-38.8611 602.703,-29.9865"/>
<polygon fill="midnightblue" stroke="midnightblue" points="606.192,-29.6147 602.324,-19.7511 599.197,-29.8738 606.192,-29.6147"/>
</g>
<!-- Node14&#45;&gt;Node6 -->
<g id="edge27" class="edge"><title>Node14&#45;&gt;Node6</title>
<path fill="none" stroke="midnightblue" d="M642.243,-57.3208C639.118,-56.8523 636.014,-56.4067 633,-56 478.904,-35.2086 438.995,-41.5249 285,-20 280.189,-19.3275 275.137,-18.538 270.16,-17.7108"/>
<polygon fill="midnightblue" stroke="midnightblue" points="270.599,-14.235 260.15,-15.9853 269.41,-21.1333 270.599,-14.235"/>
</g>
<!-- Node14&#45;&gt;Node7 -->
<g id="edge28" class="edge"><title>Node14&#45;&gt;Node7</title>
<path fill="none" stroke="midnightblue" d="M647.704,-56.4435C598.264,-45.6785 514.413,-27.4206 469.52,-17.6454"/>
<polygon fill="midnightblue" stroke="midnightblue" points="470.027,-14.174 459.512,-15.4662 468.538,-21.0138 470.027,-14.174"/>
</g>
<!-- Node14&#45;&gt;Node10 -->
<g id="edge30" class="edge"><title>Node14&#45;&gt;Node10</title>
<path fill="none" stroke="midnightblue" d="M661.648,-56.4435C633.147,-46.8247 586.922,-31.2238 556.74,-21.0372"/>
<polygon fill="midnightblue" stroke="midnightblue" points="557.762,-17.6883 547.168,-17.8067 555.524,-24.3207 557.762,-17.6883"/>
</g>
<!-- Node15 -->
<g id="node15" class="node"><title>Node15</title>
<polygon fill="none" stroke="#bfbfbf" points="646.5,-0.5 646.5,-19.5 729.5,-19.5 729.5,-0.5 646.5,-0.5"/>
<text text-anchor="middle" x="688" y="-7.5" font-family="Helvetica,sans-Serif" font-size="10.00">unordered_map</text>
</g>
<!-- Node14&#45;&gt;Node15 -->
<g id="edge29" class="edge"><title>Node14&#45;&gt;Node15</title>
<path fill="none" stroke="midnightblue" d="M687.165,-56.083C687.296,-49.0059 687.484,-38.8611 687.648,-29.9865"/>
<polygon fill="midnightblue" stroke="midnightblue" points="691.152,-29.8142 687.838,-19.7511 684.153,-29.6845 691.152,-29.8142"/>
</g>
<!-- Node16&#45;&gt;Node6 -->
<g id="edge32" class="edge"><title>Node16&#45;&gt;Node6</title>
<path fill="none" stroke="midnightblue" d="M52.9422,-168.357C50.7777,-146.475 48.3033,-88.3357 78,-56 108.629,-22.6493 162.246,-13.4348 197.94,-11.1976"/>
<polygon fill="midnightblue" stroke="midnightblue" points="198.124,-14.6928 207.947,-10.7225 197.792,-7.70072 198.124,-14.6928"/>
</g>
</g>
</svg>
