<?xml version="1.0" encoding="UTF-8" standalone="no"?>
<!DOCTYPE svg PUBLIC "-//W3C//DTD SVG 1.1//EN"
 "http://www.w3.org/Graphics/SVG/1.1/DTD/svg11.dtd">
<!-- Generated by graphviz version 2.36.0 (20140111.2315)
 -->
<!-- Title: /home/travis/build/robotology/wb&#45;toolbox/toolbox/include/InverseDynamics.h Pages: 1 -->
<svg width="233pt" height="274pt"
 viewBox="0.00 0.00 233.00 274.00" xmlns="http://www.w3.org/2000/svg" xmlns:xlink="http://www.w3.org/1999/xlink">
<g id="graph0" class="graph" transform="scale(1 1) rotate(0) translate(4 270)">
<title>/home/travis/build/robotology/wb&#45;toolbox/toolbox/include/InverseDynamics.h</title>
<!-- Node1 -->
<g id="node1" class="node"><title>Node1</title>
<polygon fill="#bfbfbf" stroke="black" points="-0.5,-224.5 -0.5,-265.5 172.5,-265.5 172.5,-224.5 -0.5,-224.5"/>
<text text-anchor="start" x="7.5" y="-253.5" font-family="Helvetica,sans-Serif" font-size="10.00">/home/travis/build</text>
<text text-anchor="start" x="7.5" y="-242.5" font-family="Helvetica,sans-Serif" font-size="10.00">/robotology/wb&#45;toolbox</text>
<text text-anchor="middle" x="86" y="-231.5" font-family="Helvetica,sans-Serif" font-size="10.00">/toolbox/include/InverseDynamics.h</text>
</g>
<!-- Node2 -->
<g id="node2" class="node"><title>Node2</title>
<g id="a_node2"><a xlink:href="_w_b_block_8h.html" target="_top" xlink:title="WBBlock.h">
<polygon fill="none" stroke="black" points="53,-168.5 53,-187.5 119,-187.5 119,-168.5 53,-168.5"/>
<text text-anchor="middle" x="86" y="-175.5" font-family="Helvetica,sans-Serif" font-size="10.00">WBBlock.h</text>
</a>
</g>
</g>
<!-- Node1&#45;&gt;Node2 -->
<g id="edge1" class="edge"><title>Node1&#45;&gt;Node2</title>
<path fill="none" stroke="midnightblue" d="M86,-224.498C86,-216.065 86,-206.235 86,-197.874"/>
<polygon fill="midnightblue" stroke="midnightblue" points="89.5001,-197.652 86,-187.652 82.5001,-197.653 89.5001,-197.652"/>
</g>
<!-- Node5 -->
<g id="node5" class="node"><title>Node5</title>
<polygon fill="none" stroke="#bfbfbf" points="9,-0.5 9,-19.5 61,-19.5 61,-0.5 9,-0.5"/>
<text text-anchor="middle" x="35" y="-7.5" font-family="Helvetica,sans-Serif" font-size="10.00">memory</text>
</g>
<!-- Node1&#45;&gt;Node5 -->
<g id="edge10" class="edge"><title>Node1&#45;&gt;Node5</title>
<path fill="none" stroke="midnightblue" d="M66.7973,-224.481C58.1835,-214.436 48.8789,-201.485 44,-188 24.2416,-133.389 28.7262,-63.09 32.4461,-29.9223"/>
<polygon fill="midnightblue" stroke="midnightblue" points="35.9409,-30.1783 33.689,-19.8255 28.9934,-29.323 35.9409,-30.1783"/>
</g>
<!-- Node6 -->
<g id="node6" class="node"><title>Node6</title>
<polygon fill="none" stroke="#bfbfbf" points="184.5,-0.5 184.5,-19.5 225.5,-19.5 225.5,-0.5 184.5,-0.5"/>
<text text-anchor="middle" x="205" y="-7.5" font-family="Helvetica,sans-Serif" font-size="10.00">string</text>
</g>
<!-- Node1&#45;&gt;Node6 -->
<g id="edge11" class="edge"><title>Node1&#45;&gt;Node6</title>
<path fill="none" stroke="midnightblue" d="M106.391,-224.059C134.755,-194.735 184.793,-136.84 204,-76 208.73,-61.0166 208.611,-43.1065 207.519,-29.8842"/>
<polygon fill="midnightblue" stroke="midnightblue" points="210.968,-29.2247 206.405,-19.6627 204.009,-29.9829 210.968,-29.2247"/>
</g>
<!-- Node3 -->
<g id="node3" class="node"><title>Node3</title>
<g id="a_node3"><a xlink:href="_block_8h.html" target="_top" xlink:title="Block.h">
<polygon fill="none" stroke="black" points="89,-112.5 89,-131.5 139,-131.5 139,-112.5 89,-112.5"/>
<text text-anchor="middle" x="114" y="-119.5" font-family="Helvetica,sans-Serif" font-size="10.00">Block.h</text>
</a>
</g>
</g>
<!-- Node2&#45;&gt;Node3 -->
<g id="edge2" class="edge"><title>Node2&#45;&gt;Node3</title>
<path fill="none" stroke="midnightblue" d="M90.6236,-168.083C94.4563,-160.691 100.024,-149.953 104.765,-140.811"/>
<polygon fill="midnightblue" stroke="midnightblue" points="107.966,-142.24 109.462,-131.751 101.752,-139.018 107.966,-142.24"/>
</g>
<!-- Node2&#45;&gt;Node5 -->
<g id="edge9" class="edge"><title>Node2&#45;&gt;Node5</title>
<path fill="none" stroke="midnightblue" d="M83.258,-168.075C75.2302,-141.945 51.6551,-65.2106 40.7074,-29.577"/>
<polygon fill="midnightblue" stroke="midnightblue" points="43.9149,-28.0992 37.6324,-19.5681 37.2236,-30.1551 43.9149,-28.0992"/>
</g>
<!-- Node4 -->
<g id="node4" class="node"><title>Node4</title>
<g id="a_node4"><a xlink:href="_parameters_8h.html" target="_top" xlink:title="Parameters.h">
<polygon fill="none" stroke="black" points="101.5,-56.5 101.5,-75.5 176.5,-75.5 176.5,-56.5 101.5,-56.5"/>
<text text-anchor="middle" x="139" y="-63.5" font-family="Helvetica,sans-Serif" font-size="10.00">Parameters.h</text>
</a>
</g>
</g>
<!-- Node3&#45;&gt;Node4 -->
<g id="edge3" class="edge"><title>Node3&#45;&gt;Node4</title>
<path fill="none" stroke="midnightblue" d="M118.128,-112.083C121.514,-104.77 126.416,-94.1814 130.619,-85.1034"/>
<polygon fill="midnightblue" stroke="midnightblue" points="133.923,-86.2962 134.949,-75.7511 127.571,-83.3553 133.923,-86.2962"/>
</g>
<!-- Node3&#45;&gt;Node6 -->
<g id="edge7" class="edge"><title>Node3&#45;&gt;Node6</title>
<path fill="none" stroke="midnightblue" d="M135.226,-112.441C151.085,-105.021 172.157,-92.8176 185,-76 195.291,-62.5244 200.33,-43.7127 202.771,-29.7925"/>
<polygon fill="midnightblue" stroke="midnightblue" points="206.237,-30.2741 204.222,-19.8728 199.311,-29.2607 206.237,-30.2741"/>
</g>
<!-- Node7 -->
<g id="node7" class="node"><title>Node7</title>
<polygon fill="none" stroke="#bfbfbf" points="98,-0.5 98,-19.5 142,-19.5 142,-0.5 98,-0.5"/>
<text text-anchor="middle" x="120" y="-7.5" font-family="Helvetica,sans-Serif" font-size="10.00">vector</text>
</g>
<!-- Node3&#45;&gt;Node7 -->
<g id="edge8" class="edge"><title>Node3&#45;&gt;Node7</title>
<path fill="none" stroke="midnightblue" d="M107.77,-112.24C99.719,-99.8215 87.3653,-76.3432 93,-56 95.7919,-45.9205 101.509,-35.832 106.967,-27.7694"/>
<polygon fill="midnightblue" stroke="midnightblue" points="109.825,-29.7899 112.849,-19.6357 104.153,-25.6881 109.825,-29.7899"/>
</g>
<!-- Node4&#45;&gt;Node5 -->
<g id="edge4" class="edge"><title>Node4&#45;&gt;Node5</title>
<path fill="none" stroke="midnightblue" d="M122.291,-56.324C105.688,-47.7034 79.9979,-34.3643 60.7795,-24.3855"/>
<polygon fill="midnightblue" stroke="midnightblue" points="62.1558,-21.1565 51.6679,-19.6545 58.93,-27.3689 62.1558,-21.1565"/>
</g>
<!-- Node4&#45;&gt;Node6 -->
<g id="edge5" class="edge"><title>Node4&#45;&gt;Node6</title>
<path fill="none" stroke="midnightblue" d="M149.604,-56.324C159.456,-48.2631 174.351,-36.0765 186.215,-26.3695"/>
<polygon fill="midnightblue" stroke="midnightblue" points="188.68,-28.8752 194.203,-19.8339 184.247,-23.4575 188.68,-28.8752"/>
</g>
<!-- Node4&#45;&gt;Node7 -->
<g id="edge6" class="edge"><title>Node4&#45;&gt;Node7</title>
<path fill="none" stroke="midnightblue" d="M135.863,-56.083C133.317,-48.8486 129.644,-38.4087 126.473,-29.3968"/>
<polygon fill="midnightblue" stroke="midnightblue" points="129.7,-28.0225 123.079,-19.7511 123.097,-30.3459 129.7,-28.0225"/>
</g>
</g>
</svg>
