<?xml version="1.0" encoding="UTF-8" standalone="no"?>
<!DOCTYPE svg PUBLIC "-//W3C//DTD SVG 1.1//EN"
 "http://www.w3.org/Graphics/SVG/1.1/DTD/svg11.dtd">
<!-- Generated by graphviz version 2.36.0 (20140111.2315)
 -->
<!-- Title: /home/travis/build/robotology/wb&#45;toolbox/toolbox/src/Jacobian.cpp Pages: 1 -->
<!--zoomable 330 -->
<svg id="main" version="1.1" xmlns="http://www.w3.org/2000/svg" xmlns:xlink="http://www.w3.org/1999/xlink" xml:space="preserve" onload="init(evt)">
<style type="text/css"><![CDATA[
.edge:hover path { stroke: red; }
.edge:hover polygon { stroke: red; fill: red; }
]]></style>
<script type="text/javascript"><![CDATA[
var edges = document.getElementsByTagName('g');
if (edges && edges.length) {
  for (var i=0;i<edges.length;i++) {
    if (edges[i].id.substr(0,4)=='edge') {
      edges[i].setAttribute('class','edge');
    }
  }
}
]]></script>
        <defs>
                <circle id="rim" cx="0" cy="0" r="7"/>
                <circle id="rim2" cx="0" cy="0" r="3.5"/>
                <g id="zoomPlus">
                        <use xlink:href="#rim" fill="#404040">
                                <set attributeName="fill" to="#808080" begin="zoomplus.mouseover" end="zoomplus.mouseout"/>
                        </use>
                        <path d="M-4,0h8M0,-4v8" fill="none" stroke="white" stroke-width="1.5" pointer-events="none"/>
                </g>
                <g id="zoomMin">
                        <use xlink:href="#rim" fill="#404040">
                                <set attributeName="fill" to="#808080" begin="zoomminus.mouseover" end="zoomminus.mouseout"/>
                        </use>
                        <path d="M-4,0h8" fill="none" stroke="white" stroke-width="1.5" pointer-events="none"/>
                </g>
                <g id="dirArrow">
                        <path fill="none" stroke="white" stroke-width="1.5" d="M0,-3.0v7 M-2.5,-0.5L0,-3.0L2.5,-0.5"/>
                </g>
               <g id="resetDef">
                       <use xlink:href="#rim2" fill="#404040">
                               <set attributeName="fill" to="#808080" begin="reset.mouseover" end="reset.mouseout"/>
                       </use>
               </g>
        </defs>

<script type="text/javascript">
var viewWidth = 1666;
var viewHeight = 330;
var sectionId = 'dynsection-0';
</script>
<script xlink:href="svgpan.js"/>
<svg id="graph" class="graph">
<g id="viewport">
<title>/home/travis/build/robotology/wb&#45;toolbox/toolbox/src/Jacobian.cpp</title>
<!-- Node1 -->
<g id="node1" class="node"><title>Node1</title>
<polygon fill="#bfbfbf" stroke="black" points="590,-280.5 590,-321.5 718,-321.5 718,-280.5 590,-280.5"/>
<text text-anchor="start" x="598" y="-309.5" font-family="Helvetica,sans-Serif" font-size="10.00">/home/travis/build</text>
<text text-anchor="start" x="598" y="-298.5" font-family="Helvetica,sans-Serif" font-size="10.00">/robotology/wb&#45;toolbox</text>
<text text-anchor="middle" x="654" y="-287.5" font-family="Helvetica,sans-Serif" font-size="10.00">/toolbox/src/Jacobian.cpp</text>
</g>
<!-- Node2 -->
<g id="node2" class="node"><title>Node2</title>
<g id="a_node2"><a xlink:href="_jacobian_8h.html" target="_top" xlink:title="Jacobian.h">
<polygon fill="none" stroke="black" points="383,-224.5 383,-243.5 447,-243.5 447,-224.5 383,-224.5"/>
<text text-anchor="middle" x="415" y="-231.5" font-family="Helvetica,sans-Serif" font-size="10.00">Jacobian.h</text>
</a>
</g>
</g>
<!-- Node1&#45;&gt;Node2 -->
<g id="edge1" class="edge"><title>Node1&#45;&gt;Node2</title>
<path fill="none" stroke="midnightblue" d="M589.952,-282.581C547.486,-271.032 493.015,-256.217 456.221,-246.211"/>
<polygon fill="midnightblue" stroke="midnightblue" points="456.905,-242.77 446.337,-243.523 455.068,-249.524 456.905,-242.77"/>
</g>
<!-- Node5 -->
<g id="node5" class="node"><title>Node5</title>
<g id="a_node5"><a xlink:href="_parameters_8h.html" target="_top" xlink:title="Parameters.h">
<polygon fill="none" stroke="black" points="227.5,-56.5 227.5,-75.5 302.5,-75.5 302.5,-56.5 227.5,-56.5"/>
<text text-anchor="middle" x="265" y="-63.5" font-family="Helvetica,sans-Serif" font-size="10.00">Parameters.h</text>
</a>
</g>
</g>
<!-- Node1&#45;&gt;Node5 -->
<g id="edge28" class="edge"><title>Node1&#45;&gt;Node5</title>
<path fill="none" stroke="midnightblue" d="M589.88,-295.856C531.319,-290.094 443.536,-276.403 374,-244 337.887,-227.172 327.639,-220.071 304,-188 288.134,-166.475 290.286,-157.424 282,-132 276.968,-116.56 272.381,-98.6904 269.244,-85.5994"/>
<polygon fill="midnightblue" stroke="midnightblue" points="272.569,-84.4477 266.885,-75.5067 265.753,-86.0409 272.569,-84.4477"/>
</g>
<!-- Node6 -->
<g id="node6" class="node"><title>Node6</title>
<polygon fill="none" stroke="#bfbfbf" points="446,-0.5 446,-19.5 498,-19.5 498,-0.5 446,-0.5"/>
<text text-anchor="middle" x="472" y="-7.5" font-family="Helvetica,sans-Serif" font-size="10.00">memory</text>
</g>
<!-- Node1&#45;&gt;Node6 -->
<g id="edge42" class="edge"><title>Node1&#45;&gt;Node6</title>
<path fill="none" stroke="midnightblue" d="M589.839,-282.829C541.317,-265.503 483,-233.37 483,-179 483,-179 483,-179 483,-121 483,-88.7881 478.272,-51.5325 475.015,-29.692"/>
<polygon fill="midnightblue" stroke="midnightblue" points="478.43,-28.8736 473.438,-19.5287 471.513,-29.9472 478.43,-28.8736"/>
</g>
<!-- Node9 -->
<g id="node9" class="node"><title>Node9</title>
<g id="a_node9"><a xlink:href="_block_information_8h.html" target="_top" xlink:title="BlockInformation.h">
<polygon fill="none" stroke="black" points="571,-56.5 571,-75.5 669,-75.5 669,-56.5 571,-56.5"/>
<text text-anchor="middle" x="620" y="-63.5" font-family="Helvetica,sans-Serif" font-size="10.00">BlockInformation.h</text>
</a>
</g>
</g>
<!-- Node1&#45;&gt;Node9 -->
<g id="edge13" class="edge"><title>Node1&#45;&gt;Node9</title>
<path fill="none" stroke="midnightblue" d="M649.534,-280.271C644.624,-257.974 636.799,-220.543 632,-188 626.681,-151.926 623.076,-109.445 621.294,-85.6263"/>
<polygon fill="midnightblue" stroke="midnightblue" points="624.778,-85.2648 620.567,-75.5427 617.796,-85.7688 624.778,-85.2648"/>
</g>
<!-- Node11 -->
<g id="node11" class="node"><title>Node11</title>
<g id="a_node11"><a xlink:href="_configuration_8h.html" target="_top" xlink:title="Configuration.h">
<polygon fill="none" stroke="black" points="126.5,-56.5 126.5,-75.5 209.5,-75.5 209.5,-56.5 126.5,-56.5"/>
<text text-anchor="middle" x="168" y="-63.5" font-family="Helvetica,sans-Serif" font-size="10.00">Configuration.h</text>
</a>
</g>
</g>
<!-- Node1&#45;&gt;Node11 -->
<g id="edge17" class="edge"><title>Node1&#45;&gt;Node11</title>
<path fill="none" stroke="midnightblue" d="M589.701,-300.49C522.167,-298.42 414.758,-287.632 334,-244 260.847,-204.477 201.824,-120.692 178.624,-84.3837"/>
<polygon fill="midnightblue" stroke="midnightblue" points="181.554,-82.4679 173.278,-75.8528 175.622,-86.185 181.554,-82.4679"/>
</g>
<!-- Node12 -->
<g id="node12" class="node"><title>Node12</title>
<g id="a_node12"><a xlink:href="_log_8h.html" target="_top" xlink:title="Log.h">
<polygon fill="none" stroke="black" points="511.5,-56.5 511.5,-75.5 552.5,-75.5 552.5,-56.5 511.5,-56.5"/>
<text text-anchor="middle" x="532" y="-63.5" font-family="Helvetica,sans-Serif" font-size="10.00">Log.h</text>
</a>
</g>
</g>
<!-- Node1&#45;&gt;Node12 -->
<g id="edge21" class="edge"><title>Node1&#45;&gt;Node12</title>
<path fill="none" stroke="midnightblue" d="M643.598,-280.135C620.126,-235.306 563.364,-126.901 541.14,-84.456"/>
<polygon fill="midnightblue" stroke="midnightblue" points="544.235,-82.8219 536.496,-75.5863 538.034,-86.0689 544.235,-82.8219"/>
</g>
<!-- Node14 -->
<g id="node14" class="node"><title>Node14</title>
<g id="a_node14"><a xlink:href="_parameter_8h.html" target="_top" xlink:title="Parameter.h">
<polygon fill="none" stroke="black" points="0,-56.5 0,-75.5 70,-75.5 70,-56.5 0,-56.5"/>
<text text-anchor="middle" x="35" y="-63.5" font-family="Helvetica,sans-Serif" font-size="10.00">Parameter.h</text>
</a>
</g>
</g>
<!-- Node1&#45;&gt;Node14 -->
<g id="edge25" class="edge"><title>Node1&#45;&gt;Node14</title>
<path fill="none" stroke="midnightblue" d="M589.827,-298.091C517.206,-294.078 396.481,-281.742 300,-244 196.58,-203.544 92.4236,-117.715 52.265,-82.535"/>
<polygon fill="midnightblue" stroke="midnightblue" points="54.4985,-79.8378 44.6903,-75.8314 49.8593,-85.0798 54.4985,-79.8378"/>
</g>
<!-- Node15 -->
<g id="node15" class="node"><title>Node15</title>
<g id="a_node15"><a xlink:href="_robot_interface_8h.html" target="_top" xlink:title="RobotInterface.h">
<polygon fill="none" stroke="black" points="725.5,-56.5 725.5,-75.5 814.5,-75.5 814.5,-56.5 725.5,-56.5"/>
<text text-anchor="middle" x="770" y="-63.5" font-family="Helvetica,sans-Serif" font-size="10.00">RobotInterface.h</text>
</a>
</g>
</g>
<!-- Node1&#45;&gt;Node15 -->
<g id="edge29" class="edge"><title>Node1&#45;&gt;Node15</title>
<path fill="none" stroke="midnightblue" d="M663.89,-280.135C686.161,-235.401 739.951,-127.358 761.175,-84.7255"/>
<polygon fill="midnightblue" stroke="midnightblue" points="764.402,-86.0982 765.725,-75.5863 758.135,-82.9784 764.402,-86.0982"/>
</g>
<!-- Node17 -->
<g id="node17" class="node"><title>Node17</title>
<g id="a_node17"><a xlink:href="_signal_8h.html" target="_top" xlink:title="Signal.h">
<polygon fill="none" stroke="black" points="641,-168.5 641,-187.5 693,-187.5 693,-168.5 641,-168.5"/>
<text text-anchor="middle" x="667" y="-175.5" font-family="Helvetica,sans-Serif" font-size="10.00">Signal.h</text>
</a>
</g>
</g>
<!-- Node1&#45;&gt;Node17 -->
<g id="edge34" class="edge"><title>Node1&#45;&gt;Node17</title>
<path fill="none" stroke="midnightblue" d="M654.702,-280.261C655.392,-264.888 656.689,-243.034 659,-224 660.065,-215.227 661.718,-205.57 663.245,-197.459"/>
<polygon fill="midnightblue" stroke="midnightblue" points="666.691,-198.071 665.183,-187.584 659.822,-196.723 666.691,-198.071"/>
</g>
<!-- Node18 -->
<g id="node18" class="node"><title>Node18</title>
<polygon fill="none" stroke="#bfbfbf" points="701.5,-224.5 701.5,-243.5 766.5,-243.5 766.5,-224.5 701.5,-224.5"/>
<text text-anchor="middle" x="734" y="-231.5" font-family="Helvetica,sans-Serif" font-size="10.00">Eigen/Core</text>
</g>
<!-- Node1&#45;&gt;Node18 -->
<g id="edge36" class="edge"><title>Node1&#45;&gt;Node18</title>
<path fill="none" stroke="midnightblue" d="M678.003,-280.498C690.032,-270.724 704.373,-259.072 715.53,-250.007"/>
<polygon fill="midnightblue" stroke="midnightblue" points="717.797,-252.675 723.351,-243.652 713.383,-247.242 717.797,-252.675"/>
</g>
<!-- Node19 -->
<g id="node19" class="node"><title>Node19</title>
<polygon fill="none" stroke="#bfbfbf" points="784,-224.5 784,-243.5 934,-243.5 934,-224.5 784,-224.5"/>
<text text-anchor="middle" x="859" y="-231.5" font-family="Helvetica,sans-Serif" font-size="10.00">iDynTree/Core/EigenHelpers.h</text>
</g>
<!-- Node1&#45;&gt;Node19 -->
<g id="edge37" class="edge"><title>Node1&#45;&gt;Node19</title>
<path fill="none" stroke="midnightblue" d="M715.507,-280.498C750.367,-269.444 792.802,-255.99 822.447,-246.59"/>
<polygon fill="midnightblue" stroke="midnightblue" points="823.506,-249.926 831.981,-243.567 821.391,-243.253 823.506,-249.926"/>
</g>
<!-- Node20 -->
<g id="node20" class="node"><title>Node20</title>
<polygon fill="none" stroke="#bfbfbf" points="952,-224.5 952,-243.5 1108,-243.5 1108,-224.5 952,-224.5"/>
<text text-anchor="middle" x="1030" y="-231.5" font-family="Helvetica,sans-Serif" font-size="10.00">iDynTree/Core/MatrixDynSize.h</text>
</g>
<!-- Node1&#45;&gt;Node20 -->
<g id="edge38" class="edge"><title>Node1&#45;&gt;Node20</title>
<path fill="none" stroke="midnightblue" d="M718.209,-288.9C788.934,-276.674 901.734,-257.174 970.515,-245.283"/>
<polygon fill="midnightblue" stroke="midnightblue" points="971.49,-248.667 980.748,-243.514 970.298,-241.769 971.49,-248.667"/>
</g>
<!-- Node21 -->
<g id="node21" class="node"><title>Node21</title>
<polygon fill="none" stroke="#bfbfbf" points="1126,-224.5 1126,-243.5 1262,-243.5 1262,-224.5 1126,-224.5"/>
<text text-anchor="middle" x="1194" y="-231.5" font-family="Helvetica,sans-Serif" font-size="10.00">iDynTree/Core/Transform.h</text>
</g>
<!-- Node1&#45;&gt;Node21 -->
<g id="edge39" class="edge"><title>Node1&#45;&gt;Node21</title>
<path fill="none" stroke="midnightblue" d="M718.066,-292.288C817.392,-280.332 1008.26,-257.357 1115.65,-244.431"/>
<polygon fill="midnightblue" stroke="midnightblue" points="1116.27,-247.882 1125.78,-243.212 1115.43,-240.932 1116.27,-247.882"/>
</g>
<!-- Node22 -->
<g id="node22" class="node"><title>Node22</title>
<polygon fill="none" stroke="#bfbfbf" points="1280.5,-224.5 1280.5,-243.5 1441.5,-243.5 1441.5,-224.5 1280.5,-224.5"/>
<text text-anchor="middle" x="1361" y="-231.5" font-family="Helvetica,sans-Serif" font-size="10.00">iDynTree/KinDynComputations.h</text>
</g>
<!-- Node1&#45;&gt;Node22 -->
<g id="edge40" class="edge"><title>Node1&#45;&gt;Node22</title>
<path fill="none" stroke="midnightblue" d="M718.417,-294.349C828.866,-284.617 1061.77,-263.906 1269.85,-244.102"/>
<polygon fill="midnightblue" stroke="midnightblue" points="1270.43,-247.563 1280.05,-243.13 1269.76,-240.595 1270.43,-247.563"/>
</g>
<!-- Node23 -->
<g id="node23" class="node"><title>Node23</title>
<polygon fill="none" stroke="#bfbfbf" points="1460,-224.5 1460,-243.5 1588,-243.5 1588,-224.5 1460,-224.5"/>
<text text-anchor="middle" x="1524" y="-231.5" font-family="Helvetica,sans-Serif" font-size="10.00">iDynTree/Model/Indices.h</text>
</g>
<!-- Node1&#45;&gt;Node23 -->
<g id="edge41" class="edge"><title>Node1&#45;&gt;Node23</title>
<path fill="none" stroke="midnightblue" d="M718.062,-296.6C851.752,-289.265 1170.43,-270.525 1449.52,-243.992"/>
<polygon fill="midnightblue" stroke="midnightblue" points="1450.22,-247.44 1459.85,-243.005 1449.56,-240.472 1450.22,-247.44"/>
</g>
<!-- Node24 -->
<g id="node24" class="node"><title>Node24</title>
<polygon fill="none" stroke="#bfbfbf" points="1606,-224.5 1606,-243.5 1658,-243.5 1658,-224.5 1606,-224.5"/>
<text text-anchor="middle" x="1632" y="-231.5" font-family="Helvetica,sans-Serif" font-size="10.00">ostream</text>
</g>
<!-- Node1&#45;&gt;Node24 -->
<g id="edge43" class="edge"><title>Node1&#45;&gt;Node24</title>
<path fill="none" stroke="midnightblue" d="M718.202,-300.425C869.732,-300.518 1261.37,-295.446 1595.38,-243.946"/>
<polygon fill="midnightblue" stroke="midnightblue" points="1596.4,-247.329 1605.74,-242.33 1595.32,-240.413 1596.4,-247.329"/>
</g>
<!-- Node3 -->
<g id="node3" class="node"><title>Node3</title>
<g id="a_node3"><a xlink:href="_w_b_block_8h.html" target="_top" xlink:title="WBBlock.h">
<polygon fill="none" stroke="black" points="313,-168.5 313,-187.5 379,-187.5 379,-168.5 313,-168.5"/>
<text text-anchor="middle" x="346" y="-175.5" font-family="Helvetica,sans-Serif" font-size="10.00">WBBlock.h</text>
</a>
</g>
</g>
<!-- Node2&#45;&gt;Node3 -->
<g id="edge2" class="edge"><title>Node2&#45;&gt;Node3</title>
<path fill="none" stroke="midnightblue" d="M403.914,-224.324C393.514,-216.185 377.739,-203.839 365.278,-194.087"/>
<polygon fill="midnightblue" stroke="midnightblue" points="367.32,-191.241 357.288,-187.834 363.006,-196.753 367.32,-191.241"/>
</g>
<!-- Node2&#45;&gt;Node6 -->
<g id="edge11" class="edge"><title>Node2&#45;&gt;Node6</title>
<path fill="none" stroke="midnightblue" d="M417.234,-224.297C425.639,-191.563 455.471,-75.3752 467.207,-29.6664"/>
<polygon fill="midnightblue" stroke="midnightblue" points="470.622,-30.44 469.719,-19.8837 463.842,-28.6991 470.622,-30.44"/>
</g>
<!-- Node7 -->
<g id="node7" class="node"><title>Node7</title>
<polygon fill="none" stroke="#bfbfbf" points="348.5,-0.5 348.5,-19.5 389.5,-19.5 389.5,-0.5 348.5,-0.5"/>
<text text-anchor="middle" x="369" y="-7.5" font-family="Helvetica,sans-Serif" font-size="10.00">string</text>
</g>
<!-- Node2&#45;&gt;Node7 -->
<g id="edge12" class="edge"><title>Node2&#45;&gt;Node7</title>
<path fill="none" stroke="midnightblue" d="M413.197,-224.297C406.428,-191.633 382.441,-75.8661 372.928,-29.9573"/>
<polygon fill="midnightblue" stroke="midnightblue" points="376.297,-28.9656 370.841,-19.8837 369.443,-30.3859 376.297,-28.9656"/>
</g>
<!-- Node4 -->
<g id="node4" class="node"><title>Node4</title>
<g id="a_node4"><a xlink:href="_block_8h.html" target="_top" xlink:title="Block.h">
<polygon fill="none" stroke="black" points="291,-112.5 291,-131.5 341,-131.5 341,-112.5 291,-112.5"/>
<text text-anchor="middle" x="316" y="-119.5" font-family="Helvetica,sans-Serif" font-size="10.00">Block.h</text>
</a>
</g>
</g>
<!-- Node3&#45;&gt;Node4 -->
<g id="edge3" class="edge"><title>Node3&#45;&gt;Node4</title>
<path fill="none" stroke="midnightblue" d="M341.046,-168.083C336.896,-160.613 330.847,-149.724 325.733,-140.52"/>
<polygon fill="midnightblue" stroke="midnightblue" points="328.778,-138.793 320.862,-131.751 322.659,-142.192 328.778,-138.793"/>
</g>
<!-- Node3&#45;&gt;Node6 -->
<g id="edge10" class="edge"><title>Node3&#45;&gt;Node6</title>
<path fill="none" stroke="midnightblue" d="M351.616,-168.22C364.733,-147.894 398.728,-96.2642 431,-56 439.014,-46.0006 448.635,-35.3786 456.541,-26.9668"/>
<polygon fill="midnightblue" stroke="midnightblue" points="459.127,-29.3269 463.489,-19.6716 454.058,-24.4994 459.127,-29.3269"/>
</g>
<!-- Node4&#45;&gt;Node5 -->
<g id="edge4" class="edge"><title>Node4&#45;&gt;Node5</title>
<path fill="none" stroke="midnightblue" d="M307.578,-112.083C300.152,-104.22 289.148,-92.5688 280.188,-83.0813"/>
<polygon fill="midnightblue" stroke="midnightblue" points="282.676,-80.618 273.265,-75.7511 277.587,-85.4244 282.676,-80.618"/>
</g>
<!-- Node4&#45;&gt;Node7 -->
<g id="edge8" class="edge"><title>Node4&#45;&gt;Node7</title>
<path fill="none" stroke="midnightblue" d="M320.159,-112.368C328.828,-94.376 348.98,-52.5503 360.507,-28.6267"/>
<polygon fill="midnightblue" stroke="midnightblue" points="363.673,-30.1195 364.86,-19.5914 357.367,-27.081 363.673,-30.1195"/>
</g>
<!-- Node8 -->
<g id="node8" class="node"><title>Node8</title>
<polygon fill="none" stroke="#bfbfbf" points="111,-0.5 111,-19.5 155,-19.5 155,-0.5 111,-0.5"/>
<text text-anchor="middle" x="133" y="-7.5" font-family="Helvetica,sans-Serif" font-size="10.00">vector</text>
</g>
<!-- Node4&#45;&gt;Node8 -->
<g id="edge9" class="edge"><title>Node4&#45;&gt;Node8</title>
<path fill="none" stroke="midnightblue" d="M290.787,-119.116C242.204,-114.905 138.504,-102.91 117,-76 106.154,-62.4271 113.432,-42.5395 121.365,-28.3414"/>
<polygon fill="midnightblue" stroke="midnightblue" points="124.501,-29.9225 126.747,-19.5685 118.535,-26.2621 124.501,-29.9225"/>
</g>
<!-- Node5&#45;&gt;Node6 -->
<g id="edge5" class="edge"><title>Node5&#45;&gt;Node6</title>
<path fill="none" stroke="midnightblue" d="M297.8,-56.4435C335.473,-46.6156 397.087,-30.5427 436.041,-20.3807"/>
<polygon fill="midnightblue" stroke="midnightblue" points="437.115,-23.7176 445.908,-17.8067 435.348,-16.9443 437.115,-23.7176"/>
</g>
<!-- Node5&#45;&gt;Node7 -->
<g id="edge6" class="edge"><title>Node5&#45;&gt;Node7</title>
<path fill="none" stroke="midnightblue" d="M281.709,-56.324C298.312,-47.7034 324.002,-34.3643 343.22,-24.3855"/>
<polygon fill="midnightblue" stroke="midnightblue" points="345.07,-27.3689 352.332,-19.6545 341.844,-21.1565 345.07,-27.3689"/>
</g>
<!-- Node5&#45;&gt;Node8 -->
<g id="edge7" class="edge"><title>Node5&#45;&gt;Node8</title>
<path fill="none" stroke="midnightblue" d="M244.084,-56.4435C222.264,-47.5171 187.85,-33.4387 163.108,-23.3168"/>
<polygon fill="midnightblue" stroke="midnightblue" points="164.399,-20.0634 153.818,-19.5164 161.748,-26.5422 164.399,-20.0634"/>
</g>
<!-- Node9&#45;&gt;Node6 -->
<g id="edge14" class="edge"><title>Node9&#45;&gt;Node6</title>
<path fill="none" stroke="midnightblue" d="M596.549,-56.4435C571.867,-47.4381 532.815,-33.1891 505.023,-23.049"/>
<polygon fill="midnightblue" stroke="midnightblue" points="505.935,-19.6561 495.341,-19.5164 503.536,-26.2321 505.935,-19.6561"/>
</g>
<!-- Node9&#45;&gt;Node7 -->
<g id="edge15" class="edge"><title>Node9&#45;&gt;Node7</title>
<path fill="none" stroke="midnightblue" d="M580.228,-56.4435C530.085,-45.6558 444.967,-27.3435 399.602,-17.5837"/>
<polygon fill="midnightblue" stroke="midnightblue" points="400.272,-14.1479 389.76,-15.4662 398.8,-20.9913 400.272,-14.1479"/>
</g>
<!-- Node10 -->
<g id="node10" class="node"><title>Node10</title>
<polygon fill="none" stroke="#bfbfbf" points="635,-0.5 635,-19.5 675,-19.5 675,-0.5 635,-0.5"/>
<text text-anchor="middle" x="655" y="-7.5" font-family="Helvetica,sans-Serif" font-size="10.00">utility</text>
</g>
<!-- Node9&#45;&gt;Node10 -->
<g id="edge16" class="edge"><title>Node9&#45;&gt;Node10</title>
<path fill="none" stroke="midnightblue" d="M625.78,-56.083C630.672,-48.5341 637.827,-37.4948 643.833,-28.2298"/>
<polygon fill="midnightblue" stroke="midnightblue" points="646.826,-30.0463 649.328,-19.7511 640.952,-26.239 646.826,-30.0463"/>
</g>
<!-- Node11&#45;&gt;Node6 -->
<g id="edge18" class="edge"><title>Node11&#45;&gt;Node6</title>
<path fill="none" stroke="midnightblue" d="M209.74,-57.4779C212.535,-56.9769 215.308,-56.4807 218,-56 295.584,-42.1448 386.532,-26.0733 435.806,-17.3801"/>
<polygon fill="midnightblue" stroke="midnightblue" points="436.429,-20.8244 445.669,-15.6405 435.213,-13.9308 436.429,-20.8244"/>
</g>
<!-- Node11&#45;&gt;Node7 -->
<g id="edge19" class="edge"><title>Node11&#45;&gt;Node7</title>
<path fill="none" stroke="midnightblue" d="M199.849,-56.4435C237.894,-46.2225 301.081,-29.2468 338.514,-19.1904"/>
<polygon fill="midnightblue" stroke="midnightblue" points="339.597,-22.5236 348.346,-16.5488 337.781,-15.7633 339.597,-22.5236"/>
</g>
<!-- Node11&#45;&gt;Node8 -->
<g id="edge20" class="edge"><title>Node11&#45;&gt;Node8</title>
<path fill="none" stroke="midnightblue" d="M162.22,-56.083C157.328,-48.5341 150.173,-37.4948 144.167,-28.2298"/>
<polygon fill="midnightblue" stroke="midnightblue" points="147.048,-26.239 138.672,-19.7511 141.174,-30.0463 147.048,-26.239"/>
</g>
<!-- Node12&#45;&gt;Node6 -->
<g id="edge22" class="edge"><title>Node12&#45;&gt;Node6</title>
<path fill="none" stroke="midnightblue" d="M522.36,-56.324C513.49,-48.3414 500.125,-36.3128 489.392,-26.6529"/>
<polygon fill="midnightblue" stroke="midnightblue" points="491.59,-23.922 481.815,-19.8339 486.907,-29.1251 491.59,-23.922"/>
</g>
<!-- Node12&#45;&gt;Node7 -->
<g id="edge24" class="edge"><title>Node12&#45;&gt;Node7</title>
<path fill="none" stroke="midnightblue" d="M511.356,-58.1609C483.019,-48.7732 431.879,-31.831 399.227,-21.0139"/>
<polygon fill="midnightblue" stroke="midnightblue" points="400.327,-17.6911 389.733,-17.8687 398.125,-24.336 400.327,-17.6911"/>
</g>
<!-- Node13 -->
<g id="node13" class="node"><title>Node13</title>
<polygon fill="none" stroke="#bfbfbf" points="516,-0.5 516,-19.5 568,-19.5 568,-0.5 516,-0.5"/>
<text text-anchor="middle" x="542" y="-7.5" font-family="Helvetica,sans-Serif" font-size="10.00">sstream</text>
</g>
<!-- Node12&#45;&gt;Node13 -->
<g id="edge23" class="edge"><title>Node12&#45;&gt;Node13</title>
<path fill="none" stroke="midnightblue" d="M533.651,-56.083C534.976,-48.9272 536.882,-38.6353 538.539,-29.6911"/>
<polygon fill="midnightblue" stroke="midnightblue" points="542,-30.2212 540.379,-19.7511 535.117,-28.9466 542,-30.2212"/>
</g>
<!-- Node14&#45;&gt;Node7 -->
<g id="edge26" class="edge"><title>Node14&#45;&gt;Node7</title>
<path fill="none" stroke="midnightblue" d="M70.1126,-59.3231C135.818,-48.7 276.309,-25.986 338.405,-15.9464"/>
<polygon fill="midnightblue" stroke="midnightblue" points="339.053,-19.3873 348.366,-14.3361 337.935,-12.4771 339.053,-19.3873"/>
</g>
<!-- Node14&#45;&gt;Node8 -->
<g id="edge27" class="edge"><title>Node14&#45;&gt;Node8</title>
<path fill="none" stroke="midnightblue" d="M50.7454,-56.324C66.3187,-47.7428 90.3773,-34.486 108.459,-24.5224"/>
<polygon fill="midnightblue" stroke="midnightblue" points="110.224,-27.546 117.294,-19.6545 106.846,-21.4152 110.224,-27.546"/>
</g>
<!-- Node15&#45;&gt;Node6 -->
<g id="edge30" class="edge"><title>Node15&#45;&gt;Node6</title>
<path fill="none" stroke="midnightblue" d="M725.27,-57.8038C665.528,-48.1191 561.846,-31.037 508.326,-20.1134"/>
<polygon fill="midnightblue" stroke="midnightblue" points="508.824,-16.6418 498.318,-18.0149 507.387,-23.4928 508.824,-16.6418"/>
</g>
<!-- Node15&#45;&gt;Node7 -->
<g id="edge31" class="edge"><title>Node15&#45;&gt;Node7</title>
<path fill="none" stroke="midnightblue" d="M725.167,-58.9627C642.938,-47.8895 470.001,-24.6012 399.698,-15.1338"/>
<polygon fill="midnightblue" stroke="midnightblue" points="400.086,-11.6546 389.708,-13.7886 399.151,-18.592 400.086,-11.6546"/>
</g>
<!-- Node15&#45;&gt;Node10 -->
<g id="edge33" class="edge"><title>Node15&#45;&gt;Node10</title>
<path fill="none" stroke="midnightblue" d="M751.778,-56.4435C733.104,-47.6751 703.844,-33.9355 682.383,-23.8579"/>
<polygon fill="midnightblue" stroke="midnightblue" points="683.676,-20.5988 673.137,-19.5164 680.701,-26.935 683.676,-20.5988"/>
</g>
<!-- Node16 -->
<g id="node16" class="node"><title>Node16</title>
<polygon fill="none" stroke="#bfbfbf" points="728.5,-0.5 728.5,-19.5 811.5,-19.5 811.5,-0.5 728.5,-0.5"/>
<text text-anchor="middle" x="770" y="-7.5" font-family="Helvetica,sans-Serif" font-size="10.00">unordered_map</text>
</g>
<!-- Node15&#45;&gt;Node16 -->
<g id="edge32" class="edge"><title>Node15&#45;&gt;Node16</title>
<path fill="none" stroke="midnightblue" d="M770,-56.083C770,-49.0059 770,-38.8611 770,-29.9865"/>
<polygon fill="midnightblue" stroke="midnightblue" points="773.5,-29.751 770,-19.7511 766.5,-29.7511 773.5,-29.751"/>
</g>
<!-- Node17&#45;&gt;Node6 -->
<g id="edge35" class="edge"><title>Node17&#45;&gt;Node6</title>
<path fill="none" stroke="midnightblue" d="M671.421,-168.186C681.649,-146.408 704.074,-89.4072 677,-56 630.369,1.54042 585.986,-34.3776 508.474,-20.0312"/>
<polygon fill="midnightblue" stroke="midnightblue" points="508.849,-16.5338 498.343,-17.9034 507.41,-23.3843 508.849,-16.5338"/>
</g>
</g>
</svg>
        <g id="navigator" transform="translate(0 0)" fill="#404254">
                <rect fill="#f2f5e9" fill-opacity="0.5" stroke="#606060" stroke-width=".5" x="0" y="0" width="60" height="60"/>
                <use id="zoomplus" xlink:href="#zoomPlus" x="17" y="9" onmousedown="handleZoom(evt,'in')"/>
                <use id="zoomminus" xlink:href="#zoomMin" x="42" y="9" onmousedown="handleZoom(evt,'out')"/>
                <use id="reset" xlink:href="#resetDef" x="30" y="36" onmousedown="handleReset()"/>
                <g id="arrowUp" xlink:href="#dirArrow" transform="translate(30 24)" onmousedown="handlePan(0,-1)">
                  <use xlink:href="#rim" fill="#404040">
                        <set attributeName="fill" to="#808080" begin="arrowUp.mouseover" end="arrowUp.mouseout"/>
                  </use>
                  <path fill="none" stroke="white" stroke-width="1.5" d="M0,-3.0v7 M-2.5,-0.5L0,-3.0L2.5,-0.5"/>
                </g>
                <g id="arrowRight" xlink:href="#dirArrow" transform="rotate(90) translate(36 -43)" onmousedown="handlePan(1,0)">
                  <use xlink:href="#rim" fill="#404040">
                        <set attributeName="fill" to="#808080" begin="arrowRight.mouseover" end="arrowRight.mouseout"/>
                  </use>
                  <path fill="none" stroke="white" stroke-width="1.5" d="M0,-3.0v7 M-2.5,-0.5L0,-3.0L2.5,-0.5"/>
                </g>
                <g id="arrowDown" xlink:href="#dirArrow" transform="rotate(180) translate(-30 -48)" onmousedown="handlePan(0,1)">
                  <use xlink:href="#rim" fill="#404040">
                        <set attributeName="fill" to="#808080" begin="arrowDown.mouseover" end="arrowDown.mouseout"/>
                  </use>
                  <path fill="none" stroke="white" stroke-width="1.5" d="M0,-3.0v7 M-2.5,-0.5L0,-3.0L2.5,-0.5"/>
                </g>
                <g id="arrowLeft" xlink:href="#dirArrow" transform="rotate(270) translate(-36 17)" onmousedown="handlePan(-1,0)">
                  <use xlink:href="#rim" fill="#404040">
                        <set attributeName="fill" to="#808080" begin="arrowLeft.mouseover" end="arrowLeft.mouseout"/>
                  </use>
                  <path fill="none" stroke="white" stroke-width="1.5" d="M0,-3.0v7 M-2.5,-0.5L0,-3.0L2.5,-0.5"/>
                </g>
        </g>
        <svg viewBox="0 0 15 15" width="100%" height="30px" preserveAspectRatio="xMaxYMin meet">
         <g id="arrow_out" transform="scale(0.3 0.3)">
          <a xlink:href="_jacobian_8cpp__incl_org.svg" target="_base">
           <rect id="button" ry="5" rx="5" y="6" x="6" height="38" width="38"
                fill="#f2f5e9" fill-opacity="0.5" stroke="#606060" stroke-width="1.0"/>
           <path id="arrow"
             d="M 11.500037,31.436501 C 11.940474,20.09759 22.043105,11.32322 32.158766,21.979434 L 37.068811,17.246167 C 37.068811,17.246167 37.088388,32 37.088388,32 L 22.160133,31.978069 C 22.160133,31.978069 26.997745,27.140456 26.997745,27.140456 C 18.528582,18.264221 13.291696,25.230495 11.500037,31.436501 z"
             style="fill:#404040;"/>
          </a>
         </g>
        </svg>
</svg>
