<?xml version="1.0" encoding="UTF-8" standalone="no"?>
<!DOCTYPE svg PUBLIC "-//W3C//DTD SVG 1.1//EN"
 "http://www.w3.org/Graphics/SVG/1.1/DTD/svg11.dtd">
<!-- Generated by graphviz version 2.36.0 (20140111.2315)
 -->
<!-- Title: /home/travis/build/robotology/wb&#45;toolbox/toolbox/src/Jacobian.cpp Pages: 1 -->
<!--zoomable 330 -->
<svg id="main" version="1.1" xmlns="http://www.w3.org/2000/svg" xmlns:xlink="http://www.w3.org/1999/xlink" xml:space="preserve" onload="init(evt)">
<style type="text/css"><![CDATA[
.edge:hover path { stroke: red; }
.edge:hover polygon { stroke: red; fill: red; }
]]></style>
<script type="text/javascript"><![CDATA[
var edges = document.getElementsByTagName('g');
if (edges && edges.length) {
  for (var i=0;i<edges.length;i++) {
    if (edges[i].id.substr(0,4)=='edge') {
      edges[i].setAttribute('class','edge');
    }
  }
}
]]></script>
        <defs>
                <circle id="rim" cx="0" cy="0" r="7"/>
                <circle id="rim2" cx="0" cy="0" r="3.5"/>
                <g id="zoomPlus">
                        <use xlink:href="#rim" fill="#404040">
                                <set attributeName="fill" to="#808080" begin="zoomplus.mouseover" end="zoomplus.mouseout"/>
                        </use>
                        <path d="M-4,0h8M0,-4v8" fill="none" stroke="white" stroke-width="1.5" pointer-events="none"/>
                </g>
                <g id="zoomMin">
                        <use xlink:href="#rim" fill="#404040">
                                <set attributeName="fill" to="#808080" begin="zoomminus.mouseover" end="zoomminus.mouseout"/>
                        </use>
                        <path d="M-4,0h8" fill="none" stroke="white" stroke-width="1.5" pointer-events="none"/>
                </g>
                <g id="dirArrow">
                        <path fill="none" stroke="white" stroke-width="1.5" d="M0,-3.0v7 M-2.5,-0.5L0,-3.0L2.5,-0.5"/>
                </g>
               <g id="resetDef">
                       <use xlink:href="#rim2" fill="#404040">
                               <set attributeName="fill" to="#808080" begin="reset.mouseover" end="reset.mouseout"/>
                       </use>
               </g>
        </defs>

<script type="text/javascript">
var viewWidth = 1716;
var viewHeight = 330;
var sectionId = 'dynsection-0';
</script>
<script xlink:href="svgpan.js"/>
<svg id="graph" class="graph">
<g id="viewport">
<title>/home/travis/build/robotology/wb&#45;toolbox/toolbox/src/Jacobian.cpp</title>
<!-- Node1 -->
<g id="node1" class="node"><title>Node1</title>
<polygon fill="#bfbfbf" stroke="black" points="621,-280.5 621,-321.5 749,-321.5 749,-280.5 621,-280.5"/>
<text text-anchor="start" x="629" y="-309.5" font-family="Helvetica,sans-Serif" font-size="10.00">/home/travis/build</text>
<text text-anchor="start" x="629" y="-298.5" font-family="Helvetica,sans-Serif" font-size="10.00">/robotology/wb&#45;toolbox</text>
<text text-anchor="middle" x="685" y="-287.5" font-family="Helvetica,sans-Serif" font-size="10.00">/toolbox/src/Jacobian.cpp</text>
</g>
<!-- Node2 -->
<g id="node2" class="node"><title>Node2</title>
<g id="a_node2"><a xlink:href="_jacobian_8h.html" target="_top" xlink:title="Jacobian.h">
<polygon fill="none" stroke="black" points="202,-224.5 202,-243.5 266,-243.5 266,-224.5 202,-224.5"/>
<text text-anchor="middle" x="234" y="-231.5" font-family="Helvetica,sans-Serif" font-size="10.00">Jacobian.h</text>
</a>
</g>
</g>
<!-- Node1&#45;&gt;Node2 -->
<g id="edge1" class="edge"><title>Node1&#45;&gt;Node2</title>
<path fill="none" stroke="midnightblue" d="M620.862,-290.756C527.184,-277.255 355.486,-252.509 276.191,-241.081"/>
<polygon fill="midnightblue" stroke="midnightblue" points="276.481,-237.586 266.084,-239.624 275.483,-244.515 276.481,-237.586"/>
</g>
<!-- Node5 -->
<g id="node5" class="node"><title>Node5</title>
<g id="a_node5"><a xlink:href="_parameters_8h.html" target="_top" xlink:title="Parameters.h">
<polygon fill="none" stroke="black" points="341.5,-56.5 341.5,-75.5 416.5,-75.5 416.5,-56.5 341.5,-56.5"/>
<text text-anchor="middle" x="379" y="-63.5" font-family="Helvetica,sans-Serif" font-size="10.00">Parameters.h</text>
</a>
</g>
</g>
<!-- Node1&#45;&gt;Node5 -->
<g id="edge32" class="edge"><title>Node1&#45;&gt;Node5</title>
<path fill="none" stroke="midnightblue" d="M659.174,-280.335C599.243,-234.701 451.782,-122.419 398.558,-81.8923"/>
<polygon fill="midnightblue" stroke="midnightblue" points="400.379,-78.8794 390.302,-75.6059 396.138,-84.4487 400.379,-78.8794"/>
</g>
<!-- Node6 -->
<g id="node6" class="node"><title>Node6</title>
<polygon fill="none" stroke="#bfbfbf" points="173,-0.5 173,-19.5 225,-19.5 225,-0.5 173,-0.5"/>
<text text-anchor="middle" x="199" y="-7.5" font-family="Helvetica,sans-Serif" font-size="10.00">memory</text>
</g>
<!-- Node1&#45;&gt;Node6 -->
<g id="edge46" class="edge"><title>Node1&#45;&gt;Node6</title>
<path fill="none" stroke="midnightblue" d="M620.805,-299.58C473.345,-296.884 123,-279.866 123,-179 123,-179 123,-179 123,-121 123,-81.2757 156.964,-45.5045 179.482,-26.1536"/>
<polygon fill="midnightblue" stroke="midnightblue" points="181.976,-28.6337 187.457,-19.5672 177.518,-23.2364 181.976,-28.6337"/>
</g>
<!-- Node9 -->
<g id="node9" class="node"><title>Node9</title>
<g id="a_node9"><a xlink:href="_block_information_8h.html" target="_top" xlink:title="BlockInformation.h">
<polygon fill="none" stroke="black" points="769,-56.5 769,-75.5 867,-75.5 867,-56.5 769,-56.5"/>
<text text-anchor="middle" x="818" y="-63.5" font-family="Helvetica,sans-Serif" font-size="10.00">BlockInformation.h</text>
</a>
</g>
</g>
<!-- Node1&#45;&gt;Node9 -->
<g id="edge14" class="edge"><title>Node1&#45;&gt;Node9</title>
<path fill="none" stroke="midnightblue" d="M689.473,-280.329C693.453,-264.607 700.036,-242.258 709,-224 736.182,-168.633 781.358,-110.896 804.066,-83.4212"/>
<polygon fill="midnightblue" stroke="midnightblue" points="806.87,-85.5233 810.598,-75.6057 801.499,-81.0343 806.87,-85.5233"/>
</g>
<!-- Node10 -->
<g id="node10" class="node"><title>Node10</title>
<polygon fill="none" stroke="#bfbfbf" points="858,-0.5 858,-19.5 896,-19.5 896,-0.5 858,-0.5"/>
<text text-anchor="middle" x="877" y="-7.5" font-family="Helvetica,sans-Serif" font-size="10.00">tuple</text>
</g>
<!-- Node1&#45;&gt;Node10 -->
<g id="edge48" class="edge"><title>Node1&#45;&gt;Node10</title>
<path fill="none" stroke="midnightblue" d="M699.061,-280.268C710.324,-264.709 726.713,-242.605 742,-224 798.141,-155.67 842.081,-158.08 875,-76 880.851,-61.4116 880.929,-43.4669 879.784,-30.1308"/>
<polygon fill="midnightblue" stroke="midnightblue" points="883.213,-29.3237 878.576,-19.7977 876.261,-30.1364 883.213,-29.3237"/>
</g>
<!-- Node12 -->
<g id="node12" class="node"><title>Node12</title>
<g id="a_node12"><a xlink:href="_configuration_8h.html" target="_top" xlink:title="Configuration.h">
<polygon fill="none" stroke="black" points="434.5,-56.5 434.5,-75.5 517.5,-75.5 517.5,-56.5 434.5,-56.5"/>
<text text-anchor="middle" x="476" y="-63.5" font-family="Helvetica,sans-Serif" font-size="10.00">Configuration.h</text>
</a>
</g>
</g>
<!-- Node1&#45;&gt;Node12 -->
<g id="edge20" class="edge"><title>Node1&#45;&gt;Node12</title>
<path fill="none" stroke="midnightblue" d="M667.181,-280.135C626.546,-234.833 527.673,-124.606 490.473,-83.135"/>
<polygon fill="midnightblue" stroke="midnightblue" points="492.985,-80.6933 483.702,-75.5863 487.774,-85.3675 492.985,-80.6933"/>
</g>
<!-- Node14 -->
<g id="node14" class="node"><title>Node14</title>
<g id="a_node14"><a xlink:href="_log_8h.html" target="_top" xlink:title="Log.h">
<polygon fill="none" stroke="black" points="53.5,-56.5 53.5,-75.5 94.5,-75.5 94.5,-56.5 53.5,-56.5"/>
<text text-anchor="middle" x="74" y="-63.5" font-family="Helvetica,sans-Serif" font-size="10.00">Log.h</text>
</a>
</g>
</g>
<!-- Node1&#45;&gt;Node14 -->
<g id="edge25" class="edge"><title>Node1&#45;&gt;Node14</title>
<path fill="none" stroke="midnightblue" d="M620.783,-298.014C478.503,-293.014 146.317,-277.818 109,-244 63.9697,-203.192 67.0892,-122.583 71.241,-85.9342"/>
<polygon fill="midnightblue" stroke="midnightblue" points="74.7548,-86.0521 72.5656,-75.6859 67.8126,-85.1548 74.7548,-86.0521"/>
</g>
<!-- Node16 -->
<g id="node16" class="node"><title>Node16</title>
<g id="a_node16"><a xlink:href="_parameter_8h.html" target="_top" xlink:title="Parameter.h">
<polygon fill="none" stroke="black" points="574,-56.5 574,-75.5 644,-75.5 644,-56.5 574,-56.5"/>
<text text-anchor="middle" x="609" y="-63.5" font-family="Helvetica,sans-Serif" font-size="10.00">Parameter.h</text>
</a>
</g>
</g>
<!-- Node1&#45;&gt;Node16 -->
<g id="edge29" class="edge"><title>Node1&#45;&gt;Node16</title>
<path fill="none" stroke="midnightblue" d="M676.431,-280.487C671.882,-269.808 666.35,-256.285 662,-244 641.791,-186.928 622.571,-117.797 613.867,-85.4126"/>
<polygon fill="midnightblue" stroke="midnightblue" points="617.201,-84.3311 611.243,-75.5705 610.438,-86.1347 617.201,-84.3311"/>
</g>
<!-- Node17 -->
<g id="node17" class="node"><title>Node17</title>
<g id="a_node17"><a xlink:href="_robot_interface_8h.html" target="_top" xlink:title="RobotInterface.h">
<polygon fill="none" stroke="black" points="662.5,-56.5 662.5,-75.5 751.5,-75.5 751.5,-56.5 662.5,-56.5"/>
<text text-anchor="middle" x="707" y="-63.5" font-family="Helvetica,sans-Serif" font-size="10.00">RobotInterface.h</text>
</a>
</g>
</g>
<!-- Node1&#45;&gt;Node17 -->
<g id="edge33" class="edge"><title>Node1&#45;&gt;Node17</title>
<path fill="none" stroke="midnightblue" d="M678.501,-280.381C668.005,-245.42 650.47,-170.526 671,-112 674.785,-101.209 682.367,-91.084 689.6,-83.1808"/>
<polygon fill="midnightblue" stroke="midnightblue" points="692.326,-85.4005 696.838,-75.8145 687.333,-80.4943 692.326,-85.4005"/>
</g>
<!-- Node19 -->
<g id="node19" class="node"><title>Node19</title>
<g id="a_node19"><a xlink:href="_signal_8h.html" target="_top" xlink:title="Signal.h">
<polygon fill="none" stroke="black" points="0,-168.5 0,-187.5 52,-187.5 52,-168.5 0,-168.5"/>
<text text-anchor="middle" x="26" y="-175.5" font-family="Helvetica,sans-Serif" font-size="10.00">Signal.h</text>
</a>
</g>
</g>
<!-- Node1&#45;&gt;Node19 -->
<g id="edge38" class="edge"><title>Node1&#45;&gt;Node19</title>
<path fill="none" stroke="midnightblue" d="M620.827,-297.301C472.615,-290.623 115.584,-271.829 69,-244 51.2571,-233.4 39.3787,-212.308 32.6833,-197.019"/>
<polygon fill="midnightblue" stroke="midnightblue" points="35.8549,-195.525 28.8677,-187.561 29.3633,-198.144 35.8549,-195.525"/>
</g>
<!-- Node20 -->
<g id="node20" class="node"><title>Node20</title>
<polygon fill="none" stroke="#bfbfbf" points="751.5,-224.5 751.5,-243.5 816.5,-243.5 816.5,-224.5 751.5,-224.5"/>
<text text-anchor="middle" x="784" y="-231.5" font-family="Helvetica,sans-Serif" font-size="10.00">Eigen/Core</text>
</g>
<!-- Node1&#45;&gt;Node20 -->
<g id="edge40" class="edge"><title>Node1&#45;&gt;Node20</title>
<path fill="none" stroke="midnightblue" d="M714.703,-280.498C730.028,-270.436 748.383,-258.385 762.352,-249.214"/>
<polygon fill="midnightblue" stroke="midnightblue" points="764.383,-252.067 770.822,-243.652 760.541,-246.215 764.383,-252.067"/>
</g>
<!-- Node21 -->
<g id="node21" class="node"><title>Node21</title>
<polygon fill="none" stroke="#bfbfbf" points="834,-224.5 834,-243.5 984,-243.5 984,-224.5 834,-224.5"/>
<text text-anchor="middle" x="909" y="-231.5" font-family="Helvetica,sans-Serif" font-size="10.00">iDynTree/Core/EigenHelpers.h</text>
</g>
<!-- Node1&#45;&gt;Node21 -->
<g id="edge41" class="edge"><title>Node1&#45;&gt;Node21</title>
<path fill="none" stroke="midnightblue" d="M749.189,-281.374C788.087,-270.086 836.455,-256.051 869.731,-246.395"/>
<polygon fill="midnightblue" stroke="midnightblue" points="870.918,-249.695 879.547,-243.547 868.968,-242.972 870.918,-249.695"/>
</g>
<!-- Node22 -->
<g id="node22" class="node"><title>Node22</title>
<polygon fill="none" stroke="#bfbfbf" points="1002,-224.5 1002,-243.5 1158,-243.5 1158,-224.5 1002,-224.5"/>
<text text-anchor="middle" x="1080" y="-231.5" font-family="Helvetica,sans-Serif" font-size="10.00">iDynTree/Core/MatrixDynSize.h</text>
</g>
<!-- Node1&#45;&gt;Node22 -->
<g id="edge42" class="edge"><title>Node1&#45;&gt;Node22</title>
<path fill="none" stroke="midnightblue" d="M749.343,-289.412C823.672,-277.181 945.1,-257.199 1018.29,-245.154"/>
<polygon fill="midnightblue" stroke="midnightblue" points="1018.99,-248.586 1028.29,-243.509 1017.86,-241.679 1018.99,-248.586"/>
</g>
<!-- Node23 -->
<g id="node23" class="node"><title>Node23</title>
<polygon fill="none" stroke="#bfbfbf" points="1176,-224.5 1176,-243.5 1312,-243.5 1312,-224.5 1176,-224.5"/>
<text text-anchor="middle" x="1244" y="-231.5" font-family="Helvetica,sans-Serif" font-size="10.00">iDynTree/Core/Transform.h</text>
</g>
<!-- Node1&#45;&gt;Node23 -->
<g id="edge43" class="edge"><title>Node1&#45;&gt;Node23</title>
<path fill="none" stroke="midnightblue" d="M749.322,-292.541C839.75,-282.052 1009.92,-262.302 1165.74,-244.146"/>
<polygon fill="midnightblue" stroke="midnightblue" points="1166.45,-247.587 1175.98,-242.953 1165.64,-240.634 1166.45,-247.587"/>
</g>
<!-- Node24 -->
<g id="node24" class="node"><title>Node24</title>
<polygon fill="none" stroke="#bfbfbf" points="1330.5,-224.5 1330.5,-243.5 1491.5,-243.5 1491.5,-224.5 1330.5,-224.5"/>
<text text-anchor="middle" x="1411" y="-231.5" font-family="Helvetica,sans-Serif" font-size="10.00">iDynTree/KinDynComputations.h</text>
</g>
<!-- Node1&#45;&gt;Node24 -->
<g id="edge44" class="edge"><title>Node1&#45;&gt;Node24</title>
<path fill="none" stroke="midnightblue" d="M749.118,-294.607C862.065,-285.052 1104.16,-264.323 1319.8,-244.103"/>
<polygon fill="midnightblue" stroke="midnightblue" points="1320.42,-247.56 1330.05,-243.141 1319.77,-240.591 1320.42,-247.56"/>
</g>
<!-- Node25 -->
<g id="node25" class="node"><title>Node25</title>
<polygon fill="none" stroke="#bfbfbf" points="1510,-224.5 1510,-243.5 1638,-243.5 1638,-224.5 1510,-224.5"/>
<text text-anchor="middle" x="1574" y="-231.5" font-family="Helvetica,sans-Serif" font-size="10.00">iDynTree/Model/Indices.h</text>
</g>
<!-- Node1&#45;&gt;Node25 -->
<g id="edge45" class="edge"><title>Node1&#45;&gt;Node25</title>
<path fill="none" stroke="midnightblue" d="M749.019,-296.746C885.021,-289.583 1212.99,-270.995 1499.67,-243.976"/>
<polygon fill="midnightblue" stroke="midnightblue" points="1500.22,-247.439 1509.85,-243.011 1499.56,-240.47 1500.22,-247.439"/>
</g>
<!-- Node26 -->
<g id="node26" class="node"><title>Node26</title>
<polygon fill="none" stroke="#bfbfbf" points="1656,-224.5 1656,-243.5 1708,-243.5 1708,-224.5 1656,-224.5"/>
<text text-anchor="middle" x="1682" y="-231.5" font-family="Helvetica,sans-Serif" font-size="10.00">ostream</text>
</g>
<!-- Node1&#45;&gt;Node26 -->
<g id="edge47" class="edge"><title>Node1&#45;&gt;Node26</title>
<path fill="none" stroke="midnightblue" d="M749.053,-300.533C902.649,-300.896 1303.93,-296.426 1645.65,-243.902"/>
<polygon fill="midnightblue" stroke="midnightblue" points="1646.4,-247.328 1655.74,-242.334 1645.32,-240.411 1646.4,-247.328"/>
</g>
<!-- Node3 -->
<g id="node3" class="node"><title>Node3</title>
<g id="a_node3"><a xlink:href="_w_b_block_8h.html" target="_top" xlink:title="WBBlock.h">
<polygon fill="none" stroke="black" points="235,-168.5 235,-187.5 301,-187.5 301,-168.5 235,-168.5"/>
<text text-anchor="middle" x="268" y="-175.5" font-family="Helvetica,sans-Serif" font-size="10.00">WBBlock.h</text>
</a>
</g>
</g>
<!-- Node2&#45;&gt;Node3 -->
<g id="edge2" class="edge"><title>Node2&#45;&gt;Node3</title>
<path fill="none" stroke="midnightblue" d="M239.614,-224.083C244.367,-216.534 251.318,-205.495 257.152,-196.23"/>
<polygon fill="midnightblue" stroke="midnightblue" points="260.124,-198.078 262.49,-187.751 254.2,-194.349 260.124,-198.078"/>
</g>
<!-- Node2&#45;&gt;Node6 -->
<g id="edge12" class="edge"><title>Node2&#45;&gt;Node6</title>
<path fill="none" stroke="midnightblue" d="M219.339,-224.402C207.594,-216.585 191.969,-203.862 185,-188 161.384,-134.247 180.659,-62.4997 192.075,-29.29"/>
<polygon fill="midnightblue" stroke="midnightblue" points="195.474,-30.181 195.572,-19.5866 188.889,-27.8077 195.474,-30.181"/>
</g>
<!-- Node7 -->
<g id="node7" class="node"><title>Node7</title>
<polygon fill="none" stroke="#bfbfbf" points="358.5,-0.5 358.5,-19.5 399.5,-19.5 399.5,-0.5 358.5,-0.5"/>
<text text-anchor="middle" x="379" y="-7.5" font-family="Helvetica,sans-Serif" font-size="10.00">string</text>
</g>
<!-- Node2&#45;&gt;Node7 -->
<g id="edge13" class="edge"><title>Node2&#45;&gt;Node7</title>
<path fill="none" stroke="midnightblue" d="M230.607,-224.354C226.146,-211.674 219.584,-187.434 226,-168 245.424,-109.167 263.759,-98.331 309,-56 322.114,-43.7292 338.998,-32.7645 352.898,-24.731"/>
<polygon fill="midnightblue" stroke="midnightblue" points="354.946,-27.5962 361.962,-19.6576 351.527,-21.488 354.946,-27.5962"/>
</g>
<!-- Node4 -->
<g id="node4" class="node"><title>Node4</title>
<g id="a_node4"><a xlink:href="_block_8h.html" target="_top" xlink:title="Block.h">
<polygon fill="none" stroke="black" points="328,-112.5 328,-131.5 378,-131.5 378,-112.5 328,-112.5"/>
<text text-anchor="middle" x="353" y="-119.5" font-family="Helvetica,sans-Serif" font-size="10.00">Block.h</text>
</a>
</g>
</g>
<!-- Node3&#45;&gt;Node4 -->
<g id="edge3" class="edge"><title>Node3&#45;&gt;Node4</title>
<path fill="none" stroke="midnightblue" d="M281.657,-168.324C294.916,-159.9 315.268,-146.971 330.846,-137.074"/>
<polygon fill="midnightblue" stroke="midnightblue" points="332.813,-139.971 339.377,-131.655 329.06,-134.063 332.813,-139.971"/>
</g>
<!-- Node3&#45;&gt;Node6 -->
<g id="edge10" class="edge"><title>Node3&#45;&gt;Node6</title>
<path fill="none" stroke="midnightblue" d="M264.29,-168.075C253.382,-141.832 221.257,-64.5453 206.53,-29.1165"/>
<polygon fill="midnightblue" stroke="midnightblue" points="209.632,-27.4588 202.561,-19.5681 203.168,-30.1456 209.632,-27.4588"/>
</g>
<!-- Node3&#45;&gt;Node7 -->
<g id="edge11" class="edge"><title>Node3&#45;&gt;Node7</title>
<path fill="none" stroke="midnightblue" d="M270.715,-168.404C277.572,-147.591 297.121,-93.448 326,-56 334.869,-44.4999 347.107,-33.87 357.59,-25.8324"/>
<polygon fill="midnightblue" stroke="midnightblue" points="359.897,-28.4795 365.87,-19.7283 355.744,-22.8452 359.897,-28.4795"/>
</g>
<!-- Node4&#45;&gt;Node5 -->
<g id="edge4" class="edge"><title>Node4&#45;&gt;Node5</title>
<path fill="none" stroke="midnightblue" d="M357.293,-112.083C360.852,-104.691 366.022,-93.9533 370.424,-84.8111"/>
<polygon fill="midnightblue" stroke="midnightblue" points="373.602,-86.2795 374.787,-75.7511 367.295,-83.2427 373.602,-86.2795"/>
</g>
<!-- Node4&#45;&gt;Node7 -->
<g id="edge8" class="edge"><title>Node4&#45;&gt;Node7</title>
<path fill="none" stroke="midnightblue" d="M346.33,-112.406C337.405,-99.7912 323.617,-75.6315 332,-56 337.147,-43.9469 347.281,-33.5764 356.826,-25.8389"/>
<polygon fill="midnightblue" stroke="midnightblue" points="359.04,-28.5532 364.922,-19.7409 354.828,-22.9619 359.04,-28.5532"/>
</g>
<!-- Node8 -->
<g id="node8" class="node"><title>Node8</title>
<polygon fill="none" stroke="#bfbfbf" points="524,-0.5 524,-19.5 568,-19.5 568,-0.5 524,-0.5"/>
<text text-anchor="middle" x="546" y="-7.5" font-family="Helvetica,sans-Serif" font-size="10.00">vector</text>
</g>
<!-- Node4&#45;&gt;Node8 -->
<g id="edge9" class="edge"><title>Node4&#45;&gt;Node8</title>
<path fill="none" stroke="midnightblue" d="M378.087,-121.679C415.354,-121.286 485.304,-114.943 526,-76 538.52,-64.0196 543.258,-44.4121 545.022,-29.8603"/>
<polygon fill="midnightblue" stroke="midnightblue" points="548.541,-29.7743 545.891,-19.5164 541.566,-29.1883 548.541,-29.7743"/>
</g>
<!-- Node5&#45;&gt;Node6 -->
<g id="edge5" class="edge"><title>Node5&#45;&gt;Node6</title>
<path fill="none" stroke="midnightblue" d="M350.478,-56.4435C319.215,-47.0645 268.993,-31.9978 235.03,-21.8089"/>
<polygon fill="midnightblue" stroke="midnightblue" points="235.634,-18.3363 225.05,-18.8151 233.623,-25.041 235.634,-18.3363"/>
</g>
<!-- Node5&#45;&gt;Node7 -->
<g id="edge6" class="edge"><title>Node5&#45;&gt;Node7</title>
<path fill="none" stroke="midnightblue" d="M379,-56.083C379,-49.0059 379,-38.8611 379,-29.9865"/>
<polygon fill="midnightblue" stroke="midnightblue" points="382.5,-29.751 379,-19.7511 375.5,-29.7511 382.5,-29.751"/>
</g>
<!-- Node5&#45;&gt;Node8 -->
<g id="edge7" class="edge"><title>Node5&#45;&gt;Node8</title>
<path fill="none" stroke="midnightblue" d="M405.462,-56.4435C435.006,-46.8902 482.8,-31.436 514.313,-21.2461"/>
<polygon fill="midnightblue" stroke="midnightblue" points="515.491,-24.5438 523.929,-18.1368 513.337,-17.8833 515.491,-24.5438"/>
</g>
<!-- Node9&#45;&gt;Node6 -->
<g id="edge15" class="edge"><title>Node9&#45;&gt;Node6</title>
<path fill="none" stroke="midnightblue" d="M768.987,-57.134C765.949,-56.7272 762.935,-56.3449 760,-56 562.543,-32.7928 324.557,-18.048 235.217,-12.9747"/>
<polygon fill="midnightblue" stroke="midnightblue" points="235.252,-9.47122 225.072,-12.404 234.859,-16.4602 235.252,-9.47122"/>
</g>
<!-- Node9&#45;&gt;Node7 -->
<g id="edge16" class="edge"><title>Node9&#45;&gt;Node7</title>
<path fill="none" stroke="midnightblue" d="M768.972,-57.2544C765.938,-56.8178 762.928,-56.396 760,-56 621.672,-37.2945 586.544,-37.0275 448,-20 435.388,-18.4499 421.491,-16.6542 409.494,-15.0764"/>
<polygon fill="midnightblue" stroke="midnightblue" points="409.893,-11.5988 399.521,-13.7576 408.975,-18.5384 409.893,-11.5988"/>
</g>
<!-- Node9&#45;&gt;Node8 -->
<g id="edge19" class="edge"><title>Node9&#45;&gt;Node8</title>
<path fill="none" stroke="midnightblue" d="M774.901,-56.4435C720.194,-45.5826 627.071,-27.0949 578.169,-17.3864"/>
<polygon fill="midnightblue" stroke="midnightblue" points="578.641,-13.9119 568.151,-15.3976 577.278,-20.7779 578.641,-13.9119"/>
</g>
<!-- Node9&#45;&gt;Node10 -->
<g id="edge17" class="edge"><title>Node9&#45;&gt;Node10</title>
<path fill="none" stroke="midnightblue" d="M827.479,-56.324C836.201,-48.3414 849.343,-36.3128 859.898,-26.6529"/>
<polygon fill="midnightblue" stroke="midnightblue" points="862.334,-29.1674 867.348,-19.8339 857.608,-24.0036 862.334,-29.1674"/>
</g>
<!-- Node11 -->
<g id="node11" class="node"><title>Node11</title>
<polygon fill="none" stroke="#bfbfbf" points="782,-0.5 782,-19.5 822,-19.5 822,-0.5 782,-0.5"/>
<text text-anchor="middle" x="802" y="-7.5" font-family="Helvetica,sans-Serif" font-size="10.00">utility</text>
</g>
<!-- Node9&#45;&gt;Node11 -->
<g id="edge18" class="edge"><title>Node9&#45;&gt;Node11</title>
<path fill="none" stroke="midnightblue" d="M815.358,-56.083C813.214,-48.8486 810.121,-38.4087 807.451,-29.3968"/>
<polygon fill="midnightblue" stroke="midnightblue" points="810.79,-28.3447 804.593,-19.7511 804.078,-30.3334 810.79,-28.3447"/>
</g>
<!-- Node12&#45;&gt;Node6 -->
<g id="edge22" class="edge"><title>Node12&#45;&gt;Node6</title>
<path fill="none" stroke="midnightblue" d="M434.23,-56.8572C380.076,-46.2999 286.512,-28.06 235.221,-18.0612"/>
<polygon fill="midnightblue" stroke="midnightblue" points="235.734,-14.5953 225.249,-16.1172 234.395,-21.466 235.734,-14.5953"/>
</g>
<!-- Node12&#45;&gt;Node7 -->
<g id="edge23" class="edge"><title>Node12&#45;&gt;Node7</title>
<path fill="none" stroke="midnightblue" d="M460.415,-56.324C445.001,-47.7428 421.188,-34.486 403.29,-24.5224"/>
<polygon fill="midnightblue" stroke="midnightblue" points="404.986,-21.4606 394.546,-19.6545 401.581,-27.5767 404.986,-21.4606"/>
</g>
<!-- Node12&#45;&gt;Node8 -->
<g id="edge24" class="edge"><title>Node12&#45;&gt;Node8</title>
<path fill="none" stroke="midnightblue" d="M487.247,-56.324C497.797,-48.1849 513.801,-35.8395 526.442,-26.0874"/>
<polygon fill="midnightblue" stroke="midnightblue" points="528.769,-28.7132 534.549,-19.8339 524.493,-23.1707 528.769,-28.7132"/>
</g>
<!-- Node13 -->
<g id="node13" class="node"><title>Node13</title>
<polygon fill="none" stroke="#bfbfbf" points="457,-0.5 457,-19.5 495,-19.5 495,-0.5 457,-0.5"/>
<text text-anchor="middle" x="476" y="-7.5" font-family="Helvetica,sans-Serif" font-size="10.00">array</text>
</g>
<!-- Node12&#45;&gt;Node13 -->
<g id="edge21" class="edge"><title>Node12&#45;&gt;Node13</title>
<path fill="none" stroke="midnightblue" d="M476,-56.083C476,-49.0059 476,-38.8611 476,-29.9865"/>
<polygon fill="midnightblue" stroke="midnightblue" points="479.5,-29.751 476,-19.7511 472.5,-29.7511 479.5,-29.751"/>
</g>
<!-- Node14&#45;&gt;Node6 -->
<g id="edge26" class="edge"><title>Node14&#45;&gt;Node6</title>
<path fill="none" stroke="midnightblue" d="M93.8066,-56.4435C114.287,-47.5961 146.483,-33.6875 169.865,-23.5865"/>
<polygon fill="midnightblue" stroke="midnightblue" points="171.494,-26.6953 179.286,-19.5164 168.718,-20.2692 171.494,-26.6953"/>
</g>
<!-- Node14&#45;&gt;Node7 -->
<g id="edge28" class="edge"><title>Node14&#45;&gt;Node7</title>
<path fill="none" stroke="midnightblue" d="M94.9639,-61.2884C147.763,-51.9404 286.406,-27.3937 348.345,-16.4275"/>
<polygon fill="midnightblue" stroke="midnightblue" points="349.056,-19.8561 358.293,-14.6662 347.836,-12.9633 349.056,-19.8561"/>
</g>
<!-- Node15 -->
<g id="node15" class="node"><title>Node15</title>
<polygon fill="none" stroke="#bfbfbf" points="48,-0.5 48,-19.5 100,-19.5 100,-0.5 48,-0.5"/>
<text text-anchor="middle" x="74" y="-7.5" font-family="Helvetica,sans-Serif" font-size="10.00">sstream</text>
</g>
<!-- Node14&#45;&gt;Node15 -->
<g id="edge27" class="edge"><title>Node14&#45;&gt;Node15</title>
<path fill="none" stroke="midnightblue" d="M74,-56.083C74,-49.0059 74,-38.8611 74,-29.9865"/>
<polygon fill="midnightblue" stroke="midnightblue" points="77.5001,-29.751 74,-19.7511 70.5001,-29.7511 77.5001,-29.751"/>
</g>
<!-- Node16&#45;&gt;Node7 -->
<g id="edge30" class="edge"><title>Node16&#45;&gt;Node7</title>
<path fill="none" stroke="midnightblue" d="M573.818,-56.7398C528.943,-46.2041 452.074,-28.1566 409.546,-18.1716"/>
<polygon fill="midnightblue" stroke="midnightblue" points="410.299,-14.7533 399.763,-15.8749 408.699,-21.568 410.299,-14.7533"/>
</g>
<!-- Node16&#45;&gt;Node8 -->
<g id="edge31" class="edge"><title>Node16&#45;&gt;Node8</title>
<path fill="none" stroke="midnightblue" d="M598.878,-56.324C589.474,-48.2631 575.256,-36.0765 563.931,-26.3695"/>
<polygon fill="midnightblue" stroke="midnightblue" points="566.177,-23.6844 556.306,-19.8339 561.621,-28.9993 566.177,-23.6844"/>
</g>
<!-- Node17&#45;&gt;Node6 -->
<g id="edge34" class="edge"><title>Node17&#45;&gt;Node6</title>
<path fill="none" stroke="midnightblue" d="M662.245,-57.306C659.12,-56.841 656.015,-56.4002 653,-56 498.146,-35.4441 312.433,-19.8524 235.318,-13.7764"/>
<polygon fill="midnightblue" stroke="midnightblue" points="235.415,-10.2733 225.172,-12.9827 234.869,-17.252 235.415,-10.2733"/>
</g>
<!-- Node17&#45;&gt;Node7 -->
<g id="edge35" class="edge"><title>Node17&#45;&gt;Node7</title>
<path fill="none" stroke="midnightblue" d="M662.212,-57.527C659.095,-57.0094 656.001,-56.4964 653,-56 564.64,-41.3809 460.221,-24.2803 409.589,-15.9995"/>
<polygon fill="midnightblue" stroke="midnightblue" points="410.06,-12.5301 399.626,-14.3704 408.93,-19.4383 410.06,-12.5301"/>
</g>
<!-- Node17&#45;&gt;Node11 -->
<g id="edge37" class="edge"><title>Node17&#45;&gt;Node11</title>
<path fill="none" stroke="midnightblue" d="M722.263,-56.324C737.221,-47.8215 760.255,-34.7288 777.727,-24.7975"/>
<polygon fill="midnightblue" stroke="midnightblue" points="779.81,-27.639 786.774,-19.6545 776.351,-21.5534 779.81,-27.639"/>
</g>
<!-- Node18 -->
<g id="node18" class="node"><title>Node18</title>
<polygon fill="none" stroke="#bfbfbf" points="665.5,-0.5 665.5,-19.5 748.5,-19.5 748.5,-0.5 665.5,-0.5"/>
<text text-anchor="middle" x="707" y="-7.5" font-family="Helvetica,sans-Serif" font-size="10.00">unordered_map</text>
</g>
<!-- Node17&#45;&gt;Node18 -->
<g id="edge36" class="edge"><title>Node17&#45;&gt;Node18</title>
<path fill="none" stroke="midnightblue" d="M707,-56.083C707,-49.0059 707,-38.8611 707,-29.9865"/>
<polygon fill="midnightblue" stroke="midnightblue" points="710.5,-29.751 707,-19.7511 703.5,-29.7511 710.5,-29.751"/>
</g>
<!-- Node19&#45;&gt;Node6 -->
<g id="edge39" class="edge"><title>Node19&#45;&gt;Node6</title>
<path fill="none" stroke="midnightblue" d="M24.4483,-168.411C21.0456,-146.656 15.3585,-88.7907 44,-56 59.5584,-38.1877 121.993,-24.3 162.719,-16.906"/>
<polygon fill="midnightblue" stroke="midnightblue" points="163.576,-20.3089 172.816,-15.1243 162.36,-13.4154 163.576,-20.3089"/>
</g>
</g>
</svg>
        <g id="navigator" transform="translate(0 0)" fill="#404254">
                <rect fill="#f2f5e9" fill-opacity="0.5" stroke="#606060" stroke-width=".5" x="0" y="0" width="60" height="60"/>
                <use id="zoomplus" xlink:href="#zoomPlus" x="17" y="9" onmousedown="handleZoom(evt,'in')"/>
                <use id="zoomminus" xlink:href="#zoomMin" x="42" y="9" onmousedown="handleZoom(evt,'out')"/>
                <use id="reset" xlink:href="#resetDef" x="30" y="36" onmousedown="handleReset()"/>
                <g id="arrowUp" xlink:href="#dirArrow" transform="translate(30 24)" onmousedown="handlePan(0,-1)">
                  <use xlink:href="#rim" fill="#404040">
                        <set attributeName="fill" to="#808080" begin="arrowUp.mouseover" end="arrowUp.mouseout"/>
                  </use>
                  <path fill="none" stroke="white" stroke-width="1.5" d="M0,-3.0v7 M-2.5,-0.5L0,-3.0L2.5,-0.5"/>
                </g>
                <g id="arrowRight" xlink:href="#dirArrow" transform="rotate(90) translate(36 -43)" onmousedown="handlePan(1,0)">
                  <use xlink:href="#rim" fill="#404040">
                        <set attributeName="fill" to="#808080" begin="arrowRight.mouseover" end="arrowRight.mouseout"/>
                  </use>
                  <path fill="none" stroke="white" stroke-width="1.5" d="M0,-3.0v7 M-2.5,-0.5L0,-3.0L2.5,-0.5"/>
                </g>
                <g id="arrowDown" xlink:href="#dirArrow" transform="rotate(180) translate(-30 -48)" onmousedown="handlePan(0,1)">
                  <use xlink:href="#rim" fill="#404040">
                        <set attributeName="fill" to="#808080" begin="arrowDown.mouseover" end="arrowDown.mouseout"/>
                  </use>
                  <path fill="none" stroke="white" stroke-width="1.5" d="M0,-3.0v7 M-2.5,-0.5L0,-3.0L2.5,-0.5"/>
                </g>
                <g id="arrowLeft" xlink:href="#dirArrow" transform="rotate(270) translate(-36 17)" onmousedown="handlePan(-1,0)">
                  <use xlink:href="#rim" fill="#404040">
                        <set attributeName="fill" to="#808080" begin="arrowLeft.mouseover" end="arrowLeft.mouseout"/>
                  </use>
                  <path fill="none" stroke="white" stroke-width="1.5" d="M0,-3.0v7 M-2.5,-0.5L0,-3.0L2.5,-0.5"/>
                </g>
        </g>
        <svg viewBox="0 0 15 15" width="100%" height="30px" preserveAspectRatio="xMaxYMin meet">
         <g id="arrow_out" transform="scale(0.3 0.3)">
          <a xlink:href="_jacobian_8cpp__incl_org.svg" target="_base">
           <rect id="button" ry="5" rx="5" y="6" x="6" height="38" width="38"
                fill="#f2f5e9" fill-opacity="0.5" stroke="#606060" stroke-width="1.0"/>
           <path id="arrow"
             d="M 11.500037,31.436501 C 11.940474,20.09759 22.043105,11.32322 32.158766,21.979434 L 37.068811,17.246167 C 37.068811,17.246167 37.088388,32 37.088388,32 L 22.160133,31.978069 C 22.160133,31.978069 26.997745,27.140456 26.997745,27.140456 C 18.528582,18.264221 13.291696,25.230495 11.500037,31.436501 z"
             style="fill:#404040;"/>
          </a>
         </g>
        </svg>
</svg>
