<?xml version="1.0" encoding="UTF-8" standalone="no"?>
<!DOCTYPE svg PUBLIC "-//W3C//DTD SVG 1.1//EN"
 "http://www.w3.org/Graphics/SVG/1.1/DTD/svg11.dtd">
<!-- Generated by graphviz version 2.36.0 (20140111.2315)
 -->
<!-- Title: /home/travis/build/robotology/wb&#45;toolbox/toolbox/include/base/Log.h Pages: 1 -->
<!--zoomable 140 -->
<svg id="main" version="1.1" xmlns="http://www.w3.org/2000/svg" xmlns:xlink="http://www.w3.org/1999/xlink" xml:space="preserve" onload="init(evt)">
<style type="text/css"><![CDATA[
.edge:hover path { stroke: red; }
.edge:hover polygon { stroke: red; fill: red; }
]]></style>
<script type="text/javascript"><![CDATA[
var edges = document.getElementsByTagName('g');
if (edges && edges.length) {
  for (var i=0;i<edges.length;i++) {
    if (edges[i].id.substr(0,4)=='edge') {
      edges[i].setAttribute('class','edge');
    }
  }
}
]]></script>
        <defs>
                <circle id="rim" cx="0" cy="0" r="7"/>
                <circle id="rim2" cx="0" cy="0" r="3.5"/>
                <g id="zoomPlus">
                        <use xlink:href="#rim" fill="#404040">
                                <set attributeName="fill" to="#808080" begin="zoomplus.mouseover" end="zoomplus.mouseout"/>
                        </use>
                        <path d="M-4,0h8M0,-4v8" fill="none" stroke="white" stroke-width="1.5" pointer-events="none"/>
                </g>
                <g id="zoomMin">
                        <use xlink:href="#rim" fill="#404040">
                                <set attributeName="fill" to="#808080" begin="zoomminus.mouseover" end="zoomminus.mouseout"/>
                        </use>
                        <path d="M-4,0h8" fill="none" stroke="white" stroke-width="1.5" pointer-events="none"/>
                </g>
                <g id="dirArrow">
                        <path fill="none" stroke="white" stroke-width="1.5" d="M0,-3.0v7 M-2.5,-0.5L0,-3.0L2.5,-0.5"/>
                </g>
               <g id="resetDef">
                       <use xlink:href="#rim2" fill="#404040">
                               <set attributeName="fill" to="#808080" begin="reset.mouseover" end="reset.mouseout"/>
                       </use>
               </g>
        </defs>

<script type="text/javascript">
var viewWidth = 5195;
var viewHeight = 140;
var sectionId = 'dynsection-1';
</script>
<script xlink:href="svgpan.js"/>
<svg id="graph" class="graph">
<g id="viewport">
<title>/home/travis/build/robotology/wb&#45;toolbox/toolbox/include/base/Log.h</title>
<!-- Node1 -->
<g id="node1" class="node"><title>Node1</title>
<polygon fill="#bfbfbf" stroke="black" points="2536,-90.5 2536,-131.5 2672,-131.5 2672,-90.5 2536,-90.5"/>
<text text-anchor="start" x="2544" y="-119.5" font-family="Helvetica,sans-Serif" font-size="10.00">/home/travis/build</text>
<text text-anchor="start" x="2544" y="-108.5" font-family="Helvetica,sans-Serif" font-size="10.00">/robotology/wb&#45;toolbox</text>
<text text-anchor="middle" x="2604" y="-97.5" font-family="Helvetica,sans-Serif" font-size="10.00">/toolbox/include/base/Log.h</text>
</g>
<!-- Node2 -->
<g id="node2" class="node"><title>Node2</title>
<g id="a_node2"><a xlink:href="_block_8cpp.html" target="_top" xlink:title="/home/travis/build\l/robotology/wb&#45;toolbox\l/toolbox/src/base/Block.cpp">
<polygon fill="none" stroke="black" points="0,-6.5 0,-47.5 138,-47.5 138,-6.5 0,-6.5"/>
<text text-anchor="start" x="8" y="-35.5" font-family="Helvetica,sans-Serif" font-size="10.00">/home/travis/build</text>
<text text-anchor="start" x="8" y="-24.5" font-family="Helvetica,sans-Serif" font-size="10.00">/robotology/wb&#45;toolbox</text>
<text text-anchor="middle" x="69" y="-13.5" font-family="Helvetica,sans-Serif" font-size="10.00">/toolbox/src/base/Block.cpp</text>
</a>
</g>
</g>
<!-- Node1&#45;&gt;Node2 -->
<g id="edge1" class="edge"><title>Node1&#45;&gt;Node2</title>
<path fill="none" stroke="midnightblue" d="M2525.67,-109.604C2132.72,-107.434 385.54,-95.5045 147,-54 138.281,-52.4829 129.21,-50.1757 120.469,-47.55"/>
<polygon fill="midnightblue" stroke="midnightblue" points="2525.78,-113.105 2535.8,-109.66 2525.82,-106.105 2525.78,-113.105"/>
</g>
<!-- Node3 -->
<g id="node3" class="node"><title>Node3</title>
<g id="a_node3"><a xlink:href="_coder_block_information_8cpp.html" target="_top" xlink:title="/home/travis/build\l/robotology/wb&#45;toolbox\l/toolbox/src/base/CoderBlock\lInformation.cpp">
<polygon fill="none" stroke="black" points="156,-1 156,-53 302,-53 302,-1 156,-1"/>
<text text-anchor="start" x="164" y="-41" font-family="Helvetica,sans-Serif" font-size="10.00">/home/travis/build</text>
<text text-anchor="start" x="164" y="-30" font-family="Helvetica,sans-Serif" font-size="10.00">/robotology/wb&#45;toolbox</text>
<text text-anchor="start" x="164" y="-19" font-family="Helvetica,sans-Serif" font-size="10.00">/toolbox/src/base/CoderBlock</text>
<text text-anchor="middle" x="229" y="-8" font-family="Helvetica,sans-Serif" font-size="10.00">Information.cpp</text>
</a>
</g>
</g>
<!-- Node1&#45;&gt;Node3 -->
<g id="edge2" class="edge"><title>Node1&#45;&gt;Node3</title>
<path fill="none" stroke="midnightblue" d="M2525.48,-109.398C2148.43,-106.328 532.792,-91.0982 311,-54 308.054,-53.5072 305.068,-52.9328 302.066,-52.2924"/>
<polygon fill="midnightblue" stroke="midnightblue" points="2525.71,-112.9 2535.74,-109.481 2525.77,-105.9 2525.71,-112.9"/>
</g>
<!-- Node4 -->
<g id="node4" class="node"><title>Node4</title>
<g id="a_node4"><a xlink:href="_log_8cpp.html" target="_top" xlink:title="/home/travis/build\l/robotology/wb&#45;toolbox\l/toolbox/src/base/Log.cpp">
<polygon fill="none" stroke="black" points="320.5,-6.5 320.5,-47.5 449.5,-47.5 449.5,-6.5 320.5,-6.5"/>
<text text-anchor="start" x="328.5" y="-35.5" font-family="Helvetica,sans-Serif" font-size="10.00">/home/travis/build</text>
<text text-anchor="start" x="328.5" y="-24.5" font-family="Helvetica,sans-Serif" font-size="10.00">/robotology/wb&#45;toolbox</text>
<text text-anchor="middle" x="385" y="-13.5" font-family="Helvetica,sans-Serif" font-size="10.00">/toolbox/src/base/Log.cpp</text>
</a>
</g>
</g>
<!-- Node1&#45;&gt;Node4 -->
<g id="edge3" class="edge"><title>Node1&#45;&gt;Node4</title>
<path fill="none" stroke="midnightblue" d="M2525.84,-109.4C2164.55,-106.431 664.992,-91.9079 459,-54 450.697,-52.472 442.075,-50.1591 433.776,-47.5311"/>
<polygon fill="midnightblue" stroke="midnightblue" points="2525.92,-112.9 2535.95,-109.482 2525.97,-105.901 2525.92,-112.9"/>
</g>
<!-- Node5 -->
<g id="node5" class="node"><title>Node5</title>
<g id="a_node5"><a xlink:href="_parameters_8cpp.html" target="_top" xlink:title="/home/travis/build\l/robotology/wb&#45;toolbox\l/toolbox/src/base/Parameters.cpp">
<polygon fill="none" stroke="black" points="468,-6.5 468,-47.5 632,-47.5 632,-6.5 468,-6.5"/>
<text text-anchor="start" x="476" y="-35.5" font-family="Helvetica,sans-Serif" font-size="10.00">/home/travis/build</text>
<text text-anchor="start" x="476" y="-24.5" font-family="Helvetica,sans-Serif" font-size="10.00">/robotology/wb&#45;toolbox</text>
<text text-anchor="middle" x="550" y="-13.5" font-family="Helvetica,sans-Serif" font-size="10.00">/toolbox/src/base/Parameters.cpp</text>
</a>
</g>
</g>
<!-- Node1&#45;&gt;Node5 -->
<g id="edge4" class="edge"><title>Node1&#45;&gt;Node5</title>
<path fill="none" stroke="midnightblue" d="M2525.8,-110.371C2208.14,-111.475 1013.69,-111.627 641,-54 631.095,-52.4684 620.743,-50.1905 610.721,-47.6089"/>
<polygon fill="midnightblue" stroke="midnightblue" points="2525.84,-113.871 2535.83,-110.335 2525.82,-106.871 2525.84,-113.871"/>
</g>
<!-- Node6 -->
<g id="node6" class="node"><title>Node6</title>
<g id="a_node6"><a xlink:href="_robot_interface_8cpp.html" target="_top" xlink:title="/home/travis/build\l/robotology/wb&#45;toolbox\l/toolbox/src/base/RobotInterface.cpp">
<polygon fill="none" stroke="black" points="650,-6.5 650,-47.5 828,-47.5 828,-6.5 650,-6.5"/>
<text text-anchor="start" x="658" y="-35.5" font-family="Helvetica,sans-Serif" font-size="10.00">/home/travis/build</text>
<text text-anchor="start" x="658" y="-24.5" font-family="Helvetica,sans-Serif" font-size="10.00">/robotology/wb&#45;toolbox</text>
<text text-anchor="middle" x="739" y="-13.5" font-family="Helvetica,sans-Serif" font-size="10.00">/toolbox/src/base/RobotInterface.cpp</text>
</a>
</g>
</g>
<!-- Node1&#45;&gt;Node6 -->
<g id="edge5" class="edge"><title>Node1&#45;&gt;Node6</title>
<path fill="none" stroke="midnightblue" d="M2525.39,-109.884C2227.72,-109.077 1169.76,-102.764 837,-54 826.289,-52.4304 815.068,-50.1144 804.201,-47.5012"/>
<polygon fill="midnightblue" stroke="midnightblue" points="2525.65,-113.385 2535.66,-109.911 2525.67,-106.385 2525.65,-113.385"/>
</g>
<!-- Node7 -->
<g id="node7" class="node"><title>Node7</title>
<g id="a_node7"><a xlink:href="_signal_8cpp.html" target="_top" xlink:title="/home/travis/build\l/robotology/wb&#45;toolbox\l/toolbox/src/base/Signal.cpp">
<polygon fill="none" stroke="black" points="846,-6.5 846,-47.5 986,-47.5 986,-6.5 846,-6.5"/>
<text text-anchor="start" x="854" y="-35.5" font-family="Helvetica,sans-Serif" font-size="10.00">/home/travis/build</text>
<text text-anchor="start" x="854" y="-24.5" font-family="Helvetica,sans-Serif" font-size="10.00">/robotology/wb&#45;toolbox</text>
<text text-anchor="middle" x="916" y="-13.5" font-family="Helvetica,sans-Serif" font-size="10.00">/toolbox/src/base/Signal.cpp</text>
</a>
</g>
</g>
<!-- Node1&#45;&gt;Node7 -->
<g id="edge6" class="edge"><title>Node1&#45;&gt;Node7</title>
<path fill="none" stroke="midnightblue" d="M2525.84,-110.2C2245.9,-110.463 1294.17,-107.318 995,-54 986.329,-52.4546 977.305,-50.1695 968.588,-47.5849"/>
<polygon fill="midnightblue" stroke="midnightblue" points="2525.91,-113.7 2535.91,-110.189 2525.9,-106.7 2525.91,-113.7"/>
</g>
<!-- Node8 -->
<g id="node8" class="node"><title>Node8</title>
<g id="a_node8"><a xlink:href="_simulink_block_information_8cpp.html" target="_top" xlink:title="/home/travis/build\l/robotology/wb&#45;toolbox\l/toolbox/src/base/SimulinkBlock\lInformation.cpp">
<polygon fill="none" stroke="black" points="1004.5,-1 1004.5,-53 1161.5,-53 1161.5,-1 1004.5,-1"/>
<text text-anchor="start" x="1012.5" y="-41" font-family="Helvetica,sans-Serif" font-size="10.00">/home/travis/build</text>
<text text-anchor="start" x="1012.5" y="-30" font-family="Helvetica,sans-Serif" font-size="10.00">/robotology/wb&#45;toolbox</text>
<text text-anchor="start" x="1012.5" y="-19" font-family="Helvetica,sans-Serif" font-size="10.00">/toolbox/src/base/SimulinkBlock</text>
<text text-anchor="middle" x="1083" y="-8" font-family="Helvetica,sans-Serif" font-size="10.00">Information.cpp</text>
</a>
</g>
</g>
<!-- Node1&#45;&gt;Node8 -->
<g id="edge7" class="edge"><title>Node1&#45;&gt;Node8</title>
<path fill="none" stroke="midnightblue" d="M2525.78,-109.53C2266.1,-107.566 1434.21,-97.9181 1170,-54 1167.2,-53.5347 1164.37,-53.0063 1161.51,-52.426"/>
<polygon fill="midnightblue" stroke="midnightblue" points="2525.85,-113.031 2535.87,-109.605 2525.9,-106.031 2525.85,-113.031"/>
</g>
<!-- Node9 -->
<g id="node9" class="node"><title>Node9</title>
<g id="a_node9"><a xlink:href="_w_b_block_8cpp.html" target="_top" xlink:title="/home/travis/build\l/robotology/wb&#45;toolbox\l/toolbox/src/base/WBBlock.cpp">
<polygon fill="none" stroke="black" points="1179.5,-6.5 1179.5,-47.5 1334.5,-47.5 1334.5,-6.5 1179.5,-6.5"/>
<text text-anchor="start" x="1187.5" y="-35.5" font-family="Helvetica,sans-Serif" font-size="10.00">/home/travis/build</text>
<text text-anchor="start" x="1187.5" y="-24.5" font-family="Helvetica,sans-Serif" font-size="10.00">/robotology/wb&#45;toolbox</text>
<text text-anchor="middle" x="1257" y="-13.5" font-family="Helvetica,sans-Serif" font-size="10.00">/toolbox/src/base/WBBlock.cpp</text>
</a>
</g>
</g>
<!-- Node1&#45;&gt;Node9 -->
<g id="edge8" class="edge"><title>Node1&#45;&gt;Node9</title>
<path fill="none" stroke="midnightblue" d="M2525.32,-109.032C2286.59,-105.696 1572.83,-92.6702 1344,-54 1334.67,-52.4239 1324.94,-50.1584 1315.5,-47.6132"/>
<polygon fill="midnightblue" stroke="midnightblue" points="2525.61,-112.536 2535.65,-109.174 2525.7,-105.537 2525.61,-112.536"/>
</g>
<!-- Node10 -->
<g id="node10" class="node"><title>Node10</title>
<g id="a_node10"><a xlink:href="_w_b_toolbox_8cpp.html" target="_top" xlink:title="/home/travis/build\l/robotology/wb&#45;toolbox\l/toolbox/src/base/WBToolbox.cpp">
<polygon fill="none" stroke="black" points="1353,-6.5 1353,-47.5 1517,-47.5 1517,-6.5 1353,-6.5"/>
<text text-anchor="start" x="1361" y="-35.5" font-family="Helvetica,sans-Serif" font-size="10.00">/home/travis/build</text>
<text text-anchor="start" x="1361" y="-24.5" font-family="Helvetica,sans-Serif" font-size="10.00">/robotology/wb&#45;toolbox</text>
<text text-anchor="middle" x="1435" y="-13.5" font-family="Helvetica,sans-Serif" font-size="10.00">/toolbox/src/base/WBToolbox.cpp</text>
</a>
</g>
</g>
<!-- Node1&#45;&gt;Node10 -->
<g id="edge9" class="edge"><title>Node1&#45;&gt;Node10</title>
<path fill="none" stroke="midnightblue" d="M2525.46,-108.227C2310.97,-103.016 1718.45,-86.0654 1526,-54 1516.28,-52.3797 1506.11,-50.0908 1496.25,-47.5355"/>
<polygon fill="midnightblue" stroke="midnightblue" points="2525.61,-111.731 2535.69,-108.473 2525.78,-104.733 2525.61,-111.731"/>
</g>
<!-- Node11 -->
<g id="node11" class="node"><title>Node11</title>
<g id="a_node11"><a xlink:href="_whole_body_singleton_8cpp.html" target="_top" xlink:title="/home/travis/build\l/robotology/wb&#45;toolbox\l/toolbox/src/base/WholeBodySingleton.cpp">
<polygon fill="none" stroke="black" points="1535,-6.5 1535,-47.5 1739,-47.5 1739,-6.5 1535,-6.5"/>
<text text-anchor="start" x="1543" y="-35.5" font-family="Helvetica,sans-Serif" font-size="10.00">/home/travis/build</text>
<text text-anchor="start" x="1543" y="-24.5" font-family="Helvetica,sans-Serif" font-size="10.00">/robotology/wb&#45;toolbox</text>
<text text-anchor="middle" x="1637" y="-13.5" font-family="Helvetica,sans-Serif" font-size="10.00">/toolbox/src/base/WholeBodySingleton.cpp</text>
</a>
</g>
</g>
<!-- Node1&#45;&gt;Node11 -->
<g id="edge10" class="edge"><title>Node1&#45;&gt;Node11</title>
<path fill="none" stroke="midnightblue" d="M2525.8,-109.183C2374.69,-106.656 2032.4,-96.3156 1748,-54 1736.55,-52.296 1724.53,-50.013 1712.81,-47.5048"/>
<polygon fill="midnightblue" stroke="midnightblue" points="2525.85,-112.684 2535.91,-109.345 2525.96,-105.685 2525.85,-112.684"/>
</g>
<!-- Node12 -->
<g id="node12" class="node"><title>Node12</title>
<g id="a_node12"><a xlink:href="_centroidal_momentum_8cpp.html" target="_top" xlink:title="/home/travis/build\l/robotology/wb&#45;toolbox\l/toolbox/src/CentroidalMomentum.cpp">
<polygon fill="none" stroke="black" points="1757,-6.5 1757,-47.5 1939,-47.5 1939,-6.5 1757,-6.5"/>
<text text-anchor="start" x="1765" y="-35.5" font-family="Helvetica,sans-Serif" font-size="10.00">/home/travis/build</text>
<text text-anchor="start" x="1765" y="-24.5" font-family="Helvetica,sans-Serif" font-size="10.00">/robotology/wb&#45;toolbox</text>
<text text-anchor="middle" x="1848" y="-13.5" font-family="Helvetica,sans-Serif" font-size="10.00">/toolbox/src/CentroidalMomentum.cpp</text>
</a>
</g>
</g>
<!-- Node1&#45;&gt;Node12 -->
<g id="edge11" class="edge"><title>Node1&#45;&gt;Node12</title>
<path fill="none" stroke="midnightblue" d="M2525.88,-107.603C2402.38,-102.857 2154.83,-89.4537 1948,-54 1937.83,-52.2574 1927.19,-49.9859 1916.79,-47.511"/>
<polygon fill="midnightblue" stroke="midnightblue" points="2525.87,-111.105 2536,-107.983 2526.14,-104.11 2525.87,-111.105"/>
</g>
<!-- Node13 -->
<g id="node13" class="node"><title>Node13</title>
<g id="a_node13"><a xlink:href="_discrete_filter_8cpp.html" target="_top" xlink:title="/home/travis/build\l/robotology/wb&#45;toolbox\l/toolbox/src/DiscreteFilter.cpp">
<polygon fill="none" stroke="black" points="1957,-6.5 1957,-47.5 2105,-47.5 2105,-6.5 1957,-6.5"/>
<text text-anchor="start" x="1965" y="-35.5" font-family="Helvetica,sans-Serif" font-size="10.00">/home/travis/build</text>
<text text-anchor="start" x="1965" y="-24.5" font-family="Helvetica,sans-Serif" font-size="10.00">/robotology/wb&#45;toolbox</text>
<text text-anchor="middle" x="2031" y="-13.5" font-family="Helvetica,sans-Serif" font-size="10.00">/toolbox/src/DiscreteFilter.cpp</text>
</a>
</g>
</g>
<!-- Node1&#45;&gt;Node13 -->
<g id="edge12" class="edge"><title>Node1&#45;&gt;Node13</title>
<path fill="none" stroke="midnightblue" d="M2525.93,-105.66C2428.61,-99.204 2257.6,-84.4098 2114,-54 2105.73,-52.2481 2097.1,-50.0186 2088.67,-47.6042"/>
<polygon fill="midnightblue" stroke="midnightblue" points="2525.77,-109.157 2535.98,-106.314 2526.22,-102.172 2525.77,-109.157"/>
</g>
<!-- Node14 -->
<g id="node14" class="node"><title>Node14</title>
<g id="a_node14"><a xlink:href="_dot_j_nu_8cpp.html" target="_top" xlink:title="/home/travis/build\l/robotology/wb&#45;toolbox\l/toolbox/src/DotJNu.cpp">
<polygon fill="none" stroke="black" points="2123.5,-6.5 2123.5,-47.5 2246.5,-47.5 2246.5,-6.5 2123.5,-6.5"/>
<text text-anchor="start" x="2131.5" y="-35.5" font-family="Helvetica,sans-Serif" font-size="10.00">/home/travis/build</text>
<text text-anchor="start" x="2131.5" y="-24.5" font-family="Helvetica,sans-Serif" font-size="10.00">/robotology/wb&#45;toolbox</text>
<text text-anchor="middle" x="2185" y="-13.5" font-family="Helvetica,sans-Serif" font-size="10.00">/toolbox/src/DotJNu.cpp</text>
</a>
</g>
</g>
<!-- Node1&#45;&gt;Node14 -->
<g id="edge13" class="edge"><title>Node1&#45;&gt;Node14</title>
<path fill="none" stroke="midnightblue" d="M2525.7,-101.898C2454.36,-93.467 2346.49,-78.0807 2255,-54 2248.1,-52.1851 2240.94,-49.9499 2233.94,-47.5589"/>
<polygon fill="midnightblue" stroke="midnightblue" points="2525.61,-105.411 2535.95,-103.091 2526.42,-98.4584 2525.61,-105.411"/>
</g>
<!-- Node15 -->
<g id="node15" class="node"><title>Node15</title>
<g id="a_node15"><a xlink:href="_forward_kinematics_8cpp.html" target="_top" xlink:title="/home/travis/build\l/robotology/wb&#45;toolbox\l/toolbox/src/ForwardKinematics.cpp">
<polygon fill="none" stroke="black" points="2264.5,-6.5 2264.5,-47.5 2437.5,-47.5 2437.5,-6.5 2264.5,-6.5"/>
<text text-anchor="start" x="2272.5" y="-35.5" font-family="Helvetica,sans-Serif" font-size="10.00">/home/travis/build</text>
<text text-anchor="start" x="2272.5" y="-24.5" font-family="Helvetica,sans-Serif" font-size="10.00">/robotology/wb&#45;toolbox</text>
<text text-anchor="middle" x="2351" y="-13.5" font-family="Helvetica,sans-Serif" font-size="10.00">/toolbox/src/ForwardKinematics.cpp</text>
</a>
</g>
</g>
<!-- Node1&#45;&gt;Node15 -->
<g id="edge14" class="edge"><title>Node1&#45;&gt;Node15</title>
<path fill="none" stroke="midnightblue" d="M2534.12,-87.3517C2495.57,-74.8554 2448.17,-59.4933 2411.25,-47.5291"/>
<polygon fill="midnightblue" stroke="midnightblue" points="2533.13,-90.7094 2543.72,-90.4631 2535.29,-84.0504 2533.13,-90.7094"/>
</g>
<!-- Node16 -->
<g id="node16" class="node"><title>Node16</title>
<g id="a_node16"><a xlink:href="_get_limits_8cpp.html" target="_top" xlink:title="/home/travis/build\l/robotology/wb&#45;toolbox\l/toolbox/src/GetLimits.cpp">
<polygon fill="none" stroke="black" points="2455.5,-6.5 2455.5,-47.5 2586.5,-47.5 2586.5,-6.5 2455.5,-6.5"/>
<text text-anchor="start" x="2463.5" y="-35.5" font-family="Helvetica,sans-Serif" font-size="10.00">/home/travis/build</text>
<text text-anchor="start" x="2463.5" y="-24.5" font-family="Helvetica,sans-Serif" font-size="10.00">/robotology/wb&#45;toolbox</text>
<text text-anchor="middle" x="2521" y="-13.5" font-family="Helvetica,sans-Serif" font-size="10.00">/toolbox/src/GetLimits.cpp</text>
</a>
</g>
</g>
<!-- Node1&#45;&gt;Node16 -->
<g id="edge15" class="edge"><title>Node1&#45;&gt;Node16</title>
<path fill="none" stroke="midnightblue" d="M2576.54,-82.8729C2564.9,-71.3689 2551.58,-58.213 2540.91,-47.6671"/>
<polygon fill="midnightblue" stroke="midnightblue" points="2574.33,-85.6118 2583.91,-90.1501 2579.25,-80.6321 2574.33,-85.6118"/>
</g>
<!-- Node17 -->
<g id="node17" class="node"><title>Node17</title>
<g id="a_node17"><a xlink:href="_get_measurement_8cpp.html" target="_top" xlink:title="/home/travis/build\l/robotology/wb&#45;toolbox\l/toolbox/src/GetMeasurement.cpp">
<polygon fill="none" stroke="black" points="2605,-6.5 2605,-47.5 2769,-47.5 2769,-6.5 2605,-6.5"/>
<text text-anchor="start" x="2613" y="-35.5" font-family="Helvetica,sans-Serif" font-size="10.00">/home/travis/build</text>
<text text-anchor="start" x="2613" y="-24.5" font-family="Helvetica,sans-Serif" font-size="10.00">/robotology/wb&#45;toolbox</text>
<text text-anchor="middle" x="2687" y="-13.5" font-family="Helvetica,sans-Serif" font-size="10.00">/toolbox/src/GetMeasurement.cpp</text>
</a>
</g>
</g>
<!-- Node1&#45;&gt;Node17 -->
<g id="edge16" class="edge"><title>Node1&#45;&gt;Node17</title>
<path fill="none" stroke="midnightblue" d="M2631.46,-82.8729C2643.1,-71.3689 2656.42,-58.213 2667.09,-47.6671"/>
<polygon fill="midnightblue" stroke="midnightblue" points="2628.75,-80.6321 2624.09,-90.1501 2633.67,-85.6118 2628.75,-80.6321"/>
</g>
<!-- Node18 -->
<g id="node18" class="node"><title>Node18</title>
<g id="a_node18"><a xlink:href="_inverse_dynamics_8cpp.html" target="_top" xlink:title="/home/travis/build\l/robotology/wb&#45;toolbox\l/toolbox/src/InverseDynamics.cpp">
<polygon fill="none" stroke="black" points="2787,-6.5 2787,-47.5 2953,-47.5 2953,-6.5 2787,-6.5"/>
<text text-anchor="start" x="2795" y="-35.5" font-family="Helvetica,sans-Serif" font-size="10.00">/home/travis/build</text>
<text text-anchor="start" x="2795" y="-24.5" font-family="Helvetica,sans-Serif" font-size="10.00">/robotology/wb&#45;toolbox</text>
<text text-anchor="middle" x="2870" y="-13.5" font-family="Helvetica,sans-Serif" font-size="10.00">/toolbox/src/InverseDynamics.cpp</text>
</a>
</g>
</g>
<!-- Node1&#45;&gt;Node18 -->
<g id="edge17" class="edge"><title>Node1&#45;&gt;Node18</title>
<path fill="none" stroke="midnightblue" d="M2676.95,-87.5104C2717.58,-74.9856 2767.67,-59.544 2806.65,-47.5291"/>
<polygon fill="midnightblue" stroke="midnightblue" points="2675.9,-84.1725 2667.38,-90.4631 2677.96,-90.8618 2675.9,-84.1725"/>
</g>
<!-- Node19 -->
<g id="node19" class="node"><title>Node19</title>
<g id="a_node19"><a xlink:href="_jacobian_8cpp.html" target="_top" xlink:title="/home/travis/build\l/robotology/wb&#45;toolbox\l/toolbox/src/Jacobian.cpp">
<polygon fill="none" stroke="black" points="2971,-6.5 2971,-47.5 3099,-47.5 3099,-6.5 2971,-6.5"/>
<text text-anchor="start" x="2979" y="-35.5" font-family="Helvetica,sans-Serif" font-size="10.00">/home/travis/build</text>
<text text-anchor="start" x="2979" y="-24.5" font-family="Helvetica,sans-Serif" font-size="10.00">/robotology/wb&#45;toolbox</text>
<text text-anchor="middle" x="3035" y="-13.5" font-family="Helvetica,sans-Serif" font-size="10.00">/toolbox/src/Jacobian.cpp</text>
</a>
</g>
</g>
<!-- Node1&#45;&gt;Node19 -->
<g id="edge18" class="edge"><title>Node1&#45;&gt;Node19</title>
<path fill="none" stroke="midnightblue" d="M2682.11,-102.045C2755.21,-93.5998 2867.08,-78.1024 2962,-54 2969.17,-52.179 2976.63,-49.9403 2983.92,-47.5475"/>
<polygon fill="midnightblue" stroke="midnightblue" points="2681.6,-98.5802 2672.06,-103.19 2682.39,-105.535 2681.6,-98.5802"/>
</g>
<!-- Node20 -->
<g id="node20" class="node"><title>Node20</title>
<g id="a_node20"><a xlink:href="_mass_matrix_8cpp.html" target="_top" xlink:title="/home/travis/build\l/robotology/wb&#45;toolbox\l/toolbox/src/MassMatrix.cpp">
<polygon fill="none" stroke="black" points="3117,-6.5 3117,-47.5 3257,-47.5 3257,-6.5 3117,-6.5"/>
<text text-anchor="start" x="3125" y="-35.5" font-family="Helvetica,sans-Serif" font-size="10.00">/home/travis/build</text>
<text text-anchor="start" x="3125" y="-24.5" font-family="Helvetica,sans-Serif" font-size="10.00">/robotology/wb&#45;toolbox</text>
<text text-anchor="middle" x="3187" y="-13.5" font-family="Helvetica,sans-Serif" font-size="10.00">/toolbox/src/MassMatrix.cpp</text>
</a>
</g>
</g>
<!-- Node1&#45;&gt;Node20 -->
<g id="edge19" class="edge"><title>Node1&#45;&gt;Node20</title>
<path fill="none" stroke="midnightblue" d="M2682.39,-106.329C2782.21,-100.507 2959.54,-86.3106 3108,-54 3116.04,-52.2497 3124.42,-49.9899 3132.58,-47.5342"/>
<polygon fill="midnightblue" stroke="midnightblue" points="2682.17,-102.836 2672.39,-106.899 2682.57,-109.824 2682.17,-102.836"/>
</g>
<!-- Node21 -->
<g id="node21" class="node"><title>Node21</title>
<g id="a_node21"><a xlink:href="_minimum_jerk_trajectory_generator_8cpp.html" target="_top" xlink:title="/home/travis/build\l/robotology/wb&#45;toolbox\l/toolbox/src/MinimumJerkTrajectory\lGenerator.cpp">
<polygon fill="none" stroke="black" points="3275.5,-1 3275.5,-53 3448.5,-53 3448.5,-1 3275.5,-1"/>
<text text-anchor="start" x="3283.5" y="-41" font-family="Helvetica,sans-Serif" font-size="10.00">/home/travis/build</text>
<text text-anchor="start" x="3283.5" y="-30" font-family="Helvetica,sans-Serif" font-size="10.00">/robotology/wb&#45;toolbox</text>
<text text-anchor="start" x="3283.5" y="-19" font-family="Helvetica,sans-Serif" font-size="10.00">/toolbox/src/MinimumJerkTrajectory</text>
<text text-anchor="middle" x="3362" y="-8" font-family="Helvetica,sans-Serif" font-size="10.00">Generator.cpp</text>
</a>
</g>
</g>
<!-- Node1&#45;&gt;Node21 -->
<g id="edge20" class="edge"><title>Node1&#45;&gt;Node21</title>
<path fill="none" stroke="midnightblue" d="M2682.38,-107.932C2806.9,-103.625 3057.18,-90.7998 3266,-54 3269.06,-53.4606 3272.17,-52.8685 3275.29,-52.2337"/>
<polygon fill="midnightblue" stroke="midnightblue" points="2682.06,-104.44 2672.18,-108.275 2682.3,-111.436 2682.06,-104.44"/>
</g>
<!-- Node22 -->
<g id="node22" class="node"><title>Node22</title>
<g id="a_node22"><a xlink:href="_model_partitioner_8cpp.html" target="_top" xlink:title="/home/travis/build\l/robotology/wb&#45;toolbox\l/toolbox/src/ModelPartitioner.cpp">
<polygon fill="none" stroke="black" points="3467,-6.5 3467,-47.5 3627,-47.5 3627,-6.5 3467,-6.5"/>
<text text-anchor="start" x="3475" y="-35.5" font-family="Helvetica,sans-Serif" font-size="10.00">/home/travis/build</text>
<text text-anchor="start" x="3475" y="-24.5" font-family="Helvetica,sans-Serif" font-size="10.00">/robotology/wb&#45;toolbox</text>
<text text-anchor="middle" x="3547" y="-13.5" font-family="Helvetica,sans-Serif" font-size="10.00">/toolbox/src/ModelPartitioner.cpp</text>
</a>
</g>
</g>
<!-- Node1&#45;&gt;Node22 -->
<g id="edge21" class="edge"><title>Node1&#45;&gt;Node22</title>
<path fill="none" stroke="midnightblue" d="M2682.14,-110.473C2833.09,-110.156 3174.77,-103.433 3457,-54 3466.45,-52.3445 3476.33,-50.071 3485.93,-47.5524"/>
<polygon fill="midnightblue" stroke="midnightblue" points="2682.04,-106.974 2672.04,-110.486 2682.05,-113.973 2682.04,-106.974"/>
</g>
<!-- Node23 -->
<g id="node23" class="node"><title>Node23</title>
<g id="a_node23"><a xlink:href="_qp_oases_8cpp.html" target="_top" xlink:title="/home/travis/build\l/robotology/wb&#45;toolbox\l/toolbox/src/QpOases.cpp">
<polygon fill="none" stroke="black" points="3645.5,-6.5 3645.5,-47.5 3776.5,-47.5 3776.5,-6.5 3645.5,-6.5"/>
<text text-anchor="start" x="3653.5" y="-35.5" font-family="Helvetica,sans-Serif" font-size="10.00">/home/travis/build</text>
<text text-anchor="start" x="3653.5" y="-24.5" font-family="Helvetica,sans-Serif" font-size="10.00">/robotology/wb&#45;toolbox</text>
<text text-anchor="middle" x="3711" y="-13.5" font-family="Helvetica,sans-Serif" font-size="10.00">/toolbox/src/QpOases.cpp</text>
</a>
</g>
</g>
<!-- Node1&#45;&gt;Node23 -->
<g id="edge22" class="edge"><title>Node1&#45;&gt;Node23</title>
<path fill="none" stroke="midnightblue" d="M2682.54,-108.572C2890.8,-104.335 3453.66,-89.8165 3636,-54 3644.11,-52.4063 3652.54,-50.1314 3660.7,-47.5822"/>
<polygon fill="midnightblue" stroke="midnightblue" points="2682.22,-105.078 2672.3,-108.778 2682.36,-112.077 2682.22,-105.078"/>
</g>
<!-- Node24 -->
<g id="node24" class="node"><title>Node24</title>
<g id="a_node24"><a xlink:href="_real_time_synchronizer_8cpp.html" target="_top" xlink:title="/home/travis/build\l/robotology/wb&#45;toolbox\l/toolbox/src/RealTimeSynchronizer.cpp">
<polygon fill="none" stroke="black" points="3795,-6.5 3795,-47.5 3983,-47.5 3983,-6.5 3795,-6.5"/>
<text text-anchor="start" x="3803" y="-35.5" font-family="Helvetica,sans-Serif" font-size="10.00">/home/travis/build</text>
<text text-anchor="start" x="3803" y="-24.5" font-family="Helvetica,sans-Serif" font-size="10.00">/robotology/wb&#45;toolbox</text>
<text text-anchor="middle" x="3889" y="-13.5" font-family="Helvetica,sans-Serif" font-size="10.00">/toolbox/src/RealTimeSynchronizer.cpp</text>
</a>
</g>
</g>
<!-- Node1&#45;&gt;Node24 -->
<g id="edge23" class="edge"><title>Node1&#45;&gt;Node24</title>
<path fill="none" stroke="midnightblue" d="M2682.36,-108.305C2910.43,-103.051 3571.25,-85.4708 3785,-54 3796.05,-52.3734 3807.63,-50.0811 3818.89,-47.5244"/>
<polygon fill="midnightblue" stroke="midnightblue" points="2682.07,-104.811 2672.15,-108.539 2682.23,-111.809 2682.07,-104.811"/>
</g>
<!-- Node25 -->
<g id="node25" class="node"><title>Node25</title>
<g id="a_node25"><a xlink:href="_relative_transform_8cpp.html" target="_top" xlink:title="/home/travis/build\l/robotology/wb&#45;toolbox\l/toolbox/src/RelativeTransform.cpp">
<polygon fill="none" stroke="black" points="4001,-6.5 4001,-47.5 4171,-47.5 4171,-6.5 4001,-6.5"/>
<text text-anchor="start" x="4009" y="-35.5" font-family="Helvetica,sans-Serif" font-size="10.00">/home/travis/build</text>
<text text-anchor="start" x="4009" y="-24.5" font-family="Helvetica,sans-Serif" font-size="10.00">/robotology/wb&#45;toolbox</text>
<text text-anchor="middle" x="4086" y="-13.5" font-family="Helvetica,sans-Serif" font-size="10.00">/toolbox/src/RelativeTransform.cpp</text>
</a>
</g>
</g>
<!-- Node1&#45;&gt;Node25 -->
<g id="edge24" class="edge"><title>Node1&#45;&gt;Node25</title>
<path fill="none" stroke="midnightblue" d="M2682.68,-109.198C2937.25,-106.229 3736.86,-93.889 3992,-54 4002.12,-52.4177 4012.71,-50.1311 4022.98,-47.5615"/>
<polygon fill="midnightblue" stroke="midnightblue" points="2682.36,-105.701 2672.41,-109.316 2682.45,-112.701 2682.36,-105.701"/>
</g>
<!-- Node26 -->
<g id="node26" class="node"><title>Node26</title>
<g id="a_node26"><a xlink:href="_set_low_level_p_i_d_8cpp.html" target="_top" xlink:title="/home/travis/build\l/robotology/wb&#45;toolbox\l/toolbox/src/SetLowLevelPID.cpp">
<polygon fill="none" stroke="black" points="4189.5,-6.5 4189.5,-47.5 4352.5,-47.5 4352.5,-6.5 4189.5,-6.5"/>
<text text-anchor="start" x="4197.5" y="-35.5" font-family="Helvetica,sans-Serif" font-size="10.00">/home/travis/build</text>
<text text-anchor="start" x="4197.5" y="-24.5" font-family="Helvetica,sans-Serif" font-size="10.00">/robotology/wb&#45;toolbox</text>
<text text-anchor="middle" x="4271" y="-13.5" font-family="Helvetica,sans-Serif" font-size="10.00">/toolbox/src/SetLowLevelPID.cpp</text>
</a>
</g>
</g>
<!-- Node1&#45;&gt;Node26 -->
<g id="edge25" class="edge"><title>Node1&#45;&gt;Node26</title>
<path fill="none" stroke="midnightblue" d="M2682.78,-109.726C2959.61,-108.369 3886.81,-100.385 4180,-54 4189.9,-52.4338 4200.25,-50.1377 4210.27,-47.5486"/>
<polygon fill="midnightblue" stroke="midnightblue" points="2682.41,-106.228 2672.43,-109.775 2682.44,-113.227 2682.41,-106.228"/>
</g>
<!-- Node27 -->
<g id="node27" class="node"><title>Node27</title>
<g id="a_node27"><a xlink:href="_set_references_8cpp.html" target="_top" xlink:title="/home/travis/build\l/robotology/wb&#45;toolbox\l/toolbox/src/SetReferences.cpp">
<polygon fill="none" stroke="black" points="4370.5,-6.5 4370.5,-47.5 4525.5,-47.5 4525.5,-6.5 4370.5,-6.5"/>
<text text-anchor="start" x="4378.5" y="-35.5" font-family="Helvetica,sans-Serif" font-size="10.00">/home/travis/build</text>
<text text-anchor="start" x="4378.5" y="-24.5" font-family="Helvetica,sans-Serif" font-size="10.00">/robotology/wb&#45;toolbox</text>
<text text-anchor="middle" x="4448" y="-13.5" font-family="Helvetica,sans-Serif" font-size="10.00">/toolbox/src/SetReferences.cpp</text>
</a>
</g>
</g>
<!-- Node1&#45;&gt;Node27 -->
<g id="edge26" class="edge"><title>Node1&#45;&gt;Node27</title>
<path fill="none" stroke="midnightblue" d="M2682.71,-110.189C2979.56,-110.481 4031.1,-107.622 4361,-54 4370.49,-52.4572 4380.4,-50.1734 4389.99,-47.5894"/>
<polygon fill="midnightblue" stroke="midnightblue" points="2682.48,-106.688 2672.47,-110.177 2682.47,-113.688 2682.48,-106.688"/>
</g>
<!-- Node28 -->
<g id="node28" class="node"><title>Node28</title>
<g id="a_node28"><a xlink:href="_simulator_synchronizer_8cpp.html" target="_top" xlink:title="/home/travis/build\l/robotology/wb&#45;toolbox\l/toolbox/src/SimulatorSynchronizer.cpp">
<polygon fill="none" stroke="black" points="4544,-6.5 4544,-47.5 4732,-47.5 4732,-6.5 4544,-6.5"/>
<text text-anchor="start" x="4552" y="-35.5" font-family="Helvetica,sans-Serif" font-size="10.00">/home/travis/build</text>
<text text-anchor="start" x="4552" y="-24.5" font-family="Helvetica,sans-Serif" font-size="10.00">/robotology/wb&#45;toolbox</text>
<text text-anchor="middle" x="4638" y="-13.5" font-family="Helvetica,sans-Serif" font-size="10.00">/toolbox/src/SimulatorSynchronizer.cpp</text>
</a>
</g>
</g>
<!-- Node1&#45;&gt;Node28 -->
<g id="edge27" class="edge"><title>Node1&#45;&gt;Node28</title>
<path fill="none" stroke="midnightblue" d="M2682.62,-109.981C2997.4,-109.557 4167.39,-104.54 4534,-54 4545.34,-52.4369 4557.23,-50.1243 4568.76,-47.5125"/>
<polygon fill="midnightblue" stroke="midnightblue" points="2682.22,-106.482 2672.23,-109.994 2682.23,-113.482 2682.22,-106.482"/>
</g>
<!-- Node29 -->
<g id="node29" class="node"><title>Node29</title>
<g id="a_node29"><a xlink:href="_yarp_clock_8cpp.html" target="_top" xlink:title="/home/travis/build\l/robotology/wb&#45;toolbox\l/toolbox/src/YarpClock.cpp">
<polygon fill="none" stroke="black" points="4750.5,-6.5 4750.5,-47.5 4885.5,-47.5 4885.5,-6.5 4750.5,-6.5"/>
<text text-anchor="start" x="4758.5" y="-35.5" font-family="Helvetica,sans-Serif" font-size="10.00">/home/travis/build</text>
<text text-anchor="start" x="4758.5" y="-24.5" font-family="Helvetica,sans-Serif" font-size="10.00">/robotology/wb&#45;toolbox</text>
<text text-anchor="middle" x="4818" y="-13.5" font-family="Helvetica,sans-Serif" font-size="10.00">/toolbox/src/YarpClock.cpp</text>
</a>
</g>
</g>
<!-- Node1&#45;&gt;Node29 -->
<g id="edge28" class="edge"><title>Node1&#45;&gt;Node29</title>
<path fill="none" stroke="midnightblue" d="M2682.15,-109.336C3042.58,-106.085 4535.61,-90.5103 4741,-54 4749.61,-52.469 4758.57,-50.1545 4767.2,-47.5259"/>
<polygon fill="midnightblue" stroke="midnightblue" points="2682.04,-105.836 2672.07,-109.426 2682.1,-112.836 2682.04,-105.836"/>
</g>
<!-- Node30 -->
<g id="node30" class="node"><title>Node30</title>
<g id="a_node30"><a xlink:href="_yarp_read_8cpp.html" target="_top" xlink:title="/home/travis/build\l/robotology/wb&#45;toolbox\l/toolbox/src/YarpRead.cpp">
<polygon fill="none" stroke="black" points="4903.5,-6.5 4903.5,-47.5 5036.5,-47.5 5036.5,-6.5 4903.5,-6.5"/>
<text text-anchor="start" x="4911.5" y="-35.5" font-family="Helvetica,sans-Serif" font-size="10.00">/home/travis/build</text>
<text text-anchor="start" x="4911.5" y="-24.5" font-family="Helvetica,sans-Serif" font-size="10.00">/robotology/wb&#45;toolbox</text>
<text text-anchor="middle" x="4970" y="-13.5" font-family="Helvetica,sans-Serif" font-size="10.00">/toolbox/src/YarpRead.cpp</text>
</a>
</g>
</g>
<!-- Node1&#45;&gt;Node30 -->
<g id="edge29" class="edge"><title>Node1&#45;&gt;Node30</title>
<path fill="none" stroke="midnightblue" d="M2682.44,-109.499C3059.08,-106.905 4672.93,-93.5515 4894,-54 4902.51,-52.4773 4911.36,-50.1672 4919.88,-47.5403"/>
<polygon fill="midnightblue" stroke="midnightblue" points="2682.16,-106.001 2672.18,-109.57 2682.21,-113.001 2682.16,-106.001"/>
</g>
<!-- Node31 -->
<g id="node31" class="node"><title>Node31</title>
<g id="a_node31"><a xlink:href="_yarp_write_8cpp.html" target="_top" xlink:title="/home/travis/build\l/robotology/wb&#45;toolbox\l/toolbox/src/YarpWrite.cpp">
<polygon fill="none" stroke="black" points="5054.5,-6.5 5054.5,-47.5 5187.5,-47.5 5187.5,-6.5 5054.5,-6.5"/>
<text text-anchor="start" x="5062.5" y="-35.5" font-family="Helvetica,sans-Serif" font-size="10.00">/home/travis/build</text>
<text text-anchor="start" x="5062.5" y="-24.5" font-family="Helvetica,sans-Serif" font-size="10.00">/robotology/wb&#45;toolbox</text>
<text text-anchor="middle" x="5121" y="-13.5" font-family="Helvetica,sans-Serif" font-size="10.00">/toolbox/src/YarpWrite.cpp</text>
</a>
</g>
</g>
<!-- Node1&#45;&gt;Node31 -->
<g id="edge30" class="edge"><title>Node1&#45;&gt;Node31</title>
<path fill="none" stroke="midnightblue" d="M2682.14,-109.629C3073.2,-107.582 4808.24,-96.1732 5045,-54 5053.51,-52.4838 5062.36,-50.1769 5070.88,-47.5514"/>
<polygon fill="midnightblue" stroke="midnightblue" points="2682.04,-106.129 2672.06,-109.681 2682.08,-113.129 2682.04,-106.129"/>
</g>
</g>
</svg>
        <g id="navigator" transform="translate(0 0)" fill="#404254">
                <rect fill="#f2f5e9" fill-opacity="0.5" stroke="#606060" stroke-width=".5" x="0" y="0" width="60" height="60"/>
                <use id="zoomplus" xlink:href="#zoomPlus" x="17" y="9" onmousedown="handleZoom(evt,'in')"/>
                <use id="zoomminus" xlink:href="#zoomMin" x="42" y="9" onmousedown="handleZoom(evt,'out')"/>
                <use id="reset" xlink:href="#resetDef" x="30" y="36" onmousedown="handleReset()"/>
                <g id="arrowUp" xlink:href="#dirArrow" transform="translate(30 24)" onmousedown="handlePan(0,-1)">
                  <use xlink:href="#rim" fill="#404040">
                        <set attributeName="fill" to="#808080" begin="arrowUp.mouseover" end="arrowUp.mouseout"/>
                  </use>
                  <path fill="none" stroke="white" stroke-width="1.5" d="M0,-3.0v7 M-2.5,-0.5L0,-3.0L2.5,-0.5"/>
                </g>
                <g id="arrowRight" xlink:href="#dirArrow" transform="rotate(90) translate(36 -43)" onmousedown="handlePan(1,0)">
                  <use xlink:href="#rim" fill="#404040">
                        <set attributeName="fill" to="#808080" begin="arrowRight.mouseover" end="arrowRight.mouseout"/>
                  </use>
                  <path fill="none" stroke="white" stroke-width="1.5" d="M0,-3.0v7 M-2.5,-0.5L0,-3.0L2.5,-0.5"/>
                </g>
                <g id="arrowDown" xlink:href="#dirArrow" transform="rotate(180) translate(-30 -48)" onmousedown="handlePan(0,1)">
                  <use xlink:href="#rim" fill="#404040">
                        <set attributeName="fill" to="#808080" begin="arrowDown.mouseover" end="arrowDown.mouseout"/>
                  </use>
                  <path fill="none" stroke="white" stroke-width="1.5" d="M0,-3.0v7 M-2.5,-0.5L0,-3.0L2.5,-0.5"/>
                </g>
                <g id="arrowLeft" xlink:href="#dirArrow" transform="rotate(270) translate(-36 17)" onmousedown="handlePan(-1,0)">
                  <use xlink:href="#rim" fill="#404040">
                        <set attributeName="fill" to="#808080" begin="arrowLeft.mouseover" end="arrowLeft.mouseout"/>
                  </use>
                  <path fill="none" stroke="white" stroke-width="1.5" d="M0,-3.0v7 M-2.5,-0.5L0,-3.0L2.5,-0.5"/>
                </g>
        </g>
        <svg viewBox="0 0 15 15" width="100%" height="30px" preserveAspectRatio="xMaxYMin meet">
         <g id="arrow_out" transform="scale(0.3 0.3)">
          <a xlink:href="_log_8h__dep__incl_org.svg" target="_base">
           <rect id="button" ry="5" rx="5" y="6" x="6" height="38" width="38"
                fill="#f2f5e9" fill-opacity="0.5" stroke="#606060" stroke-width="1.0"/>
           <path id="arrow"
             d="M 11.500037,31.436501 C 11.940474,20.09759 22.043105,11.32322 32.158766,21.979434 L 37.068811,17.246167 C 37.068811,17.246167 37.088388,32 37.088388,32 L 22.160133,31.978069 C 22.160133,31.978069 26.997745,27.140456 26.997745,27.140456 C 18.528582,18.264221 13.291696,25.230495 11.500037,31.436501 z"
             style="fill:#404040;"/>
          </a>
         </g>
        </svg>
</svg>
