<?xml version="1.0" encoding="UTF-8" standalone="no"?>
<!DOCTYPE svg PUBLIC "-//W3C//DTD SVG 1.1//EN"
 "http://www.w3.org/Graphics/SVG/1.1/DTD/svg11.dtd">
<!-- Generated by graphviz version 2.36.0 (20140111.2315)
 -->
<!-- Title: /home/travis/build/robotology/wb&#45;toolbox/toolbox/src/core/include/Core/Log.h Pages: 1 -->
<!--zoomable 152 -->
<svg id="main" version="1.1" xmlns="http://www.w3.org/2000/svg" xmlns:xlink="http://www.w3.org/1999/xlink" xml:space="preserve" onload="init(evt)">
<style type="text/css"><![CDATA[
.edge:hover path { stroke: red; }
.edge:hover polygon { stroke: red; fill: red; }
]]></style>
<script type="text/javascript"><![CDATA[
var edges = document.getElementsByTagName('g');
if (edges && edges.length) {
  for (var i=0;i<edges.length;i++) {
    if (edges[i].id.substr(0,4)=='edge') {
      edges[i].setAttribute('class','edge');
    }
  }
}
]]></script>
        <defs>
                <circle id="rim" cx="0" cy="0" r="7"/>
                <circle id="rim2" cx="0" cy="0" r="3.5"/>
                <g id="zoomPlus">
                        <use xlink:href="#rim" fill="#404040">
                                <set attributeName="fill" to="#808080" begin="zoomplus.mouseover" end="zoomplus.mouseout"/>
                        </use>
                        <path d="M-4,0h8M0,-4v8" fill="none" stroke="white" stroke-width="1.5" pointer-events="none"/>
                </g>
                <g id="zoomMin">
                        <use xlink:href="#rim" fill="#404040">
                                <set attributeName="fill" to="#808080" begin="zoomminus.mouseover" end="zoomminus.mouseout"/>
                        </use>
                        <path d="M-4,0h8" fill="none" stroke="white" stroke-width="1.5" pointer-events="none"/>
                </g>
                <g id="dirArrow">
                        <path fill="none" stroke="white" stroke-width="1.5" d="M0,-3.0v7 M-2.5,-0.5L0,-3.0L2.5,-0.5"/>
                </g>
               <g id="resetDef">
                       <use xlink:href="#rim2" fill="#404040">
                               <set attributeName="fill" to="#808080" begin="reset.mouseover" end="reset.mouseout"/>
                       </use>
               </g>
        </defs>

<script type="text/javascript">
var viewWidth = 4072;
var viewHeight = 152;
var sectionId = 'dynsection-1';
</script>
<script xlink:href="svgpan.js"/>
<svg id="graph" class="graph">
<g id="viewport">
<title>/home/travis/build/robotology/wb&#45;toolbox/toolbox/src/core/include/Core/Log.h</title>
<!-- Node1 -->
<g id="node1" class="node"><title>Node1</title>
<polygon fill="#bfbfbf" stroke="black" points="1939.5,-91 1939.5,-143 2062.5,-143 2062.5,-91 1939.5,-91"/>
<text text-anchor="start" x="1947.5" y="-131" font-family="Helvetica,sans-Serif" font-size="10.00">/home/travis/build</text>
<text text-anchor="start" x="1947.5" y="-120" font-family="Helvetica,sans-Serif" font-size="10.00">/robotology/wb&#45;toolbox</text>
<text text-anchor="start" x="1947.5" y="-109" font-family="Helvetica,sans-Serif" font-size="10.00">/toolbox/src/core/include</text>
<text text-anchor="middle" x="2001" y="-98" font-family="Helvetica,sans-Serif" font-size="10.00">/Core/Log.h</text>
</g>
<!-- Node2 -->
<g id="node2" class="node"><title>Node2</title>
<g id="a_node2"><a xlink:href="_block_8cpp.html" target="_top" xlink:title="/home/travis/build\l/robotology/wb&#45;toolbox\l/toolbox/src/core/src\l/Block.cpp">
<polygon fill="none" stroke="black" points="-0.5,-1 -0.5,-53 114.5,-53 114.5,-1 -0.5,-1"/>
<text text-anchor="start" x="7.5" y="-41" font-family="Helvetica,sans-Serif" font-size="10.00">/home/travis/build</text>
<text text-anchor="start" x="7.5" y="-30" font-family="Helvetica,sans-Serif" font-size="10.00">/robotology/wb&#45;toolbox</text>
<text text-anchor="start" x="7.5" y="-19" font-family="Helvetica,sans-Serif" font-size="10.00">/toolbox/src/core/src</text>
<text text-anchor="middle" x="57" y="-8" font-family="Helvetica,sans-Serif" font-size="10.00">/Block.cpp</text>
</a>
</g>
</g>
<!-- Node1&#45;&gt;Node2 -->
<g id="edge1" class="edge"><title>Node1&#45;&gt;Node2</title>
<path fill="none" stroke="midnightblue" d="M1929.29,-115.057C1607.3,-110.632 302.991,-90.5806 124,-54 120.944,-53.3754 117.846,-52.6249 114.743,-51.7789"/>
<polygon fill="midnightblue" stroke="midnightblue" points="1929.38,-118.559 1939.43,-115.196 1929.48,-111.559 1929.38,-118.559"/>
</g>
<!-- Node3 -->
<g id="node3" class="node"><title>Node3</title>
<g id="a_node3"><a xlink:href="_coder_block_information_8cpp.html" target="_top" xlink:title="/home/travis/build\l/robotology/wb&#45;toolbox\l/toolbox/src/core/src\l/CoderBlockInformation.cpp">
<polygon fill="none" stroke="black" points="133,-1 133,-53 271,-53 271,-1 133,-1"/>
<text text-anchor="start" x="141" y="-41" font-family="Helvetica,sans-Serif" font-size="10.00">/home/travis/build</text>
<text text-anchor="start" x="141" y="-30" font-family="Helvetica,sans-Serif" font-size="10.00">/robotology/wb&#45;toolbox</text>
<text text-anchor="start" x="141" y="-19" font-family="Helvetica,sans-Serif" font-size="10.00">/toolbox/src/core/src</text>
<text text-anchor="middle" x="202" y="-8" font-family="Helvetica,sans-Serif" font-size="10.00">/CoderBlockInformation.cpp</text>
</a>
</g>
</g>
<!-- Node1&#45;&gt;Node3 -->
<g id="edge2" class="edge"><title>Node1&#45;&gt;Node3</title>
<path fill="none" stroke="midnightblue" d="M1929.23,-116.138C1645.81,-116.26 604.219,-112.623 280,-54 277.05,-53.4666 274.06,-52.8458 271.055,-52.1555"/>
<polygon fill="midnightblue" stroke="midnightblue" points="1929.39,-119.638 1939.38,-116.131 1929.38,-112.638 1929.39,-119.638"/>
</g>
<!-- Node4 -->
<g id="node4" class="node"><title>Node4</title>
<g id="a_node4"><a xlink:href="_log_8cpp.html" target="_top" xlink:title="/home/travis/build\l/robotology/wb&#45;toolbox\l/toolbox/src/core/src\l/Log.cpp">
<polygon fill="none" stroke="black" points="289.5,-1 289.5,-53 404.5,-53 404.5,-1 289.5,-1"/>
<text text-anchor="start" x="297.5" y="-41" font-family="Helvetica,sans-Serif" font-size="10.00">/home/travis/build</text>
<text text-anchor="start" x="297.5" y="-30" font-family="Helvetica,sans-Serif" font-size="10.00">/robotology/wb&#45;toolbox</text>
<text text-anchor="start" x="297.5" y="-19" font-family="Helvetica,sans-Serif" font-size="10.00">/toolbox/src/core/src</text>
<text text-anchor="middle" x="347" y="-8" font-family="Helvetica,sans-Serif" font-size="10.00">/Log.cpp</text>
</a>
</g>
</g>
<!-- Node1&#45;&gt;Node4 -->
<g id="edge3" class="edge"><title>Node1&#45;&gt;Node4</title>
<path fill="none" stroke="midnightblue" d="M1929.36,-116.384C1660.04,-117.334 708.569,-116.117 413,-54 410.228,-53.4174 407.421,-52.7297 404.609,-51.9603"/>
<polygon fill="midnightblue" stroke="midnightblue" points="1929.42,-119.884 1939.41,-116.346 1929.4,-112.884 1929.42,-119.884"/>
</g>
<!-- Node5 -->
<g id="node5" class="node"><title>Node5</title>
<g id="a_node5"><a xlink:href="_parameters_8cpp.html" target="_top" xlink:title="/home/travis/build\l/robotology/wb&#45;toolbox\l/toolbox/src/core/src\l/Parameters.cpp">
<polygon fill="none" stroke="black" points="422.5,-1 422.5,-53 537.5,-53 537.5,-1 422.5,-1"/>
<text text-anchor="start" x="430.5" y="-41" font-family="Helvetica,sans-Serif" font-size="10.00">/home/travis/build</text>
<text text-anchor="start" x="430.5" y="-30" font-family="Helvetica,sans-Serif" font-size="10.00">/robotology/wb&#45;toolbox</text>
<text text-anchor="start" x="430.5" y="-19" font-family="Helvetica,sans-Serif" font-size="10.00">/toolbox/src/core/src</text>
<text text-anchor="middle" x="480" y="-8" font-family="Helvetica,sans-Serif" font-size="10.00">/Parameters.cpp</text>
</a>
</g>
</g>
<!-- Node1&#45;&gt;Node5 -->
<g id="edge4" class="edge"><title>Node1&#45;&gt;Node5</title>
<path fill="none" stroke="midnightblue" d="M1929.08,-116.084C1674.13,-115.89 814.502,-110.928 546,-54 543.229,-53.4125 540.423,-52.7207 537.611,-51.9481"/>
<polygon fill="midnightblue" stroke="midnightblue" points="1929.32,-119.584 1939.33,-116.089 1929.33,-112.584 1929.32,-119.584"/>
</g>
<!-- Node6 -->
<g id="node6" class="node"><title>Node6</title>
<g id="a_node6"><a xlink:href="_signal_8cpp.html" target="_top" xlink:title="/home/travis/build\l/robotology/wb&#45;toolbox\l/toolbox/src/core/src\l/Signal.cpp">
<polygon fill="none" stroke="black" points="555.5,-1 555.5,-53 670.5,-53 670.5,-1 555.5,-1"/>
<text text-anchor="start" x="563.5" y="-41" font-family="Helvetica,sans-Serif" font-size="10.00">/home/travis/build</text>
<text text-anchor="start" x="563.5" y="-30" font-family="Helvetica,sans-Serif" font-size="10.00">/robotology/wb&#45;toolbox</text>
<text text-anchor="start" x="563.5" y="-19" font-family="Helvetica,sans-Serif" font-size="10.00">/toolbox/src/core/src</text>
<text text-anchor="middle" x="613" y="-8" font-family="Helvetica,sans-Serif" font-size="10.00">/Signal.cpp</text>
</a>
</g>
</g>
<!-- Node1&#45;&gt;Node6 -->
<g id="edge5" class="edge"><title>Node1&#45;&gt;Node6</title>
<path fill="none" stroke="midnightblue" d="M1928.9,-115.721C1689.2,-114.31 920.577,-105.76 679,-54 676.23,-53.4066 673.426,-52.7099 670.614,-51.9333"/>
<polygon fill="midnightblue" stroke="midnightblue" points="1929.21,-119.223 1939.23,-115.78 1929.25,-112.223 1929.21,-119.223"/>
</g>
<!-- Node7 -->
<g id="node7" class="node"><title>Node7</title>
<g id="a_node7"><a xlink:href="_simulink_block_information_8cpp.html" target="_top" xlink:title="/home/travis/build\l/robotology/wb&#45;toolbox\l/toolbox/src/core/src\l/SimulinkBlockInformation.cpp">
<polygon fill="none" stroke="black" points="688.5,-1 688.5,-53 837.5,-53 837.5,-1 688.5,-1"/>
<text text-anchor="start" x="696.5" y="-41" font-family="Helvetica,sans-Serif" font-size="10.00">/home/travis/build</text>
<text text-anchor="start" x="696.5" y="-30" font-family="Helvetica,sans-Serif" font-size="10.00">/robotology/wb&#45;toolbox</text>
<text text-anchor="start" x="696.5" y="-19" font-family="Helvetica,sans-Serif" font-size="10.00">/toolbox/src/core/src</text>
<text text-anchor="middle" x="763" y="-8" font-family="Helvetica,sans-Serif" font-size="10.00">/SimulinkBlockInformation.cpp</text>
</a>
</g>
</g>
<!-- Node1&#45;&gt;Node7 -->
<g id="edge6" class="edge"><title>Node1&#45;&gt;Node7</title>
<path fill="none" stroke="midnightblue" d="M1929.34,-114.496C1710.92,-109.54 1055.6,-91.8382 846,-54 843.325,-53.5171 840.616,-52.9736 837.891,-52.3804"/>
<polygon fill="midnightblue" stroke="midnightblue" points="1929.34,-117.996 1939.41,-114.722 1929.49,-110.998 1929.34,-117.996"/>
</g>
<!-- Node8 -->
<g id="node8" class="node"><title>Node8</title>
<g id="a_node8"><a xlink:href="_w_b_toolbox_8cpp.html" target="_top" xlink:title="/home/travis/build\l/robotology/wb&#45;toolbox\l/toolbox/src/core/src\l/WBToolbox.cpp">
<polygon fill="none" stroke="black" points="855.5,-1 855.5,-53 970.5,-53 970.5,-1 855.5,-1"/>
<text text-anchor="start" x="863.5" y="-41" font-family="Helvetica,sans-Serif" font-size="10.00">/home/travis/build</text>
<text text-anchor="start" x="863.5" y="-30" font-family="Helvetica,sans-Serif" font-size="10.00">/robotology/wb&#45;toolbox</text>
<text text-anchor="start" x="863.5" y="-19" font-family="Helvetica,sans-Serif" font-size="10.00">/toolbox/src/core/src</text>
<text text-anchor="middle" x="913" y="-8" font-family="Helvetica,sans-Serif" font-size="10.00">/WBToolbox.cpp</text>
</a>
</g>
</g>
<!-- Node1&#45;&gt;Node8 -->
<g id="edge7" class="edge"><title>Node1&#45;&gt;Node8</title>
<path fill="none" stroke="midnightblue" d="M1929.33,-114.574C1728.06,-110.107 1160.57,-94.2078 979,-54 976.234,-53.3876 973.433,-52.6753 970.625,-51.8861"/>
<polygon fill="midnightblue" stroke="midnightblue" points="1929.42,-118.077 1939.49,-114.797 1929.57,-111.079 1929.42,-118.077"/>
</g>
<!-- Node9 -->
<g id="node9" class="node"><title>Node9</title>
<g id="a_node9"><a xlink:href="_centroidal_momentum_8cpp.html" target="_top" xlink:title="/home/travis/build\l/robotology/wb&#45;toolbox\l/toolbox/src/library/src\l/CentroidalMomentum.cpp">
<polygon fill="none" stroke="black" points="988.5,-1 988.5,-53 1119.5,-53 1119.5,-1 988.5,-1"/>
<text text-anchor="start" x="996.5" y="-41" font-family="Helvetica,sans-Serif" font-size="10.00">/home/travis/build</text>
<text text-anchor="start" x="996.5" y="-30" font-family="Helvetica,sans-Serif" font-size="10.00">/robotology/wb&#45;toolbox</text>
<text text-anchor="start" x="996.5" y="-19" font-family="Helvetica,sans-Serif" font-size="10.00">/toolbox/src/library/src</text>
<text text-anchor="middle" x="1054" y="-8" font-family="Helvetica,sans-Serif" font-size="10.00">/CentroidalMomentum.cpp</text>
</a>
</g>
</g>
<!-- Node1&#45;&gt;Node9 -->
<g id="edge8" class="edge"><title>Node1&#45;&gt;Node9</title>
<path fill="none" stroke="midnightblue" d="M1929.07,-113.364C1748.67,-106.357 1280.52,-85.6141 1128,-54 1125.2,-53.4196 1122.36,-52.7594 1119.51,-52.0366"/>
<polygon fill="midnightblue" stroke="midnightblue" points="1929.12,-116.869 1939.25,-113.757 1929.39,-109.874 1929.12,-116.869"/>
</g>
<!-- Node10 -->
<g id="node10" class="node"><title>Node10</title>
<g id="a_node10"><a xlink:href="_discrete_filter_8cpp.html" target="_top" xlink:title="/home/travis/build\l/robotology/wb&#45;toolbox\l/toolbox/src/library/src\l/DiscreteFilter.cpp">
<polygon fill="none" stroke="black" points="1137.5,-1 1137.5,-53 1252.5,-53 1252.5,-1 1137.5,-1"/>
<text text-anchor="start" x="1145.5" y="-41" font-family="Helvetica,sans-Serif" font-size="10.00">/home/travis/build</text>
<text text-anchor="start" x="1145.5" y="-30" font-family="Helvetica,sans-Serif" font-size="10.00">/robotology/wb&#45;toolbox</text>
<text text-anchor="start" x="1145.5" y="-19" font-family="Helvetica,sans-Serif" font-size="10.00">/toolbox/src/library/src</text>
<text text-anchor="middle" x="1195" y="-8" font-family="Helvetica,sans-Serif" font-size="10.00">/DiscreteFilter.cpp</text>
</a>
</g>
</g>
<!-- Node1&#45;&gt;Node10 -->
<g id="edge9" class="edge"><title>Node1&#45;&gt;Node10</title>
<path fill="none" stroke="midnightblue" d="M1929.04,-116.869C1795.52,-116.97 1501.12,-110.079 1261,-54 1258.24,-53.3558 1255.45,-52.6175 1252.64,-51.8072"/>
<polygon fill="midnightblue" stroke="midnightblue" points="1929.16,-120.369 1939.15,-116.848 1929.14,-113.369 1929.16,-120.369"/>
</g>
<!-- Node11 -->
<g id="node11" class="node"><title>Node11</title>
<g id="a_node11"><a xlink:href="_dot_j_nu_8cpp.html" target="_top" xlink:title="/home/travis/build\l/robotology/wb&#45;toolbox\l/toolbox/src/library/src\l/DotJNu.cpp">
<polygon fill="none" stroke="black" points="1270.5,-1 1270.5,-53 1385.5,-53 1385.5,-1 1270.5,-1"/>
<text text-anchor="start" x="1278.5" y="-41" font-family="Helvetica,sans-Serif" font-size="10.00">/home/travis/build</text>
<text text-anchor="start" x="1278.5" y="-30" font-family="Helvetica,sans-Serif" font-size="10.00">/robotology/wb&#45;toolbox</text>
<text text-anchor="start" x="1278.5" y="-19" font-family="Helvetica,sans-Serif" font-size="10.00">/toolbox/src/library/src</text>
<text text-anchor="middle" x="1328" y="-8" font-family="Helvetica,sans-Serif" font-size="10.00">/DotJNu.cpp</text>
</a>
</g>
</g>
<!-- Node1&#45;&gt;Node11 -->
<g id="edge10" class="edge"><title>Node1&#45;&gt;Node11</title>
<path fill="none" stroke="midnightblue" d="M1929.41,-114.856C1814.96,-111.654 1584.39,-99.5582 1395,-54 1391.97,-53.2705 1388.89,-52.4355 1385.8,-51.5226"/>
<polygon fill="midnightblue" stroke="midnightblue" points="1929.36,-118.356 1939.45,-115.122 1929.55,-111.358 1929.36,-118.356"/>
</g>
<!-- Node12 -->
<g id="node12" class="node"><title>Node12</title>
<g id="a_node12"><a xlink:href="_forward_kinematics_8cpp.html" target="_top" xlink:title="/home/travis/build\l/robotology/wb&#45;toolbox\l/toolbox/src/library/src\l/ForwardKinematics.cpp">
<polygon fill="none" stroke="black" points="1404,-1 1404,-53 1526,-53 1526,-1 1404,-1"/>
<text text-anchor="start" x="1412" y="-41" font-family="Helvetica,sans-Serif" font-size="10.00">/home/travis/build</text>
<text text-anchor="start" x="1412" y="-30" font-family="Helvetica,sans-Serif" font-size="10.00">/robotology/wb&#45;toolbox</text>
<text text-anchor="start" x="1412" y="-19" font-family="Helvetica,sans-Serif" font-size="10.00">/toolbox/src/library/src</text>
<text text-anchor="middle" x="1465" y="-8" font-family="Helvetica,sans-Serif" font-size="10.00">/ForwardKinematics.cpp</text>
</a>
</g>
</g>
<!-- Node1&#45;&gt;Node12 -->
<g id="edge11" class="edge"><title>Node1&#45;&gt;Node12</title>
<path fill="none" stroke="midnightblue" d="M1929.43,-111.46C1837.14,-104.477 1672.22,-88.1547 1535,-54 1532.11,-53.2798 1529.17,-52.4791 1526.22,-51.6183"/>
<polygon fill="midnightblue" stroke="midnightblue" points="1929.26,-114.957 1939.49,-112.206 1929.78,-107.976 1929.26,-114.957"/>
</g>
<!-- Node13 -->
<g id="node13" class="node"><title>Node13</title>
<g id="a_node13"><a xlink:href="_get_limits_8cpp.html" target="_top" xlink:title="/home/travis/build\l/robotology/wb&#45;toolbox\l/toolbox/src/library/src\l/GetLimits.cpp">
<polygon fill="none" stroke="black" points="1544.5,-1 1544.5,-53 1659.5,-53 1659.5,-1 1544.5,-1"/>
<text text-anchor="start" x="1552.5" y="-41" font-family="Helvetica,sans-Serif" font-size="10.00">/home/travis/build</text>
<text text-anchor="start" x="1552.5" y="-30" font-family="Helvetica,sans-Serif" font-size="10.00">/robotology/wb&#45;toolbox</text>
<text text-anchor="start" x="1552.5" y="-19" font-family="Helvetica,sans-Serif" font-size="10.00">/toolbox/src/library/src</text>
<text text-anchor="middle" x="1602" y="-8" font-family="Helvetica,sans-Serif" font-size="10.00">/GetLimits.cpp</text>
</a>
</g>
</g>
<!-- Node1&#45;&gt;Node13 -->
<g id="edge12" class="edge"><title>Node1&#45;&gt;Node13</title>
<path fill="none" stroke="midnightblue" d="M1929.24,-106.69C1861.17,-96.9117 1756.44,-79.3994 1668,-54 1665.28,-53.2181 1662.51,-52.3668 1659.73,-51.465"/>
<polygon fill="midnightblue" stroke="midnightblue" points="1929.03,-110.195 1939.42,-108.134 1930.01,-103.265 1929.03,-110.195"/>
</g>
<!-- Node14 -->
<g id="node14" class="node"><title>Node14</title>
<g id="a_node14"><a xlink:href="_get_measurement_8cpp.html" target="_top" xlink:title="/home/travis/build\l/robotology/wb&#45;toolbox\l/toolbox/src/library/src\l/GetMeasurement.cpp">
<polygon fill="none" stroke="black" points="1677.5,-1 1677.5,-53 1792.5,-53 1792.5,-1 1677.5,-1"/>
<text text-anchor="start" x="1685.5" y="-41" font-family="Helvetica,sans-Serif" font-size="10.00">/home/travis/build</text>
<text text-anchor="start" x="1685.5" y="-30" font-family="Helvetica,sans-Serif" font-size="10.00">/robotology/wb&#45;toolbox</text>
<text text-anchor="start" x="1685.5" y="-19" font-family="Helvetica,sans-Serif" font-size="10.00">/toolbox/src/library/src</text>
<text text-anchor="middle" x="1735" y="-8" font-family="Helvetica,sans-Serif" font-size="10.00">/GetMeasurement.cpp</text>
</a>
</g>
</g>
<!-- Node1&#45;&gt;Node14 -->
<g id="edge13" class="edge"><title>Node1&#45;&gt;Node14</title>
<path fill="none" stroke="midnightblue" d="M1929.31,-95.1906C1891.01,-83.7181 1843.19,-68.8253 1801,-54 1798.33,-53.0609 1795.6,-52.0807 1792.86,-51.0743"/>
<polygon fill="midnightblue" stroke="midnightblue" points="1928.76,-98.6776 1939.34,-98.1818 1930.76,-91.9696 1928.76,-98.6776"/>
</g>
<!-- Node15 -->
<g id="node15" class="node"><title>Node15</title>
<g id="a_node15"><a xlink:href="_inverse_dynamics_8cpp.html" target="_top" xlink:title="/home/travis/build\l/robotology/wb&#45;toolbox\l/toolbox/src/library/src\l/InverseDynamics.cpp">
<polygon fill="none" stroke="black" points="1810.5,-1 1810.5,-53 1925.5,-53 1925.5,-1 1810.5,-1"/>
<text text-anchor="start" x="1818.5" y="-41" font-family="Helvetica,sans-Serif" font-size="10.00">/home/travis/build</text>
<text text-anchor="start" x="1818.5" y="-30" font-family="Helvetica,sans-Serif" font-size="10.00">/robotology/wb&#45;toolbox</text>
<text text-anchor="start" x="1818.5" y="-19" font-family="Helvetica,sans-Serif" font-size="10.00">/toolbox/src/library/src</text>
<text text-anchor="middle" x="1868" y="-8" font-family="Helvetica,sans-Serif" font-size="10.00">/InverseDynamics.cpp</text>
</a>
</g>
</g>
<!-- Node1&#45;&gt;Node15 -->
<g id="edge14" class="edge"><title>Node1&#45;&gt;Node15</title>
<path fill="none" stroke="midnightblue" d="M1954.32,-85.1143C1938.55,-74.6802 1921.14,-63.1632 1906.12,-53.221"/>
<polygon fill="midnightblue" stroke="midnightblue" points="1952.62,-88.1836 1962.89,-90.7827 1956.48,-82.3457 1952.62,-88.1836"/>
</g>
<!-- Node16 -->
<g id="node16" class="node"><title>Node16</title>
<g id="a_node16"><a xlink:href="_jacobian_8cpp.html" target="_top" xlink:title="/home/travis/build\l/robotology/wb&#45;toolbox\l/toolbox/src/library/src\l/Jacobian.cpp">
<polygon fill="none" stroke="black" points="1943.5,-1 1943.5,-53 2058.5,-53 2058.5,-1 1943.5,-1"/>
<text text-anchor="start" x="1951.5" y="-41" font-family="Helvetica,sans-Serif" font-size="10.00">/home/travis/build</text>
<text text-anchor="start" x="1951.5" y="-30" font-family="Helvetica,sans-Serif" font-size="10.00">/robotology/wb&#45;toolbox</text>
<text text-anchor="start" x="1951.5" y="-19" font-family="Helvetica,sans-Serif" font-size="10.00">/toolbox/src/library/src</text>
<text text-anchor="middle" x="2001" y="-8" font-family="Helvetica,sans-Serif" font-size="10.00">/Jacobian.cpp</text>
</a>
</g>
</g>
<!-- Node1&#45;&gt;Node16 -->
<g id="edge15" class="edge"><title>Node1&#45;&gt;Node16</title>
<path fill="none" stroke="midnightblue" d="M2001,-80.4892C2001,-71.3088 2001,-61.616 2001,-53.0921"/>
<polygon fill="midnightblue" stroke="midnightblue" points="1997.5,-80.5467 2001,-90.5468 2004.5,-80.5468 1997.5,-80.5467"/>
</g>
<!-- Node17 -->
<g id="node17" class="node"><title>Node17</title>
<g id="a_node17"><a xlink:href="_mass_matrix_8cpp.html" target="_top" xlink:title="/home/travis/build\l/robotology/wb&#45;toolbox\l/toolbox/src/library/src\l/MassMatrix.cpp">
<polygon fill="none" stroke="black" points="2076.5,-1 2076.5,-53 2191.5,-53 2191.5,-1 2076.5,-1"/>
<text text-anchor="start" x="2084.5" y="-41" font-family="Helvetica,sans-Serif" font-size="10.00">/home/travis/build</text>
<text text-anchor="start" x="2084.5" y="-30" font-family="Helvetica,sans-Serif" font-size="10.00">/robotology/wb&#45;toolbox</text>
<text text-anchor="start" x="2084.5" y="-19" font-family="Helvetica,sans-Serif" font-size="10.00">/toolbox/src/library/src</text>
<text text-anchor="middle" x="2134" y="-8" font-family="Helvetica,sans-Serif" font-size="10.00">/MassMatrix.cpp</text>
</a>
</g>
</g>
<!-- Node1&#45;&gt;Node17 -->
<g id="edge16" class="edge"><title>Node1&#45;&gt;Node17</title>
<path fill="none" stroke="midnightblue" d="M2047.68,-85.1143C2063.45,-74.6802 2080.86,-63.1632 2095.88,-53.221"/>
<polygon fill="midnightblue" stroke="midnightblue" points="2045.52,-82.3457 2039.11,-90.7827 2049.38,-88.1836 2045.52,-82.3457"/>
</g>
<!-- Node18 -->
<g id="node18" class="node"><title>Node18</title>
<g id="a_node18"><a xlink:href="_minimum_jerk_trajectory_generator_8cpp.html" target="_top" xlink:title="/home/travis/build\l/robotology/wb&#45;toolbox\l/toolbox/src/library/src\l/MinimumJerkTrajectoryGenerator.cpp">
<polygon fill="none" stroke="black" points="2209.5,-1 2209.5,-53 2392.5,-53 2392.5,-1 2209.5,-1"/>
<text text-anchor="start" x="2217.5" y="-41" font-family="Helvetica,sans-Serif" font-size="10.00">/home/travis/build</text>
<text text-anchor="start" x="2217.5" y="-30" font-family="Helvetica,sans-Serif" font-size="10.00">/robotology/wb&#45;toolbox</text>
<text text-anchor="start" x="2217.5" y="-19" font-family="Helvetica,sans-Serif" font-size="10.00">/toolbox/src/library/src</text>
<text text-anchor="middle" x="2301" y="-8" font-family="Helvetica,sans-Serif" font-size="10.00">/MinimumJerkTrajectoryGenerator.cpp</text>
</a>
</g>
</g>
<!-- Node1&#45;&gt;Node18 -->
<g id="edge17" class="edge"><title>Node1&#45;&gt;Node18</title>
<path fill="none" stroke="midnightblue" d="M2072.61,-94.9945C2115.58,-82.391 2170.48,-66.2866 2215.68,-53.0261"/>
<polygon fill="midnightblue" stroke="midnightblue" points="2071.41,-91.6997 2062.8,-97.873 2073.38,-98.4167 2071.41,-91.6997"/>
</g>
<!-- Node19 -->
<g id="node19" class="node"><title>Node19</title>
<g id="a_node19"><a xlink:href="_qp_oases_8cpp.html" target="_top" xlink:title="/home/travis/build\l/robotology/wb&#45;toolbox\l/toolbox/src/library/src\l/QpOases.cpp">
<polygon fill="none" stroke="black" points="2410.5,-1 2410.5,-53 2525.5,-53 2525.5,-1 2410.5,-1"/>
<text text-anchor="start" x="2418.5" y="-41" font-family="Helvetica,sans-Serif" font-size="10.00">/home/travis/build</text>
<text text-anchor="start" x="2418.5" y="-30" font-family="Helvetica,sans-Serif" font-size="10.00">/robotology/wb&#45;toolbox</text>
<text text-anchor="start" x="2418.5" y="-19" font-family="Helvetica,sans-Serif" font-size="10.00">/toolbox/src/library/src</text>
<text text-anchor="middle" x="2468" y="-8" font-family="Helvetica,sans-Serif" font-size="10.00">/QpOases.cpp</text>
</a>
</g>
</g>
<!-- Node1&#45;&gt;Node19 -->
<g id="edge18" class="edge"><title>Node1&#45;&gt;Node19</title>
<path fill="none" stroke="midnightblue" d="M2072.57,-109.623C2153.35,-101.342 2288.23,-84.2382 2401,-54 2404.01,-53.1921 2407.08,-52.2941 2410.15,-51.3312"/>
<polygon fill="midnightblue" stroke="midnightblue" points="2072.1,-106.152 2062.5,-110.637 2072.8,-113.117 2072.1,-106.152"/>
</g>
<!-- Node20 -->
<g id="node20" class="node"><title>Node20</title>
<g id="a_node20"><a xlink:href="_real_time_synchronizer_8cpp.html" target="_top" xlink:title="/home/travis/build\l/robotology/wb&#45;toolbox\l/toolbox/src/library/src\l/RealTimeSynchronizer.cpp">
<polygon fill="none" stroke="black" points="2543.5,-1 2543.5,-53 2680.5,-53 2680.5,-1 2543.5,-1"/>
<text text-anchor="start" x="2551.5" y="-41" font-family="Helvetica,sans-Serif" font-size="10.00">/home/travis/build</text>
<text text-anchor="start" x="2551.5" y="-30" font-family="Helvetica,sans-Serif" font-size="10.00">/robotology/wb&#45;toolbox</text>
<text text-anchor="start" x="2551.5" y="-19" font-family="Helvetica,sans-Serif" font-size="10.00">/toolbox/src/library/src</text>
<text text-anchor="middle" x="2612" y="-8" font-family="Helvetica,sans-Serif" font-size="10.00">/RealTimeSynchronizer.cpp</text>
</a>
</g>
</g>
<!-- Node1&#45;&gt;Node20 -->
<g id="edge19" class="edge"><title>Node1&#45;&gt;Node20</title>
<path fill="none" stroke="midnightblue" d="M2072.83,-112.348C2175.94,-106.047 2371.41,-90.1503 2534,-54 2537.07,-53.3184 2540.18,-52.562 2543.31,-51.7486"/>
<polygon fill="midnightblue" stroke="midnightblue" points="2072.61,-108.855 2062.84,-112.946 2073.03,-115.842 2072.61,-108.855"/>
</g>
<!-- Node21 -->
<g id="node21" class="node"><title>Node21</title>
<g id="a_node21"><a xlink:href="_relative_transform_8cpp.html" target="_top" xlink:title="/home/travis/build\l/robotology/wb&#45;toolbox\l/toolbox/src/library/src\l/RelativeTransform.cpp">
<polygon fill="none" stroke="black" points="2698.5,-1 2698.5,-53 2817.5,-53 2817.5,-1 2698.5,-1"/>
<text text-anchor="start" x="2706.5" y="-41" font-family="Helvetica,sans-Serif" font-size="10.00">/home/travis/build</text>
<text text-anchor="start" x="2706.5" y="-30" font-family="Helvetica,sans-Serif" font-size="10.00">/robotology/wb&#45;toolbox</text>
<text text-anchor="start" x="2706.5" y="-19" font-family="Helvetica,sans-Serif" font-size="10.00">/toolbox/src/library/src</text>
<text text-anchor="middle" x="2758" y="-8" font-family="Helvetica,sans-Serif" font-size="10.00">/RelativeTransform.cpp</text>
</a>
</g>
</g>
<!-- Node1&#45;&gt;Node21 -->
<g id="edge20" class="edge"><title>Node1&#45;&gt;Node21</title>
<path fill="none" stroke="midnightblue" d="M2072.92,-115.872C2199.22,-114.246 2468.41,-104.514 2689,-54 2692.12,-53.2856 2695.29,-52.4628 2698.47,-51.5596"/>
<polygon fill="midnightblue" stroke="midnightblue" points="2072.57,-112.375 2062.61,-115.99 2072.65,-119.375 2072.57,-112.375"/>
</g>
<!-- Node22 -->
<g id="node22" class="node"><title>Node22</title>
<g id="a_node22"><a xlink:href="_robot_interface_8cpp.html" target="_top" xlink:title="/home/travis/build\l/robotology/wb&#45;toolbox\l/toolbox/src/library/src\l/RobotInterface.cpp">
<polygon fill="none" stroke="black" points="2835.5,-1 2835.5,-53 2950.5,-53 2950.5,-1 2835.5,-1"/>
<text text-anchor="start" x="2843.5" y="-41" font-family="Helvetica,sans-Serif" font-size="10.00">/home/travis/build</text>
<text text-anchor="start" x="2843.5" y="-30" font-family="Helvetica,sans-Serif" font-size="10.00">/robotology/wb&#45;toolbox</text>
<text text-anchor="start" x="2843.5" y="-19" font-family="Helvetica,sans-Serif" font-size="10.00">/toolbox/src/library/src</text>
<text text-anchor="middle" x="2893" y="-8" font-family="Helvetica,sans-Serif" font-size="10.00">/RobotInterface.cpp</text>
</a>
</g>
</g>
<!-- Node1&#45;&gt;Node22 -->
<g id="edge21" class="edge"><title>Node1&#45;&gt;Node22</title>
<path fill="none" stroke="midnightblue" d="M2072.7,-113.325C2245.92,-106.425 2683.41,-86.274 2826,-54 2829.04,-53.3114 2832.13,-52.5093 2835.22,-51.6225"/>
<polygon fill="midnightblue" stroke="midnightblue" points="2072.52,-109.829 2062.66,-113.721 2072.79,-116.823 2072.52,-109.829"/>
</g>
<!-- Node23 -->
<g id="node23" class="node"><title>Node23</title>
<g id="a_node23"><a xlink:href="_set_motor_parameters_8cpp.html" target="_top" xlink:title="/home/travis/build\l/robotology/wb&#45;toolbox\l/toolbox/src/library/src\l/SetMotorParameters.cpp">
<polygon fill="none" stroke="black" points="2969,-1 2969,-53 3097,-53 3097,-1 2969,-1"/>
<text text-anchor="start" x="2977" y="-41" font-family="Helvetica,sans-Serif" font-size="10.00">/home/travis/build</text>
<text text-anchor="start" x="2977" y="-30" font-family="Helvetica,sans-Serif" font-size="10.00">/robotology/wb&#45;toolbox</text>
<text text-anchor="start" x="2977" y="-19" font-family="Helvetica,sans-Serif" font-size="10.00">/toolbox/src/library/src</text>
<text text-anchor="middle" x="3033" y="-8" font-family="Helvetica,sans-Serif" font-size="10.00">/SetMotorParameters.cpp</text>
</a>
</g>
</g>
<!-- Node1&#45;&gt;Node23 -->
<g id="edge22" class="edge"><title>Node1&#45;&gt;Node23</title>
<path fill="none" stroke="midnightblue" d="M2072.78,-113.892C2265.23,-107.837 2789.54,-88.5718 2959,-54 2962.2,-53.3467 2965.45,-52.5874 2968.72,-51.7477"/>
<polygon fill="midnightblue" stroke="midnightblue" points="2072.66,-110.394 2062.77,-114.205 2072.88,-117.391 2072.66,-110.394"/>
</g>
<!-- Node24 -->
<g id="node24" class="node"><title>Node24</title>
<g id="a_node24"><a xlink:href="_set_references_8cpp.html" target="_top" xlink:title="/home/travis/build\l/robotology/wb&#45;toolbox\l/toolbox/src/library/src\l/SetReferences.cpp">
<polygon fill="none" stroke="black" points="3115.5,-1 3115.5,-53 3230.5,-53 3230.5,-1 3115.5,-1"/>
<text text-anchor="start" x="3123.5" y="-41" font-family="Helvetica,sans-Serif" font-size="10.00">/home/travis/build</text>
<text text-anchor="start" x="3123.5" y="-30" font-family="Helvetica,sans-Serif" font-size="10.00">/robotology/wb&#45;toolbox</text>
<text text-anchor="start" x="3123.5" y="-19" font-family="Helvetica,sans-Serif" font-size="10.00">/toolbox/src/library/src</text>
<text text-anchor="middle" x="3173" y="-8" font-family="Helvetica,sans-Serif" font-size="10.00">/SetReferences.cpp</text>
</a>
</g>
</g>
<!-- Node1&#45;&gt;Node24 -->
<g id="edge23" class="edge"><title>Node1&#45;&gt;Node24</title>
<path fill="none" stroke="midnightblue" d="M2072.93,-114.903C2285.42,-111.197 2907.83,-96.8822 3106,-54 3109.05,-53.3403 3112.14,-52.5614 3115.24,-51.6931"/>
<polygon fill="midnightblue" stroke="midnightblue" points="2072.76,-111.405 2062.82,-115.076 2072.88,-118.404 2072.76,-111.405"/>
</g>
<!-- Node25 -->
<g id="node25" class="node"><title>Node25</title>
<g id="a_node25"><a xlink:href="_simulator_synchronizer_8cpp.html" target="_top" xlink:title="/home/travis/build\l/robotology/wb&#45;toolbox\l/toolbox/src/library/src\l/SimulatorSynchronizer.cpp">
<polygon fill="none" stroke="black" points="3248.5,-1 3248.5,-53 3385.5,-53 3385.5,-1 3248.5,-1"/>
<text text-anchor="start" x="3256.5" y="-41" font-family="Helvetica,sans-Serif" font-size="10.00">/home/travis/build</text>
<text text-anchor="start" x="3256.5" y="-30" font-family="Helvetica,sans-Serif" font-size="10.00">/robotology/wb&#45;toolbox</text>
<text text-anchor="start" x="3256.5" y="-19" font-family="Helvetica,sans-Serif" font-size="10.00">/toolbox/src/library/src</text>
<text text-anchor="middle" x="3317" y="-8" font-family="Helvetica,sans-Serif" font-size="10.00">/SimulatorSynchronizer.cpp</text>
</a>
</g>
</g>
<!-- Node1&#45;&gt;Node25 -->
<g id="edge24" class="edge"><title>Node1&#45;&gt;Node25</title>
<path fill="none" stroke="midnightblue" d="M2073.07,-114.957C2302.36,-111.233 3013.13,-96.4777 3239,-54 3242.09,-53.4196 3245.22,-52.7469 3248.36,-52.0021"/>
<polygon fill="midnightblue" stroke="midnightblue" points="2072.78,-111.461 2062.84,-115.12 2072.9,-118.46 2072.78,-111.461"/>
</g>
<!-- Node26 -->
<g id="node26" class="node"><title>Node26</title>
<g id="a_node26"><a xlink:href="_w_b_block_8cpp.html" target="_top" xlink:title="/home/travis/build\l/robotology/wb&#45;toolbox\l/toolbox/src/library/src\l/WBBlock.cpp">
<polygon fill="none" stroke="black" points="3403.5,-1 3403.5,-53 3518.5,-53 3518.5,-1 3403.5,-1"/>
<text text-anchor="start" x="3411.5" y="-41" font-family="Helvetica,sans-Serif" font-size="10.00">/home/travis/build</text>
<text text-anchor="start" x="3411.5" y="-30" font-family="Helvetica,sans-Serif" font-size="10.00">/robotology/wb&#45;toolbox</text>
<text text-anchor="start" x="3411.5" y="-19" font-family="Helvetica,sans-Serif" font-size="10.00">/toolbox/src/library/src</text>
<text text-anchor="middle" x="3461" y="-8" font-family="Helvetica,sans-Serif" font-size="10.00">/WBBlock.cpp</text>
</a>
</g>
</g>
<!-- Node1&#45;&gt;Node26 -->
<g id="edge25" class="edge"><title>Node1&#45;&gt;Node26</title>
<path fill="none" stroke="midnightblue" d="M2073.16,-115.876C2321.25,-114.966 3137.98,-107.853 3394,-54 3397.05,-53.3579 3400.15,-52.5933 3403.25,-51.7362"/>
<polygon fill="midnightblue" stroke="midnightblue" points="2072.81,-112.377 2062.82,-115.911 2072.84,-119.377 2072.81,-112.377"/>
</g>
<!-- Node27 -->
<g id="node27" class="node"><title>Node27</title>
<g id="a_node27"><a xlink:href="_whole_body_singleton_8cpp.html" target="_top" xlink:title="/home/travis/build\l/robotology/wb&#45;toolbox\l/toolbox/src/library/src\l/WholeBodySingleton.cpp">
<polygon fill="none" stroke="black" points="3536.5,-1 3536.5,-53 3665.5,-53 3665.5,-1 3536.5,-1"/>
<text text-anchor="start" x="3544.5" y="-41" font-family="Helvetica,sans-Serif" font-size="10.00">/home/travis/build</text>
<text text-anchor="start" x="3544.5" y="-30" font-family="Helvetica,sans-Serif" font-size="10.00">/robotology/wb&#45;toolbox</text>
<text text-anchor="start" x="3544.5" y="-19" font-family="Helvetica,sans-Serif" font-size="10.00">/toolbox/src/library/src</text>
<text text-anchor="middle" x="3601" y="-8" font-family="Helvetica,sans-Serif" font-size="10.00">/WholeBodySingleton.cpp</text>
</a>
</g>
</g>
<!-- Node1&#45;&gt;Node27 -->
<g id="edge26" class="edge"><title>Node1&#45;&gt;Node27</title>
<path fill="none" stroke="midnightblue" d="M2072.81,-115.902C2335.42,-115.106 3243.03,-108.389 3527,-54 3530.08,-53.4108 3533.2,-52.7177 3536.33,-51.9439"/>
<polygon fill="midnightblue" stroke="midnightblue" points="2072.63,-112.402 2062.64,-115.931 2072.65,-119.402 2072.63,-112.402"/>
</g>
<!-- Node28 -->
<g id="node28" class="node"><title>Node28</title>
<g id="a_node28"><a xlink:href="_yarp_clock_8cpp.html" target="_top" xlink:title="/home/travis/build\l/robotology/wb&#45;toolbox\l/toolbox/src/library/src\l/YarpClock.cpp">
<polygon fill="none" stroke="black" points="3683.5,-1 3683.5,-53 3798.5,-53 3798.5,-1 3683.5,-1"/>
<text text-anchor="start" x="3691.5" y="-41" font-family="Helvetica,sans-Serif" font-size="10.00">/home/travis/build</text>
<text text-anchor="start" x="3691.5" y="-30" font-family="Helvetica,sans-Serif" font-size="10.00">/robotology/wb&#45;toolbox</text>
<text text-anchor="start" x="3691.5" y="-19" font-family="Helvetica,sans-Serif" font-size="10.00">/toolbox/src/library/src</text>
<text text-anchor="middle" x="3741" y="-8" font-family="Helvetica,sans-Serif" font-size="10.00">/YarpClock.cpp</text>
</a>
</g>
</g>
<!-- Node1&#45;&gt;Node28 -->
<g id="edge27" class="edge"><title>Node1&#45;&gt;Node28</title>
<path fill="none" stroke="midnightblue" d="M2073.14,-116.506C2352.23,-117.972 3361.17,-118.588 3674,-54 3677.05,-53.3693 3680.15,-52.6138 3683.25,-51.7639"/>
<polygon fill="midnightblue" stroke="midnightblue" points="2072.75,-113.004 2062.74,-116.449 2072.72,-120.004 2072.75,-113.004"/>
</g>
<!-- Node29 -->
<g id="node29" class="node"><title>Node29</title>
<g id="a_node29"><a xlink:href="_yarp_read_8cpp.html" target="_top" xlink:title="/home/travis/build\l/robotology/wb&#45;toolbox\l/toolbox/src/library/src\l/YarpRead.cpp">
<polygon fill="none" stroke="black" points="3816.5,-1 3816.5,-53 3931.5,-53 3931.5,-1 3816.5,-1"/>
<text text-anchor="start" x="3824.5" y="-41" font-family="Helvetica,sans-Serif" font-size="10.00">/home/travis/build</text>
<text text-anchor="start" x="3824.5" y="-30" font-family="Helvetica,sans-Serif" font-size="10.00">/robotology/wb&#45;toolbox</text>
<text text-anchor="start" x="3824.5" y="-19" font-family="Helvetica,sans-Serif" font-size="10.00">/toolbox/src/library/src</text>
<text text-anchor="middle" x="3874" y="-8" font-family="Helvetica,sans-Serif" font-size="10.00">/YarpRead.cpp</text>
</a>
</g>
</g>
<!-- Node1&#45;&gt;Node29 -->
<g id="edge28" class="edge"><title>Node1&#45;&gt;Node29</title>
<path fill="none" stroke="midnightblue" d="M2073.31,-114.948C2388.65,-110.167 3635.4,-89.1856 3807,-54 3810.06,-53.3734 3813.15,-52.6213 3816.26,-51.7741"/>
<polygon fill="midnightblue" stroke="midnightblue" points="2072.88,-111.454 2062.93,-115.105 2072.98,-118.453 2072.88,-111.454"/>
</g>
<!-- Node30 -->
<g id="node30" class="node"><title>Node30</title>
<g id="a_node30"><a xlink:href="_yarp_write_8cpp.html" target="_top" xlink:title="/home/travis/build\l/robotology/wb&#45;toolbox\l/toolbox/src/library/src\l/YarpWrite.cpp">
<polygon fill="none" stroke="black" points="3949.5,-1 3949.5,-53 4064.5,-53 4064.5,-1 3949.5,-1"/>
<text text-anchor="start" x="3957.5" y="-41" font-family="Helvetica,sans-Serif" font-size="10.00">/home/travis/build</text>
<text text-anchor="start" x="3957.5" y="-30" font-family="Helvetica,sans-Serif" font-size="10.00">/robotology/wb&#45;toolbox</text>
<text text-anchor="start" x="3957.5" y="-19" font-family="Helvetica,sans-Serif" font-size="10.00">/toolbox/src/library/src</text>
<text text-anchor="middle" x="4007" y="-8" font-family="Helvetica,sans-Serif" font-size="10.00">/YarpWrite.cpp</text>
</a>
</g>
</g>
<!-- Node1&#45;&gt;Node30 -->
<g id="edge29" class="edge"><title>Node1&#45;&gt;Node30</title>
<path fill="none" stroke="midnightblue" d="M2072.89,-115.136C2401.75,-110.993 3754.68,-91.7732 3940,-54 3943.06,-53.377 3946.15,-52.6278 3949.26,-51.7829"/>
<polygon fill="midnightblue" stroke="midnightblue" points="2072.5,-111.641 2062.54,-115.266 2072.59,-118.64 2072.5,-111.641"/>
</g>
</g>
</svg>
        <g id="navigator" transform="translate(0 0)" fill="#404254">
                <rect fill="#f2f5e9" fill-opacity="0.5" stroke="#606060" stroke-width=".5" x="0" y="0" width="60" height="60"/>
                <use id="zoomplus" xlink:href="#zoomPlus" x="17" y="9" onmousedown="handleZoom(evt,'in')"/>
                <use id="zoomminus" xlink:href="#zoomMin" x="42" y="9" onmousedown="handleZoom(evt,'out')"/>
                <use id="reset" xlink:href="#resetDef" x="30" y="36" onmousedown="handleReset()"/>
                <g id="arrowUp" xlink:href="#dirArrow" transform="translate(30 24)" onmousedown="handlePan(0,-1)">
                  <use xlink:href="#rim" fill="#404040">
                        <set attributeName="fill" to="#808080" begin="arrowUp.mouseover" end="arrowUp.mouseout"/>
                  </use>
                  <path fill="none" stroke="white" stroke-width="1.5" d="M0,-3.0v7 M-2.5,-0.5L0,-3.0L2.5,-0.5"/>
                </g>
                <g id="arrowRight" xlink:href="#dirArrow" transform="rotate(90) translate(36 -43)" onmousedown="handlePan(1,0)">
                  <use xlink:href="#rim" fill="#404040">
                        <set attributeName="fill" to="#808080" begin="arrowRight.mouseover" end="arrowRight.mouseout"/>
                  </use>
                  <path fill="none" stroke="white" stroke-width="1.5" d="M0,-3.0v7 M-2.5,-0.5L0,-3.0L2.5,-0.5"/>
                </g>
                <g id="arrowDown" xlink:href="#dirArrow" transform="rotate(180) translate(-30 -48)" onmousedown="handlePan(0,1)">
                  <use xlink:href="#rim" fill="#404040">
                        <set attributeName="fill" to="#808080" begin="arrowDown.mouseover" end="arrowDown.mouseout"/>
                  </use>
                  <path fill="none" stroke="white" stroke-width="1.5" d="M0,-3.0v7 M-2.5,-0.5L0,-3.0L2.5,-0.5"/>
                </g>
                <g id="arrowLeft" xlink:href="#dirArrow" transform="rotate(270) translate(-36 17)" onmousedown="handlePan(-1,0)">
                  <use xlink:href="#rim" fill="#404040">
                        <set attributeName="fill" to="#808080" begin="arrowLeft.mouseover" end="arrowLeft.mouseout"/>
                  </use>
                  <path fill="none" stroke="white" stroke-width="1.5" d="M0,-3.0v7 M-2.5,-0.5L0,-3.0L2.5,-0.5"/>
                </g>
        </g>
        <svg viewBox="0 0 15 15" width="100%" height="30px" preserveAspectRatio="xMaxYMin meet">
         <g id="arrow_out" transform="scale(0.3 0.3)">
          <a xlink:href="_log_8h__dep__incl_org.svg" target="_base">
           <rect id="button" ry="5" rx="5" y="6" x="6" height="38" width="38"
                fill="#f2f5e9" fill-opacity="0.5" stroke="#606060" stroke-width="1.0"/>
           <path id="arrow"
             d="M 11.500037,31.436501 C 11.940474,20.09759 22.043105,11.32322 32.158766,21.979434 L 37.068811,17.246167 C 37.068811,17.246167 37.088388,32 37.088388,32 L 22.160133,31.978069 C 22.160133,31.978069 26.997745,27.140456 26.997745,27.140456 C 18.528582,18.264221 13.291696,25.230495 11.500037,31.436501 z"
             style="fill:#404040;"/>
          </a>
         </g>
        </svg>
</svg>
