<?xml version="1.0" encoding="UTF-8" standalone="no"?>
<!DOCTYPE svg PUBLIC "-//W3C//DTD SVG 1.1//EN"
 "http://www.w3.org/Graphics/SVG/1.1/DTD/svg11.dtd">
<!-- Generated by graphviz version 2.36.0 (20140111.2315)
 -->
<!-- Title: /home/travis/build/robotology/wb&#45;toolbox/toolbox/src/core/include/Core/Log.h Pages: 1 -->
<svg width="4205pt" height="152pt"
 viewBox="0.00 0.00 4205.00 152.00" xmlns="http://www.w3.org/2000/svg" xmlns:xlink="http://www.w3.org/1999/xlink">
<g id="graph0" class="graph" transform="scale(1 1) rotate(0) translate(4 148)">
<title>/home/travis/build/robotology/wb&#45;toolbox/toolbox/src/core/include/Core/Log.h</title>
<!-- Node1 -->
<g id="node1" class="node"><title>Node1</title>
<polygon fill="#bfbfbf" stroke="black" points="2005.5,-91 2005.5,-143 2128.5,-143 2128.5,-91 2005.5,-91"/>
<text text-anchor="start" x="2013.5" y="-131" font-family="Helvetica,sans-Serif" font-size="10.00">/home/travis/build</text>
<text text-anchor="start" x="2013.5" y="-120" font-family="Helvetica,sans-Serif" font-size="10.00">/robotology/wb&#45;toolbox</text>
<text text-anchor="start" x="2013.5" y="-109" font-family="Helvetica,sans-Serif" font-size="10.00">/toolbox/src/core/include</text>
<text text-anchor="middle" x="2067" y="-98" font-family="Helvetica,sans-Serif" font-size="10.00">/Core/Log.h</text>
</g>
<!-- Node2 -->
<g id="node2" class="node"><title>Node2</title>
<g id="a_node2"><a xlink:href="_block_8cpp.html" target="_top" xlink:title="/home/travis/build\l/robotology/wb&#45;toolbox\l/toolbox/src/core/src\l/Block.cpp">
<polygon fill="none" stroke="black" points="-0.5,-1 -0.5,-53 114.5,-53 114.5,-1 -0.5,-1"/>
<text text-anchor="start" x="7.5" y="-41" font-family="Helvetica,sans-Serif" font-size="10.00">/home/travis/build</text>
<text text-anchor="start" x="7.5" y="-30" font-family="Helvetica,sans-Serif" font-size="10.00">/robotology/wb&#45;toolbox</text>
<text text-anchor="start" x="7.5" y="-19" font-family="Helvetica,sans-Serif" font-size="10.00">/toolbox/src/core/src</text>
<text text-anchor="middle" x="57" y="-8" font-family="Helvetica,sans-Serif" font-size="10.00">/Block.cpp</text>
</a>
</g>
</g>
<!-- Node1&#45;&gt;Node2 -->
<g id="edge1" class="edge"><title>Node1&#45;&gt;Node2</title>
<path fill="none" stroke="midnightblue" d="M1994.96,-115.14C1665.42,-111.01 309.708,-91.845 124,-54 120.944,-53.3771 117.845,-52.628 114.742,-51.7831"/>
<polygon fill="midnightblue" stroke="midnightblue" points="1995.29,-118.644 2005.33,-115.269 1995.37,-111.645 1995.29,-118.644"/>
</g>
<!-- Node3 -->
<g id="node3" class="node"><title>Node3</title>
<g id="a_node3"><a xlink:href="_coder_block_information_8cpp.html" target="_top" xlink:title="/home/travis/build\l/robotology/wb&#45;toolbox\l/toolbox/src/core/src\l/CoderBlockInformation.cpp">
<polygon fill="none" stroke="black" points="133,-1 133,-53 271,-53 271,-1 133,-1"/>
<text text-anchor="start" x="141" y="-41" font-family="Helvetica,sans-Serif" font-size="10.00">/home/travis/build</text>
<text text-anchor="start" x="141" y="-30" font-family="Helvetica,sans-Serif" font-size="10.00">/robotology/wb&#45;toolbox</text>
<text text-anchor="start" x="141" y="-19" font-family="Helvetica,sans-Serif" font-size="10.00">/toolbox/src/core/src</text>
<text text-anchor="middle" x="202" y="-8" font-family="Helvetica,sans-Serif" font-size="10.00">/CoderBlockInformation.cpp</text>
</a>
</g>
</g>
<!-- Node1&#45;&gt;Node3 -->
<g id="edge2" class="edge"><title>Node1&#45;&gt;Node3</title>
<path fill="none" stroke="midnightblue" d="M1994.93,-116.25C1704.26,-116.834 617.62,-114.815 280,-54 277.05,-53.4686 274.059,-52.8494 271.054,-52.1605"/>
<polygon fill="midnightblue" stroke="midnightblue" points="1995.35,-119.749 2005.34,-116.227 1995.33,-112.749 1995.35,-119.749"/>
</g>
<!-- Node4 -->
<g id="node4" class="node"><title>Node4</title>
<g id="a_node4"><a xlink:href="_log_8cpp.html" target="_top" xlink:title="/home/travis/build\l/robotology/wb&#45;toolbox\l/toolbox/src/core/src\l/Log.cpp">
<polygon fill="none" stroke="black" points="289.5,-1 289.5,-53 404.5,-53 404.5,-1 289.5,-1"/>
<text text-anchor="start" x="297.5" y="-41" font-family="Helvetica,sans-Serif" font-size="10.00">/home/travis/build</text>
<text text-anchor="start" x="297.5" y="-30" font-family="Helvetica,sans-Serif" font-size="10.00">/robotology/wb&#45;toolbox</text>
<text text-anchor="start" x="297.5" y="-19" font-family="Helvetica,sans-Serif" font-size="10.00">/toolbox/src/core/src</text>
<text text-anchor="middle" x="347" y="-8" font-family="Helvetica,sans-Serif" font-size="10.00">/Log.cpp</text>
</a>
</g>
</g>
<!-- Node1&#45;&gt;Node4 -->
<g id="edge3" class="edge"><title>Node1&#45;&gt;Node4</title>
<path fill="none" stroke="midnightblue" d="M1994.74,-116.518C1717.47,-118.008 721.753,-118.637 413,-54 410.228,-53.4196 407.421,-52.7336 404.608,-51.9657"/>
<polygon fill="midnightblue" stroke="midnightblue" points="1995.1,-120.016 2005.08,-116.46 1995.06,-113.017 1995.1,-120.016"/>
</g>
<!-- Node5 -->
<g id="node5" class="node"><title>Node5</title>
<g id="a_node5"><a xlink:href="_parameters_8cpp.html" target="_top" xlink:title="/home/travis/build\l/robotology/wb&#45;toolbox\l/toolbox/src/core/src\l/Parameters.cpp">
<polygon fill="none" stroke="black" points="422.5,-1 422.5,-53 537.5,-53 537.5,-1 422.5,-1"/>
<text text-anchor="start" x="430.5" y="-41" font-family="Helvetica,sans-Serif" font-size="10.00">/home/travis/build</text>
<text text-anchor="start" x="430.5" y="-30" font-family="Helvetica,sans-Serif" font-size="10.00">/robotology/wb&#45;toolbox</text>
<text text-anchor="start" x="430.5" y="-19" font-family="Helvetica,sans-Serif" font-size="10.00">/toolbox/src/core/src</text>
<text text-anchor="middle" x="480" y="-8" font-family="Helvetica,sans-Serif" font-size="10.00">/Parameters.cpp</text>
</a>
</g>
</g>
<!-- Node1&#45;&gt;Node5 -->
<g id="edge4" class="edge"><title>Node1&#45;&gt;Node5</title>
<path fill="none" stroke="midnightblue" d="M1994.91,-116.24C1732.34,-116.619 827.81,-113.478 546,-54 543.229,-53.4151 540.422,-52.7254 537.61,-51.9544"/>
<polygon fill="midnightblue" stroke="midnightblue" points="1995.09,-119.74 2005.08,-116.223 1995.08,-112.74 1995.09,-119.74"/>
</g>
<!-- Node6 -->
<g id="node6" class="node"><title>Node6</title>
<g id="a_node6"><a xlink:href="_signal_8cpp.html" target="_top" xlink:title="/home/travis/build\l/robotology/wb&#45;toolbox\l/toolbox/src/core/src\l/Signal.cpp">
<polygon fill="none" stroke="black" points="555.5,-1 555.5,-53 670.5,-53 670.5,-1 555.5,-1"/>
<text text-anchor="start" x="563.5" y="-41" font-family="Helvetica,sans-Serif" font-size="10.00">/home/travis/build</text>
<text text-anchor="start" x="563.5" y="-30" font-family="Helvetica,sans-Serif" font-size="10.00">/robotology/wb&#45;toolbox</text>
<text text-anchor="start" x="563.5" y="-19" font-family="Helvetica,sans-Serif" font-size="10.00">/toolbox/src/core/src</text>
<text text-anchor="middle" x="613" y="-8" font-family="Helvetica,sans-Serif" font-size="10.00">/Signal.cpp</text>
</a>
</g>
</g>
<!-- Node1&#45;&gt;Node6 -->
<g id="edge5" class="edge"><title>Node1&#45;&gt;Node6</title>
<path fill="none" stroke="midnightblue" d="M1995.09,-115.91C1747.85,-115.115 933.96,-108.331 679,-54 676.23,-53.4097 673.424,-52.7155 670.613,-51.941"/>
<polygon fill="midnightblue" stroke="midnightblue" points="1995.38,-119.411 2005.39,-115.941 1995.4,-112.411 1995.38,-119.411"/>
</g>
<!-- Node7 -->
<g id="node7" class="node"><title>Node7</title>
<g id="a_node7"><a xlink:href="_simulink_block_information_8cpp.html" target="_top" xlink:title="/home/travis/build\l/robotology/wb&#45;toolbox\l/toolbox/src/core/src\l/SimulinkBlockInformation.cpp">
<polygon fill="none" stroke="black" points="688.5,-1 688.5,-53 837.5,-53 837.5,-1 688.5,-1"/>
<text text-anchor="start" x="696.5" y="-41" font-family="Helvetica,sans-Serif" font-size="10.00">/home/travis/build</text>
<text text-anchor="start" x="696.5" y="-30" font-family="Helvetica,sans-Serif" font-size="10.00">/robotology/wb&#45;toolbox</text>
<text text-anchor="start" x="696.5" y="-19" font-family="Helvetica,sans-Serif" font-size="10.00">/toolbox/src/core/src</text>
<text text-anchor="middle" x="763" y="-8" font-family="Helvetica,sans-Serif" font-size="10.00">/SimulinkBlockInformation.cpp</text>
</a>
</g>
</g>
<!-- Node1&#45;&gt;Node7 -->
<g id="edge6" class="edge"><title>Node1&#45;&gt;Node7</title>
<path fill="none" stroke="midnightblue" d="M1995.17,-114.733C1768.29,-110.357 1068.87,-93.9007 846,-54 843.325,-53.521 840.615,-52.9808 837.889,-52.3905"/>
<polygon fill="midnightblue" stroke="midnightblue" points="1995.23,-118.235 2005.29,-114.926 1995.36,-111.236 1995.23,-118.235"/>
</g>
<!-- Node8 -->
<g id="node8" class="node"><title>Node8</title>
<g id="a_node8"><a xlink:href="_w_b_toolbox_8cpp.html" target="_top" xlink:title="/home/travis/build\l/robotology/wb&#45;toolbox\l/toolbox/src/core/src\l/WBToolbox.cpp">
<polygon fill="none" stroke="black" points="855.5,-1 855.5,-53 970.5,-53 970.5,-1 855.5,-1"/>
<text text-anchor="start" x="863.5" y="-41" font-family="Helvetica,sans-Serif" font-size="10.00">/home/travis/build</text>
<text text-anchor="start" x="863.5" y="-30" font-family="Helvetica,sans-Serif" font-size="10.00">/robotology/wb&#45;toolbox</text>
<text text-anchor="start" x="863.5" y="-19" font-family="Helvetica,sans-Serif" font-size="10.00">/toolbox/src/core/src</text>
<text text-anchor="middle" x="913" y="-8" font-family="Helvetica,sans-Serif" font-size="10.00">/WBToolbox.cpp</text>
</a>
</g>
</g>
<!-- Node1&#45;&gt;Node8 -->
<g id="edge7" class="edge"><title>Node1&#45;&gt;Node8</title>
<path fill="none" stroke="midnightblue" d="M1995.12,-114.877C1784.88,-111.123 1173.68,-96.7361 979,-54 976.233,-53.3926 973.431,-52.6846 970.622,-51.8987"/>
<polygon fill="midnightblue" stroke="midnightblue" points="1995.36,-118.382 2005.42,-115.058 1995.48,-111.383 1995.36,-118.382"/>
</g>
<!-- Node9 -->
<g id="node9" class="node"><title>Node9</title>
<g id="a_node9"><a xlink:href="_centroidal_momentum_8cpp.html" target="_top" xlink:title="/home/travis/build\l/robotology/wb&#45;toolbox\l/toolbox/src/library/src\l/CentroidalMomentum.cpp">
<polygon fill="none" stroke="black" points="988.5,-1 988.5,-53 1119.5,-53 1119.5,-1 988.5,-1"/>
<text text-anchor="start" x="996.5" y="-41" font-family="Helvetica,sans-Serif" font-size="10.00">/home/travis/build</text>
<text text-anchor="start" x="996.5" y="-30" font-family="Helvetica,sans-Serif" font-size="10.00">/robotology/wb&#45;toolbox</text>
<text text-anchor="start" x="996.5" y="-19" font-family="Helvetica,sans-Serif" font-size="10.00">/toolbox/src/library/src</text>
<text text-anchor="middle" x="1054" y="-8" font-family="Helvetica,sans-Serif" font-size="10.00">/CentroidalMomentum.cpp</text>
</a>
</g>
</g>
<!-- Node1&#45;&gt;Node9 -->
<g id="edge8" class="edge"><title>Node1&#45;&gt;Node9</title>
<path fill="none" stroke="midnightblue" d="M1995.35,-113.788C1805.68,-107.53 1293.71,-87.9201 1128,-54 1125.2,-53.4265 1122.36,-52.7722 1119.51,-52.0541"/>
<polygon fill="midnightblue" stroke="midnightblue" points="1995.38,-117.291 2005.49,-114.12 1995.61,-110.295 1995.38,-117.291"/>
</g>
<!-- Node10 -->
<g id="node10" class="node"><title>Node10</title>
<g id="a_node10"><a xlink:href="_discrete_filter_8cpp.html" target="_top" xlink:title="/home/travis/build\l/robotology/wb&#45;toolbox\l/toolbox/src/library/src\l/DiscreteFilter.cpp">
<polygon fill="none" stroke="black" points="1137.5,-1 1137.5,-53 1252.5,-53 1252.5,-1 1137.5,-1"/>
<text text-anchor="start" x="1145.5" y="-41" font-family="Helvetica,sans-Serif" font-size="10.00">/home/travis/build</text>
<text text-anchor="start" x="1145.5" y="-30" font-family="Helvetica,sans-Serif" font-size="10.00">/robotology/wb&#45;toolbox</text>
<text text-anchor="start" x="1145.5" y="-19" font-family="Helvetica,sans-Serif" font-size="10.00">/toolbox/src/library/src</text>
<text text-anchor="middle" x="1195" y="-8" font-family="Helvetica,sans-Serif" font-size="10.00">/DiscreteFilter.cpp</text>
</a>
</g>
</g>
<!-- Node1&#45;&gt;Node10 -->
<g id="edge9" class="edge"><title>Node1&#45;&gt;Node10</title>
<path fill="none" stroke="midnightblue" d="M1995.15,-113.218C1824.69,-106.175 1399.73,-85.9005 1261,-54 1258.24,-53.3652 1255.44,-52.6346 1252.64,-51.8306"/>
<polygon fill="midnightblue" stroke="midnightblue" points="1995.14,-116.72 2005.28,-113.633 1995.43,-109.726 1995.14,-116.72"/>
</g>
<!-- Node11 -->
<g id="node11" class="node"><title>Node11</title>
<g id="a_node11"><a xlink:href="_dot_j_nu_8cpp.html" target="_top" xlink:title="/home/travis/build\l/robotology/wb&#45;toolbox\l/toolbox/src/library/src\l/DotJNu.cpp">
<polygon fill="none" stroke="black" points="1270.5,-1 1270.5,-53 1385.5,-53 1385.5,-1 1270.5,-1"/>
<text text-anchor="start" x="1278.5" y="-41" font-family="Helvetica,sans-Serif" font-size="10.00">/home/travis/build</text>
<text text-anchor="start" x="1278.5" y="-30" font-family="Helvetica,sans-Serif" font-size="10.00">/robotology/wb&#45;toolbox</text>
<text text-anchor="start" x="1278.5" y="-19" font-family="Helvetica,sans-Serif" font-size="10.00">/toolbox/src/library/src</text>
<text text-anchor="middle" x="1328" y="-8" font-family="Helvetica,sans-Serif" font-size="10.00">/DotJNu.cpp</text>
</a>
</g>
</g>
<!-- Node1&#45;&gt;Node11 -->
<g id="edge10" class="edge"><title>Node1&#45;&gt;Node11</title>
<path fill="none" stroke="midnightblue" d="M1995.26,-115.878C1871.22,-114.234 1609.37,-104.439 1395,-54 1391.96,-53.2856 1388.88,-52.4627 1385.79,-51.5595"/>
<polygon fill="midnightblue" stroke="midnightblue" points="1995.35,-119.379 2005.39,-115.998 1995.44,-112.38 1995.35,-119.379"/>
</g>
<!-- Node12 -->
<g id="node12" class="node"><title>Node12</title>
<g id="a_node12"><a xlink:href="_forward_kinematics_8cpp.html" target="_top" xlink:title="/home/travis/build\l/robotology/wb&#45;toolbox\l/toolbox/src/library/src\l/ForwardKinematics.cpp">
<polygon fill="none" stroke="black" points="1404,-1 1404,-53 1526,-53 1526,-1 1404,-1"/>
<text text-anchor="start" x="1412" y="-41" font-family="Helvetica,sans-Serif" font-size="10.00">/home/travis/build</text>
<text text-anchor="start" x="1412" y="-30" font-family="Helvetica,sans-Serif" font-size="10.00">/robotology/wb&#45;toolbox</text>
<text text-anchor="start" x="1412" y="-19" font-family="Helvetica,sans-Serif" font-size="10.00">/toolbox/src/library/src</text>
<text text-anchor="middle" x="1465" y="-8" font-family="Helvetica,sans-Serif" font-size="10.00">/ForwardKinematics.cpp</text>
</a>
</g>
</g>
<!-- Node1&#45;&gt;Node12 -->
<g id="edge11" class="edge"><title>Node1&#45;&gt;Node12</title>
<path fill="none" stroke="midnightblue" d="M1995.14,-113.083C1892.01,-107.673 1696.65,-92.8452 1535,-54 1532.1,-53.3033 1529.16,-52.522 1526.2,-51.6768"/>
<polygon fill="midnightblue" stroke="midnightblue" points="1994.96,-116.579 2005.13,-113.593 1995.32,-109.588 1994.96,-116.579"/>
</g>
<!-- Node13 -->
<g id="node13" class="node"><title>Node13</title>
<g id="a_node13"><a xlink:href="_get_limits_8cpp.html" target="_top" xlink:title="/home/travis/build\l/robotology/wb&#45;toolbox\l/toolbox/src/library/src\l/GetLimits.cpp">
<polygon fill="none" stroke="black" points="1544.5,-1 1544.5,-53 1659.5,-53 1659.5,-1 1544.5,-1"/>
<text text-anchor="start" x="1552.5" y="-41" font-family="Helvetica,sans-Serif" font-size="10.00">/home/travis/build</text>
<text text-anchor="start" x="1552.5" y="-30" font-family="Helvetica,sans-Serif" font-size="10.00">/robotology/wb&#45;toolbox</text>
<text text-anchor="start" x="1552.5" y="-19" font-family="Helvetica,sans-Serif" font-size="10.00">/toolbox/src/library/src</text>
<text text-anchor="middle" x="1602" y="-8" font-family="Helvetica,sans-Serif" font-size="10.00">/GetLimits.cpp</text>
</a>
</g>
</g>
<!-- Node1&#45;&gt;Node13 -->
<g id="edge12" class="edge"><title>Node1&#45;&gt;Node13</title>
<path fill="none" stroke="midnightblue" d="M1995.24,-109.674C1914.59,-101.457 1780.25,-84.4285 1668,-54 1665.27,-53.2589 1662.49,-52.4411 1659.7,-51.5664"/>
<polygon fill="midnightblue" stroke="midnightblue" points="1994.98,-113.166 2005.28,-110.68 1995.68,-106.201 1994.98,-113.166"/>
</g>
<!-- Node14 -->
<g id="node14" class="node"><title>Node14</title>
<g id="a_node14"><a xlink:href="_get_measurement_8cpp.html" target="_top" xlink:title="/home/travis/build\l/robotology/wb&#45;toolbox\l/toolbox/src/library/src\l/GetMeasurement.cpp">
<polygon fill="none" stroke="black" points="1677.5,-1 1677.5,-53 1792.5,-53 1792.5,-1 1677.5,-1"/>
<text text-anchor="start" x="1685.5" y="-41" font-family="Helvetica,sans-Serif" font-size="10.00">/home/travis/build</text>
<text text-anchor="start" x="1685.5" y="-30" font-family="Helvetica,sans-Serif" font-size="10.00">/robotology/wb&#45;toolbox</text>
<text text-anchor="start" x="1685.5" y="-19" font-family="Helvetica,sans-Serif" font-size="10.00">/toolbox/src/library/src</text>
<text text-anchor="middle" x="1735" y="-8" font-family="Helvetica,sans-Serif" font-size="10.00">/GetMeasurement.cpp</text>
</a>
</g>
</g>
<!-- Node1&#45;&gt;Node14 -->
<g id="edge13" class="edge"><title>Node1&#45;&gt;Node14</title>
<path fill="none" stroke="midnightblue" d="M1995.48,-102.294C1941.5,-91.2362 1865.89,-74.2233 1801,-54 1798.3,-53.1572 1795.54,-52.2559 1792.78,-51.3135"/>
<polygon fill="midnightblue" stroke="midnightblue" points="1994.81,-105.729 2005.31,-104.289 1996.2,-98.8686 1994.81,-105.729"/>
</g>
<!-- Node15 -->
<g id="node15" class="node"><title>Node15</title>
<g id="a_node15"><a xlink:href="_inverse_dynamics_8cpp.html" target="_top" xlink:title="/home/travis/build\l/robotology/wb&#45;toolbox\l/toolbox/src/library/src\l/InverseDynamics.cpp">
<polygon fill="none" stroke="black" points="1810.5,-1 1810.5,-53 1925.5,-53 1925.5,-1 1810.5,-1"/>
<text text-anchor="start" x="1818.5" y="-41" font-family="Helvetica,sans-Serif" font-size="10.00">/home/travis/build</text>
<text text-anchor="start" x="1818.5" y="-30" font-family="Helvetica,sans-Serif" font-size="10.00">/robotology/wb&#45;toolbox</text>
<text text-anchor="start" x="1818.5" y="-19" font-family="Helvetica,sans-Serif" font-size="10.00">/toolbox/src/library/src</text>
<text text-anchor="middle" x="1868" y="-8" font-family="Helvetica,sans-Serif" font-size="10.00">/InverseDynamics.cpp</text>
</a>
</g>
</g>
<!-- Node1&#45;&gt;Node15 -->
<g id="edge14" class="edge"><title>Node1&#45;&gt;Node15</title>
<path fill="none" stroke="midnightblue" d="M2000.96,-86.7977C1976.32,-75.9004 1948.58,-63.6325 1924.83,-53.1328"/>
<polygon fill="midnightblue" stroke="midnightblue" points="1999.68,-90.0571 2010.24,-90.9005 2002.51,-83.6551 1999.68,-90.0571"/>
</g>
<!-- Node16 -->
<g id="node16" class="node"><title>Node16</title>
<g id="a_node16"><a xlink:href="_jacobian_8cpp.html" target="_top" xlink:title="/home/travis/build\l/robotology/wb&#45;toolbox\l/toolbox/src/library/src\l/Jacobian.cpp">
<polygon fill="none" stroke="black" points="1943.5,-1 1943.5,-53 2058.5,-53 2058.5,-1 1943.5,-1"/>
<text text-anchor="start" x="1951.5" y="-41" font-family="Helvetica,sans-Serif" font-size="10.00">/home/travis/build</text>
<text text-anchor="start" x="1951.5" y="-30" font-family="Helvetica,sans-Serif" font-size="10.00">/robotology/wb&#45;toolbox</text>
<text text-anchor="start" x="1951.5" y="-19" font-family="Helvetica,sans-Serif" font-size="10.00">/toolbox/src/library/src</text>
<text text-anchor="middle" x="2001" y="-8" font-family="Helvetica,sans-Serif" font-size="10.00">/Jacobian.cpp</text>
</a>
</g>
</g>
<!-- Node1&#45;&gt;Node16 -->
<g id="edge15" class="edge"><title>Node1&#45;&gt;Node16</title>
<path fill="none" stroke="midnightblue" d="M2041.69,-82.2592C2034.42,-72.5644 2026.62,-62.1659 2019.82,-53.0921"/>
<polygon fill="midnightblue" stroke="midnightblue" points="2039.11,-84.6467 2047.91,-90.5468 2044.71,-80.4467 2039.11,-84.6467"/>
</g>
<!-- Node17 -->
<g id="node17" class="node"><title>Node17</title>
<g id="a_node17"><a xlink:href="_mass_matrix_8cpp.html" target="_top" xlink:title="/home/travis/build\l/robotology/wb&#45;toolbox\l/toolbox/src/library/src\l/MassMatrix.cpp">
<polygon fill="none" stroke="black" points="2076.5,-1 2076.5,-53 2191.5,-53 2191.5,-1 2076.5,-1"/>
<text text-anchor="start" x="2084.5" y="-41" font-family="Helvetica,sans-Serif" font-size="10.00">/home/travis/build</text>
<text text-anchor="start" x="2084.5" y="-30" font-family="Helvetica,sans-Serif" font-size="10.00">/robotology/wb&#45;toolbox</text>
<text text-anchor="start" x="2084.5" y="-19" font-family="Helvetica,sans-Serif" font-size="10.00">/toolbox/src/library/src</text>
<text text-anchor="middle" x="2134" y="-8" font-family="Helvetica,sans-Serif" font-size="10.00">/MassMatrix.cpp</text>
</a>
</g>
</g>
<!-- Node1&#45;&gt;Node17 -->
<g id="edge16" class="edge"><title>Node1&#45;&gt;Node17</title>
<path fill="none" stroke="midnightblue" d="M2092.47,-82.5528C2099.91,-72.7746 2107.92,-62.2575 2114.9,-53.0921"/>
<polygon fill="midnightblue" stroke="midnightblue" points="2089.65,-80.4701 2086.38,-90.5468 2095.22,-84.7106 2089.65,-80.4701"/>
</g>
<!-- Node18 -->
<g id="node18" class="node"><title>Node18</title>
<g id="a_node18"><a xlink:href="_minimum_jerk_trajectory_generator_8cpp.html" target="_top" xlink:title="/home/travis/build\l/robotology/wb&#45;toolbox\l/toolbox/src/library/src\l/MinimumJerkTrajectoryGenerator.cpp">
<polygon fill="none" stroke="black" points="2209.5,-1 2209.5,-53 2392.5,-53 2392.5,-1 2209.5,-1"/>
<text text-anchor="start" x="2217.5" y="-41" font-family="Helvetica,sans-Serif" font-size="10.00">/home/travis/build</text>
<text text-anchor="start" x="2217.5" y="-30" font-family="Helvetica,sans-Serif" font-size="10.00">/robotology/wb&#45;toolbox</text>
<text text-anchor="start" x="2217.5" y="-19" font-family="Helvetica,sans-Serif" font-size="10.00">/toolbox/src/library/src</text>
<text text-anchor="middle" x="2301" y="-8" font-family="Helvetica,sans-Serif" font-size="10.00">/MinimumJerkTrajectoryGenerator.cpp</text>
</a>
</g>
</g>
<!-- Node1&#45;&gt;Node18 -->
<g id="edge17" class="edge"><title>Node1&#45;&gt;Node18</title>
<path fill="none" stroke="midnightblue" d="M2138.51,-89.1091C2169.01,-77.6382 2204.4,-64.3296 2234.35,-53.0664"/>
<polygon fill="midnightblue" stroke="midnightblue" points="2136.91,-85.9679 2128.79,-92.7639 2139.38,-92.5199 2136.91,-85.9679"/>
</g>
<!-- Node19 -->
<g id="node19" class="node"><title>Node19</title>
<g id="a_node19"><a xlink:href="_model_partitioner_8cpp.html" target="_top" xlink:title="/home/travis/build\l/robotology/wb&#45;toolbox\l/toolbox/src/library/src\l/ModelPartitioner.cpp">
<polygon fill="none" stroke="black" points="2410.5,-1 2410.5,-53 2525.5,-53 2525.5,-1 2410.5,-1"/>
<text text-anchor="start" x="2418.5" y="-41" font-family="Helvetica,sans-Serif" font-size="10.00">/home/travis/build</text>
<text text-anchor="start" x="2418.5" y="-30" font-family="Helvetica,sans-Serif" font-size="10.00">/robotology/wb&#45;toolbox</text>
<text text-anchor="start" x="2418.5" y="-19" font-family="Helvetica,sans-Serif" font-size="10.00">/toolbox/src/library/src</text>
<text text-anchor="middle" x="2468" y="-8" font-family="Helvetica,sans-Serif" font-size="10.00">/ModelPartitioner.cpp</text>
</a>
</g>
</g>
<!-- Node1&#45;&gt;Node19 -->
<g id="edge18" class="edge"><title>Node1&#45;&gt;Node19</title>
<path fill="none" stroke="midnightblue" d="M2138.95,-106.61C2207.2,-96.7745 2312.23,-79.2229 2401,-54 2404.12,-53.1133 2407.3,-52.1385 2410.49,-51.1027"/>
<polygon fill="midnightblue" stroke="midnightblue" points="2138.15,-103.189 2128.74,-108.063 2139.13,-110.119 2138.15,-103.189"/>
</g>
<!-- Node20 -->
<g id="node20" class="node"><title>Node20</title>
<g id="a_node20"><a xlink:href="_qp_oases_8cpp.html" target="_top" xlink:title="/home/travis/build\l/robotology/wb&#45;toolbox\l/toolbox/src/library/src\l/QpOases.cpp">
<polygon fill="none" stroke="black" points="2543.5,-1 2543.5,-53 2658.5,-53 2658.5,-1 2543.5,-1"/>
<text text-anchor="start" x="2551.5" y="-41" font-family="Helvetica,sans-Serif" font-size="10.00">/home/travis/build</text>
<text text-anchor="start" x="2551.5" y="-30" font-family="Helvetica,sans-Serif" font-size="10.00">/robotology/wb&#45;toolbox</text>
<text text-anchor="start" x="2551.5" y="-19" font-family="Helvetica,sans-Serif" font-size="10.00">/toolbox/src/library/src</text>
<text text-anchor="middle" x="2601" y="-8" font-family="Helvetica,sans-Serif" font-size="10.00">/QpOases.cpp</text>
</a>
</g>
</g>
<!-- Node1&#45;&gt;Node20 -->
<g id="edge19" class="edge"><title>Node1&#45;&gt;Node20</title>
<path fill="none" stroke="midnightblue" d="M2138.81,-111.789C2231.37,-105.156 2396.74,-89.2059 2534,-54 2537.02,-53.225 2540.09,-52.3534 2543.17,-51.4115"/>
<polygon fill="midnightblue" stroke="midnightblue" points="2138.44,-108.306 2128.71,-112.497 2138.93,-115.289 2138.44,-108.306"/>
</g>
<!-- Node21 -->
<g id="node21" class="node"><title>Node21</title>
<g id="a_node21"><a xlink:href="_real_time_synchronizer_8cpp.html" target="_top" xlink:title="/home/travis/build\l/robotology/wb&#45;toolbox\l/toolbox/src/library/src\l/RealTimeSynchronizer.cpp">
<polygon fill="none" stroke="black" points="2676.5,-1 2676.5,-53 2813.5,-53 2813.5,-1 2676.5,-1"/>
<text text-anchor="start" x="2684.5" y="-41" font-family="Helvetica,sans-Serif" font-size="10.00">/home/travis/build</text>
<text text-anchor="start" x="2684.5" y="-30" font-family="Helvetica,sans-Serif" font-size="10.00">/robotology/wb&#45;toolbox</text>
<text text-anchor="start" x="2684.5" y="-19" font-family="Helvetica,sans-Serif" font-size="10.00">/toolbox/src/library/src</text>
<text text-anchor="middle" x="2745" y="-8" font-family="Helvetica,sans-Serif" font-size="10.00">/RealTimeSynchronizer.cpp</text>
</a>
</g>
</g>
<!-- Node1&#45;&gt;Node21 -->
<g id="edge20" class="edge"><title>Node1&#45;&gt;Node21</title>
<path fill="none" stroke="midnightblue" d="M2138.87,-113.645C2252.27,-108.799 2479.13,-94.5063 2667,-54 2670.07,-53.3381 2673.19,-52.598 2676.32,-51.7979"/>
<polygon fill="midnightblue" stroke="midnightblue" points="2138.44,-110.16 2128.59,-114.072 2138.73,-117.154 2138.44,-110.16"/>
</g>
<!-- Node22 -->
<g id="node22" class="node"><title>Node22</title>
<g id="a_node22"><a xlink:href="_relative_transform_8cpp.html" target="_top" xlink:title="/home/travis/build\l/robotology/wb&#45;toolbox\l/toolbox/src/library/src\l/RelativeTransform.cpp">
<polygon fill="none" stroke="black" points="2831.5,-1 2831.5,-53 2950.5,-53 2950.5,-1 2831.5,-1"/>
<text text-anchor="start" x="2839.5" y="-41" font-family="Helvetica,sans-Serif" font-size="10.00">/home/travis/build</text>
<text text-anchor="start" x="2839.5" y="-30" font-family="Helvetica,sans-Serif" font-size="10.00">/robotology/wb&#45;toolbox</text>
<text text-anchor="start" x="2839.5" y="-19" font-family="Helvetica,sans-Serif" font-size="10.00">/toolbox/src/library/src</text>
<text text-anchor="middle" x="2891" y="-8" font-family="Helvetica,sans-Serif" font-size="10.00">/RelativeTransform.cpp</text>
</a>
</g>
</g>
<!-- Node1&#45;&gt;Node22 -->
<g id="edge21" class="edge"><title>Node1&#45;&gt;Node22</title>
<path fill="none" stroke="midnightblue" d="M2138.78,-116.698C2274.14,-116.569 2575.64,-109.388 2822,-54 2825.12,-53.298 2828.29,-52.4852 2831.47,-51.5898"/>
<polygon fill="midnightblue" stroke="midnightblue" points="2138.54,-113.198 2128.54,-116.694 2138.54,-120.198 2138.54,-113.198"/>
</g>
<!-- Node23 -->
<g id="node23" class="node"><title>Node23</title>
<g id="a_node23"><a xlink:href="_robot_interface_8cpp.html" target="_top" xlink:title="/home/travis/build\l/robotology/wb&#45;toolbox\l/toolbox/src/library/src\l/RobotInterface.cpp">
<polygon fill="none" stroke="black" points="2968.5,-1 2968.5,-53 3083.5,-53 3083.5,-1 2968.5,-1"/>
<text text-anchor="start" x="2976.5" y="-41" font-family="Helvetica,sans-Serif" font-size="10.00">/home/travis/build</text>
<text text-anchor="start" x="2976.5" y="-30" font-family="Helvetica,sans-Serif" font-size="10.00">/robotology/wb&#45;toolbox</text>
<text text-anchor="start" x="2976.5" y="-19" font-family="Helvetica,sans-Serif" font-size="10.00">/toolbox/src/library/src</text>
<text text-anchor="middle" x="3026" y="-8" font-family="Helvetica,sans-Serif" font-size="10.00">/RobotInterface.cpp</text>
</a>
</g>
</g>
<!-- Node1&#45;&gt;Node23 -->
<g id="edge22" class="edge"><title>Node1&#45;&gt;Node23</title>
<path fill="none" stroke="midnightblue" d="M2138.64,-113.794C2321.69,-107.715 2803.15,-88.8145 2959,-54 2962.04,-53.3199 2965.13,-52.5248 2968.23,-51.6434"/>
<polygon fill="midnightblue" stroke="midnightblue" points="2138.46,-110.298 2128.58,-114.126 2138.69,-117.295 2138.46,-110.298"/>
</g>
<!-- Node24 -->
<g id="node24" class="node"><title>Node24</title>
<g id="a_node24"><a xlink:href="_set_motor_parameters_8cpp.html" target="_top" xlink:title="/home/travis/build\l/robotology/wb&#45;toolbox\l/toolbox/src/library/src\l/SetMotorParameters.cpp">
<polygon fill="none" stroke="black" points="3102,-1 3102,-53 3230,-53 3230,-1 3102,-1"/>
<text text-anchor="start" x="3110" y="-41" font-family="Helvetica,sans-Serif" font-size="10.00">/home/travis/build</text>
<text text-anchor="start" x="3110" y="-30" font-family="Helvetica,sans-Serif" font-size="10.00">/robotology/wb&#45;toolbox</text>
<text text-anchor="start" x="3110" y="-19" font-family="Helvetica,sans-Serif" font-size="10.00">/toolbox/src/library/src</text>
<text text-anchor="middle" x="3166" y="-8" font-family="Helvetica,sans-Serif" font-size="10.00">/SetMotorParameters.cpp</text>
</a>
</g>
</g>
<!-- Node1&#45;&gt;Node24 -->
<g id="edge23" class="edge"><title>Node1&#45;&gt;Node24</title>
<path fill="none" stroke="midnightblue" d="M2138.81,-114.243C2340.48,-108.898 2909.18,-90.8978 3092,-54 3095.2,-53.3535 3098.46,-52.5996 3101.72,-51.7643"/>
<polygon fill="midnightblue" stroke="midnightblue" points="2138.53,-110.749 2128.63,-114.51 2138.72,-117.747 2138.53,-110.749"/>
</g>
<!-- Node25 -->
<g id="node25" class="node"><title>Node25</title>
<g id="a_node25"><a xlink:href="_set_references_8cpp.html" target="_top" xlink:title="/home/travis/build\l/robotology/wb&#45;toolbox\l/toolbox/src/library/src\l/SetReferences.cpp">
<polygon fill="none" stroke="black" points="3248.5,-1 3248.5,-53 3363.5,-53 3363.5,-1 3248.5,-1"/>
<text text-anchor="start" x="3256.5" y="-41" font-family="Helvetica,sans-Serif" font-size="10.00">/home/travis/build</text>
<text text-anchor="start" x="3256.5" y="-30" font-family="Helvetica,sans-Serif" font-size="10.00">/robotology/wb&#45;toolbox</text>
<text text-anchor="start" x="3256.5" y="-19" font-family="Helvetica,sans-Serif" font-size="10.00">/toolbox/src/library/src</text>
<text text-anchor="middle" x="3306" y="-8" font-family="Helvetica,sans-Serif" font-size="10.00">/SetReferences.cpp</text>
</a>
</g>
</g>
<!-- Node1&#45;&gt;Node25 -->
<g id="edge24" class="edge"><title>Node1&#45;&gt;Node25</title>
<path fill="none" stroke="midnightblue" d="M2138.68,-115.175C2359.51,-112.166 3027.33,-99.4502 3239,-54 3242.05,-53.3451 3245.14,-52.5702 3248.24,-51.705"/>
<polygon fill="midnightblue" stroke="midnightblue" points="2138.46,-111.677 2128.5,-115.311 2138.55,-118.677 2138.46,-111.677"/>
</g>
<!-- Node26 -->
<g id="node26" class="node"><title>Node26</title>
<g id="a_node26"><a xlink:href="_simulator_synchronizer_8cpp.html" target="_top" xlink:title="/home/travis/build\l/robotology/wb&#45;toolbox\l/toolbox/src/library/src\l/SimulatorSynchronizer.cpp">
<polygon fill="none" stroke="black" points="3381.5,-1 3381.5,-53 3518.5,-53 3518.5,-1 3381.5,-1"/>
<text text-anchor="start" x="3389.5" y="-41" font-family="Helvetica,sans-Serif" font-size="10.00">/home/travis/build</text>
<text text-anchor="start" x="3389.5" y="-30" font-family="Helvetica,sans-Serif" font-size="10.00">/robotology/wb&#45;toolbox</text>
<text text-anchor="start" x="3389.5" y="-19" font-family="Helvetica,sans-Serif" font-size="10.00">/toolbox/src/library/src</text>
<text text-anchor="middle" x="3450" y="-8" font-family="Helvetica,sans-Serif" font-size="10.00">/SimulatorSynchronizer.cpp</text>
</a>
</g>
</g>
<!-- Node1&#45;&gt;Node26 -->
<g id="edge25" class="edge"><title>Node1&#45;&gt;Node26</title>
<path fill="none" stroke="midnightblue" d="M2138.89,-115.174C2376.12,-112.044 3132.53,-98.7184 3372,-54 3375.09,-53.4235 3378.22,-52.7542 3381.37,-52.0121"/>
<polygon fill="midnightblue" stroke="midnightblue" points="2138.61,-111.677 2128.66,-115.307 2138.71,-118.677 2138.61,-111.677"/>
</g>
<!-- Node27 -->
<g id="node27" class="node"><title>Node27</title>
<g id="a_node27"><a xlink:href="_w_b_block_8cpp.html" target="_top" xlink:title="/home/travis/build\l/robotology/wb&#45;toolbox\l/toolbox/src/library/src\l/WBBlock.cpp">
<polygon fill="none" stroke="black" points="3536.5,-1 3536.5,-53 3651.5,-53 3651.5,-1 3536.5,-1"/>
<text text-anchor="start" x="3544.5" y="-41" font-family="Helvetica,sans-Serif" font-size="10.00">/home/travis/build</text>
<text text-anchor="start" x="3544.5" y="-30" font-family="Helvetica,sans-Serif" font-size="10.00">/robotology/wb&#45;toolbox</text>
<text text-anchor="start" x="3544.5" y="-19" font-family="Helvetica,sans-Serif" font-size="10.00">/toolbox/src/library/src</text>
<text text-anchor="middle" x="3594" y="-8" font-family="Helvetica,sans-Serif" font-size="10.00">/WBBlock.cpp</text>
</a>
</g>
</g>
<!-- Node1&#45;&gt;Node27 -->
<g id="edge26" class="edge"><title>Node1&#45;&gt;Node27</title>
<path fill="none" stroke="midnightblue" d="M2139.16,-116.048C2394.95,-115.734 3257.43,-110.417 3527,-54 3530.05,-53.361 3533.15,-52.5989 3536.25,-51.7438"/>
<polygon fill="midnightblue" stroke="midnightblue" points="2138.87,-112.548 2128.88,-116.058 2138.88,-119.548 2138.87,-112.548"/>
</g>
<!-- Node28 -->
<g id="node28" class="node"><title>Node28</title>
<g id="a_node28"><a xlink:href="_whole_body_singleton_8cpp.html" target="_top" xlink:title="/home/travis/build\l/robotology/wb&#45;toolbox\l/toolbox/src/library/src\l/WholeBodySingleton.cpp">
<polygon fill="none" stroke="black" points="3669.5,-1 3669.5,-53 3798.5,-53 3798.5,-1 3669.5,-1"/>
<text text-anchor="start" x="3677.5" y="-41" font-family="Helvetica,sans-Serif" font-size="10.00">/home/travis/build</text>
<text text-anchor="start" x="3677.5" y="-30" font-family="Helvetica,sans-Serif" font-size="10.00">/robotology/wb&#45;toolbox</text>
<text text-anchor="start" x="3677.5" y="-19" font-family="Helvetica,sans-Serif" font-size="10.00">/toolbox/src/library/src</text>
<text text-anchor="middle" x="3734" y="-8" font-family="Helvetica,sans-Serif" font-size="10.00">/WholeBodySingleton.cpp</text>
</a>
</g>
</g>
<!-- Node1&#45;&gt;Node28 -->
<g id="edge27" class="edge"><title>Node1&#45;&gt;Node28</title>
<path fill="none" stroke="midnightblue" d="M2138.8,-116.046C2408.71,-115.777 3362.39,-110.74 3660,-54 3663.08,-53.4135 3666.2,-52.7224 3669.33,-51.9505"/>
<polygon fill="midnightblue" stroke="midnightblue" points="2138.72,-112.546 2128.73,-116.054 2138.73,-119.546 2138.72,-112.546"/>
</g>
<!-- Node29 -->
<g id="node29" class="node"><title>Node29</title>
<g id="a_node29"><a xlink:href="_yarp_clock_8cpp.html" target="_top" xlink:title="/home/travis/build\l/robotology/wb&#45;toolbox\l/toolbox/src/library/src\l/YarpClock.cpp">
<polygon fill="none" stroke="black" points="3816.5,-1 3816.5,-53 3931.5,-53 3931.5,-1 3816.5,-1"/>
<text text-anchor="start" x="3824.5" y="-41" font-family="Helvetica,sans-Serif" font-size="10.00">/home/travis/build</text>
<text text-anchor="start" x="3824.5" y="-30" font-family="Helvetica,sans-Serif" font-size="10.00">/robotology/wb&#45;toolbox</text>
<text text-anchor="start" x="3824.5" y="-19" font-family="Helvetica,sans-Serif" font-size="10.00">/toolbox/src/library/src</text>
<text text-anchor="middle" x="3874" y="-8" font-family="Helvetica,sans-Serif" font-size="10.00">/YarpClock.cpp</text>
</a>
</g>
</g>
<!-- Node1&#45;&gt;Node29 -->
<g id="edge28" class="edge"><title>Node1&#45;&gt;Node29</title>
<path fill="none" stroke="midnightblue" d="M2138.7,-114.857C2445.8,-109.77 3642.05,-87.9335 3807,-54 3810.06,-53.3715 3813.15,-52.6177 3816.26,-51.7692"/>
<polygon fill="midnightblue" stroke="midnightblue" points="2138.52,-111.359 2128.58,-115.024 2138.64,-118.358 2138.52,-111.359"/>
</g>
<!-- Node30 -->
<g id="node30" class="node"><title>Node30</title>
<g id="a_node30"><a xlink:href="_yarp_read_8cpp.html" target="_top" xlink:title="/home/travis/build\l/robotology/wb&#45;toolbox\l/toolbox/src/library/src\l/YarpRead.cpp">
<polygon fill="none" stroke="black" points="3949.5,-1 3949.5,-53 4064.5,-53 4064.5,-1 3949.5,-1"/>
<text text-anchor="start" x="3957.5" y="-41" font-family="Helvetica,sans-Serif" font-size="10.00">/home/travis/build</text>
<text text-anchor="start" x="3957.5" y="-30" font-family="Helvetica,sans-Serif" font-size="10.00">/robotology/wb&#45;toolbox</text>
<text text-anchor="start" x="3957.5" y="-19" font-family="Helvetica,sans-Serif" font-size="10.00">/toolbox/src/library/src</text>
<text text-anchor="middle" x="4007" y="-8" font-family="Helvetica,sans-Serif" font-size="10.00">/YarpRead.cpp</text>
</a>
</g>
</g>
<!-- Node1&#45;&gt;Node30 -->
<g id="edge29" class="edge"><title>Node1&#45;&gt;Node30</title>
<path fill="none" stroke="midnightblue" d="M2138.82,-115.05C2460.58,-110.603 3761.44,-90.4989 3940,-54 3943.06,-53.3753 3946.15,-52.6247 3949.26,-51.7787"/>
<polygon fill="midnightblue" stroke="midnightblue" points="2138.64,-111.552 2128.69,-115.19 2138.74,-118.552 2138.64,-111.552"/>
</g>
<!-- Node31 -->
<g id="node31" class="node"><title>Node31</title>
<g id="a_node31"><a xlink:href="_yarp_write_8cpp.html" target="_top" xlink:title="/home/travis/build\l/robotology/wb&#45;toolbox\l/toolbox/src/library/src\l/YarpWrite.cpp">
<polygon fill="none" stroke="black" points="4082.5,-1 4082.5,-53 4197.5,-53 4197.5,-1 4082.5,-1"/>
<text text-anchor="start" x="4090.5" y="-41" font-family="Helvetica,sans-Serif" font-size="10.00">/home/travis/build</text>
<text text-anchor="start" x="4090.5" y="-30" font-family="Helvetica,sans-Serif" font-size="10.00">/robotology/wb&#45;toolbox</text>
<text text-anchor="start" x="4090.5" y="-19" font-family="Helvetica,sans-Serif" font-size="10.00">/toolbox/src/library/src</text>
<text text-anchor="middle" x="4140" y="-8" font-family="Helvetica,sans-Serif" font-size="10.00">/YarpWrite.cpp</text>
</a>
</g>
</g>
<!-- Node1&#45;&gt;Node31 -->
<g id="edge30" class="edge"><title>Node1&#45;&gt;Node31</title>
<path fill="none" stroke="midnightblue" d="M2138.65,-115.222C2474.04,-111.386 3880.74,-93.0799 4073,-54 4076.06,-53.3787 4079.16,-52.6307 4082.26,-51.7868"/>
<polygon fill="midnightblue" stroke="midnightblue" points="2138.53,-111.723 2128.57,-115.336 2138.61,-118.722 2138.53,-111.723"/>
</g>
</g>
</svg>
