<?xml version="1.0" encoding="UTF-8" standalone="no"?>
<!DOCTYPE svg PUBLIC "-//W3C//DTD SVG 1.1//EN"
 "http://www.w3.org/Graphics/SVG/1.1/DTD/svg11.dtd">
<!-- Generated by graphviz version 2.36.0 (20140111.2315)
 -->
<!-- Title: /home/travis/build/robotology/wb&#45;toolbox/toolbox/include/base/Log.h Pages: 1 -->
<!--zoomable 140 -->
<svg id="main" version="1.1" xmlns="http://www.w3.org/2000/svg" xmlns:xlink="http://www.w3.org/1999/xlink" xml:space="preserve" onload="init(evt)">
<style type="text/css"><![CDATA[
.edge:hover path { stroke: red; }
.edge:hover polygon { stroke: red; fill: red; }
]]></style>
<script type="text/javascript"><![CDATA[
var edges = document.getElementsByTagName('g');
if (edges && edges.length) {
  for (var i=0;i<edges.length;i++) {
    if (edges[i].id.substr(0,4)=='edge') {
      edges[i].setAttribute('class','edge');
    }
  }
}
]]></script>
        <defs>
                <circle id="rim" cx="0" cy="0" r="7"/>
                <circle id="rim2" cx="0" cy="0" r="3.5"/>
                <g id="zoomPlus">
                        <use xlink:href="#rim" fill="#404040">
                                <set attributeName="fill" to="#808080" begin="zoomplus.mouseover" end="zoomplus.mouseout"/>
                        </use>
                        <path d="M-4,0h8M0,-4v8" fill="none" stroke="white" stroke-width="1.5" pointer-events="none"/>
                </g>
                <g id="zoomMin">
                        <use xlink:href="#rim" fill="#404040">
                                <set attributeName="fill" to="#808080" begin="zoomminus.mouseover" end="zoomminus.mouseout"/>
                        </use>
                        <path d="M-4,0h8" fill="none" stroke="white" stroke-width="1.5" pointer-events="none"/>
                </g>
                <g id="dirArrow">
                        <path fill="none" stroke="white" stroke-width="1.5" d="M0,-3.0v7 M-2.5,-0.5L0,-3.0L2.5,-0.5"/>
                </g>
               <g id="resetDef">
                       <use xlink:href="#rim2" fill="#404040">
                               <set attributeName="fill" to="#808080" begin="reset.mouseover" end="reset.mouseout"/>
                       </use>
               </g>
        </defs>

<script type="text/javascript">
var viewWidth = 5045;
var viewHeight = 140;
var sectionId = 'dynsection-1';
</script>
<script xlink:href="svgpan.js"/>
<svg id="graph" class="graph">
<g id="viewport">
<title>/home/travis/build/robotology/wb&#45;toolbox/toolbox/include/base/Log.h</title>
<!-- Node1 -->
<g id="node1" class="node"><title>Node1</title>
<polygon fill="#bfbfbf" stroke="black" points="2453,-90.5 2453,-131.5 2589,-131.5 2589,-90.5 2453,-90.5"/>
<text text-anchor="start" x="2461" y="-119.5" font-family="Helvetica,sans-Serif" font-size="10.00">/home/travis/build</text>
<text text-anchor="start" x="2461" y="-108.5" font-family="Helvetica,sans-Serif" font-size="10.00">/robotology/wb&#45;toolbox</text>
<text text-anchor="middle" x="2521" y="-97.5" font-family="Helvetica,sans-Serif" font-size="10.00">/toolbox/include/base/Log.h</text>
</g>
<!-- Node2 -->
<g id="node2" class="node"><title>Node2</title>
<g id="a_node2"><a xlink:href="_block_8cpp.html" target="_top" xlink:title="/home/travis/build\l/robotology/wb&#45;toolbox\l/toolbox/src/base/Block.cpp">
<polygon fill="none" stroke="black" points="0,-6.5 0,-47.5 138,-47.5 138,-6.5 0,-6.5"/>
<text text-anchor="start" x="8" y="-35.5" font-family="Helvetica,sans-Serif" font-size="10.00">/home/travis/build</text>
<text text-anchor="start" x="8" y="-24.5" font-family="Helvetica,sans-Serif" font-size="10.00">/robotology/wb&#45;toolbox</text>
<text text-anchor="middle" x="69" y="-13.5" font-family="Helvetica,sans-Serif" font-size="10.00">/toolbox/src/base/Block.cpp</text>
</a>
</g>
</g>
<!-- Node1&#45;&gt;Node2 -->
<g id="edge1" class="edge"><title>Node1&#45;&gt;Node2</title>
<path fill="none" stroke="midnightblue" d="M2442.53,-109.536C2057.44,-107.074 376.91,-94.0973 147,-54 138.282,-52.4795 129.211,-50.1704 120.47,-47.544"/>
<polygon fill="midnightblue" stroke="midnightblue" points="2442.71,-113.037 2452.73,-109.601 2442.76,-106.038 2442.71,-113.037"/>
</g>
<!-- Node3 -->
<g id="node3" class="node"><title>Node3</title>
<g id="a_node3"><a xlink:href="_coder_block_information_8cpp.html" target="_top" xlink:title="/home/travis/build\l/robotology/wb&#45;toolbox\l/toolbox/src/base/CoderBlock\lInformation.cpp">
<polygon fill="none" stroke="black" points="156,-1 156,-53 302,-53 302,-1 156,-1"/>
<text text-anchor="start" x="164" y="-41" font-family="Helvetica,sans-Serif" font-size="10.00">/home/travis/build</text>
<text text-anchor="start" x="164" y="-30" font-family="Helvetica,sans-Serif" font-size="10.00">/robotology/wb&#45;toolbox</text>
<text text-anchor="start" x="164" y="-19" font-family="Helvetica,sans-Serif" font-size="10.00">/toolbox/src/base/CoderBlock</text>
<text text-anchor="middle" x="229" y="-8" font-family="Helvetica,sans-Serif" font-size="10.00">Information.cpp</text>
</a>
</g>
</g>
<!-- Node1&#45;&gt;Node3 -->
<g id="edge2" class="edge"><title>Node1&#45;&gt;Node3</title>
<path fill="none" stroke="midnightblue" d="M2442.91,-109.324C2075.09,-105.964 524.284,-89.7755 311,-54 308.054,-53.5059 305.068,-52.9303 302.066,-52.2889"/>
<polygon fill="midnightblue" stroke="midnightblue" points="2442.9,-112.824 2452.93,-109.415 2442.96,-105.824 2442.9,-112.824"/>
</g>
<!-- Node4 -->
<g id="node4" class="node"><title>Node4</title>
<g id="a_node4"><a xlink:href="_log_8cpp.html" target="_top" xlink:title="/home/travis/build\l/robotology/wb&#45;toolbox\l/toolbox/src/base/Log.cpp">
<polygon fill="none" stroke="black" points="320.5,-6.5 320.5,-47.5 449.5,-47.5 449.5,-6.5 320.5,-6.5"/>
<text text-anchor="start" x="328.5" y="-35.5" font-family="Helvetica,sans-Serif" font-size="10.00">/home/travis/build</text>
<text text-anchor="start" x="328.5" y="-24.5" font-family="Helvetica,sans-Serif" font-size="10.00">/robotology/wb&#45;toolbox</text>
<text text-anchor="middle" x="385" y="-13.5" font-family="Helvetica,sans-Serif" font-size="10.00">/toolbox/src/base/Log.cpp</text>
</a>
</g>
</g>
<!-- Node1&#45;&gt;Node4 -->
<g id="edge3" class="edge"><title>Node1&#45;&gt;Node4</title>
<path fill="none" stroke="midnightblue" d="M2442.71,-109.31C2089.91,-106.006 656.414,-90.4365 459,-54 450.698,-52.4676 442.076,-50.1525 433.777,-47.5236"/>
<polygon fill="midnightblue" stroke="midnightblue" points="2442.8,-112.811 2452.83,-109.404 2442.87,-105.811 2442.8,-112.811"/>
</g>
<!-- Node5 -->
<g id="node5" class="node"><title>Node5</title>
<g id="a_node5"><a xlink:href="_parameters_8cpp.html" target="_top" xlink:title="/home/travis/build\l/robotology/wb&#45;toolbox\l/toolbox/src/base/Parameters.cpp">
<polygon fill="none" stroke="black" points="468,-6.5 468,-47.5 632,-47.5 632,-6.5 468,-6.5"/>
<text text-anchor="start" x="476" y="-35.5" font-family="Helvetica,sans-Serif" font-size="10.00">/home/travis/build</text>
<text text-anchor="start" x="476" y="-24.5" font-family="Helvetica,sans-Serif" font-size="10.00">/robotology/wb&#45;toolbox</text>
<text text-anchor="middle" x="550" y="-13.5" font-family="Helvetica,sans-Serif" font-size="10.00">/toolbox/src/base/Parameters.cpp</text>
</a>
</g>
</g>
<!-- Node1&#45;&gt;Node5 -->
<g id="edge4" class="edge"><title>Node1&#45;&gt;Node5</title>
<path fill="none" stroke="midnightblue" d="M2442.55,-110.256C2133.09,-110.863 996.534,-109.203 641,-54 631.096,-52.4622 620.745,-50.181 610.722,-47.5981"/>
<polygon fill="midnightblue" stroke="midnightblue" points="2442.78,-113.755 2452.78,-110.234 2442.77,-106.755 2442.78,-113.755"/>
</g>
<!-- Node6 -->
<g id="node6" class="node"><title>Node6</title>
<g id="a_node6"><a xlink:href="_robot_interface_8cpp.html" target="_top" xlink:title="/home/travis/build\l/robotology/wb&#45;toolbox\l/toolbox/src/base/RobotInterface.cpp">
<polygon fill="none" stroke="black" points="650,-6.5 650,-47.5 828,-47.5 828,-6.5 650,-6.5"/>
<text text-anchor="start" x="658" y="-35.5" font-family="Helvetica,sans-Serif" font-size="10.00">/home/travis/build</text>
<text text-anchor="start" x="658" y="-24.5" font-family="Helvetica,sans-Serif" font-size="10.00">/robotology/wb&#45;toolbox</text>
<text text-anchor="middle" x="739" y="-13.5" font-family="Helvetica,sans-Serif" font-size="10.00">/toolbox/src/base/RobotInterface.cpp</text>
</a>
</g>
</g>
<!-- Node1&#45;&gt;Node6 -->
<g id="edge5" class="edge"><title>Node1&#45;&gt;Node6</title>
<path fill="none" stroke="midnightblue" d="M2442.26,-109.74C2153.45,-108.42 1152.7,-100.515 837,-54 826.377,-52.4348 815.253,-50.1393 804.468,-47.5504"/>
<polygon fill="midnightblue" stroke="midnightblue" points="2442.63,-113.242 2452.64,-109.786 2442.66,-106.242 2442.63,-113.242"/>
</g>
<!-- Node7 -->
<g id="node7" class="node"><title>Node7</title>
<g id="a_node7"><a xlink:href="_signal_8cpp.html" target="_top" xlink:title="/home/travis/build\l/robotology/wb&#45;toolbox\l/toolbox/src/base/Signal.cpp">
<polygon fill="none" stroke="black" points="846,-6.5 846,-47.5 986,-47.5 986,-6.5 846,-6.5"/>
<text text-anchor="start" x="854" y="-35.5" font-family="Helvetica,sans-Serif" font-size="10.00">/home/travis/build</text>
<text text-anchor="start" x="854" y="-24.5" font-family="Helvetica,sans-Serif" font-size="10.00">/robotology/wb&#45;toolbox</text>
<text text-anchor="middle" x="916" y="-13.5" font-family="Helvetica,sans-Serif" font-size="10.00">/toolbox/src/base/Signal.cpp</text>
</a>
</g>
</g>
<!-- Node1&#45;&gt;Node7 -->
<g id="edge6" class="edge"><title>Node1&#45;&gt;Node7</title>
<path fill="none" stroke="midnightblue" d="M2442.81,-110.026C2172.29,-109.666 1277.28,-104.583 995,-54 986.33,-52.4464 977.307,-50.157 968.59,-47.5706"/>
<polygon fill="midnightblue" stroke="midnightblue" points="2442.93,-113.526 2452.93,-110.038 2442.94,-106.526 2442.93,-113.526"/>
</g>
<!-- Node8 -->
<g id="node8" class="node"><title>Node8</title>
<g id="a_node8"><a xlink:href="_simulink_block_information_8cpp.html" target="_top" xlink:title="/home/travis/build\l/robotology/wb&#45;toolbox\l/toolbox/src/base/SimulinkBlock\lInformation.cpp">
<polygon fill="none" stroke="black" points="1004.5,-1 1004.5,-53 1161.5,-53 1161.5,-1 1004.5,-1"/>
<text text-anchor="start" x="1012.5" y="-41" font-family="Helvetica,sans-Serif" font-size="10.00">/home/travis/build</text>
<text text-anchor="start" x="1012.5" y="-30" font-family="Helvetica,sans-Serif" font-size="10.00">/robotology/wb&#45;toolbox</text>
<text text-anchor="start" x="1012.5" y="-19" font-family="Helvetica,sans-Serif" font-size="10.00">/toolbox/src/base/SimulinkBlock</text>
<text text-anchor="middle" x="1083" y="-8" font-family="Helvetica,sans-Serif" font-size="10.00">Information.cpp</text>
</a>
</g>
</g>
<!-- Node1&#45;&gt;Node8 -->
<g id="edge7" class="edge"><title>Node1&#45;&gt;Node8</title>
<path fill="none" stroke="midnightblue" d="M2442.67,-109.31C2192.91,-106.709 1417.34,-95.4186 1170,-54 1167.2,-53.5314 1164.37,-53.0001 1161.51,-52.4173"/>
<polygon fill="midnightblue" stroke="midnightblue" points="2442.71,-112.811 2452.75,-109.413 2442.78,-105.811 2442.71,-112.811"/>
</g>
<!-- Node9 -->
<g id="node9" class="node"><title>Node9</title>
<g id="a_node9"><a xlink:href="_w_b_block_8cpp.html" target="_top" xlink:title="/home/travis/build\l/robotology/wb&#45;toolbox\l/toolbox/src/base/WBBlock.cpp">
<polygon fill="none" stroke="black" points="1179.5,-6.5 1179.5,-47.5 1334.5,-47.5 1334.5,-6.5 1179.5,-6.5"/>
<text text-anchor="start" x="1187.5" y="-35.5" font-family="Helvetica,sans-Serif" font-size="10.00">/home/travis/build</text>
<text text-anchor="start" x="1187.5" y="-24.5" font-family="Helvetica,sans-Serif" font-size="10.00">/robotology/wb&#45;toolbox</text>
<text text-anchor="middle" x="1257" y="-13.5" font-family="Helvetica,sans-Serif" font-size="10.00">/toolbox/src/base/WBBlock.cpp</text>
</a>
</g>
</g>
<!-- Node1&#45;&gt;Node9 -->
<g id="edge8" class="edge"><title>Node1&#45;&gt;Node9</title>
<path fill="none" stroke="midnightblue" d="M2442.44,-108.747C2214.56,-104.719 1556.14,-90.1901 1344,-54 1334.68,-52.4094 1324.94,-50.1361 1315.51,-47.5876"/>
<polygon fill="midnightblue" stroke="midnightblue" points="2442.57,-112.25 2452.63,-108.925 2442.7,-105.251 2442.57,-112.25"/>
</g>
<!-- Node10 -->
<g id="node10" class="node"><title>Node10</title>
<g id="a_node10"><a xlink:href="_w_b_toolbox_8cpp.html" target="_top" xlink:title="/home/travis/build\l/robotology/wb&#45;toolbox\l/toolbox/src/base/WBToolbox.cpp">
<polygon fill="none" stroke="black" points="1353,-6.5 1353,-47.5 1517,-47.5 1517,-6.5 1353,-6.5"/>
<text text-anchor="start" x="1361" y="-35.5" font-family="Helvetica,sans-Serif" font-size="10.00">/home/travis/build</text>
<text text-anchor="start" x="1361" y="-24.5" font-family="Helvetica,sans-Serif" font-size="10.00">/robotology/wb&#45;toolbox</text>
<text text-anchor="middle" x="1435" y="-13.5" font-family="Helvetica,sans-Serif" font-size="10.00">/toolbox/src/base/WBToolbox.cpp</text>
</a>
</g>
</g>
<!-- Node1&#45;&gt;Node10 -->
<g id="edge9" class="edge"><title>Node1&#45;&gt;Node10</title>
<path fill="none" stroke="midnightblue" d="M2442.56,-107.835C2239.79,-101.88 1701.86,-83.6921 1526,-54 1516.44,-52.3861 1506.45,-50.1351 1496.75,-47.6264"/>
<polygon fill="midnightblue" stroke="midnightblue" points="2442.73,-111.342 2452.83,-108.135 2442.93,-104.345 2442.73,-111.342"/>
</g>
<!-- Node11 -->
<g id="node11" class="node"><title>Node11</title>
<g id="a_node11"><a xlink:href="_whole_body_singleton_8cpp.html" target="_top" xlink:title="/home/travis/build\l/robotology/wb&#45;toolbox\l/toolbox/src/base/WholeBodySingleton.cpp">
<polygon fill="none" stroke="black" points="1535,-6.5 1535,-47.5 1739,-47.5 1739,-6.5 1535,-6.5"/>
<text text-anchor="start" x="1543" y="-35.5" font-family="Helvetica,sans-Serif" font-size="10.00">/home/travis/build</text>
<text text-anchor="start" x="1543" y="-24.5" font-family="Helvetica,sans-Serif" font-size="10.00">/robotology/wb&#45;toolbox</text>
<text text-anchor="middle" x="1637" y="-13.5" font-family="Helvetica,sans-Serif" font-size="10.00">/toolbox/src/base/WholeBodySingleton.cpp</text>
</a>
</g>
</g>
<!-- Node1&#45;&gt;Node11 -->
<g id="edge10" class="edge"><title>Node1&#45;&gt;Node11</title>
<path fill="none" stroke="midnightblue" d="M2442.66,-108.402C2302.54,-104.639 2000.08,-92.4081 1748,-54 1736.75,-52.2858 1724.95,-50.0299 1713.42,-47.5622"/>
<polygon fill="midnightblue" stroke="midnightblue" points="2442.78,-111.906 2452.87,-108.669 2442.97,-104.909 2442.78,-111.906"/>
</g>
<!-- Node12 -->
<g id="node12" class="node"><title>Node12</title>
<g id="a_node12"><a xlink:href="_centroidal_momentum_8cpp.html" target="_top" xlink:title="/home/travis/build\l/robotology/wb&#45;toolbox\l/toolbox/src/CentroidalMomentum.cpp">
<polygon fill="none" stroke="black" points="1757,-6.5 1757,-47.5 1939,-47.5 1939,-6.5 1757,-6.5"/>
<text text-anchor="start" x="1765" y="-35.5" font-family="Helvetica,sans-Serif" font-size="10.00">/home/travis/build</text>
<text text-anchor="start" x="1765" y="-24.5" font-family="Helvetica,sans-Serif" font-size="10.00">/robotology/wb&#45;toolbox</text>
<text text-anchor="middle" x="1848" y="-13.5" font-family="Helvetica,sans-Serif" font-size="10.00">/toolbox/src/CentroidalMomentum.cpp</text>
</a>
</g>
</g>
<!-- Node1&#45;&gt;Node12 -->
<g id="edge11" class="edge"><title>Node1&#45;&gt;Node12</title>
<path fill="none" stroke="midnightblue" d="M2442.52,-106.237C2331.64,-100.036 2123.12,-85.1239 1948,-54 1938.02,-52.2265 1927.58,-49.9693 1917.36,-47.5284"/>
<polygon fill="midnightblue" stroke="midnightblue" points="2442.43,-109.737 2452.61,-106.792 2442.82,-102.748 2442.43,-109.737"/>
</g>
<!-- Node13 -->
<g id="node13" class="node"><title>Node13</title>
<g id="a_node13"><a xlink:href="_discrete_filter_8cpp.html" target="_top" xlink:title="/home/travis/build\l/robotology/wb&#45;toolbox\l/toolbox/src/DiscreteFilter.cpp">
<polygon fill="none" stroke="black" points="1957,-6.5 1957,-47.5 2105,-47.5 2105,-6.5 1957,-6.5"/>
<text text-anchor="start" x="1965" y="-35.5" font-family="Helvetica,sans-Serif" font-size="10.00">/home/travis/build</text>
<text text-anchor="start" x="1965" y="-24.5" font-family="Helvetica,sans-Serif" font-size="10.00">/robotology/wb&#45;toolbox</text>
<text text-anchor="middle" x="2031" y="-13.5" font-family="Helvetica,sans-Serif" font-size="10.00">/toolbox/src/DiscreteFilter.cpp</text>
</a>
</g>
</g>
<!-- Node1&#45;&gt;Node13 -->
<g id="edge12" class="edge"><title>Node1&#45;&gt;Node13</title>
<path fill="none" stroke="midnightblue" d="M2442.64,-103.135C2360.17,-95.001 2226.92,-79.2693 2114,-54 2105.9,-52.1863 2097.44,-49.9519 2089.16,-47.5612"/>
<polygon fill="midnightblue" stroke="midnightblue" points="2442.4,-106.628 2452.69,-104.114 2443.07,-99.6609 2442.4,-106.628"/>
</g>
<!-- Node14 -->
<g id="node14" class="node"><title>Node14</title>
<g id="a_node14"><a xlink:href="_dot_j_nu_8cpp.html" target="_top" xlink:title="/home/travis/build\l/robotology/wb&#45;toolbox\l/toolbox/src/DotJNu.cpp">
<polygon fill="none" stroke="black" points="2123.5,-6.5 2123.5,-47.5 2246.5,-47.5 2246.5,-6.5 2123.5,-6.5"/>
<text text-anchor="start" x="2131.5" y="-35.5" font-family="Helvetica,sans-Serif" font-size="10.00">/home/travis/build</text>
<text text-anchor="start" x="2131.5" y="-24.5" font-family="Helvetica,sans-Serif" font-size="10.00">/robotology/wb&#45;toolbox</text>
<text text-anchor="middle" x="2185" y="-13.5" font-family="Helvetica,sans-Serif" font-size="10.00">/toolbox/src/DotJNu.cpp</text>
</a>
</g>
</g>
<!-- Node1&#45;&gt;Node14 -->
<g id="edge13" class="edge"><title>Node1&#45;&gt;Node14</title>
<path fill="none" stroke="midnightblue" d="M2442.73,-96.6789C2389.34,-86.8248 2317.29,-72.0166 2255,-54 2248.4,-52.0908 2241.53,-49.8578 2234.79,-47.5168"/>
<polygon fill="midnightblue" stroke="midnightblue" points="2442.34,-100.167 2452.81,-98.5219 2443.6,-93.2808 2442.34,-100.167"/>
</g>
<!-- Node15 -->
<g id="node15" class="node"><title>Node15</title>
<g id="a_node15"><a xlink:href="_forward_kinematics_8cpp.html" target="_top" xlink:title="/home/travis/build\l/robotology/wb&#45;toolbox\l/toolbox/src/ForwardKinematics.cpp">
<polygon fill="none" stroke="black" points="2264.5,-6.5 2264.5,-47.5 2437.5,-47.5 2437.5,-6.5 2264.5,-6.5"/>
<text text-anchor="start" x="2272.5" y="-35.5" font-family="Helvetica,sans-Serif" font-size="10.00">/home/travis/build</text>
<text text-anchor="start" x="2272.5" y="-24.5" font-family="Helvetica,sans-Serif" font-size="10.00">/robotology/wb&#45;toolbox</text>
<text text-anchor="middle" x="2351" y="-13.5" font-family="Helvetica,sans-Serif" font-size="10.00">/toolbox/src/ForwardKinematics.cpp</text>
</a>
</g>
</g>
<!-- Node1&#45;&gt;Node15 -->
<g id="edge14" class="edge"><title>Node1&#45;&gt;Node15</title>
<path fill="none" stroke="midnightblue" d="M2471.21,-85.9838C2445.91,-73.7808 2415.56,-59.1396 2391.68,-47.6227"/>
<polygon fill="midnightblue" stroke="midnightblue" points="2469.75,-89.1668 2480.28,-90.359 2472.79,-82.8619 2469.75,-89.1668"/>
</g>
<!-- Node16 -->
<g id="node16" class="node"><title>Node16</title>
<g id="a_node16"><a xlink:href="_get_limits_8cpp.html" target="_top" xlink:title="/home/travis/build\l/robotology/wb&#45;toolbox\l/toolbox/src/GetLimits.cpp">
<polygon fill="none" stroke="black" points="2455.5,-6.5 2455.5,-47.5 2586.5,-47.5 2586.5,-6.5 2455.5,-6.5"/>
<text text-anchor="start" x="2463.5" y="-35.5" font-family="Helvetica,sans-Serif" font-size="10.00">/home/travis/build</text>
<text text-anchor="start" x="2463.5" y="-24.5" font-family="Helvetica,sans-Serif" font-size="10.00">/robotology/wb&#45;toolbox</text>
<text text-anchor="middle" x="2521" y="-13.5" font-family="Helvetica,sans-Serif" font-size="10.00">/toolbox/src/GetLimits.cpp</text>
</a>
</g>
</g>
<!-- Node1&#45;&gt;Node16 -->
<g id="edge15" class="edge"><title>Node1&#45;&gt;Node16</title>
<path fill="none" stroke="midnightblue" d="M2521,-79.881C2521,-69.1328 2521,-57.309 2521,-47.6671"/>
<polygon fill="midnightblue" stroke="midnightblue" points="2517.5,-80.1501 2521,-90.1501 2524.5,-80.1501 2517.5,-80.1501"/>
</g>
<!-- Node17 -->
<g id="node17" class="node"><title>Node17</title>
<g id="a_node17"><a xlink:href="_get_measurement_8cpp.html" target="_top" xlink:title="/home/travis/build\l/robotology/wb&#45;toolbox\l/toolbox/src/GetMeasurement.cpp">
<polygon fill="none" stroke="black" points="2605,-6.5 2605,-47.5 2769,-47.5 2769,-6.5 2605,-6.5"/>
<text text-anchor="start" x="2613" y="-35.5" font-family="Helvetica,sans-Serif" font-size="10.00">/home/travis/build</text>
<text text-anchor="start" x="2613" y="-24.5" font-family="Helvetica,sans-Serif" font-size="10.00">/robotology/wb&#45;toolbox</text>
<text text-anchor="middle" x="2687" y="-13.5" font-family="Helvetica,sans-Serif" font-size="10.00">/toolbox/src/GetMeasurement.cpp</text>
</a>
</g>
</g>
<!-- Node1&#45;&gt;Node17 -->
<g id="edge16" class="edge"><title>Node1&#45;&gt;Node17</title>
<path fill="none" stroke="midnightblue" d="M2569.94,-85.823C2594.58,-73.6524 2624.06,-59.0891 2647.28,-47.6227"/>
<polygon fill="midnightblue" stroke="midnightblue" points="2568.18,-82.792 2560.76,-90.359 2571.28,-89.0681 2568.18,-82.792"/>
</g>
<!-- Node18 -->
<g id="node18" class="node"><title>Node18</title>
<g id="a_node18"><a xlink:href="_inverse_dynamics_8cpp.html" target="_top" xlink:title="/home/travis/build\l/robotology/wb&#45;toolbox\l/toolbox/src/InverseDynamics.cpp">
<polygon fill="none" stroke="black" points="2787,-6.5 2787,-47.5 2953,-47.5 2953,-6.5 2787,-6.5"/>
<text text-anchor="start" x="2795" y="-35.5" font-family="Helvetica,sans-Serif" font-size="10.00">/home/travis/build</text>
<text text-anchor="start" x="2795" y="-24.5" font-family="Helvetica,sans-Serif" font-size="10.00">/robotology/wb&#45;toolbox</text>
<text text-anchor="middle" x="2870" y="-13.5" font-family="Helvetica,sans-Serif" font-size="10.00">/toolbox/src/InverseDynamics.cpp</text>
</a>
</g>
</g>
<!-- Node1&#45;&gt;Node18 -->
<g id="edge17" class="edge"><title>Node1&#45;&gt;Node18</title>
<path fill="none" stroke="midnightblue" d="M2599.15,-94.2604C2650.23,-83.6564 2718.3,-68.9262 2778,-54 2786.05,-51.9872 2794.47,-49.7688 2802.8,-47.5019"/>
<polygon fill="midnightblue" stroke="midnightblue" points="2598.25,-90.872 2589.17,-96.3251 2599.67,-97.7269 2598.25,-90.872"/>
</g>
<!-- Node19 -->
<g id="node19" class="node"><title>Node19</title>
<g id="a_node19"><a xlink:href="_jacobian_8cpp.html" target="_top" xlink:title="/home/travis/build\l/robotology/wb&#45;toolbox\l/toolbox/src/Jacobian.cpp">
<polygon fill="none" stroke="black" points="2971,-6.5 2971,-47.5 3099,-47.5 3099,-6.5 2971,-6.5"/>
<text text-anchor="start" x="2979" y="-35.5" font-family="Helvetica,sans-Serif" font-size="10.00">/home/travis/build</text>
<text text-anchor="start" x="2979" y="-24.5" font-family="Helvetica,sans-Serif" font-size="10.00">/robotology/wb&#45;toolbox</text>
<text text-anchor="middle" x="3035" y="-13.5" font-family="Helvetica,sans-Serif" font-size="10.00">/toolbox/src/Jacobian.cpp</text>
</a>
</g>
</g>
<!-- Node1&#45;&gt;Node19 -->
<g id="edge18" class="edge"><title>Node1&#45;&gt;Node19</title>
<path fill="none" stroke="midnightblue" d="M2599.06,-105.197C2687.91,-98.5564 2836.95,-83.8387 2962,-54 2969.33,-52.2514 2976.94,-50.0237 2984.37,-47.6101"/>
<polygon fill="midnightblue" stroke="midnightblue" points="2598.77,-101.709 2589.06,-105.93 2599.28,-108.69 2598.77,-101.709"/>
</g>
<!-- Node20 -->
<g id="node20" class="node"><title>Node20</title>
<g id="a_node20"><a xlink:href="_mass_matrix_8cpp.html" target="_top" xlink:title="/home/travis/build\l/robotology/wb&#45;toolbox\l/toolbox/src/MassMatrix.cpp">
<polygon fill="none" stroke="black" points="3117,-6.5 3117,-47.5 3257,-47.5 3257,-6.5 3117,-6.5"/>
<text text-anchor="start" x="3125" y="-35.5" font-family="Helvetica,sans-Serif" font-size="10.00">/home/travis/build</text>
<text text-anchor="start" x="3125" y="-24.5" font-family="Helvetica,sans-Serif" font-size="10.00">/robotology/wb&#45;toolbox</text>
<text text-anchor="middle" x="3187" y="-13.5" font-family="Helvetica,sans-Serif" font-size="10.00">/toolbox/src/MassMatrix.cpp</text>
</a>
</g>
</g>
<!-- Node1&#45;&gt;Node20 -->
<g id="edge19" class="edge"><title>Node1&#45;&gt;Node20</title>
<path fill="none" stroke="midnightblue" d="M2599.39,-108.058C2712.74,-104.006 2928.49,-91.6105 3108,-54 3116.2,-52.2827 3124.73,-50.0089 3133.04,-47.519"/>
<polygon fill="midnightblue" stroke="midnightblue" points="2598.96,-104.571 2589.08,-108.414 2599.2,-111.567 2598.96,-104.571"/>
</g>
<!-- Node21 -->
<g id="node21" class="node"><title>Node21</title>
<g id="a_node21"><a xlink:href="_minimum_jerk_trajectory_generator_8cpp.html" target="_top" xlink:title="/home/travis/build\l/robotology/wb&#45;toolbox\l/toolbox/src/MinimumJerkTrajectory\lGenerator.cpp">
<polygon fill="none" stroke="black" points="3275.5,-1 3275.5,-53 3448.5,-53 3448.5,-1 3275.5,-1"/>
<text text-anchor="start" x="3283.5" y="-41" font-family="Helvetica,sans-Serif" font-size="10.00">/home/travis/build</text>
<text text-anchor="start" x="3283.5" y="-30" font-family="Helvetica,sans-Serif" font-size="10.00">/robotology/wb&#45;toolbox</text>
<text text-anchor="start" x="3283.5" y="-19" font-family="Helvetica,sans-Serif" font-size="10.00">/toolbox/src/MinimumJerkTrajectory</text>
<text text-anchor="middle" x="3362" y="-8" font-family="Helvetica,sans-Serif" font-size="10.00">Generator.cpp</text>
</a>
</g>
</g>
<!-- Node1&#45;&gt;Node21 -->
<g id="edge20" class="edge"><title>Node1&#45;&gt;Node21</title>
<path fill="none" stroke="midnightblue" d="M2599.41,-108.976C2735.85,-106.112 3025.38,-95.2446 3266,-54 3269.06,-53.4749 3272.17,-52.8951 3275.3,-52.2709"/>
<polygon fill="midnightblue" stroke="midnightblue" points="2598.99,-105.483 2589.07,-109.184 2599.13,-112.482 2598.99,-105.483"/>
</g>
<!-- Node22 -->
<g id="node22" class="node"><title>Node22</title>
<g id="a_node22"><a xlink:href="_model_partitioner_8cpp.html" target="_top" xlink:title="/home/travis/build\l/robotology/wb&#45;toolbox\l/toolbox/src/ModelPartitioner.cpp">
<polygon fill="none" stroke="black" points="3467,-6.5 3467,-47.5 3627,-47.5 3627,-6.5 3467,-6.5"/>
<text text-anchor="start" x="3475" y="-35.5" font-family="Helvetica,sans-Serif" font-size="10.00">/home/travis/build</text>
<text text-anchor="start" x="3475" y="-24.5" font-family="Helvetica,sans-Serif" font-size="10.00">/robotology/wb&#45;toolbox</text>
<text text-anchor="middle" x="3547" y="-13.5" font-family="Helvetica,sans-Serif" font-size="10.00">/toolbox/src/ModelPartitioner.cpp</text>
</a>
</g>
</g>
<!-- Node1&#45;&gt;Node22 -->
<g id="edge21" class="edge"><title>Node1&#45;&gt;Node22</title>
<path fill="none" stroke="midnightblue" d="M2599.23,-107.55C2793.28,-101.115 3292.89,-82.2545 3457,-54 3466.46,-52.3719 3476.33,-50.1132 3485.94,-47.6011"/>
<polygon fill="midnightblue" stroke="midnightblue" points="2598.99,-104.056 2589.11,-107.884 2599.22,-111.052 2598.99,-104.056"/>
</g>
<!-- Node23 -->
<g id="node23" class="node"><title>Node23</title>
<g id="a_node23"><a xlink:href="_real_time_synchronizer_8cpp.html" target="_top" xlink:title="/home/travis/build\l/robotology/wb&#45;toolbox\l/toolbox/src/RealTimeSynchronizer.cpp">
<polygon fill="none" stroke="black" points="3645,-6.5 3645,-47.5 3833,-47.5 3833,-6.5 3645,-6.5"/>
<text text-anchor="start" x="3653" y="-35.5" font-family="Helvetica,sans-Serif" font-size="10.00">/home/travis/build</text>
<text text-anchor="start" x="3653" y="-24.5" font-family="Helvetica,sans-Serif" font-size="10.00">/robotology/wb&#45;toolbox</text>
<text text-anchor="middle" x="3739" y="-13.5" font-family="Helvetica,sans-Serif" font-size="10.00">/toolbox/src/RealTimeSynchronizer.cpp</text>
</a>
</g>
</g>
<!-- Node1&#45;&gt;Node23 -->
<g id="edge22" class="edge"><title>Node1&#45;&gt;Node23</title>
<path fill="none" stroke="midnightblue" d="M2599.52,-108.07C2818.95,-102.355 3435.64,-84.0197 3636,-54 3646.94,-52.3603 3658.42,-50.0611 3669.57,-47.5014"/>
<polygon fill="midnightblue" stroke="midnightblue" points="2599.28,-104.575 2589.37,-108.332 2599.46,-111.572 2599.28,-104.575"/>
</g>
<!-- Node24 -->
<g id="node24" class="node"><title>Node24</title>
<g id="a_node24"><a xlink:href="_relative_transform_8cpp.html" target="_top" xlink:title="/home/travis/build\l/robotology/wb&#45;toolbox\l/toolbox/src/RelativeTransform.cpp">
<polygon fill="none" stroke="black" points="3851,-6.5 3851,-47.5 4021,-47.5 4021,-6.5 3851,-6.5"/>
<text text-anchor="start" x="3859" y="-35.5" font-family="Helvetica,sans-Serif" font-size="10.00">/home/travis/build</text>
<text text-anchor="start" x="3859" y="-24.5" font-family="Helvetica,sans-Serif" font-size="10.00">/robotology/wb&#45;toolbox</text>
<text text-anchor="middle" x="3936" y="-13.5" font-family="Helvetica,sans-Serif" font-size="10.00">/toolbox/src/RelativeTransform.cpp</text>
</a>
</g>
</g>
<!-- Node1&#45;&gt;Node24 -->
<g id="edge23" class="edge"><title>Node1&#45;&gt;Node24</title>
<path fill="none" stroke="midnightblue" d="M2599.63,-109.011C2845.92,-105.544 3600.43,-92.0199 3842,-54 3852.12,-52.4073 3862.71,-50.1153 3872.97,-47.5435"/>
<polygon fill="midnightblue" stroke="midnightblue" points="2599.28,-105.515 2589.33,-109.154 2599.38,-112.515 2599.28,-105.515"/>
</g>
<!-- Node25 -->
<g id="node25" class="node"><title>Node25</title>
<g id="a_node25"><a xlink:href="_set_low_level_p_i_d_8cpp.html" target="_top" xlink:title="/home/travis/build\l/robotology/wb&#45;toolbox\l/toolbox/src/SetLowLevelPID.cpp">
<polygon fill="none" stroke="black" points="4039.5,-6.5 4039.5,-47.5 4202.5,-47.5 4202.5,-6.5 4039.5,-6.5"/>
<text text-anchor="start" x="4047.5" y="-35.5" font-family="Helvetica,sans-Serif" font-size="10.00">/home/travis/build</text>
<text text-anchor="start" x="4047.5" y="-24.5" font-family="Helvetica,sans-Serif" font-size="10.00">/robotology/wb&#45;toolbox</text>
<text text-anchor="middle" x="4121" y="-13.5" font-family="Helvetica,sans-Serif" font-size="10.00">/toolbox/src/SetLowLevelPID.cpp</text>
</a>
</g>
</g>
<!-- Node1&#45;&gt;Node25 -->
<g id="edge24" class="edge"><title>Node1&#45;&gt;Node25</title>
<path fill="none" stroke="midnightblue" d="M2599.17,-109.585C2867.55,-107.771 3750.26,-98.484 4030,-54 4039.9,-52.426 4050.25,-50.1259 4060.27,-47.535"/>
<polygon fill="midnightblue" stroke="midnightblue" points="2599.1,-106.085 2589.12,-109.651 2599.15,-113.085 2599.1,-106.085"/>
</g>
<!-- Node26 -->
<g id="node26" class="node"><title>Node26</title>
<g id="a_node26"><a xlink:href="_set_references_8cpp.html" target="_top" xlink:title="/home/travis/build\l/robotology/wb&#45;toolbox\l/toolbox/src/SetReferences.cpp">
<polygon fill="none" stroke="black" points="4220.5,-6.5 4220.5,-47.5 4375.5,-47.5 4375.5,-6.5 4220.5,-6.5"/>
<text text-anchor="start" x="4228.5" y="-35.5" font-family="Helvetica,sans-Serif" font-size="10.00">/home/travis/build</text>
<text text-anchor="start" x="4228.5" y="-24.5" font-family="Helvetica,sans-Serif" font-size="10.00">/robotology/wb&#45;toolbox</text>
<text text-anchor="middle" x="4298" y="-13.5" font-family="Helvetica,sans-Serif" font-size="10.00">/toolbox/src/SetReferences.cpp</text>
</a>
</g>
</g>
<!-- Node1&#45;&gt;Node26 -->
<g id="edge25" class="edge"><title>Node1&#45;&gt;Node26</title>
<path fill="none" stroke="midnightblue" d="M2599.57,-110.072C2888.94,-109.921 3894.76,-105.608 4211,-54 4220.49,-52.4512 4230.4,-50.1643 4239.98,-47.579"/>
<polygon fill="midnightblue" stroke="midnightblue" points="2599.18,-106.572 2589.18,-110.076 2599.18,-113.572 2599.18,-106.572"/>
</g>
<!-- Node27 -->
<g id="node27" class="node"><title>Node27</title>
<g id="a_node27"><a xlink:href="_simulator_synchronizer_8cpp.html" target="_top" xlink:title="/home/travis/build\l/robotology/wb&#45;toolbox\l/toolbox/src/SimulatorSynchronizer.cpp">
<polygon fill="none" stroke="black" points="4394,-6.5 4394,-47.5 4582,-47.5 4582,-6.5 4394,-6.5"/>
<text text-anchor="start" x="4402" y="-35.5" font-family="Helvetica,sans-Serif" font-size="10.00">/home/travis/build</text>
<text text-anchor="start" x="4402" y="-24.5" font-family="Helvetica,sans-Serif" font-size="10.00">/robotology/wb&#45;toolbox</text>
<text text-anchor="middle" x="4488" y="-13.5" font-family="Helvetica,sans-Serif" font-size="10.00">/toolbox/src/SimulatorSynchronizer.cpp</text>
</a>
</g>
</g>
<!-- Node1&#45;&gt;Node27 -->
<g id="edge26" class="edge"><title>Node1&#45;&gt;Node27</title>
<path fill="none" stroke="midnightblue" d="M2599.2,-109.887C2906.43,-109.095 4031.02,-102.848 4384,-54 4395.34,-52.431 4407.23,-50.1153 4418.76,-47.5023"/>
<polygon fill="midnightblue" stroke="midnightblue" points="2599.04,-106.387 2589.05,-109.912 2599.06,-113.387 2599.04,-106.387"/>
</g>
<!-- Node28 -->
<g id="node28" class="node"><title>Node28</title>
<g id="a_node28"><a xlink:href="_yarp_clock_8cpp.html" target="_top" xlink:title="/home/travis/build\l/robotology/wb&#45;toolbox\l/toolbox/src/YarpClock.cpp">
<polygon fill="none" stroke="black" points="4600.5,-6.5 4600.5,-47.5 4735.5,-47.5 4735.5,-6.5 4600.5,-6.5"/>
<text text-anchor="start" x="4608.5" y="-35.5" font-family="Helvetica,sans-Serif" font-size="10.00">/home/travis/build</text>
<text text-anchor="start" x="4608.5" y="-24.5" font-family="Helvetica,sans-Serif" font-size="10.00">/robotology/wb&#45;toolbox</text>
<text text-anchor="middle" x="4668" y="-13.5" font-family="Helvetica,sans-Serif" font-size="10.00">/toolbox/src/YarpClock.cpp</text>
</a>
</g>
</g>
<!-- Node1&#45;&gt;Node28 -->
<g id="edge27" class="edge"><title>Node1&#45;&gt;Node28</title>
<path fill="none" stroke="midnightblue" d="M2599.29,-109.263C2952.91,-105.747 4392.54,-89.3639 4591,-54 4599.61,-52.4653 4608.57,-50.149 4617.2,-47.5196"/>
<polygon fill="midnightblue" stroke="midnightblue" points="2599.11,-105.764 2589.14,-109.363 2599.18,-112.764 2599.11,-105.764"/>
</g>
<!-- Node29 -->
<g id="node29" class="node"><title>Node29</title>
<g id="a_node29"><a xlink:href="_yarp_read_8cpp.html" target="_top" xlink:title="/home/travis/build\l/robotology/wb&#45;toolbox\l/toolbox/src/YarpRead.cpp">
<polygon fill="none" stroke="black" points="4753.5,-6.5 4753.5,-47.5 4886.5,-47.5 4886.5,-6.5 4753.5,-6.5"/>
<text text-anchor="start" x="4761.5" y="-35.5" font-family="Helvetica,sans-Serif" font-size="10.00">/home/travis/build</text>
<text text-anchor="start" x="4761.5" y="-24.5" font-family="Helvetica,sans-Serif" font-size="10.00">/robotology/wb&#45;toolbox</text>
<text text-anchor="middle" x="4820" y="-13.5" font-family="Helvetica,sans-Serif" font-size="10.00">/toolbox/src/YarpRead.cpp</text>
</a>
</g>
</g>
<!-- Node1&#45;&gt;Node29 -->
<g id="edge28" class="edge"><title>Node1&#45;&gt;Node29</title>
<path fill="none" stroke="midnightblue" d="M2599.26,-109.438C2968.77,-106.597 4529.82,-92.4002 4744,-54 4752.51,-52.4742 4761.36,-50.1624 4769.88,-47.5349"/>
<polygon fill="midnightblue" stroke="midnightblue" points="2599.17,-105.939 2589.2,-109.515 2599.22,-112.939 2599.17,-105.939"/>
</g>
<!-- Node30 -->
<g id="node30" class="node"><title>Node30</title>
<g id="a_node30"><a xlink:href="_yarp_write_8cpp.html" target="_top" xlink:title="/home/travis/build\l/robotology/wb&#45;toolbox\l/toolbox/src/YarpWrite.cpp">
<polygon fill="none" stroke="black" points="4904.5,-6.5 4904.5,-47.5 5037.5,-47.5 5037.5,-6.5 4904.5,-6.5"/>
<text text-anchor="start" x="4912.5" y="-35.5" font-family="Helvetica,sans-Serif" font-size="10.00">/home/travis/build</text>
<text text-anchor="start" x="4912.5" y="-24.5" font-family="Helvetica,sans-Serif" font-size="10.00">/robotology/wb&#45;toolbox</text>
<text text-anchor="middle" x="4971" y="-13.5" font-family="Helvetica,sans-Serif" font-size="10.00">/toolbox/src/YarpWrite.cpp</text>
</a>
</g>
</g>
<!-- Node1&#45;&gt;Node30 -->
<g id="edge29" class="edge"><title>Node1&#45;&gt;Node30</title>
<path fill="none" stroke="midnightblue" d="M2599.48,-109.572C2984.59,-107.283 4665.25,-95.0021 4895,-54 4903.51,-52.481 4912.36,-50.1727 4920.88,-47.5466"/>
<polygon fill="midnightblue" stroke="midnightblue" points="2599.25,-106.074 2589.27,-109.633 2599.29,-113.073 2599.25,-106.074"/>
</g>
</g>
</svg>
        <g id="navigator" transform="translate(0 0)" fill="#404254">
                <rect fill="#f2f5e9" fill-opacity="0.5" stroke="#606060" stroke-width=".5" x="0" y="0" width="60" height="60"/>
                <use id="zoomplus" xlink:href="#zoomPlus" x="17" y="9" onmousedown="handleZoom(evt,'in')"/>
                <use id="zoomminus" xlink:href="#zoomMin" x="42" y="9" onmousedown="handleZoom(evt,'out')"/>
                <use id="reset" xlink:href="#resetDef" x="30" y="36" onmousedown="handleReset()"/>
                <g id="arrowUp" xlink:href="#dirArrow" transform="translate(30 24)" onmousedown="handlePan(0,-1)">
                  <use xlink:href="#rim" fill="#404040">
                        <set attributeName="fill" to="#808080" begin="arrowUp.mouseover" end="arrowUp.mouseout"/>
                  </use>
                  <path fill="none" stroke="white" stroke-width="1.5" d="M0,-3.0v7 M-2.5,-0.5L0,-3.0L2.5,-0.5"/>
                </g>
                <g id="arrowRight" xlink:href="#dirArrow" transform="rotate(90) translate(36 -43)" onmousedown="handlePan(1,0)">
                  <use xlink:href="#rim" fill="#404040">
                        <set attributeName="fill" to="#808080" begin="arrowRight.mouseover" end="arrowRight.mouseout"/>
                  </use>
                  <path fill="none" stroke="white" stroke-width="1.5" d="M0,-3.0v7 M-2.5,-0.5L0,-3.0L2.5,-0.5"/>
                </g>
                <g id="arrowDown" xlink:href="#dirArrow" transform="rotate(180) translate(-30 -48)" onmousedown="handlePan(0,1)">
                  <use xlink:href="#rim" fill="#404040">
                        <set attributeName="fill" to="#808080" begin="arrowDown.mouseover" end="arrowDown.mouseout"/>
                  </use>
                  <path fill="none" stroke="white" stroke-width="1.5" d="M0,-3.0v7 M-2.5,-0.5L0,-3.0L2.5,-0.5"/>
                </g>
                <g id="arrowLeft" xlink:href="#dirArrow" transform="rotate(270) translate(-36 17)" onmousedown="handlePan(-1,0)">
                  <use xlink:href="#rim" fill="#404040">
                        <set attributeName="fill" to="#808080" begin="arrowLeft.mouseover" end="arrowLeft.mouseout"/>
                  </use>
                  <path fill="none" stroke="white" stroke-width="1.5" d="M0,-3.0v7 M-2.5,-0.5L0,-3.0L2.5,-0.5"/>
                </g>
        </g>
        <svg viewBox="0 0 15 15" width="100%" height="30px" preserveAspectRatio="xMaxYMin meet">
         <g id="arrow_out" transform="scale(0.3 0.3)">
          <a xlink:href="_log_8h__dep__incl_org.svg" target="_base">
           <rect id="button" ry="5" rx="5" y="6" x="6" height="38" width="38"
                fill="#f2f5e9" fill-opacity="0.5" stroke="#606060" stroke-width="1.0"/>
           <path id="arrow"
             d="M 11.500037,31.436501 C 11.940474,20.09759 22.043105,11.32322 32.158766,21.979434 L 37.068811,17.246167 C 37.068811,17.246167 37.088388,32 37.088388,32 L 22.160133,31.978069 C 22.160133,31.978069 26.997745,27.140456 26.997745,27.140456 C 18.528582,18.264221 13.291696,25.230495 11.500037,31.436501 z"
             style="fill:#404040;"/>
          </a>
         </g>
        </svg>
</svg>
