<?xml version="1.0" encoding="UTF-8" standalone="no"?>
<!DOCTYPE svg PUBLIC "-//W3C//DTD SVG 1.1//EN"
 "http://www.w3.org/Graphics/SVG/1.1/DTD/svg11.dtd">
<!-- Generated by graphviz version 2.36.0 (20140111.2315)
 -->
<!-- Title: /home/travis/build/robotology/wb&#45;toolbox/toolbox/src/MassMatrix.cpp Pages: 1 -->
<svg width="1350pt" height="330pt"
 viewBox="0.00 0.00 1349.95 330.00" xmlns="http://www.w3.org/2000/svg" xmlns:xlink="http://www.w3.org/1999/xlink">
<g id="graph0" class="graph" transform="scale(1 1) rotate(0) translate(4 326)">
<title>/home/travis/build/robotology/wb&#45;toolbox/toolbox/src/MassMatrix.cpp</title>
<!-- Node1 -->
<g id="node1" class="node"><title>Node1</title>
<polygon fill="#bfbfbf" stroke="black" points="560.948,-280.5 560.948,-321.5 700.948,-321.5 700.948,-280.5 560.948,-280.5"/>
<text text-anchor="start" x="568.948" y="-309.5" font-family="Helvetica,sans-Serif" font-size="10.00">/home/travis/build</text>
<text text-anchor="start" x="568.948" y="-298.5" font-family="Helvetica,sans-Serif" font-size="10.00">/robotology/wb&#45;toolbox</text>
<text text-anchor="middle" x="630.948" y="-287.5" font-family="Helvetica,sans-Serif" font-size="10.00">/toolbox/src/MassMatrix.cpp</text>
</g>
<!-- Node2 -->
<g id="node2" class="node"><title>Node2</title>
<g id="a_node2"><a xlink:href="_mass_matrix_8h.html" target="_top" xlink:title="MassMatrix.h">
<polygon fill="none" stroke="black" points="158.948,-224.5 158.948,-243.5 234.948,-243.5 234.948,-224.5 158.948,-224.5"/>
<text text-anchor="middle" x="196.948" y="-231.5" font-family="Helvetica,sans-Serif" font-size="10.00">MassMatrix.h</text>
</a>
</g>
</g>
<!-- Node1&#45;&gt;Node2 -->
<g id="edge1" class="edge"><title>Node1&#45;&gt;Node2</title>
<path fill="none" stroke="midnightblue" d="M560.736,-289.484C472.178,-276.221 322.219,-253.762 245.428,-242.261"/>
<polygon fill="midnightblue" stroke="midnightblue" points="245.5,-238.733 235.092,-240.713 244.463,-245.655 245.5,-238.733"/>
</g>
<!-- Node9 -->
<g id="node9" class="node"><title>Node9</title>
<g id="a_node9"><a xlink:href="_block_information_8h.html" target="_top" xlink:title="BlockInformation.h">
<polygon fill="none" stroke="black" points="393.948,-56.5 393.948,-75.5 491.948,-75.5 491.948,-56.5 393.948,-56.5"/>
<text text-anchor="middle" x="442.948" y="-63.5" font-family="Helvetica,sans-Serif" font-size="10.00">BlockInformation.h</text>
</a>
</g>
</g>
<!-- Node1&#45;&gt;Node9 -->
<g id="edge14" class="edge"><title>Node1&#45;&gt;Node9</title>
<path fill="none" stroke="midnightblue" d="M584.542,-280.372C547.786,-262.171 498.654,-231.341 473.948,-188 455.221,-155.147 447.623,-110.907 444.682,-86.0368"/>
<polygon fill="midnightblue" stroke="midnightblue" points="448.132,-85.3811 443.609,-75.8004 441.17,-86.1108 448.132,-85.3811"/>
</g>
<!-- Node11 -->
<g id="node11" class="node"><title>Node11</title>
<g id="a_node11"><a xlink:href="_configuration_8h.html" target="_top" xlink:title="Configuration.h">
<polygon fill="none" stroke="black" points="216.448,-56.5 216.448,-75.5 299.448,-75.5 299.448,-56.5 216.448,-56.5"/>
<text text-anchor="middle" x="257.948" y="-63.5" font-family="Helvetica,sans-Serif" font-size="10.00">Configuration.h</text>
</a>
</g>
</g>
<!-- Node1&#45;&gt;Node11 -->
<g id="edge19" class="edge"><title>Node1&#45;&gt;Node11</title>
<path fill="none" stroke="midnightblue" d="M576.93,-280.38C552.487,-270.676 523.613,-258.036 498.948,-244 409.603,-193.158 314.278,-115.064 275.684,-82.2997"/>
<polygon fill="midnightblue" stroke="midnightblue" points="277.805,-79.5084 267.928,-75.675 273.259,-84.8312 277.805,-79.5084"/>
</g>
<!-- Node12 -->
<g id="node12" class="node"><title>Node12</title>
<g id="a_node12"><a xlink:href="_log_8h.html" target="_top" xlink:title="Log.h">
<polygon fill="none" stroke="black" points="548.448,-56.5 548.448,-75.5 589.448,-75.5 589.448,-56.5 548.448,-56.5"/>
<text text-anchor="middle" x="568.948" y="-63.5" font-family="Helvetica,sans-Serif" font-size="10.00">Log.h</text>
</a>
</g>
</g>
<!-- Node1&#45;&gt;Node12 -->
<g id="edge23" class="edge"><title>Node1&#45;&gt;Node12</title>
<path fill="none" stroke="midnightblue" d="M625.662,-280.306C622.784,-269.575 619.165,-256.059 615.948,-244 600.558,-186.291 582.447,-117.969 573.895,-85.6827"/>
<polygon fill="midnightblue" stroke="midnightblue" points="577.233,-84.6128 571.289,-75.842 570.466,-86.4048 577.233,-84.6128"/>
</g>
<!-- Node14 -->
<g id="node14" class="node"><title>Node14</title>
<g id="a_node14"><a xlink:href="_robot_interface_8h.html" target="_top" xlink:title="RobotInterface.h">
<polygon fill="none" stroke="black" points="607.448,-56.5 607.448,-75.5 696.448,-75.5 696.448,-56.5 607.448,-56.5"/>
<text text-anchor="middle" x="651.948" y="-63.5" font-family="Helvetica,sans-Serif" font-size="10.00">RobotInterface.h</text>
</a>
</g>
</g>
<!-- Node1&#45;&gt;Node14 -->
<g id="edge27" class="edge"><title>Node1&#45;&gt;Node14</title>
<path fill="none" stroke="midnightblue" d="M626.14,-280.441C623.756,-269.749 621.138,-256.228 619.948,-244 614.268,-185.615 634.155,-117.608 645.145,-85.5388"/>
<polygon fill="midnightblue" stroke="midnightblue" points="648.566,-86.3635 648.605,-75.7688 641.968,-84.0267 648.566,-86.3635"/>
</g>
<!-- Node16 -->
<g id="node16" class="node"><title>Node16</title>
<g id="a_node16"><a xlink:href="_signal_8h.html" target="_top" xlink:title="Signal.h">
<polygon fill="none" stroke="black" points="482.948,-168.5 482.948,-187.5 534.948,-187.5 534.948,-168.5 482.948,-168.5"/>
<text text-anchor="middle" x="508.948" y="-175.5" font-family="Helvetica,sans-Serif" font-size="10.00">Signal.h</text>
</a>
</g>
</g>
<!-- Node1&#45;&gt;Node16 -->
<g id="edge32" class="edge"><title>Node1&#45;&gt;Node16</title>
<path fill="none" stroke="midnightblue" d="M595.359,-280.298C579.944,-270.661 562.392,-258.098 548.948,-244 535.557,-229.956 524.396,-210.708 517.297,-196.806"/>
<polygon fill="midnightblue" stroke="midnightblue" points="520.416,-195.217 512.871,-187.779 514.131,-198.299 520.416,-195.217"/>
</g>
<!-- Node17 -->
<g id="node17" class="node"><title>Node17</title>
<polygon fill="none" stroke="#bfbfbf" points="629.448,-224.5 629.448,-243.5 694.448,-243.5 694.448,-224.5 629.448,-224.5"/>
<text text-anchor="middle" x="661.948" y="-231.5" font-family="Helvetica,sans-Serif" font-size="10.00">Eigen/Core</text>
</g>
<!-- Node1&#45;&gt;Node17 -->
<g id="edge34" class="edge"><title>Node1&#45;&gt;Node17</title>
<path fill="none" stroke="midnightblue" d="M640.249,-280.498C644.454,-271.682 649.387,-261.339 653.486,-252.743"/>
<polygon fill="midnightblue" stroke="midnightblue" points="656.676,-254.185 657.822,-243.652 650.358,-251.172 656.676,-254.185"/>
</g>
<!-- Node18 -->
<g id="node18" class="node"><title>Node18</title>
<polygon fill="none" stroke="#bfbfbf" points="711.948,-224.5 711.948,-243.5 861.948,-243.5 861.948,-224.5 711.948,-224.5"/>
<text text-anchor="middle" x="786.948" y="-231.5" font-family="Helvetica,sans-Serif" font-size="10.00">iDynTree/Core/EigenHelpers.h</text>
</g>
<!-- Node1&#45;&gt;Node18 -->
<g id="edge35" class="edge"><title>Node1&#45;&gt;Node18</title>
<path fill="none" stroke="midnightblue" d="M677.754,-280.498C703.396,-269.813 734.424,-256.885 756.841,-247.545"/>
<polygon fill="midnightblue" stroke="midnightblue" points="758.298,-250.729 766.182,-243.652 755.605,-244.268 758.298,-250.729"/>
</g>
<!-- Node19 -->
<g id="node19" class="node"><title>Node19</title>
<polygon fill="none" stroke="#bfbfbf" points="879.948,-224.5 879.948,-243.5 1035.95,-243.5 1035.95,-224.5 879.948,-224.5"/>
<text text-anchor="middle" x="957.948" y="-231.5" font-family="Helvetica,sans-Serif" font-size="10.00">iDynTree/Core/MatrixDynSize.h</text>
</g>
<!-- Node1&#45;&gt;Node19 -->
<g id="edge36" class="edge"><title>Node1&#45;&gt;Node19</title>
<path fill="none" stroke="midnightblue" d="M701.098,-286.056C762.225,-273.905 849.531,-256.551 904.967,-245.531"/>
<polygon fill="midnightblue" stroke="midnightblue" points="905.808,-248.933 914.934,-243.55 904.443,-242.067 905.808,-248.933"/>
</g>
<!-- Node20 -->
<g id="node20" class="node"><title>Node20</title>
<polygon fill="none" stroke="#bfbfbf" points="1054.45,-224.5 1054.45,-243.5 1215.45,-243.5 1215.45,-224.5 1054.45,-224.5"/>
<text text-anchor="middle" x="1134.95" y="-231.5" font-family="Helvetica,sans-Serif" font-size="10.00">iDynTree/KinDynComputations.h</text>
</g>
<!-- Node1&#45;&gt;Node20 -->
<g id="edge37" class="edge"><title>Node1&#45;&gt;Node20</title>
<path fill="none" stroke="midnightblue" d="M701.027,-290.962C795.072,-278.833 961.496,-257.37 1058.63,-244.843"/>
<polygon fill="midnightblue" stroke="midnightblue" points="1059.2,-248.298 1068.67,-243.548 1058.31,-241.356 1059.2,-248.298"/>
</g>
<!-- Node21 -->
<g id="node21" class="node"><title>Node21</title>
<polygon fill="none" stroke="#bfbfbf" points="1233.95,-224.5 1233.95,-243.5 1285.95,-243.5 1285.95,-224.5 1233.95,-224.5"/>
<text text-anchor="middle" x="1259.95" y="-231.5" font-family="Helvetica,sans-Serif" font-size="10.00">ostream</text>
</g>
<!-- Node1&#45;&gt;Node21 -->
<g id="edge38" class="edge"><title>Node1&#45;&gt;Node21</title>
<path fill="none" stroke="midnightblue" d="M701.234,-296.799C810.814,-291.051 1029.04,-276.572 1223.57,-243.776"/>
<polygon fill="midnightblue" stroke="midnightblue" points="1224.43,-247.18 1233.7,-242.048 1223.25,-240.28 1224.43,-247.18"/>
</g>
<!-- Node22 -->
<g id="node22" class="node"><title>Node22</title>
<polygon fill="none" stroke="#bfbfbf" points="1303.95,-224.5 1303.95,-243.5 1341.95,-243.5 1341.95,-224.5 1303.95,-224.5"/>
<text text-anchor="middle" x="1322.95" y="-231.5" font-family="Helvetica,sans-Serif" font-size="10.00">tuple</text>
</g>
<!-- Node1&#45;&gt;Node22 -->
<g id="edge39" class="edge"><title>Node1&#45;&gt;Node22</title>
<path fill="none" stroke="midnightblue" d="M700.981,-299.291C821.022,-296.944 1073.61,-287.053 1293.7,-243.798"/>
<polygon fill="midnightblue" stroke="midnightblue" points="1294.7,-247.168 1303.82,-241.78 1293.33,-240.303 1294.7,-247.168"/>
</g>
<!-- Node3 -->
<g id="node3" class="node"><title>Node3</title>
<g id="a_node3"><a xlink:href="_w_b_block_8h.html" target="_top" xlink:title="WBBlock.h">
<polygon fill="none" stroke="black" points="93.9484,-168.5 93.9484,-187.5 159.948,-187.5 159.948,-168.5 93.9484,-168.5"/>
<text text-anchor="middle" x="126.948" y="-175.5" font-family="Helvetica,sans-Serif" font-size="10.00">WBBlock.h</text>
</a>
</g>
</g>
<!-- Node2&#45;&gt;Node3 -->
<g id="edge2" class="edge"><title>Node2&#45;&gt;Node3</title>
<path fill="none" stroke="midnightblue" d="M185.702,-224.324C175.151,-216.185 159.148,-203.839 146.506,-194.087"/>
<polygon fill="midnightblue" stroke="midnightblue" points="148.455,-191.171 138.4,-187.834 144.18,-196.713 148.455,-191.171"/>
</g>
<!-- Node6 -->
<g id="node6" class="node"><title>Node6</title>
<polygon fill="none" stroke="#bfbfbf" points="360.948,-0.5 360.948,-19.5 412.948,-19.5 412.948,-0.5 360.948,-0.5"/>
<text text-anchor="middle" x="386.948" y="-7.5" font-family="Helvetica,sans-Serif" font-size="10.00">memory</text>
</g>
<!-- Node2&#45;&gt;Node6 -->
<g id="edge12" class="edge"><title>Node2&#45;&gt;Node6</title>
<path fill="none" stroke="midnightblue" d="M204.875,-224.272C226.241,-200.683 286.675,-133.556 334.948,-76 348.53,-59.8064 363.565,-40.9011 373.96,-27.6676"/>
<polygon fill="midnightblue" stroke="midnightblue" points="376.933,-29.5472 380.34,-19.5151 371.421,-25.233 376.933,-29.5472"/>
</g>
<!-- Node7 -->
<g id="node7" class="node"><title>Node7</title>
<polygon fill="none" stroke="#bfbfbf" points="202.448,-0.5 202.448,-19.5 243.448,-19.5 243.448,-0.5 202.448,-0.5"/>
<text text-anchor="middle" x="222.948" y="-7.5" font-family="Helvetica,sans-Serif" font-size="10.00">string</text>
</g>
<!-- Node2&#45;&gt;Node7 -->
<g id="edge13" class="edge"><title>Node2&#45;&gt;Node7</title>
<path fill="none" stroke="midnightblue" d="M196.577,-224.416C195.641,-198.623 194.108,-119.66 206.948,-56 208.772,-46.9577 212.033,-37.2761 215.136,-29.2185"/>
<polygon fill="midnightblue" stroke="midnightblue" points="218.461,-30.3334 218.992,-19.7519 211.979,-27.6927 218.461,-30.3334"/>
</g>
<!-- Node4 -->
<g id="node4" class="node"><title>Node4</title>
<g id="a_node4"><a xlink:href="_block_8h.html" target="_top" xlink:title="Block.h">
<polygon fill="none" stroke="black" points="25.9484,-112.5 25.9484,-131.5 75.9484,-131.5 75.9484,-112.5 25.9484,-112.5"/>
<text text-anchor="middle" x="50.9484" y="-119.5" font-family="Helvetica,sans-Serif" font-size="10.00">Block.h</text>
</a>
</g>
</g>
<!-- Node3&#45;&gt;Node4 -->
<g id="edge3" class="edge"><title>Node3&#45;&gt;Node4</title>
<path fill="none" stroke="midnightblue" d="M114.738,-168.324C103.173,-160.107 85.573,-147.602 71.7877,-137.807"/>
<polygon fill="midnightblue" stroke="midnightblue" points="73.5604,-134.773 63.3813,-131.834 69.5059,-140.479 73.5604,-134.773"/>
</g>
<!-- Node3&#45;&gt;Node6 -->
<g id="edge10" class="edge"><title>Node3&#45;&gt;Node6</title>
<path fill="none" stroke="midnightblue" d="M144.788,-168.393C177.981,-152.088 251.024,-114.838 307.948,-76 330.478,-60.6285 354.405,-40.3097 369.946,-26.51"/>
<polygon fill="midnightblue" stroke="midnightblue" points="372.553,-28.8727 377.655,-19.587 367.876,-23.6645 372.553,-28.8727"/>
</g>
<!-- Node3&#45;&gt;Node7 -->
<g id="edge11" class="edge"><title>Node3&#45;&gt;Node7</title>
<path fill="none" stroke="midnightblue" d="M128.84,-168.446C133.711,-147.727 148.147,-93.778 173.948,-56 181.707,-44.6396 192.854,-34.109 202.556,-26.0954"/>
<polygon fill="midnightblue" stroke="midnightblue" points="204.915,-28.6915 210.588,-19.7434 200.573,-23.2008 204.915,-28.6915"/>
</g>
<!-- Node5 -->
<g id="node5" class="node"><title>Node5</title>
<g id="a_node5"><a xlink:href="_parameters_8h.html" target="_top" xlink:title="Parameters.h">
<polygon fill="none" stroke="black" points="46.4484,-56.5 46.4484,-75.5 121.448,-75.5 121.448,-56.5 46.4484,-56.5"/>
<text text-anchor="middle" x="83.9484" y="-63.5" font-family="Helvetica,sans-Serif" font-size="10.00">Parameters.h</text>
</a>
</g>
</g>
<!-- Node4&#45;&gt;Node5 -->
<g id="edge4" class="edge"><title>Node4&#45;&gt;Node5</title>
<path fill="none" stroke="midnightblue" d="M56.3977,-112.083C60.9629,-104.613 67.6168,-93.7244 73.2418,-84.5199"/>
<polygon fill="midnightblue" stroke="midnightblue" points="76.3725,-86.109 78.6005,-75.7511 70.3995,-82.4588 76.3725,-86.109"/>
</g>
<!-- Node4&#45;&gt;Node7 -->
<g id="edge8" class="edge"><title>Node4&#45;&gt;Node7</title>
<path fill="none" stroke="midnightblue" d="M45.1321,-112.428C36.7924,-98.9682 23.8135,-72.6917 36.9484,-56 46.5869,-43.7515 142.035,-25.2806 192.315,-16.2908"/>
<polygon fill="midnightblue" stroke="midnightblue" points="193.074,-19.711 202.311,-14.5221 191.854,-12.818 193.074,-19.711"/>
</g>
<!-- Node8 -->
<g id="node8" class="node"><title>Node8</title>
<polygon fill="none" stroke="#bfbfbf" points="100.948,-0.5 100.948,-19.5 144.948,-19.5 144.948,-0.5 100.948,-0.5"/>
<text text-anchor="middle" x="122.948" y="-7.5" font-family="Helvetica,sans-Serif" font-size="10.00">vector</text>
</g>
<!-- Node4&#45;&gt;Node8 -->
<g id="edge9" class="edge"><title>Node4&#45;&gt;Node8</title>
<path fill="none" stroke="midnightblue" d="M36.9042,-112.462C18.4029,-100.116 -10.2216,-76.5078 3.94841,-56 23.3208,-27.9631 62.5672,-17.3758 90.6951,-13.3886"/>
<polygon fill="midnightblue" stroke="midnightblue" points="91.3579,-16.8341 100.866,-12.161 90.5191,-9.88452 91.3579,-16.8341"/>
</g>
<!-- Node5&#45;&gt;Node6 -->
<g id="edge5" class="edge"><title>Node5&#45;&gt;Node6</title>
<path fill="none" stroke="midnightblue" d="M121.711,-58.27C180.404,-47.8099 292.769,-27.7845 350.591,-17.4795"/>
<polygon fill="midnightblue" stroke="midnightblue" points="351.497,-20.8732 360.728,-15.6729 350.269,-13.9818 351.497,-20.8732"/>
</g>
<!-- Node5&#45;&gt;Node7 -->
<g id="edge6" class="edge"><title>Node5&#45;&gt;Node7</title>
<path fill="none" stroke="midnightblue" d="M105.973,-56.4435C129.46,-47.3194 166.801,-32.8125 192.96,-22.6501"/>
<polygon fill="midnightblue" stroke="midnightblue" points="194.332,-25.8721 202.386,-18.9883 191.797,-19.3471 194.332,-25.8721"/>
</g>
<!-- Node5&#45;&gt;Node8 -->
<g id="edge7" class="edge"><title>Node5&#45;&gt;Node8</title>
<path fill="none" stroke="midnightblue" d="M90.3885,-56.083C95.8973,-48.4554 103.98,-37.2645 110.713,-27.9408"/>
<polygon fill="midnightblue" stroke="midnightblue" points="113.611,-29.9071 116.628,-19.7511 107.936,-25.8087 113.611,-29.9071"/>
</g>
<!-- Node9&#45;&gt;Node6 -->
<g id="edge15" class="edge"><title>Node9&#45;&gt;Node6</title>
<path fill="none" stroke="midnightblue" d="M433.951,-56.324C425.754,-48.4196 413.443,-36.5482 403.476,-26.9377"/>
<polygon fill="midnightblue" stroke="midnightblue" points="405.737,-24.2558 396.109,-19.8339 400.878,-29.2947 405.737,-24.2558"/>
</g>
<!-- Node9&#45;&gt;Node7 -->
<g id="edge16" class="edge"><title>Node9&#45;&gt;Node7</title>
<path fill="none" stroke="midnightblue" d="M408.089,-56.4435C365.512,-45.9928 294.165,-28.4805 253.598,-18.5231"/>
<polygon fill="midnightblue" stroke="midnightblue" points="254.289,-15.0889 243.743,-16.1041 252.62,-21.8871 254.289,-15.0889"/>
</g>
<!-- Node9&#45;&gt;Node8 -->
<g id="edge18" class="edge"><title>Node9&#45;&gt;Node8</title>
<path fill="none" stroke="midnightblue" d="M393.65,-56.6808C327.439,-45.5078 211.622,-25.9636 155.403,-16.4767"/>
<polygon fill="midnightblue" stroke="midnightblue" points="155.748,-12.9855 145.305,-14.7727 154.583,-19.888 155.748,-12.9855"/>
</g>
<!-- Node10 -->
<g id="node10" class="node"><title>Node10</title>
<polygon fill="none" stroke="#bfbfbf" points="452.948,-0.5 452.948,-19.5 492.948,-19.5 492.948,-0.5 452.948,-0.5"/>
<text text-anchor="middle" x="472.948" y="-7.5" font-family="Helvetica,sans-Serif" font-size="10.00">utility</text>
</g>
<!-- Node9&#45;&gt;Node10 -->
<g id="edge17" class="edge"><title>Node9&#45;&gt;Node10</title>
<path fill="none" stroke="midnightblue" d="M447.902,-56.083C452.052,-48.6127 458.102,-37.7244 463.215,-28.5199"/>
<polygon fill="midnightblue" stroke="midnightblue" points="466.29,-30.1924 468.087,-19.7511 460.171,-26.7929 466.29,-30.1924"/>
</g>
<!-- Node11&#45;&gt;Node6 -->
<g id="edge20" class="edge"><title>Node11&#45;&gt;Node6</title>
<path fill="none" stroke="midnightblue" d="M278.389,-56.4435C299.619,-47.5566 333.047,-33.5632 357.203,-23.4514"/>
<polygon fill="midnightblue" stroke="midnightblue" points="358.731,-26.6064 366.604,-19.5164 356.028,-20.1493 358.731,-26.6064"/>
</g>
<!-- Node11&#45;&gt;Node7 -->
<g id="edge21" class="edge"><title>Node11&#45;&gt;Node7</title>
<path fill="none" stroke="midnightblue" d="M252.169,-56.083C247.276,-48.5341 240.121,-37.4948 234.116,-28.2298"/>
<polygon fill="midnightblue" stroke="midnightblue" points="236.996,-26.239 228.62,-19.7511 231.122,-30.0463 236.996,-26.239"/>
</g>
<!-- Node11&#45;&gt;Node8 -->
<g id="edge22" class="edge"><title>Node11&#45;&gt;Node8</title>
<path fill="none" stroke="midnightblue" d="M236.557,-56.4435C214.241,-47.5171 179.045,-33.4387 153.74,-23.3168"/>
<polygon fill="midnightblue" stroke="midnightblue" points="154.824,-19.9807 144.239,-19.5164 152.224,-26.4801 154.824,-19.9807"/>
</g>
<!-- Node12&#45;&gt;Node6 -->
<g id="edge24" class="edge"><title>Node12&#45;&gt;Node6</title>
<path fill="none" stroke="midnightblue" d="M548.424,-58.9105C518.003,-49.8845 460.508,-32.8252 422.972,-21.6883"/>
<polygon fill="midnightblue" stroke="midnightblue" points="423.536,-18.2049 412.954,-18.7158 421.545,-24.9158 423.536,-18.2049"/>
</g>
<!-- Node12&#45;&gt;Node7 -->
<g id="edge26" class="edge"><title>Node12&#45;&gt;Node7</title>
<path fill="none" stroke="midnightblue" d="M548.341,-61.7838C489.945,-52.6699 323.12,-26.6337 253.768,-15.8099"/>
<polygon fill="midnightblue" stroke="midnightblue" points="254.306,-12.3516 243.886,-14.2677 253.226,-19.2679 254.306,-12.3516"/>
</g>
<!-- Node13 -->
<g id="node13" class="node"><title>Node13</title>
<polygon fill="none" stroke="#bfbfbf" points="540.948,-0.5 540.948,-19.5 592.948,-19.5 592.948,-0.5 540.948,-0.5"/>
<text text-anchor="middle" x="566.948" y="-7.5" font-family="Helvetica,sans-Serif" font-size="10.00">sstream</text>
</g>
<!-- Node12&#45;&gt;Node13 -->
<g id="edge25" class="edge"><title>Node12&#45;&gt;Node13</title>
<path fill="none" stroke="midnightblue" d="M568.618,-56.083C568.356,-49.0059 567.98,-38.8611 567.652,-29.9865"/>
<polygon fill="midnightblue" stroke="midnightblue" points="571.14,-29.6147 567.273,-19.7511 564.145,-29.8738 571.14,-29.6147"/>
</g>
<!-- Node14&#45;&gt;Node6 -->
<g id="edge28" class="edge"><title>Node14&#45;&gt;Node6</title>
<path fill="none" stroke="midnightblue" d="M609.958,-56.4435C558.427,-45.9428 471.909,-28.3128 423.168,-18.3807"/>
<polygon fill="midnightblue" stroke="midnightblue" points="423.576,-14.8918 413.078,-16.3245 422.178,-21.7508 423.576,-14.8918"/>
</g>
<!-- Node14&#45;&gt;Node7 -->
<g id="edge29" class="edge"><title>Node14&#45;&gt;Node7</title>
<path fill="none" stroke="midnightblue" d="M607.184,-57.3774C604.061,-56.8954 600.959,-56.4313 597.948,-56 470.629,-37.7606 318.259,-21.0528 253.975,-14.2377"/>
<polygon fill="midnightblue" stroke="midnightblue" points="254.037,-10.7249 243.725,-13.1559 253.302,-17.6862 254.037,-10.7249"/>
</g>
<!-- Node14&#45;&gt;Node10 -->
<g id="edge31" class="edge"><title>Node14&#45;&gt;Node10</title>
<path fill="none" stroke="midnightblue" d="M623.585,-56.4435C590.619,-46.4985 536.456,-30.1587 502.848,-20.02"/>
<polygon fill="midnightblue" stroke="midnightblue" points="503.709,-16.6239 493.124,-17.0865 501.687,-23.3256 503.709,-16.6239"/>
</g>
<!-- Node15 -->
<g id="node15" class="node"><title>Node15</title>
<polygon fill="none" stroke="#bfbfbf" points="611.448,-0.5 611.448,-19.5 694.448,-19.5 694.448,-0.5 611.448,-0.5"/>
<text text-anchor="middle" x="652.948" y="-7.5" font-family="Helvetica,sans-Serif" font-size="10.00">unordered_map</text>
</g>
<!-- Node14&#45;&gt;Node15 -->
<g id="edge30" class="edge"><title>Node14&#45;&gt;Node15</title>
<path fill="none" stroke="midnightblue" d="M652.114,-56.083C652.245,-49.0059 652.432,-38.8611 652.597,-29.9865"/>
<polygon fill="midnightblue" stroke="midnightblue" points="656.1,-29.8142 652.786,-19.7511 649.102,-29.6845 656.1,-29.8142"/>
</g>
<!-- Node16&#45;&gt;Node6 -->
<g id="edge33" class="edge"><title>Node16&#45;&gt;Node6</title>
<path fill="none" stroke="midnightblue" d="M511.132,-168.339C515.991,-146.911 525.371,-90.6461 499.948,-56 482.162,-31.7595 449.205,-20.563 423.455,-15.3994"/>
<polygon fill="midnightblue" stroke="midnightblue" points="423.739,-11.8951 413.28,-13.5903 422.513,-18.787 423.739,-11.8951"/>
</g>
</g>
</svg>
