<?xml version="1.0" encoding="UTF-8" standalone="no"?>
<!DOCTYPE svg PUBLIC "-//W3C//DTD SVG 1.1//EN"
 "http://www.w3.org/Graphics/SVG/1.1/DTD/svg11.dtd">
<!-- Generated by graphviz version 2.36.0 (20140111.2315)
 -->
<!-- Title: /home/travis/build/robotology/wb&#45;toolbox/toolbox/src/library/src/MassMatrix.cpp Pages: 1 -->
<!--zoomable 342 -->
<svg id="main" version="1.1" xmlns="http://www.w3.org/2000/svg" xmlns:xlink="http://www.w3.org/1999/xlink" xml:space="preserve" onload="init(evt)">
<style type="text/css"><![CDATA[
.edge:hover path { stroke: red; }
.edge:hover polygon { stroke: red; fill: red; }
]]></style>
<script type="text/javascript"><![CDATA[
var edges = document.getElementsByTagName('g');
if (edges && edges.length) {
  for (var i=0;i<edges.length;i++) {
    if (edges[i].id.substr(0,4)=='edge') {
      edges[i].setAttribute('class','edge');
    }
  }
}
]]></script>
        <defs>
                <circle id="rim" cx="0" cy="0" r="7"/>
                <circle id="rim2" cx="0" cy="0" r="3.5"/>
                <g id="zoomPlus">
                        <use xlink:href="#rim" fill="#404040">
                                <set attributeName="fill" to="#808080" begin="zoomplus.mouseover" end="zoomplus.mouseout"/>
                        </use>
                        <path d="M-4,0h8M0,-4v8" fill="none" stroke="white" stroke-width="1.5" pointer-events="none"/>
                </g>
                <g id="zoomMin">
                        <use xlink:href="#rim" fill="#404040">
                                <set attributeName="fill" to="#808080" begin="zoomminus.mouseover" end="zoomminus.mouseout"/>
                        </use>
                        <path d="M-4,0h8" fill="none" stroke="white" stroke-width="1.5" pointer-events="none"/>
                </g>
                <g id="dirArrow">
                        <path fill="none" stroke="white" stroke-width="1.5" d="M0,-3.0v7 M-2.5,-0.5L0,-3.0L2.5,-0.5"/>
                </g>
               <g id="resetDef">
                       <use xlink:href="#rim2" fill="#404040">
                               <set attributeName="fill" to="#808080" begin="reset.mouseover" end="reset.mouseout"/>
                       </use>
               </g>
        </defs>

<script type="text/javascript">
var viewWidth = 1407;
var viewHeight = 342;
var sectionId = 'dynsection-0';
</script>
<script xlink:href="svgpan.js"/>
<svg id="graph" class="graph">
<g id="viewport">
<title>/home/travis/build/robotology/wb&#45;toolbox/toolbox/src/library/src/MassMatrix.cpp</title>
<!-- Node1 -->
<g id="node1" class="node"><title>Node1</title>
<polygon fill="#bfbfbf" stroke="black" points="637.461,-281 637.461,-333 752.461,-333 752.461,-281 637.461,-281"/>
<text text-anchor="start" x="645.461" y="-321" font-family="Helvetica,sans-Serif" font-size="10.00">/home/travis/build</text>
<text text-anchor="start" x="645.461" y="-310" font-family="Helvetica,sans-Serif" font-size="10.00">/robotology/wb&#45;toolbox</text>
<text text-anchor="start" x="645.461" y="-299" font-family="Helvetica,sans-Serif" font-size="10.00">/toolbox/src/library/src</text>
<text text-anchor="middle" x="694.961" y="-288" font-family="Helvetica,sans-Serif" font-size="10.00">/MassMatrix.cpp</text>
</g>
<!-- Node2 -->
<g id="node2" class="node"><title>Node2</title>
<g id="a_node2"><a xlink:href="_mass_matrix_8h.html" target="_top" xlink:title="MassMatrix.h">
<polygon fill="none" stroke="black" points="227.961,-224.5 227.961,-243.5 303.961,-243.5 303.961,-224.5 227.961,-224.5"/>
<text text-anchor="middle" x="265.961" y="-231.5" font-family="Helvetica,sans-Serif" font-size="10.00">MassMatrix.h</text>
</a>
</g>
</g>
<!-- Node1&#45;&gt;Node2 -->
<g id="edge1" class="edge"><title>Node1&#45;&gt;Node2</title>
<path fill="none" stroke="midnightblue" d="M637.104,-296.425C551.85,-282.315 394.006,-256.192 314.461,-243.027"/>
<polygon fill="midnightblue" stroke="midnightblue" points="314.671,-239.514 304.234,-241.334 313.528,-246.42 314.671,-239.514"/>
</g>
<!-- Node9 -->
<g id="node9" class="node"><title>Node9</title>
<g id="a_node9"><a xlink:href="_configuration_8h.html" target="_top" xlink:title="Base/Configuration.h">
<polygon fill="none" stroke="black" points="206.961,-56.5 206.961,-75.5 314.961,-75.5 314.961,-56.5 206.961,-56.5"/>
<text text-anchor="middle" x="260.961" y="-63.5" font-family="Helvetica,sans-Serif" font-size="10.00">Base/Configuration.h</text>
</a>
</g>
</g>
<!-- Node1&#45;&gt;Node9 -->
<g id="edge14" class="edge"><title>Node1&#45;&gt;Node9</title>
<path fill="none" stroke="midnightblue" d="M637.277,-288.987C603.415,-278.052 560.278,-262.453 523.961,-244 426.389,-194.424 321.71,-115.068 279.839,-82.1103"/>
<polygon fill="midnightblue" stroke="midnightblue" points="281.895,-79.2739 271.883,-75.8092 277.549,-84.7614 281.895,-79.2739"/>
</g>
<!-- Node11 -->
<g id="node11" class="node"><title>Node11</title>
<g id="a_node11"><a xlink:href="_robot_interface_8h.html" target="_top" xlink:title="Base/RobotInterface.h">
<polygon fill="none" stroke="black" points="671.461,-56.5 671.461,-75.5 786.461,-75.5 786.461,-56.5 671.461,-56.5"/>
<text text-anchor="middle" x="728.961" y="-63.5" font-family="Helvetica,sans-Serif" font-size="10.00">Base/RobotInterface.h</text>
</a>
</g>
</g>
<!-- Node1&#45;&gt;Node11 -->
<g id="edge19" class="edge"><title>Node1&#45;&gt;Node11</title>
<path fill="none" stroke="midnightblue" d="M695.703,-280.806C696.378,-264.548 697.639,-242.97 699.961,-224 706.114,-173.723 718.26,-115.224 724.707,-85.8602"/>
<polygon fill="midnightblue" stroke="midnightblue" points="728.191,-86.3158 726.946,-75.7943 721.358,-84.7958 728.191,-86.3158"/>
</g>
<!-- Node14 -->
<g id="node14" class="node"><title>Node14</title>
<g id="a_node14"><a xlink:href="_block_information_8h.html" target="_top" xlink:title="Core/BlockInformation.h">
<polygon fill="none" stroke="black" points="530.961,-56.5 530.961,-75.5 652.961,-75.5 652.961,-56.5 530.961,-56.5"/>
<text text-anchor="middle" x="591.961" y="-63.5" font-family="Helvetica,sans-Serif" font-size="10.00">Core/BlockInformation.h</text>
</a>
</g>
</g>
<!-- Node1&#45;&gt;Node14 -->
<g id="edge24" class="edge"><title>Node1&#45;&gt;Node14</title>
<path fill="none" stroke="midnightblue" d="M684.133,-280.875C663.277,-232.482 617.991,-127.399 599.778,-85.1396"/>
<polygon fill="midnightblue" stroke="midnightblue" points="602.935,-83.6202 595.763,-75.822 596.506,-86.3907 602.935,-83.6202"/>
</g>
<!-- Node15 -->
<g id="node15" class="node"><title>Node15</title>
<polygon fill="none" stroke="#bfbfbf" points="630.961,-0.5 630.961,-19.5 668.961,-19.5 668.961,-0.5 630.961,-0.5"/>
<text text-anchor="middle" x="649.961" y="-7.5" font-family="Helvetica,sans-Serif" font-size="10.00">tuple</text>
</g>
<!-- Node1&#45;&gt;Node15 -->
<g id="edge41" class="edge"><title>Node1&#45;&gt;Node15</title>
<path fill="none" stroke="midnightblue" d="M706.586,-280.857C731.986,-225.706 790.528,-97.3146 794.961,-76 796.771,-67.2974 800.242,-63.1501 794.961,-56 764.406,-14.6298 733.444,-33.8929 678.932,-19.9923"/>
<polygon fill="midnightblue" stroke="midnightblue" points="679.807,-16.6023 669.23,-17.2287 677.889,-23.3345 679.807,-16.6023"/>
</g>
<!-- Node16 -->
<g id="node16" class="node"><title>Node16</title>
<g id="a_node16"><a xlink:href="_log_8h.html" target="_top" xlink:title="Core/Log.h">
<polygon fill="none" stroke="black" points="447.461,-56.5 447.461,-75.5 512.461,-75.5 512.461,-56.5 447.461,-56.5"/>
<text text-anchor="middle" x="479.961" y="-63.5" font-family="Helvetica,sans-Serif" font-size="10.00">Core/Log.h</text>
</a>
</g>
</g>
<!-- Node1&#45;&gt;Node16 -->
<g id="edge30" class="edge"><title>Node1&#45;&gt;Node16</title>
<path fill="none" stroke="midnightblue" d="M672.358,-280.875C628.18,-231.764 531.48,-124.27 494.625,-83.3013"/>
<polygon fill="midnightblue" stroke="midnightblue" points="497.187,-80.9157 487.897,-75.822 491.983,-85.5973 497.187,-80.9157"/>
</g>
<!-- Node18 -->
<g id="node18" class="node"><title>Node18</title>
<g id="a_node18"><a xlink:href="_signal_8h.html" target="_top" xlink:title="Core/Signal.h">
<polygon fill="none" stroke="black" points="456.961,-168.5 456.961,-187.5 532.961,-187.5 532.961,-168.5 456.961,-168.5"/>
<text text-anchor="middle" x="494.961" y="-175.5" font-family="Helvetica,sans-Serif" font-size="10.00">Core/Signal.h</text>
</a>
</g>
</g>
<!-- Node1&#45;&gt;Node18 -->
<g id="edge34" class="edge"><title>Node1&#45;&gt;Node18</title>
<path fill="none" stroke="midnightblue" d="M637.459,-289.097C608.808,-278.92 574.673,-264.011 547.961,-244 530.372,-230.823 515.099,-210.589 505.526,-196.2"/>
<polygon fill="midnightblue" stroke="midnightblue" points="508.435,-194.251 500.091,-187.721 502.541,-198.029 508.435,-194.251"/>
</g>
<!-- Node19 -->
<g id="node19" class="node"><title>Node19</title>
<polygon fill="none" stroke="#bfbfbf" points="742.461,-224.5 742.461,-243.5 807.461,-243.5 807.461,-224.5 742.461,-224.5"/>
<text text-anchor="middle" x="774.961" y="-231.5" font-family="Helvetica,sans-Serif" font-size="10.00">Eigen/Core</text>
</g>
<!-- Node1&#45;&gt;Node19 -->
<g id="edge36" class="edge"><title>Node1&#45;&gt;Node19</title>
<path fill="none" stroke="midnightblue" d="M723.391,-280.768C734.759,-270.679 747.491,-259.379 757.46,-250.532"/>
<polygon fill="midnightblue" stroke="midnightblue" points="759.938,-253.013 765.094,-243.757 755.291,-247.777 759.938,-253.013"/>
</g>
<!-- Node20 -->
<g id="node20" class="node"><title>Node20</title>
<polygon fill="none" stroke="#bfbfbf" points="824.961,-224.5 824.961,-243.5 974.961,-243.5 974.961,-224.5 824.961,-224.5"/>
<text text-anchor="middle" x="899.961" y="-231.5" font-family="Helvetica,sans-Serif" font-size="10.00">iDynTree/Core/EigenHelpers.h</text>
</g>
<!-- Node1&#45;&gt;Node20 -->
<g id="edge37" class="edge"><title>Node1&#45;&gt;Node20</title>
<path fill="none" stroke="midnightblue" d="M752.61,-286.034C788.998,-273.431 834.78,-257.575 865.576,-246.909"/>
<polygon fill="midnightblue" stroke="midnightblue" points="867.106,-250.083 875.41,-243.503 864.815,-243.469 867.106,-250.083"/>
</g>
<!-- Node21 -->
<g id="node21" class="node"><title>Node21</title>
<polygon fill="none" stroke="#bfbfbf" points="992.961,-224.5 992.961,-243.5 1148.96,-243.5 1148.96,-224.5 992.961,-224.5"/>
<text text-anchor="middle" x="1070.96" y="-231.5" font-family="Helvetica,sans-Serif" font-size="10.00">iDynTree/Core/MatrixDynSize.h</text>
</g>
<!-- Node1&#45;&gt;Node21 -->
<g id="edge38" class="edge"><title>Node1&#45;&gt;Node21</title>
<path fill="none" stroke="midnightblue" d="M752.476,-295.139C824.045,-281.625 945.395,-258.711 1015.83,-245.41"/>
<polygon fill="midnightblue" stroke="midnightblue" points="1016.67,-248.814 1025.85,-243.519 1015.37,-241.936 1016.67,-248.814"/>
</g>
<!-- Node22 -->
<g id="node22" class="node"><title>Node22</title>
<polygon fill="none" stroke="#bfbfbf" points="1167.46,-224.5 1167.46,-243.5 1328.46,-243.5 1328.46,-224.5 1167.46,-224.5"/>
<text text-anchor="middle" x="1247.96" y="-231.5" font-family="Helvetica,sans-Serif" font-size="10.00">iDynTree/KinDynComputations.h</text>
</g>
<!-- Node1&#45;&gt;Node22 -->
<g id="edge39" class="edge"><title>Node1&#45;&gt;Node22</title>
<path fill="none" stroke="midnightblue" d="M752.577,-298.603C852.772,-285.739 1059.11,-259.246 1171.28,-244.845"/>
<polygon fill="midnightblue" stroke="midnightblue" points="1172.03,-248.277 1181.51,-243.532 1171.14,-241.334 1172.03,-248.277"/>
</g>
<!-- Node23 -->
<g id="node23" class="node"><title>Node23</title>
<polygon fill="none" stroke="#bfbfbf" points="1346.96,-224.5 1346.96,-243.5 1398.96,-243.5 1398.96,-224.5 1346.96,-224.5"/>
<text text-anchor="middle" x="1372.96" y="-231.5" font-family="Helvetica,sans-Serif" font-size="10.00">ostream</text>
</g>
<!-- Node1&#45;&gt;Node23 -->
<g id="edge40" class="edge"><title>Node1&#45;&gt;Node23</title>
<path fill="none" stroke="midnightblue" d="M752.893,-303.297C864.198,-297.476 1115.67,-281.291 1336.55,-243.786"/>
<polygon fill="midnightblue" stroke="midnightblue" points="1337.45,-247.183 1346.71,-242.042 1336.26,-240.284 1337.45,-247.183"/>
</g>
<!-- Node3 -->
<g id="node3" class="node"><title>Node3</title>
<g id="a_node3"><a xlink:href="_w_b_block_8h.html" target="_top" xlink:title="Base/WBBlock.h">
<polygon fill="none" stroke="black" points="175.961,-168.5 175.961,-187.5 267.961,-187.5 267.961,-168.5 175.961,-168.5"/>
<text text-anchor="middle" x="221.961" y="-175.5" font-family="Helvetica,sans-Serif" font-size="10.00">Base/WBBlock.h</text>
</a>
</g>
</g>
<!-- Node2&#45;&gt;Node3 -->
<g id="edge2" class="edge"><title>Node2&#45;&gt;Node3</title>
<path fill="none" stroke="midnightblue" d="M258.695,-224.083C252.416,-216.377 243.173,-205.033 235.53,-195.653"/>
<polygon fill="midnightblue" stroke="midnightblue" points="238.121,-193.293 229.091,-187.751 232.695,-197.714 238.121,-193.293"/>
</g>
<!-- Node6 -->
<g id="node6" class="node"><title>Node6</title>
<polygon fill="none" stroke="#bfbfbf" points="368.961,-0.5 368.961,-19.5 420.961,-19.5 420.961,-0.5 368.961,-0.5"/>
<text text-anchor="middle" x="394.961" y="-7.5" font-family="Helvetica,sans-Serif" font-size="10.00">memory</text>
</g>
<!-- Node2&#45;&gt;Node6 -->
<g id="edge12" class="edge"><title>Node2&#45;&gt;Node6</title>
<path fill="none" stroke="midnightblue" d="M271.018,-224.297C290.16,-191.356 358.412,-73.898 384.615,-28.8052"/>
<polygon fill="midnightblue" stroke="midnightblue" points="387.801,-30.2885 389.799,-19.8837 381.748,-26.7715 387.801,-30.2885"/>
</g>
<!-- Node7 -->
<g id="node7" class="node"><title>Node7</title>
<polygon fill="none" stroke="#bfbfbf" points="170.461,-0.5 170.461,-19.5 211.461,-19.5 211.461,-0.5 170.461,-0.5"/>
<text text-anchor="middle" x="190.961" y="-7.5" font-family="Helvetica,sans-Serif" font-size="10.00">string</text>
</g>
<!-- Node2&#45;&gt;Node7 -->
<g id="edge13" class="edge"><title>Node2&#45;&gt;Node7</title>
<path fill="none" stroke="midnightblue" d="M227.824,-226.11C162.515,-211.826 33.4355,-171.929 3.96088,-76 1.35018,-67.5031 -1.54032,-62.9821 3.96088,-56 13.6559,-43.6952 109.615,-25.2506 160.163,-16.2788"/>
<polygon fill="midnightblue" stroke="midnightblue" points="160.969,-19.6909 170.213,-14.5137 159.758,-12.7964 160.969,-19.6909"/>
</g>
<!-- Node4 -->
<g id="node4" class="node"><title>Node4</title>
<g id="a_node4"><a xlink:href="_block_8h.html" target="_top" xlink:title="Core/Block.h">
<polygon fill="none" stroke="black" points="50.9609,-112.5 50.9609,-131.5 124.961,-131.5 124.961,-112.5 50.9609,-112.5"/>
<text text-anchor="middle" x="87.9609" y="-119.5" font-family="Helvetica,sans-Serif" font-size="10.00">Core/Block.h</text>
</a>
</g>
</g>
<!-- Node3&#45;&gt;Node4 -->
<g id="edge3" class="edge"><title>Node3&#45;&gt;Node4</title>
<path fill="none" stroke="midnightblue" d="M200.728,-168.444C178.577,-159.517 143.642,-145.439 118.525,-135.317"/>
<polygon fill="midnightblue" stroke="midnightblue" points="119.678,-132.008 109.094,-131.516 117.061,-138.501 119.678,-132.008"/>
</g>
<!-- Node3&#45;&gt;Node6 -->
<g id="edge10" class="edge"><title>Node3&#45;&gt;Node6</title>
<path fill="none" stroke="midnightblue" d="M231.262,-168.075C259.201,-141.267 342.654,-61.1902 378.406,-26.8851"/>
<polygon fill="midnightblue" stroke="midnightblue" points="381.239,-29.0172 386.031,-19.5681 376.393,-23.9663 381.239,-29.0172"/>
</g>
<!-- Node3&#45;&gt;Node7 -->
<g id="edge11" class="edge"><title>Node3&#45;&gt;Node7</title>
<path fill="none" stroke="midnightblue" d="M219.537,-168.429C214.724,-151.108 203.917,-110.636 197.961,-76 195.313,-60.6003 193.488,-42.9654 192.368,-29.9531"/>
<polygon fill="midnightblue" stroke="midnightblue" points="195.848,-29.569 191.561,-19.8804 188.871,-30.128 195.848,-29.569"/>
</g>
<!-- Node5 -->
<g id="node5" class="node"><title>Node5</title>
<g id="a_node5"><a xlink:href="_parameters_8h.html" target="_top" xlink:title="Core/Parameters.h">
<polygon fill="none" stroke="black" points="13.4609,-56.5 13.4609,-75.5 112.461,-75.5 112.461,-56.5 13.4609,-56.5"/>
<text text-anchor="middle" x="62.9609" y="-63.5" font-family="Helvetica,sans-Serif" font-size="10.00">Core/Parameters.h</text>
</a>
</g>
</g>
<!-- Node4&#45;&gt;Node5 -->
<g id="edge4" class="edge"><title>Node4&#45;&gt;Node5</title>
<path fill="none" stroke="midnightblue" d="M83.8326,-112.083C80.447,-104.77 75.5448,-94.1814 71.3421,-85.1034"/>
<polygon fill="midnightblue" stroke="midnightblue" points="74.3897,-83.3553 67.0123,-75.7511 68.0375,-86.2962 74.3897,-83.3553"/>
</g>
<!-- Node4&#45;&gt;Node7 -->
<g id="edge8" class="edge"><title>Node4&#45;&gt;Node7</title>
<path fill="none" stroke="midnightblue" d="M96.0431,-112.368C113.267,-93.9744 153.814,-50.6712 175.93,-27.0519"/>
<polygon fill="midnightblue" stroke="midnightblue" points="178.636,-29.2832 182.916,-19.5914 173.526,-24.4987 178.636,-29.2832"/>
</g>
<!-- Node8 -->
<g id="node8" class="node"><title>Node8</title>
<polygon fill="none" stroke="#bfbfbf" points="73.9609,-0.5 73.9609,-19.5 117.961,-19.5 117.961,-0.5 73.9609,-0.5"/>
<text text-anchor="middle" x="95.9609" y="-7.5" font-family="Helvetica,sans-Serif" font-size="10.00">vector</text>
</g>
<!-- Node4&#45;&gt;Node8 -->
<g id="edge9" class="edge"><title>Node4&#45;&gt;Node8</title>
<path fill="none" stroke="midnightblue" d="M58.9223,-112.461C28.6155,-101.943 -12.3916,-82.2023 3.96088,-56 16.9857,-35.1298 42.8051,-23.6742 63.7844,-17.5529"/>
<polygon fill="midnightblue" stroke="midnightblue" points="64.8411,-20.894 73.6173,-14.9586 63.0552,-14.1256 64.8411,-20.894"/>
</g>
<!-- Node5&#45;&gt;Node6 -->
<g id="edge5" class="edge"><title>Node5&#45;&gt;Node6</title>
<path fill="none" stroke="midnightblue" d="M112.665,-56.9157C180.07,-45.9521 298.887,-26.6265 358.579,-16.9175"/>
<polygon fill="midnightblue" stroke="midnightblue" points="359.359,-20.3367 368.668,-15.2766 358.236,-13.4275 359.359,-20.3367"/>
</g>
<!-- Node5&#45;&gt;Node7 -->
<g id="edge6" class="edge"><title>Node5&#45;&gt;Node7</title>
<path fill="none" stroke="midnightblue" d="M83.2429,-56.4435C104.308,-47.5566 137.478,-33.5632 161.446,-23.4514"/>
<polygon fill="midnightblue" stroke="midnightblue" points="162.921,-26.6283 170.774,-19.5164 160.2,-20.1787 162.921,-26.6283"/>
</g>
<!-- Node5&#45;&gt;Node8 -->
<g id="edge7" class="edge"><title>Node5&#45;&gt;Node8</title>
<path fill="none" stroke="midnightblue" d="M68.4102,-56.083C72.9753,-48.6127 79.6293,-37.7244 85.2543,-28.5199"/>
<polygon fill="midnightblue" stroke="midnightblue" points="88.3849,-30.109 90.613,-19.7511 82.412,-26.4588 88.3849,-30.109"/>
</g>
<!-- Node9&#45;&gt;Node6 -->
<g id="edge16" class="edge"><title>Node9&#45;&gt;Node6</title>
<path fill="none" stroke="midnightblue" d="M282.194,-56.4435C304.344,-47.5171 339.28,-33.4387 364.397,-23.3168"/>
<polygon fill="midnightblue" stroke="midnightblue" points="365.861,-26.5006 373.828,-19.5164 363.244,-20.0079 365.861,-26.5006"/>
</g>
<!-- Node9&#45;&gt;Node7 -->
<g id="edge17" class="edge"><title>Node9&#45;&gt;Node7</title>
<path fill="none" stroke="midnightblue" d="M249.714,-56.324C239.163,-48.1849 223.16,-35.8395 210.519,-26.0874"/>
<polygon fill="midnightblue" stroke="midnightblue" points="212.468,-23.1707 202.412,-19.8339 208.192,-28.7132 212.468,-23.1707"/>
</g>
<!-- Node9&#45;&gt;Node8 -->
<g id="edge18" class="edge"><title>Node9&#45;&gt;Node8</title>
<path fill="none" stroke="midnightblue" d="M234.816,-56.4435C205.708,-46.9171 158.669,-31.5228 127.531,-21.3321"/>
<polygon fill="midnightblue" stroke="midnightblue" points="128.616,-18.0044 118.023,-18.2203 126.438,-24.6572 128.616,-18.0044"/>
</g>
<!-- Node10 -->
<g id="node10" class="node"><title>Node10</title>
<polygon fill="none" stroke="#bfbfbf" points="241.961,-0.5 241.961,-19.5 279.961,-19.5 279.961,-0.5 241.961,-0.5"/>
<text text-anchor="middle" x="260.961" y="-7.5" font-family="Helvetica,sans-Serif" font-size="10.00">array</text>
</g>
<!-- Node9&#45;&gt;Node10 -->
<g id="edge15" class="edge"><title>Node9&#45;&gt;Node10</title>
<path fill="none" stroke="midnightblue" d="M260.961,-56.083C260.961,-49.0059 260.961,-38.8611 260.961,-29.9865"/>
<polygon fill="midnightblue" stroke="midnightblue" points="264.461,-29.751 260.961,-19.7511 257.461,-29.7511 264.461,-29.751"/>
</g>
<!-- Node11&#45;&gt;Node6 -->
<g id="edge20" class="edge"><title>Node11&#45;&gt;Node6</title>
<path fill="none" stroke="midnightblue" d="M672.862,-56.4659C615.534,-47.6614 523.961,-33.3673 444.961,-20 440.486,-19.2429 435.791,-18.4265 431.143,-17.6053"/>
<polygon fill="midnightblue" stroke="midnightblue" points="431.612,-14.1337 421.152,-15.8211 430.381,-21.0246 431.612,-14.1337"/>
</g>
<!-- Node11&#45;&gt;Node7 -->
<g id="edge21" class="edge"><title>Node11&#45;&gt;Node7</title>
<path fill="none" stroke="midnightblue" d="M671.24,-57.0607C668.103,-56.6873 664.994,-56.3308 661.961,-56 471.752,-35.257 422.223,-48.1023 232.961,-20 229.277,-19.4531 225.433,-18.777 221.63,-18.0431"/>
<polygon fill="midnightblue" stroke="midnightblue" points="222.303,-14.6082 211.801,-16.0139 220.887,-21.4636 222.303,-14.6082"/>
</g>
<!-- Node12 -->
<g id="node12" class="node"><title>Node12</title>
<polygon fill="none" stroke="#bfbfbf" points="687.461,-0.5 687.461,-19.5 770.461,-19.5 770.461,-0.5 687.461,-0.5"/>
<text text-anchor="middle" x="728.961" y="-7.5" font-family="Helvetica,sans-Serif" font-size="10.00">unordered_map</text>
</g>
<!-- Node11&#45;&gt;Node12 -->
<g id="edge22" class="edge"><title>Node11&#45;&gt;Node12</title>
<path fill="none" stroke="midnightblue" d="M728.961,-56.083C728.961,-49.0059 728.961,-38.8611 728.961,-29.9865"/>
<polygon fill="midnightblue" stroke="midnightblue" points="732.461,-29.751 728.961,-19.7511 725.461,-29.7511 732.461,-29.751"/>
</g>
<!-- Node13 -->
<g id="node13" class="node"><title>Node13</title>
<polygon fill="none" stroke="#bfbfbf" points="571.961,-0.5 571.961,-19.5 611.961,-19.5 611.961,-0.5 571.961,-0.5"/>
<text text-anchor="middle" x="591.961" y="-7.5" font-family="Helvetica,sans-Serif" font-size="10.00">utility</text>
</g>
<!-- Node11&#45;&gt;Node13 -->
<g id="edge23" class="edge"><title>Node11&#45;&gt;Node13</title>
<path fill="none" stroke="midnightblue" d="M707.253,-56.4435C684.206,-47.3596 647.624,-32.9402 621.859,-22.7847"/>
<polygon fill="midnightblue" stroke="midnightblue" points="622.814,-19.3992 612.228,-18.9883 620.247,-25.9116 622.814,-19.3992"/>
</g>
<!-- Node14&#45;&gt;Node6 -->
<g id="edge25" class="edge"><title>Node14&#45;&gt;Node6</title>
<path fill="none" stroke="midnightblue" d="M560.746,-56.4435C525.441,-46.7662 468.047,-31.0336 430.902,-20.8518"/>
<polygon fill="midnightblue" stroke="midnightblue" points="431.567,-17.405 420.997,-18.1368 429.716,-24.156 431.567,-17.405"/>
</g>
<!-- Node14&#45;&gt;Node7 -->
<g id="edge26" class="edge"><title>Node14&#45;&gt;Node7</title>
<path fill="none" stroke="midnightblue" d="M530.771,-57.2367C527.453,-56.8178 524.166,-56.4035 520.961,-56 392.975,-39.8891 360.147,-41.5345 232.961,-20 229.289,-19.3783 225.452,-18.6567 221.653,-17.8978"/>
<polygon fill="midnightblue" stroke="midnightblue" points="222.333,-14.4643 211.828,-15.845 220.901,-21.3164 222.333,-14.4643"/>
</g>
<!-- Node14&#45;&gt;Node8 -->
<g id="edge29" class="edge"><title>Node14&#45;&gt;Node8</title>
<path fill="none" stroke="midnightblue" d="M530.782,-57.1408C527.461,-56.7467 524.171,-56.3639 520.961,-56 361.186,-37.8879 320.629,-39.0304 160.961,-20 150.271,-18.7259 138.616,-17.166 128.165,-15.705"/>
<polygon fill="midnightblue" stroke="midnightblue" points="128.588,-12.2301 118.196,-14.2912 127.605,-19.1608 128.588,-12.2301"/>
</g>
<!-- Node14&#45;&gt;Node13 -->
<g id="edge28" class="edge"><title>Node14&#45;&gt;Node13</title>
<path fill="none" stroke="midnightblue" d="M591.961,-56.083C591.961,-49.0059 591.961,-38.8611 591.961,-29.9865"/>
<polygon fill="midnightblue" stroke="midnightblue" points="595.461,-29.751 591.961,-19.7511 588.461,-29.7511 595.461,-29.751"/>
</g>
<!-- Node14&#45;&gt;Node15 -->
<g id="edge27" class="edge"><title>Node14&#45;&gt;Node15</title>
<path fill="none" stroke="midnightblue" d="M601.28,-56.324C609.853,-48.3414 622.773,-36.3128 633.149,-26.6529"/>
<polygon fill="midnightblue" stroke="midnightblue" points="635.539,-29.2098 640.473,-19.8339 630.769,-24.0865 635.539,-29.2098"/>
</g>
<!-- Node16&#45;&gt;Node6 -->
<g id="edge31" class="edge"><title>Node16&#45;&gt;Node6</title>
<path fill="none" stroke="midnightblue" d="M466.304,-56.324C453.045,-47.9002 432.693,-34.9709 417.115,-25.0741"/>
<polygon fill="midnightblue" stroke="midnightblue" points="418.901,-22.0626 408.584,-19.6545 415.148,-27.9711 418.901,-22.0626"/>
</g>
<!-- Node16&#45;&gt;Node7 -->
<g id="edge33" class="edge"><title>Node16&#45;&gt;Node7</title>
<path fill="none" stroke="midnightblue" d="M447.137,-59.3524C399.761,-51.1253 309.494,-35.168 232.961,-20 229.308,-19.276 225.482,-18.4921 221.69,-17.699"/>
<polygon fill="midnightblue" stroke="midnightblue" points="222.38,-14.2676 211.871,-15.6137 220.925,-21.1149 222.38,-14.2676"/>
</g>
<!-- Node17 -->
<g id="node17" class="node"><title>Node17</title>
<polygon fill="none" stroke="#bfbfbf" points="453.961,-0.5 453.961,-19.5 505.961,-19.5 505.961,-0.5 453.961,-0.5"/>
<text text-anchor="middle" x="479.961" y="-7.5" font-family="Helvetica,sans-Serif" font-size="10.00">sstream</text>
</g>
<!-- Node16&#45;&gt;Node17 -->
<g id="edge32" class="edge"><title>Node16&#45;&gt;Node17</title>
<path fill="none" stroke="midnightblue" d="M479.961,-56.083C479.961,-49.0059 479.961,-38.8611 479.961,-29.9865"/>
<polygon fill="midnightblue" stroke="midnightblue" points="483.461,-29.751 479.961,-19.7511 476.461,-29.7511 483.461,-29.751"/>
</g>
<!-- Node18&#45;&gt;Node6 -->
<g id="edge35" class="edge"><title>Node18&#45;&gt;Node6</title>
<path fill="none" stroke="midnightblue" d="M489.584,-168.075C473.639,-141.606 426.412,-63.2089 405.328,-28.2097"/>
<polygon fill="midnightblue" stroke="midnightblue" points="408.281,-26.3279 400.122,-19.5681 402.285,-29.94 408.281,-26.3279"/>
</g>
</g>
</svg>
        <g id="navigator" transform="translate(0 0)" fill="#404254">
                <rect fill="#f2f5e9" fill-opacity="0.5" stroke="#606060" stroke-width=".5" x="0" y="0" width="60" height="60"/>
                <use id="zoomplus" xlink:href="#zoomPlus" x="17" y="9" onmousedown="handleZoom(evt,'in')"/>
                <use id="zoomminus" xlink:href="#zoomMin" x="42" y="9" onmousedown="handleZoom(evt,'out')"/>
                <use id="reset" xlink:href="#resetDef" x="30" y="36" onmousedown="handleReset()"/>
                <g id="arrowUp" xlink:href="#dirArrow" transform="translate(30 24)" onmousedown="handlePan(0,-1)">
                  <use xlink:href="#rim" fill="#404040">
                        <set attributeName="fill" to="#808080" begin="arrowUp.mouseover" end="arrowUp.mouseout"/>
                  </use>
                  <path fill="none" stroke="white" stroke-width="1.5" d="M0,-3.0v7 M-2.5,-0.5L0,-3.0L2.5,-0.5"/>
                </g>
                <g id="arrowRight" xlink:href="#dirArrow" transform="rotate(90) translate(36 -43)" onmousedown="handlePan(1,0)">
                  <use xlink:href="#rim" fill="#404040">
                        <set attributeName="fill" to="#808080" begin="arrowRight.mouseover" end="arrowRight.mouseout"/>
                  </use>
                  <path fill="none" stroke="white" stroke-width="1.5" d="M0,-3.0v7 M-2.5,-0.5L0,-3.0L2.5,-0.5"/>
                </g>
                <g id="arrowDown" xlink:href="#dirArrow" transform="rotate(180) translate(-30 -48)" onmousedown="handlePan(0,1)">
                  <use xlink:href="#rim" fill="#404040">
                        <set attributeName="fill" to="#808080" begin="arrowDown.mouseover" end="arrowDown.mouseout"/>
                  </use>
                  <path fill="none" stroke="white" stroke-width="1.5" d="M0,-3.0v7 M-2.5,-0.5L0,-3.0L2.5,-0.5"/>
                </g>
                <g id="arrowLeft" xlink:href="#dirArrow" transform="rotate(270) translate(-36 17)" onmousedown="handlePan(-1,0)">
                  <use xlink:href="#rim" fill="#404040">
                        <set attributeName="fill" to="#808080" begin="arrowLeft.mouseover" end="arrowLeft.mouseout"/>
                  </use>
                  <path fill="none" stroke="white" stroke-width="1.5" d="M0,-3.0v7 M-2.5,-0.5L0,-3.0L2.5,-0.5"/>
                </g>
        </g>
        <svg viewBox="0 0 15 15" width="100%" height="30px" preserveAspectRatio="xMaxYMin meet">
         <g id="arrow_out" transform="scale(0.3 0.3)">
          <a xlink:href="_mass_matrix_8cpp__incl_org.svg" target="_base">
           <rect id="button" ry="5" rx="5" y="6" x="6" height="38" width="38"
                fill="#f2f5e9" fill-opacity="0.5" stroke="#606060" stroke-width="1.0"/>
           <path id="arrow"
             d="M 11.500037,31.436501 C 11.940474,20.09759 22.043105,11.32322 32.158766,21.979434 L 37.068811,17.246167 C 37.068811,17.246167 37.088388,32 37.088388,32 L 22.160133,31.978069 C 22.160133,31.978069 26.997745,27.140456 26.997745,27.140456 C 18.528582,18.264221 13.291696,25.230495 11.500037,31.436501 z"
             style="fill:#404040;"/>
          </a>
         </g>
        </svg>
</svg>
