<?xml version="1.0" encoding="UTF-8" standalone="no"?>
<!DOCTYPE svg PUBLIC "-//W3C//DTD SVG 1.1//EN"
 "http://www.w3.org/Graphics/SVG/1.1/DTD/svg11.dtd">
<!-- Generated by graphviz version 2.36.0 (20140111.2315)
 -->
<!-- Title: /home/travis/build/robotology/wb&#45;toolbox/toolbox/include/ModelPartitioner.h Pages: 1 -->
<svg width="230pt" height="274pt"
 viewBox="0.00 0.00 230.00 274.00" xmlns="http://www.w3.org/2000/svg" xmlns:xlink="http://www.w3.org/1999/xlink">
<g id="graph0" class="graph" transform="scale(1 1) rotate(0) translate(4 270)">
<title>/home/travis/build/robotology/wb&#45;toolbox/toolbox/include/ModelPartitioner.h</title>
<!-- Node1 -->
<g id="node1" class="node"><title>Node1</title>
<polygon fill="#bfbfbf" stroke="black" points="-0.5,-224.5 -0.5,-265.5 166.5,-265.5 166.5,-224.5 -0.5,-224.5"/>
<text text-anchor="start" x="7.5" y="-253.5" font-family="Helvetica,sans-Serif" font-size="10.00">/home/travis/build</text>
<text text-anchor="start" x="7.5" y="-242.5" font-family="Helvetica,sans-Serif" font-size="10.00">/robotology/wb&#45;toolbox</text>
<text text-anchor="middle" x="83" y="-231.5" font-family="Helvetica,sans-Serif" font-size="10.00">/toolbox/include/ModelPartitioner.h</text>
</g>
<!-- Node2 -->
<g id="node2" class="node"><title>Node2</title>
<g id="a_node2"><a xlink:href="_w_b_block_8h.html" target="_top" xlink:title="WBBlock.h">
<polygon fill="none" stroke="black" points="50,-168.5 50,-187.5 116,-187.5 116,-168.5 50,-168.5"/>
<text text-anchor="middle" x="83" y="-175.5" font-family="Helvetica,sans-Serif" font-size="10.00">WBBlock.h</text>
</a>
</g>
</g>
<!-- Node1&#45;&gt;Node2 -->
<g id="edge1" class="edge"><title>Node1&#45;&gt;Node2</title>
<path fill="none" stroke="midnightblue" d="M83,-224.498C83,-216.065 83,-206.235 83,-197.874"/>
<polygon fill="midnightblue" stroke="midnightblue" points="86.5001,-197.652 83,-187.652 79.5001,-197.653 86.5001,-197.652"/>
</g>
<!-- Node5 -->
<g id="node5" class="node"><title>Node5</title>
<polygon fill="none" stroke="#bfbfbf" points="6,-0.5 6,-19.5 58,-19.5 58,-0.5 6,-0.5"/>
<text text-anchor="middle" x="32" y="-7.5" font-family="Helvetica,sans-Serif" font-size="10.00">memory</text>
</g>
<!-- Node1&#45;&gt;Node5 -->
<g id="edge10" class="edge"><title>Node1&#45;&gt;Node5</title>
<path fill="none" stroke="midnightblue" d="M63.7973,-224.481C55.1835,-214.436 45.8789,-201.485 41,-188 21.2416,-133.389 25.7262,-63.09 29.4461,-29.9223"/>
<polygon fill="midnightblue" stroke="midnightblue" points="32.9409,-30.1783 30.689,-19.8255 25.9934,-29.323 32.9409,-30.1783"/>
</g>
<!-- Node6 -->
<g id="node6" class="node"><title>Node6</title>
<polygon fill="none" stroke="#bfbfbf" points="181.5,-0.5 181.5,-19.5 222.5,-19.5 222.5,-0.5 181.5,-0.5"/>
<text text-anchor="middle" x="202" y="-7.5" font-family="Helvetica,sans-Serif" font-size="10.00">string</text>
</g>
<!-- Node1&#45;&gt;Node6 -->
<g id="edge11" class="edge"><title>Node1&#45;&gt;Node6</title>
<path fill="none" stroke="midnightblue" d="M103.391,-224.059C131.755,-194.735 181.793,-136.84 201,-76 205.73,-61.0166 205.611,-43.1065 204.519,-29.8842"/>
<polygon fill="midnightblue" stroke="midnightblue" points="207.968,-29.2247 203.405,-19.6627 201.009,-29.9829 207.968,-29.2247"/>
</g>
<!-- Node3 -->
<g id="node3" class="node"><title>Node3</title>
<g id="a_node3"><a xlink:href="_block_8h.html" target="_top" xlink:title="Block.h">
<polygon fill="none" stroke="black" points="86,-112.5 86,-131.5 136,-131.5 136,-112.5 86,-112.5"/>
<text text-anchor="middle" x="111" y="-119.5" font-family="Helvetica,sans-Serif" font-size="10.00">Block.h</text>
</a>
</g>
</g>
<!-- Node2&#45;&gt;Node3 -->
<g id="edge2" class="edge"><title>Node2&#45;&gt;Node3</title>
<path fill="none" stroke="midnightblue" d="M87.6236,-168.083C91.4563,-160.691 97.0242,-149.953 101.765,-140.811"/>
<polygon fill="midnightblue" stroke="midnightblue" points="104.966,-142.24 106.462,-131.751 98.752,-139.018 104.966,-142.24"/>
</g>
<!-- Node2&#45;&gt;Node5 -->
<g id="edge9" class="edge"><title>Node2&#45;&gt;Node5</title>
<path fill="none" stroke="midnightblue" d="M80.258,-168.075C72.2302,-141.945 48.6551,-65.2106 37.7074,-29.577"/>
<polygon fill="midnightblue" stroke="midnightblue" points="40.9149,-28.0992 34.6324,-19.5681 34.2236,-30.1551 40.9149,-28.0992"/>
</g>
<!-- Node4 -->
<g id="node4" class="node"><title>Node4</title>
<g id="a_node4"><a xlink:href="_parameters_8h.html" target="_top" xlink:title="Parameters.h">
<polygon fill="none" stroke="black" points="98.5,-56.5 98.5,-75.5 173.5,-75.5 173.5,-56.5 98.5,-56.5"/>
<text text-anchor="middle" x="136" y="-63.5" font-family="Helvetica,sans-Serif" font-size="10.00">Parameters.h</text>
</a>
</g>
</g>
<!-- Node3&#45;&gt;Node4 -->
<g id="edge3" class="edge"><title>Node3&#45;&gt;Node4</title>
<path fill="none" stroke="midnightblue" d="M115.128,-112.083C118.514,-104.77 123.416,-94.1814 127.619,-85.1034"/>
<polygon fill="midnightblue" stroke="midnightblue" points="130.923,-86.2962 131.949,-75.7511 124.571,-83.3553 130.923,-86.2962"/>
</g>
<!-- Node3&#45;&gt;Node6 -->
<g id="edge7" class="edge"><title>Node3&#45;&gt;Node6</title>
<path fill="none" stroke="midnightblue" d="M132.226,-112.441C148.085,-105.021 169.157,-92.8176 182,-76 192.291,-62.5244 197.33,-43.7127 199.771,-29.7925"/>
<polygon fill="midnightblue" stroke="midnightblue" points="203.237,-30.2741 201.222,-19.8728 196.311,-29.2607 203.237,-30.2741"/>
</g>
<!-- Node7 -->
<g id="node7" class="node"><title>Node7</title>
<polygon fill="none" stroke="#bfbfbf" points="95,-0.5 95,-19.5 139,-19.5 139,-0.5 95,-0.5"/>
<text text-anchor="middle" x="117" y="-7.5" font-family="Helvetica,sans-Serif" font-size="10.00">vector</text>
</g>
<!-- Node3&#45;&gt;Node7 -->
<g id="edge8" class="edge"><title>Node3&#45;&gt;Node7</title>
<path fill="none" stroke="midnightblue" d="M104.77,-112.24C96.719,-99.8215 84.3653,-76.3432 90,-56 92.7919,-45.9205 98.5091,-35.832 103.967,-27.7694"/>
<polygon fill="midnightblue" stroke="midnightblue" points="106.825,-29.7899 109.849,-19.6357 101.153,-25.6881 106.825,-29.7899"/>
</g>
<!-- Node4&#45;&gt;Node5 -->
<g id="edge4" class="edge"><title>Node4&#45;&gt;Node5</title>
<path fill="none" stroke="midnightblue" d="M119.291,-56.324C102.688,-47.7034 76.9979,-34.3643 57.7795,-24.3855"/>
<polygon fill="midnightblue" stroke="midnightblue" points="59.1558,-21.1565 48.6679,-19.6545 55.93,-27.3689 59.1558,-21.1565"/>
</g>
<!-- Node4&#45;&gt;Node6 -->
<g id="edge5" class="edge"><title>Node4&#45;&gt;Node6</title>
<path fill="none" stroke="midnightblue" d="M146.604,-56.324C156.456,-48.2631 171.351,-36.0765 183.215,-26.3695"/>
<polygon fill="midnightblue" stroke="midnightblue" points="185.68,-28.8752 191.203,-19.8339 181.247,-23.4575 185.68,-28.8752"/>
</g>
<!-- Node4&#45;&gt;Node7 -->
<g id="edge6" class="edge"><title>Node4&#45;&gt;Node7</title>
<path fill="none" stroke="midnightblue" d="M132.863,-56.083C130.317,-48.8486 126.644,-38.4087 123.473,-29.3968"/>
<polygon fill="midnightblue" stroke="midnightblue" points="126.7,-28.0225 120.079,-19.7511 120.097,-30.3459 126.7,-28.0225"/>
</g>
</g>
</svg>
