<?xml version="1.0" encoding="UTF-8" standalone="no"?>
<!DOCTYPE svg PUBLIC "-//W3C//DTD SVG 1.1//EN"
 "http://www.w3.org/Graphics/SVG/1.1/DTD/svg11.dtd">
<!-- Generated by graphviz version 2.36.0 (20140111.2315)
 -->
<!-- Title: /home/travis/build/robotology/wb&#45;toolbox/toolbox/src/ModelPartitioner.cpp Pages: 1 -->
<!--zoomable 330 -->
<svg id="main" version="1.1" xmlns="http://www.w3.org/2000/svg" xmlns:xlink="http://www.w3.org/1999/xlink" xml:space="preserve" onload="init(evt)">
<style type="text/css"><![CDATA[
.edge:hover path { stroke: red; }
.edge:hover polygon { stroke: red; fill: red; }
]]></style>
<script type="text/javascript"><![CDATA[
var edges = document.getElementsByTagName('g');
if (edges && edges.length) {
  for (var i=0;i<edges.length;i++) {
    if (edges[i].id.substr(0,4)=='edge') {
      edges[i].setAttribute('class','edge');
    }
  }
}
]]></script>
        <defs>
                <circle id="rim" cx="0" cy="0" r="7"/>
                <circle id="rim2" cx="0" cy="0" r="3.5"/>
                <g id="zoomPlus">
                        <use xlink:href="#rim" fill="#404040">
                                <set attributeName="fill" to="#808080" begin="zoomplus.mouseover" end="zoomplus.mouseout"/>
                        </use>
                        <path d="M-4,0h8M0,-4v8" fill="none" stroke="white" stroke-width="1.5" pointer-events="none"/>
                </g>
                <g id="zoomMin">
                        <use xlink:href="#rim" fill="#404040">
                                <set attributeName="fill" to="#808080" begin="zoomminus.mouseover" end="zoomminus.mouseout"/>
                        </use>
                        <path d="M-4,0h8" fill="none" stroke="white" stroke-width="1.5" pointer-events="none"/>
                </g>
                <g id="dirArrow">
                        <path fill="none" stroke="white" stroke-width="1.5" d="M0,-3.0v7 M-2.5,-0.5L0,-3.0L2.5,-0.5"/>
                </g>
               <g id="resetDef">
                       <use xlink:href="#rim2" fill="#404040">
                               <set attributeName="fill" to="#808080" begin="reset.mouseover" end="reset.mouseout"/>
                       </use>
               </g>
        </defs>

<script type="text/javascript">
var viewWidth = 1016;
var viewHeight = 330;
var sectionId = 'dynsection-0';
</script>
<script xlink:href="svgpan.js"/>
<svg id="graph" class="graph">
<g id="viewport">
<title>/home/travis/build/robotology/wb&#45;toolbox/toolbox/src/ModelPartitioner.cpp</title>
<!-- Node1 -->
<g id="node1" class="node"><title>Node1</title>
<polygon fill="#bfbfbf" stroke="black" points="553.51,-280.5 553.51,-321.5 713.51,-321.5 713.51,-280.5 553.51,-280.5"/>
<text text-anchor="start" x="561.51" y="-309.5" font-family="Helvetica,sans-Serif" font-size="10.00">/home/travis/build</text>
<text text-anchor="start" x="561.51" y="-298.5" font-family="Helvetica,sans-Serif" font-size="10.00">/robotology/wb&#45;toolbox</text>
<text text-anchor="middle" x="633.51" y="-287.5" font-family="Helvetica,sans-Serif" font-size="10.00">/toolbox/src/ModelPartitioner.cpp</text>
</g>
<!-- Node2 -->
<g id="node2" class="node"><title>Node2</title>
<g id="a_node2"><a xlink:href="_model_partitioner_8h.html" target="_top" xlink:title="ModelPartitioner.h">
<polygon fill="none" stroke="black" points="396.01,-224.5 396.01,-243.5 491.01,-243.5 491.01,-224.5 396.01,-224.5"/>
<text text-anchor="middle" x="443.51" y="-231.5" font-family="Helvetica,sans-Serif" font-size="10.00">ModelPartitioner.h</text>
</a>
</g>
</g>
<!-- Node1&#45;&gt;Node2 -->
<g id="edge1" class="edge"><title>Node1&#45;&gt;Node2</title>
<path fill="none" stroke="midnightblue" d="M576.504,-280.498C544.573,-269.574 505.784,-256.304 478.359,-246.922"/>
<polygon fill="midnightblue" stroke="midnightblue" points="479.397,-243.578 468.802,-243.652 477.131,-250.201 479.397,-243.578"/>
</g>
<!-- Node5 -->
<g id="node5" class="node"><title>Node5</title>
<g id="a_node5"><a xlink:href="_parameters_8h.html" target="_top" xlink:title="Parameters.h">
<polygon fill="none" stroke="black" points="256.01,-56.5 256.01,-75.5 331.01,-75.5 331.01,-56.5 256.01,-56.5"/>
<text text-anchor="middle" x="293.51" y="-63.5" font-family="Helvetica,sans-Serif" font-size="10.00">Parameters.h</text>
</a>
</g>
</g>
<!-- Node1&#45;&gt;Node5 -->
<g id="edge29" class="edge"><title>Node1&#45;&gt;Node5</title>
<path fill="none" stroke="midnightblue" d="M553.41,-297.865C501.499,-292.862 434.808,-279.261 386.51,-244 331.884,-204.119 306.537,-122.412 297.544,-85.6496"/>
<polygon fill="midnightblue" stroke="midnightblue" points="300.925,-84.7352 295.264,-75.7796 294.105,-86.3108 300.925,-84.7352"/>
</g>
<!-- Node8 -->
<g id="node8" class="node"><title>Node8</title>
<polygon fill="none" stroke="#bfbfbf" points="139.51,-0.5 139.51,-19.5 183.51,-19.5 183.51,-0.5 139.51,-0.5"/>
<text text-anchor="middle" x="161.51" y="-7.5" font-family="Helvetica,sans-Serif" font-size="10.00">vector</text>
</g>
<!-- Node1&#45;&gt;Node8 -->
<g id="edge41" class="edge"><title>Node1&#45;&gt;Node8</title>
<path fill="none" stroke="midnightblue" d="M553.34,-292.954C383.009,-276.903 0.510381,-234.663 0.510381,-179 0.510381,-179 0.510381,-179 0.510381,-121 0.510381,-90.9022 -1.53114,-77.5205 19.5104,-56 48.5861,-26.2625 97.1698,-16.1286 129.277,-12.7038"/>
<polygon fill="midnightblue" stroke="midnightblue" points="129.838,-16.1675 139.482,-11.781 129.207,-9.19594 129.838,-16.1675"/>
</g>
<!-- Node9 -->
<g id="node9" class="node"><title>Node9</title>
<g id="a_node9"><a xlink:href="_block_information_8h.html" target="_top" xlink:title="BlockInformation.h">
<polygon fill="none" stroke="black" points="501.51,-56.5 501.51,-75.5 599.51,-75.5 599.51,-56.5 501.51,-56.5"/>
<text text-anchor="middle" x="550.51" y="-63.5" font-family="Helvetica,sans-Serif" font-size="10.00">BlockInformation.h</text>
</a>
</g>
</g>
<!-- Node1&#45;&gt;Node9 -->
<g id="edge13" class="edge"><title>Node1&#45;&gt;Node9</title>
<path fill="none" stroke="midnightblue" d="M626.434,-280.135C610.566,-235.59 572.336,-128.27 557.019,-85.2698"/>
<polygon fill="midnightblue" stroke="midnightblue" points="560.222,-83.832 553.569,-75.5863 553.628,-86.181 560.222,-83.832"/>
</g>
<!-- Node10 -->
<g id="node10" class="node"><title>Node10</title>
<polygon fill="none" stroke="#bfbfbf" points="740.51,-0.5 740.51,-19.5 780.51,-19.5 780.51,-0.5 740.51,-0.5"/>
<text text-anchor="middle" x="760.51" y="-7.5" font-family="Helvetica,sans-Serif" font-size="10.00">utility</text>
</g>
<!-- Node1&#45;&gt;Node10 -->
<g id="edge40" class="edge"><title>Node1&#45;&gt;Node10</title>
<path fill="none" stroke="midnightblue" d="M713.706,-284.671C769.347,-268.848 833.51,-237.844 833.51,-179 833.51,-179 833.51,-179 833.51,-121 833.51,-90.7745 830.142,-81.2381 813.51,-56 805.623,-44.0313 793.649,-33.4836 783.077,-25.6139"/>
<polygon fill="midnightblue" stroke="midnightblue" points="784.834,-22.57 774.646,-19.6609 780.796,-28.2881 784.834,-22.57"/>
</g>
<!-- Node11 -->
<g id="node11" class="node"><title>Node11</title>
<g id="a_node11"><a xlink:href="_configuration_8h.html" target="_top" xlink:title="Configuration.h">
<polygon fill="none" stroke="black" points="155.01,-56.5 155.01,-75.5 238.01,-75.5 238.01,-56.5 155.01,-56.5"/>
<text text-anchor="middle" x="196.51" y="-63.5" font-family="Helvetica,sans-Serif" font-size="10.00">Configuration.h</text>
</a>
</g>
</g>
<!-- Node1&#45;&gt;Node11 -->
<g id="edge18" class="edge"><title>Node1&#45;&gt;Node11</title>
<path fill="none" stroke="midnightblue" d="M553.416,-296.488C496.46,-291.016 419.846,-277.417 360.51,-244 288.777,-203.6 230.531,-120.919 207.338,-84.6806"/>
<polygon fill="midnightblue" stroke="midnightblue" points="210.023,-82.3754 201.744,-75.7649 204.094,-86.0958 210.023,-82.3754"/>
</g>
<!-- Node12 -->
<g id="node12" class="node"><title>Node12</title>
<g id="a_node12"><a xlink:href="_log_8h.html" target="_top" xlink:title="Log.h">
<polygon fill="none" stroke="black" points="618.01,-56.5 618.01,-75.5 659.01,-75.5 659.01,-56.5 618.01,-56.5"/>
<text text-anchor="middle" x="638.51" y="-63.5" font-family="Helvetica,sans-Serif" font-size="10.00">Log.h</text>
</a>
</g>
</g>
<!-- Node1&#45;&gt;Node12 -->
<g id="edge22" class="edge"><title>Node1&#45;&gt;Node12</title>
<path fill="none" stroke="midnightblue" d="M633.937,-280.135C634.889,-235.779 637.176,-129.181 638.106,-85.821"/>
<polygon fill="midnightblue" stroke="midnightblue" points="641.611,-85.6592 638.326,-75.5863 634.612,-85.5089 641.611,-85.6592"/>
</g>
<!-- Node14 -->
<g id="node14" class="node"><title>Node14</title>
<g id="a_node14"><a xlink:href="_parameter_8h.html" target="_top" xlink:title="Parameter.h">
<polygon fill="none" stroke="black" points="28.5104,-56.5 28.5104,-75.5 98.5104,-75.5 98.5104,-56.5 28.5104,-56.5"/>
<text text-anchor="middle" x="63.5104" y="-63.5" font-family="Helvetica,sans-Serif" font-size="10.00">Parameter.h</text>
</a>
</g>
</g>
<!-- Node1&#45;&gt;Node14 -->
<g id="edge26" class="edge"><title>Node1&#45;&gt;Node14</title>
<path fill="none" stroke="midnightblue" d="M553.409,-294.446C489.942,-287.928 400.029,-273.912 326.51,-244 224.183,-202.368 120.635,-117.207 80.6888,-82.3705"/>
<polygon fill="midnightblue" stroke="midnightblue" points="82.9712,-79.7168 73.1533,-75.7344 78.3449,-84.9701 82.9712,-79.7168"/>
</g>
<!-- Node15 -->
<g id="node15" class="node"><title>Node15</title>
<g id="a_node15"><a xlink:href="_robot_interface_8h.html" target="_top" xlink:title="RobotInterface.h">
<polygon fill="none" stroke="black" points="716.01,-56.5 716.01,-75.5 805.01,-75.5 805.01,-56.5 716.01,-56.5"/>
<text text-anchor="middle" x="760.51" y="-63.5" font-family="Helvetica,sans-Serif" font-size="10.00">RobotInterface.h</text>
</a>
</g>
</g>
<!-- Node1&#45;&gt;Node15 -->
<g id="edge30" class="edge"><title>Node1&#45;&gt;Node15</title>
<path fill="none" stroke="midnightblue" d="M653.068,-280.163C673.02,-258.95 703.65,-223.54 722.51,-188 740.509,-154.083 751.619,-110.228 756.874,-85.7123"/>
<polygon fill="midnightblue" stroke="midnightblue" points="760.36,-86.1343 758.934,-75.6359 753.502,-84.7321 760.36,-86.1343"/>
</g>
<!-- Node16 -->
<g id="node16" class="node"><title>Node16</title>
<polygon fill="none" stroke="#bfbfbf" points="814.01,-0.5 814.01,-19.5 897.01,-19.5 897.01,-0.5 814.01,-0.5"/>
<text text-anchor="middle" x="855.51" y="-7.5" font-family="Helvetica,sans-Serif" font-size="10.00">unordered_map</text>
</g>
<!-- Node1&#45;&gt;Node16 -->
<g id="edge39" class="edge"><title>Node1&#45;&gt;Node16</title>
<path fill="none" stroke="midnightblue" d="M713.755,-292.192C782.848,-280.518 871.51,-251.426 871.51,-179 871.51,-179 871.51,-179 871.51,-121 871.51,-88.6258 864.64,-51.4449 859.903,-29.6593"/>
<polygon fill="midnightblue" stroke="midnightblue" points="863.288,-28.7588 857.668,-19.7771 856.46,-30.3028 863.288,-28.7588"/>
</g>
<!-- Node17 -->
<g id="node17" class="node"><title>Node17</title>
<g id="a_node17"><a xlink:href="_signal_8h.html" target="_top" xlink:title="Signal.h">
<polygon fill="none" stroke="black" points="661.51,-168.5 661.51,-187.5 713.51,-187.5 713.51,-168.5 661.51,-168.5"/>
<text text-anchor="middle" x="687.51" y="-175.5" font-family="Helvetica,sans-Serif" font-size="10.00">Signal.h</text>
</a>
</g>
</g>
<!-- Node1&#45;&gt;Node17 -->
<g id="edge35" class="edge"><title>Node1&#45;&gt;Node17</title>
<path fill="none" stroke="midnightblue" d="M642.307,-280.29C652.627,-257.166 669.588,-219.16 679.538,-196.864"/>
<polygon fill="midnightblue" stroke="midnightblue" points="682.804,-198.133 683.684,-187.575 676.412,-195.28 682.804,-198.133"/>
</g>
<!-- Node18 -->
<g id="node18" class="node"><title>Node18</title>
<polygon fill="none" stroke="#bfbfbf" points="899.51,-224.5 899.51,-243.5 951.51,-243.5 951.51,-224.5 899.51,-224.5"/>
<text text-anchor="middle" x="925.51" y="-231.5" font-family="Helvetica,sans-Serif" font-size="10.00">ostream</text>
</g>
<!-- Node1&#45;&gt;Node18 -->
<g id="edge37" class="edge"><title>Node1&#45;&gt;Node18</title>
<path fill="none" stroke="midnightblue" d="M713.535,-282.273C763.076,-271.285 827.996,-256.861 885.51,-244 886.761,-243.72 888.033,-243.436 889.318,-243.148"/>
<polygon fill="midnightblue" stroke="midnightblue" points="890.272,-246.521 899.263,-240.916 888.739,-239.691 890.272,-246.521"/>
</g>
<!-- Node19 -->
<g id="node19" class="node"><title>Node19</title>
<polygon fill="none" stroke="#bfbfbf" points="969.51,-224.5 969.51,-243.5 1007.51,-243.5 1007.51,-224.5 969.51,-224.5"/>
<text text-anchor="middle" x="988.51" y="-231.5" font-family="Helvetica,sans-Serif" font-size="10.00">tuple</text>
</g>
<!-- Node1&#45;&gt;Node19 -->
<g id="edge38" class="edge"><title>Node1&#45;&gt;Node19</title>
<path fill="none" stroke="midnightblue" d="M713.785,-289.486C778.041,-280.326 870.519,-265.48 959.609,-243.94"/>
<polygon fill="midnightblue" stroke="midnightblue" points="960.453,-247.337 969.333,-241.559 958.787,-240.538 960.453,-247.337"/>
</g>
<!-- Node3 -->
<g id="node3" class="node"><title>Node3</title>
<g id="a_node3"><a xlink:href="_w_b_block_8h.html" target="_top" xlink:title="WBBlock.h">
<polygon fill="none" stroke="black" points="379.51,-168.5 379.51,-187.5 445.51,-187.5 445.51,-168.5 379.51,-168.5"/>
<text text-anchor="middle" x="412.51" y="-175.5" font-family="Helvetica,sans-Serif" font-size="10.00">WBBlock.h</text>
</a>
</g>
</g>
<!-- Node2&#45;&gt;Node3 -->
<g id="edge2" class="edge"><title>Node2&#45;&gt;Node3</title>
<path fill="none" stroke="midnightblue" d="M438.391,-224.083C434.103,-216.613 427.852,-205.724 422.568,-196.52"/>
<polygon fill="midnightblue" stroke="midnightblue" points="425.548,-194.681 417.534,-187.751 419.477,-198.166 425.548,-194.681"/>
</g>
<!-- Node6 -->
<g id="node6" class="node"><title>Node6</title>
<polygon fill="none" stroke="#bfbfbf" points="485.51,-0.5 485.51,-19.5 537.51,-19.5 537.51,-0.5 485.51,-0.5"/>
<text text-anchor="middle" x="511.51" y="-7.5" font-family="Helvetica,sans-Serif" font-size="10.00">memory</text>
</g>
<!-- Node2&#45;&gt;Node6 -->
<g id="edge11" class="edge"><title>Node2&#45;&gt;Node6</title>
<path fill="none" stroke="midnightblue" d="M445.784,-224.203C453.839,-193.134 481.143,-88.6744 492.51,-56 495.645,-46.9893 499.694,-37.2078 503.248,-29.0731"/>
<polygon fill="midnightblue" stroke="midnightblue" points="506.493,-30.3896 507.379,-19.8319 500.103,-27.5327 506.493,-30.3896"/>
</g>
<!-- Node7 -->
<g id="node7" class="node"><title>Node7</title>
<polygon fill="none" stroke="#bfbfbf" points="358.01,-0.5 358.01,-19.5 399.01,-19.5 399.01,-0.5 358.01,-0.5"/>
<text text-anchor="middle" x="378.51" y="-7.5" font-family="Helvetica,sans-Serif" font-size="10.00">string</text>
</g>
<!-- Node2&#45;&gt;Node7 -->
<g id="edge12" class="edge"><title>Node2&#45;&gt;Node7</title>
<path fill="none" stroke="midnightblue" d="M422.381,-224.452C406.236,-216.967 384.453,-204.676 370.51,-188 353.358,-167.485 353.486,-158.274 348.51,-132 341.494,-94.9524 357.922,-52.2901 369.134,-28.8133"/>
<polygon fill="midnightblue" stroke="midnightblue" points="372.333,-30.241 373.676,-19.7316 366.072,-27.1099 372.333,-30.241"/>
</g>
<!-- Node4 -->
<g id="node4" class="node"><title>Node4</title>
<g id="a_node4"><a xlink:href="_block_8h.html" target="_top" xlink:title="Block.h">
<polygon fill="none" stroke="black" points="357.51,-112.5 357.51,-131.5 407.51,-131.5 407.51,-112.5 357.51,-112.5"/>
<text text-anchor="middle" x="382.51" y="-119.5" font-family="Helvetica,sans-Serif" font-size="10.00">Block.h</text>
</a>
</g>
</g>
<!-- Node3&#45;&gt;Node4 -->
<g id="edge3" class="edge"><title>Node3&#45;&gt;Node4</title>
<path fill="none" stroke="midnightblue" d="M407.556,-168.083C403.406,-160.613 397.357,-149.724 392.244,-140.52"/>
<polygon fill="midnightblue" stroke="midnightblue" points="395.288,-138.793 387.372,-131.751 389.169,-142.192 395.288,-138.793"/>
</g>
<!-- Node3&#45;&gt;Node6 -->
<g id="edge10" class="edge"><title>Node3&#45;&gt;Node6</title>
<path fill="none" stroke="midnightblue" d="M414.331,-168.397C419.044,-147.568 433.154,-93.3932 459.51,-56 467.786,-44.2594 479.768,-33.615 490.145,-25.6296"/>
<polygon fill="midnightblue" stroke="midnightblue" points="492.386,-28.3262 498.368,-19.5816 488.239,-22.6873 492.386,-28.3262"/>
</g>
<!-- Node4&#45;&gt;Node5 -->
<g id="edge4" class="edge"><title>Node4&#45;&gt;Node5</title>
<path fill="none" stroke="midnightblue" d="M368.211,-112.324C354.327,-103.9 333.018,-90.9709 316.707,-81.0741"/>
<polygon fill="midnightblue" stroke="midnightblue" points="318.139,-77.8495 307.774,-75.6545 314.508,-83.8341 318.139,-77.8495"/>
</g>
<!-- Node4&#45;&gt;Node7 -->
<g id="edge8" class="edge"><title>Node4&#45;&gt;Node7</title>
<path fill="none" stroke="midnightblue" d="M382.197,-112.368C381.551,-94.617 380.062,-53.6664 379.187,-29.5974"/>
<polygon fill="midnightblue" stroke="midnightblue" points="382.684,-29.4576 378.823,-19.5914 375.689,-29.712 382.684,-29.4576"/>
</g>
<!-- Node4&#45;&gt;Node8 -->
<g id="edge9" class="edge"><title>Node4&#45;&gt;Node8</title>
<path fill="none" stroke="midnightblue" d="M357.284,-120.113C301.849,-117.579 172.22,-108.258 145.51,-76 134.43,-62.6176 141.748,-42.698 149.754,-28.4403"/>
<polygon fill="midnightblue" stroke="midnightblue" points="152.921,-29.9732 155.189,-19.6241 146.962,-26.2997 152.921,-29.9732"/>
</g>
<!-- Node5&#45;&gt;Node6 -->
<g id="edge5" class="edge"><title>Node5&#45;&gt;Node6</title>
<path fill="none" stroke="midnightblue" d="M328.053,-56.4435C368.34,-46.4641 434.622,-30.0457 475.52,-19.915"/>
<polygon fill="midnightblue" stroke="midnightblue" points="476.475,-23.2844 485.34,-17.4826 474.792,-16.4898 476.475,-23.2844"/>
</g>
<!-- Node5&#45;&gt;Node7 -->
<g id="edge6" class="edge"><title>Node5&#45;&gt;Node7</title>
<path fill="none" stroke="midnightblue" d="M307.167,-56.324C320.427,-47.9002 340.778,-34.9709 356.357,-25.0741"/>
<polygon fill="midnightblue" stroke="midnightblue" points="358.324,-27.9711 364.888,-19.6545 354.57,-22.0626 358.324,-27.9711"/>
</g>
<!-- Node5&#45;&gt;Node8 -->
<g id="edge7" class="edge"><title>Node5&#45;&gt;Node8</title>
<path fill="none" stroke="midnightblue" d="M272.595,-56.4435C250.774,-47.5171 216.361,-33.4387 191.618,-23.3168"/>
<polygon fill="midnightblue" stroke="midnightblue" points="192.909,-20.0634 182.328,-19.5164 190.259,-26.5422 192.909,-20.0634"/>
</g>
<!-- Node9&#45;&gt;Node6 -->
<g id="edge14" class="edge"><title>Node9&#45;&gt;Node6</title>
<path fill="none" stroke="midnightblue" d="M544.07,-56.083C538.562,-48.4554 530.479,-37.2645 523.745,-27.9408"/>
<polygon fill="midnightblue" stroke="midnightblue" points="526.523,-25.8087 517.831,-19.7511 520.848,-29.9071 526.523,-25.8087"/>
</g>
<!-- Node9&#45;&gt;Node7 -->
<g id="edge15" class="edge"><title>Node9&#45;&gt;Node7</title>
<path fill="none" stroke="midnightblue" d="M523.256,-56.4435C492.144,-46.6756 441.381,-30.7385 408.984,-20.5673"/>
<polygon fill="midnightblue" stroke="midnightblue" points="409.748,-17.1388 399.159,-17.4826 407.651,-23.8174 409.748,-17.1388"/>
</g>
<!-- Node9&#45;&gt;Node8 -->
<g id="edge17" class="edge"><title>Node9&#45;&gt;Node8</title>
<path fill="none" stroke="midnightblue" d="M501.243,-58.1609C420.514,-46.9542 262.231,-24.9818 194.038,-15.5154"/>
<polygon fill="midnightblue" stroke="midnightblue" points="194.279,-12.0154 183.893,-14.1071 193.317,-18.9489 194.279,-12.0154"/>
</g>
<!-- Node9&#45;&gt;Node10 -->
<g id="edge16" class="edge"><title>Node9&#45;&gt;Node10</title>
<path fill="none" stroke="midnightblue" d="M583.786,-56.4435C624.063,-46.0866 691.311,-28.7941 730.205,-18.7929"/>
<polygon fill="midnightblue" stroke="midnightblue" points="731.564,-22.0574 740.377,-16.1772 729.82,-15.2779 731.564,-22.0574"/>
</g>
<!-- Node11&#45;&gt;Node6 -->
<g id="edge19" class="edge"><title>Node11&#45;&gt;Node6</title>
<path fill="none" stroke="midnightblue" d="M238.247,-57.4556C241.043,-56.96 243.817,-56.4711 246.51,-56 328.22,-41.7089 424.222,-25.5683 475.274,-17.0367"/>
<polygon fill="midnightblue" stroke="midnightblue" points="475.88,-20.4842 485.167,-15.3848 474.727,-13.5798 475.88,-20.4842"/>
</g>
<!-- Node11&#45;&gt;Node7 -->
<g id="edge20" class="edge"><title>Node11&#45;&gt;Node7</title>
<path fill="none" stroke="midnightblue" d="M225.349,-56.4435C258.867,-46.4985 313.938,-30.1587 348.11,-20.02"/>
<polygon fill="midnightblue" stroke="midnightblue" points="349.405,-23.2864 357.997,-17.0865 347.414,-16.5756 349.405,-23.2864"/>
</g>
<!-- Node11&#45;&gt;Node8 -->
<g id="edge21" class="edge"><title>Node11&#45;&gt;Node8</title>
<path fill="none" stroke="midnightblue" d="M190.731,-56.083C185.838,-48.5341 178.683,-37.4948 172.678,-28.2298"/>
<polygon fill="midnightblue" stroke="midnightblue" points="175.558,-26.239 167.182,-19.7511 169.684,-30.0463 175.558,-26.239"/>
</g>
<!-- Node12&#45;&gt;Node6 -->
<g id="edge23" class="edge"><title>Node12&#45;&gt;Node6</title>
<path fill="none" stroke="midnightblue" d="M618.387,-56.4435C597.486,-47.5566 564.576,-33.5632 540.794,-23.4514"/>
<polygon fill="midnightblue" stroke="midnightblue" points="542.112,-20.2085 531.54,-19.5164 539.373,-26.6504 542.112,-20.2085"/>
</g>
<!-- Node12&#45;&gt;Node7 -->
<g id="edge25" class="edge"><title>Node12&#45;&gt;Node7</title>
<path fill="none" stroke="midnightblue" d="M617.902,-58.741C614.446,-57.7709 610.887,-56.8202 607.51,-56 537.128,-38.9034 453.379,-23.7414 409.249,-16.1484"/>
<polygon fill="midnightblue" stroke="midnightblue" points="409.617,-12.6607 399.171,-14.4278 408.439,-19.5609 409.617,-12.6607"/>
</g>
<!-- Node13 -->
<g id="node13" class="node"><title>Node13</title>
<polygon fill="none" stroke="#bfbfbf" points="612.51,-0.5 612.51,-19.5 664.51,-19.5 664.51,-0.5 612.51,-0.5"/>
<text text-anchor="middle" x="638.51" y="-7.5" font-family="Helvetica,sans-Serif" font-size="10.00">sstream</text>
</g>
<!-- Node12&#45;&gt;Node13 -->
<g id="edge24" class="edge"><title>Node12&#45;&gt;Node13</title>
<path fill="none" stroke="midnightblue" d="M638.51,-56.083C638.51,-49.0059 638.51,-38.8611 638.51,-29.9865"/>
<polygon fill="midnightblue" stroke="midnightblue" points="642.01,-29.751 638.51,-19.7511 635.01,-29.7511 642.01,-29.751"/>
</g>
<!-- Node14&#45;&gt;Node7 -->
<g id="edge27" class="edge"><title>Node14&#45;&gt;Node7</title>
<path fill="none" stroke="midnightblue" d="M98.728,-58.9627C160.845,-48.3141 288.857,-26.3692 347.696,-16.2824"/>
<polygon fill="midnightblue" stroke="midnightblue" points="348.582,-19.6818 357.847,-14.5424 347.399,-12.7824 348.582,-19.6818"/>
</g>
<!-- Node14&#45;&gt;Node8 -->
<g id="edge28" class="edge"><title>Node14&#45;&gt;Node8</title>
<path fill="none" stroke="midnightblue" d="M79.2558,-56.324C94.829,-47.7428 118.888,-34.486 136.97,-24.5224"/>
<polygon fill="midnightblue" stroke="midnightblue" points="138.735,-27.546 145.804,-19.6545 135.357,-21.4152 138.735,-27.546"/>
</g>
<!-- Node15&#45;&gt;Node6 -->
<g id="edge31" class="edge"><title>Node15&#45;&gt;Node6</title>
<path fill="none" stroke="midnightblue" d="M721.056,-56.4435C673.375,-46.1031 593.815,-28.8492 547.665,-18.8407"/>
<polygon fill="midnightblue" stroke="midnightblue" points="548.31,-15.3993 537.795,-16.7003 546.826,-22.2403 548.31,-15.3993"/>
</g>
<!-- Node15&#45;&gt;Node7 -->
<g id="edge32" class="edge"><title>Node15&#45;&gt;Node7</title>
<path fill="none" stroke="midnightblue" d="M715.943,-58.6998C637.479,-47.6082 476.621,-24.869 409.255,-15.3461"/>
<polygon fill="midnightblue" stroke="midnightblue" points="409.664,-11.8693 399.273,-13.935 408.685,-18.8003 409.664,-11.8693"/>
</g>
<!-- Node15&#45;&gt;Node10 -->
<g id="edge34" class="edge"><title>Node15&#45;&gt;Node10</title>
<path fill="none" stroke="midnightblue" d="M760.51,-56.083C760.51,-49.0059 760.51,-38.8611 760.51,-29.9865"/>
<polygon fill="midnightblue" stroke="midnightblue" points="764.01,-29.751 760.51,-19.7511 757.01,-29.7511 764.01,-29.751"/>
</g>
<!-- Node15&#45;&gt;Node16 -->
<g id="edge33" class="edge"><title>Node15&#45;&gt;Node16</title>
<path fill="none" stroke="midnightblue" d="M775.774,-56.324C790.732,-47.8215 813.765,-34.7288 831.237,-24.7975"/>
<polygon fill="midnightblue" stroke="midnightblue" points="833.321,-27.639 840.285,-19.6545 829.862,-21.5534 833.321,-27.639"/>
</g>
<!-- Node17&#45;&gt;Node6 -->
<g id="edge36" class="edge"><title>Node17&#45;&gt;Node6</title>
<path fill="none" stroke="midnightblue" d="M688.899,-168.39C691.893,-146.587 696.517,-88.6163 667.51,-56 651.667,-38.1843 588.644,-24.2644 547.712,-16.8708"/>
<polygon fill="midnightblue" stroke="midnightblue" points="548.279,-13.4168 537.824,-15.1333 547.067,-20.3112 548.279,-13.4168"/>
</g>
</g>
</svg>
        <g id="navigator" transform="translate(0 0)" fill="#404254">
                <rect fill="#f2f5e9" fill-opacity="0.5" stroke="#606060" stroke-width=".5" x="0" y="0" width="60" height="60"/>
                <use id="zoomplus" xlink:href="#zoomPlus" x="17" y="9" onmousedown="handleZoom(evt,'in')"/>
                <use id="zoomminus" xlink:href="#zoomMin" x="42" y="9" onmousedown="handleZoom(evt,'out')"/>
                <use id="reset" xlink:href="#resetDef" x="30" y="36" onmousedown="handleReset()"/>
                <g id="arrowUp" xlink:href="#dirArrow" transform="translate(30 24)" onmousedown="handlePan(0,-1)">
                  <use xlink:href="#rim" fill="#404040">
                        <set attributeName="fill" to="#808080" begin="arrowUp.mouseover" end="arrowUp.mouseout"/>
                  </use>
                  <path fill="none" stroke="white" stroke-width="1.5" d="M0,-3.0v7 M-2.5,-0.5L0,-3.0L2.5,-0.5"/>
                </g>
                <g id="arrowRight" xlink:href="#dirArrow" transform="rotate(90) translate(36 -43)" onmousedown="handlePan(1,0)">
                  <use xlink:href="#rim" fill="#404040">
                        <set attributeName="fill" to="#808080" begin="arrowRight.mouseover" end="arrowRight.mouseout"/>
                  </use>
                  <path fill="none" stroke="white" stroke-width="1.5" d="M0,-3.0v7 M-2.5,-0.5L0,-3.0L2.5,-0.5"/>
                </g>
                <g id="arrowDown" xlink:href="#dirArrow" transform="rotate(180) translate(-30 -48)" onmousedown="handlePan(0,1)">
                  <use xlink:href="#rim" fill="#404040">
                        <set attributeName="fill" to="#808080" begin="arrowDown.mouseover" end="arrowDown.mouseout"/>
                  </use>
                  <path fill="none" stroke="white" stroke-width="1.5" d="M0,-3.0v7 M-2.5,-0.5L0,-3.0L2.5,-0.5"/>
                </g>
                <g id="arrowLeft" xlink:href="#dirArrow" transform="rotate(270) translate(-36 17)" onmousedown="handlePan(-1,0)">
                  <use xlink:href="#rim" fill="#404040">
                        <set attributeName="fill" to="#808080" begin="arrowLeft.mouseover" end="arrowLeft.mouseout"/>
                  </use>
                  <path fill="none" stroke="white" stroke-width="1.5" d="M0,-3.0v7 M-2.5,-0.5L0,-3.0L2.5,-0.5"/>
                </g>
        </g>
        <svg viewBox="0 0 15 15" width="100%" height="30px" preserveAspectRatio="xMaxYMin meet">
         <g id="arrow_out" transform="scale(0.3 0.3)">
          <a xlink:href="_model_partitioner_8cpp__incl_org.svg" target="_base">
           <rect id="button" ry="5" rx="5" y="6" x="6" height="38" width="38"
                fill="#f2f5e9" fill-opacity="0.5" stroke="#606060" stroke-width="1.0"/>
           <path id="arrow"
             d="M 11.500037,31.436501 C 11.940474,20.09759 22.043105,11.32322 32.158766,21.979434 L 37.068811,17.246167 C 37.068811,17.246167 37.088388,32 37.088388,32 L 22.160133,31.978069 C 22.160133,31.978069 26.997745,27.140456 26.997745,27.140456 C 18.528582,18.264221 13.291696,25.230495 11.500037,31.436501 z"
             style="fill:#404040;"/>
          </a>
         </g>
        </svg>
</svg>
