<?xml version="1.0" encoding="UTF-8" standalone="no"?>
<!DOCTYPE svg PUBLIC "-//W3C//DTD SVG 1.1//EN"
 "http://www.w3.org/Graphics/SVG/1.1/DTD/svg11.dtd">
<!-- Generated by graphviz version 2.36.0 (20140111.2315)
 -->
<!-- Title: /home/travis/build/robotology/wb&#45;toolbox/toolbox/src/ModelPartitioner.cpp Pages: 1 -->
<!--zoomable 330 -->
<svg id="main" version="1.1" xmlns="http://www.w3.org/2000/svg" xmlns:xlink="http://www.w3.org/1999/xlink" xml:space="preserve" onload="init(evt)">
<style type="text/css"><![CDATA[
.edge:hover path { stroke: red; }
.edge:hover polygon { stroke: red; fill: red; }
]]></style>
<script type="text/javascript"><![CDATA[
var edges = document.getElementsByTagName('g');
if (edges && edges.length) {
  for (var i=0;i<edges.length;i++) {
    if (edges[i].id.substr(0,4)=='edge') {
      edges[i].setAttribute('class','edge');
    }
  }
}
]]></script>
        <defs>
                <circle id="rim" cx="0" cy="0" r="7"/>
                <circle id="rim2" cx="0" cy="0" r="3.5"/>
                <g id="zoomPlus">
                        <use xlink:href="#rim" fill="#404040">
                                <set attributeName="fill" to="#808080" begin="zoomplus.mouseover" end="zoomplus.mouseout"/>
                        </use>
                        <path d="M-4,0h8M0,-4v8" fill="none" stroke="white" stroke-width="1.5" pointer-events="none"/>
                </g>
                <g id="zoomMin">
                        <use xlink:href="#rim" fill="#404040">
                                <set attributeName="fill" to="#808080" begin="zoomminus.mouseover" end="zoomminus.mouseout"/>
                        </use>
                        <path d="M-4,0h8" fill="none" stroke="white" stroke-width="1.5" pointer-events="none"/>
                </g>
                <g id="dirArrow">
                        <path fill="none" stroke="white" stroke-width="1.5" d="M0,-3.0v7 M-2.5,-0.5L0,-3.0L2.5,-0.5"/>
                </g>
               <g id="resetDef">
                       <use xlink:href="#rim2" fill="#404040">
                               <set attributeName="fill" to="#808080" begin="reset.mouseover" end="reset.mouseout"/>
                       </use>
               </g>
        </defs>

<script type="text/javascript">
var viewWidth = 983;
var viewHeight = 330;
var sectionId = 'dynsection-0';
</script>
<script xlink:href="svgpan.js"/>
<svg id="graph" class="graph">
<g id="viewport">
<title>/home/travis/build/robotology/wb&#45;toolbox/toolbox/src/ModelPartitioner.cpp</title>
<!-- Node1 -->
<g id="node1" class="node"><title>Node1</title>
<polygon fill="#bfbfbf" stroke="black" points="490,-280.5 490,-321.5 650,-321.5 650,-280.5 490,-280.5"/>
<text text-anchor="start" x="498" y="-309.5" font-family="Helvetica,sans-Serif" font-size="10.00">/home/travis/build</text>
<text text-anchor="start" x="498" y="-298.5" font-family="Helvetica,sans-Serif" font-size="10.00">/robotology/wb&#45;toolbox</text>
<text text-anchor="middle" x="570" y="-287.5" font-family="Helvetica,sans-Serif" font-size="10.00">/toolbox/src/ModelPartitioner.cpp</text>
</g>
<!-- Node2 -->
<g id="node2" class="node"><title>Node2</title>
<g id="a_node2"><a xlink:href="_model_partitioner_8h.html" target="_top" xlink:title="ModelPartitioner.h">
<polygon fill="none" stroke="black" points="247.5,-224.5 247.5,-243.5 342.5,-243.5 342.5,-224.5 247.5,-224.5"/>
<text text-anchor="middle" x="295" y="-231.5" font-family="Helvetica,sans-Serif" font-size="10.00">ModelPartitioner.h</text>
</a>
</g>
</g>
<!-- Node1&#45;&gt;Node2 -->
<g id="edge1" class="edge"><title>Node1&#45;&gt;Node2</title>
<path fill="none" stroke="midnightblue" d="M489.719,-281.025C441.344,-269.59 381.468,-255.438 340.981,-245.868"/>
<polygon fill="midnightblue" stroke="midnightblue" points="341.662,-242.433 331.125,-243.539 340.052,-249.245 341.662,-242.433"/>
</g>
<!-- Node5 -->
<g id="node5" class="node"><title>Node5</title>
<g id="a_node5"><a xlink:href="_parameters_8h.html" target="_top" xlink:title="Parameters.h">
<polygon fill="none" stroke="black" points="403.5,-56.5 403.5,-75.5 478.5,-75.5 478.5,-56.5 403.5,-56.5"/>
<text text-anchor="middle" x="441" y="-63.5" font-family="Helvetica,sans-Serif" font-size="10.00">Parameters.h</text>
</a>
</g>
</g>
<!-- Node1&#45;&gt;Node5 -->
<g id="edge31" class="edge"><title>Node1&#45;&gt;Node5</title>
<path fill="none" stroke="midnightblue" d="M559.002,-280.135C534.182,-235.306 474.164,-126.901 450.664,-84.456"/>
<polygon fill="midnightblue" stroke="midnightblue" points="453.66,-82.6397 445.754,-75.5863 447.535,-86.0303 453.66,-82.6397"/>
</g>
<!-- Node8 -->
<g id="node8" class="node"><title>Node8</title>
<polygon fill="none" stroke="#bfbfbf" points="516,-0.5 516,-19.5 560,-19.5 560,-0.5 516,-0.5"/>
<text text-anchor="middle" x="538" y="-7.5" font-family="Helvetica,sans-Serif" font-size="10.00">vector</text>
</g>
<!-- Node1&#45;&gt;Node8 -->
<g id="edge41" class="edge"><title>Node1&#45;&gt;Node8</title>
<path fill="none" stroke="midnightblue" d="M640.54,-280.485C687.643,-262.667 741,-231.006 741,-179 741,-179 741,-179 741,-121 741,-90.7745 742.977,-76.7507 721,-56 699.482,-35.6827 616.989,-21.6084 570.445,-15.0997"/>
<polygon fill="midnightblue" stroke="midnightblue" points="570.649,-11.5954 560.269,-13.7171 569.706,-18.5316 570.649,-11.5954"/>
</g>
<!-- Node9 -->
<g id="node9" class="node"><title>Node9</title>
<g id="a_node9"><a xlink:href="_block_information_8h.html" target="_top" xlink:title="BlockInformation.h">
<polygon fill="none" stroke="black" points="769,-56.5 769,-75.5 867,-75.5 867,-56.5 769,-56.5"/>
<text text-anchor="middle" x="818" y="-63.5" font-family="Helvetica,sans-Serif" font-size="10.00">BlockInformation.h</text>
</a>
</g>
</g>
<!-- Node1&#45;&gt;Node9 -->
<g id="edge14" class="edge"><title>Node1&#45;&gt;Node9</title>
<path fill="none" stroke="midnightblue" d="M650.188,-292.17C686.196,-284.872 726.822,-270.856 755,-244 800.594,-200.545 813.25,-121.938 816.717,-85.9346"/>
<polygon fill="midnightblue" stroke="midnightblue" points="820.215,-86.0946 817.549,-75.8406 813.239,-85.519 820.215,-86.0946"/>
</g>
<!-- Node12 -->
<g id="node12" class="node"><title>Node12</title>
<g id="a_node12"><a xlink:href="_configuration_8h.html" target="_top" xlink:title="Configuration.h">
<polygon fill="none" stroke="black" points="187.5,-56.5 187.5,-75.5 270.5,-75.5 270.5,-56.5 187.5,-56.5"/>
<text text-anchor="middle" x="229" y="-63.5" font-family="Helvetica,sans-Serif" font-size="10.00">Configuration.h</text>
</a>
</g>
</g>
<!-- Node1&#45;&gt;Node12 -->
<g id="edge19" class="edge"><title>Node1&#45;&gt;Node12</title>
<path fill="none" stroke="midnightblue" d="M489.678,-297.641C402.239,-293.22 270.497,-280.515 238,-244 198.5,-199.617 213.469,-121.482 223.209,-85.7665"/>
<polygon fill="midnightblue" stroke="midnightblue" points="226.688,-86.3368 226.112,-75.7576 219.965,-84.3868 226.688,-86.3368"/>
</g>
<!-- Node14 -->
<g id="node14" class="node"><title>Node14</title>
<g id="a_node14"><a xlink:href="_log_8h.html" target="_top" xlink:title="Log.h">
<polygon fill="none" stroke="black" points="51.5,-56.5 51.5,-75.5 92.5,-75.5 92.5,-56.5 51.5,-56.5"/>
<text text-anchor="middle" x="72" y="-63.5" font-family="Helvetica,sans-Serif" font-size="10.00">Log.h</text>
</a>
</g>
</g>
<!-- Node1&#45;&gt;Node14 -->
<g id="edge24" class="edge"><title>Node1&#45;&gt;Node14</title>
<path fill="none" stroke="midnightblue" d="M489.99,-293.578C401.842,-285.385 266.636,-269.183 222,-244 153.057,-205.103 101.567,-121.617 81.3635,-84.924"/>
<polygon fill="midnightblue" stroke="midnightblue" points="84.3249,-83.041 76.5061,-75.8914 78.1598,-86.3564 84.3249,-83.041"/>
</g>
<!-- Node16 -->
<g id="node16" class="node"><title>Node16</title>
<g id="a_node16"><a xlink:href="_parameter_8h.html" target="_top" xlink:title="Parameter.h">
<polygon fill="none" stroke="black" points="535,-56.5 535,-75.5 605,-75.5 605,-56.5 535,-56.5"/>
<text text-anchor="middle" x="570" y="-63.5" font-family="Helvetica,sans-Serif" font-size="10.00">Parameter.h</text>
</a>
</g>
</g>
<!-- Node1&#45;&gt;Node16 -->
<g id="edge28" class="edge"><title>Node1&#45;&gt;Node16</title>
<path fill="none" stroke="midnightblue" d="M570,-280.135C570,-235.779 570,-129.181 570,-85.821"/>
<polygon fill="midnightblue" stroke="midnightblue" points="573.5,-85.5863 570,-75.5863 566.5,-85.5864 573.5,-85.5863"/>
</g>
<!-- Node17 -->
<g id="node17" class="node"><title>Node17</title>
<g id="a_node17"><a xlink:href="_robot_interface_8h.html" target="_top" xlink:title="RobotInterface.h">
<polygon fill="none" stroke="black" points="623.5,-56.5 623.5,-75.5 712.5,-75.5 712.5,-56.5 623.5,-56.5"/>
<text text-anchor="middle" x="668" y="-63.5" font-family="Helvetica,sans-Serif" font-size="10.00">RobotInterface.h</text>
</a>
</g>
</g>
<!-- Node1&#45;&gt;Node17 -->
<g id="edge32" class="edge"><title>Node1&#45;&gt;Node17</title>
<path fill="none" stroke="midnightblue" d="M578.355,-280.135C597.131,-235.495 642.421,-127.814 660.431,-84.9968"/>
<polygon fill="midnightblue" stroke="midnightblue" points="663.738,-86.1612 664.389,-75.5863 657.285,-83.4472 663.738,-86.1612"/>
</g>
<!-- Node18 -->
<g id="node18" class="node"><title>Node18</title>
<polygon fill="none" stroke="#bfbfbf" points="706.5,-0.5 706.5,-19.5 789.5,-19.5 789.5,-0.5 706.5,-0.5"/>
<text text-anchor="middle" x="748" y="-7.5" font-family="Helvetica,sans-Serif" font-size="10.00">unordered_map</text>
</g>
<!-- Node1&#45;&gt;Node18 -->
<g id="edge40" class="edge"><title>Node1&#45;&gt;Node18</title>
<path fill="none" stroke="midnightblue" d="M650.337,-286.513C746.579,-268.028 895,-231.079 895,-179 895,-179 895,-179 895,-121 895,-90.7745 895.919,-77.817 875,-56 863.313,-43.8116 824.415,-31.0583 792.715,-22.2539"/>
<polygon fill="midnightblue" stroke="midnightblue" points="793.287,-18.7826 782.72,-19.5398 791.453,-25.538 793.287,-18.7826"/>
</g>
<!-- Node19 -->
<g id="node19" class="node"><title>Node19</title>
<g id="a_node19"><a xlink:href="_signal_8h.html" target="_top" xlink:title="Signal.h">
<polygon fill="none" stroke="black" points="0,-168.5 0,-187.5 52,-187.5 52,-168.5 0,-168.5"/>
<text text-anchor="middle" x="26" y="-175.5" font-family="Helvetica,sans-Serif" font-size="10.00">Signal.h</text>
</a>
</g>
</g>
<!-- Node1&#45;&gt;Node19 -->
<g id="edge37" class="edge"><title>Node1&#45;&gt;Node19</title>
<path fill="none" stroke="midnightblue" d="M489.993,-299.287C366.548,-296.837 136.699,-286.509 68,-244 50.5481,-233.201 38.9695,-212.147 32.4685,-196.921"/>
<polygon fill="midnightblue" stroke="midnightblue" points="35.6846,-195.536 28.7693,-187.509 29.1697,-198.096 35.6846,-195.536"/>
</g>
<!-- Node20 -->
<g id="node20" class="node"><title>Node20</title>
<polygon fill="none" stroke="#bfbfbf" points="923,-224.5 923,-243.5 975,-243.5 975,-224.5 923,-224.5"/>
<text text-anchor="middle" x="949" y="-231.5" font-family="Helvetica,sans-Serif" font-size="10.00">ostream</text>
</g>
<!-- Node1&#45;&gt;Node20 -->
<g id="edge39" class="edge"><title>Node1&#45;&gt;Node20</title>
<path fill="none" stroke="midnightblue" d="M650.029,-288.111C718.871,-277.566 820.736,-261.205 909,-244 910.258,-243.755 911.536,-243.5 912.826,-243.237"/>
<polygon fill="midnightblue" stroke="midnightblue" points="913.739,-246.621 922.795,-241.123 912.287,-239.774 913.739,-246.621"/>
</g>
<!-- Node3 -->
<g id="node3" class="node"><title>Node3</title>
<g id="a_node3"><a xlink:href="_w_b_block_8h.html" target="_top" xlink:title="WBBlock.h">
<polygon fill="none" stroke="black" points="297,-168.5 297,-187.5 363,-187.5 363,-168.5 297,-168.5"/>
<text text-anchor="middle" x="330" y="-175.5" font-family="Helvetica,sans-Serif" font-size="10.00">WBBlock.h</text>
</a>
</g>
</g>
<!-- Node2&#45;&gt;Node3 -->
<g id="edge2" class="edge"><title>Node2&#45;&gt;Node3</title>
<path fill="none" stroke="midnightblue" d="M300.78,-224.083C305.672,-216.534 312.827,-205.495 318.833,-196.23"/>
<polygon fill="midnightblue" stroke="midnightblue" points="321.826,-198.046 324.328,-187.751 315.952,-194.239 321.826,-198.046"/>
</g>
<!-- Node6 -->
<g id="node6" class="node"><title>Node6</title>
<polygon fill="none" stroke="#bfbfbf" points="133,-0.5 133,-19.5 185,-19.5 185,-0.5 133,-0.5"/>
<text text-anchor="middle" x="159" y="-7.5" font-family="Helvetica,sans-Serif" font-size="10.00">memory</text>
</g>
<!-- Node2&#45;&gt;Node6 -->
<g id="edge12" class="edge"><title>Node2&#45;&gt;Node6</title>
<path fill="none" stroke="midnightblue" d="M283.969,-224.183C257.608,-202.364 191.135,-142.759 164,-76 158.067,-61.4029 157.108,-43.4589 157.468,-30.1253"/>
<polygon fill="midnightblue" stroke="midnightblue" points="160.982,-29.9707 158.032,-19.7947 153.992,-29.589 160.982,-29.9707"/>
</g>
<!-- Node7 -->
<g id="node7" class="node"><title>Node7</title>
<polygon fill="none" stroke="#bfbfbf" points="354.5,-0.5 354.5,-19.5 395.5,-19.5 395.5,-0.5 354.5,-0.5"/>
<text text-anchor="middle" x="375" y="-7.5" font-family="Helvetica,sans-Serif" font-size="10.00">string</text>
</g>
<!-- Node2&#45;&gt;Node7 -->
<g id="edge13" class="edge"><title>Node2&#45;&gt;Node7</title>
<path fill="none" stroke="midnightblue" d="M292.163,-224.445C288.424,-211.879 282.886,-187.78 288,-168 302.437,-112.162 341.472,-55.0017 361.992,-27.6161"/>
<polygon fill="midnightblue" stroke="midnightblue" points="364.891,-29.5869 368.179,-19.5152 359.328,-25.3381 364.891,-29.5869"/>
</g>
<!-- Node4 -->
<g id="node4" class="node"><title>Node4</title>
<g id="a_node4"><a xlink:href="_block_8h.html" target="_top" xlink:title="Block.h">
<polygon fill="none" stroke="black" points="390,-112.5 390,-131.5 440,-131.5 440,-112.5 390,-112.5"/>
<text text-anchor="middle" x="415" y="-119.5" font-family="Helvetica,sans-Serif" font-size="10.00">Block.h</text>
</a>
</g>
</g>
<!-- Node3&#45;&gt;Node4 -->
<g id="edge3" class="edge"><title>Node3&#45;&gt;Node4</title>
<path fill="none" stroke="midnightblue" d="M343.657,-168.324C356.916,-159.9 377.268,-146.971 392.846,-137.074"/>
<polygon fill="midnightblue" stroke="midnightblue" points="394.813,-139.971 401.377,-131.655 391.06,-134.063 394.813,-139.971"/>
</g>
<!-- Node3&#45;&gt;Node6 -->
<g id="edge10" class="edge"><title>Node3&#45;&gt;Node6</title>
<path fill="none" stroke="midnightblue" d="M308.352,-168.438C275.27,-154.245 212.362,-122.701 178,-76 168.093,-62.5352 163.329,-43.9757 161.052,-30.1347"/>
<polygon fill="midnightblue" stroke="midnightblue" points="164.469,-29.2772 159.666,-19.8334 157.531,-30.2109 164.469,-29.2772"/>
</g>
<!-- Node3&#45;&gt;Node7 -->
<g id="edge11" class="edge"><title>Node3&#45;&gt;Node7</title>
<path fill="none" stroke="midnightblue" d="M332.419,-168.075C339.503,-141.945 360.304,-65.2106 369.964,-29.577"/>
<polygon fill="midnightblue" stroke="midnightblue" points="373.439,-30.1355 372.677,-19.5681 366.683,-28.304 373.439,-30.1355"/>
</g>
<!-- Node4&#45;&gt;Node5 -->
<g id="edge4" class="edge"><title>Node4&#45;&gt;Node5</title>
<path fill="none" stroke="midnightblue" d="M419.293,-112.083C422.852,-104.691 428.022,-93.9533 432.424,-84.8111"/>
<polygon fill="midnightblue" stroke="midnightblue" points="435.602,-86.2795 436.787,-75.7511 429.295,-83.2427 435.602,-86.2795"/>
</g>
<!-- Node4&#45;&gt;Node7 -->
<g id="edge8" class="edge"><title>Node4&#45;&gt;Node7</title>
<path fill="none" stroke="midnightblue" d="M410.408,-112.207C405.853,-103.259 398.866,-88.9074 394,-76 388.168,-60.5296 383.01,-42.4418 379.545,-29.2804"/>
<polygon fill="midnightblue" stroke="midnightblue" points="382.925,-28.3695 377.056,-19.5491 376.143,-30.1046 382.925,-28.3695"/>
</g>
<!-- Node4&#45;&gt;Node8 -->
<g id="edge9" class="edge"><title>Node4&#45;&gt;Node8</title>
<path fill="none" stroke="midnightblue" d="M432.141,-112.487C447.49,-104.375 470.115,-91.173 487,-76 502.777,-61.8228 517.344,-42.336 526.835,-28.404"/>
<polygon fill="midnightblue" stroke="midnightblue" points="529.943,-30.0497 532.547,-19.7798 524.107,-26.1843 529.943,-30.0497"/>
</g>
<!-- Node5&#45;&gt;Node6 -->
<g id="edge5" class="edge"><title>Node5&#45;&gt;Node6</title>
<path fill="none" stroke="midnightblue" d="M403.115,-58.2078C355.767,-49.6474 272.28,-34.3172 201,-20 199.081,-19.6145 197.114,-19.2135 195.128,-18.8041"/>
<polygon fill="midnightblue" stroke="midnightblue" points="195.697,-15.3472 185.192,-16.7213 194.261,-22.1984 195.697,-15.3472"/>
</g>
<!-- Node5&#45;&gt;Node7 -->
<g id="edge6" class="edge"><title>Node5&#45;&gt;Node7</title>
<path fill="none" stroke="midnightblue" d="M430.396,-56.324C420.544,-48.2631 405.649,-36.0765 393.785,-26.3695"/>
<polygon fill="midnightblue" stroke="midnightblue" points="395.753,-23.4575 385.797,-19.8339 391.32,-28.8752 395.753,-23.4575"/>
</g>
<!-- Node5&#45;&gt;Node8 -->
<g id="edge7" class="edge"><title>Node5&#45;&gt;Node8</title>
<path fill="none" stroke="midnightblue" d="M456.585,-56.324C471.999,-47.7428 495.812,-34.486 513.71,-24.5224"/>
<polygon fill="midnightblue" stroke="midnightblue" points="515.419,-27.5767 522.454,-19.6545 512.014,-21.4606 515.419,-27.5767"/>
</g>
<!-- Node9&#45;&gt;Node7 -->
<g id="edge15" class="edge"><title>Node9&#45;&gt;Node7</title>
<path fill="none" stroke="midnightblue" d="M768.899,-59.0147C677.001,-47.8127 481.49,-23.9807 405.812,-14.7559"/>
<polygon fill="midnightblue" stroke="midnightblue" points="405.893,-11.2399 395.543,-13.5041 405.046,-18.1884 405.893,-11.2399"/>
</g>
<!-- Node9&#45;&gt;Node8 -->
<g id="edge18" class="edge"><title>Node9&#45;&gt;Node8</title>
<path fill="none" stroke="midnightblue" d="M773.633,-56.4435C716.911,-45.5043 620.071,-26.828 570.033,-17.1778"/>
<polygon fill="midnightblue" stroke="midnightblue" points="570.579,-13.7187 560.097,-15.2616 569.253,-20.592 570.579,-13.7187"/>
</g>
<!-- Node10 -->
<g id="node10" class="node"><title>Node10</title>
<polygon fill="none" stroke="#bfbfbf" points="808,-0.5 808,-19.5 846,-19.5 846,-0.5 808,-0.5"/>
<text text-anchor="middle" x="827" y="-7.5" font-family="Helvetica,sans-Serif" font-size="10.00">tuple</text>
</g>
<!-- Node9&#45;&gt;Node10 -->
<g id="edge16" class="edge"><title>Node9&#45;&gt;Node10</title>
<path fill="none" stroke="midnightblue" d="M819.486,-56.083C820.679,-48.9272 822.394,-38.6353 823.885,-29.6911"/>
<polygon fill="midnightblue" stroke="midnightblue" points="827.35,-30.1904 825.541,-19.7511 820.445,-29.0396 827.35,-30.1904"/>
</g>
<!-- Node11 -->
<g id="node11" class="node"><title>Node11</title>
<polygon fill="none" stroke="#bfbfbf" points="648,-0.5 648,-19.5 688,-19.5 688,-0.5 648,-0.5"/>
<text text-anchor="middle" x="668" y="-7.5" font-family="Helvetica,sans-Serif" font-size="10.00">utility</text>
</g>
<!-- Node9&#45;&gt;Node11 -->
<g id="edge17" class="edge"><title>Node9&#45;&gt;Node11</title>
<path fill="none" stroke="midnightblue" d="M794.232,-56.4435C768.187,-47.0673 726.352,-32.0068 698.05,-21.818"/>
<polygon fill="midnightblue" stroke="midnightblue" points="698.884,-18.3983 688.289,-18.3042 696.513,-24.9845 698.884,-18.3983"/>
</g>
<!-- Node12&#45;&gt;Node6 -->
<g id="edge21" class="edge"><title>Node12&#45;&gt;Node6</title>
<path fill="none" stroke="midnightblue" d="M217.753,-56.324C207.203,-48.1849 191.199,-35.8395 178.558,-26.0874"/>
<polygon fill="midnightblue" stroke="midnightblue" points="180.507,-23.1707 170.451,-19.8339 176.231,-28.7132 180.507,-23.1707"/>
</g>
<!-- Node12&#45;&gt;Node7 -->
<g id="edge22" class="edge"><title>Node12&#45;&gt;Node7</title>
<path fill="none" stroke="midnightblue" d="M252.134,-56.4435C277.198,-47.1732 317.286,-32.3464 344.813,-22.1652"/>
<polygon fill="midnightblue" stroke="midnightblue" points="346.17,-25.395 354.335,-18.6433 343.742,-18.8297 346.17,-25.395"/>
</g>
<!-- Node12&#45;&gt;Node8 -->
<g id="edge23" class="edge"><title>Node12&#45;&gt;Node8</title>
<path fill="none" stroke="midnightblue" d="M270.673,-57.7173C333.041,-46.818 449.345,-26.4932 505.716,-16.6419"/>
<polygon fill="midnightblue" stroke="midnightblue" points="506.589,-20.0424 515.838,-14.873 505.384,-13.1469 506.589,-20.0424"/>
</g>
<!-- Node13 -->
<g id="node13" class="node"><title>Node13</title>
<polygon fill="none" stroke="#bfbfbf" points="210,-0.5 210,-19.5 248,-19.5 248,-0.5 210,-0.5"/>
<text text-anchor="middle" x="229" y="-7.5" font-family="Helvetica,sans-Serif" font-size="10.00">array</text>
</g>
<!-- Node12&#45;&gt;Node13 -->
<g id="edge20" class="edge"><title>Node12&#45;&gt;Node13</title>
<path fill="none" stroke="midnightblue" d="M229,-56.083C229,-49.0059 229,-38.8611 229,-29.9865"/>
<polygon fill="midnightblue" stroke="midnightblue" points="232.5,-29.751 229,-19.7511 225.5,-29.7511 232.5,-29.751"/>
</g>
<!-- Node14&#45;&gt;Node6 -->
<g id="edge25" class="edge"><title>Node14&#45;&gt;Node6</title>
<path fill="none" stroke="midnightblue" d="M85.9781,-56.324C99.5496,-47.9002 120.38,-34.9709 136.325,-25.0741"/>
<polygon fill="midnightblue" stroke="midnightblue" points="138.406,-27.9019 145.057,-19.6545 134.714,-21.9544 138.406,-27.9019"/>
</g>
<!-- Node14&#45;&gt;Node7 -->
<g id="edge27" class="edge"><title>Node14&#45;&gt;Node7</title>
<path fill="none" stroke="midnightblue" d="M92.8264,-61.2884C145.279,-51.9404 283.013,-27.3937 344.546,-16.4275"/>
<polygon fill="midnightblue" stroke="midnightblue" points="345.198,-19.8665 354.428,-14.6662 343.97,-12.9751 345.198,-19.8665"/>
</g>
<!-- Node15 -->
<g id="node15" class="node"><title>Node15</title>
<polygon fill="none" stroke="#bfbfbf" points="46,-0.5 46,-19.5 98,-19.5 98,-0.5 46,-0.5"/>
<text text-anchor="middle" x="72" y="-7.5" font-family="Helvetica,sans-Serif" font-size="10.00">sstream</text>
</g>
<!-- Node14&#45;&gt;Node15 -->
<g id="edge26" class="edge"><title>Node14&#45;&gt;Node15</title>
<path fill="none" stroke="midnightblue" d="M72,-56.083C72,-49.0059 72,-38.8611 72,-29.9865"/>
<polygon fill="midnightblue" stroke="midnightblue" points="75.5001,-29.751 72,-19.7511 68.5001,-29.7511 75.5001,-29.751"/>
</g>
<!-- Node16&#45;&gt;Node7 -->
<g id="edge29" class="edge"><title>Node16&#45;&gt;Node7</title>
<path fill="none" stroke="midnightblue" d="M539.102,-56.4435C502.546,-46.3203 442.062,-29.5711 405.626,-19.481"/>
<polygon fill="midnightblue" stroke="midnightblue" points="406.156,-15.9961 395.585,-16.7003 404.288,-22.7423 406.156,-15.9961"/>
</g>
<!-- Node16&#45;&gt;Node8 -->
<g id="edge30" class="edge"><title>Node16&#45;&gt;Node8</title>
<path fill="none" stroke="midnightblue" d="M564.716,-56.083C560.289,-48.6127 553.837,-37.7244 548.382,-28.5199"/>
<polygon fill="midnightblue" stroke="midnightblue" points="551.295,-26.5697 543.186,-19.7511 545.273,-30.1383 551.295,-26.5697"/>
</g>
<!-- Node17&#45;&gt;Node6 -->
<g id="edge33" class="edge"><title>Node17&#45;&gt;Node6</title>
<path fill="none" stroke="midnightblue" d="M623.251,-57.2649C620.124,-56.8097 617.017,-56.3823 614,-56 431.21,-32.8369 383.21,-47.3557 201,-20 199.064,-19.7094 197.084,-19.3837 195.088,-19.0333"/>
<polygon fill="midnightblue" stroke="midnightblue" points="195.602,-15.568 185.121,-17.1219 194.283,-22.4427 195.602,-15.568"/>
</g>
<!-- Node17&#45;&gt;Node7 -->
<g id="edge34" class="edge"><title>Node17&#45;&gt;Node7</title>
<path fill="none" stroke="midnightblue" d="M623.5,-56.7986C563.292,-45.7022 457.454,-26.1962 405.507,-16.6224"/>
<polygon fill="midnightblue" stroke="midnightblue" points="406.039,-13.1617 395.57,-14.7911 404.77,-20.0457 406.039,-13.1617"/>
</g>
<!-- Node17&#45;&gt;Node11 -->
<g id="edge36" class="edge"><title>Node17&#45;&gt;Node11</title>
<path fill="none" stroke="midnightblue" d="M668,-56.083C668,-49.0059 668,-38.8611 668,-29.9865"/>
<polygon fill="midnightblue" stroke="midnightblue" points="671.5,-29.751 668,-19.7511 664.5,-29.7511 671.5,-29.751"/>
</g>
<!-- Node17&#45;&gt;Node18 -->
<g id="edge35" class="edge"><title>Node17&#45;&gt;Node18</title>
<path fill="none" stroke="midnightblue" d="M680.853,-56.324C693.216,-47.979 712.13,-35.2122 726.737,-25.3524"/>
<polygon fill="midnightblue" stroke="midnightblue" points="728.848,-28.1503 735.179,-19.6545 724.932,-22.3483 728.848,-28.1503"/>
</g>
<!-- Node19&#45;&gt;Node6 -->
<g id="edge38" class="edge"><title>Node19&#45;&gt;Node6</title>
<path fill="none" stroke="midnightblue" d="M24.3999,-168.253C20.9685,-146.628 15.2398,-89.9482 42,-56 52.3795,-42.8325 92.6493,-29.2138 123.068,-20.4571"/>
<polygon fill="midnightblue" stroke="midnightblue" points="124.268,-23.7555 132.949,-17.6815 122.375,-17.0163 124.268,-23.7555"/>
</g>
</g>
</svg>
        <g id="navigator" transform="translate(0 0)" fill="#404254">
                <rect fill="#f2f5e9" fill-opacity="0.5" stroke="#606060" stroke-width=".5" x="0" y="0" width="60" height="60"/>
                <use id="zoomplus" xlink:href="#zoomPlus" x="17" y="9" onmousedown="handleZoom(evt,'in')"/>
                <use id="zoomminus" xlink:href="#zoomMin" x="42" y="9" onmousedown="handleZoom(evt,'out')"/>
                <use id="reset" xlink:href="#resetDef" x="30" y="36" onmousedown="handleReset()"/>
                <g id="arrowUp" xlink:href="#dirArrow" transform="translate(30 24)" onmousedown="handlePan(0,-1)">
                  <use xlink:href="#rim" fill="#404040">
                        <set attributeName="fill" to="#808080" begin="arrowUp.mouseover" end="arrowUp.mouseout"/>
                  </use>
                  <path fill="none" stroke="white" stroke-width="1.5" d="M0,-3.0v7 M-2.5,-0.5L0,-3.0L2.5,-0.5"/>
                </g>
                <g id="arrowRight" xlink:href="#dirArrow" transform="rotate(90) translate(36 -43)" onmousedown="handlePan(1,0)">
                  <use xlink:href="#rim" fill="#404040">
                        <set attributeName="fill" to="#808080" begin="arrowRight.mouseover" end="arrowRight.mouseout"/>
                  </use>
                  <path fill="none" stroke="white" stroke-width="1.5" d="M0,-3.0v7 M-2.5,-0.5L0,-3.0L2.5,-0.5"/>
                </g>
                <g id="arrowDown" xlink:href="#dirArrow" transform="rotate(180) translate(-30 -48)" onmousedown="handlePan(0,1)">
                  <use xlink:href="#rim" fill="#404040">
                        <set attributeName="fill" to="#808080" begin="arrowDown.mouseover" end="arrowDown.mouseout"/>
                  </use>
                  <path fill="none" stroke="white" stroke-width="1.5" d="M0,-3.0v7 M-2.5,-0.5L0,-3.0L2.5,-0.5"/>
                </g>
                <g id="arrowLeft" xlink:href="#dirArrow" transform="rotate(270) translate(-36 17)" onmousedown="handlePan(-1,0)">
                  <use xlink:href="#rim" fill="#404040">
                        <set attributeName="fill" to="#808080" begin="arrowLeft.mouseover" end="arrowLeft.mouseout"/>
                  </use>
                  <path fill="none" stroke="white" stroke-width="1.5" d="M0,-3.0v7 M-2.5,-0.5L0,-3.0L2.5,-0.5"/>
                </g>
        </g>
        <svg viewBox="0 0 15 15" width="100%" height="30px" preserveAspectRatio="xMaxYMin meet">
         <g id="arrow_out" transform="scale(0.3 0.3)">
          <a xlink:href="_model_partitioner_8cpp__incl_org.svg" target="_base">
           <rect id="button" ry="5" rx="5" y="6" x="6" height="38" width="38"
                fill="#f2f5e9" fill-opacity="0.5" stroke="#606060" stroke-width="1.0"/>
           <path id="arrow"
             d="M 11.500037,31.436501 C 11.940474,20.09759 22.043105,11.32322 32.158766,21.979434 L 37.068811,17.246167 C 37.068811,17.246167 37.088388,32 37.088388,32 L 22.160133,31.978069 C 22.160133,31.978069 26.997745,27.140456 26.997745,27.140456 C 18.528582,18.264221 13.291696,25.230495 11.500037,31.436501 z"
             style="fill:#404040;"/>
          </a>
         </g>
        </svg>
</svg>
