<?xml version="1.0" encoding="UTF-8" standalone="no"?>
<!DOCTYPE svg PUBLIC "-//W3C//DTD SVG 1.1//EN"
 "http://www.w3.org/Graphics/SVG/1.1/DTD/svg11.dtd">
<!-- Generated by graphviz version 2.36.0 (20140111.2315)
 -->
<!-- Title: /home/travis/build/robotology/wb&#45;toolbox/toolbox/include/ModelPartitioner.h Pages: 1 -->
<svg width="249pt" height="274pt"
 viewBox="0.00 0.00 249.00 274.00" xmlns="http://www.w3.org/2000/svg" xmlns:xlink="http://www.w3.org/1999/xlink">
<g id="graph0" class="graph" transform="scale(1 1) rotate(0) translate(4 270)">
<title>/home/travis/build/robotology/wb&#45;toolbox/toolbox/include/ModelPartitioner.h</title>
<!-- Node1 -->
<g id="node1" class="node"><title>Node1</title>
<polygon fill="#bfbfbf" stroke="black" points="-0.5,-224.5 -0.5,-265.5 166.5,-265.5 166.5,-224.5 -0.5,-224.5"/>
<text text-anchor="start" x="7.5" y="-253.5" font-family="Helvetica,sans-Serif" font-size="10.00">/home/travis/build</text>
<text text-anchor="start" x="7.5" y="-242.5" font-family="Helvetica,sans-Serif" font-size="10.00">/robotology/wb&#45;toolbox</text>
<text text-anchor="middle" x="83" y="-231.5" font-family="Helvetica,sans-Serif" font-size="10.00">/toolbox/include/ModelPartitioner.h</text>
</g>
<!-- Node2 -->
<g id="node2" class="node"><title>Node2</title>
<g id="a_node2"><a xlink:href="_w_b_block_8h.html" target="_top" xlink:title="WBBlock.h">
<polygon fill="none" stroke="black" points="50,-168.5 50,-187.5 116,-187.5 116,-168.5 50,-168.5"/>
<text text-anchor="middle" x="83" y="-175.5" font-family="Helvetica,sans-Serif" font-size="10.00">WBBlock.h</text>
</a>
</g>
</g>
<!-- Node1&#45;&gt;Node2 -->
<g id="edge1" class="edge"><title>Node1&#45;&gt;Node2</title>
<path fill="none" stroke="midnightblue" d="M83,-224.498C83,-216.065 83,-206.235 83,-197.874"/>
<polygon fill="midnightblue" stroke="midnightblue" points="86.5001,-197.652 83,-187.652 79.5001,-197.653 86.5001,-197.652"/>
</g>
<!-- Node5 -->
<g id="node5" class="node"><title>Node5</title>
<polygon fill="none" stroke="#bfbfbf" points="189,-0.5 189,-19.5 241,-19.5 241,-0.5 189,-0.5"/>
<text text-anchor="middle" x="215" y="-7.5" font-family="Helvetica,sans-Serif" font-size="10.00">memory</text>
</g>
<!-- Node1&#45;&gt;Node5 -->
<g id="edge11" class="edge"><title>Node1&#45;&gt;Node5</title>
<path fill="none" stroke="midnightblue" d="M105.453,-224.493C136.716,-195.698 191.995,-138.44 214,-76 219.223,-61.181 219.061,-43.2565 217.826,-29.9868"/>
<polygon fill="midnightblue" stroke="midnightblue" points="221.259,-29.2214 216.573,-19.7189 214.31,-30.0692 221.259,-29.2214"/>
</g>
<!-- Node6 -->
<g id="node6" class="node"><title>Node6</title>
<polygon fill="none" stroke="#bfbfbf" points="5.5,-0.5 5.5,-19.5 46.5,-19.5 46.5,-0.5 5.5,-0.5"/>
<text text-anchor="middle" x="26" y="-7.5" font-family="Helvetica,sans-Serif" font-size="10.00">string</text>
</g>
<!-- Node1&#45;&gt;Node6 -->
<g id="edge12" class="edge"><title>Node1&#45;&gt;Node6</title>
<path fill="none" stroke="midnightblue" d="M64.2775,-224.296C55.7774,-214.207 46.4297,-201.273 41,-188 18.8561,-133.87 21.2885,-62.8069 24.0374,-29.6023"/>
<polygon fill="midnightblue" stroke="midnightblue" points="27.5333,-29.8095 24.9832,-19.5262 20.5639,-29.1553 27.5333,-29.8095"/>
</g>
<!-- Node3 -->
<g id="node3" class="node"><title>Node3</title>
<g id="a_node3"><a xlink:href="_block_8h.html" target="_top" xlink:title="Block.h">
<polygon fill="none" stroke="black" points="58,-112.5 58,-131.5 108,-131.5 108,-112.5 58,-112.5"/>
<text text-anchor="middle" x="83" y="-119.5" font-family="Helvetica,sans-Serif" font-size="10.00">Block.h</text>
</a>
</g>
</g>
<!-- Node2&#45;&gt;Node3 -->
<g id="edge2" class="edge"><title>Node2&#45;&gt;Node3</title>
<path fill="none" stroke="midnightblue" d="M83,-168.083C83,-161.006 83,-150.861 83,-141.986"/>
<polygon fill="midnightblue" stroke="midnightblue" points="86.5001,-141.751 83,-131.751 79.5001,-141.751 86.5001,-141.751"/>
</g>
<!-- Node2&#45;&gt;Node5 -->
<g id="edge9" class="edge"><title>Node2&#45;&gt;Node5</title>
<path fill="none" stroke="midnightblue" d="M96.5311,-168.44C120.025,-152.89 168.39,-117.722 195,-76 204.027,-61.8459 209.197,-43.3628 212.009,-29.726"/>
<polygon fill="midnightblue" stroke="midnightblue" points="215.502,-30.0774 213.849,-19.6123 208.615,-28.824 215.502,-30.0774"/>
</g>
<!-- Node2&#45;&gt;Node6 -->
<g id="edge10" class="edge"><title>Node2&#45;&gt;Node6</title>
<path fill="none" stroke="midnightblue" d="M74.6247,-168.483C66.7535,-159.969 55.2723,-146.142 49,-132 33.8823,-97.9136 28.6882,-54.1201 26.9129,-29.6606"/>
<polygon fill="midnightblue" stroke="midnightblue" points="30.4023,-29.3784 26.3008,-19.6097 23.4152,-29.804 30.4023,-29.3784"/>
</g>
<!-- Node4 -->
<g id="node4" class="node"><title>Node4</title>
<g id="a_node4"><a xlink:href="_parameters_8h.html" target="_top" xlink:title="Parameters.h">
<polygon fill="none" stroke="black" points="111.5,-56.5 111.5,-75.5 186.5,-75.5 186.5,-56.5 111.5,-56.5"/>
<text text-anchor="middle" x="149" y="-63.5" font-family="Helvetica,sans-Serif" font-size="10.00">Parameters.h</text>
</a>
</g>
</g>
<!-- Node3&#45;&gt;Node4 -->
<g id="edge3" class="edge"><title>Node3&#45;&gt;Node4</title>
<path fill="none" stroke="midnightblue" d="M93.604,-112.324C103.456,-104.263 118.351,-92.0765 130.215,-82.3695"/>
<polygon fill="midnightblue" stroke="midnightblue" points="132.68,-84.8752 138.203,-75.8339 128.247,-79.4575 132.68,-84.8752"/>
</g>
<!-- Node3&#45;&gt;Node6 -->
<g id="edge7" class="edge"><title>Node3&#45;&gt;Node6</title>
<path fill="none" stroke="midnightblue" d="M78.5273,-112.368C69.2039,-94.376 47.5306,-52.5503 35.1338,-28.6267"/>
<polygon fill="midnightblue" stroke="midnightblue" points="38.1604,-26.8599 30.4519,-19.5914 31.9452,-30.0805 38.1604,-26.8599"/>
</g>
<!-- Node7 -->
<g id="node7" class="node"><title>Node7</title>
<polygon fill="none" stroke="#bfbfbf" points="94,-0.5 94,-19.5 138,-19.5 138,-0.5 94,-0.5"/>
<text text-anchor="middle" x="116" y="-7.5" font-family="Helvetica,sans-Serif" font-size="10.00">vector</text>
</g>
<!-- Node3&#45;&gt;Node7 -->
<g id="edge8" class="edge"><title>Node3&#45;&gt;Node7</title>
<path fill="none" stroke="midnightblue" d="M85.5333,-112.154C89.131,-99.634 95.9556,-76.0355 102,-56 104.662,-47.1767 107.692,-37.4058 110.25,-29.2295"/>
<polygon fill="midnightblue" stroke="midnightblue" points="113.613,-30.2026 113.272,-19.6133 106.935,-28.1042 113.613,-30.2026"/>
</g>
<!-- Node4&#45;&gt;Node5 -->
<g id="edge4" class="edge"><title>Node4&#45;&gt;Node5</title>
<path fill="none" stroke="midnightblue" d="M159.604,-56.324C169.456,-48.2631 184.351,-36.0765 196.215,-26.3695"/>
<polygon fill="midnightblue" stroke="midnightblue" points="198.68,-28.8752 204.203,-19.8339 194.247,-23.4575 198.68,-28.8752"/>
</g>
<!-- Node4&#45;&gt;Node6 -->
<g id="edge5" class="edge"><title>Node4&#45;&gt;Node6</title>
<path fill="none" stroke="midnightblue" d="M129.51,-56.4435C109.358,-47.5961 77.6771,-33.6875 54.6692,-23.5865"/>
<polygon fill="midnightblue" stroke="midnightblue" points="55.962,-20.3316 45.3985,-19.5164 53.148,-26.7411 55.962,-20.3316"/>
</g>
<!-- Node4&#45;&gt;Node7 -->
<g id="edge6" class="edge"><title>Node4&#45;&gt;Node7</title>
<path fill="none" stroke="midnightblue" d="M143.551,-56.083C138.986,-48.6127 132.332,-37.7244 126.707,-28.5199"/>
<polygon fill="midnightblue" stroke="midnightblue" points="129.549,-26.4588 121.348,-19.7511 123.576,-30.109 129.549,-26.4588"/>
</g>
</g>
</svg>
