<?xml version="1.0" encoding="UTF-8" standalone="no"?>
<!DOCTYPE svg PUBLIC "-//W3C//DTD SVG 1.1//EN"
 "http://www.w3.org/Graphics/SVG/1.1/DTD/svg11.dtd">
<!-- Generated by graphviz version 2.36.0 (20140111.2315)
 -->
<!-- Title: /home/travis/build/robotology/wb&#45;toolbox/toolbox/src/sharedlibpp/examples/MyMathCustom.cpp Pages: 1 -->
<svg width="468pt" height="310pt"
 viewBox="0.00 0.00 468.00 310.00" xmlns="http://www.w3.org/2000/svg" xmlns:xlink="http://www.w3.org/1999/xlink">
<g id="graph0" class="graph" transform="scale(1 1) rotate(0) translate(4 306)">
<title>/home/travis/build/robotology/wb&#45;toolbox/toolbox/src/sharedlibpp/examples/MyMathCustom.cpp</title>
<!-- Node1 -->
<g id="node1" class="node"><title>Node1</title>
<polygon fill="#bfbfbf" stroke="black" points="104.5,-249 104.5,-301 257.5,-301 257.5,-249 104.5,-249"/>
<text text-anchor="start" x="112.5" y="-289" font-family="Helvetica,sans-Serif" font-size="10.00">/home/travis/build</text>
<text text-anchor="start" x="112.5" y="-278" font-family="Helvetica,sans-Serif" font-size="10.00">/robotology/wb&#45;toolbox</text>
<text text-anchor="start" x="112.5" y="-267" font-family="Helvetica,sans-Serif" font-size="10.00">/toolbox/src/sharedlibpp</text>
<text text-anchor="middle" x="181" y="-256" font-family="Helvetica,sans-Serif" font-size="10.00">/examples/MyMathCustom.cpp</text>
</g>
<!-- Node2 -->
<g id="node2" class="node"><title>Node2</title>
<g id="a_node2"><a xlink:href="_my_math_custom_8h.html" target="_top" xlink:title="MyMathCustom.h">
<polygon fill="none" stroke="black" points="64.5,-192.5 64.5,-211.5 159.5,-211.5 159.5,-192.5 64.5,-192.5"/>
<text text-anchor="middle" x="112" y="-199.5" font-family="Helvetica,sans-Serif" font-size="10.00">MyMathCustom.h</text>
</a>
</g>
</g>
<!-- Node1&#45;&gt;Node2 -->
<g id="edge1" class="edge"><title>Node1&#45;&gt;Node2</title>
<path fill="none" stroke="midnightblue" d="M156.479,-248.768C146.87,-238.881 136.131,-227.831 127.613,-219.066"/>
<polygon fill="midnightblue" stroke="midnightblue" points="129.99,-216.489 120.51,-211.757 124.97,-221.368 129.99,-216.489"/>
</g>
<!-- Node4 -->
<g id="node4" class="node"><title>Node4</title>
<g id="a_node4"><a xlink:href="_shared_library_class_8h.html" target="_top" xlink:title="shlibpp/SharedLibraryClass.h">
<polygon fill="none" stroke="black" points="178,-192.5 178,-211.5 322,-211.5 322,-192.5 178,-192.5"/>
<text text-anchor="middle" x="250" y="-199.5" font-family="Helvetica,sans-Serif" font-size="10.00">shlibpp/SharedLibraryClass.h</text>
</a>
</g>
</g>
<!-- Node1&#45;&gt;Node4 -->
<g id="edge3" class="edge"><title>Node1&#45;&gt;Node4</title>
<path fill="none" stroke="midnightblue" d="M205.521,-248.768C215.13,-238.881 225.869,-227.831 234.387,-219.066"/>
<polygon fill="midnightblue" stroke="midnightblue" points="237.03,-221.368 241.49,-211.757 232.01,-216.489 237.03,-221.368"/>
</g>
<!-- Node3 -->
<g id="node3" class="node"><title>Node3</title>
<polygon fill="none" stroke="#bfbfbf" points="84,-130.5 84,-149.5 140,-149.5 140,-130.5 84,-130.5"/>
<text text-anchor="middle" x="112" y="-137.5" font-family="Helvetica,sans-Serif" font-size="10.00">cinttypes</text>
</g>
<!-- Node2&#45;&gt;Node3 -->
<g id="edge2" class="edge"><title>Node2&#45;&gt;Node3</title>
<path fill="none" stroke="midnightblue" d="M112,-192.403C112,-183.938 112,-170.728 112,-159.82"/>
<polygon fill="midnightblue" stroke="midnightblue" points="115.5,-159.581 112,-149.581 108.5,-159.581 115.5,-159.581"/>
</g>
<!-- Node5 -->
<g id="node5" class="node"><title>Node5</title>
<g id="a_node5"><a xlink:href="_shared_library_class_factory_8h.html" target="_top" xlink:title="shlibpp/SharedLibraryClass\lFactory.h">
<polygon fill="none" stroke="black" points="170,-125 170,-155 306,-155 306,-125 170,-125"/>
<text text-anchor="start" x="178" y="-143" font-family="Helvetica,sans-Serif" font-size="10.00">shlibpp/SharedLibraryClass</text>
<text text-anchor="middle" x="238" y="-132" font-family="Helvetica,sans-Serif" font-size="10.00">Factory.h</text>
</a>
</g>
</g>
<!-- Node4&#45;&gt;Node5 -->
<g id="edge4" class="edge"><title>Node4&#45;&gt;Node5</title>
<path fill="none" stroke="midnightblue" d="M248.281,-192.403C246.853,-185.265 244.75,-174.752 242.818,-165.09"/>
<polygon fill="midnightblue" stroke="midnightblue" points="246.221,-164.26 240.828,-155.141 239.357,-165.633 246.221,-164.26"/>
</g>
<!-- Node13 -->
<g id="node13" class="node"><title>Node13</title>
<g id="a_node13"><a xlink:href="_shared_library_class-inl_8h.html" target="_top" xlink:title="shlibpp/SharedLibraryClass\l&#45;inl.h">
<polygon fill="none" stroke="black" points="324,-125 324,-155 460,-155 460,-125 324,-125"/>
<text text-anchor="start" x="332" y="-143" font-family="Helvetica,sans-Serif" font-size="10.00">shlibpp/SharedLibraryClass</text>
<text text-anchor="middle" x="392" y="-132" font-family="Helvetica,sans-Serif" font-size="10.00">&#45;inl.h</text>
</a>
</g>
</g>
<!-- Node4&#45;&gt;Node13 -->
<g id="edge13" class="edge"><title>Node4&#45;&gt;Node13</title>
<path fill="none" stroke="midnightblue" d="M270.345,-192.403C290.904,-183.717 323.285,-170.035 349.472,-158.969"/>
<polygon fill="midnightblue" stroke="midnightblue" points="350.958,-162.142 358.807,-155.025 348.233,-155.694 350.958,-162.142"/>
</g>
<!-- Node6 -->
<g id="node6" class="node"><title>Node6</title>
<g id="a_node6"><a xlink:href="_shared_library_factory_8h.html" target="_top" xlink:title="shlibpp/SharedLibraryFactory.h">
<polygon fill="none" stroke="black" points="0,-62.5 0,-81.5 152,-81.5 152,-62.5 0,-62.5"/>
<text text-anchor="middle" x="76" y="-69.5" font-family="Helvetica,sans-Serif" font-size="10.00">shlibpp/SharedLibraryFactory.h</text>
</a>
</g>
</g>
<!-- Node5&#45;&gt;Node6 -->
<g id="edge5" class="edge"><title>Node5&#45;&gt;Node6</title>
<path fill="none" stroke="midnightblue" d="M203.247,-124.841C174.597,-113.169 134.34,-96.7681 106.825,-85.5585"/>
<polygon fill="midnightblue" stroke="midnightblue" points="107.892,-82.2136 97.3101,-81.6819 105.25,-88.6962 107.892,-82.2136"/>
</g>
<!-- Node9 -->
<g id="node9" class="node"><title>Node9</title>
<g id="a_node9"><a xlink:href="_shared_library_class_api_8h.html" target="_top" xlink:title="shlibpp/SharedLibraryClass\lApi.h">
<polygon fill="none" stroke="black" points="170,-57 170,-87 306,-87 306,-57 170,-57"/>
<text text-anchor="start" x="178" y="-75" font-family="Helvetica,sans-Serif" font-size="10.00">shlibpp/SharedLibraryClass</text>
<text text-anchor="middle" x="238" y="-64" font-family="Helvetica,sans-Serif" font-size="10.00">Api.h</text>
</a>
</g>
</g>
<!-- Node5&#45;&gt;Node9 -->
<g id="edge8" class="edge"><title>Node5&#45;&gt;Node9</title>
<path fill="none" stroke="midnightblue" d="M238,-124.679C238,-116.722 238,-106.605 238,-97.4356"/>
<polygon fill="midnightblue" stroke="midnightblue" points="241.5,-97.293 238,-87.2931 234.5,-97.2931 241.5,-97.293"/>
</g>
<!-- Node12 -->
<g id="node12" class="node"><title>Node12</title>
<g id="a_node12"><a xlink:href="_shared_library_class_factory-inl_8h.html" target="_top" xlink:title="shlibpp/SharedLibraryClass\lFactory&#45;inl.h">
<polygon fill="none" stroke="black" points="324,-57 324,-87 460,-87 460,-57 324,-57"/>
<text text-anchor="start" x="332" y="-75" font-family="Helvetica,sans-Serif" font-size="10.00">shlibpp/SharedLibraryClass</text>
<text text-anchor="middle" x="392" y="-64" font-family="Helvetica,sans-Serif" font-size="10.00">Factory&#45;inl.h</text>
</a>
</g>
</g>
<!-- Node5&#45;&gt;Node12 -->
<g id="edge12" class="edge"><title>Node5&#45;&gt;Node12</title>
<path fill="none" stroke="midnightblue" d="M271.037,-124.841C294.155,-114.933 325.225,-101.618 350.087,-90.9626"/>
<polygon fill="midnightblue" stroke="midnightblue" points="351.47,-94.1781 359.282,-87.0218 348.712,-87.7441 351.47,-94.1781"/>
</g>
<!-- Node7 -->
<g id="node7" class="node"><title>Node7</title>
<g id="a_node7"><a xlink:href="api_8h.html" target="_top" xlink:title="shlibpp/api.h">
<polygon fill="none" stroke="black" points="106.5,-0.5 106.5,-19.5 177.5,-19.5 177.5,-0.5 106.5,-0.5"/>
<text text-anchor="middle" x="142" y="-7.5" font-family="Helvetica,sans-Serif" font-size="10.00">shlibpp/api.h</text>
</a>
</g>
</g>
<!-- Node6&#45;&gt;Node7 -->
<g id="edge6" class="edge"><title>Node6&#45;&gt;Node7</title>
<path fill="none" stroke="midnightblue" d="M85.4562,-62.4035C95.7483,-53.047 112.416,-37.8948 124.994,-26.4599"/>
<polygon fill="midnightblue" stroke="midnightblue" points="127.516,-28.8971 132.561,-19.5806 122.808,-23.7176 127.516,-28.8971"/>
</g>
<!-- Node8 -->
<g id="node8" class="node"><title>Node8</title>
<polygon fill="none" stroke="#bfbfbf" points="47.5,-0.5 47.5,-19.5 88.5,-19.5 88.5,-0.5 47.5,-0.5"/>
<text text-anchor="middle" x="68" y="-7.5" font-family="Helvetica,sans-Serif" font-size="10.00">string</text>
</g>
<!-- Node6&#45;&gt;Node8 -->
<g id="edge7" class="edge"><title>Node6&#45;&gt;Node8</title>
<path fill="none" stroke="midnightblue" d="M74.8538,-62.4035C73.7251,-53.9381 71.9638,-40.7283 70.5093,-29.8199"/>
<polygon fill="midnightblue" stroke="midnightblue" points="73.9351,-29.0303 69.1441,-19.5806 66.9965,-29.9555 73.9351,-29.0303"/>
</g>
<!-- Node9&#45;&gt;Node7 -->
<g id="edge9" class="edge"><title>Node9&#45;&gt;Node7</title>
<path fill="none" stroke="midnightblue" d="M215.249,-56.7808C199.913,-47.1958 179.77,-34.6062 164.489,-25.0555"/>
<polygon fill="midnightblue" stroke="midnightblue" points="166.024,-21.8877 155.689,-19.5557 162.314,-27.8237 166.024,-21.8877"/>
</g>
<!-- Node10 -->
<g id="node10" class="node"><title>Node10</title>
<polygon fill="none" stroke="#bfbfbf" points="195.5,-0.5 195.5,-19.5 280.5,-19.5 280.5,-0.5 195.5,-0.5"/>
<text text-anchor="middle" x="238" y="-7.5" font-family="Helvetica,sans-Serif" font-size="10.00">shlibpp/config.h</text>
</g>
<!-- Node9&#45;&gt;Node10 -->
<g id="edge10" class="edge"><title>Node9&#45;&gt;Node10</title>
<path fill="none" stroke="midnightblue" d="M238,-56.7808C238,-48.7812 238,-38.6887 238,-30.0168"/>
<polygon fill="midnightblue" stroke="midnightblue" points="241.5,-29.7305 238,-19.7305 234.5,-29.7306 241.5,-29.7305"/>
</g>
<!-- Node11 -->
<g id="node11" class="node"><title>Node11</title>
<polygon fill="none" stroke="#bfbfbf" points="299,-0.5 299,-19.5 345,-19.5 345,-0.5 299,-0.5"/>
<text text-anchor="middle" x="322" y="-7.5" font-family="Helvetica,sans-Serif" font-size="10.00">cstring</text>
</g>
<!-- Node9&#45;&gt;Node11 -->
<g id="edge11" class="edge"><title>Node9&#45;&gt;Node11</title>
<path fill="none" stroke="midnightblue" d="M257.907,-56.7808C270.994,-47.4329 288.082,-35.2273 301.322,-25.77"/>
<polygon fill="midnightblue" stroke="midnightblue" points="303.674,-28.391 309.777,-19.7305 299.606,-22.6949 303.674,-28.391"/>
</g>
</g>
</svg>
