<?xml version="1.0" encoding="UTF-8" standalone="no"?>
<!DOCTYPE svg PUBLIC "-//W3C//DTD SVG 1.1//EN"
 "http://www.w3.org/Graphics/SVG/1.1/DTD/svg11.dtd">
<!-- Generated by graphviz version 2.43.0 (0)
 -->
<!-- Title: /home/runner/work/wb&#45;toolbox/wb&#45;toolbox/toolbox/library/src/OSQP.cpp Pages: 1 -->
<!--zoomable 162 -->
<svg id="main" version="1.1" xmlns="http://www.w3.org/2000/svg" xmlns:xlink="http://www.w3.org/1999/xlink" xml:space="preserve" onload="init(evt)">
<style type="text/css"><![CDATA[
.edge:hover path { stroke: red; }
.edge:hover polygon { stroke: red; fill: red; }
]]></style>
<script type="text/javascript"><![CDATA[
var edges = document.getElementsByTagName('g');
if (edges && edges.length) {
  for (var i=0;i<edges.length;i++) {
    if (edges[i].id.substr(0,4)=='edge') {
      edges[i].setAttribute('class','edge');
    }
  }
}
]]></script>
        <defs>
                <circle id="rim" cx="0" cy="0" r="7"/>
                <circle id="rim2" cx="0" cy="0" r="3.5"/>
                <g id="zoomPlus">
                        <use xlink:href="#rim" fill="#404040">
                                <set attributeName="fill" to="#808080" begin="zoomplus.mouseover" end="zoomplus.mouseout"/>
                        </use>
                        <path d="M-4,0h8M0,-4v8" fill="none" stroke="white" stroke-width="1.5" pointer-events="none"/>
                </g>
                <g id="zoomMin">
                        <use xlink:href="#rim" fill="#404040">
                                <set attributeName="fill" to="#808080" begin="zoomminus.mouseover" end="zoomminus.mouseout"/>
                        </use>
                        <path d="M-4,0h8" fill="none" stroke="white" stroke-width="1.5" pointer-events="none"/>
                </g>
                <g id="dirArrow">
                        <path fill="none" stroke="white" stroke-width="1.5" d="M0,-3.0v7 M-2.5,-0.5L0,-3.0L2.5,-0.5"/>
                </g>
               <g id="resetDef">
                       <use xlink:href="#rim2" fill="#404040">
                               <set attributeName="fill" to="#808080" begin="reset.mouseover" end="reset.mouseout"/>
                       </use>
               </g>
        </defs>

<script type="text/javascript">
var viewWidth = 1793;
var viewHeight = 162;
var sectionId = 'dynsection-0';
</script>
<script xlink:href="svgpan.js"/>
<svg id="graph" class="graph">
<g id="viewport">
<title>/home/runner/work/wb&#45;toolbox/wb&#45;toolbox/toolbox/library/src/OSQP.cpp</title>
<!-- Node1 -->
<g id="node1" class="node">
<title>Node1</title>
<g id="a_node1"><a xlink:title=" ">
<polygon fill="#bfbfbf" stroke="black" points="1080,-112.5 1080,-153.5 1235,-153.5 1235,-112.5 1080,-112.5"/>
<text text-anchor="start" x="1088" y="-141.5" font-family="Helvetica,sans-Serif" font-size="10.00">/home/runner/work/wb</text>
<text text-anchor="start" x="1088" y="-130.5" font-family="Helvetica,sans-Serif" font-size="10.00">&#45;toolbox/wb&#45;toolbox/toolbox</text>
<text text-anchor="middle" x="1157.5" y="-119.5" font-family="Helvetica,sans-Serif" font-size="10.00">/library/src/OSQP.cpp</text>
</a>
</g>
</g>
<!-- Node2 -->
<g id="node2" class="node">
<title>Node2</title>
<g id="a_node2"><a xlink:href="_o_s_q_p_8h.html" target="_top" xlink:title=" ">
<polygon fill="none" stroke="black" points="121.5,-56.5 121.5,-75.5 259.5,-75.5 259.5,-56.5 121.5,-56.5"/>
<text text-anchor="middle" x="190.5" y="-63.5" font-family="Helvetica,sans-Serif" font-size="10.00">WBToolbox/Block/OSQP.h</text>
</a>
</g>
</g>
<!-- Node1&#45;&gt;Node2 -->
<g id="edge1" class="edge">
<title>Node1&#45;&gt;Node2</title>
<path fill="none" stroke="midnightblue" d="M1079.81,-128.47C926.9,-121.21 575.91,-103.1 270.2,-76.11"/>
<polygon fill="midnightblue" stroke="midnightblue" points="270.07,-72.58 259.8,-75.19 269.45,-79.56 270.07,-72.58"/>
</g>
<!-- Node6 -->
<g id="node6" class="node">
<title>Node6</title>
<g id="a_node6"><a xlink:title=" ">
<polygon fill="none" stroke="#bfbfbf" points="277.5,-56.5 277.5,-75.5 477.5,-75.5 477.5,-56.5 277.5,-56.5"/>
<text text-anchor="middle" x="377.5" y="-63.5" font-family="Helvetica,sans-Serif" font-size="10.00">BlockFactory/Core/BlockInformation.h</text>
</a>
</g>
</g>
<!-- Node1&#45;&gt;Node6 -->
<g id="edge5" class="edge">
<title>Node1&#45;&gt;Node6</title>
<path fill="none" stroke="midnightblue" d="M1079.86,-125.53C940.63,-113.93 648.13,-89.55 488.02,-76.21"/>
<polygon fill="midnightblue" stroke="midnightblue" points="487.92,-72.69 477.67,-75.35 487.34,-79.67 487.92,-72.69"/>
</g>
<!-- Node7 -->
<g id="node7" class="node">
<title>Node7</title>
<g id="a_node7"><a xlink:title=" ">
<polygon fill="none" stroke="#bfbfbf" points="495.5,-56.5 495.5,-75.5 629.5,-75.5 629.5,-56.5 495.5,-56.5"/>
<text text-anchor="middle" x="562.5" y="-63.5" font-family="Helvetica,sans-Serif" font-size="10.00">BlockFactory/Core/Log.h</text>
</a>
</g>
</g>
<!-- Node1&#45;&gt;Node7 -->
<g id="edge6" class="edge">
<title>Node1&#45;&gt;Node7</title>
<path fill="none" stroke="midnightblue" d="M1079.66,-123.86C980.2,-113.39 802.44,-94.5 639.83,-76.14"/>
<polygon fill="midnightblue" stroke="midnightblue" points="639.96,-72.63 629.63,-74.99 639.18,-79.59 639.96,-72.63"/>
</g>
<!-- Node8 -->
<g id="node8" class="node">
<title>Node8</title>
<g id="a_node8"><a xlink:title=" ">
<polygon fill="none" stroke="#bfbfbf" points="647.5,-56.5 647.5,-75.5 813.5,-75.5 813.5,-56.5 647.5,-56.5"/>
<text text-anchor="middle" x="730.5" y="-63.5" font-family="Helvetica,sans-Serif" font-size="10.00">BlockFactory/Core/Parameter.h</text>
</a>
</g>
</g>
<!-- Node1&#45;&gt;Node8 -->
<g id="edge7" class="edge">
<title>Node1&#45;&gt;Node8</title>
<path fill="none" stroke="midnightblue" d="M1079.68,-120.15C998.53,-107.8 872.72,-88.65 796.34,-77.02"/>
<polygon fill="midnightblue" stroke="midnightblue" points="796.77,-73.55 786.36,-75.5 795.72,-80.47 796.77,-73.55"/>
</g>
<!-- Node9 -->
<g id="node9" class="node">
<title>Node9</title>
<g id="a_node9"><a xlink:title=" ">
<polygon fill="none" stroke="#bfbfbf" points="831.5,-56.5 831.5,-75.5 1003.5,-75.5 1003.5,-56.5 831.5,-56.5"/>
<text text-anchor="middle" x="917.5" y="-63.5" font-family="Helvetica,sans-Serif" font-size="10.00">BlockFactory/Core/Parameters.h</text>
</a>
</g>
</g>
<!-- Node1&#45;&gt;Node9 -->
<g id="edge8" class="edge">
<title>Node1&#45;&gt;Node9</title>
<path fill="none" stroke="midnightblue" d="M1085.49,-112.5C1044.15,-101.3 993.7,-87.64 958.94,-78.22"/>
<polygon fill="midnightblue" stroke="midnightblue" points="959.7,-74.8 949.13,-75.57 957.87,-81.56 959.7,-74.8"/>
</g>
<!-- Node10 -->
<g id="node10" class="node">
<title>Node10</title>
<g id="a_node10"><a xlink:title=" ">
<polygon fill="none" stroke="#bfbfbf" points="1021.5,-56.5 1021.5,-75.5 1167.5,-75.5 1167.5,-56.5 1021.5,-56.5"/>
<text text-anchor="middle" x="1094.5" y="-63.5" font-family="Helvetica,sans-Serif" font-size="10.00">BlockFactory/Core/Signal.h</text>
</a>
</g>
</g>
<!-- Node1&#45;&gt;Node10 -->
<g id="edge9" class="edge">
<title>Node1&#45;&gt;Node10</title>
<path fill="none" stroke="midnightblue" d="M1138.6,-112.5C1129.5,-103.11 1118.71,-91.98 1110.09,-83.08"/>
<polygon fill="midnightblue" stroke="midnightblue" points="1112.36,-80.4 1102.89,-75.65 1107.33,-85.27 1112.36,-80.4"/>
</g>
<!-- Node11 -->
<g id="node11" class="node">
<title>Node11</title>
<g id="a_node11"><a xlink:title=" ">
<polygon fill="none" stroke="#bfbfbf" points="1186,-56.5 1186,-75.5 1255,-75.5 1255,-56.5 1186,-56.5"/>
<text text-anchor="middle" x="1220.5" y="-63.5" font-family="Helvetica,sans-Serif" font-size="10.00">Eigen/Core</text>
</a>
</g>
</g>
<!-- Node1&#45;&gt;Node11 -->
<g id="edge10" class="edge">
<title>Node1&#45;&gt;Node11</title>
<path fill="none" stroke="midnightblue" d="M1176.4,-112.5C1185.5,-103.11 1196.29,-91.98 1204.91,-83.08"/>
<polygon fill="midnightblue" stroke="midnightblue" points="1207.67,-85.27 1212.11,-75.65 1202.64,-80.4 1207.67,-85.27"/>
</g>
<!-- Node12 -->
<g id="node12" class="node">
<title>Node12</title>
<g id="a_node12"><a xlink:title=" ">
<polygon fill="none" stroke="#bfbfbf" points="1273,-56.5 1273,-75.5 1414,-75.5 1414,-56.5 1273,-56.5"/>
<text text-anchor="middle" x="1343.5" y="-63.5" font-family="Helvetica,sans-Serif" font-size="10.00">OsqpEigen/Constants.hpp</text>
</a>
</g>
</g>
<!-- Node1&#45;&gt;Node12 -->
<g id="edge11" class="edge">
<title>Node1&#45;&gt;Node12</title>
<path fill="none" stroke="midnightblue" d="M1213.31,-112.5C1244.43,-101.62 1282.2,-88.42 1309.03,-79.05"/>
<polygon fill="midnightblue" stroke="midnightblue" points="1310.46,-82.26 1318.74,-75.65 1308.15,-75.65 1310.46,-82.26"/>
</g>
<!-- Node13 -->
<g id="node13" class="node">
<title>Node13</title>
<g id="a_node13"><a xlink:title=" ">
<polygon fill="none" stroke="#bfbfbf" points="1432.5,-56.5 1432.5,-75.5 1564.5,-75.5 1564.5,-56.5 1432.5,-56.5"/>
<text text-anchor="middle" x="1498.5" y="-63.5" font-family="Helvetica,sans-Serif" font-size="10.00">OsqpEigen/OsqpEigen.h</text>
</a>
</g>
</g>
<!-- Node1&#45;&gt;Node13 -->
<g id="edge12" class="edge">
<title>Node1&#45;&gt;Node13</title>
<path fill="none" stroke="midnightblue" d="M1235.3,-117.17C1298.78,-105.07 1386.87,-88.28 1443.29,-77.52"/>
<polygon fill="midnightblue" stroke="midnightblue" points="1444.27,-80.9 1453.44,-75.59 1442.96,-74.02 1444.27,-80.9"/>
</g>
<!-- Node14 -->
<g id="node14" class="node">
<title>Node14</title>
<g id="a_node14"><a xlink:title=" ">
<polygon fill="none" stroke="#bfbfbf" points="1582.5,-56.5 1582.5,-75.5 1650.5,-75.5 1650.5,-56.5 1582.5,-56.5"/>
<text text-anchor="middle" x="1616.5" y="-63.5" font-family="Helvetica,sans-Serif" font-size="10.00">osqp/util.h</text>
</a>
</g>
</g>
<!-- Node1&#45;&gt;Node14 -->
<g id="edge13" class="edge">
<title>Node1&#45;&gt;Node14</title>
<path fill="none" stroke="midnightblue" d="M1235.19,-123.25C1316.74,-113.67 1448.88,-97.07 1572.27,-76.11"/>
<polygon fill="midnightblue" stroke="midnightblue" points="1573.01,-79.53 1582.28,-74.4 1571.83,-72.63 1573.01,-79.53"/>
</g>
<!-- Node15 -->
<g id="node15" class="node">
<title>Node15</title>
<g id="a_node15"><a xlink:title=" ">
<polygon fill="none" stroke="#bfbfbf" points="1669,-56.5 1669,-75.5 1726,-75.5 1726,-56.5 1669,-56.5"/>
<text text-anchor="middle" x="1697.5" y="-63.5" font-family="Helvetica,sans-Serif" font-size="10.00">ostream</text>
</a>
</g>
</g>
<!-- Node1&#45;&gt;Node15 -->
<g id="edge14" class="edge">
<title>Node1&#45;&gt;Node15</title>
<path fill="none" stroke="midnightblue" d="M1235.31,-126.27C1332.21,-118.47 1502.92,-102.57 1658.7,-75.93"/>
<polygon fill="midnightblue" stroke="midnightblue" points="1659.69,-79.31 1668.94,-74.16 1658.49,-72.41 1659.69,-79.31"/>
</g>
<!-- Node16 -->
<g id="node16" class="node">
<title>Node16</title>
<g id="a_node16"><a xlink:title=" ">
<polygon fill="none" stroke="#bfbfbf" points="1744,-56.5 1744,-75.5 1785,-75.5 1785,-56.5 1744,-56.5"/>
<text text-anchor="middle" x="1764.5" y="-63.5" font-family="Helvetica,sans-Serif" font-size="10.00">tuple</text>
</a>
</g>
</g>
<!-- Node1&#45;&gt;Node16 -->
<g id="edge15" class="edge">
<title>Node1&#45;&gt;Node16</title>
<path fill="none" stroke="midnightblue" d="M1235.37,-129.5C1345.06,-124.86 1551.22,-112.06 1733.68,-76.02"/>
<polygon fill="midnightblue" stroke="midnightblue" points="1734.61,-79.4 1743.72,-74.01 1733.23,-72.54 1734.61,-79.4"/>
</g>
<!-- Node3 -->
<g id="node3" class="node">
<title>Node3</title>
<g id="a_node3"><a xlink:title=" ">
<polygon fill="none" stroke="#bfbfbf" points="0,-0.5 0,-19.5 143,-19.5 143,-0.5 0,-0.5"/>
<text text-anchor="middle" x="71.5" y="-7.5" font-family="Helvetica,sans-Serif" font-size="10.00">BlockFactory/Core/Block.h</text>
</a>
</g>
</g>
<!-- Node2&#45;&gt;Node3 -->
<g id="edge2" class="edge">
<title>Node2&#45;&gt;Node3</title>
<path fill="none" stroke="midnightblue" d="M171.64,-56.44C152.23,-47.64 121.77,-33.81 99.54,-23.72"/>
<polygon fill="midnightblue" stroke="midnightblue" points="100.82,-20.46 90.27,-19.52 97.93,-26.84 100.82,-20.46"/>
</g>
<!-- Node4 -->
<g id="node4" class="node">
<title>Node4</title>
<g id="a_node4"><a xlink:title=" ">
<polygon fill="none" stroke="#bfbfbf" points="161.5,-0.5 161.5,-19.5 219.5,-19.5 219.5,-0.5 161.5,-0.5"/>
<text text-anchor="middle" x="190.5" y="-7.5" font-family="Helvetica,sans-Serif" font-size="10.00">memory</text>
</a>
</g>
</g>
<!-- Node2&#45;&gt;Node4 -->
<g id="edge3" class="edge">
<title>Node2&#45;&gt;Node4</title>
<path fill="none" stroke="midnightblue" d="M190.5,-56.08C190.5,-49.01 190.5,-38.86 190.5,-29.99"/>
<polygon fill="midnightblue" stroke="midnightblue" points="194,-29.75 190.5,-19.75 187,-29.75 194,-29.75"/>
</g>
<!-- Node5 -->
<g id="node5" class="node">
<title>Node5</title>
<g id="a_node5"><a xlink:title=" ">
<polygon fill="none" stroke="#bfbfbf" points="237.5,-0.5 237.5,-19.5 281.5,-19.5 281.5,-0.5 237.5,-0.5"/>
<text text-anchor="middle" x="259.5" y="-7.5" font-family="Helvetica,sans-Serif" font-size="10.00">string</text>
</a>
</g>
</g>
<!-- Node2&#45;&gt;Node5 -->
<g id="edge4" class="edge">
<title>Node2&#45;&gt;Node5</title>
<path fill="none" stroke="midnightblue" d="M201.59,-56.32C211.99,-48.18 227.76,-35.84 240.22,-26.09"/>
<polygon fill="midnightblue" stroke="midnightblue" points="242.49,-28.75 248.21,-19.83 238.18,-23.24 242.49,-28.75"/>
</g>
</g>
</svg>
        <g id="navigator" transform="translate(0 0)" fill="#404254">
                <rect fill="#f2f5e9" fill-opacity="0.5" stroke="#606060" stroke-width=".5" x="0" y="0" width="60" height="60"/>
                <use id="zoomplus" xlink:href="#zoomPlus" x="17" y="9" onmousedown="handleZoom(evt,'in')"/>
                <use id="zoomminus" xlink:href="#zoomMin" x="42" y="9" onmousedown="handleZoom(evt,'out')"/>
                <use id="reset" xlink:href="#resetDef" x="30" y="36" onmousedown="handleReset()"/>
                <g id="arrowUp" xlink:href="#dirArrow" transform="translate(30 24)" onmousedown="handlePan(0,-1)">
                  <use xlink:href="#rim" fill="#404040">
                        <set attributeName="fill" to="#808080" begin="arrowUp.mouseover" end="arrowUp.mouseout"/>
                  </use>
                  <path fill="none" stroke="white" stroke-width="1.5" d="M0,-3.0v7 M-2.5,-0.5L0,-3.0L2.5,-0.5"/>
                </g>
                <g id="arrowRight" xlink:href="#dirArrow" transform="rotate(90) translate(36 -43)" onmousedown="handlePan(1,0)">
                  <use xlink:href="#rim" fill="#404040">
                        <set attributeName="fill" to="#808080" begin="arrowRight.mouseover" end="arrowRight.mouseout"/>
                  </use>
                  <path fill="none" stroke="white" stroke-width="1.5" d="M0,-3.0v7 M-2.5,-0.5L0,-3.0L2.5,-0.5"/>
                </g>
                <g id="arrowDown" xlink:href="#dirArrow" transform="rotate(180) translate(-30 -48)" onmousedown="handlePan(0,1)">
                  <use xlink:href="#rim" fill="#404040">
                        <set attributeName="fill" to="#808080" begin="arrowDown.mouseover" end="arrowDown.mouseout"/>
                  </use>
                  <path fill="none" stroke="white" stroke-width="1.5" d="M0,-3.0v7 M-2.5,-0.5L0,-3.0L2.5,-0.5"/>
                </g>
                <g id="arrowLeft" xlink:href="#dirArrow" transform="rotate(270) translate(-36 17)" onmousedown="handlePan(-1,0)">
                  <use xlink:href="#rim" fill="#404040">
                        <set attributeName="fill" to="#808080" begin="arrowLeft.mouseover" end="arrowLeft.mouseout"/>
                  </use>
                  <path fill="none" stroke="white" stroke-width="1.5" d="M0,-3.0v7 M-2.5,-0.5L0,-3.0L2.5,-0.5"/>
                </g>
        </g>
        <svg viewBox="0 0 15 15" width="100%" height="30px" preserveAspectRatio="xMaxYMin meet">
         <g id="arrow_out" transform="scale(0.3 0.3)">
          <a xlink:href="_o_s_q_p_8cpp__incl_org.svg" target="_base">
           <rect id="button" ry="5" rx="5" y="6" x="6" height="38" width="38"
                fill="#f2f5e9" fill-opacity="0.5" stroke="#606060" stroke-width="1.0"/>
           <path id="arrow"
             d="M 11.500037,31.436501 C 11.940474,20.09759 22.043105,11.32322 32.158766,21.979434 L 37.068811,17.246167 C 37.068811,17.246167 37.088388,32 37.088388,32 L 22.160133,31.978069 C 22.160133,31.978069 26.997745,27.140456 26.997745,27.140456 C 18.528582,18.264221 13.291696,25.230495 11.500037,31.436501 z"
             style="fill:#404040;"/>
          </a>
         </g>
        </svg>
</svg>
