<?xml version="1.0" encoding="UTF-8" standalone="no"?>
<!DOCTYPE svg PUBLIC "-//W3C//DTD SVG 1.1//EN"
 "http://www.w3.org/Graphics/SVG/1.1/DTD/svg11.dtd">
<!-- Generated by graphviz version 2.36.0 (20140111.2315)
 -->
<!-- Title: /home/travis/build/robotology/wb&#45;toolbox/toolbox/include/base/Parameter.h Pages: 1 -->
<svg width="3909pt" height="242pt"
 viewBox="0.00 0.00 3909.00 242.00" xmlns="http://www.w3.org/2000/svg" xmlns:xlink="http://www.w3.org/1999/xlink">
<g id="graph0" class="graph" transform="scale(1 1) rotate(0) translate(4 238)">
<title>/home/travis/build/robotology/wb&#45;toolbox/toolbox/include/base/Parameter.h</title>
<!-- Node1 -->
<g id="node1" class="node"><title>Node1</title>
<polygon fill="#bfbfbf" stroke="black" points="1739.5,-181 1739.5,-233 1854.5,-233 1854.5,-181 1739.5,-181"/>
<text text-anchor="start" x="1747.5" y="-221" font-family="Helvetica,sans-Serif" font-size="10.00">/home/travis/build</text>
<text text-anchor="start" x="1747.5" y="-210" font-family="Helvetica,sans-Serif" font-size="10.00">/robotology/wb&#45;toolbox</text>
<text text-anchor="start" x="1747.5" y="-199" font-family="Helvetica,sans-Serif" font-size="10.00">/toolbox/include/base</text>
<text text-anchor="middle" x="1797" y="-188" font-family="Helvetica,sans-Serif" font-size="10.00">/Parameter.h</text>
</g>
<!-- Node2 -->
<g id="node2" class="node"><title>Node2</title>
<g id="a_node2"><a xlink:href="_simulink_block_information_8h.html" target="_top" xlink:title="/home/travis/build\l/robotology/wb&#45;toolbox\l/toolbox/include/base\l/SimulinkBlockInformation.h">
<polygon fill="none" stroke="black" points="102.5,-91 102.5,-143 241.5,-143 241.5,-91 102.5,-91"/>
<text text-anchor="start" x="110.5" y="-131" font-family="Helvetica,sans-Serif" font-size="10.00">/home/travis/build</text>
<text text-anchor="start" x="110.5" y="-120" font-family="Helvetica,sans-Serif" font-size="10.00">/robotology/wb&#45;toolbox</text>
<text text-anchor="start" x="110.5" y="-109" font-family="Helvetica,sans-Serif" font-size="10.00">/toolbox/include/base</text>
<text text-anchor="middle" x="172" y="-98" font-family="Helvetica,sans-Serif" font-size="10.00">/SimulinkBlockInformation.h</text>
</a>
</g>
</g>
<!-- Node1&#45;&gt;Node2 -->
<g id="edge1" class="edge"><title>Node1&#45;&gt;Node2</title>
<path fill="none" stroke="midnightblue" d="M1729.03,-205.609C1470.09,-203.758 545.393,-193.733 256,-144 251.336,-143.198 246.57,-142.21 241.794,-141.091"/>
<polygon fill="midnightblue" stroke="midnightblue" points="1729.39,-209.112 1739.41,-205.682 1729.44,-202.112 1729.39,-209.112"/>
</g>
<!-- Node3 -->
<g id="node3" class="node"><title>Node3</title>
<g id="a_node3"><a xlink:href="_simulink_block_information_8cpp.html" target="_top" xlink:title="/home/travis/build\l/robotology/wb&#45;toolbox\l/toolbox/src/base/SimulinkBlock\lInformation.cpp">
<polygon fill="none" stroke="black" points="-0.5,-1 -0.5,-53 156.5,-53 156.5,-1 -0.5,-1"/>
<text text-anchor="start" x="7.5" y="-41" font-family="Helvetica,sans-Serif" font-size="10.00">/home/travis/build</text>
<text text-anchor="start" x="7.5" y="-30" font-family="Helvetica,sans-Serif" font-size="10.00">/robotology/wb&#45;toolbox</text>
<text text-anchor="start" x="7.5" y="-19" font-family="Helvetica,sans-Serif" font-size="10.00">/toolbox/src/base/SimulinkBlock</text>
<text text-anchor="middle" x="78" y="-8" font-family="Helvetica,sans-Serif" font-size="10.00">Information.cpp</text>
</a>
</g>
</g>
<!-- Node1&#45;&gt;Node3 -->
<g id="edge8" class="edge"><title>Node1&#45;&gt;Node3</title>
<path fill="none" stroke="midnightblue" d="M1729.05,-205.958C1419.4,-205.459 154.407,-199.99 93,-144 68.3909,-121.562 69.1562,-80.2662 72.8845,-53.4828"/>
<polygon fill="midnightblue" stroke="midnightblue" points="1729.22,-209.458 1739.22,-205.973 1729.23,-202.458 1729.22,-209.458"/>
</g>
<!-- Node4 -->
<g id="node4" class="node"><title>Node4</title>
<g id="a_node4"><a xlink:href="_w_b_toolbox_8cpp.html" target="_top" xlink:title="/home/travis/build\l/robotology/wb&#45;toolbox\l/toolbox/src/base/WBToolbox.cpp">
<polygon fill="none" stroke="black" points="183,-6.5 183,-47.5 347,-47.5 347,-6.5 183,-6.5"/>
<text text-anchor="start" x="191" y="-35.5" font-family="Helvetica,sans-Serif" font-size="10.00">/home/travis/build</text>
<text text-anchor="start" x="191" y="-24.5" font-family="Helvetica,sans-Serif" font-size="10.00">/robotology/wb&#45;toolbox</text>
<text text-anchor="middle" x="265" y="-13.5" font-family="Helvetica,sans-Serif" font-size="10.00">/toolbox/src/base/WBToolbox.cpp</text>
</a>
</g>
</g>
<!-- Node1&#45;&gt;Node4 -->
<g id="edge10" class="edge"><title>Node1&#45;&gt;Node4</title>
<path fill="none" stroke="midnightblue" d="M1729.14,-205.516C1442.69,-203.18 344.554,-191.167 289,-144 261.252,-120.441 260.401,-74.0065 262.519,-47.5915"/>
<polygon fill="midnightblue" stroke="midnightblue" points="1729.36,-209.018 1739.39,-205.598 1729.42,-202.018 1729.36,-209.018"/>
</g>
<!-- Node5 -->
<g id="node5" class="node"><title>Node5</title>
<g id="a_node5"><a xlink:href="_block_8cpp.html" target="_top" xlink:title="/home/travis/build\l/robotology/wb&#45;toolbox\l/toolbox/src/base/Block.cpp">
<polygon fill="none" stroke="black" points="298,-96.5 298,-137.5 436,-137.5 436,-96.5 298,-96.5"/>
<text text-anchor="start" x="306" y="-125.5" font-family="Helvetica,sans-Serif" font-size="10.00">/home/travis/build</text>
<text text-anchor="start" x="306" y="-114.5" font-family="Helvetica,sans-Serif" font-size="10.00">/robotology/wb&#45;toolbox</text>
<text text-anchor="middle" x="367" y="-103.5" font-family="Helvetica,sans-Serif" font-size="10.00">/toolbox/src/base/Block.cpp</text>
</a>
</g>
</g>
<!-- Node1&#45;&gt;Node5 -->
<g id="edge4" class="edge"><title>Node1&#45;&gt;Node5</title>
<path fill="none" stroke="midnightblue" d="M1729.15,-205.358C1491.17,-202.719 695.39,-190.544 445,-144 436.439,-142.409 427.53,-140.1 418.924,-137.505"/>
<polygon fill="midnightblue" stroke="midnightblue" points="1729.35,-208.86 1739.39,-205.469 1729.42,-201.86 1729.35,-208.86"/>
</g>
<!-- Node6 -->
<g id="node6" class="node"><title>Node6</title>
<g id="a_node6"><a xlink:href="_coder_block_information_8cpp.html" target="_top" xlink:title="/home/travis/build\l/robotology/wb&#45;toolbox\l/toolbox/src/base/CoderBlock\lInformation.cpp">
<polygon fill="none" stroke="black" points="454,-91 454,-143 600,-143 600,-91 454,-91"/>
<text text-anchor="start" x="462" y="-131" font-family="Helvetica,sans-Serif" font-size="10.00">/home/travis/build</text>
<text text-anchor="start" x="462" y="-120" font-family="Helvetica,sans-Serif" font-size="10.00">/robotology/wb&#45;toolbox</text>
<text text-anchor="start" x="462" y="-109" font-family="Helvetica,sans-Serif" font-size="10.00">/toolbox/src/base/CoderBlock</text>
<text text-anchor="middle" x="527" y="-98" font-family="Helvetica,sans-Serif" font-size="10.00">Information.cpp</text>
</a>
</g>
</g>
<!-- Node1&#45;&gt;Node6 -->
<g id="edge5" class="edge"><title>Node1&#45;&gt;Node6</title>
<path fill="none" stroke="midnightblue" d="M1729.43,-204.735C1511.16,-200.294 826.537,-183.494 609,-144 606.061,-143.466 603.081,-142.858 600.084,-142.188"/>
<polygon fill="midnightblue" stroke="midnightblue" points="1729.4,-208.235 1739.47,-204.937 1729.54,-201.236 1729.4,-208.235"/>
</g>
<!-- Node7 -->
<g id="node7" class="node"><title>Node7</title>
<g id="a_node7"><a xlink:href="_parameter_8cpp.html" target="_top" xlink:title="/home/travis/build\l/robotology/wb&#45;toolbox\l/toolbox/src/base/Parameter.cpp">
<polygon fill="none" stroke="black" points="618,-96.5 618,-137.5 776,-137.5 776,-96.5 618,-96.5"/>
<text text-anchor="start" x="626" y="-125.5" font-family="Helvetica,sans-Serif" font-size="10.00">/home/travis/build</text>
<text text-anchor="start" x="626" y="-114.5" font-family="Helvetica,sans-Serif" font-size="10.00">/robotology/wb&#45;toolbox</text>
<text text-anchor="middle" x="697" y="-103.5" font-family="Helvetica,sans-Serif" font-size="10.00">/toolbox/src/base/Parameter.cpp</text>
</a>
</g>
</g>
<!-- Node1&#45;&gt;Node7 -->
<g id="edge6" class="edge"><title>Node1&#45;&gt;Node7</title>
<path fill="none" stroke="midnightblue" d="M1729.02,-203.84C1532.68,-197.283 967.233,-176.077 785,-144 775.743,-142.371 766.079,-140.111 756.687,-137.599"/>
<polygon fill="midnightblue" stroke="midnightblue" points="1729.09,-207.344 1739.2,-204.178 1729.32,-200.348 1729.09,-207.344"/>
</g>
<!-- Node8 -->
<g id="node8" class="node"><title>Node8</title>
<g id="a_node8"><a xlink:href="_parameters_8cpp.html" target="_top" xlink:title="/home/travis/build\l/robotology/wb&#45;toolbox\l/toolbox/src/base/Parameters.cpp">
<polygon fill="none" stroke="black" points="794,-96.5 794,-137.5 958,-137.5 958,-96.5 794,-96.5"/>
<text text-anchor="start" x="802" y="-125.5" font-family="Helvetica,sans-Serif" font-size="10.00">/home/travis/build</text>
<text text-anchor="start" x="802" y="-114.5" font-family="Helvetica,sans-Serif" font-size="10.00">/robotology/wb&#45;toolbox</text>
<text text-anchor="middle" x="876" y="-103.5" font-family="Helvetica,sans-Serif" font-size="10.00">/toolbox/src/base/Parameters.cpp</text>
</a>
</g>
</g>
<!-- Node1&#45;&gt;Node8 -->
<g id="edge7" class="edge"><title>Node1&#45;&gt;Node8</title>
<path fill="none" stroke="midnightblue" d="M1729.17,-205.519C1586.94,-203.507 1247.55,-193.439 968,-144 958.52,-142.324 948.614,-140.072 938.96,-137.592"/>
<polygon fill="midnightblue" stroke="midnightblue" points="1729.42,-209.023 1739.47,-205.656 1729.52,-202.023 1729.42,-209.023"/>
</g>
<!-- Node9 -->
<g id="node9" class="node"><title>Node9</title>
<g id="a_node9"><a xlink:href="_w_b_block_8cpp.html" target="_top" xlink:title="/home/travis/build\l/robotology/wb&#45;toolbox\l/toolbox/src/base/WBBlock.cpp">
<polygon fill="none" stroke="black" points="976.5,-96.5 976.5,-137.5 1131.5,-137.5 1131.5,-96.5 976.5,-96.5"/>
<text text-anchor="start" x="984.5" y="-125.5" font-family="Helvetica,sans-Serif" font-size="10.00">/home/travis/build</text>
<text text-anchor="start" x="984.5" y="-114.5" font-family="Helvetica,sans-Serif" font-size="10.00">/robotology/wb&#45;toolbox</text>
<text text-anchor="middle" x="1054" y="-103.5" font-family="Helvetica,sans-Serif" font-size="10.00">/toolbox/src/base/WBBlock.cpp</text>
</a>
</g>
</g>
<!-- Node1&#45;&gt;Node9 -->
<g id="edge9" class="edge"><title>Node1&#45;&gt;Node9</title>
<path fill="none" stroke="midnightblue" d="M1729.31,-203.974C1609.62,-199.423 1353.21,-185.323 1141,-144 1132.18,-142.283 1122.97,-140.041 1113.99,-137.594"/>
<polygon fill="midnightblue" stroke="midnightblue" points="1729.3,-207.476 1739.43,-204.348 1729.56,-200.481 1729.3,-207.476"/>
</g>
<!-- Node10 -->
<g id="node10" class="node"><title>Node10</title>
<g id="a_node10"><a xlink:href="_discrete_filter_8cpp.html" target="_top" xlink:title="/home/travis/build\l/robotology/wb&#45;toolbox\l/toolbox/src/DiscreteFilter.cpp">
<polygon fill="none" stroke="black" points="1150,-96.5 1150,-137.5 1298,-137.5 1298,-96.5 1150,-96.5"/>
<text text-anchor="start" x="1158" y="-125.5" font-family="Helvetica,sans-Serif" font-size="10.00">/home/travis/build</text>
<text text-anchor="start" x="1158" y="-114.5" font-family="Helvetica,sans-Serif" font-size="10.00">/robotology/wb&#45;toolbox</text>
<text text-anchor="middle" x="1224" y="-103.5" font-family="Helvetica,sans-Serif" font-size="10.00">/toolbox/src/DiscreteFilter.cpp</text>
</a>
</g>
</g>
<!-- Node1&#45;&gt;Node10 -->
<g id="edge11" class="edge"><title>Node1&#45;&gt;Node10</title>
<path fill="none" stroke="midnightblue" d="M1729.19,-201.154C1634.2,-193.518 1456.49,-176.137 1308,-144 1299.64,-142.192 1290.93,-139.93 1282.4,-137.501"/>
<polygon fill="midnightblue" stroke="midnightblue" points="1728.99,-204.649 1739.24,-201.95 1729.54,-197.671 1728.99,-204.649"/>
</g>
<!-- Node11 -->
<g id="node11" class="node"><title>Node11</title>
<g id="a_node11"><a xlink:href="_dot_j_nu_8cpp.html" target="_top" xlink:title="/home/travis/build\l/robotology/wb&#45;toolbox\l/toolbox/src/DotJNu.cpp">
<polygon fill="none" stroke="black" points="1316.5,-96.5 1316.5,-137.5 1439.5,-137.5 1439.5,-96.5 1316.5,-96.5"/>
<text text-anchor="start" x="1324.5" y="-125.5" font-family="Helvetica,sans-Serif" font-size="10.00">/home/travis/build</text>
<text text-anchor="start" x="1324.5" y="-114.5" font-family="Helvetica,sans-Serif" font-size="10.00">/robotology/wb&#45;toolbox</text>
<text text-anchor="middle" x="1378" y="-103.5" font-family="Helvetica,sans-Serif" font-size="10.00">/toolbox/src/DotJNu.cpp</text>
</a>
</g>
</g>
<!-- Node1&#45;&gt;Node11 -->
<g id="edge12" class="edge"><title>Node1&#45;&gt;Node11</title>
<path fill="none" stroke="midnightblue" d="M1729.25,-197.504C1658.55,-187.81 1544.86,-169.877 1449,-144 1442.16,-142.153 1435.04,-139.928 1428.07,-137.567"/>
<polygon fill="midnightblue" stroke="midnightblue" points="1728.98,-201 1739.36,-198.875 1729.92,-194.063 1728.98,-201"/>
</g>
<!-- Node12 -->
<g id="node12" class="node"><title>Node12</title>
<g id="a_node12"><a xlink:href="_forward_kinematics_8cpp.html" target="_top" xlink:title="/home/travis/build\l/robotology/wb&#45;toolbox\l/toolbox/src/ForwardKinematics.cpp">
<polygon fill="none" stroke="black" points="1457.5,-96.5 1457.5,-137.5 1630.5,-137.5 1630.5,-96.5 1457.5,-96.5"/>
<text text-anchor="start" x="1465.5" y="-125.5" font-family="Helvetica,sans-Serif" font-size="10.00">/home/travis/build</text>
<text text-anchor="start" x="1465.5" y="-114.5" font-family="Helvetica,sans-Serif" font-size="10.00">/robotology/wb&#45;toolbox</text>
<text text-anchor="middle" x="1544" y="-103.5" font-family="Helvetica,sans-Serif" font-size="10.00">/toolbox/src/ForwardKinematics.cpp</text>
</a>
</g>
</g>
<!-- Node1&#45;&gt;Node12 -->
<g id="edge13" class="edge"><title>Node1&#45;&gt;Node12</title>
<path fill="none" stroke="midnightblue" d="M1729.76,-182.613C1689.33,-168.548 1638.45,-150.853 1600.17,-137.538"/>
<polygon fill="midnightblue" stroke="midnightblue" points="1728.68,-185.942 1739.27,-185.921 1730.98,-179.33 1728.68,-185.942"/>
</g>
<!-- Node13 -->
<g id="node13" class="node"><title>Node13</title>
<g id="a_node13"><a xlink:href="_get_limits_8cpp.html" target="_top" xlink:title="/home/travis/build\l/robotology/wb&#45;toolbox\l/toolbox/src/GetLimits.cpp">
<polygon fill="none" stroke="black" points="1648.5,-96.5 1648.5,-137.5 1779.5,-137.5 1779.5,-96.5 1648.5,-96.5"/>
<text text-anchor="start" x="1656.5" y="-125.5" font-family="Helvetica,sans-Serif" font-size="10.00">/home/travis/build</text>
<text text-anchor="start" x="1656.5" y="-114.5" font-family="Helvetica,sans-Serif" font-size="10.00">/robotology/wb&#45;toolbox</text>
<text text-anchor="middle" x="1714" y="-103.5" font-family="Helvetica,sans-Serif" font-size="10.00">/toolbox/src/GetLimits.cpp</text>
</a>
</g>
</g>
<!-- Node1&#45;&gt;Node13 -->
<g id="edge14" class="edge"><title>Node1&#45;&gt;Node13</title>
<path fill="none" stroke="midnightblue" d="M1766.12,-173.254C1754.78,-161.237 1742.31,-148.019 1732.42,-137.525"/>
<polygon fill="midnightblue" stroke="midnightblue" points="1763.59,-175.674 1772.99,-180.547 1768.68,-170.871 1763.59,-175.674"/>
</g>
<!-- Node14 -->
<g id="node14" class="node"><title>Node14</title>
<g id="a_node14"><a xlink:href="_get_measurement_8cpp.html" target="_top" xlink:title="/home/travis/build\l/robotology/wb&#45;toolbox\l/toolbox/src/GetMeasurement.cpp">
<polygon fill="none" stroke="black" points="1798,-96.5 1798,-137.5 1962,-137.5 1962,-96.5 1798,-96.5"/>
<text text-anchor="start" x="1806" y="-125.5" font-family="Helvetica,sans-Serif" font-size="10.00">/home/travis/build</text>
<text text-anchor="start" x="1806" y="-114.5" font-family="Helvetica,sans-Serif" font-size="10.00">/robotology/wb&#45;toolbox</text>
<text text-anchor="middle" x="1880" y="-103.5" font-family="Helvetica,sans-Serif" font-size="10.00">/toolbox/src/GetMeasurement.cpp</text>
</a>
</g>
</g>
<!-- Node1&#45;&gt;Node14 -->
<g id="edge15" class="edge"><title>Node1&#45;&gt;Node14</title>
<path fill="none" stroke="midnightblue" d="M1827.88,-173.254C1839.22,-161.237 1851.69,-148.019 1861.58,-137.525"/>
<polygon fill="midnightblue" stroke="midnightblue" points="1825.32,-170.871 1821.01,-180.547 1830.41,-175.674 1825.32,-170.871"/>
</g>
<!-- Node15 -->
<g id="node15" class="node"><title>Node15</title>
<g id="a_node15"><a xlink:href="_jacobian_8cpp.html" target="_top" xlink:title="/home/travis/build\l/robotology/wb&#45;toolbox\l/toolbox/src/Jacobian.cpp">
<polygon fill="none" stroke="black" points="1980,-96.5 1980,-137.5 2108,-137.5 2108,-96.5 1980,-96.5"/>
<text text-anchor="start" x="1988" y="-125.5" font-family="Helvetica,sans-Serif" font-size="10.00">/home/travis/build</text>
<text text-anchor="start" x="1988" y="-114.5" font-family="Helvetica,sans-Serif" font-size="10.00">/robotology/wb&#45;toolbox</text>
<text text-anchor="middle" x="2044" y="-103.5" font-family="Helvetica,sans-Serif" font-size="10.00">/toolbox/src/Jacobian.cpp</text>
</a>
</g>
</g>
<!-- Node1&#45;&gt;Node15 -->
<g id="edge16" class="edge"><title>Node1&#45;&gt;Node15</title>
<path fill="none" stroke="midnightblue" d="M1864.32,-182.016C1903.41,-168.088 1952.05,-150.76 1988.86,-137.645"/>
<polygon fill="midnightblue" stroke="midnightblue" points="1862.84,-178.826 1854.6,-185.479 1865.19,-185.42 1862.84,-178.826"/>
</g>
<!-- Node16 -->
<g id="node16" class="node"><title>Node16</title>
<g id="a_node16"><a xlink:href="_minimum_jerk_trajectory_generator_8cpp.html" target="_top" xlink:title="/home/travis/build\l/robotology/wb&#45;toolbox\l/toolbox/src/MinimumJerkTrajectory\lGenerator.cpp">
<polygon fill="none" stroke="black" points="2126.5,-91 2126.5,-143 2299.5,-143 2299.5,-91 2126.5,-91"/>
<text text-anchor="start" x="2134.5" y="-131" font-family="Helvetica,sans-Serif" font-size="10.00">/home/travis/build</text>
<text text-anchor="start" x="2134.5" y="-120" font-family="Helvetica,sans-Serif" font-size="10.00">/robotology/wb&#45;toolbox</text>
<text text-anchor="start" x="2134.5" y="-109" font-family="Helvetica,sans-Serif" font-size="10.00">/toolbox/src/MinimumJerkTrajectory</text>
<text text-anchor="middle" x="2213" y="-98" font-family="Helvetica,sans-Serif" font-size="10.00">Generator.cpp</text>
</a>
</g>
</g>
<!-- Node1&#45;&gt;Node16 -->
<g id="edge17" class="edge"><title>Node1&#45;&gt;Node16</title>
<path fill="none" stroke="midnightblue" d="M1864.9,-194.331C1929.89,-182.812 2030.53,-164.058 2117,-144 2120.11,-143.278 2123.28,-142.525 2126.47,-141.748"/>
<polygon fill="midnightblue" stroke="midnightblue" points="1864.03,-190.931 1854.79,-196.116 1865.24,-197.825 1864.03,-190.931"/>
</g>
<!-- Node17 -->
<g id="node17" class="node"><title>Node17</title>
<g id="a_node17"><a xlink:href="_model_partitioner_8cpp.html" target="_top" xlink:title="/home/travis/build\l/robotology/wb&#45;toolbox\l/toolbox/src/ModelPartitioner.cpp">
<polygon fill="none" stroke="black" points="2318,-96.5 2318,-137.5 2478,-137.5 2478,-96.5 2318,-96.5"/>
<text text-anchor="start" x="2326" y="-125.5" font-family="Helvetica,sans-Serif" font-size="10.00">/home/travis/build</text>
<text text-anchor="start" x="2326" y="-114.5" font-family="Helvetica,sans-Serif" font-size="10.00">/robotology/wb&#45;toolbox</text>
<text text-anchor="middle" x="2398" y="-103.5" font-family="Helvetica,sans-Serif" font-size="10.00">/toolbox/src/ModelPartitioner.cpp</text>
</a>
</g>
</g>
<!-- Node1&#45;&gt;Node17 -->
<g id="edge18" class="edge"><title>Node1&#45;&gt;Node17</title>
<path fill="none" stroke="midnightblue" d="M1864.68,-201.266C1963.04,-193.602 2150.9,-176.006 2308,-144 2316.77,-142.214 2325.92,-139.996 2334.89,-137.613"/>
<polygon fill="midnightblue" stroke="midnightblue" points="1864.28,-197.786 1854.58,-202.042 1864.81,-204.765 1864.28,-197.786"/>
</g>
<!-- Node18 -->
<g id="node18" class="node"><title>Node18</title>
<g id="a_node18"><a xlink:href="_qp_oases_8cpp.html" target="_top" xlink:title="/home/travis/build\l/robotology/wb&#45;toolbox\l/toolbox/src/QpOases.cpp">
<polygon fill="none" stroke="black" points="2496.5,-96.5 2496.5,-137.5 2627.5,-137.5 2627.5,-96.5 2496.5,-96.5"/>
<text text-anchor="start" x="2504.5" y="-125.5" font-family="Helvetica,sans-Serif" font-size="10.00">/home/travis/build</text>
<text text-anchor="start" x="2504.5" y="-114.5" font-family="Helvetica,sans-Serif" font-size="10.00">/robotology/wb&#45;toolbox</text>
<text text-anchor="middle" x="2562" y="-103.5" font-family="Helvetica,sans-Serif" font-size="10.00">/toolbox/src/QpOases.cpp</text>
</a>
</g>
</g>
<!-- Node1&#45;&gt;Node18 -->
<g id="edge19" class="edge"><title>Node1&#45;&gt;Node18</title>
<path fill="none" stroke="midnightblue" d="M1864.65,-205.368C1989.19,-203.007 2262.54,-192.231 2487,-144 2494.81,-142.321 2502.94,-140.068 2510.83,-137.587"/>
<polygon fill="midnightblue" stroke="midnightblue" points="1864.44,-201.871 1854.5,-205.548 1864.56,-208.87 1864.44,-201.871"/>
</g>
<!-- Node19 -->
<g id="node19" class="node"><title>Node19</title>
<g id="a_node19"><a xlink:href="_real_time_synchronizer_8cpp.html" target="_top" xlink:title="/home/travis/build\l/robotology/wb&#45;toolbox\l/toolbox/src/RealTimeSynchronizer.cpp">
<polygon fill="none" stroke="black" points="2646,-96.5 2646,-137.5 2834,-137.5 2834,-96.5 2646,-96.5"/>
<text text-anchor="start" x="2654" y="-125.5" font-family="Helvetica,sans-Serif" font-size="10.00">/home/travis/build</text>
<text text-anchor="start" x="2654" y="-114.5" font-family="Helvetica,sans-Serif" font-size="10.00">/robotology/wb&#45;toolbox</text>
<text text-anchor="middle" x="2740" y="-103.5" font-family="Helvetica,sans-Serif" font-size="10.00">/toolbox/src/RealTimeSynchronizer.cpp</text>
</a>
</g>
</g>
<!-- Node1&#45;&gt;Node19 -->
<g id="edge20" class="edge"><title>Node1&#45;&gt;Node19</title>
<path fill="none" stroke="midnightblue" d="M1865,-204.912C2008.4,-201.756 2351.99,-189.65 2636,-144 2646.66,-142.287 2657.82,-140.016 2668.72,-137.527"/>
<polygon fill="midnightblue" stroke="midnightblue" points="1864.54,-201.421 1854.61,-205.133 1864.69,-208.419 1864.54,-201.421"/>
</g>
<!-- Node20 -->
<g id="node20" class="node"><title>Node20</title>
<g id="a_node20"><a xlink:href="_relative_transform_8cpp.html" target="_top" xlink:title="/home/travis/build\l/robotology/wb&#45;toolbox\l/toolbox/src/RelativeTransform.cpp">
<polygon fill="none" stroke="black" points="2852,-96.5 2852,-137.5 3022,-137.5 3022,-96.5 2852,-96.5"/>
<text text-anchor="start" x="2860" y="-125.5" font-family="Helvetica,sans-Serif" font-size="10.00">/home/travis/build</text>
<text text-anchor="start" x="2860" y="-114.5" font-family="Helvetica,sans-Serif" font-size="10.00">/robotology/wb&#45;toolbox</text>
<text text-anchor="middle" x="2937" y="-103.5" font-family="Helvetica,sans-Serif" font-size="10.00">/toolbox/src/RelativeTransform.cpp</text>
</a>
</g>
</g>
<!-- Node1&#45;&gt;Node20 -->
<g id="edge21" class="edge"><title>Node1&#45;&gt;Node20</title>
<path fill="none" stroke="midnightblue" d="M1864.82,-203.848C2065.41,-197.186 2653.6,-175.446 2843,-144 2852.94,-142.35 2863.34,-140.062 2873.44,-137.523"/>
<polygon fill="midnightblue" stroke="midnightblue" points="1864.59,-200.353 1854.71,-204.181 1864.82,-207.349 1864.59,-200.353"/>
</g>
<!-- Node21 -->
<g id="node21" class="node"><title>Node21</title>
<g id="a_node21"><a xlink:href="_set_motor_parameters_8cpp.html" target="_top" xlink:title="/home/travis/build\l/robotology/wb&#45;toolbox\l/toolbox/src/SetMotorParameters.cpp">
<polygon fill="none" stroke="black" points="3040.5,-96.5 3040.5,-137.5 3219.5,-137.5 3219.5,-96.5 3040.5,-96.5"/>
<text text-anchor="start" x="3048.5" y="-125.5" font-family="Helvetica,sans-Serif" font-size="10.00">/home/travis/build</text>
<text text-anchor="start" x="3048.5" y="-114.5" font-family="Helvetica,sans-Serif" font-size="10.00">/robotology/wb&#45;toolbox</text>
<text text-anchor="middle" x="3130" y="-103.5" font-family="Helvetica,sans-Serif" font-size="10.00">/toolbox/src/SetMotorParameters.cpp</text>
</a>
</g>
</g>
<!-- Node1&#45;&gt;Node21 -->
<g id="edge22" class="edge"><title>Node1&#45;&gt;Node21</title>
<path fill="none" stroke="midnightblue" d="M1865.17,-204.43C2089.5,-198.973 2803.42,-179.214 3031,-144 3041.54,-142.37 3052.57,-140.075 3063.29,-137.518"/>
<polygon fill="midnightblue" stroke="midnightblue" points="1864.77,-200.939 1854.86,-204.679 1864.94,-207.937 1864.77,-200.939"/>
</g>
<!-- Node22 -->
<g id="node22" class="node"><title>Node22</title>
<g id="a_node22"><a xlink:href="_set_references_8cpp.html" target="_top" xlink:title="/home/travis/build\l/robotology/wb&#45;toolbox\l/toolbox/src/SetReferences.cpp">
<polygon fill="none" stroke="black" points="3237.5,-96.5 3237.5,-137.5 3392.5,-137.5 3392.5,-96.5 3237.5,-96.5"/>
<text text-anchor="start" x="3245.5" y="-125.5" font-family="Helvetica,sans-Serif" font-size="10.00">/home/travis/build</text>
<text text-anchor="start" x="3245.5" y="-114.5" font-family="Helvetica,sans-Serif" font-size="10.00">/robotology/wb&#45;toolbox</text>
<text text-anchor="middle" x="3315" y="-103.5" font-family="Helvetica,sans-Serif" font-size="10.00">/toolbox/src/SetReferences.cpp</text>
</a>
</g>
</g>
<!-- Node1&#45;&gt;Node22 -->
<g id="edge23" class="edge"><title>Node1&#45;&gt;Node22</title>
<path fill="none" stroke="midnightblue" d="M1865,-205.278C2111.96,-202.308 2960.87,-188.989 3228,-144 3237.33,-142.429 3247.06,-140.166 3256.5,-137.622"/>
<polygon fill="midnightblue" stroke="midnightblue" points="1864.69,-201.781 1854.74,-205.399 1864.78,-208.78 1864.69,-201.781"/>
</g>
<!-- Node23 -->
<g id="node23" class="node"><title>Node23</title>
<g id="a_node23"><a xlink:href="_simulator_synchronizer_8cpp.html" target="_top" xlink:title="/home/travis/build\l/robotology/wb&#45;toolbox\l/toolbox/src/SimulatorSynchronizer.cpp">
<polygon fill="none" stroke="black" points="3411,-96.5 3411,-137.5 3599,-137.5 3599,-96.5 3411,-96.5"/>
<text text-anchor="start" x="3419" y="-125.5" font-family="Helvetica,sans-Serif" font-size="10.00">/home/travis/build</text>
<text text-anchor="start" x="3419" y="-114.5" font-family="Helvetica,sans-Serif" font-size="10.00">/robotology/wb&#45;toolbox</text>
<text text-anchor="middle" x="3505" y="-103.5" font-family="Helvetica,sans-Serif" font-size="10.00">/toolbox/src/SimulatorSynchronizer.cpp</text>
</a>
</g>
</g>
<!-- Node1&#45;&gt;Node23 -->
<g id="edge24" class="edge"><title>Node1&#45;&gt;Node23</title>
<path fill="none" stroke="midnightblue" d="M1865.02,-205.24C2130.53,-201.982 3097.45,-187.337 3401,-144 3412.15,-142.409 3423.83,-140.117 3435.18,-137.546"/>
<polygon fill="midnightblue" stroke="midnightblue" points="1864.71,-201.743 1854.75,-205.364 1864.8,-208.742 1864.71,-201.743"/>
</g>
<!-- Node24 -->
<g id="node24" class="node"><title>Node24</title>
<g id="a_node24"><a xlink:href="_yarp_read_8cpp.html" target="_top" xlink:title="/home/travis/build\l/robotology/wb&#45;toolbox\l/toolbox/src/YarpRead.cpp">
<polygon fill="none" stroke="black" points="3617.5,-96.5 3617.5,-137.5 3750.5,-137.5 3750.5,-96.5 3617.5,-96.5"/>
<text text-anchor="start" x="3625.5" y="-125.5" font-family="Helvetica,sans-Serif" font-size="10.00">/home/travis/build</text>
<text text-anchor="start" x="3625.5" y="-114.5" font-family="Helvetica,sans-Serif" font-size="10.00">/robotology/wb&#45;toolbox</text>
<text text-anchor="middle" x="3684" y="-103.5" font-family="Helvetica,sans-Serif" font-size="10.00">/toolbox/src/YarpRead.cpp</text>
</a>
</g>
</g>
<!-- Node1&#45;&gt;Node24 -->
<g id="edge25" class="edge"><title>Node1&#45;&gt;Node24</title>
<path fill="none" stroke="midnightblue" d="M1865.19,-206.349C2152.34,-207.407 3264.17,-207.25 3608,-144 3616.37,-142.461 3625.06,-140.179 3633.45,-137.596"/>
<polygon fill="midnightblue" stroke="midnightblue" points="1864.94,-202.848 1854.92,-206.31 1864.91,-209.848 1864.94,-202.848"/>
</g>
<!-- Node25 -->
<g id="node25" class="node"><title>Node25</title>
<g id="a_node25"><a xlink:href="_yarp_write_8cpp.html" target="_top" xlink:title="/home/travis/build\l/robotology/wb&#45;toolbox\l/toolbox/src/YarpWrite.cpp">
<polygon fill="none" stroke="black" points="3768.5,-96.5 3768.5,-137.5 3901.5,-137.5 3901.5,-96.5 3768.5,-96.5"/>
<text text-anchor="start" x="3776.5" y="-125.5" font-family="Helvetica,sans-Serif" font-size="10.00">/home/travis/build</text>
<text text-anchor="start" x="3776.5" y="-114.5" font-family="Helvetica,sans-Serif" font-size="10.00">/robotology/wb&#45;toolbox</text>
<text text-anchor="middle" x="3835" y="-103.5" font-family="Helvetica,sans-Serif" font-size="10.00">/toolbox/src/YarpWrite.cpp</text>
</a>
</g>
</g>
<!-- Node1&#45;&gt;Node25 -->
<g id="edge26" class="edge"><title>Node1&#45;&gt;Node25</title>
<path fill="none" stroke="midnightblue" d="M1865.11,-205.05C2189.49,-200.364 3569.86,-178.537 3759,-144 3767.37,-142.472 3776.06,-140.196 3784.46,-137.615"/>
<polygon fill="midnightblue" stroke="midnightblue" points="1864.87,-201.553 1854.92,-205.197 1864.97,-208.552 1864.87,-201.553"/>
</g>
<!-- Node2&#45;&gt;Node3 -->
<g id="edge2" class="edge"><title>Node2&#45;&gt;Node3</title>
<path fill="none" stroke="midnightblue" d="M137.453,-83.6584C126.727,-73.6172 115.069,-62.7029 104.941,-53.221"/>
<polygon fill="midnightblue" stroke="midnightblue" points="135.371,-86.5035 145.063,-90.7827 140.155,-81.3934 135.371,-86.5035"/>
</g>
<!-- Node2&#45;&gt;Node4 -->
<g id="edge3" class="edge"><title>Node2&#45;&gt;Node4</title>
<path fill="none" stroke="midnightblue" d="M206.247,-83.5943C219.042,-71.4868 233.171,-58.118 244.366,-47.5249"/>
<polygon fill="midnightblue" stroke="midnightblue" points="203.758,-81.1313 198.899,-90.5468 208.569,-86.2159 203.758,-81.1313"/>
</g>
</g>
</svg>
