<?xml version="1.0" encoding="UTF-8" standalone="no"?>
<!DOCTYPE svg PUBLIC "-//W3C//DTD SVG 1.1//EN"
 "http://www.w3.org/Graphics/SVG/1.1/DTD/svg11.dtd">
<!-- Generated by graphviz version 2.36.0 (20140111.2315)
 -->
<!-- Title: /home/travis/build/robotology/wb&#45;toolbox/toolbox/src/core/include/Core/Parameter.h Pages: 1 -->
<!--zoomable 242 -->
<svg id="main" version="1.1" xmlns="http://www.w3.org/2000/svg" xmlns:xlink="http://www.w3.org/1999/xlink" xml:space="preserve" onload="init(evt)">
<style type="text/css"><![CDATA[
.edge:hover path { stroke: red; }
.edge:hover polygon { stroke: red; fill: red; }
]]></style>
<script type="text/javascript"><![CDATA[
var edges = document.getElementsByTagName('g');
if (edges && edges.length) {
  for (var i=0;i<edges.length;i++) {
    if (edges[i].id.substr(0,4)=='edge') {
      edges[i].setAttribute('class','edge');
    }
  }
}
]]></script>
        <defs>
                <circle id="rim" cx="0" cy="0" r="7"/>
                <circle id="rim2" cx="0" cy="0" r="3.5"/>
                <g id="zoomPlus">
                        <use xlink:href="#rim" fill="#404040">
                                <set attributeName="fill" to="#808080" begin="zoomplus.mouseover" end="zoomplus.mouseout"/>
                        </use>
                        <path d="M-4,0h8M0,-4v8" fill="none" stroke="white" stroke-width="1.5" pointer-events="none"/>
                </g>
                <g id="zoomMin">
                        <use xlink:href="#rim" fill="#404040">
                                <set attributeName="fill" to="#808080" begin="zoomminus.mouseover" end="zoomminus.mouseout"/>
                        </use>
                        <path d="M-4,0h8" fill="none" stroke="white" stroke-width="1.5" pointer-events="none"/>
                </g>
                <g id="dirArrow">
                        <path fill="none" stroke="white" stroke-width="1.5" d="M0,-3.0v7 M-2.5,-0.5L0,-3.0L2.5,-0.5"/>
                </g>
               <g id="resetDef">
                       <use xlink:href="#rim2" fill="#404040">
                               <set attributeName="fill" to="#808080" begin="reset.mouseover" end="reset.mouseout"/>
                       </use>
               </g>
        </defs>

<script type="text/javascript">
var viewWidth = 3250;
var viewHeight = 242;
var sectionId = 'dynsection-1';
</script>
<script xlink:href="svgpan.js"/>
<svg id="graph" class="graph">
<g id="viewport">
<title>/home/travis/build/robotology/wb&#45;toolbox/toolbox/src/core/include/Core/Parameter.h</title>
<!-- Node1 -->
<g id="node1" class="node"><title>Node1</title>
<polygon fill="#bfbfbf" stroke="black" points="1463.5,-181 1463.5,-233 1586.5,-233 1586.5,-181 1463.5,-181"/>
<text text-anchor="start" x="1471.5" y="-221" font-family="Helvetica,sans-Serif" font-size="10.00">/home/travis/build</text>
<text text-anchor="start" x="1471.5" y="-210" font-family="Helvetica,sans-Serif" font-size="10.00">/robotology/wb&#45;toolbox</text>
<text text-anchor="start" x="1471.5" y="-199" font-family="Helvetica,sans-Serif" font-size="10.00">/toolbox/src/core/include</text>
<text text-anchor="middle" x="1525" y="-188" font-family="Helvetica,sans-Serif" font-size="10.00">/Core/Parameter.h</text>
</g>
<!-- Node2 -->
<g id="node2" class="node"><title>Node2</title>
<g id="a_node2"><a xlink:href="_simulink_block_information_8h.html" target="_top" xlink:title="/home/travis/build\l/robotology/wb&#45;toolbox\l/toolbox/src/core/include\l/Core/SimulinkBlockInformation.h">
<polygon fill="none" stroke="black" points="85.5,-91 85.5,-143 248.5,-143 248.5,-91 85.5,-91"/>
<text text-anchor="start" x="93.5" y="-131" font-family="Helvetica,sans-Serif" font-size="10.00">/home/travis/build</text>
<text text-anchor="start" x="93.5" y="-120" font-family="Helvetica,sans-Serif" font-size="10.00">/robotology/wb&#45;toolbox</text>
<text text-anchor="start" x="93.5" y="-109" font-family="Helvetica,sans-Serif" font-size="10.00">/toolbox/src/core/include</text>
<text text-anchor="middle" x="167" y="-98" font-family="Helvetica,sans-Serif" font-size="10.00">/Core/SimulinkBlockInformation.h</text>
</a>
</g>
</g>
<!-- Node1&#45;&gt;Node2 -->
<g id="edge1" class="edge"><title>Node1&#45;&gt;Node2</title>
<path fill="none" stroke="midnightblue" d="M1453.18,-204.505C1221.41,-199.363 494.911,-180.662 263,-144 258.31,-143.259 253.519,-142.376 248.705,-141.392"/>
<polygon fill="midnightblue" stroke="midnightblue" points="1453.11,-208.005 1463.19,-204.726 1453.27,-201.006 1453.11,-208.005"/>
</g>
<!-- Node3 -->
<g id="node3" class="node"><title>Node3</title>
<g id="a_node3"><a xlink:href="_simulink_block_information_8cpp.html" target="_top" xlink:title="/home/travis/build\l/robotology/wb&#45;toolbox\l/toolbox/src/core/src\l/SimulinkBlockInformation.cpp">
<polygon fill="none" stroke="black" points="-0.5,-1 -0.5,-53 148.5,-53 148.5,-1 -0.5,-1"/>
<text text-anchor="start" x="7.5" y="-41" font-family="Helvetica,sans-Serif" font-size="10.00">/home/travis/build</text>
<text text-anchor="start" x="7.5" y="-30" font-family="Helvetica,sans-Serif" font-size="10.00">/robotology/wb&#45;toolbox</text>
<text text-anchor="start" x="7.5" y="-19" font-family="Helvetica,sans-Serif" font-size="10.00">/toolbox/src/core/src</text>
<text text-anchor="middle" x="74" y="-8" font-family="Helvetica,sans-Serif" font-size="10.00">/SimulinkBlockInformation.cpp</text>
</a>
</g>
</g>
<!-- Node1&#45;&gt;Node3 -->
<g id="edge8" class="edge"><title>Node1&#45;&gt;Node3</title>
<path fill="none" stroke="midnightblue" d="M1452.99,-205.628C1166.99,-203.805 124.503,-193.757 76,-144 52.9423,-120.346 58.6065,-79.3924 65.6555,-53.0117"/>
<polygon fill="midnightblue" stroke="midnightblue" points="1453.22,-209.129 1463.24,-205.691 1453.26,-202.129 1453.22,-209.129"/>
</g>
<!-- Node4 -->
<g id="node4" class="node"><title>Node4</title>
<g id="a_node4"><a xlink:href="_w_b_toolbox_8cpp.html" target="_top" xlink:title="/home/travis/build\l/robotology/wb&#45;toolbox\l/toolbox/src/core/src\l/WBToolbox.cpp">
<polygon fill="none" stroke="black" points="201.5,-1 201.5,-53 316.5,-53 316.5,-1 201.5,-1"/>
<text text-anchor="start" x="209.5" y="-41" font-family="Helvetica,sans-Serif" font-size="10.00">/home/travis/build</text>
<text text-anchor="start" x="209.5" y="-30" font-family="Helvetica,sans-Serif" font-size="10.00">/robotology/wb&#45;toolbox</text>
<text text-anchor="start" x="209.5" y="-19" font-family="Helvetica,sans-Serif" font-size="10.00">/toolbox/src/core/src</text>
<text text-anchor="middle" x="259" y="-8" font-family="Helvetica,sans-Serif" font-size="10.00">/WBToolbox.cpp</text>
</a>
</g>
</g>
<!-- Node1&#45;&gt;Node4 -->
<g id="edge9" class="edge"><title>Node1&#45;&gt;Node4</title>
<path fill="none" stroke="midnightblue" d="M1453.11,-204.604C1197.17,-199.348 343.116,-179.228 297,-144 269.045,-122.645 261.366,-80.2101 259.422,-53.0125"/>
<polygon fill="midnightblue" stroke="midnightblue" points="1453.33,-208.11 1463.4,-204.814 1453.48,-201.111 1453.33,-208.11"/>
</g>
<!-- Node5 -->
<g id="node5" class="node"><title>Node5</title>
<g id="a_node5"><a xlink:href="_block_8cpp.html" target="_top" xlink:title="/home/travis/build\l/robotology/wb&#45;toolbox\l/toolbox/src/core/src\l/Block.cpp">
<polygon fill="none" stroke="black" points="305.5,-91 305.5,-143 420.5,-143 420.5,-91 305.5,-91"/>
<text text-anchor="start" x="313.5" y="-131" font-family="Helvetica,sans-Serif" font-size="10.00">/home/travis/build</text>
<text text-anchor="start" x="313.5" y="-120" font-family="Helvetica,sans-Serif" font-size="10.00">/robotology/wb&#45;toolbox</text>
<text text-anchor="start" x="313.5" y="-109" font-family="Helvetica,sans-Serif" font-size="10.00">/toolbox/src/core/src</text>
<text text-anchor="middle" x="363" y="-98" font-family="Helvetica,sans-Serif" font-size="10.00">/Block.cpp</text>
</a>
</g>
</g>
<!-- Node1&#45;&gt;Node5 -->
<g id="edge4" class="edge"><title>Node1&#45;&gt;Node5</title>
<path fill="none" stroke="midnightblue" d="M1453.35,-204.865C1242.43,-201.062 626.252,-186.521 430,-144 426.951,-143.339 423.859,-142.56 420.761,-141.691"/>
<polygon fill="midnightblue" stroke="midnightblue" points="1453.33,-208.365 1463.39,-205.043 1453.45,-201.366 1453.33,-208.365"/>
</g>
<!-- Node6 -->
<g id="node6" class="node"><title>Node6</title>
<g id="a_node6"><a xlink:href="_coder_block_information_8cpp.html" target="_top" xlink:title="/home/travis/build\l/robotology/wb&#45;toolbox\l/toolbox/src/core/src\l/CoderBlockInformation.cpp">
<polygon fill="none" stroke="black" points="439,-91 439,-143 577,-143 577,-91 439,-91"/>
<text text-anchor="start" x="447" y="-131" font-family="Helvetica,sans-Serif" font-size="10.00">/home/travis/build</text>
<text text-anchor="start" x="447" y="-120" font-family="Helvetica,sans-Serif" font-size="10.00">/robotology/wb&#45;toolbox</text>
<text text-anchor="start" x="447" y="-109" font-family="Helvetica,sans-Serif" font-size="10.00">/toolbox/src/core/src</text>
<text text-anchor="middle" x="508" y="-98" font-family="Helvetica,sans-Serif" font-size="10.00">/CoderBlockInformation.cpp</text>
</a>
</g>
</g>
<!-- Node1&#45;&gt;Node6 -->
<g id="edge5" class="edge"><title>Node1&#45;&gt;Node6</title>
<path fill="none" stroke="midnightblue" d="M1453.13,-203.592C1263.48,-196.863 752.766,-176.22 587,-144 583.74,-143.366 580.428,-142.637 577.1,-141.833"/>
<polygon fill="midnightblue" stroke="midnightblue" points="1453.15,-207.095 1463.26,-203.949 1453.39,-200.099 1453.15,-207.095"/>
</g>
<!-- Node7 -->
<g id="node7" class="node"><title>Node7</title>
<g id="a_node7"><a xlink:href="_parameter_8cpp.html" target="_top" xlink:title="/home/travis/build\l/robotology/wb&#45;toolbox\l/toolbox/src/core/src\l/Parameter.cpp">
<polygon fill="none" stroke="black" points="595.5,-91 595.5,-143 710.5,-143 710.5,-91 595.5,-91"/>
<text text-anchor="start" x="603.5" y="-131" font-family="Helvetica,sans-Serif" font-size="10.00">/home/travis/build</text>
<text text-anchor="start" x="603.5" y="-120" font-family="Helvetica,sans-Serif" font-size="10.00">/robotology/wb&#45;toolbox</text>
<text text-anchor="start" x="603.5" y="-109" font-family="Helvetica,sans-Serif" font-size="10.00">/toolbox/src/core/src</text>
<text text-anchor="middle" x="653" y="-98" font-family="Helvetica,sans-Serif" font-size="10.00">/Parameter.cpp</text>
</a>
</g>
</g>
<!-- Node1&#45;&gt;Node7 -->
<g id="edge6" class="edge"><title>Node1&#45;&gt;Node7</title>
<path fill="none" stroke="midnightblue" d="M1453.25,-203.168C1283.03,-196.015 858.636,-175.514 720,-144 716.958,-143.309 713.872,-142.504 710.778,-141.616"/>
<polygon fill="midnightblue" stroke="midnightblue" points="1453.22,-206.67 1463.36,-203.59 1453.52,-199.676 1453.22,-206.67"/>
</g>
<!-- Node8 -->
<g id="node8" class="node"><title>Node8</title>
<g id="a_node8"><a xlink:href="_parameters_8cpp.html" target="_top" xlink:title="/home/travis/build\l/robotology/wb&#45;toolbox\l/toolbox/src/core/src\l/Parameters.cpp">
<polygon fill="none" stroke="black" points="728.5,-91 728.5,-143 843.5,-143 843.5,-91 728.5,-91"/>
<text text-anchor="start" x="736.5" y="-131" font-family="Helvetica,sans-Serif" font-size="10.00">/home/travis/build</text>
<text text-anchor="start" x="736.5" y="-120" font-family="Helvetica,sans-Serif" font-size="10.00">/robotology/wb&#45;toolbox</text>
<text text-anchor="start" x="736.5" y="-109" font-family="Helvetica,sans-Serif" font-size="10.00">/toolbox/src/core/src</text>
<text text-anchor="middle" x="786" y="-98" font-family="Helvetica,sans-Serif" font-size="10.00">/Parameters.cpp</text>
</a>
</g>
</g>
<!-- Node1&#45;&gt;Node8 -->
<g id="edge7" class="edge"><title>Node1&#45;&gt;Node8</title>
<path fill="none" stroke="midnightblue" d="M1453.26,-205.878C1329.22,-204.234 1067.37,-194.439 853,-144 849.964,-143.286 846.881,-142.463 843.791,-141.559"/>
<polygon fill="midnightblue" stroke="midnightblue" points="1453.35,-209.379 1463.39,-205.998 1453.44,-202.38 1453.35,-209.379"/>
</g>
<!-- Node9 -->
<g id="node9" class="node"><title>Node9</title>
<g id="a_node9"><a xlink:href="_discrete_filter_8cpp.html" target="_top" xlink:title="/home/travis/build\l/robotology/wb&#45;toolbox\l/toolbox/src/library/src\l/DiscreteFilter.cpp">
<polygon fill="none" stroke="black" points="861.5,-91 861.5,-143 976.5,-143 976.5,-91 861.5,-91"/>
<text text-anchor="start" x="869.5" y="-131" font-family="Helvetica,sans-Serif" font-size="10.00">/home/travis/build</text>
<text text-anchor="start" x="869.5" y="-120" font-family="Helvetica,sans-Serif" font-size="10.00">/robotology/wb&#45;toolbox</text>
<text text-anchor="start" x="869.5" y="-109" font-family="Helvetica,sans-Serif" font-size="10.00">/toolbox/src/library/src</text>
<text text-anchor="middle" x="919" y="-98" font-family="Helvetica,sans-Serif" font-size="10.00">/DiscreteFilter.cpp</text>
</a>
</g>
</g>
<!-- Node1&#45;&gt;Node9 -->
<g id="edge10" class="edge"><title>Node1&#45;&gt;Node9</title>
<path fill="none" stroke="midnightblue" d="M1453.38,-203.571C1349.14,-198.735 1150.16,-184.581 986,-144 982.972,-143.251 979.896,-142.401 976.811,-141.476"/>
<polygon fill="midnightblue" stroke="midnightblue" points="1453.33,-207.072 1463.47,-204.024 1453.64,-200.079 1453.33,-207.072"/>
</g>
<!-- Node10 -->
<g id="node10" class="node"><title>Node10</title>
<g id="a_node10"><a xlink:href="_dot_j_nu_8cpp.html" target="_top" xlink:title="/home/travis/build\l/robotology/wb&#45;toolbox\l/toolbox/src/library/src\l/DotJNu.cpp">
<polygon fill="none" stroke="black" points="994.5,-91 994.5,-143 1109.5,-143 1109.5,-91 994.5,-91"/>
<text text-anchor="start" x="1002.5" y="-131" font-family="Helvetica,sans-Serif" font-size="10.00">/home/travis/build</text>
<text text-anchor="start" x="1002.5" y="-120" font-family="Helvetica,sans-Serif" font-size="10.00">/robotology/wb&#45;toolbox</text>
<text text-anchor="start" x="1002.5" y="-109" font-family="Helvetica,sans-Serif" font-size="10.00">/toolbox/src/library/src</text>
<text text-anchor="middle" x="1052" y="-98" font-family="Helvetica,sans-Serif" font-size="10.00">/DotJNu.cpp</text>
</a>
</g>
</g>
<!-- Node1&#45;&gt;Node10 -->
<g id="edge11" class="edge"><title>Node1&#45;&gt;Node10</title>
<path fill="none" stroke="midnightblue" d="M1453.07,-199.81C1371.15,-191.661 1233.79,-174.641 1119,-144 1115.99,-143.196 1112.92,-142.3 1109.85,-141.339"/>
<polygon fill="midnightblue" stroke="midnightblue" points="1452.98,-203.318 1463.27,-200.807 1453.66,-196.351 1452.98,-203.318"/>
</g>
<!-- Node11 -->
<g id="node11" class="node"><title>Node11</title>
<g id="a_node11"><a xlink:href="_forward_kinematics_8cpp.html" target="_top" xlink:title="/home/travis/build\l/robotology/wb&#45;toolbox\l/toolbox/src/library/src\l/ForwardKinematics.cpp">
<polygon fill="none" stroke="black" points="1128,-91 1128,-143 1250,-143 1250,-91 1128,-91"/>
<text text-anchor="start" x="1136" y="-131" font-family="Helvetica,sans-Serif" font-size="10.00">/home/travis/build</text>
<text text-anchor="start" x="1136" y="-120" font-family="Helvetica,sans-Serif" font-size="10.00">/robotology/wb&#45;toolbox</text>
<text text-anchor="start" x="1136" y="-109" font-family="Helvetica,sans-Serif" font-size="10.00">/toolbox/src/library/src</text>
<text text-anchor="middle" x="1189" y="-98" font-family="Helvetica,sans-Serif" font-size="10.00">/ForwardKinematics.cpp</text>
</a>
</g>
</g>
<!-- Node1&#45;&gt;Node11 -->
<g id="edge12" class="edge"><title>Node1&#45;&gt;Node11</title>
<path fill="none" stroke="midnightblue" d="M1453.3,-191.686C1399.62,-180.378 1324.64,-163.321 1260,-144 1256.73,-143.023 1253.39,-141.976 1250.03,-140.883"/>
<polygon fill="midnightblue" stroke="midnightblue" points="1452.89,-195.177 1463.4,-193.799 1454.33,-188.326 1452.89,-195.177"/>
</g>
<!-- Node12 -->
<g id="node12" class="node"><title>Node12</title>
<g id="a_node12"><a xlink:href="_get_limits_8cpp.html" target="_top" xlink:title="/home/travis/build\l/robotology/wb&#45;toolbox\l/toolbox/src/library/src\l/GetLimits.cpp">
<polygon fill="none" stroke="black" points="1268.5,-91 1268.5,-143 1383.5,-143 1383.5,-91 1268.5,-91"/>
<text text-anchor="start" x="1276.5" y="-131" font-family="Helvetica,sans-Serif" font-size="10.00">/home/travis/build</text>
<text text-anchor="start" x="1276.5" y="-120" font-family="Helvetica,sans-Serif" font-size="10.00">/robotology/wb&#45;toolbox</text>
<text text-anchor="start" x="1276.5" y="-109" font-family="Helvetica,sans-Serif" font-size="10.00">/toolbox/src/library/src</text>
<text text-anchor="middle" x="1326" y="-98" font-family="Helvetica,sans-Serif" font-size="10.00">/GetLimits.cpp</text>
</a>
</g>
</g>
<!-- Node1&#45;&gt;Node12 -->
<g id="edge13" class="edge"><title>Node1&#45;&gt;Node12</title>
<path fill="none" stroke="midnightblue" d="M1458.96,-176.798C1434.32,-165.9 1406.58,-153.632 1382.83,-143.133"/>
<polygon fill="midnightblue" stroke="midnightblue" points="1457.68,-180.057 1468.24,-180.901 1460.51,-173.655 1457.68,-180.057"/>
</g>
<!-- Node13 -->
<g id="node13" class="node"><title>Node13</title>
<g id="a_node13"><a xlink:href="_get_measurement_8cpp.html" target="_top" xlink:title="/home/travis/build\l/robotology/wb&#45;toolbox\l/toolbox/src/library/src\l/GetMeasurement.cpp">
<polygon fill="none" stroke="black" points="1401.5,-91 1401.5,-143 1516.5,-143 1516.5,-91 1401.5,-91"/>
<text text-anchor="start" x="1409.5" y="-131" font-family="Helvetica,sans-Serif" font-size="10.00">/home/travis/build</text>
<text text-anchor="start" x="1409.5" y="-120" font-family="Helvetica,sans-Serif" font-size="10.00">/robotology/wb&#45;toolbox</text>
<text text-anchor="start" x="1409.5" y="-109" font-family="Helvetica,sans-Serif" font-size="10.00">/toolbox/src/library/src</text>
<text text-anchor="middle" x="1459" y="-98" font-family="Helvetica,sans-Serif" font-size="10.00">/GetMeasurement.cpp</text>
</a>
</g>
</g>
<!-- Node1&#45;&gt;Node13 -->
<g id="edge14" class="edge"><title>Node1&#45;&gt;Node13</title>
<path fill="none" stroke="midnightblue" d="M1499.69,-172.259C1492.42,-162.564 1484.62,-152.166 1477.82,-143.092"/>
<polygon fill="midnightblue" stroke="midnightblue" points="1497.11,-174.647 1505.91,-180.547 1502.71,-170.447 1497.11,-174.647"/>
</g>
<!-- Node14 -->
<g id="node14" class="node"><title>Node14</title>
<g id="a_node14"><a xlink:href="_jacobian_8cpp.html" target="_top" xlink:title="/home/travis/build\l/robotology/wb&#45;toolbox\l/toolbox/src/library/src\l/Jacobian.cpp">
<polygon fill="none" stroke="black" points="1534.5,-91 1534.5,-143 1649.5,-143 1649.5,-91 1534.5,-91"/>
<text text-anchor="start" x="1542.5" y="-131" font-family="Helvetica,sans-Serif" font-size="10.00">/home/travis/build</text>
<text text-anchor="start" x="1542.5" y="-120" font-family="Helvetica,sans-Serif" font-size="10.00">/robotology/wb&#45;toolbox</text>
<text text-anchor="start" x="1542.5" y="-109" font-family="Helvetica,sans-Serif" font-size="10.00">/toolbox/src/library/src</text>
<text text-anchor="middle" x="1592" y="-98" font-family="Helvetica,sans-Serif" font-size="10.00">/Jacobian.cpp</text>
</a>
</g>
</g>
<!-- Node1&#45;&gt;Node14 -->
<g id="edge15" class="edge"><title>Node1&#45;&gt;Node14</title>
<path fill="none" stroke="midnightblue" d="M1550.47,-172.553C1557.91,-162.775 1565.92,-152.258 1572.9,-143.092"/>
<polygon fill="midnightblue" stroke="midnightblue" points="1547.65,-170.47 1544.38,-180.547 1553.22,-174.711 1547.65,-170.47"/>
</g>
<!-- Node15 -->
<g id="node15" class="node"><title>Node15</title>
<g id="a_node15"><a xlink:href="_minimum_jerk_trajectory_generator_8cpp.html" target="_top" xlink:title="/home/travis/build\l/robotology/wb&#45;toolbox\l/toolbox/src/library/src\l/MinimumJerkTrajectoryGenerator.cpp">
<polygon fill="none" stroke="black" points="1667.5,-91 1667.5,-143 1850.5,-143 1850.5,-91 1667.5,-91"/>
<text text-anchor="start" x="1675.5" y="-131" font-family="Helvetica,sans-Serif" font-size="10.00">/home/travis/build</text>
<text text-anchor="start" x="1675.5" y="-120" font-family="Helvetica,sans-Serif" font-size="10.00">/robotology/wb&#45;toolbox</text>
<text text-anchor="start" x="1675.5" y="-109" font-family="Helvetica,sans-Serif" font-size="10.00">/toolbox/src/library/src</text>
<text text-anchor="middle" x="1759" y="-98" font-family="Helvetica,sans-Serif" font-size="10.00">/MinimumJerkTrajectoryGenerator.cpp</text>
</a>
</g>
</g>
<!-- Node1&#45;&gt;Node15 -->
<g id="edge16" class="edge"><title>Node1&#45;&gt;Node15</title>
<path fill="none" stroke="midnightblue" d="M1596.51,-179.109C1627.01,-167.638 1662.4,-154.33 1692.35,-143.066"/>
<polygon fill="midnightblue" stroke="midnightblue" points="1594.91,-175.968 1586.79,-182.764 1597.38,-182.52 1594.91,-175.968"/>
</g>
<!-- Node16 -->
<g id="node16" class="node"><title>Node16</title>
<g id="a_node16"><a xlink:href="_model_partitioner_8cpp.html" target="_top" xlink:title="/home/travis/build\l/robotology/wb&#45;toolbox\l/toolbox/src/library/src\l/ModelPartitioner.cpp">
<polygon fill="none" stroke="black" points="1868.5,-91 1868.5,-143 1983.5,-143 1983.5,-91 1868.5,-91"/>
<text text-anchor="start" x="1876.5" y="-131" font-family="Helvetica,sans-Serif" font-size="10.00">/home/travis/build</text>
<text text-anchor="start" x="1876.5" y="-120" font-family="Helvetica,sans-Serif" font-size="10.00">/robotology/wb&#45;toolbox</text>
<text text-anchor="start" x="1876.5" y="-109" font-family="Helvetica,sans-Serif" font-size="10.00">/toolbox/src/library/src</text>
<text text-anchor="middle" x="1926" y="-98" font-family="Helvetica,sans-Serif" font-size="10.00">/ModelPartitioner.cpp</text>
</a>
</g>
</g>
<!-- Node1&#45;&gt;Node16 -->
<g id="edge17" class="edge"><title>Node1&#45;&gt;Node16</title>
<path fill="none" stroke="midnightblue" d="M1596.95,-196.61C1665.2,-186.774 1770.23,-169.223 1859,-144 1862.12,-143.113 1865.3,-142.139 1868.49,-141.103"/>
<polygon fill="midnightblue" stroke="midnightblue" points="1596.15,-193.189 1586.74,-198.063 1597.13,-200.119 1596.15,-193.189"/>
</g>
<!-- Node17 -->
<g id="node17" class="node"><title>Node17</title>
<g id="a_node17"><a xlink:href="_qp_oases_8cpp.html" target="_top" xlink:title="/home/travis/build\l/robotology/wb&#45;toolbox\l/toolbox/src/library/src\l/QpOases.cpp">
<polygon fill="none" stroke="black" points="2001.5,-91 2001.5,-143 2116.5,-143 2116.5,-91 2001.5,-91"/>
<text text-anchor="start" x="2009.5" y="-131" font-family="Helvetica,sans-Serif" font-size="10.00">/home/travis/build</text>
<text text-anchor="start" x="2009.5" y="-120" font-family="Helvetica,sans-Serif" font-size="10.00">/robotology/wb&#45;toolbox</text>
<text text-anchor="start" x="2009.5" y="-109" font-family="Helvetica,sans-Serif" font-size="10.00">/toolbox/src/library/src</text>
<text text-anchor="middle" x="2059" y="-98" font-family="Helvetica,sans-Serif" font-size="10.00">/QpOases.cpp</text>
</a>
</g>
</g>
<!-- Node1&#45;&gt;Node17 -->
<g id="edge18" class="edge"><title>Node1&#45;&gt;Node17</title>
<path fill="none" stroke="midnightblue" d="M1596.81,-201.789C1689.37,-195.156 1854.74,-179.206 1992,-144 1995.02,-143.225 1998.09,-142.353 2001.17,-141.412"/>
<polygon fill="midnightblue" stroke="midnightblue" points="1596.44,-198.306 1586.71,-202.497 1596.93,-205.289 1596.44,-198.306"/>
</g>
<!-- Node18 -->
<g id="node18" class="node"><title>Node18</title>
<g id="a_node18"><a xlink:href="_real_time_synchronizer_8cpp.html" target="_top" xlink:title="/home/travis/build\l/robotology/wb&#45;toolbox\l/toolbox/src/library/src\l/RealTimeSynchronizer.cpp">
<polygon fill="none" stroke="black" points="2134.5,-91 2134.5,-143 2271.5,-143 2271.5,-91 2134.5,-91"/>
<text text-anchor="start" x="2142.5" y="-131" font-family="Helvetica,sans-Serif" font-size="10.00">/home/travis/build</text>
<text text-anchor="start" x="2142.5" y="-120" font-family="Helvetica,sans-Serif" font-size="10.00">/robotology/wb&#45;toolbox</text>
<text text-anchor="start" x="2142.5" y="-109" font-family="Helvetica,sans-Serif" font-size="10.00">/toolbox/src/library/src</text>
<text text-anchor="middle" x="2203" y="-98" font-family="Helvetica,sans-Serif" font-size="10.00">/RealTimeSynchronizer.cpp</text>
</a>
</g>
</g>
<!-- Node1&#45;&gt;Node18 -->
<g id="edge19" class="edge"><title>Node1&#45;&gt;Node18</title>
<path fill="none" stroke="midnightblue" d="M1596.87,-203.645C1710.27,-198.799 1937.13,-184.506 2125,-144 2128.07,-143.338 2131.19,-142.598 2134.32,-141.798"/>
<polygon fill="midnightblue" stroke="midnightblue" points="1596.44,-200.16 1586.59,-204.072 1596.73,-207.154 1596.44,-200.16"/>
</g>
<!-- Node19 -->
<g id="node19" class="node"><title>Node19</title>
<g id="a_node19"><a xlink:href="_relative_transform_8cpp.html" target="_top" xlink:title="/home/travis/build\l/robotology/wb&#45;toolbox\l/toolbox/src/library/src\l/RelativeTransform.cpp">
<polygon fill="none" stroke="black" points="2289.5,-91 2289.5,-143 2408.5,-143 2408.5,-91 2289.5,-91"/>
<text text-anchor="start" x="2297.5" y="-131" font-family="Helvetica,sans-Serif" font-size="10.00">/home/travis/build</text>
<text text-anchor="start" x="2297.5" y="-120" font-family="Helvetica,sans-Serif" font-size="10.00">/robotology/wb&#45;toolbox</text>
<text text-anchor="start" x="2297.5" y="-109" font-family="Helvetica,sans-Serif" font-size="10.00">/toolbox/src/library/src</text>
<text text-anchor="middle" x="2349" y="-98" font-family="Helvetica,sans-Serif" font-size="10.00">/RelativeTransform.cpp</text>
</a>
</g>
</g>
<!-- Node1&#45;&gt;Node19 -->
<g id="edge20" class="edge"><title>Node1&#45;&gt;Node19</title>
<path fill="none" stroke="midnightblue" d="M1596.78,-206.698C1732.14,-206.569 2033.64,-199.388 2280,-144 2283.12,-143.298 2286.29,-142.485 2289.47,-141.59"/>
<polygon fill="midnightblue" stroke="midnightblue" points="1596.54,-203.198 1586.54,-206.694 1596.54,-210.198 1596.54,-203.198"/>
</g>
<!-- Node20 -->
<g id="node20" class="node"><title>Node20</title>
<g id="a_node20"><a xlink:href="_set_motor_parameters_8cpp.html" target="_top" xlink:title="/home/travis/build\l/robotology/wb&#45;toolbox\l/toolbox/src/library/src\l/SetMotorParameters.cpp">
<polygon fill="none" stroke="black" points="2427,-91 2427,-143 2555,-143 2555,-91 2427,-91"/>
<text text-anchor="start" x="2435" y="-131" font-family="Helvetica,sans-Serif" font-size="10.00">/home/travis/build</text>
<text text-anchor="start" x="2435" y="-120" font-family="Helvetica,sans-Serif" font-size="10.00">/robotology/wb&#45;toolbox</text>
<text text-anchor="start" x="2435" y="-109" font-family="Helvetica,sans-Serif" font-size="10.00">/toolbox/src/library/src</text>
<text text-anchor="middle" x="2491" y="-98" font-family="Helvetica,sans-Serif" font-size="10.00">/SetMotorParameters.cpp</text>
</a>
</g>
</g>
<!-- Node1&#45;&gt;Node20 -->
<g id="edge21" class="edge"><title>Node1&#45;&gt;Node20</title>
<path fill="none" stroke="midnightblue" d="M1596.57,-203.503C1779.48,-196.725 2260.61,-176.294 2417,-144 2420.2,-143.339 2423.45,-142.574 2426.72,-141.729"/>
<polygon fill="midnightblue" stroke="midnightblue" points="1596.39,-200.007 1586.52,-203.873 1596.65,-207.003 1596.39,-200.007"/>
</g>
<!-- Node21 -->
<g id="node21" class="node"><title>Node21</title>
<g id="a_node21"><a xlink:href="_set_references_8cpp.html" target="_top" xlink:title="/home/travis/build\l/robotology/wb&#45;toolbox\l/toolbox/src/library/src\l/SetReferences.cpp">
<polygon fill="none" stroke="black" points="2573.5,-91 2573.5,-143 2688.5,-143 2688.5,-91 2573.5,-91"/>
<text text-anchor="start" x="2581.5" y="-131" font-family="Helvetica,sans-Serif" font-size="10.00">/home/travis/build</text>
<text text-anchor="start" x="2581.5" y="-120" font-family="Helvetica,sans-Serif" font-size="10.00">/robotology/wb&#45;toolbox</text>
<text text-anchor="start" x="2581.5" y="-109" font-family="Helvetica,sans-Serif" font-size="10.00">/toolbox/src/library/src</text>
<text text-anchor="middle" x="2631" y="-98" font-family="Helvetica,sans-Serif" font-size="10.00">/SetReferences.cpp</text>
</a>
</g>
</g>
<!-- Node1&#45;&gt;Node21 -->
<g id="edge22" class="edge"><title>Node1&#45;&gt;Node21</title>
<path fill="none" stroke="midnightblue" d="M1597.13,-204.6C1801.08,-200.183 2379.08,-184.359 2564,-144 2567.05,-143.335 2570.14,-142.552 2573.24,-141.68"/>
<polygon fill="midnightblue" stroke="midnightblue" points="1596.76,-201.107 1586.84,-204.821 1596.91,-208.106 1596.76,-201.107"/>
</g>
<!-- Node22 -->
<g id="node22" class="node"><title>Node22</title>
<g id="a_node22"><a xlink:href="_simulator_synchronizer_8cpp.html" target="_top" xlink:title="/home/travis/build\l/robotology/wb&#45;toolbox\l/toolbox/src/library/src\l/SimulatorSynchronizer.cpp">
<polygon fill="none" stroke="black" points="2706.5,-91 2706.5,-143 2843.5,-143 2843.5,-91 2706.5,-91"/>
<text text-anchor="start" x="2714.5" y="-131" font-family="Helvetica,sans-Serif" font-size="10.00">/home/travis/build</text>
<text text-anchor="start" x="2714.5" y="-120" font-family="Helvetica,sans-Serif" font-size="10.00">/robotology/wb&#45;toolbox</text>
<text text-anchor="start" x="2714.5" y="-109" font-family="Helvetica,sans-Serif" font-size="10.00">/toolbox/src/library/src</text>
<text text-anchor="middle" x="2775" y="-98" font-family="Helvetica,sans-Serif" font-size="10.00">/SimulatorSynchronizer.cpp</text>
</a>
</g>
</g>
<!-- Node1&#45;&gt;Node22 -->
<g id="edge23" class="edge"><title>Node1&#45;&gt;Node22</title>
<path fill="none" stroke="midnightblue" d="M1596.97,-204.722C1817.93,-200.401 2484.42,-184.289 2697,-144 2700.09,-143.415 2703.22,-142.739 2706.36,-141.991"/>
<polygon fill="midnightblue" stroke="midnightblue" points="1596.72,-201.227 1586.79,-204.919 1596.86,-208.225 1596.72,-201.227"/>
</g>
<!-- Node23 -->
<g id="node23" class="node"><title>Node23</title>
<g id="a_node23"><a xlink:href="_w_b_block_8cpp.html" target="_top" xlink:title="/home/travis/build\l/robotology/wb&#45;toolbox\l/toolbox/src/library/src\l/WBBlock.cpp">
<polygon fill="none" stroke="black" points="2861.5,-91 2861.5,-143 2976.5,-143 2976.5,-91 2861.5,-91"/>
<text text-anchor="start" x="2869.5" y="-131" font-family="Helvetica,sans-Serif" font-size="10.00">/home/travis/build</text>
<text text-anchor="start" x="2869.5" y="-120" font-family="Helvetica,sans-Serif" font-size="10.00">/robotology/wb&#45;toolbox</text>
<text text-anchor="start" x="2869.5" y="-109" font-family="Helvetica,sans-Serif" font-size="10.00">/toolbox/src/library/src</text>
<text text-anchor="middle" x="2919" y="-98" font-family="Helvetica,sans-Serif" font-size="10.00">/WBBlock.cpp</text>
</a>
</g>
</g>
<!-- Node1&#45;&gt;Node23 -->
<g id="edge24" class="edge"><title>Node1&#45;&gt;Node23</title>
<path fill="none" stroke="midnightblue" d="M1596.95,-205.69C1837.06,-204.178 2609.24,-195.345 2852,-144 2855.05,-143.355 2858.15,-142.587 2861.25,-141.728"/>
<polygon fill="midnightblue" stroke="midnightblue" points="1596.58,-202.192 1586.6,-205.753 1596.62,-209.192 1596.58,-202.192"/>
</g>
<!-- Node24 -->
<g id="node24" class="node"><title>Node24</title>
<g id="a_node24"><a xlink:href="_yarp_read_8cpp.html" target="_top" xlink:title="/home/travis/build\l/robotology/wb&#45;toolbox\l/toolbox/src/library/src\l/YarpRead.cpp">
<polygon fill="none" stroke="black" points="2994.5,-91 2994.5,-143 3109.5,-143 3109.5,-91 2994.5,-91"/>
<text text-anchor="start" x="3002.5" y="-131" font-family="Helvetica,sans-Serif" font-size="10.00">/home/travis/build</text>
<text text-anchor="start" x="3002.5" y="-120" font-family="Helvetica,sans-Serif" font-size="10.00">/robotology/wb&#45;toolbox</text>
<text text-anchor="start" x="3002.5" y="-109" font-family="Helvetica,sans-Serif" font-size="10.00">/toolbox/src/library/src</text>
<text text-anchor="middle" x="3052" y="-98" font-family="Helvetica,sans-Serif" font-size="10.00">/YarpRead.cpp</text>
</a>
</g>
</g>
<!-- Node1&#45;&gt;Node24 -->
<g id="edge25" class="edge"><title>Node1&#45;&gt;Node24</title>
<path fill="none" stroke="midnightblue" d="M1597.16,-206.048C1852.95,-205.734 2715.43,-200.417 2985,-144 2988.05,-143.361 2991.15,-142.599 2994.25,-141.744"/>
<polygon fill="midnightblue" stroke="midnightblue" points="1596.87,-202.548 1586.88,-206.058 1596.88,-209.548 1596.87,-202.548"/>
</g>
<!-- Node25 -->
<g id="node25" class="node"><title>Node25</title>
<g id="a_node25"><a xlink:href="_yarp_write_8cpp.html" target="_top" xlink:title="/home/travis/build\l/robotology/wb&#45;toolbox\l/toolbox/src/library/src\l/YarpWrite.cpp">
<polygon fill="none" stroke="black" points="3127.5,-91 3127.5,-143 3242.5,-143 3242.5,-91 3127.5,-91"/>
<text text-anchor="start" x="3135.5" y="-131" font-family="Helvetica,sans-Serif" font-size="10.00">/home/travis/build</text>
<text text-anchor="start" x="3135.5" y="-120" font-family="Helvetica,sans-Serif" font-size="10.00">/robotology/wb&#45;toolbox</text>
<text text-anchor="start" x="3135.5" y="-109" font-family="Helvetica,sans-Serif" font-size="10.00">/toolbox/src/library/src</text>
<text text-anchor="middle" x="3185" y="-98" font-family="Helvetica,sans-Serif" font-size="10.00">/YarpWrite.cpp</text>
</a>
</g>
</g>
<!-- Node1&#45;&gt;Node25 -->
<g id="edge26" class="edge"><title>Node1&#45;&gt;Node25</title>
<path fill="none" stroke="midnightblue" d="M1596.86,-206.347C1866.99,-207.166 2821.34,-205.538 3118,-144 3121.05,-143.366 3124.15,-142.609 3127.25,-141.757"/>
<polygon fill="midnightblue" stroke="midnightblue" points="1596.79,-202.847 1586.78,-206.315 1596.77,-209.847 1596.79,-202.847"/>
</g>
<!-- Node2&#45;&gt;Node3 -->
<g id="edge2" class="edge"><title>Node2&#45;&gt;Node3</title>
<path fill="none" stroke="midnightblue" d="M132.58,-83.4308C121.987,-73.4069 110.495,-62.5325 100.518,-53.0921"/>
<polygon fill="midnightblue" stroke="midnightblue" points="130.431,-86.2159 140.101,-90.5468 135.242,-81.1313 130.431,-86.2159"/>
</g>
<!-- Node2&#45;&gt;Node4 -->
<g id="edge3" class="edge"><title>Node2&#45;&gt;Node4</title>
<path fill="none" stroke="midnightblue" d="M201.05,-83.4308C211.529,-73.4069 222.898,-62.5325 232.767,-53.0921"/>
<polygon fill="midnightblue" stroke="midnightblue" points="198.417,-81.1052 193.61,-90.5468 203.256,-86.1638 198.417,-81.1052"/>
</g>
</g>
</svg>
        <g id="navigator" transform="translate(0 0)" fill="#404254">
                <rect fill="#f2f5e9" fill-opacity="0.5" stroke="#606060" stroke-width=".5" x="0" y="0" width="60" height="60"/>
                <use id="zoomplus" xlink:href="#zoomPlus" x="17" y="9" onmousedown="handleZoom(evt,'in')"/>
                <use id="zoomminus" xlink:href="#zoomMin" x="42" y="9" onmousedown="handleZoom(evt,'out')"/>
                <use id="reset" xlink:href="#resetDef" x="30" y="36" onmousedown="handleReset()"/>
                <g id="arrowUp" xlink:href="#dirArrow" transform="translate(30 24)" onmousedown="handlePan(0,-1)">
                  <use xlink:href="#rim" fill="#404040">
                        <set attributeName="fill" to="#808080" begin="arrowUp.mouseover" end="arrowUp.mouseout"/>
                  </use>
                  <path fill="none" stroke="white" stroke-width="1.5" d="M0,-3.0v7 M-2.5,-0.5L0,-3.0L2.5,-0.5"/>
                </g>
                <g id="arrowRight" xlink:href="#dirArrow" transform="rotate(90) translate(36 -43)" onmousedown="handlePan(1,0)">
                  <use xlink:href="#rim" fill="#404040">
                        <set attributeName="fill" to="#808080" begin="arrowRight.mouseover" end="arrowRight.mouseout"/>
                  </use>
                  <path fill="none" stroke="white" stroke-width="1.5" d="M0,-3.0v7 M-2.5,-0.5L0,-3.0L2.5,-0.5"/>
                </g>
                <g id="arrowDown" xlink:href="#dirArrow" transform="rotate(180) translate(-30 -48)" onmousedown="handlePan(0,1)">
                  <use xlink:href="#rim" fill="#404040">
                        <set attributeName="fill" to="#808080" begin="arrowDown.mouseover" end="arrowDown.mouseout"/>
                  </use>
                  <path fill="none" stroke="white" stroke-width="1.5" d="M0,-3.0v7 M-2.5,-0.5L0,-3.0L2.5,-0.5"/>
                </g>
                <g id="arrowLeft" xlink:href="#dirArrow" transform="rotate(270) translate(-36 17)" onmousedown="handlePan(-1,0)">
                  <use xlink:href="#rim" fill="#404040">
                        <set attributeName="fill" to="#808080" begin="arrowLeft.mouseover" end="arrowLeft.mouseout"/>
                  </use>
                  <path fill="none" stroke="white" stroke-width="1.5" d="M0,-3.0v7 M-2.5,-0.5L0,-3.0L2.5,-0.5"/>
                </g>
        </g>
        <svg viewBox="0 0 15 15" width="100%" height="30px" preserveAspectRatio="xMaxYMin meet">
         <g id="arrow_out" transform="scale(0.3 0.3)">
          <a xlink:href="_parameter_8h__dep__incl_org.svg" target="_base">
           <rect id="button" ry="5" rx="5" y="6" x="6" height="38" width="38"
                fill="#f2f5e9" fill-opacity="0.5" stroke="#606060" stroke-width="1.0"/>
           <path id="arrow"
             d="M 11.500037,31.436501 C 11.940474,20.09759 22.043105,11.32322 32.158766,21.979434 L 37.068811,17.246167 C 37.068811,17.246167 37.088388,32 37.088388,32 L 22.160133,31.978069 C 22.160133,31.978069 26.997745,27.140456 26.997745,27.140456 C 18.528582,18.264221 13.291696,25.230495 11.500037,31.436501 z"
             style="fill:#404040;"/>
          </a>
         </g>
        </svg>
</svg>
