<?xml version="1.0" encoding="UTF-8" standalone="no"?>
<!DOCTYPE svg PUBLIC "-//W3C//DTD SVG 1.1//EN"
 "http://www.w3.org/Graphics/SVG/1.1/DTD/svg11.dtd">
<!-- Generated by graphviz version 2.36.0 (20140111.2315)
 -->
<!-- Title: /home/travis/build/robotology/wb&#45;toolbox/toolbox/src/QpOases.cpp Pages: 1 -->
<!--zoomable 274 -->
<svg id="main" version="1.1" xmlns="http://www.w3.org/2000/svg" xmlns:xlink="http://www.w3.org/1999/xlink" xml:space="preserve" onload="init(evt)">
<style type="text/css"><![CDATA[
.edge:hover path { stroke: red; }
.edge:hover polygon { stroke: red; fill: red; }
]]></style>
<script type="text/javascript"><![CDATA[
var edges = document.getElementsByTagName('g');
if (edges && edges.length) {
  for (var i=0;i<edges.length;i++) {
    if (edges[i].id.substr(0,4)=='edge') {
      edges[i].setAttribute('class','edge');
    }
  }
}
]]></script>
        <defs>
                <circle id="rim" cx="0" cy="0" r="7"/>
                <circle id="rim2" cx="0" cy="0" r="3.5"/>
                <g id="zoomPlus">
                        <use xlink:href="#rim" fill="#404040">
                                <set attributeName="fill" to="#808080" begin="zoomplus.mouseover" end="zoomplus.mouseout"/>
                        </use>
                        <path d="M-4,0h8M0,-4v8" fill="none" stroke="white" stroke-width="1.5" pointer-events="none"/>
                </g>
                <g id="zoomMin">
                        <use xlink:href="#rim" fill="#404040">
                                <set attributeName="fill" to="#808080" begin="zoomminus.mouseover" end="zoomminus.mouseout"/>
                        </use>
                        <path d="M-4,0h8" fill="none" stroke="white" stroke-width="1.5" pointer-events="none"/>
                </g>
                <g id="dirArrow">
                        <path fill="none" stroke="white" stroke-width="1.5" d="M0,-3.0v7 M-2.5,-0.5L0,-3.0L2.5,-0.5"/>
                </g>
               <g id="resetDef">
                       <use xlink:href="#rim2" fill="#404040">
                               <set attributeName="fill" to="#808080" begin="reset.mouseover" end="reset.mouseout"/>
                       </use>
               </g>
        </defs>

<script type="text/javascript">
var viewWidth = 824;
var viewHeight = 274;
var sectionId = 'dynsection-0';
</script>
<script xlink:href="svgpan.js"/>
<svg id="graph" class="graph">
<g id="viewport">
<title>/home/travis/build/robotology/wb&#45;toolbox/toolbox/src/QpOases.cpp</title>
<!-- Node1 -->
<g id="node1" class="node"><title>Node1</title>
<polygon fill="#bfbfbf" stroke="black" points="415.5,-224.5 415.5,-265.5 546.5,-265.5 546.5,-224.5 415.5,-224.5"/>
<text text-anchor="start" x="423.5" y="-253.5" font-family="Helvetica,sans-Serif" font-size="10.00">/home/travis/build</text>
<text text-anchor="start" x="423.5" y="-242.5" font-family="Helvetica,sans-Serif" font-size="10.00">/robotology/wb&#45;toolbox</text>
<text text-anchor="middle" x="481" y="-231.5" font-family="Helvetica,sans-Serif" font-size="10.00">/toolbox/src/QpOases.cpp</text>
</g>
<!-- Node2 -->
<g id="node2" class="node"><title>Node2</title>
<g id="a_node2"><a xlink:href="_qp_oases_8h.html" target="_top" xlink:title="QpOases.h">
<polygon fill="none" stroke="black" points="296,-168.5 296,-187.5 362,-187.5 362,-168.5 296,-168.5"/>
<text text-anchor="middle" x="329" y="-175.5" font-family="Helvetica,sans-Serif" font-size="10.00">QpOases.h</text>
</a>
</g>
</g>
<!-- Node1&#45;&gt;Node2 -->
<g id="edge1" class="edge"><title>Node1&#45;&gt;Node2</title>
<path fill="none" stroke="midnightblue" d="M435.395,-224.498C410.522,-213.861 380.449,-201.001 358.629,-191.67"/>
<polygon fill="midnightblue" stroke="midnightblue" points="359.804,-188.366 349.234,-187.652 357.052,-194.803 359.804,-188.366"/>
</g>
<!-- Node4 -->
<g id="node4" class="node"><title>Node4</title>
<g id="a_node4"><a xlink:href="_parameters_8h.html" target="_top" xlink:title="Parameters.h">
<polygon fill="none" stroke="black" points="164.5,-56.5 164.5,-75.5 239.5,-75.5 239.5,-56.5 164.5,-56.5"/>
<text text-anchor="middle" x="202" y="-63.5" font-family="Helvetica,sans-Serif" font-size="10.00">Parameters.h</text>
</a>
</g>
</g>
<!-- Node1&#45;&gt;Node4 -->
<g id="edge24" class="edge"><title>Node1&#45;&gt;Node4</title>
<path fill="none" stroke="midnightblue" d="M415.059,-236.229C375.07,-228.925 324.669,-214.876 287,-188 248.995,-160.884 222.091,-111.231 209.696,-84.7451"/>
<polygon fill="midnightblue" stroke="midnightblue" points="212.839,-83.2028 205.534,-75.5292 206.46,-86.0835 212.839,-83.2028"/>
</g>
<!-- Node8 -->
<g id="node8" class="node"><title>Node8</title>
<g id="a_node8"><a xlink:href="_block_information_8h.html" target="_top" xlink:title="BlockInformation.h">
<polygon fill="none" stroke="black" points="296,-56.5 296,-75.5 394,-75.5 394,-56.5 296,-56.5"/>
<text text-anchor="middle" x="345" y="-63.5" font-family="Helvetica,sans-Serif" font-size="10.00">BlockInformation.h</text>
</a>
</g>
</g>
<!-- Node1&#45;&gt;Node8 -->
<g id="edge11" class="edge"><title>Node1&#45;&gt;Node8</title>
<path fill="none" stroke="midnightblue" d="M465.926,-224.382C438.996,-189.333 383.084,-116.565 357.85,-83.7236"/>
<polygon fill="midnightblue" stroke="midnightblue" points="360.464,-81.3809 351.595,-75.5838 354.913,-85.6459 360.464,-81.3809"/>
</g>
<!-- Node9 -->
<g id="node9" class="node"><title>Node9</title>
<polygon fill="none" stroke="#bfbfbf" points="459,-0.5 459,-19.5 497,-19.5 497,-0.5 459,-0.5"/>
<text text-anchor="middle" x="478" y="-7.5" font-family="Helvetica,sans-Serif" font-size="10.00">tuple</text>
</g>
<!-- Node1&#45;&gt;Node9 -->
<g id="edge30" class="edge"><title>Node1&#45;&gt;Node9</title>
<path fill="none" stroke="midnightblue" d="M501.326,-224.11C524.237,-199.212 557.066,-154.641 547,-112 538.882,-77.613 512.171,-45.2617 494.464,-26.8249"/>
<polygon fill="midnightblue" stroke="midnightblue" points="496.813,-24.2233 487.284,-19.5926 491.845,-29.1552 496.813,-24.2233"/>
</g>
<!-- Node11 -->
<g id="node11" class="node"><title>Node11</title>
<g id="a_node11"><a xlink:href="_log_8h.html" target="_top" xlink:title="Log.h">
<polygon fill="none" stroke="black" points="450.5,-56.5 450.5,-75.5 491.5,-75.5 491.5,-56.5 450.5,-56.5"/>
<text text-anchor="middle" x="471" y="-63.5" font-family="Helvetica,sans-Serif" font-size="10.00">Log.h</text>
</a>
</g>
</g>
<!-- Node1&#45;&gt;Node11 -->
<g id="edge17" class="edge"><title>Node1&#45;&gt;Node11</title>
<path fill="none" stroke="midnightblue" d="M479.892,-224.382C477.954,-190.082 473.975,-119.658 472.067,-85.8828"/>
<polygon fill="midnightblue" stroke="midnightblue" points="475.544,-85.3704 471.485,-75.5838 468.555,-85.7653 475.544,-85.3704"/>
</g>
<!-- Node13 -->
<g id="node13" class="node"><title>Node13</title>
<g id="a_node13"><a xlink:href="_parameter_8h.html" target="_top" xlink:title="Parameter.h">
<polygon fill="none" stroke="black" points="0,-56.5 0,-75.5 70,-75.5 70,-56.5 0,-56.5"/>
<text text-anchor="middle" x="35" y="-63.5" font-family="Helvetica,sans-Serif" font-size="10.00">Parameter.h</text>
</a>
</g>
</g>
<!-- Node1&#45;&gt;Node13 -->
<g id="edge21" class="edge"><title>Node1&#45;&gt;Node13</title>
<path fill="none" stroke="midnightblue" d="M415.499,-233.531C338.911,-219.218 210.253,-188.607 113,-132 89.3484,-118.233 65.6971,-97.2587 50.7442,-82.8816"/>
<polygon fill="midnightblue" stroke="midnightblue" points="52.9757,-80.1676 43.3872,-75.6608 48.0723,-85.1634 52.9757,-80.1676"/>
</g>
<!-- Node14 -->
<g id="node14" class="node"><title>Node14</title>
<g id="a_node14"><a xlink:href="_signal_8h.html" target="_top" xlink:title="Signal.h">
<polygon fill="none" stroke="black" points="486,-112.5 486,-131.5 538,-131.5 538,-112.5 486,-112.5"/>
<text text-anchor="middle" x="512" y="-119.5" font-family="Helvetica,sans-Serif" font-size="10.00">Signal.h</text>
</a>
</g>
</g>
<!-- Node1&#45;&gt;Node14 -->
<g id="edge25" class="edge"><title>Node1&#45;&gt;Node14</title>
<path fill="none" stroke="midnightblue" d="M486.05,-224.29C491.92,-201.375 501.535,-163.846 507.267,-141.473"/>
<polygon fill="midnightblue" stroke="midnightblue" points="510.712,-142.131 509.803,-131.575 503.931,-140.393 510.712,-142.131"/>
</g>
<!-- Node15 -->
<g id="node15" class="node"><title>Node15</title>
<polygon fill="none" stroke="#bfbfbf" points="582.5,-168.5 582.5,-187.5 647.5,-187.5 647.5,-168.5 582.5,-168.5"/>
<text text-anchor="middle" x="615" y="-175.5" font-family="Helvetica,sans-Serif" font-size="10.00">Eigen/Core</text>
</g>
<!-- Node1&#45;&gt;Node15 -->
<g id="edge27" class="edge"><title>Node1&#45;&gt;Node15</title>
<path fill="none" stroke="midnightblue" d="M521.204,-224.498C542.836,-214.005 568.928,-201.348 588.096,-192.051"/>
<polygon fill="midnightblue" stroke="midnightblue" points="589.693,-195.166 597.163,-187.652 586.638,-188.868 589.693,-195.166"/>
</g>
<!-- Node16 -->
<g id="node16" class="node"><title>Node16</title>
<polygon fill="none" stroke="#bfbfbf" points="666,-168.5 666,-187.5 746,-187.5 746,-168.5 666,-168.5"/>
<text text-anchor="middle" x="706" y="-175.5" font-family="Helvetica,sans-Serif" font-size="10.00">qpOASES.hpp</text>
</g>
<!-- Node1&#45;&gt;Node16 -->
<g id="edge28" class="edge"><title>Node1&#45;&gt;Node16</title>
<path fill="none" stroke="midnightblue" d="M546.684,-225.025C585.593,-213.784 633.596,-199.917 666.681,-190.359"/>
<polygon fill="midnightblue" stroke="midnightblue" points="667.808,-193.677 676.443,-187.539 665.865,-186.952 667.808,-193.677"/>
</g>
<!-- Node17 -->
<g id="node17" class="node"><title>Node17</title>
<polygon fill="none" stroke="#bfbfbf" points="764,-168.5 764,-187.5 816,-187.5 816,-168.5 764,-168.5"/>
<text text-anchor="middle" x="790" y="-175.5" font-family="Helvetica,sans-Serif" font-size="10.00">ostream</text>
</g>
<!-- Node1&#45;&gt;Node17 -->
<g id="edge29" class="edge"><title>Node1&#45;&gt;Node17</title>
<path fill="none" stroke="midnightblue" d="M546.526,-231.565C599.878,-221.221 677.361,-205.702 753.854,-188.182"/>
<polygon fill="midnightblue" stroke="midnightblue" points="754.702,-191.579 763.661,-185.923 753.131,-184.757 754.702,-191.579"/>
</g>
<!-- Node3 -->
<g id="node3" class="node"><title>Node3</title>
<g id="a_node3"><a xlink:href="_block_8h.html" target="_top" xlink:title="Block.h">
<polygon fill="none" stroke="black" points="122,-112.5 122,-131.5 172,-131.5 172,-112.5 122,-112.5"/>
<text text-anchor="middle" x="147" y="-119.5" font-family="Helvetica,sans-Serif" font-size="10.00">Block.h</text>
</a>
</g>
</g>
<!-- Node2&#45;&gt;Node3 -->
<g id="edge2" class="edge"><title>Node2&#45;&gt;Node3</title>
<path fill="none" stroke="midnightblue" d="M300.162,-168.444C268.05,-158.916 216.156,-143.519 181.809,-133.328"/>
<polygon fill="midnightblue" stroke="midnightblue" points="182.769,-129.962 172.187,-130.473 180.778,-136.673 182.769,-129.962"/>
</g>
<!-- Node5 -->
<g id="node5" class="node"><title>Node5</title>
<polygon fill="none" stroke="#bfbfbf" points="389,-0.5 389,-19.5 441,-19.5 441,-0.5 389,-0.5"/>
<text text-anchor="middle" x="415" y="-7.5" font-family="Helvetica,sans-Serif" font-size="10.00">memory</text>
</g>
<!-- Node2&#45;&gt;Node5 -->
<g id="edge9" class="edge"><title>Node2&#45;&gt;Node5</title>
<path fill="none" stroke="midnightblue" d="M337.29,-168.357C352.628,-151.848 385.38,-114.07 402,-76 408.41,-61.3166 411.693,-43.3803 413.354,-30.0715"/>
<polygon fill="midnightblue" stroke="midnightblue" points="416.873,-30.0756 414.434,-19.7652 409.911,-29.3459 416.873,-30.0756"/>
</g>
<!-- Node6 -->
<g id="node6" class="node"><title>Node6</title>
<polygon fill="none" stroke="#bfbfbf" points="214.5,-0.5 214.5,-19.5 255.5,-19.5 255.5,-0.5 214.5,-0.5"/>
<text text-anchor="middle" x="235" y="-7.5" font-family="Helvetica,sans-Serif" font-size="10.00">string</text>
</g>
<!-- Node2&#45;&gt;Node6 -->
<g id="edge10" class="edge"><title>Node2&#45;&gt;Node6</title>
<path fill="none" stroke="midnightblue" d="M323.946,-168.075C309.022,-141.719 264.943,-63.878 245.001,-28.6608"/>
<polygon fill="midnightblue" stroke="midnightblue" points="247.825,-26.5452 239.852,-19.5681 241.734,-29.9945 247.825,-26.5452"/>
</g>
<!-- Node3&#45;&gt;Node4 -->
<g id="edge3" class="edge"><title>Node3&#45;&gt;Node4</title>
<path fill="none" stroke="midnightblue" d="M156.082,-112.083C164.171,-104.141 176.195,-92.3354 185.91,-82.7973"/>
<polygon fill="midnightblue" stroke="midnightblue" points="188.403,-85.2545 193.087,-75.7511 183.499,-80.2595 188.403,-85.2545"/>
</g>
<!-- Node3&#45;&gt;Node6 -->
<g id="edge7" class="edge"><title>Node3&#45;&gt;Node6</title>
<path fill="none" stroke="midnightblue" d="M145.731,-112.155C144.296,-98.7909 143.48,-73.1898 155,-56 166.569,-38.7375 187.111,-27.385 204.481,-20.4009"/>
<polygon fill="midnightblue" stroke="midnightblue" points="206.089,-23.5377 214.251,-16.7819 203.658,-16.9736 206.089,-23.5377"/>
</g>
<!-- Node7 -->
<g id="node7" class="node"><title>Node7</title>
<polygon fill="none" stroke="#bfbfbf" points="114,-0.5 114,-19.5 158,-19.5 158,-0.5 114,-0.5"/>
<text text-anchor="middle" x="136" y="-7.5" font-family="Helvetica,sans-Serif" font-size="10.00">vector</text>
</g>
<!-- Node3&#45;&gt;Node7 -->
<g id="edge8" class="edge"><title>Node3&#45;&gt;Node7</title>
<path fill="none" stroke="midnightblue" d="M140.371,-112.275C134.235,-103.607 125.542,-89.6693 122,-76 117.933,-60.3051 122.543,-42.2664 127.533,-29.1799"/>
<polygon fill="midnightblue" stroke="midnightblue" points="130.791,-30.4599 131.457,-19.886 124.343,-27.7367 130.791,-30.4599"/>
</g>
<!-- Node4&#45;&gt;Node5 -->
<g id="edge4" class="edge"><title>Node4&#45;&gt;Node5</title>
<path fill="none" stroke="midnightblue" d="M235.75,-56.4435C274.814,-46.54 338.892,-30.2949 378.92,-20.1471"/>
<polygon fill="midnightblue" stroke="midnightblue" points="379.96,-23.4941 388.794,-17.6439 378.24,-16.7087 379.96,-23.4941"/>
</g>
<!-- Node4&#45;&gt;Node6 -->
<g id="edge5" class="edge"><title>Node4&#45;&gt;Node6</title>
<path fill="none" stroke="midnightblue" d="M207.449,-56.083C212.014,-48.6127 218.668,-37.7244 224.293,-28.5199"/>
<polygon fill="midnightblue" stroke="midnightblue" points="227.424,-30.109 229.652,-19.7511 221.451,-26.4588 227.424,-30.109"/>
</g>
<!-- Node4&#45;&gt;Node7 -->
<g id="edge6" class="edge"><title>Node4&#45;&gt;Node7</title>
<path fill="none" stroke="midnightblue" d="M191.396,-56.324C181.544,-48.2631 166.649,-36.0765 154.785,-26.3695"/>
<polygon fill="midnightblue" stroke="midnightblue" points="156.753,-23.4575 146.797,-19.8339 152.32,-28.8752 156.753,-23.4575"/>
</g>
<!-- Node8&#45;&gt;Node5 -->
<g id="edge12" class="edge"><title>Node8&#45;&gt;Node5</title>
<path fill="none" stroke="midnightblue" d="M356.247,-56.324C366.797,-48.1849 382.801,-35.8395 395.442,-26.0874"/>
<polygon fill="midnightblue" stroke="midnightblue" points="397.769,-28.7132 403.549,-19.8339 393.493,-23.1707 397.769,-28.7132"/>
</g>
<!-- Node8&#45;&gt;Node6 -->
<g id="edge13" class="edge"><title>Node8&#45;&gt;Node6</title>
<path fill="none" stroke="midnightblue" d="M327.327,-56.324C309.606,-47.6247 282.097,-34.1202 261.712,-24.113"/>
<polygon fill="midnightblue" stroke="midnightblue" points="263.149,-20.9195 252.63,-19.6545 260.064,-27.2031 263.149,-20.9195"/>
</g>
<!-- Node8&#45;&gt;Node7 -->
<g id="edge16" class="edge"><title>Node8&#45;&gt;Node7</title>
<path fill="none" stroke="midnightblue" d="M311.883,-56.4435C272.366,-46.2334 206.762,-29.2831 167.825,-19.2226"/>
<polygon fill="midnightblue" stroke="midnightblue" points="168.62,-15.8133 158.062,-16.7003 166.869,-22.5907 168.62,-15.8133"/>
</g>
<!-- Node8&#45;&gt;Node9 -->
<g id="edge14" class="edge"><title>Node8&#45;&gt;Node9</title>
<path fill="none" stroke="midnightblue" d="M366.074,-56.4435C388.577,-47.3071 424.373,-32.7734 449.407,-22.609"/>
<polygon fill="midnightblue" stroke="midnightblue" points="450.803,-25.82 458.752,-18.8151 448.17,-19.3342 450.803,-25.82"/>
</g>
<!-- Node10 -->
<g id="node10" class="node"><title>Node10</title>
<polygon fill="none" stroke="#bfbfbf" points="325,-0.5 325,-19.5 365,-19.5 365,-0.5 325,-0.5"/>
<text text-anchor="middle" x="345" y="-7.5" font-family="Helvetica,sans-Serif" font-size="10.00">utility</text>
</g>
<!-- Node8&#45;&gt;Node10 -->
<g id="edge15" class="edge"><title>Node8&#45;&gt;Node10</title>
<path fill="none" stroke="midnightblue" d="M345,-56.083C345,-49.0059 345,-38.8611 345,-29.9865"/>
<polygon fill="midnightblue" stroke="midnightblue" points="348.5,-29.751 345,-19.7511 341.5,-29.7511 348.5,-29.751"/>
</g>
<!-- Node11&#45;&gt;Node5 -->
<g id="edge18" class="edge"><title>Node11&#45;&gt;Node5</title>
<path fill="none" stroke="midnightblue" d="M462.003,-56.324C453.806,-48.4196 441.494,-36.5482 431.528,-26.9377"/>
<polygon fill="midnightblue" stroke="midnightblue" points="433.789,-24.2558 424.161,-19.8339 428.93,-29.2947 433.789,-24.2558"/>
</g>
<!-- Node11&#45;&gt;Node6 -->
<g id="edge20" class="edge"><title>Node11&#45;&gt;Node6</title>
<path fill="none" stroke="midnightblue" d="M450.469,-60.3023C408.887,-50.7878 314.525,-29.1965 265.639,-18.0106"/>
<polygon fill="midnightblue" stroke="midnightblue" points="266.18,-14.544 255.651,-15.7253 264.619,-21.3677 266.18,-14.544"/>
</g>
<!-- Node12 -->
<g id="node12" class="node"><title>Node12</title>
<polygon fill="none" stroke="#bfbfbf" points="515,-0.5 515,-19.5 567,-19.5 567,-0.5 515,-0.5"/>
<text text-anchor="middle" x="541" y="-7.5" font-family="Helvetica,sans-Serif" font-size="10.00">sstream</text>
</g>
<!-- Node11&#45;&gt;Node12 -->
<g id="edge19" class="edge"><title>Node11&#45;&gt;Node12</title>
<path fill="none" stroke="midnightblue" d="M482.247,-56.324C492.797,-48.1849 508.801,-35.8395 521.442,-26.0874"/>
<polygon fill="midnightblue" stroke="midnightblue" points="523.769,-28.7132 529.549,-19.8339 519.493,-23.1707 523.769,-28.7132"/>
</g>
<!-- Node13&#45;&gt;Node6 -->
<g id="edge22" class="edge"><title>Node13&#45;&gt;Node6</title>
<path fill="none" stroke="midnightblue" d="M66.6906,-56.4435C104.546,-46.2225 167.419,-29.2468 204.665,-19.1904"/>
<polygon fill="midnightblue" stroke="midnightblue" points="205.707,-22.5345 214.449,-16.5488 203.882,-15.7765 205.707,-22.5345"/>
</g>
<!-- Node13&#45;&gt;Node7 -->
<g id="edge23" class="edge"><title>Node13&#45;&gt;Node7</title>
<path fill="none" stroke="midnightblue" d="M51.2274,-56.324C67.351,-47.7034 92.3002,-34.3643 110.964,-24.3855"/>
<polygon fill="midnightblue" stroke="midnightblue" points="112.644,-27.456 119.813,-19.6545 109.344,-21.283 112.644,-27.456"/>
</g>
<!-- Node14&#45;&gt;Node5 -->
<g id="edge26" class="edge"><title>Node14&#45;&gt;Node5</title>
<path fill="none" stroke="midnightblue" d="M512.67,-112.067C513.21,-98.5864 512.359,-72.8361 500,-56 487.912,-39.5324 467.964,-28.527 450.43,-21.5241"/>
<polygon fill="midnightblue" stroke="midnightblue" points="451.596,-18.2235 441.002,-18.036 449.167,-24.7886 451.596,-18.2235"/>
</g>
</g>
</svg>
        <g id="navigator" transform="translate(0 0)" fill="#404254">
                <rect fill="#f2f5e9" fill-opacity="0.5" stroke="#606060" stroke-width=".5" x="0" y="0" width="60" height="60"/>
                <use id="zoomplus" xlink:href="#zoomPlus" x="17" y="9" onmousedown="handleZoom(evt,'in')"/>
                <use id="zoomminus" xlink:href="#zoomMin" x="42" y="9" onmousedown="handleZoom(evt,'out')"/>
                <use id="reset" xlink:href="#resetDef" x="30" y="36" onmousedown="handleReset()"/>
                <g id="arrowUp" xlink:href="#dirArrow" transform="translate(30 24)" onmousedown="handlePan(0,-1)">
                  <use xlink:href="#rim" fill="#404040">
                        <set attributeName="fill" to="#808080" begin="arrowUp.mouseover" end="arrowUp.mouseout"/>
                  </use>
                  <path fill="none" stroke="white" stroke-width="1.5" d="M0,-3.0v7 M-2.5,-0.5L0,-3.0L2.5,-0.5"/>
                </g>
                <g id="arrowRight" xlink:href="#dirArrow" transform="rotate(90) translate(36 -43)" onmousedown="handlePan(1,0)">
                  <use xlink:href="#rim" fill="#404040">
                        <set attributeName="fill" to="#808080" begin="arrowRight.mouseover" end="arrowRight.mouseout"/>
                  </use>
                  <path fill="none" stroke="white" stroke-width="1.5" d="M0,-3.0v7 M-2.5,-0.5L0,-3.0L2.5,-0.5"/>
                </g>
                <g id="arrowDown" xlink:href="#dirArrow" transform="rotate(180) translate(-30 -48)" onmousedown="handlePan(0,1)">
                  <use xlink:href="#rim" fill="#404040">
                        <set attributeName="fill" to="#808080" begin="arrowDown.mouseover" end="arrowDown.mouseout"/>
                  </use>
                  <path fill="none" stroke="white" stroke-width="1.5" d="M0,-3.0v7 M-2.5,-0.5L0,-3.0L2.5,-0.5"/>
                </g>
                <g id="arrowLeft" xlink:href="#dirArrow" transform="rotate(270) translate(-36 17)" onmousedown="handlePan(-1,0)">
                  <use xlink:href="#rim" fill="#404040">
                        <set attributeName="fill" to="#808080" begin="arrowLeft.mouseover" end="arrowLeft.mouseout"/>
                  </use>
                  <path fill="none" stroke="white" stroke-width="1.5" d="M0,-3.0v7 M-2.5,-0.5L0,-3.0L2.5,-0.5"/>
                </g>
        </g>
        <svg viewBox="0 0 15 15" width="100%" height="30px" preserveAspectRatio="xMaxYMin meet">
         <g id="arrow_out" transform="scale(0.3 0.3)">
          <a xlink:href="_qp_oases_8cpp__incl_org.svg" target="_base">
           <rect id="button" ry="5" rx="5" y="6" x="6" height="38" width="38"
                fill="#f2f5e9" fill-opacity="0.5" stroke="#606060" stroke-width="1.0"/>
           <path id="arrow"
             d="M 11.500037,31.436501 C 11.940474,20.09759 22.043105,11.32322 32.158766,21.979434 L 37.068811,17.246167 C 37.068811,17.246167 37.088388,32 37.088388,32 L 22.160133,31.978069 C 22.160133,31.978069 26.997745,27.140456 26.997745,27.140456 C 18.528582,18.264221 13.291696,25.230495 11.500037,31.436501 z"
             style="fill:#404040;"/>
          </a>
         </g>
        </svg>
</svg>
