<?xml version="1.0" encoding="UTF-8" standalone="no"?>
<!DOCTYPE svg PUBLIC "-//W3C//DTD SVG 1.1//EN"
 "http://www.w3.org/Graphics/SVG/1.1/DTD/svg11.dtd">
<!-- Generated by graphviz version 2.36.0 (20140111.2315)
 -->
<!-- Title: /home/travis/build/robotology/wb&#45;toolbox/toolbox/library/src/QpOases.cpp Pages: 1 -->
<!--zoomable 274 -->
<svg id="main" version="1.1" xmlns="http://www.w3.org/2000/svg" xmlns:xlink="http://www.w3.org/1999/xlink" xml:space="preserve" onload="init(evt)">
<style type="text/css"><![CDATA[
.edge:hover path { stroke: red; }
.edge:hover polygon { stroke: red; fill: red; }
]]></style>
<script type="text/javascript"><![CDATA[
var edges = document.getElementsByTagName('g');
if (edges && edges.length) {
  for (var i=0;i<edges.length;i++) {
    if (edges[i].id.substr(0,4)=='edge') {
      edges[i].setAttribute('class','edge');
    }
  }
}
]]></script>
        <defs>
                <circle id="rim" cx="0" cy="0" r="7"/>
                <circle id="rim2" cx="0" cy="0" r="3.5"/>
                <g id="zoomPlus">
                        <use xlink:href="#rim" fill="#404040">
                                <set attributeName="fill" to="#808080" begin="zoomplus.mouseover" end="zoomplus.mouseout"/>
                        </use>
                        <path d="M-4,0h8M0,-4v8" fill="none" stroke="white" stroke-width="1.5" pointer-events="none"/>
                </g>
                <g id="zoomMin">
                        <use xlink:href="#rim" fill="#404040">
                                <set attributeName="fill" to="#808080" begin="zoomminus.mouseover" end="zoomminus.mouseout"/>
                        </use>
                        <path d="M-4,0h8" fill="none" stroke="white" stroke-width="1.5" pointer-events="none"/>
                </g>
                <g id="dirArrow">
                        <path fill="none" stroke="white" stroke-width="1.5" d="M0,-3.0v7 M-2.5,-0.5L0,-3.0L2.5,-0.5"/>
                </g>
               <g id="resetDef">
                       <use xlink:href="#rim2" fill="#404040">
                               <set attributeName="fill" to="#808080" begin="reset.mouseover" end="reset.mouseout"/>
                       </use>
               </g>
        </defs>

<script type="text/javascript">
var viewWidth = 917;
var viewHeight = 274;
var sectionId = 'dynsection-0';
</script>
<script xlink:href="svgpan.js"/>
<svg id="graph" class="graph">
<g id="viewport">
<title>/home/travis/build/robotology/wb&#45;toolbox/toolbox/library/src/QpOases.cpp</title>
<!-- Node1 -->
<g id="node1" class="node"><title>Node1</title>
<polygon fill="#bfbfbf" stroke="black" points="482,-224.5 482,-265.5 642,-265.5 642,-224.5 482,-224.5"/>
<text text-anchor="start" x="490" y="-253.5" font-family="Helvetica,sans-Serif" font-size="10.00">/home/travis/build</text>
<text text-anchor="start" x="490" y="-242.5" font-family="Helvetica,sans-Serif" font-size="10.00">/robotology/wb&#45;toolbox</text>
<text text-anchor="middle" x="562" y="-231.5" font-family="Helvetica,sans-Serif" font-size="10.00">/toolbox/library/src/QpOases.cpp</text>
</g>
<!-- Node2 -->
<g id="node2" class="node"><title>Node2</title>
<g id="a_node2"><a xlink:href="_qp_oases_8h.html" target="_top" xlink:title="QpOases.h">
<polygon fill="none" stroke="black" points="362,-168.5 362,-187.5 428,-187.5 428,-168.5 362,-168.5"/>
<text text-anchor="middle" x="395" y="-175.5" font-family="Helvetica,sans-Serif" font-size="10.00">QpOases.h</text>
</a>
</g>
</g>
<!-- Node1&#45;&gt;Node2 -->
<g id="edge1" class="edge"><title>Node1&#45;&gt;Node2</title>
<path fill="none" stroke="midnightblue" d="M511.894,-224.498C484.198,-213.718 450.632,-200.653 426.586,-191.294"/>
<polygon fill="midnightblue" stroke="midnightblue" points="427.819,-188.018 417.23,-187.652 425.28,-194.541 427.819,-188.018"/>
</g>
<!-- Node4 -->
<g id="node4" class="node"><title>Node4</title>
<g id="a_node4"><a xlink:href="_parameters_8h.html" target="_top" xlink:title="Core/Parameters.h">
<polygon fill="none" stroke="black" points="188.5,-56.5 188.5,-75.5 287.5,-75.5 287.5,-56.5 188.5,-56.5"/>
<text text-anchor="middle" x="238" y="-63.5" font-family="Helvetica,sans-Serif" font-size="10.00">Core/Parameters.h</text>
</a>
</g>
</g>
<!-- Node1&#45;&gt;Node4 -->
<g id="edge24" class="edge"><title>Node1&#45;&gt;Node4</title>
<path fill="none" stroke="midnightblue" d="M481.785,-233.131C441.102,-225.063 392.152,-211.273 353,-188 307.294,-160.831 268.034,-110.457 249.456,-84.0925"/>
<polygon fill="midnightblue" stroke="midnightblue" points="252.129,-81.803 243.574,-75.5533 246.365,-85.774 252.129,-81.803"/>
</g>
<!-- Node8 -->
<g id="node8" class="node"><title>Node8</title>
<g id="a_node8"><a xlink:href="_block_information_8h.html" target="_top" xlink:title="Core/BlockInformation.h">
<polygon fill="none" stroke="black" points="344,-56.5 344,-75.5 466,-75.5 466,-56.5 344,-56.5"/>
<text text-anchor="middle" x="405" y="-63.5" font-family="Helvetica,sans-Serif" font-size="10.00">Core/BlockInformation.h</text>
</a>
</g>
</g>
<!-- Node1&#45;&gt;Node8 -->
<g id="edge11" class="edge"><title>Node1&#45;&gt;Node8</title>
<path fill="none" stroke="midnightblue" d="M544.598,-224.382C513.378,-189.184 448.412,-115.943 419.462,-83.3047"/>
<polygon fill="midnightblue" stroke="midnightblue" points="421.868,-80.7424 412.614,-75.5838 416.631,-85.3874 421.868,-80.7424"/>
</g>
<!-- Node9 -->
<g id="node9" class="node"><title>Node9</title>
<polygon fill="none" stroke="#bfbfbf" points="525,-0.5 525,-19.5 563,-19.5 563,-0.5 525,-0.5"/>
<text text-anchor="middle" x="544" y="-7.5" font-family="Helvetica,sans-Serif" font-size="10.00">tuple</text>
</g>
<!-- Node1&#45;&gt;Node9 -->
<g id="edge30" class="edge"><title>Node1&#45;&gt;Node9</title>
<path fill="none" stroke="midnightblue" d="M589.38,-224.318C619.331,-200.143 661.536,-156.801 649,-112 641.154,-83.9599 635.39,-76.7861 615,-56 602.341,-43.0954 585.31,-32.1435 571.102,-24.2758"/>
<polygon fill="midnightblue" stroke="midnightblue" points="572.718,-21.1714 562.247,-19.5614 569.429,-27.3503 572.718,-21.1714"/>
</g>
<!-- Node11 -->
<g id="node11" class="node"><title>Node11</title>
<g id="a_node11"><a xlink:href="_log_8h.html" target="_top" xlink:title="Core/Log.h">
<polygon fill="none" stroke="black" points="522.5,-56.5 522.5,-75.5 587.5,-75.5 587.5,-56.5 522.5,-56.5"/>
<text text-anchor="middle" x="555" y="-63.5" font-family="Helvetica,sans-Serif" font-size="10.00">Core/Log.h</text>
</a>
</g>
</g>
<!-- Node1&#45;&gt;Node11 -->
<g id="edge17" class="edge"><title>Node1&#45;&gt;Node11</title>
<path fill="none" stroke="midnightblue" d="M560.387,-224.191C558.653,-201.821 556.009,-164.325 555,-132 554.515,-116.472 554.552,-98.8465 554.689,-85.8707"/>
<polygon fill="midnightblue" stroke="midnightblue" points="558.189,-85.8807 554.825,-75.8341 551.19,-85.7857 558.189,-85.8807"/>
</g>
<!-- Node13 -->
<g id="node13" class="node"><title>Node13</title>
<g id="a_node13"><a xlink:href="_parameter_8h.html" target="_top" xlink:title="Core/Parameter.h">
<polygon fill="none" stroke="black" points="0,-56.5 0,-75.5 94,-75.5 94,-56.5 0,-56.5"/>
<text text-anchor="middle" x="47" y="-63.5" font-family="Helvetica,sans-Serif" font-size="10.00">Core/Parameter.h</text>
</a>
</g>
</g>
<!-- Node1&#45;&gt;Node13 -->
<g id="edge21" class="edge"><title>Node1&#45;&gt;Node13</title>
<path fill="none" stroke="midnightblue" d="M481.971,-234.151C392.079,-220.682 243.76,-191.111 129,-132 103.695,-118.966 78.648,-97.537 63.0225,-82.8723"/>
<polygon fill="midnightblue" stroke="midnightblue" points="65.397,-80.3 55.7588,-75.9005 60.5497,-85.3502 65.397,-80.3"/>
</g>
<!-- Node14 -->
<g id="node14" class="node"><title>Node14</title>
<g id="a_node14"><a xlink:href="_signal_8h.html" target="_top" xlink:title="Core/Signal.h">
<polygon fill="none" stroke="black" points="564,-112.5 564,-131.5 640,-131.5 640,-112.5 564,-112.5"/>
<text text-anchor="middle" x="602" y="-119.5" font-family="Helvetica,sans-Serif" font-size="10.00">Core/Signal.h</text>
</a>
</g>
</g>
<!-- Node1&#45;&gt;Node14 -->
<g id="edge25" class="edge"><title>Node1&#45;&gt;Node14</title>
<path fill="none" stroke="midnightblue" d="M568.516,-224.29C576.126,-201.27 588.61,-163.503 595.994,-141.168"/>
<polygon fill="midnightblue" stroke="midnightblue" points="599.35,-142.168 599.165,-131.575 592.703,-139.971 599.35,-142.168"/>
</g>
<!-- Node15 -->
<g id="node15" class="node"><title>Node15</title>
<polygon fill="none" stroke="#bfbfbf" points="675.5,-168.5 675.5,-187.5 740.5,-187.5 740.5,-168.5 675.5,-168.5"/>
<text text-anchor="middle" x="708" y="-175.5" font-family="Helvetica,sans-Serif" font-size="10.00">Eigen/Core</text>
</g>
<!-- Node1&#45;&gt;Node15 -->
<g id="edge27" class="edge"><title>Node1&#45;&gt;Node15</title>
<path fill="none" stroke="midnightblue" d="M605.805,-224.498C629.588,-213.909 658.322,-201.117 679.256,-191.797"/>
<polygon fill="midnightblue" stroke="midnightblue" points="680.853,-194.917 688.565,-187.652 678.006,-188.522 680.853,-194.917"/>
</g>
<!-- Node16 -->
<g id="node16" class="node"><title>Node16</title>
<polygon fill="none" stroke="#bfbfbf" points="759,-168.5 759,-187.5 839,-187.5 839,-168.5 759,-168.5"/>
<text text-anchor="middle" x="799" y="-175.5" font-family="Helvetica,sans-Serif" font-size="10.00">qpOASES.hpp</text>
</g>
<!-- Node1&#45;&gt;Node16 -->
<g id="edge28" class="edge"><title>Node1&#45;&gt;Node16</title>
<path fill="none" stroke="midnightblue" d="M633.108,-224.498C673.936,-213.3 723.75,-199.638 758.075,-190.224"/>
<polygon fill="midnightblue" stroke="midnightblue" points="759.045,-193.587 767.763,-187.567 757.194,-186.837 759.045,-193.587"/>
</g>
<!-- Node17 -->
<g id="node17" class="node"><title>Node17</title>
<polygon fill="none" stroke="#bfbfbf" points="857,-168.5 857,-187.5 909,-187.5 909,-168.5 857,-168.5"/>
<text text-anchor="middle" x="883" y="-175.5" font-family="Helvetica,sans-Serif" font-size="10.00">ostream</text>
</g>
<!-- Node1&#45;&gt;Node17 -->
<g id="edge29" class="edge"><title>Node1&#45;&gt;Node17</title>
<path fill="none" stroke="midnightblue" d="M642.086,-229.612C697.102,-219.427 772.022,-204.967 846.622,-188.217"/>
<polygon fill="midnightblue" stroke="midnightblue" points="847.684,-191.565 856.667,-185.947 846.141,-184.737 847.684,-191.565"/>
</g>
<!-- Node3 -->
<g id="node3" class="node"><title>Node3</title>
<g id="a_node3"><a xlink:href="_block_8h.html" target="_top" xlink:title="Core/Block.h">
<polygon fill="none" stroke="black" points="138,-112.5 138,-131.5 212,-131.5 212,-112.5 138,-112.5"/>
<text text-anchor="middle" x="175" y="-119.5" font-family="Helvetica,sans-Serif" font-size="10.00">Core/Block.h</text>
</a>
</g>
</g>
<!-- Node2&#45;&gt;Node3 -->
<g id="edge2" class="edge"><title>Node2&#45;&gt;Node3</title>
<path fill="none" stroke="midnightblue" d="M361.587,-168.799C323.72,-159.504 261.814,-144.309 219.786,-133.993"/>
<polygon fill="midnightblue" stroke="midnightblue" points="220.366,-130.531 209.82,-131.547 218.697,-137.33 220.366,-130.531"/>
</g>
<!-- Node5 -->
<g id="node5" class="node"><title>Node5</title>
<polygon fill="none" stroke="#bfbfbf" points="455,-0.5 455,-19.5 507,-19.5 507,-0.5 455,-0.5"/>
<text text-anchor="middle" x="481" y="-7.5" font-family="Helvetica,sans-Serif" font-size="10.00">memory</text>
</g>
<!-- Node2&#45;&gt;Node5 -->
<g id="edge9" class="edge"><title>Node2&#45;&gt;Node5</title>
<path fill="none" stroke="midnightblue" d="M404.781,-168.443C422.4,-152.363 459.114,-115.661 475,-76 480.866,-61.3539 482.127,-43.4143 482.056,-30.0947"/>
<polygon fill="midnightblue" stroke="midnightblue" points="485.544,-29.6636 481.733,-19.778 478.547,-29.8825 485.544,-29.6636"/>
</g>
<!-- Node6 -->
<g id="node6" class="node"><title>Node6</title>
<polygon fill="none" stroke="#bfbfbf" points="256.5,-0.5 256.5,-19.5 297.5,-19.5 297.5,-0.5 256.5,-0.5"/>
<text text-anchor="middle" x="277" y="-7.5" font-family="Helvetica,sans-Serif" font-size="10.00">string</text>
</g>
<!-- Node2&#45;&gt;Node6 -->
<g id="edge10" class="edge"><title>Node2&#45;&gt;Node6</title>
<path fill="none" stroke="midnightblue" d="M388.656,-168.075C369.76,-141.493 313.635,-62.5379 288.916,-27.7633"/>
<polygon fill="midnightblue" stroke="midnightblue" points="291.737,-25.6909 283.091,-19.5681 286.032,-29.7466 291.737,-25.6909"/>
</g>
<!-- Node3&#45;&gt;Node4 -->
<g id="edge3" class="edge"><title>Node3&#45;&gt;Node4</title>
<path fill="none" stroke="midnightblue" d="M185.122,-112.324C194.526,-104.263 208.744,-92.0765 220.069,-82.3695"/>
<polygon fill="midnightblue" stroke="midnightblue" points="222.379,-84.9993 227.694,-75.8339 217.823,-79.6844 222.379,-84.9993"/>
</g>
<!-- Node3&#45;&gt;Node6 -->
<g id="edge7" class="edge"><title>Node3&#45;&gt;Node6</title>
<path fill="none" stroke="midnightblue" d="M172.893,-112.101C170.252,-98.6653 167.366,-72.9725 179,-56 194.329,-33.6364 223.677,-22.1742 246.277,-16.4363"/>
<polygon fill="midnightblue" stroke="midnightblue" points="247.145,-19.8282 256.111,-14.1842 245.582,-13.0048 247.145,-19.8282"/>
</g>
<!-- Node7 -->
<g id="node7" class="node"><title>Node7</title>
<polygon fill="none" stroke="#bfbfbf" points="147,-0.5 147,-19.5 191,-19.5 191,-0.5 147,-0.5"/>
<text text-anchor="middle" x="169" y="-7.5" font-family="Helvetica,sans-Serif" font-size="10.00">vector</text>
</g>
<!-- Node3&#45;&gt;Node7 -->
<g id="edge8" class="edge"><title>Node3&#45;&gt;Node7</title>
<path fill="none" stroke="midnightblue" d="M167.327,-112.459C160.221,-103.927 150.146,-90.0875 146,-76 141.159,-59.5519 148.935,-41.1612 156.726,-28.1509"/>
<polygon fill="midnightblue" stroke="midnightblue" points="159.685,-30.02 162.22,-19.7329 153.823,-26.1938 159.685,-30.02"/>
</g>
<!-- Node4&#45;&gt;Node5 -->
<g id="edge4" class="edge"><title>Node4&#45;&gt;Node5</title>
<path fill="none" stroke="midnightblue" d="M276.504,-56.4435C322.69,-46.18 399.525,-29.1055 444.707,-19.0652"/>
<polygon fill="midnightblue" stroke="midnightblue" points="445.656,-22.4396 454.659,-16.8536 444.138,-15.6063 445.656,-22.4396"/>
</g>
<!-- Node4&#45;&gt;Node6 -->
<g id="edge5" class="edge"><title>Node4&#45;&gt;Node6</title>
<path fill="none" stroke="midnightblue" d="M244.44,-56.083C249.949,-48.4554 258.031,-37.2645 264.765,-27.9408"/>
<polygon fill="midnightblue" stroke="midnightblue" points="267.662,-29.9071 270.68,-19.7511 261.987,-25.8087 267.662,-29.9071"/>
</g>
<!-- Node4&#45;&gt;Node7 -->
<g id="edge6" class="edge"><title>Node4&#45;&gt;Node7</title>
<path fill="none" stroke="midnightblue" d="M226.914,-56.324C216.514,-48.1849 200.739,-35.8395 188.278,-26.0874"/>
<polygon fill="midnightblue" stroke="midnightblue" points="190.32,-23.2407 180.288,-19.8339 186.006,-28.7533 190.32,-23.2407"/>
</g>
<!-- Node8&#45;&gt;Node5 -->
<g id="edge12" class="edge"><title>Node8&#45;&gt;Node5</title>
<path fill="none" stroke="midnightblue" d="M417.211,-56.324C428.776,-48.1066 446.375,-35.6017 460.161,-25.8069"/>
<polygon fill="midnightblue" stroke="midnightblue" points="462.443,-28.4791 468.567,-19.8339 458.388,-22.7729 462.443,-28.4791"/>
</g>
<!-- Node8&#45;&gt;Node6 -->
<g id="edge13" class="edge"><title>Node8&#45;&gt;Node6</title>
<path fill="none" stroke="midnightblue" d="M384.718,-56.4435C363.653,-47.5566 330.483,-33.5632 306.514,-23.4514"/>
<polygon fill="midnightblue" stroke="midnightblue" points="307.761,-20.1787 297.187,-19.5164 305.04,-26.6283 307.761,-20.1787"/>
</g>
<!-- Node8&#45;&gt;Node7 -->
<g id="edge16" class="edge"><title>Node8&#45;&gt;Node7</title>
<path fill="none" stroke="midnightblue" d="M367.605,-56.4435C321.738,-45.9485 244.746,-28.3317 201.326,-18.3967"/>
<polygon fill="midnightblue" stroke="midnightblue" points="201.836,-14.9229 191.307,-16.1041 200.274,-21.7465 201.836,-14.9229"/>
</g>
<!-- Node8&#45;&gt;Node9 -->
<g id="edge14" class="edge"><title>Node8&#45;&gt;Node9</title>
<path fill="none" stroke="midnightblue" d="M427.025,-56.4435C450.919,-47.1612 489.152,-32.3078 515.362,-22.1254"/>
<polygon fill="midnightblue" stroke="midnightblue" points="516.71,-25.3568 524.764,-18.473 514.175,-18.8318 516.71,-25.3568"/>
</g>
<!-- Node10 -->
<g id="node10" class="node"><title>Node10</title>
<polygon fill="none" stroke="#bfbfbf" points="385,-0.5 385,-19.5 425,-19.5 425,-0.5 385,-0.5"/>
<text text-anchor="middle" x="405" y="-7.5" font-family="Helvetica,sans-Serif" font-size="10.00">utility</text>
</g>
<!-- Node8&#45;&gt;Node10 -->
<g id="edge15" class="edge"><title>Node8&#45;&gt;Node10</title>
<path fill="none" stroke="midnightblue" d="M405,-56.083C405,-49.0059 405,-38.8611 405,-29.9865"/>
<polygon fill="midnightblue" stroke="midnightblue" points="408.5,-29.751 405,-19.7511 401.5,-29.7511 408.5,-29.751"/>
</g>
<!-- Node11&#45;&gt;Node5 -->
<g id="edge18" class="edge"><title>Node11&#45;&gt;Node5</title>
<path fill="none" stroke="midnightblue" d="M543.111,-56.324C531.85,-48.1066 514.713,-35.6017 501.291,-25.8069"/>
<polygon fill="midnightblue" stroke="midnightblue" points="503.247,-22.9014 493.106,-19.8339 499.12,-28.5559 503.247,-22.9014"/>
</g>
<!-- Node11&#45;&gt;Node6 -->
<g id="edge20" class="edge"><title>Node11&#45;&gt;Node6</title>
<path fill="none" stroke="midnightblue" d="M522.292,-58.6467C468.178,-48.1353 360.751,-27.2681 307.871,-16.9965"/>
<polygon fill="midnightblue" stroke="midnightblue" points="308.237,-13.5024 297.754,-15.0313 306.903,-20.3739 308.237,-13.5024"/>
</g>
<!-- Node12 -->
<g id="node12" class="node"><title>Node12</title>
<polygon fill="none" stroke="#bfbfbf" points="581,-0.5 581,-19.5 633,-19.5 633,-0.5 581,-0.5"/>
<text text-anchor="middle" x="607" y="-7.5" font-family="Helvetica,sans-Serif" font-size="10.00">sstream</text>
</g>
<!-- Node11&#45;&gt;Node12 -->
<g id="edge19" class="edge"><title>Node11&#45;&gt;Node12</title>
<path fill="none" stroke="midnightblue" d="M563.587,-56.083C571.159,-48.2195 582.378,-36.5688 591.514,-27.0813"/>
<polygon fill="midnightblue" stroke="midnightblue" points="594.158,-29.3821 598.573,-19.7511 589.115,-24.5266 594.158,-29.3821"/>
</g>
<!-- Node13&#45;&gt;Node6 -->
<g id="edge22" class="edge"><title>Node13&#45;&gt;Node6</title>
<path fill="none" stroke="midnightblue" d="M83.4442,-56.4435C128.518,-45.861 204.433,-28.0375 246.547,-18.1498"/>
<polygon fill="midnightblue" stroke="midnightblue" points="247.551,-21.5093 256.486,-15.8162 245.951,-14.6946 247.551,-21.5093"/>
</g>
<!-- Node13&#45;&gt;Node7 -->
<g id="edge23" class="edge"><title>Node13&#45;&gt;Node7</title>
<path fill="none" stroke="midnightblue" d="M66.3313,-56.4435C86.3199,-47.5961 117.743,-33.6875 140.564,-23.5865"/>
<polygon fill="midnightblue" stroke="midnightblue" points="142.032,-26.7645 149.759,-19.5164 139.198,-20.3635 142.032,-26.7645"/>
</g>
<!-- Node14&#45;&gt;Node5 -->
<g id="edge26" class="edge"><title>Node14&#45;&gt;Node5</title>
<path fill="none" stroke="midnightblue" d="M603.818,-112.422C606.151,-98.9525 608.535,-72.6639 596,-56 586.129,-42.8774 546.895,-29.347 516.973,-20.5953"/>
<polygon fill="midnightblue" stroke="midnightblue" points="517.815,-17.1959 507.238,-17.818 515.894,-23.9273 517.815,-17.1959"/>
</g>
</g>
</svg>
        <g id="navigator" transform="translate(0 0)" fill="#404254">
                <rect fill="#f2f5e9" fill-opacity="0.5" stroke="#606060" stroke-width=".5" x="0" y="0" width="60" height="60"/>
                <use id="zoomplus" xlink:href="#zoomPlus" x="17" y="9" onmousedown="handleZoom(evt,'in')"/>
                <use id="zoomminus" xlink:href="#zoomMin" x="42" y="9" onmousedown="handleZoom(evt,'out')"/>
                <use id="reset" xlink:href="#resetDef" x="30" y="36" onmousedown="handleReset()"/>
                <g id="arrowUp" xlink:href="#dirArrow" transform="translate(30 24)" onmousedown="handlePan(0,-1)">
                  <use xlink:href="#rim" fill="#404040">
                        <set attributeName="fill" to="#808080" begin="arrowUp.mouseover" end="arrowUp.mouseout"/>
                  </use>
                  <path fill="none" stroke="white" stroke-width="1.5" d="M0,-3.0v7 M-2.5,-0.5L0,-3.0L2.5,-0.5"/>
                </g>
                <g id="arrowRight" xlink:href="#dirArrow" transform="rotate(90) translate(36 -43)" onmousedown="handlePan(1,0)">
                  <use xlink:href="#rim" fill="#404040">
                        <set attributeName="fill" to="#808080" begin="arrowRight.mouseover" end="arrowRight.mouseout"/>
                  </use>
                  <path fill="none" stroke="white" stroke-width="1.5" d="M0,-3.0v7 M-2.5,-0.5L0,-3.0L2.5,-0.5"/>
                </g>
                <g id="arrowDown" xlink:href="#dirArrow" transform="rotate(180) translate(-30 -48)" onmousedown="handlePan(0,1)">
                  <use xlink:href="#rim" fill="#404040">
                        <set attributeName="fill" to="#808080" begin="arrowDown.mouseover" end="arrowDown.mouseout"/>
                  </use>
                  <path fill="none" stroke="white" stroke-width="1.5" d="M0,-3.0v7 M-2.5,-0.5L0,-3.0L2.5,-0.5"/>
                </g>
                <g id="arrowLeft" xlink:href="#dirArrow" transform="rotate(270) translate(-36 17)" onmousedown="handlePan(-1,0)">
                  <use xlink:href="#rim" fill="#404040">
                        <set attributeName="fill" to="#808080" begin="arrowLeft.mouseover" end="arrowLeft.mouseout"/>
                  </use>
                  <path fill="none" stroke="white" stroke-width="1.5" d="M0,-3.0v7 M-2.5,-0.5L0,-3.0L2.5,-0.5"/>
                </g>
        </g>
        <svg viewBox="0 0 15 15" width="100%" height="30px" preserveAspectRatio="xMaxYMin meet">
         <g id="arrow_out" transform="scale(0.3 0.3)">
          <a xlink:href="_qp_oases_8cpp__incl_org.svg" target="_base">
           <rect id="button" ry="5" rx="5" y="6" x="6" height="38" width="38"
                fill="#f2f5e9" fill-opacity="0.5" stroke="#606060" stroke-width="1.0"/>
           <path id="arrow"
             d="M 11.500037,31.436501 C 11.940474,20.09759 22.043105,11.32322 32.158766,21.979434 L 37.068811,17.246167 C 37.068811,17.246167 37.088388,32 37.088388,32 L 22.160133,31.978069 C 22.160133,31.978069 26.997745,27.140456 26.997745,27.140456 C 18.528582,18.264221 13.291696,25.230495 11.500037,31.436501 z"
             style="fill:#404040;"/>
          </a>
         </g>
        </svg>
</svg>
