<?xml version="1.0" encoding="UTF-8" standalone="no"?>
<!DOCTYPE svg PUBLIC "-//W3C//DTD SVG 1.1//EN"
 "http://www.w3.org/Graphics/SVG/1.1/DTD/svg11.dtd">
<!-- Generated by graphviz version 2.43.0 (0)
 -->
<!-- Title: /home/dferigo/git/WB&#45;Toolbox/toolbox/library/src/QpOases.cpp Pages: 1 -->
<svg width="1514pt" height="162pt"
 viewBox="0.00 0.00 1513.50 162.00" xmlns="http://www.w3.org/2000/svg" xmlns:xlink="http://www.w3.org/1999/xlink">
<g id="graph0" class="graph" transform="scale(1 1) rotate(0) translate(4 158)">
<title>/home/dferigo/git/WB&#45;Toolbox/toolbox/library/src/QpOases.cpp</title>
<!-- Node1 -->
<g id="node1" class="node">
<title>Node1</title>
<g id="a_node1"><a xlink:title=" ">
<polygon fill="#bfbfbf" stroke="black" points="955.5,-112.5 955.5,-153.5 1086.5,-153.5 1086.5,-112.5 955.5,-112.5"/>
<text text-anchor="start" x="963.5" y="-141.5" font-family="Helvetica,sans-Serif" font-size="10.00">/home/dferigo/git/WB</text>
<text text-anchor="start" x="963.5" y="-130.5" font-family="Helvetica,sans-Serif" font-size="10.00">&#45;Toolbox/toolbox/library</text>
<text text-anchor="middle" x="1021" y="-119.5" font-family="Helvetica,sans-Serif" font-size="10.00">/src/QpOases.cpp</text>
</a>
</g>
</g>
<!-- Node2 -->
<g id="node2" class="node">
<title>Node2</title>
<g id="a_node2"><a xlink:href="_qp_oases_8h.html" target="_top" xlink:title=" ">
<polygon fill="none" stroke="black" points="113,-56.5 113,-75.5 269,-75.5 269,-56.5 113,-56.5"/>
<text text-anchor="middle" x="191" y="-63.5" font-family="Helvetica,sans-Serif" font-size="10.00">WBToolbox/Block/QpOases.h</text>
</a>
</g>
</g>
<!-- Node1&#45;&gt;Node2 -->
<g id="edge1" class="edge">
<title>Node1&#45;&gt;Node2</title>
<path fill="none" stroke="midnightblue" d="M955.44,-127.64C827.74,-119.02 536.45,-98.73 279.48,-76.02"/>
<polygon fill="midnightblue" stroke="midnightblue" points="279.47,-72.5 269.2,-75.11 278.85,-79.48 279.47,-72.5"/>
</g>
<!-- Node6 -->
<g id="node6" class="node">
<title>Node6</title>
<g id="a_node6"><a xlink:title=" ">
<polygon fill="none" stroke="#bfbfbf" points="287.5,-56.5 287.5,-75.5 488.5,-75.5 488.5,-56.5 287.5,-56.5"/>
<text text-anchor="middle" x="388" y="-63.5" font-family="Helvetica,sans-Serif" font-size="10.00">BlockFactory/Core/BlockInformation.h</text>
</a>
</g>
</g>
<!-- Node1&#45;&gt;Node6 -->
<g id="edge5" class="edge">
<title>Node1&#45;&gt;Node6</title>
<path fill="none" stroke="midnightblue" d="M955.35,-125.26C842.34,-113.65 610.73,-89.87 481.11,-76.56"/>
<polygon fill="midnightblue" stroke="midnightblue" points="481.11,-73.04 470.81,-75.5 480.4,-80.01 481.11,-73.04"/>
</g>
<!-- Node7 -->
<g id="node7" class="node">
<title>Node7</title>
<g id="a_node7"><a xlink:title=" ">
<polygon fill="none" stroke="#bfbfbf" points="507,-56.5 507,-75.5 641,-75.5 641,-56.5 507,-56.5"/>
<text text-anchor="middle" x="574" y="-63.5" font-family="Helvetica,sans-Serif" font-size="10.00">BlockFactory/Core/Log.h</text>
</a>
</g>
</g>
<!-- Node1&#45;&gt;Node7 -->
<g id="edge6" class="edge">
<title>Node1&#45;&gt;Node7</title>
<path fill="none" stroke="midnightblue" d="M955.04,-122.41C871.38,-110.24 727.8,-89.36 642.8,-77"/>
<polygon fill="midnightblue" stroke="midnightblue" points="643.13,-73.52 632.74,-75.54 642.13,-80.44 643.13,-73.52"/>
</g>
<!-- Node8 -->
<g id="node8" class="node">
<title>Node8</title>
<g id="a_node8"><a xlink:title=" ">
<polygon fill="none" stroke="#bfbfbf" points="659,-56.5 659,-75.5 827,-75.5 827,-56.5 659,-56.5"/>
<text text-anchor="middle" x="743" y="-63.5" font-family="Helvetica,sans-Serif" font-size="10.00">BlockFactory/Core/Parameter.h</text>
</a>
</g>
</g>
<!-- Node1&#45;&gt;Node8 -->
<g id="edge7" class="edge">
<title>Node1&#45;&gt;Node8</title>
<path fill="none" stroke="midnightblue" d="M955.47,-116.68C904.43,-104.74 834.84,-88.47 789.43,-77.86"/>
<polygon fill="midnightblue" stroke="midnightblue" points="790.09,-74.42 779.56,-75.55 788.5,-81.23 790.09,-74.42"/>
</g>
<!-- Node9 -->
<g id="node9" class="node">
<title>Node9</title>
<g id="a_node9"><a xlink:title=" ">
<polygon fill="none" stroke="#bfbfbf" points="845.5,-56.5 845.5,-75.5 1018.5,-75.5 1018.5,-56.5 845.5,-56.5"/>
<text text-anchor="middle" x="932" y="-63.5" font-family="Helvetica,sans-Serif" font-size="10.00">BlockFactory/Core/Parameters.h</text>
</a>
</g>
</g>
<!-- Node1&#45;&gt;Node9 -->
<g id="edge8" class="edge">
<title>Node1&#45;&gt;Node9</title>
<path fill="none" stroke="midnightblue" d="M994.3,-112.5C980.78,-102.63 964.65,-90.84 952.18,-81.74"/>
<polygon fill="midnightblue" stroke="midnightblue" points="953.99,-78.72 943.85,-75.65 949.86,-84.38 953.99,-78.72"/>
</g>
<!-- Node10 -->
<g id="node10" class="node">
<title>Node10</title>
<g id="a_node10"><a xlink:title=" ">
<polygon fill="none" stroke="#bfbfbf" points="1036.5,-56.5 1036.5,-75.5 1183.5,-75.5 1183.5,-56.5 1036.5,-56.5"/>
<text text-anchor="middle" x="1110" y="-63.5" font-family="Helvetica,sans-Serif" font-size="10.00">BlockFactory/Core/Signal.h</text>
</a>
</g>
</g>
<!-- Node1&#45;&gt;Node10 -->
<g id="edge9" class="edge">
<title>Node1&#45;&gt;Node10</title>
<path fill="none" stroke="midnightblue" d="M1047.7,-112.5C1061.22,-102.63 1077.35,-90.84 1089.82,-81.74"/>
<polygon fill="midnightblue" stroke="midnightblue" points="1092.14,-84.38 1098.15,-75.65 1088.01,-78.72 1092.14,-84.38"/>
</g>
<!-- Node11 -->
<g id="node11" class="node">
<title>Node11</title>
<g id="a_node11"><a xlink:title=" ">
<polygon fill="none" stroke="#bfbfbf" points="1201.5,-56.5 1201.5,-75.5 1270.5,-75.5 1270.5,-56.5 1201.5,-56.5"/>
<text text-anchor="middle" x="1236" y="-63.5" font-family="Helvetica,sans-Serif" font-size="10.00">Eigen/Core</text>
</a>
</g>
</g>
<!-- Node1&#45;&gt;Node11 -->
<g id="edge10" class="edge">
<title>Node1&#45;&gt;Node11</title>
<path fill="none" stroke="midnightblue" d="M1085.51,-112.5C1122.23,-101.4 1166.96,-87.87 1198.07,-78.47"/>
<polygon fill="midnightblue" stroke="midnightblue" points="1199.1,-81.81 1207.66,-75.57 1197.08,-75.11 1199.1,-81.81"/>
</g>
<!-- Node12 -->
<g id="node12" class="node">
<title>Node12</title>
<g id="a_node12"><a xlink:title=" ">
<polygon fill="none" stroke="#bfbfbf" points="1289,-56.5 1289,-75.5 1371,-75.5 1371,-56.5 1289,-56.5"/>
<text text-anchor="middle" x="1330" y="-63.5" font-family="Helvetica,sans-Serif" font-size="10.00">qpOASES.hpp</text>
</a>
</g>
</g>
<!-- Node1&#45;&gt;Node12 -->
<g id="edge11" class="edge">
<title>Node1&#45;&gt;Node12</title>
<path fill="none" stroke="midnightblue" d="M1086.53,-118.22C1144.12,-106.1 1226.71,-88.73 1279.36,-77.65"/>
<polygon fill="midnightblue" stroke="midnightblue" points="1280.08,-81.08 1289.15,-75.59 1278.64,-74.23 1280.08,-81.08"/>
</g>
<!-- Node13 -->
<g id="node13" class="node">
<title>Node13</title>
<g id="a_node13"><a xlink:title=" ">
<polygon fill="none" stroke="#bfbfbf" points="1389.5,-56.5 1389.5,-75.5 1446.5,-75.5 1446.5,-56.5 1389.5,-56.5"/>
<text text-anchor="middle" x="1418" y="-63.5" font-family="Helvetica,sans-Serif" font-size="10.00">ostream</text>
</a>
</g>
</g>
<!-- Node1&#45;&gt;Node13 -->
<g id="edge12" class="edge">
<title>Node1&#45;&gt;Node13</title>
<path fill="none" stroke="midnightblue" d="M1086.78,-123.31C1156.79,-113.7 1271,-97.02 1379.29,-76"/>
<polygon fill="midnightblue" stroke="midnightblue" points="1380.28,-79.38 1389.42,-74.02 1378.93,-72.51 1380.28,-79.38"/>
</g>
<!-- Node14 -->
<g id="node14" class="node">
<title>Node14</title>
<g id="a_node14"><a xlink:title=" ">
<polygon fill="none" stroke="#bfbfbf" points="1464.5,-56.5 1464.5,-75.5 1505.5,-75.5 1505.5,-56.5 1464.5,-56.5"/>
<text text-anchor="middle" x="1485" y="-63.5" font-family="Helvetica,sans-Serif" font-size="10.00">tuple</text>
</a>
</g>
</g>
<!-- Node1&#45;&gt;Node14 -->
<g id="edge13" class="edge">
<title>Node1&#45;&gt;Node14</title>
<path fill="none" stroke="midnightblue" d="M1086.82,-127.09C1170.46,-120.07 1319.24,-104.92 1454.11,-76.11"/>
<polygon fill="midnightblue" stroke="midnightblue" points="1455.17,-79.46 1464.21,-73.93 1453.69,-72.62 1455.17,-79.46"/>
</g>
<!-- Node3 -->
<g id="node3" class="node">
<title>Node3</title>
<g id="a_node3"><a xlink:title=" ">
<polygon fill="none" stroke="#bfbfbf" points="0,-0.5 0,-19.5 144,-19.5 144,-0.5 0,-0.5"/>
<text text-anchor="middle" x="72" y="-7.5" font-family="Helvetica,sans-Serif" font-size="10.00">BlockFactory/Core/Block.h</text>
</a>
</g>
</g>
<!-- Node2&#45;&gt;Node3 -->
<g id="edge2" class="edge">
<title>Node2&#45;&gt;Node3</title>
<path fill="none" stroke="midnightblue" d="M172.14,-56.44C152.73,-47.64 122.27,-33.81 100.04,-23.72"/>
<polygon fill="midnightblue" stroke="midnightblue" points="101.32,-20.46 90.77,-19.52 98.43,-26.84 101.32,-20.46"/>
</g>
<!-- Node4 -->
<g id="node4" class="node">
<title>Node4</title>
<g id="a_node4"><a xlink:title=" ">
<polygon fill="none" stroke="#bfbfbf" points="162,-0.5 162,-19.5 220,-19.5 220,-0.5 162,-0.5"/>
<text text-anchor="middle" x="191" y="-7.5" font-family="Helvetica,sans-Serif" font-size="10.00">memory</text>
</a>
</g>
</g>
<!-- Node2&#45;&gt;Node4 -->
<g id="edge3" class="edge">
<title>Node2&#45;&gt;Node4</title>
<path fill="none" stroke="midnightblue" d="M191,-56.08C191,-49.01 191,-38.86 191,-29.99"/>
<polygon fill="midnightblue" stroke="midnightblue" points="194.5,-29.75 191,-19.75 187.5,-29.75 194.5,-29.75"/>
</g>
<!-- Node5 -->
<g id="node5" class="node">
<title>Node5</title>
<g id="a_node5"><a xlink:title=" ">
<polygon fill="none" stroke="#bfbfbf" points="238,-0.5 238,-19.5 282,-19.5 282,-0.5 238,-0.5"/>
<text text-anchor="middle" x="260" y="-7.5" font-family="Helvetica,sans-Serif" font-size="10.00">string</text>
</a>
</g>
</g>
<!-- Node2&#45;&gt;Node5 -->
<g id="edge4" class="edge">
<title>Node2&#45;&gt;Node5</title>
<path fill="none" stroke="midnightblue" d="M202.09,-56.32C212.49,-48.18 228.26,-35.84 240.72,-26.09"/>
<polygon fill="midnightblue" stroke="midnightblue" points="242.99,-28.75 248.71,-19.83 238.68,-23.24 242.99,-28.75"/>
</g>
</g>
</svg>
