<?xml version="1.0" encoding="UTF-8" standalone="no"?>
<!DOCTYPE svg PUBLIC "-//W3C//DTD SVG 1.1//EN"
 "http://www.w3.org/Graphics/SVG/1.1/DTD/svg11.dtd">
<!-- Generated by graphviz version 2.36.0 (20140111.2315)
 -->
<!-- Title: /home/travis/build/robotology/wb&#45;toolbox/toolbox/library/include/Block/RealTimeSynchronizer.h Pages: 1 -->
<svg width="261pt" height="230pt"
 viewBox="0.00 0.00 261.00 230.00" xmlns="http://www.w3.org/2000/svg" xmlns:xlink="http://www.w3.org/1999/xlink">
<g id="graph0" class="graph" transform="scale(1 1) rotate(0) translate(4 226)">
<title>/home/travis/build/robotology/wb&#45;toolbox/toolbox/library/include/Block/RealTimeSynchronizer.h</title>
<!-- Node1 -->
<g id="node1" class="node"><title>Node1</title>
<polygon fill="#bfbfbf" stroke="black" points="98.5,-169 98.5,-221 253.5,-221 253.5,-169 98.5,-169"/>
<text text-anchor="start" x="106.5" y="-209" font-family="Helvetica,sans-Serif" font-size="10.00">/home/travis/build</text>
<text text-anchor="start" x="106.5" y="-198" font-family="Helvetica,sans-Serif" font-size="10.00">/robotology/wb&#45;toolbox</text>
<text text-anchor="start" x="106.5" y="-187" font-family="Helvetica,sans-Serif" font-size="10.00">/toolbox/library/include</text>
<text text-anchor="middle" x="176" y="-176" font-family="Helvetica,sans-Serif" font-size="10.00">/Block/RealTimeSynchronizer.h</text>
</g>
<!-- Node2 -->
<g id="node2" class="node"><title>Node2</title>
<g id="a_node2"><a xlink:href="_block_8h.html" target="_top" xlink:title="Core/Block.h">
<polygon fill="none" stroke="black" points="139,-112.5 139,-131.5 213,-131.5 213,-112.5 139,-112.5"/>
<text text-anchor="middle" x="176" y="-119.5" font-family="Helvetica,sans-Serif" font-size="10.00">Core/Block.h</text>
</a>
</g>
</g>
<!-- Node1&#45;&gt;Node2 -->
<g id="edge1" class="edge"><title>Node1&#45;&gt;Node2</title>
<path fill="none" stroke="midnightblue" d="M176,-168.768C176,-159.89 176,-150.074 176,-141.816"/>
<polygon fill="midnightblue" stroke="midnightblue" points="179.5,-141.757 176,-131.757 172.5,-141.757 179.5,-141.757"/>
</g>
<!-- Node4 -->
<g id="node4" class="node"><title>Node4</title>
<polygon fill="none" stroke="#bfbfbf" points="0,-0.5 0,-19.5 52,-19.5 52,-0.5 0,-0.5"/>
<text text-anchor="middle" x="26" y="-7.5" font-family="Helvetica,sans-Serif" font-size="10.00">memory</text>
</g>
<!-- Node1&#45;&gt;Node4 -->
<g id="edge8" class="edge"><title>Node1&#45;&gt;Node4</title>
<path fill="none" stroke="midnightblue" d="M134.013,-168.853C102.858,-147.941 61.9547,-115.305 39,-76 30.7479,-61.87 27.6521,-43.3842 26.5306,-29.7402"/>
<polygon fill="midnightblue" stroke="midnightblue" points="30.0183,-29.4162 25.983,-19.62 23.0285,-29.7945 30.0183,-29.4162"/>
</g>
<!-- Node5 -->
<g id="node5" class="node"><title>Node5</title>
<polygon fill="none" stroke="#bfbfbf" points="193.5,-0.5 193.5,-19.5 234.5,-19.5 234.5,-0.5 193.5,-0.5"/>
<text text-anchor="middle" x="214" y="-7.5" font-family="Helvetica,sans-Serif" font-size="10.00">string</text>
</g>
<!-- Node1&#45;&gt;Node5 -->
<g id="edge9" class="edge"><title>Node1&#45;&gt;Node5</title>
<path fill="none" stroke="midnightblue" d="M200.28,-168.98C208.889,-158.438 217.542,-145.49 222,-132 233.514,-97.1571 225.64,-53.6668 219.442,-29.4577"/>
<polygon fill="midnightblue" stroke="midnightblue" points="222.811,-28.508 216.788,-19.7917 216.061,-30.3616 222.811,-28.508"/>
</g>
<!-- Node3 -->
<g id="node3" class="node"><title>Node3</title>
<g id="a_node3"><a xlink:href="_parameters_8h.html" target="_top" xlink:title="Core/Parameters.h">
<polygon fill="none" stroke="black" points="48.5,-56.5 48.5,-75.5 147.5,-75.5 147.5,-56.5 48.5,-56.5"/>
<text text-anchor="middle" x="98" y="-63.5" font-family="Helvetica,sans-Serif" font-size="10.00">Core/Parameters.h</text>
</a>
</g>
</g>
<!-- Node2&#45;&gt;Node3 -->
<g id="edge2" class="edge"><title>Node2&#45;&gt;Node3</title>
<path fill="none" stroke="midnightblue" d="M163.468,-112.324C151.414,-103.979 132.973,-91.2122 118.731,-81.3524"/>
<polygon fill="midnightblue" stroke="midnightblue" points="120.715,-78.469 110.501,-75.6545 116.731,-84.2243 120.715,-78.469"/>
</g>
<!-- Node2&#45;&gt;Node5 -->
<g id="edge6" class="edge"><title>Node2&#45;&gt;Node5</title>
<path fill="none" stroke="midnightblue" d="M178.982,-112.368C185.142,-94.5366 199.389,-53.2953 207.688,-29.2717"/>
<polygon fill="midnightblue" stroke="midnightblue" points="211.075,-30.1862 211.032,-19.5914 204.459,-27.9005 211.075,-30.1862"/>
</g>
<!-- Node6 -->
<g id="node6" class="node"><title>Node6</title>
<polygon fill="none" stroke="#bfbfbf" points="103,-0.5 103,-19.5 147,-19.5 147,-0.5 103,-0.5"/>
<text text-anchor="middle" x="125" y="-7.5" font-family="Helvetica,sans-Serif" font-size="10.00">vector</text>
</g>
<!-- Node2&#45;&gt;Node6 -->
<g id="edge7" class="edge"><title>Node2&#45;&gt;Node6</title>
<path fill="none" stroke="midnightblue" d="M174.207,-112.273C171.386,-99.4926 165.261,-75.1286 156,-56 151.203,-46.0923 144.387,-35.9214 138.366,-27.7612"/>
<polygon fill="midnightblue" stroke="midnightblue" points="141.135,-25.6198 132.279,-19.8034 135.575,-29.8727 141.135,-25.6198"/>
</g>
<!-- Node3&#45;&gt;Node4 -->
<g id="edge3" class="edge"><title>Node3&#45;&gt;Node4</title>
<path fill="none" stroke="midnightblue" d="M86.432,-56.324C75.5798,-48.1849 59.1193,-35.8395 46.1166,-26.0874"/>
<polygon fill="midnightblue" stroke="midnightblue" points="47.8786,-23.0339 37.7785,-19.8339 43.6785,-28.6339 47.8786,-23.0339"/>
</g>
<!-- Node3&#45;&gt;Node5 -->
<g id="edge4" class="edge"><title>Node3&#45;&gt;Node5</title>
<path fill="none" stroke="midnightblue" d="M116.381,-56.4435C135.216,-47.6751 164.731,-33.9355 186.379,-23.8579"/>
<polygon fill="midnightblue" stroke="midnightblue" points="188.117,-26.9098 195.705,-19.5164 185.162,-20.5637 188.117,-26.9098"/>
</g>
<!-- Node3&#45;&gt;Node6 -->
<g id="edge5" class="edge"><title>Node3&#45;&gt;Node6</title>
<path fill="none" stroke="midnightblue" d="M102.459,-56.083C106.154,-48.6913 111.523,-37.9533 116.094,-28.8111"/>
<polygon fill="midnightblue" stroke="midnightblue" points="119.283,-30.2606 120.624,-19.7511 113.022,-27.1301 119.283,-30.2606"/>
</g>
</g>
</svg>
