<?xml version="1.0" encoding="UTF-8" standalone="no"?>
<!DOCTYPE svg PUBLIC "-//W3C//DTD SVG 1.1//EN"
 "http://www.w3.org/Graphics/SVG/1.1/DTD/svg11.dtd">
<!-- Generated by graphviz version 2.36.0 (20140111.2315)
 -->
<!-- Title: /home/travis/build/robotology/wb&#45;toolbox/toolbox/src/RelativeTransform.cpp Pages: 1 -->
<!--zoomable 330 -->
<svg id="main" version="1.1" xmlns="http://www.w3.org/2000/svg" xmlns:xlink="http://www.w3.org/1999/xlink" xml:space="preserve" onload="init(evt)">
<style type="text/css"><![CDATA[
.edge:hover path { stroke: red; }
.edge:hover polygon { stroke: red; fill: red; }
]]></style>
<script type="text/javascript"><![CDATA[
var edges = document.getElementsByTagName('g');
if (edges && edges.length) {
  for (var i=0;i<edges.length;i++) {
    if (edges[i].id.substr(0,4)=='edge') {
      edges[i].setAttribute('class','edge');
    }
  }
}
]]></script>
        <defs>
                <circle id="rim" cx="0" cy="0" r="7"/>
                <circle id="rim2" cx="0" cy="0" r="3.5"/>
                <g id="zoomPlus">
                        <use xlink:href="#rim" fill="#404040">
                                <set attributeName="fill" to="#808080" begin="zoomplus.mouseover" end="zoomplus.mouseout"/>
                        </use>
                        <path d="M-4,0h8M0,-4v8" fill="none" stroke="white" stroke-width="1.5" pointer-events="none"/>
                </g>
                <g id="zoomMin">
                        <use xlink:href="#rim" fill="#404040">
                                <set attributeName="fill" to="#808080" begin="zoomminus.mouseover" end="zoomminus.mouseout"/>
                        </use>
                        <path d="M-4,0h8" fill="none" stroke="white" stroke-width="1.5" pointer-events="none"/>
                </g>
                <g id="dirArrow">
                        <path fill="none" stroke="white" stroke-width="1.5" d="M0,-3.0v7 M-2.5,-0.5L0,-3.0L2.5,-0.5"/>
                </g>
               <g id="resetDef">
                       <use xlink:href="#rim2" fill="#404040">
                               <set attributeName="fill" to="#808080" begin="reset.mouseover" end="reset.mouseout"/>
                       </use>
               </g>
        </defs>

<script type="text/javascript">
var viewWidth = 1523;
var viewHeight = 330;
var sectionId = 'dynsection-0';
</script>
<script xlink:href="svgpan.js"/>
<svg id="graph" class="graph">
<g id="viewport">
<title>/home/travis/build/robotology/wb&#45;toolbox/toolbox/src/RelativeTransform.cpp</title>
<!-- Node1 -->
<g id="node1" class="node"><title>Node1</title>
<polygon fill="#bfbfbf" stroke="black" points="600,-280.5 600,-321.5 770,-321.5 770,-280.5 600,-280.5"/>
<text text-anchor="start" x="608" y="-309.5" font-family="Helvetica,sans-Serif" font-size="10.00">/home/travis/build</text>
<text text-anchor="start" x="608" y="-298.5" font-family="Helvetica,sans-Serif" font-size="10.00">/robotology/wb&#45;toolbox</text>
<text text-anchor="middle" x="685" y="-287.5" font-family="Helvetica,sans-Serif" font-size="10.00">/toolbox/src/RelativeTransform.cpp</text>
</g>
<!-- Node2 -->
<g id="node2" class="node"><title>Node2</title>
<g id="a_node2"><a xlink:href="_relative_transform_8h.html" target="_top" xlink:title="RelativeTransform.h">
<polygon fill="none" stroke="black" points="335.5,-224.5 335.5,-243.5 440.5,-243.5 440.5,-224.5 335.5,-224.5"/>
<text text-anchor="middle" x="388" y="-231.5" font-family="Helvetica,sans-Serif" font-size="10.00">RelativeTransform.h</text>
</a>
</g>
</g>
<!-- Node1&#45;&gt;Node2 -->
<g id="edge1" class="edge"><title>Node1&#45;&gt;Node2</title>
<path fill="none" stroke="midnightblue" d="M599.892,-281.374C547.095,-269.819 481.139,-255.384 436.962,-245.716"/>
<polygon fill="midnightblue" stroke="midnightblue" points="437.569,-242.266 427.052,-243.547 436.072,-249.104 437.569,-242.266"/>
</g>
<!-- Node5 -->
<g id="node5" class="node"><title>Node5</title>
<g id="a_node5"><a xlink:href="_parameters_8h.html" target="_top" xlink:title="Parameters.h">
<polygon fill="none" stroke="black" points="126.5,-56.5 126.5,-75.5 201.5,-75.5 201.5,-56.5 126.5,-56.5"/>
<text text-anchor="middle" x="164" y="-63.5" font-family="Helvetica,sans-Serif" font-size="10.00">Parameters.h</text>
</a>
</g>
</g>
<!-- Node1&#45;&gt;Node5 -->
<g id="edge32" class="edge"><title>Node1&#45;&gt;Node5</title>
<path fill="none" stroke="midnightblue" d="M599.776,-293.294C526.112,-285.949 417.398,-271.373 326,-244 268.459,-226.767 244.335,-231.581 203,-188 175.877,-159.403 167.617,-111.825 165.101,-85.6621"/>
<polygon fill="midnightblue" stroke="midnightblue" points="168.583,-85.2839 164.32,-75.5847 161.604,-85.8255 168.583,-85.2839"/>
</g>
<!-- Node9 -->
<g id="node9" class="node"><title>Node9</title>
<g id="a_node9"><a xlink:href="_block_information_8h.html" target="_top" xlink:title="BlockInformation.h">
<polygon fill="none" stroke="black" points="512,-56.5 512,-75.5 610,-75.5 610,-56.5 512,-56.5"/>
<text text-anchor="middle" x="561" y="-63.5" font-family="Helvetica,sans-Serif" font-size="10.00">BlockInformation.h</text>
</a>
</g>
</g>
<!-- Node1&#45;&gt;Node9 -->
<g id="edge14" class="edge"><title>Node1&#45;&gt;Node9</title>
<path fill="none" stroke="midnightblue" d="M672.515,-280.258C665.92,-269.628 657.805,-256.223 651,-244 619.071,-186.654 584.853,-116.703 569.412,-84.6168"/>
<polygon fill="midnightblue" stroke="midnightblue" points="572.565,-83.097 565.085,-75.5935 566.253,-86.1238 572.565,-83.097"/>
</g>
<!-- Node12 -->
<g id="node12" class="node"><title>Node12</title>
<g id="a_node12"><a xlink:href="_configuration_8h.html" target="_top" xlink:title="Configuration.h">
<polygon fill="none" stroke="black" points="334.5,-56.5 334.5,-75.5 417.5,-75.5 417.5,-56.5 334.5,-56.5"/>
<text text-anchor="middle" x="376" y="-63.5" font-family="Helvetica,sans-Serif" font-size="10.00">Configuration.h</text>
</a>
</g>
</g>
<!-- Node1&#45;&gt;Node12 -->
<g id="edge20" class="edge"><title>Node1&#45;&gt;Node12</title>
<path fill="none" stroke="midnightblue" d="M658.921,-280.335C598.277,-234.607 448.88,-121.955 395.418,-81.642"/>
<polygon fill="midnightblue" stroke="midnightblue" points="397.505,-78.8321 387.413,-75.6059 393.29,-84.4212 397.505,-78.8321"/>
</g>
<!-- Node14 -->
<g id="node14" class="node"><title>Node14</title>
<g id="a_node14"><a xlink:href="_log_8h.html" target="_top" xlink:title="Log.h">
<polygon fill="none" stroke="black" points="628.5,-56.5 628.5,-75.5 669.5,-75.5 669.5,-56.5 628.5,-56.5"/>
<text text-anchor="middle" x="649" y="-63.5" font-family="Helvetica,sans-Serif" font-size="10.00">Log.h</text>
</a>
</g>
</g>
<!-- Node1&#45;&gt;Node14 -->
<g id="edge25" class="edge"><title>Node1&#45;&gt;Node14</title>
<path fill="none" stroke="midnightblue" d="M676.1,-280.276C666.708,-258.292 652.516,-221.428 647,-188 641.091,-152.193 644.067,-109.618 646.628,-85.7111"/>
<polygon fill="midnightblue" stroke="midnightblue" points="650.126,-85.9244 647.811,-75.5858 643.174,-85.112 650.126,-85.9244"/>
</g>
<!-- Node16 -->
<g id="node16" class="node"><title>Node16</title>
<g id="a_node16"><a xlink:href="_parameter_8h.html" target="_top" xlink:title="Parameter.h">
<polygon fill="none" stroke="black" points="0,-56.5 0,-75.5 70,-75.5 70,-56.5 0,-56.5"/>
<text text-anchor="middle" x="35" y="-63.5" font-family="Helvetica,sans-Serif" font-size="10.00">Parameter.h</text>
</a>
</g>
</g>
<!-- Node1&#45;&gt;Node16 -->
<g id="edge29" class="edge"><title>Node1&#45;&gt;Node16</title>
<path fill="none" stroke="midnightblue" d="M599.811,-294.642C491.454,-286.866 311.059,-270.422 250,-244 161.27,-205.604 79.9744,-119.194 48.6383,-83.2078"/>
<polygon fill="midnightblue" stroke="midnightblue" points="51.2562,-80.884 42.087,-75.5758 45.9447,-85.4434 51.2562,-80.884"/>
</g>
<!-- Node17 -->
<g id="node17" class="node"><title>Node17</title>
<g id="a_node17"><a xlink:href="_robot_interface_8h.html" target="_top" xlink:title="RobotInterface.h">
<polygon fill="none" stroke="black" points="726.5,-56.5 726.5,-75.5 815.5,-75.5 815.5,-56.5 726.5,-56.5"/>
<text text-anchor="middle" x="771" y="-63.5" font-family="Helvetica,sans-Serif" font-size="10.00">RobotInterface.h</text>
</a>
</g>
</g>
<!-- Node1&#45;&gt;Node17 -->
<g id="edge33" class="edge"><title>Node1&#45;&gt;Node17</title>
<path fill="none" stroke="midnightblue" d="M692.332,-280.135C708.809,-235.495 748.554,-127.814 764.357,-84.9968"/>
<polygon fill="midnightblue" stroke="midnightblue" points="767.652,-86.1797 767.831,-75.5863 761.085,-83.7558 767.652,-86.1797"/>
</g>
<!-- Node19 -->
<g id="node19" class="node"><title>Node19</title>
<g id="a_node19"><a xlink:href="_signal_8h.html" target="_top" xlink:title="Signal.h">
<polygon fill="none" stroke="black" points="656,-168.5 656,-187.5 708,-187.5 708,-168.5 656,-168.5"/>
<text text-anchor="middle" x="682" y="-175.5" font-family="Helvetica,sans-Serif" font-size="10.00">Signal.h</text>
</a>
</g>
</g>
<!-- Node1&#45;&gt;Node19 -->
<g id="edge38" class="edge"><title>Node1&#45;&gt;Node19</title>
<path fill="none" stroke="midnightblue" d="M684.511,-280.29C683.946,-257.48 683.021,-220.189 682.466,-197.781"/>
<polygon fill="midnightblue" stroke="midnightblue" points="685.959,-197.485 682.213,-187.575 678.962,-197.659 685.959,-197.485"/>
</g>
<!-- Node20 -->
<g id="node20" class="node"><title>Node20</title>
<polygon fill="none" stroke="#bfbfbf" points="732.5,-224.5 732.5,-243.5 797.5,-243.5 797.5,-224.5 732.5,-224.5"/>
<text text-anchor="middle" x="765" y="-231.5" font-family="Helvetica,sans-Serif" font-size="10.00">Eigen/Core</text>
</g>
<!-- Node1&#45;&gt;Node20 -->
<g id="edge40" class="edge"><title>Node1&#45;&gt;Node20</title>
<path fill="none" stroke="midnightblue" d="M709.003,-280.498C721.032,-270.724 735.373,-259.072 746.53,-250.007"/>
<polygon fill="midnightblue" stroke="midnightblue" points="748.797,-252.675 754.351,-243.652 744.383,-247.242 748.797,-252.675"/>
</g>
<!-- Node21 -->
<g id="node21" class="node"><title>Node21</title>
<polygon fill="none" stroke="#bfbfbf" points="815,-224.5 815,-243.5 965,-243.5 965,-224.5 815,-224.5"/>
<text text-anchor="middle" x="890" y="-231.5" font-family="Helvetica,sans-Serif" font-size="10.00">iDynTree/Core/EigenHelpers.h</text>
</g>
<!-- Node1&#45;&gt;Node21 -->
<g id="edge41" class="edge"><title>Node1&#45;&gt;Node21</title>
<path fill="none" stroke="midnightblue" d="M746.507,-280.498C781.367,-269.444 823.802,-255.99 853.447,-246.59"/>
<polygon fill="midnightblue" stroke="midnightblue" points="854.506,-249.926 862.981,-243.567 852.391,-243.253 854.506,-249.926"/>
</g>
<!-- Node22 -->
<g id="node22" class="node"><title>Node22</title>
<polygon fill="none" stroke="#bfbfbf" points="983,-224.5 983,-243.5 1119,-243.5 1119,-224.5 983,-224.5"/>
<text text-anchor="middle" x="1051" y="-231.5" font-family="Helvetica,sans-Serif" font-size="10.00">iDynTree/Core/Transform.h</text>
</g>
<!-- Node1&#45;&gt;Node22 -->
<g id="edge42" class="edge"><title>Node1&#45;&gt;Node22</title>
<path fill="none" stroke="midnightblue" d="M770.349,-284.842C838.839,-272.679 933.137,-255.932 993.087,-245.285"/>
<polygon fill="midnightblue" stroke="midnightblue" points="993.901,-248.695 1003.14,-243.501 992.677,-241.803 993.901,-248.695"/>
</g>
<!-- Node23 -->
<g id="node23" class="node"><title>Node23</title>
<polygon fill="none" stroke="#bfbfbf" points="1137.5,-224.5 1137.5,-243.5 1298.5,-243.5 1298.5,-224.5 1137.5,-224.5"/>
<text text-anchor="middle" x="1218" y="-231.5" font-family="Helvetica,sans-Serif" font-size="10.00">iDynTree/KinDynComputations.h</text>
</g>
<!-- Node1&#45;&gt;Node23 -->
<g id="edge43" class="edge"><title>Node1&#45;&gt;Node23</title>
<path fill="none" stroke="midnightblue" d="M770.045,-289.629C871.344,-277.275 1039.25,-256.798 1138.19,-244.733"/>
<polygon fill="midnightblue" stroke="midnightblue" points="1138.63,-248.205 1148.13,-243.52 1137.78,-241.257 1138.63,-248.205"/>
</g>
<!-- Node24 -->
<g id="node24" class="node"><title>Node24</title>
<polygon fill="none" stroke="#bfbfbf" points="1317,-224.5 1317,-243.5 1445,-243.5 1445,-224.5 1317,-224.5"/>
<text text-anchor="middle" x="1381" y="-231.5" font-family="Helvetica,sans-Serif" font-size="10.00">iDynTree/Model/Indices.h</text>
</g>
<!-- Node1&#45;&gt;Node24 -->
<g id="edge44" class="edge"><title>Node1&#45;&gt;Node24</title>
<path fill="none" stroke="midnightblue" d="M770.096,-293.186C887.98,-283.556 1107.89,-264.909 1306.78,-243.989"/>
<polygon fill="midnightblue" stroke="midnightblue" points="1307.26,-247.458 1316.84,-242.928 1306.53,-240.497 1307.26,-247.458"/>
</g>
<!-- Node25 -->
<g id="node25" class="node"><title>Node25</title>
<polygon fill="none" stroke="#bfbfbf" points="1463,-224.5 1463,-243.5 1515,-243.5 1515,-224.5 1463,-224.5"/>
<text text-anchor="middle" x="1489" y="-231.5" font-family="Helvetica,sans-Serif" font-size="10.00">ostream</text>
</g>
<!-- Node1&#45;&gt;Node25 -->
<g id="edge45" class="edge"><title>Node1&#45;&gt;Node25</title>
<path fill="none" stroke="midnightblue" d="M770.071,-298.766C910.61,-295.637 1200.03,-284.584 1452.63,-243.937"/>
<polygon fill="midnightblue" stroke="midnightblue" points="1453.43,-247.353 1462.73,-242.292 1452.3,-240.444 1453.43,-247.353"/>
</g>
<!-- Node3 -->
<g id="node3" class="node"><title>Node3</title>
<g id="a_node3"><a xlink:href="_w_b_block_8h.html" target="_top" xlink:title="WBBlock.h">
<polygon fill="none" stroke="black" points="212,-168.5 212,-187.5 278,-187.5 278,-168.5 212,-168.5"/>
<text text-anchor="middle" x="245" y="-175.5" font-family="Helvetica,sans-Serif" font-size="10.00">WBBlock.h</text>
</a>
</g>
</g>
<!-- Node2&#45;&gt;Node3 -->
<g id="edge2" class="edge"><title>Node2&#45;&gt;Node3</title>
<path fill="none" stroke="midnightblue" d="M365.341,-224.444C341.598,-215.478 304.091,-201.314 277.262,-191.183"/>
<polygon fill="midnightblue" stroke="midnightblue" points="278.144,-187.775 267.553,-187.516 275.671,-194.324 278.144,-187.775"/>
</g>
<!-- Node6 -->
<g id="node6" class="node"><title>Node6</title>
<polygon fill="none" stroke="#bfbfbf" points="461,-0.5 461,-19.5 513,-19.5 513,-0.5 461,-0.5"/>
<text text-anchor="middle" x="487" y="-7.5" font-family="Helvetica,sans-Serif" font-size="10.00">memory</text>
</g>
<!-- Node2&#45;&gt;Node6 -->
<g id="edge12" class="edge"><title>Node2&#45;&gt;Node6</title>
<path fill="none" stroke="midnightblue" d="M391.881,-224.297C406.54,-191.425 458.731,-74.3911 478.933,-29.0904"/>
<polygon fill="midnightblue" stroke="midnightblue" points="482.162,-30.4423 483.038,-19.8837 475.769,-27.5913 482.162,-30.4423"/>
</g>
<!-- Node7 -->
<g id="node7" class="node"><title>Node7</title>
<polygon fill="none" stroke="#bfbfbf" points="285.5,-0.5 285.5,-19.5 326.5,-19.5 326.5,-0.5 285.5,-0.5"/>
<text text-anchor="middle" x="306" y="-7.5" font-family="Helvetica,sans-Serif" font-size="10.00">string</text>
</g>
<!-- Node2&#45;&gt;Node7 -->
<g id="edge13" class="edge"><title>Node2&#45;&gt;Node7</title>
<path fill="none" stroke="midnightblue" d="M384.143,-224.261C373.798,-200.645 344.872,-133.455 325,-76 319.656,-60.5486 314.511,-42.7038 310.926,-29.6252"/>
<polygon fill="midnightblue" stroke="midnightblue" points="314.292,-28.6631 308.312,-19.9174 307.533,-30.4836 314.292,-28.6631"/>
</g>
<!-- Node4 -->
<g id="node4" class="node"><title>Node4</title>
<g id="a_node4"><a xlink:href="_block_8h.html" target="_top" xlink:title="Block.h">
<polygon fill="none" stroke="black" points="190,-112.5 190,-131.5 240,-131.5 240,-112.5 190,-112.5"/>
<text text-anchor="middle" x="215" y="-119.5" font-family="Helvetica,sans-Serif" font-size="10.00">Block.h</text>
</a>
</g>
</g>
<!-- Node3&#45;&gt;Node4 -->
<g id="edge3" class="edge"><title>Node3&#45;&gt;Node4</title>
<path fill="none" stroke="midnightblue" d="M240.046,-168.083C235.896,-160.613 229.847,-149.724 224.733,-140.52"/>
<polygon fill="midnightblue" stroke="midnightblue" points="227.778,-138.793 219.862,-131.751 221.659,-142.192 227.778,-138.793"/>
</g>
<!-- Node3&#45;&gt;Node6 -->
<g id="edge10" class="edge"><title>Node3&#45;&gt;Node6</title>
<path fill="none" stroke="midnightblue" d="M264.69,-168.469C299.288,-152.964 372.399,-117.863 426,-76 444.383,-61.6429 462.264,-41.6608 473.862,-27.6536"/>
<polygon fill="midnightblue" stroke="midnightblue" points="476.643,-29.7807 480.22,-19.8079 471.205,-25.3735 476.643,-29.7807"/>
</g>
<!-- Node3&#45;&gt;Node7 -->
<g id="edge11" class="edge"><title>Node3&#45;&gt;Node7</title>
<path fill="none" stroke="midnightblue" d="M248.28,-168.075C257.923,-141.832 286.324,-64.5453 299.343,-29.1165"/>
<polygon fill="midnightblue" stroke="midnightblue" points="302.687,-30.1617 302.851,-19.5681 296.117,-27.7472 302.687,-30.1617"/>
</g>
<!-- Node4&#45;&gt;Node5 -->
<g id="edge4" class="edge"><title>Node4&#45;&gt;Node5</title>
<path fill="none" stroke="midnightblue" d="M206.578,-112.083C199.152,-104.22 188.148,-92.5688 179.188,-83.0813"/>
<polygon fill="midnightblue" stroke="midnightblue" points="181.676,-80.618 172.265,-75.7511 176.587,-85.4244 181.676,-80.618"/>
</g>
<!-- Node4&#45;&gt;Node7 -->
<g id="edge8" class="edge"><title>Node4&#45;&gt;Node7</title>
<path fill="none" stroke="midnightblue" d="M219.029,-112.442C225.379,-99.4534 238.59,-74.3356 254,-56 263.362,-44.8612 275.595,-34.129 285.845,-25.941"/>
<polygon fill="midnightblue" stroke="midnightblue" points="288.124,-28.6026 293.881,-19.7083 283.834,-23.0713 288.124,-28.6026"/>
</g>
<!-- Node8 -->
<g id="node8" class="node"><title>Node8</title>
<polygon fill="none" stroke="#bfbfbf" points="142,-0.5 142,-19.5 186,-19.5 186,-0.5 142,-0.5"/>
<text text-anchor="middle" x="164" y="-7.5" font-family="Helvetica,sans-Serif" font-size="10.00">vector</text>
</g>
<!-- Node4&#45;&gt;Node8 -->
<g id="edge9" class="edge"><title>Node4&#45;&gt;Node8</title>
<path fill="none" stroke="midnightblue" d="M189.931,-117.213C166.555,-112.206 132.967,-100.901 117,-76 105.606,-58.2307 124.183,-38.7159 141.233,-25.7522"/>
<polygon fill="midnightblue" stroke="midnightblue" points="143.732,-28.269 149.843,-19.6142 139.668,-22.5691 143.732,-28.269"/>
</g>
<!-- Node5&#45;&gt;Node6 -->
<g id="edge5" class="edge"><title>Node5&#45;&gt;Node6</title>
<path fill="none" stroke="midnightblue" d="M201.684,-58.6998C264.295,-48.2324 388.953,-27.3917 450.662,-17.0751"/>
<polygon fill="midnightblue" stroke="midnightblue" points="451.429,-20.4955 460.715,-15.3944 450.275,-13.5913 451.429,-20.4955"/>
</g>
<!-- Node5&#45;&gt;Node7 -->
<g id="edge6" class="edge"><title>Node5&#45;&gt;Node7</title>
<path fill="none" stroke="midnightblue" d="M186.5,-56.4435C210.632,-47.2666 249.083,-32.6446 275.827,-22.4744"/>
<polygon fill="midnightblue" stroke="midnightblue" points="277.346,-25.6411 285.449,-18.8151 274.858,-19.0982 277.346,-25.6411"/>
</g>
<!-- Node5&#45;&gt;Node8 -->
<g id="edge7" class="edge"><title>Node5&#45;&gt;Node8</title>
<path fill="none" stroke="midnightblue" d="M164,-56.083C164,-49.0059 164,-38.8611 164,-29.9865"/>
<polygon fill="midnightblue" stroke="midnightblue" points="167.5,-29.751 164,-19.7511 160.5,-29.7511 167.5,-29.751"/>
</g>
<!-- Node9&#45;&gt;Node6 -->
<g id="edge15" class="edge"><title>Node9&#45;&gt;Node6</title>
<path fill="none" stroke="midnightblue" d="M549.111,-56.324C537.85,-48.1066 520.713,-35.6017 507.291,-25.8069"/>
<polygon fill="midnightblue" stroke="midnightblue" points="509.247,-22.9014 499.106,-19.8339 505.12,-28.5559 509.247,-22.9014"/>
</g>
<!-- Node9&#45;&gt;Node7 -->
<g id="edge16" class="edge"><title>Node9&#45;&gt;Node7</title>
<path fill="none" stroke="midnightblue" d="M520.555,-56.4916C477.705,-47.4686 408.073,-32.7821 348,-20 344.28,-19.2085 340.375,-18.3752 336.507,-17.5481"/>
<polygon fill="midnightblue" stroke="midnightblue" points="337.016,-14.0778 326.505,-15.4064 335.551,-20.9227 337.016,-14.0778"/>
</g>
<!-- Node9&#45;&gt;Node8 -->
<g id="edge19" class="edge"><title>Node9&#45;&gt;Node8</title>
<path fill="none" stroke="midnightblue" d="M511.922,-58.3244C429.609,-47.1281 265.93,-24.8645 196.426,-15.4106"/>
<polygon fill="midnightblue" stroke="midnightblue" points="196.487,-11.8868 186.107,-14.007 195.544,-18.8229 196.487,-11.8868"/>
</g>
<!-- Node10 -->
<g id="node10" class="node"><title>Node10</title>
<polygon fill="none" stroke="#bfbfbf" points="535,-0.5 535,-19.5 573,-19.5 573,-0.5 535,-0.5"/>
<text text-anchor="middle" x="554" y="-7.5" font-family="Helvetica,sans-Serif" font-size="10.00">tuple</text>
</g>
<!-- Node9&#45;&gt;Node10 -->
<g id="edge17" class="edge"><title>Node9&#45;&gt;Node10</title>
<path fill="none" stroke="midnightblue" d="M559.844,-56.083C558.916,-48.9272 557.582,-38.6353 556.423,-29.6911"/>
<polygon fill="midnightblue" stroke="midnightblue" points="559.891,-29.2181 555.134,-19.7511 552.949,-30.1181 559.891,-29.2181"/>
</g>
<!-- Node11 -->
<g id="node11" class="node"><title>Node11</title>
<polygon fill="none" stroke="#bfbfbf" points="591,-0.5 591,-19.5 631,-19.5 631,-0.5 591,-0.5"/>
<text text-anchor="middle" x="611" y="-7.5" font-family="Helvetica,sans-Serif" font-size="10.00">utility</text>
</g>
<!-- Node9&#45;&gt;Node11 -->
<g id="edge18" class="edge"><title>Node9&#45;&gt;Node11</title>
<path fill="none" stroke="midnightblue" d="M569.256,-56.083C576.465,-48.2982 587.11,-36.8015 595.846,-27.3665"/>
<polygon fill="midnightblue" stroke="midnightblue" points="598.671,-29.4666 602.897,-19.7511 593.535,-24.7108 598.671,-29.4666"/>
</g>
<!-- Node12&#45;&gt;Node6 -->
<g id="edge22" class="edge"><title>Node12&#45;&gt;Node6</title>
<path fill="none" stroke="midnightblue" d="M393.834,-56.324C411.716,-47.6247 439.475,-34.1202 460.046,-24.113"/>
<polygon fill="midnightblue" stroke="midnightblue" points="461.749,-27.1765 469.21,-19.6545 458.687,-20.8819 461.749,-27.1765"/>
</g>
<!-- Node12&#45;&gt;Node7 -->
<g id="edge23" class="edge"><title>Node12&#45;&gt;Node7</title>
<path fill="none" stroke="midnightblue" d="M364.753,-56.324C354.203,-48.1849 338.199,-35.8395 325.558,-26.0874"/>
<polygon fill="midnightblue" stroke="midnightblue" points="327.507,-23.1707 317.451,-19.8339 323.231,-28.7132 327.507,-23.1707"/>
</g>
<!-- Node12&#45;&gt;Node8 -->
<g id="edge24" class="edge"><title>Node12&#45;&gt;Node8</title>
<path fill="none" stroke="midnightblue" d="M342.408,-56.4435C302.217,-46.2061 235.422,-29.1924 195.965,-19.1421"/>
<polygon fill="midnightblue" stroke="midnightblue" points="196.635,-15.7011 186.081,-16.6243 194.907,-22.4845 196.635,-15.7011"/>
</g>
<!-- Node13 -->
<g id="node13" class="node"><title>Node13</title>
<polygon fill="none" stroke="#bfbfbf" points="357,-0.5 357,-19.5 395,-19.5 395,-0.5 357,-0.5"/>
<text text-anchor="middle" x="376" y="-7.5" font-family="Helvetica,sans-Serif" font-size="10.00">array</text>
</g>
<!-- Node12&#45;&gt;Node13 -->
<g id="edge21" class="edge"><title>Node12&#45;&gt;Node13</title>
<path fill="none" stroke="midnightblue" d="M376,-56.083C376,-49.0059 376,-38.8611 376,-29.9865"/>
<polygon fill="midnightblue" stroke="midnightblue" points="379.5,-29.751 376,-19.7511 372.5,-29.7511 379.5,-29.751"/>
</g>
<!-- Node14&#45;&gt;Node6 -->
<g id="edge26" class="edge"><title>Node14&#45;&gt;Node6</title>
<path fill="none" stroke="midnightblue" d="M628.483,-58.1609C601.786,-49.2619 554.723,-33.5744 522.253,-22.751"/>
<polygon fill="midnightblue" stroke="midnightblue" points="523.277,-19.4031 512.683,-19.5611 521.063,-26.0439 523.277,-19.4031"/>
</g>
<!-- Node14&#45;&gt;Node7 -->
<g id="edge28" class="edge"><title>Node14&#45;&gt;Node7</title>
<path fill="none" stroke="midnightblue" d="M628.432,-58.5615C624.971,-57.6131 621.4,-56.716 618,-56 499.536,-31.0532 467.279,-40.699 348,-20 344.331,-19.3633 340.495,-18.6325 336.697,-17.8686"/>
<polygon fill="midnightblue" stroke="midnightblue" points="337.378,-14.4354 326.873,-15.811 335.943,-21.2867 337.378,-14.4354"/>
</g>
<!-- Node15 -->
<g id="node15" class="node"><title>Node15</title>
<polygon fill="none" stroke="#bfbfbf" points="649,-0.5 649,-19.5 701,-19.5 701,-0.5 649,-0.5"/>
<text text-anchor="middle" x="675" y="-7.5" font-family="Helvetica,sans-Serif" font-size="10.00">sstream</text>
</g>
<!-- Node14&#45;&gt;Node15 -->
<g id="edge27" class="edge"><title>Node14&#45;&gt;Node15</title>
<path fill="none" stroke="midnightblue" d="M653.293,-56.083C656.852,-48.6913 662.022,-37.9533 666.424,-28.8111"/>
<polygon fill="midnightblue" stroke="midnightblue" points="669.602,-30.2795 670.787,-19.7511 663.295,-27.2427 669.602,-30.2795"/>
</g>
<!-- Node16&#45;&gt;Node7 -->
<g id="edge30" class="edge"><title>Node16&#45;&gt;Node7</title>
<path fill="none" stroke="midnightblue" d="M70.1507,-57.9958C123.632,-47.3389 224.566,-27.2268 275.279,-17.1214"/>
<polygon fill="midnightblue" stroke="midnightblue" points="276.181,-20.5107 285.304,-15.1239 274.813,-13.6457 276.181,-20.5107"/>
</g>
<!-- Node16&#45;&gt;Node8 -->
<g id="edge31" class="edge"><title>Node16&#45;&gt;Node8</title>
<path fill="none" stroke="midnightblue" d="M55.4404,-56.4435C76.6704,-47.5566 110.099,-33.5632 134.255,-23.4514"/>
<polygon fill="midnightblue" stroke="midnightblue" points="135.782,-26.6064 143.655,-19.5164 133.079,-20.1493 135.782,-26.6064"/>
</g>
<!-- Node17&#45;&gt;Node6 -->
<g id="edge34" class="edge"><title>Node17&#45;&gt;Node6</title>
<path fill="none" stroke="midnightblue" d="M726.175,-57.3926C676.959,-48.8944 595.662,-34.4277 526,-20 525.107,-19.815 524.203,-19.6254 523.291,-19.432"/>
<polygon fill="midnightblue" stroke="midnightblue" points="523.915,-15.9857 513.398,-17.2616 522.415,-22.8232 523.915,-15.9857"/>
</g>
<!-- Node17&#45;&gt;Node7 -->
<g id="edge35" class="edge"><title>Node17&#45;&gt;Node7</title>
<path fill="none" stroke="midnightblue" d="M726.267,-60.5105C625.11,-50.3194 384.691,-25.8661 348,-20 344.323,-19.4121 340.482,-18.7111 336.681,-17.9634"/>
<polygon fill="midnightblue" stroke="midnightblue" points="337.358,-14.5293 326.855,-15.9213 335.933,-21.3829 337.358,-14.5293"/>
</g>
<!-- Node17&#45;&gt;Node11 -->
<g id="edge37" class="edge"><title>Node17&#45;&gt;Node11</title>
<path fill="none" stroke="midnightblue" d="M745.648,-56.4435C717.147,-46.8247 670.922,-31.2238 640.74,-21.0372"/>
<polygon fill="midnightblue" stroke="midnightblue" points="641.762,-17.6883 631.168,-17.8067 639.524,-24.3207 641.762,-17.6883"/>
</g>
<!-- Node18 -->
<g id="node18" class="node"><title>Node18</title>
<polygon fill="none" stroke="#bfbfbf" points="729.5,-0.5 729.5,-19.5 812.5,-19.5 812.5,-0.5 729.5,-0.5"/>
<text text-anchor="middle" x="771" y="-7.5" font-family="Helvetica,sans-Serif" font-size="10.00">unordered_map</text>
</g>
<!-- Node17&#45;&gt;Node18 -->
<g id="edge36" class="edge"><title>Node17&#45;&gt;Node18</title>
<path fill="none" stroke="midnightblue" d="M771,-56.083C771,-49.0059 771,-38.8611 771,-29.9865"/>
<polygon fill="midnightblue" stroke="midnightblue" points="774.5,-29.751 771,-19.7511 767.5,-29.7511 774.5,-29.751"/>
</g>
<!-- Node19&#45;&gt;Node6 -->
<g id="edge39" class="edge"><title>Node19&#45;&gt;Node6</title>
<path fill="none" stroke="midnightblue" d="M684.838,-168.476C691.443,-146.873 705.301,-89.3344 678,-56 677.376,-55.2382 577.922,-32.0804 522.794,-19.2912"/>
<polygon fill="midnightblue" stroke="midnightblue" points="523.582,-15.8812 513.05,-17.0316 522.001,-22.7002 523.582,-15.8812"/>
</g>
</g>
</svg>
        <g id="navigator" transform="translate(0 0)" fill="#404254">
                <rect fill="#f2f5e9" fill-opacity="0.5" stroke="#606060" stroke-width=".5" x="0" y="0" width="60" height="60"/>
                <use id="zoomplus" xlink:href="#zoomPlus" x="17" y="9" onmousedown="handleZoom(evt,'in')"/>
                <use id="zoomminus" xlink:href="#zoomMin" x="42" y="9" onmousedown="handleZoom(evt,'out')"/>
                <use id="reset" xlink:href="#resetDef" x="30" y="36" onmousedown="handleReset()"/>
                <g id="arrowUp" xlink:href="#dirArrow" transform="translate(30 24)" onmousedown="handlePan(0,-1)">
                  <use xlink:href="#rim" fill="#404040">
                        <set attributeName="fill" to="#808080" begin="arrowUp.mouseover" end="arrowUp.mouseout"/>
                  </use>
                  <path fill="none" stroke="white" stroke-width="1.5" d="M0,-3.0v7 M-2.5,-0.5L0,-3.0L2.5,-0.5"/>
                </g>
                <g id="arrowRight" xlink:href="#dirArrow" transform="rotate(90) translate(36 -43)" onmousedown="handlePan(1,0)">
                  <use xlink:href="#rim" fill="#404040">
                        <set attributeName="fill" to="#808080" begin="arrowRight.mouseover" end="arrowRight.mouseout"/>
                  </use>
                  <path fill="none" stroke="white" stroke-width="1.5" d="M0,-3.0v7 M-2.5,-0.5L0,-3.0L2.5,-0.5"/>
                </g>
                <g id="arrowDown" xlink:href="#dirArrow" transform="rotate(180) translate(-30 -48)" onmousedown="handlePan(0,1)">
                  <use xlink:href="#rim" fill="#404040">
                        <set attributeName="fill" to="#808080" begin="arrowDown.mouseover" end="arrowDown.mouseout"/>
                  </use>
                  <path fill="none" stroke="white" stroke-width="1.5" d="M0,-3.0v7 M-2.5,-0.5L0,-3.0L2.5,-0.5"/>
                </g>
                <g id="arrowLeft" xlink:href="#dirArrow" transform="rotate(270) translate(-36 17)" onmousedown="handlePan(-1,0)">
                  <use xlink:href="#rim" fill="#404040">
                        <set attributeName="fill" to="#808080" begin="arrowLeft.mouseover" end="arrowLeft.mouseout"/>
                  </use>
                  <path fill="none" stroke="white" stroke-width="1.5" d="M0,-3.0v7 M-2.5,-0.5L0,-3.0L2.5,-0.5"/>
                </g>
        </g>
        <svg viewBox="0 0 15 15" width="100%" height="30px" preserveAspectRatio="xMaxYMin meet">
         <g id="arrow_out" transform="scale(0.3 0.3)">
          <a xlink:href="_relative_transform_8cpp__incl_org.svg" target="_base">
           <rect id="button" ry="5" rx="5" y="6" x="6" height="38" width="38"
                fill="#f2f5e9" fill-opacity="0.5" stroke="#606060" stroke-width="1.0"/>
           <path id="arrow"
             d="M 11.500037,31.436501 C 11.940474,20.09759 22.043105,11.32322 32.158766,21.979434 L 37.068811,17.246167 C 37.068811,17.246167 37.088388,32 37.088388,32 L 22.160133,31.978069 C 22.160133,31.978069 26.997745,27.140456 26.997745,27.140456 C 18.528582,18.264221 13.291696,25.230495 11.500037,31.436501 z"
             style="fill:#404040;"/>
          </a>
         </g>
        </svg>
</svg>
