<?xml version="1.0" encoding="UTF-8" standalone="no"?>
<!DOCTYPE svg PUBLIC "-//W3C//DTD SVG 1.1//EN"
 "http://www.w3.org/Graphics/SVG/1.1/DTD/svg11.dtd">
<!-- Generated by graphviz version 2.36.0 (20140111.2315)
 -->
<!-- Title: /home/travis/build/robotology/wb&#45;toolbox/toolbox/include/RelativeTransform.h Pages: 1 -->
<svg width="235pt" height="274pt"
 viewBox="0.00 0.00 235.00 274.00" xmlns="http://www.w3.org/2000/svg" xmlns:xlink="http://www.w3.org/1999/xlink">
<g id="graph0" class="graph" transform="scale(1 1) rotate(0) translate(4 270)">
<title>/home/travis/build/robotology/wb&#45;toolbox/toolbox/include/RelativeTransform.h</title>
<!-- Node1 -->
<g id="node1" class="node"><title>Node1</title>
<polygon fill="#bfbfbf" stroke="black" points="0,-224.5 0,-265.5 176,-265.5 176,-224.5 0,-224.5"/>
<text text-anchor="start" x="8" y="-253.5" font-family="Helvetica,sans-Serif" font-size="10.00">/home/travis/build</text>
<text text-anchor="start" x="8" y="-242.5" font-family="Helvetica,sans-Serif" font-size="10.00">/robotology/wb&#45;toolbox</text>
<text text-anchor="middle" x="88" y="-231.5" font-family="Helvetica,sans-Serif" font-size="10.00">/toolbox/include/RelativeTransform.h</text>
</g>
<!-- Node2 -->
<g id="node2" class="node"><title>Node2</title>
<g id="a_node2"><a xlink:href="_w_b_block_8h.html" target="_top" xlink:title="WBBlock.h">
<polygon fill="none" stroke="black" points="55,-168.5 55,-187.5 121,-187.5 121,-168.5 55,-168.5"/>
<text text-anchor="middle" x="88" y="-175.5" font-family="Helvetica,sans-Serif" font-size="10.00">WBBlock.h</text>
</a>
</g>
</g>
<!-- Node1&#45;&gt;Node2 -->
<g id="edge1" class="edge"><title>Node1&#45;&gt;Node2</title>
<path fill="none" stroke="midnightblue" d="M88,-224.498C88,-216.065 88,-206.235 88,-197.874"/>
<polygon fill="midnightblue" stroke="midnightblue" points="91.5001,-197.652 88,-187.652 84.5001,-197.653 91.5001,-197.652"/>
</g>
<!-- Node5 -->
<g id="node5" class="node"><title>Node5</title>
<polygon fill="none" stroke="#bfbfbf" points="11,-0.5 11,-19.5 63,-19.5 63,-0.5 11,-0.5"/>
<text text-anchor="middle" x="37" y="-7.5" font-family="Helvetica,sans-Serif" font-size="10.00">memory</text>
</g>
<!-- Node1&#45;&gt;Node5 -->
<g id="edge10" class="edge"><title>Node1&#45;&gt;Node5</title>
<path fill="none" stroke="midnightblue" d="M68.7973,-224.481C60.1835,-214.436 50.8789,-201.485 46,-188 26.2416,-133.389 30.7262,-63.09 34.4461,-29.9223"/>
<polygon fill="midnightblue" stroke="midnightblue" points="37.9409,-30.1783 35.689,-19.8255 30.9934,-29.323 37.9409,-30.1783"/>
</g>
<!-- Node6 -->
<g id="node6" class="node"><title>Node6</title>
<polygon fill="none" stroke="#bfbfbf" points="186.5,-0.5 186.5,-19.5 227.5,-19.5 227.5,-0.5 186.5,-0.5"/>
<text text-anchor="middle" x="207" y="-7.5" font-family="Helvetica,sans-Serif" font-size="10.00">string</text>
</g>
<!-- Node1&#45;&gt;Node6 -->
<g id="edge11" class="edge"><title>Node1&#45;&gt;Node6</title>
<path fill="none" stroke="midnightblue" d="M108.391,-224.059C136.755,-194.735 186.793,-136.84 206,-76 210.73,-61.0166 210.611,-43.1065 209.519,-29.8842"/>
<polygon fill="midnightblue" stroke="midnightblue" points="212.968,-29.2247 208.405,-19.6627 206.009,-29.9829 212.968,-29.2247"/>
</g>
<!-- Node3 -->
<g id="node3" class="node"><title>Node3</title>
<g id="a_node3"><a xlink:href="_block_8h.html" target="_top" xlink:title="Block.h">
<polygon fill="none" stroke="black" points="91,-112.5 91,-131.5 141,-131.5 141,-112.5 91,-112.5"/>
<text text-anchor="middle" x="116" y="-119.5" font-family="Helvetica,sans-Serif" font-size="10.00">Block.h</text>
</a>
</g>
</g>
<!-- Node2&#45;&gt;Node3 -->
<g id="edge2" class="edge"><title>Node2&#45;&gt;Node3</title>
<path fill="none" stroke="midnightblue" d="M92.6236,-168.083C96.4563,-160.691 102.024,-149.953 106.765,-140.811"/>
<polygon fill="midnightblue" stroke="midnightblue" points="109.966,-142.24 111.462,-131.751 103.752,-139.018 109.966,-142.24"/>
</g>
<!-- Node2&#45;&gt;Node5 -->
<g id="edge9" class="edge"><title>Node2&#45;&gt;Node5</title>
<path fill="none" stroke="midnightblue" d="M85.258,-168.075C77.2302,-141.945 53.6551,-65.2106 42.7074,-29.577"/>
<polygon fill="midnightblue" stroke="midnightblue" points="45.9149,-28.0992 39.6324,-19.5681 39.2236,-30.1551 45.9149,-28.0992"/>
</g>
<!-- Node4 -->
<g id="node4" class="node"><title>Node4</title>
<g id="a_node4"><a xlink:href="_parameters_8h.html" target="_top" xlink:title="Parameters.h">
<polygon fill="none" stroke="black" points="103.5,-56.5 103.5,-75.5 178.5,-75.5 178.5,-56.5 103.5,-56.5"/>
<text text-anchor="middle" x="141" y="-63.5" font-family="Helvetica,sans-Serif" font-size="10.00">Parameters.h</text>
</a>
</g>
</g>
<!-- Node3&#45;&gt;Node4 -->
<g id="edge3" class="edge"><title>Node3&#45;&gt;Node4</title>
<path fill="none" stroke="midnightblue" d="M120.128,-112.083C123.514,-104.77 128.416,-94.1814 132.619,-85.1034"/>
<polygon fill="midnightblue" stroke="midnightblue" points="135.923,-86.2962 136.949,-75.7511 129.571,-83.3553 135.923,-86.2962"/>
</g>
<!-- Node3&#45;&gt;Node6 -->
<g id="edge7" class="edge"><title>Node3&#45;&gt;Node6</title>
<path fill="none" stroke="midnightblue" d="M137.226,-112.441C153.085,-105.021 174.157,-92.8176 187,-76 197.291,-62.5244 202.33,-43.7127 204.771,-29.7925"/>
<polygon fill="midnightblue" stroke="midnightblue" points="208.237,-30.2741 206.222,-19.8728 201.311,-29.2607 208.237,-30.2741"/>
</g>
<!-- Node7 -->
<g id="node7" class="node"><title>Node7</title>
<polygon fill="none" stroke="#bfbfbf" points="100,-0.5 100,-19.5 144,-19.5 144,-0.5 100,-0.5"/>
<text text-anchor="middle" x="122" y="-7.5" font-family="Helvetica,sans-Serif" font-size="10.00">vector</text>
</g>
<!-- Node3&#45;&gt;Node7 -->
<g id="edge8" class="edge"><title>Node3&#45;&gt;Node7</title>
<path fill="none" stroke="midnightblue" d="M109.77,-112.24C101.719,-99.8215 89.3653,-76.3432 95,-56 97.7919,-45.9205 103.509,-35.832 108.967,-27.7694"/>
<polygon fill="midnightblue" stroke="midnightblue" points="111.825,-29.7899 114.849,-19.6357 106.153,-25.6881 111.825,-29.7899"/>
</g>
<!-- Node4&#45;&gt;Node5 -->
<g id="edge4" class="edge"><title>Node4&#45;&gt;Node5</title>
<path fill="none" stroke="midnightblue" d="M124.291,-56.324C107.688,-47.7034 81.9979,-34.3643 62.7795,-24.3855"/>
<polygon fill="midnightblue" stroke="midnightblue" points="64.1558,-21.1565 53.6679,-19.6545 60.93,-27.3689 64.1558,-21.1565"/>
</g>
<!-- Node4&#45;&gt;Node6 -->
<g id="edge5" class="edge"><title>Node4&#45;&gt;Node6</title>
<path fill="none" stroke="midnightblue" d="M151.604,-56.324C161.456,-48.2631 176.351,-36.0765 188.215,-26.3695"/>
<polygon fill="midnightblue" stroke="midnightblue" points="190.68,-28.8752 196.203,-19.8339 186.247,-23.4575 190.68,-28.8752"/>
</g>
<!-- Node4&#45;&gt;Node7 -->
<g id="edge6" class="edge"><title>Node4&#45;&gt;Node7</title>
<path fill="none" stroke="midnightblue" d="M137.863,-56.083C135.317,-48.8486 131.644,-38.4087 128.473,-29.3968"/>
<polygon fill="midnightblue" stroke="midnightblue" points="131.7,-28.0225 125.079,-19.7511 125.097,-30.3459 131.7,-28.0225"/>
</g>
</g>
</svg>
