<?xml version="1.0" encoding="UTF-8" standalone="no"?>
<!DOCTYPE svg PUBLIC "-//W3C//DTD SVG 1.1//EN"
 "http://www.w3.org/Graphics/SVG/1.1/DTD/svg11.dtd">
<!-- Generated by graphviz version 2.36.0 (20140111.2315)
 -->
<!-- Title: /home/travis/build/robotology/wb&#45;toolbox/toolbox/src/RelativeTransform.cpp Pages: 1 -->
<svg width="1611pt" height="330pt"
 viewBox="0.00 0.00 1611.00 330.00" xmlns="http://www.w3.org/2000/svg" xmlns:xlink="http://www.w3.org/1999/xlink">
<g id="graph0" class="graph" transform="scale(1 1) rotate(0) translate(4 326)">
<title>/home/travis/build/robotology/wb&#45;toolbox/toolbox/src/RelativeTransform.cpp</title>
<!-- Node1 -->
<g id="node1" class="node"><title>Node1</title>
<polygon fill="#bfbfbf" stroke="black" points="688,-280.5 688,-321.5 858,-321.5 858,-280.5 688,-280.5"/>
<text text-anchor="start" x="696" y="-309.5" font-family="Helvetica,sans-Serif" font-size="10.00">/home/travis/build</text>
<text text-anchor="start" x="696" y="-298.5" font-family="Helvetica,sans-Serif" font-size="10.00">/robotology/wb&#45;toolbox</text>
<text text-anchor="middle" x="773" y="-287.5" font-family="Helvetica,sans-Serif" font-size="10.00">/toolbox/src/RelativeTransform.cpp</text>
</g>
<!-- Node2 -->
<g id="node2" class="node"><title>Node2</title>
<g id="a_node2"><a xlink:href="_relative_transform_8h.html" target="_top" xlink:title="RelativeTransform.h">
<polygon fill="none" stroke="black" points="417.5,-224.5 417.5,-243.5 522.5,-243.5 522.5,-224.5 417.5,-224.5"/>
<text text-anchor="middle" x="470" y="-231.5" font-family="Helvetica,sans-Serif" font-size="10.00">RelativeTransform.h</text>
</a>
</g>
</g>
<!-- Node1&#45;&gt;Node2 -->
<g id="edge1" class="edge"><title>Node1&#45;&gt;Node2</title>
<path fill="none" stroke="midnightblue" d="M687.791,-281.721C633.602,-270.096 565.317,-255.448 519.795,-245.682"/>
<polygon fill="midnightblue" stroke="midnightblue" points="520.385,-242.229 509.874,-243.554 518.917,-249.073 520.385,-242.229"/>
</g>
<!-- Node5 -->
<g id="node5" class="node"><title>Node5</title>
<g id="a_node5"><a xlink:href="_parameters_8h.html" target="_top" xlink:title="Parameters.h">
<polygon fill="none" stroke="black" points="242.5,-56.5 242.5,-75.5 317.5,-75.5 317.5,-56.5 242.5,-56.5"/>
<text text-anchor="middle" x="280" y="-63.5" font-family="Helvetica,sans-Serif" font-size="10.00">Parameters.h</text>
</a>
</g>
</g>
<!-- Node1&#45;&gt;Node5 -->
<g id="edge31" class="edge"><title>Node1&#45;&gt;Node5</title>
<path fill="none" stroke="midnightblue" d="M687.92,-296.743C612.331,-291.581 499.905,-278.272 408,-244 364.211,-227.671 348.811,-223.991 319,-188 294.093,-157.93 284.986,-111.637 281.736,-85.9024"/>
<polygon fill="midnightblue" stroke="midnightblue" points="285.182,-85.2188 280.619,-75.6571 278.223,-85.9775 285.182,-85.2188"/>
</g>
<!-- Node9 -->
<g id="node9" class="node"><title>Node9</title>
<g id="a_node9"><a xlink:href="_block_information_8h.html" target="_top" xlink:title="BlockInformation.h">
<polygon fill="none" stroke="black" points="0,-56.5 0,-75.5 98,-75.5 98,-56.5 0,-56.5"/>
<text text-anchor="middle" x="49" y="-63.5" font-family="Helvetica,sans-Serif" font-size="10.00">BlockInformation.h</text>
</a>
</g>
</g>
<!-- Node1&#45;&gt;Node9 -->
<g id="edge14" class="edge"><title>Node1&#45;&gt;Node9</title>
<path fill="none" stroke="midnightblue" d="M687.973,-294.228C575.325,-285.78 383.144,-268.365 317,-244 211.488,-205.133 105.909,-117.67 65.8393,-82.2877"/>
<polygon fill="midnightblue" stroke="midnightblue" points="68.0978,-79.6122 58.3067,-75.5643 63.4364,-84.8345 68.0978,-79.6122"/>
</g>
<!-- Node12 -->
<g id="node12" class="node"><title>Node12</title>
<g id="a_node12"><a xlink:href="_configuration_8h.html" target="_top" xlink:title="Configuration.h">
<polygon fill="none" stroke="black" points="450.5,-56.5 450.5,-75.5 533.5,-75.5 533.5,-56.5 450.5,-56.5"/>
<text text-anchor="middle" x="492" y="-63.5" font-family="Helvetica,sans-Serif" font-size="10.00">Configuration.h</text>
</a>
</g>
</g>
<!-- Node1&#45;&gt;Node12 -->
<g id="edge19" class="edge"><title>Node1&#45;&gt;Node12</title>
<path fill="none" stroke="midnightblue" d="M749.042,-280.135C693.952,-234.455 559.248,-122.761 510.223,-82.1105"/>
<polygon fill="midnightblue" stroke="midnightblue" points="512.287,-79.2751 502.355,-75.5863 507.819,-84.6636 512.287,-79.2751"/>
</g>
<!-- Node14 -->
<g id="node14" class="node"><title>Node14</title>
<g id="a_node14"><a xlink:href="_log_8h.html" target="_top" xlink:title="Log.h">
<polygon fill="none" stroke="black" points="735.5,-56.5 735.5,-75.5 776.5,-75.5 776.5,-56.5 735.5,-56.5"/>
<text text-anchor="middle" x="756" y="-63.5" font-family="Helvetica,sans-Serif" font-size="10.00">Log.h</text>
</a>
</g>
</g>
<!-- Node1&#45;&gt;Node14 -->
<g id="edge24" class="edge"><title>Node1&#45;&gt;Node14</title>
<path fill="none" stroke="midnightblue" d="M771.551,-280.135C768.314,-235.779 760.537,-129.181 757.373,-85.821"/>
<polygon fill="midnightblue" stroke="midnightblue" points="760.845,-85.3051 756.626,-75.5863 753.864,-85.8145 760.845,-85.3051"/>
</g>
<!-- Node16 -->
<g id="node16" class="node"><title>Node16</title>
<g id="a_node16"><a xlink:href="_parameter_8h.html" target="_top" xlink:title="Parameter.h">
<polygon fill="none" stroke="black" points="116,-56.5 116,-75.5 186,-75.5 186,-56.5 116,-56.5"/>
<text text-anchor="middle" x="151" y="-63.5" font-family="Helvetica,sans-Serif" font-size="10.00">Parameter.h</text>
</a>
</g>
</g>
<!-- Node1&#45;&gt;Node16 -->
<g id="edge28" class="edge"><title>Node1&#45;&gt;Node16</title>
<path fill="none" stroke="midnightblue" d="M687.853,-294.261C583.781,-286.261 414.427,-269.771 357,-244 271.338,-205.559 194.303,-119.83 164.301,-83.6353"/>
<polygon fill="midnightblue" stroke="midnightblue" points="166.745,-81.0939 157.71,-75.5593 161.322,-85.5198 166.745,-81.0939"/>
</g>
<!-- Node17 -->
<g id="node17" class="node"><title>Node17</title>
<g id="a_node17"><a xlink:href="_robot_interface_8h.html" target="_top" xlink:title="RobotInterface.h">
<polygon fill="none" stroke="black" points="551.5,-56.5 551.5,-75.5 640.5,-75.5 640.5,-56.5 551.5,-56.5"/>
<text text-anchor="middle" x="596" y="-63.5" font-family="Helvetica,sans-Serif" font-size="10.00">RobotInterface.h</text>
</a>
</g>
</g>
<!-- Node1&#45;&gt;Node17 -->
<g id="edge32" class="edge"><title>Node1&#45;&gt;Node17</title>
<path fill="none" stroke="midnightblue" d="M757.909,-280.135C723.639,-235.022 640.46,-125.526 608.654,-83.658"/>
<polygon fill="midnightblue" stroke="midnightblue" points="611.359,-81.4321 602.523,-75.5863 605.785,-85.6665 611.359,-81.4321"/>
</g>
<!-- Node19 -->
<g id="node19" class="node"><title>Node19</title>
<g id="a_node19"><a xlink:href="_signal_8h.html" target="_top" xlink:title="Signal.h">
<polygon fill="none" stroke="black" points="782,-168.5 782,-187.5 834,-187.5 834,-168.5 782,-168.5"/>
<text text-anchor="middle" x="808" y="-175.5" font-family="Helvetica,sans-Serif" font-size="10.00">Signal.h</text>
</a>
</g>
</g>
<!-- Node1&#45;&gt;Node19 -->
<g id="edge37" class="edge"><title>Node1&#45;&gt;Node19</title>
<path fill="none" stroke="midnightblue" d="M778.701,-280.29C785.33,-257.375 796.185,-219.846 802.656,-197.473"/>
<polygon fill="midnightblue" stroke="midnightblue" points="806.103,-198.154 805.52,-187.575 799.379,-196.208 806.103,-198.154"/>
</g>
<!-- Node20 -->
<g id="node20" class="node"><title>Node20</title>
<polygon fill="none" stroke="#bfbfbf" points="820.5,-224.5 820.5,-243.5 885.5,-243.5 885.5,-224.5 820.5,-224.5"/>
<text text-anchor="middle" x="853" y="-231.5" font-family="Helvetica,sans-Serif" font-size="10.00">Eigen/Core</text>
</g>
<!-- Node1&#45;&gt;Node20 -->
<g id="edge39" class="edge"><title>Node1&#45;&gt;Node20</title>
<path fill="none" stroke="midnightblue" d="M797.003,-280.498C809.032,-270.724 823.373,-259.072 834.53,-250.007"/>
<polygon fill="midnightblue" stroke="midnightblue" points="836.797,-252.675 842.351,-243.652 832.383,-247.242 836.797,-252.675"/>
</g>
<!-- Node21 -->
<g id="node21" class="node"><title>Node21</title>
<polygon fill="none" stroke="#bfbfbf" points="903,-224.5 903,-243.5 1053,-243.5 1053,-224.5 903,-224.5"/>
<text text-anchor="middle" x="978" y="-231.5" font-family="Helvetica,sans-Serif" font-size="10.00">iDynTree/Core/EigenHelpers.h</text>
</g>
<!-- Node1&#45;&gt;Node21 -->
<g id="edge40" class="edge"><title>Node1&#45;&gt;Node21</title>
<path fill="none" stroke="midnightblue" d="M834.507,-280.498C869.367,-269.444 911.802,-255.99 941.447,-246.59"/>
<polygon fill="midnightblue" stroke="midnightblue" points="942.506,-249.926 950.981,-243.567 940.391,-243.253 942.506,-249.926"/>
</g>
<!-- Node22 -->
<g id="node22" class="node"><title>Node22</title>
<polygon fill="none" stroke="#bfbfbf" points="1071,-224.5 1071,-243.5 1207,-243.5 1207,-224.5 1071,-224.5"/>
<text text-anchor="middle" x="1139" y="-231.5" font-family="Helvetica,sans-Serif" font-size="10.00">iDynTree/Core/Transform.h</text>
</g>
<!-- Node1&#45;&gt;Node22 -->
<g id="edge41" class="edge"><title>Node1&#45;&gt;Node22</title>
<path fill="none" stroke="midnightblue" d="M858.349,-284.842C926.839,-272.679 1021.14,-255.932 1081.09,-245.285"/>
<polygon fill="midnightblue" stroke="midnightblue" points="1081.9,-248.695 1091.14,-243.501 1080.68,-241.803 1081.9,-248.695"/>
</g>
<!-- Node23 -->
<g id="node23" class="node"><title>Node23</title>
<polygon fill="none" stroke="#bfbfbf" points="1225.5,-224.5 1225.5,-243.5 1386.5,-243.5 1386.5,-224.5 1225.5,-224.5"/>
<text text-anchor="middle" x="1306" y="-231.5" font-family="Helvetica,sans-Serif" font-size="10.00">iDynTree/KinDynComputations.h</text>
</g>
<!-- Node1&#45;&gt;Node23 -->
<g id="edge42" class="edge"><title>Node1&#45;&gt;Node23</title>
<path fill="none" stroke="midnightblue" d="M858.045,-289.629C959.344,-277.275 1127.25,-256.798 1226.19,-244.733"/>
<polygon fill="midnightblue" stroke="midnightblue" points="1226.63,-248.205 1236.13,-243.52 1225.78,-241.257 1226.63,-248.205"/>
</g>
<!-- Node24 -->
<g id="node24" class="node"><title>Node24</title>
<polygon fill="none" stroke="#bfbfbf" points="1405,-224.5 1405,-243.5 1533,-243.5 1533,-224.5 1405,-224.5"/>
<text text-anchor="middle" x="1469" y="-231.5" font-family="Helvetica,sans-Serif" font-size="10.00">iDynTree/Model/Indices.h</text>
</g>
<!-- Node1&#45;&gt;Node24 -->
<g id="edge43" class="edge"><title>Node1&#45;&gt;Node24</title>
<path fill="none" stroke="midnightblue" d="M858.096,-293.186C975.98,-283.556 1195.89,-264.909 1394.78,-243.989"/>
<polygon fill="midnightblue" stroke="midnightblue" points="1395.26,-247.458 1404.84,-242.928 1394.53,-240.497 1395.26,-247.458"/>
</g>
<!-- Node25 -->
<g id="node25" class="node"><title>Node25</title>
<polygon fill="none" stroke="#bfbfbf" points="1551,-224.5 1551,-243.5 1603,-243.5 1603,-224.5 1551,-224.5"/>
<text text-anchor="middle" x="1577" y="-231.5" font-family="Helvetica,sans-Serif" font-size="10.00">ostream</text>
</g>
<!-- Node1&#45;&gt;Node25 -->
<g id="edge44" class="edge"><title>Node1&#45;&gt;Node25</title>
<path fill="none" stroke="midnightblue" d="M858.071,-298.766C998.61,-295.637 1288.03,-284.584 1540.63,-243.937"/>
<polygon fill="midnightblue" stroke="midnightblue" points="1541.43,-247.353 1550.73,-242.292 1540.3,-240.444 1541.43,-247.353"/>
</g>
<!-- Node3 -->
<g id="node3" class="node"><title>Node3</title>
<g id="a_node3"><a xlink:href="_w_b_block_8h.html" target="_top" xlink:title="WBBlock.h">
<polygon fill="none" stroke="black" points="328,-168.5 328,-187.5 394,-187.5 394,-168.5 328,-168.5"/>
<text text-anchor="middle" x="361" y="-175.5" font-family="Helvetica,sans-Serif" font-size="10.00">WBBlock.h</text>
</a>
</g>
</g>
<!-- Node2&#45;&gt;Node3 -->
<g id="edge2" class="edge"><title>Node2&#45;&gt;Node3</title>
<path fill="none" stroke="midnightblue" d="M452.487,-224.324C434.928,-215.625 407.669,-202.12 387.469,-192.113"/>
<polygon fill="midnightblue" stroke="midnightblue" points="388.984,-188.958 378.469,-187.655 385.876,-195.23 388.984,-188.958"/>
</g>
<!-- Node6 -->
<g id="node6" class="node"><title>Node6</title>
<polygon fill="none" stroke="#bfbfbf" points="649,-0.5 649,-19.5 701,-19.5 701,-0.5 649,-0.5"/>
<text text-anchor="middle" x="675" y="-7.5" font-family="Helvetica,sans-Serif" font-size="10.00">memory</text>
</g>
<!-- Node2&#45;&gt;Node6 -->
<g id="edge12" class="edge"><title>Node2&#45;&gt;Node6</title>
<path fill="none" stroke="midnightblue" d="M489.484,-224.491C531.194,-205.105 628.683,-153.271 670,-76 677.588,-61.8085 678.29,-43.3295 677.413,-29.7038"/>
<polygon fill="midnightblue" stroke="midnightblue" points="680.882,-29.211 676.423,-19.6002 673.915,-29.894 680.882,-29.211"/>
</g>
<!-- Node7 -->
<g id="node7" class="node"><title>Node7</title>
<polygon fill="none" stroke="#bfbfbf" points="363.5,-0.5 363.5,-19.5 404.5,-19.5 404.5,-0.5 363.5,-0.5"/>
<text text-anchor="middle" x="384" y="-7.5" font-family="Helvetica,sans-Serif" font-size="10.00">string</text>
</g>
<!-- Node2&#45;&gt;Node7 -->
<g id="edge13" class="edge"><title>Node2&#45;&gt;Node7</title>
<path fill="none" stroke="midnightblue" d="M466.629,-224.297C453.921,-191.494 408.748,-74.8835 391.119,-29.3774"/>
<polygon fill="midnightblue" stroke="midnightblue" points="394.317,-27.9442 387.441,-19.8837 387.79,-30.4728 394.317,-27.9442"/>
</g>
<!-- Node4 -->
<g id="node4" class="node"><title>Node4</title>
<g id="a_node4"><a xlink:href="_block_8h.html" target="_top" xlink:title="Block.h">
<polygon fill="none" stroke="black" points="306,-112.5 306,-131.5 356,-131.5 356,-112.5 306,-112.5"/>
<text text-anchor="middle" x="331" y="-119.5" font-family="Helvetica,sans-Serif" font-size="10.00">Block.h</text>
</a>
</g>
</g>
<!-- Node3&#45;&gt;Node4 -->
<g id="edge3" class="edge"><title>Node3&#45;&gt;Node4</title>
<path fill="none" stroke="midnightblue" d="M356.046,-168.083C351.896,-160.613 345.847,-149.724 340.733,-140.52"/>
<polygon fill="midnightblue" stroke="midnightblue" points="343.778,-138.793 335.862,-131.751 337.659,-142.192 343.778,-138.793"/>
</g>
<!-- Node3&#45;&gt;Node6 -->
<g id="edge10" class="edge"><title>Node3&#45;&gt;Node6</title>
<path fill="none" stroke="midnightblue" d="M394.059,-174.207C452.868,-167.539 576.292,-145.632 649,-76 661.871,-63.674 668.527,-44.1444 671.866,-29.7066"/>
<polygon fill="midnightblue" stroke="midnightblue" points="675.306,-30.3521 673.82,-19.862 668.44,-28.9891 675.306,-30.3521"/>
</g>
<!-- Node3&#45;&gt;Node7 -->
<g id="edge11" class="edge"><title>Node3&#45;&gt;Node7</title>
<path fill="none" stroke="midnightblue" d="M362.237,-168.075C365.857,-141.945 376.489,-65.2106 381.426,-29.577"/>
<polygon fill="midnightblue" stroke="midnightblue" points="384.907,-29.9539 382.813,-19.5681 377.973,-28.9931 384.907,-29.9539"/>
</g>
<!-- Node4&#45;&gt;Node5 -->
<g id="edge4" class="edge"><title>Node4&#45;&gt;Node5</title>
<path fill="none" stroke="midnightblue" d="M322.578,-112.083C315.152,-104.22 304.148,-92.5688 295.188,-83.0813"/>
<polygon fill="midnightblue" stroke="midnightblue" points="297.676,-80.618 288.265,-75.7511 292.587,-85.4244 297.676,-80.618"/>
</g>
<!-- Node4&#45;&gt;Node7 -->
<g id="edge8" class="edge"><title>Node4&#45;&gt;Node7</title>
<path fill="none" stroke="midnightblue" d="M335.159,-112.368C343.828,-94.376 363.98,-52.5503 375.507,-28.6267"/>
<polygon fill="midnightblue" stroke="midnightblue" points="378.673,-30.1195 379.86,-19.5914 372.367,-27.081 378.673,-30.1195"/>
</g>
<!-- Node8 -->
<g id="node8" class="node"><title>Node8</title>
<polygon fill="none" stroke="#bfbfbf" points="192,-0.5 192,-19.5 236,-19.5 236,-0.5 192,-0.5"/>
<text text-anchor="middle" x="214" y="-7.5" font-family="Helvetica,sans-Serif" font-size="10.00">vector</text>
</g>
<!-- Node4&#45;&gt;Node8 -->
<g id="edge9" class="edge"><title>Node4&#45;&gt;Node8</title>
<path fill="none" stroke="midnightblue" d="M305.699,-115.653C283.481,-109.673 251.845,-97.8204 233,-76 221.843,-63.0813 217.23,-43.909 215.327,-29.7316"/>
<polygon fill="midnightblue" stroke="midnightblue" points="218.795,-29.2451 214.308,-19.6475 211.831,-29.9486 218.795,-29.2451"/>
</g>
<!-- Node5&#45;&gt;Node6 -->
<g id="edge5" class="edge"><title>Node5&#45;&gt;Node6</title>
<path fill="none" stroke="midnightblue" d="M317.701,-61.7793C381.621,-55.993 515.466,-42.4705 638.744,-19.8149"/>
<polygon fill="midnightblue" stroke="midnightblue" points="639.544,-23.226 648.734,-17.9541 638.262,-16.3444 639.544,-23.226"/>
</g>
<!-- Node5&#45;&gt;Node7 -->
<g id="edge6" class="edge"><title>Node5&#45;&gt;Node7</title>
<path fill="none" stroke="midnightblue" d="M296.709,-56.324C313.312,-47.7034 339.002,-34.3643 358.22,-24.3855"/>
<polygon fill="midnightblue" stroke="midnightblue" points="360.07,-27.3689 367.332,-19.6545 356.844,-21.1565 360.07,-27.3689"/>
</g>
<!-- Node5&#45;&gt;Node8 -->
<g id="edge7" class="edge"><title>Node5&#45;&gt;Node8</title>
<path fill="none" stroke="midnightblue" d="M269.396,-56.324C259.544,-48.2631 244.649,-36.0765 232.785,-26.3695"/>
<polygon fill="midnightblue" stroke="midnightblue" points="234.753,-23.4575 224.797,-19.8339 230.32,-28.8752 234.753,-23.4575"/>
</g>
<!-- Node9&#45;&gt;Node7 -->
<g id="edge15" class="edge"><title>Node9&#45;&gt;Node7</title>
<path fill="none" stroke="midnightblue" d="M98.0694,-57.1572C153.978,-48.2112 248.081,-33.123 329,-20 336.903,-18.7184 345.442,-17.3251 353.382,-16.0261"/>
<polygon fill="midnightblue" stroke="midnightblue" points="354.067,-19.4607 363.369,-14.3902 352.935,-12.5527 354.067,-19.4607"/>
</g>
<!-- Node9&#45;&gt;Node8 -->
<g id="edge18" class="edge"><title>Node9&#45;&gt;Node8</title>
<path fill="none" stroke="midnightblue" d="M75.1447,-56.4435C104.253,-46.9171 151.291,-31.5228 182.43,-21.3321"/>
<polygon fill="midnightblue" stroke="midnightblue" points="183.523,-24.6572 191.938,-18.2203 181.345,-18.0044 183.523,-24.6572"/>
</g>
<!-- Node10 -->
<g id="node10" class="node"><title>Node10</title>
<polygon fill="none" stroke="#bfbfbf" points="30,-0.5 30,-19.5 68,-19.5 68,-0.5 30,-0.5"/>
<text text-anchor="middle" x="49" y="-7.5" font-family="Helvetica,sans-Serif" font-size="10.00">tuple</text>
</g>
<!-- Node9&#45;&gt;Node10 -->
<g id="edge16" class="edge"><title>Node9&#45;&gt;Node10</title>
<path fill="none" stroke="midnightblue" d="M49,-56.083C49,-49.0059 49,-38.8611 49,-29.9865"/>
<polygon fill="midnightblue" stroke="midnightblue" points="52.5001,-29.751 49,-19.7511 45.5001,-29.7511 52.5001,-29.751"/>
</g>
<!-- Node11 -->
<g id="node11" class="node"><title>Node11</title>
<polygon fill="none" stroke="#bfbfbf" points="280,-0.5 280,-19.5 320,-19.5 320,-0.5 280,-0.5"/>
<text text-anchor="middle" x="300" y="-7.5" font-family="Helvetica,sans-Serif" font-size="10.00">utility</text>
</g>
<!-- Node9&#45;&gt;Node11 -->
<g id="edge17" class="edge"><title>Node9&#45;&gt;Node11</title>
<path fill="none" stroke="midnightblue" d="M88.7717,-56.4435C139.171,-45.6006 224.905,-27.156 270.091,-17.4346"/>
<polygon fill="midnightblue" stroke="midnightblue" points="270.836,-20.8544 279.876,-15.3294 269.364,-14.011 270.836,-20.8544"/>
</g>
<!-- Node12&#45;&gt;Node6 -->
<g id="edge21" class="edge"><title>Node12&#45;&gt;Node6</title>
<path fill="none" stroke="midnightblue" d="M520.997,-56.4435C553.01,-46.997 604.576,-31.7807 639.113,-21.5897"/>
<polygon fill="midnightblue" stroke="midnightblue" points="640.207,-24.9162 648.807,-18.729 638.225,-18.2024 640.207,-24.9162"/>
</g>
<!-- Node12&#45;&gt;Node7 -->
<g id="edge22" class="edge"><title>Node12&#45;&gt;Node7</title>
<path fill="none" stroke="midnightblue" d="M474.648,-56.324C457.328,-47.6641 430.485,-34.2424 410.498,-24.249"/>
<polygon fill="midnightblue" stroke="midnightblue" points="411.819,-20.9962 401.309,-19.6545 408.688,-27.2572 411.819,-20.9962"/>
</g>
<!-- Node12&#45;&gt;Node8 -->
<g id="edge23" class="edge"><title>Node12&#45;&gt;Node8</title>
<path fill="none" stroke="midnightblue" d="M450.381,-56.9157C394.523,-46.0656 296.503,-27.0257 246.032,-17.2221"/>
<polygon fill="midnightblue" stroke="midnightblue" points="246.5,-13.7477 236.017,-15.2766 245.166,-20.6193 246.5,-13.7477"/>
</g>
<!-- Node13 -->
<g id="node13" class="node"><title>Node13</title>
<polygon fill="none" stroke="#bfbfbf" points="473,-0.5 473,-19.5 511,-19.5 511,-0.5 473,-0.5"/>
<text text-anchor="middle" x="492" y="-7.5" font-family="Helvetica,sans-Serif" font-size="10.00">array</text>
</g>
<!-- Node12&#45;&gt;Node13 -->
<g id="edge20" class="edge"><title>Node12&#45;&gt;Node13</title>
<path fill="none" stroke="midnightblue" d="M492,-56.083C492,-49.0059 492,-38.8611 492,-29.9865"/>
<polygon fill="midnightblue" stroke="midnightblue" points="495.5,-29.751 492,-19.7511 488.5,-29.7511 495.5,-29.751"/>
</g>
<!-- Node14&#45;&gt;Node6 -->
<g id="edge25" class="edge"><title>Node14&#45;&gt;Node6</title>
<path fill="none" stroke="midnightblue" d="M742.986,-56.324C730.468,-47.979 711.318,-35.2122 696.529,-25.3524"/>
<polygon fill="midnightblue" stroke="midnightblue" points="698.244,-22.2894 687.982,-19.6545 694.361,-28.1137 698.244,-22.2894"/>
</g>
<!-- Node14&#45;&gt;Node7 -->
<g id="edge27" class="edge"><title>Node14&#45;&gt;Node7</title>
<path fill="none" stroke="midnightblue" d="M735.47,-62.0198C673.625,-53.0423 488.832,-26.2175 414.987,-15.4982"/>
<polygon fill="midnightblue" stroke="midnightblue" points="415.324,-12.0105 404.925,-14.0375 414.319,-18.9379 415.324,-12.0105"/>
</g>
<!-- Node15 -->
<g id="node15" class="node"><title>Node15</title>
<polygon fill="none" stroke="#bfbfbf" points="730,-0.5 730,-19.5 782,-19.5 782,-0.5 730,-0.5"/>
<text text-anchor="middle" x="756" y="-7.5" font-family="Helvetica,sans-Serif" font-size="10.00">sstream</text>
</g>
<!-- Node14&#45;&gt;Node15 -->
<g id="edge26" class="edge"><title>Node14&#45;&gt;Node15</title>
<path fill="none" stroke="midnightblue" d="M756,-56.083C756,-49.0059 756,-38.8611 756,-29.9865"/>
<polygon fill="midnightblue" stroke="midnightblue" points="759.5,-29.751 756,-19.7511 752.5,-29.7511 759.5,-29.751"/>
</g>
<!-- Node16&#45;&gt;Node7 -->
<g id="edge29" class="edge"><title>Node16&#45;&gt;Node7</title>
<path fill="none" stroke="midnightblue" d="M186.135,-56.8572C231.704,-46.2961 310.447,-28.0467 353.58,-18.0502"/>
<polygon fill="midnightblue" stroke="midnightblue" points="354.532,-21.4222 363.484,-15.7548 352.952,-14.603 354.532,-21.4222"/>
</g>
<!-- Node16&#45;&gt;Node8 -->
<g id="edge30" class="edge"><title>Node16&#45;&gt;Node8</title>
<path fill="none" stroke="midnightblue" d="M161.122,-56.324C170.526,-48.2631 184.744,-36.0765 196.069,-26.3695"/>
<polygon fill="midnightblue" stroke="midnightblue" points="198.379,-28.9993 203.694,-19.8339 193.823,-23.6844 198.379,-28.9993"/>
</g>
<!-- Node17&#45;&gt;Node6 -->
<g id="edge33" class="edge"><title>Node17&#45;&gt;Node6</title>
<path fill="none" stroke="midnightblue" d="M608.693,-56.324C620.901,-47.979 639.578,-35.2122 654.003,-25.3524"/>
<polygon fill="midnightblue" stroke="midnightblue" points="656.058,-28.1871 662.339,-19.6545 652.108,-22.4082 656.058,-28.1871"/>
</g>
<!-- Node17&#45;&gt;Node7 -->
<g id="edge34" class="edge"><title>Node17&#45;&gt;Node7</title>
<path fill="none" stroke="midnightblue" d="M562.408,-56.4435C521.681,-46.0696 453.636,-28.7375 414.402,-18.7438"/>
<polygon fill="midnightblue" stroke="midnightblue" points="415.168,-15.3274 404.614,-16.2506 413.44,-22.1108 415.168,-15.3274"/>
</g>
<!-- Node17&#45;&gt;Node11 -->
<g id="edge36" class="edge"><title>Node17&#45;&gt;Node11</title>
<path fill="none" stroke="midnightblue" d="M551.365,-56.8572C490.323,-45.7211 382.423,-26.0367 330.112,-16.4934"/>
<polygon fill="midnightblue" stroke="midnightblue" points="330.591,-13.0231 320.125,-14.6715 329.335,-19.9095 330.591,-13.0231"/>
</g>
<!-- Node18 -->
<g id="node18" class="node"><title>Node18</title>
<polygon fill="none" stroke="#bfbfbf" points="547.5,-0.5 547.5,-19.5 630.5,-19.5 630.5,-0.5 547.5,-0.5"/>
<text text-anchor="middle" x="589" y="-7.5" font-family="Helvetica,sans-Serif" font-size="10.00">unordered_map</text>
</g>
<!-- Node17&#45;&gt;Node18 -->
<g id="edge35" class="edge"><title>Node17&#45;&gt;Node18</title>
<path fill="none" stroke="midnightblue" d="M594.844,-56.083C593.916,-48.9272 592.582,-38.6353 591.423,-29.6911"/>
<polygon fill="midnightblue" stroke="midnightblue" points="594.891,-29.2181 590.134,-19.7511 587.949,-30.1181 594.891,-29.2181"/>
</g>
<!-- Node19&#45;&gt;Node6 -->
<g id="edge38" class="edge"><title>Node19&#45;&gt;Node6</title>
<path fill="none" stroke="midnightblue" d="M808.955,-168.232C810.819,-146.558 812.604,-89.7769 785,-56 775.189,-43.9949 738.99,-30.5771 710.765,-21.5424"/>
<polygon fill="midnightblue" stroke="midnightblue" points="711.759,-18.1862 701.17,-18.539 709.668,-24.8666 711.759,-18.1862"/>
</g>
</g>
</svg>
