<?xml version="1.0" encoding="UTF-8" standalone="no"?>
<!DOCTYPE svg PUBLIC "-//W3C//DTD SVG 1.1//EN"
 "http://www.w3.org/Graphics/SVG/1.1/DTD/svg11.dtd">
<!-- Generated by graphviz version 2.36.0 (20140111.2315)
 -->
<!-- Title: /home/travis/build/robotology/wb&#45;toolbox/toolbox/src/library/src/RelativeTransform.cpp Pages: 1 -->
<!--zoomable 342 -->
<svg id="main" version="1.1" xmlns="http://www.w3.org/2000/svg" xmlns:xlink="http://www.w3.org/1999/xlink" xml:space="preserve" onload="init(evt)">
<style type="text/css"><![CDATA[
.edge:hover path { stroke: red; }
.edge:hover polygon { stroke: red; fill: red; }
]]></style>
<script type="text/javascript"><![CDATA[
var edges = document.getElementsByTagName('g');
if (edges && edges.length) {
  for (var i=0;i<edges.length;i++) {
    if (edges[i].id.substr(0,4)=='edge') {
      edges[i].setAttribute('class','edge');
    }
  }
}
]]></script>
        <defs>
                <circle id="rim" cx="0" cy="0" r="7"/>
                <circle id="rim2" cx="0" cy="0" r="3.5"/>
                <g id="zoomPlus">
                        <use xlink:href="#rim" fill="#404040">
                                <set attributeName="fill" to="#808080" begin="zoomplus.mouseover" end="zoomplus.mouseout"/>
                        </use>
                        <path d="M-4,0h8M0,-4v8" fill="none" stroke="white" stroke-width="1.5" pointer-events="none"/>
                </g>
                <g id="zoomMin">
                        <use xlink:href="#rim" fill="#404040">
                                <set attributeName="fill" to="#808080" begin="zoomminus.mouseover" end="zoomminus.mouseout"/>
                        </use>
                        <path d="M-4,0h8" fill="none" stroke="white" stroke-width="1.5" pointer-events="none"/>
                </g>
                <g id="dirArrow">
                        <path fill="none" stroke="white" stroke-width="1.5" d="M0,-3.0v7 M-2.5,-0.5L0,-3.0L2.5,-0.5"/>
                </g>
               <g id="resetDef">
                       <use xlink:href="#rim2" fill="#404040">
                               <set attributeName="fill" to="#808080" begin="reset.mouseover" end="reset.mouseout"/>
                       </use>
               </g>
        </defs>

<script type="text/javascript">
var viewWidth = 1619;
var viewHeight = 342;
var sectionId = 'dynsection-0';
</script>
<script xlink:href="svgpan.js"/>
<svg id="graph" class="graph">
<g id="viewport">
<title>/home/travis/build/robotology/wb&#45;toolbox/toolbox/src/library/src/RelativeTransform.cpp</title>
<!-- Node1 -->
<g id="node1" class="node"><title>Node1</title>
<polygon fill="#bfbfbf" stroke="black" points="721.5,-281 721.5,-333 840.5,-333 840.5,-281 721.5,-281"/>
<text text-anchor="start" x="729.5" y="-321" font-family="Helvetica,sans-Serif" font-size="10.00">/home/travis/build</text>
<text text-anchor="start" x="729.5" y="-310" font-family="Helvetica,sans-Serif" font-size="10.00">/robotology/wb&#45;toolbox</text>
<text text-anchor="start" x="729.5" y="-299" font-family="Helvetica,sans-Serif" font-size="10.00">/toolbox/src/library/src</text>
<text text-anchor="middle" x="781" y="-288" font-family="Helvetica,sans-Serif" font-size="10.00">/RelativeTransform.cpp</text>
</g>
<!-- Node2 -->
<g id="node2" class="node"><title>Node2</title>
<g id="a_node2"><a xlink:href="_relative_transform_8h.html" target="_top" xlink:title="RelativeTransform.h">
<polygon fill="none" stroke="black" points="484.5,-224.5 484.5,-243.5 589.5,-243.5 589.5,-224.5 484.5,-224.5"/>
<text text-anchor="middle" x="537" y="-231.5" font-family="Helvetica,sans-Serif" font-size="10.00">RelativeTransform.h</text>
</a>
</g>
</g>
<!-- Node1&#45;&gt;Node2 -->
<g id="edge1" class="edge"><title>Node1&#45;&gt;Node2</title>
<path fill="none" stroke="midnightblue" d="M721.311,-288.631C676.145,-275.489 615.403,-257.814 576.222,-246.413"/>
<polygon fill="midnightblue" stroke="midnightblue" points="577.084,-243.019 566.504,-243.585 575.128,-249.74 577.084,-243.019"/>
</g>
<!-- Node5 -->
<g id="node5" class="node"><title>Node5</title>
<g id="a_node5"><a xlink:href="_parameters_8h.html" target="_top" xlink:title="Core/Parameters.h">
<polygon fill="none" stroke="black" points="276.5,-56.5 276.5,-75.5 375.5,-75.5 375.5,-56.5 276.5,-56.5"/>
<text text-anchor="middle" x="326" y="-63.5" font-family="Helvetica,sans-Serif" font-size="10.00">Core/Parameters.h</text>
</a>
</g>
</g>
<!-- Node1&#45;&gt;Node5 -->
<g id="edge37" class="edge"><title>Node1&#45;&gt;Node5</title>
<path fill="none" stroke="midnightblue" d="M721.308,-300.531C658.217,-293.249 556.73,-277.206 475,-244 399.884,-213.481 365.205,-205.511 331,-132 324.285,-117.57 323.439,-99.3793 324.04,-85.9142"/>
<polygon fill="midnightblue" stroke="midnightblue" points="327.533,-86.1341 324.788,-75.9011 320.553,-85.6125 327.533,-86.1341"/>
</g>
<!-- Node9 -->
<g id="node9" class="node"><title>Node9</title>
<g id="a_node9"><a xlink:href="_configuration_8h.html" target="_top" xlink:title="Base/Configuration.h">
<polygon fill="none" stroke="black" points="150,-56.5 150,-75.5 258,-75.5 258,-56.5 150,-56.5"/>
<text text-anchor="middle" x="204" y="-63.5" font-family="Helvetica,sans-Serif" font-size="10.00">Base/Configuration.h</text>
</a>
</g>
</g>
<!-- Node1&#45;&gt;Node9 -->
<g id="edge14" class="edge"><title>Node1&#45;&gt;Node9</title>
<path fill="none" stroke="midnightblue" d="M721.253,-304.118C648.157,-299.941 521.932,-286.579 423,-244 333.206,-205.354 250.068,-119.084 217.976,-83.1718"/>
<polygon fill="midnightblue" stroke="midnightblue" points="220.503,-80.7447 211.265,-75.556 215.251,-85.3727 220.503,-80.7447"/>
</g>
<!-- Node11 -->
<g id="node11" class="node"><title>Node11</title>
<g id="a_node11"><a xlink:href="_robot_interface_8h.html" target="_top" xlink:title="Base/RobotInterface.h">
<polygon fill="none" stroke="black" points="846.5,-56.5 846.5,-75.5 961.5,-75.5 961.5,-56.5 846.5,-56.5"/>
<text text-anchor="middle" x="904" y="-63.5" font-family="Helvetica,sans-Serif" font-size="10.00">Base/RobotInterface.h</text>
</a>
</g>
</g>
<!-- Node1&#45;&gt;Node11 -->
<g id="edge19" class="edge"><title>Node1&#45;&gt;Node11</title>
<path fill="none" stroke="midnightblue" d="M792.642,-280.728C800.239,-264.439 810.478,-242.856 820,-224 845.802,-172.904 878.225,-113.585 894.192,-84.6716"/>
<polygon fill="midnightblue" stroke="midnightblue" points="897.336,-86.22 899.116,-75.7758 891.211,-82.8302 897.336,-86.22"/>
</g>
<!-- Node14 -->
<g id="node14" class="node"><title>Node14</title>
<g id="a_node14"><a xlink:href="_block_information_8h.html" target="_top" xlink:title="Core/BlockInformation.h">
<polygon fill="none" stroke="black" points="584,-56.5 584,-75.5 706,-75.5 706,-56.5 584,-56.5"/>
<text text-anchor="middle" x="645" y="-63.5" font-family="Helvetica,sans-Serif" font-size="10.00">Core/BlockInformation.h</text>
</a>
</g>
</g>
<!-- Node1&#45;&gt;Node14 -->
<g id="edge24" class="edge"><title>Node1&#45;&gt;Node14</title>
<path fill="none" stroke="midnightblue" d="M766.703,-280.875C739.049,-232.277 678.862,-126.508 655.018,-84.6058"/>
<polygon fill="midnightblue" stroke="midnightblue" points="658.008,-82.7823 650.02,-75.822 651.924,-86.2444 658.008,-82.7823"/>
</g>
<!-- Node16 -->
<g id="node16" class="node"><title>Node16</title>
<g id="a_node16"><a xlink:href="_log_8h.html" target="_top" xlink:title="Core/Log.h">
<polygon fill="none" stroke="black" points="724.5,-56.5 724.5,-75.5 789.5,-75.5 789.5,-56.5 724.5,-56.5"/>
<text text-anchor="middle" x="757" y="-63.5" font-family="Helvetica,sans-Serif" font-size="10.00">Core/Log.h</text>
</a>
</g>
</g>
<!-- Node1&#45;&gt;Node16 -->
<g id="edge30" class="edge"><title>Node1&#45;&gt;Node16</title>
<path fill="none" stroke="midnightblue" d="M770.339,-280.78C761.014,-257.262 748.176,-220.955 743,-188 737.307,-151.75 745.764,-109.051 751.804,-85.2989"/>
<polygon fill="midnightblue" stroke="midnightblue" points="755.211,-86.1065 754.426,-75.5408 748.451,-84.2899 755.211,-86.1065"/>
</g>
<!-- Node18 -->
<g id="node18" class="node"><title>Node18</title>
<g id="a_node18"><a xlink:href="_parameter_8h.html" target="_top" xlink:title="Core/Parameter.h">
<polygon fill="none" stroke="black" points="0,-56.5 0,-75.5 94,-75.5 94,-56.5 0,-56.5"/>
<text text-anchor="middle" x="47" y="-63.5" font-family="Helvetica,sans-Serif" font-size="10.00">Core/Parameter.h</text>
</a>
</g>
</g>
<!-- Node1&#45;&gt;Node18 -->
<g id="edge34" class="edge"><title>Node1&#45;&gt;Node18</title>
<path fill="none" stroke="midnightblue" d="M721.416,-302.901C642.142,-297.402 498.447,-282.604 382,-244 255.332,-202.007 119.041,-115.412 67.9288,-81.2794"/>
<polygon fill="midnightblue" stroke="midnightblue" points="69.6483,-78.2178 59.3977,-75.5391 65.7405,-84.0255 69.6483,-78.2178"/>
</g>
<!-- Node19 -->
<g id="node19" class="node"><title>Node19</title>
<g id="a_node19"><a xlink:href="_signal_8h.html" target="_top" xlink:title="Core/Signal.h">
<polygon fill="none" stroke="black" points="752,-168.5 752,-187.5 828,-187.5 828,-168.5 752,-168.5"/>
<text text-anchor="middle" x="790" y="-175.5" font-family="Helvetica,sans-Serif" font-size="10.00">Core/Signal.h</text>
</a>
</g>
</g>
<!-- Node1&#45;&gt;Node19 -->
<g id="edge38" class="edge"><title>Node1&#45;&gt;Node19</title>
<path fill="none" stroke="midnightblue" d="M782.352,-280.866C783.269,-264.632 784.572,-243.058 786,-224 786.645,-215.388 787.475,-205.859 788.212,-197.796"/>
<polygon fill="midnightblue" stroke="midnightblue" points="791.717,-197.903 789.162,-187.621 784.747,-197.252 791.717,-197.903"/>
</g>
<!-- Node20 -->
<g id="node20" class="node"><title>Node20</title>
<polygon fill="none" stroke="#bfbfbf" points="828.5,-224.5 828.5,-243.5 893.5,-243.5 893.5,-224.5 828.5,-224.5"/>
<text text-anchor="middle" x="861" y="-231.5" font-family="Helvetica,sans-Serif" font-size="10.00">Eigen/Core</text>
</g>
<!-- Node1&#45;&gt;Node20 -->
<g id="edge40" class="edge"><title>Node1&#45;&gt;Node20</title>
<path fill="none" stroke="midnightblue" d="M809.43,-280.768C820.798,-270.679 833.53,-259.379 843.499,-250.532"/>
<polygon fill="midnightblue" stroke="midnightblue" points="845.977,-253.013 851.133,-243.757 841.33,-247.777 845.977,-253.013"/>
</g>
<!-- Node21 -->
<g id="node21" class="node"><title>Node21</title>
<polygon fill="none" stroke="#bfbfbf" points="911,-224.5 911,-243.5 1061,-243.5 1061,-224.5 911,-224.5"/>
<text text-anchor="middle" x="986" y="-231.5" font-family="Helvetica,sans-Serif" font-size="10.00">iDynTree/Core/EigenHelpers.h</text>
</g>
<!-- Node1&#45;&gt;Node21 -->
<g id="edge41" class="edge"><title>Node1&#45;&gt;Node21</title>
<path fill="none" stroke="midnightblue" d="M840.57,-285.368C876.681,-272.862 921.47,-257.35 951.727,-246.87"/>
<polygon fill="midnightblue" stroke="midnightblue" points="953.094,-250.101 961.398,-243.521 950.803,-243.486 953.094,-250.101"/>
</g>
<!-- Node22 -->
<g id="node22" class="node"><title>Node22</title>
<polygon fill="none" stroke="#bfbfbf" points="1079,-224.5 1079,-243.5 1215,-243.5 1215,-224.5 1079,-224.5"/>
<text text-anchor="middle" x="1147" y="-231.5" font-family="Helvetica,sans-Serif" font-size="10.00">iDynTree/Core/Transform.h</text>
</g>
<!-- Node1&#45;&gt;Node22 -->
<g id="edge42" class="edge"><title>Node1&#45;&gt;Node22</title>
<path fill="none" stroke="midnightblue" d="M840.619,-294.435C910.558,-280.867 1025.5,-258.57 1092.94,-245.486"/>
<polygon fill="midnightblue" stroke="midnightblue" points="1093.79,-248.887 1102.94,-243.547 1092.46,-242.015 1093.79,-248.887"/>
</g>
<!-- Node23 -->
<g id="node23" class="node"><title>Node23</title>
<polygon fill="none" stroke="#bfbfbf" points="1233.5,-224.5 1233.5,-243.5 1394.5,-243.5 1394.5,-224.5 1233.5,-224.5"/>
<text text-anchor="middle" x="1314" y="-231.5" font-family="Helvetica,sans-Serif" font-size="10.00">iDynTree/KinDynComputations.h</text>
</g>
<!-- Node1&#45;&gt;Node23 -->
<g id="edge43" class="edge"><title>Node1&#45;&gt;Node23</title>
<path fill="none" stroke="midnightblue" d="M840.59,-298.062C938.486,-285.022 1133.11,-259.096 1239.79,-244.885"/>
<polygon fill="midnightblue" stroke="midnightblue" points="1240.39,-248.337 1249.84,-243.547 1239.46,-241.398 1240.39,-248.337"/>
</g>
<!-- Node24 -->
<g id="node24" class="node"><title>Node24</title>
<polygon fill="none" stroke="#bfbfbf" points="1413,-224.5 1413,-243.5 1541,-243.5 1541,-224.5 1413,-224.5"/>
<text text-anchor="middle" x="1477" y="-231.5" font-family="Helvetica,sans-Serif" font-size="10.00">iDynTree/Model/Indices.h</text>
</g>
<!-- Node1&#45;&gt;Node24 -->
<g id="edge44" class="edge"><title>Node1&#45;&gt;Node24</title>
<path fill="none" stroke="midnightblue" d="M840.655,-300.488C949.768,-290.31 1189.08,-267.549 1402.68,-244.012"/>
<polygon fill="midnightblue" stroke="midnightblue" points="1403.28,-247.467 1412.83,-242.89 1402.51,-240.509 1403.28,-247.467"/>
</g>
<!-- Node25 -->
<g id="node25" class="node"><title>Node25</title>
<polygon fill="none" stroke="#bfbfbf" points="1559,-224.5 1559,-243.5 1611,-243.5 1611,-224.5 1559,-224.5"/>
<text text-anchor="middle" x="1585" y="-231.5" font-family="Helvetica,sans-Serif" font-size="10.00">ostream</text>
</g>
<!-- Node1&#45;&gt;Node25 -->
<g id="edge45" class="edge"><title>Node1&#45;&gt;Node25</title>
<path fill="none" stroke="midnightblue" d="M840.764,-304.659C969.078,-301.032 1280.39,-288.213 1548.8,-243.926"/>
<polygon fill="midnightblue" stroke="midnightblue" points="1549.44,-247.367 1558.73,-242.27 1548.29,-240.463 1549.44,-247.367"/>
</g>
<!-- Node3 -->
<g id="node3" class="node"><title>Node3</title>
<g id="a_node3"><a xlink:href="_w_b_block_8h.html" target="_top" xlink:title="Base/WBBlock.h">
<polygon fill="none" stroke="black" points="397,-168.5 397,-187.5 489,-187.5 489,-168.5 397,-168.5"/>
<text text-anchor="middle" x="443" y="-175.5" font-family="Helvetica,sans-Serif" font-size="10.00">Base/WBBlock.h</text>
</a>
</g>
</g>
<!-- Node2&#45;&gt;Node3 -->
<g id="edge2" class="edge"><title>Node2&#45;&gt;Node3</title>
<path fill="none" stroke="midnightblue" d="M521.897,-224.324C507.097,-215.822 484.306,-202.729 467.018,-192.797"/>
<polygon fill="midnightblue" stroke="midnightblue" points="468.48,-189.601 458.065,-187.655 464.993,-195.671 468.48,-189.601"/>
</g>
<!-- Node6 -->
<g id="node6" class="node"><title>Node6</title>
<polygon fill="none" stroke="#bfbfbf" points="543,-0.5 543,-19.5 595,-19.5 595,-0.5 543,-0.5"/>
<text text-anchor="middle" x="569" y="-7.5" font-family="Helvetica,sans-Serif" font-size="10.00">memory</text>
</g>
<!-- Node2&#45;&gt;Node6 -->
<g id="edge12" class="edge"><title>Node2&#45;&gt;Node6</title>
<path fill="none" stroke="midnightblue" d="M538.254,-224.297C542.963,-191.633 559.65,-75.8661 566.267,-29.9573"/>
<polygon fill="midnightblue" stroke="midnightblue" points="569.757,-30.2808 567.719,-19.8837 562.828,-29.2821 569.757,-30.2808"/>
</g>
<!-- Node7 -->
<g id="node7" class="node"><title>Node7</title>
<polygon fill="none" stroke="#bfbfbf" points="421.5,-0.5 421.5,-19.5 462.5,-19.5 462.5,-0.5 421.5,-0.5"/>
<text text-anchor="middle" x="442" y="-7.5" font-family="Helvetica,sans-Serif" font-size="10.00">string</text>
</g>
<!-- Node2&#45;&gt;Node7 -->
<g id="edge13" class="edge"><title>Node2&#45;&gt;Node7</title>
<path fill="none" stroke="midnightblue" d="M533.276,-224.297C519.209,-191.425 469.127,-74.3911 449.741,-29.0904"/>
<polygon fill="midnightblue" stroke="midnightblue" points="452.954,-27.7004 445.802,-19.8837 446.518,-30.4543 452.954,-27.7004"/>
</g>
<!-- Node4 -->
<g id="node4" class="node"><title>Node4</title>
<g id="a_node4"><a xlink:href="_block_8h.html" target="_top" xlink:title="Core/Block.h">
<polygon fill="none" stroke="black" points="340,-112.5 340,-131.5 414,-131.5 414,-112.5 340,-112.5"/>
<text text-anchor="middle" x="377" y="-119.5" font-family="Helvetica,sans-Serif" font-size="10.00">Core/Block.h</text>
</a>
</g>
</g>
<!-- Node3&#45;&gt;Node4 -->
<g id="edge3" class="edge"><title>Node3&#45;&gt;Node4</title>
<path fill="none" stroke="midnightblue" d="M432.396,-168.324C422.544,-160.263 407.649,-148.077 395.785,-138.369"/>
<polygon fill="midnightblue" stroke="midnightblue" points="397.753,-135.457 387.797,-131.834 393.32,-140.875 397.753,-135.457"/>
</g>
<!-- Node3&#45;&gt;Node6 -->
<g id="edge10" class="edge"><title>Node3&#45;&gt;Node6</title>
<path fill="none" stroke="midnightblue" d="M449.774,-168.075C469.951,-141.493 529.881,-62.5379 556.276,-27.7633"/>
<polygon fill="midnightblue" stroke="midnightblue" points="559.238,-29.6495 562.496,-19.5681 553.663,-25.4173 559.238,-29.6495"/>
</g>
<!-- Node3&#45;&gt;Node7 -->
<g id="edge11" class="edge"><title>Node3&#45;&gt;Node7</title>
<path fill="none" stroke="midnightblue" d="M442.946,-168.075C442.789,-141.945 442.327,-65.2106 442.112,-29.577"/>
<polygon fill="midnightblue" stroke="midnightblue" points="445.612,-29.5468 442.052,-19.5681 438.612,-29.589 445.612,-29.5468"/>
</g>
<!-- Node4&#45;&gt;Node5 -->
<g id="edge4" class="edge"><title>Node4&#45;&gt;Node5</title>
<path fill="none" stroke="midnightblue" d="M368.578,-112.083C361.152,-104.22 350.148,-92.5688 341.188,-83.0813"/>
<polygon fill="midnightblue" stroke="midnightblue" points="343.676,-80.618 334.265,-75.7511 338.587,-85.4244 343.676,-80.618"/>
</g>
<!-- Node4&#45;&gt;Node7 -->
<g id="edge8" class="edge"><title>Node4&#45;&gt;Node7</title>
<path fill="none" stroke="midnightblue" d="M382.1,-112.368C392.78,-94.2957 417.668,-52.1764 431.773,-28.3074"/>
<polygon fill="midnightblue" stroke="midnightblue" points="434.849,-29.9813 436.923,-19.5914 428.823,-26.4201 434.849,-29.9813"/>
</g>
<!-- Node8 -->
<g id="node8" class="node"><title>Node8</title>
<polygon fill="none" stroke="#bfbfbf" points="152,-0.5 152,-19.5 196,-19.5 196,-0.5 152,-0.5"/>
<text text-anchor="middle" x="174" y="-7.5" font-family="Helvetica,sans-Serif" font-size="10.00">vector</text>
</g>
<!-- Node4&#45;&gt;Node8 -->
<g id="edge9" class="edge"><title>Node4&#45;&gt;Node8</title>
<path fill="none" stroke="midnightblue" d="M339.744,-119.477C279.716,-116.155 165.794,-105.968 141,-76 128.611,-61.0259 142.96,-40.6278 156.426,-26.7009"/>
<polygon fill="midnightblue" stroke="midnightblue" points="158.898,-29.1789 163.641,-19.705 154.026,-24.1534 158.898,-29.1789"/>
</g>
<!-- Node5&#45;&gt;Node6 -->
<g id="edge5" class="edge"><title>Node5&#45;&gt;Node6</title>
<path fill="none" stroke="midnightblue" d="M364.504,-56.4435C410.69,-46.18 487.525,-29.1055 532.707,-19.0652"/>
<polygon fill="midnightblue" stroke="midnightblue" points="533.656,-22.4396 542.659,-16.8536 532.138,-15.6063 533.656,-22.4396"/>
</g>
<!-- Node5&#45;&gt;Node7 -->
<g id="edge6" class="edge"><title>Node5&#45;&gt;Node7</title>
<path fill="none" stroke="midnightblue" d="M344.381,-56.4435C363.216,-47.6751 392.731,-33.9355 414.379,-23.8579"/>
<polygon fill="midnightblue" stroke="midnightblue" points="416.117,-26.9098 423.705,-19.5164 413.162,-20.5637 416.117,-26.9098"/>
</g>
<!-- Node5&#45;&gt;Node8 -->
<g id="edge7" class="edge"><title>Node5&#45;&gt;Node8</title>
<path fill="none" stroke="midnightblue" d="M301.915,-56.4435C276.006,-47.239 234.677,-32.5565 206.04,-22.3826"/>
<polygon fill="midnightblue" stroke="midnightblue" points="207.08,-19.038 196.486,-18.9883 204.737,-25.6341 207.08,-19.038"/>
</g>
<!-- Node9&#45;&gt;Node6 -->
<g id="edge16" class="edge"><title>Node9&#45;&gt;Node6</title>
<path fill="none" stroke="midnightblue" d="M258.25,-56.974C333.685,-45.8137 468.232,-25.9082 532.659,-16.3765"/>
<polygon fill="midnightblue" stroke="midnightblue" points="533.365,-19.8102 542.745,-14.8843 532.34,-12.8856 533.365,-19.8102"/>
</g>
<!-- Node9&#45;&gt;Node7 -->
<g id="edge17" class="edge"><title>Node9&#45;&gt;Node7</title>
<path fill="none" stroke="midnightblue" d="M241.712,-56.4435C288.694,-45.7836 368.059,-27.7765 411.438,-17.9343"/>
<polygon fill="midnightblue" stroke="midnightblue" points="412.418,-21.3009 421.396,-15.6749 410.869,-14.4744 412.418,-21.3009"/>
</g>
<!-- Node9&#45;&gt;Node8 -->
<g id="edge18" class="edge"><title>Node9&#45;&gt;Node8</title>
<path fill="none" stroke="midnightblue" d="M199.046,-56.083C194.896,-48.6127 188.847,-37.7244 183.733,-28.5199"/>
<polygon fill="midnightblue" stroke="midnightblue" points="186.778,-26.7929 178.862,-19.7511 180.659,-30.1924 186.778,-26.7929"/>
</g>
<!-- Node10 -->
<g id="node10" class="node"><title>Node10</title>
<polygon fill="none" stroke="#bfbfbf" points="214,-0.5 214,-19.5 252,-19.5 252,-0.5 214,-0.5"/>
<text text-anchor="middle" x="233" y="-7.5" font-family="Helvetica,sans-Serif" font-size="10.00">array</text>
</g>
<!-- Node9&#45;&gt;Node10 -->
<g id="edge15" class="edge"><title>Node9&#45;&gt;Node10</title>
<path fill="none" stroke="midnightblue" d="M208.789,-56.083C212.758,-48.6913 218.525,-37.9533 223.435,-28.8111"/>
<polygon fill="midnightblue" stroke="midnightblue" points="226.653,-30.217 228.3,-19.7511 220.486,-26.9051 226.653,-30.217"/>
</g>
<!-- Node11&#45;&gt;Node6 -->
<g id="edge20" class="edge"><title>Node11&#45;&gt;Node6</title>
<path fill="none" stroke="midnightblue" d="M846.47,-56.4952C788.466,-47.7993 696.403,-33.6658 617,-20 613.116,-19.3315 609.06,-18.6091 605.022,-17.8743"/>
<polygon fill="midnightblue" stroke="midnightblue" points="605.602,-14.4222 595.132,-16.0461 604.329,-21.3056 605.602,-14.4222"/>
</g>
<!-- Node11&#45;&gt;Node7 -->
<g id="edge21" class="edge"><title>Node11&#45;&gt;Node7</title>
<path fill="none" stroke="midnightblue" d="M846.422,-58.27C747.746,-46.7365 549.578,-23.574 473.099,-14.635"/>
<polygon fill="midnightblue" stroke="midnightblue" points="473.064,-11.1071 462.725,-13.4224 472.251,-18.0598 473.064,-11.1071"/>
</g>
<!-- Node12 -->
<g id="node12" class="node"><title>Node12</title>
<polygon fill="none" stroke="#bfbfbf" points="862.5,-0.5 862.5,-19.5 945.5,-19.5 945.5,-0.5 862.5,-0.5"/>
<text text-anchor="middle" x="904" y="-7.5" font-family="Helvetica,sans-Serif" font-size="10.00">unordered_map</text>
</g>
<!-- Node11&#45;&gt;Node12 -->
<g id="edge22" class="edge"><title>Node11&#45;&gt;Node12</title>
<path fill="none" stroke="midnightblue" d="M904,-56.083C904,-49.0059 904,-38.8611 904,-29.9865"/>
<polygon fill="midnightblue" stroke="midnightblue" points="907.5,-29.751 904,-19.7511 900.5,-29.7511 907.5,-29.751"/>
</g>
<!-- Node13 -->
<g id="node13" class="node"><title>Node13</title>
<polygon fill="none" stroke="#bfbfbf" points="803,-0.5 803,-19.5 843,-19.5 843,-0.5 803,-0.5"/>
<text text-anchor="middle" x="823" y="-7.5" font-family="Helvetica,sans-Serif" font-size="10.00">utility</text>
</g>
<!-- Node11&#45;&gt;Node13 -->
<g id="edge23" class="edge"><title>Node11&#45;&gt;Node13</title>
<path fill="none" stroke="midnightblue" d="M890.986,-56.324C878.468,-47.979 859.318,-35.2122 844.529,-25.3524"/>
<polygon fill="midnightblue" stroke="midnightblue" points="846.244,-22.2894 835.982,-19.6545 842.361,-28.1137 846.244,-22.2894"/>
</g>
<!-- Node14&#45;&gt;Node6 -->
<g id="edge25" class="edge"><title>Node14&#45;&gt;Node6</title>
<path fill="none" stroke="midnightblue" d="M632.789,-56.324C621.224,-48.1066 603.625,-35.6017 589.839,-25.8069"/>
<polygon fill="midnightblue" stroke="midnightblue" points="591.612,-22.7729 581.433,-19.8339 587.557,-28.4791 591.612,-22.7729"/>
</g>
<!-- Node14&#45;&gt;Node7 -->
<g id="edge26" class="edge"><title>Node14&#45;&gt;Node7</title>
<path fill="none" stroke="midnightblue" d="M612.834,-56.4435C574.308,-46.1953 510.255,-29.1565 472.489,-19.1103"/>
<polygon fill="midnightblue" stroke="midnightblue" points="473.14,-15.662 462.577,-16.4736 471.341,-22.4268 473.14,-15.662"/>
</g>
<!-- Node14&#45;&gt;Node8 -->
<g id="edge29" class="edge"><title>Node14&#45;&gt;Node8</title>
<path fill="none" stroke="midnightblue" d="M583.995,-62.2467C500.58,-57.7125 346.236,-46.5785 206.284,-19.9224"/>
<polygon fill="midnightblue" stroke="midnightblue" points="206.716,-16.4412 196.233,-17.9762 205.385,-23.3135 206.716,-16.4412"/>
</g>
<!-- Node14&#45;&gt;Node13 -->
<g id="edge28" class="edge"><title>Node14&#45;&gt;Node13</title>
<path fill="none" stroke="midnightblue" d="M673.205,-56.4435C705.986,-46.4985 759.847,-30.1587 793.268,-20.02"/>
<polygon fill="midnightblue" stroke="midnightblue" points="794.384,-23.3389 802.937,-17.0865 792.352,-16.6403 794.384,-23.3389"/>
</g>
<!-- Node15 -->
<g id="node15" class="node"><title>Node15</title>
<polygon fill="none" stroke="#bfbfbf" points="626,-0.5 626,-19.5 664,-19.5 664,-0.5 626,-0.5"/>
<text text-anchor="middle" x="645" y="-7.5" font-family="Helvetica,sans-Serif" font-size="10.00">tuple</text>
</g>
<!-- Node14&#45;&gt;Node15 -->
<g id="edge27" class="edge"><title>Node14&#45;&gt;Node15</title>
<path fill="none" stroke="midnightblue" d="M645,-56.083C645,-49.0059 645,-38.8611 645,-29.9865"/>
<polygon fill="midnightblue" stroke="midnightblue" points="648.5,-29.751 645,-19.7511 641.5,-29.7511 648.5,-29.751"/>
</g>
<!-- Node16&#45;&gt;Node6 -->
<g id="edge31" class="edge"><title>Node16&#45;&gt;Node6</title>
<path fill="none" stroke="midnightblue" d="M727.211,-56.4435C694.04,-46.9158 640.435,-31.5187 604.957,-21.328"/>
<polygon fill="midnightblue" stroke="midnightblue" points="605.595,-17.8698 595.017,-18.473 603.662,-24.5978 605.595,-17.8698"/>
</g>
<!-- Node16&#45;&gt;Node7 -->
<g id="edge33" class="edge"><title>Node16&#45;&gt;Node7</title>
<path fill="none" stroke="midnightblue" d="M724.472,-57.8694C721.275,-57.2169 718.077,-56.583 715,-56 627.317,-39.3886 523.119,-23.1874 472.557,-15.5498"/>
<polygon fill="midnightblue" stroke="midnightblue" points="473.017,-12.0796 462.607,-14.053 471.975,-19.0018 473.017,-12.0796"/>
</g>
<!-- Node17 -->
<g id="node17" class="node"><title>Node17</title>
<polygon fill="none" stroke="#bfbfbf" points="731,-0.5 731,-19.5 783,-19.5 783,-0.5 731,-0.5"/>
<text text-anchor="middle" x="757" y="-7.5" font-family="Helvetica,sans-Serif" font-size="10.00">sstream</text>
</g>
<!-- Node16&#45;&gt;Node17 -->
<g id="edge32" class="edge"><title>Node16&#45;&gt;Node17</title>
<path fill="none" stroke="midnightblue" d="M757,-56.083C757,-49.0059 757,-38.8611 757,-29.9865"/>
<polygon fill="midnightblue" stroke="midnightblue" points="760.5,-29.751 757,-19.7511 753.5,-29.7511 760.5,-29.751"/>
</g>
<!-- Node18&#45;&gt;Node7 -->
<g id="edge35" class="edge"><title>Node18&#45;&gt;Node7</title>
<path fill="none" stroke="midnightblue" d="M94.2539,-58.54C176.087,-47.3527 342.022,-24.6678 410.922,-15.2486"/>
<polygon fill="midnightblue" stroke="midnightblue" points="411.686,-18.6769 421.12,-13.8545 410.738,-11.7414 411.686,-18.6769"/>
</g>
<!-- Node18&#45;&gt;Node8 -->
<g id="edge36" class="edge"><title>Node18&#45;&gt;Node8</title>
<path fill="none" stroke="midnightblue" d="M67.1235,-56.4435C88.0243,-47.5566 120.935,-33.5632 144.716,-23.4514"/>
<polygon fill="midnightblue" stroke="midnightblue" points="146.138,-26.6504 153.971,-19.5164 143.398,-20.2085 146.138,-26.6504"/>
</g>
<!-- Node19&#45;&gt;Node6 -->
<g id="edge39" class="edge"><title>Node19&#45;&gt;Node6</title>
<path fill="none" stroke="midnightblue" d="M794.091,-168.475C803.794,-146.871 825.418,-89.3301 798,-56 796.461,-54.1289 669.284,-29.9142 605.145,-17.8027"/>
<polygon fill="midnightblue" stroke="midnightblue" points="605.528,-14.3132 595.052,-15.8984 604.23,-21.1918 605.528,-14.3132"/>
</g>
</g>
</svg>
        <g id="navigator" transform="translate(0 0)" fill="#404254">
                <rect fill="#f2f5e9" fill-opacity="0.5" stroke="#606060" stroke-width=".5" x="0" y="0" width="60" height="60"/>
                <use id="zoomplus" xlink:href="#zoomPlus" x="17" y="9" onmousedown="handleZoom(evt,'in')"/>
                <use id="zoomminus" xlink:href="#zoomMin" x="42" y="9" onmousedown="handleZoom(evt,'out')"/>
                <use id="reset" xlink:href="#resetDef" x="30" y="36" onmousedown="handleReset()"/>
                <g id="arrowUp" xlink:href="#dirArrow" transform="translate(30 24)" onmousedown="handlePan(0,-1)">
                  <use xlink:href="#rim" fill="#404040">
                        <set attributeName="fill" to="#808080" begin="arrowUp.mouseover" end="arrowUp.mouseout"/>
                  </use>
                  <path fill="none" stroke="white" stroke-width="1.5" d="M0,-3.0v7 M-2.5,-0.5L0,-3.0L2.5,-0.5"/>
                </g>
                <g id="arrowRight" xlink:href="#dirArrow" transform="rotate(90) translate(36 -43)" onmousedown="handlePan(1,0)">
                  <use xlink:href="#rim" fill="#404040">
                        <set attributeName="fill" to="#808080" begin="arrowRight.mouseover" end="arrowRight.mouseout"/>
                  </use>
                  <path fill="none" stroke="white" stroke-width="1.5" d="M0,-3.0v7 M-2.5,-0.5L0,-3.0L2.5,-0.5"/>
                </g>
                <g id="arrowDown" xlink:href="#dirArrow" transform="rotate(180) translate(-30 -48)" onmousedown="handlePan(0,1)">
                  <use xlink:href="#rim" fill="#404040">
                        <set attributeName="fill" to="#808080" begin="arrowDown.mouseover" end="arrowDown.mouseout"/>
                  </use>
                  <path fill="none" stroke="white" stroke-width="1.5" d="M0,-3.0v7 M-2.5,-0.5L0,-3.0L2.5,-0.5"/>
                </g>
                <g id="arrowLeft" xlink:href="#dirArrow" transform="rotate(270) translate(-36 17)" onmousedown="handlePan(-1,0)">
                  <use xlink:href="#rim" fill="#404040">
                        <set attributeName="fill" to="#808080" begin="arrowLeft.mouseover" end="arrowLeft.mouseout"/>
                  </use>
                  <path fill="none" stroke="white" stroke-width="1.5" d="M0,-3.0v7 M-2.5,-0.5L0,-3.0L2.5,-0.5"/>
                </g>
        </g>
        <svg viewBox="0 0 15 15" width="100%" height="30px" preserveAspectRatio="xMaxYMin meet">
         <g id="arrow_out" transform="scale(0.3 0.3)">
          <a xlink:href="_relative_transform_8cpp__incl_org.svg" target="_base">
           <rect id="button" ry="5" rx="5" y="6" x="6" height="38" width="38"
                fill="#f2f5e9" fill-opacity="0.5" stroke="#606060" stroke-width="1.0"/>
           <path id="arrow"
             d="M 11.500037,31.436501 C 11.940474,20.09759 22.043105,11.32322 32.158766,21.979434 L 37.068811,17.246167 C 37.068811,17.246167 37.088388,32 37.088388,32 L 22.160133,31.978069 C 22.160133,31.978069 26.997745,27.140456 26.997745,27.140456 C 18.528582,18.264221 13.291696,25.230495 11.500037,31.436501 z"
             style="fill:#404040;"/>
          </a>
         </g>
        </svg>
</svg>
