<?xml version="1.0" encoding="UTF-8" standalone="no"?>
<!DOCTYPE svg PUBLIC "-//W3C//DTD SVG 1.1//EN"
 "http://www.w3.org/Graphics/SVG/1.1/DTD/svg11.dtd">
<!-- Generated by graphviz version 2.36.0 (20140111.2315)
 -->
<!-- Title: /home/travis/build/robotology/wb&#45;toolbox/toolbox/include/RelativeTransform.h Pages: 1 -->
<svg width="327pt" height="218pt"
 viewBox="0.00 0.00 327.00 218.00" xmlns="http://www.w3.org/2000/svg" xmlns:xlink="http://www.w3.org/1999/xlink">
<g id="graph0" class="graph" transform="scale(1 1) rotate(0) translate(4 214)">
<title>/home/travis/build/robotology/wb&#45;toolbox/toolbox/include/RelativeTransform.h</title>
<!-- Node1 -->
<g id="node1" class="node"><title>Node1</title>
<polygon fill="#bfbfbf" stroke="black" points="65,-168.5 65,-209.5 241,-209.5 241,-168.5 65,-168.5"/>
<text text-anchor="start" x="73" y="-197.5" font-family="Helvetica,sans-Serif" font-size="10.00">/home/travis/build</text>
<text text-anchor="start" x="73" y="-186.5" font-family="Helvetica,sans-Serif" font-size="10.00">/robotology/wb&#45;toolbox</text>
<text text-anchor="middle" x="153" y="-175.5" font-family="Helvetica,sans-Serif" font-size="10.00">/toolbox/include/RelativeTransform.h</text>
</g>
<!-- Node2 -->
<g id="node2" class="node"><title>Node2</title>
<g id="a_node2"><a xlink:href="_factory_8h.html" target="_top" xlink:title="/home/travis/build\l/robotology/wb&#45;toolbox\l/toolbox/include/base\l/Factory.h">
<polygon fill="none" stroke="black" points="15.5,-79 15.5,-131 130.5,-131 130.5,-79 15.5,-79"/>
<text text-anchor="start" x="23.5" y="-119" font-family="Helvetica,sans-Serif" font-size="10.00">/home/travis/build</text>
<text text-anchor="start" x="23.5" y="-108" font-family="Helvetica,sans-Serif" font-size="10.00">/robotology/wb&#45;toolbox</text>
<text text-anchor="start" x="23.5" y="-97" font-family="Helvetica,sans-Serif" font-size="10.00">/toolbox/include/base</text>
<text text-anchor="middle" x="73" y="-86" font-family="Helvetica,sans-Serif" font-size="10.00">/Factory.h</text>
</a>
</g>
</g>
<!-- Node1&#45;&gt;Node2 -->
<g id="edge1" class="edge"><title>Node1&#45;&gt;Node2</title>
<path fill="none" stroke="midnightblue" d="M126.461,-160.798C117.168,-151.272 106.777,-140.622 97.6452,-131.261"/>
<polygon fill="midnightblue" stroke="midnightblue" points="124.146,-163.436 133.634,-168.15 129.156,-158.548 124.146,-163.436"/>
</g>
<!-- Node4 -->
<g id="node4" class="node"><title>Node4</title>
<g id="a_node4"><a xlink:href="_relative_transform_8cpp.html" target="_top" xlink:title="/home/travis/build\l/robotology/wb&#45;toolbox\l/toolbox/src/RelativeTransform.cpp">
<polygon fill="none" stroke="black" points="149,-84.5 149,-125.5 319,-125.5 319,-84.5 149,-84.5"/>
<text text-anchor="start" x="157" y="-113.5" font-family="Helvetica,sans-Serif" font-size="10.00">/home/travis/build</text>
<text text-anchor="start" x="157" y="-102.5" font-family="Helvetica,sans-Serif" font-size="10.00">/robotology/wb&#45;toolbox</text>
<text text-anchor="middle" x="234" y="-91.5" font-family="Helvetica,sans-Serif" font-size="10.00">/toolbox/src/RelativeTransform.cpp</text>
</a>
</g>
</g>
<!-- Node1&#45;&gt;Node4 -->
<g id="edge3" class="edge"><title>Node1&#45;&gt;Node4</title>
<path fill="none" stroke="midnightblue" d="M179.796,-160.873C191.16,-149.369 204.155,-136.213 214.573,-125.667"/>
<polygon fill="midnightblue" stroke="midnightblue" points="177.145,-158.576 172.608,-168.15 182.125,-163.495 177.145,-158.576"/>
</g>
<!-- Node3 -->
<g id="node3" class="node"><title>Node3</title>
<g id="a_node3"><a xlink:href="_factory_8cpp.html" target="_top" xlink:title="/home/travis/build\l/robotology/wb&#45;toolbox\l/toolbox/src/base/Factory.cpp">
<polygon fill="none" stroke="black" points="0,-0.5 0,-41.5 146,-41.5 146,-0.5 0,-0.5"/>
<text text-anchor="start" x="8" y="-29.5" font-family="Helvetica,sans-Serif" font-size="10.00">/home/travis/build</text>
<text text-anchor="start" x="8" y="-18.5" font-family="Helvetica,sans-Serif" font-size="10.00">/robotology/wb&#45;toolbox</text>
<text text-anchor="middle" x="73" y="-7.5" font-family="Helvetica,sans-Serif" font-size="10.00">/toolbox/src/base/Factory.cpp</text>
</a>
</g>
</g>
<!-- Node2&#45;&gt;Node3 -->
<g id="edge2" class="edge"><title>Node2&#45;&gt;Node3</title>
<path fill="none" stroke="midnightblue" d="M73,-68.7604C73,-59.4912 73,-49.8211 73,-41.6965"/>
<polygon fill="midnightblue" stroke="midnightblue" points="69.5001,-68.9517 73,-78.9517 76.5001,-68.9518 69.5001,-68.9517"/>
</g>
</g>
</svg>
