<?xml version="1.0" encoding="UTF-8" standalone="no"?>
<!DOCTYPE svg PUBLIC "-//W3C//DTD SVG 1.1//EN"
 "http://www.w3.org/Graphics/SVG/1.1/DTD/svg11.dtd">
<!-- Generated by graphviz version 2.36.0 (20140111.2315)
 -->
<!-- Title: /home/travis/build/robotology/wb&#45;toolbox/toolbox/include/RelativeTransform.h Pages: 1 -->
<svg width="254pt" height="274pt"
 viewBox="0.00 0.00 254.00 274.00" xmlns="http://www.w3.org/2000/svg" xmlns:xlink="http://www.w3.org/1999/xlink">
<g id="graph0" class="graph" transform="scale(1 1) rotate(0) translate(4 270)">
<title>/home/travis/build/robotology/wb&#45;toolbox/toolbox/include/RelativeTransform.h</title>
<!-- Node1 -->
<g id="node1" class="node"><title>Node1</title>
<polygon fill="#bfbfbf" stroke="black" points="0,-224.5 0,-265.5 176,-265.5 176,-224.5 0,-224.5"/>
<text text-anchor="start" x="8" y="-253.5" font-family="Helvetica,sans-Serif" font-size="10.00">/home/travis/build</text>
<text text-anchor="start" x="8" y="-242.5" font-family="Helvetica,sans-Serif" font-size="10.00">/robotology/wb&#45;toolbox</text>
<text text-anchor="middle" x="88" y="-231.5" font-family="Helvetica,sans-Serif" font-size="10.00">/toolbox/include/RelativeTransform.h</text>
</g>
<!-- Node2 -->
<g id="node2" class="node"><title>Node2</title>
<g id="a_node2"><a xlink:href="_w_b_block_8h.html" target="_top" xlink:title="WBBlock.h">
<polygon fill="none" stroke="black" points="55,-168.5 55,-187.5 121,-187.5 121,-168.5 55,-168.5"/>
<text text-anchor="middle" x="88" y="-175.5" font-family="Helvetica,sans-Serif" font-size="10.00">WBBlock.h</text>
</a>
</g>
</g>
<!-- Node1&#45;&gt;Node2 -->
<g id="edge1" class="edge"><title>Node1&#45;&gt;Node2</title>
<path fill="none" stroke="midnightblue" d="M88,-224.498C88,-216.065 88,-206.235 88,-197.874"/>
<polygon fill="midnightblue" stroke="midnightblue" points="91.5001,-197.652 88,-187.652 84.5001,-197.653 91.5001,-197.652"/>
</g>
<!-- Node5 -->
<g id="node5" class="node"><title>Node5</title>
<polygon fill="none" stroke="#bfbfbf" points="194,-0.5 194,-19.5 246,-19.5 246,-0.5 194,-0.5"/>
<text text-anchor="middle" x="220" y="-7.5" font-family="Helvetica,sans-Serif" font-size="10.00">memory</text>
</g>
<!-- Node1&#45;&gt;Node5 -->
<g id="edge11" class="edge"><title>Node1&#45;&gt;Node5</title>
<path fill="none" stroke="midnightblue" d="M110.453,-224.493C141.716,-195.698 196.995,-138.44 219,-76 224.223,-61.181 224.061,-43.2565 222.826,-29.9868"/>
<polygon fill="midnightblue" stroke="midnightblue" points="226.259,-29.2214 221.573,-19.7189 219.31,-30.0692 226.259,-29.2214"/>
</g>
<!-- Node6 -->
<g id="node6" class="node"><title>Node6</title>
<polygon fill="none" stroke="#bfbfbf" points="10.5,-0.5 10.5,-19.5 51.5,-19.5 51.5,-0.5 10.5,-0.5"/>
<text text-anchor="middle" x="31" y="-7.5" font-family="Helvetica,sans-Serif" font-size="10.00">string</text>
</g>
<!-- Node1&#45;&gt;Node6 -->
<g id="edge12" class="edge"><title>Node1&#45;&gt;Node6</title>
<path fill="none" stroke="midnightblue" d="M69.2775,-224.296C60.7774,-214.207 51.4297,-201.273 46,-188 23.8561,-133.87 26.2885,-62.8069 29.0374,-29.6023"/>
<polygon fill="midnightblue" stroke="midnightblue" points="32.5333,-29.8095 29.9832,-19.5262 25.5639,-29.1553 32.5333,-29.8095"/>
</g>
<!-- Node3 -->
<g id="node3" class="node"><title>Node3</title>
<g id="a_node3"><a xlink:href="_block_8h.html" target="_top" xlink:title="Block.h">
<polygon fill="none" stroke="black" points="63,-112.5 63,-131.5 113,-131.5 113,-112.5 63,-112.5"/>
<text text-anchor="middle" x="88" y="-119.5" font-family="Helvetica,sans-Serif" font-size="10.00">Block.h</text>
</a>
</g>
</g>
<!-- Node2&#45;&gt;Node3 -->
<g id="edge2" class="edge"><title>Node2&#45;&gt;Node3</title>
<path fill="none" stroke="midnightblue" d="M88,-168.083C88,-161.006 88,-150.861 88,-141.986"/>
<polygon fill="midnightblue" stroke="midnightblue" points="91.5001,-141.751 88,-131.751 84.5001,-141.751 91.5001,-141.751"/>
</g>
<!-- Node2&#45;&gt;Node5 -->
<g id="edge9" class="edge"><title>Node2&#45;&gt;Node5</title>
<path fill="none" stroke="midnightblue" d="M101.531,-168.44C125.025,-152.89 173.39,-117.722 200,-76 209.027,-61.8459 214.197,-43.3628 217.009,-29.726"/>
<polygon fill="midnightblue" stroke="midnightblue" points="220.502,-30.0774 218.849,-19.6123 213.615,-28.824 220.502,-30.0774"/>
</g>
<!-- Node2&#45;&gt;Node6 -->
<g id="edge10" class="edge"><title>Node2&#45;&gt;Node6</title>
<path fill="none" stroke="midnightblue" d="M79.6247,-168.483C71.7535,-159.969 60.2723,-146.142 54,-132 38.8823,-97.9136 33.6882,-54.1201 31.9129,-29.6606"/>
<polygon fill="midnightblue" stroke="midnightblue" points="35.4023,-29.3784 31.3008,-19.6097 28.4152,-29.804 35.4023,-29.3784"/>
</g>
<!-- Node4 -->
<g id="node4" class="node"><title>Node4</title>
<g id="a_node4"><a xlink:href="_parameters_8h.html" target="_top" xlink:title="Parameters.h">
<polygon fill="none" stroke="black" points="116.5,-56.5 116.5,-75.5 191.5,-75.5 191.5,-56.5 116.5,-56.5"/>
<text text-anchor="middle" x="154" y="-63.5" font-family="Helvetica,sans-Serif" font-size="10.00">Parameters.h</text>
</a>
</g>
</g>
<!-- Node3&#45;&gt;Node4 -->
<g id="edge3" class="edge"><title>Node3&#45;&gt;Node4</title>
<path fill="none" stroke="midnightblue" d="M98.604,-112.324C108.456,-104.263 123.351,-92.0765 135.215,-82.3695"/>
<polygon fill="midnightblue" stroke="midnightblue" points="137.68,-84.8752 143.203,-75.8339 133.247,-79.4575 137.68,-84.8752"/>
</g>
<!-- Node3&#45;&gt;Node6 -->
<g id="edge7" class="edge"><title>Node3&#45;&gt;Node6</title>
<path fill="none" stroke="midnightblue" d="M83.5273,-112.368C74.2039,-94.376 52.5306,-52.5503 40.1338,-28.6267"/>
<polygon fill="midnightblue" stroke="midnightblue" points="43.1604,-26.8599 35.4519,-19.5914 36.9452,-30.0805 43.1604,-26.8599"/>
</g>
<!-- Node7 -->
<g id="node7" class="node"><title>Node7</title>
<polygon fill="none" stroke="#bfbfbf" points="99,-0.5 99,-19.5 143,-19.5 143,-0.5 99,-0.5"/>
<text text-anchor="middle" x="121" y="-7.5" font-family="Helvetica,sans-Serif" font-size="10.00">vector</text>
</g>
<!-- Node3&#45;&gt;Node7 -->
<g id="edge8" class="edge"><title>Node3&#45;&gt;Node7</title>
<path fill="none" stroke="midnightblue" d="M90.5333,-112.154C94.131,-99.634 100.956,-76.0355 107,-56 109.662,-47.1767 112.692,-37.4058 115.25,-29.2295"/>
<polygon fill="midnightblue" stroke="midnightblue" points="118.613,-30.2026 118.272,-19.6133 111.935,-28.1042 118.613,-30.2026"/>
</g>
<!-- Node4&#45;&gt;Node5 -->
<g id="edge4" class="edge"><title>Node4&#45;&gt;Node5</title>
<path fill="none" stroke="midnightblue" d="M164.604,-56.324C174.456,-48.2631 189.351,-36.0765 201.215,-26.3695"/>
<polygon fill="midnightblue" stroke="midnightblue" points="203.68,-28.8752 209.203,-19.8339 199.247,-23.4575 203.68,-28.8752"/>
</g>
<!-- Node4&#45;&gt;Node6 -->
<g id="edge5" class="edge"><title>Node4&#45;&gt;Node6</title>
<path fill="none" stroke="midnightblue" d="M134.51,-56.4435C114.358,-47.5961 82.6771,-33.6875 59.6692,-23.5865"/>
<polygon fill="midnightblue" stroke="midnightblue" points="60.962,-20.3316 50.3985,-19.5164 58.148,-26.7411 60.962,-20.3316"/>
</g>
<!-- Node4&#45;&gt;Node7 -->
<g id="edge6" class="edge"><title>Node4&#45;&gt;Node7</title>
<path fill="none" stroke="midnightblue" d="M148.551,-56.083C143.986,-48.6127 137.332,-37.7244 131.707,-28.5199"/>
<polygon fill="midnightblue" stroke="midnightblue" points="134.549,-26.4588 126.348,-19.7511 128.576,-30.109 134.549,-26.4588"/>
</g>
</g>
</svg>
