<?xml version="1.0" encoding="UTF-8" standalone="no"?>
<!DOCTYPE svg PUBLIC "-//W3C//DTD SVG 1.1//EN"
 "http://www.w3.org/Graphics/SVG/1.1/DTD/svg11.dtd">
<!-- Generated by graphviz version 2.36.0 (20140111.2315)
 -->
<!-- Title: /home/travis/build/robotology/wb&#45;toolbox/toolbox/src/RemoteInverseKinematics.cpp Pages: 1 -->
<svg width="1748pt" height="162pt"
 viewBox="0.00 0.00 1748.00 162.00" xmlns="http://www.w3.org/2000/svg" xmlns:xlink="http://www.w3.org/1999/xlink">
<g id="graph0" class="graph" transform="scale(1 1) rotate(0) translate(4 158)">
<title>/home/travis/build/robotology/wb&#45;toolbox/toolbox/src/RemoteInverseKinematics.cpp</title>
<!-- Node1 -->
<g id="node1" class="node"><title>Node1</title>
<polygon fill="#bfbfbf" stroke="black" points="803.5,-112.5 803.5,-153.5 1008.5,-153.5 1008.5,-112.5 803.5,-112.5"/>
<text text-anchor="start" x="811.5" y="-141.5" font-family="Helvetica,sans-Serif" font-size="10.00">/home/travis/build</text>
<text text-anchor="start" x="811.5" y="-130.5" font-family="Helvetica,sans-Serif" font-size="10.00">/robotology/wb&#45;toolbox</text>
<text text-anchor="middle" x="906" y="-119.5" font-family="Helvetica,sans-Serif" font-size="10.00">/toolbox/src/RemoteInverseKinematics.cpp</text>
</g>
<!-- Node2 -->
<g id="node2" class="node"><title>Node2</title>
<g id="a_node2"><a xlink:href="_remote_inverse_kinematics_8h.html" target="_top" xlink:title="RemoteInverseKinematics.h">
<polygon fill="none" stroke="black" points="0,-56.5 0,-75.5 140,-75.5 140,-56.5 0,-56.5"/>
<text text-anchor="middle" x="70" y="-63.5" font-family="Helvetica,sans-Serif" font-size="10.00">RemoteInverseKinematics.h</text>
</a>
</g>
</g>
<!-- Node1&#45;&gt;Node2 -->
<g id="edge1" class="edge"><title>Node1&#45;&gt;Node2</title>
<path fill="none" stroke="midnightblue" d="M803.303,-124.813C660.373,-114.677 393.393,-95.2615 166,-76 160.918,-75.5695 155.685,-75.114 150.411,-74.6455"/>
<polygon fill="midnightblue" stroke="midnightblue" points="150.516,-71.141 140.243,-73.7318 149.89,-78.1129 150.516,-71.141"/>
</g>
<!-- Node4 -->
<g id="node4" class="node"><title>Node4</title>
<g id="a_node4"><a xlink:href="_block_information_8h.html" target="_top" xlink:title="BlockInformation.h">
<polygon fill="none" stroke="black" points="175,-56.5 175,-75.5 273,-75.5 273,-56.5 175,-56.5"/>
<text text-anchor="middle" x="224" y="-63.5" font-family="Helvetica,sans-Serif" font-size="10.00">BlockInformation.h</text>
</a>
</g>
</g>
<!-- Node1&#45;&gt;Node4 -->
<g id="edge3" class="edge"><title>Node1&#45;&gt;Node4</title>
<path fill="none" stroke="midnightblue" d="M803.371,-124.828C681.715,-115.864 472.643,-99.0083 283.168,-76.0704"/>
<polygon fill="midnightblue" stroke="midnightblue" points="283.367,-72.5688 273.017,-74.8333 282.52,-79.5174 283.367,-72.5688"/>
</g>
<!-- Node10 -->
<g id="node10" class="node"><title>Node10</title>
<polygon fill="none" stroke="#bfbfbf" points="291,-56.5 291,-75.5 337,-75.5 337,-56.5 291,-56.5"/>
<text text-anchor="middle" x="314" y="-63.5" font-family="Helvetica,sans-Serif" font-size="10.00">Error.h</text>
</g>
<!-- Node1&#45;&gt;Node10 -->
<g id="edge9" class="edge"><title>Node1&#45;&gt;Node10</title>
<path fill="none" stroke="midnightblue" d="M803.303,-127.114C692.72,-120.632 511.661,-106.487 347.589,-75.999"/>
<polygon fill="midnightblue" stroke="midnightblue" points="347.782,-72.4738 337.307,-74.0625 346.486,-79.3529 347.782,-72.4738"/>
</g>
<!-- Node11 -->
<g id="node11" class="node"><title>Node11</title>
<g id="a_node11"><a xlink:href="_signal_8h.html" target="_top" xlink:title="Signal.h">
<polygon fill="none" stroke="black" points="355,-56.5 355,-75.5 407,-75.5 407,-56.5 355,-56.5"/>
<text text-anchor="middle" x="381" y="-63.5" font-family="Helvetica,sans-Serif" font-size="10.00">Signal.h</text>
</a>
</g>
</g>
<!-- Node1&#45;&gt;Node11 -->
<g id="edge10" class="edge"><title>Node1&#45;&gt;Node11</title>
<path fill="none" stroke="midnightblue" d="M803.341,-124.18C706.325,-115.887 556.638,-100.759 417.275,-75.8009"/>
<polygon fill="midnightblue" stroke="midnightblue" points="417.723,-72.3253 407.26,-73.987 416.476,-79.2132 417.723,-72.3253"/>
</g>
<!-- Node12 -->
<g id="node12" class="node"><title>Node12</title>
<polygon fill="none" stroke="#bfbfbf" points="425.5,-56.5 425.5,-75.5 490.5,-75.5 490.5,-56.5 425.5,-56.5"/>
<text text-anchor="middle" x="458" y="-63.5" font-family="Helvetica,sans-Serif" font-size="10.00">Eigen/Core</text>
</g>
<!-- Node1&#45;&gt;Node12 -->
<g id="edge12" class="edge"><title>Node1&#45;&gt;Node12</title>
<path fill="none" stroke="midnightblue" d="M803.474,-119.99C723.6,-110.135 609.743,-95.0035 500.4,-75.9512"/>
<polygon fill="midnightblue" stroke="midnightblue" points="500.967,-72.4975 490.513,-74.2155 499.757,-79.392 500.967,-72.4975"/>
</g>
<!-- Node13 -->
<g id="node13" class="node"><title>Node13</title>
<polygon fill="none" stroke="#bfbfbf" points="508.5,-56.5 508.5,-75.5 601.5,-75.5 601.5,-56.5 508.5,-56.5"/>
<text text-anchor="middle" x="555" y="-63.5" font-family="Helvetica,sans-Serif" font-size="10.00">yarp/math/Math.h</text>
</g>
<!-- Node1&#45;&gt;Node13 -->
<g id="edge13" class="edge"><title>Node1&#45;&gt;Node13</title>
<path fill="none" stroke="midnightblue" d="M803.06,-112.937C740.288,-101.313 662.486,-86.9047 610.93,-77.3574"/>
<polygon fill="midnightblue" stroke="midnightblue" points="611.451,-73.8944 600.981,-75.515 610.176,-80.7774 611.451,-73.8944"/>
</g>
<!-- Node14 -->
<g id="node14" class="node"><title>Node14</title>
<polygon fill="none" stroke="#bfbfbf" points="620,-56.5 620,-75.5 706,-75.5 706,-56.5 620,-56.5"/>
<text text-anchor="middle" x="663" y="-63.5" font-family="Helvetica,sans-Serif" font-size="10.00">yarp/os/Bottle.h</text>
</g>
<!-- Node1&#45;&gt;Node14 -->
<g id="edge14" class="edge"><title>Node1&#45;&gt;Node14</title>
<path fill="none" stroke="midnightblue" d="M833.092,-112.498C791.23,-101.3 740.155,-87.6381 704.961,-78.2242"/>
<polygon fill="midnightblue" stroke="midnightblue" points="705.592,-74.7701 695.028,-75.5671 703.784,-81.5323 705.592,-74.7701"/>
</g>
<!-- Node15 -->
<g id="node15" class="node"><title>Node15</title>
<polygon fill="none" stroke="#bfbfbf" points="724.5,-56.5 724.5,-75.5 839.5,-75.5 839.5,-56.5 724.5,-56.5"/>
<text text-anchor="middle" x="782" y="-63.5" font-family="Helvetica,sans-Serif" font-size="10.00">yarp/os/BufferedPort.h</text>
</g>
<!-- Node1&#45;&gt;Node15 -->
<g id="edge15" class="edge"><title>Node1&#45;&gt;Node15</title>
<path fill="none" stroke="midnightblue" d="M868.796,-112.498C849.053,-102.149 825.294,-89.6946 807.629,-80.4346"/>
<polygon fill="midnightblue" stroke="midnightblue" points="808.988,-77.1954 798.506,-75.6525 805.738,-83.3952 808.988,-77.1954"/>
</g>
<!-- Node16 -->
<g id="node16" class="node"><title>Node16</title>
<polygon fill="none" stroke="#bfbfbf" points="857.5,-56.5 857.5,-75.5 954.5,-75.5 954.5,-56.5 857.5,-56.5"/>
<text text-anchor="middle" x="906" y="-63.5" font-family="Helvetica,sans-Serif" font-size="10.00">yarp/os/Network.h</text>
</g>
<!-- Node1&#45;&gt;Node16 -->
<g id="edge16" class="edge"><title>Node1&#45;&gt;Node16</title>
<path fill="none" stroke="midnightblue" d="M906,-112.498C906,-104.065 906,-94.2351 906,-85.874"/>
<polygon fill="midnightblue" stroke="midnightblue" points="909.5,-85.6525 906,-75.6525 902.5,-85.6525 909.5,-85.6525"/>
</g>
<!-- Node17 -->
<g id="node17" class="node"><title>Node17</title>
<polygon fill="none" stroke="#bfbfbf" points="973,-56.5 973,-75.5 1077,-75.5 1077,-56.5 973,-56.5"/>
<text text-anchor="middle" x="1025" y="-63.5" font-family="Helvetica,sans-Serif" font-size="10.00">yarp/os/RpcClient.h</text>
</g>
<!-- Node1&#45;&gt;Node17 -->
<g id="edge17" class="edge"><title>Node1&#45;&gt;Node17</title>
<path fill="none" stroke="midnightblue" d="M941.704,-112.498C960.475,-102.245 983.03,-89.925 999.932,-80.6927"/>
<polygon fill="midnightblue" stroke="midnightblue" points="1002.06,-83.5179 1009.16,-75.6525 998.705,-77.3746 1002.06,-83.5179"/>
</g>
<!-- Node18 -->
<g id="node18" class="node"><title>Node18</title>
<polygon fill="none" stroke="#bfbfbf" points="1095,-56.5 1095,-75.5 1185,-75.5 1185,-56.5 1095,-56.5"/>
<text text-anchor="middle" x="1140" y="-63.5" font-family="Helvetica,sans-Serif" font-size="10.00">yarp/os/Thread.h</text>
</g>
<!-- Node1&#45;&gt;Node18 -->
<g id="edge18" class="edge"><title>Node1&#45;&gt;Node18</title>
<path fill="none" stroke="midnightblue" d="M976.208,-112.498C1016.35,-101.348 1065.28,-87.7553 1099.16,-78.3457"/>
<polygon fill="midnightblue" stroke="midnightblue" points="1100.46,-81.6159 1109.16,-75.5671 1098.59,-74.8713 1100.46,-81.6159"/>
</g>
<!-- Node19 -->
<g id="node19" class="node"><title>Node19</title>
<polygon fill="none" stroke="#bfbfbf" points="1203,-56.5 1203,-75.5 1285,-75.5 1285,-56.5 1203,-56.5"/>
<text text-anchor="middle" x="1244" y="-63.5" font-family="Helvetica,sans-Serif" font-size="10.00">yarp/os/Time.h</text>
</g>
<!-- Node1&#45;&gt;Node19 -->
<g id="edge19" class="edge"><title>Node1&#45;&gt;Node19</title>
<path fill="none" stroke="midnightblue" d="M1007.41,-112.498C1068.59,-100.733 1143.92,-86.2466 1192.9,-76.8262"/>
<polygon fill="midnightblue" stroke="midnightblue" points="1193.78,-80.2212 1202.94,-74.8957 1192.46,-73.3472 1193.78,-80.2212"/>
</g>
<!-- Node20 -->
<g id="node20" class="node"><title>Node20</title>
<polygon fill="none" stroke="#bfbfbf" points="1303.5,-56.5 1303.5,-75.5 1392.5,-75.5 1392.5,-56.5 1303.5,-56.5"/>
<text text-anchor="middle" x="1348" y="-63.5" font-family="Helvetica,sans-Serif" font-size="10.00">yarp/sig/Matrix.h</text>
</g>
<!-- Node1&#45;&gt;Node20 -->
<g id="edge20" class="edge"><title>Node1&#45;&gt;Node20</title>
<path fill="none" stroke="midnightblue" d="M1008.61,-117.811C1084.44,-107.181 1190.46,-92.014 1293.28,-76.0839"/>
<polygon fill="midnightblue" stroke="midnightblue" points="1293.88,-79.5335 1303.22,-74.54 1292.8,-72.6164 1293.88,-79.5335"/>
</g>
<!-- Node21 -->
<g id="node21" class="node"><title>Node21</title>
<polygon fill="none" stroke="#bfbfbf" points="1410.5,-56.5 1410.5,-75.5 1501.5,-75.5 1501.5,-56.5 1410.5,-56.5"/>
<text text-anchor="middle" x="1456" y="-63.5" font-family="Helvetica,sans-Serif" font-size="10.00">yarp/sig/Vector.h</text>
</g>
<!-- Node1&#45;&gt;Node21 -->
<g id="edge21" class="edge"><title>Node1&#45;&gt;Node21</title>
<path fill="none" stroke="midnightblue" d="M1008.57,-121.893C1106.46,-111.904 1258.32,-95.5104 1400.21,-76.0458"/>
<polygon fill="midnightblue" stroke="midnightblue" points="1400.98,-79.4728 1410.41,-74.639 1400.02,-72.5384 1400.98,-79.4728"/>
</g>
<!-- Node22 -->
<g id="node22" class="node"><title>Node22</title>
<polygon fill="none" stroke="#bfbfbf" points="1520,-56.5 1520,-75.5 1564,-75.5 1564,-56.5 1520,-56.5"/>
<text text-anchor="middle" x="1542" y="-63.5" font-family="Helvetica,sans-Serif" font-size="10.00">cmath</text>
</g>
<!-- Node1&#45;&gt;Node22 -->
<g id="edge22" class="edge"><title>Node1&#45;&gt;Node22</title>
<path fill="none" stroke="midnightblue" d="M1008.57,-128.169C1127.18,-122.457 1328.23,-108.826 1509.74,-75.6679"/>
<polygon fill="midnightblue" stroke="midnightblue" points="1510.55,-79.0789 1519.74,-73.8177 1509.27,-72.1957 1510.55,-79.0789"/>
</g>
<!-- Node23 -->
<g id="node23" class="node"><title>Node23</title>
<polygon fill="none" stroke="#bfbfbf" points="1582.5,-56.5 1582.5,-75.5 1677.5,-75.5 1677.5,-56.5 1582.5,-56.5"/>
<text text-anchor="middle" x="1630" y="-63.5" font-family="Helvetica,sans-Serif" font-size="10.00">condition_variable</text>
</g>
<!-- Node1&#45;&gt;Node23 -->
<g id="edge23" class="edge"><title>Node1&#45;&gt;Node23</title>
<path fill="none" stroke="midnightblue" d="M1008.63,-125.611C1139.62,-116.942 1373.11,-99.763 1572,-76 1572.1,-75.9875 1572.21,-75.975 1572.31,-75.9625"/>
<polygon fill="midnightblue" stroke="midnightblue" points="1572.77,-79.4322 1582.24,-74.6818 1571.88,-72.4897 1572.77,-79.4322"/>
</g>
<!-- Node24 -->
<g id="node24" class="node"><title>Node24</title>
<polygon fill="none" stroke="#bfbfbf" points="1696,-56.5 1696,-75.5 1740,-75.5 1740,-56.5 1696,-56.5"/>
<text text-anchor="middle" x="1718" y="-63.5" font-family="Helvetica,sans-Serif" font-size="10.00">mutex</text>
</g>
<!-- Node1&#45;&gt;Node24 -->
<g id="edge24" class="edge"><title>Node1&#45;&gt;Node24</title>
<path fill="none" stroke="midnightblue" d="M1008.7,-131.225C1156.67,-128.641 1438.22,-118.239 1685.85,-75.6043"/>
<polygon fill="midnightblue" stroke="midnightblue" points="1686.5,-79.043 1695.75,-73.8782 1685.3,-72.1469 1686.5,-79.043"/>
</g>
<!-- Node3 -->
<g id="node3" class="node"><title>Node3</title>
<polygon fill="none" stroke="#bfbfbf" points="6.5,-0.5 6.5,-19.5 101.5,-19.5 101.5,-0.5 6.5,-0.5"/>
<text text-anchor="middle" x="54" y="-7.5" font-family="Helvetica,sans-Serif" font-size="10.00">WBIModelBlock.h</text>
</g>
<!-- Node2&#45;&gt;Node3 -->
<g id="edge2" class="edge"><title>Node2&#45;&gt;Node3</title>
<path fill="none" stroke="midnightblue" d="M67.3579,-56.083C65.2144,-48.8486 62.1211,-38.4087 59.4509,-29.3968"/>
<polygon fill="midnightblue" stroke="midnightblue" points="62.7897,-28.3447 56.5929,-19.7511 56.0781,-30.3334 62.7897,-28.3447"/>
</g>
<!-- Node5 -->
<g id="node5" class="node"><title>Node5</title>
<polygon fill="none" stroke="#bfbfbf" points="355,-0.5 355,-19.5 407,-19.5 407,-0.5 355,-0.5"/>
<text text-anchor="middle" x="381" y="-7.5" font-family="Helvetica,sans-Serif" font-size="10.00">memory</text>
</g>
<!-- Node4&#45;&gt;Node5 -->
<g id="edge4" class="edge"><title>Node4&#45;&gt;Node5</title>
<path fill="none" stroke="midnightblue" d="M248.877,-56.4435C275.289,-47.3591 317.215,-32.9388 346.742,-22.7831"/>
<polygon fill="midnightblue" stroke="midnightblue" points="347.921,-26.0787 356.239,-19.5164 345.645,-19.4593 347.921,-26.0787"/>
</g>
<!-- Node6 -->
<g id="node6" class="node"><title>Node6</title>
<polygon fill="none" stroke="#bfbfbf" points="119.5,-0.5 119.5,-19.5 160.5,-19.5 160.5,-0.5 119.5,-0.5"/>
<text text-anchor="middle" x="140" y="-7.5" font-family="Helvetica,sans-Serif" font-size="10.00">string</text>
</g>
<!-- Node4&#45;&gt;Node6 -->
<g id="edge5" class="edge"><title>Node4&#45;&gt;Node6</title>
<path fill="none" stroke="midnightblue" d="M210.504,-56.324C197.4,-47.9002 177.288,-34.9709 161.893,-25.0741"/>
<polygon fill="midnightblue" stroke="midnightblue" points="163.767,-22.118 153.463,-19.6545 159.982,-28.0063 163.767,-22.118"/>
</g>
<!-- Node7 -->
<g id="node7" class="node"><title>Node7</title>
<polygon fill="none" stroke="#bfbfbf" points="179,-0.5 179,-19.5 217,-19.5 217,-0.5 179,-0.5"/>
<text text-anchor="middle" x="198" y="-7.5" font-family="Helvetica,sans-Serif" font-size="10.00">tuple</text>
</g>
<!-- Node4&#45;&gt;Node7 -->
<g id="edge6" class="edge"><title>Node4&#45;&gt;Node7</title>
<path fill="none" stroke="midnightblue" d="M219.707,-56.083C216.148,-48.6913 210.978,-37.9533 206.576,-28.8111"/>
<polygon fill="midnightblue" stroke="midnightblue" points="209.705,-27.2427 202.213,-19.7511 203.398,-30.2795 209.705,-27.2427"/>
</g>
<!-- Node8 -->
<g id="node8" class="node"><title>Node8</title>
<polygon fill="none" stroke="#bfbfbf" points="235,-0.5 235,-19.5 275,-19.5 275,-0.5 235,-0.5"/>
<text text-anchor="middle" x="255" y="-7.5" font-family="Helvetica,sans-Serif" font-size="10.00">utility</text>
</g>
<!-- Node4&#45;&gt;Node8 -->
<g id="edge7" class="edge"><title>Node4&#45;&gt;Node8</title>
<path fill="none" stroke="midnightblue" d="M229.119,-56.083C233.408,-48.6127 239.658,-37.7244 244.942,-28.5199"/>
<polygon fill="midnightblue" stroke="midnightblue" points="248.033,-30.1662 249.976,-19.7511 241.962,-26.6811 248.033,-30.1662"/>
</g>
<!-- Node9 -->
<g id="node9" class="node"><title>Node9</title>
<polygon fill="none" stroke="#bfbfbf" points="293,-0.5 293,-19.5 337,-19.5 337,-0.5 293,-0.5"/>
<text text-anchor="middle" x="315" y="-7.5" font-family="Helvetica,sans-Serif" font-size="10.00">vector</text>
</g>
<!-- Node4&#45;&gt;Node9 -->
<g id="edge8" class="edge"><title>Node4&#45;&gt;Node9</title>
<path fill="none" stroke="midnightblue" d="M238.621,-56.324C252.949,-47.8215 275.013,-34.7288 291.749,-24.7975"/>
<polygon fill="midnightblue" stroke="midnightblue" points="293.602,-27.7677 300.416,-19.6545 290.03,-21.7478 293.602,-27.7677"/>
</g>
<!-- Node11&#45;&gt;Node5 -->
<g id="edge11" class="edge"><title>Node11&#45;&gt;Node5</title>
<path fill="none" stroke="midnightblue" d="M381,-56.083C381,-49.0059 381,-38.8611 381,-29.9865"/>
<polygon fill="midnightblue" stroke="midnightblue" points="384.5,-29.751 381,-19.7511 377.5,-29.7511 384.5,-29.751"/>
</g>
</g>
</svg>
