<?xml version="1.0" encoding="UTF-8" standalone="no"?>
<!DOCTYPE svg PUBLIC "-//W3C//DTD SVG 1.1//EN"
 "http://www.w3.org/Graphics/SVG/1.1/DTD/svg11.dtd">
<!-- Generated by graphviz version 2.36.0 (20140111.2315)
 -->
<!-- Title: /home/travis/build/robotology/wb&#45;toolbox/toolbox/library/src/RobotInterface.cpp Pages: 1 -->
<!--zoomable 174 -->
<svg id="main" version="1.1" xmlns="http://www.w3.org/2000/svg" xmlns:xlink="http://www.w3.org/1999/xlink" xml:space="preserve" onload="init(evt)">
<style type="text/css"><![CDATA[
.edge:hover path { stroke: red; }
.edge:hover polygon { stroke: red; fill: red; }
]]></style>
<script type="text/javascript"><![CDATA[
var edges = document.getElementsByTagName('g');
if (edges && edges.length) {
  for (var i=0;i<edges.length;i++) {
    if (edges[i].id.substr(0,4)=='edge') {
      edges[i].setAttribute('class','edge');
    }
  }
}
]]></script>
        <defs>
                <circle id="rim" cx="0" cy="0" r="7"/>
                <circle id="rim2" cx="0" cy="0" r="3.5"/>
                <g id="zoomPlus">
                        <use xlink:href="#rim" fill="#404040">
                                <set attributeName="fill" to="#808080" begin="zoomplus.mouseover" end="zoomplus.mouseout"/>
                        </use>
                        <path d="M-4,0h8M0,-4v8" fill="none" stroke="white" stroke-width="1.5" pointer-events="none"/>
                </g>
                <g id="zoomMin">
                        <use xlink:href="#rim" fill="#404040">
                                <set attributeName="fill" to="#808080" begin="zoomminus.mouseover" end="zoomminus.mouseout"/>
                        </use>
                        <path d="M-4,0h8" fill="none" stroke="white" stroke-width="1.5" pointer-events="none"/>
                </g>
                <g id="dirArrow">
                        <path fill="none" stroke="white" stroke-width="1.5" d="M0,-3.0v7 M-2.5,-0.5L0,-3.0L2.5,-0.5"/>
                </g>
               <g id="resetDef">
                       <use xlink:href="#rim2" fill="#404040">
                               <set attributeName="fill" to="#808080" begin="reset.mouseover" end="reset.mouseout"/>
                       </use>
               </g>
        </defs>

<script type="text/javascript">
var viewWidth = 2330;
var viewHeight = 174;
var sectionId = 'dynsection-0';
</script>
<script xlink:href="svgpan.js"/>
<svg id="graph" class="graph">
<g id="viewport">
<title>/home/travis/build/robotology/wb&#45;toolbox/toolbox/library/src/RobotInterface.cpp</title>
<!-- Node1 -->
<g id="node1" class="node"><title>Node1</title>
<polygon fill="#bfbfbf" stroke="black" points="1081.5,-124.5 1081.5,-165.5 1264.5,-165.5 1264.5,-124.5 1081.5,-124.5"/>
<text text-anchor="start" x="1089.5" y="-153.5" font-family="Helvetica,sans-Serif" font-size="10.00">/home/travis/build</text>
<text text-anchor="start" x="1089.5" y="-142.5" font-family="Helvetica,sans-Serif" font-size="10.00">/robotology/wb&#45;toolbox</text>
<text text-anchor="middle" x="1173" y="-131.5" font-family="Helvetica,sans-Serif" font-size="10.00">/toolbox/library/src/RobotInterface.cpp</text>
</g>
<!-- Node2 -->
<g id="node2" class="node"><title>Node2</title>
<g id="a_node2"><a xlink:href="_robot_interface_8h.html" target="_top" xlink:title="Base/RobotInterface.h">
<polygon fill="none" stroke="black" points="253.5,-62.5 253.5,-81.5 368.5,-81.5 368.5,-62.5 253.5,-62.5"/>
<text text-anchor="middle" x="311" y="-69.5" font-family="Helvetica,sans-Serif" font-size="10.00">Base/RobotInterface.h</text>
</a>
</g>
</g>
<!-- Node1&#45;&gt;Node2 -->
<g id="edge1" class="edge"><title>Node1&#45;&gt;Node2</title>
<path fill="none" stroke="midnightblue" d="M1081.35,-141.506C933.693,-136.592 634.267,-122.918 383,-88 374.546,-86.8252 365.599,-85.2413 356.991,-83.5419"/>
<polygon fill="midnightblue" stroke="midnightblue" points="357.592,-80.0924 347.093,-81.5116 356.186,-86.9497 357.592,-80.0924"/>
</g>
<!-- Node6 -->
<g id="node6" class="node"><title>Node6</title>
<polygon fill="none" stroke="#bfbfbf" points="425,-0.5 425,-19.5 465,-19.5 465,-0.5 425,-0.5"/>
<text text-anchor="middle" x="445" y="-7.5" font-family="Helvetica,sans-Serif" font-size="10.00">utility</text>
</g>
<!-- Node1&#45;&gt;Node6 -->
<g id="edge31" class="edge"><title>Node1&#45;&gt;Node6</title>
<path fill="none" stroke="midnightblue" d="M1081.19,-143.177C897.713,-140.632 499.475,-130.249 455,-88 439.534,-73.3075 439.367,-47.356 441.496,-29.6797"/>
<polygon fill="midnightblue" stroke="midnightblue" points="444.971,-30.107 443.044,-19.6889 438.054,-29.0348 444.971,-30.107"/>
</g>
<!-- Node7 -->
<g id="node7" class="node"><title>Node7</title>
<g id="a_node7"><a xlink:href="_configuration_8h.html" target="_top" xlink:title="Base/Configuration.h">
<polygon fill="none" stroke="black" points="44,-62.5 44,-81.5 152,-81.5 152,-62.5 44,-62.5"/>
<text text-anchor="middle" x="98" y="-69.5" font-family="Helvetica,sans-Serif" font-size="10.00">Base/Configuration.h</text>
</a>
</g>
</g>
<!-- Node1&#45;&gt;Node7 -->
<g id="edge6" class="edge"><title>Node1&#45;&gt;Node7</title>
<path fill="none" stroke="midnightblue" d="M1081.4,-144.383C903.176,-143.927 497.722,-137.002 161,-88 153.733,-86.9425 146.074,-85.4483 138.695,-83.8089"/>
<polygon fill="midnightblue" stroke="midnightblue" points="139.404,-80.3805 128.87,-81.511 137.81,-87.1965 139.404,-80.3805"/>
</g>
<!-- Node9 -->
<g id="node9" class="node"><title>Node9</title>
<polygon fill="none" stroke="#bfbfbf" points="0,-0.5 0,-19.5 44,-19.5 44,-0.5 0,-0.5"/>
<text text-anchor="middle" x="22" y="-7.5" font-family="Helvetica,sans-Serif" font-size="10.00">vector</text>
</g>
<!-- Node1&#45;&gt;Node9 -->
<g id="edge32" class="edge"><title>Node1&#45;&gt;Node9</title>
<path fill="none" stroke="midnightblue" d="M1081.15,-142.59C817.373,-138.132 73.8882,-122.547 35,-88 18.9608,-73.7511 17.7836,-47.6948 19.2232,-29.8737"/>
<polygon fill="midnightblue" stroke="midnightblue" points="22.7174,-30.1241 20.3825,-19.7898 15.7632,-29.3246 22.7174,-30.1241"/>
</g>
<!-- Node10 -->
<g id="node10" class="node"><title>Node10</title>
<g id="a_node10"><a xlink:href="_log_8h.html" target="_top" xlink:title="Core/Log.h">
<polygon fill="none" stroke="black" points="170.5,-62.5 170.5,-81.5 235.5,-81.5 235.5,-62.5 170.5,-62.5"/>
<text text-anchor="middle" x="203" y="-69.5" font-family="Helvetica,sans-Serif" font-size="10.00">Core/Log.h</text>
</a>
</g>
</g>
<!-- Node1&#45;&gt;Node10 -->
<g id="edge11" class="edge"><title>Node1&#45;&gt;Node10</title>
<path fill="none" stroke="midnightblue" d="M1081.42,-141.856C879.622,-136.583 402.08,-120.945 244,-88 240.104,-87.1881 236.082,-86.0784 232.149,-84.8271"/>
<polygon fill="midnightblue" stroke="midnightblue" points="233.275,-81.5128 222.68,-81.5142 230.963,-88.1201 233.275,-81.5128"/>
</g>
<!-- Node11 -->
<g id="node11" class="node"><title>Node11</title>
<polygon fill="none" stroke="#bfbfbf" points="355,-0.5 355,-19.5 407,-19.5 407,-0.5 355,-0.5"/>
<text text-anchor="middle" x="381" y="-7.5" font-family="Helvetica,sans-Serif" font-size="10.00">sstream</text>
</g>
<!-- Node1&#45;&gt;Node11 -->
<g id="edge29" class="edge"><title>Node1&#45;&gt;Node11</title>
<path fill="none" stroke="midnightblue" d="M1081.47,-141.314C896.702,-135.274 492.008,-118.695 437,-88 413.482,-74.8768 397.216,-47.2683 388.498,-28.9283"/>
<polygon fill="midnightblue" stroke="midnightblue" points="391.61,-27.3145 384.336,-19.612 385.219,-30.17 391.61,-27.3145"/>
</g>
<!-- Node12 -->
<g id="node12" class="node"><title>Node12</title>
<polygon fill="none" stroke="#bfbfbf" points="463.5,-62.5 463.5,-81.5 624.5,-81.5 624.5,-62.5 463.5,-62.5"/>
<text text-anchor="middle" x="544" y="-69.5" font-family="Helvetica,sans-Serif" font-size="10.00">iDynTree/KinDynComputations.h</text>
</g>
<!-- Node1&#45;&gt;Node12 -->
<g id="edge15" class="edge"><title>Node1&#45;&gt;Node12</title>
<path fill="none" stroke="midnightblue" d="M1081.24,-136.202C973.811,-126.671 790.631,-109.169 634,-88 623.65,-86.6013 612.662,-84.9281 602.051,-83.2146"/>
<polygon fill="midnightblue" stroke="midnightblue" points="602.461,-79.7351 592.026,-81.5671 601.326,-86.6425 602.461,-79.7351"/>
</g>
<!-- Node13 -->
<g id="node13" class="node"><title>Node13</title>
<polygon fill="none" stroke="#bfbfbf" points="642.5,-57 642.5,-87 785.5,-87 785.5,-57 642.5,-57"/>
<text text-anchor="start" x="650.5" y="-75" font-family="Helvetica,sans-Serif" font-size="10.00">iDynTree/Model/FreeFloating</text>
<text text-anchor="middle" x="714" y="-64" font-family="Helvetica,sans-Serif" font-size="10.00">Matrices.h</text>
</g>
<!-- Node1&#45;&gt;Node13 -->
<g id="edge16" class="edge"><title>Node1&#45;&gt;Node13</title>
<path fill="none" stroke="midnightblue" d="M1081.2,-131.343C1006.95,-120.888 899.473,-105.259 795.572,-88.0598"/>
<polygon fill="midnightblue" stroke="midnightblue" points="795.968,-84.5777 785.529,-86.3906 794.82,-91.483 795.968,-84.5777"/>
</g>
<!-- Node14 -->
<g id="node14" class="node"><title>Node14</title>
<polygon fill="none" stroke="#bfbfbf" points="804,-62.5 804,-81.5 932,-81.5 932,-62.5 804,-62.5"/>
<text text-anchor="middle" x="868" y="-69.5" font-family="Helvetica,sans-Serif" font-size="10.00">iDynTree/Model/Indices.h</text>
</g>
<!-- Node1&#45;&gt;Node14 -->
<g id="edge17" class="edge"><title>Node1&#45;&gt;Node14</title>
<path fill="none" stroke="midnightblue" d="M1088.85,-124.411C1032.62,-111.322 960.766,-94.5948 914.559,-83.8384"/>
<polygon fill="midnightblue" stroke="midnightblue" points="915.066,-80.3629 904.533,-81.5045 913.479,-87.1806 915.066,-80.3629"/>
</g>
<!-- Node15 -->
<g id="node15" class="node"><title>Node15</title>
<polygon fill="none" stroke="#bfbfbf" points="950.5,-62.5 950.5,-81.5 1073.5,-81.5 1073.5,-62.5 950.5,-62.5"/>
<text text-anchor="middle" x="1012" y="-69.5" font-family="Helvetica,sans-Serif" font-size="10.00">iDynTree/Model/Model.h</text>
</g>
<!-- Node1&#45;&gt;Node15 -->
<g id="edge18" class="edge"><title>Node1&#45;&gt;Node15</title>
<path fill="none" stroke="midnightblue" d="M1128.58,-124.411C1100.6,-112.073 1065.29,-96.5024 1040.91,-85.7471"/>
<polygon fill="midnightblue" stroke="midnightblue" points="1042.06,-82.4295 1031.49,-81.5968 1039.23,-88.8343 1042.06,-82.4295"/>
</g>
<!-- Node16 -->
<g id="node16" class="node"><title>Node16</title>
<polygon fill="none" stroke="#bfbfbf" points="1091.5,-62.5 1091.5,-81.5 1254.5,-81.5 1254.5,-62.5 1091.5,-62.5"/>
<text text-anchor="middle" x="1173" y="-69.5" font-family="Helvetica,sans-Serif" font-size="10.00">iDynTree/ModelIO/ModelLoader.h</text>
</g>
<!-- Node1&#45;&gt;Node16 -->
<g id="edge19" class="edge"><title>Node1&#45;&gt;Node16</title>
<path fill="none" stroke="midnightblue" d="M1173,-124.223C1173,-114.086 1173,-101.807 1173,-91.8125"/>
<polygon fill="midnightblue" stroke="midnightblue" points="1176.5,-91.7349 1173,-81.7349 1169.5,-91.7349 1176.5,-91.7349"/>
</g>
<!-- Node17 -->
<g id="node17" class="node"><title>Node17</title>
<polygon fill="none" stroke="#bfbfbf" points="1273,-62.5 1273,-81.5 1439,-81.5 1439,-62.5 1273,-62.5"/>
<text text-anchor="middle" x="1356" y="-69.5" font-family="Helvetica,sans-Serif" font-size="10.00">yarp/dev/ControlBoardInterfaces.h</text>
</g>
<!-- Node1&#45;&gt;Node17 -->
<g id="edge20" class="edge"><title>Node1&#45;&gt;Node17</title>
<path fill="none" stroke="midnightblue" d="M1223.49,-124.411C1255.71,-111.909 1296.5,-96.0866 1324.25,-85.3195"/>
<polygon fill="midnightblue" stroke="midnightblue" points="1325.79,-88.477 1333.84,-81.5968 1323.25,-81.951 1325.79,-88.477"/>
</g>
<!-- Node18 -->
<g id="node18" class="node"><title>Node18</title>
<polygon fill="none" stroke="#bfbfbf" points="1457.5,-62.5 1457.5,-81.5 1568.5,-81.5 1568.5,-62.5 1457.5,-62.5"/>
<text text-anchor="middle" x="1513" y="-69.5" font-family="Helvetica,sans-Serif" font-size="10.00">yarp/dev/PolyDriver.h</text>
</g>
<!-- Node1&#45;&gt;Node18 -->
<g id="edge21" class="edge"><title>Node1&#45;&gt;Node18</title>
<path fill="none" stroke="midnightblue" d="M1264.79,-125.926C1318.31,-115.235 1387.06,-101.235 1448,-88 1454.09,-86.6774 1460.49,-85.2481 1466.81,-83.8153"/>
<polygon fill="midnightblue" stroke="midnightblue" points="1467.63,-87.2175 1476.6,-81.5758 1466.07,-80.3937 1467.63,-87.2175"/>
</g>
<!-- Node19 -->
<g id="node19" class="node"><title>Node19</title>
<polygon fill="none" stroke="#bfbfbf" points="1587,-62.5 1587,-81.5 1673,-81.5 1673,-62.5 1587,-62.5"/>
<text text-anchor="middle" x="1630" y="-69.5" font-family="Helvetica,sans-Serif" font-size="10.00">yarp/os/Bottle.h</text>
</g>
<!-- Node1&#45;&gt;Node19 -->
<g id="edge22" class="edge"><title>Node1&#45;&gt;Node19</title>
<path fill="none" stroke="midnightblue" d="M1264.68,-134.945C1346.97,-125.952 1470.8,-110.278 1577,-88 1582.13,-86.9233 1587.5,-85.6195 1592.76,-84.2353"/>
<polygon fill="midnightblue" stroke="midnightblue" points="1593.96,-87.5373 1602.67,-81.5129 1592.1,-80.7874 1593.96,-87.5373"/>
</g>
<!-- Node20 -->
<g id="node20" class="node"><title>Node20</title>
<polygon fill="none" stroke="#bfbfbf" points="1691.5,-62.5 1691.5,-81.5 1788.5,-81.5 1788.5,-62.5 1691.5,-62.5"/>
<text text-anchor="middle" x="1740" y="-69.5" font-family="Helvetica,sans-Serif" font-size="10.00">yarp/os/Network.h</text>
</g>
<!-- Node1&#45;&gt;Node20 -->
<g id="edge23" class="edge"><title>Node1&#45;&gt;Node20</title>
<path fill="none" stroke="midnightblue" d="M1264.6,-137.9C1366.95,-130.164 1537.28,-114.533 1682,-88 1687.96,-86.9066 1694.22,-85.5333 1700.32,-84.0643"/>
<polygon fill="midnightblue" stroke="midnightblue" points="1701.53,-87.3689 1710.38,-81.5342 1699.83,-80.5805 1701.53,-87.3689"/>
</g>
<!-- Node21 -->
<g id="node21" class="node"><title>Node21</title>
<polygon fill="none" stroke="#bfbfbf" points="1806.5,-62.5 1806.5,-81.5 1903.5,-81.5 1903.5,-62.5 1806.5,-62.5"/>
<text text-anchor="middle" x="1855" y="-69.5" font-family="Helvetica,sans-Serif" font-size="10.00">yarp/os/Property.h</text>
</g>
<!-- Node1&#45;&gt;Node21 -->
<g id="edge24" class="edge"><title>Node1&#45;&gt;Node21</title>
<path fill="none" stroke="midnightblue" d="M1264.55,-140.473C1386.71,-134.7 1609.44,-120.445 1797,-88 1803.19,-86.9296 1809.68,-85.5299 1816,-84.0155"/>
<polygon fill="midnightblue" stroke="midnightblue" points="1816.85,-87.4087 1825.7,-81.5725 1815.14,-80.6206 1816.85,-87.4087"/>
</g>
<!-- Node22 -->
<g id="node22" class="node"><title>Node22</title>
<polygon fill="none" stroke="#bfbfbf" points="1921.5,-62.5 1921.5,-81.5 2050.5,-81.5 2050.5,-62.5 1921.5,-62.5"/>
<text text-anchor="middle" x="1986" y="-69.5" font-family="Helvetica,sans-Serif" font-size="10.00">yarp/os/ResourceFinder.h</text>
</g>
<!-- Node1&#45;&gt;Node22 -->
<g id="edge25" class="edge"><title>Node1&#45;&gt;Node22</title>
<path fill="none" stroke="midnightblue" d="M1264.69,-140.72C1404.77,-134.882 1680.21,-120.148 1912,-88 1920.59,-86.8092 1929.67,-85.2328 1938.43,-83.5494"/>
<polygon fill="midnightblue" stroke="midnightblue" points="1939.39,-86.9279 1948.51,-81.5408 1938.02,-80.0629 1939.39,-86.9279"/>
</g>
<!-- Node23 -->
<g id="node23" class="node"><title>Node23</title>
<polygon fill="none" stroke="#bfbfbf" points="2068.5,-62.5 2068.5,-81.5 2117.5,-81.5 2117.5,-62.5 2068.5,-62.5"/>
<text text-anchor="middle" x="2093" y="-69.5" font-family="Helvetica,sans-Serif" font-size="10.00">cassert</text>
</g>
<!-- Node1&#45;&gt;Node23 -->
<g id="edge26" class="edge"><title>Node1&#45;&gt;Node23</title>
<path fill="none" stroke="midnightblue" d="M1264.52,-142.281C1459.55,-137.957 1910.39,-124.258 2059,-88 2061.82,-87.3118 2064.7,-86.4021 2067.53,-85.37"/>
<polygon fill="midnightblue" stroke="midnightblue" points="2068.91,-88.5891 2076.81,-81.5335 2066.23,-82.1202 2068.91,-88.5891"/>
</g>
<!-- Node24 -->
<g id="node24" class="node"><title>Node24</title>
<polygon fill="none" stroke="#bfbfbf" points="2136,-62.5 2136,-81.5 2182,-81.5 2182,-62.5 2136,-62.5"/>
<text text-anchor="middle" x="2159" y="-69.5" font-family="Helvetica,sans-Serif" font-size="10.00">chrono</text>
</g>
<!-- Node1&#45;&gt;Node24 -->
<g id="edge27" class="edge"><title>Node1&#45;&gt;Node24</title>
<path fill="none" stroke="midnightblue" d="M1264.83,-142.88C1470.88,-139.676 1964.62,-127.949 2126,-88 2128.66,-87.3422 2131.36,-86.4748 2134.03,-85.4882"/>
<polygon fill="midnightblue" stroke="midnightblue" points="2135.47,-88.6773 2143.31,-81.5527 2132.74,-82.2322 2135.47,-88.6773"/>
</g>
<!-- Node25 -->
<g id="node25" class="node"><title>Node25</title>
<polygon fill="none" stroke="#bfbfbf" points="2200.5,-62.5 2200.5,-81.5 2259.5,-81.5 2259.5,-62.5 2200.5,-62.5"/>
<text text-anchor="middle" x="2230" y="-69.5" font-family="Helvetica,sans-Serif" font-size="10.00">functional</text>
</g>
<!-- Node1&#45;&gt;Node25 -->
<g id="edge28" class="edge"><title>Node1&#45;&gt;Node25</title>
<path fill="none" stroke="midnightblue" d="M1264.84,-142.604C1480.79,-138.732 2015.76,-125.546 2191,-88 2194.51,-87.2477 2198.12,-86.2255 2201.66,-85.0659"/>
<polygon fill="midnightblue" stroke="midnightblue" points="2203.12,-88.2589 2211.32,-81.5441 2200.73,-81.6827 2203.12,-88.2589"/>
</g>
<!-- Node26 -->
<g id="node26" class="node"><title>Node26</title>
<polygon fill="none" stroke="#bfbfbf" points="2278,-62.5 2278,-81.5 2322,-81.5 2322,-62.5 2278,-62.5"/>
<text text-anchor="middle" x="2300" y="-69.5" font-family="Helvetica,sans-Serif" font-size="10.00">thread</text>
</g>
<!-- Node1&#45;&gt;Node26 -->
<g id="edge30" class="edge"><title>Node1&#45;&gt;Node26</title>
<path fill="none" stroke="midnightblue" d="M1264.77,-143.84C1492.56,-142.717 2079.05,-135.185 2268,-88 2270.5,-87.3756 2273.04,-86.5524 2275.54,-85.6124"/>
<polygon fill="midnightblue" stroke="midnightblue" points="2277.04,-88.7761 2284.82,-81.5815 2274.26,-82.3556 2277.04,-88.7761"/>
</g>
<!-- Node3 -->
<g id="node3" class="node"><title>Node3</title>
<polygon fill="none" stroke="#bfbfbf" points="124,-0.5 124,-19.5 176,-19.5 176,-0.5 124,-0.5"/>
<text text-anchor="middle" x="150" y="-7.5" font-family="Helvetica,sans-Serif" font-size="10.00">memory</text>
</g>
<!-- Node2&#45;&gt;Node3 -->
<g id="edge2" class="edge"><title>Node2&#45;&gt;Node3</title>
<path fill="none" stroke="midnightblue" d="M287.933,-62.4035C260.315,-52.1113 213.88,-34.8064 182.604,-23.1504"/>
<polygon fill="midnightblue" stroke="midnightblue" points="183.617,-19.7931 173.025,-19.5806 181.173,-26.3524 183.617,-19.7931"/>
</g>
<!-- Node4 -->
<g id="node4" class="node"><title>Node4</title>
<polygon fill="none" stroke="#bfbfbf" points="194.5,-0.5 194.5,-19.5 235.5,-19.5 235.5,-0.5 194.5,-0.5"/>
<text text-anchor="middle" x="215" y="-7.5" font-family="Helvetica,sans-Serif" font-size="10.00">string</text>
</g>
<!-- Node2&#45;&gt;Node4 -->
<g id="edge3" class="edge"><title>Node2&#45;&gt;Node4</title>
<path fill="none" stroke="midnightblue" d="M297.246,-62.4035C281.634,-52.646 255.937,-36.5854 237.417,-25.0109"/>
<polygon fill="midnightblue" stroke="midnightblue" points="239.064,-21.9126 228.729,-19.5806 235.354,-27.8486 239.064,-21.9126"/>
</g>
<!-- Node5 -->
<g id="node5" class="node"><title>Node5</title>
<polygon fill="none" stroke="#bfbfbf" points="253.5,-0.5 253.5,-19.5 336.5,-19.5 336.5,-0.5 253.5,-0.5"/>
<text text-anchor="middle" x="295" y="-7.5" font-family="Helvetica,sans-Serif" font-size="10.00">unordered_map</text>
</g>
<!-- Node2&#45;&gt;Node5 -->
<g id="edge4" class="edge"><title>Node2&#45;&gt;Node5</title>
<path fill="none" stroke="midnightblue" d="M308.708,-62.4035C306.426,-53.849 302.853,-40.4497 299.927,-29.4762"/>
<polygon fill="midnightblue" stroke="midnightblue" points="303.247,-28.3411 297.288,-19.5806 296.483,-30.1448 303.247,-28.3411"/>
</g>
<!-- Node2&#45;&gt;Node6 -->
<g id="edge5" class="edge"><title>Node2&#45;&gt;Node6</title>
<path fill="none" stroke="midnightblue" d="M330.199,-62.4035C352.787,-52.2896 390.499,-35.4036 416.501,-23.761"/>
<polygon fill="midnightblue" stroke="midnightblue" points="418.14,-26.8617 425.837,-19.5806 415.279,-20.4729 418.14,-26.8617"/>
</g>
<!-- Node7&#45;&gt;Node3 -->
<g id="edge8" class="edge"><title>Node7&#45;&gt;Node3</title>
<path fill="none" stroke="midnightblue" d="M105.45,-62.4035C113.328,-53.3143 125.945,-38.7559 135.744,-27.4489"/>
<polygon fill="midnightblue" stroke="midnightblue" points="138.659,-29.4298 142.563,-19.5806 133.369,-24.8452 138.659,-29.4298"/>
</g>
<!-- Node7&#45;&gt;Node4 -->
<g id="edge9" class="edge"><title>Node7&#45;&gt;Node4</title>
<path fill="none" stroke="midnightblue" d="M114.763,-62.4035C134.225,-52.4232 166.545,-35.8487 189.211,-24.2253"/>
<polygon fill="midnightblue" stroke="midnightblue" points="190.967,-27.2582 198.268,-19.5806 187.773,-21.0294 190.967,-27.2582"/>
</g>
<!-- Node8 -->
<g id="node8" class="node"><title>Node8</title>
<polygon fill="none" stroke="#bfbfbf" points="68,-0.5 68,-19.5 106,-19.5 106,-0.5 68,-0.5"/>
<text text-anchor="middle" x="87" y="-7.5" font-family="Helvetica,sans-Serif" font-size="10.00">array</text>
</g>
<!-- Node7&#45;&gt;Node8 -->
<g id="edge7" class="edge"><title>Node7&#45;&gt;Node8</title>
<path fill="none" stroke="midnightblue" d="M96.424,-62.4035C94.8556,-53.849 92.3991,-40.4497 90.3873,-29.4762"/>
<polygon fill="midnightblue" stroke="midnightblue" points="93.8191,-28.7855 88.5731,-19.5806 86.9338,-30.0478 93.8191,-28.7855"/>
</g>
<!-- Node7&#45;&gt;Node9 -->
<g id="edge10" class="edge"><title>Node7&#45;&gt;Node9</title>
<path fill="none" stroke="midnightblue" d="M87.1111,-62.4035C75.0338,-52.8688 55.3329,-37.3154 40.76,-25.8106"/>
<polygon fill="midnightblue" stroke="midnightblue" points="42.8864,-23.03 32.8687,-19.5806 38.5488,-28.5242 42.8864,-23.03"/>
</g>
<!-- Node10&#45;&gt;Node3 -->
<g id="edge12" class="edge"><title>Node10&#45;&gt;Node3</title>
<path fill="none" stroke="midnightblue" d="M195.406,-62.4035C187.299,-53.2252 174.265,-38.4699 164.237,-27.1173"/>
<polygon fill="midnightblue" stroke="midnightblue" points="166.823,-24.7582 157.58,-19.5806 161.577,-29.3925 166.823,-24.7582"/>
</g>
<!-- Node10&#45;&gt;Node4 -->
<g id="edge14" class="edge"><title>Node10&#45;&gt;Node4</title>
<path fill="none" stroke="midnightblue" d="M204.719,-62.4035C206.43,-53.849 209.11,-40.4497 211.305,-29.4762"/>
<polygon fill="midnightblue" stroke="midnightblue" points="214.755,-30.0728 213.284,-19.5806 207.891,-28.7 214.755,-30.0728"/>
</g>
<!-- Node10&#45;&gt;Node11 -->
<g id="edge13" class="edge"><title>Node10&#45;&gt;Node11</title>
<path fill="none" stroke="midnightblue" d="M225.937,-62.4553C231.812,-60.3091 238.128,-58.0378 244,-56 278.229,-44.1206 317.543,-31.2906 345.252,-22.3816"/>
<polygon fill="midnightblue" stroke="midnightblue" points="346.451,-25.6727 354.904,-19.2858 344.313,-19.0071 346.451,-25.6727"/>
</g>
</g>
</svg>
        <g id="navigator" transform="translate(0 0)" fill="#404254">
                <rect fill="#f2f5e9" fill-opacity="0.5" stroke="#606060" stroke-width=".5" x="0" y="0" width="60" height="60"/>
                <use id="zoomplus" xlink:href="#zoomPlus" x="17" y="9" onmousedown="handleZoom(evt,'in')"/>
                <use id="zoomminus" xlink:href="#zoomMin" x="42" y="9" onmousedown="handleZoom(evt,'out')"/>
                <use id="reset" xlink:href="#resetDef" x="30" y="36" onmousedown="handleReset()"/>
                <g id="arrowUp" xlink:href="#dirArrow" transform="translate(30 24)" onmousedown="handlePan(0,-1)">
                  <use xlink:href="#rim" fill="#404040">
                        <set attributeName="fill" to="#808080" begin="arrowUp.mouseover" end="arrowUp.mouseout"/>
                  </use>
                  <path fill="none" stroke="white" stroke-width="1.5" d="M0,-3.0v7 M-2.5,-0.5L0,-3.0L2.5,-0.5"/>
                </g>
                <g id="arrowRight" xlink:href="#dirArrow" transform="rotate(90) translate(36 -43)" onmousedown="handlePan(1,0)">
                  <use xlink:href="#rim" fill="#404040">
                        <set attributeName="fill" to="#808080" begin="arrowRight.mouseover" end="arrowRight.mouseout"/>
                  </use>
                  <path fill="none" stroke="white" stroke-width="1.5" d="M0,-3.0v7 M-2.5,-0.5L0,-3.0L2.5,-0.5"/>
                </g>
                <g id="arrowDown" xlink:href="#dirArrow" transform="rotate(180) translate(-30 -48)" onmousedown="handlePan(0,1)">
                  <use xlink:href="#rim" fill="#404040">
                        <set attributeName="fill" to="#808080" begin="arrowDown.mouseover" end="arrowDown.mouseout"/>
                  </use>
                  <path fill="none" stroke="white" stroke-width="1.5" d="M0,-3.0v7 M-2.5,-0.5L0,-3.0L2.5,-0.5"/>
                </g>
                <g id="arrowLeft" xlink:href="#dirArrow" transform="rotate(270) translate(-36 17)" onmousedown="handlePan(-1,0)">
                  <use xlink:href="#rim" fill="#404040">
                        <set attributeName="fill" to="#808080" begin="arrowLeft.mouseover" end="arrowLeft.mouseout"/>
                  </use>
                  <path fill="none" stroke="white" stroke-width="1.5" d="M0,-3.0v7 M-2.5,-0.5L0,-3.0L2.5,-0.5"/>
                </g>
        </g>
        <svg viewBox="0 0 15 15" width="100%" height="30px" preserveAspectRatio="xMaxYMin meet">
         <g id="arrow_out" transform="scale(0.3 0.3)">
          <a xlink:href="_robot_interface_8cpp__incl_org.svg" target="_base">
           <rect id="button" ry="5" rx="5" y="6" x="6" height="38" width="38"
                fill="#f2f5e9" fill-opacity="0.5" stroke="#606060" stroke-width="1.0"/>
           <path id="arrow"
             d="M 11.500037,31.436501 C 11.940474,20.09759 22.043105,11.32322 32.158766,21.979434 L 37.068811,17.246167 C 37.068811,17.246167 37.088388,32 37.088388,32 L 22.160133,31.978069 C 22.160133,31.978069 26.997745,27.140456 26.997745,27.140456 C 18.528582,18.264221 13.291696,25.230495 11.500037,31.436501 z"
             style="fill:#404040;"/>
          </a>
         </g>
        </svg>
</svg>
