<?xml version="1.0" encoding="UTF-8" standalone="no"?>
<!DOCTYPE svg PUBLIC "-//W3C//DTD SVG 1.1//EN"
 "http://www.w3.org/Graphics/SVG/1.1/DTD/svg11.dtd">
<!-- Generated by graphviz version 2.36.0 (20140111.2315)
 -->
<!-- Title: /home/travis/build/robotology/wb&#45;toolbox/toolbox/src/base/RobotInterface.cpp Pages: 1 -->
<!--zoomable 174 -->
<svg id="main" version="1.1" xmlns="http://www.w3.org/2000/svg" xmlns:xlink="http://www.w3.org/1999/xlink" xml:space="preserve" onload="init(evt)">
<style type="text/css"><![CDATA[
.edge:hover path { stroke: red; }
.edge:hover polygon { stroke: red; fill: red; }
]]></style>
<script type="text/javascript"><![CDATA[
var edges = document.getElementsByTagName('g');
if (edges && edges.length) {
  for (var i=0;i<edges.length;i++) {
    if (edges[i].id.substr(0,4)=='edge') {
      edges[i].setAttribute('class','edge');
    }
  }
}
]]></script>
        <defs>
                <circle id="rim" cx="0" cy="0" r="7"/>
                <circle id="rim2" cx="0" cy="0" r="3.5"/>
                <g id="zoomPlus">
                        <use xlink:href="#rim" fill="#404040">
                                <set attributeName="fill" to="#808080" begin="zoomplus.mouseover" end="zoomplus.mouseout"/>
                        </use>
                        <path d="M-4,0h8M0,-4v8" fill="none" stroke="white" stroke-width="1.5" pointer-events="none"/>
                </g>
                <g id="zoomMin">
                        <use xlink:href="#rim" fill="#404040">
                                <set attributeName="fill" to="#808080" begin="zoomminus.mouseover" end="zoomminus.mouseout"/>
                        </use>
                        <path d="M-4,0h8" fill="none" stroke="white" stroke-width="1.5" pointer-events="none"/>
                </g>
                <g id="dirArrow">
                        <path fill="none" stroke="white" stroke-width="1.5" d="M0,-3.0v7 M-2.5,-0.5L0,-3.0L2.5,-0.5"/>
                </g>
               <g id="resetDef">
                       <use xlink:href="#rim2" fill="#404040">
                               <set attributeName="fill" to="#808080" begin="reset.mouseover" end="reset.mouseout"/>
                       </use>
               </g>
        </defs>

<script type="text/javascript">
var viewWidth = 2339;
var viewHeight = 174;
var sectionId = 'dynsection-0';
</script>
<script xlink:href="svgpan.js"/>
<svg id="graph" class="graph">
<g id="viewport">
<title>/home/travis/build/robotology/wb&#45;toolbox/toolbox/src/base/RobotInterface.cpp</title>
<!-- Node1 -->
<g id="node1" class="node"><title>Node1</title>
<polygon fill="#bfbfbf" stroke="black" points="939,-124.5 939,-165.5 1117,-165.5 1117,-124.5 939,-124.5"/>
<text text-anchor="start" x="947" y="-153.5" font-family="Helvetica,sans-Serif" font-size="10.00">/home/travis/build</text>
<text text-anchor="start" x="947" y="-142.5" font-family="Helvetica,sans-Serif" font-size="10.00">/robotology/wb&#45;toolbox</text>
<text text-anchor="middle" x="1028" y="-131.5" font-family="Helvetica,sans-Serif" font-size="10.00">/toolbox/src/base/RobotInterface.cpp</text>
</g>
<!-- Node2 -->
<g id="node2" class="node"><title>Node2</title>
<g id="a_node2"><a xlink:href="_robot_interface_8h.html" target="_top" xlink:title="RobotInterface.h">
<polygon fill="none" stroke="black" points="55.5,-62.5 55.5,-81.5 144.5,-81.5 144.5,-62.5 55.5,-62.5"/>
<text text-anchor="middle" x="100" y="-69.5" font-family="Helvetica,sans-Serif" font-size="10.00">RobotInterface.h</text>
</a>
</g>
</g>
<!-- Node1&#45;&gt;Node2 -->
<g id="edge1" class="edge"><title>Node1&#45;&gt;Node2</title>
<path fill="none" stroke="midnightblue" d="M938.783,-144.497C779.707,-144.009 437.119,-136.73 153,-88 147.404,-87.0402 141.552,-85.7187 135.865,-84.2549"/>
<polygon fill="midnightblue" stroke="midnightblue" points="136.467,-80.7904 125.897,-81.5139 134.611,-87.5399 136.467,-80.7904"/>
</g>
<!-- Node6 -->
<g id="node6" class="node"><title>Node6</title>
<polygon fill="none" stroke="#bfbfbf" points="0,-0.5 0,-19.5 40,-19.5 40,-0.5 0,-0.5"/>
<text text-anchor="middle" x="20" y="-7.5" font-family="Helvetica,sans-Serif" font-size="10.00">utility</text>
</g>
<!-- Node1&#45;&gt;Node6 -->
<g id="edge29" class="edge"><title>Node1&#45;&gt;Node6</title>
<path fill="none" stroke="midnightblue" d="M938.674,-144.524C709.912,-145.085 115.996,-141.328 46,-88 28.1549,-74.4042 22.447,-47.9936 20.6836,-29.9313"/>
<polygon fill="midnightblue" stroke="midnightblue" points="24.176,-29.6995 20.0221,-19.953 17.1914,-30.1626 24.176,-29.6995"/>
</g>
<!-- Node7 -->
<g id="node7" class="node"><title>Node7</title>
<g id="a_node7"><a xlink:href="_configuration_8h.html" target="_top" xlink:title="Configuration.h">
<polygon fill="none" stroke="black" points="162.5,-62.5 162.5,-81.5 245.5,-81.5 245.5,-62.5 162.5,-62.5"/>
<text text-anchor="middle" x="204" y="-69.5" font-family="Helvetica,sans-Serif" font-size="10.00">Configuration.h</text>
</a>
</g>
</g>
<!-- Node1&#45;&gt;Node7 -->
<g id="edge6" class="edge"><title>Node1&#45;&gt;Node7</title>
<path fill="none" stroke="midnightblue" d="M938.983,-143.868C794.18,-142.247 499.134,-133.073 254,-88 248.894,-87.0612 243.57,-85.7915 238.381,-84.3861"/>
<polygon fill="midnightblue" stroke="midnightblue" points="239.24,-80.9911 228.661,-81.5672 237.29,-87.7141 239.24,-80.9911"/>
</g>
<!-- Node8 -->
<g id="node8" class="node"><title>Node8</title>
<polygon fill="none" stroke="#bfbfbf" points="290,-0.5 290,-19.5 334,-19.5 334,-0.5 290,-0.5"/>
<text text-anchor="middle" x="312" y="-7.5" font-family="Helvetica,sans-Serif" font-size="10.00">vector</text>
</g>
<!-- Node1&#45;&gt;Node8 -->
<g id="edge30" class="edge"><title>Node1&#45;&gt;Node8</title>
<path fill="none" stroke="midnightblue" d="M938.807,-140.345C770.973,-132.891 420.636,-114.381 372,-88 347.616,-74.7733 329.884,-46.9805 320.267,-28.6565"/>
<polygon fill="midnightblue" stroke="midnightblue" points="323.352,-27.0009 315.768,-19.6032 317.084,-30.116 323.352,-27.0009"/>
</g>
<!-- Node9 -->
<g id="node9" class="node"><title>Node9</title>
<g id="a_node9"><a xlink:href="_log_8h.html" target="_top" xlink:title="Log.h">
<polygon fill="none" stroke="black" points="263.5,-62.5 263.5,-81.5 304.5,-81.5 304.5,-62.5 263.5,-62.5"/>
<text text-anchor="middle" x="284" y="-69.5" font-family="Helvetica,sans-Serif" font-size="10.00">Log.h</text>
</a>
</g>
</g>
<!-- Node1&#45;&gt;Node9 -->
<g id="edge10" class="edge"><title>Node1&#45;&gt;Node9</title>
<path fill="none" stroke="midnightblue" d="M938.797,-140.573C775.355,-133.695 434.085,-116.39 319,-88 316.172,-87.3023 313.28,-86.4005 310.431,-85.3853"/>
<polygon fill="midnightblue" stroke="midnightblue" points="311.645,-82.1011 301.06,-81.63 309.041,-88.5988 311.645,-82.1011"/>
</g>
<!-- Node10 -->
<g id="node10" class="node"><title>Node10</title>
<polygon fill="none" stroke="#bfbfbf" points="352,-0.5 352,-19.5 404,-19.5 404,-0.5 352,-0.5"/>
<text text-anchor="middle" x="378" y="-7.5" font-family="Helvetica,sans-Serif" font-size="10.00">sstream</text>
</g>
<!-- Node1&#45;&gt;Node10 -->
<g id="edge28" class="edge"><title>Node1&#45;&gt;Node10</title>
<path fill="none" stroke="midnightblue" d="M938.726,-142.106C772.867,-137.732 430.379,-124.364 391,-88 375.238,-73.4449 373.995,-47.4609 375.345,-29.7398"/>
<polygon fill="midnightblue" stroke="midnightblue" points="378.832,-30.0426 376.446,-19.7201 371.874,-29.2779 378.832,-30.0426"/>
</g>
<!-- Node11 -->
<g id="node11" class="node"><title>Node11</title>
<polygon fill="none" stroke="#bfbfbf" points="399.5,-62.5 399.5,-81.5 560.5,-81.5 560.5,-62.5 399.5,-62.5"/>
<text text-anchor="middle" x="480" y="-69.5" font-family="Helvetica,sans-Serif" font-size="10.00">iDynTree/KinDynComputations.h</text>
</g>
<!-- Node1&#45;&gt;Node11 -->
<g id="edge14" class="edge"><title>Node1&#45;&gt;Node11</title>
<path fill="none" stroke="midnightblue" d="M938.762,-134.251C846.348,-123.883 697.845,-106.461 570,-88 560.005,-86.5568 549.407,-84.9022 539.126,-83.2309"/>
<polygon fill="midnightblue" stroke="midnightblue" points="539.421,-79.7324 528.985,-81.5614 538.284,-86.6394 539.421,-79.7324"/>
</g>
<!-- Node12 -->
<g id="node12" class="node"><title>Node12</title>
<polygon fill="none" stroke="#bfbfbf" points="578.5,-57 578.5,-87 721.5,-87 721.5,-57 578.5,-57"/>
<text text-anchor="start" x="586.5" y="-75" font-family="Helvetica,sans-Serif" font-size="10.00">iDynTree/Model/FreeFloating</text>
<text text-anchor="middle" x="650" y="-64" font-family="Helvetica,sans-Serif" font-size="10.00">Matrices.h</text>
</g>
<!-- Node1&#45;&gt;Node12 -->
<g id="edge15" class="edge"><title>Node1&#45;&gt;Node12</title>
<path fill="none" stroke="midnightblue" d="M938.898,-127.264C876.147,-115.477 792.778,-99.8181 731.731,-88.3516"/>
<polygon fill="midnightblue" stroke="midnightblue" points="732.225,-84.8832 721.751,-86.477 730.933,-91.7629 732.225,-84.8832"/>
</g>
<!-- Node13 -->
<g id="node13" class="node"><title>Node13</title>
<polygon fill="none" stroke="#bfbfbf" points="740,-62.5 740,-81.5 868,-81.5 868,-62.5 740,-62.5"/>
<text text-anchor="middle" x="804" y="-69.5" font-family="Helvetica,sans-Serif" font-size="10.00">iDynTree/Model/Indices.h</text>
</g>
<!-- Node1&#45;&gt;Node13 -->
<g id="edge16" class="edge"><title>Node1&#45;&gt;Node13</title>
<path fill="none" stroke="midnightblue" d="M966.198,-124.411C925.945,-111.652 874.784,-95.4359 840.796,-84.6631"/>
<polygon fill="midnightblue" stroke="midnightblue" points="841.421,-81.1896 830.831,-81.5045 839.306,-87.8624 841.421,-81.1896"/>
</g>
<!-- Node14 -->
<g id="node14" class="node"><title>Node14</title>
<polygon fill="none" stroke="#bfbfbf" points="886.5,-62.5 886.5,-81.5 1009.5,-81.5 1009.5,-62.5 886.5,-62.5"/>
<text text-anchor="middle" x="948" y="-69.5" font-family="Helvetica,sans-Serif" font-size="10.00">iDynTree/Model/Model.h</text>
</g>
<!-- Node1&#45;&gt;Node14 -->
<g id="edge17" class="edge"><title>Node1&#45;&gt;Node14</title>
<path fill="none" stroke="midnightblue" d="M1005.72,-124.223C993.066,-112.996 977.455,-99.1417 965.66,-88.6732"/>
<polygon fill="midnightblue" stroke="midnightblue" points="967.645,-85.755 957.842,-81.7349 962.998,-90.9905 967.645,-85.755"/>
</g>
<!-- Node15 -->
<g id="node15" class="node"><title>Node15</title>
<polygon fill="none" stroke="#bfbfbf" points="1027.5,-62.5 1027.5,-81.5 1190.5,-81.5 1190.5,-62.5 1027.5,-62.5"/>
<text text-anchor="middle" x="1109" y="-69.5" font-family="Helvetica,sans-Serif" font-size="10.00">iDynTree/ModelIO/ModelLoader.h</text>
</g>
<!-- Node1&#45;&gt;Node15 -->
<g id="edge18" class="edge"><title>Node1&#45;&gt;Node15</title>
<path fill="none" stroke="midnightblue" d="M1050.56,-124.223C1063.49,-112.887 1079.48,-98.8725 1091.47,-88.3692"/>
<polygon fill="midnightblue" stroke="midnightblue" points="1093.82,-90.9586 1099.03,-81.7349 1089.21,-85.6945 1093.82,-90.9586"/>
</g>
<!-- Node16 -->
<g id="node16" class="node"><title>Node16</title>
<polygon fill="none" stroke="#bfbfbf" points="1209,-62.5 1209,-81.5 1375,-81.5 1375,-62.5 1209,-62.5"/>
<text text-anchor="middle" x="1292" y="-69.5" font-family="Helvetica,sans-Serif" font-size="10.00">yarp/dev/ControlBoardInterfaces.h</text>
</g>
<!-- Node1&#45;&gt;Node16 -->
<g id="edge19" class="edge"><title>Node1&#45;&gt;Node16</title>
<path fill="none" stroke="midnightblue" d="M1100.84,-124.411C1149.1,-111.432 1210.66,-94.8756 1250.69,-84.1108"/>
<polygon fill="midnightblue" stroke="midnightblue" points="1251.63,-87.4816 1260.38,-81.5045 1249.81,-80.7217 1251.63,-87.4816"/>
</g>
<!-- Node17 -->
<g id="node17" class="node"><title>Node17</title>
<polygon fill="none" stroke="#bfbfbf" points="1393.5,-62.5 1393.5,-81.5 1524.5,-81.5 1524.5,-62.5 1393.5,-62.5"/>
<text text-anchor="middle" x="1459" y="-69.5" font-family="Helvetica,sans-Serif" font-size="10.00">yarp/dev/IControlLimits2.h</text>
</g>
<!-- Node1&#45;&gt;Node17 -->
<g id="edge20" class="edge"><title>Node1&#45;&gt;Node17</title>
<path fill="none" stroke="midnightblue" d="M1117.05,-131.037C1189.16,-120.287 1293.31,-104.195 1384,-88 1391.72,-86.6213 1399.87,-85.0804 1407.84,-83.5254"/>
<polygon fill="midnightblue" stroke="midnightblue" points="1408.66,-86.9308 1417.8,-81.5595 1407.31,-80.0634 1408.66,-86.9308"/>
</g>
<!-- Node18 -->
<g id="node18" class="node"><title>Node18</title>
<polygon fill="none" stroke="#bfbfbf" points="1543,-62.5 1543,-81.5 1653,-81.5 1653,-62.5 1543,-62.5"/>
<text text-anchor="middle" x="1598" y="-69.5" font-family="Helvetica,sans-Serif" font-size="10.00">yarp/dev/IEncoders.h</text>
</g>
<!-- Node1&#45;&gt;Node18 -->
<g id="edge21" class="edge"><title>Node1&#45;&gt;Node18</title>
<path fill="none" stroke="midnightblue" d="M1117.38,-137.252C1218.65,-128.874 1388.43,-112.611 1533,-88 1539.9,-86.8247 1547.17,-85.3678 1554.25,-83.8278"/>
<polygon fill="midnightblue" stroke="midnightblue" points="1555.43,-87.1496 1564.41,-81.5352 1553.89,-80.3211 1555.43,-87.1496"/>
</g>
<!-- Node19 -->
<g id="node19" class="node"><title>Node19</title>
<polygon fill="none" stroke="#bfbfbf" points="1671.5,-62.5 1671.5,-81.5 1782.5,-81.5 1782.5,-62.5 1671.5,-62.5"/>
<text text-anchor="middle" x="1727" y="-69.5" font-family="Helvetica,sans-Serif" font-size="10.00">yarp/dev/PolyDriver.h</text>
</g>
<!-- Node1&#45;&gt;Node19 -->
<g id="edge22" class="edge"><title>Node1&#45;&gt;Node19</title>
<path fill="none" stroke="midnightblue" d="M1117.2,-140.027C1240.35,-133.655 1469.11,-118.624 1662,-88 1669.23,-86.8514 1676.86,-85.3547 1684.25,-83.7521"/>
<polygon fill="midnightblue" stroke="midnightblue" points="1685.12,-87.1422 1694.11,-81.5237 1683.58,-80.3144 1685.12,-87.1422"/>
</g>
<!-- Node20 -->
<g id="node20" class="node"><title>Node20</title>
<polygon fill="none" stroke="#bfbfbf" points="1801,-62.5 1801,-81.5 1887,-81.5 1887,-62.5 1801,-62.5"/>
<text text-anchor="middle" x="1844" y="-69.5" font-family="Helvetica,sans-Serif" font-size="10.00">yarp/os/Bottle.h</text>
</g>
<!-- Node1&#45;&gt;Node20 -->
<g id="edge23" class="edge"><title>Node1&#45;&gt;Node20</title>
<path fill="none" stroke="midnightblue" d="M1117.12,-143.289C1260.27,-140.843 1549.83,-130.525 1791,-88 1796.53,-87.0244 1802.32,-85.7066 1807.95,-84.255"/>
<polygon fill="midnightblue" stroke="midnightblue" points="1809.11,-87.5657 1817.82,-81.5428 1807.25,-80.8156 1809.11,-87.5657"/>
</g>
<!-- Node21 -->
<g id="node21" class="node"><title>Node21</title>
<polygon fill="none" stroke="#bfbfbf" points="1905.5,-62.5 1905.5,-81.5 2002.5,-81.5 2002.5,-62.5 1905.5,-62.5"/>
<text text-anchor="middle" x="1954" y="-69.5" font-family="Helvetica,sans-Serif" font-size="10.00">yarp/os/Network.h</text>
</g>
<!-- Node1&#45;&gt;Node21 -->
<g id="edge24" class="edge"><title>Node1&#45;&gt;Node21</title>
<path fill="none" stroke="midnightblue" d="M1117.02,-143.775C1274.93,-142.152 1614,-133.148 1896,-88 1902.34,-86.9857 1908.99,-85.5893 1915.43,-84.0538"/>
<polygon fill="midnightblue" stroke="midnightblue" points="1916.47,-87.4002 1925.31,-81.5612 1914.76,-80.6127 1916.47,-87.4002"/>
</g>
<!-- Node22 -->
<g id="node22" class="node"><title>Node22</title>
<polygon fill="none" stroke="#bfbfbf" points="2020.5,-62.5 2020.5,-81.5 2117.5,-81.5 2117.5,-62.5 2020.5,-62.5"/>
<text text-anchor="middle" x="2069" y="-69.5" font-family="Helvetica,sans-Serif" font-size="10.00">yarp/os/Property.h</text>
</g>
<!-- Node1&#45;&gt;Node22 -->
<g id="edge25" class="edge"><title>Node1&#45;&gt;Node22</title>
<path fill="none" stroke="midnightblue" d="M1117.06,-144.747C1290.33,-144.918 1684.41,-139.027 2011,-88 2017.41,-86.999 2024.13,-85.596 2030.64,-84.0461"/>
<polygon fill="midnightblue" stroke="midnightblue" points="2031.78,-87.3689 2040.62,-81.5263 2030.06,-80.5821 2031.78,-87.3689"/>
</g>
<!-- Node23 -->
<g id="node23" class="node"><title>Node23</title>
<polygon fill="none" stroke="#bfbfbf" points="2135.5,-62.5 2135.5,-81.5 2264.5,-81.5 2264.5,-62.5 2135.5,-62.5"/>
<text text-anchor="middle" x="2200" y="-69.5" font-family="Helvetica,sans-Serif" font-size="10.00">yarp/os/ResourceFinder.h</text>
</g>
<!-- Node1&#45;&gt;Node23 -->
<g id="edge26" class="edge"><title>Node1&#45;&gt;Node23</title>
<path fill="none" stroke="midnightblue" d="M1117.35,-143.942C1304.97,-142.833 1753.41,-134.998 2126,-88 2134.88,-86.8796 2144.29,-85.2894 2153.32,-83.5598"/>
<polygon fill="midnightblue" stroke="midnightblue" points="2154.17,-86.9581 2163.29,-81.5654 2152.8,-80.094 2154.17,-86.9581"/>
</g>
<!-- Node24 -->
<g id="node24" class="node"><title>Node24</title>
<polygon fill="none" stroke="#bfbfbf" points="2282.5,-62.5 2282.5,-81.5 2331.5,-81.5 2331.5,-62.5 2282.5,-62.5"/>
<text text-anchor="middle" x="2307" y="-69.5" font-family="Helvetica,sans-Serif" font-size="10.00">cassert</text>
</g>
<!-- Node1&#45;&gt;Node24 -->
<g id="edge27" class="edge"><title>Node1&#45;&gt;Node24</title>
<path fill="none" stroke="midnightblue" d="M1117.11,-144.248C1364,-144.259 2053.13,-139.533 2273,-88 2275.83,-87.3375 2278.71,-86.4444 2281.54,-85.4223"/>
<polygon fill="midnightblue" stroke="midnightblue" points="2282.91,-88.6437 2290.82,-81.5976 2280.25,-82.1717 2282.91,-88.6437"/>
</g>
<!-- Node3 -->
<g id="node3" class="node"><title>Node3</title>
<polygon fill="none" stroke="#bfbfbf" points="160,-0.5 160,-19.5 212,-19.5 212,-0.5 160,-0.5"/>
<text text-anchor="middle" x="186" y="-7.5" font-family="Helvetica,sans-Serif" font-size="10.00">memory</text>
</g>
<!-- Node2&#45;&gt;Node3 -->
<g id="edge2" class="edge"><title>Node2&#45;&gt;Node3</title>
<path fill="none" stroke="midnightblue" d="M112.322,-62.4035C126.116,-52.7797 148.699,-37.0242 165.232,-25.4891"/>
<polygon fill="midnightblue" stroke="midnightblue" points="167.503,-28.1729 173.701,-19.5806 163.497,-22.432 167.503,-28.1729"/>
</g>
<!-- Node4 -->
<g id="node4" class="node"><title>Node4</title>
<polygon fill="none" stroke="#bfbfbf" points="230.5,-0.5 230.5,-19.5 271.5,-19.5 271.5,-0.5 230.5,-0.5"/>
<text text-anchor="middle" x="251" y="-7.5" font-family="Helvetica,sans-Serif" font-size="10.00">string</text>
</g>
<!-- Node2&#45;&gt;Node4 -->
<g id="edge3" class="edge"><title>Node2&#45;&gt;Node4</title>
<path fill="none" stroke="midnightblue" d="M121.635,-62.4035C147.717,-52.0394 191.697,-34.5642 221.034,-22.907"/>
<polygon fill="midnightblue" stroke="midnightblue" points="222.374,-26.1408 230.375,-19.1954 219.789,-19.6355 222.374,-26.1408"/>
</g>
<!-- Node5 -->
<g id="node5" class="node"><title>Node5</title>
<polygon fill="none" stroke="#bfbfbf" points="58.5,-0.5 58.5,-19.5 141.5,-19.5 141.5,-0.5 58.5,-0.5"/>
<text text-anchor="middle" x="100" y="-7.5" font-family="Helvetica,sans-Serif" font-size="10.00">unordered_map</text>
</g>
<!-- Node2&#45;&gt;Node5 -->
<g id="edge4" class="edge"><title>Node2&#45;&gt;Node5</title>
<path fill="none" stroke="midnightblue" d="M100,-62.4035C100,-53.9381 100,-40.7283 100,-29.8199"/>
<polygon fill="midnightblue" stroke="midnightblue" points="103.5,-29.5806 100,-19.5806 96.5001,-29.5806 103.5,-29.5806"/>
</g>
<!-- Node2&#45;&gt;Node6 -->
<g id="edge5" class="edge"><title>Node2&#45;&gt;Node6</title>
<path fill="none" stroke="midnightblue" d="M88.538,-62.4035C75.825,-52.8688 55.0872,-37.3154 39.7474,-25.8106"/>
<polygon fill="midnightblue" stroke="midnightblue" points="41.5408,-22.7806 31.4408,-19.5806 37.3408,-28.3806 41.5408,-22.7806"/>
</g>
<!-- Node7&#45;&gt;Node3 -->
<g id="edge7" class="edge"><title>Node7&#45;&gt;Node3</title>
<path fill="none" stroke="midnightblue" d="M201.421,-62.4035C198.855,-53.849 194.835,-40.4497 191.543,-29.4762"/>
<polygon fill="midnightblue" stroke="midnightblue" points="194.8,-28.1531 188.574,-19.5806 188.095,-30.1646 194.8,-28.1531"/>
</g>
<!-- Node7&#45;&gt;Node4 -->
<g id="edge8" class="edge"><title>Node7&#45;&gt;Node4</title>
<path fill="none" stroke="midnightblue" d="M210.734,-62.4035C217.784,-53.4034 229.035,-39.0408 237.854,-27.7824"/>
<polygon fill="midnightblue" stroke="midnightblue" points="240.867,-29.6112 244.279,-19.5806 235.357,-25.2946 240.867,-29.6112"/>
</g>
<!-- Node7&#45;&gt;Node8 -->
<g id="edge9" class="edge"><title>Node7&#45;&gt;Node8</title>
<path fill="none" stroke="midnightblue" d="M219.474,-62.4035C237.278,-52.5123 266.741,-36.1442 287.632,-24.5378"/>
<polygon fill="midnightblue" stroke="midnightblue" points="289.513,-27.4966 296.555,-19.5806 286.114,-21.3775 289.513,-27.4966"/>
</g>
<!-- Node9&#45;&gt;Node3 -->
<g id="edge11" class="edge"><title>Node9&#45;&gt;Node3</title>
<path fill="none" stroke="midnightblue" d="M269.959,-62.4035C253.949,-52.6014 227.55,-36.4385 208.626,-24.8526"/>
<polygon fill="midnightblue" stroke="midnightblue" points="210.371,-21.8172 200.015,-19.5806 206.716,-27.7872 210.371,-21.8172"/>
</g>
<!-- Node9&#45;&gt;Node4 -->
<g id="edge13" class="edge"><title>Node9&#45;&gt;Node4</title>
<path fill="none" stroke="midnightblue" d="M279.272,-62.4035C274.42,-53.5816 266.734,-39.6075 260.6,-28.4548"/>
<polygon fill="midnightblue" stroke="midnightblue" points="263.605,-26.656 255.719,-19.5806 257.472,-30.0295 263.605,-26.656"/>
</g>
<!-- Node9&#45;&gt;Node10 -->
<g id="edge12" class="edge"><title>Node9&#45;&gt;Node10</title>
<path fill="none" stroke="midnightblue" d="M297.468,-62.4035C312.685,-52.6905 337.687,-36.7319 355.801,-25.1697"/>
<polygon fill="midnightblue" stroke="midnightblue" points="358.011,-27.9112 364.557,-19.5806 354.245,-22.0108 358.011,-27.9112"/>
</g>
</g>
</svg>
        <g id="navigator" transform="translate(0 0)" fill="#404254">
                <rect fill="#f2f5e9" fill-opacity="0.5" stroke="#606060" stroke-width=".5" x="0" y="0" width="60" height="60"/>
                <use id="zoomplus" xlink:href="#zoomPlus" x="17" y="9" onmousedown="handleZoom(evt,'in')"/>
                <use id="zoomminus" xlink:href="#zoomMin" x="42" y="9" onmousedown="handleZoom(evt,'out')"/>
                <use id="reset" xlink:href="#resetDef" x="30" y="36" onmousedown="handleReset()"/>
                <g id="arrowUp" xlink:href="#dirArrow" transform="translate(30 24)" onmousedown="handlePan(0,-1)">
                  <use xlink:href="#rim" fill="#404040">
                        <set attributeName="fill" to="#808080" begin="arrowUp.mouseover" end="arrowUp.mouseout"/>
                  </use>
                  <path fill="none" stroke="white" stroke-width="1.5" d="M0,-3.0v7 M-2.5,-0.5L0,-3.0L2.5,-0.5"/>
                </g>
                <g id="arrowRight" xlink:href="#dirArrow" transform="rotate(90) translate(36 -43)" onmousedown="handlePan(1,0)">
                  <use xlink:href="#rim" fill="#404040">
                        <set attributeName="fill" to="#808080" begin="arrowRight.mouseover" end="arrowRight.mouseout"/>
                  </use>
                  <path fill="none" stroke="white" stroke-width="1.5" d="M0,-3.0v7 M-2.5,-0.5L0,-3.0L2.5,-0.5"/>
                </g>
                <g id="arrowDown" xlink:href="#dirArrow" transform="rotate(180) translate(-30 -48)" onmousedown="handlePan(0,1)">
                  <use xlink:href="#rim" fill="#404040">
                        <set attributeName="fill" to="#808080" begin="arrowDown.mouseover" end="arrowDown.mouseout"/>
                  </use>
                  <path fill="none" stroke="white" stroke-width="1.5" d="M0,-3.0v7 M-2.5,-0.5L0,-3.0L2.5,-0.5"/>
                </g>
                <g id="arrowLeft" xlink:href="#dirArrow" transform="rotate(270) translate(-36 17)" onmousedown="handlePan(-1,0)">
                  <use xlink:href="#rim" fill="#404040">
                        <set attributeName="fill" to="#808080" begin="arrowLeft.mouseover" end="arrowLeft.mouseout"/>
                  </use>
                  <path fill="none" stroke="white" stroke-width="1.5" d="M0,-3.0v7 M-2.5,-0.5L0,-3.0L2.5,-0.5"/>
                </g>
        </g>
        <svg viewBox="0 0 15 15" width="100%" height="30px" preserveAspectRatio="xMaxYMin meet">
         <g id="arrow_out" transform="scale(0.3 0.3)">
          <a xlink:href="_robot_interface_8cpp__incl_org.svg" target="_base">
           <rect id="button" ry="5" rx="5" y="6" x="6" height="38" width="38"
                fill="#f2f5e9" fill-opacity="0.5" stroke="#606060" stroke-width="1.0"/>
           <path id="arrow"
             d="M 11.500037,31.436501 C 11.940474,20.09759 22.043105,11.32322 32.158766,21.979434 L 37.068811,17.246167 C 37.068811,17.246167 37.088388,32 37.088388,32 L 22.160133,31.978069 C 22.160133,31.978069 26.997745,27.140456 26.997745,27.140456 C 18.528582,18.264221 13.291696,25.230495 11.500037,31.436501 z"
             style="fill:#404040;"/>
          </a>
         </g>
        </svg>
</svg>
