<?xml version="1.0" encoding="UTF-8" standalone="no"?>
<!DOCTYPE svg PUBLIC "-//W3C//DTD SVG 1.1//EN"
 "http://www.w3.org/Graphics/SVG/1.1/DTD/svg11.dtd">
<!-- Generated by graphviz version 2.43.0 (0)
 -->
<!-- Title: /home/runner/work/wb&#45;toolbox/wb&#45;toolbox/toolbox/base/include/WBToolbox/Base/RobotInterface.h Pages: 1 -->
<svg width="2629pt" height="139pt"
 viewBox="0.00 0.00 2628.50 139.00" xmlns="http://www.w3.org/2000/svg" xmlns:xlink="http://www.w3.org/1999/xlink">
<g id="graph0" class="graph" transform="scale(1 1) rotate(0) translate(4 135)">
<title>/home/runner/work/wb&#45;toolbox/wb&#45;toolbox/toolbox/base/include/WBToolbox/Base/RobotInterface.h</title>
<!-- Node1 -->
<g id="node1" class="node">
<title>Node1</title>
<g id="a_node1"><a xlink:title=" ">
<polygon fill="#bfbfbf" stroke="black" points="1229,-78.5 1229,-130.5 1394,-130.5 1394,-78.5 1229,-78.5"/>
<text text-anchor="start" x="1237" y="-118.5" font-family="Helvetica,sans-Serif" font-size="10.00">/home/runner/work/wb</text>
<text text-anchor="start" x="1237" y="-107.5" font-family="Helvetica,sans-Serif" font-size="10.00">&#45;toolbox/wb&#45;toolbox/toolbox</text>
<text text-anchor="start" x="1237" y="-96.5" font-family="Helvetica,sans-Serif" font-size="10.00">/base/include/WBToolbox/Base</text>
<text text-anchor="middle" x="1311.5" y="-85.5" font-family="Helvetica,sans-Serif" font-size="10.00">/RobotInterface.h</text>
</a>
</g>
</g>
<!-- Node2 -->
<g id="node2" class="node">
<title>Node2</title>
<g id="a_node2"><a xlink:href="_robot_interface_8cpp.html" target="_top" xlink:title=" ">
<polygon fill="none" stroke="black" points="0,-0.5 0,-41.5 155,-41.5 155,-0.5 0,-0.5"/>
<text text-anchor="start" x="8" y="-29.5" font-family="Helvetica,sans-Serif" font-size="10.00">/home/runner/work/wb</text>
<text text-anchor="start" x="8" y="-18.5" font-family="Helvetica,sans-Serif" font-size="10.00">&#45;toolbox/wb&#45;toolbox/toolbox</text>
<text text-anchor="middle" x="77.5" y="-7.5" font-family="Helvetica,sans-Serif" font-size="10.00">/base/src/RobotInterface.cpp</text>
</a>
</g>
</g>
<!-- Node1&#45;&gt;Node2 -->
<g id="edge1" class="edge">
<title>Node1&#45;&gt;Node2</title>
<path fill="none" stroke="midnightblue" d="M1218.64,-104.01C1022.64,-103.89 552.74,-97.25 163.5,-42 160.77,-41.61 158,-41.18 155.2,-40.71"/>
<polygon fill="midnightblue" stroke="midnightblue" points="1218.89,-107.51 1228.89,-104.01 1218.89,-100.51 1218.89,-107.51"/>
</g>
<!-- Node3 -->
<g id="node3" class="node">
<title>Node3</title>
<g id="a_node3"><a xlink:href="_w_b_block_8cpp.html" target="_top" xlink:title=" ">
<polygon fill="none" stroke="black" points="173,-0.5 173,-41.5 328,-41.5 328,-0.5 173,-0.5"/>
<text text-anchor="start" x="181" y="-29.5" font-family="Helvetica,sans-Serif" font-size="10.00">/home/runner/work/wb</text>
<text text-anchor="start" x="181" y="-18.5" font-family="Helvetica,sans-Serif" font-size="10.00">&#45;toolbox/wb&#45;toolbox/toolbox</text>
<text text-anchor="middle" x="250.5" y="-7.5" font-family="Helvetica,sans-Serif" font-size="10.00">/base/src/WBBlock.cpp</text>
</a>
</g>
</g>
<!-- Node1&#45;&gt;Node3 -->
<g id="edge2" class="edge">
<title>Node1&#45;&gt;Node3</title>
<path fill="none" stroke="midnightblue" d="M1218.7,-102.75C1044.75,-100.2 658.16,-89.22 336.5,-42 333.77,-41.6 331,-41.16 328.21,-40.68"/>
<polygon fill="midnightblue" stroke="midnightblue" points="1218.79,-106.25 1228.84,-102.89 1218.89,-99.25 1218.79,-106.25"/>
</g>
<!-- Node4 -->
<g id="node4" class="node">
<title>Node4</title>
<g id="a_node4"><a xlink:href="_whole_body_singleton_8cpp.html" target="_top" xlink:title=" ">
<polygon fill="none" stroke="black" points="346,-0.5 346,-41.5 531,-41.5 531,-0.5 346,-0.5"/>
<text text-anchor="start" x="354" y="-29.5" font-family="Helvetica,sans-Serif" font-size="10.00">/home/runner/work/wb</text>
<text text-anchor="start" x="354" y="-18.5" font-family="Helvetica,sans-Serif" font-size="10.00">&#45;toolbox/wb&#45;toolbox/toolbox</text>
<text text-anchor="middle" x="438.5" y="-7.5" font-family="Helvetica,sans-Serif" font-size="10.00">/base/src/WholeBodySingleton.cpp</text>
</a>
</g>
</g>
<!-- Node1&#45;&gt;Node4 -->
<g id="edge3" class="edge">
<title>Node1&#45;&gt;Node4</title>
<path fill="none" stroke="midnightblue" d="M1218.52,-99.51C1073.27,-92.51 783.92,-75.46 540.5,-42 537.46,-41.58 534.38,-41.13 531.26,-40.65"/>
<polygon fill="midnightblue" stroke="midnightblue" points="1218.57,-103.02 1228.73,-100 1218.91,-96.03 1218.57,-103.02"/>
</g>
<!-- Node5 -->
<g id="node5" class="node">
<title>Node5</title>
<g id="a_node5"><a xlink:href="_centroidal_momentum_8cpp.html" target="_top" xlink:title=" ">
<polygon fill="none" stroke="black" points="549.5,-0.5 549.5,-41.5 747.5,-41.5 747.5,-0.5 549.5,-0.5"/>
<text text-anchor="start" x="557.5" y="-29.5" font-family="Helvetica,sans-Serif" font-size="10.00">/home/runner/work/wb</text>
<text text-anchor="start" x="557.5" y="-18.5" font-family="Helvetica,sans-Serif" font-size="10.00">&#45;toolbox/wb&#45;toolbox/toolbox</text>
<text text-anchor="middle" x="648.5" y="-7.5" font-family="Helvetica,sans-Serif" font-size="10.00">/library/src/CentroidalMomentum.cpp</text>
</a>
</g>
</g>
<!-- Node1&#45;&gt;Node5 -->
<g id="edge4" class="edge">
<title>Node1&#45;&gt;Node5</title>
<path fill="none" stroke="midnightblue" d="M1218.88,-95.31C1108.48,-85.08 918.55,-65.95 756.5,-42 753.58,-41.57 750.61,-41.11 747.62,-40.64"/>
<polygon fill="midnightblue" stroke="midnightblue" points="1218.7,-98.81 1228.98,-96.25 1219.34,-91.84 1218.7,-98.81"/>
</g>
<!-- Node6 -->
<g id="node6" class="node">
<title>Node6</title>
<g id="a_node6"><a xlink:href="_dot_j_nu_8cpp.html" target="_top" xlink:title=" ">
<polygon fill="none" stroke="black" points="766,-0.5 766,-41.5 921,-41.5 921,-0.5 766,-0.5"/>
<text text-anchor="start" x="774" y="-29.5" font-family="Helvetica,sans-Serif" font-size="10.00">/home/runner/work/wb</text>
<text text-anchor="start" x="774" y="-18.5" font-family="Helvetica,sans-Serif" font-size="10.00">&#45;toolbox/wb&#45;toolbox/toolbox</text>
<text text-anchor="middle" x="843.5" y="-7.5" font-family="Helvetica,sans-Serif" font-size="10.00">/library/src/DotJNu.cpp</text>
</a>
</g>
</g>
<!-- Node1&#45;&gt;Node6 -->
<g id="edge5" class="edge">
<title>Node1&#45;&gt;Node6</title>
<path fill="none" stroke="midnightblue" d="M1218.64,-90.38C1141.09,-78.98 1027.75,-61.31 929.5,-42 926.79,-41.47 924.04,-40.91 921.26,-40.34"/>
<polygon fill="midnightblue" stroke="midnightblue" points="1218.47,-93.89 1228.87,-91.88 1219.48,-86.96 1218.47,-93.89"/>
</g>
<!-- Node7 -->
<g id="node7" class="node">
<title>Node7</title>
<g id="a_node7"><a xlink:href="_forward_kinematics_8cpp.html" target="_top" xlink:title=" ">
<polygon fill="none" stroke="black" points="939,-0.5 939,-41.5 1124,-41.5 1124,-0.5 939,-0.5"/>
<text text-anchor="start" x="947" y="-29.5" font-family="Helvetica,sans-Serif" font-size="10.00">/home/runner/work/wb</text>
<text text-anchor="start" x="947" y="-18.5" font-family="Helvetica,sans-Serif" font-size="10.00">&#45;toolbox/wb&#45;toolbox/toolbox</text>
<text text-anchor="middle" x="1031.5" y="-7.5" font-family="Helvetica,sans-Serif" font-size="10.00">/library/src/ForwardKinematics.cpp</text>
</a>
</g>
</g>
<!-- Node1&#45;&gt;Node7 -->
<g id="edge6" class="edge">
<title>Node1&#45;&gt;Node7</title>
<path fill="none" stroke="midnightblue" d="M1218.78,-76.51C1179.51,-65.08 1134.63,-52.02 1098.65,-41.54"/>
<polygon fill="midnightblue" stroke="midnightblue" points="1218.05,-79.94 1228.63,-79.38 1220,-73.22 1218.05,-79.94"/>
</g>
<!-- Node8 -->
<g id="node8" class="node">
<title>Node8</title>
<g id="a_node8"><a xlink:href="_get_limits_8cpp.html" target="_top" xlink:title=" ">
<polygon fill="none" stroke="black" points="1142,-0.5 1142,-41.5 1297,-41.5 1297,-0.5 1142,-0.5"/>
<text text-anchor="start" x="1150" y="-29.5" font-family="Helvetica,sans-Serif" font-size="10.00">/home/runner/work/wb</text>
<text text-anchor="start" x="1150" y="-18.5" font-family="Helvetica,sans-Serif" font-size="10.00">&#45;toolbox/wb&#45;toolbox/toolbox</text>
<text text-anchor="middle" x="1219.5" y="-7.5" font-family="Helvetica,sans-Serif" font-size="10.00">/library/src/GetLimits.cpp</text>
</a>
</g>
</g>
<!-- Node1&#45;&gt;Node8 -->
<g id="edge7" class="edge">
<title>Node1&#45;&gt;Node8</title>
<path fill="none" stroke="midnightblue" d="M1275.45,-71.57C1264.09,-61.5 1251.88,-50.69 1241.78,-41.73"/>
<polygon fill="midnightblue" stroke="midnightblue" points="1273.34,-74.37 1283.15,-78.38 1277.98,-69.13 1273.34,-74.37"/>
</g>
<!-- Node9 -->
<g id="node9" class="node">
<title>Node9</title>
<g id="a_node9"><a xlink:href="_get_measurement_8cpp.html" target="_top" xlink:title=" ">
<polygon fill="none" stroke="black" points="1315.5,-0.5 1315.5,-41.5 1491.5,-41.5 1491.5,-0.5 1315.5,-0.5"/>
<text text-anchor="start" x="1323.5" y="-29.5" font-family="Helvetica,sans-Serif" font-size="10.00">/home/runner/work/wb</text>
<text text-anchor="start" x="1323.5" y="-18.5" font-family="Helvetica,sans-Serif" font-size="10.00">&#45;toolbox/wb&#45;toolbox/toolbox</text>
<text text-anchor="middle" x="1403.5" y="-7.5" font-family="Helvetica,sans-Serif" font-size="10.00">/library/src/GetMeasurement.cpp</text>
</a>
</g>
</g>
<!-- Node1&#45;&gt;Node9 -->
<g id="edge8" class="edge">
<title>Node1&#45;&gt;Node9</title>
<path fill="none" stroke="midnightblue" d="M1347.55,-71.57C1358.91,-61.5 1371.12,-50.69 1381.22,-41.73"/>
<polygon fill="midnightblue" stroke="midnightblue" points="1345.02,-69.13 1339.85,-78.38 1349.66,-74.37 1345.02,-69.13"/>
</g>
<!-- Node10 -->
<g id="node10" class="node">
<title>Node10</title>
<g id="a_node10"><a xlink:href="_inverse_dynamics_8cpp.html" target="_top" xlink:title=" ">
<polygon fill="none" stroke="black" points="1509.5,-0.5 1509.5,-41.5 1685.5,-41.5 1685.5,-0.5 1509.5,-0.5"/>
<text text-anchor="start" x="1517.5" y="-29.5" font-family="Helvetica,sans-Serif" font-size="10.00">/home/runner/work/wb</text>
<text text-anchor="start" x="1517.5" y="-18.5" font-family="Helvetica,sans-Serif" font-size="10.00">&#45;toolbox/wb&#45;toolbox/toolbox</text>
<text text-anchor="middle" x="1597.5" y="-7.5" font-family="Helvetica,sans-Serif" font-size="10.00">/library/src/InverseDynamics.cpp</text>
</a>
</g>
</g>
<!-- Node1&#45;&gt;Node10 -->
<g id="edge9" class="edge">
<title>Node1&#45;&gt;Node10</title>
<path fill="none" stroke="midnightblue" d="M1403.87,-77.18C1444.54,-65.59 1491.47,-52.21 1528.95,-41.54"/>
<polygon fill="midnightblue" stroke="midnightblue" points="1402.88,-73.82 1394.22,-79.93 1404.8,-80.55 1402.88,-73.82"/>
</g>
<!-- Node11 -->
<g id="node11" class="node">
<title>Node11</title>
<g id="a_node11"><a xlink:href="_jacobian_8cpp.html" target="_top" xlink:title=" ">
<polygon fill="none" stroke="black" points="1704,-0.5 1704,-41.5 1859,-41.5 1859,-0.5 1704,-0.5"/>
<text text-anchor="start" x="1712" y="-29.5" font-family="Helvetica,sans-Serif" font-size="10.00">/home/runner/work/wb</text>
<text text-anchor="start" x="1712" y="-18.5" font-family="Helvetica,sans-Serif" font-size="10.00">&#45;toolbox/wb&#45;toolbox/toolbox</text>
<text text-anchor="middle" x="1781.5" y="-7.5" font-family="Helvetica,sans-Serif" font-size="10.00">/library/src/Jacobian.cpp</text>
</a>
</g>
</g>
<!-- Node1&#45;&gt;Node11 -->
<g id="edge10" class="edge">
<title>Node1&#45;&gt;Node11</title>
<path fill="none" stroke="midnightblue" d="M1404.59,-90.33C1482.34,-78.9 1595.97,-61.21 1694.5,-42 1697.54,-41.41 1700.64,-40.78 1703.77,-40.14"/>
<polygon fill="midnightblue" stroke="midnightblue" points="1403.73,-86.92 1394.34,-91.83 1404.74,-93.84 1403.73,-86.92"/>
</g>
<!-- Node12 -->
<g id="node12" class="node">
<title>Node12</title>
<g id="a_node12"><a xlink:href="_mass_matrix_8cpp.html" target="_top" xlink:title=" ">
<polygon fill="none" stroke="black" points="1877,-0.5 1877,-41.5 2032,-41.5 2032,-0.5 1877,-0.5"/>
<text text-anchor="start" x="1885" y="-29.5" font-family="Helvetica,sans-Serif" font-size="10.00">/home/runner/work/wb</text>
<text text-anchor="start" x="1885" y="-18.5" font-family="Helvetica,sans-Serif" font-size="10.00">&#45;toolbox/wb&#45;toolbox/toolbox</text>
<text text-anchor="middle" x="1954.5" y="-7.5" font-family="Helvetica,sans-Serif" font-size="10.00">/library/src/MassMatrix.cpp</text>
</a>
</g>
</g>
<!-- Node1&#45;&gt;Node12 -->
<g id="edge11" class="edge">
<title>Node1&#45;&gt;Node12</title>
<path fill="none" stroke="midnightblue" d="M1404.18,-96.65C1515.11,-87.67 1706.22,-69.73 1868.5,-42 1871.22,-41.54 1873.98,-41.04 1876.77,-40.51"/>
<polygon fill="midnightblue" stroke="midnightblue" points="1403.72,-93.17 1394.03,-97.46 1404.28,-100.15 1403.72,-93.17"/>
</g>
<!-- Node13 -->
<g id="node13" class="node">
<title>Node13</title>
<g id="a_node13"><a xlink:href="_relative_transform_8cpp.html" target="_top" xlink:title=" ">
<polygon fill="none" stroke="black" points="2050,-0.5 2050,-41.5 2231,-41.5 2231,-0.5 2050,-0.5"/>
<text text-anchor="start" x="2058" y="-29.5" font-family="Helvetica,sans-Serif" font-size="10.00">/home/runner/work/wb</text>
<text text-anchor="start" x="2058" y="-18.5" font-family="Helvetica,sans-Serif" font-size="10.00">&#45;toolbox/wb&#45;toolbox/toolbox</text>
<text text-anchor="middle" x="2140.5" y="-7.5" font-family="Helvetica,sans-Serif" font-size="10.00">/library/src/RelativeTransform.cpp</text>
</a>
</g>
</g>
<!-- Node1&#45;&gt;Node13 -->
<g id="edge12" class="edge">
<title>Node1&#45;&gt;Node13</title>
<path fill="none" stroke="midnightblue" d="M1404.42,-99.11C1543.49,-91.76 1813.79,-74.48 2041.5,-42 2044.28,-41.6 2047.09,-41.18 2049.94,-40.73"/>
<polygon fill="midnightblue" stroke="midnightblue" points="1404.03,-95.63 1394.23,-99.64 1404.4,-102.62 1404.03,-95.63"/>
</g>
<!-- Node14 -->
<g id="node14" class="node">
<title>Node14</title>
<g id="a_node14"><a xlink:href="_set_motor_parameters_8cpp.html" target="_top" xlink:title=" ">
<polygon fill="none" stroke="black" points="2249,-0.5 2249,-41.5 2440,-41.5 2440,-0.5 2249,-0.5"/>
<text text-anchor="start" x="2257" y="-29.5" font-family="Helvetica,sans-Serif" font-size="10.00">/home/runner/work/wb</text>
<text text-anchor="start" x="2257" y="-18.5" font-family="Helvetica,sans-Serif" font-size="10.00">&#45;toolbox/wb&#45;toolbox/toolbox</text>
<text text-anchor="middle" x="2344.5" y="-7.5" font-family="Helvetica,sans-Serif" font-size="10.00">/library/src/SetMotorParameters.cpp</text>
</a>
</g>
</g>
<!-- Node1&#45;&gt;Node14 -->
<g id="edge13" class="edge">
<title>Node1&#45;&gt;Node14</title>
<path fill="none" stroke="midnightblue" d="M1404.18,-101.16C1571.73,-96.1 1935.91,-81.22 2240.5,-42 2243.24,-41.65 2246.01,-41.27 2248.8,-40.87"/>
<polygon fill="midnightblue" stroke="midnightblue" points="1404.06,-97.67 1394.16,-101.46 1404.26,-104.66 1404.06,-97.67"/>
</g>
<!-- Node15 -->
<g id="node15" class="node">
<title>Node15</title>
<g id="a_node15"><a xlink:href="_set_references_8cpp.html" target="_top" xlink:title=" ">
<polygon fill="none" stroke="black" points="2458.5,-0.5 2458.5,-41.5 2620.5,-41.5 2620.5,-0.5 2458.5,-0.5"/>
<text text-anchor="start" x="2466.5" y="-29.5" font-family="Helvetica,sans-Serif" font-size="10.00">/home/runner/work/wb</text>
<text text-anchor="start" x="2466.5" y="-18.5" font-family="Helvetica,sans-Serif" font-size="10.00">&#45;toolbox/wb&#45;toolbox/toolbox</text>
<text text-anchor="middle" x="2539.5" y="-7.5" font-family="Helvetica,sans-Serif" font-size="10.00">/library/src/SetReferences.cpp</text>
</a>
</g>
</g>
<!-- Node1&#45;&gt;Node15 -->
<g id="edge14" class="edge">
<title>Node1&#45;&gt;Node15</title>
<path fill="none" stroke="midnightblue" d="M1404.24,-103.64C1598.88,-102.82 2063.87,-94.9 2449.5,-42 2452.35,-41.61 2455.25,-41.17 2458.17,-40.7"/>
<polygon fill="midnightblue" stroke="midnightblue" points="1404.04,-100.14 1394.06,-103.68 1404.07,-107.14 1404.04,-100.14"/>
</g>
</g>
</svg>
