<?xml version="1.0" encoding="UTF-8" standalone="no"?>
<!DOCTYPE svg PUBLIC "-//W3C//DTD SVG 1.1//EN"
 "http://www.w3.org/Graphics/SVG/1.1/DTD/svg11.dtd">
<!-- Generated by graphviz version 2.36.0 (20140111.2315)
 -->
<!-- Title: /home/travis/build/robotology/wb&#45;toolbox/toolbox/src/library/src/RobotInterface.cpp Pages: 1 -->
<!--zoomable 186 -->
<svg id="main" version="1.1" xmlns="http://www.w3.org/2000/svg" xmlns:xlink="http://www.w3.org/1999/xlink" xml:space="preserve" onload="init(evt)">
<style type="text/css"><![CDATA[
.edge:hover path { stroke: red; }
.edge:hover polygon { stroke: red; fill: red; }
]]></style>
<script type="text/javascript"><![CDATA[
var edges = document.getElementsByTagName('g');
if (edges && edges.length) {
  for (var i=0;i<edges.length;i++) {
    if (edges[i].id.substr(0,4)=='edge') {
      edges[i].setAttribute('class','edge');
    }
  }
}
]]></script>
        <defs>
                <circle id="rim" cx="0" cy="0" r="7"/>
                <circle id="rim2" cx="0" cy="0" r="3.5"/>
                <g id="zoomPlus">
                        <use xlink:href="#rim" fill="#404040">
                                <set attributeName="fill" to="#808080" begin="zoomplus.mouseover" end="zoomplus.mouseout"/>
                        </use>
                        <path d="M-4,0h8M0,-4v8" fill="none" stroke="white" stroke-width="1.5" pointer-events="none"/>
                </g>
                <g id="zoomMin">
                        <use xlink:href="#rim" fill="#404040">
                                <set attributeName="fill" to="#808080" begin="zoomminus.mouseover" end="zoomminus.mouseout"/>
                        </use>
                        <path d="M-4,0h8" fill="none" stroke="white" stroke-width="1.5" pointer-events="none"/>
                </g>
                <g id="dirArrow">
                        <path fill="none" stroke="white" stroke-width="1.5" d="M0,-3.0v7 M-2.5,-0.5L0,-3.0L2.5,-0.5"/>
                </g>
               <g id="resetDef">
                       <use xlink:href="#rim2" fill="#404040">
                               <set attributeName="fill" to="#808080" begin="reset.mouseover" end="reset.mouseout"/>
                       </use>
               </g>
        </defs>

<script type="text/javascript">
var viewWidth = 2330;
var viewHeight = 186;
var sectionId = 'dynsection-0';
</script>
<script xlink:href="svgpan.js"/>
<svg id="graph" class="graph">
<g id="viewport">
<title>/home/travis/build/robotology/wb&#45;toolbox/toolbox/src/library/src/RobotInterface.cpp</title>
<!-- Node1 -->
<g id="node1" class="node"><title>Node1</title>
<polygon fill="#bfbfbf" stroke="black" points="1115.5,-125 1115.5,-177 1230.5,-177 1230.5,-125 1115.5,-125"/>
<text text-anchor="start" x="1123.5" y="-165" font-family="Helvetica,sans-Serif" font-size="10.00">/home/travis/build</text>
<text text-anchor="start" x="1123.5" y="-154" font-family="Helvetica,sans-Serif" font-size="10.00">/robotology/wb&#45;toolbox</text>
<text text-anchor="start" x="1123.5" y="-143" font-family="Helvetica,sans-Serif" font-size="10.00">/toolbox/src/library/src</text>
<text text-anchor="middle" x="1173" y="-132" font-family="Helvetica,sans-Serif" font-size="10.00">/RobotInterface.cpp</text>
</g>
<!-- Node2 -->
<g id="node2" class="node"><title>Node2</title>
<g id="a_node2"><a xlink:href="_robot_interface_8h.html" target="_top" xlink:title="Base/RobotInterface.h">
<polygon fill="none" stroke="black" points="253.5,-62.5 253.5,-81.5 368.5,-81.5 368.5,-62.5 253.5,-62.5"/>
<text text-anchor="middle" x="311" y="-69.5" font-family="Helvetica,sans-Serif" font-size="10.00">Base/RobotInterface.h</text>
</a>
</g>
</g>
<!-- Node1&#45;&gt;Node2 -->
<g id="edge1" class="edge"><title>Node1&#45;&gt;Node2</title>
<path fill="none" stroke="midnightblue" d="M1115.23,-147.982C984.346,-142.861 655.385,-126.901 383,-88 374.642,-86.8063 365.798,-85.2285 357.276,-83.5446"/>
<polygon fill="midnightblue" stroke="midnightblue" points="357.968,-80.1138 347.47,-81.5358 356.564,-86.9714 357.968,-80.1138"/>
</g>
<!-- Node6 -->
<g id="node6" class="node"><title>Node6</title>
<polygon fill="none" stroke="#bfbfbf" points="425,-0.5 425,-19.5 465,-19.5 465,-0.5 425,-0.5"/>
<text text-anchor="middle" x="445" y="-7.5" font-family="Helvetica,sans-Serif" font-size="10.00">utility</text>
</g>
<!-- Node1&#45;&gt;Node6 -->
<g id="edge31" class="edge"><title>Node1&#45;&gt;Node6</title>
<path fill="none" stroke="midnightblue" d="M1115.22,-149.093C953.045,-145.99 502.322,-133.329 455,-88 439.595,-73.2434 439.414,-47.3071 441.522,-29.6517"/>
<polygon fill="midnightblue" stroke="midnightblue" points="444.996,-30.0904 443.058,-19.6743 438.077,-29.0255 444.996,-30.0904"/>
</g>
<!-- Node7 -->
<g id="node7" class="node"><title>Node7</title>
<g id="a_node7"><a xlink:href="_configuration_8h.html" target="_top" xlink:title="Base/Configuration.h">
<polygon fill="none" stroke="black" points="44,-62.5 44,-81.5 152,-81.5 152,-62.5 44,-62.5"/>
<text text-anchor="middle" x="98" y="-69.5" font-family="Helvetica,sans-Serif" font-size="10.00">Base/Configuration.h</text>
</a>
</g>
</g>
<!-- Node1&#45;&gt;Node7 -->
<g id="edge6" class="edge"><title>Node1&#45;&gt;Node7</title>
<path fill="none" stroke="midnightblue" d="M1115.3,-149.938C960.111,-149.023 521.197,-141.505 161,-88 153.976,-86.9567 146.584,-85.5152 139.432,-83.9355"/>
<polygon fill="midnightblue" stroke="midnightblue" points="139.73,-80.4113 129.197,-81.5524 138.143,-87.229 139.73,-80.4113"/>
</g>
<!-- Node9 -->
<g id="node9" class="node"><title>Node9</title>
<polygon fill="none" stroke="#bfbfbf" points="0,-0.5 0,-19.5 44,-19.5 44,-0.5 0,-0.5"/>
<text text-anchor="middle" x="22" y="-7.5" font-family="Helvetica,sans-Serif" font-size="10.00">vector</text>
</g>
<!-- Node1&#45;&gt;Node9 -->
<g id="edge32" class="edge"><title>Node1&#45;&gt;Node9</title>
<path fill="none" stroke="midnightblue" d="M1115.38,-148.841C889.624,-144.05 75.6525,-124.306 35,-88 18.9983,-73.709 17.8123,-47.6626 19.2396,-29.8553"/>
<polygon fill="midnightblue" stroke="midnightblue" points="22.7329,-30.113 20.391,-19.7802 15.7781,-29.3181 22.7329,-30.113"/>
</g>
<!-- Node10 -->
<g id="node10" class="node"><title>Node10</title>
<g id="a_node10"><a xlink:href="_log_8h.html" target="_top" xlink:title="Core/Log.h">
<polygon fill="none" stroke="black" points="170.5,-62.5 170.5,-81.5 235.5,-81.5 235.5,-62.5 170.5,-62.5"/>
<text text-anchor="middle" x="203" y="-69.5" font-family="Helvetica,sans-Serif" font-size="10.00">Core/Log.h</text>
</a>
</g>
</g>
<!-- Node1&#45;&gt;Node10 -->
<g id="edge11" class="edge"><title>Node1&#45;&gt;Node10</title>
<path fill="none" stroke="midnightblue" d="M1115.27,-148.291C939.343,-142.744 411.724,-123.518 244,-88 240.297,-87.2159 236.479,-86.1669 232.731,-84.9862"/>
<polygon fill="midnightblue" stroke="midnightblue" points="233.697,-81.6168 223.102,-81.6447 231.402,-88.2299 233.697,-81.6168"/>
</g>
<!-- Node11 -->
<g id="node11" class="node"><title>Node11</title>
<polygon fill="none" stroke="#bfbfbf" points="355,-0.5 355,-19.5 407,-19.5 407,-0.5 355,-0.5"/>
<text text-anchor="middle" x="381" y="-7.5" font-family="Helvetica,sans-Serif" font-size="10.00">sstream</text>
</g>
<!-- Node1&#45;&gt;Node11 -->
<g id="edge29" class="edge"><title>Node1&#45;&gt;Node11</title>
<path fill="none" stroke="midnightblue" d="M1115.35,-147.892C952.253,-141.546 495.585,-121.003 437,-88 413.535,-74.7817 397.255,-47.1991 388.519,-28.8906"/>
<polygon fill="midnightblue" stroke="midnightblue" points="391.634,-27.2828 384.347,-19.5921 385.247,-30.1486 391.634,-27.2828"/>
</g>
<!-- Node12 -->
<g id="node12" class="node"><title>Node12</title>
<polygon fill="none" stroke="#bfbfbf" points="463.5,-62.5 463.5,-81.5 624.5,-81.5 624.5,-62.5 463.5,-62.5"/>
<text text-anchor="middle" x="544" y="-69.5" font-family="Helvetica,sans-Serif" font-size="10.00">iDynTree/KinDynComputations.h</text>
</g>
<!-- Node1&#45;&gt;Node12 -->
<g id="edge15" class="edge"><title>Node1&#45;&gt;Node12</title>
<path fill="none" stroke="midnightblue" d="M1115.44,-144.346C1016.73,-134.433 808.889,-112.617 634,-88 623.777,-86.5611 612.927,-84.8827 602.43,-83.1799"/>
<polygon fill="midnightblue" stroke="midnightblue" points="602.943,-79.7173 592.507,-81.547 601.806,-86.6244 602.943,-79.7173"/>
</g>
<!-- Node13 -->
<g id="node13" class="node"><title>Node13</title>
<polygon fill="none" stroke="#bfbfbf" points="642.5,-57 642.5,-87 785.5,-87 785.5,-57 642.5,-57"/>
<text text-anchor="start" x="650.5" y="-75" font-family="Helvetica,sans-Serif" font-size="10.00">iDynTree/Model/FreeFloating</text>
<text text-anchor="middle" x="714" y="-64" font-family="Helvetica,sans-Serif" font-size="10.00">Matrices.h</text>
</g>
<!-- Node1&#45;&gt;Node13 -->
<g id="edge16" class="edge"><title>Node1&#45;&gt;Node13</title>
<path fill="none" stroke="midnightblue" d="M1115.3,-140.914C1043.14,-129.466 915.552,-108.947 795.633,-88.09"/>
<polygon fill="midnightblue" stroke="midnightblue" points="795.992,-84.5998 785.539,-86.3304 794.79,-91.4958 795.992,-84.5998"/>
</g>
<!-- Node14 -->
<g id="node14" class="node"><title>Node14</title>
<polygon fill="none" stroke="#bfbfbf" points="804,-62.5 804,-81.5 932,-81.5 932,-62.5 804,-62.5"/>
<text text-anchor="middle" x="868" y="-69.5" font-family="Helvetica,sans-Serif" font-size="10.00">iDynTree/Model/Indices.h</text>
</g>
<!-- Node1&#45;&gt;Node14 -->
<g id="edge17" class="edge"><title>Node1&#45;&gt;Node14</title>
<path fill="none" stroke="midnightblue" d="M1115.27,-135.426C1056.05,-120.476 965.246,-97.5506 911.722,-84.0381"/>
<polygon fill="midnightblue" stroke="midnightblue" points="912.409,-80.6018 901.857,-81.5474 910.696,-87.3888 912.409,-80.6018"/>
</g>
<!-- Node15 -->
<g id="node15" class="node"><title>Node15</title>
<polygon fill="none" stroke="#bfbfbf" points="950.5,-62.5 950.5,-81.5 1073.5,-81.5 1073.5,-62.5 950.5,-62.5"/>
<text text-anchor="middle" x="1012" y="-69.5" font-family="Helvetica,sans-Serif" font-size="10.00">iDynTree/Model/Model.h</text>
</g>
<!-- Node1&#45;&gt;Node15 -->
<g id="edge18" class="edge"><title>Node1&#45;&gt;Node15</title>
<path fill="none" stroke="midnightblue" d="M1120.28,-124.787C1093.12,-111.797 1061.15,-96.5067 1039.02,-85.9239"/>
<polygon fill="midnightblue" stroke="midnightblue" points="1040.42,-82.7148 1029.89,-81.5577 1037.4,-89.0298 1040.42,-82.7148"/>
</g>
<!-- Node16 -->
<g id="node16" class="node"><title>Node16</title>
<polygon fill="none" stroke="#bfbfbf" points="1091.5,-62.5 1091.5,-81.5 1254.5,-81.5 1254.5,-62.5 1091.5,-62.5"/>
<text text-anchor="middle" x="1173" y="-69.5" font-family="Helvetica,sans-Serif" font-size="10.00">iDynTree/ModelIO/ModelLoader.h</text>
</g>
<!-- Node1&#45;&gt;Node16 -->
<g id="edge19" class="edge"><title>Node1&#45;&gt;Node16</title>
<path fill="none" stroke="midnightblue" d="M1173,-124.787C1173,-114.069 1173,-101.785 1173,-91.8708"/>
<polygon fill="midnightblue" stroke="midnightblue" points="1176.5,-91.5577 1173,-81.5577 1169.5,-91.5577 1176.5,-91.5577"/>
</g>
<!-- Node17 -->
<g id="node17" class="node"><title>Node17</title>
<polygon fill="none" stroke="#bfbfbf" points="1273,-62.5 1273,-81.5 1439,-81.5 1439,-62.5 1273,-62.5"/>
<text text-anchor="middle" x="1356" y="-69.5" font-family="Helvetica,sans-Serif" font-size="10.00">yarp/dev/ControlBoardInterfaces.h</text>
</g>
<!-- Node1&#45;&gt;Node17 -->
<g id="edge20" class="edge"><title>Node1&#45;&gt;Node17</title>
<path fill="none" stroke="midnightblue" d="M1230.65,-125.742C1262.42,-112.374 1300.53,-96.3388 1326.33,-85.4857"/>
<polygon fill="midnightblue" stroke="midnightblue" points="1327.71,-88.7007 1335.57,-81.5963 1325,-82.2486 1327.71,-88.7007"/>
</g>
<!-- Node18 -->
<g id="node18" class="node"><title>Node18</title>
<polygon fill="none" stroke="#bfbfbf" points="1457.5,-62.5 1457.5,-81.5 1568.5,-81.5 1568.5,-62.5 1457.5,-62.5"/>
<text text-anchor="middle" x="1513" y="-69.5" font-family="Helvetica,sans-Serif" font-size="10.00">yarp/dev/PolyDriver.h</text>
</g>
<!-- Node1&#45;&gt;Node18 -->
<g id="edge21" class="edge"><title>Node1&#45;&gt;Node18</title>
<path fill="none" stroke="midnightblue" d="M1230.69,-137.081C1286.35,-124.598 1372.97,-105.116 1448,-88 1453.86,-86.6635 1460.01,-85.2525 1466.1,-83.8521"/>
<polygon fill="midnightblue" stroke="midnightblue" points="1467.27,-87.1758 1476.23,-81.5205 1465.7,-80.3544 1467.27,-87.1758"/>
</g>
<!-- Node19 -->
<g id="node19" class="node"><title>Node19</title>
<polygon fill="none" stroke="#bfbfbf" points="1587,-62.5 1587,-81.5 1673,-81.5 1673,-62.5 1587,-62.5"/>
<text text-anchor="middle" x="1630" y="-69.5" font-family="Helvetica,sans-Serif" font-size="10.00">yarp/os/Bottle.h</text>
</g>
<!-- Node1&#45;&gt;Node19 -->
<g id="edge22" class="edge"><title>Node1&#45;&gt;Node19</title>
<path fill="none" stroke="midnightblue" d="M1230.61,-143.432C1309.36,-133.94 1454.79,-114.566 1577,-88 1582.07,-86.8984 1587.37,-85.5903 1592.57,-84.2127"/>
<polygon fill="midnightblue" stroke="midnightblue" points="1593.67,-87.5414 1602.38,-81.5137 1591.81,-80.7923 1593.67,-87.5414"/>
</g>
<!-- Node20 -->
<g id="node20" class="node"><title>Node20</title>
<polygon fill="none" stroke="#bfbfbf" points="1691.5,-62.5 1691.5,-81.5 1788.5,-81.5 1788.5,-62.5 1691.5,-62.5"/>
<text text-anchor="middle" x="1740" y="-69.5" font-family="Helvetica,sans-Serif" font-size="10.00">yarp/os/Network.h</text>
</g>
<!-- Node1&#45;&gt;Node20 -->
<g id="edge23" class="edge"><title>Node1&#45;&gt;Node20</title>
<path fill="none" stroke="midnightblue" d="M1230.63,-145.474C1325.38,-137.476 1519.75,-118.724 1682,-88 1687.89,-86.8843 1694.07,-85.5103 1700.11,-84.0509"/>
<polygon fill="midnightblue" stroke="midnightblue" points="1701.22,-87.3802 1710.07,-81.5449 1699.51,-80.5919 1701.22,-87.3802"/>
</g>
<!-- Node21 -->
<g id="node21" class="node"><title>Node21</title>
<polygon fill="none" stroke="#bfbfbf" points="1806.5,-62.5 1806.5,-81.5 1903.5,-81.5 1903.5,-62.5 1806.5,-62.5"/>
<text text-anchor="middle" x="1855" y="-69.5" font-family="Helvetica,sans-Serif" font-size="10.00">yarp/os/Property.h</text>
</g>
<!-- Node1&#45;&gt;Node21 -->
<g id="edge24" class="edge"><title>Node1&#45;&gt;Node21</title>
<path fill="none" stroke="midnightblue" d="M1230.62,-147.247C1341.16,-141.309 1590.4,-124.753 1797,-88 1803.18,-86.9002 1809.67,-85.4848 1815.99,-83.9639"/>
<polygon fill="midnightblue" stroke="midnightblue" points="1816.85,-87.3567 1825.69,-81.5172 1815.13,-80.5693 1816.85,-87.3567"/>
</g>
<!-- Node22 -->
<g id="node22" class="node"><title>Node22</title>
<polygon fill="none" stroke="#bfbfbf" points="1921.5,-62.5 1921.5,-81.5 2050.5,-81.5 2050.5,-62.5 1921.5,-62.5"/>
<text text-anchor="middle" x="1986" y="-69.5" font-family="Helvetica,sans-Serif" font-size="10.00">yarp/os/ResourceFinder.h</text>
</g>
<!-- Node1&#45;&gt;Node22 -->
<g id="edge25" class="edge"><title>Node1&#45;&gt;Node22</title>
<path fill="none" stroke="midnightblue" d="M1230.75,-147.444C1355.57,-141.419 1659.64,-124.039 1912,-88 1920.49,-86.7879 1929.47,-85.216 1938.14,-83.5473"/>
<polygon fill="midnightblue" stroke="midnightblue" points="1939,-86.9449 1948.12,-81.5597 1937.63,-80.0797 1939,-86.9449"/>
</g>
<!-- Node23 -->
<g id="node23" class="node"><title>Node23</title>
<polygon fill="none" stroke="#bfbfbf" points="2068.5,-62.5 2068.5,-81.5 2117.5,-81.5 2117.5,-62.5 2068.5,-62.5"/>
<text text-anchor="middle" x="2093" y="-69.5" font-family="Helvetica,sans-Serif" font-size="10.00">cassert</text>
</g>
<!-- Node1&#45;&gt;Node23 -->
<g id="edge26" class="edge"><title>Node1&#45;&gt;Node23</title>
<path fill="none" stroke="midnightblue" d="M1230.56,-148.558C1401,-143.882 1901,-127.115 2059,-88 2061.82,-87.3023 2064.7,-86.3865 2067.53,-85.3506"/>
<polygon fill="midnightblue" stroke="midnightblue" points="2068.9,-88.5688 2076.8,-81.5097 2066.22,-82.1012 2068.9,-88.5688"/>
</g>
<!-- Node24 -->
<g id="node24" class="node"><title>Node24</title>
<polygon fill="none" stroke="#bfbfbf" points="2136,-62.5 2136,-81.5 2182,-81.5 2182,-62.5 2136,-62.5"/>
<text text-anchor="middle" x="2159" y="-69.5" font-family="Helvetica,sans-Serif" font-size="10.00">chrono</text>
</g>
<!-- Node1&#45;&gt;Node24 -->
<g id="edge27" class="edge"><title>Node1&#45;&gt;Node24</title>
<path fill="none" stroke="midnightblue" d="M1230.76,-148.964C1410.01,-145.321 1954.93,-130.916 2126,-88 2128.66,-87.3339 2131.36,-86.461 2134.02,-85.4709"/>
<polygon fill="midnightblue" stroke="midnightblue" points="2135.47,-88.6592 2143.31,-81.5312 2132.74,-82.2153 2135.47,-88.6592"/>
</g>
<!-- Node25 -->
<g id="node25" class="node"><title>Node25</title>
<polygon fill="none" stroke="#bfbfbf" points="2200.5,-62.5 2200.5,-81.5 2259.5,-81.5 2259.5,-62.5 2200.5,-62.5"/>
<text text-anchor="middle" x="2230" y="-69.5" font-family="Helvetica,sans-Serif" font-size="10.00">functional</text>
</g>
<!-- Node1&#45;&gt;Node25 -->
<g id="edge28" class="edge"><title>Node1&#45;&gt;Node25</title>
<path fill="none" stroke="midnightblue" d="M1230.61,-148.805C1417.51,-144.565 2005.65,-128.282 2191,-88 2194.51,-87.2374 2198.12,-86.2089 2201.66,-85.0458"/>
<polygon fill="midnightblue" stroke="midnightblue" points="2203.12,-88.2382 2211.31,-81.5207 2200.72,-81.6628 2203.12,-88.2382"/>
</g>
<!-- Node26 -->
<g id="node26" class="node"><title>Node26</title>
<polygon fill="none" stroke="#bfbfbf" points="2278,-62.5 2278,-81.5 2322,-81.5 2322,-62.5 2278,-62.5"/>
<text text-anchor="middle" x="2300" y="-69.5" font-family="Helvetica,sans-Serif" font-size="10.00">thread</text>
</g>
<!-- Node1&#45;&gt;Node26 -->
<g id="edge30" class="edge"><title>Node1&#45;&gt;Node26</title>
<path fill="none" stroke="midnightblue" d="M1230.58,-149.618C1426.89,-147.868 2068.74,-138.339 2268,-88 2270.5,-87.3688 2273.04,-86.541 2275.54,-85.5981"/>
<polygon fill="midnightblue" stroke="midnightblue" points="2277.04,-88.7609 2284.82,-81.5633 2274.25,-82.3416 2277.04,-88.7609"/>
</g>
<!-- Node3 -->
<g id="node3" class="node"><title>Node3</title>
<polygon fill="none" stroke="#bfbfbf" points="124,-0.5 124,-19.5 176,-19.5 176,-0.5 124,-0.5"/>
<text text-anchor="middle" x="150" y="-7.5" font-family="Helvetica,sans-Serif" font-size="10.00">memory</text>
</g>
<!-- Node2&#45;&gt;Node3 -->
<g id="edge2" class="edge"><title>Node2&#45;&gt;Node3</title>
<path fill="none" stroke="midnightblue" d="M287.933,-62.4035C260.315,-52.1113 213.88,-34.8064 182.604,-23.1504"/>
<polygon fill="midnightblue" stroke="midnightblue" points="183.617,-19.7931 173.025,-19.5806 181.173,-26.3524 183.617,-19.7931"/>
</g>
<!-- Node4 -->
<g id="node4" class="node"><title>Node4</title>
<polygon fill="none" stroke="#bfbfbf" points="194.5,-0.5 194.5,-19.5 235.5,-19.5 235.5,-0.5 194.5,-0.5"/>
<text text-anchor="middle" x="215" y="-7.5" font-family="Helvetica,sans-Serif" font-size="10.00">string</text>
</g>
<!-- Node2&#45;&gt;Node4 -->
<g id="edge3" class="edge"><title>Node2&#45;&gt;Node4</title>
<path fill="none" stroke="midnightblue" d="M297.246,-62.4035C281.634,-52.646 255.937,-36.5854 237.417,-25.0109"/>
<polygon fill="midnightblue" stroke="midnightblue" points="239.064,-21.9126 228.729,-19.5806 235.354,-27.8486 239.064,-21.9126"/>
</g>
<!-- Node5 -->
<g id="node5" class="node"><title>Node5</title>
<polygon fill="none" stroke="#bfbfbf" points="253.5,-0.5 253.5,-19.5 336.5,-19.5 336.5,-0.5 253.5,-0.5"/>
<text text-anchor="middle" x="295" y="-7.5" font-family="Helvetica,sans-Serif" font-size="10.00">unordered_map</text>
</g>
<!-- Node2&#45;&gt;Node5 -->
<g id="edge4" class="edge"><title>Node2&#45;&gt;Node5</title>
<path fill="none" stroke="midnightblue" d="M308.708,-62.4035C306.426,-53.849 302.853,-40.4497 299.927,-29.4762"/>
<polygon fill="midnightblue" stroke="midnightblue" points="303.247,-28.3411 297.288,-19.5806 296.483,-30.1448 303.247,-28.3411"/>
</g>
<!-- Node2&#45;&gt;Node6 -->
<g id="edge5" class="edge"><title>Node2&#45;&gt;Node6</title>
<path fill="none" stroke="midnightblue" d="M330.199,-62.4035C352.787,-52.2896 390.499,-35.4036 416.501,-23.761"/>
<polygon fill="midnightblue" stroke="midnightblue" points="418.14,-26.8617 425.837,-19.5806 415.279,-20.4729 418.14,-26.8617"/>
</g>
<!-- Node7&#45;&gt;Node3 -->
<g id="edge8" class="edge"><title>Node7&#45;&gt;Node3</title>
<path fill="none" stroke="midnightblue" d="M105.45,-62.4035C113.328,-53.3143 125.945,-38.7559 135.744,-27.4489"/>
<polygon fill="midnightblue" stroke="midnightblue" points="138.659,-29.4298 142.563,-19.5806 133.369,-24.8452 138.659,-29.4298"/>
</g>
<!-- Node7&#45;&gt;Node4 -->
<g id="edge9" class="edge"><title>Node7&#45;&gt;Node4</title>
<path fill="none" stroke="midnightblue" d="M114.763,-62.4035C134.225,-52.4232 166.545,-35.8487 189.211,-24.2253"/>
<polygon fill="midnightblue" stroke="midnightblue" points="190.967,-27.2582 198.268,-19.5806 187.773,-21.0294 190.967,-27.2582"/>
</g>
<!-- Node8 -->
<g id="node8" class="node"><title>Node8</title>
<polygon fill="none" stroke="#bfbfbf" points="68,-0.5 68,-19.5 106,-19.5 106,-0.5 68,-0.5"/>
<text text-anchor="middle" x="87" y="-7.5" font-family="Helvetica,sans-Serif" font-size="10.00">array</text>
</g>
<!-- Node7&#45;&gt;Node8 -->
<g id="edge7" class="edge"><title>Node7&#45;&gt;Node8</title>
<path fill="none" stroke="midnightblue" d="M96.424,-62.4035C94.8556,-53.849 92.3991,-40.4497 90.3873,-29.4762"/>
<polygon fill="midnightblue" stroke="midnightblue" points="93.8191,-28.7855 88.5731,-19.5806 86.9338,-30.0478 93.8191,-28.7855"/>
</g>
<!-- Node7&#45;&gt;Node9 -->
<g id="edge10" class="edge"><title>Node7&#45;&gt;Node9</title>
<path fill="none" stroke="midnightblue" d="M87.1111,-62.4035C75.0338,-52.8688 55.3329,-37.3154 40.76,-25.8106"/>
<polygon fill="midnightblue" stroke="midnightblue" points="42.8864,-23.03 32.8687,-19.5806 38.5488,-28.5242 42.8864,-23.03"/>
</g>
<!-- Node10&#45;&gt;Node3 -->
<g id="edge12" class="edge"><title>Node10&#45;&gt;Node3</title>
<path fill="none" stroke="midnightblue" d="M195.406,-62.4035C187.299,-53.2252 174.265,-38.4699 164.237,-27.1173"/>
<polygon fill="midnightblue" stroke="midnightblue" points="166.823,-24.7582 157.58,-19.5806 161.577,-29.3925 166.823,-24.7582"/>
</g>
<!-- Node10&#45;&gt;Node4 -->
<g id="edge14" class="edge"><title>Node10&#45;&gt;Node4</title>
<path fill="none" stroke="midnightblue" d="M204.719,-62.4035C206.43,-53.849 209.11,-40.4497 211.305,-29.4762"/>
<polygon fill="midnightblue" stroke="midnightblue" points="214.755,-30.0728 213.284,-19.5806 207.891,-28.7 214.755,-30.0728"/>
</g>
<!-- Node10&#45;&gt;Node11 -->
<g id="edge13" class="edge"><title>Node10&#45;&gt;Node11</title>
<path fill="none" stroke="midnightblue" d="M225.937,-62.4553C231.812,-60.3091 238.128,-58.0378 244,-56 278.229,-44.1206 317.543,-31.2906 345.252,-22.3816"/>
<polygon fill="midnightblue" stroke="midnightblue" points="346.451,-25.6727 354.904,-19.2858 344.313,-19.0071 346.451,-25.6727"/>
</g>
</g>
</svg>
        <g id="navigator" transform="translate(0 0)" fill="#404254">
                <rect fill="#f2f5e9" fill-opacity="0.5" stroke="#606060" stroke-width=".5" x="0" y="0" width="60" height="60"/>
                <use id="zoomplus" xlink:href="#zoomPlus" x="17" y="9" onmousedown="handleZoom(evt,'in')"/>
                <use id="zoomminus" xlink:href="#zoomMin" x="42" y="9" onmousedown="handleZoom(evt,'out')"/>
                <use id="reset" xlink:href="#resetDef" x="30" y="36" onmousedown="handleReset()"/>
                <g id="arrowUp" xlink:href="#dirArrow" transform="translate(30 24)" onmousedown="handlePan(0,-1)">
                  <use xlink:href="#rim" fill="#404040">
                        <set attributeName="fill" to="#808080" begin="arrowUp.mouseover" end="arrowUp.mouseout"/>
                  </use>
                  <path fill="none" stroke="white" stroke-width="1.5" d="M0,-3.0v7 M-2.5,-0.5L0,-3.0L2.5,-0.5"/>
                </g>
                <g id="arrowRight" xlink:href="#dirArrow" transform="rotate(90) translate(36 -43)" onmousedown="handlePan(1,0)">
                  <use xlink:href="#rim" fill="#404040">
                        <set attributeName="fill" to="#808080" begin="arrowRight.mouseover" end="arrowRight.mouseout"/>
                  </use>
                  <path fill="none" stroke="white" stroke-width="1.5" d="M0,-3.0v7 M-2.5,-0.5L0,-3.0L2.5,-0.5"/>
                </g>
                <g id="arrowDown" xlink:href="#dirArrow" transform="rotate(180) translate(-30 -48)" onmousedown="handlePan(0,1)">
                  <use xlink:href="#rim" fill="#404040">
                        <set attributeName="fill" to="#808080" begin="arrowDown.mouseover" end="arrowDown.mouseout"/>
                  </use>
                  <path fill="none" stroke="white" stroke-width="1.5" d="M0,-3.0v7 M-2.5,-0.5L0,-3.0L2.5,-0.5"/>
                </g>
                <g id="arrowLeft" xlink:href="#dirArrow" transform="rotate(270) translate(-36 17)" onmousedown="handlePan(-1,0)">
                  <use xlink:href="#rim" fill="#404040">
                        <set attributeName="fill" to="#808080" begin="arrowLeft.mouseover" end="arrowLeft.mouseout"/>
                  </use>
                  <path fill="none" stroke="white" stroke-width="1.5" d="M0,-3.0v7 M-2.5,-0.5L0,-3.0L2.5,-0.5"/>
                </g>
        </g>
        <svg viewBox="0 0 15 15" width="100%" height="30px" preserveAspectRatio="xMaxYMin meet">
         <g id="arrow_out" transform="scale(0.3 0.3)">
          <a xlink:href="_robot_interface_8cpp__incl_org.svg" target="_base">
           <rect id="button" ry="5" rx="5" y="6" x="6" height="38" width="38"
                fill="#f2f5e9" fill-opacity="0.5" stroke="#606060" stroke-width="1.0"/>
           <path id="arrow"
             d="M 11.500037,31.436501 C 11.940474,20.09759 22.043105,11.32322 32.158766,21.979434 L 37.068811,17.246167 C 37.068811,17.246167 37.088388,32 37.088388,32 L 22.160133,31.978069 C 22.160133,31.978069 26.997745,27.140456 26.997745,27.140456 C 18.528582,18.264221 13.291696,25.230495 11.500037,31.436501 z"
             style="fill:#404040;"/>
          </a>
         </g>
        </svg>
</svg>
