<?xml version="1.0" encoding="UTF-8" standalone="no"?>
<!DOCTYPE svg PUBLIC "-//W3C//DTD SVG 1.1//EN"
 "http://www.w3.org/Graphics/SVG/1.1/DTD/svg11.dtd">
<!-- Generated by graphviz version 2.36.0 (20140111.2315)
 -->
<!-- Title: /home/travis/build/robotology/wb&#45;toolbox/toolbox/src/base/RobotInterface.cpp Pages: 1 -->
<svg width="2266pt" height="174pt"
 viewBox="0.00 0.00 2266.00 174.00" xmlns="http://www.w3.org/2000/svg" xmlns:xlink="http://www.w3.org/1999/xlink">
<g id="graph0" class="graph" transform="scale(1 1) rotate(0) translate(4 170)">
<title>/home/travis/build/robotology/wb&#45;toolbox/toolbox/src/base/RobotInterface.cpp</title>
<!-- Node1 -->
<g id="node1" class="node"><title>Node1</title>
<polygon fill="#bfbfbf" stroke="black" points="1020,-124.5 1020,-165.5 1198,-165.5 1198,-124.5 1020,-124.5"/>
<text text-anchor="start" x="1028" y="-153.5" font-family="Helvetica,sans-Serif" font-size="10.00">/home/travis/build</text>
<text text-anchor="start" x="1028" y="-142.5" font-family="Helvetica,sans-Serif" font-size="10.00">/robotology/wb&#45;toolbox</text>
<text text-anchor="middle" x="1109" y="-131.5" font-family="Helvetica,sans-Serif" font-size="10.00">/toolbox/src/base/RobotInterface.cpp</text>
</g>
<!-- Node2 -->
<g id="node2" class="node"><title>Node2</title>
<g id="a_node2"><a xlink:href="_robot_interface_8h.html" target="_top" xlink:title="RobotInterface.h">
<polygon fill="none" stroke="black" points="55.5,-62.5 55.5,-81.5 144.5,-81.5 144.5,-62.5 55.5,-62.5"/>
<text text-anchor="middle" x="100" y="-69.5" font-family="Helvetica,sans-Serif" font-size="10.00">RobotInterface.h</text>
</a>
</g>
</g>
<!-- Node1&#45;&gt;Node2 -->
<g id="edge1" class="edge"><title>Node1&#45;&gt;Node2</title>
<path fill="none" stroke="midnightblue" d="M1019.92,-141.256C815.607,-134.561 318.169,-115.869 153,-88 147.401,-87.0553 141.548,-85.7419 135.861,-84.2817"/>
<polygon fill="midnightblue" stroke="midnightblue" points="136.462,-80.8171 125.892,-81.5426 134.607,-87.567 136.462,-80.8171"/>
</g>
<!-- Node6 -->
<g id="node6" class="node"><title>Node6</title>
<polygon fill="none" stroke="#bfbfbf" points="0,-0.5 0,-19.5 40,-19.5 40,-0.5 0,-0.5"/>
<text text-anchor="middle" x="20" y="-7.5" font-family="Helvetica,sans-Serif" font-size="10.00">utility</text>
</g>
<!-- Node1&#45;&gt;Node6 -->
<g id="edge30" class="edge"><title>Node1&#45;&gt;Node6</title>
<path fill="none" stroke="midnightblue" d="M1019.9,-142.013C771.092,-136.106 84.5364,-117.228 46,-88 28.1255,-74.4429 22.4248,-48.0229 20.6709,-29.9479"/>
<polygon fill="midnightblue" stroke="midnightblue" points="24.163,-29.711 20.0154,-19.9617 17.178,-30.1695 24.163,-29.711"/>
</g>
<!-- Node7 -->
<g id="node7" class="node"><title>Node7</title>
<g id="a_node7"><a xlink:href="_configuration_8h.html" target="_top" xlink:title="Configuration.h">
<polygon fill="none" stroke="black" points="162.5,-62.5 162.5,-81.5 245.5,-81.5 245.5,-62.5 162.5,-62.5"/>
<text text-anchor="middle" x="204" y="-69.5" font-family="Helvetica,sans-Serif" font-size="10.00">Configuration.h</text>
</a>
</g>
</g>
<!-- Node1&#45;&gt;Node7 -->
<g id="edge6" class="edge"><title>Node1&#45;&gt;Node7</title>
<path fill="none" stroke="midnightblue" d="M1019.89,-144.753C863.527,-144.616 530.135,-137.801 254,-88 248.837,-87.0688 243.452,-85.7917 238.21,-84.3728"/>
<polygon fill="midnightblue" stroke="midnightblue" points="238.979,-80.9518 228.4,-81.523 237.027,-87.6739 238.979,-80.9518"/>
</g>
<!-- Node8 -->
<g id="node8" class="node"><title>Node8</title>
<polygon fill="none" stroke="#bfbfbf" points="290,-0.5 290,-19.5 334,-19.5 334,-0.5 290,-0.5"/>
<text text-anchor="middle" x="312" y="-7.5" font-family="Helvetica,sans-Serif" font-size="10.00">vector</text>
</g>
<!-- Node1&#45;&gt;Node8 -->
<g id="edge31" class="edge"><title>Node1&#45;&gt;Node8</title>
<path fill="none" stroke="midnightblue" d="M1019.88,-141.255C836.171,-135.018 427.833,-117.949 372,-88 347.554,-74.8871 329.84,-47.0626 320.243,-28.7008"/>
<polygon fill="midnightblue" stroke="midnightblue" points="323.326,-27.039 315.755,-19.6269 317.051,-30.1422 323.326,-27.039"/>
</g>
<!-- Node9 -->
<g id="node9" class="node"><title>Node9</title>
<g id="a_node9"><a xlink:href="_log_8h.html" target="_top" xlink:title="Log.h">
<polygon fill="none" stroke="black" points="263.5,-62.5 263.5,-81.5 304.5,-81.5 304.5,-62.5 263.5,-62.5"/>
<text text-anchor="middle" x="284" y="-69.5" font-family="Helvetica,sans-Serif" font-size="10.00">Log.h</text>
</a>
</g>
</g>
<!-- Node1&#45;&gt;Node9 -->
<g id="edge10" class="edge"><title>Node1&#45;&gt;Node9</title>
<path fill="none" stroke="midnightblue" d="M1019.71,-141.412C841.963,-135.646 449.704,-119.685 319,-88 316.109,-87.2991 313.153,-86.3812 310.244,-85.3441"/>
<polygon fill="midnightblue" stroke="midnightblue" points="311.281,-81.989 300.698,-81.5017 308.668,-88.4827 311.281,-81.989"/>
</g>
<!-- Node10 -->
<g id="node10" class="node"><title>Node10</title>
<polygon fill="none" stroke="#bfbfbf" points="352,-0.5 352,-19.5 404,-19.5 404,-0.5 352,-0.5"/>
<text text-anchor="middle" x="378" y="-7.5" font-family="Helvetica,sans-Serif" font-size="10.00">sstream</text>
</g>
<!-- Node1&#45;&gt;Node10 -->
<g id="edge28" class="edge"><title>Node1&#45;&gt;Node10</title>
<path fill="none" stroke="midnightblue" d="M1019.76,-143.074C837.64,-140.329 436.474,-129.579 391,-88 375.167,-73.5227 373.941,-47.5203 375.313,-29.7738"/>
<polygon fill="midnightblue" stroke="midnightblue" points="378.803,-30.0634 376.429,-19.7378 371.845,-29.2897 378.803,-30.0634"/>
</g>
<!-- Node11 -->
<g id="node11" class="node"><title>Node11</title>
<polygon fill="none" stroke="#bfbfbf" points="399.5,-62.5 399.5,-81.5 560.5,-81.5 560.5,-62.5 399.5,-62.5"/>
<text text-anchor="middle" x="480" y="-69.5" font-family="Helvetica,sans-Serif" font-size="10.00">iDynTree/KinDynComputations.h</text>
</g>
<!-- Node1&#45;&gt;Node11 -->
<g id="edge14" class="edge"><title>Node1&#45;&gt;Node11</title>
<path fill="none" stroke="midnightblue" d="M1019.63,-136.413C912.539,-126.931 727.796,-109.326 570,-88 559.65,-86.6013 548.662,-84.9281 538.051,-83.2146"/>
<polygon fill="midnightblue" stroke="midnightblue" points="538.461,-79.7351 528.026,-81.5671 537.326,-86.6425 538.461,-79.7351"/>
</g>
<!-- Node12 -->
<g id="node12" class="node"><title>Node12</title>
<polygon fill="none" stroke="#bfbfbf" points="578.5,-57 578.5,-87 721.5,-87 721.5,-57 578.5,-57"/>
<text text-anchor="start" x="586.5" y="-75" font-family="Helvetica,sans-Serif" font-size="10.00">iDynTree/Model/FreeFloating</text>
<text text-anchor="middle" x="650" y="-64" font-family="Helvetica,sans-Serif" font-size="10.00">Matrices.h</text>
</g>
<!-- Node1&#45;&gt;Node12 -->
<g id="edge15" class="edge"><title>Node1&#45;&gt;Node12</title>
<path fill="none" stroke="midnightblue" d="M1019.88,-131.721C945.59,-121.271 836.71,-105.462 731.68,-88.0777"/>
<polygon fill="midnightblue" stroke="midnightblue" points="731.968,-84.5776 721.529,-86.3906 730.82,-91.4829 731.968,-84.5776"/>
</g>
<!-- Node13 -->
<g id="node13" class="node"><title>Node13</title>
<polygon fill="none" stroke="#bfbfbf" points="740,-62.5 740,-81.5 868,-81.5 868,-62.5 740,-62.5"/>
<text text-anchor="middle" x="804" y="-69.5" font-family="Helvetica,sans-Serif" font-size="10.00">iDynTree/Model/Indices.h</text>
</g>
<!-- Node1&#45;&gt;Node13 -->
<g id="edge16" class="edge"><title>Node1&#45;&gt;Node13</title>
<path fill="none" stroke="midnightblue" d="M1024.85,-124.411C968.623,-111.322 896.766,-94.5948 850.559,-83.8384"/>
<polygon fill="midnightblue" stroke="midnightblue" points="851.066,-80.3629 840.533,-81.5045 849.479,-87.1806 851.066,-80.3629"/>
</g>
<!-- Node14 -->
<g id="node14" class="node"><title>Node14</title>
<polygon fill="none" stroke="#bfbfbf" points="886.5,-62.5 886.5,-81.5 1009.5,-81.5 1009.5,-62.5 886.5,-62.5"/>
<text text-anchor="middle" x="948" y="-69.5" font-family="Helvetica,sans-Serif" font-size="10.00">iDynTree/Model/Model.h</text>
</g>
<!-- Node1&#45;&gt;Node14 -->
<g id="edge17" class="edge"><title>Node1&#45;&gt;Node14</title>
<path fill="none" stroke="midnightblue" d="M1064.58,-124.411C1036.6,-112.073 1001.29,-96.5024 976.905,-85.7471"/>
<polygon fill="midnightblue" stroke="midnightblue" points="978.056,-82.4295 967.494,-81.5968 975.232,-88.8343 978.056,-82.4295"/>
</g>
<!-- Node15 -->
<g id="node15" class="node"><title>Node15</title>
<polygon fill="none" stroke="#bfbfbf" points="1027.5,-62.5 1027.5,-81.5 1190.5,-81.5 1190.5,-62.5 1027.5,-62.5"/>
<text text-anchor="middle" x="1109" y="-69.5" font-family="Helvetica,sans-Serif" font-size="10.00">iDynTree/ModelIO/ModelLoader.h</text>
</g>
<!-- Node1&#45;&gt;Node15 -->
<g id="edge18" class="edge"><title>Node1&#45;&gt;Node15</title>
<path fill="none" stroke="midnightblue" d="M1109,-124.223C1109,-114.086 1109,-101.807 1109,-91.8125"/>
<polygon fill="midnightblue" stroke="midnightblue" points="1112.5,-91.7349 1109,-81.7349 1105.5,-91.7349 1112.5,-91.7349"/>
</g>
<!-- Node16 -->
<g id="node16" class="node"><title>Node16</title>
<polygon fill="none" stroke="#bfbfbf" points="1209,-62.5 1209,-81.5 1375,-81.5 1375,-62.5 1209,-62.5"/>
<text text-anchor="middle" x="1292" y="-69.5" font-family="Helvetica,sans-Serif" font-size="10.00">yarp/dev/ControlBoardInterfaces.h</text>
</g>
<!-- Node1&#45;&gt;Node16 -->
<g id="edge19" class="edge"><title>Node1&#45;&gt;Node16</title>
<path fill="none" stroke="midnightblue" d="M1159.49,-124.411C1191.71,-111.909 1232.5,-96.0866 1260.25,-85.3195"/>
<polygon fill="midnightblue" stroke="midnightblue" points="1261.79,-88.477 1269.84,-81.5968 1259.25,-81.951 1261.79,-88.477"/>
</g>
<!-- Node17 -->
<g id="node17" class="node"><title>Node17</title>
<polygon fill="none" stroke="#bfbfbf" points="1393.5,-62.5 1393.5,-81.5 1504.5,-81.5 1504.5,-62.5 1393.5,-62.5"/>
<text text-anchor="middle" x="1449" y="-69.5" font-family="Helvetica,sans-Serif" font-size="10.00">yarp/dev/PolyDriver.h</text>
</g>
<!-- Node1&#45;&gt;Node17 -->
<g id="edge20" class="edge"><title>Node1&#45;&gt;Node17</title>
<path fill="none" stroke="midnightblue" d="M1198.29,-126.425C1252.15,-115.673 1322.1,-101.442 1384,-88 1390.09,-86.6774 1396.49,-85.2481 1402.81,-83.8153"/>
<polygon fill="midnightblue" stroke="midnightblue" points="1403.63,-87.2175 1412.6,-81.5758 1402.07,-80.3937 1403.63,-87.2175"/>
</g>
<!-- Node18 -->
<g id="node18" class="node"><title>Node18</title>
<polygon fill="none" stroke="#bfbfbf" points="1523,-62.5 1523,-81.5 1609,-81.5 1609,-62.5 1523,-62.5"/>
<text text-anchor="middle" x="1566" y="-69.5" font-family="Helvetica,sans-Serif" font-size="10.00">yarp/os/Bottle.h</text>
</g>
<!-- Node1&#45;&gt;Node18 -->
<g id="edge21" class="edge"><title>Node1&#45;&gt;Node18</title>
<path fill="none" stroke="midnightblue" d="M1198.27,-135.207C1280.54,-126.258 1405.76,-110.496 1513,-88 1518.13,-86.9233 1523.5,-85.6195 1528.76,-84.2353"/>
<polygon fill="midnightblue" stroke="midnightblue" points="1529.96,-87.5373 1538.67,-81.5129 1528.1,-80.7874 1529.96,-87.5373"/>
</g>
<!-- Node19 -->
<g id="node19" class="node"><title>Node19</title>
<polygon fill="none" stroke="#bfbfbf" points="1627.5,-62.5 1627.5,-81.5 1724.5,-81.5 1724.5,-62.5 1627.5,-62.5"/>
<text text-anchor="middle" x="1676" y="-69.5" font-family="Helvetica,sans-Serif" font-size="10.00">yarp/os/Network.h</text>
</g>
<!-- Node1&#45;&gt;Node19 -->
<g id="edge22" class="edge"><title>Node1&#45;&gt;Node19</title>
<path fill="none" stroke="midnightblue" d="M1198.29,-138.074C1300.37,-130.4 1472.19,-114.733 1618,-88 1623.96,-86.9066 1630.22,-85.5333 1636.32,-84.0643"/>
<polygon fill="midnightblue" stroke="midnightblue" points="1637.53,-87.3689 1646.38,-81.5342 1635.83,-80.5805 1637.53,-87.3689"/>
</g>
<!-- Node20 -->
<g id="node20" class="node"><title>Node20</title>
<polygon fill="none" stroke="#bfbfbf" points="1742.5,-62.5 1742.5,-81.5 1839.5,-81.5 1839.5,-62.5 1742.5,-62.5"/>
<text text-anchor="middle" x="1791" y="-69.5" font-family="Helvetica,sans-Serif" font-size="10.00">yarp/os/Property.h</text>
</g>
<!-- Node1&#45;&gt;Node20 -->
<g id="edge23" class="edge"><title>Node1&#45;&gt;Node20</title>
<path fill="none" stroke="midnightblue" d="M1198.2,-140.584C1319.85,-134.883 1544.23,-120.654 1733,-88 1739.19,-86.9296 1745.68,-85.5299 1752,-84.0155"/>
<polygon fill="midnightblue" stroke="midnightblue" points="1752.85,-87.4087 1761.7,-81.5725 1751.14,-80.6206 1752.85,-87.4087"/>
</g>
<!-- Node21 -->
<g id="node21" class="node"><title>Node21</title>
<polygon fill="none" stroke="#bfbfbf" points="1857.5,-62.5 1857.5,-81.5 1986.5,-81.5 1986.5,-62.5 1857.5,-62.5"/>
<text text-anchor="middle" x="1922" y="-69.5" font-family="Helvetica,sans-Serif" font-size="10.00">yarp/os/ResourceFinder.h</text>
</g>
<!-- Node1&#45;&gt;Node21 -->
<g id="edge24" class="edge"><title>Node1&#45;&gt;Node21</title>
<path fill="none" stroke="midnightblue" d="M1198.11,-140.827C1337.36,-135.064 1614.77,-120.347 1848,-88 1856.59,-86.8092 1865.67,-85.2328 1874.43,-83.5494"/>
<polygon fill="midnightblue" stroke="midnightblue" points="1875.39,-86.9279 1884.51,-81.5408 1874.02,-80.0629 1875.39,-86.9279"/>
</g>
<!-- Node22 -->
<g id="node22" class="node"><title>Node22</title>
<polygon fill="none" stroke="#bfbfbf" points="2004.5,-62.5 2004.5,-81.5 2053.5,-81.5 2053.5,-62.5 2004.5,-62.5"/>
<text text-anchor="middle" x="2029" y="-69.5" font-family="Helvetica,sans-Serif" font-size="10.00">cassert</text>
</g>
<!-- Node1&#45;&gt;Node22 -->
<g id="edge25" class="edge"><title>Node1&#45;&gt;Node22</title>
<path fill="none" stroke="midnightblue" d="M1198.32,-142.33C1392.14,-138.06 1845.83,-124.395 1995,-88 1997.82,-87.3118 2000.7,-86.4021 2003.53,-85.37"/>
<polygon fill="midnightblue" stroke="midnightblue" points="2004.91,-88.5891 2012.81,-81.5335 2002.23,-82.1202 2004.91,-88.5891"/>
</g>
<!-- Node23 -->
<g id="node23" class="node"><title>Node23</title>
<polygon fill="none" stroke="#bfbfbf" points="2072,-62.5 2072,-81.5 2118,-81.5 2118,-62.5 2072,-62.5"/>
<text text-anchor="middle" x="2095" y="-69.5" font-family="Helvetica,sans-Serif" font-size="10.00">chrono</text>
</g>
<!-- Node1&#45;&gt;Node23 -->
<g id="edge26" class="edge"><title>Node1&#45;&gt;Node23</title>
<path fill="none" stroke="midnightblue" d="M1198.15,-142.922C1402.56,-139.778 1899.91,-128.123 2062,-88 2064.66,-87.3422 2067.36,-86.4748 2070.03,-85.4882"/>
<polygon fill="midnightblue" stroke="midnightblue" points="2071.47,-88.6773 2079.31,-81.5527 2068.74,-82.2322 2071.47,-88.6773"/>
</g>
<!-- Node24 -->
<g id="node24" class="node"><title>Node24</title>
<polygon fill="none" stroke="#bfbfbf" points="2136.5,-62.5 2136.5,-81.5 2195.5,-81.5 2195.5,-62.5 2136.5,-62.5"/>
<text text-anchor="middle" x="2166" y="-69.5" font-family="Helvetica,sans-Serif" font-size="10.00">functional</text>
</g>
<!-- Node1&#45;&gt;Node24 -->
<g id="edge27" class="edge"><title>Node1&#45;&gt;Node24</title>
<path fill="none" stroke="midnightblue" d="M1198.06,-142.654C1412.16,-138.846 1951,-125.708 2127,-88 2130.51,-87.2477 2134.12,-86.2255 2137.66,-85.0659"/>
<polygon fill="midnightblue" stroke="midnightblue" points="2139.12,-88.2589 2147.32,-81.5441 2136.73,-81.6827 2139.12,-88.2589"/>
</g>
<!-- Node25 -->
<g id="node25" class="node"><title>Node25</title>
<polygon fill="none" stroke="#bfbfbf" points="2214,-62.5 2214,-81.5 2258,-81.5 2258,-62.5 2214,-62.5"/>
<text text-anchor="middle" x="2236" y="-69.5" font-family="Helvetica,sans-Serif" font-size="10.00">thread</text>
</g>
<!-- Node1&#45;&gt;Node25 -->
<g id="edge29" class="edge"><title>Node1&#45;&gt;Node25</title>
<path fill="none" stroke="midnightblue" d="M1198.28,-143.852C1424.25,-142.772 2014.36,-135.358 2204,-88 2206.5,-87.3756 2209.04,-86.5524 2211.54,-85.6124"/>
<polygon fill="midnightblue" stroke="midnightblue" points="2213.04,-88.7761 2220.82,-81.5815 2210.26,-82.3556 2213.04,-88.7761"/>
</g>
<!-- Node3 -->
<g id="node3" class="node"><title>Node3</title>
<polygon fill="none" stroke="#bfbfbf" points="160,-0.5 160,-19.5 212,-19.5 212,-0.5 160,-0.5"/>
<text text-anchor="middle" x="186" y="-7.5" font-family="Helvetica,sans-Serif" font-size="10.00">memory</text>
</g>
<!-- Node2&#45;&gt;Node3 -->
<g id="edge2" class="edge"><title>Node2&#45;&gt;Node3</title>
<path fill="none" stroke="midnightblue" d="M112.322,-62.4035C126.116,-52.7797 148.699,-37.0242 165.232,-25.4891"/>
<polygon fill="midnightblue" stroke="midnightblue" points="167.503,-28.1729 173.701,-19.5806 163.497,-22.432 167.503,-28.1729"/>
</g>
<!-- Node4 -->
<g id="node4" class="node"><title>Node4</title>
<polygon fill="none" stroke="#bfbfbf" points="230.5,-0.5 230.5,-19.5 271.5,-19.5 271.5,-0.5 230.5,-0.5"/>
<text text-anchor="middle" x="251" y="-7.5" font-family="Helvetica,sans-Serif" font-size="10.00">string</text>
</g>
<!-- Node2&#45;&gt;Node4 -->
<g id="edge3" class="edge"><title>Node2&#45;&gt;Node4</title>
<path fill="none" stroke="midnightblue" d="M121.635,-62.4035C147.717,-52.0394 191.697,-34.5642 221.034,-22.907"/>
<polygon fill="midnightblue" stroke="midnightblue" points="222.374,-26.1408 230.375,-19.1954 219.789,-19.6355 222.374,-26.1408"/>
</g>
<!-- Node5 -->
<g id="node5" class="node"><title>Node5</title>
<polygon fill="none" stroke="#bfbfbf" points="58.5,-0.5 58.5,-19.5 141.5,-19.5 141.5,-0.5 58.5,-0.5"/>
<text text-anchor="middle" x="100" y="-7.5" font-family="Helvetica,sans-Serif" font-size="10.00">unordered_map</text>
</g>
<!-- Node2&#45;&gt;Node5 -->
<g id="edge4" class="edge"><title>Node2&#45;&gt;Node5</title>
<path fill="none" stroke="midnightblue" d="M100,-62.4035C100,-53.9381 100,-40.7283 100,-29.8199"/>
<polygon fill="midnightblue" stroke="midnightblue" points="103.5,-29.5806 100,-19.5806 96.5001,-29.5806 103.5,-29.5806"/>
</g>
<!-- Node2&#45;&gt;Node6 -->
<g id="edge5" class="edge"><title>Node2&#45;&gt;Node6</title>
<path fill="none" stroke="midnightblue" d="M88.538,-62.4035C75.825,-52.8688 55.0872,-37.3154 39.7474,-25.8106"/>
<polygon fill="midnightblue" stroke="midnightblue" points="41.5408,-22.7806 31.4408,-19.5806 37.3408,-28.3806 41.5408,-22.7806"/>
</g>
<!-- Node7&#45;&gt;Node3 -->
<g id="edge7" class="edge"><title>Node7&#45;&gt;Node3</title>
<path fill="none" stroke="midnightblue" d="M201.421,-62.4035C198.855,-53.849 194.835,-40.4497 191.543,-29.4762"/>
<polygon fill="midnightblue" stroke="midnightblue" points="194.8,-28.1531 188.574,-19.5806 188.095,-30.1646 194.8,-28.1531"/>
</g>
<!-- Node7&#45;&gt;Node4 -->
<g id="edge8" class="edge"><title>Node7&#45;&gt;Node4</title>
<path fill="none" stroke="midnightblue" d="M210.734,-62.4035C217.784,-53.4034 229.035,-39.0408 237.854,-27.7824"/>
<polygon fill="midnightblue" stroke="midnightblue" points="240.867,-29.6112 244.279,-19.5806 235.357,-25.2946 240.867,-29.6112"/>
</g>
<!-- Node7&#45;&gt;Node8 -->
<g id="edge9" class="edge"><title>Node7&#45;&gt;Node8</title>
<path fill="none" stroke="midnightblue" d="M219.474,-62.4035C237.278,-52.5123 266.741,-36.1442 287.632,-24.5378"/>
<polygon fill="midnightblue" stroke="midnightblue" points="289.513,-27.4966 296.555,-19.5806 286.114,-21.3775 289.513,-27.4966"/>
</g>
<!-- Node9&#45;&gt;Node3 -->
<g id="edge11" class="edge"><title>Node9&#45;&gt;Node3</title>
<path fill="none" stroke="midnightblue" d="M269.959,-62.4035C253.949,-52.6014 227.55,-36.4385 208.626,-24.8526"/>
<polygon fill="midnightblue" stroke="midnightblue" points="210.371,-21.8172 200.015,-19.5806 206.716,-27.7872 210.371,-21.8172"/>
</g>
<!-- Node9&#45;&gt;Node4 -->
<g id="edge13" class="edge"><title>Node9&#45;&gt;Node4</title>
<path fill="none" stroke="midnightblue" d="M279.272,-62.4035C274.42,-53.5816 266.734,-39.6075 260.6,-28.4548"/>
<polygon fill="midnightblue" stroke="midnightblue" points="263.605,-26.656 255.719,-19.5806 257.472,-30.0295 263.605,-26.656"/>
</g>
<!-- Node9&#45;&gt;Node10 -->
<g id="edge12" class="edge"><title>Node9&#45;&gt;Node10</title>
<path fill="none" stroke="midnightblue" d="M297.468,-62.4035C312.685,-52.6905 337.687,-36.7319 355.801,-25.1697"/>
<polygon fill="midnightblue" stroke="midnightblue" points="358.011,-27.9112 364.557,-19.5806 354.245,-22.0108 358.011,-27.9112"/>
</g>
</g>
</svg>
