<?xml version="1.0" encoding="UTF-8" standalone="no"?>
<!DOCTYPE svg PUBLIC "-//W3C//DTD SVG 1.1//EN"
 "http://www.w3.org/Graphics/SVG/1.1/DTD/svg11.dtd">
<!-- Generated by graphviz version 2.38.0 (20140413.2041)
 -->
<!-- Title: /home/travis/build/robotology/wb&#45;toolbox/toolbox/base/include/WBToolbox/Base/RobotInterface.h Pages: 1 -->
<!--zoomable 150 -->
<svg id="main" version="1.1" xmlns="http://www.w3.org/2000/svg" xmlns:xlink="http://www.w3.org/1999/xlink" xml:space="preserve" onload="init(evt)">
<style type="text/css"><![CDATA[
.edge:hover path { stroke: red; }
.edge:hover polygon { stroke: red; fill: red; }
]]></style>
<script type="text/javascript"><![CDATA[
var edges = document.getElementsByTagName('g');
if (edges && edges.length) {
  for (var i=0;i<edges.length;i++) {
    if (edges[i].id.substr(0,4)=='edge') {
      edges[i].setAttribute('class','edge');
    }
  }
}
]]></script>
        <defs>
                <circle id="rim" cx="0" cy="0" r="7"/>
                <circle id="rim2" cx="0" cy="0" r="3.5"/>
                <g id="zoomPlus">
                        <use xlink:href="#rim" fill="#404040">
                                <set attributeName="fill" to="#808080" begin="zoomplus.mouseover" end="zoomplus.mouseout"/>
                        </use>
                        <path d="M-4,0h8M0,-4v8" fill="none" stroke="white" stroke-width="1.5" pointer-events="none"/>
                </g>
                <g id="zoomMin">
                        <use xlink:href="#rim" fill="#404040">
                                <set attributeName="fill" to="#808080" begin="zoomminus.mouseover" end="zoomminus.mouseout"/>
                        </use>
                        <path d="M-4,0h8" fill="none" stroke="white" stroke-width="1.5" pointer-events="none"/>
                </g>
                <g id="dirArrow">
                        <path fill="none" stroke="white" stroke-width="1.5" d="M0,-3.0v7 M-2.5,-0.5L0,-3.0L2.5,-0.5"/>
                </g>
               <g id="resetDef">
                       <use xlink:href="#rim2" fill="#404040">
                               <set attributeName="fill" to="#808080" begin="reset.mouseover" end="reset.mouseout"/>
                       </use>
               </g>
        </defs>

<script type="text/javascript">
var viewWidth = 2649;
var viewHeight = 150;
var sectionId = 'dynsection-1';
</script>
<script xlink:href="svgpan.js"/>
<svg id="graph" class="graph">
<g id="viewport">
<title>/home/travis/build/robotology/wb&#45;toolbox/toolbox/base/include/WBToolbox/Base/RobotInterface.h</title>
<!-- Node1 -->
<g id="node1" class="node"><title>Node1</title>
<polygon fill="#bfbfbf" stroke="black" points="1246.5,-89.5 1246.5,-141.5 1424.5,-141.5 1424.5,-89.5 1246.5,-89.5"/>
<text text-anchor="start" x="1254.5" y="-129.5" font-family="Helvetica,sans-Serif" font-size="10.00">/home/travis/build</text>
<text text-anchor="start" x="1254.5" y="-118.5" font-family="Helvetica,sans-Serif" font-size="10.00">/robotology/wb&#45;toolbox</text>
<text text-anchor="start" x="1254.5" y="-107.5" font-family="Helvetica,sans-Serif" font-size="10.00">/toolbox/base/include</text>
<text text-anchor="middle" x="1335.5" y="-96.5" font-family="Helvetica,sans-Serif" font-size="10.00">/WBToolbox/Base/RobotInterface.h</text>
</g>
<!-- Node2 -->
<g id="node2" class="node"><title>Node2</title>
<g id="a_node2"><a xlink:href="_robot_interface_8cpp.html" target="_top" xlink:title="/home/travis/build\l/robotology/wb&#45;toolbox\l/toolbox/base/src/RobotInterface.cpp">
<polygon fill="none" stroke="black" points="0,-6 0,-47 191,-47 191,-6 0,-6"/>
<text text-anchor="start" x="8" y="-35" font-family="Helvetica,sans-Serif" font-size="10.00">/home/travis/build</text>
<text text-anchor="start" x="8" y="-24" font-family="Helvetica,sans-Serif" font-size="10.00">/robotology/wb&#45;toolbox</text>
<text text-anchor="middle" x="95.5" y="-13" font-family="Helvetica,sans-Serif" font-size="10.00">/toolbox/base/src/RobotInterface.cpp</text>
</a>
</g>
</g>
<!-- Node1&#45;&gt;Node2 -->
<g id="edge1" class="edge"><title>Node1&#45;&gt;Node2</title>
<path fill="none" stroke="midnightblue" d="M1236.19,-115.238C1038.09,-115.363 580.215,-108.909 200.5,-53 190.014,-51.4561 179.042,-49.3516 168.31,-47.0091"/>
<polygon fill="midnightblue" stroke="midnightblue" points="1236.29,-118.738 1246.28,-115.225 1236.28,-111.738 1236.29,-118.738"/>
</g>
<!-- Node3 -->
<g id="node3" class="node"><title>Node3</title>
<g id="a_node3"><a xlink:href="_w_b_block_8cpp.html" target="_top" xlink:title="/home/travis/build\l/robotology/wb&#45;toolbox\l/toolbox/base/src/WBBlock.cpp">
<polygon fill="none" stroke="black" points="209.5,-6 209.5,-47 371.5,-47 371.5,-6 209.5,-6"/>
<text text-anchor="start" x="217.5" y="-35" font-family="Helvetica,sans-Serif" font-size="10.00">/home/travis/build</text>
<text text-anchor="start" x="217.5" y="-24" font-family="Helvetica,sans-Serif" font-size="10.00">/robotology/wb&#45;toolbox</text>
<text text-anchor="middle" x="290.5" y="-13" font-family="Helvetica,sans-Serif" font-size="10.00">/toolbox/base/src/WBBlock.cpp</text>
</a>
</g>
</g>
<!-- Node1&#45;&gt;Node3 -->
<g id="edge2" class="edge"><title>Node1&#45;&gt;Node3</title>
<path fill="none" stroke="midnightblue" d="M1236.03,-114.993C1061.51,-114.328 689.345,-106.08 380.5,-53 371.537,-51.4596 362.189,-49.3729 353.052,-47.0526"/>
<polygon fill="midnightblue" stroke="midnightblue" points="1236.21,-118.493 1246.22,-115.024 1236.23,-111.493 1236.21,-118.493"/>
</g>
<!-- Node4 -->
<g id="node4" class="node"><title>Node4</title>
<g id="a_node4"><a xlink:href="_whole_body_singleton_8cpp.html" target="_top" xlink:title="/home/travis/build\l/robotology/wb&#45;toolbox\l/toolbox/base/src/WholeBodySingleton.cpp">
<polygon fill="none" stroke="black" points="390,-6 390,-47 609,-47 609,-6 390,-6"/>
<text text-anchor="start" x="398" y="-35" font-family="Helvetica,sans-Serif" font-size="10.00">/home/travis/build</text>
<text text-anchor="start" x="398" y="-24" font-family="Helvetica,sans-Serif" font-size="10.00">/robotology/wb&#45;toolbox</text>
<text text-anchor="middle" x="499.5" y="-13" font-family="Helvetica,sans-Serif" font-size="10.00">/toolbox/base/src/WholeBodySingleton.cpp</text>
</a>
</g>
</g>
<!-- Node1&#45;&gt;Node4 -->
<g id="edge3" class="edge"><title>Node1&#45;&gt;Node4</title>
<path fill="none" stroke="midnightblue" d="M1236.31,-109.935C1097.51,-102.653 837.746,-85.7612 618.5,-53 607.425,-51.3451 595.835,-49.2824 584.418,-47.0518"/>
<polygon fill="midnightblue" stroke="midnightblue" points="1236.33,-113.441 1246.5,-110.464 1236.69,-106.45 1236.33,-113.441"/>
</g>
<!-- Node5 -->
<g id="node5" class="node"><title>Node5</title>
<g id="a_node5"><a xlink:href="_centroidal_momentum_8cpp.html" target="_top" xlink:title="/home/travis/build\l/robotology/wb&#45;toolbox\l/toolbox/library/src/Centroidal\lMomentum.cpp">
<polygon fill="none" stroke="black" points="627.5,-0.5 627.5,-52.5 783.5,-52.5 783.5,-0.5 627.5,-0.5"/>
<text text-anchor="start" x="635.5" y="-40.5" font-family="Helvetica,sans-Serif" font-size="10.00">/home/travis/build</text>
<text text-anchor="start" x="635.5" y="-29.5" font-family="Helvetica,sans-Serif" font-size="10.00">/robotology/wb&#45;toolbox</text>
<text text-anchor="start" x="635.5" y="-18.5" font-family="Helvetica,sans-Serif" font-size="10.00">/toolbox/library/src/Centroidal</text>
<text text-anchor="middle" x="705.5" y="-7.5" font-family="Helvetica,sans-Serif" font-size="10.00">Momentum.cpp</text>
</a>
</g>
</g>
<!-- Node1&#45;&gt;Node5 -->
<g id="edge4" class="edge"><title>Node1&#45;&gt;Node5</title>
<path fill="none" stroke="midnightblue" d="M1236.32,-108.419C1126.85,-100.514 945.817,-83.9111 792.5,-53 789.568,-52.409 786.593,-51.7652 783.596,-51.0798"/>
<polygon fill="midnightblue" stroke="midnightblue" points="1236.14,-111.914 1246.36,-109.134 1236.63,-104.932 1236.14,-111.914"/>
</g>
<!-- Node6 -->
<g id="node6" class="node"><title>Node6</title>
<g id="a_node6"><a xlink:href="_dot_j_nu_8cpp.html" target="_top" xlink:title="/home/travis/build\l/robotology/wb&#45;toolbox\l/toolbox/library/src/DotJNu.cpp">
<polygon fill="none" stroke="black" points="802,-6 802,-47 963,-47 963,-6 802,-6"/>
<text text-anchor="start" x="810" y="-35" font-family="Helvetica,sans-Serif" font-size="10.00">/home/travis/build</text>
<text text-anchor="start" x="810" y="-24" font-family="Helvetica,sans-Serif" font-size="10.00">/robotology/wb&#45;toolbox</text>
<text text-anchor="middle" x="882.5" y="-13" font-family="Helvetica,sans-Serif" font-size="10.00">/toolbox/library/src/DotJNu.cpp</text>
</a>
</g>
</g>
<!-- Node1&#45;&gt;Node6 -->
<g id="edge5" class="edge"><title>Node1&#45;&gt;Node6</title>
<path fill="none" stroke="midnightblue" d="M1236.14,-100.775C1162.64,-89.8803 1060.29,-73.1551 971.5,-53 963.663,-51.221 955.492,-49.1642 947.417,-47.006"/>
<polygon fill="midnightblue" stroke="midnightblue" points="1235.92,-104.279 1246.32,-102.274 1236.94,-97.3541 1235.92,-104.279"/>
</g>
<!-- Node7 -->
<g id="node7" class="node"><title>Node7</title>
<g id="a_node7"><a xlink:href="_forward_kinematics_8cpp.html" target="_top" xlink:title="/home/travis/build\l/robotology/wb&#45;toolbox\l/toolbox/library/src/Forward\lKinematics.cpp">
<polygon fill="none" stroke="black" points="981,-0.5 981,-52.5 1126,-52.5 1126,-0.5 981,-0.5"/>
<text text-anchor="start" x="989" y="-40.5" font-family="Helvetica,sans-Serif" font-size="10.00">/home/travis/build</text>
<text text-anchor="start" x="989" y="-29.5" font-family="Helvetica,sans-Serif" font-size="10.00">/robotology/wb&#45;toolbox</text>
<text text-anchor="start" x="989" y="-18.5" font-family="Helvetica,sans-Serif" font-size="10.00">/toolbox/library/src/Forward</text>
<text text-anchor="middle" x="1053.5" y="-7.5" font-family="Helvetica,sans-Serif" font-size="10.00">Kinematics.cpp</text>
</a>
</g>
</g>
<!-- Node1&#45;&gt;Node7 -->
<g id="edge6" class="edge"><title>Node1&#45;&gt;Node7</title>
<path fill="none" stroke="midnightblue" d="M1242.87,-86.3295C1208.78,-75.9169 1169.87,-63.9781 1134.5,-53 1131.82,-52.1696 1129.1,-51.3221 1126.35,-50.4644"/>
<polygon fill="midnightblue" stroke="midnightblue" points="1242.23,-89.7935 1252.82,-89.3661 1244.28,-83.0986 1242.23,-89.7935"/>
</g>
<!-- Node8 -->
<g id="node8" class="node"><title>Node8</title>
<g id="a_node8"><a xlink:href="_get_limits_8cpp.html" target="_top" xlink:title="/home/travis/build\l/robotology/wb&#45;toolbox\l/toolbox/library/src/GetLimits.cpp">
<polygon fill="none" stroke="black" points="1144,-6 1144,-47 1317,-47 1317,-6 1144,-6"/>
<text text-anchor="start" x="1152" y="-35" font-family="Helvetica,sans-Serif" font-size="10.00">/home/travis/build</text>
<text text-anchor="start" x="1152" y="-24" font-family="Helvetica,sans-Serif" font-size="10.00">/robotology/wb&#45;toolbox</text>
<text text-anchor="middle" x="1230.5" y="-13" font-family="Helvetica,sans-Serif" font-size="10.00">/toolbox/library/src/GetLimits.cpp</text>
</a>
</g>
</g>
<!-- Node1&#45;&gt;Node8 -->
<g id="edge7" class="edge"><title>Node1&#45;&gt;Node8</title>
<path fill="none" stroke="midnightblue" d="M1297.3,-82.8474C1282.86,-70.8824 1266.86,-57.6228 1254.13,-47.0821"/>
<polygon fill="midnightblue" stroke="midnightblue" points="1295.2,-85.6509 1305.13,-89.336 1299.66,-80.2607 1295.2,-85.6509"/>
</g>
<!-- Node9 -->
<g id="node9" class="node"><title>Node9</title>
<g id="a_node9"><a xlink:href="_get_measurement_8cpp.html" target="_top" xlink:title="/home/travis/build\l/robotology/wb&#45;toolbox\l/toolbox/library/src/GetMeasurement.cpp">
<polygon fill="none" stroke="black" points="1335.5,-6 1335.5,-47 1547.5,-47 1547.5,-6 1335.5,-6"/>
<text text-anchor="start" x="1343.5" y="-35" font-family="Helvetica,sans-Serif" font-size="10.00">/home/travis/build</text>
<text text-anchor="start" x="1343.5" y="-24" font-family="Helvetica,sans-Serif" font-size="10.00">/robotology/wb&#45;toolbox</text>
<text text-anchor="middle" x="1441.5" y="-13" font-family="Helvetica,sans-Serif" font-size="10.00">/toolbox/library/src/GetMeasurement.cpp</text>
</a>
</g>
</g>
<!-- Node1&#45;&gt;Node9 -->
<g id="edge8" class="edge"><title>Node1&#45;&gt;Node9</title>
<path fill="none" stroke="midnightblue" d="M1374.07,-82.8474C1388.64,-70.8824 1404.8,-57.6228 1417.64,-47.0821"/>
<polygon fill="midnightblue" stroke="midnightblue" points="1371.67,-80.2862 1366.16,-89.336 1376.11,-85.6971 1371.67,-80.2862"/>
</g>
<!-- Node10 -->
<g id="node10" class="node"><title>Node10</title>
<g id="a_node10"><a xlink:href="_inverse_dynamics_8cpp.html" target="_top" xlink:title="/home/travis/build\l/robotology/wb&#45;toolbox\l/toolbox/library/src/Inverse\lDynamics.cpp">
<polygon fill="none" stroke="black" points="1565.5,-0.5 1565.5,-52.5 1707.5,-52.5 1707.5,-0.5 1565.5,-0.5"/>
<text text-anchor="start" x="1573.5" y="-40.5" font-family="Helvetica,sans-Serif" font-size="10.00">/home/travis/build</text>
<text text-anchor="start" x="1573.5" y="-29.5" font-family="Helvetica,sans-Serif" font-size="10.00">/robotology/wb&#45;toolbox</text>
<text text-anchor="start" x="1573.5" y="-18.5" font-family="Helvetica,sans-Serif" font-size="10.00">/toolbox/library/src/Inverse</text>
<text text-anchor="middle" x="1636.5" y="-7.5" font-family="Helvetica,sans-Serif" font-size="10.00">Dynamics.cpp</text>
</a>
</g>
</g>
<!-- Node1&#45;&gt;Node10 -->
<g id="edge9" class="edge"><title>Node1&#45;&gt;Node10</title>
<path fill="none" stroke="midnightblue" d="M1434.78,-87.7167C1472.93,-77.2045 1516.83,-64.8389 1556.5,-53 1559.43,-52.1247 1562.42,-51.2213 1565.44,-50.3005"/>
<polygon fill="midnightblue" stroke="midnightblue" points="1433.41,-84.4627 1424.7,-90.4887 1435.27,-91.2122 1433.41,-84.4627"/>
</g>
<!-- Node11 -->
<g id="node11" class="node"><title>Node11</title>
<g id="a_node11"><a xlink:href="_jacobian_8cpp.html" target="_top" xlink:title="/home/travis/build\l/robotology/wb&#45;toolbox\l/toolbox/library/src/Jacobian.cpp">
<polygon fill="none" stroke="black" points="1726,-6 1726,-47 1893,-47 1893,-6 1726,-6"/>
<text text-anchor="start" x="1734" y="-35" font-family="Helvetica,sans-Serif" font-size="10.00">/home/travis/build</text>
<text text-anchor="start" x="1734" y="-24" font-family="Helvetica,sans-Serif" font-size="10.00">/robotology/wb&#45;toolbox</text>
<text text-anchor="middle" x="1809.5" y="-13" font-family="Helvetica,sans-Serif" font-size="10.00">/toolbox/library/src/Jacobian.cpp</text>
</a>
</g>
</g>
<!-- Node1&#45;&gt;Node11 -->
<g id="edge10" class="edge"><title>Node1&#45;&gt;Node11</title>
<path fill="none" stroke="midnightblue" d="M1434.74,-101.465C1511.95,-90.6058 1621.57,-73.6146 1716.5,-53 1724.68,-51.2237 1733.21,-49.1685 1741.65,-47.0111"/>
<polygon fill="midnightblue" stroke="midnightblue" points="1433.96,-98.0404 1424.54,-102.891 1434.93,-104.973 1433.96,-98.0404"/>
</g>
<!-- Node12 -->
<g id="node12" class="node"><title>Node12</title>
<g id="a_node12"><a xlink:href="_mass_matrix_8cpp.html" target="_top" xlink:title="/home/travis/build\l/robotology/wb&#45;toolbox\l/toolbox/library/src/MassMatrix.cpp">
<polygon fill="none" stroke="black" points="1911.5,-6 1911.5,-47 2093.5,-47 2093.5,-6 1911.5,-6"/>
<text text-anchor="start" x="1919.5" y="-35" font-family="Helvetica,sans-Serif" font-size="10.00">/home/travis/build</text>
<text text-anchor="start" x="1919.5" y="-24" font-family="Helvetica,sans-Serif" font-size="10.00">/robotology/wb&#45;toolbox</text>
<text text-anchor="middle" x="2002.5" y="-13" font-family="Helvetica,sans-Serif" font-size="10.00">/toolbox/library/src/MassMatrix.cpp</text>
</a>
</g>
</g>
<!-- Node1&#45;&gt;Node12 -->
<g id="edge11" class="edge"><title>Node1&#45;&gt;Node12</title>
<path fill="none" stroke="midnightblue" d="M1435.02,-107.993C1548.72,-99.5681 1740.06,-82.3685 1902.5,-53 1911.76,-51.3265 1921.42,-49.267 1930.94,-47.0501"/>
<polygon fill="midnightblue" stroke="midnightblue" points="1434.65,-104.51 1424.94,-108.732 1435.17,-111.491 1434.65,-104.51"/>
</g>
<!-- Node13 -->
<g id="node13" class="node"><title>Node13</title>
<g id="a_node13"><a xlink:href="_relative_transform_8cpp.html" target="_top" xlink:title="/home/travis/build\l/robotology/wb&#45;toolbox\l/toolbox/library/src/Relative\lTransform.cpp">
<polygon fill="none" stroke="black" points="2111.5,-0.5 2111.5,-52.5 2255.5,-52.5 2255.5,-0.5 2111.5,-0.5"/>
<text text-anchor="start" x="2119.5" y="-40.5" font-family="Helvetica,sans-Serif" font-size="10.00">/home/travis/build</text>
<text text-anchor="start" x="2119.5" y="-29.5" font-family="Helvetica,sans-Serif" font-size="10.00">/robotology/wb&#45;toolbox</text>
<text text-anchor="start" x="2119.5" y="-18.5" font-family="Helvetica,sans-Serif" font-size="10.00">/toolbox/library/src/Relative</text>
<text text-anchor="middle" x="2183.5" y="-7.5" font-family="Helvetica,sans-Serif" font-size="10.00">Transform.cpp</text>
</a>
</g>
</g>
<!-- Node1&#45;&gt;Node13 -->
<g id="edge12" class="edge"><title>Node1&#45;&gt;Node13</title>
<path fill="none" stroke="midnightblue" d="M1435.03,-113.635C1582.24,-110.758 1866.09,-99.0791 2102.5,-53 2105.39,-52.4359 2108.33,-51.8043 2111.28,-51.1192"/>
<polygon fill="midnightblue" stroke="midnightblue" points="1434.6,-110.142 1424.67,-113.827 1434.73,-117.141 1434.6,-110.142"/>
</g>
<!-- Node14 -->
<g id="node14" class="node"><title>Node14</title>
<g id="a_node14"><a xlink:href="_set_motor_parameters_8cpp.html" target="_top" xlink:title="/home/travis/build\l/robotology/wb&#45;toolbox\l/toolbox/library/src/SetMotor\lParameters.cpp">
<polygon fill="none" stroke="black" points="2273.5,-0.5 2273.5,-52.5 2425.5,-52.5 2425.5,-0.5 2273.5,-0.5"/>
<text text-anchor="start" x="2281.5" y="-40.5" font-family="Helvetica,sans-Serif" font-size="10.00">/home/travis/build</text>
<text text-anchor="start" x="2281.5" y="-29.5" font-family="Helvetica,sans-Serif" font-size="10.00">/robotology/wb&#45;toolbox</text>
<text text-anchor="start" x="2281.5" y="-18.5" font-family="Helvetica,sans-Serif" font-size="10.00">/toolbox/library/src/SetMotor</text>
<text text-anchor="middle" x="2349.5" y="-7.5" font-family="Helvetica,sans-Serif" font-size="10.00">Parameters.cpp</text>
</a>
</g>
</g>
<!-- Node1&#45;&gt;Node14 -->
<g id="edge13" class="edge"><title>Node1&#45;&gt;Node14</title>
<path fill="none" stroke="midnightblue" d="M1434.93,-115.224C1605.9,-114.847 1966,-106.943 2264.5,-53 2267.38,-52.4794 2270.3,-51.8957 2273.24,-51.261"/>
<polygon fill="midnightblue" stroke="midnightblue" points="1434.69,-111.724 1424.69,-115.238 1434.7,-118.724 1434.69,-111.724"/>
</g>
<!-- Node15 -->
<g id="node15" class="node"><title>Node15</title>
<g id="a_node15"><a xlink:href="_set_references_8cpp.html" target="_top" xlink:title="/home/travis/build\l/robotology/wb&#45;toolbox\l/toolbox/library/src/SetReferences.cpp">
<polygon fill="none" stroke="black" points="2444,-6 2444,-47 2641,-47 2641,-6 2444,-6"/>
<text text-anchor="start" x="2452" y="-35" font-family="Helvetica,sans-Serif" font-size="10.00">/home/travis/build</text>
<text text-anchor="start" x="2452" y="-24" font-family="Helvetica,sans-Serif" font-size="10.00">/robotology/wb&#45;toolbox</text>
<text text-anchor="middle" x="2542.5" y="-13" font-family="Helvetica,sans-Serif" font-size="10.00">/toolbox/library/src/SetReferences.cpp</text>
</a>
</g>
</g>
<!-- Node1&#45;&gt;Node15 -->
<g id="edge14" class="edge"><title>Node1&#45;&gt;Node15</title>
<path fill="none" stroke="midnightblue" d="M1434.85,-114.773C1628.32,-114.018 2068.71,-105.997 2434.5,-53 2445.18,-51.453 2456.35,-49.3627 2467.29,-47.0406"/>
<polygon fill="midnightblue" stroke="midnightblue" points="1434.69,-111.273 1424.71,-114.806 1434.72,-118.273 1434.69,-111.273"/>
</g>
</g>
</svg>
        <g id="navigator" transform="translate(0 0)" fill="#404254">
                <rect fill="#f2f5e9" fill-opacity="0.5" stroke="#606060" stroke-width=".5" x="0" y="0" width="60" height="60"/>
                <use id="zoomplus" xlink:href="#zoomPlus" x="17" y="9" onmousedown="handleZoom(evt,'in')"/>
                <use id="zoomminus" xlink:href="#zoomMin" x="42" y="9" onmousedown="handleZoom(evt,'out')"/>
                <use id="reset" xlink:href="#resetDef" x="30" y="36" onmousedown="handleReset()"/>
                <g id="arrowUp" xlink:href="#dirArrow" transform="translate(30 24)" onmousedown="handlePan(0,-1)">
                  <use xlink:href="#rim" fill="#404040">
                        <set attributeName="fill" to="#808080" begin="arrowUp.mouseover" end="arrowUp.mouseout"/>
                  </use>
                  <path fill="none" stroke="white" stroke-width="1.5" d="M0,-3.0v7 M-2.5,-0.5L0,-3.0L2.5,-0.5"/>
                </g>
                <g id="arrowRight" xlink:href="#dirArrow" transform="rotate(90) translate(36 -43)" onmousedown="handlePan(1,0)">
                  <use xlink:href="#rim" fill="#404040">
                        <set attributeName="fill" to="#808080" begin="arrowRight.mouseover" end="arrowRight.mouseout"/>
                  </use>
                  <path fill="none" stroke="white" stroke-width="1.5" d="M0,-3.0v7 M-2.5,-0.5L0,-3.0L2.5,-0.5"/>
                </g>
                <g id="arrowDown" xlink:href="#dirArrow" transform="rotate(180) translate(-30 -48)" onmousedown="handlePan(0,1)">
                  <use xlink:href="#rim" fill="#404040">
                        <set attributeName="fill" to="#808080" begin="arrowDown.mouseover" end="arrowDown.mouseout"/>
                  </use>
                  <path fill="none" stroke="white" stroke-width="1.5" d="M0,-3.0v7 M-2.5,-0.5L0,-3.0L2.5,-0.5"/>
                </g>
                <g id="arrowLeft" xlink:href="#dirArrow" transform="rotate(270) translate(-36 17)" onmousedown="handlePan(-1,0)">
                  <use xlink:href="#rim" fill="#404040">
                        <set attributeName="fill" to="#808080" begin="arrowLeft.mouseover" end="arrowLeft.mouseout"/>
                  </use>
                  <path fill="none" stroke="white" stroke-width="1.5" d="M0,-3.0v7 M-2.5,-0.5L0,-3.0L2.5,-0.5"/>
                </g>
        </g>
        <svg viewBox="0 0 15 15" width="100%" height="30px" preserveAspectRatio="xMaxYMin meet">
         <g id="arrow_out" transform="scale(0.3 0.3)">
          <a xlink:href="_robot_interface_8h__dep__incl_org.svg" target="_base">
           <rect id="button" ry="5" rx="5" y="6" x="6" height="38" width="38"
                fill="#f2f5e9" fill-opacity="0.5" stroke="#606060" stroke-width="1.0"/>
           <path id="arrow"
             d="M 11.500037,31.436501 C 11.940474,20.09759 22.043105,11.32322 32.158766,21.979434 L 37.068811,17.246167 C 37.068811,17.246167 37.088388,32 37.088388,32 L 22.160133,31.978069 C 22.160133,31.978069 26.997745,27.140456 26.997745,27.140456 C 18.528582,18.264221 13.291696,25.230495 11.500037,31.436501 z"
             style="fill:#404040;"/>
          </a>
         </g>
        </svg>
</svg>
