<?xml version="1.0" encoding="UTF-8" standalone="no"?>
<!DOCTYPE svg PUBLIC "-//W3C//DTD SVG 1.1//EN"
 "http://www.w3.org/Graphics/SVG/1.1/DTD/svg11.dtd">
<!-- Generated by graphviz version 2.36.0 (20140111.2315)
 -->
<!-- Title: /home/travis/build/robotology/wb&#45;toolbox/toolbox/src/SetLowLevelPID.cpp Pages: 1 -->
<!--zoomable 330 -->
<svg id="main" version="1.1" xmlns="http://www.w3.org/2000/svg" xmlns:xlink="http://www.w3.org/1999/xlink" xml:space="preserve" onload="init(evt)">
<style type="text/css"><![CDATA[
.edge:hover path { stroke: red; }
.edge:hover polygon { stroke: red; fill: red; }
]]></style>
<script type="text/javascript"><![CDATA[
var edges = document.getElementsByTagName('g');
if (edges && edges.length) {
  for (var i=0;i<edges.length;i++) {
    if (edges[i].id.substr(0,4)=='edge') {
      edges[i].setAttribute('class','edge');
    }
  }
}
]]></script>
        <defs>
                <circle id="rim" cx="0" cy="0" r="7"/>
                <circle id="rim2" cx="0" cy="0" r="3.5"/>
                <g id="zoomPlus">
                        <use xlink:href="#rim" fill="#404040">
                                <set attributeName="fill" to="#808080" begin="zoomplus.mouseover" end="zoomplus.mouseout"/>
                        </use>
                        <path d="M-4,0h8M0,-4v8" fill="none" stroke="white" stroke-width="1.5" pointer-events="none"/>
                </g>
                <g id="zoomMin">
                        <use xlink:href="#rim" fill="#404040">
                                <set attributeName="fill" to="#808080" begin="zoomminus.mouseover" end="zoomminus.mouseout"/>
                        </use>
                        <path d="M-4,0h8" fill="none" stroke="white" stroke-width="1.5" pointer-events="none"/>
                </g>
                <g id="dirArrow">
                        <path fill="none" stroke="white" stroke-width="1.5" d="M0,-3.0v7 M-2.5,-0.5L0,-3.0L2.5,-0.5"/>
                </g>
               <g id="resetDef">
                       <use xlink:href="#rim2" fill="#404040">
                               <set attributeName="fill" to="#808080" begin="reset.mouseover" end="reset.mouseout"/>
                       </use>
               </g>
        </defs>

<script type="text/javascript">
var viewWidth = 1205;
var viewHeight = 330;
var sectionId = 'dynsection-0';
</script>
<script xlink:href="svgpan.js"/>
<svg id="graph" class="graph">
<g id="viewport">
<title>/home/travis/build/robotology/wb&#45;toolbox/toolbox/src/SetLowLevelPID.cpp</title>
<!-- Node1 -->
<g id="node1" class="node"><title>Node1</title>
<polygon fill="#bfbfbf" stroke="black" points="550.01,-280.5 550.01,-321.5 713.01,-321.5 713.01,-280.5 550.01,-280.5"/>
<text text-anchor="start" x="558.01" y="-309.5" font-family="Helvetica,sans-Serif" font-size="10.00">/home/travis/build</text>
<text text-anchor="start" x="558.01" y="-298.5" font-family="Helvetica,sans-Serif" font-size="10.00">/robotology/wb&#45;toolbox</text>
<text text-anchor="middle" x="631.51" y="-287.5" font-family="Helvetica,sans-Serif" font-size="10.00">/toolbox/src/SetLowLevelPID.cpp</text>
</g>
<!-- Node2 -->
<g id="node2" class="node"><title>Node2</title>
<g id="a_node2"><a xlink:href="_set_low_level_p_i_d_8h.html" target="_top" xlink:title="SetLowLevelPID.h">
<polygon fill="none" stroke="black" points="402.51,-224.5 402.51,-243.5 500.51,-243.5 500.51,-224.5 402.51,-224.5"/>
<text text-anchor="middle" x="451.51" y="-231.5" font-family="Helvetica,sans-Serif" font-size="10.00">SetLowLevelPID.h</text>
</a>
</g>
</g>
<!-- Node1&#45;&gt;Node2 -->
<g id="edge1" class="edge"><title>Node1&#45;&gt;Node2</title>
<path fill="none" stroke="midnightblue" d="M577.504,-280.498C547.519,-269.67 511.151,-256.537 485.211,-247.17"/>
<polygon fill="midnightblue" stroke="midnightblue" points="486.065,-243.757 475.471,-243.652 483.688,-250.341 486.065,-243.757"/>
</g>
<!-- Node5 -->
<g id="node5" class="node"><title>Node5</title>
<g id="a_node5"><a xlink:href="_parameters_8h.html" target="_top" xlink:title="Parameters.h">
<polygon fill="none" stroke="black" points="256.01,-56.5 256.01,-75.5 331.01,-75.5 331.01,-56.5 256.01,-56.5"/>
<text text-anchor="middle" x="293.51" y="-63.5" font-family="Helvetica,sans-Serif" font-size="10.00">Parameters.h</text>
</a>
</g>
</g>
<!-- Node1&#45;&gt;Node5 -->
<g id="edge29" class="edge"><title>Node1&#45;&gt;Node5</title>
<path fill="none" stroke="midnightblue" d="M549.979,-287.31C503.102,-278.428 443.736,-264.443 393.51,-244 348.822,-225.811 325.453,-229.301 300.51,-188 281.361,-156.291 285.238,-110.975 289.528,-85.7596"/>
<polygon fill="midnightblue" stroke="midnightblue" points="293.009,-86.1887 291.447,-75.7097 286.133,-84.8758 293.009,-86.1887"/>
</g>
<!-- Node8 -->
<g id="node8" class="node"><title>Node8</title>
<polygon fill="none" stroke="#bfbfbf" points="139.51,-0.5 139.51,-19.5 183.51,-19.5 183.51,-0.5 139.51,-0.5"/>
<text text-anchor="middle" x="161.51" y="-7.5" font-family="Helvetica,sans-Serif" font-size="10.00">vector</text>
</g>
<!-- Node1&#45;&gt;Node8 -->
<g id="edge41" class="edge"><title>Node1&#45;&gt;Node8</title>
<path fill="none" stroke="midnightblue" d="M549.988,-292.776C379.409,-276.562 0.510381,-234.319 0.510381,-179 0.510381,-179 0.510381,-179 0.510381,-121 0.510381,-90.9022 -1.53114,-77.5205 19.5104,-56 48.5861,-26.2625 97.1698,-16.1286 129.277,-12.7038"/>
<polygon fill="midnightblue" stroke="midnightblue" points="129.838,-16.1675 139.482,-11.781 129.207,-9.19594 129.838,-16.1675"/>
</g>
<!-- Node9 -->
<g id="node9" class="node"><title>Node9</title>
<g id="a_node9"><a xlink:href="_block_information_8h.html" target="_top" xlink:title="BlockInformation.h">
<polygon fill="none" stroke="black" points="501.51,-56.5 501.51,-75.5 599.51,-75.5 599.51,-56.5 501.51,-56.5"/>
<text text-anchor="middle" x="550.51" y="-63.5" font-family="Helvetica,sans-Serif" font-size="10.00">BlockInformation.h</text>
</a>
</g>
</g>
<!-- Node1&#45;&gt;Node9 -->
<g id="edge13" class="edge"><title>Node1&#45;&gt;Node9</title>
<path fill="none" stroke="midnightblue" d="M624.604,-280.135C609.119,-235.59 571.81,-128.27 556.862,-85.2698"/>
<polygon fill="midnightblue" stroke="midnightblue" points="560.085,-83.8826 553.495,-75.5863 553.473,-86.1811 560.085,-83.8826"/>
</g>
<!-- Node11 -->
<g id="node11" class="node"><title>Node11</title>
<g id="a_node11"><a xlink:href="_configuration_8h.html" target="_top" xlink:title="Configuration.h">
<polygon fill="none" stroke="black" points="155.01,-56.5 155.01,-75.5 238.01,-75.5 238.01,-56.5 155.01,-56.5"/>
<text text-anchor="middle" x="196.51" y="-63.5" font-family="Helvetica,sans-Serif" font-size="10.00">Configuration.h</text>
</a>
</g>
</g>
<!-- Node1&#45;&gt;Node11 -->
<g id="edge18" class="edge"><title>Node1&#45;&gt;Node11</title>
<path fill="none" stroke="midnightblue" d="M549.731,-299.159C487.221,-295.198 400.951,-282.322 335.51,-244 269.25,-205.198 222.807,-121.661 204.803,-84.9393"/>
<polygon fill="midnightblue" stroke="midnightblue" points="207.954,-83.4151 200.486,-75.8994 201.637,-86.4315 207.954,-83.4151"/>
</g>
<!-- Node12 -->
<g id="node12" class="node"><title>Node12</title>
<g id="a_node12"><a xlink:href="_log_8h.html" target="_top" xlink:title="Log.h">
<polygon fill="none" stroke="black" points="618.01,-56.5 618.01,-75.5 659.01,-75.5 659.01,-56.5 618.01,-56.5"/>
<text text-anchor="middle" x="638.51" y="-63.5" font-family="Helvetica,sans-Serif" font-size="10.00">Log.h</text>
</a>
</g>
</g>
<!-- Node1&#45;&gt;Node12 -->
<g id="edge22" class="edge"><title>Node1&#45;&gt;Node12</title>
<path fill="none" stroke="midnightblue" d="M631.92,-280.238C632.656,-245.979 634.332,-173.344 636.51,-112 636.816,-103.395 637.229,-93.8669 637.6,-85.8023"/>
<polygon fill="midnightblue" stroke="midnightblue" points="641.105,-85.7792 638.081,-75.625 634.113,-85.4484 641.105,-85.7792"/>
</g>
<!-- Node14 -->
<g id="node14" class="node"><title>Node14</title>
<g id="a_node14"><a xlink:href="_parameter_8h.html" target="_top" xlink:title="Parameter.h">
<polygon fill="none" stroke="black" points="28.5104,-56.5 28.5104,-75.5 98.5104,-75.5 98.5104,-56.5 28.5104,-56.5"/>
<text text-anchor="middle" x="63.5104" y="-63.5" font-family="Helvetica,sans-Serif" font-size="10.00">Parameter.h</text>
</a>
</g>
</g>
<!-- Node1&#45;&gt;Node14 -->
<g id="edge26" class="edge"><title>Node1&#45;&gt;Node14</title>
<path fill="none" stroke="midnightblue" d="M549.969,-296.462C481.976,-291.099 383.769,-277.654 304.51,-244 209,-203.445 115.715,-118.315 79.4065,-82.9406"/>
<polygon fill="midnightblue" stroke="midnightblue" points="81.7493,-80.3354 72.1699,-75.8092 76.8359,-85.3213 81.7493,-80.3354"/>
</g>
<!-- Node15 -->
<g id="node15" class="node"><title>Node15</title>
<g id="a_node15"><a xlink:href="_robot_interface_8h.html" target="_top" xlink:title="RobotInterface.h">
<polygon fill="none" stroke="black" points="677.01,-56.5 677.01,-75.5 766.01,-75.5 766.01,-56.5 677.01,-56.5"/>
<text text-anchor="middle" x="721.51" y="-63.5" font-family="Helvetica,sans-Serif" font-size="10.00">RobotInterface.h</text>
</a>
</g>
</g>
<!-- Node1&#45;&gt;Node15 -->
<g id="edge30" class="edge"><title>Node1&#45;&gt;Node15</title>
<path fill="none" stroke="midnightblue" d="M639.184,-280.135C656.426,-235.495 698.02,-127.814 714.559,-84.9968"/>
<polygon fill="midnightblue" stroke="midnightblue" points="717.855,-86.1758 718.194,-75.5863 711.326,-83.6535 717.855,-86.1758"/>
</g>
<!-- Node16 -->
<g id="node16" class="node"><title>Node16</title>
<polygon fill="none" stroke="#bfbfbf" points="750.01,-0.5 750.01,-19.5 833.01,-19.5 833.01,-0.5 750.01,-0.5"/>
<text text-anchor="middle" x="791.51" y="-7.5" font-family="Helvetica,sans-Serif" font-size="10.00">unordered_map</text>
</g>
<!-- Node1&#45;&gt;Node16 -->
<g id="edge40" class="edge"><title>Node1&#45;&gt;Node16</title>
<path fill="none" stroke="midnightblue" d="M647.309,-280.266C676.619,-242.708 739.602,-157.416 774.51,-76 780.974,-60.9244 785.466,-42.7977 788.203,-29.521"/>
<polygon fill="midnightblue" stroke="midnightblue" points="791.643,-30.1635 790.093,-19.6827 784.769,-28.8427 791.643,-30.1635"/>
</g>
<!-- Node17 -->
<g id="node17" class="node"><title>Node17</title>
<polygon fill="none" stroke="#bfbfbf" points="717.01,-224.5 717.01,-243.5 854.01,-243.5 854.01,-224.5 717.01,-224.5"/>
<text text-anchor="middle" x="785.51" y="-231.5" font-family="Helvetica,sans-Serif" font-size="10.00">yarp/dev/ControlBoardPid.h</text>
</g>
<!-- Node1&#45;&gt;Node17 -->
<g id="edge35" class="edge"><title>Node1&#45;&gt;Node17</title>
<path fill="none" stroke="midnightblue" d="M677.715,-280.498C703.029,-269.813 733.659,-256.885 755.789,-247.545"/>
<polygon fill="midnightblue" stroke="midnightblue" points="757.159,-250.766 765.011,-243.652 754.437,-244.317 757.159,-250.766"/>
</g>
<!-- Node18 -->
<g id="node18" class="node"><title>Node18</title>
<polygon fill="none" stroke="#bfbfbf" points="872.51,-224.5 872.51,-243.5 986.51,-243.5 986.51,-224.5 872.51,-224.5"/>
<text text-anchor="middle" x="929.51" y="-231.5" font-family="Helvetica,sans-Serif" font-size="10.00">yarp/dev/IPidControl.h</text>
</g>
<!-- Node1&#45;&gt;Node18 -->
<g id="edge36" class="edge"><title>Node1&#45;&gt;Node18</title>
<path fill="none" stroke="midnightblue" d="M713.334,-282.152C766.838,-270.482 834.956,-255.624 880.283,-245.737"/>
<polygon fill="midnightblue" stroke="midnightblue" points="881.136,-249.134 890.16,-243.583 879.644,-242.295 881.136,-249.134"/>
</g>
<!-- Node19 -->
<g id="node19" class="node"><title>Node19</title>
<polygon fill="none" stroke="#bfbfbf" points="1004.51,-224.5 1004.51,-243.5 1060.51,-243.5 1060.51,-224.5 1004.51,-224.5"/>
<text text-anchor="middle" x="1032.51" y="-231.5" font-family="Helvetica,sans-Serif" font-size="10.00">algorithm</text>
</g>
<!-- Node1&#45;&gt;Node19 -->
<g id="edge37" class="edge"><title>Node1&#45;&gt;Node19</title>
<path fill="none" stroke="midnightblue" d="M713.181,-289.481C784.871,-279.777 892.124,-264.125 994.403,-244.084"/>
<polygon fill="midnightblue" stroke="midnightblue" points="995.153,-247.503 1004.28,-242.13 993.795,-240.636 995.153,-247.503"/>
</g>
<!-- Node20 -->
<g id="node20" class="node"><title>Node20</title>
<polygon fill="none" stroke="#bfbfbf" points="1079.01,-224.5 1079.01,-243.5 1126.01,-243.5 1126.01,-224.5 1079.01,-224.5"/>
<text text-anchor="middle" x="1102.51" y="-231.5" font-family="Helvetica,sans-Serif" font-size="10.00">iterator</text>
</g>
<!-- Node1&#45;&gt;Node20 -->
<g id="edge38" class="edge"><title>Node1&#45;&gt;Node20</title>
<path fill="none" stroke="midnightblue" d="M713.37,-292.75C801.563,-284.187 945.776,-268 1068.51,-244 1068.62,-243.979 1068.72,-243.959 1068.83,-243.938"/>
<polygon fill="midnightblue" stroke="midnightblue" points="1069.83,-247.299 1078.82,-241.695 1068.3,-240.469 1069.83,-247.299"/>
</g>
<!-- Node21 -->
<g id="node21" class="node"><title>Node21</title>
<polygon fill="none" stroke="#bfbfbf" points="1144.51,-224.5 1144.51,-243.5 1196.51,-243.5 1196.51,-224.5 1144.51,-224.5"/>
<text text-anchor="middle" x="1170.51" y="-231.5" font-family="Helvetica,sans-Serif" font-size="10.00">ostream</text>
</g>
<!-- Node1&#45;&gt;Node21 -->
<g id="edge39" class="edge"><title>Node1&#45;&gt;Node21</title>
<path fill="none" stroke="midnightblue" d="M713.014,-294.306C810.756,-286.718 979.615,-271.2 1134.1,-243.818"/>
<polygon fill="midnightblue" stroke="midnightblue" points="1135.03,-247.207 1144.25,-241.997 1133.79,-240.317 1135.03,-247.207"/>
</g>
<!-- Node3 -->
<g id="node3" class="node"><title>Node3</title>
<g id="a_node3"><a xlink:href="_w_b_block_8h.html" target="_top" xlink:title="WBBlock.h">
<polygon fill="none" stroke="black" points="309.51,-168.5 309.51,-187.5 375.51,-187.5 375.51,-168.5 309.51,-168.5"/>
<text text-anchor="middle" x="342.51" y="-175.5" font-family="Helvetica,sans-Serif" font-size="10.00">WBBlock.h</text>
</a>
</g>
</g>
<!-- Node2&#45;&gt;Node3 -->
<g id="edge2" class="edge"><title>Node2&#45;&gt;Node3</title>
<path fill="none" stroke="midnightblue" d="M433.998,-224.324C416.438,-215.625 389.179,-202.12 368.979,-192.113"/>
<polygon fill="midnightblue" stroke="midnightblue" points="370.494,-188.958 359.98,-187.655 367.387,-195.23 370.494,-188.958"/>
</g>
<!-- Node6 -->
<g id="node6" class="node"><title>Node6</title>
<polygon fill="none" stroke="#bfbfbf" points="447.51,-0.5 447.51,-19.5 499.51,-19.5 499.51,-0.5 447.51,-0.5"/>
<text text-anchor="middle" x="473.51" y="-7.5" font-family="Helvetica,sans-Serif" font-size="10.00">memory</text>
</g>
<!-- Node2&#45;&gt;Node6 -->
<g id="edge11" class="edge"><title>Node2&#45;&gt;Node6</title>
<path fill="none" stroke="midnightblue" d="M452.373,-224.297C455.61,-191.633 467.082,-75.8661 471.632,-29.9573"/>
<polygon fill="midnightblue" stroke="midnightblue" points="475.127,-30.1802 472.63,-19.8837 468.161,-29.4898 475.127,-30.1802"/>
</g>
<!-- Node7 -->
<g id="node7" class="node"><title>Node7</title>
<polygon fill="none" stroke="#bfbfbf" points="358.01,-0.5 358.01,-19.5 399.01,-19.5 399.01,-0.5 358.01,-0.5"/>
<text text-anchor="middle" x="378.51" y="-7.5" font-family="Helvetica,sans-Serif" font-size="10.00">string</text>
</g>
<!-- Node2&#45;&gt;Node7 -->
<g id="edge12" class="edge"><title>Node2&#45;&gt;Node7</title>
<path fill="none" stroke="midnightblue" d="M448.649,-224.297C437.885,-191.563 399.679,-75.3752 384.648,-29.6664"/>
<polygon fill="midnightblue" stroke="midnightblue" points="387.88,-28.29 381.432,-19.8837 381.231,-30.4767 387.88,-28.29"/>
</g>
<!-- Node4 -->
<g id="node4" class="node"><title>Node4</title>
<g id="a_node4"><a xlink:href="_block_8h.html" target="_top" xlink:title="Block.h">
<polygon fill="none" stroke="black" points="313.51,-112.5 313.51,-131.5 363.51,-131.5 363.51,-112.5 313.51,-112.5"/>
<text text-anchor="middle" x="338.51" y="-119.5" font-family="Helvetica,sans-Serif" font-size="10.00">Block.h</text>
</a>
</g>
</g>
<!-- Node3&#45;&gt;Node4 -->
<g id="edge3" class="edge"><title>Node3&#45;&gt;Node4</title>
<path fill="none" stroke="midnightblue" d="M341.85,-168.083C341.326,-161.006 340.574,-150.861 339.917,-141.986"/>
<polygon fill="midnightblue" stroke="midnightblue" points="343.388,-141.465 339.159,-131.751 336.407,-141.982 343.388,-141.465"/>
</g>
<!-- Node3&#45;&gt;Node6 -->
<g id="edge10" class="edge"><title>Node3&#45;&gt;Node6</title>
<path fill="none" stroke="midnightblue" d="M349.554,-168.075C370.531,-141.493 432.839,-62.5379 460.281,-27.7633"/>
<polygon fill="midnightblue" stroke="midnightblue" points="463.301,-29.5864 466.749,-19.5681 457.806,-25.2499 463.301,-29.5864"/>
</g>
<!-- Node4&#45;&gt;Node5 -->
<g id="edge4" class="edge"><title>Node4&#45;&gt;Node5</title>
<path fill="none" stroke="midnightblue" d="M331.08,-112.083C324.658,-104.377 315.205,-93.0333 307.388,-83.6531"/>
<polygon fill="midnightblue" stroke="midnightblue" points="309.894,-81.1927 300.803,-75.7511 304.516,-85.674 309.894,-81.1927"/>
</g>
<!-- Node4&#45;&gt;Node7 -->
<g id="edge8" class="edge"><title>Node4&#45;&gt;Node7</title>
<path fill="none" stroke="midnightblue" d="M341.649,-112.368C348.133,-94.5366 363.13,-53.2953 371.866,-29.2717"/>
<polygon fill="midnightblue" stroke="midnightblue" points="375.258,-30.1855 375.386,-19.5914 368.679,-27.7932 375.258,-30.1855"/>
</g>
<!-- Node4&#45;&gt;Node8 -->
<g id="edge9" class="edge"><title>Node4&#45;&gt;Node8</title>
<path fill="none" stroke="midnightblue" d="M313.317,-118.925C265.88,-114.441 166.204,-102.074 145.51,-76 134.709,-62.391 141.98,-42.5094 149.899,-28.3226"/>
<polygon fill="midnightblue" stroke="midnightblue" points="153.029,-29.913 155.271,-19.5579 147.061,-26.2551 153.029,-29.913"/>
</g>
<!-- Node5&#45;&gt;Node6 -->
<g id="edge5" class="edge"><title>Node5&#45;&gt;Node6</title>
<path fill="none" stroke="midnightblue" d="M322.032,-56.4435C353.295,-47.0645 403.518,-31.9978 437.481,-21.8089"/>
<polygon fill="midnightblue" stroke="midnightblue" points="438.888,-25.041 447.46,-18.8151 436.876,-18.3363 438.888,-25.041"/>
</g>
<!-- Node5&#45;&gt;Node7 -->
<g id="edge6" class="edge"><title>Node5&#45;&gt;Node7</title>
<path fill="none" stroke="midnightblue" d="M307.167,-56.324C320.427,-47.9002 340.778,-34.9709 356.357,-25.0741"/>
<polygon fill="midnightblue" stroke="midnightblue" points="358.324,-27.9711 364.888,-19.6545 354.57,-22.0626 358.324,-27.9711"/>
</g>
<!-- Node5&#45;&gt;Node8 -->
<g id="edge7" class="edge"><title>Node5&#45;&gt;Node8</title>
<path fill="none" stroke="midnightblue" d="M272.595,-56.4435C250.774,-47.5171 216.361,-33.4387 191.618,-23.3168"/>
<polygon fill="midnightblue" stroke="midnightblue" points="192.909,-20.0634 182.328,-19.5164 190.259,-26.5422 192.909,-20.0634"/>
</g>
<!-- Node9&#45;&gt;Node6 -->
<g id="edge14" class="edge"><title>Node9&#45;&gt;Node6</title>
<path fill="none" stroke="midnightblue" d="M538.139,-56.324C526.352,-48.0577 508.378,-35.4527 494.375,-25.6322"/>
<polygon fill="midnightblue" stroke="midnightblue" points="496.048,-22.5307 485.851,-19.6545 492.029,-28.2619 496.048,-22.5307"/>
</g>
<!-- Node9&#45;&gt;Node7 -->
<g id="edge15" class="edge"><title>Node9&#45;&gt;Node7</title>
<path fill="none" stroke="midnightblue" d="M523.256,-56.4435C492.144,-46.6756 441.381,-30.7385 408.984,-20.5673"/>
<polygon fill="midnightblue" stroke="midnightblue" points="409.748,-17.1388 399.159,-17.4826 407.651,-23.8174 409.748,-17.1388"/>
</g>
<!-- Node9&#45;&gt;Node8 -->
<g id="edge17" class="edge"><title>Node9&#45;&gt;Node8</title>
<path fill="none" stroke="midnightblue" d="M501.243,-58.1609C420.514,-46.9542 262.231,-24.9818 194.038,-15.5154"/>
<polygon fill="midnightblue" stroke="midnightblue" points="194.279,-12.0154 183.893,-14.1071 193.317,-18.9489 194.279,-12.0154"/>
</g>
<!-- Node10 -->
<g id="node10" class="node"><title>Node10</title>
<polygon fill="none" stroke="#bfbfbf" points="688.51,-0.5 688.51,-19.5 728.51,-19.5 728.51,-0.5 688.51,-0.5"/>
<text text-anchor="middle" x="708.51" y="-7.5" font-family="Helvetica,sans-Serif" font-size="10.00">utility</text>
</g>
<!-- Node9&#45;&gt;Node10 -->
<g id="edge16" class="edge"><title>Node9&#45;&gt;Node10</title>
<path fill="none" stroke="midnightblue" d="M575.546,-56.4435C603.534,-46.8782 648.83,-31.3969 678.644,-21.2075"/>
<polygon fill="midnightblue" stroke="midnightblue" points="679.783,-24.517 688.114,-17.971 677.519,-17.8932 679.783,-24.517"/>
</g>
<!-- Node11&#45;&gt;Node6 -->
<g id="edge19" class="edge"><title>Node11&#45;&gt;Node6</title>
<path fill="none" stroke="midnightblue" d="M238.28,-56.8572C292.435,-46.2999 385.999,-28.06 437.289,-18.0612"/>
<polygon fill="midnightblue" stroke="midnightblue" points="438.116,-21.466 447.261,-16.1172 436.776,-14.5953 438.116,-21.466"/>
</g>
<!-- Node11&#45;&gt;Node7 -->
<g id="edge20" class="edge"><title>Node11&#45;&gt;Node7</title>
<path fill="none" stroke="midnightblue" d="M225.349,-56.4435C258.867,-46.4985 313.938,-30.1587 348.11,-20.02"/>
<polygon fill="midnightblue" stroke="midnightblue" points="349.405,-23.2864 357.997,-17.0865 347.414,-16.5756 349.405,-23.2864"/>
</g>
<!-- Node11&#45;&gt;Node8 -->
<g id="edge21" class="edge"><title>Node11&#45;&gt;Node8</title>
<path fill="none" stroke="midnightblue" d="M190.731,-56.083C185.838,-48.5341 178.683,-37.4948 172.678,-28.2298"/>
<polygon fill="midnightblue" stroke="midnightblue" points="175.558,-26.239 167.182,-19.7511 169.684,-30.0463 175.558,-26.239"/>
</g>
<!-- Node12&#45;&gt;Node6 -->
<g id="edge23" class="edge"><title>Node12&#45;&gt;Node6</title>
<path fill="none" stroke="midnightblue" d="M617.947,-58.27C590.78,-49.3791 542.498,-33.5777 509.287,-22.7086"/>
<polygon fill="midnightblue" stroke="midnightblue" points="510.096,-19.291 499.504,-19.5069 507.919,-25.9437 510.096,-19.291"/>
</g>
<!-- Node12&#45;&gt;Node7 -->
<g id="edge25" class="edge"><title>Node12&#45;&gt;Node7</title>
<path fill="none" stroke="midnightblue" d="M617.902,-58.741C614.446,-57.7709 610.887,-56.8202 607.51,-56 537.128,-38.9034 453.379,-23.7414 409.249,-16.1484"/>
<polygon fill="midnightblue" stroke="midnightblue" points="409.617,-12.6607 399.171,-14.4278 408.439,-19.5609 409.617,-12.6607"/>
</g>
<!-- Node13 -->
<g id="node13" class="node"><title>Node13</title>
<polygon fill="none" stroke="#bfbfbf" points="612.51,-0.5 612.51,-19.5 664.51,-19.5 664.51,-0.5 612.51,-0.5"/>
<text text-anchor="middle" x="638.51" y="-7.5" font-family="Helvetica,sans-Serif" font-size="10.00">sstream</text>
</g>
<!-- Node12&#45;&gt;Node13 -->
<g id="edge24" class="edge"><title>Node12&#45;&gt;Node13</title>
<path fill="none" stroke="midnightblue" d="M638.51,-56.083C638.51,-49.0059 638.51,-38.8611 638.51,-29.9865"/>
<polygon fill="midnightblue" stroke="midnightblue" points="642.01,-29.751 638.51,-19.7511 635.01,-29.7511 642.01,-29.751"/>
</g>
<!-- Node14&#45;&gt;Node7 -->
<g id="edge27" class="edge"><title>Node14&#45;&gt;Node7</title>
<path fill="none" stroke="midnightblue" d="M98.728,-58.9627C160.845,-48.3141 288.857,-26.3692 347.696,-16.2824"/>
<polygon fill="midnightblue" stroke="midnightblue" points="348.582,-19.6818 357.847,-14.5424 347.399,-12.7824 348.582,-19.6818"/>
</g>
<!-- Node14&#45;&gt;Node8 -->
<g id="edge28" class="edge"><title>Node14&#45;&gt;Node8</title>
<path fill="none" stroke="midnightblue" d="M79.2558,-56.324C94.829,-47.7428 118.888,-34.486 136.97,-24.5224"/>
<polygon fill="midnightblue" stroke="midnightblue" points="138.735,-27.546 145.804,-19.6545 135.357,-21.4152 138.735,-27.546"/>
</g>
<!-- Node15&#45;&gt;Node6 -->
<g id="edge31" class="edge"><title>Node15&#45;&gt;Node6</title>
<path fill="none" stroke="midnightblue" d="M682.214,-56.4435C634.725,-46.1031 555.485,-28.8492 509.52,-18.8407"/>
<polygon fill="midnightblue" stroke="midnightblue" points="510.205,-15.4081 499.69,-16.7003 508.716,-22.2479 510.205,-15.4081"/>
</g>
<!-- Node15&#45;&gt;Node7 -->
<g id="edge32" class="edge"><title>Node15&#45;&gt;Node7</title>
<path fill="none" stroke="midnightblue" d="M676.727,-57.4983C673.609,-56.9876 670.513,-56.484 667.51,-56 573.476,-40.8432 462.085,-23.7381 409.258,-15.6773"/>
<polygon fill="midnightblue" stroke="midnightblue" points="409.611,-12.1909 399.198,-14.1437 408.556,-19.1109 409.611,-12.1909"/>
</g>
<!-- Node15&#45;&gt;Node10 -->
<g id="edge34" class="edge"><title>Node15&#45;&gt;Node10</title>
<path fill="none" stroke="midnightblue" d="M719.364,-56.083C717.641,-48.9272 715.163,-38.6353 713.01,-29.6911"/>
<polygon fill="midnightblue" stroke="midnightblue" points="716.361,-28.6541 710.617,-19.7511 709.555,-30.2925 716.361,-28.6541"/>
</g>
<!-- Node15&#45;&gt;Node16 -->
<g id="edge33" class="edge"><title>Node15&#45;&gt;Node16</title>
<path fill="none" stroke="midnightblue" d="M732.757,-56.324C743.308,-48.1849 759.311,-35.8395 771.953,-26.0874"/>
<polygon fill="midnightblue" stroke="midnightblue" points="774.279,-28.7132 780.059,-19.8339 770.003,-23.1707 774.279,-28.7132"/>
</g>
</g>
</svg>
        <g id="navigator" transform="translate(0 0)" fill="#404254">
                <rect fill="#f2f5e9" fill-opacity="0.5" stroke="#606060" stroke-width=".5" x="0" y="0" width="60" height="60"/>
                <use id="zoomplus" xlink:href="#zoomPlus" x="17" y="9" onmousedown="handleZoom(evt,'in')"/>
                <use id="zoomminus" xlink:href="#zoomMin" x="42" y="9" onmousedown="handleZoom(evt,'out')"/>
                <use id="reset" xlink:href="#resetDef" x="30" y="36" onmousedown="handleReset()"/>
                <g id="arrowUp" xlink:href="#dirArrow" transform="translate(30 24)" onmousedown="handlePan(0,-1)">
                  <use xlink:href="#rim" fill="#404040">
                        <set attributeName="fill" to="#808080" begin="arrowUp.mouseover" end="arrowUp.mouseout"/>
                  </use>
                  <path fill="none" stroke="white" stroke-width="1.5" d="M0,-3.0v7 M-2.5,-0.5L0,-3.0L2.5,-0.5"/>
                </g>
                <g id="arrowRight" xlink:href="#dirArrow" transform="rotate(90) translate(36 -43)" onmousedown="handlePan(1,0)">
                  <use xlink:href="#rim" fill="#404040">
                        <set attributeName="fill" to="#808080" begin="arrowRight.mouseover" end="arrowRight.mouseout"/>
                  </use>
                  <path fill="none" stroke="white" stroke-width="1.5" d="M0,-3.0v7 M-2.5,-0.5L0,-3.0L2.5,-0.5"/>
                </g>
                <g id="arrowDown" xlink:href="#dirArrow" transform="rotate(180) translate(-30 -48)" onmousedown="handlePan(0,1)">
                  <use xlink:href="#rim" fill="#404040">
                        <set attributeName="fill" to="#808080" begin="arrowDown.mouseover" end="arrowDown.mouseout"/>
                  </use>
                  <path fill="none" stroke="white" stroke-width="1.5" d="M0,-3.0v7 M-2.5,-0.5L0,-3.0L2.5,-0.5"/>
                </g>
                <g id="arrowLeft" xlink:href="#dirArrow" transform="rotate(270) translate(-36 17)" onmousedown="handlePan(-1,0)">
                  <use xlink:href="#rim" fill="#404040">
                        <set attributeName="fill" to="#808080" begin="arrowLeft.mouseover" end="arrowLeft.mouseout"/>
                  </use>
                  <path fill="none" stroke="white" stroke-width="1.5" d="M0,-3.0v7 M-2.5,-0.5L0,-3.0L2.5,-0.5"/>
                </g>
        </g>
        <svg viewBox="0 0 15 15" width="100%" height="30px" preserveAspectRatio="xMaxYMin meet">
         <g id="arrow_out" transform="scale(0.3 0.3)">
          <a xlink:href="_set_low_level_p_i_d_8cpp__incl_org.svg" target="_base">
           <rect id="button" ry="5" rx="5" y="6" x="6" height="38" width="38"
                fill="#f2f5e9" fill-opacity="0.5" stroke="#606060" stroke-width="1.0"/>
           <path id="arrow"
             d="M 11.500037,31.436501 C 11.940474,20.09759 22.043105,11.32322 32.158766,21.979434 L 37.068811,17.246167 C 37.068811,17.246167 37.088388,32 37.088388,32 L 22.160133,31.978069 C 22.160133,31.978069 26.997745,27.140456 26.997745,27.140456 C 18.528582,18.264221 13.291696,25.230495 11.500037,31.436501 z"
             style="fill:#404040;"/>
          </a>
         </g>
        </svg>
</svg>
