<?xml version="1.0" encoding="UTF-8" standalone="no"?>
<!DOCTYPE svg PUBLIC "-//W3C//DTD SVG 1.1//EN"
 "http://www.w3.org/Graphics/SVG/1.1/DTD/svg11.dtd">
<!-- Generated by graphviz version 2.36.0 (20140111.2315)
 -->
<!-- Title: /home/travis/build/robotology/wb&#45;toolbox/toolbox/src/SetReferences.cpp Pages: 1 -->
<svg width="2108pt" height="330pt"
 viewBox="0.00 0.00 2107.51 330.00" xmlns="http://www.w3.org/2000/svg" xmlns:xlink="http://www.w3.org/1999/xlink">
<g id="graph0" class="graph" transform="scale(1 1) rotate(0) translate(4 326)">
<title>/home/travis/build/robotology/wb&#45;toolbox/toolbox/src/SetReferences.cpp</title>
<!-- Node1 -->
<g id="node1" class="node"><title>Node1</title>
<polygon fill="#bfbfbf" stroke="black" points="804.01,-280.5 804.01,-321.5 959.01,-321.5 959.01,-280.5 804.01,-280.5"/>
<text text-anchor="start" x="812.01" y="-309.5" font-family="Helvetica,sans-Serif" font-size="10.00">/home/travis/build</text>
<text text-anchor="start" x="812.01" y="-298.5" font-family="Helvetica,sans-Serif" font-size="10.00">/robotology/wb&#45;toolbox</text>
<text text-anchor="middle" x="881.51" y="-287.5" font-family="Helvetica,sans-Serif" font-size="10.00">/toolbox/src/SetReferences.cpp</text>
</g>
<!-- Node2 -->
<g id="node2" class="node"><title>Node2</title>
<g id="a_node2"><a xlink:href="_set_references_8h.html" target="_top" xlink:title="SetReferences.h">
<polygon fill="none" stroke="black" points="495.51,-224.5 495.51,-243.5 585.51,-243.5 585.51,-224.5 495.51,-224.5"/>
<text text-anchor="middle" x="540.51" y="-231.5" font-family="Helvetica,sans-Serif" font-size="10.00">SetReferences.h</text>
</a>
</g>
</g>
<!-- Node1&#45;&gt;Node2 -->
<g id="edge1" class="edge"><title>Node1&#45;&gt;Node2</title>
<path fill="none" stroke="midnightblue" d="M803.706,-285.169C740.233,-273.07 652.137,-256.278 595.721,-245.524"/>
<polygon fill="midnightblue" stroke="midnightblue" points="596.048,-242.023 585.569,-243.589 594.737,-248.9 596.048,-242.023"/>
</g>
<!-- Node5 -->
<g id="node5" class="node"><title>Node5</title>
<g id="a_node5"><a xlink:href="_parameters_8h.html" target="_top" xlink:title="Parameters.h">
<polygon fill="none" stroke="black" points="256.01,-56.5 256.01,-75.5 331.01,-75.5 331.01,-56.5 256.01,-56.5"/>
<text text-anchor="middle" x="293.51" y="-63.5" font-family="Helvetica,sans-Serif" font-size="10.00">Parameters.h</text>
</a>
</g>
</g>
<!-- Node1&#45;&gt;Node5 -->
<g id="edge29" class="edge"><title>Node1&#45;&gt;Node5</title>
<path fill="none" stroke="midnightblue" d="M803.926,-295.392C701.271,-288.288 526.626,-272.416 469.51,-244 392.58,-205.726 329.237,-120.558 304.584,-84.0987"/>
<polygon fill="midnightblue" stroke="midnightblue" points="307.365,-81.9583 298.92,-75.5597 301.531,-85.8277 307.365,-81.9583"/>
</g>
<!-- Node8 -->
<g id="node8" class="node"><title>Node8</title>
<polygon fill="none" stroke="#bfbfbf" points="139.51,-0.5 139.51,-19.5 183.51,-19.5 183.51,-0.5 139.51,-0.5"/>
<text text-anchor="middle" x="161.51" y="-7.5" font-family="Helvetica,sans-Serif" font-size="10.00">vector</text>
</g>
<!-- Node1&#45;&gt;Node8 -->
<g id="edge48" class="edge"><title>Node1&#45;&gt;Node8</title>
<path fill="none" stroke="midnightblue" d="M803.714,-297.434C588.416,-289.304 0.510381,-259.716 0.510381,-179 0.510381,-179 0.510381,-179 0.510381,-121 0.510381,-90.9022 -1.53114,-77.5205 19.5104,-56 48.5861,-26.2625 97.1698,-16.1286 129.277,-12.7038"/>
<polygon fill="midnightblue" stroke="midnightblue" points="129.838,-16.1675 139.482,-11.781 129.207,-9.19594 129.838,-16.1675"/>
</g>
<!-- Node9 -->
<g id="node9" class="node"><title>Node9</title>
<g id="a_node9"><a xlink:href="_block_information_8h.html" target="_top" xlink:title="BlockInformation.h">
<polygon fill="none" stroke="black" points="425.51,-56.5 425.51,-75.5 523.51,-75.5 523.51,-56.5 425.51,-56.5"/>
<text text-anchor="middle" x="474.51" y="-63.5" font-family="Helvetica,sans-Serif" font-size="10.00">BlockInformation.h</text>
</a>
</g>
</g>
<!-- Node1&#45;&gt;Node9 -->
<g id="edge13" class="edge"><title>Node1&#45;&gt;Node9</title>
<path fill="none" stroke="midnightblue" d="M803.801,-300.12C701.092,-298.482 528.24,-288.899 486.51,-244 446.021,-200.436 459.787,-121.884 468.995,-85.9148"/>
<polygon fill="midnightblue" stroke="midnightblue" points="472.491,-86.3998 471.75,-75.8309 465.738,-84.5549 472.491,-86.3998"/>
</g>
<!-- Node11 -->
<g id="node11" class="node"><title>Node11</title>
<g id="a_node11"><a xlink:href="_configuration_8h.html" target="_top" xlink:title="Configuration.h">
<polygon fill="none" stroke="black" points="155.01,-56.5 155.01,-75.5 238.01,-75.5 238.01,-56.5 155.01,-56.5"/>
<text text-anchor="middle" x="196.51" y="-63.5" font-family="Helvetica,sans-Serif" font-size="10.00">Configuration.h</text>
</a>
</g>
</g>
<!-- Node1&#45;&gt;Node11 -->
<g id="edge18" class="edge"><title>Node1&#45;&gt;Node11</title>
<path fill="none" stroke="midnightblue" d="M803.803,-295.093C693.847,-287.335 498.946,-270.357 433.51,-244 338.255,-205.632 247.205,-119.206 211.911,-83.2117"/>
<polygon fill="midnightblue" stroke="midnightblue" points="213.994,-80.3306 204.525,-75.578 208.963,-85.1983 213.994,-80.3306"/>
</g>
<!-- Node12 -->
<g id="node12" class="node"><title>Node12</title>
<g id="a_node12"><a xlink:href="_log_8h.html" target="_top" xlink:title="Log.h">
<polygon fill="none" stroke="black" points="618.01,-56.5 618.01,-75.5 659.01,-75.5 659.01,-56.5 618.01,-56.5"/>
<text text-anchor="middle" x="638.51" y="-63.5" font-family="Helvetica,sans-Serif" font-size="10.00">Log.h</text>
</a>
</g>
</g>
<!-- Node1&#45;&gt;Node12 -->
<g id="edge22" class="edge"><title>Node1&#45;&gt;Node12</title>
<path fill="none" stroke="midnightblue" d="M803.601,-291.866C765.264,-284.525 720.357,-270.562 687.51,-244 639.411,-205.104 636.073,-123.509 637.277,-86.2705"/>
<polygon fill="midnightblue" stroke="midnightblue" points="640.794,-86.0051 637.777,-75.8489 633.802,-85.6699 640.794,-86.0051"/>
</g>
<!-- Node14 -->
<g id="node14" class="node"><title>Node14</title>
<g id="a_node14"><a xlink:href="_parameter_8h.html" target="_top" xlink:title="Parameter.h">
<polygon fill="none" stroke="black" points="28.5104,-56.5 28.5104,-75.5 98.5104,-75.5 98.5104,-56.5 28.5104,-56.5"/>
<text text-anchor="middle" x="63.5104" y="-63.5" font-family="Helvetica,sans-Serif" font-size="10.00">Parameter.h</text>
</a>
</g>
</g>
<!-- Node1&#45;&gt;Node14 -->
<g id="edge26" class="edge"><title>Node1&#45;&gt;Node14</title>
<path fill="none" stroke="midnightblue" d="M803.768,-300.243C705.164,-298.511 530.945,-288.585 389.51,-244 264.613,-204.628 132.447,-116.129 83.3611,-81.3877"/>
<polygon fill="midnightblue" stroke="midnightblue" points="85.3557,-78.5112 75.183,-75.5503 81.289,-84.2088 85.3557,-78.5112"/>
</g>
<!-- Node15 -->
<g id="node15" class="node"><title>Node15</title>
<g id="a_node15"><a xlink:href="_robot_interface_8h.html" target="_top" xlink:title="RobotInterface.h">
<polygon fill="none" stroke="black" points="716.01,-56.5 716.01,-75.5 805.01,-75.5 805.01,-56.5 716.01,-56.5"/>
<text text-anchor="middle" x="760.51" y="-63.5" font-family="Helvetica,sans-Serif" font-size="10.00">RobotInterface.h</text>
</a>
</g>
</g>
<!-- Node1&#45;&gt;Node15 -->
<g id="edge30" class="edge"><title>Node1&#45;&gt;Node15</title>
<path fill="none" stroke="midnightblue" d="M803.729,-288.964C776.956,-281.026 749.672,-267.394 733.51,-244 715.907,-218.518 742.067,-125.465 754.526,-85.4722"/>
<polygon fill="midnightblue" stroke="midnightblue" points="757.939,-86.2897 757.629,-75.6994 751.267,-84.1712 757.939,-86.2897"/>
</g>
<!-- Node17 -->
<g id="node17" class="node"><title>Node17</title>
<g id="a_node17"><a xlink:href="_signal_8h.html" target="_top" xlink:title="Signal.h">
<polygon fill="none" stroke="black" points="666.51,-168.5 666.51,-187.5 718.51,-187.5 718.51,-168.5 666.51,-168.5"/>
<text text-anchor="middle" x="692.51" y="-175.5" font-family="Helvetica,sans-Serif" font-size="10.00">Signal.h</text>
</a>
</g>
</g>
<!-- Node1&#45;&gt;Node17 -->
<g id="edge35" class="edge"><title>Node1&#45;&gt;Node17</title>
<path fill="none" stroke="midnightblue" d="M803.98,-295.012C767.19,-288.473 725.836,-274.276 700.51,-244 689.919,-231.338 688.768,-212.131 689.756,-197.876"/>
<polygon fill="midnightblue" stroke="midnightblue" points="693.258,-198.046 690.868,-187.725 686.3,-197.284 693.258,-198.046"/>
</g>
<!-- Node18 -->
<g id="node18" class="node"><title>Node18</title>
<polygon fill="none" stroke="#bfbfbf" points="742.51,-224.5 742.51,-243.5 874.51,-243.5 874.51,-224.5 742.51,-224.5"/>
<text text-anchor="middle" x="808.51" y="-231.5" font-family="Helvetica,sans-Serif" font-size="10.00">yarp/dev/ICurrentControl.h</text>
</g>
<!-- Node1&#45;&gt;Node18 -->
<g id="edge37" class="edge"><title>Node1&#45;&gt;Node18</title>
<path fill="none" stroke="midnightblue" d="M859.608,-280.498C848.846,-270.915 836.057,-259.528 825.966,-250.543"/>
<polygon fill="midnightblue" stroke="midnightblue" points="828.024,-247.689 818.228,-243.652 823.369,-252.916 828.024,-247.689"/>
</g>
<!-- Node19 -->
<g id="node19" class="node"><title>Node19</title>
<polygon fill="none" stroke="#bfbfbf" points="893.01,-224.5 893.01,-243.5 1018.01,-243.5 1018.01,-224.5 893.01,-224.5"/>
<text text-anchor="middle" x="955.51" y="-231.5" font-family="Helvetica,sans-Serif" font-size="10.00">yarp/dev/IPWMControl.h</text>
</g>
<!-- Node1&#45;&gt;Node19 -->
<g id="edge38" class="edge"><title>Node1&#45;&gt;Node19</title>
<path fill="none" stroke="midnightblue" d="M903.713,-280.498C914.731,-270.82 927.846,-259.3 938.122,-250.274"/>
<polygon fill="midnightblue" stroke="midnightblue" points="940.456,-252.882 945.66,-243.652 935.837,-247.622 940.456,-252.882"/>
</g>
<!-- Node20 -->
<g id="node20" class="node"><title>Node20</title>
<polygon fill="none" stroke="#bfbfbf" points="1036.01,-224.5 1036.01,-243.5 1171.01,-243.5 1171.01,-224.5 1036.01,-224.5"/>
<text text-anchor="middle" x="1103.51" y="-231.5" font-family="Helvetica,sans-Serif" font-size="10.00">yarp/dev/IPositionControl.h</text>
</g>
<!-- Node1&#45;&gt;Node20 -->
<g id="edge39" class="edge"><title>Node1&#45;&gt;Node20</title>
<path fill="none" stroke="midnightblue" d="M948.118,-280.498C986.033,-269.396 1032.22,-255.872 1064.34,-246.468"/>
<polygon fill="midnightblue" stroke="midnightblue" points="1065.64,-249.736 1074.25,-243.567 1063.67,-243.018 1065.64,-249.736"/>
</g>
<!-- Node21 -->
<g id="node21" class="node"><title>Node21</title>
<polygon fill="none" stroke="#bfbfbf" points="1189.51,-224.5 1189.51,-243.5 1319.51,-243.5 1319.51,-224.5 1189.51,-224.5"/>
<text text-anchor="middle" x="1254.51" y="-231.5" font-family="Helvetica,sans-Serif" font-size="10.00">yarp/dev/IPositionDirect.h</text>
</g>
<!-- Node1&#45;&gt;Node21 -->
<g id="edge40" class="edge"><title>Node1&#45;&gt;Node21</title>
<path fill="none" stroke="midnightblue" d="M959.249,-286.453C1029.68,-274.18 1131.91,-256.365 1195.73,-245.243"/>
<polygon fill="midnightblue" stroke="midnightblue" points="1196.38,-248.682 1205.64,-243.517 1195.18,-241.786 1196.38,-248.682"/>
</g>
<!-- Node22 -->
<g id="node22" class="node"><title>Node22</title>
<polygon fill="none" stroke="#bfbfbf" points="1337.51,-224.5 1337.51,-243.5 1467.51,-243.5 1467.51,-224.5 1337.51,-224.5"/>
<text text-anchor="middle" x="1402.51" y="-231.5" font-family="Helvetica,sans-Serif" font-size="10.00">yarp/dev/ITorqueControl.h</text>
</g>
<!-- Node1&#45;&gt;Node22 -->
<g id="edge41" class="edge"><title>Node1&#45;&gt;Node22</title>
<path fill="none" stroke="midnightblue" d="M959.228,-290.304C1058.54,-277.913 1229.31,-256.609 1327.37,-244.375"/>
<polygon fill="midnightblue" stroke="midnightblue" points="1328.01,-247.822 1337.5,-243.111 1327.14,-240.876 1328.01,-247.822"/>
</g>
<!-- Node23 -->
<g id="node23" class="node"><title>Node23</title>
<polygon fill="none" stroke="#bfbfbf" points="1486.01,-224.5 1486.01,-243.5 1621.01,-243.5 1621.01,-224.5 1486.01,-224.5"/>
<text text-anchor="middle" x="1553.51" y="-231.5" font-family="Helvetica,sans-Serif" font-size="10.00">yarp/dev/IVelocityControl.h</text>
</g>
<!-- Node1&#45;&gt;Node23 -->
<g id="edge42" class="edge"><title>Node1&#45;&gt;Node23</title>
<path fill="none" stroke="midnightblue" d="M959.061,-293.262C1070.74,-283.434 1283.61,-264.235 1475.9,-244.042"/>
<polygon fill="midnightblue" stroke="midnightblue" points="1476.34,-247.516 1485.91,-242.988 1475.6,-240.555 1476.34,-247.516"/>
</g>
<!-- Node24 -->
<g id="node24" class="node"><title>Node24</title>
<polygon fill="none" stroke="#bfbfbf" points="1639.51,-224.5 1639.51,-243.5 1763.51,-243.5 1763.51,-224.5 1639.51,-224.5"/>
<text text-anchor="middle" x="1701.51" y="-231.5" font-family="Helvetica,sans-Serif" font-size="10.00">yarp/dev/IControlMode.h</text>
</g>
<!-- Node1&#45;&gt;Node24 -->
<g id="edge43" class="edge"><title>Node1&#45;&gt;Node24</title>
<path fill="none" stroke="midnightblue" d="M959.152,-295.461C1095.15,-287.226 1385.25,-268.394 1629.51,-244 1629.61,-243.99 1629.71,-243.98 1629.82,-243.969"/>
<polygon fill="midnightblue" stroke="midnightblue" points="1629.9,-247.48 1639.48,-242.952 1629.17,-240.518 1629.9,-247.48"/>
</g>
<!-- Node25 -->
<g id="node25" class="node"><title>Node25</title>
<polygon fill="none" stroke="#bfbfbf" points="1782.01,-224.5 1782.01,-243.5 1911.01,-243.5 1911.01,-224.5 1782.01,-224.5"/>
<text text-anchor="middle" x="1846.51" y="-231.5" font-family="Helvetica,sans-Serif" font-size="10.00">yarp/dev/IControlMode2.h</text>
</g>
<!-- Node1&#45;&gt;Node25 -->
<g id="edge44" class="edge"><title>Node1&#45;&gt;Node25</title>
<path fill="none" stroke="midnightblue" d="M959.303,-296.588C1114.14,-289.469 1471.83,-271.387 1771.51,-244 1771.62,-243.99 1771.72,-243.981 1771.83,-243.971"/>
<polygon fill="midnightblue" stroke="midnightblue" points="1772.28,-247.443 1781.9,-242.989 1771.6,-240.476 1772.28,-247.443"/>
</g>
<!-- Node26 -->
<g id="node26" class="node"><title>Node26</title>
<polygon fill="none" stroke="#bfbfbf" points="1929.51,-224.5 1929.51,-243.5 1973.51,-243.5 1973.51,-224.5 1929.51,-224.5"/>
<text text-anchor="middle" x="1951.51" y="-231.5" font-family="Helvetica,sans-Serif" font-size="10.00">cmath</text>
</g>
<!-- Node1&#45;&gt;Node26 -->
<g id="edge45" class="edge"><title>Node1&#45;&gt;Node26</title>
<path fill="none" stroke="midnightblue" d="M959.272,-298.024C1164.11,-292.47 1716.05,-275.163 1919.28,-243.544"/>
<polygon fill="midnightblue" stroke="midnightblue" points="1919.96,-246.98 1929.27,-241.93 1918.84,-240.069 1919.96,-246.98"/>
</g>
<!-- Node27 -->
<g id="node27" class="node"><title>Node27</title>
<polygon fill="none" stroke="#bfbfbf" points="1991.51,-224.5 1991.51,-243.5 2043.51,-243.5 2043.51,-224.5 1991.51,-224.5"/>
<text text-anchor="middle" x="2017.51" y="-231.5" font-family="Helvetica,sans-Serif" font-size="10.00">ostream</text>
</g>
<!-- Node1&#45;&gt;Node27 -->
<g id="edge46" class="edge"><title>Node1&#45;&gt;Node27</title>
<path fill="none" stroke="midnightblue" d="M959.142,-298.008C1172.38,-292.231 1764.96,-274.032 1981.27,-243.638"/>
<polygon fill="midnightblue" stroke="midnightblue" points="1981.89,-247.085 1991.28,-242.182 1980.88,-240.158 1981.89,-247.085"/>
</g>
<!-- Node28 -->
<g id="node28" class="node"><title>Node28</title>
<polygon fill="none" stroke="#bfbfbf" points="2061.51,-224.5 2061.51,-243.5 2099.51,-243.5 2099.51,-224.5 2061.51,-224.5"/>
<text text-anchor="middle" x="2080.51" y="-231.5" font-family="Helvetica,sans-Serif" font-size="10.00">tuple</text>
</g>
<!-- Node1&#45;&gt;Node28 -->
<g id="edge47" class="edge"><title>Node1&#45;&gt;Node28</title>
<path fill="none" stroke="midnightblue" d="M959.36,-298.944C1182.53,-295.501 1822.61,-282.608 2051.47,-243.631"/>
<polygon fill="midnightblue" stroke="midnightblue" points="2052.16,-247.063 2061.4,-241.875 2050.94,-240.169 2052.16,-247.063"/>
</g>
<!-- Node3 -->
<g id="node3" class="node"><title>Node3</title>
<g id="a_node3"><a xlink:href="_w_b_block_8h.html" target="_top" xlink:title="WBBlock.h">
<polygon fill="none" stroke="black" points="544.51,-168.5 544.51,-187.5 610.51,-187.5 610.51,-168.5 544.51,-168.5"/>
<text text-anchor="middle" x="577.51" y="-175.5" font-family="Helvetica,sans-Serif" font-size="10.00">WBBlock.h</text>
</a>
</g>
</g>
<!-- Node2&#45;&gt;Node3 -->
<g id="edge2" class="edge"><title>Node2&#45;&gt;Node3</title>
<path fill="none" stroke="midnightblue" d="M546.62,-224.083C551.793,-216.534 559.357,-205.495 565.705,-196.23"/>
<polygon fill="midnightblue" stroke="midnightblue" points="568.749,-197.979 571.514,-187.751 562.975,-194.022 568.749,-197.979"/>
</g>
<!-- Node6 -->
<g id="node6" class="node"><title>Node6</title>
<polygon fill="none" stroke="#bfbfbf" points="522.51,-0.5 522.51,-19.5 574.51,-19.5 574.51,-0.5 522.51,-0.5"/>
<text text-anchor="middle" x="548.51" y="-7.5" font-family="Helvetica,sans-Serif" font-size="10.00">memory</text>
</g>
<!-- Node2&#45;&gt;Node6 -->
<g id="edge11" class="edge"><title>Node2&#45;&gt;Node6</title>
<path fill="none" stroke="midnightblue" d="M539.268,-224.397C538.03,-215.358 536.215,-200.715 535.51,-188 532.324,-130.46 540.732,-62.5205 545.494,-30.0896"/>
<polygon fill="midnightblue" stroke="midnightblue" points="549.011,-30.2458 547.055,-19.833 542.09,-29.1924 549.011,-30.2458"/>
</g>
<!-- Node7 -->
<g id="node7" class="node"><title>Node7</title>
<polygon fill="none" stroke="#bfbfbf" points="358.01,-0.5 358.01,-19.5 399.01,-19.5 399.01,-0.5 358.01,-0.5"/>
<text text-anchor="middle" x="378.51" y="-7.5" font-family="Helvetica,sans-Serif" font-size="10.00">string</text>
</g>
<!-- Node2&#45;&gt;Node7 -->
<g id="edge12" class="edge"><title>Node2&#45;&gt;Node7</title>
<path fill="none" stroke="midnightblue" d="M510.901,-224.407C472.397,-211.453 406.736,-182.859 378.51,-132 360.565,-99.6653 367.3,-54.5839 373.258,-29.5764"/>
<polygon fill="midnightblue" stroke="midnightblue" points="376.719,-30.176 375.85,-19.6169 369.944,-28.4133 376.719,-30.176"/>
</g>
<!-- Node4 -->
<g id="node4" class="node"><title>Node4</title>
<g id="a_node4"><a xlink:href="_block_8h.html" target="_top" xlink:title="Block.h">
<polygon fill="none" stroke="black" points="387.51,-112.5 387.51,-131.5 437.51,-131.5 437.51,-112.5 387.51,-112.5"/>
<text text-anchor="middle" x="412.51" y="-119.5" font-family="Helvetica,sans-Serif" font-size="10.00">Block.h</text>
</a>
</g>
</g>
<!-- Node3&#45;&gt;Node4 -->
<g id="edge3" class="edge"><title>Node3&#45;&gt;Node4</title>
<path fill="none" stroke="midnightblue" d="M551.366,-168.444C523.241,-159.239 478.379,-144.557 447.292,-134.383"/>
<polygon fill="midnightblue" stroke="midnightblue" points="448.314,-131.035 437.721,-131.251 446.136,-137.688 448.314,-131.035"/>
</g>
<!-- Node3&#45;&gt;Node6 -->
<g id="edge10" class="edge"><title>Node3&#45;&gt;Node6</title>
<path fill="none" stroke="midnightblue" d="M577.426,-168.365C577.065,-148.345 575.185,-97.3135 565.51,-56 563.392,-46.9538 559.904,-37.2717 556.638,-29.2148"/>
<polygon fill="midnightblue" stroke="midnightblue" points="559.744,-27.577 552.604,-19.7496 553.305,-30.3212 559.744,-27.577"/>
</g>
<!-- Node4&#45;&gt;Node5 -->
<g id="edge4" class="edge"><title>Node4&#45;&gt;Node5</title>
<path fill="none" stroke="midnightblue" d="M393.654,-112.444C374.244,-103.636 343.78,-89.8116 321.546,-79.722"/>
<polygon fill="midnightblue" stroke="midnightblue" points="322.831,-76.4615 312.278,-75.5164 319.938,-82.836 322.831,-76.4615"/>
</g>
<!-- Node4&#45;&gt;Node7 -->
<g id="edge8" class="edge"><title>Node4&#45;&gt;Node7</title>
<path fill="none" stroke="midnightblue" d="M409.842,-112.368C404.331,-94.5366 391.583,-53.2953 384.158,-29.2717"/>
<polygon fill="midnightblue" stroke="midnightblue" points="387.463,-28.1119 381.166,-19.5914 380.775,-30.179 387.463,-28.1119"/>
</g>
<!-- Node4&#45;&gt;Node8 -->
<g id="edge9" class="edge"><title>Node4&#45;&gt;Node8</title>
<path fill="none" stroke="midnightblue" d="M387.325,-120.707C326.895,-119.416 176.394,-112.524 145.51,-76 134.292,-62.7329 141.633,-42.7939 149.682,-28.5001"/>
<polygon fill="midnightblue" stroke="midnightblue" points="152.868,-30.0041 155.149,-19.6578 146.913,-26.3231 152.868,-30.0041"/>
</g>
<!-- Node5&#45;&gt;Node6 -->
<g id="edge5" class="edge"><title>Node5&#45;&gt;Node6</title>
<path fill="none" stroke="midnightblue" d="M331.137,-57.0321C379.925,-46.7005 464.435,-28.8041 512.447,-18.637"/>
<polygon fill="midnightblue" stroke="midnightblue" points="513.339,-22.0257 522.397,-16.5299 511.889,-15.1776 513.339,-22.0257"/>
</g>
<!-- Node5&#45;&gt;Node7 -->
<g id="edge6" class="edge"><title>Node5&#45;&gt;Node7</title>
<path fill="none" stroke="midnightblue" d="M307.167,-56.324C320.427,-47.9002 340.778,-34.9709 356.357,-25.0741"/>
<polygon fill="midnightblue" stroke="midnightblue" points="358.324,-27.9711 364.888,-19.6545 354.57,-22.0626 358.324,-27.9711"/>
</g>
<!-- Node5&#45;&gt;Node8 -->
<g id="edge7" class="edge"><title>Node5&#45;&gt;Node8</title>
<path fill="none" stroke="midnightblue" d="M272.595,-56.4435C250.774,-47.5171 216.361,-33.4387 191.618,-23.3168"/>
<polygon fill="midnightblue" stroke="midnightblue" points="192.909,-20.0634 182.328,-19.5164 190.259,-26.5422 192.909,-20.0634"/>
</g>
<!-- Node9&#45;&gt;Node6 -->
<g id="edge14" class="edge"><title>Node9&#45;&gt;Node6</title>
<path fill="none" stroke="midnightblue" d="M486.4,-56.324C497.661,-48.1066 514.797,-35.6017 528.22,-25.8069"/>
<polygon fill="midnightblue" stroke="midnightblue" points="530.39,-28.5559 536.405,-19.8339 526.264,-22.9014 530.39,-28.5559"/>
</g>
<!-- Node9&#45;&gt;Node7 -->
<g id="edge15" class="edge"><title>Node9&#45;&gt;Node7</title>
<path fill="none" stroke="midnightblue" d="M459.086,-56.324C443.971,-47.8215 420.695,-34.7288 403.039,-24.7975"/>
<polygon fill="midnightblue" stroke="midnightblue" points="404.328,-21.5066 393.896,-19.6545 400.896,-27.6077 404.328,-21.5066"/>
</g>
<!-- Node9&#45;&gt;Node8 -->
<g id="edge17" class="edge"><title>Node9&#45;&gt;Node8</title>
<path fill="none" stroke="midnightblue" d="M425.26,-56.5031C360.539,-45.3372 248.667,-26.0365 193.778,-16.5669"/>
<polygon fill="midnightblue" stroke="midnightblue" points="194.04,-13.0605 183.591,-14.8094 192.85,-19.9586 194.04,-13.0605"/>
</g>
<!-- Node10 -->
<g id="node10" class="node"><title>Node10</title>
<polygon fill="none" stroke="#bfbfbf" points="592.51,-0.5 592.51,-19.5 632.51,-19.5 632.51,-0.5 592.51,-0.5"/>
<text text-anchor="middle" x="612.51" y="-7.5" font-family="Helvetica,sans-Serif" font-size="10.00">utility</text>
</g>
<!-- Node9&#45;&gt;Node10 -->
<g id="edge16" class="edge"><title>Node9&#45;&gt;Node10</title>
<path fill="none" stroke="midnightblue" d="M496.377,-56.4435C519.694,-47.3194 556.767,-32.8125 582.738,-22.6501"/>
<polygon fill="midnightblue" stroke="midnightblue" points="584.059,-25.8917 592.096,-18.9883 581.508,-19.373 584.059,-25.8917"/>
</g>
<!-- Node11&#45;&gt;Node6 -->
<g id="edge19" class="edge"><title>Node11&#45;&gt;Node6</title>
<path fill="none" stroke="midnightblue" d="M238.236,-57.3923C241.035,-56.912 243.812,-56.4437 246.51,-56 342.286,-40.2483 455.552,-24.0083 512.292,-16.0367"/>
<polygon fill="midnightblue" stroke="midnightblue" points="512.794,-19.5006 522.211,-14.6464 511.822,-12.5683 512.794,-19.5006"/>
</g>
<!-- Node11&#45;&gt;Node7 -->
<g id="edge20" class="edge"><title>Node11&#45;&gt;Node7</title>
<path fill="none" stroke="midnightblue" d="M225.349,-56.4435C258.867,-46.4985 313.938,-30.1587 348.11,-20.02"/>
<polygon fill="midnightblue" stroke="midnightblue" points="349.405,-23.2864 357.997,-17.0865 347.414,-16.5756 349.405,-23.2864"/>
</g>
<!-- Node11&#45;&gt;Node8 -->
<g id="edge21" class="edge"><title>Node11&#45;&gt;Node8</title>
<path fill="none" stroke="midnightblue" d="M190.731,-56.083C185.838,-48.5341 178.683,-37.4948 172.678,-28.2298"/>
<polygon fill="midnightblue" stroke="midnightblue" points="175.558,-26.239 167.182,-19.7511 169.684,-30.0463 175.558,-26.239"/>
</g>
<!-- Node12&#45;&gt;Node6 -->
<g id="edge23" class="edge"><title>Node12&#45;&gt;Node6</title>
<path fill="none" stroke="midnightblue" d="M624.05,-56.324C610.011,-47.9002 588.462,-34.9709 571.967,-25.0741"/>
<polygon fill="midnightblue" stroke="midnightblue" points="573.31,-21.7983 562.935,-19.6545 569.709,-27.8007 573.31,-21.7983"/>
</g>
<!-- Node12&#45;&gt;Node7 -->
<g id="edge25" class="edge"><title>Node12&#45;&gt;Node7</title>
<path fill="none" stroke="midnightblue" d="M617.673,-60.6722C571.92,-51.1697 462.501,-28.4443 409.004,-17.3334"/>
<polygon fill="midnightblue" stroke="midnightblue" points="409.589,-13.8802 399.086,-15.2734 408.165,-20.7339 409.589,-13.8802"/>
</g>
<!-- Node13 -->
<g id="node13" class="node"><title>Node13</title>
<polygon fill="none" stroke="#bfbfbf" points="650.51,-0.5 650.51,-19.5 702.51,-19.5 702.51,-0.5 650.51,-0.5"/>
<text text-anchor="middle" x="676.51" y="-7.5" font-family="Helvetica,sans-Serif" font-size="10.00">sstream</text>
</g>
<!-- Node12&#45;&gt;Node13 -->
<g id="edge24" class="edge"><title>Node12&#45;&gt;Node13</title>
<path fill="none" stroke="midnightblue" d="M644.785,-56.083C650.153,-48.4554 658.028,-37.2645 664.589,-27.9408"/>
<polygon fill="midnightblue" stroke="midnightblue" points="667.46,-29.9434 670.352,-19.7511 661.735,-25.9149 667.46,-29.9434"/>
</g>
<!-- Node14&#45;&gt;Node7 -->
<g id="edge27" class="edge"><title>Node14&#45;&gt;Node7</title>
<path fill="none" stroke="midnightblue" d="M98.728,-58.9627C160.845,-48.3141 288.857,-26.3692 347.696,-16.2824"/>
<polygon fill="midnightblue" stroke="midnightblue" points="348.582,-19.6818 357.847,-14.5424 347.399,-12.7824 348.582,-19.6818"/>
</g>
<!-- Node14&#45;&gt;Node8 -->
<g id="edge28" class="edge"><title>Node14&#45;&gt;Node8</title>
<path fill="none" stroke="midnightblue" d="M79.2558,-56.324C94.829,-47.7428 118.888,-34.486 136.97,-24.5224"/>
<polygon fill="midnightblue" stroke="midnightblue" points="138.735,-27.546 145.804,-19.6545 135.357,-21.4152 138.735,-27.546"/>
</g>
<!-- Node15&#45;&gt;Node6 -->
<g id="edge31" class="edge"><title>Node15&#45;&gt;Node6</title>
<path fill="none" stroke="midnightblue" d="M726.901,-56.4842C693.309,-47.9664 639.911,-34.4095 584.819,-20.3301"/>
<polygon fill="midnightblue" stroke="midnightblue" points="585.437,-16.8755 574.882,-17.7894 583.703,-23.6573 585.437,-16.8755"/>
</g>
<!-- Node15&#45;&gt;Node7 -->
<g id="edge32" class="edge"><title>Node15&#45;&gt;Node7</title>
<path fill="none" stroke="midnightblue" d="M715.943,-58.6998C637.479,-47.6082 476.621,-24.869 409.255,-15.3461"/>
<polygon fill="midnightblue" stroke="midnightblue" points="409.664,-11.8693 399.273,-13.935 408.685,-18.8003 409.664,-11.8693"/>
</g>
<!-- Node15&#45;&gt;Node10 -->
<g id="edge34" class="edge"><title>Node15&#45;&gt;Node10</title>
<path fill="none" stroke="midnightblue" d="M737.059,-56.4435C711.361,-47.0673 670.085,-32.0068 642.16,-21.818"/>
<polygon fill="midnightblue" stroke="midnightblue" points="643.123,-18.4439 632.529,-18.3042 640.724,-25.0198 643.123,-18.4439"/>
</g>
<!-- Node16 -->
<g id="node16" class="node"><title>Node16</title>
<polygon fill="none" stroke="#bfbfbf" points="721.01,-0.5 721.01,-19.5 804.01,-19.5 804.01,-0.5 721.01,-0.5"/>
<text text-anchor="middle" x="762.51" y="-7.5" font-family="Helvetica,sans-Serif" font-size="10.00">unordered_map</text>
</g>
<!-- Node15&#45;&gt;Node16 -->
<g id="edge33" class="edge"><title>Node15&#45;&gt;Node16</title>
<path fill="none" stroke="midnightblue" d="M760.841,-56.083C761.103,-49.0059 761.478,-38.8611 761.807,-29.9865"/>
<polygon fill="midnightblue" stroke="midnightblue" points="765.314,-29.8738 762.186,-19.7511 758.318,-29.6147 765.314,-29.8738"/>
</g>
<!-- Node17&#45;&gt;Node6 -->
<g id="edge36" class="edge"><title>Node17&#45;&gt;Node6</title>
<path fill="none" stroke="midnightblue" d="M693.328,-168.489C694.916,-146.918 696.057,-89.448 667.51,-56 656.431,-43.0189 615.367,-29.3126 584.554,-20.4865"/>
<polygon fill="midnightblue" stroke="midnightblue" points="585.129,-17.0131 574.556,-17.6886 583.243,-23.7541 585.129,-17.0131"/>
</g>
</g>
</svg>
