<?xml version="1.0" encoding="UTF-8" standalone="no"?>
<!DOCTYPE svg PUBLIC "-//W3C//DTD SVG 1.1//EN"
 "http://www.w3.org/Graphics/SVG/1.1/DTD/svg11.dtd">
<!-- Generated by graphviz version 2.36.0 (20140111.2315)
 -->
<!-- Title: /home/travis/build/robotology/wb&#45;toolbox/toolbox/src/SetReferences.cpp Pages: 1 -->
<svg width="2016pt" height="330pt"
 viewBox="0.00 0.00 2016.26 330.00" xmlns="http://www.w3.org/2000/svg" xmlns:xlink="http://www.w3.org/1999/xlink">
<g id="graph0" class="graph" transform="scale(1 1) rotate(0) translate(4 326)">
<title>/home/travis/build/robotology/wb&#45;toolbox/toolbox/src/SetReferences.cpp</title>
<!-- Node1 -->
<g id="node1" class="node"><title>Node1</title>
<polygon fill="#bfbfbf" stroke="black" points="695.76,-280.5 695.76,-321.5 850.76,-321.5 850.76,-280.5 695.76,-280.5"/>
<text text-anchor="start" x="703.76" y="-309.5" font-family="Helvetica,sans-Serif" font-size="10.00">/home/travis/build</text>
<text text-anchor="start" x="703.76" y="-298.5" font-family="Helvetica,sans-Serif" font-size="10.00">/robotology/wb&#45;toolbox</text>
<text text-anchor="middle" x="773.26" y="-287.5" font-family="Helvetica,sans-Serif" font-size="10.00">/toolbox/src/SetReferences.cpp</text>
</g>
<!-- Node2 -->
<g id="node2" class="node"><title>Node2</title>
<g id="a_node2"><a xlink:href="_set_references_8h.html" target="_top" xlink:title="SetReferences.h">
<polygon fill="none" stroke="black" points="384.26,-224.5 384.26,-243.5 474.26,-243.5 474.26,-224.5 384.26,-224.5"/>
<text text-anchor="middle" x="429.26" y="-231.5" font-family="Helvetica,sans-Serif" font-size="10.00">SetReferences.h</text>
</a>
</g>
</g>
<!-- Node1&#45;&gt;Node2 -->
<g id="edge1" class="edge"><title>Node1&#45;&gt;Node2</title>
<path fill="none" stroke="midnightblue" d="M695.63,-285.332C631.324,-273.181 541.526,-256.213 484.385,-245.416"/>
<polygon fill="midnightblue" stroke="midnightblue" points="484.934,-241.958 474.458,-243.54 483.634,-248.836 484.934,-241.958"/>
</g>
<!-- Node5 -->
<g id="node5" class="node"><title>Node5</title>
<g id="a_node5"><a xlink:href="_parameters_8h.html" target="_top" xlink:title="Parameters.h">
<polygon fill="none" stroke="black" points="255.76,-56.5 255.76,-75.5 330.76,-75.5 330.76,-56.5 255.76,-56.5"/>
<text text-anchor="middle" x="293.26" y="-63.5" font-family="Helvetica,sans-Serif" font-size="10.00">Parameters.h</text>
</a>
</g>
</g>
<!-- Node1&#45;&gt;Node5 -->
<g id="edge28" class="edge"><title>Node1&#45;&gt;Node5</title>
<path fill="none" stroke="midnightblue" d="M695.401,-293.84C596.354,-285.18 431.405,-267.765 375.26,-244 337.927,-228.198 322.557,-223.652 303.26,-188 285.597,-155.367 287.497,-110.397 290.407,-85.489"/>
<polygon fill="midnightblue" stroke="midnightblue" points="293.877,-85.9516 291.749,-75.5726 286.94,-85.0131 293.877,-85.9516"/>
</g>
<!-- Node8 -->
<g id="node8" class="node"><title>Node8</title>
<polygon fill="none" stroke="#bfbfbf" points="104.26,-0.5 104.26,-19.5 148.26,-19.5 148.26,-0.5 104.26,-0.5"/>
<text text-anchor="middle" x="126.26" y="-7.5" font-family="Helvetica,sans-Serif" font-size="10.00">vector</text>
</g>
<!-- Node1&#45;&gt;Node8 -->
<g id="edge46" class="edge"><title>Node1&#45;&gt;Node8</title>
<path fill="none" stroke="midnightblue" d="M695.602,-295.92C499.58,-284.59 0.259623,-248.87 0.259623,-179 0.259623,-179 0.259623,-179 0.259623,-121 0.259623,-90.9022 -0.778869,-78.4574 19.2596,-56 38.6609,-34.2568 70.2834,-22.7194 94.1309,-16.7956"/>
<polygon fill="midnightblue" stroke="midnightblue" points="95.1669,-20.1494 104.142,-14.5196 93.6151,-13.3236 95.1669,-20.1494"/>
</g>
<!-- Node9 -->
<g id="node9" class="node"><title>Node9</title>
<g id="a_node9"><a xlink:href="_block_information_8h.html" target="_top" xlink:title="BlockInformation.h">
<polygon fill="none" stroke="black" points="599.26,-56.5 599.26,-75.5 697.26,-75.5 697.26,-56.5 599.26,-56.5"/>
<text text-anchor="middle" x="648.26" y="-63.5" font-family="Helvetica,sans-Serif" font-size="10.00">BlockInformation.h</text>
</a>
</g>
</g>
<!-- Node1&#45;&gt;Node9 -->
<g id="edge13" class="edge"><title>Node1&#45;&gt;Node9</title>
<path fill="none" stroke="midnightblue" d="M729.458,-280.333C713.972,-271.337 697.802,-259.238 687.26,-244 652.999,-194.48 648.167,-120.088 647.911,-85.6806"/>
<polygon fill="midnightblue" stroke="midnightblue" points="651.411,-85.6568 647.963,-75.6386 644.411,-85.6201 651.411,-85.6568"/>
</g>
<!-- Node11 -->
<g id="node11" class="node"><title>Node11</title>
<g id="a_node11"><a xlink:href="_configuration_8h.html" target="_top" xlink:title="Configuration.h">
<polygon fill="none" stroke="black" points="154.76,-56.5 154.76,-75.5 237.76,-75.5 237.76,-56.5 154.76,-56.5"/>
<text text-anchor="middle" x="196.26" y="-63.5" font-family="Helvetica,sans-Serif" font-size="10.00">Configuration.h</text>
</a>
</g>
</g>
<!-- Node1&#45;&gt;Node11 -->
<g id="edge17" class="edge"><title>Node1&#45;&gt;Node11</title>
<path fill="none" stroke="midnightblue" d="M695.739,-297.379C585.674,-292.46 390.742,-278.974 330.26,-244 264.665,-206.071 220.792,-122.013 203.962,-85.0431"/>
<polygon fill="midnightblue" stroke="midnightblue" points="207.015,-83.2944 199.773,-75.5612 200.612,-86.1228 207.015,-83.2944"/>
</g>
<!-- Node12 -->
<g id="node12" class="node"><title>Node12</title>
<g id="a_node12"><a xlink:href="_log_8h.html" target="_top" xlink:title="Log.h">
<polygon fill="none" stroke="black" points="425.76,-56.5 425.76,-75.5 466.76,-75.5 466.76,-56.5 425.76,-56.5"/>
<text text-anchor="middle" x="446.26" y="-63.5" font-family="Helvetica,sans-Serif" font-size="10.00">Log.h</text>
</a>
</g>
</g>
<!-- Node1&#45;&gt;Node12 -->
<g id="edge21" class="edge"><title>Node1&#45;&gt;Node12</title>
<path fill="none" stroke="midnightblue" d="M695.536,-281.984C666.484,-273.191 634.062,-260.799 607.26,-244 538.088,-200.644 480.238,-119.545 457.092,-84.2019"/>
<polygon fill="midnightblue" stroke="midnightblue" points="459.857,-82.0317 451.503,-75.516 453.97,-85.8195 459.857,-82.0317"/>
</g>
<!-- Node14 -->
<g id="node14" class="node"><title>Node14</title>
<g id="a_node14"><a xlink:href="_parameter_8h.html" target="_top" xlink:title="Parameter.h">
<polygon fill="none" stroke="black" points="28.2596,-56.5 28.2596,-75.5 98.2596,-75.5 98.2596,-56.5 28.2596,-56.5"/>
<text text-anchor="middle" x="63.2596" y="-63.5" font-family="Helvetica,sans-Serif" font-size="10.00">Parameter.h</text>
</a>
</g>
</g>
<!-- Node1&#45;&gt;Node14 -->
<g id="edge25" class="edge"><title>Node1&#45;&gt;Node14</title>
<path fill="none" stroke="midnightblue" d="M695.364,-295.718C579.887,-288.542 369.368,-272.047 299.26,-244 204.172,-205.96 113.638,-119.35 78.5619,-83.2589"/>
<polygon fill="midnightblue" stroke="midnightblue" points="80.669,-80.3994 71.2215,-75.604 75.6165,-85.2443 80.669,-80.3994"/>
</g>
<!-- Node15 -->
<g id="node15" class="node"><title>Node15</title>
<g id="a_node15"><a xlink:href="_robot_interface_8h.html" target="_top" xlink:title="RobotInterface.h">
<polygon fill="none" stroke="black" points="714.76,-56.5 714.76,-75.5 803.76,-75.5 803.76,-56.5 714.76,-56.5"/>
<text text-anchor="middle" x="759.26" y="-63.5" font-family="Helvetica,sans-Serif" font-size="10.00">RobotInterface.h</text>
</a>
</g>
</g>
<!-- Node1&#45;&gt;Node15 -->
<g id="edge29" class="edge"><title>Node1&#45;&gt;Node15</title>
<path fill="none" stroke="midnightblue" d="M733.742,-280.455C719.898,-271.415 705.907,-259.253 698.26,-244 670.165,-187.961 719.026,-115.896 744.834,-83.7602"/>
<polygon fill="midnightblue" stroke="midnightblue" points="747.741,-85.7375 751.419,-75.8016 742.347,-81.2752 747.741,-85.7375"/>
</g>
<!-- Node17 -->
<g id="node17" class="node"><title>Node17</title>
<g id="a_node17"><a xlink:href="_signal_8h.html" target="_top" xlink:title="Signal.h">
<polygon fill="none" stroke="black" points="561.26,-168.5 561.26,-187.5 613.26,-187.5 613.26,-168.5 561.26,-168.5"/>
<text text-anchor="middle" x="587.26" y="-175.5" font-family="Helvetica,sans-Serif" font-size="10.00">Signal.h</text>
</a>
</g>
</g>
<!-- Node1&#45;&gt;Node17 -->
<g id="edge34" class="edge"><title>Node1&#45;&gt;Node17</title>
<path fill="none" stroke="midnightblue" d="M695.449,-280.684C671.798,-272.176 646.897,-260.297 627.26,-244 612.163,-231.471 601.148,-211.692 594.544,-197.24"/>
<polygon fill="midnightblue" stroke="midnightblue" points="597.673,-195.654 590.52,-187.838 591.238,-198.408 597.673,-195.654"/>
</g>
<!-- Node18 -->
<g id="node18" class="node"><title>Node18</title>
<polygon fill="none" stroke="#bfbfbf" points="707.26,-224.5 707.26,-243.5 839.26,-243.5 839.26,-224.5 707.26,-224.5"/>
<text text-anchor="middle" x="773.26" y="-231.5" font-family="Helvetica,sans-Serif" font-size="10.00">yarp/dev/ICurrentControl.h</text>
</g>
<!-- Node1&#45;&gt;Node18 -->
<g id="edge36" class="edge"><title>Node1&#45;&gt;Node18</title>
<path fill="none" stroke="midnightblue" d="M773.26,-280.498C773.26,-272.065 773.26,-262.235 773.26,-253.874"/>
<polygon fill="midnightblue" stroke="midnightblue" points="776.76,-253.652 773.26,-243.652 769.76,-253.653 776.76,-253.652"/>
</g>
<!-- Node19 -->
<g id="node19" class="node"><title>Node19</title>
<polygon fill="none" stroke="#bfbfbf" points="857.76,-224.5 857.76,-243.5 982.76,-243.5 982.76,-224.5 857.76,-224.5"/>
<text text-anchor="middle" x="920.26" y="-231.5" font-family="Helvetica,sans-Serif" font-size="10.00">yarp/dev/IPWMControl.h</text>
</g>
<!-- Node1&#45;&gt;Node19 -->
<g id="edge37" class="edge"><title>Node1&#45;&gt;Node19</title>
<path fill="none" stroke="midnightblue" d="M817.364,-280.498C841.311,-269.909 870.241,-257.117 891.319,-247.797"/>
<polygon fill="midnightblue" stroke="midnightblue" points="892.961,-250.898 900.692,-243.652 890.13,-244.496 892.961,-250.898"/>
</g>
<!-- Node20 -->
<g id="node20" class="node"><title>Node20</title>
<polygon fill="none" stroke="#bfbfbf" points="1000.76,-224.5 1000.76,-243.5 1135.76,-243.5 1135.76,-224.5 1000.76,-224.5"/>
<text text-anchor="middle" x="1068.26" y="-231.5" font-family="Helvetica,sans-Serif" font-size="10.00">yarp/dev/IPositionControl.h</text>
</g>
<!-- Node1&#45;&gt;Node20 -->
<g id="edge38" class="edge"><title>Node1&#45;&gt;Node20</title>
<path fill="none" stroke="midnightblue" d="M850.767,-282.922C904.252,-271.137 973.719,-255.831 1019.58,-245.726"/>
<polygon fill="midnightblue" stroke="midnightblue" points="1020.55,-249.096 1029.57,-243.526 1019.05,-242.26 1020.55,-249.096"/>
</g>
<!-- Node21 -->
<g id="node21" class="node"><title>Node21</title>
<polygon fill="none" stroke="#bfbfbf" points="1154.26,-224.5 1154.26,-243.5 1284.26,-243.5 1284.26,-224.5 1154.26,-224.5"/>
<text text-anchor="middle" x="1219.26" y="-231.5" font-family="Helvetica,sans-Serif" font-size="10.00">yarp/dev/IPositionDirect.h</text>
</g>
<!-- Node1&#45;&gt;Node21 -->
<g id="edge39" class="edge"><title>Node1&#45;&gt;Node21</title>
<path fill="none" stroke="midnightblue" d="M850.947,-288.678C935.672,-276.33 1069.97,-256.758 1150.85,-244.97"/>
<polygon fill="midnightblue" stroke="midnightblue" points="1151.53,-248.407 1160.92,-243.502 1150.52,-241.481 1151.53,-248.407"/>
</g>
<!-- Node22 -->
<g id="node22" class="node"><title>Node22</title>
<polygon fill="none" stroke="#bfbfbf" points="1302.26,-224.5 1302.26,-243.5 1432.26,-243.5 1432.26,-224.5 1302.26,-224.5"/>
<text text-anchor="middle" x="1367.26" y="-231.5" font-family="Helvetica,sans-Serif" font-size="10.00">yarp/dev/ITorqueControl.h</text>
</g>
<!-- Node1&#45;&gt;Node22 -->
<g id="edge40" class="edge"><title>Node1&#45;&gt;Node22</title>
<path fill="none" stroke="midnightblue" d="M850.824,-291.983C950.393,-281.616 1128.79,-262.788 1291.69,-244.168"/>
<polygon fill="midnightblue" stroke="midnightblue" points="1292.36,-247.614 1301.9,-242.999 1291.56,-240.66 1292.36,-247.614"/>
</g>
<!-- Node23 -->
<g id="node23" class="node"><title>Node23</title>
<polygon fill="none" stroke="#bfbfbf" points="1450.76,-224.5 1450.76,-243.5 1585.76,-243.5 1585.76,-224.5 1450.76,-224.5"/>
<text text-anchor="middle" x="1518.26" y="-231.5" font-family="Helvetica,sans-Serif" font-size="10.00">yarp/dev/IVelocityControl.h</text>
</g>
<!-- Node1&#45;&gt;Node23 -->
<g id="edge41" class="edge"><title>Node1&#45;&gt;Node23</title>
<path fill="none" stroke="midnightblue" d="M850.987,-294.313C973.748,-285.148 1220.29,-265.997 1440.53,-244.041"/>
<polygon fill="midnightblue" stroke="midnightblue" points="1441.07,-247.506 1450.67,-243.027 1440.37,-240.54 1441.07,-247.506"/>
</g>
<!-- Node24 -->
<g id="node24" class="node"><title>Node24</title>
<polygon fill="none" stroke="#bfbfbf" points="1604.26,-224.5 1604.26,-243.5 1728.26,-243.5 1728.26,-224.5 1604.26,-224.5"/>
<text text-anchor="middle" x="1666.26" y="-231.5" font-family="Helvetica,sans-Serif" font-size="10.00">yarp/dev/IControlMode.h</text>
</g>
<!-- Node1&#45;&gt;Node24 -->
<g id="edge42" class="edge"><title>Node1&#45;&gt;Node24</title>
<path fill="none" stroke="midnightblue" d="M850.917,-296.162C996.777,-288.63 1321.58,-270.321 1594.26,-244 1594.36,-243.99 1594.46,-243.98 1594.57,-243.97"/>
<polygon fill="midnightblue" stroke="midnightblue" points="1594.64,-247.481 1604.23,-242.978 1593.93,-240.518 1594.64,-247.481"/>
</g>
<!-- Node25 -->
<g id="node25" class="node"><title>Node25</title>
<polygon fill="none" stroke="#bfbfbf" points="1746.76,-224.5 1746.76,-243.5 1875.76,-243.5 1875.76,-224.5 1746.76,-224.5"/>
<text text-anchor="middle" x="1811.26" y="-231.5" font-family="Helvetica,sans-Serif" font-size="10.00">yarp/dev/IControlMode2.h</text>
</g>
<!-- Node1&#45;&gt;Node25 -->
<g id="edge43" class="edge"><title>Node1&#45;&gt;Node25</title>
<path fill="none" stroke="midnightblue" d="M850.77,-297.108C1014.52,-290.642 1407.64,-273.244 1736.26,-244 1736.37,-243.991 1736.47,-243.981 1736.58,-243.972"/>
<polygon fill="midnightblue" stroke="midnightblue" points="1737.03,-247.445 1746.65,-243.008 1736.36,-240.477 1737.03,-247.445"/>
</g>
<!-- Node26 -->
<g id="node26" class="node"><title>Node26</title>
<polygon fill="none" stroke="#bfbfbf" points="1894.26,-224.5 1894.26,-243.5 1938.26,-243.5 1938.26,-224.5 1894.26,-224.5"/>
<text text-anchor="middle" x="1916.26" y="-231.5" font-family="Helvetica,sans-Serif" font-size="10.00">cmath</text>
</g>
<!-- Node1&#45;&gt;Node26 -->
<g id="edge44" class="edge"><title>Node1&#45;&gt;Node26</title>
<path fill="none" stroke="midnightblue" d="M850.93,-298.345C1065.75,-293.415 1665.71,-277.162 1883.92,-243.554"/>
<polygon fill="midnightblue" stroke="midnightblue" points="1884.7,-246.974 1894.02,-241.94 1883.6,-240.062 1884.7,-246.974"/>
</g>
<!-- Node27 -->
<g id="node27" class="node"><title>Node27</title>
<polygon fill="none" stroke="#bfbfbf" points="1956.26,-224.5 1956.26,-243.5 2008.26,-243.5 2008.26,-224.5 1956.26,-224.5"/>
<text text-anchor="middle" x="1982.26" y="-231.5" font-family="Helvetica,sans-Serif" font-size="10.00">ostream</text>
</g>
<!-- Node1&#45;&gt;Node27 -->
<g id="edge45" class="edge"><title>Node1&#45;&gt;Node27</title>
<path fill="none" stroke="midnightblue" d="M851.133,-298.287C1074.39,-293.063 1714.84,-275.806 1946,-243.636"/>
<polygon fill="midnightblue" stroke="midnightblue" points="1946.63,-247.081 1956.03,-242.192 1945.64,-240.152 1946.63,-247.081"/>
</g>
<!-- Node3 -->
<g id="node3" class="node"><title>Node3</title>
<g id="a_node3"><a xlink:href="_w_b_block_8h.html" target="_top" xlink:title="WBBlock.h">
<polygon fill="none" stroke="black" points="312.26,-168.5 312.26,-187.5 378.26,-187.5 378.26,-168.5 312.26,-168.5"/>
<text text-anchor="middle" x="345.26" y="-175.5" font-family="Helvetica,sans-Serif" font-size="10.00">WBBlock.h</text>
</a>
</g>
</g>
<!-- Node2&#45;&gt;Node3 -->
<g id="edge2" class="edge"><title>Node2&#45;&gt;Node3</title>
<path fill="none" stroke="midnightblue" d="M415.764,-224.324C402.66,-215.9 382.548,-202.971 367.153,-193.074"/>
<polygon fill="midnightblue" stroke="midnightblue" points="369.027,-190.118 358.722,-187.655 365.241,-196.006 369.027,-190.118"/>
</g>
<!-- Node6 -->
<g id="node6" class="node"><title>Node6</title>
<polygon fill="none" stroke="#bfbfbf" points="498.26,-0.5 498.26,-19.5 550.26,-19.5 550.26,-0.5 498.26,-0.5"/>
<text text-anchor="middle" x="524.26" y="-7.5" font-family="Helvetica,sans-Serif" font-size="10.00">memory</text>
</g>
<!-- Node2&#45;&gt;Node6 -->
<g id="edge11" class="edge"><title>Node2&#45;&gt;Node6</title>
<path fill="none" stroke="midnightblue" d="M433.255,-224.192C444.017,-200.406 474.413,-132.83 498.26,-76 504.799,-60.4148 511.906,-42.5815 517.034,-29.5414"/>
<polygon fill="midnightblue" stroke="midnightblue" points="520.434,-30.4575 520.821,-19.8697 513.916,-27.9056 520.434,-30.4575"/>
</g>
<!-- Node7 -->
<g id="node7" class="node"><title>Node7</title>
<polygon fill="none" stroke="#bfbfbf" points="349.76,-0.5 349.76,-19.5 390.76,-19.5 390.76,-0.5 349.76,-0.5"/>
<text text-anchor="middle" x="370.26" y="-7.5" font-family="Helvetica,sans-Serif" font-size="10.00">string</text>
</g>
<!-- Node2&#45;&gt;Node7 -->
<g id="edge12" class="edge"><title>Node2&#45;&gt;Node7</title>
<path fill="none" stroke="midnightblue" d="M426.947,-224.297C418.247,-191.563 387.368,-75.3752 375.221,-29.6664"/>
<polygon fill="midnightblue" stroke="midnightblue" points="378.572,-28.6493 372.621,-19.8837 371.807,-30.4473 378.572,-28.6493"/>
</g>
<!-- Node4 -->
<g id="node4" class="node"><title>Node4</title>
<g id="a_node4"><a xlink:href="_block_8h.html" target="_top" xlink:title="Block.h">
<polygon fill="none" stroke="black" points="316.26,-112.5 316.26,-131.5 366.26,-131.5 366.26,-112.5 316.26,-112.5"/>
<text text-anchor="middle" x="341.26" y="-119.5" font-family="Helvetica,sans-Serif" font-size="10.00">Block.h</text>
</a>
</g>
</g>
<!-- Node3&#45;&gt;Node4 -->
<g id="edge3" class="edge"><title>Node3&#45;&gt;Node4</title>
<path fill="none" stroke="midnightblue" d="M344.599,-168.083C344.075,-161.006 343.323,-150.861 342.666,-141.986"/>
<polygon fill="midnightblue" stroke="midnightblue" points="346.137,-141.465 341.908,-131.751 339.156,-141.982 346.137,-141.465"/>
</g>
<!-- Node3&#45;&gt;Node6 -->
<g id="edge10" class="edge"><title>Node3&#45;&gt;Node6</title>
<path fill="none" stroke="midnightblue" d="M358.735,-168.292C383.436,-151.966 436.941,-114.88 475.26,-76 489.929,-61.116 504,-41.7389 513.27,-28.0257"/>
<polygon fill="midnightblue" stroke="midnightblue" points="516.271,-29.8331 518.869,-19.5617 510.433,-25.9711 516.271,-29.8331"/>
</g>
<!-- Node4&#45;&gt;Node5 -->
<g id="edge4" class="edge"><title>Node4&#45;&gt;Node5</title>
<path fill="none" stroke="midnightblue" d="M333.333,-112.083C326.414,-104.298 316.194,-92.8015 307.808,-83.3665"/>
<polygon fill="midnightblue" stroke="midnightblue" points="310.298,-80.8999 301.038,-75.7511 305.066,-85.5505 310.298,-80.8999"/>
</g>
<!-- Node4&#45;&gt;Node7 -->
<g id="edge8" class="edge"><title>Node4&#45;&gt;Node7</title>
<path fill="none" stroke="midnightblue" d="M343.535,-112.368C348.236,-94.5366 359.109,-53.2953 365.443,-29.2717"/>
<polygon fill="midnightblue" stroke="midnightblue" points="368.83,-30.1533 367.995,-19.5914 362.061,-28.3688 368.83,-30.1533"/>
</g>
<!-- Node4&#45;&gt;Node8 -->
<g id="edge9" class="edge"><title>Node4&#45;&gt;Node8</title>
<path fill="none" stroke="midnightblue" d="M315.945,-118.365C268.726,-112.953 169.772,-99.1138 145.26,-76 132.706,-64.1621 128.301,-44.5336 126.828,-29.9382"/>
<polygon fill="midnightblue" stroke="midnightblue" points="130.296,-29.3176 126.176,-19.5569 123.31,-29.7568 130.296,-29.3176"/>
</g>
<!-- Node5&#45;&gt;Node6 -->
<g id="edge5" class="edge"><title>Node5&#45;&gt;Node6</title>
<path fill="none" stroke="midnightblue" d="M329.862,-56.4435C373.322,-46.2842 445.328,-29.4515 488.441,-19.3732"/>
<polygon fill="midnightblue" stroke="midnightblue" points="489.282,-22.7709 498.223,-17.0865 487.689,-15.9547 489.282,-22.7709"/>
</g>
<!-- Node5&#45;&gt;Node7 -->
<g id="edge6" class="edge"><title>Node5&#45;&gt;Node7</title>
<path fill="none" stroke="midnightblue" d="M305.631,-56.324C317.418,-48.0577 335.392,-35.4527 349.395,-25.6322"/>
<polygon fill="midnightblue" stroke="midnightblue" points="351.741,-28.2619 357.919,-19.6545 347.722,-22.5307 351.741,-28.2619"/>
</g>
<!-- Node5&#45;&gt;Node8 -->
<g id="edge7" class="edge"><title>Node5&#45;&gt;Node8</title>
<path fill="none" stroke="midnightblue" d="M266.798,-56.4435C237.254,-46.8902 189.46,-31.436 157.947,-21.2461"/>
<polygon fill="midnightblue" stroke="midnightblue" points="158.923,-17.8833 148.331,-18.1368 156.769,-24.5438 158.923,-17.8833"/>
</g>
<!-- Node9&#45;&gt;Node6 -->
<g id="edge14" class="edge"><title>Node9&#45;&gt;Node6</title>
<path fill="none" stroke="midnightblue" d="M628.611,-56.4435C608.295,-47.5961 576.357,-33.6875 553.162,-23.5865"/>
<polygon fill="midnightblue" stroke="midnightblue" points="554.382,-20.3002 543.816,-19.5164 551.587,-26.7181 554.382,-20.3002"/>
</g>
<!-- Node9&#45;&gt;Node7 -->
<g id="edge15" class="edge"><title>Node9&#45;&gt;Node7</title>
<path fill="none" stroke="midnightblue" d="M600.967,-56.4296C553.074,-47.6544 476.909,-33.435 411.26,-20 407.975,-19.3279 404.548,-18.6067 401.134,-17.8759"/>
<polygon fill="midnightblue" stroke="midnightblue" points="401.608,-14.3973 391.093,-15.6934 400.121,-21.2376 401.608,-14.3973"/>
</g>
<!-- Node10 -->
<g id="node10" class="node"><title>Node10</title>
<polygon fill="none" stroke="#bfbfbf" points="643.26,-0.5 643.26,-19.5 683.26,-19.5 683.26,-0.5 643.26,-0.5"/>
<text text-anchor="middle" x="663.26" y="-7.5" font-family="Helvetica,sans-Serif" font-size="10.00">utility</text>
</g>
<!-- Node9&#45;&gt;Node10 -->
<g id="edge16" class="edge"><title>Node9&#45;&gt;Node10</title>
<path fill="none" stroke="midnightblue" d="M650.737,-56.083C652.746,-48.8486 655.646,-38.4087 658.149,-29.3968"/>
<polygon fill="midnightblue" stroke="midnightblue" points="661.525,-30.323 660.829,-19.7511 654.78,-28.4495 661.525,-30.323"/>
</g>
<!-- Node11&#45;&gt;Node6 -->
<g id="edge18" class="edge"><title>Node11&#45;&gt;Node6</title>
<path fill="none" stroke="midnightblue" d="M237.987,-57.405C240.786,-56.9217 243.563,-56.4492 246.26,-56 350.487,-38.6393 377.288,-38.8302 481.26,-20 483.455,-19.6024 485.71,-19.1782 487.982,-18.7386"/>
<polygon fill="midnightblue" stroke="midnightblue" points="488.807,-22.1431 497.925,-16.748 487.432,-15.2793 488.807,-22.1431"/>
</g>
<!-- Node11&#45;&gt;Node7 -->
<g id="edge19" class="edge"><title>Node11&#45;&gt;Node7</title>
<path fill="none" stroke="midnightblue" d="M223.83,-56.4435C255.391,-46.6487 306.94,-30.6509 339.702,-20.4836"/>
<polygon fill="midnightblue" stroke="midnightblue" points="341.116,-23.7094 349.629,-17.4026 339.041,-17.0239 341.116,-23.7094"/>
</g>
<!-- Node11&#45;&gt;Node8 -->
<g id="edge20" class="edge"><title>Node11&#45;&gt;Node8</title>
<path fill="none" stroke="midnightblue" d="M185.013,-56.324C174.462,-48.1849 158.459,-35.8395 145.817,-26.0874"/>
<polygon fill="midnightblue" stroke="midnightblue" points="147.767,-23.1707 137.711,-19.8339 143.491,-28.7132 147.767,-23.1707"/>
</g>
<!-- Node12&#45;&gt;Node6 -->
<g id="edge22" class="edge"><title>Node12&#45;&gt;Node6</title>
<path fill="none" stroke="midnightblue" d="M458.792,-56.324C470.846,-47.979 489.286,-35.2122 503.528,-25.3524"/>
<polygon fill="midnightblue" stroke="midnightblue" points="505.529,-28.2243 511.759,-19.6545 501.544,-22.469 505.529,-28.2243"/>
</g>
<!-- Node12&#45;&gt;Node7 -->
<g id="edge24" class="edge"><title>Node12&#45;&gt;Node7</title>
<path fill="none" stroke="midnightblue" d="M434.049,-56.324C422.484,-48.1066 404.884,-35.6017 391.099,-25.8069"/>
<polygon fill="midnightblue" stroke="midnightblue" points="392.872,-22.7729 382.693,-19.8339 388.817,-28.4791 392.872,-22.7729"/>
</g>
<!-- Node13 -->
<g id="node13" class="node"><title>Node13</title>
<polygon fill="none" stroke="#bfbfbf" points="420.26,-0.5 420.26,-19.5 472.26,-19.5 472.26,-0.5 420.26,-0.5"/>
<text text-anchor="middle" x="446.26" y="-7.5" font-family="Helvetica,sans-Serif" font-size="10.00">sstream</text>
</g>
<!-- Node12&#45;&gt;Node13 -->
<g id="edge23" class="edge"><title>Node12&#45;&gt;Node13</title>
<path fill="none" stroke="midnightblue" d="M446.26,-56.083C446.26,-49.0059 446.26,-38.8611 446.26,-29.9865"/>
<polygon fill="midnightblue" stroke="midnightblue" points="449.76,-29.751 446.26,-19.7511 442.76,-29.7511 449.76,-29.751"/>
</g>
<!-- Node14&#45;&gt;Node7 -->
<g id="edge26" class="edge"><title>Node14&#45;&gt;Node7</title>
<path fill="none" stroke="midnightblue" d="M98.4764,-58.8055C159.119,-48.1388 282.256,-26.4795 339.597,-16.3934"/>
<polygon fill="midnightblue" stroke="midnightblue" points="340.266,-19.8295 349.509,-14.65 339.053,-12.9354 340.266,-19.8295"/>
</g>
<!-- Node14&#45;&gt;Node8 -->
<g id="edge27" class="edge"><title>Node14&#45;&gt;Node8</title>
<path fill="none" stroke="midnightblue" d="M73.3817,-56.324C82.786,-48.2631 97.0037,-36.0765 108.329,-26.3695"/>
<polygon fill="midnightblue" stroke="midnightblue" points="110.639,-28.9993 115.953,-19.8339 106.083,-23.6844 110.639,-28.9993"/>
</g>
<!-- Node15&#45;&gt;Node6 -->
<g id="edge30" class="edge"><title>Node15&#45;&gt;Node6</title>
<path fill="none" stroke="midnightblue" d="M722.023,-56.4435C677.691,-46.2567 604.16,-29.3602 560.343,-19.2914"/>
<polygon fill="midnightblue" stroke="midnightblue" points="560.937,-15.8369 550.407,-17.0084 559.37,-22.6591 560.937,-15.8369"/>
</g>
<!-- Node15&#45;&gt;Node7 -->
<g id="edge31" class="edge"><title>Node15&#45;&gt;Node7</title>
<path fill="none" stroke="midnightblue" d="M714.494,-57.3857C711.371,-56.9017 708.27,-56.4349 705.26,-56 574.97,-37.1746 541.028,-42.1371 411.26,-20 407.955,-19.4363 404.514,-18.7846 401.093,-18.0947"/>
<polygon fill="midnightblue" stroke="midnightblue" points="401.552,-14.6141 391.043,-15.9603 400.098,-21.4614 401.552,-14.6141"/>
</g>
<!-- Node15&#45;&gt;Node10 -->
<g id="edge33" class="edge"><title>Node15&#45;&gt;Node10</title>
<path fill="none" stroke="midnightblue" d="M743.836,-56.324C728.72,-47.8215 705.444,-34.7288 687.788,-24.7975"/>
<polygon fill="midnightblue" stroke="midnightblue" points="689.077,-21.5066 678.645,-19.6545 685.645,-27.6077 689.077,-21.5066"/>
</g>
<!-- Node16 -->
<g id="node16" class="node"><title>Node16</title>
<polygon fill="none" stroke="#bfbfbf" points="717.76,-0.5 717.76,-19.5 800.76,-19.5 800.76,-0.5 717.76,-0.5"/>
<text text-anchor="middle" x="759.26" y="-7.5" font-family="Helvetica,sans-Serif" font-size="10.00">unordered_map</text>
</g>
<!-- Node15&#45;&gt;Node16 -->
<g id="edge32" class="edge"><title>Node15&#45;&gt;Node16</title>
<path fill="none" stroke="midnightblue" d="M759.26,-56.083C759.26,-49.0059 759.26,-38.8611 759.26,-29.9865"/>
<polygon fill="midnightblue" stroke="midnightblue" points="762.76,-29.751 759.26,-19.7511 755.76,-29.7511 762.76,-29.751"/>
</g>
<!-- Node17&#45;&gt;Node6 -->
<g id="edge35" class="edge"><title>Node17&#45;&gt;Node6</title>
<path fill="none" stroke="midnightblue" d="M584.889,-168.326C579.287,-148.224 564.409,-97.0317 547.26,-56 543.411,-46.7917 538.442,-36.882 534.107,-28.7123"/>
<polygon fill="midnightblue" stroke="midnightblue" points="537.101,-26.8915 529.253,-19.774 530.95,-30.2321 537.101,-26.8915"/>
</g>
</g>
</svg>
