<?xml version="1.0" encoding="UTF-8" standalone="no"?>
<!DOCTYPE svg PUBLIC "-//W3C//DTD SVG 1.1//EN"
 "http://www.w3.org/Graphics/SVG/1.1/DTD/svg11.dtd">
<!-- Generated by graphviz version 2.36.0 (20140111.2315)
 -->
<!-- Title: /home/travis/build/robotology/wb&#45;toolbox/toolbox/src/SetLowLevelPID.cpp Pages: 1 -->
<svg width="1243pt" height="330pt"
 viewBox="0.00 0.00 1243.50 330.00" xmlns="http://www.w3.org/2000/svg" xmlns:xlink="http://www.w3.org/1999/xlink">
<g id="graph0" class="graph" transform="scale(1 1) rotate(0) translate(4 326)">
<title>/home/travis/build/robotology/wb&#45;toolbox/toolbox/src/SetLowLevelPID.cpp</title>
<!-- Node1 -->
<g id="node1" class="node"><title>Node1</title>
<polygon fill="#bfbfbf" stroke="black" points="588.999,-280.5 588.999,-321.5 751.999,-321.5 751.999,-280.5 588.999,-280.5"/>
<text text-anchor="start" x="596.999" y="-309.5" font-family="Helvetica,sans-Serif" font-size="10.00">/home/travis/build</text>
<text text-anchor="start" x="596.999" y="-298.5" font-family="Helvetica,sans-Serif" font-size="10.00">/robotology/wb&#45;toolbox</text>
<text text-anchor="middle" x="670.499" y="-287.5" font-family="Helvetica,sans-Serif" font-size="10.00">/toolbox/src/SetLowLevelPID.cpp</text>
</g>
<!-- Node2 -->
<g id="node2" class="node"><title>Node2</title>
<g id="a_node2"><a xlink:href="_set_low_level_p_i_d_8h.html" target="_top" xlink:title="SetLowLevelPID.h">
<polygon fill="none" stroke="black" points="292.499,-224.5 292.499,-243.5 390.499,-243.5 390.499,-224.5 292.499,-224.5"/>
<text text-anchor="middle" x="341.499" y="-231.5" font-family="Helvetica,sans-Serif" font-size="10.00">SetLowLevelPID.h</text>
</a>
</g>
</g>
<!-- Node1&#45;&gt;Node2 -->
<g id="edge1" class="edge"><title>Node1&#45;&gt;Node2</title>
<path fill="none" stroke="midnightblue" d="M588.751,-283.849C528.09,-271.864 447.13,-255.869 394.656,-245.502"/>
<polygon fill="midnightblue" stroke="midnightblue" points="395.044,-242.011 384.555,-243.506 393.687,-248.878 395.044,-242.011"/>
</g>
<!-- Node5 -->
<g id="node5" class="node"><title>Node5</title>
<g id="a_node5"><a xlink:href="_parameters_8h.html" target="_top" xlink:title="Parameters.h">
<polygon fill="none" stroke="black" points="154.999,-56.5 154.999,-75.5 229.999,-75.5 229.999,-56.5 154.999,-56.5"/>
<text text-anchor="middle" x="192.499" y="-63.5" font-family="Helvetica,sans-Serif" font-size="10.00">Parameters.h</text>
</a>
</g>
</g>
<!-- Node1&#45;&gt;Node5 -->
<g id="edge30" class="edge"><title>Node1&#45;&gt;Node5</title>
<path fill="none" stroke="midnightblue" d="M588.692,-294.562C491.216,-286.983 335.052,-271.04 283.499,-244 223.065,-212.302 201.717,-124.161 195.116,-85.5363"/>
<polygon fill="midnightblue" stroke="midnightblue" points="198.572,-84.9861 193.569,-75.6473 191.656,-86.0681 198.572,-84.9861"/>
</g>
<!-- Node8 -->
<g id="node8" class="node"><title>Node8</title>
<polygon fill="none" stroke="#bfbfbf" points="137.499,-0.5 137.499,-19.5 181.499,-19.5 181.499,-0.5 137.499,-0.5"/>
<text text-anchor="middle" x="159.499" y="-7.5" font-family="Helvetica,sans-Serif" font-size="10.00">vector</text>
</g>
<!-- Node1&#45;&gt;Node8 -->
<g id="edge42" class="edge"><title>Node1&#45;&gt;Node8</title>
<path fill="none" stroke="midnightblue" d="M588.679,-293.675C409.946,-278.76 0.499318,-238.137 0.499318,-179 0.499318,-179 0.499318,-179 0.499318,-121 0.499318,-90.9022 -1.49795,-77.5637 19.4993,-56 47.9827,-26.7483 95.5134,-16.4824 127.178,-12.8969"/>
<polygon fill="midnightblue" stroke="midnightblue" points="127.643,-16.3684 137.258,-11.9193 126.967,-9.40109 127.643,-16.3684"/>
</g>
<!-- Node9 -->
<g id="node9" class="node"><title>Node9</title>
<g id="a_node9"><a xlink:href="_block_information_8h.html" target="_top" xlink:title="BlockInformation.h">
<polygon fill="none" stroke="black" points="540.499,-56.5 540.499,-75.5 638.499,-75.5 638.499,-56.5 540.499,-56.5"/>
<text text-anchor="middle" x="589.499" y="-63.5" font-family="Helvetica,sans-Serif" font-size="10.00">BlockInformation.h</text>
</a>
</g>
</g>
<!-- Node1&#45;&gt;Node9 -->
<g id="edge14" class="edge"><title>Node1&#45;&gt;Node9</title>
<path fill="none" stroke="midnightblue" d="M663.593,-280.135C648.108,-235.59 610.799,-128.27 595.851,-85.2698"/>
<polygon fill="midnightblue" stroke="midnightblue" points="599.074,-83.8826 592.484,-75.5863 592.462,-86.1811 599.074,-83.8826"/>
</g>
<!-- Node11 -->
<g id="node11" class="node"><title>Node11</title>
<g id="a_node11"><a xlink:href="_configuration_8h.html" target="_top" xlink:title="Configuration.h">
<polygon fill="none" stroke="black" points="362.999,-56.5 362.999,-75.5 445.999,-75.5 445.999,-56.5 362.999,-56.5"/>
<text text-anchor="middle" x="404.499" y="-63.5" font-family="Helvetica,sans-Serif" font-size="10.00">Configuration.h</text>
</a>
</g>
</g>
<!-- Node1&#45;&gt;Node11 -->
<g id="edge19" class="edge"><title>Node1&#45;&gt;Node11</title>
<path fill="none" stroke="midnightblue" d="M647.82,-280.135C595.779,-234.55 468.685,-123.223 422.039,-82.3639"/>
<polygon fill="midnightblue" stroke="midnightblue" points="424.13,-79.5426 414.302,-75.5863 419.518,-84.8082 424.13,-79.5426"/>
</g>
<!-- Node12 -->
<g id="node12" class="node"><title>Node12</title>
<g id="a_node12"><a xlink:href="_log_8h.html" target="_top" xlink:title="Log.h">
<polygon fill="none" stroke="black" points="656.999,-56.5 656.999,-75.5 697.999,-75.5 697.999,-56.5 656.999,-56.5"/>
<text text-anchor="middle" x="677.499" y="-63.5" font-family="Helvetica,sans-Serif" font-size="10.00">Log.h</text>
</a>
</g>
</g>
<!-- Node1&#45;&gt;Node12 -->
<g id="edge23" class="edge"><title>Node1&#45;&gt;Node12</title>
<path fill="none" stroke="midnightblue" d="M670.909,-280.238C671.645,-245.979 673.321,-173.344 675.499,-112 675.805,-103.395 676.218,-93.8669 676.589,-85.8023"/>
<polygon fill="midnightblue" stroke="midnightblue" points="680.094,-85.7792 677.07,-75.625 673.102,-85.4484 680.094,-85.7792"/>
</g>
<!-- Node14 -->
<g id="node14" class="node"><title>Node14</title>
<g id="a_node14"><a xlink:href="_parameter_8h.html" target="_top" xlink:title="Parameter.h">
<polygon fill="none" stroke="black" points="28.4993,-56.5 28.4993,-75.5 98.4993,-75.5 98.4993,-56.5 28.4993,-56.5"/>
<text text-anchor="middle" x="63.4993" y="-63.5" font-family="Helvetica,sans-Serif" font-size="10.00">Parameter.h</text>
</a>
</g>
</g>
<!-- Node1&#45;&gt;Node14 -->
<g id="edge27" class="edge"><title>Node1&#45;&gt;Node14</title>
<path fill="none" stroke="midnightblue" d="M588.79,-294.864C484.899,-287.331 312.092,-271.155 254.499,-244 173.074,-205.608 102.76,-119.852 75.5357,-83.6425"/>
<polygon fill="midnightblue" stroke="midnightblue" points="78.3217,-81.5233 69.5622,-75.5632 72.6931,-85.6849 78.3217,-81.5233"/>
</g>
<!-- Node15 -->
<g id="node15" class="node"><title>Node15</title>
<g id="a_node15"><a xlink:href="_robot_interface_8h.html" target="_top" xlink:title="RobotInterface.h">
<polygon fill="none" stroke="black" points="715.999,-56.5 715.999,-75.5 804.999,-75.5 804.999,-56.5 715.999,-56.5"/>
<text text-anchor="middle" x="760.499" y="-63.5" font-family="Helvetica,sans-Serif" font-size="10.00">RobotInterface.h</text>
</a>
</g>
</g>
<!-- Node1&#45;&gt;Node15 -->
<g id="edge31" class="edge"><title>Node1&#45;&gt;Node15</title>
<path fill="none" stroke="midnightblue" d="M678.173,-280.135C695.415,-235.495 737.009,-127.814 753.548,-84.9968"/>
<polygon fill="midnightblue" stroke="midnightblue" points="756.844,-86.1758 757.183,-75.5863 750.315,-83.6535 756.844,-86.1758"/>
</g>
<!-- Node16 -->
<g id="node16" class="node"><title>Node16</title>
<polygon fill="none" stroke="#bfbfbf" points="756.999,-0.5 756.999,-19.5 839.999,-19.5 839.999,-0.5 756.999,-0.5"/>
<text text-anchor="middle" x="798.499" y="-7.5" font-family="Helvetica,sans-Serif" font-size="10.00">unordered_map</text>
</g>
<!-- Node1&#45;&gt;Node16 -->
<g id="edge41" class="edge"><title>Node1&#45;&gt;Node16</title>
<path fill="none" stroke="midnightblue" d="M688.811,-280.404C721.653,-243.733 789.387,-160.76 813.499,-76 817.95,-60.3544 813.002,-42.3109 807.628,-29.2101"/>
<polygon fill="midnightblue" stroke="midnightblue" points="810.723,-27.5595 803.399,-19.9034 804.35,-30.4555 810.723,-27.5595"/>
</g>
<!-- Node17 -->
<g id="node17" class="node"><title>Node17</title>
<polygon fill="none" stroke="#bfbfbf" points="755.999,-224.5 755.999,-243.5 892.999,-243.5 892.999,-224.5 755.999,-224.5"/>
<text text-anchor="middle" x="824.499" y="-231.5" font-family="Helvetica,sans-Serif" font-size="10.00">yarp/dev/ControlBoardPid.h</text>
</g>
<!-- Node1&#45;&gt;Node17 -->
<g id="edge36" class="edge"><title>Node1&#45;&gt;Node17</title>
<path fill="none" stroke="midnightblue" d="M716.704,-280.498C742.018,-269.813 772.648,-256.885 794.778,-247.545"/>
<polygon fill="midnightblue" stroke="midnightblue" points="796.148,-250.766 804,-243.652 793.426,-244.317 796.148,-250.766"/>
</g>
<!-- Node18 -->
<g id="node18" class="node"><title>Node18</title>
<polygon fill="none" stroke="#bfbfbf" points="911.499,-224.5 911.499,-243.5 1025.5,-243.5 1025.5,-224.5 911.499,-224.5"/>
<text text-anchor="middle" x="968.499" y="-231.5" font-family="Helvetica,sans-Serif" font-size="10.00">yarp/dev/IPidControl.h</text>
</g>
<!-- Node1&#45;&gt;Node18 -->
<g id="edge37" class="edge"><title>Node1&#45;&gt;Node18</title>
<path fill="none" stroke="midnightblue" d="M752.323,-282.152C805.826,-270.482 873.945,-255.624 919.272,-245.737"/>
<polygon fill="midnightblue" stroke="midnightblue" points="920.125,-249.134 929.149,-243.583 918.633,-242.295 920.125,-249.134"/>
</g>
<!-- Node19 -->
<g id="node19" class="node"><title>Node19</title>
<polygon fill="none" stroke="#bfbfbf" points="1043.5,-224.5 1043.5,-243.5 1099.5,-243.5 1099.5,-224.5 1043.5,-224.5"/>
<text text-anchor="middle" x="1071.5" y="-231.5" font-family="Helvetica,sans-Serif" font-size="10.00">algorithm</text>
</g>
<!-- Node1&#45;&gt;Node19 -->
<g id="edge38" class="edge"><title>Node1&#45;&gt;Node19</title>
<path fill="none" stroke="midnightblue" d="M752.17,-289.481C823.86,-279.777 931.113,-264.125 1033.39,-244.084"/>
<polygon fill="midnightblue" stroke="midnightblue" points="1034.14,-247.503 1043.27,-242.13 1032.78,-240.636 1034.14,-247.503"/>
</g>
<!-- Node20 -->
<g id="node20" class="node"><title>Node20</title>
<polygon fill="none" stroke="#bfbfbf" points="1118,-224.5 1118,-243.5 1165,-243.5 1165,-224.5 1118,-224.5"/>
<text text-anchor="middle" x="1141.5" y="-231.5" font-family="Helvetica,sans-Serif" font-size="10.00">iterator</text>
</g>
<!-- Node1&#45;&gt;Node20 -->
<g id="edge39" class="edge"><title>Node1&#45;&gt;Node20</title>
<path fill="none" stroke="midnightblue" d="M752.359,-292.75C840.552,-284.187 984.765,-268 1107.5,-244 1107.6,-243.979 1107.71,-243.959 1107.81,-243.938"/>
<polygon fill="midnightblue" stroke="midnightblue" points="1108.82,-247.299 1117.81,-241.695 1107.29,-240.469 1108.82,-247.299"/>
</g>
<!-- Node21 -->
<g id="node21" class="node"><title>Node21</title>
<polygon fill="none" stroke="#bfbfbf" points="1183.5,-224.5 1183.5,-243.5 1235.5,-243.5 1235.5,-224.5 1183.5,-224.5"/>
<text text-anchor="middle" x="1209.5" y="-231.5" font-family="Helvetica,sans-Serif" font-size="10.00">ostream</text>
</g>
<!-- Node1&#45;&gt;Node21 -->
<g id="edge40" class="edge"><title>Node1&#45;&gt;Node21</title>
<path fill="none" stroke="midnightblue" d="M752.003,-294.306C849.745,-286.718 1018.6,-271.2 1173.09,-243.818"/>
<polygon fill="midnightblue" stroke="midnightblue" points="1174.02,-247.207 1183.24,-241.997 1172.78,-240.317 1174.02,-247.207"/>
</g>
<!-- Node3 -->
<g id="node3" class="node"><title>Node3</title>
<g id="a_node3"><a xlink:href="_w_b_block_8h.html" target="_top" xlink:title="WBBlock.h">
<polygon fill="none" stroke="black" points="240.499,-168.5 240.499,-187.5 306.499,-187.5 306.499,-168.5 240.499,-168.5"/>
<text text-anchor="middle" x="273.499" y="-175.5" font-family="Helvetica,sans-Serif" font-size="10.00">WBBlock.h</text>
</a>
</g>
</g>
<!-- Node2&#45;&gt;Node3 -->
<g id="edge2" class="edge"><title>Node2&#45;&gt;Node3</title>
<path fill="none" stroke="midnightblue" d="M330.574,-224.324C320.325,-216.185 304.779,-203.839 292.498,-194.087"/>
<polygon fill="midnightblue" stroke="midnightblue" points="294.631,-191.312 284.623,-187.834 290.278,-196.794 294.631,-191.312"/>
</g>
<!-- Node6 -->
<g id="node6" class="node"><title>Node6</title>
<polygon fill="none" stroke="#bfbfbf" points="486.499,-0.5 486.499,-19.5 538.499,-19.5 538.499,-0.5 486.499,-0.5"/>
<text text-anchor="middle" x="512.499" y="-7.5" font-family="Helvetica,sans-Serif" font-size="10.00">memory</text>
</g>
<!-- Node2&#45;&gt;Node6 -->
<g id="edge12" class="edge"><title>Node2&#45;&gt;Node6</title>
<path fill="none" stroke="midnightblue" d="M350.437,-224.455C373.763,-201.837 437.571,-137.892 479.499,-76 489.581,-61.1183 498.634,-42.7417 504.696,-29.329"/>
<polygon fill="midnightblue" stroke="midnightblue" points="508.065,-30.3617 508.879,-19.7982 501.655,-27.5483 508.065,-30.3617"/>
</g>
<!-- Node7 -->
<g id="node7" class="node"><title>Node7</title>
<polygon fill="none" stroke="#bfbfbf" points="313.999,-0.5 313.999,-19.5 354.999,-19.5 354.999,-0.5 313.999,-0.5"/>
<text text-anchor="middle" x="334.499" y="-7.5" font-family="Helvetica,sans-Serif" font-size="10.00">string</text>
</g>
<!-- Node2&#45;&gt;Node7 -->
<g id="edge13" class="edge"><title>Node2&#45;&gt;Node7</title>
<path fill="none" stroke="midnightblue" d="M341.225,-224.297C340.195,-191.633 336.545,-75.8661 335.097,-29.9573"/>
<polygon fill="midnightblue" stroke="midnightblue" points="338.593,-29.7684 334.779,-19.8837 331.596,-29.9891 338.593,-29.7684"/>
</g>
<!-- Node4 -->
<g id="node4" class="node"><title>Node4</title>
<g id="a_node4"><a xlink:href="_block_8h.html" target="_top" xlink:title="Block.h">
<polygon fill="none" stroke="black" points="218.499,-112.5 218.499,-131.5 268.499,-131.5 268.499,-112.5 218.499,-112.5"/>
<text text-anchor="middle" x="243.499" y="-119.5" font-family="Helvetica,sans-Serif" font-size="10.00">Block.h</text>
</a>
</g>
</g>
<!-- Node3&#45;&gt;Node4 -->
<g id="edge3" class="edge"><title>Node3&#45;&gt;Node4</title>
<path fill="none" stroke="midnightblue" d="M268.545,-168.083C264.395,-160.613 258.346,-149.724 253.233,-140.52"/>
<polygon fill="midnightblue" stroke="midnightblue" points="256.277,-138.793 248.361,-131.751 250.158,-142.192 256.277,-138.793"/>
</g>
<!-- Node3&#45;&gt;Node6 -->
<g id="edge10" class="edge"><title>Node3&#45;&gt;Node6</title>
<path fill="none" stroke="midnightblue" d="M293.575,-168.485C328.452,-153.13 401.569,-118.42 454.499,-76 472.119,-61.8792 488.914,-42.1214 499.853,-28.1041"/>
<polygon fill="midnightblue" stroke="midnightblue" points="502.873,-29.9153 506.146,-19.8387 497.304,-25.6748 502.873,-29.9153"/>
</g>
<!-- Node3&#45;&gt;Node7 -->
<g id="edge11" class="edge"><title>Node3&#45;&gt;Node7</title>
<path fill="none" stroke="midnightblue" d="M276.779,-168.075C286.422,-141.832 314.823,-64.5453 327.842,-29.1165"/>
<polygon fill="midnightblue" stroke="midnightblue" points="331.187,-30.1617 331.351,-19.5681 324.616,-27.7472 331.187,-30.1617"/>
</g>
<!-- Node4&#45;&gt;Node5 -->
<g id="edge4" class="edge"><title>Node4&#45;&gt;Node5</title>
<path fill="none" stroke="midnightblue" d="M235.078,-112.083C227.651,-104.22 216.648,-92.5688 207.687,-83.0813"/>
<polygon fill="midnightblue" stroke="midnightblue" points="210.175,-80.618 200.764,-75.7511 205.086,-85.4244 210.175,-80.618"/>
</g>
<!-- Node4&#45;&gt;Node7 -->
<g id="edge8" class="edge"><title>Node4&#45;&gt;Node7</title>
<path fill="none" stroke="midnightblue" d="M247.529,-112.442C253.878,-99.4534 267.089,-74.3356 282.499,-56 291.861,-44.8612 304.095,-34.129 314.344,-25.941"/>
<polygon fill="midnightblue" stroke="midnightblue" points="316.623,-28.6026 322.38,-19.7083 312.333,-23.0713 316.623,-28.6026"/>
</g>
<!-- Node4&#45;&gt;Node8 -->
<g id="edge9" class="edge"><title>Node4&#45;&gt;Node8</title>
<path fill="none" stroke="midnightblue" d="M218.43,-117.213C195.054,-112.206 161.466,-100.901 145.499,-76 136.374,-61.7685 142.271,-42.5471 148.99,-28.7027"/>
<polygon fill="midnightblue" stroke="midnightblue" points="152.167,-30.1849 153.824,-19.7204 146.003,-26.8676 152.167,-30.1849"/>
</g>
<!-- Node5&#45;&gt;Node6 -->
<g id="edge5" class="edge"><title>Node5&#45;&gt;Node6</title>
<path fill="none" stroke="midnightblue" d="M230.148,-58.6467C292.151,-48.1837 414.958,-27.4601 476.12,-17.1391"/>
<polygon fill="midnightblue" stroke="midnightblue" points="476.814,-20.5715 486.092,-15.4563 475.649,-13.6691 476.814,-20.5715"/>
</g>
<!-- Node5&#45;&gt;Node7 -->
<g id="edge6" class="edge"><title>Node5&#45;&gt;Node7</title>
<path fill="none" stroke="midnightblue" d="M215,-56.4435C239.132,-47.2666 277.582,-32.6446 304.326,-22.4744"/>
<polygon fill="midnightblue" stroke="midnightblue" points="305.846,-25.6411 313.948,-18.8151 303.357,-19.0982 305.846,-25.6411"/>
</g>
<!-- Node5&#45;&gt;Node8 -->
<g id="edge7" class="edge"><title>Node5&#45;&gt;Node8</title>
<path fill="none" stroke="midnightblue" d="M187.05,-56.083C182.485,-48.6127 175.831,-37.7244 170.206,-28.5199"/>
<polygon fill="midnightblue" stroke="midnightblue" points="173.048,-26.4588 164.847,-19.7511 167.075,-30.109 173.048,-26.4588"/>
</g>
<!-- Node9&#45;&gt;Node6 -->
<g id="edge15" class="edge"><title>Node9&#45;&gt;Node6</title>
<path fill="none" stroke="midnightblue" d="M577.128,-56.324C565.341,-48.0577 547.367,-35.4527 533.364,-25.6322"/>
<polygon fill="midnightblue" stroke="midnightblue" points="535.037,-22.5307 524.84,-19.6545 531.018,-28.2619 535.037,-22.5307"/>
</g>
<!-- Node9&#45;&gt;Node7 -->
<g id="edge16" class="edge"><title>Node9&#45;&gt;Node7</title>
<path fill="none" stroke="midnightblue" d="M549.094,-56.4435C498.021,-45.6282 411.235,-27.2498 365.236,-17.509"/>
<polygon fill="midnightblue" stroke="midnightblue" points="365.774,-14.0453 355.266,-15.3976 364.324,-20.8934 365.774,-14.0453"/>
</g>
<!-- Node9&#45;&gt;Node8 -->
<g id="edge18" class="edge"><title>Node9&#45;&gt;Node8</title>
<path fill="none" stroke="midnightblue" d="M540.173,-58.8055C451.233,-47.6364 266.32,-24.4146 191.729,-15.0475"/>
<polygon fill="midnightblue" stroke="midnightblue" points="191.907,-11.5424 181.549,-13.7691 191.035,-18.4879 191.907,-11.5424"/>
</g>
<!-- Node10 -->
<g id="node10" class="node"><title>Node10</title>
<polygon fill="none" stroke="#bfbfbf" points="581.499,-0.5 581.499,-19.5 621.499,-19.5 621.499,-0.5 581.499,-0.5"/>
<text text-anchor="middle" x="601.499" y="-7.5" font-family="Helvetica,sans-Serif" font-size="10.00">utility</text>
</g>
<!-- Node9&#45;&gt;Node10 -->
<g id="edge17" class="edge"><title>Node9&#45;&gt;Node10</title>
<path fill="none" stroke="midnightblue" d="M591.481,-56.083C593.071,-48.9272 595.358,-38.6353 597.346,-29.6911"/>
<polygon fill="midnightblue" stroke="midnightblue" points="600.802,-30.2722 599.555,-19.7511 593.969,-28.7537 600.802,-30.2722"/>
</g>
<!-- Node11&#45;&gt;Node6 -->
<g id="edge20" class="edge"><title>Node11&#45;&gt;Node6</title>
<path fill="none" stroke="midnightblue" d="M421.851,-56.324C439.171,-47.6641 466.015,-34.2424 486.001,-24.249"/>
<polygon fill="midnightblue" stroke="midnightblue" points="487.811,-27.2572 495.19,-19.6545 484.681,-20.9962 487.811,-27.2572"/>
</g>
<!-- Node11&#45;&gt;Node7 -->
<g id="edge21" class="edge"><title>Node11&#45;&gt;Node7</title>
<path fill="none" stroke="midnightblue" d="M393.253,-56.324C382.702,-48.1849 366.699,-35.8395 354.057,-26.0874"/>
<polygon fill="midnightblue" stroke="midnightblue" points="356.006,-23.1707 345.951,-19.8339 351.731,-28.7132 356.006,-23.1707"/>
</g>
<!-- Node11&#45;&gt;Node8 -->
<g id="edge22" class="edge"><title>Node11&#45;&gt;Node8</title>
<path fill="none" stroke="midnightblue" d="M365.678,-56.4435C317.586,-45.8437 236.535,-27.9792 191.719,-18.1014"/>
<polygon fill="midnightblue" stroke="midnightblue" points="192.193,-14.6221 181.674,-15.8876 190.687,-21.458 192.193,-14.6221"/>
</g>
<!-- Node12&#45;&gt;Node6 -->
<g id="edge24" class="edge"><title>Node12&#45;&gt;Node6</title>
<path fill="none" stroke="midnightblue" d="M656.936,-58.27C629.769,-49.3791 581.487,-33.5777 548.276,-22.7086"/>
<polygon fill="midnightblue" stroke="midnightblue" points="549.085,-19.291 538.493,-19.5069 546.908,-25.9437 549.085,-19.291"/>
</g>
<!-- Node12&#45;&gt;Node7 -->
<g id="edge26" class="edge"><title>Node12&#45;&gt;Node7</title>
<path fill="none" stroke="midnightblue" d="M656.924,-58.5928C653.465,-57.6406 649.895,-56.7342 646.499,-56 544.486,-33.9473 421.316,-19.778 365.124,-13.9849"/>
<polygon fill="midnightblue" stroke="midnightblue" points="365.42,-10.497 355.118,-12.9693 364.713,-17.4613 365.42,-10.497"/>
</g>
<!-- Node13 -->
<g id="node13" class="node"><title>Node13</title>
<polygon fill="none" stroke="#bfbfbf" points="651.499,-0.5 651.499,-19.5 703.499,-19.5 703.499,-0.5 651.499,-0.5"/>
<text text-anchor="middle" x="677.499" y="-7.5" font-family="Helvetica,sans-Serif" font-size="10.00">sstream</text>
</g>
<!-- Node12&#45;&gt;Node13 -->
<g id="edge25" class="edge"><title>Node12&#45;&gt;Node13</title>
<path fill="none" stroke="midnightblue" d="M677.499,-56.083C677.499,-49.0059 677.499,-38.8611 677.499,-29.9865"/>
<polygon fill="midnightblue" stroke="midnightblue" points="680.999,-29.751 677.499,-19.7511 673.999,-29.7511 680.999,-29.751"/>
</g>
<!-- Node14&#45;&gt;Node7 -->
<g id="edge28" class="edge"><title>Node14&#45;&gt;Node7</title>
<path fill="none" stroke="midnightblue" d="M98.65,-57.9958C152.132,-47.3389 253.065,-27.2268 303.779,-17.1214"/>
<polygon fill="midnightblue" stroke="midnightblue" points="304.68,-20.5107 313.803,-15.1239 303.312,-13.6457 304.68,-20.5107"/>
</g>
<!-- Node14&#45;&gt;Node8 -->
<g id="edge29" class="edge"><title>Node14&#45;&gt;Node8</title>
<path fill="none" stroke="midnightblue" d="M78.9234,-56.324C94.0389,-47.8215 117.315,-34.7288 134.97,-24.7975"/>
<polygon fill="midnightblue" stroke="midnightblue" points="137.114,-27.6077 144.114,-19.6545 133.682,-21.5066 137.114,-27.6077"/>
</g>
<!-- Node15&#45;&gt;Node6 -->
<g id="edge32" class="edge"><title>Node15&#45;&gt;Node6</title>
<path fill="none" stroke="midnightblue" d="M721.203,-56.4435C673.713,-46.1031 594.473,-28.8492 548.509,-18.8407"/>
<polygon fill="midnightblue" stroke="midnightblue" points="549.194,-15.4081 538.679,-16.7003 547.705,-22.2479 549.194,-15.4081"/>
</g>
<!-- Node15&#45;&gt;Node7 -->
<g id="edge33" class="edge"><title>Node15&#45;&gt;Node7</title>
<path fill="none" stroke="midnightblue" d="M715.734,-57.3806C712.611,-56.8979 709.51,-56.4327 706.499,-56 580.192,-37.8442 429.045,-21.0919 365.277,-14.2514"/>
<polygon fill="midnightblue" stroke="midnightblue" points="365.424,-10.7473 355.109,-13.1654 364.681,-17.7077 365.424,-10.7473"/>
</g>
<!-- Node15&#45;&gt;Node10 -->
<g id="edge35" class="edge"><title>Node15&#45;&gt;Node10</title>
<path fill="none" stroke="midnightblue" d="M735.305,-56.4435C706.983,-46.8247 661.047,-31.2238 631.053,-21.0372"/>
<polygon fill="midnightblue" stroke="midnightblue" points="632.136,-17.7085 621.541,-17.8067 629.884,-24.3366 632.136,-17.7085"/>
</g>
<!-- Node15&#45;&gt;Node16 -->
<g id="edge34" class="edge"><title>Node15&#45;&gt;Node16</title>
<path fill="none" stroke="midnightblue" d="M766.774,-56.083C772.142,-48.4554 780.017,-37.2645 786.578,-27.9408"/>
<polygon fill="midnightblue" stroke="midnightblue" points="789.449,-29.9434 792.341,-19.7511 783.724,-25.9149 789.449,-29.9434"/>
</g>
</g>
</svg>
