<?xml version="1.0" encoding="UTF-8" standalone="no"?>
<!DOCTYPE svg PUBLIC "-//W3C//DTD SVG 1.1//EN"
 "http://www.w3.org/Graphics/SVG/1.1/DTD/svg11.dtd">
<!-- Generated by graphviz version 2.36.0 (20140111.2315)
 -->
<!-- Title: /home/travis/build/robotology/wb&#45;toolbox/toolbox/include/SetReferences.h Pages: 1 -->
<svg width="246pt" height="274pt"
 viewBox="0.00 0.00 246.00 274.00" xmlns="http://www.w3.org/2000/svg" xmlns:xlink="http://www.w3.org/1999/xlink">
<g id="graph0" class="graph" transform="scale(1 1) rotate(0) translate(4 270)">
<title>/home/travis/build/robotology/wb&#45;toolbox/toolbox/include/SetReferences.h</title>
<!-- Node1 -->
<g id="node1" class="node"><title>Node1</title>
<polygon fill="#bfbfbf" stroke="black" points="-0.5,-224.5 -0.5,-265.5 160.5,-265.5 160.5,-224.5 -0.5,-224.5"/>
<text text-anchor="start" x="7.5" y="-253.5" font-family="Helvetica,sans-Serif" font-size="10.00">/home/travis/build</text>
<text text-anchor="start" x="7.5" y="-242.5" font-family="Helvetica,sans-Serif" font-size="10.00">/robotology/wb&#45;toolbox</text>
<text text-anchor="middle" x="80" y="-231.5" font-family="Helvetica,sans-Serif" font-size="10.00">/toolbox/include/SetReferences.h</text>
</g>
<!-- Node2 -->
<g id="node2" class="node"><title>Node2</title>
<g id="a_node2"><a xlink:href="_w_b_block_8h.html" target="_top" xlink:title="WBBlock.h">
<polygon fill="none" stroke="black" points="47,-168.5 47,-187.5 113,-187.5 113,-168.5 47,-168.5"/>
<text text-anchor="middle" x="80" y="-175.5" font-family="Helvetica,sans-Serif" font-size="10.00">WBBlock.h</text>
</a>
</g>
</g>
<!-- Node1&#45;&gt;Node2 -->
<g id="edge1" class="edge"><title>Node1&#45;&gt;Node2</title>
<path fill="none" stroke="midnightblue" d="M80,-224.498C80,-216.065 80,-206.235 80,-197.874"/>
<polygon fill="midnightblue" stroke="midnightblue" points="83.5001,-197.652 80,-187.652 76.5001,-197.653 83.5001,-197.652"/>
</g>
<!-- Node5 -->
<g id="node5" class="node"><title>Node5</title>
<polygon fill="none" stroke="#bfbfbf" points="186,-0.5 186,-19.5 238,-19.5 238,-0.5 186,-0.5"/>
<text text-anchor="middle" x="212" y="-7.5" font-family="Helvetica,sans-Serif" font-size="10.00">memory</text>
</g>
<!-- Node1&#45;&gt;Node5 -->
<g id="edge11" class="edge"><title>Node1&#45;&gt;Node5</title>
<path fill="none" stroke="midnightblue" d="M102.453,-224.493C133.716,-195.698 188.995,-138.44 211,-76 216.223,-61.181 216.061,-43.2565 214.826,-29.9868"/>
<polygon fill="midnightblue" stroke="midnightblue" points="218.259,-29.2214 213.573,-19.7189 211.31,-30.0692 218.259,-29.2214"/>
</g>
<!-- Node6 -->
<g id="node6" class="node"><title>Node6</title>
<polygon fill="none" stroke="#bfbfbf" points="2.5,-0.5 2.5,-19.5 43.5,-19.5 43.5,-0.5 2.5,-0.5"/>
<text text-anchor="middle" x="23" y="-7.5" font-family="Helvetica,sans-Serif" font-size="10.00">string</text>
</g>
<!-- Node1&#45;&gt;Node6 -->
<g id="edge12" class="edge"><title>Node1&#45;&gt;Node6</title>
<path fill="none" stroke="midnightblue" d="M61.2775,-224.296C52.7774,-214.207 43.4297,-201.273 38,-188 15.8561,-133.87 18.2885,-62.8069 21.0374,-29.6023"/>
<polygon fill="midnightblue" stroke="midnightblue" points="24.5333,-29.8095 21.9832,-19.5262 17.5639,-29.1553 24.5333,-29.8095"/>
</g>
<!-- Node3 -->
<g id="node3" class="node"><title>Node3</title>
<g id="a_node3"><a xlink:href="_block_8h.html" target="_top" xlink:title="Block.h">
<polygon fill="none" stroke="black" points="55,-112.5 55,-131.5 105,-131.5 105,-112.5 55,-112.5"/>
<text text-anchor="middle" x="80" y="-119.5" font-family="Helvetica,sans-Serif" font-size="10.00">Block.h</text>
</a>
</g>
</g>
<!-- Node2&#45;&gt;Node3 -->
<g id="edge2" class="edge"><title>Node2&#45;&gt;Node3</title>
<path fill="none" stroke="midnightblue" d="M80,-168.083C80,-161.006 80,-150.861 80,-141.986"/>
<polygon fill="midnightblue" stroke="midnightblue" points="83.5001,-141.751 80,-131.751 76.5001,-141.751 83.5001,-141.751"/>
</g>
<!-- Node2&#45;&gt;Node5 -->
<g id="edge9" class="edge"><title>Node2&#45;&gt;Node5</title>
<path fill="none" stroke="midnightblue" d="M93.5311,-168.44C117.025,-152.89 165.39,-117.722 192,-76 201.027,-61.8459 206.197,-43.3628 209.009,-29.726"/>
<polygon fill="midnightblue" stroke="midnightblue" points="212.502,-30.0774 210.849,-19.6123 205.615,-28.824 212.502,-30.0774"/>
</g>
<!-- Node2&#45;&gt;Node6 -->
<g id="edge10" class="edge"><title>Node2&#45;&gt;Node6</title>
<path fill="none" stroke="midnightblue" d="M71.6247,-168.483C63.7535,-159.969 52.2723,-146.142 46,-132 30.8823,-97.9136 25.6882,-54.1201 23.9129,-29.6606"/>
<polygon fill="midnightblue" stroke="midnightblue" points="27.4023,-29.3784 23.3008,-19.6097 20.4152,-29.804 27.4023,-29.3784"/>
</g>
<!-- Node4 -->
<g id="node4" class="node"><title>Node4</title>
<g id="a_node4"><a xlink:href="_parameters_8h.html" target="_top" xlink:title="Parameters.h">
<polygon fill="none" stroke="black" points="108.5,-56.5 108.5,-75.5 183.5,-75.5 183.5,-56.5 108.5,-56.5"/>
<text text-anchor="middle" x="146" y="-63.5" font-family="Helvetica,sans-Serif" font-size="10.00">Parameters.h</text>
</a>
</g>
</g>
<!-- Node3&#45;&gt;Node4 -->
<g id="edge3" class="edge"><title>Node3&#45;&gt;Node4</title>
<path fill="none" stroke="midnightblue" d="M90.604,-112.324C100.456,-104.263 115.351,-92.0765 127.215,-82.3695"/>
<polygon fill="midnightblue" stroke="midnightblue" points="129.68,-84.8752 135.203,-75.8339 125.247,-79.4575 129.68,-84.8752"/>
</g>
<!-- Node3&#45;&gt;Node6 -->
<g id="edge7" class="edge"><title>Node3&#45;&gt;Node6</title>
<path fill="none" stroke="midnightblue" d="M75.5273,-112.368C66.2039,-94.376 44.5306,-52.5503 32.1338,-28.6267"/>
<polygon fill="midnightblue" stroke="midnightblue" points="35.1604,-26.8599 27.4519,-19.5914 28.9452,-30.0805 35.1604,-26.8599"/>
</g>
<!-- Node7 -->
<g id="node7" class="node"><title>Node7</title>
<polygon fill="none" stroke="#bfbfbf" points="91,-0.5 91,-19.5 135,-19.5 135,-0.5 91,-0.5"/>
<text text-anchor="middle" x="113" y="-7.5" font-family="Helvetica,sans-Serif" font-size="10.00">vector</text>
</g>
<!-- Node3&#45;&gt;Node7 -->
<g id="edge8" class="edge"><title>Node3&#45;&gt;Node7</title>
<path fill="none" stroke="midnightblue" d="M82.5333,-112.154C86.131,-99.634 92.9556,-76.0355 99,-56 101.662,-47.1767 104.692,-37.4058 107.25,-29.2295"/>
<polygon fill="midnightblue" stroke="midnightblue" points="110.613,-30.2026 110.272,-19.6133 103.935,-28.1042 110.613,-30.2026"/>
</g>
<!-- Node4&#45;&gt;Node5 -->
<g id="edge4" class="edge"><title>Node4&#45;&gt;Node5</title>
<path fill="none" stroke="midnightblue" d="M156.604,-56.324C166.456,-48.2631 181.351,-36.0765 193.215,-26.3695"/>
<polygon fill="midnightblue" stroke="midnightblue" points="195.68,-28.8752 201.203,-19.8339 191.247,-23.4575 195.68,-28.8752"/>
</g>
<!-- Node4&#45;&gt;Node6 -->
<g id="edge5" class="edge"><title>Node4&#45;&gt;Node6</title>
<path fill="none" stroke="midnightblue" d="M126.51,-56.4435C106.358,-47.5961 74.6771,-33.6875 51.6692,-23.5865"/>
<polygon fill="midnightblue" stroke="midnightblue" points="52.962,-20.3316 42.3985,-19.5164 50.148,-26.7411 52.962,-20.3316"/>
</g>
<!-- Node4&#45;&gt;Node7 -->
<g id="edge6" class="edge"><title>Node4&#45;&gt;Node7</title>
<path fill="none" stroke="midnightblue" d="M140.551,-56.083C135.986,-48.6127 129.332,-37.7244 123.707,-28.5199"/>
<polygon fill="midnightblue" stroke="midnightblue" points="126.549,-26.4588 118.348,-19.7511 120.576,-30.109 126.549,-26.4588"/>
</g>
</g>
</svg>
