<?xml version="1.0" encoding="UTF-8" standalone="no"?>
<!DOCTYPE svg PUBLIC "-//W3C//DTD SVG 1.1//EN"
 "http://www.w3.org/Graphics/SVG/1.1/DTD/svg11.dtd">
<!-- Generated by graphviz version 2.36.0 (20140111.2315)
 -->
<!-- Title: /home/travis/build/robotology/wb&#45;toolbox/toolbox/include/SetLowLevelPID.h Pages: 1 -->
<svg width="232pt" height="274pt"
 viewBox="0.00 0.00 232.00 274.00" xmlns="http://www.w3.org/2000/svg" xmlns:xlink="http://www.w3.org/1999/xlink">
<g id="graph0" class="graph" transform="scale(1 1) rotate(0) translate(4 270)">
<title>/home/travis/build/robotology/wb&#45;toolbox/toolbox/include/SetLowLevelPID.h</title>
<!-- Node1 -->
<g id="node1" class="node"><title>Node1</title>
<polygon fill="#bfbfbf" stroke="black" points="0,-224.5 0,-265.5 170,-265.5 170,-224.5 0,-224.5"/>
<text text-anchor="start" x="8" y="-253.5" font-family="Helvetica,sans-Serif" font-size="10.00">/home/travis/build</text>
<text text-anchor="start" x="8" y="-242.5" font-family="Helvetica,sans-Serif" font-size="10.00">/robotology/wb&#45;toolbox</text>
<text text-anchor="middle" x="85" y="-231.5" font-family="Helvetica,sans-Serif" font-size="10.00">/toolbox/include/SetLowLevelPID.h</text>
</g>
<!-- Node2 -->
<g id="node2" class="node"><title>Node2</title>
<g id="a_node2"><a xlink:href="_w_b_block_8h.html" target="_top" xlink:title="WBBlock.h">
<polygon fill="none" stroke="black" points="52,-168.5 52,-187.5 118,-187.5 118,-168.5 52,-168.5"/>
<text text-anchor="middle" x="85" y="-175.5" font-family="Helvetica,sans-Serif" font-size="10.00">WBBlock.h</text>
</a>
</g>
</g>
<!-- Node1&#45;&gt;Node2 -->
<g id="edge1" class="edge"><title>Node1&#45;&gt;Node2</title>
<path fill="none" stroke="midnightblue" d="M85,-224.498C85,-216.065 85,-206.235 85,-197.874"/>
<polygon fill="midnightblue" stroke="midnightblue" points="88.5001,-197.652 85,-187.652 81.5001,-197.653 88.5001,-197.652"/>
</g>
<!-- Node5 -->
<g id="node5" class="node"><title>Node5</title>
<polygon fill="none" stroke="#bfbfbf" points="8,-0.5 8,-19.5 60,-19.5 60,-0.5 8,-0.5"/>
<text text-anchor="middle" x="34" y="-7.5" font-family="Helvetica,sans-Serif" font-size="10.00">memory</text>
</g>
<!-- Node1&#45;&gt;Node5 -->
<g id="edge10" class="edge"><title>Node1&#45;&gt;Node5</title>
<path fill="none" stroke="midnightblue" d="M65.7973,-224.481C57.1835,-214.436 47.8789,-201.485 43,-188 23.2416,-133.389 27.7262,-63.09 31.4461,-29.9223"/>
<polygon fill="midnightblue" stroke="midnightblue" points="34.9409,-30.1783 32.689,-19.8255 27.9934,-29.323 34.9409,-30.1783"/>
</g>
<!-- Node6 -->
<g id="node6" class="node"><title>Node6</title>
<polygon fill="none" stroke="#bfbfbf" points="183.5,-0.5 183.5,-19.5 224.5,-19.5 224.5,-0.5 183.5,-0.5"/>
<text text-anchor="middle" x="204" y="-7.5" font-family="Helvetica,sans-Serif" font-size="10.00">string</text>
</g>
<!-- Node1&#45;&gt;Node6 -->
<g id="edge11" class="edge"><title>Node1&#45;&gt;Node6</title>
<path fill="none" stroke="midnightblue" d="M105.391,-224.059C133.755,-194.735 183.793,-136.84 203,-76 207.73,-61.0166 207.611,-43.1065 206.519,-29.8842"/>
<polygon fill="midnightblue" stroke="midnightblue" points="209.968,-29.2247 205.405,-19.6627 203.009,-29.9829 209.968,-29.2247"/>
</g>
<!-- Node3 -->
<g id="node3" class="node"><title>Node3</title>
<g id="a_node3"><a xlink:href="_block_8h.html" target="_top" xlink:title="Block.h">
<polygon fill="none" stroke="black" points="88,-112.5 88,-131.5 138,-131.5 138,-112.5 88,-112.5"/>
<text text-anchor="middle" x="113" y="-119.5" font-family="Helvetica,sans-Serif" font-size="10.00">Block.h</text>
</a>
</g>
</g>
<!-- Node2&#45;&gt;Node3 -->
<g id="edge2" class="edge"><title>Node2&#45;&gt;Node3</title>
<path fill="none" stroke="midnightblue" d="M89.6236,-168.083C93.4563,-160.691 99.0242,-149.953 103.765,-140.811"/>
<polygon fill="midnightblue" stroke="midnightblue" points="106.966,-142.24 108.462,-131.751 100.752,-139.018 106.966,-142.24"/>
</g>
<!-- Node2&#45;&gt;Node5 -->
<g id="edge9" class="edge"><title>Node2&#45;&gt;Node5</title>
<path fill="none" stroke="midnightblue" d="M82.258,-168.075C74.2302,-141.945 50.6551,-65.2106 39.7074,-29.577"/>
<polygon fill="midnightblue" stroke="midnightblue" points="42.9149,-28.0992 36.6324,-19.5681 36.2236,-30.1551 42.9149,-28.0992"/>
</g>
<!-- Node4 -->
<g id="node4" class="node"><title>Node4</title>
<g id="a_node4"><a xlink:href="_parameters_8h.html" target="_top" xlink:title="Parameters.h">
<polygon fill="none" stroke="black" points="100.5,-56.5 100.5,-75.5 175.5,-75.5 175.5,-56.5 100.5,-56.5"/>
<text text-anchor="middle" x="138" y="-63.5" font-family="Helvetica,sans-Serif" font-size="10.00">Parameters.h</text>
</a>
</g>
</g>
<!-- Node3&#45;&gt;Node4 -->
<g id="edge3" class="edge"><title>Node3&#45;&gt;Node4</title>
<path fill="none" stroke="midnightblue" d="M117.128,-112.083C120.514,-104.77 125.416,-94.1814 129.619,-85.1034"/>
<polygon fill="midnightblue" stroke="midnightblue" points="132.923,-86.2962 133.949,-75.7511 126.571,-83.3553 132.923,-86.2962"/>
</g>
<!-- Node3&#45;&gt;Node6 -->
<g id="edge7" class="edge"><title>Node3&#45;&gt;Node6</title>
<path fill="none" stroke="midnightblue" d="M134.226,-112.441C150.085,-105.021 171.157,-92.8176 184,-76 194.291,-62.5244 199.33,-43.7127 201.771,-29.7925"/>
<polygon fill="midnightblue" stroke="midnightblue" points="205.237,-30.2741 203.222,-19.8728 198.311,-29.2607 205.237,-30.2741"/>
</g>
<!-- Node7 -->
<g id="node7" class="node"><title>Node7</title>
<polygon fill="none" stroke="#bfbfbf" points="97,-0.5 97,-19.5 141,-19.5 141,-0.5 97,-0.5"/>
<text text-anchor="middle" x="119" y="-7.5" font-family="Helvetica,sans-Serif" font-size="10.00">vector</text>
</g>
<!-- Node3&#45;&gt;Node7 -->
<g id="edge8" class="edge"><title>Node3&#45;&gt;Node7</title>
<path fill="none" stroke="midnightblue" d="M106.77,-112.24C98.719,-99.8215 86.3653,-76.3432 92,-56 94.7919,-45.9205 100.509,-35.832 105.967,-27.7694"/>
<polygon fill="midnightblue" stroke="midnightblue" points="108.825,-29.7899 111.849,-19.6357 103.153,-25.6881 108.825,-29.7899"/>
</g>
<!-- Node4&#45;&gt;Node5 -->
<g id="edge4" class="edge"><title>Node4&#45;&gt;Node5</title>
<path fill="none" stroke="midnightblue" d="M121.291,-56.324C104.688,-47.7034 78.9979,-34.3643 59.7795,-24.3855"/>
<polygon fill="midnightblue" stroke="midnightblue" points="61.1558,-21.1565 50.6679,-19.6545 57.93,-27.3689 61.1558,-21.1565"/>
</g>
<!-- Node4&#45;&gt;Node6 -->
<g id="edge5" class="edge"><title>Node4&#45;&gt;Node6</title>
<path fill="none" stroke="midnightblue" d="M148.604,-56.324C158.456,-48.2631 173.351,-36.0765 185.215,-26.3695"/>
<polygon fill="midnightblue" stroke="midnightblue" points="187.68,-28.8752 193.203,-19.8339 183.247,-23.4575 187.68,-28.8752"/>
</g>
<!-- Node4&#45;&gt;Node7 -->
<g id="edge6" class="edge"><title>Node4&#45;&gt;Node7</title>
<path fill="none" stroke="midnightblue" d="M134.863,-56.083C132.317,-48.8486 128.644,-38.4087 125.473,-29.3968"/>
<polygon fill="midnightblue" stroke="midnightblue" points="128.7,-28.0225 122.079,-19.7511 122.097,-30.3459 128.7,-28.0225"/>
</g>
</g>
</svg>
