<?xml version="1.0" encoding="UTF-8" standalone="no"?>
<!DOCTYPE svg PUBLIC "-//W3C//DTD SVG 1.1//EN"
 "http://www.w3.org/Graphics/SVG/1.1/DTD/svg11.dtd">
<!-- Generated by graphviz version 2.36.0 (20140111.2315)
 -->
<!-- Title: /home/travis/build/robotology/wb&#45;toolbox/toolbox/src/SetLowLevelPID.cpp Pages: 1 -->
<!--zoomable 330 -->
<svg id="main" version="1.1" xmlns="http://www.w3.org/2000/svg" xmlns:xlink="http://www.w3.org/1999/xlink" xml:space="preserve" onload="init(evt)">
<style type="text/css"><![CDATA[
.edge:hover path { stroke: red; }
.edge:hover polygon { stroke: red; fill: red; }
]]></style>
<script type="text/javascript"><![CDATA[
var edges = document.getElementsByTagName('g');
if (edges && edges.length) {
  for (var i=0;i<edges.length;i++) {
    if (edges[i].id.substr(0,4)=='edge') {
      edges[i].setAttribute('class','edge');
    }
  }
}
]]></script>
        <defs>
                <circle id="rim" cx="0" cy="0" r="7"/>
                <circle id="rim2" cx="0" cy="0" r="3.5"/>
                <g id="zoomPlus">
                        <use xlink:href="#rim" fill="#404040">
                                <set attributeName="fill" to="#808080" begin="zoomplus.mouseover" end="zoomplus.mouseout"/>
                        </use>
                        <path d="M-4,0h8M0,-4v8" fill="none" stroke="white" stroke-width="1.5" pointer-events="none"/>
                </g>
                <g id="zoomMin">
                        <use xlink:href="#rim" fill="#404040">
                                <set attributeName="fill" to="#808080" begin="zoomminus.mouseover" end="zoomminus.mouseout"/>
                        </use>
                        <path d="M-4,0h8" fill="none" stroke="white" stroke-width="1.5" pointer-events="none"/>
                </g>
                <g id="dirArrow">
                        <path fill="none" stroke="white" stroke-width="1.5" d="M0,-3.0v7 M-2.5,-0.5L0,-3.0L2.5,-0.5"/>
                </g>
               <g id="resetDef">
                       <use xlink:href="#rim2" fill="#404040">
                               <set attributeName="fill" to="#808080" begin="reset.mouseover" end="reset.mouseout"/>
                       </use>
               </g>
        </defs>

<script type="text/javascript">
var viewWidth = 1238;
var viewHeight = 330;
var sectionId = 'dynsection-0';
</script>
<script xlink:href="svgpan.js"/>
<svg id="graph" class="graph">
<g id="viewport">
<title>/home/travis/build/robotology/wb&#45;toolbox/toolbox/src/SetLowLevelPID.cpp</title>
<!-- Node1 -->
<g id="node1" class="node"><title>Node1</title>
<polygon fill="#bfbfbf" stroke="black" points="546.76,-280.5 546.76,-321.5 709.76,-321.5 709.76,-280.5 546.76,-280.5"/>
<text text-anchor="start" x="554.76" y="-309.5" font-family="Helvetica,sans-Serif" font-size="10.00">/home/travis/build</text>
<text text-anchor="start" x="554.76" y="-298.5" font-family="Helvetica,sans-Serif" font-size="10.00">/robotology/wb&#45;toolbox</text>
<text text-anchor="middle" x="628.26" y="-287.5" font-family="Helvetica,sans-Serif" font-size="10.00">/toolbox/src/SetLowLevelPID.cpp</text>
</g>
<!-- Node2 -->
<g id="node2" class="node"><title>Node2</title>
<g id="a_node2"><a xlink:href="_set_low_level_p_i_d_8h.html" target="_top" xlink:title="SetLowLevelPID.h">
<polygon fill="none" stroke="black" points="391.26,-224.5 391.26,-243.5 489.26,-243.5 489.26,-224.5 391.26,-224.5"/>
<text text-anchor="middle" x="440.26" y="-231.5" font-family="Helvetica,sans-Serif" font-size="10.00">SetLowLevelPID.h</text>
</a>
</g>
</g>
<!-- Node1&#45;&gt;Node2 -->
<g id="edge1" class="edge"><title>Node1&#45;&gt;Node2</title>
<path fill="none" stroke="midnightblue" d="M571.853,-280.498C540.258,-269.574 501.878,-256.304 474.741,-246.922"/>
<polygon fill="midnightblue" stroke="midnightblue" points="475.88,-243.612 465.285,-243.652 473.593,-250.228 475.88,-243.612"/>
</g>
<!-- Node5 -->
<g id="node5" class="node"><title>Node5</title>
<g id="a_node5"><a xlink:href="_parameters_8h.html" target="_top" xlink:title="Parameters.h">
<polygon fill="none" stroke="black" points="255.76,-56.5 255.76,-75.5 330.76,-75.5 330.76,-56.5 255.76,-56.5"/>
<text text-anchor="middle" x="293.26" y="-63.5" font-family="Helvetica,sans-Serif" font-size="10.00">Parameters.h</text>
</a>
</g>
</g>
<!-- Node1&#45;&gt;Node5 -->
<g id="edge28" class="edge"><title>Node1&#45;&gt;Node5</title>
<path fill="none" stroke="midnightblue" d="M546.645,-294.061C496.392,-287.449 432.249,-273.484 382.26,-244 324.267,-209.796 302.925,-124.41 296.092,-86.1137"/>
<polygon fill="midnightblue" stroke="midnightblue" points="299.481,-85.1527 294.412,-75.8491 292.573,-86.2831 299.481,-85.1527"/>
</g>
<!-- Node8 -->
<g id="node8" class="node"><title>Node8</title>
<polygon fill="none" stroke="#bfbfbf" points="104.26,-0.5 104.26,-19.5 148.26,-19.5 148.26,-0.5 104.26,-0.5"/>
<text text-anchor="middle" x="126.26" y="-7.5" font-family="Helvetica,sans-Serif" font-size="10.00">vector</text>
</g>
<!-- Node1&#45;&gt;Node8 -->
<g id="edge41" class="edge"><title>Node1&#45;&gt;Node8</title>
<path fill="none" stroke="midnightblue" d="M546.482,-292.676C376.407,-276.341 0.259623,-233.996 0.259623,-179 0.259623,-179 0.259623,-179 0.259623,-121 0.259623,-90.9022 -0.778869,-78.4574 19.2596,-56 38.6609,-34.2568 70.2834,-22.7194 94.1309,-16.7956"/>
<polygon fill="midnightblue" stroke="midnightblue" points="95.1669,-20.1494 104.142,-14.5196 93.6151,-13.3236 95.1669,-20.1494"/>
</g>
<!-- Node9 -->
<g id="node9" class="node"><title>Node9</title>
<g id="a_node9"><a xlink:href="_block_information_8h.html" target="_top" xlink:title="BlockInformation.h">
<polygon fill="none" stroke="black" points="561.26,-56.5 561.26,-75.5 659.26,-75.5 659.26,-56.5 561.26,-56.5"/>
<text text-anchor="middle" x="610.26" y="-63.5" font-family="Helvetica,sans-Serif" font-size="10.00">BlockInformation.h</text>
</a>
</g>
</g>
<!-- Node1&#45;&gt;Node9 -->
<g id="edge13" class="edge"><title>Node1&#45;&gt;Node9</title>
<path fill="none" stroke="midnightblue" d="M622.181,-280.252C619.2,-269.621 615.904,-256.216 614.26,-244 606.555,-186.755 608.006,-118.175 609.323,-85.7493"/>
<polygon fill="midnightblue" stroke="midnightblue" points="612.83,-85.6743 609.785,-75.5265 605.837,-85.3583 612.83,-85.6743"/>
</g>
<!-- Node11 -->
<g id="node11" class="node"><title>Node11</title>
<g id="a_node11"><a xlink:href="_configuration_8h.html" target="_top" xlink:title="Configuration.h">
<polygon fill="none" stroke="black" points="154.76,-56.5 154.76,-75.5 237.76,-75.5 237.76,-56.5 154.76,-56.5"/>
<text text-anchor="middle" x="196.26" y="-63.5" font-family="Helvetica,sans-Serif" font-size="10.00">Configuration.h</text>
</a>
</g>
</g>
<!-- Node1&#45;&gt;Node11 -->
<g id="edge17" class="edge"><title>Node1&#45;&gt;Node11</title>
<path fill="none" stroke="midnightblue" d="M546.745,-296.942C489.331,-291.676 412.457,-278.134 353.26,-244 283.329,-203.677 228.243,-120.954 206.421,-84.693"/>
<polygon fill="midnightblue" stroke="midnightblue" points="209.256,-82.6098 201.164,-75.7713 203.225,-86.1637 209.256,-82.6098"/>
</g>
<!-- Node12 -->
<g id="node12" class="node"><title>Node12</title>
<g id="a_node12"><a xlink:href="_log_8h.html" target="_top" xlink:title="Log.h">
<polygon fill="none" stroke="black" points="501.76,-56.5 501.76,-75.5 542.76,-75.5 542.76,-56.5 501.76,-56.5"/>
<text text-anchor="middle" x="522.26" y="-63.5" font-family="Helvetica,sans-Serif" font-size="10.00">Log.h</text>
</a>
</g>
</g>
<!-- Node1&#45;&gt;Node12 -->
<g id="edge21" class="edge"><title>Node1&#45;&gt;Node12</title>
<path fill="none" stroke="midnightblue" d="M619.222,-280.135C598.871,-235.401 549.719,-127.358 530.324,-84.7255"/>
<polygon fill="midnightblue" stroke="midnightblue" points="533.493,-83.2393 526.166,-75.5863 527.121,-86.138 533.493,-83.2393"/>
</g>
<!-- Node14 -->
<g id="node14" class="node"><title>Node14</title>
<g id="a_node14"><a xlink:href="_parameter_8h.html" target="_top" xlink:title="Parameter.h">
<polygon fill="none" stroke="black" points="28.2596,-56.5 28.2596,-75.5 98.2596,-75.5 98.2596,-56.5 28.2596,-56.5"/>
<text text-anchor="middle" x="63.2596" y="-63.5" font-family="Helvetica,sans-Serif" font-size="10.00">Parameter.h</text>
</a>
</g>
</g>
<!-- Node1&#45;&gt;Node14 -->
<g id="edge25" class="edge"><title>Node1&#45;&gt;Node14</title>
<path fill="none" stroke="midnightblue" d="M546.501,-294.571C482.855,-288.137 393.355,-274.173 320.26,-244 220.164,-202.681 119.699,-117.98 80.4641,-82.8305"/>
<polygon fill="midnightblue" stroke="midnightblue" points="82.4015,-79.8631 72.6393,-75.746 77.7033,-85.0523 82.4015,-79.8631"/>
</g>
<!-- Node15 -->
<g id="node15" class="node"><title>Node15</title>
<g id="a_node15"><a xlink:href="_robot_interface_8h.html" target="_top" xlink:title="RobotInterface.h">
<polygon fill="none" stroke="black" points="676.76,-56.5 676.76,-75.5 765.76,-75.5 765.76,-56.5 676.76,-56.5"/>
<text text-anchor="middle" x="721.26" y="-63.5" font-family="Helvetica,sans-Serif" font-size="10.00">RobotInterface.h</text>
</a>
</g>
</g>
<!-- Node1&#45;&gt;Node15 -->
<g id="edge29" class="edge"><title>Node1&#45;&gt;Node15</title>
<path fill="none" stroke="midnightblue" d="M633.803,-280.435C638.338,-264.967 645.144,-242.907 652.26,-224 671.595,-172.629 698.866,-113.824 712.616,-84.935"/>
<polygon fill="midnightblue" stroke="midnightblue" points="715.869,-86.2453 717.03,-75.7142 709.555,-83.2228 715.869,-86.2453"/>
</g>
<!-- Node16 -->
<g id="node16" class="node"><title>Node16</title>
<polygon fill="none" stroke="#bfbfbf" points="715.76,-0.5 715.76,-19.5 798.76,-19.5 798.76,-0.5 715.76,-0.5"/>
<text text-anchor="middle" x="757.26" y="-7.5" font-family="Helvetica,sans-Serif" font-size="10.00">unordered_map</text>
</g>
<!-- Node1&#45;&gt;Node16 -->
<g id="edge40" class="edge"><title>Node1&#45;&gt;Node16</title>
<path fill="none" stroke="midnightblue" d="M643.225,-280.303C677.724,-234.427 760.906,-120.942 774.26,-76 778.926,-60.2957 773.355,-42.2578 767.375,-29.1742"/>
<polygon fill="midnightblue" stroke="midnightblue" points="770.314,-27.2292 762.679,-19.8827 764.066,-30.3864 770.314,-27.2292"/>
</g>
<!-- Node17 -->
<g id="node17" class="node"><title>Node17</title>
<polygon fill="none" stroke="#bfbfbf" points="694.76,-224.5 694.76,-243.5 831.76,-243.5 831.76,-224.5 694.76,-224.5"/>
<text text-anchor="middle" x="763.26" y="-231.5" font-family="Helvetica,sans-Serif" font-size="10.00">yarp/dev/ControlBoardPid.h</text>
</g>
<!-- Node1&#45;&gt;Node17 -->
<g id="edge34" class="edge"><title>Node1&#45;&gt;Node17</title>
<path fill="none" stroke="midnightblue" d="M668.764,-280.498C690.557,-270.005 716.844,-257.348 736.154,-248.051"/>
<polygon fill="midnightblue" stroke="midnightblue" points="737.797,-251.144 745.289,-243.652 734.761,-244.837 737.797,-251.144"/>
</g>
<!-- Node18 -->
<g id="node18" class="node"><title>Node18</title>
<polygon fill="none" stroke="#bfbfbf" points="850.26,-224.5 850.26,-243.5 964.26,-243.5 964.26,-224.5 850.26,-224.5"/>
<text text-anchor="middle" x="907.26" y="-231.5" font-family="Helvetica,sans-Serif" font-size="10.00">yarp/dev/IPidControl.h</text>
</g>
<!-- Node1&#45;&gt;Node18 -->
<g id="edge35" class="edge"><title>Node1&#45;&gt;Node18</title>
<path fill="none" stroke="midnightblue" d="M710.084,-280.937C759.147,-269.506 819.764,-255.384 860.736,-245.839"/>
<polygon fill="midnightblue" stroke="midnightblue" points="861.766,-249.193 870.711,-243.515 860.177,-242.375 861.766,-249.193"/>
</g>
<!-- Node19 -->
<g id="node19" class="node"><title>Node19</title>
<polygon fill="none" stroke="#bfbfbf" points="982.26,-224.5 982.26,-243.5 1038.26,-243.5 1038.26,-224.5 982.26,-224.5"/>
<text text-anchor="middle" x="1010.26" y="-231.5" font-family="Helvetica,sans-Serif" font-size="10.00">algorithm</text>
</g>
<!-- Node1&#45;&gt;Node19 -->
<g id="edge36" class="edge"><title>Node1&#45;&gt;Node19</title>
<path fill="none" stroke="midnightblue" d="M709.792,-288.591C777.577,-278.685 876.755,-263.221 972.208,-244.09"/>
<polygon fill="midnightblue" stroke="midnightblue" points="972.92,-247.517 982.028,-242.106 971.533,-240.656 972.92,-247.517"/>
</g>
<!-- Node20 -->
<g id="node20" class="node"><title>Node20</title>
<polygon fill="none" stroke="#bfbfbf" points="1056.76,-224.5 1056.76,-243.5 1103.76,-243.5 1103.76,-224.5 1056.76,-224.5"/>
<text text-anchor="middle" x="1080.26" y="-231.5" font-family="Helvetica,sans-Serif" font-size="10.00">iterator</text>
</g>
<!-- Node1&#45;&gt;Node20 -->
<g id="edge37" class="edge"><title>Node1&#45;&gt;Node20</title>
<path fill="none" stroke="midnightblue" d="M710.064,-292.113C794.695,-283.236 930.456,-266.99 1046.26,-244 1046.36,-243.979 1046.47,-243.958 1046.57,-243.937"/>
<polygon fill="midnightblue" stroke="midnightblue" points="1047.59,-247.296 1056.57,-241.677 1046.04,-240.469 1047.59,-247.296"/>
</g>
<!-- Node21 -->
<g id="node21" class="node"><title>Node21</title>
<polygon fill="none" stroke="#bfbfbf" points="1122.26,-224.5 1122.26,-243.5 1174.26,-243.5 1174.26,-224.5 1122.26,-224.5"/>
<text text-anchor="middle" x="1148.26" y="-231.5" font-family="Helvetica,sans-Serif" font-size="10.00">ostream</text>
</g>
<!-- Node1&#45;&gt;Node21 -->
<g id="edge38" class="edge"><title>Node1&#45;&gt;Node21</title>
<path fill="none" stroke="midnightblue" d="M710.091,-293.793C804.547,-285.894 964.642,-270.252 1111.87,-243.822"/>
<polygon fill="midnightblue" stroke="midnightblue" points="1112.79,-247.214 1122,-241.983 1111.53,-240.326 1112.79,-247.214"/>
</g>
<!-- Node22 -->
<g id="node22" class="node"><title>Node22</title>
<polygon fill="none" stroke="#bfbfbf" points="1192.26,-224.5 1192.26,-243.5 1230.26,-243.5 1230.26,-224.5 1192.26,-224.5"/>
<text text-anchor="middle" x="1211.26" y="-231.5" font-family="Helvetica,sans-Serif" font-size="10.00">tuple</text>
</g>
<!-- Node1&#45;&gt;Node22 -->
<g id="edge39" class="edge"><title>Node1&#45;&gt;Node22</title>
<path fill="none" stroke="midnightblue" d="M709.961,-297.129C816.849,-292.179 1009.83,-279.138 1182.11,-243.82"/>
<polygon fill="midnightblue" stroke="midnightblue" points="1183.05,-247.201 1192.12,-241.737 1181.62,-240.348 1183.05,-247.201"/>
</g>
<!-- Node3 -->
<g id="node3" class="node"><title>Node3</title>
<g id="a_node3"><a xlink:href="_w_b_block_8h.html" target="_top" xlink:title="WBBlock.h">
<polygon fill="none" stroke="black" points="341.26,-168.5 341.26,-187.5 407.26,-187.5 407.26,-168.5 341.26,-168.5"/>
<text text-anchor="middle" x="374.26" y="-175.5" font-family="Helvetica,sans-Serif" font-size="10.00">WBBlock.h</text>
</a>
</g>
</g>
<!-- Node2&#45;&gt;Node3 -->
<g id="edge2" class="edge"><title>Node2&#45;&gt;Node3</title>
<path fill="none" stroke="midnightblue" d="M429.656,-224.324C419.803,-216.263 404.909,-204.077 393.045,-194.369"/>
<polygon fill="midnightblue" stroke="midnightblue" points="395.013,-191.457 385.057,-187.834 390.58,-196.875 395.013,-191.457"/>
</g>
<!-- Node6 -->
<g id="node6" class="node"><title>Node6</title>
<polygon fill="none" stroke="#bfbfbf" points="436.26,-0.5 436.26,-19.5 488.26,-19.5 488.26,-0.5 436.26,-0.5"/>
<text text-anchor="middle" x="462.26" y="-7.5" font-family="Helvetica,sans-Serif" font-size="10.00">memory</text>
</g>
<!-- Node2&#45;&gt;Node6 -->
<g id="edge11" class="edge"><title>Node2&#45;&gt;Node6</title>
<path fill="none" stroke="midnightblue" d="M442.304,-224.427C444.377,-215.412 447.518,-200.789 449.26,-188 457.073,-130.627 460.42,-62.1077 461.648,-29.7223"/>
<polygon fill="midnightblue" stroke="midnightblue" points="465.154,-29.6306 462.009,-19.5132 458.158,-29.3834 465.154,-29.6306"/>
</g>
<!-- Node7 -->
<g id="node7" class="node"><title>Node7</title>
<polygon fill="none" stroke="#bfbfbf" points="357.76,-0.5 357.76,-19.5 398.76,-19.5 398.76,-0.5 357.76,-0.5"/>
<text text-anchor="middle" x="378.26" y="-7.5" font-family="Helvetica,sans-Serif" font-size="10.00">string</text>
</g>
<!-- Node2&#45;&gt;Node7 -->
<g id="edge12" class="edge"><title>Node2&#45;&gt;Node7</title>
<path fill="none" stroke="midnightblue" d="M437.829,-224.297C428.687,-191.563 396.238,-75.3752 383.473,-29.6664"/>
<polygon fill="midnightblue" stroke="midnightblue" points="386.802,-28.5737 380.741,-19.8837 380.06,-30.4567 386.802,-28.5737"/>
</g>
<!-- Node4 -->
<g id="node4" class="node"><title>Node4</title>
<g id="a_node4"><a xlink:href="_block_8h.html" target="_top" xlink:title="Block.h">
<polygon fill="none" stroke="black" points="319.26,-112.5 319.26,-131.5 369.26,-131.5 369.26,-112.5 319.26,-112.5"/>
<text text-anchor="middle" x="344.26" y="-119.5" font-family="Helvetica,sans-Serif" font-size="10.00">Block.h</text>
</a>
</g>
</g>
<!-- Node3&#45;&gt;Node4 -->
<g id="edge3" class="edge"><title>Node3&#45;&gt;Node4</title>
<path fill="none" stroke="midnightblue" d="M369.306,-168.083C365.156,-160.613 359.107,-149.724 353.993,-140.52"/>
<polygon fill="midnightblue" stroke="midnightblue" points="357.037,-138.793 349.121,-131.751 350.918,-142.192 357.037,-138.793"/>
</g>
<!-- Node3&#45;&gt;Node6 -->
<g id="edge10" class="edge"><title>Node3&#45;&gt;Node6</title>
<path fill="none" stroke="midnightblue" d="M378.991,-168.075C392.963,-141.719 434.228,-63.878 452.897,-28.6608"/>
<polygon fill="midnightblue" stroke="midnightblue" points="456.126,-30.0427 457.717,-19.5681 449.941,-26.7641 456.126,-30.0427"/>
</g>
<!-- Node4&#45;&gt;Node5 -->
<g id="edge4" class="edge"><title>Node4&#45;&gt;Node5</title>
<path fill="none" stroke="midnightblue" d="M335.838,-112.083C328.411,-104.22 317.408,-92.5688 308.447,-83.0813"/>
<polygon fill="midnightblue" stroke="midnightblue" points="310.935,-80.618 301.525,-75.7511 305.846,-85.4244 310.935,-80.618"/>
</g>
<!-- Node4&#45;&gt;Node7 -->
<g id="edge8" class="edge"><title>Node4&#45;&gt;Node7</title>
<path fill="none" stroke="midnightblue" d="M346.928,-112.368C352.439,-94.5366 365.187,-53.2953 372.612,-29.2717"/>
<polygon fill="midnightblue" stroke="midnightblue" points="375.995,-30.179 375.604,-19.5914 369.307,-28.1119 375.995,-30.179"/>
</g>
<!-- Node4&#45;&gt;Node8 -->
<g id="edge9" class="edge"><title>Node4&#45;&gt;Node8</title>
<path fill="none" stroke="midnightblue" d="M318.933,-118.46C271.146,-113.169 170.231,-99.4697 145.26,-76 132.686,-64.1828 128.285,-44.5513 126.818,-29.9494"/>
<polygon fill="midnightblue" stroke="midnightblue" points="130.286,-29.3256 126.17,-19.5628 123.299,-29.7611 130.286,-29.3256"/>
</g>
<!-- Node5&#45;&gt;Node6 -->
<g id="edge5" class="edge"><title>Node5&#45;&gt;Node6</title>
<path fill="none" stroke="midnightblue" d="M320.038,-56.4435C348.761,-47.2659 394.527,-32.6424 426.356,-22.472"/>
<polygon fill="midnightblue" stroke="midnightblue" points="427.701,-25.7167 436.162,-19.339 425.571,-19.0488 427.701,-25.7167"/>
</g>
<!-- Node5&#45;&gt;Node7 -->
<g id="edge6" class="edge"><title>Node5&#45;&gt;Node7</title>
<path fill="none" stroke="midnightblue" d="M306.916,-56.324C320.176,-47.9002 340.528,-34.9709 356.106,-25.0741"/>
<polygon fill="midnightblue" stroke="midnightblue" points="358.073,-27.9711 364.637,-19.6545 354.319,-22.0626 358.073,-27.9711"/>
</g>
<!-- Node5&#45;&gt;Node8 -->
<g id="edge7" class="edge"><title>Node5&#45;&gt;Node8</title>
<path fill="none" stroke="midnightblue" d="M266.798,-56.4435C237.254,-46.8902 189.46,-31.436 157.947,-21.2461"/>
<polygon fill="midnightblue" stroke="midnightblue" points="158.923,-17.8833 148.331,-18.1368 156.769,-24.5438 158.923,-17.8833"/>
</g>
<!-- Node9&#45;&gt;Node6 -->
<g id="edge14" class="edge"><title>Node9&#45;&gt;Node6</title>
<path fill="none" stroke="midnightblue" d="M586.809,-56.4435C562.127,-47.4381 523.074,-33.1891 495.283,-23.049"/>
<polygon fill="midnightblue" stroke="midnightblue" points="496.195,-19.6561 485.601,-19.5164 493.795,-26.2321 496.195,-19.6561"/>
</g>
<!-- Node9&#45;&gt;Node7 -->
<g id="edge15" class="edge"><title>Node9&#45;&gt;Node7</title>
<path fill="none" stroke="midnightblue" d="M573.499,-56.4435C527.936,-45.8386 451.133,-27.962 408.708,-18.0871"/>
<polygon fill="midnightblue" stroke="midnightblue" points="409.485,-14.6744 398.952,-15.8162 407.898,-21.4922 409.485,-14.6744"/>
</g>
<!-- Node10 -->
<g id="node10" class="node"><title>Node10</title>
<polygon fill="none" stroke="#bfbfbf" points="623.26,-0.5 623.26,-19.5 663.26,-19.5 663.26,-0.5 623.26,-0.5"/>
<text text-anchor="middle" x="643.26" y="-7.5" font-family="Helvetica,sans-Serif" font-size="10.00">utility</text>
</g>
<!-- Node9&#45;&gt;Node10 -->
<g id="edge16" class="edge"><title>Node9&#45;&gt;Node10</title>
<path fill="none" stroke="midnightblue" d="M615.709,-56.083C620.274,-48.6127 626.928,-37.7244 632.553,-28.5199"/>
<polygon fill="midnightblue" stroke="midnightblue" points="635.684,-30.109 637.912,-19.7511 629.711,-26.4588 635.684,-30.109"/>
</g>
<!-- Node11&#45;&gt;Node6 -->
<g id="edge18" class="edge"><title>Node11&#45;&gt;Node6</title>
<path fill="none" stroke="midnightblue" d="M237.822,-56.5625C289.523,-46.0668 376.954,-28.3176 426.039,-18.3531"/>
<polygon fill="midnightblue" stroke="midnightblue" points="426.801,-21.7699 435.904,-16.3503 425.408,-14.9098 426.801,-21.7699"/>
</g>
<!-- Node11&#45;&gt;Node7 -->
<g id="edge19" class="edge"><title>Node11&#45;&gt;Node7</title>
<path fill="none" stroke="midnightblue" d="M225.098,-56.4435C258.616,-46.4985 313.688,-30.1587 347.859,-20.02"/>
<polygon fill="midnightblue" stroke="midnightblue" points="349.155,-23.2864 357.746,-17.0865 347.164,-16.5756 349.155,-23.2864"/>
</g>
<!-- Node11&#45;&gt;Node8 -->
<g id="edge20" class="edge"><title>Node11&#45;&gt;Node8</title>
<path fill="none" stroke="midnightblue" d="M185.013,-56.324C174.462,-48.1849 158.459,-35.8395 145.817,-26.0874"/>
<polygon fill="midnightblue" stroke="midnightblue" points="147.767,-23.1707 137.711,-19.8339 143.491,-28.7132 147.767,-23.1707"/>
</g>
<!-- Node12&#45;&gt;Node6 -->
<g id="edge22" class="edge"><title>Node12&#45;&gt;Node6</title>
<path fill="none" stroke="midnightblue" d="M512.62,-56.324C503.75,-48.3414 490.385,-36.3128 479.652,-26.6529"/>
<polygon fill="midnightblue" stroke="midnightblue" points="481.849,-23.922 472.075,-19.8339 477.167,-29.1251 481.849,-23.922"/>
</g>
<!-- Node12&#45;&gt;Node7 -->
<g id="edge24" class="edge"><title>Node12&#45;&gt;Node7</title>
<path fill="none" stroke="midnightblue" d="M501.628,-57.2631C477.248,-48.1205 436.471,-32.8292 408.517,-22.3467"/>
<polygon fill="midnightblue" stroke="midnightblue" points="409.445,-18.9567 398.853,-18.7225 406.987,-25.511 409.445,-18.9567"/>
</g>
<!-- Node13 -->
<g id="node13" class="node"><title>Node13</title>
<polygon fill="none" stroke="#bfbfbf" points="506.26,-0.5 506.26,-19.5 558.26,-19.5 558.26,-0.5 506.26,-0.5"/>
<text text-anchor="middle" x="532.26" y="-7.5" font-family="Helvetica,sans-Serif" font-size="10.00">sstream</text>
</g>
<!-- Node12&#45;&gt;Node13 -->
<g id="edge23" class="edge"><title>Node12&#45;&gt;Node13</title>
<path fill="none" stroke="midnightblue" d="M523.911,-56.083C525.236,-48.9272 527.142,-38.6353 528.798,-29.6911"/>
<polygon fill="midnightblue" stroke="midnightblue" points="532.26,-30.2212 530.639,-19.7511 525.377,-28.9466 532.26,-30.2212"/>
</g>
<!-- Node14&#45;&gt;Node7 -->
<g id="edge26" class="edge"><title>Node14&#45;&gt;Node7</title>
<path fill="none" stroke="midnightblue" d="M98.4772,-58.9627C160.594,-48.3141 288.606,-26.3692 347.446,-16.2824"/>
<polygon fill="midnightblue" stroke="midnightblue" points="348.331,-19.6818 357.596,-14.5424 347.148,-12.7824 348.331,-19.6818"/>
</g>
<!-- Node14&#45;&gt;Node8 -->
<g id="edge27" class="edge"><title>Node14&#45;&gt;Node8</title>
<path fill="none" stroke="midnightblue" d="M73.3817,-56.324C82.786,-48.2631 97.0037,-36.0765 108.329,-26.3695"/>
<polygon fill="midnightblue" stroke="midnightblue" points="110.639,-28.9993 115.953,-19.8339 106.083,-23.6844 110.639,-28.9993"/>
</g>
<!-- Node15&#45;&gt;Node6 -->
<g id="edge30" class="edge"><title>Node15&#45;&gt;Node6</title>
<path fill="none" stroke="midnightblue" d="M676.484,-56.7345C633.284,-48.5967 565.82,-35.4618 498.521,-20.1998"/>
<polygon fill="midnightblue" stroke="midnightblue" points="499.124,-16.7475 488.596,-17.933 497.566,-23.5718 499.124,-16.7475"/>
</g>
<!-- Node15&#45;&gt;Node7 -->
<g id="edge31" class="edge"><title>Node15&#45;&gt;Node7</title>
<path fill="none" stroke="midnightblue" d="M676.48,-57.4791C673.36,-56.9729 670.264,-56.4756 667.26,-56 560.727,-39.1334 533.65,-37.7449 427.26,-20 421.501,-19.0395 415.372,-17.9598 409.469,-16.8906"/>
<polygon fill="midnightblue" stroke="midnightblue" points="409.685,-13.3715 399.216,-15.0052 408.419,-20.2561 409.685,-13.3715"/>
</g>
<!-- Node15&#45;&gt;Node10 -->
<g id="edge33" class="edge"><title>Node15&#45;&gt;Node10</title>
<path fill="none" stroke="midnightblue" d="M708.728,-56.324C696.674,-47.979 678.233,-35.2122 663.991,-25.3524"/>
<polygon fill="midnightblue" stroke="midnightblue" points="665.975,-22.469 655.761,-19.6545 661.99,-28.2243 665.975,-22.469"/>
</g>
<!-- Node15&#45;&gt;Node16 -->
<g id="edge32" class="edge"><title>Node15&#45;&gt;Node16</title>
<path fill="none" stroke="midnightblue" d="M727.204,-56.083C732.237,-48.5341 739.596,-37.4948 745.773,-28.2298"/>
<polygon fill="midnightblue" stroke="midnightblue" points="748.791,-30.0131 751.426,-19.7511 742.966,-26.1301 748.791,-30.0131"/>
</g>
</g>
</svg>
        <g id="navigator" transform="translate(0 0)" fill="#404254">
                <rect fill="#f2f5e9" fill-opacity="0.5" stroke="#606060" stroke-width=".5" x="0" y="0" width="60" height="60"/>
                <use id="zoomplus" xlink:href="#zoomPlus" x="17" y="9" onmousedown="handleZoom(evt,'in')"/>
                <use id="zoomminus" xlink:href="#zoomMin" x="42" y="9" onmousedown="handleZoom(evt,'out')"/>
                <use id="reset" xlink:href="#resetDef" x="30" y="36" onmousedown="handleReset()"/>
                <g id="arrowUp" xlink:href="#dirArrow" transform="translate(30 24)" onmousedown="handlePan(0,-1)">
                  <use xlink:href="#rim" fill="#404040">
                        <set attributeName="fill" to="#808080" begin="arrowUp.mouseover" end="arrowUp.mouseout"/>
                  </use>
                  <path fill="none" stroke="white" stroke-width="1.5" d="M0,-3.0v7 M-2.5,-0.5L0,-3.0L2.5,-0.5"/>
                </g>
                <g id="arrowRight" xlink:href="#dirArrow" transform="rotate(90) translate(36 -43)" onmousedown="handlePan(1,0)">
                  <use xlink:href="#rim" fill="#404040">
                        <set attributeName="fill" to="#808080" begin="arrowRight.mouseover" end="arrowRight.mouseout"/>
                  </use>
                  <path fill="none" stroke="white" stroke-width="1.5" d="M0,-3.0v7 M-2.5,-0.5L0,-3.0L2.5,-0.5"/>
                </g>
                <g id="arrowDown" xlink:href="#dirArrow" transform="rotate(180) translate(-30 -48)" onmousedown="handlePan(0,1)">
                  <use xlink:href="#rim" fill="#404040">
                        <set attributeName="fill" to="#808080" begin="arrowDown.mouseover" end="arrowDown.mouseout"/>
                  </use>
                  <path fill="none" stroke="white" stroke-width="1.5" d="M0,-3.0v7 M-2.5,-0.5L0,-3.0L2.5,-0.5"/>
                </g>
                <g id="arrowLeft" xlink:href="#dirArrow" transform="rotate(270) translate(-36 17)" onmousedown="handlePan(-1,0)">
                  <use xlink:href="#rim" fill="#404040">
                        <set attributeName="fill" to="#808080" begin="arrowLeft.mouseover" end="arrowLeft.mouseout"/>
                  </use>
                  <path fill="none" stroke="white" stroke-width="1.5" d="M0,-3.0v7 M-2.5,-0.5L0,-3.0L2.5,-0.5"/>
                </g>
        </g>
        <svg viewBox="0 0 15 15" width="100%" height="30px" preserveAspectRatio="xMaxYMin meet">
         <g id="arrow_out" transform="scale(0.3 0.3)">
          <a xlink:href="_set_low_level_p_i_d_8cpp__incl_org.svg" target="_base">
           <rect id="button" ry="5" rx="5" y="6" x="6" height="38" width="38"
                fill="#f2f5e9" fill-opacity="0.5" stroke="#606060" stroke-width="1.0"/>
           <path id="arrow"
             d="M 11.500037,31.436501 C 11.940474,20.09759 22.043105,11.32322 32.158766,21.979434 L 37.068811,17.246167 C 37.068811,17.246167 37.088388,32 37.088388,32 L 22.160133,31.978069 C 22.160133,31.978069 26.997745,27.140456 26.997745,27.140456 C 18.528582,18.264221 13.291696,25.230495 11.500037,31.436501 z"
             style="fill:#404040;"/>
          </a>
         </g>
        </svg>
</svg>
