<?xml version="1.0" encoding="UTF-8" standalone="no"?>
<!DOCTYPE svg PUBLIC "-//W3C//DTD SVG 1.1//EN"
 "http://www.w3.org/Graphics/SVG/1.1/DTD/svg11.dtd">
<!-- Generated by graphviz version 2.36.0 (20140111.2315)
 -->
<!-- Title: /home/travis/build/robotology/wb&#45;toolbox/toolbox/src/SetReferences.cpp Pages: 1 -->
<!--zoomable 330 -->
<svg id="main" version="1.1" xmlns="http://www.w3.org/2000/svg" xmlns:xlink="http://www.w3.org/1999/xlink" xml:space="preserve" onload="init(evt)">
<style type="text/css"><![CDATA[
.edge:hover path { stroke: red; }
.edge:hover polygon { stroke: red; fill: red; }
]]></style>
<script type="text/javascript"><![CDATA[
var edges = document.getElementsByTagName('g');
if (edges && edges.length) {
  for (var i=0;i<edges.length;i++) {
    if (edges[i].id.substr(0,4)=='edge') {
      edges[i].setAttribute('class','edge');
    }
  }
}
]]></script>
        <defs>
                <circle id="rim" cx="0" cy="0" r="7"/>
                <circle id="rim2" cx="0" cy="0" r="3.5"/>
                <g id="zoomPlus">
                        <use xlink:href="#rim" fill="#404040">
                                <set attributeName="fill" to="#808080" begin="zoomplus.mouseover" end="zoomplus.mouseout"/>
                        </use>
                        <path d="M-4,0h8M0,-4v8" fill="none" stroke="white" stroke-width="1.5" pointer-events="none"/>
                </g>
                <g id="zoomMin">
                        <use xlink:href="#rim" fill="#404040">
                                <set attributeName="fill" to="#808080" begin="zoomminus.mouseover" end="zoomminus.mouseout"/>
                        </use>
                        <path d="M-4,0h8" fill="none" stroke="white" stroke-width="1.5" pointer-events="none"/>
                </g>
                <g id="dirArrow">
                        <path fill="none" stroke="white" stroke-width="1.5" d="M0,-3.0v7 M-2.5,-0.5L0,-3.0L2.5,-0.5"/>
                </g>
               <g id="resetDef">
                       <use xlink:href="#rim2" fill="#404040">
                               <set attributeName="fill" to="#808080" begin="reset.mouseover" end="reset.mouseout"/>
                       </use>
               </g>
        </defs>

<script type="text/javascript">
var viewWidth = 2108;
var viewHeight = 330;
var sectionId = 'dynsection-0';
</script>
<script xlink:href="svgpan.js"/>
<svg id="graph" class="graph">
<g id="viewport">
<title>/home/travis/build/robotology/wb&#45;toolbox/toolbox/src/SetReferences.cpp</title>
<!-- Node1 -->
<g id="node1" class="node"><title>Node1</title>
<polygon fill="#bfbfbf" stroke="black" points="712.164,-280.5 712.164,-321.5 867.164,-321.5 867.164,-280.5 712.164,-280.5"/>
<text text-anchor="start" x="720.164" y="-309.5" font-family="Helvetica,sans-Serif" font-size="10.00">/home/travis/build</text>
<text text-anchor="start" x="720.164" y="-298.5" font-family="Helvetica,sans-Serif" font-size="10.00">/robotology/wb&#45;toolbox</text>
<text text-anchor="middle" x="789.664" y="-287.5" font-family="Helvetica,sans-Serif" font-size="10.00">/toolbox/src/SetReferences.cpp</text>
</g>
<!-- Node2 -->
<g id="node2" class="node"><title>Node2</title>
<g id="a_node2"><a xlink:href="_set_references_8h.html" target="_top" xlink:title="SetReferences.h">
<polygon fill="none" stroke="black" points="439.664,-224.5 439.664,-243.5 529.664,-243.5 529.664,-224.5 439.664,-224.5"/>
<text text-anchor="middle" x="484.664" y="-231.5" font-family="Helvetica,sans-Serif" font-size="10.00">SetReferences.h</text>
</a>
</g>
</g>
<!-- Node1&#45;&gt;Node2 -->
<g id="edge1" class="edge"><title>Node1&#45;&gt;Node2</title>
<path fill="none" stroke="midnightblue" d="M711.91,-283.43C656.218,-271.561 582.855,-255.926 534.757,-245.676"/>
<polygon fill="midnightblue" stroke="midnightblue" points="535.403,-242.235 524.893,-243.573 533.944,-249.081 535.403,-242.235"/>
</g>
<!-- Node5 -->
<g id="node5" class="node"><title>Node5</title>
<g id="a_node5"><a xlink:href="_parameters_8h.html" target="_top" xlink:title="Parameters.h">
<polygon fill="none" stroke="black" points="257.164,-56.5 257.164,-75.5 332.164,-75.5 332.164,-56.5 257.164,-56.5"/>
<text text-anchor="middle" x="294.664" y="-63.5" font-family="Helvetica,sans-Serif" font-size="10.00">Parameters.h</text>
</a>
</g>
</g>
<!-- Node1&#45;&gt;Node5 -->
<g id="edge32" class="edge"><title>Node1&#45;&gt;Node5</title>
<path fill="none" stroke="midnightblue" d="M712.024,-299.749C636.918,-296.827 521.445,-285.138 430.664,-244 364.51,-214.022 346.618,-195.665 311.664,-132 303.77,-117.622 299.419,-99.4261 297.1,-85.9458"/>
<polygon fill="midnightblue" stroke="midnightblue" points="300.541,-85.2895 295.598,-75.9186 293.618,-86.3269 300.541,-85.2895"/>
</g>
<!-- Node8 -->
<g id="node8" class="node"><title>Node8</title>
<polygon fill="none" stroke="#bfbfbf" points="174.664,-0.5 174.664,-19.5 218.664,-19.5 218.664,-0.5 174.664,-0.5"/>
<text text-anchor="middle" x="196.664" y="-7.5" font-family="Helvetica,sans-Serif" font-size="10.00">vector</text>
</g>
<!-- Node1&#45;&gt;Node8 -->
<g id="edge51" class="edge"><title>Node1&#45;&gt;Node8</title>
<path fill="none" stroke="midnightblue" d="M711.852,-296.163C512.8,-285.313 0.66398,-250.456 0.66398,-179 0.66398,-179 0.66398,-179 0.66398,-121 0.66398,-90.9022 -1.99194,-76.9021 19.664,-56 40.194,-36.1846 119.344,-21.9891 164.541,-15.3057"/>
<polygon fill="midnightblue" stroke="midnightblue" points="165.041,-18.7698 174.441,-13.8815 164.044,-11.8412 165.041,-18.7698"/>
</g>
<!-- Node9 -->
<g id="node9" class="node"><title>Node9</title>
<g id="a_node9"><a xlink:href="_block_information_8h.html" target="_top" xlink:title="BlockInformation.h">
<polygon fill="none" stroke="black" points="638.664,-56.5 638.664,-75.5 736.664,-75.5 736.664,-56.5 638.664,-56.5"/>
<text text-anchor="middle" x="687.664" y="-63.5" font-family="Helvetica,sans-Serif" font-size="10.00">BlockInformation.h</text>
</a>
</g>
</g>
<!-- Node1&#45;&gt;Node9 -->
<g id="edge14" class="edge"><title>Node1&#45;&gt;Node9</title>
<path fill="none" stroke="midnightblue" d="M752.109,-280.324C738.18,-271.139 723.61,-258.91 714.664,-244 684.203,-193.23 684.123,-120.027 686.078,-85.8765"/>
<polygon fill="midnightblue" stroke="midnightblue" points="689.571,-86.101 686.778,-75.8809 682.588,-85.6119 689.571,-86.101"/>
</g>
<!-- Node10 -->
<g id="node10" class="node"><title>Node10</title>
<polygon fill="none" stroke="#bfbfbf" points="852.664,-0.5 852.664,-19.5 890.664,-19.5 890.664,-0.5 852.664,-0.5"/>
<text text-anchor="middle" x="871.664" y="-7.5" font-family="Helvetica,sans-Serif" font-size="10.00">tuple</text>
</g>
<!-- Node1&#45;&gt;Node10 -->
<g id="edge50" class="edge"><title>Node1&#45;&gt;Node10</title>
<path fill="none" stroke="midnightblue" d="M771.295,-280.334C759.583,-265.363 747.645,-243.991 753.664,-224 776.407,-148.458 817.941,-147.32 851.664,-76 858.761,-60.99 864.096,-42.8569 867.463,-29.561"/>
<polygon fill="midnightblue" stroke="midnightblue" points="870.898,-30.2452 869.825,-19.7049 864.091,-28.6144 870.898,-30.2452"/>
</g>
<!-- Node12 -->
<g id="node12" class="node"><title>Node12</title>
<g id="a_node12"><a xlink:href="_configuration_8h.html" target="_top" xlink:title="Configuration.h">
<polygon fill="none" stroke="black" points="29.164,-56.5 29.164,-75.5 112.164,-75.5 112.164,-56.5 29.164,-56.5"/>
<text text-anchor="middle" x="70.664" y="-63.5" font-family="Helvetica,sans-Serif" font-size="10.00">Configuration.h</text>
</a>
</g>
</g>
<!-- Node1&#45;&gt;Node12 -->
<g id="edge20" class="edge"><title>Node1&#45;&gt;Node12</title>
<path fill="none" stroke="midnightblue" d="M711.825,-300.506C621.216,-298.776 468.336,-288.595 345.664,-244 238.058,-204.882 129.341,-117.563 88.0325,-82.2538"/>
<polygon fill="midnightblue" stroke="midnightblue" points="90.1212,-79.433 80.2656,-75.5446 85.5453,-84.7303 90.1212,-79.433"/>
</g>
<!-- Node14 -->
<g id="node14" class="node"><title>Node14</title>
<g id="a_node14"><a xlink:href="_log_8h.html" target="_top" xlink:title="Log.h">
<polygon fill="none" stroke="black" points="579.164,-56.5 579.164,-75.5 620.164,-75.5 620.164,-56.5 579.164,-56.5"/>
<text text-anchor="middle" x="599.664" y="-63.5" font-family="Helvetica,sans-Serif" font-size="10.00">Log.h</text>
</a>
</g>
</g>
<!-- Node1&#45;&gt;Node14 -->
<g id="edge25" class="edge"><title>Node1&#45;&gt;Node14</title>
<path fill="none" stroke="midnightblue" d="M750.326,-280.432C733.952,-270.979 715.562,-258.522 701.664,-244 654.534,-194.752 620.678,-119.683 606.73,-85.3248"/>
<polygon fill="midnightblue" stroke="midnightblue" points="609.848,-83.6913 602.91,-75.6843 603.34,-86.2704 609.848,-83.6913"/>
</g>
<!-- Node16 -->
<g id="node16" class="node"><title>Node16</title>
<g id="a_node16"><a xlink:href="_parameter_8h.html" target="_top" xlink:title="Parameter.h">
<polygon fill="none" stroke="black" points="130.664,-56.5 130.664,-75.5 200.664,-75.5 200.664,-56.5 130.664,-56.5"/>
<text text-anchor="middle" x="165.664" y="-63.5" font-family="Helvetica,sans-Serif" font-size="10.00">Parameter.h</text>
</a>
</g>
</g>
<!-- Node1&#45;&gt;Node16 -->
<g id="edge29" class="edge"><title>Node1&#45;&gt;Node16</title>
<path fill="none" stroke="midnightblue" d="M711.838,-294.074C611.846,-285.619 444.396,-268.372 387.664,-244 297.098,-205.094 212.563,-118.971 179.898,-83.1344"/>
<polygon fill="midnightblue" stroke="midnightblue" points="182.354,-80.6314 173.065,-75.5354 177.149,-85.3117 182.354,-80.6314"/>
</g>
<!-- Node17 -->
<g id="node17" class="node"><title>Node17</title>
<g id="a_node17"><a xlink:href="_robot_interface_8h.html" target="_top" xlink:title="RobotInterface.h">
<polygon fill="none" stroke="black" points="754.164,-56.5 754.164,-75.5 843.164,-75.5 843.164,-56.5 754.164,-56.5"/>
<text text-anchor="middle" x="798.664" y="-63.5" font-family="Helvetica,sans-Serif" font-size="10.00">RobotInterface.h</text>
</a>
</g>
</g>
<!-- Node1&#45;&gt;Node17 -->
<g id="edge33" class="edge"><title>Node1&#45;&gt;Node17</title>
<path fill="none" stroke="midnightblue" d="M753.964,-280.318C740.981,-271.132 727.763,-258.904 720.664,-244 716.842,-235.975 718.633,-232.654 720.664,-224 733.48,-169.399 768.26,-112.056 786.744,-84.2093"/>
<polygon fill="midnightblue" stroke="midnightblue" points="789.835,-85.8864 792.539,-75.6425 784.037,-81.964 789.835,-85.8864"/>
</g>
<!-- Node19 -->
<g id="node19" class="node"><title>Node19</title>
<g id="a_node19"><a xlink:href="_signal_8h.html" target="_top" xlink:title="Signal.h">
<polygon fill="none" stroke="black" points="540.664,-168.5 540.664,-187.5 592.664,-187.5 592.664,-168.5 540.664,-168.5"/>
<text text-anchor="middle" x="566.664" y="-175.5" font-family="Helvetica,sans-Serif" font-size="10.00">Signal.h</text>
</a>
</g>
</g>
<!-- Node1&#45;&gt;Node19 -->
<g id="edge38" class="edge"><title>Node1&#45;&gt;Node19</title>
<path fill="none" stroke="midnightblue" d="M711.784,-289.015C676.893,-281.042 636.894,-267.368 606.664,-244 590.973,-231.871 579.957,-211.706 573.513,-197.048"/>
<polygon fill="midnightblue" stroke="midnightblue" points="576.65,-195.473 569.627,-187.541 570.171,-198.122 576.65,-195.473"/>
</g>
<!-- Node20 -->
<g id="node20" class="node"><title>Node20</title>
<polygon fill="none" stroke="#bfbfbf" points="762.664,-224.5 762.664,-243.5 928.664,-243.5 928.664,-224.5 762.664,-224.5"/>
<text text-anchor="middle" x="845.664" y="-231.5" font-family="Helvetica,sans-Serif" font-size="10.00">yarp/dev/ControlBoardInterfaces.h</text>
</g>
<!-- Node1&#45;&gt;Node20 -->
<g id="edge40" class="edge"><title>Node1&#45;&gt;Node20</title>
<path fill="none" stroke="midnightblue" d="M806.466,-280.498C814.474,-271.203 823.945,-260.21 831.571,-251.358"/>
<polygon fill="midnightblue" stroke="midnightblue" points="834.334,-253.513 838.21,-243.652 829.031,-248.944 834.334,-253.513"/>
</g>
<!-- Node21 -->
<g id="node21" class="node"><title>Node21</title>
<polygon fill="none" stroke="#bfbfbf" points="946.664,-224.5 946.664,-243.5 1070.66,-243.5 1070.66,-224.5 946.664,-224.5"/>
<text text-anchor="middle" x="1008.66" y="-231.5" font-family="Helvetica,sans-Serif" font-size="10.00">yarp/dev/IControlMode.h</text>
</g>
<!-- Node1&#45;&gt;Node21 -->
<g id="edge41" class="edge"><title>Node1&#45;&gt;Node21</title>
<path fill="none" stroke="midnightblue" d="M855.371,-280.498C892.775,-269.396 938.34,-255.872 970.027,-246.468"/>
<polygon fill="midnightblue" stroke="midnightblue" points="971.209,-249.768 979.8,-243.567 969.217,-243.057 971.209,-249.768"/>
</g>
<!-- Node22 -->
<g id="node22" class="node"><title>Node22</title>
<polygon fill="none" stroke="#bfbfbf" points="1088.66,-224.5 1088.66,-243.5 1220.66,-243.5 1220.66,-224.5 1088.66,-224.5"/>
<text text-anchor="middle" x="1154.66" y="-231.5" font-family="Helvetica,sans-Serif" font-size="10.00">yarp/dev/ICurrentControl.h</text>
</g>
<!-- Node1&#45;&gt;Node22 -->
<g id="edge42" class="edge"><title>Node1&#45;&gt;Node22</title>
<path fill="none" stroke="midnightblue" d="M867.518,-286.136C936.238,-273.898 1034.86,-256.335 1096.8,-245.305"/>
<polygon fill="midnightblue" stroke="midnightblue" points="1097.56,-248.724 1106.79,-243.525 1096.33,-241.833 1097.56,-248.724"/>
</g>
<!-- Node23 -->
<g id="node23" class="node"><title>Node23</title>
<polygon fill="none" stroke="#bfbfbf" points="1239.16,-224.5 1239.16,-243.5 1364.16,-243.5 1364.16,-224.5 1239.16,-224.5"/>
<text text-anchor="middle" x="1301.66" y="-231.5" font-family="Helvetica,sans-Serif" font-size="10.00">yarp/dev/IPWMControl.h</text>
</g>
<!-- Node1&#45;&gt;Node23 -->
<g id="edge43" class="edge"><title>Node1&#45;&gt;Node23</title>
<path fill="none" stroke="midnightblue" d="M867.426,-290.128C965.539,-277.672 1132.99,-256.413 1228.75,-244.256"/>
<polygon fill="midnightblue" stroke="midnightblue" points="1229.45,-247.696 1238.93,-242.964 1228.57,-240.752 1229.45,-247.696"/>
</g>
<!-- Node24 -->
<g id="node24" class="node"><title>Node24</title>
<polygon fill="none" stroke="#bfbfbf" points="1382.16,-224.5 1382.16,-243.5 1517.16,-243.5 1517.16,-224.5 1382.16,-224.5"/>
<text text-anchor="middle" x="1449.66" y="-231.5" font-family="Helvetica,sans-Serif" font-size="10.00">yarp/dev/IPositionControl.h</text>
</g>
<!-- Node1&#45;&gt;Node24 -->
<g id="edge44" class="edge"><title>Node1&#45;&gt;Node24</title>
<path fill="none" stroke="midnightblue" d="M867.514,-293.036C977.385,-283.092 1184.49,-263.929 1372.02,-244.049"/>
<polygon fill="midnightblue" stroke="midnightblue" points="1372.49,-247.518 1382.07,-242.981 1371.75,-240.557 1372.49,-247.518"/>
</g>
<!-- Node25 -->
<g id="node25" class="node"><title>Node25</title>
<polygon fill="none" stroke="#bfbfbf" points="1535.66,-224.5 1535.66,-243.5 1665.66,-243.5 1665.66,-224.5 1535.66,-224.5"/>
<text text-anchor="middle" x="1600.66" y="-231.5" font-family="Helvetica,sans-Serif" font-size="10.00">yarp/dev/IPositionDirect.h</text>
</g>
<!-- Node1&#45;&gt;Node25 -->
<g id="edge45" class="edge"><title>Node1&#45;&gt;Node25</title>
<path fill="none" stroke="midnightblue" d="M867.382,-295.202C1001.74,-286.658 1286.06,-267.481 1525.66,-244 1525.77,-243.99 1525.87,-243.98 1525.97,-243.97"/>
<polygon fill="midnightblue" stroke="midnightblue" points="1526.05,-247.48 1535.64,-242.978 1525.34,-240.517 1526.05,-247.48"/>
</g>
<!-- Node26 -->
<g id="node26" class="node"><title>Node26</title>
<polygon fill="none" stroke="#bfbfbf" points="1683.66,-224.5 1683.66,-243.5 1813.66,-243.5 1813.66,-224.5 1683.66,-224.5"/>
<text text-anchor="middle" x="1748.66" y="-231.5" font-family="Helvetica,sans-Serif" font-size="10.00">yarp/dev/ITorqueControl.h</text>
</g>
<!-- Node1&#45;&gt;Node26 -->
<g id="edge46" class="edge"><title>Node1&#45;&gt;Node26</title>
<path fill="none" stroke="midnightblue" d="M867.32,-296.598C1019.73,-289.592 1368.92,-271.91 1672.97,-244.107"/>
<polygon fill="midnightblue" stroke="midnightblue" points="1673.68,-247.557 1683.32,-243.156 1673.04,-240.586 1673.68,-247.557"/>
</g>
<!-- Node27 -->
<g id="node27" class="node"><title>Node27</title>
<polygon fill="none" stroke="#bfbfbf" points="1832.16,-224.5 1832.16,-243.5 1967.16,-243.5 1967.16,-224.5 1832.16,-224.5"/>
<text text-anchor="middle" x="1899.66" y="-231.5" font-family="Helvetica,sans-Serif" font-size="10.00">yarp/dev/IVelocityControl.h</text>
</g>
<!-- Node1&#45;&gt;Node27 -->
<g id="edge47" class="edge"><title>Node1&#45;&gt;Node27</title>
<path fill="none" stroke="midnightblue" d="M867.206,-297.445C1037.75,-291.469 1458.43,-274.768 1821.89,-244.008"/>
<polygon fill="midnightblue" stroke="midnightblue" points="1822.41,-247.476 1832.08,-243.14 1821.82,-240.501 1822.41,-247.476"/>
</g>
<!-- Node28 -->
<g id="node28" class="node"><title>Node28</title>
<polygon fill="none" stroke="#bfbfbf" points="1985.66,-224.5 1985.66,-243.5 2029.66,-243.5 2029.66,-224.5 1985.66,-224.5"/>
<text text-anchor="middle" x="2007.66" y="-231.5" font-family="Helvetica,sans-Serif" font-size="10.00">cmath</text>
</g>
<!-- Node1&#45;&gt;Node28 -->
<g id="edge48" class="edge"><title>Node1&#45;&gt;Node28</title>
<path fill="none" stroke="midnightblue" d="M867.225,-298.635C1091.95,-294.32 1741.71,-279.222 1975.29,-243.554"/>
<polygon fill="midnightblue" stroke="midnightblue" points="1976.1,-246.97 1985.43,-241.95 1975.01,-240.056 1976.1,-246.97"/>
</g>
<!-- Node29 -->
<g id="node29" class="node"><title>Node29</title>
<polygon fill="none" stroke="#bfbfbf" points="2047.66,-224.5 2047.66,-243.5 2099.66,-243.5 2099.66,-224.5 2047.66,-224.5"/>
<text text-anchor="middle" x="2073.66" y="-231.5" font-family="Helvetica,sans-Serif" font-size="10.00">ostream</text>
</g>
<!-- Node1&#45;&gt;Node29 -->
<g id="edge49" class="edge"><title>Node1&#45;&gt;Node29</title>
<path fill="none" stroke="midnightblue" d="M867.432,-298.548C1100.37,-293.881 1790.94,-277.65 2037.45,-243.626"/>
<polygon fill="midnightblue" stroke="midnightblue" points="2038.03,-247.078 2047.44,-242.201 2037.05,-240.148 2038.03,-247.078"/>
</g>
<!-- Node3 -->
<g id="node3" class="node"><title>Node3</title>
<g id="a_node3"><a xlink:href="_w_b_block_8h.html" target="_top" xlink:title="WBBlock.h">
<polygon fill="none" stroke="black" points="372.664,-168.5 372.664,-187.5 438.664,-187.5 438.664,-168.5 372.664,-168.5"/>
<text text-anchor="middle" x="405.664" y="-175.5" font-family="Helvetica,sans-Serif" font-size="10.00">WBBlock.h</text>
</a>
</g>
</g>
<!-- Node2&#45;&gt;Node3 -->
<g id="edge2" class="edge"><title>Node2&#45;&gt;Node3</title>
<path fill="none" stroke="midnightblue" d="M471.971,-224.324C459.763,-215.979 441.086,-203.212 426.661,-193.352"/>
<polygon fill="midnightblue" stroke="midnightblue" points="428.556,-190.408 418.325,-187.655 424.606,-196.187 428.556,-190.408"/>
</g>
<!-- Node6 -->
<g id="node6" class="node"><title>Node6</title>
<polygon fill="none" stroke="#bfbfbf" points="494.664,-0.5 494.664,-19.5 546.664,-19.5 546.664,-0.5 494.664,-0.5"/>
<text text-anchor="middle" x="520.664" y="-7.5" font-family="Helvetica,sans-Serif" font-size="10.00">memory</text>
</g>
<!-- Node2&#45;&gt;Node6 -->
<g id="edge12" class="edge"><title>Node2&#45;&gt;Node6</title>
<path fill="none" stroke="midnightblue" d="M486.075,-224.297C491.372,-191.633 510.145,-75.8661 517.59,-29.9573"/>
<polygon fill="midnightblue" stroke="midnightblue" points="521.077,-30.3151 519.223,-19.8837 514.168,-29.1945 521.077,-30.3151"/>
</g>
<!-- Node7 -->
<g id="node7" class="node"><title>Node7</title>
<polygon fill="none" stroke="#bfbfbf" points="378.164,-0.5 378.164,-19.5 419.164,-19.5 419.164,-0.5 378.164,-0.5"/>
<text text-anchor="middle" x="398.664" y="-7.5" font-family="Helvetica,sans-Serif" font-size="10.00">string</text>
</g>
<!-- Node2&#45;&gt;Node7 -->
<g id="edge13" class="edge"><title>Node2&#45;&gt;Node7</title>
<path fill="none" stroke="midnightblue" d="M481.293,-224.297C468.585,-191.494 423.412,-74.8835 405.783,-29.3774"/>
<polygon fill="midnightblue" stroke="midnightblue" points="408.981,-27.9442 402.105,-19.8837 402.454,-30.4728 408.981,-27.9442"/>
</g>
<!-- Node4 -->
<g id="node4" class="node"><title>Node4</title>
<g id="a_node4"><a xlink:href="_block_8h.html" target="_top" xlink:title="Block.h">
<polygon fill="none" stroke="black" points="320.664,-112.5 320.664,-131.5 370.664,-131.5 370.664,-112.5 320.664,-112.5"/>
<text text-anchor="middle" x="345.664" y="-119.5" font-family="Helvetica,sans-Serif" font-size="10.00">Block.h</text>
</a>
</g>
</g>
<!-- Node3&#45;&gt;Node4 -->
<g id="edge3" class="edge"><title>Node3&#45;&gt;Node4</title>
<path fill="none" stroke="midnightblue" d="M396.024,-168.324C387.154,-160.341 373.789,-148.313 363.056,-138.653"/>
<polygon fill="midnightblue" stroke="midnightblue" points="365.254,-135.922 355.479,-131.834 360.571,-141.125 365.254,-135.922"/>
</g>
<!-- Node3&#45;&gt;Node6 -->
<g id="edge10" class="edge"><title>Node3&#45;&gt;Node6</title>
<path fill="none" stroke="midnightblue" d="M411.847,-168.075C430.184,-141.606 484.495,-63.2089 508.742,-28.2097"/>
<polygon fill="midnightblue" stroke="midnightblue" points="511.911,-29.7814 514.728,-19.5681 506.156,-25.7951 511.911,-29.7814"/>
</g>
<!-- Node3&#45;&gt;Node7 -->
<g id="edge11" class="edge"><title>Node3&#45;&gt;Node7</title>
<path fill="none" stroke="midnightblue" d="M405.288,-168.075C404.186,-141.945 400.95,-65.2106 399.447,-29.577"/>
<polygon fill="midnightblue" stroke="midnightblue" points="402.944,-29.4117 399.025,-19.5681 395.95,-29.7067 402.944,-29.4117"/>
</g>
<!-- Node4&#45;&gt;Node5 -->
<g id="edge4" class="edge"><title>Node4&#45;&gt;Node5</title>
<path fill="none" stroke="midnightblue" d="M337.242,-112.083C329.816,-104.22 318.812,-92.5688 309.852,-83.0813"/>
<polygon fill="midnightblue" stroke="midnightblue" points="312.34,-80.618 302.929,-75.7511 307.251,-85.4244 312.34,-80.618"/>
</g>
<!-- Node4&#45;&gt;Node7 -->
<g id="edge8" class="edge"><title>Node4&#45;&gt;Node7</title>
<path fill="none" stroke="midnightblue" d="M349.823,-112.368C358.492,-94.376 378.644,-52.5503 390.171,-28.6267"/>
<polygon fill="midnightblue" stroke="midnightblue" points="393.337,-30.1195 394.524,-19.5914 387.031,-27.081 393.337,-30.1195"/>
</g>
<!-- Node4&#45;&gt;Node8 -->
<g id="edge9" class="edge"><title>Node4&#45;&gt;Node8</title>
<path fill="none" stroke="midnightblue" d="M320.512,-113.19C299.567,-105.854 269.711,-93.3946 247.664,-76 230.829,-62.7176 216.264,-42.7812 207.059,-28.4922"/>
<polygon fill="midnightblue" stroke="midnightblue" points="209.824,-26.3092 201.58,-19.6533 203.874,-29.997 209.824,-26.3092"/>
</g>
<!-- Node5&#45;&gt;Node6 -->
<g id="edge5" class="edge"><title>Node5&#45;&gt;Node6</title>
<path fill="none" stroke="midnightblue" d="M330.474,-56.4435C372.673,-46.3606 442.383,-29.7042 484.664,-19.6016"/>
<polygon fill="midnightblue" stroke="midnightblue" points="485.62,-22.9719 494.533,-17.2437 483.993,-16.1636 485.62,-22.9719"/>
</g>
<!-- Node5&#45;&gt;Node7 -->
<g id="edge6" class="edge"><title>Node5&#45;&gt;Node7</title>
<path fill="none" stroke="midnightblue" d="M311.373,-56.324C327.976,-47.7034 353.666,-34.3643 372.884,-24.3855"/>
<polygon fill="midnightblue" stroke="midnightblue" points="374.734,-27.3689 381.996,-19.6545 371.508,-21.1565 374.734,-27.3689"/>
</g>
<!-- Node5&#45;&gt;Node8 -->
<g id="edge7" class="edge"><title>Node5&#45;&gt;Node8</title>
<path fill="none" stroke="midnightblue" d="M278.919,-56.324C263.345,-47.7428 239.287,-34.486 221.205,-24.5224"/>
<polygon fill="midnightblue" stroke="midnightblue" points="222.818,-21.4152 212.37,-19.6545 219.44,-27.546 222.818,-21.4152"/>
</g>
<!-- Node9&#45;&gt;Node6 -->
<g id="edge15" class="edge"><title>Node9&#45;&gt;Node6</title>
<path fill="none" stroke="midnightblue" d="M661.202,-56.4435C632.903,-47.2928 587.859,-32.7279 556.419,-22.5614"/>
<polygon fill="midnightblue" stroke="midnightblue" points="557.319,-19.1741 546.727,-19.4275 555.165,-25.8345 557.319,-19.1741"/>
</g>
<!-- Node9&#45;&gt;Node7 -->
<g id="edge16" class="edge"><title>Node9&#45;&gt;Node7</title>
<path fill="none" stroke="midnightblue" d="M641.871,-56.4435C582.435,-45.3378 480.319,-26.2573 429.401,-16.7433"/>
<polygon fill="midnightblue" stroke="midnightblue" points="429.819,-13.2609 419.347,-14.8646 428.534,-20.1418 429.819,-13.2609"/>
</g>
<!-- Node9&#45;&gt;Node8 -->
<g id="edge19" class="edge"><title>Node9&#45;&gt;Node8</title>
<path fill="none" stroke="midnightblue" d="M638.433,-57.3111C635.129,-56.8504 631.85,-56.4087 628.664,-56 479.624,-36.881 300.858,-20.2607 228.947,-13.8334"/>
<polygon fill="midnightblue" stroke="midnightblue" points="229.007,-10.325 218.736,-12.9252 228.387,-17.2974 229.007,-10.325"/>
</g>
<!-- Node9&#45;&gt;Node10 -->
<g id="edge17" class="edge"><title>Node9&#45;&gt;Node10</title>
<path fill="none" stroke="midnightblue" d="M717.716,-56.4521C748.978,-47.5185 799.322,-33.0157 842.664,-20 842.765,-19.9697 842.866,-19.9393 842.967,-19.9088"/>
<polygon fill="midnightblue" stroke="midnightblue" points="844.104,-23.2214 852.648,-16.9563 842.062,-16.5259 844.104,-23.2214"/>
</g>
<!-- Node11 -->
<g id="node11" class="node"><title>Node11</title>
<polygon fill="none" stroke="#bfbfbf" points="679.664,-0.5 679.664,-19.5 719.664,-19.5 719.664,-0.5 679.664,-0.5"/>
<text text-anchor="middle" x="699.664" y="-7.5" font-family="Helvetica,sans-Serif" font-size="10.00">utility</text>
</g>
<!-- Node9&#45;&gt;Node11 -->
<g id="edge18" class="edge"><title>Node9&#45;&gt;Node11</title>
<path fill="none" stroke="midnightblue" d="M689.646,-56.083C691.236,-48.9272 693.523,-38.6353 695.51,-29.6911"/>
<polygon fill="midnightblue" stroke="midnightblue" points="698.967,-30.2722 697.719,-19.7511 692.133,-28.7537 698.967,-30.2722"/>
</g>
<!-- Node12&#45;&gt;Node6 -->
<g id="edge22" class="edge"><title>Node12&#45;&gt;Node6</title>
<path fill="none" stroke="midnightblue" d="M112.378,-57.4203C115.517,-56.9169 118.638,-56.4371 121.664,-56 191.384,-45.9267 399.705,-23.7114 484.328,-14.8041"/>
<polygon fill="midnightblue" stroke="midnightblue" points="484.908,-18.2626 494.487,-13.7363 484.176,-11.301 484.908,-18.2626"/>
</g>
<!-- Node12&#45;&gt;Node7 -->
<g id="edge23" class="edge"><title>Node12&#45;&gt;Node7</title>
<path fill="none" stroke="midnightblue" d="M112.405,-57.5863C115.537,-57.0446 118.65,-56.5107 121.664,-56 211.132,-40.8393 317.038,-23.9192 368.106,-15.8248"/>
<polygon fill="midnightblue" stroke="midnightblue" points="368.816,-19.2561 378.146,-14.2353 367.721,-12.3422 368.816,-19.2561"/>
</g>
<!-- Node12&#45;&gt;Node8 -->
<g id="edge24" class="edge"><title>Node12&#45;&gt;Node8</title>
<path fill="none" stroke="midnightblue" d="M90.6291,-56.4435C111.273,-47.5961 143.727,-33.6875 167.296,-23.5865"/>
<polygon fill="midnightblue" stroke="midnightblue" points="168.98,-26.6727 176.792,-19.5164 166.222,-20.2387 168.98,-26.6727"/>
</g>
<!-- Node13 -->
<g id="node13" class="node"><title>Node13</title>
<polygon fill="none" stroke="#bfbfbf" points="51.664,-0.5 51.664,-19.5 89.664,-19.5 89.664,-0.5 51.664,-0.5"/>
<text text-anchor="middle" x="70.664" y="-7.5" font-family="Helvetica,sans-Serif" font-size="10.00">array</text>
</g>
<!-- Node12&#45;&gt;Node13 -->
<g id="edge21" class="edge"><title>Node12&#45;&gt;Node13</title>
<path fill="none" stroke="midnightblue" d="M70.664,-56.083C70.664,-49.0059 70.664,-38.8611 70.664,-29.9865"/>
<polygon fill="midnightblue" stroke="midnightblue" points="74.1641,-29.751 70.664,-19.7511 67.1641,-29.7511 74.1641,-29.751"/>
</g>
<!-- Node14&#45;&gt;Node6 -->
<g id="edge26" class="edge"><title>Node14&#45;&gt;Node6</title>
<path fill="none" stroke="midnightblue" d="M586.971,-56.324C574.763,-47.979 556.086,-35.2122 541.661,-25.3524"/>
<polygon fill="midnightblue" stroke="midnightblue" points="543.556,-22.4082 533.325,-19.6545 539.606,-28.1871 543.556,-22.4082"/>
</g>
<!-- Node14&#45;&gt;Node7 -->
<g id="edge28" class="edge"><title>Node14&#45;&gt;Node7</title>
<path fill="none" stroke="midnightblue" d="M578.911,-59.4244C543.311,-49.8603 470.452,-30.2864 429.098,-19.1762"/>
<polygon fill="midnightblue" stroke="midnightblue" points="429.87,-15.7597 419.305,-16.5452 428.054,-22.52 429.87,-15.7597"/>
</g>
<!-- Node15 -->
<g id="node15" class="node"><title>Node15</title>
<polygon fill="none" stroke="#bfbfbf" points="573.664,-0.5 573.664,-19.5 625.664,-19.5 625.664,-0.5 573.664,-0.5"/>
<text text-anchor="middle" x="599.664" y="-7.5" font-family="Helvetica,sans-Serif" font-size="10.00">sstream</text>
</g>
<!-- Node14&#45;&gt;Node15 -->
<g id="edge27" class="edge"><title>Node14&#45;&gt;Node15</title>
<path fill="none" stroke="midnightblue" d="M599.664,-56.083C599.664,-49.0059 599.664,-38.8611 599.664,-29.9865"/>
<polygon fill="midnightblue" stroke="midnightblue" points="603.164,-29.751 599.664,-19.7511 596.164,-29.7511 603.164,-29.751"/>
</g>
<!-- Node16&#45;&gt;Node7 -->
<g id="edge30" class="edge"><title>Node16&#45;&gt;Node7</title>
<path fill="none" stroke="midnightblue" d="M200.799,-56.8572C246.368,-46.2961 325.111,-28.0467 368.244,-18.0502"/>
<polygon fill="midnightblue" stroke="midnightblue" points="369.196,-21.4222 378.148,-15.7548 367.616,-14.603 369.196,-21.4222"/>
</g>
<!-- Node16&#45;&gt;Node8 -->
<g id="edge31" class="edge"><title>Node16&#45;&gt;Node8</title>
<path fill="none" stroke="midnightblue" d="M170.783,-56.083C175.072,-48.6127 181.322,-37.7244 186.606,-28.5199"/>
<polygon fill="midnightblue" stroke="midnightblue" points="189.697,-30.1662 191.64,-19.7511 183.626,-26.6811 189.697,-30.1662"/>
</g>
<!-- Node17&#45;&gt;Node6 -->
<g id="edge34" class="edge"><title>Node17&#45;&gt;Node6</title>
<path fill="none" stroke="midnightblue" d="M753.774,-56.5298C706.645,-47.5991 630.401,-33.0435 564.664,-20 562.03,-19.4774 559.309,-18.9326 556.571,-18.3809"/>
<polygon fill="midnightblue" stroke="midnightblue" points="557.208,-14.9389 546.712,-16.3808 555.816,-21.7992 557.208,-14.9389"/>
</g>
<!-- Node17&#45;&gt;Node7 -->
<g id="edge35" class="edge"><title>Node17&#45;&gt;Node7</title>
<path fill="none" stroke="midnightblue" d="M753.894,-57.4116C750.773,-56.9215 747.672,-56.4462 744.664,-56 628.503,-38.7718 489.857,-21.8309 429.393,-14.6217"/>
<polygon fill="midnightblue" stroke="midnightblue" points="429.713,-11.1352 419.369,-13.4305 428.886,-18.0862 429.713,-11.1352"/>
</g>
<!-- Node17&#45;&gt;Node11 -->
<g id="edge37" class="edge"><title>Node17&#45;&gt;Node11</title>
<path fill="none" stroke="midnightblue" d="M782.758,-56.324C767.026,-47.7428 742.722,-34.486 724.455,-24.5224"/>
<polygon fill="midnightblue" stroke="midnightblue" points="725.986,-21.3704 715.531,-19.6545 722.634,-27.5157 725.986,-21.3704"/>
</g>
<!-- Node18 -->
<g id="node18" class="node"><title>Node18</title>
<polygon fill="none" stroke="#bfbfbf" points="751.164,-0.5 751.164,-19.5 834.164,-19.5 834.164,-0.5 751.164,-0.5"/>
<text text-anchor="middle" x="792.664" y="-7.5" font-family="Helvetica,sans-Serif" font-size="10.00">unordered_map</text>
</g>
<!-- Node17&#45;&gt;Node18 -->
<g id="edge36" class="edge"><title>Node17&#45;&gt;Node18</title>
<path fill="none" stroke="midnightblue" d="M797.673,-56.083C796.878,-48.9272 795.735,-38.6353 794.741,-29.6911"/>
<polygon fill="midnightblue" stroke="midnightblue" points="798.219,-29.3034 793.636,-19.7511 791.262,-30.0765 798.219,-29.3034"/>
</g>
<!-- Node19&#45;&gt;Node6 -->
<g id="edge39" class="edge"><title>Node19&#45;&gt;Node6</title>
<path fill="none" stroke="midnightblue" d="M564.191,-168.075C556.95,-141.945 535.686,-65.2106 525.812,-29.577"/>
<polygon fill="midnightblue" stroke="midnightblue" points="529.082,-28.2703 523.038,-19.5681 522.336,-30.1396 529.082,-28.2703"/>
</g>
</g>
</svg>
        <g id="navigator" transform="translate(0 0)" fill="#404254">
                <rect fill="#f2f5e9" fill-opacity="0.5" stroke="#606060" stroke-width=".5" x="0" y="0" width="60" height="60"/>
                <use id="zoomplus" xlink:href="#zoomPlus" x="17" y="9" onmousedown="handleZoom(evt,'in')"/>
                <use id="zoomminus" xlink:href="#zoomMin" x="42" y="9" onmousedown="handleZoom(evt,'out')"/>
                <use id="reset" xlink:href="#resetDef" x="30" y="36" onmousedown="handleReset()"/>
                <g id="arrowUp" xlink:href="#dirArrow" transform="translate(30 24)" onmousedown="handlePan(0,-1)">
                  <use xlink:href="#rim" fill="#404040">
                        <set attributeName="fill" to="#808080" begin="arrowUp.mouseover" end="arrowUp.mouseout"/>
                  </use>
                  <path fill="none" stroke="white" stroke-width="1.5" d="M0,-3.0v7 M-2.5,-0.5L0,-3.0L2.5,-0.5"/>
                </g>
                <g id="arrowRight" xlink:href="#dirArrow" transform="rotate(90) translate(36 -43)" onmousedown="handlePan(1,0)">
                  <use xlink:href="#rim" fill="#404040">
                        <set attributeName="fill" to="#808080" begin="arrowRight.mouseover" end="arrowRight.mouseout"/>
                  </use>
                  <path fill="none" stroke="white" stroke-width="1.5" d="M0,-3.0v7 M-2.5,-0.5L0,-3.0L2.5,-0.5"/>
                </g>
                <g id="arrowDown" xlink:href="#dirArrow" transform="rotate(180) translate(-30 -48)" onmousedown="handlePan(0,1)">
                  <use xlink:href="#rim" fill="#404040">
                        <set attributeName="fill" to="#808080" begin="arrowDown.mouseover" end="arrowDown.mouseout"/>
                  </use>
                  <path fill="none" stroke="white" stroke-width="1.5" d="M0,-3.0v7 M-2.5,-0.5L0,-3.0L2.5,-0.5"/>
                </g>
                <g id="arrowLeft" xlink:href="#dirArrow" transform="rotate(270) translate(-36 17)" onmousedown="handlePan(-1,0)">
                  <use xlink:href="#rim" fill="#404040">
                        <set attributeName="fill" to="#808080" begin="arrowLeft.mouseover" end="arrowLeft.mouseout"/>
                  </use>
                  <path fill="none" stroke="white" stroke-width="1.5" d="M0,-3.0v7 M-2.5,-0.5L0,-3.0L2.5,-0.5"/>
                </g>
        </g>
        <svg viewBox="0 0 15 15" width="100%" height="30px" preserveAspectRatio="xMaxYMin meet">
         <g id="arrow_out" transform="scale(0.3 0.3)">
          <a xlink:href="_set_references_8cpp__incl_org.svg" target="_base">
           <rect id="button" ry="5" rx="5" y="6" x="6" height="38" width="38"
                fill="#f2f5e9" fill-opacity="0.5" stroke="#606060" stroke-width="1.0"/>
           <path id="arrow"
             d="M 11.500037,31.436501 C 11.940474,20.09759 22.043105,11.32322 32.158766,21.979434 L 37.068811,17.246167 C 37.068811,17.246167 37.088388,32 37.088388,32 L 22.160133,31.978069 C 22.160133,31.978069 26.997745,27.140456 26.997745,27.140456 C 18.528582,18.264221 13.291696,25.230495 11.500037,31.436501 z"
             style="fill:#404040;"/>
          </a>
         </g>
        </svg>
</svg>
