<?xml version="1.0" encoding="UTF-8" standalone="no"?>
<!DOCTYPE svg PUBLIC "-//W3C//DTD SVG 1.1//EN"
 "http://www.w3.org/Graphics/SVG/1.1/DTD/svg11.dtd">
<!-- Generated by graphviz version 2.36.0 (20140111.2315)
 -->
<!-- Title: /home/travis/build/robotology/wb&#45;toolbox/toolbox/src/sharedlibpp/src/SharedLibraryFactory.cpp Pages: 1 -->
<svg width="376pt" height="286pt"
 viewBox="0.00 0.00 376.00 286.00" xmlns="http://www.w3.org/2000/svg" xmlns:xlink="http://www.w3.org/1999/xlink">
<g id="graph0" class="graph" transform="scale(1 1) rotate(0) translate(4 282)">
<title>/home/travis/build/robotology/wb&#45;toolbox/toolbox/src/sharedlibpp/src/SharedLibraryFactory.cpp</title>
<!-- Node1 -->
<g id="node1" class="node"><title>Node1</title>
<polygon fill="#bfbfbf" stroke="black" points="84,-225 84,-277 232,-277 232,-225 84,-225"/>
<text text-anchor="start" x="92" y="-265" font-family="Helvetica,sans-Serif" font-size="10.00">/home/travis/build</text>
<text text-anchor="start" x="92" y="-254" font-family="Helvetica,sans-Serif" font-size="10.00">/robotology/wb&#45;toolbox</text>
<text text-anchor="start" x="92" y="-243" font-family="Helvetica,sans-Serif" font-size="10.00">/toolbox/src/sharedlibpp</text>
<text text-anchor="middle" x="158" y="-232" font-family="Helvetica,sans-Serif" font-size="10.00">/src/SharedLibraryFactory.cpp</text>
</g>
<!-- Node2 -->
<g id="node2" class="node"><title>Node2</title>
<g id="a_node2"><a xlink:href="_shared_library_factory_8h.html" target="_top" xlink:title="SharedLibraryFactory.h">
<polygon fill="none" stroke="black" points="99,-168.5 99,-187.5 217,-187.5 217,-168.5 99,-168.5"/>
<text text-anchor="middle" x="158" y="-175.5" font-family="Helvetica,sans-Serif" font-size="10.00">SharedLibraryFactory.h</text>
</a>
</g>
</g>
<!-- Node1&#45;&gt;Node2 -->
<g id="edge1" class="edge"><title>Node1&#45;&gt;Node2</title>
<path fill="none" stroke="midnightblue" d="M158,-224.768C158,-215.89 158,-206.074 158,-197.816"/>
<polygon fill="midnightblue" stroke="midnightblue" points="161.5,-197.757 158,-187.757 154.5,-197.757 161.5,-197.757"/>
</g>
<!-- Node3 -->
<g id="node3" class="node"><title>Node3</title>
<g id="a_node3"><a xlink:href="_shared_library_8h.html" target="_top" xlink:title="SharedLibrary.h">
<polygon fill="none" stroke="black" points="-0.5,-112.5 -0.5,-131.5 84.5,-131.5 84.5,-112.5 -0.5,-112.5"/>
<text text-anchor="middle" x="42" y="-119.5" font-family="Helvetica,sans-Serif" font-size="10.00">SharedLibrary.h</text>
</a>
</g>
</g>
<!-- Node2&#45;&gt;Node3 -->
<g id="edge2" class="edge"><title>Node2&#45;&gt;Node3</title>
<path fill="none" stroke="midnightblue" d="M139.619,-168.444C120.784,-159.675 91.2688,-145.935 69.6207,-135.858"/>
<polygon fill="midnightblue" stroke="midnightblue" points="70.8375,-132.564 60.2946,-131.516 67.8833,-138.91 70.8375,-132.564"/>
</g>
<!-- Node4 -->
<g id="node4" class="node"><title>Node4</title>
<polygon fill="none" stroke="#bfbfbf" points="111.5,-0.5 111.5,-19.5 152.5,-19.5 152.5,-0.5 111.5,-0.5"/>
<text text-anchor="middle" x="132" y="-7.5" font-family="Helvetica,sans-Serif" font-size="10.00">string</text>
</g>
<!-- Node2&#45;&gt;Node4 -->
<g id="edge11" class="edge"><title>Node2&#45;&gt;Node4</title>
<path fill="none" stroke="midnightblue" d="M151.11,-168.319C144.731,-159.684 135.692,-145.77 132,-132 122.56,-96.7924 125.917,-53.7223 129.06,-29.6236"/>
<polygon fill="midnightblue" stroke="midnightblue" points="132.527,-30.1044 130.486,-19.708 125.598,-29.1081 132.527,-30.1044"/>
</g>
<!-- Node5 -->
<g id="node5" class="node"><title>Node5</title>
<g id="a_node5"><a xlink:href="_shared_library_class_api_8h.html" target="_top" xlink:title="SharedLibraryClassApi.h">
<polygon fill="none" stroke="black" points="141.5,-112.5 141.5,-131.5 266.5,-131.5 266.5,-112.5 141.5,-112.5"/>
<text text-anchor="middle" x="204" y="-119.5" font-family="Helvetica,sans-Serif" font-size="10.00">SharedLibraryClassApi.h</text>
</a>
</g>
</g>
<!-- Node2&#45;&gt;Node5 -->
<g id="edge4" class="edge"><title>Node2&#45;&gt;Node5</title>
<path fill="none" stroke="midnightblue" d="M165.596,-168.083C172.227,-160.298 182.021,-148.801 190.058,-139.367"/>
<polygon fill="midnightblue" stroke="midnightblue" points="192.725,-141.633 196.545,-131.751 187.396,-137.094 192.725,-141.633"/>
</g>
<!-- Node7 -->
<g id="node7" class="node"><title>Node7</title>
<g id="a_node7"><a xlink:href="_vocab_8h.html" target="_top" xlink:title="Vocab.h">
<polygon fill="none" stroke="black" points="315.5,-56.5 315.5,-75.5 368.5,-75.5 368.5,-56.5 315.5,-56.5"/>
<text text-anchor="middle" x="342" y="-63.5" font-family="Helvetica,sans-Serif" font-size="10.00">Vocab.h</text>
</a>
</g>
</g>
<!-- Node2&#45;&gt;Node7 -->
<g id="edge10" class="edge"><title>Node2&#45;&gt;Node7</title>
<path fill="none" stroke="midnightblue" d="M190.171,-168.465C214.641,-161.09 248.502,-148.936 275,-132 296.004,-118.575 315.955,-97.8178 328.536,-83.3852"/>
<polygon fill="midnightblue" stroke="midnightblue" points="331.239,-85.6096 335.044,-75.7217 325.903,-81.0784 331.239,-85.6096"/>
</g>
<!-- Node3&#45;&gt;Node4 -->
<g id="edge3" class="edge"><title>Node3&#45;&gt;Node4</title>
<path fill="none" stroke="midnightblue" d="M49.0621,-112.368C64.0462,-94.0547 99.2327,-51.0489 118.613,-27.3624"/>
<polygon fill="midnightblue" stroke="midnightblue" points="121.347,-29.5474 124.971,-19.5914 115.929,-25.1147 121.347,-29.5474"/>
</g>
<!-- Node5&#45;&gt;Node4 -->
<g id="edge6" class="edge"><title>Node5&#45;&gt;Node4</title>
<path fill="none" stroke="midnightblue" d="M196.909,-112.261C189.799,-103.355 178.691,-89.0352 170,-76 159.599,-60.3997 148.924,-41.8751 141.547,-28.6008"/>
<polygon fill="midnightblue" stroke="midnightblue" points="144.49,-26.6885 136.608,-19.6086 138.354,-30.0585 144.49,-26.6885"/>
</g>
<!-- Node6 -->
<g id="node6" class="node"><title>Node6</title>
<polygon fill="none" stroke="#bfbfbf" points="179.5,-56.5 179.5,-75.5 228.5,-75.5 228.5,-56.5 179.5,-56.5"/>
<text text-anchor="middle" x="204" y="-63.5" font-family="Helvetica,sans-Serif" font-size="10.00">string.h</text>
</g>
<!-- Node5&#45;&gt;Node6 -->
<g id="edge5" class="edge"><title>Node5&#45;&gt;Node6</title>
<path fill="none" stroke="midnightblue" d="M204,-112.083C204,-105.006 204,-94.8611 204,-85.9865"/>
<polygon fill="midnightblue" stroke="midnightblue" points="207.5,-85.751 204,-75.7511 200.5,-85.7511 207.5,-85.751"/>
</g>
<!-- Node5&#45;&gt;Node7 -->
<g id="edge7" class="edge"><title>Node5&#45;&gt;Node7</title>
<path fill="none" stroke="midnightblue" d="M225.867,-112.444C248.779,-103.478 284.975,-89.314 310.866,-79.1827"/>
<polygon fill="midnightblue" stroke="midnightblue" points="312.199,-82.4198 320.236,-75.5164 309.648,-75.9011 312.199,-82.4198"/>
</g>
<!-- Node8 -->
<g id="node8" class="node"><title>Node8</title>
<g id="a_node8"><a xlink:href="config_8h.html" target="_top" xlink:title="config.h">
<polygon fill="none" stroke="black" points="246.5,-56.5 246.5,-75.5 297.5,-75.5 297.5,-56.5 246.5,-56.5"/>
<text text-anchor="middle" x="272" y="-63.5" font-family="Helvetica,sans-Serif" font-size="10.00">config.h</text>
</a>
</g>
</g>
<!-- Node5&#45;&gt;Node8 -->
<g id="edge9" class="edge"><title>Node5&#45;&gt;Node8</title>
<path fill="none" stroke="midnightblue" d="M214.925,-112.324C225.175,-104.185 240.721,-91.8395 253.001,-82.0874"/>
<polygon fill="midnightblue" stroke="midnightblue" points="255.221,-84.7937 260.876,-75.8339 250.868,-79.3119 255.221,-84.7937"/>
</g>
<!-- Node7&#45;&gt;Node4 -->
<g id="edge8" class="edge"><title>Node7&#45;&gt;Node4</title>
<path fill="none" stroke="midnightblue" d="M315.403,-58.1609C276.333,-48.1143 203.615,-29.4153 162.455,-18.8313"/>
<polygon fill="midnightblue" stroke="midnightblue" points="163.267,-15.4263 152.71,-16.3255 161.524,-22.2057 163.267,-15.4263"/>
</g>
</g>
</svg>
