<?xml version="1.0" encoding="UTF-8" standalone="no"?>
<!DOCTYPE svg PUBLIC "-//W3C//DTD SVG 1.1//EN"
 "http://www.w3.org/Graphics/SVG/1.1/DTD/svg11.dtd">
<!-- Generated by graphviz version 2.36.0 (20140111.2315)
 -->
<!-- Title: /home/travis/build/robotology/wb&#45;toolbox/toolbox/src/sharedlibpp/include/SharedLibrary.h Pages: 1 -->
<svg width="384pt" height="422pt"
 viewBox="0.00 0.00 384.00 422.00" xmlns="http://www.w3.org/2000/svg" xmlns:xlink="http://www.w3.org/1999/xlink">
<g id="graph0" class="graph" transform="scale(1 1) rotate(0) translate(4 418)">
<title>/home/travis/build/robotology/wb&#45;toolbox/toolbox/src/sharedlibpp/include/SharedLibrary.h</title>
<!-- Node1 -->
<g id="node1" class="node"><title>Node1</title>
<polygon fill="#bfbfbf" stroke="black" points="59,-361 59,-413 181,-413 181,-361 59,-361"/>
<text text-anchor="start" x="67" y="-401" font-family="Helvetica,sans-Serif" font-size="10.00">/home/travis/build</text>
<text text-anchor="start" x="67" y="-390" font-family="Helvetica,sans-Serif" font-size="10.00">/robotology/wb&#45;toolbox</text>
<text text-anchor="start" x="67" y="-379" font-family="Helvetica,sans-Serif" font-size="10.00">/toolbox/src/sharedlibpp</text>
<text text-anchor="middle" x="120" y="-368" font-family="Helvetica,sans-Serif" font-size="10.00">/include/SharedLibrary.h</text>
</g>
<!-- Node2 -->
<g id="node2" class="node"><title>Node2</title>
<g id="a_node2"><a xlink:href="_w_b_toolbox_8cpp.html" target="_top" xlink:title="/home/travis/build\l/robotology/wb&#45;toolbox\l/toolbox/src/core/src\l/WBToolbox.cpp">
<polygon fill="none" stroke="black" points="-0.5,-1 -0.5,-53 114.5,-53 114.5,-1 -0.5,-1"/>
<text text-anchor="start" x="7.5" y="-41" font-family="Helvetica,sans-Serif" font-size="10.00">/home/travis/build</text>
<text text-anchor="start" x="7.5" y="-30" font-family="Helvetica,sans-Serif" font-size="10.00">/robotology/wb&#45;toolbox</text>
<text text-anchor="start" x="7.5" y="-19" font-family="Helvetica,sans-Serif" font-size="10.00">/toolbox/src/core/src</text>
<text text-anchor="middle" x="57" y="-8" font-family="Helvetica,sans-Serif" font-size="10.00">/WBToolbox.cpp</text>
</a>
</g>
</g>
<!-- Node1&#45;&gt;Node2 -->
<g id="edge1" class="edge"><title>Node1&#45;&gt;Node2</title>
<path fill="none" stroke="midnightblue" d="M62.0758,-354.935C50.7943,-346.347 40.2381,-336.018 33,-324 -20.6646,-234.897 2.61923,-190.614 29,-90 32.295,-77.4331 37.9281,-64.2187 43.2815,-53.2335"/>
<polygon fill="midnightblue" stroke="midnightblue" points="60.213,-357.906 70.3817,-360.881 64.2875,-352.214 60.213,-357.906"/>
</g>
<!-- Node3 -->
<g id="node3" class="node"><title>Node3</title>
<g id="a_node3"><a xlink:href="_shared_library_factory_8h.html" target="_top" xlink:title="/home/travis/build\l/robotology/wb&#45;toolbox\l/toolbox/src/sharedlibpp\l/include/SharedLibraryFactory.h">
<polygon fill="none" stroke="black" points="42.5,-271 42.5,-323 197.5,-323 197.5,-271 42.5,-271"/>
<text text-anchor="start" x="50.5" y="-311" font-family="Helvetica,sans-Serif" font-size="10.00">/home/travis/build</text>
<text text-anchor="start" x="50.5" y="-300" font-family="Helvetica,sans-Serif" font-size="10.00">/robotology/wb&#45;toolbox</text>
<text text-anchor="start" x="50.5" y="-289" font-family="Helvetica,sans-Serif" font-size="10.00">/toolbox/src/sharedlibpp</text>
<text text-anchor="middle" x="120" y="-278" font-family="Helvetica,sans-Serif" font-size="10.00">/include/SharedLibraryFactory.h</text>
</a>
</g>
</g>
<!-- Node1&#45;&gt;Node3 -->
<g id="edge2" class="edge"><title>Node1&#45;&gt;Node3</title>
<path fill="none" stroke="midnightblue" d="M120,-350.489C120,-341.309 120,-331.616 120,-323.092"/>
<polygon fill="midnightblue" stroke="midnightblue" points="116.5,-350.547 120,-360.547 123.5,-350.547 116.5,-350.547"/>
</g>
<!-- Node7 -->
<g id="node7" class="node"><title>Node7</title>
<g id="a_node7"><a xlink:href="_shared_library_8cpp.html" target="_top" xlink:title="/home/travis/build\l/robotology/wb&#45;toolbox\l/toolbox/src/sharedlibpp\l/src/SharedLibrary.cpp">
<polygon fill="none" stroke="black" points="216,-271 216,-323 336,-323 336,-271 216,-271"/>
<text text-anchor="start" x="224" y="-311" font-family="Helvetica,sans-Serif" font-size="10.00">/home/travis/build</text>
<text text-anchor="start" x="224" y="-300" font-family="Helvetica,sans-Serif" font-size="10.00">/robotology/wb&#45;toolbox</text>
<text text-anchor="start" x="224" y="-289" font-family="Helvetica,sans-Serif" font-size="10.00">/toolbox/src/sharedlibpp</text>
<text text-anchor="middle" x="276" y="-278" font-family="Helvetica,sans-Serif" font-size="10.00">/src/SharedLibrary.cpp</text>
</a>
</g>
</g>
<!-- Node1&#45;&gt;Node7 -->
<g id="edge7" class="edge"><title>Node1&#45;&gt;Node7</title>
<path fill="none" stroke="midnightblue" d="M173.509,-355.815C192.425,-345.145 213.479,-333.268 231.56,-323.069"/>
<polygon fill="midnightblue" stroke="midnightblue" points="171.693,-352.821 164.703,-360.783 175.133,-358.918 171.693,-352.821"/>
</g>
<!-- Node4 -->
<g id="node4" class="node"><title>Node4</title>
<g id="a_node4"><a xlink:href="_shared_library_class_factory_8h.html" target="_top" xlink:title="/home/travis/build\l/robotology/wb&#45;toolbox\l/toolbox/src/sharedlibpp\l/include/SharedLibraryClassFactory.h">
<polygon fill="none" stroke="black" points="30,-181 30,-233 210,-233 210,-181 30,-181"/>
<text text-anchor="start" x="38" y="-221" font-family="Helvetica,sans-Serif" font-size="10.00">/home/travis/build</text>
<text text-anchor="start" x="38" y="-210" font-family="Helvetica,sans-Serif" font-size="10.00">/robotology/wb&#45;toolbox</text>
<text text-anchor="start" x="38" y="-199" font-family="Helvetica,sans-Serif" font-size="10.00">/toolbox/src/sharedlibpp</text>
<text text-anchor="middle" x="120" y="-188" font-family="Helvetica,sans-Serif" font-size="10.00">/include/SharedLibraryClassFactory.h</text>
</a>
</g>
</g>
<!-- Node3&#45;&gt;Node4 -->
<g id="edge3" class="edge"><title>Node3&#45;&gt;Node4</title>
<path fill="none" stroke="midnightblue" d="M120,-260.489C120,-251.309 120,-241.616 120,-233.092"/>
<polygon fill="midnightblue" stroke="midnightblue" points="116.5,-260.547 120,-270.547 123.5,-260.547 116.5,-260.547"/>
</g>
<!-- Node6 -->
<g id="node6" class="node"><title>Node6</title>
<g id="a_node6"><a xlink:href="_shared_library_factory_8cpp.html" target="_top" xlink:title="/home/travis/build\l/robotology/wb&#45;toolbox\l/toolbox/src/sharedlibpp\l/src/SharedLibraryFactory.cpp">
<polygon fill="none" stroke="black" points="228,-181 228,-233 376,-233 376,-181 228,-181"/>
<text text-anchor="start" x="236" y="-221" font-family="Helvetica,sans-Serif" font-size="10.00">/home/travis/build</text>
<text text-anchor="start" x="236" y="-210" font-family="Helvetica,sans-Serif" font-size="10.00">/robotology/wb&#45;toolbox</text>
<text text-anchor="start" x="236" y="-199" font-family="Helvetica,sans-Serif" font-size="10.00">/toolbox/src/sharedlibpp</text>
<text text-anchor="middle" x="302" y="-188" font-family="Helvetica,sans-Serif" font-size="10.00">/src/SharedLibraryFactory.cpp</text>
</a>
</g>
</g>
<!-- Node3&#45;&gt;Node6 -->
<g id="edge6" class="edge"><title>Node3&#45;&gt;Node6</title>
<path fill="none" stroke="midnightblue" d="M181.232,-266.394C203.605,-255.576 228.677,-243.453 250.153,-233.069"/>
<polygon fill="midnightblue" stroke="midnightblue" points="179.633,-263.279 172.154,-270.783 182.68,-269.581 179.633,-263.279"/>
</g>
<!-- Node5 -->
<g id="node5" class="node"><title>Node5</title>
<g id="a_node5"><a xlink:href="_shared_library_class_8h.html" target="_top" xlink:title="/home/travis/build\l/robotology/wb&#45;toolbox\l/toolbox/src/sharedlibpp\l/include/SharedLibraryClass.h">
<polygon fill="none" stroke="black" points="38.5,-91 38.5,-143 185.5,-143 185.5,-91 38.5,-91"/>
<text text-anchor="start" x="46.5" y="-131" font-family="Helvetica,sans-Serif" font-size="10.00">/home/travis/build</text>
<text text-anchor="start" x="46.5" y="-120" font-family="Helvetica,sans-Serif" font-size="10.00">/robotology/wb&#45;toolbox</text>
<text text-anchor="start" x="46.5" y="-109" font-family="Helvetica,sans-Serif" font-size="10.00">/toolbox/src/sharedlibpp</text>
<text text-anchor="middle" x="112" y="-98" font-family="Helvetica,sans-Serif" font-size="10.00">/include/SharedLibraryClass.h</text>
</a>
</g>
</g>
<!-- Node4&#45;&gt;Node5 -->
<g id="edge4" class="edge"><title>Node4&#45;&gt;Node5</title>
<path fill="none" stroke="midnightblue" d="M116.772,-170.489C115.937,-161.309 115.056,-151.616 114.281,-143.092"/>
<polygon fill="midnightblue" stroke="midnightblue" points="113.295,-170.905 117.686,-180.547 120.266,-170.271 113.295,-170.905"/>
</g>
<!-- Node5&#45;&gt;Node2 -->
<g id="edge5" class="edge"><title>Node5&#45;&gt;Node2</title>
<path fill="none" stroke="midnightblue" d="M90.7283,-81.9652C84.7215,-72.3545 78.2964,-62.0742 72.6826,-53.0921"/>
<polygon fill="midnightblue" stroke="midnightblue" points="87.8237,-83.9218 96.0917,-90.5468 93.7597,-80.2117 87.8237,-83.9218"/>
</g>
</g>
</svg>
