<?xml version="1.0" encoding="UTF-8" standalone="no"?>
<!DOCTYPE svg PUBLIC "-//W3C//DTD SVG 1.1//EN"
 "http://www.w3.org/Graphics/SVG/1.1/DTD/svg11.dtd">
<!-- Generated by graphviz version 2.36.0 (20140111.2315)
 -->
<!-- Title: /home/travis/build/robotology/wb&#45;toolbox/toolbox/src/sharedlibpp/src/shlibpp/SharedLibraryClassApi.h Pages: 1 -->
<svg width="246pt" height="118pt"
 viewBox="0.00 0.00 246.00 118.00" xmlns="http://www.w3.org/2000/svg" xmlns:xlink="http://www.w3.org/1999/xlink">
<g id="graph0" class="graph" transform="scale(1 1) rotate(0) translate(4 114)">
<title>/home/travis/build/robotology/wb&#45;toolbox/toolbox/src/sharedlibpp/src/shlibpp/SharedLibraryClassApi.h</title>
<!-- Node1 -->
<g id="node1" class="node"><title>Node1</title>
<polygon fill="#bfbfbf" stroke="black" points="42,-57 42,-109 220,-109 220,-57 42,-57"/>
<text text-anchor="start" x="50" y="-97" font-family="Helvetica,sans-Serif" font-size="10.00">/home/travis/build</text>
<text text-anchor="start" x="50" y="-86" font-family="Helvetica,sans-Serif" font-size="10.00">/robotology/wb&#45;toolbox</text>
<text text-anchor="start" x="50" y="-75" font-family="Helvetica,sans-Serif" font-size="10.00">/toolbox/src/sharedlibpp</text>
<text text-anchor="middle" x="131" y="-64" font-family="Helvetica,sans-Serif" font-size="10.00">/src/shlibpp/SharedLibraryClassApi.h</text>
</g>
<!-- Node2 -->
<g id="node2" class="node"><title>Node2</title>
<g id="a_node2"><a xlink:href="api_8h.html" target="_top" xlink:title="shlibpp/api.h">
<polygon fill="none" stroke="black" points="-0.5,-0.5 -0.5,-19.5 70.5,-19.5 70.5,-0.5 -0.5,-0.5"/>
<text text-anchor="middle" x="35" y="-7.5" font-family="Helvetica,sans-Serif" font-size="10.00">shlibpp/api.h</text>
</a>
</g>
</g>
<!-- Node1&#45;&gt;Node2 -->
<g id="edge1" class="edge"><title>Node1&#45;&gt;Node2</title>
<path fill="none" stroke="midnightblue" d="M97.154,-56.9681C83.0798,-46.559 67.2226,-34.8313 55.0477,-25.827"/>
<polygon fill="midnightblue" stroke="midnightblue" points="57.0327,-22.9418 46.9115,-19.8095 52.8703,-28.5699 57.0327,-22.9418"/>
</g>
<!-- Node3 -->
<g id="node3" class="node"><title>Node3</title>
<polygon fill="none" stroke="#bfbfbf" points="88.5,-0.5 88.5,-19.5 173.5,-19.5 173.5,-0.5 88.5,-0.5"/>
<text text-anchor="middle" x="131" y="-7.5" font-family="Helvetica,sans-Serif" font-size="10.00">shlibpp/config.h</text>
</g>
<!-- Node1&#45;&gt;Node3 -->
<g id="edge2" class="edge"><title>Node1&#45;&gt;Node3</title>
<path fill="none" stroke="midnightblue" d="M131,-56.7681C131,-47.8897 131,-38.0737 131,-29.8165"/>
<polygon fill="midnightblue" stroke="midnightblue" points="134.5,-29.7571 131,-19.7572 127.5,-29.7572 134.5,-29.7571"/>
</g>
<!-- Node4 -->
<g id="node4" class="node"><title>Node4</title>
<polygon fill="none" stroke="#bfbfbf" points="192,-0.5 192,-19.5 238,-19.5 238,-0.5 192,-0.5"/>
<text text-anchor="middle" x="215" y="-7.5" font-family="Helvetica,sans-Serif" font-size="10.00">cstring</text>
</g>
<!-- Node1&#45;&gt;Node4 -->
<g id="edge3" class="edge"><title>Node1&#45;&gt;Node4</title>
<path fill="none" stroke="midnightblue" d="M160.852,-56.7681C172.908,-46.5781 186.424,-35.1531 196.938,-26.2671"/>
<polygon fill="midnightblue" stroke="midnightblue" points="199.261,-28.8856 204.639,-19.7572 194.743,-23.5395 199.261,-28.8856"/>
</g>
</g>
</svg>
