<?xml version="1.0" encoding="UTF-8" standalone="no"?>
<!DOCTYPE svg PUBLIC "-//W3C//DTD SVG 1.1//EN"
 "http://www.w3.org/Graphics/SVG/1.1/DTD/svg11.dtd">
<!-- Generated by graphviz version 2.36.0 (20140111.2315)
 -->
<!-- Title: /home/travis/build/robotology/wb&#45;toolbox/toolbox/src/sharedlibpp/src/shlibpp/SharedLibraryFactory.h Pages: 1 -->
<svg width="178pt" height="118pt"
 viewBox="0.00 0.00 178.00 118.00" xmlns="http://www.w3.org/2000/svg" xmlns:xlink="http://www.w3.org/1999/xlink">
<g id="graph0" class="graph" transform="scale(1 1) rotate(0) translate(4 114)">
<title>/home/travis/build/robotology/wb&#45;toolbox/toolbox/src/sharedlibpp/src/shlibpp/SharedLibraryFactory.h</title>
<!-- Node1 -->
<g id="node1" class="node"><title>Node1</title>
<polygon fill="#bfbfbf" stroke="black" points="-0.5,-57 -0.5,-109 170.5,-109 170.5,-57 -0.5,-57"/>
<text text-anchor="start" x="7.5" y="-97" font-family="Helvetica,sans-Serif" font-size="10.00">/home/travis/build</text>
<text text-anchor="start" x="7.5" y="-86" font-family="Helvetica,sans-Serif" font-size="10.00">/robotology/wb&#45;toolbox</text>
<text text-anchor="start" x="7.5" y="-75" font-family="Helvetica,sans-Serif" font-size="10.00">/toolbox/src/sharedlibpp</text>
<text text-anchor="middle" x="85" y="-64" font-family="Helvetica,sans-Serif" font-size="10.00">/src/shlibpp/SharedLibraryFactory.h</text>
</g>
<!-- Node2 -->
<g id="node2" class="node"><title>Node2</title>
<g id="a_node2"><a xlink:href="api_8h.html" target="_top" xlink:title="shlibpp/api.h">
<polygon fill="none" stroke="black" points="12.5,-0.5 12.5,-19.5 83.5,-19.5 83.5,-0.5 12.5,-0.5"/>
<text text-anchor="middle" x="48" y="-7.5" font-family="Helvetica,sans-Serif" font-size="10.00">shlibpp/api.h</text>
</a>
</g>
</g>
<!-- Node1&#45;&gt;Node2 -->
<g id="edge1" class="edge"><title>Node1&#45;&gt;Node2</title>
<path fill="none" stroke="midnightblue" d="M71.851,-56.7681C67.0139,-47.4861 61.6428,-37.1794 57.2241,-28.7004"/>
<polygon fill="midnightblue" stroke="midnightblue" points="60.2889,-27.0077 52.5636,-19.7572 54.0812,-30.2427 60.2889,-27.0077"/>
</g>
<!-- Node3 -->
<g id="node3" class="node"><title>Node3</title>
<polygon fill="none" stroke="#bfbfbf" points="101.5,-0.5 101.5,-19.5 142.5,-19.5 142.5,-0.5 101.5,-0.5"/>
<text text-anchor="middle" x="122" y="-7.5" font-family="Helvetica,sans-Serif" font-size="10.00">string</text>
</g>
<!-- Node1&#45;&gt;Node3 -->
<g id="edge2" class="edge"><title>Node1&#45;&gt;Node3</title>
<path fill="none" stroke="midnightblue" d="M98.149,-56.7681C102.986,-47.4861 108.357,-37.1794 112.776,-28.7004"/>
<polygon fill="midnightblue" stroke="midnightblue" points="115.919,-30.2427 117.436,-19.7572 109.711,-27.0077 115.919,-30.2427"/>
</g>
</g>
</svg>
