<?xml version="1.0" encoding="UTF-8" standalone="no"?>
<!DOCTYPE svg PUBLIC "-//W3C//DTD SVG 1.1//EN"
 "http://www.w3.org/Graphics/SVG/1.1/DTD/svg11.dtd">
<!-- Generated by graphviz version 2.36.0 (20140111.2315)
 -->
<!-- Title: /home/travis/build/robotology/wb&#45;toolbox/toolbox/src/sharedlibpp/include/SharedLibraryClassApi.h Pages: 1 -->
<svg width="235pt" height="174pt"
 viewBox="0.00 0.00 235.00 174.00" xmlns="http://www.w3.org/2000/svg" xmlns:xlink="http://www.w3.org/1999/xlink">
<g id="graph0" class="graph" transform="scale(1 1) rotate(0) translate(4 170)">
<title>/home/travis/build/robotology/wb&#45;toolbox/toolbox/src/sharedlibpp/include/SharedLibraryClassApi.h</title>
<!-- Node1 -->
<g id="node1" class="node"><title>Node1</title>
<polygon fill="#bfbfbf" stroke="black" points="23.5,-113 23.5,-165 184.5,-165 184.5,-113 23.5,-113"/>
<text text-anchor="start" x="31.5" y="-153" font-family="Helvetica,sans-Serif" font-size="10.00">/home/travis/build</text>
<text text-anchor="start" x="31.5" y="-142" font-family="Helvetica,sans-Serif" font-size="10.00">/robotology/wb&#45;toolbox</text>
<text text-anchor="start" x="31.5" y="-131" font-family="Helvetica,sans-Serif" font-size="10.00">/toolbox/src/sharedlibpp</text>
<text text-anchor="middle" x="104" y="-120" font-family="Helvetica,sans-Serif" font-size="10.00">/include/SharedLibraryClassApi.h</text>
</g>
<!-- Node2 -->
<g id="node2" class="node"><title>Node2</title>
<polygon fill="none" stroke="#bfbfbf" points="-0.5,-56.5 -0.5,-75.5 48.5,-75.5 48.5,-56.5 -0.5,-56.5"/>
<text text-anchor="middle" x="24" y="-63.5" font-family="Helvetica,sans-Serif" font-size="10.00">string.h</text>
</g>
<!-- Node1&#45;&gt;Node2 -->
<g id="edge1" class="edge"><title>Node1&#45;&gt;Node2</title>
<path fill="none" stroke="midnightblue" d="M75.5697,-112.768C64.2017,-102.679 51.4696,-91.3792 41.5006,-82.5318"/>
<polygon fill="midnightblue" stroke="midnightblue" points="43.6697,-79.7773 33.8672,-75.7572 39.0232,-85.0128 43.6697,-79.7773"/>
</g>
<!-- Node3 -->
<g id="node3" class="node"><title>Node3</title>
<polygon fill="none" stroke="#bfbfbf" points="83.5,-0.5 83.5,-19.5 124.5,-19.5 124.5,-0.5 83.5,-0.5"/>
<text text-anchor="middle" x="104" y="-7.5" font-family="Helvetica,sans-Serif" font-size="10.00">string</text>
</g>
<!-- Node1&#45;&gt;Node3 -->
<g id="edge2" class="edge"><title>Node1&#45;&gt;Node3</title>
<path fill="none" stroke="midnightblue" d="M99.7404,-112.887C97.5113,-96.6609 95.5242,-75.0888 97,-56 97.6788,-47.2204 99.0919,-37.5626 100.472,-29.4526"/>
<polygon fill="midnightblue" stroke="midnightblue" points="103.922,-30.0446 102.261,-19.5806 97.0337,-28.7961 103.922,-30.0446"/>
</g>
<!-- Node4 -->
<g id="node4" class="node"><title>Node4</title>
<g id="a_node4"><a xlink:href="_vocab_8h.html" target="_top" xlink:title="Vocab.h">
<polygon fill="none" stroke="black" points="105.5,-56.5 105.5,-75.5 158.5,-75.5 158.5,-56.5 105.5,-56.5"/>
<text text-anchor="middle" x="132" y="-63.5" font-family="Helvetica,sans-Serif" font-size="10.00">Vocab.h</text>
</a>
</g>
</g>
<!-- Node1&#45;&gt;Node4 -->
<g id="edge3" class="edge"><title>Node1&#45;&gt;Node4</title>
<path fill="none" stroke="midnightblue" d="M113.951,-112.768C117.532,-103.688 121.499,-93.6271 124.8,-85.2559"/>
<polygon fill="midnightblue" stroke="midnightblue" points="128.134,-86.3439 128.546,-75.7572 121.622,-83.7758 128.134,-86.3439"/>
</g>
<!-- Node5 -->
<g id="node5" class="node"><title>Node5</title>
<g id="a_node5"><a xlink:href="config_8h.html" target="_top" xlink:title="config.h">
<polygon fill="none" stroke="black" points="176.5,-56.5 176.5,-75.5 227.5,-75.5 227.5,-56.5 176.5,-56.5"/>
<text text-anchor="middle" x="202" y="-63.5" font-family="Helvetica,sans-Serif" font-size="10.00">config.h</text>
</a>
</g>
</g>
<!-- Node1&#45;&gt;Node5 -->
<g id="edge5" class="edge"><title>Node1&#45;&gt;Node5</title>
<path fill="none" stroke="midnightblue" d="M138.551,-112.968C152.919,-102.559 169.106,-90.8313 181.535,-81.827"/>
<polygon fill="midnightblue" stroke="midnightblue" points="183.796,-84.5109 189.84,-75.8095 179.689,-78.8422 183.796,-84.5109"/>
</g>
<!-- Node4&#45;&gt;Node3 -->
<g id="edge4" class="edge"><title>Node4&#45;&gt;Node3</title>
<path fill="none" stroke="midnightblue" d="M127.376,-56.083C123.544,-48.6913 117.976,-37.9533 113.235,-28.8111"/>
<polygon fill="midnightblue" stroke="midnightblue" points="116.248,-27.0175 108.538,-19.7511 110.034,-30.2398 116.248,-27.0175"/>
</g>
</g>
</svg>
