<?xml version="1.0" encoding="UTF-8" standalone="no"?>
<!DOCTYPE svg PUBLIC "-//W3C//DTD SVG 1.1//EN"
 "http://www.w3.org/Graphics/SVG/1.1/DTD/svg11.dtd">
<!-- Generated by graphviz version 2.36.0 (20140111.2315)
 -->
<!-- Title: /home/travis/build/robotology/wb&#45;toolbox/toolbox/src/sharedlibpp/src/SharedLibrary.cpp Pages: 1 -->
<svg width="224pt" height="174pt"
 viewBox="0.00 0.00 224.00 174.00" xmlns="http://www.w3.org/2000/svg" xmlns:xlink="http://www.w3.org/1999/xlink">
<g id="graph0" class="graph" transform="scale(1 1) rotate(0) translate(4 170)">
<title>/home/travis/build/robotology/wb&#45;toolbox/toolbox/src/sharedlibpp/src/SharedLibrary.cpp</title>
<!-- Node1 -->
<g id="node1" class="node"><title>Node1</title>
<polygon fill="#bfbfbf" stroke="black" points="30,-113 30,-165 150,-165 150,-113 30,-113"/>
<text text-anchor="start" x="38" y="-153" font-family="Helvetica,sans-Serif" font-size="10.00">/home/travis/build</text>
<text text-anchor="start" x="38" y="-142" font-family="Helvetica,sans-Serif" font-size="10.00">/robotology/wb&#45;toolbox</text>
<text text-anchor="start" x="38" y="-131" font-family="Helvetica,sans-Serif" font-size="10.00">/toolbox/src/sharedlibpp</text>
<text text-anchor="middle" x="90" y="-120" font-family="Helvetica,sans-Serif" font-size="10.00">/src/SharedLibrary.cpp</text>
</g>
<!-- Node2 -->
<g id="node2" class="node"><title>Node2</title>
<polygon fill="none" stroke="#bfbfbf" points="-0.5,-56.5 -0.5,-75.5 48.5,-75.5 48.5,-56.5 -0.5,-56.5"/>
<text text-anchor="middle" x="24" y="-63.5" font-family="Helvetica,sans-Serif" font-size="10.00">cstddef</text>
</g>
<!-- Node1&#45;&gt;Node2 -->
<g id="edge1" class="edge"><title>Node1&#45;&gt;Node2</title>
<path fill="none" stroke="midnightblue" d="M66.545,-112.768C57.4478,-102.982 47.2916,-92.0561 39.1843,-83.3346"/>
<polygon fill="midnightblue" stroke="midnightblue" points="41.5124,-80.6985 32.1405,-75.7572 36.3854,-85.4644 41.5124,-80.6985"/>
</g>
<!-- Node3 -->
<g id="node3" class="node"><title>Node3</title>
<polygon fill="none" stroke="#bfbfbf" points="67,-56.5 67,-75.5 113,-75.5 113,-56.5 67,-56.5"/>
<text text-anchor="middle" x="90" y="-63.5" font-family="Helvetica,sans-Serif" font-size="10.00">dlfcn.h</text>
</g>
<!-- Node1&#45;&gt;Node3 -->
<g id="edge2" class="edge"><title>Node1&#45;&gt;Node3</title>
<path fill="none" stroke="midnightblue" d="M90,-112.768C90,-103.89 90,-94.0737 90,-85.8165"/>
<polygon fill="midnightblue" stroke="midnightblue" points="93.5001,-85.7571 90,-75.7572 86.5001,-85.7572 93.5001,-85.7571"/>
</g>
<!-- Node4 -->
<g id="node4" class="node"><title>Node4</title>
<g id="a_node4"><a xlink:href="_shared_library_8h.html" target="_top" xlink:title="SharedLibrary.h">
<polygon fill="none" stroke="black" points="131.5,-56.5 131.5,-75.5 216.5,-75.5 216.5,-56.5 131.5,-56.5"/>
<text text-anchor="middle" x="174" y="-63.5" font-family="Helvetica,sans-Serif" font-size="10.00">SharedLibrary.h</text>
</a>
</g>
</g>
<!-- Node1&#45;&gt;Node4 -->
<g id="edge3" class="edge"><title>Node1&#45;&gt;Node4</title>
<path fill="none" stroke="midnightblue" d="M119.852,-112.768C131.908,-102.578 145.424,-91.1531 155.938,-82.2671"/>
<polygon fill="midnightblue" stroke="midnightblue" points="158.261,-84.8856 163.639,-75.7572 153.743,-79.5395 158.261,-84.8856"/>
</g>
<!-- Node5 -->
<g id="node5" class="node"><title>Node5</title>
<polygon fill="none" stroke="#bfbfbf" points="153.5,-0.5 153.5,-19.5 194.5,-19.5 194.5,-0.5 153.5,-0.5"/>
<text text-anchor="middle" x="174" y="-7.5" font-family="Helvetica,sans-Serif" font-size="10.00">string</text>
</g>
<!-- Node4&#45;&gt;Node5 -->
<g id="edge4" class="edge"><title>Node4&#45;&gt;Node5</title>
<path fill="none" stroke="midnightblue" d="M174,-56.083C174,-49.0059 174,-38.8611 174,-29.9865"/>
<polygon fill="midnightblue" stroke="midnightblue" points="177.5,-29.751 174,-19.7511 170.5,-29.7511 177.5,-29.751"/>
</g>
</g>
</svg>
