<?xml version="1.0" encoding="UTF-8" standalone="no"?>
<!DOCTYPE svg PUBLIC "-//W3C//DTD SVG 1.1//EN"
 "http://www.w3.org/Graphics/SVG/1.1/DTD/svg11.dtd">
<!-- Generated by graphviz version 2.36.0 (20140111.2315)
 -->
<!-- Title: /home/travis/build/robotology/wb&#45;toolbox/toolbox/src/core/include/Core/Signal.h Pages: 1 -->
<svg width="3494pt" height="242pt"
 viewBox="0.00 0.00 3494.00 242.00" xmlns="http://www.w3.org/2000/svg" xmlns:xlink="http://www.w3.org/1999/xlink">
<g id="graph0" class="graph" transform="scale(1 1) rotate(0) translate(4 238)">
<title>/home/travis/build/robotology/wb&#45;toolbox/toolbox/src/core/include/Core/Signal.h</title>
<!-- Node1 -->
<g id="node1" class="node"><title>Node1</title>
<polygon fill="#bfbfbf" stroke="black" points="1646.5,-181 1646.5,-233 1769.5,-233 1769.5,-181 1646.5,-181"/>
<text text-anchor="start" x="1654.5" y="-221" font-family="Helvetica,sans-Serif" font-size="10.00">/home/travis/build</text>
<text text-anchor="start" x="1654.5" y="-210" font-family="Helvetica,sans-Serif" font-size="10.00">/robotology/wb&#45;toolbox</text>
<text text-anchor="start" x="1654.5" y="-199" font-family="Helvetica,sans-Serif" font-size="10.00">/toolbox/src/core/include</text>
<text text-anchor="middle" x="1708" y="-188" font-family="Helvetica,sans-Serif" font-size="10.00">/Core/Signal.h</text>
</g>
<!-- Node2 -->
<g id="node2" class="node"><title>Node2</title>
<g id="a_node2"><a xlink:href="_coder_block_information_8h.html" target="_top" xlink:title="/home/travis/build\l/robotology/wb&#45;toolbox\l/toolbox/src/core/include\l/Core/CoderBlockInformation.h">
<polygon fill="none" stroke="black" points="7,-91 7,-143 159,-143 159,-91 7,-91"/>
<text text-anchor="start" x="15" y="-131" font-family="Helvetica,sans-Serif" font-size="10.00">/home/travis/build</text>
<text text-anchor="start" x="15" y="-120" font-family="Helvetica,sans-Serif" font-size="10.00">/robotology/wb&#45;toolbox</text>
<text text-anchor="start" x="15" y="-109" font-family="Helvetica,sans-Serif" font-size="10.00">/toolbox/src/core/include</text>
<text text-anchor="middle" x="83" y="-98" font-family="Helvetica,sans-Serif" font-size="10.00">/Core/CoderBlockInformation.h</text>
</a>
</g>
</g>
<!-- Node1&#45;&gt;Node2 -->
<g id="edge1" class="edge"><title>Node1&#45;&gt;Node2</title>
<path fill="none" stroke="midnightblue" d="M1636.43,-204.705C1376.76,-199.751 484.685,-180.419 202,-144 188.052,-142.203 173.321,-139.585 159.155,-136.694"/>
<polygon fill="midnightblue" stroke="midnightblue" points="1636.43,-208.206 1646.5,-204.896 1636.56,-201.207 1636.43,-208.206"/>
</g>
<!-- Node4 -->
<g id="node4" class="node"><title>Node4</title>
<g id="a_node4"><a xlink:href="_simulink_block_information_8h.html" target="_top" xlink:title="/home/travis/build\l/robotology/wb&#45;toolbox\l/toolbox/src/core/include\l/Core/SimulinkBlockInformation.h">
<polygon fill="none" stroke="black" points="244.5,-91 244.5,-143 407.5,-143 407.5,-91 244.5,-91"/>
<text text-anchor="start" x="252.5" y="-131" font-family="Helvetica,sans-Serif" font-size="10.00">/home/travis/build</text>
<text text-anchor="start" x="252.5" y="-120" font-family="Helvetica,sans-Serif" font-size="10.00">/robotology/wb&#45;toolbox</text>
<text text-anchor="start" x="252.5" y="-109" font-family="Helvetica,sans-Serif" font-size="10.00">/toolbox/src/core/include</text>
<text text-anchor="middle" x="326" y="-98" font-family="Helvetica,sans-Serif" font-size="10.00">/Core/SimulinkBlockInformation.h</text>
</a>
</g>
</g>
<!-- Node1&#45;&gt;Node4 -->
<g id="edge3" class="edge"><title>Node1&#45;&gt;Node4</title>
<path fill="none" stroke="midnightblue" d="M1636.14,-204.726C1400.77,-200.21 654.53,-183.099 417,-144 413.92,-143.493 410.795,-142.918 407.65,-142.288"/>
<polygon fill="midnightblue" stroke="midnightblue" points="1636.23,-208.228 1646.29,-204.919 1636.36,-201.229 1636.23,-208.228"/>
</g>
<!-- Node5 -->
<g id="node5" class="node"><title>Node5</title>
<g id="a_node5"><a xlink:href="_simulink_block_information_8cpp.html" target="_top" xlink:title="/home/travis/build\l/robotology/wb&#45;toolbox\l/toolbox/src/core/src\l/SimulinkBlockInformation.cpp">
<polygon fill="none" stroke="black" points="156.5,-1 156.5,-53 305.5,-53 305.5,-1 156.5,-1"/>
<text text-anchor="start" x="164.5" y="-41" font-family="Helvetica,sans-Serif" font-size="10.00">/home/travis/build</text>
<text text-anchor="start" x="164.5" y="-30" font-family="Helvetica,sans-Serif" font-size="10.00">/robotology/wb&#45;toolbox</text>
<text text-anchor="start" x="164.5" y="-19" font-family="Helvetica,sans-Serif" font-size="10.00">/toolbox/src/core/src</text>
<text text-anchor="middle" x="231" y="-8" font-family="Helvetica,sans-Serif" font-size="10.00">/SimulinkBlockInformation.cpp</text>
</a>
</g>
</g>
<!-- Node1&#45;&gt;Node5 -->
<g id="edge7" class="edge"><title>Node1&#45;&gt;Node5</title>
<path fill="none" stroke="midnightblue" d="M1635.79,-205.655C1346.56,-203.931 284.812,-194.192 235,-144 211.721,-120.543 216.627,-79.5341 223.159,-53.0881"/>
<polygon fill="midnightblue" stroke="midnightblue" points="1636.14,-209.157 1646.16,-205.715 1636.18,-202.157 1636.14,-209.157"/>
</g>
<!-- Node7 -->
<g id="node7" class="node"><title>Node7</title>
<g id="a_node7"><a xlink:href="_signal_8cpp.html" target="_top" xlink:title="/home/travis/build\l/robotology/wb&#45;toolbox\l/toolbox/src/core/src\l/Signal.cpp">
<polygon fill="none" stroke="black" points="425.5,-91 425.5,-143 540.5,-143 540.5,-91 425.5,-91"/>
<text text-anchor="start" x="433.5" y="-131" font-family="Helvetica,sans-Serif" font-size="10.00">/home/travis/build</text>
<text text-anchor="start" x="433.5" y="-120" font-family="Helvetica,sans-Serif" font-size="10.00">/robotology/wb&#45;toolbox</text>
<text text-anchor="start" x="433.5" y="-109" font-family="Helvetica,sans-Serif" font-size="10.00">/toolbox/src/core/src</text>
<text text-anchor="middle" x="483" y="-98" font-family="Helvetica,sans-Serif" font-size="10.00">/Signal.cpp</text>
</a>
</g>
</g>
<!-- Node1&#45;&gt;Node7 -->
<g id="edge6" class="edge"><title>Node1&#45;&gt;Node7</title>
<path fill="none" stroke="midnightblue" d="M1636.04,-205.117C1416.69,-201.959 758.77,-188.897 550,-144 546.95,-143.344 543.858,-142.568 540.759,-141.703"/>
<polygon fill="midnightblue" stroke="midnightblue" points="1636.1,-208.618 1646.15,-205.26 1636.2,-201.619 1636.1,-208.618"/>
</g>
<!-- Node8 -->
<g id="node8" class="node"><title>Node8</title>
<g id="a_node8"><a xlink:href="_centroidal_momentum_8cpp.html" target="_top" xlink:title="/home/travis/build\l/robotology/wb&#45;toolbox\l/toolbox/src/library/src\l/CentroidalMomentum.cpp">
<polygon fill="none" stroke="black" points="558.5,-91 558.5,-143 689.5,-143 689.5,-91 558.5,-91"/>
<text text-anchor="start" x="566.5" y="-131" font-family="Helvetica,sans-Serif" font-size="10.00">/home/travis/build</text>
<text text-anchor="start" x="566.5" y="-120" font-family="Helvetica,sans-Serif" font-size="10.00">/robotology/wb&#45;toolbox</text>
<text text-anchor="start" x="566.5" y="-109" font-family="Helvetica,sans-Serif" font-size="10.00">/toolbox/src/library/src</text>
<text text-anchor="middle" x="624" y="-98" font-family="Helvetica,sans-Serif" font-size="10.00">/CentroidalMomentum.cpp</text>
</a>
</g>
</g>
<!-- Node1&#45;&gt;Node8 -->
<g id="edge8" class="edge"><title>Node1&#45;&gt;Node8</title>
<path fill="none" stroke="midnightblue" d="M1636.27,-204.127C1436.85,-198.517 878.722,-179.971 699,-144 695.892,-143.378 692.737,-142.658 689.569,-141.862"/>
<polygon fill="midnightblue" stroke="midnightblue" points="1636.25,-207.628 1646.34,-204.408 1636.44,-200.63 1636.25,-207.628"/>
</g>
<!-- Node9 -->
<g id="node9" class="node"><title>Node9</title>
<g id="a_node9"><a xlink:href="_discrete_filter_8cpp.html" target="_top" xlink:title="/home/travis/build\l/robotology/wb&#45;toolbox\l/toolbox/src/library/src\l/DiscreteFilter.cpp">
<polygon fill="none" stroke="black" points="707.5,-91 707.5,-143 822.5,-143 822.5,-91 707.5,-91"/>
<text text-anchor="start" x="715.5" y="-131" font-family="Helvetica,sans-Serif" font-size="10.00">/home/travis/build</text>
<text text-anchor="start" x="715.5" y="-120" font-family="Helvetica,sans-Serif" font-size="10.00">/robotology/wb&#45;toolbox</text>
<text text-anchor="start" x="715.5" y="-109" font-family="Helvetica,sans-Serif" font-size="10.00">/toolbox/src/library/src</text>
<text text-anchor="middle" x="765" y="-98" font-family="Helvetica,sans-Serif" font-size="10.00">/DiscreteFilter.cpp</text>
</a>
</g>
</g>
<!-- Node1&#45;&gt;Node9 -->
<g id="edge9" class="edge"><title>Node1&#45;&gt;Node9</title>
<path fill="none" stroke="midnightblue" d="M1636.09,-203.68C1455.15,-197.398 984.601,-178.191 832,-144 828.956,-143.318 825.868,-142.521 822.773,-141.639"/>
<polygon fill="midnightblue" stroke="midnightblue" points="1636.18,-207.185 1646.29,-204.031 1636.42,-200.189 1636.18,-207.185"/>
</g>
<!-- Node10 -->
<g id="node10" class="node"><title>Node10</title>
<g id="a_node10"><a xlink:href="_dot_j_nu_8cpp.html" target="_top" xlink:title="/home/travis/build\l/robotology/wb&#45;toolbox\l/toolbox/src/library/src\l/DotJNu.cpp">
<polygon fill="none" stroke="black" points="840.5,-91 840.5,-143 955.5,-143 955.5,-91 840.5,-91"/>
<text text-anchor="start" x="848.5" y="-131" font-family="Helvetica,sans-Serif" font-size="10.00">/home/travis/build</text>
<text text-anchor="start" x="848.5" y="-120" font-family="Helvetica,sans-Serif" font-size="10.00">/robotology/wb&#45;toolbox</text>
<text text-anchor="start" x="848.5" y="-109" font-family="Helvetica,sans-Serif" font-size="10.00">/toolbox/src/library/src</text>
<text text-anchor="middle" x="898" y="-98" font-family="Helvetica,sans-Serif" font-size="10.00">/DotJNu.cpp</text>
</a>
</g>
</g>
<!-- Node1&#45;&gt;Node10 -->
<g id="edge10" class="edge"><title>Node1&#45;&gt;Node10</title>
<path fill="none" stroke="midnightblue" d="M1636.29,-206.787C1502.51,-206.771 1206.55,-199.72 965,-144 961.961,-143.299 958.876,-142.487 955.784,-141.592"/>
<polygon fill="midnightblue" stroke="midnightblue" points="1636.42,-210.287 1646.41,-206.774 1636.41,-203.287 1636.42,-210.287"/>
</g>
<!-- Node11 -->
<g id="node11" class="node"><title>Node11</title>
<g id="a_node11"><a xlink:href="_forward_kinematics_8cpp.html" target="_top" xlink:title="/home/travis/build\l/robotology/wb&#45;toolbox\l/toolbox/src/library/src\l/ForwardKinematics.cpp">
<polygon fill="none" stroke="black" points="974,-91 974,-143 1096,-143 1096,-91 974,-91"/>
<text text-anchor="start" x="982" y="-131" font-family="Helvetica,sans-Serif" font-size="10.00">/home/travis/build</text>
<text text-anchor="start" x="982" y="-120" font-family="Helvetica,sans-Serif" font-size="10.00">/robotology/wb&#45;toolbox</text>
<text text-anchor="start" x="982" y="-109" font-family="Helvetica,sans-Serif" font-size="10.00">/toolbox/src/library/src</text>
<text text-anchor="middle" x="1035" y="-98" font-family="Helvetica,sans-Serif" font-size="10.00">/ForwardKinematics.cpp</text>
</a>
</g>
</g>
<!-- Node1&#45;&gt;Node11 -->
<g id="edge11" class="edge"><title>Node1&#45;&gt;Node11</title>
<path fill="none" stroke="midnightblue" d="M1635.74,-204.332C1521.76,-200.417 1293.88,-187.363 1106,-144 1102.8,-143.262 1099.55,-142.42 1096.29,-141.502"/>
<polygon fill="midnightblue" stroke="midnightblue" points="1635.97,-207.842 1646.08,-204.673 1636.2,-200.845 1635.97,-207.842"/>
</g>
<!-- Node12 -->
<g id="node12" class="node"><title>Node12</title>
<g id="a_node12"><a xlink:href="_get_limits_8cpp.html" target="_top" xlink:title="/home/travis/build\l/robotology/wb&#45;toolbox\l/toolbox/src/library/src\l/GetLimits.cpp">
<polygon fill="none" stroke="black" points="1114.5,-91 1114.5,-143 1229.5,-143 1229.5,-91 1114.5,-91"/>
<text text-anchor="start" x="1122.5" y="-131" font-family="Helvetica,sans-Serif" font-size="10.00">/home/travis/build</text>
<text text-anchor="start" x="1122.5" y="-120" font-family="Helvetica,sans-Serif" font-size="10.00">/robotology/wb&#45;toolbox</text>
<text text-anchor="start" x="1122.5" y="-109" font-family="Helvetica,sans-Serif" font-size="10.00">/toolbox/src/library/src</text>
<text text-anchor="middle" x="1172" y="-98" font-family="Helvetica,sans-Serif" font-size="10.00">/GetLimits.cpp</text>
</a>
</g>
</g>
<!-- Node1&#45;&gt;Node12 -->
<g id="edge12" class="edge"><title>Node1&#45;&gt;Node12</title>
<path fill="none" stroke="midnightblue" d="M1636.27,-201.851C1543.39,-195.272 1377.04,-179.365 1239,-144 1235.98,-143.226 1232.91,-142.355 1229.83,-141.414"/>
<polygon fill="midnightblue" stroke="midnightblue" points="1636.19,-205.354 1646.4,-202.553 1636.67,-198.37 1636.19,-205.354"/>
</g>
<!-- Node13 -->
<g id="node13" class="node"><title>Node13</title>
<g id="a_node13"><a xlink:href="_get_measurement_8cpp.html" target="_top" xlink:title="/home/travis/build\l/robotology/wb&#45;toolbox\l/toolbox/src/library/src\l/GetMeasurement.cpp">
<polygon fill="none" stroke="black" points="1247.5,-91 1247.5,-143 1362.5,-143 1362.5,-91 1247.5,-91"/>
<text text-anchor="start" x="1255.5" y="-131" font-family="Helvetica,sans-Serif" font-size="10.00">/home/travis/build</text>
<text text-anchor="start" x="1255.5" y="-120" font-family="Helvetica,sans-Serif" font-size="10.00">/robotology/wb&#45;toolbox</text>
<text text-anchor="start" x="1255.5" y="-109" font-family="Helvetica,sans-Serif" font-size="10.00">/toolbox/src/library/src</text>
<text text-anchor="middle" x="1305" y="-98" font-family="Helvetica,sans-Serif" font-size="10.00">/GetMeasurement.cpp</text>
</a>
</g>
</g>
<!-- Node1&#45;&gt;Node13 -->
<g id="edge13" class="edge"><title>Node1&#45;&gt;Node13</title>
<path fill="none" stroke="midnightblue" d="M1635.93,-196.699C1567.27,-186.904 1461.43,-169.36 1372,-144 1368.88,-143.115 1365.7,-142.142 1362.51,-141.107"/>
<polygon fill="midnightblue" stroke="midnightblue" points="1635.81,-200.217 1646.2,-198.146 1636.79,-193.285 1635.81,-200.217"/>
</g>
<!-- Node14 -->
<g id="node14" class="node"><title>Node14</title>
<g id="a_node14"><a xlink:href="_inverse_dynamics_8cpp.html" target="_top" xlink:title="/home/travis/build\l/robotology/wb&#45;toolbox\l/toolbox/src/library/src\l/InverseDynamics.cpp">
<polygon fill="none" stroke="black" points="1380.5,-91 1380.5,-143 1495.5,-143 1495.5,-91 1380.5,-91"/>
<text text-anchor="start" x="1388.5" y="-131" font-family="Helvetica,sans-Serif" font-size="10.00">/home/travis/build</text>
<text text-anchor="start" x="1388.5" y="-120" font-family="Helvetica,sans-Serif" font-size="10.00">/robotology/wb&#45;toolbox</text>
<text text-anchor="start" x="1388.5" y="-109" font-family="Helvetica,sans-Serif" font-size="10.00">/toolbox/src/library/src</text>
<text text-anchor="middle" x="1438" y="-98" font-family="Helvetica,sans-Serif" font-size="10.00">/InverseDynamics.cpp</text>
</a>
</g>
</g>
<!-- Node1&#45;&gt;Node14 -->
<g id="edge14" class="edge"><title>Node1&#45;&gt;Node14</title>
<path fill="none" stroke="midnightblue" d="M1636.61,-185.597C1597.51,-174.073 1548.34,-159.004 1505,-144 1501.93,-142.939 1498.8,-141.825 1495.64,-140.68"/>
<polygon fill="midnightblue" stroke="midnightblue" points="1635.74,-188.99 1646.32,-188.448 1637.72,-182.273 1635.74,-188.99"/>
</g>
<!-- Node15 -->
<g id="node15" class="node"><title>Node15</title>
<g id="a_node15"><a xlink:href="_inverse_kinematics_8cpp.html" target="_top" xlink:title="/home/travis/build\l/robotology/wb&#45;toolbox\l/toolbox/src/library/src\l/InverseKinematics.cpp">
<polygon fill="none" stroke="black" points="1513.5,-91 1513.5,-143 1632.5,-143 1632.5,-91 1513.5,-91"/>
<text text-anchor="start" x="1521.5" y="-131" font-family="Helvetica,sans-Serif" font-size="10.00">/home/travis/build</text>
<text text-anchor="start" x="1521.5" y="-120" font-family="Helvetica,sans-Serif" font-size="10.00">/robotology/wb&#45;toolbox</text>
<text text-anchor="start" x="1521.5" y="-109" font-family="Helvetica,sans-Serif" font-size="10.00">/toolbox/src/library/src</text>
<text text-anchor="middle" x="1573" y="-98" font-family="Helvetica,sans-Serif" font-size="10.00">/InverseKinematics.cpp</text>
</a>
</g>
</g>
<!-- Node1&#45;&gt;Node15 -->
<g id="edge15" class="edge"><title>Node1&#45;&gt;Node15</title>
<path fill="none" stroke="midnightblue" d="M1660.62,-175.114C1644.61,-164.68 1626.94,-153.163 1611.69,-143.221"/>
<polygon fill="midnightblue" stroke="midnightblue" points="1659.03,-178.254 1669.31,-180.783 1662.85,-172.39 1659.03,-178.254"/>
</g>
<!-- Node16 -->
<g id="node16" class="node"><title>Node16</title>
<g id="a_node16"><a xlink:href="_jacobian_8cpp.html" target="_top" xlink:title="/home/travis/build\l/robotology/wb&#45;toolbox\l/toolbox/src/library/src\l/Jacobian.cpp">
<polygon fill="none" stroke="black" points="1650.5,-91 1650.5,-143 1765.5,-143 1765.5,-91 1650.5,-91"/>
<text text-anchor="start" x="1658.5" y="-131" font-family="Helvetica,sans-Serif" font-size="10.00">/home/travis/build</text>
<text text-anchor="start" x="1658.5" y="-120" font-family="Helvetica,sans-Serif" font-size="10.00">/robotology/wb&#45;toolbox</text>
<text text-anchor="start" x="1658.5" y="-109" font-family="Helvetica,sans-Serif" font-size="10.00">/toolbox/src/library/src</text>
<text text-anchor="middle" x="1708" y="-98" font-family="Helvetica,sans-Serif" font-size="10.00">/Jacobian.cpp</text>
</a>
</g>
</g>
<!-- Node1&#45;&gt;Node16 -->
<g id="edge16" class="edge"><title>Node1&#45;&gt;Node16</title>
<path fill="none" stroke="midnightblue" d="M1708,-170.489C1708,-161.309 1708,-151.616 1708,-143.092"/>
<polygon fill="midnightblue" stroke="midnightblue" points="1704.5,-170.547 1708,-180.547 1711.5,-170.547 1704.5,-170.547"/>
</g>
<!-- Node17 -->
<g id="node17" class="node"><title>Node17</title>
<g id="a_node17"><a xlink:href="_mass_matrix_8cpp.html" target="_top" xlink:title="/home/travis/build\l/robotology/wb&#45;toolbox\l/toolbox/src/library/src\l/MassMatrix.cpp">
<polygon fill="none" stroke="black" points="1783.5,-91 1783.5,-143 1898.5,-143 1898.5,-91 1783.5,-91"/>
<text text-anchor="start" x="1791.5" y="-131" font-family="Helvetica,sans-Serif" font-size="10.00">/home/travis/build</text>
<text text-anchor="start" x="1791.5" y="-120" font-family="Helvetica,sans-Serif" font-size="10.00">/robotology/wb&#45;toolbox</text>
<text text-anchor="start" x="1791.5" y="-109" font-family="Helvetica,sans-Serif" font-size="10.00">/toolbox/src/library/src</text>
<text text-anchor="middle" x="1841" y="-98" font-family="Helvetica,sans-Serif" font-size="10.00">/MassMatrix.cpp</text>
</a>
</g>
</g>
<!-- Node1&#45;&gt;Node17 -->
<g id="edge17" class="edge"><title>Node1&#45;&gt;Node17</title>
<path fill="none" stroke="midnightblue" d="M1754.68,-175.114C1770.45,-164.68 1787.86,-153.163 1802.88,-143.221"/>
<polygon fill="midnightblue" stroke="midnightblue" points="1752.52,-172.346 1746.11,-180.783 1756.38,-178.184 1752.52,-172.346"/>
</g>
<!-- Node18 -->
<g id="node18" class="node"><title>Node18</title>
<g id="a_node18"><a xlink:href="_minimum_jerk_trajectory_generator_8cpp.html" target="_top" xlink:title="/home/travis/build\l/robotology/wb&#45;toolbox\l/toolbox/src/library/src\l/MinimumJerkTrajectoryGenerator.cpp">
<polygon fill="none" stroke="black" points="1916.5,-91 1916.5,-143 2099.5,-143 2099.5,-91 1916.5,-91"/>
<text text-anchor="start" x="1924.5" y="-131" font-family="Helvetica,sans-Serif" font-size="10.00">/home/travis/build</text>
<text text-anchor="start" x="1924.5" y="-120" font-family="Helvetica,sans-Serif" font-size="10.00">/robotology/wb&#45;toolbox</text>
<text text-anchor="start" x="1924.5" y="-109" font-family="Helvetica,sans-Serif" font-size="10.00">/toolbox/src/library/src</text>
<text text-anchor="middle" x="2008" y="-98" font-family="Helvetica,sans-Serif" font-size="10.00">/MinimumJerkTrajectoryGenerator.cpp</text>
</a>
</g>
</g>
<!-- Node1&#45;&gt;Node18 -->
<g id="edge18" class="edge"><title>Node1&#45;&gt;Node18</title>
<path fill="none" stroke="midnightblue" d="M1779.61,-184.995C1822.58,-172.391 1877.48,-156.287 1922.68,-143.026"/>
<polygon fill="midnightblue" stroke="midnightblue" points="1778.41,-181.7 1769.8,-187.873 1780.38,-188.417 1778.41,-181.7"/>
</g>
<!-- Node19 -->
<g id="node19" class="node"><title>Node19</title>
<g id="a_node19"><a xlink:href="_model_partitioner_8cpp.html" target="_top" xlink:title="/home/travis/build\l/robotology/wb&#45;toolbox\l/toolbox/src/library/src\l/ModelPartitioner.cpp">
<polygon fill="none" stroke="black" points="2117.5,-91 2117.5,-143 2232.5,-143 2232.5,-91 2117.5,-91"/>
<text text-anchor="start" x="2125.5" y="-131" font-family="Helvetica,sans-Serif" font-size="10.00">/home/travis/build</text>
<text text-anchor="start" x="2125.5" y="-120" font-family="Helvetica,sans-Serif" font-size="10.00">/robotology/wb&#45;toolbox</text>
<text text-anchor="start" x="2125.5" y="-109" font-family="Helvetica,sans-Serif" font-size="10.00">/toolbox/src/library/src</text>
<text text-anchor="middle" x="2175" y="-98" font-family="Helvetica,sans-Serif" font-size="10.00">/ModelPartitioner.cpp</text>
</a>
</g>
</g>
<!-- Node1&#45;&gt;Node19 -->
<g id="edge19" class="edge"><title>Node1&#45;&gt;Node19</title>
<path fill="none" stroke="midnightblue" d="M1779.57,-199.623C1860.35,-191.342 1995.23,-174.238 2108,-144 2111.01,-143.192 2114.08,-142.294 2117.15,-141.331"/>
<polygon fill="midnightblue" stroke="midnightblue" points="1779.1,-196.152 1769.5,-200.637 1779.8,-203.117 1779.1,-196.152"/>
</g>
<!-- Node20 -->
<g id="node20" class="node"><title>Node20</title>
<g id="a_node20"><a xlink:href="_qp_oases_8cpp.html" target="_top" xlink:title="/home/travis/build\l/robotology/wb&#45;toolbox\l/toolbox/src/library/src\l/QpOases.cpp">
<polygon fill="none" stroke="black" points="2250.5,-91 2250.5,-143 2365.5,-143 2365.5,-91 2250.5,-91"/>
<text text-anchor="start" x="2258.5" y="-131" font-family="Helvetica,sans-Serif" font-size="10.00">/home/travis/build</text>
<text text-anchor="start" x="2258.5" y="-120" font-family="Helvetica,sans-Serif" font-size="10.00">/robotology/wb&#45;toolbox</text>
<text text-anchor="start" x="2258.5" y="-109" font-family="Helvetica,sans-Serif" font-size="10.00">/toolbox/src/library/src</text>
<text text-anchor="middle" x="2308" y="-98" font-family="Helvetica,sans-Serif" font-size="10.00">/QpOases.cpp</text>
</a>
</g>
</g>
<!-- Node1&#45;&gt;Node20 -->
<g id="edge20" class="edge"><title>Node1&#45;&gt;Node20</title>
<path fill="none" stroke="midnightblue" d="M1779.66,-203.439C1882.96,-198.454 2079.11,-184.13 2241,-144 2244.03,-143.249 2247.1,-142.398 2250.19,-141.471"/>
<polygon fill="midnightblue" stroke="midnightblue" points="1779.48,-199.944 1769.65,-203.907 1779.8,-206.936 1779.48,-199.944"/>
</g>
<!-- Node21 -->
<g id="node21" class="node"><title>Node21</title>
<g id="a_node21"><a xlink:href="_relative_transform_8cpp.html" target="_top" xlink:title="/home/travis/build\l/robotology/wb&#45;toolbox\l/toolbox/src/library/src\l/RelativeTransform.cpp">
<polygon fill="none" stroke="black" points="2383.5,-91 2383.5,-143 2502.5,-143 2502.5,-91 2383.5,-91"/>
<text text-anchor="start" x="2391.5" y="-131" font-family="Helvetica,sans-Serif" font-size="10.00">/home/travis/build</text>
<text text-anchor="start" x="2391.5" y="-120" font-family="Helvetica,sans-Serif" font-size="10.00">/robotology/wb&#45;toolbox</text>
<text text-anchor="start" x="2391.5" y="-109" font-family="Helvetica,sans-Serif" font-size="10.00">/toolbox/src/library/src</text>
<text text-anchor="middle" x="2443" y="-98" font-family="Helvetica,sans-Serif" font-size="10.00">/RelativeTransform.cpp</text>
</a>
</g>
</g>
<!-- Node1&#45;&gt;Node21 -->
<g id="edge21" class="edge"><title>Node1&#45;&gt;Node21</title>
<path fill="none" stroke="midnightblue" d="M1780,-205.564C1903.24,-203.435 2161.85,-192.91 2374,-144 2377.12,-143.281 2380.29,-142.455 2383.46,-141.548"/>
<polygon fill="midnightblue" stroke="midnightblue" points="1779.88,-202.066 1769.93,-205.725 1779.99,-209.065 1779.88,-202.066"/>
</g>
<!-- Node22 -->
<g id="node22" class="node"><title>Node22</title>
<g id="a_node22"><a xlink:href="_remote_inverse_kinematics_8cpp.html" target="_top" xlink:title="/home/travis/build\l/robotology/wb&#45;toolbox\l/toolbox/src/library/src\l/RemoteInverseKinematics.cpp">
<polygon fill="none" stroke="black" points="2521,-91 2521,-143 2675,-143 2675,-91 2521,-91"/>
<text text-anchor="start" x="2529" y="-131" font-family="Helvetica,sans-Serif" font-size="10.00">/home/travis/build</text>
<text text-anchor="start" x="2529" y="-120" font-family="Helvetica,sans-Serif" font-size="10.00">/robotology/wb&#45;toolbox</text>
<text text-anchor="start" x="2529" y="-109" font-family="Helvetica,sans-Serif" font-size="10.00">/toolbox/src/library/src</text>
<text text-anchor="middle" x="2598" y="-98" font-family="Helvetica,sans-Serif" font-size="10.00">/RemoteInverseKinematics.cpp</text>
</a>
</g>
</g>
<!-- Node1&#45;&gt;Node22 -->
<g id="edge22" class="edge"><title>Node1&#45;&gt;Node22</title>
<path fill="none" stroke="midnightblue" d="M1779.78,-205.569C1921.01,-203.6 2244.45,-193.532 2511,-144 2514.25,-143.395 2517.56,-142.715 2520.89,-141.975"/>
<polygon fill="midnightblue" stroke="midnightblue" points="1779.48,-202.073 1769.52,-205.702 1779.57,-209.072 1779.48,-202.073"/>
</g>
<!-- Node23 -->
<g id="node23" class="node"><title>Node23</title>
<g id="a_node23"><a xlink:href="_set_motor_parameters_8cpp.html" target="_top" xlink:title="/home/travis/build\l/robotology/wb&#45;toolbox\l/toolbox/src/library/src\l/SetMotorParameters.cpp">
<polygon fill="none" stroke="black" points="2693,-91 2693,-143 2821,-143 2821,-91 2693,-91"/>
<text text-anchor="start" x="2701" y="-131" font-family="Helvetica,sans-Serif" font-size="10.00">/home/travis/build</text>
<text text-anchor="start" x="2701" y="-120" font-family="Helvetica,sans-Serif" font-size="10.00">/robotology/wb&#45;toolbox</text>
<text text-anchor="start" x="2701" y="-109" font-family="Helvetica,sans-Serif" font-size="10.00">/toolbox/src/library/src</text>
<text text-anchor="middle" x="2757" y="-98" font-family="Helvetica,sans-Serif" font-size="10.00">/SetMotorParameters.cpp</text>
</a>
</g>
</g>
<!-- Node1&#45;&gt;Node23 -->
<g id="edge23" class="edge"><title>Node1&#45;&gt;Node23</title>
<path fill="none" stroke="midnightblue" d="M1779.75,-204.032C1974.68,-198.271 2511.02,-179.569 2684,-144 2686.9,-143.404 2689.84,-142.718 2692.79,-141.963"/>
<polygon fill="midnightblue" stroke="midnightblue" points="1779.51,-200.537 1769.62,-204.328 1779.72,-207.534 1779.51,-200.537"/>
</g>
<!-- Node24 -->
<g id="node24" class="node"><title>Node24</title>
<g id="a_node24"><a xlink:href="_set_references_8cpp.html" target="_top" xlink:title="/home/travis/build\l/robotology/wb&#45;toolbox\l/toolbox/src/library/src\l/SetReferences.cpp">
<polygon fill="none" stroke="black" points="2839.5,-91 2839.5,-143 2954.5,-143 2954.5,-91 2839.5,-91"/>
<text text-anchor="start" x="2847.5" y="-131" font-family="Helvetica,sans-Serif" font-size="10.00">/home/travis/build</text>
<text text-anchor="start" x="2847.5" y="-120" font-family="Helvetica,sans-Serif" font-size="10.00">/robotology/wb&#45;toolbox</text>
<text text-anchor="start" x="2847.5" y="-109" font-family="Helvetica,sans-Serif" font-size="10.00">/toolbox/src/library/src</text>
<text text-anchor="middle" x="2897" y="-98" font-family="Helvetica,sans-Serif" font-size="10.00">/SetReferences.cpp</text>
</a>
</g>
</g>
<!-- Node1&#45;&gt;Node24 -->
<g id="edge24" class="edge"><title>Node1&#45;&gt;Node24</title>
<path fill="none" stroke="midnightblue" d="M1779.91,-204.974C1994.58,-201.447 2628.43,-187.531 2830,-144 2833.05,-143.342 2836.14,-142.564 2839.24,-141.696"/>
<polygon fill="midnightblue" stroke="midnightblue" points="1779.64,-201.478 1769.7,-205.139 1779.76,-208.477 1779.64,-201.478"/>
</g>
<!-- Node25 -->
<g id="node25" class="node"><title>Node25</title>
<g id="a_node25"><a xlink:href="_w_b_block_8cpp.html" target="_top" xlink:title="/home/travis/build\l/robotology/wb&#45;toolbox\l/toolbox/src/library/src\l/WBBlock.cpp">
<polygon fill="none" stroke="black" points="2972.5,-91 2972.5,-143 3087.5,-143 3087.5,-91 2972.5,-91"/>
<text text-anchor="start" x="2980.5" y="-131" font-family="Helvetica,sans-Serif" font-size="10.00">/home/travis/build</text>
<text text-anchor="start" x="2980.5" y="-120" font-family="Helvetica,sans-Serif" font-size="10.00">/robotology/wb&#45;toolbox</text>
<text text-anchor="start" x="2980.5" y="-109" font-family="Helvetica,sans-Serif" font-size="10.00">/toolbox/src/library/src</text>
<text text-anchor="middle" x="3030" y="-98" font-family="Helvetica,sans-Serif" font-size="10.00">/WBBlock.cpp</text>
</a>
</g>
</g>
<!-- Node1&#45;&gt;Node25 -->
<g id="edge25" class="edge"><title>Node1&#45;&gt;Node25</title>
<path fill="none" stroke="midnightblue" d="M1779.95,-205.465C2011.37,-203.27 2734.74,-192.596 2963,-144 2966.05,-143.35 2969.14,-142.58 2972.24,-141.718"/>
<polygon fill="midnightblue" stroke="midnightblue" points="1779.6,-201.968 1769.63,-205.56 1779.66,-208.967 1779.6,-201.968"/>
</g>
<!-- Node26 -->
<g id="node26" class="node"><title>Node26</title>
<g id="a_node26"><a xlink:href="_yarp_clock_8cpp.html" target="_top" xlink:title="/home/travis/build\l/robotology/wb&#45;toolbox\l/toolbox/src/library/src\l/YarpClock.cpp">
<polygon fill="none" stroke="black" points="3105.5,-91 3105.5,-143 3220.5,-143 3220.5,-91 3105.5,-91"/>
<text text-anchor="start" x="3113.5" y="-131" font-family="Helvetica,sans-Serif" font-size="10.00">/home/travis/build</text>
<text text-anchor="start" x="3113.5" y="-120" font-family="Helvetica,sans-Serif" font-size="10.00">/robotology/wb&#45;toolbox</text>
<text text-anchor="start" x="3113.5" y="-109" font-family="Helvetica,sans-Serif" font-size="10.00">/toolbox/src/library/src</text>
<text text-anchor="middle" x="3163" y="-98" font-family="Helvetica,sans-Serif" font-size="10.00">/YarpClock.cpp</text>
</a>
</g>
</g>
<!-- Node1&#45;&gt;Node26 -->
<g id="edge26" class="edge"><title>Node1&#45;&gt;Node26</title>
<path fill="none" stroke="midnightblue" d="M1779.9,-205.863C2027.1,-204.912 2840.9,-197.681 3096,-144 3099.05,-143.358 3102.15,-142.593 3105.25,-141.736"/>
<polygon fill="midnightblue" stroke="midnightblue" points="1779.59,-202.364 1769.6,-205.9 1779.61,-209.364 1779.59,-202.364"/>
</g>
<!-- Node27 -->
<g id="node27" class="node"><title>Node27</title>
<g id="a_node27"><a xlink:href="_yarp_read_8cpp.html" target="_top" xlink:title="/home/travis/build\l/robotology/wb&#45;toolbox\l/toolbox/src/library/src\l/YarpRead.cpp">
<polygon fill="none" stroke="black" points="3238.5,-91 3238.5,-143 3353.5,-143 3353.5,-91 3238.5,-91"/>
<text text-anchor="start" x="3246.5" y="-131" font-family="Helvetica,sans-Serif" font-size="10.00">/home/travis/build</text>
<text text-anchor="start" x="3246.5" y="-120" font-family="Helvetica,sans-Serif" font-size="10.00">/robotology/wb&#45;toolbox</text>
<text text-anchor="start" x="3246.5" y="-109" font-family="Helvetica,sans-Serif" font-size="10.00">/toolbox/src/library/src</text>
<text text-anchor="middle" x="3296" y="-98" font-family="Helvetica,sans-Serif" font-size="10.00">/YarpRead.cpp</text>
</a>
</g>
</g>
<!-- Node1&#45;&gt;Node27 -->
<g id="edge27" class="edge"><title>Node1&#45;&gt;Node27</title>
<path fill="none" stroke="midnightblue" d="M1780.08,-206.192C2042.62,-206.406 2947.04,-202.76 3229,-144 3232.05,-143.364 3235.15,-142.604 3238.25,-141.75"/>
<polygon fill="midnightblue" stroke="midnightblue" points="1779.91,-202.692 1769.91,-206.182 1779.9,-209.692 1779.91,-202.692"/>
</g>
<!-- Node28 -->
<g id="node28" class="node"><title>Node28</title>
<g id="a_node28"><a xlink:href="_yarp_write_8cpp.html" target="_top" xlink:title="/home/travis/build\l/robotology/wb&#45;toolbox\l/toolbox/src/library/src\l/YarpWrite.cpp">
<polygon fill="none" stroke="black" points="3371.5,-91 3371.5,-143 3486.5,-143 3486.5,-91 3371.5,-91"/>
<text text-anchor="start" x="3379.5" y="-131" font-family="Helvetica,sans-Serif" font-size="10.00">/home/travis/build</text>
<text text-anchor="start" x="3379.5" y="-120" font-family="Helvetica,sans-Serif" font-size="10.00">/robotology/wb&#45;toolbox</text>
<text text-anchor="start" x="3379.5" y="-109" font-family="Helvetica,sans-Serif" font-size="10.00">/toolbox/src/library/src</text>
<text text-anchor="middle" x="3429" y="-98" font-family="Helvetica,sans-Serif" font-size="10.00">/YarpWrite.cpp</text>
</a>
</g>
</g>
<!-- Node1&#45;&gt;Node28 -->
<g id="edge28" class="edge"><title>Node1&#45;&gt;Node28</title>
<path fill="none" stroke="midnightblue" d="M1780.25,-206.47C2057.49,-207.783 3053.08,-207.85 3362,-144 3365.05,-143.369 3368.15,-142.613 3371.25,-141.762"/>
<polygon fill="midnightblue" stroke="midnightblue" points="1779.93,-202.969 1769.92,-206.419 1779.9,-209.969 1779.93,-202.969"/>
</g>
<!-- Node3 -->
<g id="node3" class="node"><title>Node3</title>
<g id="a_node3"><a xlink:href="_coder_block_information_8cpp.html" target="_top" xlink:title="/home/travis/build\l/robotology/wb&#45;toolbox\l/toolbox/src/core/src\l/CoderBlockInformation.cpp">
<polygon fill="none" stroke="black" points="0,-1 0,-53 138,-53 138,-1 0,-1"/>
<text text-anchor="start" x="8" y="-41" font-family="Helvetica,sans-Serif" font-size="10.00">/home/travis/build</text>
<text text-anchor="start" x="8" y="-30" font-family="Helvetica,sans-Serif" font-size="10.00">/robotology/wb&#45;toolbox</text>
<text text-anchor="start" x="8" y="-19" font-family="Helvetica,sans-Serif" font-size="10.00">/toolbox/src/core/src</text>
<text text-anchor="middle" x="69" y="-8" font-family="Helvetica,sans-Serif" font-size="10.00">/CoderBlockInformation.cpp</text>
</a>
</g>
</g>
<!-- Node2&#45;&gt;Node3 -->
<g id="edge2" class="edge"><title>Node2&#45;&gt;Node3</title>
<path fill="none" stroke="midnightblue" d="M77.3506,-80.4892C75.89,-71.3088 74.348,-61.616 72.9919,-53.0921"/>
<polygon fill="midnightblue" stroke="midnightblue" points="73.9229,-81.2209 78.9506,-90.5468 80.8359,-80.121 73.9229,-81.2209"/>
</g>
<!-- Node4&#45;&gt;Node5 -->
<g id="edge4" class="edge"><title>Node4&#45;&gt;Node5</title>
<path fill="none" stroke="midnightblue" d="M291.401,-83.9506C280.475,-73.8293 268.563,-62.795 258.227,-53.221"/>
<polygon fill="midnightblue" stroke="midnightblue" points="289.062,-86.5548 298.777,-90.7827 293.819,-81.4194 289.062,-86.5548"/>
</g>
<!-- Node6 -->
<g id="node6" class="node"><title>Node6</title>
<g id="a_node6"><a xlink:href="_w_b_toolbox_8cpp.html" target="_top" xlink:title="/home/travis/build\l/robotology/wb&#45;toolbox\l/toolbox/src/core/src\l/WBToolbox.cpp">
<polygon fill="none" stroke="black" points="323.5,-1 323.5,-53 438.5,-53 438.5,-1 323.5,-1"/>
<text text-anchor="start" x="331.5" y="-41" font-family="Helvetica,sans-Serif" font-size="10.00">/home/travis/build</text>
<text text-anchor="start" x="331.5" y="-30" font-family="Helvetica,sans-Serif" font-size="10.00">/robotology/wb&#45;toolbox</text>
<text text-anchor="start" x="331.5" y="-19" font-family="Helvetica,sans-Serif" font-size="10.00">/toolbox/src/core/src</text>
<text text-anchor="middle" x="381" y="-8" font-family="Helvetica,sans-Serif" font-size="10.00">/WBToolbox.cpp</text>
</a>
</g>
</g>
<!-- Node4&#45;&gt;Node6 -->
<g id="edge5" class="edge"><title>Node4&#45;&gt;Node6</title>
<path fill="none" stroke="midnightblue" d="M347.272,-81.9652C353.278,-72.3545 359.704,-62.0742 365.317,-53.0921"/>
<polygon fill="midnightblue" stroke="midnightblue" points="344.24,-80.2117 341.908,-90.5468 350.176,-83.9218 344.24,-80.2117"/>
</g>
</g>
</svg>
