<?xml version="1.0" encoding="UTF-8" standalone="no"?>
<!DOCTYPE svg PUBLIC "-//W3C//DTD SVG 1.1//EN"
 "http://www.w3.org/Graphics/SVG/1.1/DTD/svg11.dtd">
<!-- Generated by graphviz version 2.36.0 (20140111.2315)
 -->
<!-- Title: /home/travis/build/robotology/wb&#45;toolbox/toolbox/include/base/Signal.h Pages: 1 -->
<svg width="4193pt" height="242pt"
 viewBox="0.00 0.00 4193.00 242.00" xmlns="http://www.w3.org/2000/svg" xmlns:xlink="http://www.w3.org/1999/xlink">
<g id="graph0" class="graph" transform="scale(1 1) rotate(0) translate(4 238)">
<title>/home/travis/build/robotology/wb&#45;toolbox/toolbox/include/base/Signal.h</title>
<!-- Node1 -->
<g id="node1" class="node"><title>Node1</title>
<polygon fill="#bfbfbf" stroke="black" points="1982.5,-181 1982.5,-233 2097.5,-233 2097.5,-181 1982.5,-181"/>
<text text-anchor="start" x="1990.5" y="-221" font-family="Helvetica,sans-Serif" font-size="10.00">/home/travis/build</text>
<text text-anchor="start" x="1990.5" y="-210" font-family="Helvetica,sans-Serif" font-size="10.00">/robotology/wb&#45;toolbox</text>
<text text-anchor="start" x="1990.5" y="-199" font-family="Helvetica,sans-Serif" font-size="10.00">/toolbox/include/base</text>
<text text-anchor="middle" x="2040" y="-188" font-family="Helvetica,sans-Serif" font-size="10.00">/Signal.h</text>
</g>
<!-- Node2 -->
<g id="node2" class="node"><title>Node2</title>
<g id="a_node2"><a xlink:href="_coder_block_information_8h.html" target="_top" xlink:title="/home/travis/build\l/robotology/wb&#45;toolbox\l/toolbox/include/base\l/CoderBlockInformation.h">
<polygon fill="none" stroke="black" points="28,-91 28,-143 156,-143 156,-91 28,-91"/>
<text text-anchor="start" x="36" y="-131" font-family="Helvetica,sans-Serif" font-size="10.00">/home/travis/build</text>
<text text-anchor="start" x="36" y="-120" font-family="Helvetica,sans-Serif" font-size="10.00">/robotology/wb&#45;toolbox</text>
<text text-anchor="start" x="36" y="-109" font-family="Helvetica,sans-Serif" font-size="10.00">/toolbox/include/base</text>
<text text-anchor="middle" x="92" y="-98" font-family="Helvetica,sans-Serif" font-size="10.00">/CoderBlockInformation.h</text>
</a>
</g>
</g>
<!-- Node1&#45;&gt;Node2 -->
<g id="edge1" class="edge"><title>Node1&#45;&gt;Node2</title>
<path fill="none" stroke="midnightblue" d="M1972.18,-205.382C1684.02,-202.497 560.03,-188.558 209,-144 191.764,-141.812 173.324,-138.285 156.3,-134.526"/>
<polygon fill="midnightblue" stroke="midnightblue" points="1972.44,-208.884 1982.47,-205.484 1972.51,-201.885 1972.44,-208.884"/>
</g>
<!-- Node4 -->
<g id="node4" class="node"><title>Node4</title>
<g id="a_node4"><a xlink:href="_simulink_block_information_8h.html" target="_top" xlink:title="/home/travis/build\l/robotology/wb&#45;toolbox\l/toolbox/include/base\l/SimulinkBlockInformation.h">
<polygon fill="none" stroke="black" points="251.5,-91 251.5,-143 390.5,-143 390.5,-91 251.5,-91"/>
<text text-anchor="start" x="259.5" y="-131" font-family="Helvetica,sans-Serif" font-size="10.00">/home/travis/build</text>
<text text-anchor="start" x="259.5" y="-120" font-family="Helvetica,sans-Serif" font-size="10.00">/robotology/wb&#45;toolbox</text>
<text text-anchor="start" x="259.5" y="-109" font-family="Helvetica,sans-Serif" font-size="10.00">/toolbox/include/base</text>
<text text-anchor="middle" x="321" y="-98" font-family="Helvetica,sans-Serif" font-size="10.00">/SimulinkBlockInformation.h</text>
</a>
</g>
</g>
<!-- Node1&#45;&gt;Node4 -->
<g id="edge3" class="edge"><title>Node1&#45;&gt;Node4</title>
<path fill="none" stroke="midnightblue" d="M1972.12,-205.961C1702.79,-205.414 709.229,-199.589 400,-144 396.874,-143.438 393.701,-142.781 390.513,-142.048"/>
<polygon fill="midnightblue" stroke="midnightblue" points="1972.14,-209.461 1982.14,-205.979 1972.15,-202.461 1972.14,-209.461"/>
</g>
<!-- Node5 -->
<g id="node5" class="node"><title>Node5</title>
<g id="a_node5"><a xlink:href="_simulink_block_information_8cpp.html" target="_top" xlink:title="/home/travis/build\l/robotology/wb&#45;toolbox\l/toolbox/src/base/SimulinkBlock\lInformation.cpp">
<polygon fill="none" stroke="black" points="164.5,-1 164.5,-53 321.5,-53 321.5,-1 164.5,-1"/>
<text text-anchor="start" x="172.5" y="-41" font-family="Helvetica,sans-Serif" font-size="10.00">/home/travis/build</text>
<text text-anchor="start" x="172.5" y="-30" font-family="Helvetica,sans-Serif" font-size="10.00">/robotology/wb&#45;toolbox</text>
<text text-anchor="start" x="172.5" y="-19" font-family="Helvetica,sans-Serif" font-size="10.00">/toolbox/src/base/SimulinkBlock</text>
<text text-anchor="middle" x="243" y="-8" font-family="Helvetica,sans-Serif" font-size="10.00">Information.cpp</text>
</a>
</g>
</g>
<!-- Node1&#45;&gt;Node5 -->
<g id="edge7" class="edge"><title>Node1&#45;&gt;Node5</title>
<path fill="none" stroke="midnightblue" d="M1972.34,-206.265C1652.28,-207.194 303.186,-207.332 242,-144 219.191,-120.391 225.833,-79.8188 233.669,-53.4565"/>
<polygon fill="midnightblue" stroke="midnightblue" points="1972.41,-209.765 1982.4,-206.235 1972.39,-202.765 1972.41,-209.765"/>
</g>
<!-- Node7 -->
<g id="node7" class="node"><title>Node7</title>
<g id="a_node7"><a xlink:href="_signal_8cpp.html" target="_top" xlink:title="/home/travis/build\l/robotology/wb&#45;toolbox\l/toolbox/src/base/Signal.cpp">
<polygon fill="none" stroke="black" points="409,-96.5 409,-137.5 549,-137.5 549,-96.5 409,-96.5"/>
<text text-anchor="start" x="417" y="-125.5" font-family="Helvetica,sans-Serif" font-size="10.00">/home/travis/build</text>
<text text-anchor="start" x="417" y="-114.5" font-family="Helvetica,sans-Serif" font-size="10.00">/robotology/wb&#45;toolbox</text>
<text text-anchor="middle" x="479" y="-103.5" font-family="Helvetica,sans-Serif" font-size="10.00">/toolbox/src/base/Signal.cpp</text>
</a>
</g>
</g>
<!-- Node1&#45;&gt;Node7 -->
<g id="edge6" class="edge"><title>Node1&#45;&gt;Node7</title>
<path fill="none" stroke="midnightblue" d="M1972.12,-205.606C1719.73,-203.762 835.824,-193.812 559,-144 550.232,-142.422 541.101,-140.12 532.277,-137.529"/>
<polygon fill="midnightblue" stroke="midnightblue" points="1972.22,-209.107 1982.24,-205.678 1972.27,-202.107 1972.22,-209.107"/>
</g>
<!-- Node8 -->
<g id="node8" class="node"><title>Node8</title>
<g id="a_node8"><a xlink:href="_w_b_block_8cpp.html" target="_top" xlink:title="/home/travis/build\l/robotology/wb&#45;toolbox\l/toolbox/src/base/WBBlock.cpp">
<polygon fill="none" stroke="black" points="567.5,-96.5 567.5,-137.5 722.5,-137.5 722.5,-96.5 567.5,-96.5"/>
<text text-anchor="start" x="575.5" y="-125.5" font-family="Helvetica,sans-Serif" font-size="10.00">/home/travis/build</text>
<text text-anchor="start" x="575.5" y="-114.5" font-family="Helvetica,sans-Serif" font-size="10.00">/robotology/wb&#45;toolbox</text>
<text text-anchor="middle" x="645" y="-103.5" font-family="Helvetica,sans-Serif" font-size="10.00">/toolbox/src/base/WBBlock.cpp</text>
</a>
</g>
</g>
<!-- Node1&#45;&gt;Node8 -->
<g id="edge8" class="edge"><title>Node1&#45;&gt;Node8</title>
<path fill="none" stroke="midnightblue" d="M1972.43,-204.963C1739.96,-201.059 974.213,-185.299 732,-144 722.676,-142.41 712.944,-140.137 703.506,-137.589"/>
<polygon fill="midnightblue" stroke="midnightblue" points="1972.38,-208.463 1982.44,-205.13 1972.5,-201.464 1972.38,-208.463"/>
</g>
<!-- Node9 -->
<g id="node9" class="node"><title>Node9</title>
<g id="a_node9"><a xlink:href="_centroidal_momentum_8cpp.html" target="_top" xlink:title="/home/travis/build\l/robotology/wb&#45;toolbox\l/toolbox/src/CentroidalMomentum.cpp">
<polygon fill="none" stroke="black" points="741,-96.5 741,-137.5 923,-137.5 923,-96.5 741,-96.5"/>
<text text-anchor="start" x="749" y="-125.5" font-family="Helvetica,sans-Serif" font-size="10.00">/home/travis/build</text>
<text text-anchor="start" x="749" y="-114.5" font-family="Helvetica,sans-Serif" font-size="10.00">/robotology/wb&#45;toolbox</text>
<text text-anchor="middle" x="832" y="-103.5" font-family="Helvetica,sans-Serif" font-size="10.00">/toolbox/src/CentroidalMomentum.cpp</text>
</a>
</g>
</g>
<!-- Node1&#45;&gt;Node9 -->
<g id="edge9" class="edge"><title>Node1&#45;&gt;Node9</title>
<path fill="none" stroke="midnightblue" d="M1972.16,-203.97C1763.67,-197.451 1134.16,-175.616 932,-144 921.455,-142.351 910.41,-140.064 899.666,-137.524"/>
<polygon fill="midnightblue" stroke="midnightblue" points="1972.25,-207.474 1982.36,-204.287 1972.47,-200.478 1972.25,-207.474"/>
</g>
<!-- Node10 -->
<g id="node10" class="node"><title>Node10</title>
<g id="a_node10"><a xlink:href="_discrete_filter_8cpp.html" target="_top" xlink:title="/home/travis/build\l/robotology/wb&#45;toolbox\l/toolbox/src/DiscreteFilter.cpp">
<polygon fill="none" stroke="black" points="941,-96.5 941,-137.5 1089,-137.5 1089,-96.5 941,-96.5"/>
<text text-anchor="start" x="949" y="-125.5" font-family="Helvetica,sans-Serif" font-size="10.00">/home/travis/build</text>
<text text-anchor="start" x="949" y="-114.5" font-family="Helvetica,sans-Serif" font-size="10.00">/robotology/wb&#45;toolbox</text>
<text text-anchor="middle" x="1015" y="-103.5" font-family="Helvetica,sans-Serif" font-size="10.00">/toolbox/src/DiscreteFilter.cpp</text>
</a>
</g>
</g>
<!-- Node1&#45;&gt;Node10 -->
<g id="edge10" class="edge"><title>Node1&#45;&gt;Node10</title>
<path fill="none" stroke="midnightblue" d="M1971.99,-203.59C1785.15,-196.638 1266.78,-175.048 1099,-144 1090.14,-142.361 1080.91,-140.097 1071.94,-137.582"/>
<polygon fill="midnightblue" stroke="midnightblue" points="1972.1,-207.096 1982.23,-203.968 1972.36,-200.101 1972.1,-207.096"/>
</g>
<!-- Node11 -->
<g id="node11" class="node"><title>Node11</title>
<g id="a_node11"><a xlink:href="_dot_j_nu_8cpp.html" target="_top" xlink:title="/home/travis/build\l/robotology/wb&#45;toolbox\l/toolbox/src/DotJNu.cpp">
<polygon fill="none" stroke="black" points="1107.5,-96.5 1107.5,-137.5 1230.5,-137.5 1230.5,-96.5 1107.5,-96.5"/>
<text text-anchor="start" x="1115.5" y="-125.5" font-family="Helvetica,sans-Serif" font-size="10.00">/home/travis/build</text>
<text text-anchor="start" x="1115.5" y="-114.5" font-family="Helvetica,sans-Serif" font-size="10.00">/robotology/wb&#45;toolbox</text>
<text text-anchor="middle" x="1169" y="-103.5" font-family="Helvetica,sans-Serif" font-size="10.00">/toolbox/src/DotJNu.cpp</text>
</a>
</g>
</g>
<!-- Node1&#45;&gt;Node11 -->
<g id="edge11" class="edge"><title>Node1&#45;&gt;Node11</title>
<path fill="none" stroke="midnightblue" d="M1972.41,-206.945C1833.5,-207.539 1506.59,-201.991 1240,-144 1232.43,-142.354 1224.58,-140.085 1216.98,-137.569"/>
<polygon fill="midnightblue" stroke="midnightblue" points="1972.5,-210.444 1982.48,-206.889 1972.46,-203.444 1972.5,-210.444"/>
</g>
<!-- Node12 -->
<g id="node12" class="node"><title>Node12</title>
<g id="a_node12"><a xlink:href="_forward_kinematics_8cpp.html" target="_top" xlink:title="/home/travis/build\l/robotology/wb&#45;toolbox\l/toolbox/src/ForwardKinematics.cpp">
<polygon fill="none" stroke="black" points="1248.5,-96.5 1248.5,-137.5 1421.5,-137.5 1421.5,-96.5 1248.5,-96.5"/>
<text text-anchor="start" x="1256.5" y="-125.5" font-family="Helvetica,sans-Serif" font-size="10.00">/home/travis/build</text>
<text text-anchor="start" x="1256.5" y="-114.5" font-family="Helvetica,sans-Serif" font-size="10.00">/robotology/wb&#45;toolbox</text>
<text text-anchor="middle" x="1335" y="-103.5" font-family="Helvetica,sans-Serif" font-size="10.00">/toolbox/src/ForwardKinematics.cpp</text>
</a>
</g>
</g>
<!-- Node1&#45;&gt;Node12 -->
<g id="edge12" class="edge"><title>Node1&#45;&gt;Node12</title>
<path fill="none" stroke="midnightblue" d="M1972.24,-202.715C1859.26,-196.432 1625.57,-180.003 1431,-144 1421.41,-142.225 1411.37,-139.967 1401.56,-137.526"/>
<polygon fill="midnightblue" stroke="midnightblue" points="1972.29,-206.223 1982.46,-203.274 1972.67,-199.233 1972.29,-206.223"/>
</g>
<!-- Node13 -->
<g id="node13" class="node"><title>Node13</title>
<g id="a_node13"><a xlink:href="_get_limits_8cpp.html" target="_top" xlink:title="/home/travis/build\l/robotology/wb&#45;toolbox\l/toolbox/src/GetLimits.cpp">
<polygon fill="none" stroke="black" points="1439.5,-96.5 1439.5,-137.5 1570.5,-137.5 1570.5,-96.5 1439.5,-96.5"/>
<text text-anchor="start" x="1447.5" y="-125.5" font-family="Helvetica,sans-Serif" font-size="10.00">/home/travis/build</text>
<text text-anchor="start" x="1447.5" y="-114.5" font-family="Helvetica,sans-Serif" font-size="10.00">/robotology/wb&#45;toolbox</text>
<text text-anchor="middle" x="1505" y="-103.5" font-family="Helvetica,sans-Serif" font-size="10.00">/toolbox/src/GetLimits.cpp</text>
</a>
</g>
</g>
<!-- Node1&#45;&gt;Node13 -->
<g id="edge13" class="edge"><title>Node1&#45;&gt;Node13</title>
<path fill="none" stroke="midnightblue" d="M1972.2,-201.122C1881.78,-193.652 1717.19,-176.677 1580,-144 1572.49,-142.212 1564.68,-139.962 1557.06,-137.538"/>
<polygon fill="midnightblue" stroke="midnightblue" points="1972.06,-204.622 1982.31,-201.943 1972.63,-197.645 1972.06,-204.622"/>
</g>
<!-- Node14 -->
<g id="node14" class="node"><title>Node14</title>
<g id="a_node14"><a xlink:href="_get_measurement_8cpp.html" target="_top" xlink:title="/home/travis/build\l/robotology/wb&#45;toolbox\l/toolbox/src/GetMeasurement.cpp">
<polygon fill="none" stroke="black" points="1589,-96.5 1589,-137.5 1753,-137.5 1753,-96.5 1589,-96.5"/>
<text text-anchor="start" x="1597" y="-125.5" font-family="Helvetica,sans-Serif" font-size="10.00">/home/travis/build</text>
<text text-anchor="start" x="1597" y="-114.5" font-family="Helvetica,sans-Serif" font-size="10.00">/robotology/wb&#45;toolbox</text>
<text text-anchor="middle" x="1671" y="-103.5" font-family="Helvetica,sans-Serif" font-size="10.00">/toolbox/src/GetMeasurement.cpp</text>
</a>
</g>
</g>
<!-- Node1&#45;&gt;Node14 -->
<g id="edge14" class="edge"><title>Node1&#45;&gt;Node14</title>
<path fill="none" stroke="midnightblue" d="M1972.38,-192.084C1915.93,-180.186 1833.43,-162.154 1762,-144 1754.2,-142.017 1746.05,-139.841 1737.97,-137.617"/>
<polygon fill="midnightblue" stroke="midnightblue" points="1971.76,-195.528 1982.26,-194.159 1973.2,-188.678 1971.76,-195.528"/>
</g>
<!-- Node15 -->
<g id="node15" class="node"><title>Node15</title>
<g id="a_node15"><a xlink:href="_inverse_dynamics_8cpp.html" target="_top" xlink:title="/home/travis/build\l/robotology/wb&#45;toolbox\l/toolbox/src/InverseDynamics.cpp">
<polygon fill="none" stroke="black" points="1771,-96.5 1771,-137.5 1937,-137.5 1937,-96.5 1771,-96.5"/>
<text text-anchor="start" x="1779" y="-125.5" font-family="Helvetica,sans-Serif" font-size="10.00">/home/travis/build</text>
<text text-anchor="start" x="1779" y="-114.5" font-family="Helvetica,sans-Serif" font-size="10.00">/robotology/wb&#45;toolbox</text>
<text text-anchor="middle" x="1854" y="-103.5" font-family="Helvetica,sans-Serif" font-size="10.00">/toolbox/src/InverseDynamics.cpp</text>
</a>
</g>
</g>
<!-- Node1&#45;&gt;Node15 -->
<g id="edge15" class="edge"><title>Node1&#45;&gt;Node15</title>
<path fill="none" stroke="midnightblue" d="M1977.34,-176.352C1950.36,-163.589 1919.56,-149.018 1895.49,-137.628"/>
<polygon fill="midnightblue" stroke="midnightblue" points="1976.16,-179.67 1986.7,-180.783 1979.16,-173.342 1976.16,-179.67"/>
</g>
<!-- Node16 -->
<g id="node16" class="node"><title>Node16</title>
<g id="a_node16"><a xlink:href="_inverse_kinematics_8cpp.html" target="_top" xlink:title="/home/travis/build\l/robotology/wb&#45;toolbox\l/toolbox/src/InverseKinematics.cpp">
<polygon fill="none" stroke="black" points="1955,-96.5 1955,-137.5 2125,-137.5 2125,-96.5 1955,-96.5"/>
<text text-anchor="start" x="1963" y="-125.5" font-family="Helvetica,sans-Serif" font-size="10.00">/home/travis/build</text>
<text text-anchor="start" x="1963" y="-114.5" font-family="Helvetica,sans-Serif" font-size="10.00">/robotology/wb&#45;toolbox</text>
<text text-anchor="middle" x="2040" y="-103.5" font-family="Helvetica,sans-Serif" font-size="10.00">/toolbox/src/InverseKinematics.cpp</text>
</a>
</g>
</g>
<!-- Node1&#45;&gt;Node16 -->
<g id="edge16" class="edge"><title>Node1&#45;&gt;Node16</title>
<path fill="none" stroke="midnightblue" d="M2040,-170.515C2040,-159.257 2040,-147.227 2040,-137.525"/>
<polygon fill="midnightblue" stroke="midnightblue" points="2036.5,-170.547 2040,-180.547 2043.5,-170.547 2036.5,-170.547"/>
</g>
<!-- Node17 -->
<g id="node17" class="node"><title>Node17</title>
<g id="a_node17"><a xlink:href="_jacobian_8cpp.html" target="_top" xlink:title="/home/travis/build\l/robotology/wb&#45;toolbox\l/toolbox/src/Jacobian.cpp">
<polygon fill="none" stroke="black" points="2143,-96.5 2143,-137.5 2271,-137.5 2271,-96.5 2143,-96.5"/>
<text text-anchor="start" x="2151" y="-125.5" font-family="Helvetica,sans-Serif" font-size="10.00">/home/travis/build</text>
<text text-anchor="start" x="2151" y="-114.5" font-family="Helvetica,sans-Serif" font-size="10.00">/robotology/wb&#45;toolbox</text>
<text text-anchor="middle" x="2207" y="-103.5" font-family="Helvetica,sans-Serif" font-size="10.00">/toolbox/src/Jacobian.cpp</text>
</a>
</g>
</g>
<!-- Node1&#45;&gt;Node17 -->
<g id="edge17" class="edge"><title>Node1&#45;&gt;Node17</title>
<path fill="none" stroke="midnightblue" d="M2096.9,-176.017C2120.97,-163.335 2148.33,-148.918 2169.75,-137.628"/>
<polygon fill="midnightblue" stroke="midnightblue" points="2095.07,-173.024 2087.86,-180.783 2098.33,-179.217 2095.07,-173.024"/>
</g>
<!-- Node18 -->
<g id="node18" class="node"><title>Node18</title>
<g id="a_node18"><a xlink:href="_mass_matrix_8cpp.html" target="_top" xlink:title="/home/travis/build\l/robotology/wb&#45;toolbox\l/toolbox/src/MassMatrix.cpp">
<polygon fill="none" stroke="black" points="2289,-96.5 2289,-137.5 2429,-137.5 2429,-96.5 2289,-96.5"/>
<text text-anchor="start" x="2297" y="-125.5" font-family="Helvetica,sans-Serif" font-size="10.00">/home/travis/build</text>
<text text-anchor="start" x="2297" y="-114.5" font-family="Helvetica,sans-Serif" font-size="10.00">/robotology/wb&#45;toolbox</text>
<text text-anchor="middle" x="2359" y="-103.5" font-family="Helvetica,sans-Serif" font-size="10.00">/toolbox/src/MassMatrix.cpp</text>
</a>
</g>
</g>
<!-- Node1&#45;&gt;Node18 -->
<g id="edge18" class="edge"><title>Node1&#45;&gt;Node18</title>
<path fill="none" stroke="midnightblue" d="M2107.22,-189.879C2155.52,-177.994 2222.05,-161.001 2280,-144 2286.79,-142.008 2293.87,-139.826 2300.89,-137.6"/>
<polygon fill="midnightblue" stroke="midnightblue" points="2106.39,-186.479 2097.51,-192.26 2108.05,-193.278 2106.39,-186.479"/>
</g>
<!-- Node19 -->
<g id="node19" class="node"><title>Node19</title>
<g id="a_node19"><a xlink:href="_minimum_jerk_trajectory_generator_8cpp.html" target="_top" xlink:title="/home/travis/build\l/robotology/wb&#45;toolbox\l/toolbox/src/MinimumJerkTrajectory\lGenerator.cpp">
<polygon fill="none" stroke="black" points="2447.5,-91 2447.5,-143 2620.5,-143 2620.5,-91 2447.5,-91"/>
<text text-anchor="start" x="2455.5" y="-131" font-family="Helvetica,sans-Serif" font-size="10.00">/home/travis/build</text>
<text text-anchor="start" x="2455.5" y="-120" font-family="Helvetica,sans-Serif" font-size="10.00">/robotology/wb&#45;toolbox</text>
<text text-anchor="start" x="2455.5" y="-109" font-family="Helvetica,sans-Serif" font-size="10.00">/toolbox/src/MinimumJerkTrajectory</text>
<text text-anchor="middle" x="2534" y="-98" font-family="Helvetica,sans-Serif" font-size="10.00">Generator.cpp</text>
</a>
</g>
</g>
<!-- Node1&#45;&gt;Node19 -->
<g id="edge19" class="edge"><title>Node1&#45;&gt;Node19</title>
<path fill="none" stroke="midnightblue" d="M2108.08,-197.713C2187.66,-187.491 2323.11,-168.429 2438,-144 2441.12,-143.336 2444.3,-142.631 2447.5,-141.897"/>
<polygon fill="midnightblue" stroke="midnightblue" points="2107.18,-194.299 2097.7,-199.036 2108.07,-201.242 2107.18,-194.299"/>
</g>
<!-- Node20 -->
<g id="node20" class="node"><title>Node20</title>
<g id="a_node20"><a xlink:href="_model_partitioner_8cpp.html" target="_top" xlink:title="/home/travis/build\l/robotology/wb&#45;toolbox\l/toolbox/src/ModelPartitioner.cpp">
<polygon fill="none" stroke="black" points="2639,-96.5 2639,-137.5 2799,-137.5 2799,-96.5 2639,-96.5"/>
<text text-anchor="start" x="2647" y="-125.5" font-family="Helvetica,sans-Serif" font-size="10.00">/home/travis/build</text>
<text text-anchor="start" x="2647" y="-114.5" font-family="Helvetica,sans-Serif" font-size="10.00">/robotology/wb&#45;toolbox</text>
<text text-anchor="middle" x="2719" y="-103.5" font-family="Helvetica,sans-Serif" font-size="10.00">/toolbox/src/ModelPartitioner.cpp</text>
</a>
</g>
</g>
<!-- Node1&#45;&gt;Node20 -->
<g id="edge20" class="edge"><title>Node1&#45;&gt;Node20</title>
<path fill="none" stroke="midnightblue" d="M2108.08,-202.739C2218.36,-196.585 2442.53,-180.454 2629,-144 2637.94,-142.253 2647.27,-140.026 2656.4,-137.612"/>
<polygon fill="midnightblue" stroke="midnightblue" points="2107.57,-199.262 2097.77,-203.304 2107.95,-206.251 2107.57,-199.262"/>
</g>
<!-- Node21 -->
<g id="node21" class="node"><title>Node21</title>
<g id="a_node21"><a xlink:href="_qp_oases_8cpp.html" target="_top" xlink:title="/home/travis/build\l/robotology/wb&#45;toolbox\l/toolbox/src/QpOases.cpp">
<polygon fill="none" stroke="black" points="2817.5,-96.5 2817.5,-137.5 2948.5,-137.5 2948.5,-96.5 2817.5,-96.5"/>
<text text-anchor="start" x="2825.5" y="-125.5" font-family="Helvetica,sans-Serif" font-size="10.00">/home/travis/build</text>
<text text-anchor="start" x="2825.5" y="-114.5" font-family="Helvetica,sans-Serif" font-size="10.00">/robotology/wb&#45;toolbox</text>
<text text-anchor="middle" x="2883" y="-103.5" font-family="Helvetica,sans-Serif" font-size="10.00">/toolbox/src/QpOases.cpp</text>
</a>
</g>
</g>
<!-- Node1&#45;&gt;Node21 -->
<g id="edge21" class="edge"><title>Node1&#45;&gt;Node21</title>
<path fill="none" stroke="midnightblue" d="M2107.73,-206.248C2242.55,-205.491 2553.47,-197.488 2808,-144 2815.96,-142.328 2824.23,-140.046 2832.25,-137.523"/>
<polygon fill="midnightblue" stroke="midnightblue" points="2107.54,-202.748 2097.55,-206.293 2107.57,-209.748 2107.54,-202.748"/>
</g>
<!-- Node22 -->
<g id="node22" class="node"><title>Node22</title>
<g id="a_node22"><a xlink:href="_relative_transform_8cpp.html" target="_top" xlink:title="/home/travis/build\l/robotology/wb&#45;toolbox\l/toolbox/src/RelativeTransform.cpp">
<polygon fill="none" stroke="black" points="2967,-96.5 2967,-137.5 3137,-137.5 3137,-96.5 2967,-96.5"/>
<text text-anchor="start" x="2975" y="-125.5" font-family="Helvetica,sans-Serif" font-size="10.00">/home/travis/build</text>
<text text-anchor="start" x="2975" y="-114.5" font-family="Helvetica,sans-Serif" font-size="10.00">/robotology/wb&#45;toolbox</text>
<text text-anchor="middle" x="3052" y="-103.5" font-family="Helvetica,sans-Serif" font-size="10.00">/toolbox/src/RelativeTransform.cpp</text>
</a>
</g>
</g>
<!-- Node1&#45;&gt;Node22 -->
<g id="edge22" class="edge"><title>Node1&#45;&gt;Node22</title>
<path fill="none" stroke="midnightblue" d="M2107.76,-206.024C2260.46,-205.078 2642.67,-197.093 2957,-144 2966.95,-142.32 2977.36,-140.033 2987.48,-137.509"/>
<polygon fill="midnightblue" stroke="midnightblue" points="2107.59,-202.525 2097.6,-206.079 2107.62,-209.525 2107.59,-202.525"/>
</g>
<!-- Node23 -->
<g id="node23" class="node"><title>Node23</title>
<g id="a_node23"><a xlink:href="_remote_inverse_kinematics_8cpp.html" target="_top" xlink:title="/home/travis/build\l/robotology/wb&#45;toolbox\l/toolbox/src/RemoteInverseKinematics.cpp">
<polygon fill="none" stroke="black" points="3155.5,-96.5 3155.5,-137.5 3360.5,-137.5 3360.5,-96.5 3155.5,-96.5"/>
<text text-anchor="start" x="3163.5" y="-125.5" font-family="Helvetica,sans-Serif" font-size="10.00">/home/travis/build</text>
<text text-anchor="start" x="3163.5" y="-114.5" font-family="Helvetica,sans-Serif" font-size="10.00">/robotology/wb&#45;toolbox</text>
<text text-anchor="middle" x="3258" y="-103.5" font-family="Helvetica,sans-Serif" font-size="10.00">/toolbox/src/RemoteInverseKinematics.cpp</text>
</a>
</g>
</g>
<!-- Node1&#45;&gt;Node23 -->
<g id="edge23" class="edge"><title>Node1&#45;&gt;Node23</title>
<path fill="none" stroke="midnightblue" d="M2107.62,-206.244C2281.09,-205.999 2755.65,-199.826 3146,-144 3157.66,-142.333 3169.89,-140.053 3181.82,-137.531"/>
<polygon fill="midnightblue" stroke="midnightblue" points="2107.62,-202.744 2097.62,-206.252 2107.62,-209.744 2107.62,-202.744"/>
</g>
<!-- Node24 -->
<g id="node24" class="node"><title>Node24</title>
<g id="a_node24"><a xlink:href="_set_motor_parameters_8cpp.html" target="_top" xlink:title="/home/travis/build\l/robotology/wb&#45;toolbox\l/toolbox/src/SetMotorParameters.cpp">
<polygon fill="none" stroke="black" points="3378.5,-96.5 3378.5,-137.5 3557.5,-137.5 3557.5,-96.5 3378.5,-96.5"/>
<text text-anchor="start" x="3386.5" y="-125.5" font-family="Helvetica,sans-Serif" font-size="10.00">/home/travis/build</text>
<text text-anchor="start" x="3386.5" y="-114.5" font-family="Helvetica,sans-Serif" font-size="10.00">/robotology/wb&#45;toolbox</text>
<text text-anchor="middle" x="3468" y="-103.5" font-family="Helvetica,sans-Serif" font-size="10.00">/toolbox/src/SetMotorParameters.cpp</text>
</a>
</g>
</g>
<!-- Node1&#45;&gt;Node24 -->
<g id="edge24" class="edge"><title>Node1&#45;&gt;Node24</title>
<path fill="none" stroke="midnightblue" d="M2107.8,-204.72C2342.87,-199.99 3121.94,-181.775 3369,-144 3379.54,-142.389 3390.58,-140.104 3401.3,-137.551"/>
<polygon fill="midnightblue" stroke="midnightblue" points="2107.61,-201.223 2097.68,-204.922 2107.75,-208.222 2107.61,-201.223"/>
</g>
<!-- Node25 -->
<g id="node25" class="node"><title>Node25</title>
<g id="a_node25"><a xlink:href="_set_references_8cpp.html" target="_top" xlink:title="/home/travis/build\l/robotology/wb&#45;toolbox\l/toolbox/src/SetReferences.cpp">
<polygon fill="none" stroke="black" points="3575.5,-96.5 3575.5,-137.5 3730.5,-137.5 3730.5,-96.5 3575.5,-96.5"/>
<text text-anchor="start" x="3583.5" y="-125.5" font-family="Helvetica,sans-Serif" font-size="10.00">/home/travis/build</text>
<text text-anchor="start" x="3583.5" y="-114.5" font-family="Helvetica,sans-Serif" font-size="10.00">/robotology/wb&#45;toolbox</text>
<text text-anchor="middle" x="3653" y="-103.5" font-family="Helvetica,sans-Serif" font-size="10.00">/toolbox/src/SetReferences.cpp</text>
</a>
</g>
</g>
<!-- Node1&#45;&gt;Node25 -->
<g id="edge25" class="edge"><title>Node1&#45;&gt;Node25</title>
<path fill="none" stroke="midnightblue" d="M2108.16,-205.489C2365.72,-203.209 3279.51,-191.852 3566,-144 3575.48,-142.416 3585.39,-140.11 3594.97,-137.517"/>
<polygon fill="midnightblue" stroke="midnightblue" points="2107.8,-201.992 2097.83,-205.579 2107.86,-208.992 2107.8,-201.992"/>
</g>
<!-- Node26 -->
<g id="node26" class="node"><title>Node26</title>
<g id="a_node26"><a xlink:href="_yarp_clock_8cpp.html" target="_top" xlink:title="/home/travis/build\l/robotology/wb&#45;toolbox\l/toolbox/src/YarpClock.cpp">
<polygon fill="none" stroke="black" points="3748.5,-96.5 3748.5,-137.5 3883.5,-137.5 3883.5,-96.5 3748.5,-96.5"/>
<text text-anchor="start" x="3756.5" y="-125.5" font-family="Helvetica,sans-Serif" font-size="10.00">/home/travis/build</text>
<text text-anchor="start" x="3756.5" y="-114.5" font-family="Helvetica,sans-Serif" font-size="10.00">/robotology/wb&#45;toolbox</text>
<text text-anchor="middle" x="3816" y="-103.5" font-family="Helvetica,sans-Serif" font-size="10.00">/toolbox/src/YarpClock.cpp</text>
</a>
</g>
</g>
<!-- Node1&#45;&gt;Node26 -->
<g id="edge26" class="edge"><title>Node1&#45;&gt;Node26</title>
<path fill="none" stroke="midnightblue" d="M2108.01,-206.133C2383.63,-206.27 3417.95,-202.772 3739,-144 3747.47,-142.45 3756.27,-140.163 3764.77,-137.577"/>
<polygon fill="midnightblue" stroke="midnightblue" points="2107.76,-202.633 2097.76,-206.126 2107.76,-209.633 2107.76,-202.633"/>
</g>
<!-- Node27 -->
<g id="node27" class="node"><title>Node27</title>
<g id="a_node27"><a xlink:href="_yarp_read_8cpp.html" target="_top" xlink:title="/home/travis/build\l/robotology/wb&#45;toolbox\l/toolbox/src/YarpRead.cpp">
<polygon fill="none" stroke="black" points="3901.5,-96.5 3901.5,-137.5 4034.5,-137.5 4034.5,-96.5 3901.5,-96.5"/>
<text text-anchor="start" x="3909.5" y="-125.5" font-family="Helvetica,sans-Serif" font-size="10.00">/home/travis/build</text>
<text text-anchor="start" x="3909.5" y="-114.5" font-family="Helvetica,sans-Serif" font-size="10.00">/robotology/wb&#45;toolbox</text>
<text text-anchor="middle" x="3968" y="-103.5" font-family="Helvetica,sans-Serif" font-size="10.00">/toolbox/src/YarpRead.cpp</text>
</a>
</g>
</g>
<!-- Node1&#45;&gt;Node27 -->
<g id="edge27" class="edge"><title>Node1&#45;&gt;Node27</title>
<path fill="none" stroke="midnightblue" d="M2108.27,-206.41C2399.59,-207.746 3539.79,-208.654 3892,-144 3900.37,-142.464 3909.06,-140.184 3917.45,-137.601"/>
<polygon fill="midnightblue" stroke="midnightblue" points="2107.88,-202.908 2097.86,-206.361 2107.85,-209.908 2107.88,-202.908"/>
</g>
<!-- Node28 -->
<g id="node28" class="node"><title>Node28</title>
<g id="a_node28"><a xlink:href="_yarp_write_8cpp.html" target="_top" xlink:title="/home/travis/build\l/robotology/wb&#45;toolbox\l/toolbox/src/YarpWrite.cpp">
<polygon fill="none" stroke="black" points="4052.5,-96.5 4052.5,-137.5 4185.5,-137.5 4185.5,-96.5 4052.5,-96.5"/>
<text text-anchor="start" x="4060.5" y="-125.5" font-family="Helvetica,sans-Serif" font-size="10.00">/home/travis/build</text>
<text text-anchor="start" x="4060.5" y="-114.5" font-family="Helvetica,sans-Serif" font-size="10.00">/robotology/wb&#45;toolbox</text>
<text text-anchor="middle" x="4119" y="-103.5" font-family="Helvetica,sans-Serif" font-size="10.00">/toolbox/src/YarpWrite.cpp</text>
</a>
</g>
</g>
<!-- Node1&#45;&gt;Node28 -->
<g id="edge28" class="edge"><title>Node1&#45;&gt;Node28</title>
<path fill="none" stroke="midnightblue" d="M2107.91,-205.1C2436.05,-200.59 3849.58,-179.254 4043,-144 4051.37,-142.475 4060.06,-140.2 4068.46,-137.62"/>
<polygon fill="midnightblue" stroke="midnightblue" points="2107.56,-201.604 2097.61,-205.241 2107.65,-208.604 2107.56,-201.604"/>
</g>
<!-- Node3 -->
<g id="node3" class="node"><title>Node3</title>
<g id="a_node3"><a xlink:href="_coder_block_information_8cpp.html" target="_top" xlink:title="/home/travis/build\l/robotology/wb&#45;toolbox\l/toolbox/src/base/CoderBlock\lInformation.cpp">
<polygon fill="none" stroke="black" points="0,-1 0,-53 146,-53 146,-1 0,-1"/>
<text text-anchor="start" x="8" y="-41" font-family="Helvetica,sans-Serif" font-size="10.00">/home/travis/build</text>
<text text-anchor="start" x="8" y="-30" font-family="Helvetica,sans-Serif" font-size="10.00">/robotology/wb&#45;toolbox</text>
<text text-anchor="start" x="8" y="-19" font-family="Helvetica,sans-Serif" font-size="10.00">/toolbox/src/base/CoderBlock</text>
<text text-anchor="middle" x="73" y="-8" font-family="Helvetica,sans-Serif" font-size="10.00">Information.cpp</text>
</a>
</g>
</g>
<!-- Node2&#45;&gt;Node3 -->
<g id="edge2" class="edge"><title>Node2&#45;&gt;Node3</title>
<path fill="none" stroke="midnightblue" d="M84.3329,-80.4892C82.3508,-71.3088 80.258,-61.616 78.4176,-53.0921"/>
<polygon fill="midnightblue" stroke="midnightblue" points="80.9727,-81.5107 86.5044,-90.5468 87.815,-80.0333 80.9727,-81.5107"/>
</g>
<!-- Node4&#45;&gt;Node5 -->
<g id="edge4" class="edge"><title>Node4&#45;&gt;Node5</title>
<path fill="none" stroke="midnightblue" d="M291.613,-82.8459C282.873,-72.9851 273.446,-62.3492 265.241,-53.0921"/>
<polygon fill="midnightblue" stroke="midnightblue" points="289.187,-85.3848 298.439,-90.5468 294.425,-80.7417 289.187,-85.3848"/>
</g>
<!-- Node6 -->
<g id="node6" class="node"><title>Node6</title>
<g id="a_node6"><a xlink:href="_w_b_toolbox_8cpp.html" target="_top" xlink:title="/home/travis/build\l/robotology/wb&#45;toolbox\l/toolbox/src/base/WBToolbox.cpp">
<polygon fill="none" stroke="black" points="340,-6.5 340,-47.5 504,-47.5 504,-6.5 340,-6.5"/>
<text text-anchor="start" x="348" y="-35.5" font-family="Helvetica,sans-Serif" font-size="10.00">/home/travis/build</text>
<text text-anchor="start" x="348" y="-24.5" font-family="Helvetica,sans-Serif" font-size="10.00">/robotology/wb&#45;toolbox</text>
<text text-anchor="middle" x="422" y="-13.5" font-family="Helvetica,sans-Serif" font-size="10.00">/toolbox/src/base/WBToolbox.cpp</text>
</a>
</g>
</g>
<!-- Node4&#45;&gt;Node6 -->
<g id="edge5" class="edge"><title>Node4&#45;&gt;Node6</title>
<path fill="none" stroke="midnightblue" d="M357.541,-84.1619C371.563,-71.9452 387.142,-58.371 399.472,-47.6283"/>
<polygon fill="midnightblue" stroke="midnightblue" points="355.183,-81.5746 349.943,-90.7827 359.781,-86.8524 355.183,-81.5746"/>
</g>
</g>
</svg>
