<?xml version="1.0" encoding="UTF-8" standalone="no"?>
<!DOCTYPE svg PUBLIC "-//W3C//DTD SVG 1.1//EN"
 "http://www.w3.org/Graphics/SVG/1.1/DTD/svg11.dtd">
<!-- Generated by graphviz version 2.36.0 (20140111.2315)
 -->
<!-- Title: /home/travis/build/robotology/wb&#45;toolbox/toolbox/core/include/Core/Signal.h Pages: 1 -->
<svg width="4031pt" height="242pt"
 viewBox="0.00 0.00 4031.00 242.00" xmlns="http://www.w3.org/2000/svg" xmlns:xlink="http://www.w3.org/1999/xlink">
<g id="graph0" class="graph" transform="scale(1 1) rotate(0) translate(4 238)">
<title>/home/travis/build/robotology/wb&#45;toolbox/toolbox/core/include/Core/Signal.h</title>
<!-- Node1 -->
<g id="node1" class="node"><title>Node1</title>
<polygon fill="#bfbfbf" stroke="black" points="1860.5,-181 1860.5,-233 1975.5,-233 1975.5,-181 1860.5,-181"/>
<text text-anchor="start" x="1868.5" y="-221" font-family="Helvetica,sans-Serif" font-size="10.00">/home/travis/build</text>
<text text-anchor="start" x="1868.5" y="-210" font-family="Helvetica,sans-Serif" font-size="10.00">/robotology/wb&#45;toolbox</text>
<text text-anchor="start" x="1868.5" y="-199" font-family="Helvetica,sans-Serif" font-size="10.00">/toolbox/core/include</text>
<text text-anchor="middle" x="1918" y="-188" font-family="Helvetica,sans-Serif" font-size="10.00">/Core/Signal.h</text>
</g>
<!-- Node2 -->
<g id="node2" class="node"><title>Node2</title>
<g id="a_node2"><a xlink:href="_coder_block_information_8h.html" target="_top" xlink:title="/home/travis/build\l/robotology/wb&#45;toolbox\l/toolbox/core/include\l/Core/CoderBlockInformation.h">
<polygon fill="none" stroke="black" points="11,-91 11,-143 163,-143 163,-91 11,-91"/>
<text text-anchor="start" x="19" y="-131" font-family="Helvetica,sans-Serif" font-size="10.00">/home/travis/build</text>
<text text-anchor="start" x="19" y="-120" font-family="Helvetica,sans-Serif" font-size="10.00">/robotology/wb&#45;toolbox</text>
<text text-anchor="start" x="19" y="-109" font-family="Helvetica,sans-Serif" font-size="10.00">/toolbox/core/include</text>
<text text-anchor="middle" x="87" y="-98" font-family="Helvetica,sans-Serif" font-size="10.00">/Core/CoderBlockInformation.h</text>
</a>
</g>
</g>
<!-- Node1&#45;&gt;Node2 -->
<g id="edge1" class="edge"><title>Node1&#45;&gt;Node2</title>
<path fill="none" stroke="midnightblue" d="M1850.17,-205.13C1574.08,-201.345 534.156,-184.635 208,-144 193.395,-142.18 177.942,-139.473 163.141,-136.483"/>
<polygon fill="midnightblue" stroke="midnightblue" points="1850.39,-208.634 1860.43,-205.27 1850.48,-201.634 1850.39,-208.634"/>
</g>
<!-- Node4 -->
<g id="node4" class="node"><title>Node4</title>
<g id="a_node4"><a xlink:href="_simulink_block_information_8h.html" target="_top" xlink:title="/home/travis/build\l/robotology/wb&#45;toolbox\l/toolbox/core/include\l/Core/SimulinkBlockInformation.h">
<polygon fill="none" stroke="black" points="250.5,-91 250.5,-143 413.5,-143 413.5,-91 250.5,-91"/>
<text text-anchor="start" x="258.5" y="-131" font-family="Helvetica,sans-Serif" font-size="10.00">/home/travis/build</text>
<text text-anchor="start" x="258.5" y="-120" font-family="Helvetica,sans-Serif" font-size="10.00">/robotology/wb&#45;toolbox</text>
<text text-anchor="start" x="258.5" y="-109" font-family="Helvetica,sans-Serif" font-size="10.00">/toolbox/core/include</text>
<text text-anchor="middle" x="332" y="-98" font-family="Helvetica,sans-Serif" font-size="10.00">/Core/SimulinkBlockInformation.h</text>
</a>
</g>
</g>
<!-- Node1&#45;&gt;Node4 -->
<g id="edge3" class="edge"><title>Node1&#45;&gt;Node4</title>
<path fill="none" stroke="midnightblue" d="M1849.96,-205.316C1595.96,-202.429 703.461,-189.224 423,-144 419.918,-143.503 416.792,-142.937 413.646,-142.314"/>
<polygon fill="midnightblue" stroke="midnightblue" points="1850.11,-208.817 1860.15,-205.43 1850.19,-201.818 1850.11,-208.817"/>
</g>
<!-- Node5 -->
<g id="node5" class="node"><title>Node5</title>
<g id="a_node5"><a xlink:href="_simulink_block_information_8cpp.html" target="_top" xlink:title="/home/travis/build\l/robotology/wb&#45;toolbox\l/toolbox/core/src/SimulinkBlock\lInformation.cpp">
<polygon fill="none" stroke="black" points="160.5,-1 160.5,-53 315.5,-53 315.5,-1 160.5,-1"/>
<text text-anchor="start" x="168.5" y="-41" font-family="Helvetica,sans-Serif" font-size="10.00">/home/travis/build</text>
<text text-anchor="start" x="168.5" y="-30" font-family="Helvetica,sans-Serif" font-size="10.00">/robotology/wb&#45;toolbox</text>
<text text-anchor="start" x="168.5" y="-19" font-family="Helvetica,sans-Serif" font-size="10.00">/toolbox/core/src/SimulinkBlock</text>
<text text-anchor="middle" x="238" y="-8" font-family="Helvetica,sans-Serif" font-size="10.00">Information.cpp</text>
</a>
</g>
</g>
<!-- Node1&#45;&gt;Node5 -->
<g id="edge7" class="edge"><title>Node1&#45;&gt;Node5</title>
<path fill="none" stroke="midnightblue" d="M1849.98,-206.055C1542.92,-205.981 298.446,-202.087 241,-144 217.768,-120.509 223.071,-79.5092 229.883,-53.0747"/>
<polygon fill="midnightblue" stroke="midnightblue" points="1850.08,-209.555 1860.08,-206.056 1850.08,-202.555 1850.08,-209.555"/>
</g>
<!-- Node7 -->
<g id="node7" class="node"><title>Node7</title>
<g id="a_node7"><a xlink:href="_signal_8cpp.html" target="_top" xlink:title="/home/travis/build\l/robotology/wb&#45;toolbox\l/toolbox/core/src/Signal.cpp">
<polygon fill="none" stroke="black" points="432,-96.5 432,-137.5 570,-137.5 570,-96.5 432,-96.5"/>
<text text-anchor="start" x="440" y="-125.5" font-family="Helvetica,sans-Serif" font-size="10.00">/home/travis/build</text>
<text text-anchor="start" x="440" y="-114.5" font-family="Helvetica,sans-Serif" font-size="10.00">/robotology/wb&#45;toolbox</text>
<text text-anchor="middle" x="501" y="-103.5" font-family="Helvetica,sans-Serif" font-size="10.00">/toolbox/core/src/Signal.cpp</text>
</a>
</g>
</g>
<!-- Node1&#45;&gt;Node7 -->
<g id="edge6" class="edge"><title>Node1&#45;&gt;Node7</title>
<path fill="none" stroke="midnightblue" d="M1849.99,-205.321C1613.32,-202.571 826.696,-190.1 579,-144 570.44,-142.407 561.53,-140.097 552.924,-137.502"/>
<polygon fill="midnightblue" stroke="midnightblue" points="1850.14,-208.822 1860.18,-205.437 1850.22,-201.823 1850.14,-208.822"/>
</g>
<!-- Node8 -->
<g id="node8" class="node"><title>Node8</title>
<g id="a_node8"><a xlink:href="_centroidal_momentum_8cpp.html" target="_top" xlink:title="/home/travis/build\l/robotology/wb&#45;toolbox\l/toolbox/library/src/Centroidal\lMomentum.cpp">
<polygon fill="none" stroke="black" points="588,-91 588,-143 732,-143 732,-91 588,-91"/>
<text text-anchor="start" x="596" y="-131" font-family="Helvetica,sans-Serif" font-size="10.00">/home/travis/build</text>
<text text-anchor="start" x="596" y="-120" font-family="Helvetica,sans-Serif" font-size="10.00">/robotology/wb&#45;toolbox</text>
<text text-anchor="start" x="596" y="-109" font-family="Helvetica,sans-Serif" font-size="10.00">/toolbox/library/src/Centroidal</text>
<text text-anchor="middle" x="660" y="-98" font-family="Helvetica,sans-Serif" font-size="10.00">Momentum.cpp</text>
</a>
</g>
</g>
<!-- Node1&#45;&gt;Node8 -->
<g id="edge8" class="edge"><title>Node1&#45;&gt;Node8</title>
<path fill="none" stroke="midnightblue" d="M1850.04,-204.685C1632.82,-200.126 956.981,-183.089 742,-144 738.767,-143.412 735.485,-142.733 732.185,-141.984"/>
<polygon fill="midnightblue" stroke="midnightblue" points="1850.27,-208.191 1860.34,-204.899 1850.42,-201.192 1850.27,-208.191"/>
</g>
<!-- Node9 -->
<g id="node9" class="node"><title>Node9</title>
<g id="a_node9"><a xlink:href="_discrete_filter_8cpp.html" target="_top" xlink:title="/home/travis/build\l/robotology/wb&#45;toolbox\l/toolbox/library/src/Discrete\lFilter.cpp">
<polygon fill="none" stroke="black" points="750.5,-91 750.5,-143 887.5,-143 887.5,-91 750.5,-91"/>
<text text-anchor="start" x="758.5" y="-131" font-family="Helvetica,sans-Serif" font-size="10.00">/home/travis/build</text>
<text text-anchor="start" x="758.5" y="-120" font-family="Helvetica,sans-Serif" font-size="10.00">/robotology/wb&#45;toolbox</text>
<text text-anchor="start" x="758.5" y="-109" font-family="Helvetica,sans-Serif" font-size="10.00">/toolbox/library/src/Discrete</text>
<text text-anchor="middle" x="819" y="-98" font-family="Helvetica,sans-Serif" font-size="10.00">Filter.cpp</text>
</a>
</g>
</g>
<!-- Node1&#45;&gt;Node9 -->
<g id="edge9" class="edge"><title>Node1&#45;&gt;Node9</title>
<path fill="none" stroke="midnightblue" d="M1850.05,-204.185C1652.46,-198.543 1080.49,-179.517 897,-144 893.917,-143.403 890.788,-142.717 887.643,-141.961"/>
<polygon fill="midnightblue" stroke="midnightblue" points="1850.2,-207.691 1860.29,-204.475 1850.4,-200.694 1850.2,-207.691"/>
</g>
<!-- Node10 -->
<g id="node10" class="node"><title>Node10</title>
<g id="a_node10"><a xlink:href="_dot_j_nu_8cpp.html" target="_top" xlink:title="/home/travis/build\l/robotology/wb&#45;toolbox\l/toolbox/library/src/DotJNu.cpp">
<polygon fill="none" stroke="black" points="906,-96.5 906,-137.5 1058,-137.5 1058,-96.5 906,-96.5"/>
<text text-anchor="start" x="914" y="-125.5" font-family="Helvetica,sans-Serif" font-size="10.00">/home/travis/build</text>
<text text-anchor="start" x="914" y="-114.5" font-family="Helvetica,sans-Serif" font-size="10.00">/robotology/wb&#45;toolbox</text>
<text text-anchor="middle" x="982" y="-103.5" font-family="Helvetica,sans-Serif" font-size="10.00">/toolbox/library/src/DotJNu.cpp</text>
</a>
</g>
</g>
<!-- Node1&#45;&gt;Node10 -->
<g id="edge10" class="edge"><title>Node1&#45;&gt;Node10</title>
<path fill="none" stroke="midnightblue" d="M1850.43,-206.109C1705.7,-205.243 1355.53,-197.272 1068,-144 1058.95,-142.323 1049.51,-140.039 1040.33,-137.515"/>
<polygon fill="midnightblue" stroke="midnightblue" points="1850.47,-209.609 1860.49,-206.159 1850.51,-202.609 1850.47,-209.609"/>
</g>
<!-- Node11 -->
<g id="node11" class="node"><title>Node11</title>
<g id="a_node11"><a xlink:href="_forward_kinematics_8cpp.html" target="_top" xlink:title="/home/travis/build\l/robotology/wb&#45;toolbox\l/toolbox/library/src/Forward\lKinematics.cpp">
<polygon fill="none" stroke="black" points="1076.5,-91 1076.5,-143 1211.5,-143 1211.5,-91 1076.5,-91"/>
<text text-anchor="start" x="1084.5" y="-131" font-family="Helvetica,sans-Serif" font-size="10.00">/home/travis/build</text>
<text text-anchor="start" x="1084.5" y="-120" font-family="Helvetica,sans-Serif" font-size="10.00">/robotology/wb&#45;toolbox</text>
<text text-anchor="start" x="1084.5" y="-109" font-family="Helvetica,sans-Serif" font-size="10.00">/toolbox/library/src/Forward</text>
<text text-anchor="middle" x="1144" y="-98" font-family="Helvetica,sans-Serif" font-size="10.00">Kinematics.cpp</text>
</a>
</g>
</g>
<!-- Node1&#45;&gt;Node11 -->
<g id="edge11" class="edge"><title>Node1&#45;&gt;Node11</title>
<path fill="none" stroke="midnightblue" d="M1850.18,-205.275C1724.67,-202.765 1448.22,-191.762 1221,-144 1217.96,-143.361 1214.88,-142.641 1211.78,-141.856"/>
<polygon fill="midnightblue" stroke="midnightblue" points="1850.34,-208.778 1860.41,-205.467 1850.47,-201.78 1850.34,-208.778"/>
</g>
<!-- Node12 -->
<g id="node12" class="node"><title>Node12</title>
<g id="a_node12"><a xlink:href="_get_limits_8cpp.html" target="_top" xlink:title="/home/travis/build\l/robotology/wb&#45;toolbox\l/toolbox/library/src/GetLimits.cpp">
<polygon fill="none" stroke="black" points="1229.5,-96.5 1229.5,-137.5 1390.5,-137.5 1390.5,-96.5 1229.5,-96.5"/>
<text text-anchor="start" x="1237.5" y="-125.5" font-family="Helvetica,sans-Serif" font-size="10.00">/home/travis/build</text>
<text text-anchor="start" x="1237.5" y="-114.5" font-family="Helvetica,sans-Serif" font-size="10.00">/robotology/wb&#45;toolbox</text>
<text text-anchor="middle" x="1310" y="-103.5" font-family="Helvetica,sans-Serif" font-size="10.00">/toolbox/library/src/GetLimits.cpp</text>
</a>
</g>
</g>
<!-- Node1&#45;&gt;Node12 -->
<g id="edge12" class="edge"><title>Node1&#45;&gt;Node12</title>
<path fill="none" stroke="midnightblue" d="M1850.2,-201.408C1750.71,-193.877 1559.67,-176.397 1400,-144 1391.23,-142.221 1382.08,-140.007 1373.11,-137.626"/>
<polygon fill="midnightblue" stroke="midnightblue" points="1850.18,-204.916 1860.41,-202.171 1850.7,-197.936 1850.18,-204.916"/>
</g>
<!-- Node13 -->
<g id="node13" class="node"><title>Node13</title>
<g id="a_node13"><a xlink:href="_get_measurement_8cpp.html" target="_top" xlink:title="/home/travis/build\l/robotology/wb&#45;toolbox\l/toolbox/library/src/GetMeasurement.cpp">
<polygon fill="none" stroke="black" points="1409,-96.5 1409,-137.5 1603,-137.5 1603,-96.5 1409,-96.5"/>
<text text-anchor="start" x="1417" y="-125.5" font-family="Helvetica,sans-Serif" font-size="10.00">/home/travis/build</text>
<text text-anchor="start" x="1417" y="-114.5" font-family="Helvetica,sans-Serif" font-size="10.00">/robotology/wb&#45;toolbox</text>
<text text-anchor="middle" x="1506" y="-103.5" font-family="Helvetica,sans-Serif" font-size="10.00">/toolbox/library/src/GetMeasurement.cpp</text>
</a>
</g>
</g>
<!-- Node1&#45;&gt;Node13 -->
<g id="edge13" class="edge"><title>Node1&#45;&gt;Node13</title>
<path fill="none" stroke="midnightblue" d="M1850.26,-193.094C1788.14,-181.066 1693.67,-162.283 1612,-144 1602.94,-141.972 1593.46,-139.767 1584.06,-137.529"/>
<polygon fill="midnightblue" stroke="midnightblue" points="1849.84,-196.579 1860.33,-195.039 1851.17,-189.706 1849.84,-196.579"/>
</g>
<!-- Node14 -->
<g id="node14" class="node"><title>Node14</title>
<g id="a_node14"><a xlink:href="_inverse_dynamics_8cpp.html" target="_top" xlink:title="/home/travis/build\l/robotology/wb&#45;toolbox\l/toolbox/library/src/Inverse\lDynamics.cpp">
<polygon fill="none" stroke="black" points="1621,-91 1621,-143 1753,-143 1753,-91 1621,-91"/>
<text text-anchor="start" x="1629" y="-131" font-family="Helvetica,sans-Serif" font-size="10.00">/home/travis/build</text>
<text text-anchor="start" x="1629" y="-120" font-family="Helvetica,sans-Serif" font-size="10.00">/robotology/wb&#45;toolbox</text>
<text text-anchor="start" x="1629" y="-109" font-family="Helvetica,sans-Serif" font-size="10.00">/toolbox/library/src/Inverse</text>
<text text-anchor="middle" x="1687" y="-98" font-family="Helvetica,sans-Serif" font-size="10.00">Dynamics.cpp</text>
</a>
</g>
</g>
<!-- Node1&#45;&gt;Node14 -->
<g id="edge14" class="edge"><title>Node1&#45;&gt;Node14</title>
<path fill="none" stroke="midnightblue" d="M1850.93,-180.449C1820.09,-168.702 1783.63,-154.813 1752.94,-143.12"/>
<polygon fill="midnightblue" stroke="midnightblue" points="1849.71,-183.732 1860.3,-184.021 1852.21,-177.19 1849.71,-183.732"/>
</g>
<!-- Node15 -->
<g id="node15" class="node"><title>Node15</title>
<g id="a_node15"><a xlink:href="_inverse_kinematics_8cpp.html" target="_top" xlink:title="/home/travis/build\l/robotology/wb&#45;toolbox\l/toolbox/library/src/Inverse\lKinematics.cpp">
<polygon fill="none" stroke="black" points="1771,-91 1771,-143 1903,-143 1903,-91 1771,-91"/>
<text text-anchor="start" x="1779" y="-131" font-family="Helvetica,sans-Serif" font-size="10.00">/home/travis/build</text>
<text text-anchor="start" x="1779" y="-120" font-family="Helvetica,sans-Serif" font-size="10.00">/robotology/wb&#45;toolbox</text>
<text text-anchor="start" x="1779" y="-109" font-family="Helvetica,sans-Serif" font-size="10.00">/toolbox/library/src/Inverse</text>
<text text-anchor="middle" x="1837" y="-98" font-family="Helvetica,sans-Serif" font-size="10.00">Kinematics.cpp</text>
</a>
</g>
</g>
<!-- Node1&#45;&gt;Node15 -->
<g id="edge15" class="edge"><title>Node1&#45;&gt;Node15</title>
<path fill="none" stroke="midnightblue" d="M1887.75,-173.139C1878.6,-163.196 1868.7,-152.441 1860.1,-143.092"/>
<polygon fill="midnightblue" stroke="midnightblue" points="1885.22,-175.559 1894.57,-180.547 1890.37,-170.819 1885.22,-175.559"/>
</g>
<!-- Node16 -->
<g id="node16" class="node"><title>Node16</title>
<g id="a_node16"><a xlink:href="_jacobian_8cpp.html" target="_top" xlink:title="/home/travis/build\l/robotology/wb&#45;toolbox\l/toolbox/library/src/Jacobian.cpp">
<polygon fill="none" stroke="black" points="1921,-96.5 1921,-137.5 2079,-137.5 2079,-96.5 1921,-96.5"/>
<text text-anchor="start" x="1929" y="-125.5" font-family="Helvetica,sans-Serif" font-size="10.00">/home/travis/build</text>
<text text-anchor="start" x="1929" y="-114.5" font-family="Helvetica,sans-Serif" font-size="10.00">/robotology/wb&#45;toolbox</text>
<text text-anchor="middle" x="2000" y="-103.5" font-family="Helvetica,sans-Serif" font-size="10.00">/toolbox/library/src/Jacobian.cpp</text>
</a>
</g>
</g>
<!-- Node1&#45;&gt;Node16 -->
<g id="edge16" class="edge"><title>Node1&#45;&gt;Node16</title>
<path fill="none" stroke="midnightblue" d="M1948.83,-172.914C1959.94,-160.988 1972.12,-147.92 1981.81,-137.525"/>
<polygon fill="midnightblue" stroke="midnightblue" points="1945.97,-170.845 1941.72,-180.547 1951.1,-175.617 1945.97,-170.845"/>
</g>
<!-- Node17 -->
<g id="node17" class="node"><title>Node17</title>
<g id="a_node17"><a xlink:href="_mass_matrix_8cpp.html" target="_top" xlink:title="/home/travis/build\l/robotology/wb&#45;toolbox\l/toolbox/library/src/MassMatrix.cpp">
<polygon fill="none" stroke="black" points="2097,-96.5 2097,-137.5 2267,-137.5 2267,-96.5 2097,-96.5"/>
<text text-anchor="start" x="2105" y="-125.5" font-family="Helvetica,sans-Serif" font-size="10.00">/home/travis/build</text>
<text text-anchor="start" x="2105" y="-114.5" font-family="Helvetica,sans-Serif" font-size="10.00">/robotology/wb&#45;toolbox</text>
<text text-anchor="middle" x="2182" y="-103.5" font-family="Helvetica,sans-Serif" font-size="10.00">/toolbox/library/src/MassMatrix.cpp</text>
</a>
</g>
</g>
<!-- Node1&#45;&gt;Node17 -->
<g id="edge17" class="edge"><title>Node1&#45;&gt;Node17</title>
<path fill="none" stroke="midnightblue" d="M1985.32,-183.559C2027.87,-169.377 2082.33,-151.225 2123.14,-137.619"/>
<polygon fill="midnightblue" stroke="midnightblue" points="1983.99,-180.314 1975.61,-186.797 1986.2,-186.955 1983.99,-180.314"/>
</g>
<!-- Node18 -->
<g id="node18" class="node"><title>Node18</title>
<g id="a_node18"><a xlink:href="_minimum_jerk_trajectory_generator_8cpp.html" target="_top" xlink:title="/home/travis/build\l/robotology/wb&#45;toolbox\l/toolbox/library/src/Minimum\lJerkTrajectoryGenerator.cpp">
<polygon fill="none" stroke="black" points="2285,-91 2285,-143 2425,-143 2425,-91 2285,-91"/>
<text text-anchor="start" x="2293" y="-131" font-family="Helvetica,sans-Serif" font-size="10.00">/home/travis/build</text>
<text text-anchor="start" x="2293" y="-120" font-family="Helvetica,sans-Serif" font-size="10.00">/robotology/wb&#45;toolbox</text>
<text text-anchor="start" x="2293" y="-109" font-family="Helvetica,sans-Serif" font-size="10.00">/toolbox/library/src/Minimum</text>
<text text-anchor="middle" x="2355" y="-98" font-family="Helvetica,sans-Serif" font-size="10.00">JerkTrajectoryGenerator.cpp</text>
</a>
</g>
</g>
<!-- Node1&#45;&gt;Node18 -->
<g id="edge18" class="edge"><title>Node1&#45;&gt;Node18</title>
<path fill="none" stroke="midnightblue" d="M1985.49,-197.319C2057.93,-187.306 2176.05,-168.959 2276,-144 2278.94,-143.265 2281.93,-142.476 2284.94,-141.647"/>
<polygon fill="midnightblue" stroke="midnightblue" points="1985.02,-193.852 1975.58,-198.677 1985.97,-200.787 1985.02,-193.852"/>
</g>
<!-- Node19 -->
<g id="node19" class="node"><title>Node19</title>
<g id="a_node19"><a xlink:href="_qp_oases_8cpp.html" target="_top" xlink:title="/home/travis/build\l/robotology/wb&#45;toolbox\l/toolbox/library/src/QpOases.cpp">
<polygon fill="none" stroke="black" points="2443,-96.5 2443,-137.5 2603,-137.5 2603,-96.5 2443,-96.5"/>
<text text-anchor="start" x="2451" y="-125.5" font-family="Helvetica,sans-Serif" font-size="10.00">/home/travis/build</text>
<text text-anchor="start" x="2451" y="-114.5" font-family="Helvetica,sans-Serif" font-size="10.00">/robotology/wb&#45;toolbox</text>
<text text-anchor="middle" x="2523" y="-103.5" font-family="Helvetica,sans-Serif" font-size="10.00">/toolbox/library/src/QpOases.cpp</text>
</a>
</g>
</g>
<!-- Node1&#45;&gt;Node19 -->
<g id="edge19" class="edge"><title>Node1&#45;&gt;Node19</title>
<path fill="none" stroke="midnightblue" d="M1985.95,-201.418C2085.18,-193.92 2275.21,-176.504 2434,-144 2442.83,-142.192 2452.06,-139.931 2461.08,-137.502"/>
<polygon fill="midnightblue" stroke="midnightblue" points="1985.48,-197.944 1975.76,-202.177 1986,-204.924 1985.48,-197.944"/>
</g>
<!-- Node20 -->
<g id="node20" class="node"><title>Node20</title>
<g id="a_node20"><a xlink:href="_relative_transform_8cpp.html" target="_top" xlink:title="/home/travis/build\l/robotology/wb&#45;toolbox\l/toolbox/library/src/Relative\lTransform.cpp">
<polygon fill="none" stroke="black" points="2621,-91 2621,-143 2757,-143 2757,-91 2621,-91"/>
<text text-anchor="start" x="2629" y="-131" font-family="Helvetica,sans-Serif" font-size="10.00">/home/travis/build</text>
<text text-anchor="start" x="2629" y="-120" font-family="Helvetica,sans-Serif" font-size="10.00">/robotology/wb&#45;toolbox</text>
<text text-anchor="start" x="2629" y="-109" font-family="Helvetica,sans-Serif" font-size="10.00">/toolbox/library/src/Relative</text>
<text text-anchor="middle" x="2689" y="-98" font-family="Helvetica,sans-Serif" font-size="10.00">Transform.cpp</text>
</a>
</g>
</g>
<!-- Node1&#45;&gt;Node20 -->
<g id="edge20" class="edge"><title>Node1&#45;&gt;Node20</title>
<path fill="none" stroke="midnightblue" d="M1986,-205.234C2111.2,-202.655 2386.04,-191.54 2612,-144 2614.9,-143.39 2617.84,-142.705 2620.8,-141.962"/>
<polygon fill="midnightblue" stroke="midnightblue" points="1985.73,-201.739 1975.8,-205.432 1985.87,-208.737 1985.73,-201.739"/>
</g>
<!-- Node21 -->
<g id="node21" class="node"><title>Node21</title>
<g id="a_node21"><a xlink:href="_remote_inverse_kinematics_8cpp.html" target="_top" xlink:title="/home/travis/build\l/robotology/wb&#45;toolbox\l/toolbox/library/src/RemoteInverse\lKinematics.cpp">
<polygon fill="none" stroke="black" points="2775.5,-91 2775.5,-143 2942.5,-143 2942.5,-91 2775.5,-91"/>
<text text-anchor="start" x="2783.5" y="-131" font-family="Helvetica,sans-Serif" font-size="10.00">/home/travis/build</text>
<text text-anchor="start" x="2783.5" y="-120" font-family="Helvetica,sans-Serif" font-size="10.00">/robotology/wb&#45;toolbox</text>
<text text-anchor="start" x="2783.5" y="-109" font-family="Helvetica,sans-Serif" font-size="10.00">/toolbox/library/src/RemoteInverse</text>
<text text-anchor="middle" x="2859" y="-98" font-family="Helvetica,sans-Serif" font-size="10.00">Kinematics.cpp</text>
</a>
</g>
</g>
<!-- Node1&#45;&gt;Node21 -->
<g id="edge21" class="edge"><title>Node1&#45;&gt;Node21</title>
<path fill="none" stroke="midnightblue" d="M1985.59,-205.62C2129.99,-203.812 2478.79,-194.129 2766,-144 2769.06,-143.467 2772.15,-142.875 2775.28,-142.235"/>
<polygon fill="midnightblue" stroke="midnightblue" points="1985.51,-202.121 1975.56,-205.737 1985.6,-209.12 1985.51,-202.121"/>
</g>
<!-- Node22 -->
<g id="node22" class="node"><title>Node22</title>
<g id="a_node22"><a xlink:href="_set_motor_parameters_8cpp.html" target="_top" xlink:title="/home/travis/build\l/robotology/wb&#45;toolbox\l/toolbox/library/src/SetMotor\lParameters.cpp">
<polygon fill="none" stroke="black" points="2961,-91 2961,-143 3101,-143 3101,-91 2961,-91"/>
<text text-anchor="start" x="2969" y="-131" font-family="Helvetica,sans-Serif" font-size="10.00">/home/travis/build</text>
<text text-anchor="start" x="2969" y="-120" font-family="Helvetica,sans-Serif" font-size="10.00">/robotology/wb&#45;toolbox</text>
<text text-anchor="start" x="2969" y="-109" font-family="Helvetica,sans-Serif" font-size="10.00">/toolbox/library/src/SetMotor</text>
<text text-anchor="middle" x="3031" y="-98" font-family="Helvetica,sans-Serif" font-size="10.00">Parameters.cpp</text>
</a>
</g>
</g>
<!-- Node1&#45;&gt;Node22 -->
<g id="edge22" class="edge"><title>Node1&#45;&gt;Node22</title>
<path fill="none" stroke="midnightblue" d="M1985.74,-204.181C2184.68,-198.483 2764.91,-179.228 2951,-144 2954.16,-143.402 2957.36,-142.716 2960.58,-141.959"/>
<polygon fill="midnightblue" stroke="midnightblue" points="1985.61,-200.683 1975.71,-204.466 1985.81,-207.68 1985.61,-200.683"/>
</g>
<!-- Node23 -->
<g id="node23" class="node"><title>Node23</title>
<g id="a_node23"><a xlink:href="_set_references_8cpp.html" target="_top" xlink:title="/home/travis/build\l/robotology/wb&#45;toolbox\l/toolbox/library/src/SetReferences.cpp">
<polygon fill="none" stroke="black" points="3119,-96.5 3119,-137.5 3303,-137.5 3303,-96.5 3119,-96.5"/>
<text text-anchor="start" x="3127" y="-125.5" font-family="Helvetica,sans-Serif" font-size="10.00">/home/travis/build</text>
<text text-anchor="start" x="3127" y="-114.5" font-family="Helvetica,sans-Serif" font-size="10.00">/robotology/wb&#45;toolbox</text>
<text text-anchor="middle" x="3211" y="-103.5" font-family="Helvetica,sans-Serif" font-size="10.00">/toolbox/library/src/SetReferences.cpp</text>
</a>
</g>
</g>
<!-- Node1&#45;&gt;Node23 -->
<g id="edge23" class="edge"><title>Node1&#45;&gt;Node23</title>
<path fill="none" stroke="midnightblue" d="M1985.72,-204.26C2204.47,-198.358 2890.72,-177.581 3110,-144 3120.65,-142.369 3131.8,-140.092 3142.65,-137.557"/>
<polygon fill="midnightblue" stroke="midnightblue" points="1985.56,-200.763 1975.66,-204.53 1985.75,-207.76 1985.56,-200.763"/>
</g>
<!-- Node24 -->
<g id="node24" class="node"><title>Node24</title>
<g id="a_node24"><a xlink:href="_w_b_block_8cpp.html" target="_top" xlink:title="/home/travis/build\l/robotology/wb&#45;toolbox\l/toolbox/library/src/WBBlock.cpp">
<polygon fill="none" stroke="black" points="3321,-96.5 3321,-137.5 3481,-137.5 3481,-96.5 3321,-96.5"/>
<text text-anchor="start" x="3329" y="-125.5" font-family="Helvetica,sans-Serif" font-size="10.00">/home/travis/build</text>
<text text-anchor="start" x="3329" y="-114.5" font-family="Helvetica,sans-Serif" font-size="10.00">/robotology/wb&#45;toolbox</text>
<text text-anchor="middle" x="3401" y="-103.5" font-family="Helvetica,sans-Serif" font-size="10.00">/toolbox/library/src/WBBlock.cpp</text>
</a>
</g>
</g>
<!-- Node1&#45;&gt;Node24 -->
<g id="edge24" class="edge"><title>Node1&#45;&gt;Node24</title>
<path fill="none" stroke="midnightblue" d="M1985.88,-205.134C2228.51,-201.701 3052.25,-187.076 3312,-144 3321.53,-142.42 3331.48,-140.152 3341.13,-137.606"/>
<polygon fill="midnightblue" stroke="midnightblue" points="1985.73,-201.635 1975.78,-205.275 1985.83,-208.634 1985.73,-201.635"/>
</g>
<!-- Node25 -->
<g id="node25" class="node"><title>Node25</title>
<g id="a_node25"><a xlink:href="_yarp_clock_8cpp.html" target="_top" xlink:title="/home/travis/build\l/robotology/wb&#45;toolbox\l/toolbox/library/src/YarpClock.cpp">
<polygon fill="none" stroke="black" points="3499,-96.5 3499,-137.5 3663,-137.5 3663,-96.5 3499,-96.5"/>
<text text-anchor="start" x="3507" y="-125.5" font-family="Helvetica,sans-Serif" font-size="10.00">/home/travis/build</text>
<text text-anchor="start" x="3507" y="-114.5" font-family="Helvetica,sans-Serif" font-size="10.00">/robotology/wb&#45;toolbox</text>
<text text-anchor="middle" x="3581" y="-103.5" font-family="Helvetica,sans-Serif" font-size="10.00">/toolbox/library/src/YarpClock.cpp</text>
</a>
</g>
</g>
<!-- Node1&#45;&gt;Node25 -->
<g id="edge25" class="edge"><title>Node1&#45;&gt;Node25</title>
<path fill="none" stroke="midnightblue" d="M1986.02,-205.476C2248.27,-203.123 3193.76,-191.461 3490,-144 3499.9,-142.414 3510.24,-140.108 3520.26,-137.515"/>
<polygon fill="midnightblue" stroke="midnightblue" points="1985.85,-201.978 1975.88,-205.566 1985.91,-208.977 1985.85,-201.978"/>
</g>
<!-- Node26 -->
<g id="node26" class="node"><title>Node26</title>
<g id="a_node26"><a xlink:href="_yarp_read_8cpp.html" target="_top" xlink:title="/home/travis/build\l/robotology/wb&#45;toolbox\l/toolbox/library/src/YarpRead.cpp">
<polygon fill="none" stroke="black" points="3681,-96.5 3681,-137.5 3843,-137.5 3843,-96.5 3681,-96.5"/>
<text text-anchor="start" x="3689" y="-125.5" font-family="Helvetica,sans-Serif" font-size="10.00">/home/travis/build</text>
<text text-anchor="start" x="3689" y="-114.5" font-family="Helvetica,sans-Serif" font-size="10.00">/robotology/wb&#45;toolbox</text>
<text text-anchor="middle" x="3762" y="-103.5" font-family="Helvetica,sans-Serif" font-size="10.00">/toolbox/library/src/YarpRead.cpp</text>
</a>
</g>
</g>
<!-- Node1&#45;&gt;Node26 -->
<g id="edge26" class="edge"><title>Node1&#45;&gt;Node26</title>
<path fill="none" stroke="midnightblue" d="M1985.84,-205.827C2266.58,-204.769 3338.37,-197.254 3672,-144 3681.8,-142.436 3692.04,-140.141 3701.95,-137.553"/>
<polygon fill="midnightblue" stroke="midnightblue" points="1985.78,-202.327 1975.79,-205.864 1985.81,-209.327 1985.78,-202.327"/>
</g>
<!-- Node27 -->
<g id="node27" class="node"><title>Node27</title>
<g id="a_node27"><a xlink:href="_yarp_write_8cpp.html" target="_top" xlink:title="/home/travis/build\l/robotology/wb&#45;toolbox\l/toolbox/library/src/YarpWrite.cpp">
<polygon fill="none" stroke="black" points="3861,-96.5 3861,-137.5 4023,-137.5 4023,-96.5 3861,-96.5"/>
<text text-anchor="start" x="3869" y="-125.5" font-family="Helvetica,sans-Serif" font-size="10.00">/home/travis/build</text>
<text text-anchor="start" x="3869" y="-114.5" font-family="Helvetica,sans-Serif" font-size="10.00">/robotology/wb&#45;toolbox</text>
<text text-anchor="middle" x="3942" y="-103.5" font-family="Helvetica,sans-Serif" font-size="10.00">/toolbox/library/src/YarpWrite.cpp</text>
</a>
</g>
</g>
<!-- Node1&#45;&gt;Node27 -->
<g id="edge27" class="edge"><title>Node1&#45;&gt;Node27</title>
<path fill="none" stroke="midnightblue" d="M1985.77,-206.088C2284,-206.126 3481.23,-202.557 3852,-144 3861.8,-142.452 3872.04,-140.166 3881.95,-137.581"/>
<polygon fill="midnightblue" stroke="midnightblue" points="1985.54,-202.588 1975.54,-206.085 1985.54,-209.588 1985.54,-202.588"/>
</g>
<!-- Node3 -->
<g id="node3" class="node"><title>Node3</title>
<g id="a_node3"><a xlink:href="_coder_block_information_8cpp.html" target="_top" xlink:title="/home/travis/build\l/robotology/wb&#45;toolbox\l/toolbox/core/src/CoderBlock\lInformation.cpp">
<polygon fill="none" stroke="black" points="-0.5,-1 -0.5,-53 142.5,-53 142.5,-1 -0.5,-1"/>
<text text-anchor="start" x="7.5" y="-41" font-family="Helvetica,sans-Serif" font-size="10.00">/home/travis/build</text>
<text text-anchor="start" x="7.5" y="-30" font-family="Helvetica,sans-Serif" font-size="10.00">/robotology/wb&#45;toolbox</text>
<text text-anchor="start" x="7.5" y="-19" font-family="Helvetica,sans-Serif" font-size="10.00">/toolbox/core/src/CoderBlock</text>
<text text-anchor="middle" x="71" y="-8" font-family="Helvetica,sans-Serif" font-size="10.00">Information.cpp</text>
</a>
</g>
</g>
<!-- Node2&#45;&gt;Node3 -->
<g id="edge2" class="edge"><title>Node2&#45;&gt;Node3</title>
<path fill="none" stroke="midnightblue" d="M80.5435,-80.4892C78.8743,-71.3088 77.112,-61.616 75.5622,-53.0921"/>
<polygon fill="midnightblue" stroke="midnightblue" points="77.1397,-81.3342 82.3721,-90.5468 84.0267,-80.0819 77.1397,-81.3342"/>
</g>
<!-- Node4&#45;&gt;Node5 -->
<g id="edge4" class="edge"><title>Node4&#45;&gt;Node5</title>
<path fill="none" stroke="midnightblue" d="M297.453,-83.6584C286.727,-73.6172 275.069,-62.7029 264.941,-53.221"/>
<polygon fill="midnightblue" stroke="midnightblue" points="295.371,-86.5035 305.063,-90.7827 300.155,-81.3934 295.371,-86.5035"/>
</g>
<!-- Node6 -->
<g id="node6" class="node"><title>Node6</title>
<g id="a_node6"><a xlink:href="_w_b_toolbox_8cpp.html" target="_top" xlink:title="/home/travis/build\l/robotology/wb&#45;toolbox\l/toolbox/core/src/WBToolbox.cpp">
<polygon fill="none" stroke="black" points="334,-6.5 334,-47.5 496,-47.5 496,-6.5 334,-6.5"/>
<text text-anchor="start" x="342" y="-35.5" font-family="Helvetica,sans-Serif" font-size="10.00">/home/travis/build</text>
<text text-anchor="start" x="342" y="-24.5" font-family="Helvetica,sans-Serif" font-size="10.00">/robotology/wb&#45;toolbox</text>
<text text-anchor="middle" x="415" y="-13.5" font-family="Helvetica,sans-Serif" font-size="10.00">/toolbox/core/src/WBToolbox.cpp</text>
</a>
</g>
</g>
<!-- Node4&#45;&gt;Node6 -->
<g id="edge5" class="edge"><title>Node4&#45;&gt;Node6</title>
<path fill="none" stroke="midnightblue" d="M362.885,-83.2545C374.22,-71.2371 386.687,-58.019 396.584,-47.5249"/>
<polygon fill="midnightblue" stroke="midnightblue" points="360.322,-80.8705 356.007,-90.5468 365.415,-85.6735 360.322,-80.8705"/>
</g>
</g>
</svg>
