<?xml version="1.0" encoding="UTF-8" standalone="no"?>
<!DOCTYPE svg PUBLIC "-//W3C//DTD SVG 1.1//EN"
 "http://www.w3.org/Graphics/SVG/1.1/DTD/svg11.dtd">
<!-- Generated by graphviz version 2.36.0 (20140111.2315)
 -->
<!-- Title: /home/travis/build/robotology/wb&#45;toolbox/toolbox/include/base/SimulinkBlockInformation.h Pages: 1 -->
<svg width="502pt" height="174pt"
 viewBox="0.00 0.00 502.00 174.00" xmlns="http://www.w3.org/2000/svg" xmlns:xlink="http://www.w3.org/1999/xlink">
<g id="graph0" class="graph" transform="scale(1 1) rotate(0) translate(4 170)">
<title>/home/travis/build/robotology/wb&#45;toolbox/toolbox/include/base/SimulinkBlockInformation.h</title>
<!-- Node1 -->
<g id="node1" class="node"><title>Node1</title>
<polygon fill="#bfbfbf" stroke="black" points="208.5,-113 208.5,-165 347.5,-165 347.5,-113 208.5,-113"/>
<text text-anchor="start" x="216.5" y="-153" font-family="Helvetica,sans-Serif" font-size="10.00">/home/travis/build</text>
<text text-anchor="start" x="216.5" y="-142" font-family="Helvetica,sans-Serif" font-size="10.00">/robotology/wb&#45;toolbox</text>
<text text-anchor="start" x="216.5" y="-131" font-family="Helvetica,sans-Serif" font-size="10.00">/toolbox/include/base</text>
<text text-anchor="middle" x="278" y="-120" font-family="Helvetica,sans-Serif" font-size="10.00">/SimulinkBlockInformation.h</text>
</g>
<!-- Node2 -->
<g id="node2" class="node"><title>Node2</title>
<polygon fill="none" stroke="#bfbfbf" points="0,-56.5 0,-75.5 64,-75.5 64,-56.5 0,-56.5"/>
<text text-anchor="middle" x="32" y="-63.5" font-family="Helvetica,sans-Serif" font-size="10.00">AnyType.h</text>
</g>
<!-- Node1&#45;&gt;Node2 -->
<g id="edge1" class="edge"><title>Node1&#45;&gt;Node2</title>
<path fill="none" stroke="midnightblue" d="M208.493,-117.939C164.207,-105.157 108.431,-89.0594 71.5682,-78.4201"/>
<polygon fill="midnightblue" stroke="midnightblue" points="72.2761,-74.9816 61.6977,-75.5713 70.335,-81.7071 72.2761,-74.9816"/>
</g>
<!-- Node3 -->
<g id="node3" class="node"><title>Node3</title>
<g id="a_node3"><a xlink:href="_block_information_8h.html" target="_top" xlink:title="BlockInformation.h">
<polygon fill="none" stroke="black" points="152,-56.5 152,-75.5 250,-75.5 250,-56.5 152,-56.5"/>
<text text-anchor="middle" x="201" y="-63.5" font-family="Helvetica,sans-Serif" font-size="10.00">BlockInformation.h</text>
</a>
</g>
</g>
<!-- Node1&#45;&gt;Node3 -->
<g id="edge2" class="edge"><title>Node1&#45;&gt;Node3</title>
<path fill="none" stroke="midnightblue" d="M250.636,-112.768C239.804,-102.78 227.684,-91.6051 218.133,-82.798"/>
<polygon fill="midnightblue" stroke="midnightblue" points="220.222,-79.9629 210.497,-75.7572 215.476,-85.1091 220.222,-79.9629"/>
</g>
<!-- Node5 -->
<g id="node5" class="node"><title>Node5</title>
<polygon fill="none" stroke="#bfbfbf" points="262.5,-0.5 262.5,-19.5 303.5,-19.5 303.5,-0.5 262.5,-0.5"/>
<text text-anchor="middle" x="283" y="-7.5" font-family="Helvetica,sans-Serif" font-size="10.00">string</text>
</g>
<!-- Node1&#45;&gt;Node5 -->
<g id="edge14" class="edge"><title>Node1&#45;&gt;Node5</title>
<path fill="none" stroke="midnightblue" d="M278.988,-112.909C279.952,-88.4088 281.398,-51.6895 282.265,-29.6639"/>
<polygon fill="midnightblue" stroke="midnightblue" points="285.764,-29.7578 282.66,-19.6278 278.77,-29.4824 285.764,-29.7578"/>
</g>
<!-- Node8 -->
<g id="node8" class="node"><title>Node8</title>
<polygon fill="none" stroke="#bfbfbf" points="322,-0.5 322,-19.5 366,-19.5 366,-0.5 322,-0.5"/>
<text text-anchor="middle" x="344" y="-7.5" font-family="Helvetica,sans-Serif" font-size="10.00">vector</text>
</g>
<!-- Node1&#45;&gt;Node8 -->
<g id="edge15" class="edge"><title>Node1&#45;&gt;Node8</title>
<path fill="none" stroke="midnightblue" d="M345.526,-112.969C361.205,-103.815 375.941,-91.7184 385,-76 395.005,-58.6386 379.16,-39.2762 364.351,-26.2362"/>
<polygon fill="midnightblue" stroke="midnightblue" points="366.348,-23.3463 356.402,-19.695 361.9,-28.7516 366.348,-23.3463"/>
</g>
<!-- Node9 -->
<g id="node9" class="node"><title>Node9</title>
<g id="a_node9"><a xlink:href="_parameter_8h.html" target="_top" xlink:title="Parameter.h">
<polygon fill="none" stroke="black" points="306,-56.5 306,-75.5 376,-75.5 376,-56.5 306,-56.5"/>
<text text-anchor="middle" x="341" y="-63.5" font-family="Helvetica,sans-Serif" font-size="10.00">Parameter.h</text>
</a>
</g>
</g>
<!-- Node1&#45;&gt;Node9 -->
<g id="edge8" class="edge"><title>Node1&#45;&gt;Node9</title>
<path fill="none" stroke="midnightblue" d="M300.389,-112.768C309.073,-102.982 318.767,-92.0561 326.506,-83.3346"/>
<polygon fill="midnightblue" stroke="midnightblue" points="329.21,-85.5601 333.23,-75.7572 323.974,-80.9141 329.21,-85.5601"/>
</g>
<!-- Node10 -->
<g id="node10" class="node"><title>Node10</title>
<g id="a_node10"><a xlink:href="_signal_8h.html" target="_top" xlink:title="Signal.h">
<polygon fill="none" stroke="black" points="82,-56.5 82,-75.5 134,-75.5 134,-56.5 82,-56.5"/>
<text text-anchor="middle" x="108" y="-63.5" font-family="Helvetica,sans-Serif" font-size="10.00">Signal.h</text>
</a>
</g>
</g>
<!-- Node1&#45;&gt;Node10 -->
<g id="edge11" class="edge"><title>Node1&#45;&gt;Node10</title>
<path fill="none" stroke="midnightblue" d="M218.064,-112.968C191.04,-101.681 160.303,-88.8441 138.192,-79.6097"/>
<polygon fill="midnightblue" stroke="midnightblue" points="139.261,-76.2632 128.685,-75.6389 136.563,-82.7225 139.261,-76.2632"/>
</g>
<!-- Node11 -->
<g id="node11" class="node"><title>Node11</title>
<polygon fill="none" stroke="#bfbfbf" points="432,-56.5 432,-75.5 494,-75.5 494,-56.5 432,-56.5"/>
<text text-anchor="middle" x="463" y="-63.5" font-family="Helvetica,sans-Serif" font-size="10.00">simstruc.h</text>
</g>
<!-- Node1&#45;&gt;Node11 -->
<g id="edge13" class="edge"><title>Node1&#45;&gt;Node11</title>
<path fill="none" stroke="midnightblue" d="M343.224,-112.968C373.031,-101.529 406.987,-88.4969 431.114,-79.2373"/>
<polygon fill="midnightblue" stroke="midnightblue" points="432.408,-82.4896 440.49,-75.6389 429.9,-75.9544 432.408,-82.4896"/>
</g>
<!-- Node4 -->
<g id="node4" class="node"><title>Node4</title>
<polygon fill="none" stroke="#bfbfbf" points="78,-0.5 78,-19.5 130,-19.5 130,-0.5 78,-0.5"/>
<text text-anchor="middle" x="104" y="-7.5" font-family="Helvetica,sans-Serif" font-size="10.00">memory</text>
</g>
<!-- Node3&#45;&gt;Node4 -->
<g id="edge3" class="edge"><title>Node3&#45;&gt;Node4</title>
<path fill="none" stroke="midnightblue" d="M185.415,-56.324C170.001,-47.7428 146.188,-34.486 128.29,-24.5224"/>
<polygon fill="midnightblue" stroke="midnightblue" points="129.986,-21.4606 119.546,-19.6545 126.581,-27.5767 129.986,-21.4606"/>
</g>
<!-- Node3&#45;&gt;Node5 -->
<g id="edge4" class="edge"><title>Node3&#45;&gt;Node5</title>
<path fill="none" stroke="midnightblue" d="M214.175,-56.324C226.847,-47.979 246.233,-35.2122 261.206,-25.3524"/>
<polygon fill="midnightblue" stroke="midnightblue" points="263.431,-28.0776 269.858,-19.6545 259.581,-22.2313 263.431,-28.0776"/>
</g>
<!-- Node6 -->
<g id="node6" class="node"><title>Node6</title>
<polygon fill="none" stroke="#bfbfbf" points="206,-0.5 206,-19.5 244,-19.5 244,-0.5 206,-0.5"/>
<text text-anchor="middle" x="225" y="-7.5" font-family="Helvetica,sans-Serif" font-size="10.00">tuple</text>
</g>
<!-- Node3&#45;&gt;Node6 -->
<g id="edge5" class="edge"><title>Node3&#45;&gt;Node6</title>
<path fill="none" stroke="midnightblue" d="M204.963,-56.083C208.213,-48.77 212.919,-38.1814 216.954,-29.1034"/>
<polygon fill="midnightblue" stroke="midnightblue" points="220.248,-30.3107 221.111,-19.7511 213.851,-27.4677 220.248,-30.3107"/>
</g>
<!-- Node7 -->
<g id="node7" class="node"><title>Node7</title>
<polygon fill="none" stroke="#bfbfbf" points="148,-0.5 148,-19.5 188,-19.5 188,-0.5 148,-0.5"/>
<text text-anchor="middle" x="168" y="-7.5" font-family="Helvetica,sans-Serif" font-size="10.00">utility</text>
</g>
<!-- Node3&#45;&gt;Node7 -->
<g id="edge6" class="edge"><title>Node3&#45;&gt;Node7</title>
<path fill="none" stroke="midnightblue" d="M195.551,-56.083C190.986,-48.6127 184.332,-37.7244 178.707,-28.5199"/>
<polygon fill="midnightblue" stroke="midnightblue" points="181.549,-26.4588 173.348,-19.7511 175.576,-30.109 181.549,-26.4588"/>
</g>
<!-- Node3&#45;&gt;Node8 -->
<g id="edge7" class="edge"><title>Node3&#45;&gt;Node8</title>
<path fill="none" stroke="midnightblue" d="M223.659,-56.4435C247.542,-47.4249 285.351,-33.1472 312.211,-23.0043"/>
<polygon fill="midnightblue" stroke="midnightblue" points="313.798,-26.1461 321.917,-19.339 311.325,-19.5975 313.798,-26.1461"/>
</g>
<!-- Node9&#45;&gt;Node5 -->
<g id="edge9" class="edge"><title>Node9&#45;&gt;Node5</title>
<path fill="none" stroke="midnightblue" d="M331.681,-56.324C323.107,-48.3414 310.188,-36.3128 299.812,-26.6529"/>
<polygon fill="midnightblue" stroke="midnightblue" points="302.192,-24.0865 292.488,-19.8339 297.422,-29.2098 302.192,-24.0865"/>
</g>
<!-- Node9&#45;&gt;Node8 -->
<g id="edge10" class="edge"><title>Node9&#45;&gt;Node8</title>
<path fill="none" stroke="midnightblue" d="M341.495,-56.083C341.889,-49.0059 342.452,-38.8611 342.945,-29.9865"/>
<polygon fill="midnightblue" stroke="midnightblue" points="346.454,-29.9299 343.514,-19.7511 339.464,-29.5415 346.454,-29.9299"/>
</g>
<!-- Node10&#45;&gt;Node4 -->
<g id="edge12" class="edge"><title>Node10&#45;&gt;Node4</title>
<path fill="none" stroke="midnightblue" d="M107.339,-56.083C106.815,-49.0059 106.064,-38.8611 105.406,-29.9865"/>
<polygon fill="midnightblue" stroke="midnightblue" points="108.877,-29.4652 104.648,-19.7511 101.897,-29.9823 108.877,-29.4652"/>
</g>
</g>
</svg>
