<?xml version="1.0" encoding="UTF-8" standalone="no"?>
<!DOCTYPE svg PUBLIC "-//W3C//DTD SVG 1.1//EN"
 "http://www.w3.org/Graphics/SVG/1.1/DTD/svg11.dtd">
<!-- Generated by graphviz version 2.36.0 (20140111.2315)
 -->
<!-- Title: /home/travis/build/robotology/wb&#45;toolbox/toolbox/include/base/SimulinkBlockInformation.h Pages: 1 -->
<svg width="376pt" height="174pt"
 viewBox="0.00 0.00 376.00 174.00" xmlns="http://www.w3.org/2000/svg" xmlns:xlink="http://www.w3.org/1999/xlink">
<g id="graph0" class="graph" transform="scale(1 1) rotate(0) translate(4 170)">
<title>/home/travis/build/robotology/wb&#45;toolbox/toolbox/include/base/SimulinkBlockInformation.h</title>
<!-- Node1 -->
<g id="node1" class="node"><title>Node1</title>
<polygon fill="#bfbfbf" stroke="black" points="131.5,-113 131.5,-165 270.5,-165 270.5,-113 131.5,-113"/>
<text text-anchor="start" x="139.5" y="-153" font-family="Helvetica,sans-Serif" font-size="10.00">/home/travis/build</text>
<text text-anchor="start" x="139.5" y="-142" font-family="Helvetica,sans-Serif" font-size="10.00">/robotology/wb&#45;toolbox</text>
<text text-anchor="start" x="139.5" y="-131" font-family="Helvetica,sans-Serif" font-size="10.00">/toolbox/include/base</text>
<text text-anchor="middle" x="201" y="-120" font-family="Helvetica,sans-Serif" font-size="10.00">/SimulinkBlockInformation.h</text>
</g>
<!-- Node2 -->
<g id="node2" class="node"><title>Node2</title>
<polygon fill="none" stroke="#bfbfbf" points="0,-56.5 0,-75.5 64,-75.5 64,-56.5 0,-56.5"/>
<text text-anchor="middle" x="32" y="-63.5" font-family="Helvetica,sans-Serif" font-size="10.00">AnyType.h</text>
</g>
<!-- Node1&#45;&gt;Node2 -->
<g id="edge1" class="edge"><title>Node1&#45;&gt;Node2</title>
<path fill="none" stroke="midnightblue" d="M141.417,-112.968C114.551,-101.681 83.9951,-88.8441 62.0146,-79.6097"/>
<polygon fill="midnightblue" stroke="midnightblue" points="63.1381,-76.2854 52.563,-75.6389 60.4268,-82.739 63.1381,-76.2854"/>
</g>
<!-- Node3 -->
<g id="node3" class="node"><title>Node3</title>
<g id="a_node3"><a xlink:href="_block_information_8h.html" target="_top" xlink:title="BlockInformation.h">
<polygon fill="none" stroke="black" points="152,-56.5 152,-75.5 250,-75.5 250,-56.5 152,-56.5"/>
<text text-anchor="middle" x="201" y="-63.5" font-family="Helvetica,sans-Serif" font-size="10.00">BlockInformation.h</text>
</a>
</g>
</g>
<!-- Node1&#45;&gt;Node3 -->
<g id="edge2" class="edge"><title>Node1&#45;&gt;Node3</title>
<path fill="none" stroke="midnightblue" d="M201,-112.768C201,-103.89 201,-94.0737 201,-85.8165"/>
<polygon fill="midnightblue" stroke="midnightblue" points="204.5,-85.7571 201,-75.7572 197.5,-85.7572 204.5,-85.7571"/>
</g>
<!-- Node7 -->
<g id="node7" class="node"><title>Node7</title>
<polygon fill="none" stroke="#bfbfbf" points="263,-0.5 263,-19.5 307,-19.5 307,-0.5 263,-0.5"/>
<text text-anchor="middle" x="285" y="-7.5" font-family="Helvetica,sans-Serif" font-size="10.00">vector</text>
</g>
<!-- Node1&#45;&gt;Node7 -->
<g id="edge10" class="edge"><title>Node1&#45;&gt;Node7</title>
<path fill="none" stroke="midnightblue" d="M227.89,-112.838C238.237,-102.178 249.577,-89.1838 258,-76 267.344,-61.3748 274.631,-42.9701 279.267,-29.4815"/>
<polygon fill="midnightblue" stroke="midnightblue" points="282.624,-30.4767 282.405,-19.8841 275.971,-28.3011 282.624,-30.4767"/>
</g>
<!-- Node8 -->
<g id="node8" class="node"><title>Node8</title>
<g id="a_node8"><a xlink:href="_signal_8h.html" target="_top" xlink:title="Signal.h">
<polygon fill="none" stroke="black" points="82,-56.5 82,-75.5 134,-75.5 134,-56.5 82,-56.5"/>
<text text-anchor="middle" x="108" y="-63.5" font-family="Helvetica,sans-Serif" font-size="10.00">Signal.h</text>
</a>
</g>
</g>
<!-- Node1&#45;&gt;Node8 -->
<g id="edge7" class="edge"><title>Node1&#45;&gt;Node8</title>
<path fill="none" stroke="midnightblue" d="M168.212,-112.968C154.71,-102.66 139.514,-91.0589 127.766,-82.09"/>
<polygon fill="midnightblue" stroke="midnightblue" points="129.612,-79.0958 119.539,-75.8095 125.364,-84.6597 129.612,-79.0958"/>
</g>
<!-- Node9 -->
<g id="node9" class="node"><title>Node9</title>
<polygon fill="none" stroke="#bfbfbf" points="306,-56.5 306,-75.5 368,-75.5 368,-56.5 306,-56.5"/>
<text text-anchor="middle" x="337" y="-63.5" font-family="Helvetica,sans-Serif" font-size="10.00">simstruc.h</text>
</g>
<!-- Node1&#45;&gt;Node9 -->
<g id="edge9" class="edge"><title>Node1&#45;&gt;Node9</title>
<path fill="none" stroke="midnightblue" d="M248.949,-112.968C269.984,-101.986 293.831,-89.5369 311.397,-80.3662"/>
<polygon fill="midnightblue" stroke="midnightblue" points="313.207,-83.3695 320.452,-75.6389 309.968,-77.1642 313.207,-83.3695"/>
</g>
<!-- Node4 -->
<g id="node4" class="node"><title>Node4</title>
<polygon fill="none" stroke="#bfbfbf" points="75,-0.5 75,-19.5 127,-19.5 127,-0.5 75,-0.5"/>
<text text-anchor="middle" x="101" y="-7.5" font-family="Helvetica,sans-Serif" font-size="10.00">memory</text>
</g>
<!-- Node3&#45;&gt;Node4 -->
<g id="edge3" class="edge"><title>Node3&#45;&gt;Node4</title>
<path fill="none" stroke="midnightblue" d="M184.933,-56.324C169.042,-47.7428 144.493,-34.486 126.042,-24.5224"/>
<polygon fill="midnightblue" stroke="midnightblue" points="127.489,-21.3264 117.027,-19.6545 124.163,-27.4857 127.489,-21.3264"/>
</g>
<!-- Node5 -->
<g id="node5" class="node"><title>Node5</title>
<polygon fill="none" stroke="#bfbfbf" points="145.5,-0.5 145.5,-19.5 186.5,-19.5 186.5,-0.5 145.5,-0.5"/>
<text text-anchor="middle" x="166" y="-7.5" font-family="Helvetica,sans-Serif" font-size="10.00">string</text>
</g>
<!-- Node3&#45;&gt;Node5 -->
<g id="edge4" class="edge"><title>Node3&#45;&gt;Node5</title>
<path fill="none" stroke="midnightblue" d="M195.22,-56.083C190.328,-48.5341 183.173,-37.4948 177.167,-28.2298"/>
<polygon fill="midnightblue" stroke="midnightblue" points="180.048,-26.239 171.672,-19.7511 174.174,-30.0463 180.048,-26.239"/>
</g>
<!-- Node6 -->
<g id="node6" class="node"><title>Node6</title>
<polygon fill="none" stroke="#bfbfbf" points="205,-0.5 205,-19.5 245,-19.5 245,-0.5 205,-0.5"/>
<text text-anchor="middle" x="225" y="-7.5" font-family="Helvetica,sans-Serif" font-size="10.00">utility</text>
</g>
<!-- Node3&#45;&gt;Node6 -->
<g id="edge5" class="edge"><title>Node3&#45;&gt;Node6</title>
<path fill="none" stroke="midnightblue" d="M204.963,-56.083C208.213,-48.77 212.919,-38.1814 216.954,-29.1034"/>
<polygon fill="midnightblue" stroke="midnightblue" points="220.248,-30.3107 221.111,-19.7511 213.851,-27.4677 220.248,-30.3107"/>
</g>
<!-- Node3&#45;&gt;Node7 -->
<g id="edge6" class="edge"><title>Node3&#45;&gt;Node7</title>
<path fill="none" stroke="midnightblue" d="M214.496,-56.324C227.6,-47.9002 247.712,-34.9709 263.107,-25.0741"/>
<polygon fill="midnightblue" stroke="midnightblue" points="265.018,-28.0063 271.537,-19.6545 261.233,-22.118 265.018,-28.0063"/>
</g>
<!-- Node8&#45;&gt;Node4 -->
<g id="edge8" class="edge"><title>Node8&#45;&gt;Node4</title>
<path fill="none" stroke="midnightblue" d="M106.844,-56.083C105.916,-48.9272 104.582,-38.6353 103.423,-29.6911"/>
<polygon fill="midnightblue" stroke="midnightblue" points="106.891,-29.2181 102.134,-19.7511 99.9491,-30.1181 106.891,-29.2181"/>
</g>
</g>
</svg>
