<?xml version="1.0" encoding="UTF-8" standalone="no"?>
<!DOCTYPE svg PUBLIC "-//W3C//DTD SVG 1.1//EN"
 "http://www.w3.org/Graphics/SVG/1.1/DTD/svg11.dtd">
<!-- Generated by graphviz version 2.36.0 (20140111.2315)
 -->
<!-- Title: /home/travis/build/robotology/wb&#45;toolbox/toolbox/src/SimulatorSynchronizer.cpp Pages: 1 -->
<svg width="993pt" height="274pt"
 viewBox="0.00 0.00 993.45 274.00" xmlns="http://www.w3.org/2000/svg" xmlns:xlink="http://www.w3.org/1999/xlink">
<g id="graph0" class="graph" transform="scale(1 1) rotate(0) translate(4 270)">
<title>/home/travis/build/robotology/wb&#45;toolbox/toolbox/src/SimulatorSynchronizer.cpp</title>
<!-- Node1 -->
<g id="node1" class="node"><title>Node1</title>
<polygon fill="#bfbfbf" stroke="black" points="403.45,-224.5 403.45,-265.5 591.45,-265.5 591.45,-224.5 403.45,-224.5"/>
<text text-anchor="start" x="411.45" y="-253.5" font-family="Helvetica,sans-Serif" font-size="10.00">/home/travis/build</text>
<text text-anchor="start" x="411.45" y="-242.5" font-family="Helvetica,sans-Serif" font-size="10.00">/robotology/wb&#45;toolbox</text>
<text text-anchor="middle" x="497.45" y="-231.5" font-family="Helvetica,sans-Serif" font-size="10.00">/toolbox/src/SimulatorSynchronizer.cpp</text>
</g>
<!-- Node2 -->
<g id="node2" class="node"><title>Node2</title>
<g id="a_node2"><a xlink:href="_simulator_synchronizer_8h.html" target="_top" xlink:title="SimulatorSynchronizer.h">
<polygon fill="none" stroke="black" points="243.95,-168.5 243.95,-187.5 366.95,-187.5 366.95,-168.5 243.95,-168.5"/>
<text text-anchor="middle" x="305.45" y="-175.5" font-family="Helvetica,sans-Serif" font-size="10.00">SimulatorSynchronizer.h</text>
</a>
</g>
</g>
<!-- Node1&#45;&gt;Node2 -->
<g id="edge1" class="edge"><title>Node1&#45;&gt;Node2</title>
<path fill="none" stroke="midnightblue" d="M439.844,-224.498C407.576,-213.574 368.38,-200.304 340.665,-190.922"/>
<polygon fill="midnightblue" stroke="midnightblue" points="341.603,-187.544 331.008,-187.652 339.358,-194.174 341.603,-187.544"/>
</g>
<!-- Node4 -->
<g id="node4" class="node"><title>Node4</title>
<g id="a_node4"><a xlink:href="_parameters_8h.html" target="_top" xlink:title="Parameters.h">
<polygon fill="none" stroke="black" points="177.95,-56.5 177.95,-75.5 252.95,-75.5 252.95,-56.5 177.95,-56.5"/>
<text text-anchor="middle" x="215.45" y="-63.5" font-family="Helvetica,sans-Serif" font-size="10.00">Parameters.h</text>
</a>
</g>
</g>
<!-- Node1&#45;&gt;Node4 -->
<g id="edge24" class="edge"><title>Node1&#45;&gt;Node4</title>
<path fill="none" stroke="midnightblue" d="M403.409,-235.191C337.613,-227.018 257.526,-212.358 234.45,-188 208.335,-160.434 209.408,-112.449 212.446,-85.9448"/>
<polygon fill="midnightblue" stroke="midnightblue" points="215.956,-86.1073 213.842,-75.7255 209.021,-85.1597 215.956,-86.1073"/>
</g>
<!-- Node8 -->
<g id="node8" class="node"><title>Node8</title>
<g id="a_node8"><a xlink:href="_block_information_8h.html" target="_top" xlink:title="BlockInformation.h">
<polygon fill="none" stroke="black" points="309.45,-56.5 309.45,-75.5 407.45,-75.5 407.45,-56.5 309.45,-56.5"/>
<text text-anchor="middle" x="358.45" y="-63.5" font-family="Helvetica,sans-Serif" font-size="10.00">BlockInformation.h</text>
</a>
</g>
</g>
<!-- Node1&#45;&gt;Node8 -->
<g id="edge12" class="edge"><title>Node1&#45;&gt;Node8</title>
<path fill="none" stroke="midnightblue" d="M482.044,-224.382C454.52,-189.333 397.374,-116.565 371.583,-83.7236"/>
<polygon fill="midnightblue" stroke="midnightblue" points="374.12,-81.2868 365.191,-75.5838 368.615,-85.6102 374.12,-81.2868"/>
</g>
<!-- Node10 -->
<g id="node10" class="node"><title>Node10</title>
<g id="a_node10"><a xlink:href="_log_8h.html" target="_top" xlink:title="Log.h">
<polygon fill="none" stroke="black" points="463.95,-56.5 463.95,-75.5 504.95,-75.5 504.95,-56.5 463.95,-56.5"/>
<text text-anchor="middle" x="484.45" y="-63.5" font-family="Helvetica,sans-Serif" font-size="10.00">Log.h</text>
</a>
</g>
</g>
<!-- Node1&#45;&gt;Node10 -->
<g id="edge17" class="edge"><title>Node1&#45;&gt;Node10</title>
<path fill="none" stroke="midnightblue" d="M488.619,-224.491C484.319,-213.928 479.617,-200.512 477.45,-188 471.247,-152.186 476.602,-109.614 480.741,-85.709"/>
<polygon fill="midnightblue" stroke="midnightblue" points="484.237,-86.0554 482.62,-75.5847 477.354,-84.7783 484.237,-86.0554"/>
</g>
<!-- Node12 -->
<g id="node12" class="node"><title>Node12</title>
<g id="a_node12"><a xlink:href="_parameter_8h.html" target="_top" xlink:title="Parameter.h">
<polygon fill="none" stroke="black" points="13.4501,-56.5 13.4501,-75.5 83.4501,-75.5 83.4501,-56.5 13.4501,-56.5"/>
<text text-anchor="middle" x="48.4501" y="-63.5" font-family="Helvetica,sans-Serif" font-size="10.00">Parameter.h</text>
</a>
</g>
</g>
<!-- Node1&#45;&gt;Node12 -->
<g id="edge21" class="edge"><title>Node1&#45;&gt;Node12</title>
<path fill="none" stroke="midnightblue" d="M403.288,-232.892C348.182,-224.49 277.961,-210.457 218.45,-188 171.876,-170.425 161.804,-161.148 121.45,-132 100.521,-116.883 78.6853,-96.7766 64.4124,-82.9504"/>
<polygon fill="midnightblue" stroke="midnightblue" points="66.5346,-80.129 56.9468,-75.6206 61.6305,-85.124 66.5346,-80.129"/>
</g>
<!-- Node13 -->
<g id="node13" class="node"><title>Node13</title>
<g id="a_node13"><a xlink:href="_clock_server_8h.html" target="_top" xlink:title="thrift/ClockServer.h">
<polygon fill="none" stroke="black" points="486.95,-168.5 486.95,-187.5 587.95,-187.5 587.95,-168.5 486.95,-168.5"/>
<text text-anchor="middle" x="537.45" y="-175.5" font-family="Helvetica,sans-Serif" font-size="10.00">thrift/ClockServer.h</text>
</a>
</g>
</g>
<!-- Node1&#45;&gt;Node13 -->
<g id="edge25" class="edge"><title>Node1&#45;&gt;Node13</title>
<path fill="none" stroke="midnightblue" d="M509.451,-224.498C514.994,-215.49 521.519,-204.888 526.875,-196.185"/>
<polygon fill="midnightblue" stroke="midnightblue" points="529.865,-198.003 532.125,-187.652 523.904,-194.335 529.865,-198.003"/>
</g>
<!-- Node16 -->
<g id="node16" class="node"><title>Node16</title>
<polygon fill="none" stroke="#bfbfbf" points="605.95,-168.5 605.95,-187.5 702.95,-187.5 702.95,-168.5 605.95,-168.5"/>
<text text-anchor="middle" x="654.45" y="-175.5" font-family="Helvetica,sans-Serif" font-size="10.00">yarp/os/Network.h</text>
</g>
<!-- Node1&#45;&gt;Node16 -->
<g id="edge28" class="edge"><title>Node1&#45;&gt;Node16</title>
<path fill="none" stroke="midnightblue" d="M544.555,-224.498C570.362,-213.813 601.589,-200.885 624.15,-191.545"/>
<polygon fill="midnightblue" stroke="midnightblue" points="625.65,-194.712 633.551,-187.652 622.973,-188.244 625.65,-194.712"/>
</g>
<!-- Node17 -->
<g id="node17" class="node"><title>Node17</title>
<polygon fill="none" stroke="#bfbfbf" points="721.45,-168.5 721.45,-187.5 799.45,-187.5 799.45,-168.5 721.45,-168.5"/>
<text text-anchor="middle" x="760.45" y="-175.5" font-family="Helvetica,sans-Serif" font-size="10.00">yarp/os/Port.h</text>
</g>
<!-- Node1&#45;&gt;Node17 -->
<g id="edge29" class="edge"><title>Node1&#45;&gt;Node17</title>
<path fill="none" stroke="midnightblue" d="M576.359,-224.498C622.055,-213.204 677.895,-199.403 716.012,-189.983"/>
<polygon fill="midnightblue" stroke="midnightblue" points="716.918,-193.364 725.786,-187.567 715.239,-186.569 716.918,-193.364"/>
</g>
<!-- Node18 -->
<g id="node18" class="node"><title>Node18</title>
<polygon fill="none" stroke="#bfbfbf" points="817.45,-168.5 817.45,-187.5 915.45,-187.5 915.45,-168.5 817.45,-168.5"/>
<text text-anchor="middle" x="866.45" y="-175.5" font-family="Helvetica,sans-Serif" font-size="10.00">yarp/os/WireLink.h</text>
</g>
<!-- Node1&#45;&gt;Node18 -->
<g id="edge30" class="edge"><title>Node1&#45;&gt;Node18</title>
<path fill="none" stroke="midnightblue" d="M591.519,-227.43C659.704,-215.419 749.781,-199.552 807.919,-189.31"/>
<polygon fill="midnightblue" stroke="midnightblue" points="808.793,-192.71 818.034,-187.529 807.579,-185.816 808.793,-192.71"/>
</g>
<!-- Node19 -->
<g id="node19" class="node"><title>Node19</title>
<polygon fill="none" stroke="#bfbfbf" points="933.45,-168.5 933.45,-187.5 985.45,-187.5 985.45,-168.5 933.45,-168.5"/>
<text text-anchor="middle" x="959.45" y="-175.5" font-family="Helvetica,sans-Serif" font-size="10.00">ostream</text>
</g>
<!-- Node1&#45;&gt;Node19 -->
<g id="edge31" class="edge"><title>Node1&#45;&gt;Node19</title>
<path fill="none" stroke="midnightblue" d="M591.854,-234.721C676.137,-225.716 803.059,-210.388 923.076,-187.853"/>
<polygon fill="midnightblue" stroke="midnightblue" points="924.009,-191.239 933.181,-185.936 922.704,-184.362 924.009,-191.239"/>
</g>
<!-- Node3 -->
<g id="node3" class="node"><title>Node3</title>
<g id="a_node3"><a xlink:href="_block_8h.html" target="_top" xlink:title="Block.h">
<polygon fill="none" stroke="black" points="130.45,-112.5 130.45,-131.5 180.45,-131.5 180.45,-112.5 130.45,-112.5"/>
<text text-anchor="middle" x="155.45" y="-119.5" font-family="Helvetica,sans-Serif" font-size="10.00">Block.h</text>
</a>
</g>
</g>
<!-- Node2&#45;&gt;Node3 -->
<g id="edge2" class="edge"><title>Node2&#45;&gt;Node3</title>
<path fill="none" stroke="midnightblue" d="M281.682,-168.444C256.557,-159.399 216.739,-145.064 188.55,-134.916"/>
<polygon fill="midnightblue" stroke="midnightblue" points="189.701,-131.611 179.107,-131.516 187.33,-138.197 189.701,-131.611"/>
</g>
<!-- Node5 -->
<g id="node5" class="node"><title>Node5</title>
<polygon fill="none" stroke="#bfbfbf" points="392.45,-0.5 392.45,-19.5 444.45,-19.5 444.45,-0.5 392.45,-0.5"/>
<text text-anchor="middle" x="418.45" y="-7.5" font-family="Helvetica,sans-Serif" font-size="10.00">memory</text>
</g>
<!-- Node2&#45;&gt;Node5 -->
<g id="edge9" class="edge"><title>Node2&#45;&gt;Node5</title>
<path fill="none" stroke="midnightblue" d="M321.047,-168.275C346.219,-153.21 395.038,-119.69 415.45,-76 422.174,-61.6073 422.416,-43.4133 421.269,-29.9371"/>
<polygon fill="midnightblue" stroke="midnightblue" points="424.734,-29.4364 420.09,-19.9138 417.782,-30.2543 424.734,-29.4364"/>
</g>
<!-- Node6 -->
<g id="node6" class="node"><title>Node6</title>
<polygon fill="none" stroke="#bfbfbf" points="227.95,-0.5 227.95,-19.5 268.95,-19.5 268.95,-0.5 227.95,-0.5"/>
<text text-anchor="middle" x="248.45" y="-7.5" font-family="Helvetica,sans-Serif" font-size="10.00">string</text>
</g>
<!-- Node2&#45;&gt;Node6 -->
<g id="edge10" class="edge"><title>Node2&#45;&gt;Node6</title>
<path fill="none" stroke="midnightblue" d="M302.386,-168.075C293.374,-141.832 266.836,-64.5453 254.671,-29.1165"/>
<polygon fill="midnightblue" stroke="midnightblue" points="257.95,-27.8894 251.392,-19.5681 251.33,-30.1628 257.95,-27.8894"/>
</g>
<!-- Node7 -->
<g id="node7" class="node"><title>Node7</title>
<polygon fill="none" stroke="#bfbfbf" points="89.4501,-0.5 89.4501,-19.5 133.45,-19.5 133.45,-0.5 89.4501,-0.5"/>
<text text-anchor="middle" x="111.45" y="-7.5" font-family="Helvetica,sans-Serif" font-size="10.00">vector</text>
</g>
<!-- Node2&#45;&gt;Node7 -->
<g id="edge11" class="edge"><title>Node2&#45;&gt;Node7</title>
<path fill="none" stroke="midnightblue" d="M257.625,-168.447C179.868,-153.398 31.9219,-119.605 4.4501,-76 -15.6714,-44.0617 40.7533,-25.5424 79.126,-16.9342"/>
<polygon fill="midnightblue" stroke="midnightblue" points="80.3308,-20.257 89.3917,-14.7661 78.8843,-13.4081 80.3308,-20.257"/>
</g>
<!-- Node3&#45;&gt;Node4 -->
<g id="edge3" class="edge"><title>Node3&#45;&gt;Node4</title>
<path fill="none" stroke="midnightblue" d="M165.09,-112.324C173.96,-104.341 187.325,-92.3128 198.058,-82.6529"/>
<polygon fill="midnightblue" stroke="midnightblue" points="200.543,-85.1251 205.635,-75.8339 195.86,-79.922 200.543,-85.1251"/>
</g>
<!-- Node3&#45;&gt;Node6 -->
<g id="edge7" class="edge"><title>Node3&#45;&gt;Node6</title>
<path fill="none" stroke="midnightblue" d="M154.997,-112.095C154.766,-98.6523 156.146,-72.9499 168.45,-56 180.579,-39.2907 200.924,-27.968 218.061,-20.8596"/>
<polygon fill="midnightblue" stroke="midnightblue" points="219.619,-24.0106 227.694,-17.1525 217.104,-17.4777 219.619,-24.0106"/>
</g>
<!-- Node3&#45;&gt;Node7 -->
<g id="edge8" class="edge"><title>Node3&#45;&gt;Node7</title>
<path fill="none" stroke="midnightblue" d="M151.45,-112.444C147.288,-103.443 140.664,-88.8311 135.45,-76 129.153,-60.5022 122.615,-42.6614 117.956,-29.5962"/>
<polygon fill="midnightblue" stroke="midnightblue" points="121.162,-28.1641 114.532,-19.9009 114.562,-30.4957 121.162,-28.1641"/>
</g>
<!-- Node4&#45;&gt;Node5 -->
<g id="edge4" class="edge"><title>Node4&#45;&gt;Node5</title>
<path fill="none" stroke="midnightblue" d="M247.616,-56.4435C284.356,-46.6702 344.314,-30.721 382.547,-20.5506"/>
<polygon fill="midnightblue" stroke="midnightblue" points="383.48,-23.9241 392.244,-17.971 381.681,-17.1594 383.48,-23.9241"/>
</g>
<!-- Node4&#45;&gt;Node6 -->
<g id="edge5" class="edge"><title>Node4&#45;&gt;Node6</title>
<path fill="none" stroke="midnightblue" d="M220.899,-56.083C225.465,-48.6127 232.119,-37.7244 237.744,-28.5199"/>
<polygon fill="midnightblue" stroke="midnightblue" points="240.874,-30.109 243.102,-19.7511 234.901,-26.4588 240.874,-30.109"/>
</g>
<!-- Node4&#45;&gt;Node7 -->
<g id="edge6" class="edge"><title>Node4&#45;&gt;Node7</title>
<path fill="none" stroke="midnightblue" d="M198.741,-56.324C182.138,-47.7034 156.448,-34.3643 137.23,-24.3855"/>
<polygon fill="midnightblue" stroke="midnightblue" points="138.606,-21.1565 128.118,-19.6545 135.38,-27.3689 138.606,-21.1565"/>
</g>
<!-- Node8&#45;&gt;Node5 -->
<g id="edge13" class="edge"><title>Node8&#45;&gt;Node5</title>
<path fill="none" stroke="midnightblue" d="M368.09,-56.324C376.96,-48.3414 390.325,-36.3128 401.058,-26.6529"/>
<polygon fill="midnightblue" stroke="midnightblue" points="403.543,-29.1251 408.635,-19.8339 398.86,-23.922 403.543,-29.1251"/>
</g>
<!-- Node8&#45;&gt;Node6 -->
<g id="edge14" class="edge"><title>Node8&#45;&gt;Node6</title>
<path fill="none" stroke="midnightblue" d="M340.777,-56.324C323.056,-47.6247 295.547,-34.1202 275.162,-24.113"/>
<polygon fill="midnightblue" stroke="midnightblue" points="276.599,-20.9195 266.08,-19.6545 273.514,-27.2031 276.599,-20.9195"/>
</g>
<!-- Node8&#45;&gt;Node7 -->
<g id="edge16" class="edge"><title>Node8&#45;&gt;Node7</title>
<path fill="none" stroke="midnightblue" d="M319.312,-56.4435C270.599,-45.7937 188.343,-27.8106 143.296,-17.9623"/>
<polygon fill="midnightblue" stroke="midnightblue" points="143.997,-14.5329 133.48,-15.8162 142.502,-21.3714 143.997,-14.5329"/>
</g>
<!-- Node9 -->
<g id="node9" class="node"><title>Node9</title>
<polygon fill="none" stroke="#bfbfbf" points="334.45,-0.5 334.45,-19.5 374.45,-19.5 374.45,-0.5 334.45,-0.5"/>
<text text-anchor="middle" x="354.45" y="-7.5" font-family="Helvetica,sans-Serif" font-size="10.00">utility</text>
</g>
<!-- Node8&#45;&gt;Node9 -->
<g id="edge15" class="edge"><title>Node8&#45;&gt;Node9</title>
<path fill="none" stroke="midnightblue" d="M357.79,-56.083C357.265,-49.0059 356.514,-38.8611 355.857,-29.9865"/>
<polygon fill="midnightblue" stroke="midnightblue" points="359.328,-29.4652 355.098,-19.7511 352.347,-29.9823 359.328,-29.4652"/>
</g>
<!-- Node10&#45;&gt;Node5 -->
<g id="edge18" class="edge"><title>Node10&#45;&gt;Node5</title>
<path fill="none" stroke="midnightblue" d="M473.846,-56.324C463.994,-48.2631 449.099,-36.0765 437.235,-26.3695"/>
<polygon fill="midnightblue" stroke="midnightblue" points="439.203,-23.4575 429.247,-19.8339 434.77,-28.8752 439.203,-23.4575"/>
</g>
<!-- Node10&#45;&gt;Node6 -->
<g id="edge20" class="edge"><title>Node10&#45;&gt;Node6</title>
<path fill="none" stroke="midnightblue" d="M463.919,-60.3023C422.338,-50.7878 327.975,-29.1965 279.089,-18.0106"/>
<polygon fill="midnightblue" stroke="midnightblue" points="279.63,-14.544 269.101,-15.7253 278.069,-21.3677 279.63,-14.544"/>
</g>
<!-- Node11 -->
<g id="node11" class="node"><title>Node11</title>
<polygon fill="none" stroke="#bfbfbf" points="462.45,-0.5 462.45,-19.5 514.45,-19.5 514.45,-0.5 462.45,-0.5"/>
<text text-anchor="middle" x="488.45" y="-7.5" font-family="Helvetica,sans-Serif" font-size="10.00">sstream</text>
</g>
<!-- Node10&#45;&gt;Node11 -->
<g id="edge19" class="edge"><title>Node10&#45;&gt;Node11</title>
<path fill="none" stroke="midnightblue" d="M485.111,-56.083C485.635,-49.0059 486.386,-38.8611 487.044,-29.9865"/>
<polygon fill="midnightblue" stroke="midnightblue" points="490.553,-29.9823 487.802,-19.7511 483.573,-29.4652 490.553,-29.9823"/>
</g>
<!-- Node12&#45;&gt;Node6 -->
<g id="edge22" class="edge"><title>Node12&#45;&gt;Node6</title>
<path fill="none" stroke="midnightblue" d="M80.1407,-56.4435C117.996,-46.2225 180.869,-29.2468 218.115,-19.1904"/>
<polygon fill="midnightblue" stroke="midnightblue" points="219.157,-22.5345 227.899,-16.5488 217.332,-15.7765 219.157,-22.5345"/>
</g>
<!-- Node12&#45;&gt;Node7 -->
<g id="edge23" class="edge"><title>Node12&#45;&gt;Node7</title>
<path fill="none" stroke="midnightblue" d="M58.5721,-56.324C67.9765,-48.2631 82.1942,-36.0765 93.5191,-26.3695"/>
<polygon fill="midnightblue" stroke="midnightblue" points="95.8291,-28.9993 101.144,-19.8339 91.2735,-23.6844 95.8291,-28.9993"/>
</g>
<!-- Node14 -->
<g id="node14" class="node"><title>Node14</title>
<polygon fill="none" stroke="#bfbfbf" points="492.45,-112.5 492.45,-131.5 572.45,-131.5 572.45,-112.5 492.45,-112.5"/>
<text text-anchor="middle" x="532.45" y="-119.5" font-family="Helvetica,sans-Serif" font-size="10.00">yarp/os/Wire.h</text>
</g>
<!-- Node13&#45;&gt;Node14 -->
<g id="edge26" class="edge"><title>Node13&#45;&gt;Node14</title>
<path fill="none" stroke="midnightblue" d="M536.624,-168.083C535.969,-161.006 535.03,-150.861 534.208,-141.986"/>
<polygon fill="midnightblue" stroke="midnightblue" points="537.668,-141.386 533.26,-131.751 530.697,-142.031 537.668,-141.386"/>
</g>
<!-- Node15 -->
<g id="node15" class="node"><title>Node15</title>
<polygon fill="none" stroke="#bfbfbf" points="590.45,-112.5 590.45,-131.5 710.45,-131.5 710.45,-112.5 590.45,-112.5"/>
<text text-anchor="middle" x="650.45" y="-119.5" font-family="Helvetica,sans-Serif" font-size="10.00">yarp/os/idl/WireTypes.h</text>
</g>
<!-- Node13&#45;&gt;Node15 -->
<g id="edge27" class="edge"><title>Node13&#45;&gt;Node15</title>
<path fill="none" stroke="midnightblue" d="M555.355,-168.444C573.704,-159.675 602.456,-145.935 623.544,-135.858"/>
<polygon fill="midnightblue" stroke="midnightblue" points="625.115,-138.986 632.629,-131.516 622.097,-132.67 625.115,-138.986"/>
</g>
</g>
</svg>
