<?xml version="1.0" encoding="UTF-8" standalone="no"?>
<!DOCTYPE svg PUBLIC "-//W3C//DTD SVG 1.1//EN"
 "http://www.w3.org/Graphics/SVG/1.1/DTD/svg11.dtd">
<!-- Generated by graphviz version 2.36.0 (20140111.2315)
 -->
<!-- Title: /home/travis/build/robotology/wb&#45;toolbox/toolbox/src/base/SimulinkBlockInformation.cpp Pages: 1 -->
<!--zoomable 230 -->
<svg id="main" version="1.1" xmlns="http://www.w3.org/2000/svg" xmlns:xlink="http://www.w3.org/1999/xlink" xml:space="preserve" onload="init(evt)">
<style type="text/css"><![CDATA[
.edge:hover path { stroke: red; }
.edge:hover polygon { stroke: red; fill: red; }
]]></style>
<script type="text/javascript"><![CDATA[
var edges = document.getElementsByTagName('g');
if (edges && edges.length) {
  for (var i=0;i<edges.length;i++) {
    if (edges[i].id.substr(0,4)=='edge') {
      edges[i].setAttribute('class','edge');
    }
  }
}
]]></script>
        <defs>
                <circle id="rim" cx="0" cy="0" r="7"/>
                <circle id="rim2" cx="0" cy="0" r="3.5"/>
                <g id="zoomPlus">
                        <use xlink:href="#rim" fill="#404040">
                                <set attributeName="fill" to="#808080" begin="zoomplus.mouseover" end="zoomplus.mouseout"/>
                        </use>
                        <path d="M-4,0h8M0,-4v8" fill="none" stroke="white" stroke-width="1.5" pointer-events="none"/>
                </g>
                <g id="zoomMin">
                        <use xlink:href="#rim" fill="#404040">
                                <set attributeName="fill" to="#808080" begin="zoomminus.mouseover" end="zoomminus.mouseout"/>
                        </use>
                        <path d="M-4,0h8" fill="none" stroke="white" stroke-width="1.5" pointer-events="none"/>
                </g>
                <g id="dirArrow">
                        <path fill="none" stroke="white" stroke-width="1.5" d="M0,-3.0v7 M-2.5,-0.5L0,-3.0L2.5,-0.5"/>
                </g>
               <g id="resetDef">
                       <use xlink:href="#rim2" fill="#404040">
                               <set attributeName="fill" to="#808080" begin="reset.mouseover" end="reset.mouseout"/>
                       </use>
               </g>
        </defs>

<script type="text/javascript">
var viewWidth = 997;
var viewHeight = 230;
var sectionId = 'dynsection-0';
</script>
<script xlink:href="svgpan.js"/>
<svg id="graph" class="graph">
<g id="viewport">
<title>/home/travis/build/robotology/wb&#45;toolbox/toolbox/src/base/SimulinkBlockInformation.cpp</title>
<!-- Node1 -->
<g id="node1" class="node"><title>Node1</title>
<polygon fill="#bfbfbf" stroke="black" points="431.5,-169 431.5,-221 588.5,-221 588.5,-169 431.5,-169"/>
<text text-anchor="start" x="439.5" y="-209" font-family="Helvetica,sans-Serif" font-size="10.00">/home/travis/build</text>
<text text-anchor="start" x="439.5" y="-198" font-family="Helvetica,sans-Serif" font-size="10.00">/robotology/wb&#45;toolbox</text>
<text text-anchor="start" x="439.5" y="-187" font-family="Helvetica,sans-Serif" font-size="10.00">/toolbox/src/base/SimulinkBlock</text>
<text text-anchor="middle" x="510" y="-176" font-family="Helvetica,sans-Serif" font-size="10.00">Information.cpp</text>
</g>
<!-- Node2 -->
<g id="node2" class="node"><title>Node2</title>
<g id="a_node2"><a xlink:href="_simulink_block_information_8h.html" target="_top" xlink:title="SimulinkBlockInformation.h">
<polygon fill="none" stroke="black" points="442,-112.5 442,-131.5 578,-131.5 578,-112.5 442,-112.5"/>
<text text-anchor="middle" x="510" y="-119.5" font-family="Helvetica,sans-Serif" font-size="10.00">SimulinkBlockInformation.h</text>
</a>
</g>
</g>
<!-- Node1&#45;&gt;Node2 -->
<g id="edge1" class="edge"><title>Node1&#45;&gt;Node2</title>
<path fill="none" stroke="midnightblue" d="M510,-168.768C510,-159.89 510,-150.074 510,-141.816"/>
<polygon fill="midnightblue" stroke="midnightblue" points="513.5,-141.757 510,-131.757 506.5,-141.757 513.5,-141.757"/>
</g>
<!-- Node6 -->
<g id="node6" class="node"><title>Node6</title>
<polygon fill="none" stroke="#bfbfbf" points="300.5,-0.5 300.5,-19.5 341.5,-19.5 341.5,-0.5 300.5,-0.5"/>
<text text-anchor="middle" x="321" y="-7.5" font-family="Helvetica,sans-Serif" font-size="10.00">string</text>
</g>
<!-- Node1&#45;&gt;Node6 -->
<g id="edge30" class="edge"><title>Node1&#45;&gt;Node6</title>
<path fill="none" stroke="midnightblue" d="M431.387,-187.236C360.416,-176.455 259.995,-148.497 212,-76 207.093,-68.5882 207.057,-63.388 212,-56 221.114,-42.377 261.47,-28.1909 290.42,-19.4756"/>
<polygon fill="midnightblue" stroke="midnightblue" points="291.504,-22.8051 300.114,-16.631 289.533,-16.0883 291.504,-22.8051"/>
</g>
<!-- Node8 -->
<g id="node8" class="node"><title>Node8</title>
<polygon fill="none" stroke="#bfbfbf" points="488,-0.5 488,-19.5 532,-19.5 532,-0.5 488,-0.5"/>
<text text-anchor="middle" x="510" y="-7.5" font-family="Helvetica,sans-Serif" font-size="10.00">vector</text>
</g>
<!-- Node1&#45;&gt;Node8 -->
<g id="edge32" class="edge"><title>Node1&#45;&gt;Node8</title>
<path fill="none" stroke="midnightblue" d="M588.865,-169.79C678.233,-140.318 807.997,-90.2512 779,-56 749.004,-20.5691 607.141,-13.0142 542.379,-11.4187"/>
<polygon fill="midnightblue" stroke="midnightblue" points="542.385,-7.9181 532.312,-11.2038 542.235,-14.9165 542.385,-7.9181"/>
</g>
<!-- Node9 -->
<g id="node9" class="node"><title>Node9</title>
<g id="a_node9"><a xlink:href="_signal_8h.html" target="_top" xlink:title="Signal.h">
<polygon fill="none" stroke="black" points="221,-56.5 221,-75.5 273,-75.5 273,-56.5 221,-56.5"/>
<text text-anchor="middle" x="247" y="-63.5" font-family="Helvetica,sans-Serif" font-size="10.00">Signal.h</text>
</a>
</g>
</g>
<!-- Node1&#45;&gt;Node9 -->
<g id="edge24" class="edge"><title>Node1&#45;&gt;Node9</title>
<path fill="none" stroke="midnightblue" d="M458.04,-168.909C402.648,-142.161 317.097,-100.849 273.908,-79.9936"/>
<polygon fill="midnightblue" stroke="midnightblue" points="275.394,-76.8246 264.867,-75.6278 272.35,-83.1281 275.394,-76.8246"/>
</g>
<!-- Node11 -->
<g id="node11" class="node"><title>Node11</title>
<g id="a_node11"><a xlink:href="_log_8h.html" target="_top" xlink:title="Log.h">
<polygon fill="none" stroke="black" points="5.5,-56.5 5.5,-75.5 46.5,-75.5 46.5,-56.5 5.5,-56.5"/>
<text text-anchor="middle" x="26" y="-63.5" font-family="Helvetica,sans-Serif" font-size="10.00">Log.h</text>
</a>
</g>
</g>
<!-- Node1&#45;&gt;Node11 -->
<g id="edge12" class="edge"><title>Node1&#45;&gt;Node11</title>
<path fill="none" stroke="midnightblue" d="M431.484,-187.717C357.148,-180.101 243.211,-164.072 149,-132 111.457,-119.219 71.4709,-96.092 47.622,-81.1493"/>
<polygon fill="midnightblue" stroke="midnightblue" points="49.3365,-78.0918 39.0211,-75.6747 45.5777,-83.997 49.3365,-78.0918"/>
</g>
<!-- Node13 -->
<g id="node13" class="node"><title>Node13</title>
<polygon fill="none" stroke="#bfbfbf" points="781.5,-112.5 781.5,-131.5 858.5,-131.5 858.5,-112.5 781.5,-112.5"/>
<text text-anchor="middle" x="820" y="-119.5" font-family="Helvetica,sans-Serif" font-size="10.00">MxAnyType.h</text>
</g>
<!-- Node1&#45;&gt;Node13 -->
<g id="edge16" class="edge"><title>Node1&#45;&gt;Node13</title>
<path fill="none" stroke="midnightblue" d="M588.627,-175.992C646.737,-162.683 723.94,-145.001 772.811,-133.808"/>
<polygon fill="midnightblue" stroke="midnightblue" points="773.827,-137.166 782.793,-131.522 772.264,-130.343 773.827,-137.166"/>
</g>
<!-- Node14 -->
<g id="node14" class="node"><title>Node14</title>
<g id="a_node14"><a xlink:href="_parameter_8h.html" target="_top" xlink:title="Parameter.h">
<polygon fill="none" stroke="black" points="700,-56.5 700,-75.5 770,-75.5 770,-56.5 700,-56.5"/>
<text text-anchor="middle" x="735" y="-63.5" font-family="Helvetica,sans-Serif" font-size="10.00">Parameter.h</text>
</a>
</g>
</g>
<!-- Node1&#45;&gt;Node14 -->
<g id="edge17" class="edge"><title>Node1&#45;&gt;Node14</title>
<path fill="none" stroke="midnightblue" d="M554.453,-168.909C601.243,-142.498 673.19,-101.888 710.565,-80.7919"/>
<polygon fill="midnightblue" stroke="midnightblue" points="712.726,-83.5913 719.714,-75.6278 709.286,-77.4954 712.726,-83.5913"/>
</g>
<!-- Node15 -->
<g id="node15" class="node"><title>Node15</title>
<g id="a_node15"><a xlink:href="_parameters_8h.html" target="_top" xlink:title="Parameters.h">
<polygon fill="none" stroke="black" points="291.5,-56.5 291.5,-75.5 366.5,-75.5 366.5,-56.5 291.5,-56.5"/>
<text text-anchor="middle" x="329" y="-63.5" font-family="Helvetica,sans-Serif" font-size="10.00">Parameters.h</text>
</a>
</g>
</g>
<!-- Node1&#45;&gt;Node15 -->
<g id="edge20" class="edge"><title>Node1&#45;&gt;Node15</title>
<path fill="none" stroke="midnightblue" d="M474.24,-168.909C437.08,-142.835 380.197,-102.923 349.821,-81.6094"/>
<polygon fill="midnightblue" stroke="midnightblue" points="351.493,-78.5065 341.296,-75.6278 347.472,-84.2367 351.493,-78.5065"/>
</g>
<!-- Node16 -->
<g id="node16" class="node"><title>Node16</title>
<g id="a_node16"><a xlink:href="_toolbox_singleton_8h.html" target="_top" xlink:title="ToolboxSingleton.h">
<polygon fill="none" stroke="black" points="65,-56.5 65,-75.5 165,-75.5 165,-56.5 65,-56.5"/>
<text text-anchor="middle" x="115" y="-63.5" font-family="Helvetica,sans-Serif" font-size="10.00">ToolboxSingleton.h</text>
</a>
</g>
</g>
<!-- Node1&#45;&gt;Node16 -->
<g id="edge25" class="edge"><title>Node1&#45;&gt;Node16</title>
<path fill="none" stroke="midnightblue" d="M431.401,-192.422C361.442,-188.059 258.219,-174.169 179,-132 157.467,-120.538 138.677,-99.3374 127.124,-84.2669"/>
<polygon fill="midnightblue" stroke="midnightblue" points="129.652,-81.7973 120.906,-75.8174 124.014,-85.9462 129.652,-81.7973"/>
</g>
<!-- Node18 -->
<g id="node18" class="node"><title>Node18</title>
<polygon fill="none" stroke="#bfbfbf" points="877,-112.5 877,-131.5 933,-131.5 933,-112.5 877,-112.5"/>
<text text-anchor="middle" x="905" y="-119.5" font-family="Helvetica,sans-Serif" font-size="10.00">algorithm</text>
</g>
<!-- Node1&#45;&gt;Node18 -->
<g id="edge29" class="edge"><title>Node1&#45;&gt;Node18</title>
<path fill="none" stroke="midnightblue" d="M588.607,-181.753C661.114,-170.124 771.636,-151.555 867,-132 867.1,-131.98 867.199,-131.959 867.299,-131.939"/>
<polygon fill="midnightblue" stroke="midnightblue" points="867.789,-135.414 876.82,-129.875 866.306,-128.573 867.789,-135.414"/>
</g>
<!-- Node19 -->
<g id="node19" class="node"><title>Node19</title>
<polygon fill="none" stroke="#bfbfbf" points="951,-112.5 951,-131.5 989,-131.5 989,-112.5 951,-112.5"/>
<text text-anchor="middle" x="970" y="-119.5" font-family="Helvetica,sans-Serif" font-size="10.00">tuple</text>
</g>
<!-- Node1&#45;&gt;Node19 -->
<g id="edge31" class="edge"><title>Node1&#45;&gt;Node19</title>
<path fill="none" stroke="midnightblue" d="M588.539,-186.473C675.45,-177.272 819.324,-159.451 941,-132 941.1,-131.978 941.199,-131.955 941.299,-131.932"/>
<polygon fill="midnightblue" stroke="midnightblue" points="941.996,-135.368 950.772,-129.433 940.21,-128.6 941.996,-135.368"/>
</g>
<!-- Node3 -->
<g id="node3" class="node"><title>Node3</title>
<polygon fill="none" stroke="#bfbfbf" points="618,-56.5 618,-75.5 682,-75.5 682,-56.5 618,-56.5"/>
<text text-anchor="middle" x="650" y="-63.5" font-family="Helvetica,sans-Serif" font-size="10.00">AnyType.h</text>
</g>
<!-- Node2&#45;&gt;Node3 -->
<g id="edge2" class="edge"><title>Node2&#45;&gt;Node3</title>
<path fill="none" stroke="midnightblue" d="M532.183,-112.444C555.428,-103.478 592.149,-89.314 618.415,-79.1827"/>
<polygon fill="midnightblue" stroke="midnightblue" points="619.85,-82.3807 627.92,-75.5164 617.331,-75.8497 619.85,-82.3807"/>
</g>
<!-- Node4 -->
<g id="node4" class="node"><title>Node4</title>
<g id="a_node4"><a xlink:href="_block_information_8h.html" target="_top" xlink:title="BlockInformation.h">
<polygon fill="none" stroke="black" points="384,-56.5 384,-75.5 482,-75.5 482,-56.5 384,-56.5"/>
<text text-anchor="middle" x="433" y="-63.5" font-family="Helvetica,sans-Serif" font-size="10.00">BlockInformation.h</text>
</a>
</g>
</g>
<!-- Node2&#45;&gt;Node4 -->
<g id="edge3" class="edge"><title>Node2&#45;&gt;Node4</title>
<path fill="none" stroke="midnightblue" d="M497.629,-112.324C485.842,-104.058 467.868,-91.4527 453.864,-81.6322"/>
<polygon fill="midnightblue" stroke="midnightblue" points="455.538,-78.5307 445.341,-75.6545 451.518,-84.2619 455.538,-78.5307"/>
</g>
<!-- Node2&#45;&gt;Node8 -->
<g id="edge11" class="edge"><title>Node2&#45;&gt;Node8</title>
<path fill="none" stroke="midnightblue" d="M510,-112.368C510,-94.617 510,-53.6664 510,-29.5974"/>
<polygon fill="midnightblue" stroke="midnightblue" points="513.5,-29.5914 510,-19.5914 506.5,-29.5915 513.5,-29.5914"/>
</g>
<!-- Node2&#45;&gt;Node9 -->
<g id="edge8" class="edge"><title>Node2&#45;&gt;Node9</title>
<path fill="none" stroke="midnightblue" d="M462.675,-112.471C418.612,-104.348 350.885,-91.4007 283.302,-76.2012"/>
<polygon fill="midnightblue" stroke="midnightblue" points="283.861,-72.7392 273.334,-73.9426 282.314,-79.5661 283.861,-72.7392"/>
</g>
<!-- Node10 -->
<g id="node10" class="node"><title>Node10</title>
<polygon fill="none" stroke="#bfbfbf" points="538,-56.5 538,-75.5 600,-75.5 600,-56.5 538,-56.5"/>
<text text-anchor="middle" x="569" y="-63.5" font-family="Helvetica,sans-Serif" font-size="10.00">simstruc.h</text>
</g>
<!-- Node2&#45;&gt;Node10 -->
<g id="edge10" class="edge"><title>Node2&#45;&gt;Node10</title>
<path fill="none" stroke="midnightblue" d="M519.479,-112.324C528.201,-104.341 541.343,-92.3128 551.898,-82.6529"/>
<polygon fill="midnightblue" stroke="midnightblue" points="554.334,-85.1674 559.348,-75.8339 549.608,-80.0036 554.334,-85.1674"/>
</g>
<!-- Node5 -->
<g id="node5" class="node"><title>Node5</title>
<polygon fill="none" stroke="#bfbfbf" points="221,-0.5 221,-19.5 273,-19.5 273,-0.5 221,-0.5"/>
<text text-anchor="middle" x="247" y="-7.5" font-family="Helvetica,sans-Serif" font-size="10.00">memory</text>
</g>
<!-- Node4&#45;&gt;Node5 -->
<g id="edge4" class="edge"><title>Node4&#45;&gt;Node5</title>
<path fill="none" stroke="midnightblue" d="M403.528,-56.4435C370.803,-46.9429 317.977,-31.6061 282.874,-21.415"/>
<polygon fill="midnightblue" stroke="midnightblue" points="283.612,-17.9849 273.033,-18.558 281.661,-24.7074 283.612,-17.9849"/>
</g>
<!-- Node4&#45;&gt;Node6 -->
<g id="edge5" class="edge"><title>Node4&#45;&gt;Node6</title>
<path fill="none" stroke="midnightblue" d="M415.005,-56.324C396.962,-47.6247 368.953,-34.1202 348.197,-24.113"/>
<polygon fill="midnightblue" stroke="midnightblue" points="349.478,-20.8449 338.95,-19.6545 346.438,-27.1502 349.478,-20.8449"/>
</g>
<!-- Node7 -->
<g id="node7" class="node"><title>Node7</title>
<polygon fill="none" stroke="#bfbfbf" points="413,-0.5 413,-19.5 453,-19.5 453,-0.5 413,-0.5"/>
<text text-anchor="middle" x="433" y="-7.5" font-family="Helvetica,sans-Serif" font-size="10.00">utility</text>
</g>
<!-- Node4&#45;&gt;Node7 -->
<g id="edge6" class="edge"><title>Node4&#45;&gt;Node7</title>
<path fill="none" stroke="midnightblue" d="M433,-56.083C433,-49.0059 433,-38.8611 433,-29.9865"/>
<polygon fill="midnightblue" stroke="midnightblue" points="436.5,-29.751 433,-19.7511 429.5,-29.7511 436.5,-29.751"/>
</g>
<!-- Node4&#45;&gt;Node8 -->
<g id="edge7" class="edge"><title>Node4&#45;&gt;Node8</title>
<path fill="none" stroke="midnightblue" d="M445.371,-56.324C457.158,-48.0577 475.132,-35.4527 489.136,-25.6322"/>
<polygon fill="midnightblue" stroke="midnightblue" points="491.482,-28.2619 497.659,-19.6545 487.462,-22.5307 491.482,-28.2619"/>
</g>
<!-- Node9&#45;&gt;Node5 -->
<g id="edge9" class="edge"><title>Node9&#45;&gt;Node5</title>
<path fill="none" stroke="midnightblue" d="M247,-56.083C247,-49.0059 247,-38.8611 247,-29.9865"/>
<polygon fill="midnightblue" stroke="midnightblue" points="250.5,-29.751 247,-19.7511 243.5,-29.7511 250.5,-29.751"/>
</g>
<!-- Node11&#45;&gt;Node5 -->
<g id="edge13" class="edge"><title>Node11&#45;&gt;Node5</title>
<path fill="none" stroke="midnightblue" d="M46.6104,-58.6394C49.7472,-57.7229 52.9533,-56.8151 56,-56 109.546,-41.6742 172.18,-27.3811 210.722,-18.8658"/>
<polygon fill="midnightblue" stroke="midnightblue" points="211.911,-22.1881 220.926,-16.6221 210.407,-15.3514 211.911,-22.1881"/>
</g>
<!-- Node11&#45;&gt;Node6 -->
<g id="edge15" class="edge"><title>Node11&#45;&gt;Node6</title>
<path fill="none" stroke="midnightblue" d="M46.5604,-58.4378C49.7041,-57.549 52.9254,-56.7028 56,-56 155.154,-33.3363 182.166,-39.4468 282,-20 284.813,-19.452 287.733,-18.8469 290.651,-18.2173"/>
<polygon fill="midnightblue" stroke="midnightblue" points="291.419,-21.6321 300.412,-16.0302 289.888,-14.8015 291.419,-21.6321"/>
</g>
<!-- Node12 -->
<g id="node12" class="node"><title>Node12</title>
<polygon fill="none" stroke="#bfbfbf" points="0,-0.5 0,-19.5 52,-19.5 52,-0.5 0,-0.5"/>
<text text-anchor="middle" x="26" y="-7.5" font-family="Helvetica,sans-Serif" font-size="10.00">sstream</text>
</g>
<!-- Node11&#45;&gt;Node12 -->
<g id="edge14" class="edge"><title>Node11&#45;&gt;Node12</title>
<path fill="none" stroke="midnightblue" d="M26,-56.083C26,-49.0059 26,-38.8611 26,-29.9865"/>
<polygon fill="midnightblue" stroke="midnightblue" points="29.5001,-29.751 26,-19.7511 22.5001,-29.7511 29.5001,-29.751"/>
</g>
<!-- Node14&#45;&gt;Node6 -->
<g id="edge18" class="edge"><title>Node14&#45;&gt;Node6</title>
<path fill="none" stroke="midnightblue" d="M699.983,-57.5718C696.95,-57.0092 693.924,-56.4761 691,-56 625.578,-45.3486 427.915,-22.9267 351.56,-14.3942"/>
<polygon fill="midnightblue" stroke="midnightblue" points="351.944,-10.9154 341.617,-13.2851 351.168,-17.8722 351.944,-10.9154"/>
</g>
<!-- Node14&#45;&gt;Node8 -->
<g id="edge19" class="edge"><title>Node14&#45;&gt;Node8</title>
<path fill="none" stroke="midnightblue" d="M699.844,-56.5625C656.66,-46.1985 584.009,-28.7621 542.216,-18.7319"/>
<polygon fill="midnightblue" stroke="midnightblue" points="542.834,-15.2808 532.293,-16.3503 541.2,-22.0875 542.834,-15.2808"/>
</g>
<!-- Node15&#45;&gt;Node5 -->
<g id="edge21" class="edge"><title>Node15&#45;&gt;Node5</title>
<path fill="none" stroke="midnightblue" d="M315.825,-56.324C303.153,-47.979 283.767,-35.2122 268.794,-25.3524"/>
<polygon fill="midnightblue" stroke="midnightblue" points="270.419,-22.2313 260.142,-19.6545 266.569,-28.0776 270.419,-22.2313"/>
</g>
<!-- Node15&#45;&gt;Node6 -->
<g id="edge22" class="edge"><title>Node15&#45;&gt;Node6</title>
<path fill="none" stroke="midnightblue" d="M327.679,-56.083C326.619,-48.9272 325.094,-38.6353 323.769,-29.6911"/>
<polygon fill="midnightblue" stroke="midnightblue" points="327.224,-29.1302 322.296,-19.7511 320.3,-30.1561 327.224,-29.1302"/>
</g>
<!-- Node15&#45;&gt;Node8 -->
<g id="edge23" class="edge"><title>Node15&#45;&gt;Node8</title>
<path fill="none" stroke="midnightblue" d="M357.68,-56.4435C390.382,-46.6872 443.712,-30.7764 477.81,-20.6036"/>
<polygon fill="midnightblue" stroke="midnightblue" points="479.149,-23.8568 487.731,-17.6439 477.147,-17.1489 479.149,-23.8568"/>
</g>
<!-- Node16&#45;&gt;Node5 -->
<g id="edge26" class="edge"><title>Node16&#45;&gt;Node5</title>
<path fill="none" stroke="midnightblue" d="M135.916,-56.4435C157.736,-47.5171 192.15,-33.4387 216.892,-23.3168"/>
<polygon fill="midnightblue" stroke="midnightblue" points="218.252,-26.5422 226.182,-19.5164 215.601,-20.0634 218.252,-26.5422"/>
</g>
<!-- Node16&#45;&gt;Node6 -->
<g id="edge27" class="edge"><title>Node16&#45;&gt;Node6</title>
<path fill="none" stroke="midnightblue" d="M147.641,-56.4435C186.84,-46.1681 252.081,-29.066 290.365,-19.0305"/>
<polygon fill="midnightblue" stroke="midnightblue" points="291.619,-22.3202 300.404,-16.3989 289.844,-15.549 291.619,-22.3202"/>
</g>
<!-- Node17 -->
<g id="node17" class="node"><title>Node17</title>
<polygon fill="none" stroke="#bfbfbf" points="73.5,-0.5 73.5,-19.5 156.5,-19.5 156.5,-0.5 73.5,-0.5"/>
<text text-anchor="middle" x="115" y="-7.5" font-family="Helvetica,sans-Serif" font-size="10.00">unordered_map</text>
</g>
<!-- Node16&#45;&gt;Node17 -->
<g id="edge28" class="edge"><title>Node16&#45;&gt;Node17</title>
<path fill="none" stroke="midnightblue" d="M115,-56.083C115,-49.0059 115,-38.8611 115,-29.9865"/>
<polygon fill="midnightblue" stroke="midnightblue" points="118.5,-29.751 115,-19.7511 111.5,-29.7511 118.5,-29.751"/>
</g>
</g>
</svg>
        <g id="navigator" transform="translate(0 0)" fill="#404254">
                <rect fill="#f2f5e9" fill-opacity="0.5" stroke="#606060" stroke-width=".5" x="0" y="0" width="60" height="60"/>
                <use id="zoomplus" xlink:href="#zoomPlus" x="17" y="9" onmousedown="handleZoom(evt,'in')"/>
                <use id="zoomminus" xlink:href="#zoomMin" x="42" y="9" onmousedown="handleZoom(evt,'out')"/>
                <use id="reset" xlink:href="#resetDef" x="30" y="36" onmousedown="handleReset()"/>
                <g id="arrowUp" xlink:href="#dirArrow" transform="translate(30 24)" onmousedown="handlePan(0,-1)">
                  <use xlink:href="#rim" fill="#404040">
                        <set attributeName="fill" to="#808080" begin="arrowUp.mouseover" end="arrowUp.mouseout"/>
                  </use>
                  <path fill="none" stroke="white" stroke-width="1.5" d="M0,-3.0v7 M-2.5,-0.5L0,-3.0L2.5,-0.5"/>
                </g>
                <g id="arrowRight" xlink:href="#dirArrow" transform="rotate(90) translate(36 -43)" onmousedown="handlePan(1,0)">
                  <use xlink:href="#rim" fill="#404040">
                        <set attributeName="fill" to="#808080" begin="arrowRight.mouseover" end="arrowRight.mouseout"/>
                  </use>
                  <path fill="none" stroke="white" stroke-width="1.5" d="M0,-3.0v7 M-2.5,-0.5L0,-3.0L2.5,-0.5"/>
                </g>
                <g id="arrowDown" xlink:href="#dirArrow" transform="rotate(180) translate(-30 -48)" onmousedown="handlePan(0,1)">
                  <use xlink:href="#rim" fill="#404040">
                        <set attributeName="fill" to="#808080" begin="arrowDown.mouseover" end="arrowDown.mouseout"/>
                  </use>
                  <path fill="none" stroke="white" stroke-width="1.5" d="M0,-3.0v7 M-2.5,-0.5L0,-3.0L2.5,-0.5"/>
                </g>
                <g id="arrowLeft" xlink:href="#dirArrow" transform="rotate(270) translate(-36 17)" onmousedown="handlePan(-1,0)">
                  <use xlink:href="#rim" fill="#404040">
                        <set attributeName="fill" to="#808080" begin="arrowLeft.mouseover" end="arrowLeft.mouseout"/>
                  </use>
                  <path fill="none" stroke="white" stroke-width="1.5" d="M0,-3.0v7 M-2.5,-0.5L0,-3.0L2.5,-0.5"/>
                </g>
        </g>
        <svg viewBox="0 0 15 15" width="100%" height="30px" preserveAspectRatio="xMaxYMin meet">
         <g id="arrow_out" transform="scale(0.3 0.3)">
          <a xlink:href="_simulink_block_information_8cpp__incl_org.svg" target="_base">
           <rect id="button" ry="5" rx="5" y="6" x="6" height="38" width="38"
                fill="#f2f5e9" fill-opacity="0.5" stroke="#606060" stroke-width="1.0"/>
           <path id="arrow"
             d="M 11.500037,31.436501 C 11.940474,20.09759 22.043105,11.32322 32.158766,21.979434 L 37.068811,17.246167 C 37.068811,17.246167 37.088388,32 37.088388,32 L 22.160133,31.978069 C 22.160133,31.978069 26.997745,27.140456 26.997745,27.140456 C 18.528582,18.264221 13.291696,25.230495 11.500037,31.436501 z"
             style="fill:#404040;"/>
          </a>
         </g>
        </svg>
</svg>
