<?xml version="1.0" encoding="UTF-8" standalone="no"?>
<!DOCTYPE svg PUBLIC "-//W3C//DTD SVG 1.1//EN"
 "http://www.w3.org/Graphics/SVG/1.1/DTD/svg11.dtd">
<!-- Generated by graphviz version 2.36.0 (20140111.2315)
 -->
<!-- Title: /home/travis/build/robotology/wb&#45;toolbox/toolbox/src/base/SimulinkBlockInformation.cpp Pages: 1 -->
<svg width="978pt" height="230pt"
 viewBox="0.00 0.00 978.00 230.00" xmlns="http://www.w3.org/2000/svg" xmlns:xlink="http://www.w3.org/1999/xlink">
<g id="graph0" class="graph" transform="scale(1 1) rotate(0) translate(4 226)">
<title>/home/travis/build/robotology/wb&#45;toolbox/toolbox/src/base/SimulinkBlockInformation.cpp</title>
<!-- Node1 -->
<g id="node1" class="node"><title>Node1</title>
<polygon fill="#bfbfbf" stroke="black" points="519.5,-169 519.5,-221 676.5,-221 676.5,-169 519.5,-169"/>
<text text-anchor="start" x="527.5" y="-209" font-family="Helvetica,sans-Serif" font-size="10.00">/home/travis/build</text>
<text text-anchor="start" x="527.5" y="-198" font-family="Helvetica,sans-Serif" font-size="10.00">/robotology/wb&#45;toolbox</text>
<text text-anchor="start" x="527.5" y="-187" font-family="Helvetica,sans-Serif" font-size="10.00">/toolbox/src/base/SimulinkBlock</text>
<text text-anchor="middle" x="598" y="-176" font-family="Helvetica,sans-Serif" font-size="10.00">Information.cpp</text>
</g>
<!-- Node2 -->
<g id="node2" class="node"><title>Node2</title>
<g id="a_node2"><a xlink:href="_simulink_block_information_8h.html" target="_top" xlink:title="SimulinkBlockInformation.h">
<polygon fill="none" stroke="black" points="287,-112.5 287,-131.5 423,-131.5 423,-112.5 287,-112.5"/>
<text text-anchor="middle" x="355" y="-119.5" font-family="Helvetica,sans-Serif" font-size="10.00">SimulinkBlockInformation.h</text>
</a>
</g>
</g>
<!-- Node1&#45;&gt;Node2 -->
<g id="edge1" class="edge"><title>Node1&#45;&gt;Node2</title>
<path fill="none" stroke="midnightblue" d="M519.44,-171.046C477.594,-158.82 427.949,-144.314 394.237,-134.464"/>
<polygon fill="midnightblue" stroke="midnightblue" points="394.892,-131.009 384.312,-131.564 392.929,-137.729 394.892,-131.009"/>
</g>
<!-- Node5 -->
<g id="node5" class="node"><title>Node5</title>
<polygon fill="none" stroke="#bfbfbf" points="487.5,-0.5 487.5,-19.5 528.5,-19.5 528.5,-0.5 487.5,-0.5"/>
<text text-anchor="middle" x="508" y="-7.5" font-family="Helvetica,sans-Serif" font-size="10.00">string</text>
</g>
<!-- Node1&#45;&gt;Node5 -->
<g id="edge29" class="edge"><title>Node1&#45;&gt;Node5</title>
<path fill="none" stroke="midnightblue" d="M585.675,-168.938C567.256,-131.487 532.991,-61.816 516.848,-28.9903"/>
<polygon fill="midnightblue" stroke="midnightblue" points="519.84,-27.1437 512.286,-19.7149 513.559,-30.233 519.84,-27.1437"/>
</g>
<!-- Node6 -->
<g id="node6" class="node"><title>Node6</title>
<polygon fill="none" stroke="#bfbfbf" points="0,-0.5 0,-19.5 38,-19.5 38,-0.5 0,-0.5"/>
<text text-anchor="middle" x="19" y="-7.5" font-family="Helvetica,sans-Serif" font-size="10.00">tuple</text>
</g>
<!-- Node1&#45;&gt;Node6 -->
<g id="edge30" class="edge"><title>Node1&#45;&gt;Node6</title>
<path fill="none" stroke="midnightblue" d="M519.293,-189.105C378.39,-178.581 91.7823,-148.596 28,-76 17.0829,-63.5743 15.654,-44.3358 16.4625,-30.0087"/>
<polygon fill="midnightblue" stroke="midnightblue" points="19.9712,-30.0867 17.4521,-19.7957 13.0039,-29.4115 19.9712,-30.0867"/>
</g>
<!-- Node8 -->
<g id="node8" class="node"><title>Node8</title>
<polygon fill="none" stroke="#bfbfbf" points="179,-0.5 179,-19.5 223,-19.5 223,-0.5 179,-0.5"/>
<text text-anchor="middle" x="201" y="-7.5" font-family="Helvetica,sans-Serif" font-size="10.00">vector</text>
</g>
<!-- Node1&#45;&gt;Node8 -->
<g id="edge32" class="edge"><title>Node1&#45;&gt;Node8</title>
<path fill="none" stroke="midnightblue" d="M519.323,-188.897C452.609,-182.235 355.664,-166.951 278,-132 240.711,-115.219 224.206,-112.1 205,-76 197.449,-61.8078 197.052,-43.3289 198.192,-29.7034"/>
<polygon fill="midnightblue" stroke="midnightblue" points="201.688,-29.942 199.387,-19.6 194.736,-29.1196 201.688,-29.942"/>
</g>
<!-- Node9 -->
<g id="node9" class="node"><title>Node9</title>
<g id="a_node9"><a xlink:href="_parameter_8h.html" target="_top" xlink:title="Parameter.h">
<polygon fill="none" stroke="black" points="391,-56.5 391,-75.5 461,-75.5 461,-56.5 391,-56.5"/>
<text text-anchor="middle" x="426" y="-63.5" font-family="Helvetica,sans-Serif" font-size="10.00">Parameter.h</text>
</a>
</g>
</g>
<!-- Node1&#45;&gt;Node9 -->
<g id="edge21" class="edge"><title>Node1&#45;&gt;Node9</title>
<path fill="none" stroke="midnightblue" d="M563.195,-168.751C547.785,-157.536 529.458,-144.15 513,-132 489.879,-114.931 463.447,-95.144 445.844,-81.9272"/>
<polygon fill="midnightblue" stroke="midnightblue" points="447.606,-78.8728 437.508,-75.6638 443.401,-84.4691 447.606,-78.8728"/>
</g>
<!-- Node10 -->
<g id="node10" class="node"><title>Node10</title>
<g id="a_node10"><a xlink:href="_signal_8h.html" target="_top" xlink:title="Signal.h">
<polygon fill="none" stroke="black" points="649,-56.5 649,-75.5 701,-75.5 701,-56.5 649,-56.5"/>
<text text-anchor="middle" x="675" y="-63.5" font-family="Helvetica,sans-Serif" font-size="10.00">Signal.h</text>
</a>
</g>
</g>
<!-- Node1&#45;&gt;Node10 -->
<g id="edge26" class="edge"><title>Node1&#45;&gt;Node10</title>
<path fill="none" stroke="midnightblue" d="M676.62,-185.564C710.889,-177.535 747.971,-161.994 769,-132 787.505,-105.607 744.665,-86.5344 710.889,-76.1209"/>
<polygon fill="midnightblue" stroke="midnightblue" points="711.799,-72.7407 701.219,-73.2915 709.833,-79.459 711.799,-72.7407"/>
</g>
<!-- Node11 -->
<g id="node11" class="node"><title>Node11</title>
<polygon fill="none" stroke="#bfbfbf" points="665,-0.5 665,-19.5 717,-19.5 717,-0.5 665,-0.5"/>
<text text-anchor="middle" x="691" y="-7.5" font-family="Helvetica,sans-Serif" font-size="10.00">memory</text>
</g>
<!-- Node1&#45;&gt;Node11 -->
<g id="edge27" class="edge"><title>Node1&#45;&gt;Node11</title>
<path fill="none" stroke="midnightblue" d="M608.854,-168.762C617.323,-151.257 630.423,-128.257 647,-112 670.025,-89.4197 693.813,-103.893 710,-76 718.726,-60.963 711.032,-41.6097 702.975,-27.9439"/>
<polygon fill="midnightblue" stroke="midnightblue" points="705.899,-26.0202 697.537,-19.5145 700.017,-29.815 705.899,-26.0202"/>
</g>
<!-- Node13 -->
<g id="node13" class="node"><title>Node13</title>
<g id="a_node13"><a xlink:href="_log_8h.html" target="_top" xlink:title="Log.h">
<polygon fill="none" stroke="black" points="757.5,-56.5 757.5,-75.5 798.5,-75.5 798.5,-56.5 757.5,-56.5"/>
<text text-anchor="middle" x="778" y="-63.5" font-family="Helvetica,sans-Serif" font-size="10.00">Log.h</text>
</a>
</g>
</g>
<!-- Node1&#45;&gt;Node13 -->
<g id="edge16" class="edge"><title>Node1&#45;&gt;Node13</title>
<path fill="none" stroke="midnightblue" d="M617.033,-168.834C631.426,-151.136 652.5,-127.873 675,-112 697.438,-96.1714 726.329,-84.1477 747.8,-76.5284"/>
<polygon fill="midnightblue" stroke="midnightblue" points="749.062,-79.7955 757.387,-73.2421 746.793,-73.1737 749.062,-79.7955"/>
</g>
<!-- Node15 -->
<g id="node15" class="node"><title>Node15</title>
<polygon fill="none" stroke="#bfbfbf" points="683.5,-112.5 683.5,-131.5 760.5,-131.5 760.5,-112.5 683.5,-112.5"/>
<text text-anchor="middle" x="722" y="-119.5" font-family="Helvetica,sans-Serif" font-size="10.00">MxAnyType.h</text>
</g>
<!-- Node1&#45;&gt;Node15 -->
<g id="edge20" class="edge"><title>Node1&#45;&gt;Node15</title>
<path fill="none" stroke="midnightblue" d="M641.718,-168.968C660.72,-158.088 682.237,-145.767 698.21,-136.622"/>
<polygon fill="midnightblue" stroke="midnightblue" points="699.973,-139.645 706.912,-131.639 696.495,-133.571 699.973,-139.645"/>
</g>
<!-- Node16 -->
<g id="node16" class="node"><title>Node16</title>
<g id="a_node16"><a xlink:href="_parameters_8h.html" target="_top" xlink:title="Parameters.h">
<polygon fill="none" stroke="black" points="555.5,-56.5 555.5,-75.5 630.5,-75.5 630.5,-56.5 555.5,-56.5"/>
<text text-anchor="middle" x="593" y="-63.5" font-family="Helvetica,sans-Serif" font-size="10.00">Parameters.h</text>
</a>
</g>
</g>
<!-- Node1&#45;&gt;Node16 -->
<g id="edge22" class="edge"><title>Node1&#45;&gt;Node16</title>
<path fill="none" stroke="midnightblue" d="M597.012,-168.909C596.048,-144.409 594.602,-107.69 593.735,-85.6639"/>
<polygon fill="midnightblue" stroke="midnightblue" points="597.23,-85.4824 593.34,-75.6278 590.236,-85.7578 597.23,-85.4824"/>
</g>
<!-- Node17 -->
<g id="node17" class="node"><title>Node17</title>
<polygon fill="none" stroke="#bfbfbf" points="817,-112.5 817,-131.5 869,-131.5 869,-112.5 817,-112.5"/>
<text text-anchor="middle" x="843" y="-119.5" font-family="Helvetica,sans-Serif" font-size="10.00">ostream</text>
</g>
<!-- Node1&#45;&gt;Node17 -->
<g id="edge28" class="edge"><title>Node1&#45;&gt;Node17</title>
<path fill="none" stroke="midnightblue" d="M676.53,-171.242C720.291,-158.561 772.683,-143.378 806.846,-133.477"/>
<polygon fill="midnightblue" stroke="midnightblue" points="808.203,-136.728 816.834,-130.583 806.255,-130.005 808.203,-136.728"/>
</g>
<!-- Node18 -->
<g id="node18" class="node"><title>Node18</title>
<polygon fill="none" stroke="#bfbfbf" points="887.5,-112.5 887.5,-131.5 970.5,-131.5 970.5,-112.5 887.5,-112.5"/>
<text text-anchor="middle" x="929" y="-119.5" font-family="Helvetica,sans-Serif" font-size="10.00">unordered_map</text>
</g>
<!-- Node1&#45;&gt;Node18 -->
<g id="edge31" class="edge"><title>Node1&#45;&gt;Node18</title>
<path fill="none" stroke="midnightblue" d="M676.862,-177.084C739.736,-163.597 825.842,-145.127 879.41,-133.637"/>
<polygon fill="midnightblue" stroke="midnightblue" points="880.304,-137.025 889.347,-131.506 878.836,-130.181 880.304,-137.025"/>
</g>
<!-- Node3 -->
<g id="node3" class="node"><title>Node3</title>
<polygon fill="none" stroke="#bfbfbf" points="229,-56.5 229,-75.5 293,-75.5 293,-56.5 229,-56.5"/>
<text text-anchor="middle" x="261" y="-63.5" font-family="Helvetica,sans-Serif" font-size="10.00">AnyType.h</text>
</g>
<!-- Node2&#45;&gt;Node3 -->
<g id="edge2" class="edge"><title>Node2&#45;&gt;Node3</title>
<path fill="none" stroke="midnightblue" d="M339.897,-112.324C325.097,-103.822 302.306,-90.7288 285.018,-80.7975"/>
<polygon fill="midnightblue" stroke="midnightblue" points="286.48,-77.6009 276.065,-75.6545 282.993,-83.6707 286.48,-77.6009"/>
</g>
<!-- Node4 -->
<g id="node4" class="node"><title>Node4</title>
<g id="a_node4"><a xlink:href="_block_information_8h.html" target="_top" xlink:title="BlockInformation.h">
<polygon fill="none" stroke="black" points="37,-56.5 37,-75.5 135,-75.5 135,-56.5 37,-56.5"/>
<text text-anchor="middle" x="86" y="-63.5" font-family="Helvetica,sans-Serif" font-size="10.00">BlockInformation.h</text>
</a>
</g>
</g>
<!-- Node2&#45;&gt;Node4 -->
<g id="edge3" class="edge"><title>Node2&#45;&gt;Node4</title>
<path fill="none" stroke="midnightblue" d="M312.376,-112.444C265.253,-102.984 189.308,-87.7384 138.541,-77.5472"/>
<polygon fill="midnightblue" stroke="midnightblue" points="138.918,-74.0531 128.424,-75.5164 137.54,-80.9162 138.918,-74.0531"/>
</g>
<!-- Node2&#45;&gt;Node5 -->
<g id="edge14" class="edge"><title>Node2&#45;&gt;Node5</title>
<path fill="none" stroke="midnightblue" d="M394.666,-112.499C418.587,-105.78 448.49,-94.3905 470,-76 484.711,-63.4228 495.116,-43.6509 501.276,-29.2139"/>
<polygon fill="midnightblue" stroke="midnightblue" points="504.567,-30.4091 505.011,-19.8236 498.063,-27.8216 504.567,-30.4091"/>
</g>
<!-- Node2&#45;&gt;Node8 -->
<g id="edge15" class="edge"><title>Node2&#45;&gt;Node8</title>
<path fill="none" stroke="midnightblue" d="M290.023,-112.449C265.181,-106.125 238.425,-95.127 220,-76 208.158,-63.7066 203.636,-44.4503 201.941,-30.0831"/>
<polygon fill="midnightblue" stroke="midnightblue" points="205.407,-29.5163 201.102,-19.8355 198.43,-30.0879 205.407,-29.5163"/>
</g>
<!-- Node2&#45;&gt;Node9 -->
<g id="edge8" class="edge"><title>Node2&#45;&gt;Node9</title>
<path fill="none" stroke="midnightblue" d="M366.407,-112.324C377.109,-104.185 393.341,-91.8395 406.163,-82.0874"/>
<polygon fill="midnightblue" stroke="midnightblue" points="408.544,-84.6734 414.385,-75.8339 404.307,-79.1018 408.544,-84.6734"/>
</g>
<!-- Node2&#45;&gt;Node10 -->
<g id="edge11" class="edge"><title>Node2&#45;&gt;Node10</title>
<path fill="none" stroke="midnightblue" d="M419.017,-112.495C474.511,-104.748 557.152,-92.3214 638.768,-75.8795"/>
<polygon fill="midnightblue" stroke="midnightblue" points="639.614,-79.2792 648.715,-73.8545 638.217,-72.4199 639.614,-79.2792"/>
</g>
<!-- Node12 -->
<g id="node12" class="node"><title>Node12</title>
<polygon fill="none" stroke="#bfbfbf" points="311,-56.5 311,-75.5 373,-75.5 373,-56.5 311,-56.5"/>
<text text-anchor="middle" x="342" y="-63.5" font-family="Helvetica,sans-Serif" font-size="10.00">simstruc.h</text>
</g>
<!-- Node2&#45;&gt;Node12 -->
<g id="edge13" class="edge"><title>Node2&#45;&gt;Node12</title>
<path fill="none" stroke="midnightblue" d="M352.853,-112.083C351.131,-104.927 348.653,-94.6353 346.5,-85.6911"/>
<polygon fill="midnightblue" stroke="midnightblue" points="349.85,-84.6541 344.107,-75.7511 343.045,-86.2925 349.85,-84.6541"/>
</g>
<!-- Node4&#45;&gt;Node5 -->
<g id="edge4" class="edge"><title>Node4&#45;&gt;Node5</title>
<path fill="none" stroke="midnightblue" d="M135.235,-58.6998C223.126,-47.453 404.605,-24.2307 477.098,-14.9543"/>
<polygon fill="midnightblue" stroke="midnightblue" points="477.898,-18.3806 487.373,-13.6395 477.009,-11.4372 477.898,-18.3806"/>
</g>
<!-- Node4&#45;&gt;Node6 -->
<g id="edge5" class="edge"><title>Node4&#45;&gt;Node6</title>
<path fill="none" stroke="midnightblue" d="M75.2353,-56.324C65.2339,-48.2631 50.1135,-36.0765 38.0695,-26.3695"/>
<polygon fill="midnightblue" stroke="midnightblue" points="39.9429,-23.3841 29.9606,-19.8339 35.5502,-28.8343 39.9429,-23.3841"/>
</g>
<!-- Node7 -->
<g id="node7" class="node"><title>Node7</title>
<polygon fill="none" stroke="#bfbfbf" points="66,-0.5 66,-19.5 106,-19.5 106,-0.5 66,-0.5"/>
<text text-anchor="middle" x="86" y="-7.5" font-family="Helvetica,sans-Serif" font-size="10.00">utility</text>
</g>
<!-- Node4&#45;&gt;Node7 -->
<g id="edge6" class="edge"><title>Node4&#45;&gt;Node7</title>
<path fill="none" stroke="midnightblue" d="M86,-56.083C86,-49.0059 86,-38.8611 86,-29.9865"/>
<polygon fill="midnightblue" stroke="midnightblue" points="89.5001,-29.751 86,-19.7511 82.5001,-29.7511 89.5001,-29.751"/>
</g>
<!-- Node4&#45;&gt;Node8 -->
<g id="edge7" class="edge"><title>Node4&#45;&gt;Node8</title>
<path fill="none" stroke="midnightblue" d="M104.222,-56.4435C122.896,-47.6751 152.156,-33.9355 173.617,-23.8579"/>
<polygon fill="midnightblue" stroke="midnightblue" points="175.299,-26.935 182.863,-19.5164 172.324,-20.5988 175.299,-26.935"/>
</g>
<!-- Node9&#45;&gt;Node5 -->
<g id="edge9" class="edge"><title>Node9&#45;&gt;Node5</title>
<path fill="none" stroke="midnightblue" d="M439.175,-56.324C451.847,-47.979 471.233,-35.2122 486.206,-25.3524"/>
<polygon fill="midnightblue" stroke="midnightblue" points="488.431,-28.0776 494.858,-19.6545 484.581,-22.2313 488.431,-28.0776"/>
</g>
<!-- Node9&#45;&gt;Node8 -->
<g id="edge10" class="edge"><title>Node9&#45;&gt;Node8</title>
<path fill="none" stroke="midnightblue" d="M390.844,-56.5625C347.66,-46.1985 275.009,-28.7621 233.216,-18.7319"/>
<polygon fill="midnightblue" stroke="midnightblue" points="233.834,-15.2808 223.293,-16.3503 232.2,-22.0875 233.834,-15.2808"/>
</g>
<!-- Node10&#45;&gt;Node11 -->
<g id="edge12" class="edge"><title>Node10&#45;&gt;Node11</title>
<path fill="none" stroke="midnightblue" d="M677.642,-56.083C679.786,-48.8486 682.879,-38.4087 685.549,-29.3968"/>
<polygon fill="midnightblue" stroke="midnightblue" points="688.922,-30.3334 688.407,-19.7511 682.21,-28.3447 688.922,-30.3334"/>
</g>
<!-- Node13&#45;&gt;Node5 -->
<g id="edge19" class="edge"><title>Node13&#45;&gt;Node5</title>
<path fill="none" stroke="midnightblue" d="M757.262,-60.8524C710.047,-51.4094 594.339,-28.2677 538.769,-17.1538"/>
<polygon fill="midnightblue" stroke="midnightblue" points="539.301,-13.691 528.809,-15.1618 537.928,-20.555 539.301,-13.691"/>
</g>
<!-- Node13&#45;&gt;Node11 -->
<g id="edge17" class="edge"><title>Node13&#45;&gt;Node11</title>
<path fill="none" stroke="midnightblue" d="M764.022,-56.324C750.45,-47.9002 729.62,-34.9709 713.675,-25.0741"/>
<polygon fill="midnightblue" stroke="midnightblue" points="715.286,-21.9544 704.943,-19.6545 711.594,-27.9019 715.286,-21.9544"/>
</g>
<!-- Node14 -->
<g id="node14" class="node"><title>Node14</title>
<polygon fill="none" stroke="#bfbfbf" points="752,-0.5 752,-19.5 804,-19.5 804,-0.5 752,-0.5"/>
<text text-anchor="middle" x="778" y="-7.5" font-family="Helvetica,sans-Serif" font-size="10.00">sstream</text>
</g>
<!-- Node13&#45;&gt;Node14 -->
<g id="edge18" class="edge"><title>Node13&#45;&gt;Node14</title>
<path fill="none" stroke="midnightblue" d="M778,-56.083C778,-49.0059 778,-38.8611 778,-29.9865"/>
<polygon fill="midnightblue" stroke="midnightblue" points="781.5,-29.751 778,-19.7511 774.5,-29.7511 781.5,-29.751"/>
</g>
<!-- Node16&#45;&gt;Node5 -->
<g id="edge24" class="edge"><title>Node16&#45;&gt;Node5</title>
<path fill="none" stroke="midnightblue" d="M579.343,-56.324C566.084,-47.9002 545.732,-34.9709 530.154,-25.0741"/>
<polygon fill="midnightblue" stroke="midnightblue" points="531.94,-22.0626 521.623,-19.6545 528.187,-27.9711 531.94,-22.0626"/>
</g>
<!-- Node16&#45;&gt;Node8 -->
<g id="edge25" class="edge"><title>Node16&#45;&gt;Node8</title>
<path fill="none" stroke="midnightblue" d="M555.413,-59.8223C478.859,-49.2765 306.001,-25.4644 233.729,-15.5086"/>
<polygon fill="midnightblue" stroke="midnightblue" points="233.805,-11.9861 223.421,-14.0886 232.85,-18.9206 233.805,-11.9861"/>
</g>
<!-- Node16&#45;&gt;Node11 -->
<g id="edge23" class="edge"><title>Node16&#45;&gt;Node11</title>
<path fill="none" stroke="midnightblue" d="M608.745,-56.324C624.319,-47.7428 648.377,-34.486 666.459,-24.5224"/>
<polygon fill="midnightblue" stroke="midnightblue" points="668.224,-27.546 675.294,-19.6545 664.846,-21.4152 668.224,-27.546"/>
</g>
</g>
</svg>
