<?xml version="1.0" encoding="UTF-8" standalone="no"?>
<!DOCTYPE svg PUBLIC "-//W3C//DTD SVG 1.1//EN"
 "http://www.w3.org/Graphics/SVG/1.1/DTD/svg11.dtd">
<!-- Generated by graphviz version 2.36.0 (20140111.2315)
 -->
<!-- Title: /home/travis/build/robotology/wb&#45;toolbox/toolbox/src/base/SimulinkBlockInformation.cpp Pages: 1 -->
<!--zoomable 230 -->
<svg id="main" version="1.1" xmlns="http://www.w3.org/2000/svg" xmlns:xlink="http://www.w3.org/1999/xlink" xml:space="preserve" onload="init(evt)">
<style type="text/css"><![CDATA[
.edge:hover path { stroke: red; }
.edge:hover polygon { stroke: red; fill: red; }
]]></style>
<script type="text/javascript"><![CDATA[
var edges = document.getElementsByTagName('g');
if (edges && edges.length) {
  for (var i=0;i<edges.length;i++) {
    if (edges[i].id.substr(0,4)=='edge') {
      edges[i].setAttribute('class','edge');
    }
  }
}
]]></script>
        <defs>
                <circle id="rim" cx="0" cy="0" r="7"/>
                <circle id="rim2" cx="0" cy="0" r="3.5"/>
                <g id="zoomPlus">
                        <use xlink:href="#rim" fill="#404040">
                                <set attributeName="fill" to="#808080" begin="zoomplus.mouseover" end="zoomplus.mouseout"/>
                        </use>
                        <path d="M-4,0h8M0,-4v8" fill="none" stroke="white" stroke-width="1.5" pointer-events="none"/>
                </g>
                <g id="zoomMin">
                        <use xlink:href="#rim" fill="#404040">
                                <set attributeName="fill" to="#808080" begin="zoomminus.mouseover" end="zoomminus.mouseout"/>
                        </use>
                        <path d="M-4,0h8" fill="none" stroke="white" stroke-width="1.5" pointer-events="none"/>
                </g>
                <g id="dirArrow">
                        <path fill="none" stroke="white" stroke-width="1.5" d="M0,-3.0v7 M-2.5,-0.5L0,-3.0L2.5,-0.5"/>
                </g>
               <g id="resetDef">
                       <use xlink:href="#rim2" fill="#404040">
                               <set attributeName="fill" to="#808080" begin="reset.mouseover" end="reset.mouseout"/>
                       </use>
               </g>
        </defs>

<script type="text/javascript">
var viewWidth = 804;
var viewHeight = 230;
var sectionId = 'dynsection-0';
</script>
<script xlink:href="svgpan.js"/>
<svg id="graph" class="graph">
<g id="viewport">
<title>/home/travis/build/robotology/wb&#45;toolbox/toolbox/src/base/SimulinkBlockInformation.cpp</title>
<!-- Node1 -->
<g id="node1" class="node"><title>Node1</title>
<polygon fill="#bfbfbf" stroke="black" points="373.5,-169 373.5,-221 530.5,-221 530.5,-169 373.5,-169"/>
<text text-anchor="start" x="381.5" y="-209" font-family="Helvetica,sans-Serif" font-size="10.00">/home/travis/build</text>
<text text-anchor="start" x="381.5" y="-198" font-family="Helvetica,sans-Serif" font-size="10.00">/robotology/wb&#45;toolbox</text>
<text text-anchor="start" x="381.5" y="-187" font-family="Helvetica,sans-Serif" font-size="10.00">/toolbox/src/base/SimulinkBlock</text>
<text text-anchor="middle" x="452" y="-176" font-family="Helvetica,sans-Serif" font-size="10.00">Information.cpp</text>
</g>
<!-- Node2 -->
<g id="node2" class="node"><title>Node2</title>
<g id="a_node2"><a xlink:href="_simulink_block_information_8h.html" target="_top" xlink:title="SimulinkBlockInformation.h">
<polygon fill="none" stroke="black" points="125,-112.5 125,-131.5 261,-131.5 261,-112.5 125,-112.5"/>
<text text-anchor="middle" x="193" y="-119.5" font-family="Helvetica,sans-Serif" font-size="10.00">SimulinkBlockInformation.h</text>
</a>
</g>
</g>
<!-- Node1&#45;&gt;Node2 -->
<g id="edge1" class="edge"><title>Node1&#45;&gt;Node2</title>
<path fill="none" stroke="midnightblue" d="M373.237,-172.408C327.392,-159.841 271.471,-144.511 234.193,-134.292"/>
<polygon fill="midnightblue" stroke="midnightblue" points="234.766,-130.82 224.197,-131.552 232.916,-137.571 234.766,-130.82"/>
</g>
<!-- Node6 -->
<g id="node6" class="node"><title>Node6</title>
<polygon fill="none" stroke="#bfbfbf" points="515.5,-0.5 515.5,-19.5 556.5,-19.5 556.5,-0.5 515.5,-0.5"/>
<text text-anchor="middle" x="536" y="-7.5" font-family="Helvetica,sans-Serif" font-size="10.00">string</text>
</g>
<!-- Node1&#45;&gt;Node6 -->
<g id="edge29" class="edge"><title>Node1&#45;&gt;Node6</title>
<path fill="none" stroke="midnightblue" d="M530.771,-184.289C592.599,-171.62 671.674,-142.546 693,-76 695.713,-67.5352 698.35,-63.0987 693,-56 685.278,-45.7542 610,-27.503 566.549,-17.6873"/>
<polygon fill="midnightblue" stroke="midnightblue" points="567.287,-14.2658 556.764,-15.4976 565.758,-21.0969 567.287,-14.2658"/>
</g>
<!-- Node8 -->
<g id="node8" class="node"><title>Node8</title>
<g id="a_node8"><a xlink:href="_signal_8h.html" target="_top" xlink:title="Signal.h">
<polygon fill="none" stroke="black" points="0,-56.5 0,-75.5 52,-75.5 52,-56.5 0,-56.5"/>
<text text-anchor="middle" x="26" y="-63.5" font-family="Helvetica,sans-Serif" font-size="10.00">Signal.h</text>
</a>
</g>
</g>
<!-- Node1&#45;&gt;Node8 -->
<g id="edge23" class="edge"><title>Node1&#45;&gt;Node8</title>
<path fill="none" stroke="midnightblue" d="M373.463,-189.323C303.508,-182.902 199.588,-167.733 116,-132 87.6717,-119.89 59.6316,-97.5616 42.5639,-82.4966"/>
<polygon fill="midnightblue" stroke="midnightblue" points="44.8787,-79.871 35.1135,-75.7612 40.1844,-85.0637 44.8787,-79.871"/>
</g>
<!-- Node10 -->
<g id="node10" class="node"><title>Node10</title>
<polygon fill="none" stroke="#bfbfbf" points="446,-56.5 446,-75.5 490,-75.5 490,-56.5 446,-56.5"/>
<text text-anchor="middle" x="468" y="-63.5" font-family="Helvetica,sans-Serif" font-size="10.00">vector</text>
</g>
<!-- Node1&#45;&gt;Node10 -->
<g id="edge30" class="edge"><title>Node1&#45;&gt;Node10</title>
<path fill="none" stroke="midnightblue" d="M390.859,-168.862C364.618,-154.231 343.032,-134.295 358,-112 362.657,-105.063 405.455,-88.8904 436.266,-77.9456"/>
<polygon fill="midnightblue" stroke="midnightblue" points="437.515,-81.2166 445.785,-74.5942 435.19,-74.6139 437.515,-81.2166"/>
</g>
<!-- Node11 -->
<g id="node11" class="node"><title>Node11</title>
<g id="a_node11"><a xlink:href="_log_8h.html" target="_top" xlink:title="Log.h">
<polygon fill="none" stroke="black" points="386.5,-56.5 386.5,-75.5 427.5,-75.5 427.5,-56.5 386.5,-56.5"/>
<text text-anchor="middle" x="407" y="-63.5" font-family="Helvetica,sans-Serif" font-size="10.00">Log.h</text>
</a>
</g>
</g>
<!-- Node1&#45;&gt;Node11 -->
<g id="edge11" class="edge"><title>Node1&#45;&gt;Node11</title>
<path fill="none" stroke="midnightblue" d="M388.357,-168.84C373.114,-159.628 358.736,-147.534 350,-132 338.835,-112.147 360.938,-92.9897 380.79,-80.6801"/>
<polygon fill="midnightblue" stroke="midnightblue" points="382.749,-83.5891 389.625,-75.5282 379.223,-77.542 382.749,-83.5891"/>
</g>
<!-- Node13 -->
<g id="node13" class="node"><title>Node13</title>
<polygon fill="none" stroke="#bfbfbf" points="460.5,-112.5 460.5,-131.5 537.5,-131.5 537.5,-112.5 460.5,-112.5"/>
<text text-anchor="middle" x="499" y="-119.5" font-family="Helvetica,sans-Serif" font-size="10.00">MxAnyType.h</text>
</g>
<!-- Node1&#45;&gt;Node13 -->
<g id="edge15" class="edge"><title>Node1&#45;&gt;Node13</title>
<path fill="none" stroke="midnightblue" d="M468.703,-168.768C474.981,-159.284 481.967,-148.731 487.647,-140.15"/>
<polygon fill="midnightblue" stroke="midnightblue" points="490.602,-142.028 493.203,-131.757 484.765,-138.164 490.602,-142.028"/>
</g>
<!-- Node14 -->
<g id="node14" class="node"><title>Node14</title>
<g id="a_node14"><a xlink:href="_parameter_8h.html" target="_top" xlink:title="Parameter.h">
<polygon fill="none" stroke="black" points="556,-112.5 556,-131.5 626,-131.5 626,-112.5 556,-112.5"/>
<text text-anchor="middle" x="591" y="-119.5" font-family="Helvetica,sans-Serif" font-size="10.00">Parameter.h</text>
</a>
</g>
</g>
<!-- Node1&#45;&gt;Node14 -->
<g id="edge16" class="edge"><title>Node1&#45;&gt;Node14</title>
<path fill="none" stroke="midnightblue" d="M501.006,-168.968C522.506,-157.986 546.879,-145.537 564.832,-136.366"/>
<polygon fill="midnightblue" stroke="midnightblue" points="566.774,-139.305 574.087,-131.639 563.59,-133.071 566.774,-139.305"/>
</g>
<!-- Node15 -->
<g id="node15" class="node"><title>Node15</title>
<g id="a_node15"><a xlink:href="_parameters_8h.html" target="_top" xlink:title="Parameters.h">
<polygon fill="none" stroke="black" points="367.5,-112.5 367.5,-131.5 442.5,-131.5 442.5,-112.5 367.5,-112.5"/>
<text text-anchor="middle" x="405" y="-119.5" font-family="Helvetica,sans-Serif" font-size="10.00">Parameters.h</text>
</a>
</g>
</g>
<!-- Node1&#45;&gt;Node15 -->
<g id="edge19" class="edge"><title>Node1&#45;&gt;Node15</title>
<path fill="none" stroke="midnightblue" d="M435.297,-168.768C429.019,-159.284 422.033,-148.731 416.353,-140.15"/>
<polygon fill="midnightblue" stroke="midnightblue" points="419.235,-138.164 410.797,-131.757 413.398,-142.028 419.235,-138.164"/>
</g>
<!-- Node16 -->
<g id="node16" class="node"><title>Node16</title>
<g id="a_node16"><a xlink:href="_toolbox_singleton_8h.html" target="_top" xlink:title="ToolboxSingleton.h">
<polygon fill="none" stroke="black" points="584,-56.5 584,-75.5 684,-75.5 684,-56.5 584,-56.5"/>
<text text-anchor="middle" x="634" y="-63.5" font-family="Helvetica,sans-Serif" font-size="10.00">ToolboxSingleton.h</text>
</a>
</g>
</g>
<!-- Node1&#45;&gt;Node16 -->
<g id="edge24" class="edge"><title>Node1&#45;&gt;Node16</title>
<path fill="none" stroke="midnightblue" d="M530.796,-188.069C568.823,-180.77 611.25,-165.122 635,-132 644.548,-118.684 642.945,-99.5646 639.767,-85.5081"/>
<polygon fill="midnightblue" stroke="midnightblue" points="643.057,-84.2653 637.064,-75.5278 636.3,-86.0951 643.057,-84.2653"/>
</g>
<!-- Node18 -->
<g id="node18" class="node"><title>Node18</title>
<polygon fill="none" stroke="#bfbfbf" points="740,-112.5 740,-131.5 796,-131.5 796,-112.5 740,-112.5"/>
<text text-anchor="middle" x="768" y="-119.5" font-family="Helvetica,sans-Serif" font-size="10.00">algorithm</text>
</g>
<!-- Node1&#45;&gt;Node18 -->
<g id="edge28" class="edge"><title>Node1&#45;&gt;Node18</title>
<path fill="none" stroke="midnightblue" d="M530.518,-176.358C594,-162.095 680.628,-142.631 729.793,-131.584"/>
<polygon fill="midnightblue" stroke="midnightblue" points="730.705,-134.967 739.694,-129.36 729.17,-128.137 730.705,-134.967"/>
</g>
<!-- Node3 -->
<g id="node3" class="node"><title>Node3</title>
<polygon fill="none" stroke="#bfbfbf" points="150,-56.5 150,-75.5 214,-75.5 214,-56.5 150,-56.5"/>
<text text-anchor="middle" x="182" y="-63.5" font-family="Helvetica,sans-Serif" font-size="10.00">AnyType.h</text>
</g>
<!-- Node2&#45;&gt;Node3 -->
<g id="edge2" class="edge"><title>Node2&#45;&gt;Node3</title>
<path fill="none" stroke="midnightblue" d="M191.184,-112.083C189.726,-104.927 187.629,-94.6353 185.807,-85.6911"/>
<polygon fill="midnightblue" stroke="midnightblue" points="189.208,-84.8512 183.783,-75.7511 182.349,-86.2485 189.208,-84.8512"/>
</g>
<!-- Node4 -->
<g id="node4" class="node"><title>Node4</title>
<g id="a_node4"><a xlink:href="_block_information_8h.html" target="_top" xlink:title="BlockInformation.h">
<polygon fill="none" stroke="black" points="232,-56.5 232,-75.5 330,-75.5 330,-56.5 232,-56.5"/>
<text text-anchor="middle" x="281" y="-63.5" font-family="Helvetica,sans-Serif" font-size="10.00">BlockInformation.h</text>
</a>
</g>
</g>
<!-- Node2&#45;&gt;Node4 -->
<g id="edge3" class="edge"><title>Node2&#45;&gt;Node4</title>
<path fill="none" stroke="midnightblue" d="M207.139,-112.324C220.866,-103.9 241.936,-90.9709 258.064,-81.0741"/>
<polygon fill="midnightblue" stroke="midnightblue" points="260.204,-83.8678 266.896,-75.6545 256.543,-77.9016 260.204,-83.8678"/>
</g>
<!-- Node2&#45;&gt;Node8 -->
<g id="edge7" class="edge"><title>Node2&#45;&gt;Node8</title>
<path fill="none" stroke="midnightblue" d="M166.538,-112.444C138.239,-103.293 93.1955,-88.7279 61.7546,-78.5614"/>
<polygon fill="midnightblue" stroke="midnightblue" points="62.6547,-75.1741 52.0629,-75.4275 60.501,-81.8345 62.6547,-75.1741"/>
</g>
<!-- Node9 -->
<g id="node9" class="node"><title>Node9</title>
<polygon fill="none" stroke="#bfbfbf" points="70,-56.5 70,-75.5 132,-75.5 132,-56.5 70,-56.5"/>
<text text-anchor="middle" x="101" y="-63.5" font-family="Helvetica,sans-Serif" font-size="10.00">simstruc.h</text>
</g>
<!-- Node2&#45;&gt;Node9 -->
<g id="edge9" class="edge"><title>Node2&#45;&gt;Node9</title>
<path fill="none" stroke="midnightblue" d="M178.219,-112.324C163.733,-103.822 141.427,-90.7288 124.507,-80.7975"/>
<polygon fill="midnightblue" stroke="midnightblue" points="126.141,-77.6981 115.745,-75.6545 122.597,-83.735 126.141,-77.6981"/>
</g>
<!-- Node2&#45;&gt;Node10 -->
<g id="edge10" class="edge"><title>Node2&#45;&gt;Node10</title>
<path fill="none" stroke="midnightblue" d="M246.86,-112.473C294.075,-104.671 364.738,-92.2071 435.678,-75.884"/>
<polygon fill="midnightblue" stroke="midnightblue" points="436.741,-79.2303 445.687,-73.5552 435.154,-72.4124 436.741,-79.2303"/>
</g>
<!-- Node5 -->
<g id="node5" class="node"><title>Node5</title>
<polygon fill="none" stroke="#bfbfbf" points="325,-0.5 325,-19.5 377,-19.5 377,-0.5 325,-0.5"/>
<text text-anchor="middle" x="351" y="-7.5" font-family="Helvetica,sans-Serif" font-size="10.00">memory</text>
</g>
<!-- Node4&#45;&gt;Node5 -->
<g id="edge4" class="edge"><title>Node4&#45;&gt;Node5</title>
<path fill="none" stroke="midnightblue" d="M292.247,-56.324C302.797,-48.1849 318.801,-35.8395 331.442,-26.0874"/>
<polygon fill="midnightblue" stroke="midnightblue" points="333.769,-28.7132 339.549,-19.8339 329.493,-23.1707 333.769,-28.7132"/>
</g>
<!-- Node4&#45;&gt;Node6 -->
<g id="edge5" class="edge"><title>Node4&#45;&gt;Node6</title>
<path fill="none" stroke="midnightblue" d="M321.406,-56.4435C372.478,-45.6282 459.265,-27.2498 505.263,-17.509"/>
<polygon fill="midnightblue" stroke="midnightblue" points="506.176,-20.8934 515.234,-15.3976 504.725,-14.0453 506.176,-20.8934"/>
</g>
<!-- Node7 -->
<g id="node7" class="node"><title>Node7</title>
<polygon fill="none" stroke="#bfbfbf" points="261,-0.5 261,-19.5 301,-19.5 301,-0.5 261,-0.5"/>
<text text-anchor="middle" x="281" y="-7.5" font-family="Helvetica,sans-Serif" font-size="10.00">utility</text>
</g>
<!-- Node4&#45;&gt;Node7 -->
<g id="edge6" class="edge"><title>Node4&#45;&gt;Node7</title>
<path fill="none" stroke="midnightblue" d="M281,-56.083C281,-49.0059 281,-38.8611 281,-29.9865"/>
<polygon fill="midnightblue" stroke="midnightblue" points="284.5,-29.751 281,-19.7511 277.5,-29.7511 284.5,-29.751"/>
</g>
<!-- Node8&#45;&gt;Node5 -->
<g id="edge8" class="edge"><title>Node8&#45;&gt;Node5</title>
<path fill="none" stroke="midnightblue" d="M52.3031,-57.9113C55.2271,-57.2203 58.1701,-56.5667 61,-56 170.641,-34.0444 199.986,-40.0004 310,-20 311.479,-19.7312 312.985,-19.4472 314.506,-19.1523"/>
<polygon fill="midnightblue" stroke="midnightblue" points="315.493,-22.523 324.59,-17.0922 314.092,-15.6646 315.493,-22.523"/>
</g>
<!-- Node11&#45;&gt;Node5 -->
<g id="edge12" class="edge"><title>Node11&#45;&gt;Node5</title>
<path fill="none" stroke="midnightblue" d="M398.003,-56.324C389.806,-48.4196 377.494,-36.5482 367.528,-26.9377"/>
<polygon fill="midnightblue" stroke="midnightblue" points="369.789,-24.2558 360.161,-19.8339 364.93,-29.2947 369.789,-24.2558"/>
</g>
<!-- Node11&#45;&gt;Node6 -->
<g id="edge14" class="edge"><title>Node11&#45;&gt;Node6</title>
<path fill="none" stroke="midnightblue" d="M427.44,-56.4435C448.67,-47.5566 482.099,-33.5632 506.255,-23.4514"/>
<polygon fill="midnightblue" stroke="midnightblue" points="507.782,-26.6064 515.655,-19.5164 505.079,-20.1493 507.782,-26.6064"/>
</g>
<!-- Node12 -->
<g id="node12" class="node"><title>Node12</title>
<polygon fill="none" stroke="#bfbfbf" points="395,-0.5 395,-19.5 447,-19.5 447,-0.5 395,-0.5"/>
<text text-anchor="middle" x="421" y="-7.5" font-family="Helvetica,sans-Serif" font-size="10.00">sstream</text>
</g>
<!-- Node11&#45;&gt;Node12 -->
<g id="edge13" class="edge"><title>Node11&#45;&gt;Node12</title>
<path fill="none" stroke="midnightblue" d="M409.312,-56.083C411.167,-48.9272 413.835,-38.6353 416.154,-29.6911"/>
<polygon fill="midnightblue" stroke="midnightblue" points="419.609,-30.3094 418.731,-19.7511 412.834,-28.5527 419.609,-30.3094"/>
</g>
<!-- Node14&#45;&gt;Node6 -->
<g id="edge17" class="edge"><title>Node14&#45;&gt;Node6</title>
<path fill="none" stroke="midnightblue" d="M586.684,-112.368C577.688,-94.376 556.775,-52.5503 544.813,-28.6267"/>
<polygon fill="midnightblue" stroke="midnightblue" points="547.898,-26.9704 540.296,-19.5914 541.637,-30.101 547.898,-26.9704"/>
</g>
<!-- Node14&#45;&gt;Node10 -->
<g id="edge18" class="edge"><title>Node14&#45;&gt;Node10</title>
<path fill="none" stroke="midnightblue" d="M571.51,-112.444C551.358,-103.596 519.677,-89.6875 496.669,-79.5865"/>
<polygon fill="midnightblue" stroke="midnightblue" points="497.962,-76.3316 487.399,-75.5164 495.148,-82.7411 497.962,-76.3316"/>
</g>
<!-- Node15&#45;&gt;Node5 -->
<g id="edge20" class="edge"><title>Node15&#45;&gt;Node5</title>
<path fill="none" stroke="midnightblue" d="M398.945,-112.303C392.924,-103.43 383.648,-89.1355 377,-76 369.282,-60.7505 362.197,-42.6409 357.38,-29.415"/>
<polygon fill="midnightblue" stroke="midnightblue" points="360.547,-27.8754 353.902,-19.6238 353.951,-30.2185 360.547,-27.8754"/>
</g>
<!-- Node15&#45;&gt;Node6 -->
<g id="edge21" class="edge"><title>Node15&#45;&gt;Node6</title>
<path fill="none" stroke="midnightblue" d="M432.776,-112.463C452.73,-105.245 479.298,-93.2907 498,-76 512.211,-62.8611 522.695,-43.1773 529.01,-28.9144"/>
<polygon fill="midnightblue" stroke="midnightblue" points="532.251,-30.235 532.864,-19.658 525.789,-27.544 532.251,-30.235"/>
</g>
<!-- Node15&#45;&gt;Node10 -->
<g id="edge22" class="edge"><title>Node15&#45;&gt;Node10</title>
<path fill="none" stroke="midnightblue" d="M415.122,-112.324C424.526,-104.263 438.744,-92.0765 450.069,-82.3695"/>
<polygon fill="midnightblue" stroke="midnightblue" points="452.379,-84.9993 457.694,-75.8339 447.823,-79.6844 452.379,-84.9993"/>
</g>
<!-- Node16&#45;&gt;Node5 -->
<g id="edge25" class="edge"><title>Node16&#45;&gt;Node5</title>
<path fill="none" stroke="midnightblue" d="M583.913,-57.0028C535.83,-49.0808 460.957,-36.1063 387.244,-20.1529"/>
<polygon fill="midnightblue" stroke="midnightblue" points="387.841,-16.701 377.325,-17.9863 386.347,-23.5397 387.841,-16.701"/>
</g>
<!-- Node16&#45;&gt;Node6 -->
<g id="edge26" class="edge"><title>Node16&#45;&gt;Node6</title>
<path fill="none" stroke="midnightblue" d="M618.255,-56.324C602.681,-47.7428 578.623,-34.486 560.541,-24.5224"/>
<polygon fill="midnightblue" stroke="midnightblue" points="562.154,-21.4152 551.706,-19.6545 558.776,-27.546 562.154,-21.4152"/>
</g>
<!-- Node17 -->
<g id="node17" class="node"><title>Node17</title>
<polygon fill="none" stroke="#bfbfbf" points="592.5,-0.5 592.5,-19.5 675.5,-19.5 675.5,-0.5 592.5,-0.5"/>
<text text-anchor="middle" x="634" y="-7.5" font-family="Helvetica,sans-Serif" font-size="10.00">unordered_map</text>
</g>
<!-- Node16&#45;&gt;Node17 -->
<g id="edge27" class="edge"><title>Node16&#45;&gt;Node17</title>
<path fill="none" stroke="midnightblue" d="M634,-56.083C634,-49.0059 634,-38.8611 634,-29.9865"/>
<polygon fill="midnightblue" stroke="midnightblue" points="637.5,-29.751 634,-19.7511 630.5,-29.7511 637.5,-29.751"/>
</g>
</g>
</svg>
        <g id="navigator" transform="translate(0 0)" fill="#404254">
                <rect fill="#f2f5e9" fill-opacity="0.5" stroke="#606060" stroke-width=".5" x="0" y="0" width="60" height="60"/>
                <use id="zoomplus" xlink:href="#zoomPlus" x="17" y="9" onmousedown="handleZoom(evt,'in')"/>
                <use id="zoomminus" xlink:href="#zoomMin" x="42" y="9" onmousedown="handleZoom(evt,'out')"/>
                <use id="reset" xlink:href="#resetDef" x="30" y="36" onmousedown="handleReset()"/>
                <g id="arrowUp" xlink:href="#dirArrow" transform="translate(30 24)" onmousedown="handlePan(0,-1)">
                  <use xlink:href="#rim" fill="#404040">
                        <set attributeName="fill" to="#808080" begin="arrowUp.mouseover" end="arrowUp.mouseout"/>
                  </use>
                  <path fill="none" stroke="white" stroke-width="1.5" d="M0,-3.0v7 M-2.5,-0.5L0,-3.0L2.5,-0.5"/>
                </g>
                <g id="arrowRight" xlink:href="#dirArrow" transform="rotate(90) translate(36 -43)" onmousedown="handlePan(1,0)">
                  <use xlink:href="#rim" fill="#404040">
                        <set attributeName="fill" to="#808080" begin="arrowRight.mouseover" end="arrowRight.mouseout"/>
                  </use>
                  <path fill="none" stroke="white" stroke-width="1.5" d="M0,-3.0v7 M-2.5,-0.5L0,-3.0L2.5,-0.5"/>
                </g>
                <g id="arrowDown" xlink:href="#dirArrow" transform="rotate(180) translate(-30 -48)" onmousedown="handlePan(0,1)">
                  <use xlink:href="#rim" fill="#404040">
                        <set attributeName="fill" to="#808080" begin="arrowDown.mouseover" end="arrowDown.mouseout"/>
                  </use>
                  <path fill="none" stroke="white" stroke-width="1.5" d="M0,-3.0v7 M-2.5,-0.5L0,-3.0L2.5,-0.5"/>
                </g>
                <g id="arrowLeft" xlink:href="#dirArrow" transform="rotate(270) translate(-36 17)" onmousedown="handlePan(-1,0)">
                  <use xlink:href="#rim" fill="#404040">
                        <set attributeName="fill" to="#808080" begin="arrowLeft.mouseover" end="arrowLeft.mouseout"/>
                  </use>
                  <path fill="none" stroke="white" stroke-width="1.5" d="M0,-3.0v7 M-2.5,-0.5L0,-3.0L2.5,-0.5"/>
                </g>
        </g>
        <svg viewBox="0 0 15 15" width="100%" height="30px" preserveAspectRatio="xMaxYMin meet">
         <g id="arrow_out" transform="scale(0.3 0.3)">
          <a xlink:href="_simulink_block_information_8cpp__incl_org.svg" target="_base">
           <rect id="button" ry="5" rx="5" y="6" x="6" height="38" width="38"
                fill="#f2f5e9" fill-opacity="0.5" stroke="#606060" stroke-width="1.0"/>
           <path id="arrow"
             d="M 11.500037,31.436501 C 11.940474,20.09759 22.043105,11.32322 32.158766,21.979434 L 37.068811,17.246167 C 37.068811,17.246167 37.088388,32 37.088388,32 L 22.160133,31.978069 C 22.160133,31.978069 26.997745,27.140456 26.997745,27.140456 C 18.528582,18.264221 13.291696,25.230495 11.500037,31.436501 z"
             style="fill:#404040;"/>
          </a>
         </g>
        </svg>
</svg>
