<?xml version="1.0" encoding="UTF-8" standalone="no"?>
<!DOCTYPE svg PUBLIC "-//W3C//DTD SVG 1.1//EN"
 "http://www.w3.org/Graphics/SVG/1.1/DTD/svg11.dtd">
<!-- Generated by graphviz version 2.36.0 (20140111.2315)
 -->
<!-- Title: /home/travis/build/robotology/wb&#45;toolbox/toolbox/src/base/SimulinkBlockInformation.cpp Pages: 1 -->
<svg width="907pt" height="230pt"
 viewBox="0.00 0.00 907.00 230.00" xmlns="http://www.w3.org/2000/svg" xmlns:xlink="http://www.w3.org/1999/xlink">
<g id="graph0" class="graph" transform="scale(1 1) rotate(0) translate(4 226)">
<title>/home/travis/build/robotology/wb&#45;toolbox/toolbox/src/base/SimulinkBlockInformation.cpp</title>
<!-- Node1 -->
<g id="node1" class="node"><title>Node1</title>
<polygon fill="#bfbfbf" stroke="black" points="469.5,-169 469.5,-221 626.5,-221 626.5,-169 469.5,-169"/>
<text text-anchor="start" x="477.5" y="-209" font-family="Helvetica,sans-Serif" font-size="10.00">/home/travis/build</text>
<text text-anchor="start" x="477.5" y="-198" font-family="Helvetica,sans-Serif" font-size="10.00">/robotology/wb&#45;toolbox</text>
<text text-anchor="start" x="477.5" y="-187" font-family="Helvetica,sans-Serif" font-size="10.00">/toolbox/src/base/SimulinkBlock</text>
<text text-anchor="middle" x="548" y="-176" font-family="Helvetica,sans-Serif" font-size="10.00">Information.cpp</text>
</g>
<!-- Node2 -->
<g id="node2" class="node"><title>Node2</title>
<g id="a_node2"><a xlink:href="_simulink_block_information_8h.html" target="_top" xlink:title="SimulinkBlockInformation.h">
<polygon fill="none" stroke="black" points="238,-112.5 238,-131.5 374,-131.5 374,-112.5 238,-112.5"/>
<text text-anchor="middle" x="306" y="-119.5" font-family="Helvetica,sans-Serif" font-size="10.00">SimulinkBlockInformation.h</text>
</a>
</g>
</g>
<!-- Node1&#45;&gt;Node2 -->
<g id="edge1" class="edge"><title>Node1&#45;&gt;Node2</title>
<path fill="none" stroke="midnightblue" d="M469.43,-170.948C427.78,-158.729 378.451,-144.256 344.965,-134.432"/>
<polygon fill="midnightblue" stroke="midnightblue" points="345.688,-130.997 335.107,-131.54 343.717,-137.713 345.688,-130.997"/>
</g>
<!-- Node6 -->
<g id="node6" class="node"><title>Node6</title>
<polygon fill="none" stroke="#bfbfbf" points="402.5,-0.5 402.5,-19.5 443.5,-19.5 443.5,-0.5 402.5,-0.5"/>
<text text-anchor="middle" x="423" y="-7.5" font-family="Helvetica,sans-Serif" font-size="10.00">string</text>
</g>
<!-- Node1&#45;&gt;Node6 -->
<g id="edge26" class="edge"><title>Node1&#45;&gt;Node6</title>
<path fill="none" stroke="midnightblue" d="M519.752,-168.941C496.197,-146.652 463.317,-112.081 443,-76 434.854,-61.5325 429.622,-43.3458 426.561,-29.8915"/>
<polygon fill="midnightblue" stroke="midnightblue" points="429.944,-28.9681 424.484,-19.8885 423.09,-30.3912 429.944,-28.9681"/>
</g>
<!-- Node8 -->
<g id="node8" class="node"><title>Node8</title>
<polygon fill="none" stroke="#bfbfbf" points="533,-0.5 533,-19.5 577,-19.5 577,-0.5 533,-0.5"/>
<text text-anchor="middle" x="555" y="-7.5" font-family="Helvetica,sans-Serif" font-size="10.00">vector</text>
</g>
<!-- Node1&#45;&gt;Node8 -->
<g id="edge28" class="edge"><title>Node1&#45;&gt;Node8</title>
<path fill="none" stroke="midnightblue" d="M584.146,-168.938C611.29,-147.742 646.363,-114.69 662,-76 675.899,-41.61 623.718,-24.1853 587.382,-16.3894"/>
<polygon fill="midnightblue" stroke="midnightblue" points="587.654,-12.875 577.163,-14.3551 586.287,-19.7403 587.654,-12.875"/>
</g>
<!-- Node9 -->
<g id="node9" class="node"><title>Node9</title>
<g id="a_node9"><a xlink:href="_signal_8h.html" target="_top" xlink:title="Signal.h">
<polygon fill="none" stroke="black" points="65,-56.5 65,-75.5 117,-75.5 117,-56.5 65,-56.5"/>
<text text-anchor="middle" x="91" y="-63.5" font-family="Helvetica,sans-Serif" font-size="10.00">Signal.h</text>
</a>
</g>
</g>
<!-- Node1&#45;&gt;Node9 -->
<g id="edge24" class="edge"><title>Node1&#45;&gt;Node9</title>
<path fill="none" stroke="midnightblue" d="M469.274,-184.255C403.855,-174.846 308.899,-158.13 229,-132 187.527,-118.437 142.274,-95.4067 115.287,-80.7145"/>
<polygon fill="midnightblue" stroke="midnightblue" points="116.658,-77.4741 106.211,-75.7117 113.279,-83.6044 116.658,-77.4741"/>
</g>
<!-- Node11 -->
<g id="node11" class="node"><title>Node11</title>
<g id="a_node11"><a xlink:href="_log_8h.html" target="_top" xlink:title="Log.h">
<polygon fill="none" stroke="black" points="5.5,-56.5 5.5,-75.5 46.5,-75.5 46.5,-56.5 5.5,-56.5"/>
<text text-anchor="middle" x="26" y="-63.5" font-family="Helvetica,sans-Serif" font-size="10.00">Log.h</text>
</a>
</g>
</g>
<!-- Node1&#45;&gt;Node11 -->
<g id="edge12" class="edge"><title>Node1&#45;&gt;Node11</title>
<path fill="none" stroke="midnightblue" d="M469.224,-186.612C392.847,-178.122 274.29,-161.417 175,-132 129.781,-118.603 80.1067,-94.999 51.0622,-80.2225"/>
<polygon fill="midnightblue" stroke="midnightblue" points="52.5324,-77.0428 42.0394,-75.5772 49.3282,-83.2665 52.5324,-77.0428"/>
</g>
<!-- Node13 -->
<g id="node13" class="node"><title>Node13</title>
<polygon fill="none" stroke="#bfbfbf" points="691.5,-112.5 691.5,-131.5 768.5,-131.5 768.5,-112.5 691.5,-112.5"/>
<text text-anchor="middle" x="730" y="-119.5" font-family="Helvetica,sans-Serif" font-size="10.00">MxAnyType.h</text>
</g>
<!-- Node1&#45;&gt;Node13 -->
<g id="edge16" class="edge"><title>Node1&#45;&gt;Node13</title>
<path fill="none" stroke="midnightblue" d="M612.166,-168.968C641.359,-157.58 674.598,-144.613 698.314,-135.361"/>
<polygon fill="midnightblue" stroke="midnightblue" points="699.811,-138.534 707.855,-131.639 697.267,-132.013 699.811,-138.534"/>
</g>
<!-- Node14 -->
<g id="node14" class="node"><title>Node14</title>
<g id="a_node14"><a xlink:href="_parameter_8h.html" target="_top" xlink:title="Parameter.h">
<polygon fill="none" stroke="black" points="583,-56.5 583,-75.5 653,-75.5 653,-56.5 583,-56.5"/>
<text text-anchor="middle" x="618" y="-63.5" font-family="Helvetica,sans-Serif" font-size="10.00">Parameter.h</text>
</a>
</g>
</g>
<!-- Node1&#45;&gt;Node14 -->
<g id="edge17" class="edge"><title>Node1&#45;&gt;Node14</title>
<path fill="none" stroke="midnightblue" d="M561.83,-168.909C575.582,-143.959 596.318,-106.338 608.373,-84.4665"/>
<polygon fill="midnightblue" stroke="midnightblue" points="611.483,-86.0751 613.245,-75.6278 605.352,-82.6961 611.483,-86.0751"/>
</g>
<!-- Node15 -->
<g id="node15" class="node"><title>Node15</title>
<g id="a_node15"><a xlink:href="_parameters_8h.html" target="_top" xlink:title="Parameters.h">
<polygon fill="none" stroke="black" points="451.5,-56.5 451.5,-75.5 526.5,-75.5 526.5,-56.5 451.5,-56.5"/>
<text text-anchor="middle" x="489" y="-63.5" font-family="Helvetica,sans-Serif" font-size="10.00">Parameters.h</text>
</a>
</g>
</g>
<!-- Node1&#45;&gt;Node15 -->
<g id="edge20" class="edge"><title>Node1&#45;&gt;Node15</title>
<path fill="none" stroke="midnightblue" d="M536.343,-168.909C524.805,-144.072 507.432,-106.677 497.252,-84.763"/>
<polygon fill="midnightblue" stroke="midnightblue" points="500.396,-83.2223 493.008,-75.6278 494.047,-86.1716 500.396,-83.2223"/>
</g>
<!-- Node16 -->
<g id="node16" class="node"><title>Node16</title>
<polygon fill="none" stroke="#bfbfbf" points="787,-112.5 787,-131.5 843,-131.5 843,-112.5 787,-112.5"/>
<text text-anchor="middle" x="815" y="-119.5" font-family="Helvetica,sans-Serif" font-size="10.00">algorithm</text>
</g>
<!-- Node1&#45;&gt;Node16 -->
<g id="edge25" class="edge"><title>Node1&#45;&gt;Node16</title>
<path fill="none" stroke="midnightblue" d="M626.665,-173.082C676.228,-159.902 737.997,-143.477 776.98,-133.11"/>
<polygon fill="midnightblue" stroke="midnightblue" points="778.096,-136.435 786.86,-130.483 776.297,-129.67 778.096,-136.435"/>
</g>
<!-- Node17 -->
<g id="node17" class="node"><title>Node17</title>
<polygon fill="none" stroke="#bfbfbf" points="861,-112.5 861,-131.5 899,-131.5 899,-112.5 861,-112.5"/>
<text text-anchor="middle" x="880" y="-119.5" font-family="Helvetica,sans-Serif" font-size="10.00">tuple</text>
</g>
<!-- Node1&#45;&gt;Node17 -->
<g id="edge27" class="edge"><title>Node1&#45;&gt;Node17</title>
<path fill="none" stroke="midnightblue" d="M626.647,-180.121C688.098,-168.744 775.46,-151.399 851,-132 851.099,-131.975 851.198,-131.949 851.297,-131.923"/>
<polygon fill="midnightblue" stroke="midnightblue" points="852.053,-135.347 860.733,-129.271 850.159,-128.608 852.053,-135.347"/>
</g>
<!-- Node3 -->
<g id="node3" class="node"><title>Node3</title>
<polygon fill="none" stroke="#bfbfbf" points="135,-56.5 135,-75.5 199,-75.5 199,-56.5 135,-56.5"/>
<text text-anchor="middle" x="167" y="-63.5" font-family="Helvetica,sans-Serif" font-size="10.00">AnyType.h</text>
</g>
<!-- Node2&#45;&gt;Node3 -->
<g id="edge2" class="edge"><title>Node2&#45;&gt;Node3</title>
<path fill="none" stroke="midnightblue" d="M283.975,-112.444C260.896,-103.478 224.438,-89.314 198.359,-79.1827"/>
<polygon fill="midnightblue" stroke="midnightblue" points="199.511,-75.8753 188.922,-75.5164 196.976,-82.4002 199.511,-75.8753"/>
</g>
<!-- Node4 -->
<g id="node4" class="node"><title>Node4</title>
<g id="a_node4"><a xlink:href="_block_information_8h.html" target="_top" xlink:title="BlockInformation.h">
<polygon fill="none" stroke="black" points="297,-56.5 297,-75.5 395,-75.5 395,-56.5 297,-56.5"/>
<text text-anchor="middle" x="346" y="-63.5" font-family="Helvetica,sans-Serif" font-size="10.00">BlockInformation.h</text>
</a>
</g>
</g>
<!-- Node2&#45;&gt;Node4 -->
<g id="edge3" class="edge"><title>Node2&#45;&gt;Node4</title>
<path fill="none" stroke="midnightblue" d="M312.605,-112.083C318.255,-104.455 326.545,-93.2645 333.451,-83.9408"/>
<polygon fill="midnightblue" stroke="midnightblue" points="336.378,-85.87 339.518,-75.7511 330.753,-81.7034 336.378,-85.87"/>
</g>
<!-- Node2&#45;&gt;Node8 -->
<g id="edge11" class="edge"><title>Node2&#45;&gt;Node8</title>
<path fill="none" stroke="midnightblue" d="M374.198,-115.296C432.894,-109.039 511.705,-96.9804 535,-76 548.003,-64.2886 552.654,-44.3494 554.265,-29.6357"/>
<polygon fill="midnightblue" stroke="midnightblue" points="557.758,-29.8528 554.992,-19.6255 550.776,-29.3455 557.758,-29.8528"/>
</g>
<!-- Node2&#45;&gt;Node9 -->
<g id="edge8" class="edge"><title>Node2&#45;&gt;Node9</title>
<path fill="none" stroke="midnightblue" d="M271.476,-112.442C237.21,-103.932 182.93,-90.4076 127.075,-76.2612"/>
<polygon fill="midnightblue" stroke="midnightblue" points="127.922,-72.8654 117.368,-73.8006 126.202,-79.6507 127.922,-72.8654"/>
</g>
<!-- Node10 -->
<g id="node10" class="node"><title>Node10</title>
<polygon fill="none" stroke="#bfbfbf" points="217,-56.5 217,-75.5 279,-75.5 279,-56.5 217,-56.5"/>
<text text-anchor="middle" x="248" y="-63.5" font-family="Helvetica,sans-Serif" font-size="10.00">simstruc.h</text>
</g>
<!-- Node2&#45;&gt;Node10 -->
<g id="edge10" class="edge"><title>Node2&#45;&gt;Node10</title>
<path fill="none" stroke="midnightblue" d="M296.681,-112.324C288.107,-104.341 275.188,-92.3128 264.812,-82.6529"/>
<polygon fill="midnightblue" stroke="midnightblue" points="267.192,-80.0865 257.488,-75.8339 262.422,-85.2098 267.192,-80.0865"/>
</g>
<!-- Node5 -->
<g id="node5" class="node"><title>Node5</title>
<polygon fill="none" stroke="#bfbfbf" points="163,-0.5 163,-19.5 215,-19.5 215,-0.5 163,-0.5"/>
<text text-anchor="middle" x="189" y="-7.5" font-family="Helvetica,sans-Serif" font-size="10.00">memory</text>
</g>
<!-- Node4&#45;&gt;Node5 -->
<g id="edge4" class="edge"><title>Node4&#45;&gt;Node5</title>
<path fill="none" stroke="midnightblue" d="M321.123,-56.4435C294.711,-47.3591 252.785,-32.9388 223.258,-22.7831"/>
<polygon fill="midnightblue" stroke="midnightblue" points="224.355,-19.4593 213.761,-19.5164 222.079,-26.0787 224.355,-19.4593"/>
</g>
<!-- Node4&#45;&gt;Node6 -->
<g id="edge5" class="edge"><title>Node4&#45;&gt;Node6</title>
<path fill="none" stroke="midnightblue" d="M358.371,-56.324C370.158,-48.0577 388.132,-35.4527 402.136,-25.6322"/>
<polygon fill="midnightblue" stroke="midnightblue" points="404.482,-28.2619 410.659,-19.6545 400.462,-22.5307 404.482,-28.2619"/>
</g>
<!-- Node7 -->
<g id="node7" class="node"><title>Node7</title>
<polygon fill="none" stroke="#bfbfbf" points="326,-0.5 326,-19.5 366,-19.5 366,-0.5 326,-0.5"/>
<text text-anchor="middle" x="346" y="-7.5" font-family="Helvetica,sans-Serif" font-size="10.00">utility</text>
</g>
<!-- Node4&#45;&gt;Node7 -->
<g id="edge6" class="edge"><title>Node4&#45;&gt;Node7</title>
<path fill="none" stroke="midnightblue" d="M346,-56.083C346,-49.0059 346,-38.8611 346,-29.9865"/>
<polygon fill="midnightblue" stroke="midnightblue" points="349.5,-29.751 346,-19.7511 342.5,-29.7511 349.5,-29.751"/>
</g>
<!-- Node4&#45;&gt;Node8 -->
<g id="edge7" class="edge"><title>Node4&#45;&gt;Node8</title>
<path fill="none" stroke="midnightblue" d="M379.117,-56.4435C418.634,-46.2334 484.238,-29.2831 523.175,-19.2226"/>
<polygon fill="midnightblue" stroke="midnightblue" points="524.131,-22.5907 532.938,-16.7003 522.38,-15.8133 524.131,-22.5907"/>
</g>
<!-- Node9&#45;&gt;Node5 -->
<g id="edge9" class="edge"><title>Node9&#45;&gt;Node5</title>
<path fill="none" stroke="midnightblue" d="M106.745,-56.324C122.319,-47.7428 146.377,-34.486 164.459,-24.5224"/>
<polygon fill="midnightblue" stroke="midnightblue" points="166.224,-27.546 173.294,-19.6545 162.846,-21.4152 166.224,-27.546"/>
</g>
<!-- Node11&#45;&gt;Node5 -->
<g id="edge13" class="edge"><title>Node11&#45;&gt;Node5</title>
<path fill="none" stroke="midnightblue" d="M46.6441,-58.1609C73.5057,-49.2619 120.859,-33.5744 153.529,-22.751"/>
<polygon fill="midnightblue" stroke="midnightblue" points="154.766,-26.0284 163.158,-19.5611 152.565,-19.3836 154.766,-26.0284"/>
</g>
<!-- Node11&#45;&gt;Node6 -->
<g id="edge15" class="edge"><title>Node11&#45;&gt;Node6</title>
<path fill="none" stroke="midnightblue" d="M46.5331,-58.3117C49.6806,-57.4404 52.9102,-56.6325 56,-56 195.779,-27.3863 233.9,-41.161 375,-20 380.555,-19.1669 386.449,-18.1623 392.136,-17.1307"/>
<polygon fill="midnightblue" stroke="midnightblue" points="392.844,-20.5589 402.028,-15.2759 391.554,-13.6788 392.844,-20.5589"/>
</g>
<!-- Node12 -->
<g id="node12" class="node"><title>Node12</title>
<polygon fill="none" stroke="#bfbfbf" points="0,-0.5 0,-19.5 52,-19.5 52,-0.5 0,-0.5"/>
<text text-anchor="middle" x="26" y="-7.5" font-family="Helvetica,sans-Serif" font-size="10.00">sstream</text>
</g>
<!-- Node11&#45;&gt;Node12 -->
<g id="edge14" class="edge"><title>Node11&#45;&gt;Node12</title>
<path fill="none" stroke="midnightblue" d="M26,-56.083C26,-49.0059 26,-38.8611 26,-29.9865"/>
<polygon fill="midnightblue" stroke="midnightblue" points="29.5001,-29.751 26,-19.7511 22.5001,-29.7511 29.5001,-29.751"/>
</g>
<!-- Node14&#45;&gt;Node6 -->
<g id="edge18" class="edge"><title>Node14&#45;&gt;Node6</title>
<path fill="none" stroke="midnightblue" d="M587.102,-56.4435C550.546,-46.3203 490.062,-29.5711 453.626,-19.481"/>
<polygon fill="midnightblue" stroke="midnightblue" points="454.156,-15.9961 443.585,-16.7003 452.288,-22.7423 454.156,-15.9961"/>
</g>
<!-- Node14&#45;&gt;Node8 -->
<g id="edge19" class="edge"><title>Node14&#45;&gt;Node8</title>
<path fill="none" stroke="midnightblue" d="M607.878,-56.324C598.474,-48.2631 584.256,-36.0765 572.931,-26.3695"/>
<polygon fill="midnightblue" stroke="midnightblue" points="575.177,-23.6844 565.306,-19.8339 570.621,-28.9993 575.177,-23.6844"/>
</g>
<!-- Node15&#45;&gt;Node5 -->
<g id="edge21" class="edge"><title>Node15&#45;&gt;Node5</title>
<path fill="none" stroke="midnightblue" d="M451.309,-58.2155C393.234,-47.7621 282.606,-27.8491 225.352,-17.5433"/>
<polygon fill="midnightblue" stroke="midnightblue" points="225.769,-14.0622 215.307,-15.7352 224.529,-20.9515 225.769,-14.0622"/>
</g>
<!-- Node15&#45;&gt;Node6 -->
<g id="edge22" class="edge"><title>Node15&#45;&gt;Node6</title>
<path fill="none" stroke="midnightblue" d="M478.396,-56.324C468.544,-48.2631 453.649,-36.0765 441.785,-26.3695"/>
<polygon fill="midnightblue" stroke="midnightblue" points="443.753,-23.4575 433.797,-19.8339 439.32,-28.8752 443.753,-23.4575"/>
</g>
<!-- Node15&#45;&gt;Node8 -->
<g id="edge23" class="edge"><title>Node15&#45;&gt;Node8</title>
<path fill="none" stroke="midnightblue" d="M499.604,-56.324C509.456,-48.2631 524.351,-36.0765 536.215,-26.3695"/>
<polygon fill="midnightblue" stroke="midnightblue" points="538.68,-28.8752 544.203,-19.8339 534.247,-23.4575 538.68,-28.8752"/>
</g>
</g>
</svg>
