<?xml version="1.0" encoding="UTF-8" standalone="no"?>
<!DOCTYPE svg PUBLIC "-//W3C//DTD SVG 1.1//EN"
 "http://www.w3.org/Graphics/SVG/1.1/DTD/svg11.dtd">
<!-- Generated by graphviz version 2.36.0 (20140111.2315)
 -->
<!-- Title: /home/travis/build/robotology/wb&#45;toolbox/toolbox/src/SimulatorSynchronizer.cpp Pages: 1 -->
<!--zoomable 274 -->
<svg id="main" version="1.1" xmlns="http://www.w3.org/2000/svg" xmlns:xlink="http://www.w3.org/1999/xlink" xml:space="preserve" onload="init(evt)">
<style type="text/css"><![CDATA[
.edge:hover path { stroke: red; }
.edge:hover polygon { stroke: red; fill: red; }
]]></style>
<script type="text/javascript"><![CDATA[
var edges = document.getElementsByTagName('g');
if (edges && edges.length) {
  for (var i=0;i<edges.length;i++) {
    if (edges[i].id.substr(0,4)=='edge') {
      edges[i].setAttribute('class','edge');
    }
  }
}
]]></script>
        <defs>
                <circle id="rim" cx="0" cy="0" r="7"/>
                <circle id="rim2" cx="0" cy="0" r="3.5"/>
                <g id="zoomPlus">
                        <use xlink:href="#rim" fill="#404040">
                                <set attributeName="fill" to="#808080" begin="zoomplus.mouseover" end="zoomplus.mouseout"/>
                        </use>
                        <path d="M-4,0h8M0,-4v8" fill="none" stroke="white" stroke-width="1.5" pointer-events="none"/>
                </g>
                <g id="zoomMin">
                        <use xlink:href="#rim" fill="#404040">
                                <set attributeName="fill" to="#808080" begin="zoomminus.mouseover" end="zoomminus.mouseout"/>
                        </use>
                        <path d="M-4,0h8" fill="none" stroke="white" stroke-width="1.5" pointer-events="none"/>
                </g>
                <g id="dirArrow">
                        <path fill="none" stroke="white" stroke-width="1.5" d="M0,-3.0v7 M-2.5,-0.5L0,-3.0L2.5,-0.5"/>
                </g>
               <g id="resetDef">
                       <use xlink:href="#rim2" fill="#404040">
                               <set attributeName="fill" to="#808080" begin="reset.mouseover" end="reset.mouseout"/>
                       </use>
               </g>
        </defs>

<script type="text/javascript">
var viewWidth = 822;
var viewHeight = 274;
var sectionId = 'dynsection-0';
</script>
<script xlink:href="svgpan.js"/>
<svg id="graph" class="graph">
<g id="viewport">
<title>/home/travis/build/robotology/wb&#45;toolbox/toolbox/src/SimulatorSynchronizer.cpp</title>
<!-- Node1 -->
<g id="node1" class="node"><title>Node1</title>
<polygon fill="#bfbfbf" stroke="black" points="293.087,-224.5 293.087,-265.5 481.087,-265.5 481.087,-224.5 293.087,-224.5"/>
<text text-anchor="start" x="301.087" y="-253.5" font-family="Helvetica,sans-Serif" font-size="10.00">/home/travis/build</text>
<text text-anchor="start" x="301.087" y="-242.5" font-family="Helvetica,sans-Serif" font-size="10.00">/robotology/wb&#45;toolbox</text>
<text text-anchor="middle" x="387.087" y="-231.5" font-family="Helvetica,sans-Serif" font-size="10.00">/toolbox/src/SimulatorSynchronizer.cpp</text>
</g>
<!-- Node2 -->
<g id="node2" class="node"><title>Node2</title>
<g id="a_node2"><a xlink:href="_simulator_synchronizer_8h.html" target="_top" xlink:title="SimulatorSynchronizer.h">
<polygon fill="none" stroke="black" points="80.5871,-168.5 80.5871,-187.5 203.587,-187.5 203.587,-168.5 80.5871,-168.5"/>
<text text-anchor="middle" x="142.087" y="-175.5" font-family="Helvetica,sans-Serif" font-size="10.00">SimulatorSynchronizer.h</text>
</a>
</g>
</g>
<!-- Node1&#45;&gt;Node2 -->
<g id="edge1" class="edge"><title>Node1&#45;&gt;Node2</title>
<path fill="none" stroke="midnightblue" d="M313.579,-224.498C271.373,-213.3 219.877,-199.638 184.394,-190.224"/>
<polygon fill="midnightblue" stroke="midnightblue" points="184.941,-186.749 174.378,-187.567 183.146,-193.514 184.941,-186.749"/>
</g>
<!-- Node4 -->
<g id="node4" class="node"><title>Node4</title>
<g id="a_node4"><a xlink:href="_parameters_8h.html" target="_top" xlink:title="Parameters.h">
<polygon fill="none" stroke="black" points="184.587,-56.5 184.587,-75.5 259.587,-75.5 259.587,-56.5 184.587,-56.5"/>
<text text-anchor="middle" x="222.087" y="-63.5" font-family="Helvetica,sans-Serif" font-size="10.00">Parameters.h</text>
</a>
</g>
</g>
<!-- Node1&#45;&gt;Node4 -->
<g id="edge26" class="edge"><title>Node1&#45;&gt;Node4</title>
<path fill="none" stroke="midnightblue" d="M304.997,-224.497C284.93,-216.206 265.197,-204.492 251.087,-188 226.132,-158.831 221.848,-111.854 221.563,-85.8469"/>
<polygon fill="midnightblue" stroke="midnightblue" points="225.063,-85.8326 221.645,-75.8044 218.063,-85.7755 225.063,-85.8326"/>
</g>
<!-- Node8 -->
<g id="node8" class="node"><title>Node8</title>
<g id="a_node8"><a xlink:href="_block_information_8h.html" target="_top" xlink:title="BlockInformation.h">
<polygon fill="none" stroke="black" points="316.087,-56.5 316.087,-75.5 414.087,-75.5 414.087,-56.5 316.087,-56.5"/>
<text text-anchor="middle" x="365.087" y="-63.5" font-family="Helvetica,sans-Serif" font-size="10.00">BlockInformation.h</text>
</a>
</g>
</g>
<!-- Node1&#45;&gt;Node8 -->
<g id="edge12" class="edge"><title>Node1&#45;&gt;Node8</title>
<path fill="none" stroke="midnightblue" d="M384.649,-224.382C380.385,-190.082 371.632,-119.658 367.434,-85.8828"/>
<polygon fill="midnightblue" stroke="midnightblue" points="370.861,-85.0757 366.154,-75.5838 363.914,-85.9392 370.861,-85.0757"/>
</g>
<!-- Node11 -->
<g id="node11" class="node"><title>Node11</title>
<polygon fill="none" stroke="#bfbfbf" points="260.587,-168.5 260.587,-187.5 339.587,-187.5 339.587,-168.5 260.587,-168.5"/>
<text text-anchor="middle" x="300.087" y="-175.5" font-family="Helvetica,sans-Serif" font-size="10.00">ClockServer.h</text>
</g>
<!-- Node1&#45;&gt;Node11 -->
<g id="edge18" class="edge"><title>Node1&#45;&gt;Node11</title>
<path fill="none" stroke="midnightblue" d="M360.984,-224.498C347.774,-214.628 332,-202.843 319.817,-193.741"/>
<polygon fill="midnightblue" stroke="midnightblue" points="321.774,-190.834 311.668,-187.652 317.584,-196.442 321.774,-190.834"/>
</g>
<!-- Node12 -->
<g id="node12" class="node"><title>Node12</title>
<g id="a_node12"><a xlink:href="_log_8h.html" target="_top" xlink:title="Log.h">
<polygon fill="none" stroke="black" points="432.587,-56.5 432.587,-75.5 473.587,-75.5 473.587,-56.5 432.587,-56.5"/>
<text text-anchor="middle" x="453.087" y="-63.5" font-family="Helvetica,sans-Serif" font-size="10.00">Log.h</text>
</a>
</g>
</g>
<!-- Node1&#45;&gt;Node12 -->
<g id="edge19" class="edge"><title>Node1&#45;&gt;Node12</title>
<path fill="none" stroke="midnightblue" d="M394.402,-224.382C407.304,-189.783 433.912,-118.425 446.373,-85.0063"/>
<polygon fill="midnightblue" stroke="midnightblue" points="449.672,-86.1765 449.886,-75.5838 443.113,-83.7307 449.672,-86.1765"/>
</g>
<!-- Node14 -->
<g id="node14" class="node"><title>Node14</title>
<g id="a_node14"><a xlink:href="_parameter_8h.html" target="_top" xlink:title="Parameter.h">
<polygon fill="none" stroke="black" points="20.0871,-56.5 20.0871,-75.5 90.0871,-75.5 90.0871,-56.5 20.0871,-56.5"/>
<text text-anchor="middle" x="55.0871" y="-63.5" font-family="Helvetica,sans-Serif" font-size="10.00">Parameter.h</text>
</a>
</g>
</g>
<!-- Node1&#45;&gt;Node14 -->
<g id="edge23" class="edge"><title>Node1&#45;&gt;Node14</title>
<path fill="none" stroke="midnightblue" d="M293.07,-239.355C211.195,-233.235 101.038,-219.297 71.0871,-188 44.8072,-160.54 47.4998,-112.155 51.466,-85.6513"/>
<polygon fill="midnightblue" stroke="midnightblue" points="54.9222,-86.2045 53.1631,-75.7568 48.0229,-85.0212 54.9222,-86.2045"/>
</g>
<!-- Node15 -->
<g id="node15" class="node"><title>Node15</title>
<polygon fill="none" stroke="#bfbfbf" points="434.587,-168.5 434.587,-187.5 531.587,-187.5 531.587,-168.5 434.587,-168.5"/>
<text text-anchor="middle" x="483.087" y="-175.5" font-family="Helvetica,sans-Serif" font-size="10.00">yarp/os/Network.h</text>
</g>
<!-- Node1&#45;&gt;Node15 -->
<g id="edge27" class="edge"><title>Node1&#45;&gt;Node15</title>
<path fill="none" stroke="midnightblue" d="M415.89,-224.498C430.609,-214.532 448.211,-202.614 461.707,-193.476"/>
<polygon fill="midnightblue" stroke="midnightblue" points="463.99,-196.157 470.308,-187.652 460.065,-190.361 463.99,-196.157"/>
</g>
<!-- Node16 -->
<g id="node16" class="node"><title>Node16</title>
<polygon fill="none" stroke="#bfbfbf" points="550.087,-168.5 550.087,-187.5 628.087,-187.5 628.087,-168.5 550.087,-168.5"/>
<text text-anchor="middle" x="589.087" y="-175.5" font-family="Helvetica,sans-Serif" font-size="10.00">yarp/os/Port.h</text>
</g>
<!-- Node1&#45;&gt;Node16 -->
<g id="edge28" class="edge"><title>Node1&#45;&gt;Node16</title>
<path fill="none" stroke="midnightblue" d="M447.694,-224.498C481.895,-213.493 523.495,-200.106 552.687,-190.713"/>
<polygon fill="midnightblue" stroke="midnightblue" points="554.016,-193.962 562.463,-187.567 551.872,-187.299 554.016,-193.962"/>
</g>
<!-- Node17 -->
<g id="node17" class="node"><title>Node17</title>
<polygon fill="none" stroke="#bfbfbf" points="646.087,-168.5 646.087,-187.5 744.087,-187.5 744.087,-168.5 646.087,-168.5"/>
<text text-anchor="middle" x="695.087" y="-175.5" font-family="Helvetica,sans-Serif" font-size="10.00">yarp/os/WireLink.h</text>
</g>
<!-- Node1&#45;&gt;Node17 -->
<g id="edge29" class="edge"><title>Node1&#45;&gt;Node17</title>
<path fill="none" stroke="midnightblue" d="M479.497,-224.498C533.581,-213.084 599.799,-199.109 644.463,-189.684"/>
<polygon fill="midnightblue" stroke="midnightblue" points="645.431,-193.057 654.492,-187.567 643.985,-186.207 645.431,-193.057"/>
</g>
<!-- Node18 -->
<g id="node18" class="node"><title>Node18</title>
<polygon fill="none" stroke="#bfbfbf" points="762.087,-168.5 762.087,-187.5 814.087,-187.5 814.087,-168.5 762.087,-168.5"/>
<text text-anchor="middle" x="788.087" y="-175.5" font-family="Helvetica,sans-Serif" font-size="10.00">ostream</text>
</g>
<!-- Node1&#45;&gt;Node18 -->
<g id="edge30" class="edge"><title>Node1&#45;&gt;Node18</title>
<path fill="none" stroke="midnightblue" d="M481.281,-231.993C552.781,-222.311 653.677,-207.433 751.715,-187.899"/>
<polygon fill="midnightblue" stroke="midnightblue" points="752.691,-191.272 761.805,-185.87 751.311,-184.41 752.691,-191.272"/>
</g>
<!-- Node3 -->
<g id="node3" class="node"><title>Node3</title>
<g id="a_node3"><a xlink:href="_block_8h.html" target="_top" xlink:title="Block.h">
<polygon fill="none" stroke="black" points="146.087,-112.5 146.087,-131.5 196.087,-131.5 196.087,-112.5 146.087,-112.5"/>
<text text-anchor="middle" x="171.087" y="-119.5" font-family="Helvetica,sans-Serif" font-size="10.00">Block.h</text>
</a>
</g>
</g>
<!-- Node2&#45;&gt;Node3 -->
<g id="edge2" class="edge"><title>Node2&#45;&gt;Node3</title>
<path fill="none" stroke="midnightblue" d="M146.876,-168.083C150.845,-160.691 156.612,-149.953 161.522,-140.811"/>
<polygon fill="midnightblue" stroke="midnightblue" points="164.74,-142.217 166.387,-131.751 158.573,-138.905 164.74,-142.217"/>
</g>
<!-- Node5 -->
<g id="node5" class="node"><title>Node5</title>
<polygon fill="none" stroke="#bfbfbf" points="262.087,-0.5 262.087,-19.5 314.087,-19.5 314.087,-0.5 262.087,-0.5"/>
<text text-anchor="middle" x="288.087" y="-7.5" font-family="Helvetica,sans-Serif" font-size="10.00">memory</text>
</g>
<!-- Node2&#45;&gt;Node5 -->
<g id="edge9" class="edge"><title>Node2&#45;&gt;Node5</title>
<path fill="none" stroke="midnightblue" d="M158.873,-168.314C186.152,-153.305 239.889,-119.864 268.087,-76 277.165,-61.8783 282.329,-43.3916 285.126,-29.7452"/>
<polygon fill="midnightblue" stroke="midnightblue" points="288.621,-30.0853 286.953,-19.6226 281.732,-28.842 288.621,-30.0853"/>
</g>
<!-- Node6 -->
<g id="node6" class="node"><title>Node6</title>
<polygon fill="none" stroke="#bfbfbf" points="168.587,-0.5 168.587,-19.5 209.587,-19.5 209.587,-0.5 168.587,-0.5"/>
<text text-anchor="middle" x="189.087" y="-7.5" font-family="Helvetica,sans-Serif" font-size="10.00">string</text>
</g>
<!-- Node2&#45;&gt;Node6 -->
<g id="edge10" class="edge"><title>Node2&#45;&gt;Node6</title>
<path fill="none" stroke="midnightblue" d="M139.758,-168.45C136.71,-155.891 132.289,-131.8 137.087,-112 144.79,-80.2088 164.339,-47.2162 177.151,-27.9236"/>
<polygon fill="midnightblue" stroke="midnightblue" points="180.073,-29.8516 182.818,-19.6185 174.291,-25.9062 180.073,-29.8516"/>
</g>
<!-- Node7 -->
<g id="node7" class="node"><title>Node7</title>
<polygon fill="none" stroke="#bfbfbf" points="33.0871,-0.5 33.0871,-19.5 77.0871,-19.5 77.0871,-0.5 33.0871,-0.5"/>
<text text-anchor="middle" x="55.0871" y="-7.5" font-family="Helvetica,sans-Serif" font-size="10.00">vector</text>
</g>
<!-- Node2&#45;&gt;Node7 -->
<g id="edge11" class="edge"><title>Node2&#45;&gt;Node7</title>
<path fill="none" stroke="midnightblue" d="M119.597,-168.46C86.9339,-154.677 27.5977,-124.108 3.08707,-76 -6.77934,-56.6349 12.8924,-37.59 30.8022,-25.1723"/>
<polygon fill="midnightblue" stroke="midnightblue" points="32.8402,-28.022 39.3156,-19.6363 29.0242,-22.1536 32.8402,-28.022"/>
</g>
<!-- Node3&#45;&gt;Node4 -->
<g id="edge3" class="edge"><title>Node3&#45;&gt;Node4</title>
<path fill="none" stroke="midnightblue" d="M179.509,-112.083C186.935,-104.22 197.939,-92.5688 206.899,-83.0813"/>
<polygon fill="midnightblue" stroke="midnightblue" points="209.5,-85.4244 213.822,-75.7511 204.411,-80.618 209.5,-85.4244"/>
</g>
<!-- Node3&#45;&gt;Node6 -->
<g id="edge7" class="edge"><title>Node3&#45;&gt;Node6</title>
<path fill="none" stroke="midnightblue" d="M170.963,-112.087C170.939,-99.4869 171.454,-75.7941 175.087,-56 176.73,-47.0473 179.589,-37.3774 182.297,-29.3044"/>
<polygon fill="midnightblue" stroke="midnightblue" points="185.622,-30.4011 185.654,-19.8063 179.022,-28.0681 185.622,-30.4011"/>
</g>
<!-- Node3&#45;&gt;Node7 -->
<g id="edge8" class="edge"><title>Node3&#45;&gt;Node7</title>
<path fill="none" stroke="midnightblue" d="M146.033,-117.642C105.243,-111.604 27.3787,-97.5057 11.0871,-76 -1.52588,-59.3503 16.7396,-39.3358 33.4282,-25.9549"/>
<polygon fill="midnightblue" stroke="midnightblue" points="35.9604,-28.4292 41.8396,-19.6152 31.7471,-22.8391 35.9604,-28.4292"/>
</g>
<!-- Node4&#45;&gt;Node5 -->
<g id="edge4" class="edge"><title>Node4&#45;&gt;Node5</title>
<path fill="none" stroke="midnightblue" d="M232.691,-56.324C242.543,-48.2631 257.438,-36.0765 269.302,-26.3695"/>
<polygon fill="midnightblue" stroke="midnightblue" points="271.767,-28.8752 277.29,-19.8339 267.334,-23.4575 271.767,-28.8752"/>
</g>
<!-- Node4&#45;&gt;Node6 -->
<g id="edge5" class="edge"><title>Node4&#45;&gt;Node6</title>
<path fill="none" stroke="midnightblue" d="M216.638,-56.083C212.073,-48.6127 205.419,-37.7244 199.794,-28.5199"/>
<polygon fill="midnightblue" stroke="midnightblue" points="202.636,-26.4588 194.435,-19.7511 196.663,-30.109 202.636,-26.4588"/>
</g>
<!-- Node4&#45;&gt;Node7 -->
<g id="edge6" class="edge"><title>Node4&#45;&gt;Node7</title>
<path fill="none" stroke="midnightblue" d="M195.625,-56.4435C166.081,-46.8902 118.287,-31.436 86.7741,-21.2461"/>
<polygon fill="midnightblue" stroke="midnightblue" points="87.7502,-17.8833 77.1584,-18.1368 85.5964,-24.5438 87.7502,-17.8833"/>
</g>
<!-- Node8&#45;&gt;Node5 -->
<g id="edge13" class="edge"><title>Node8&#45;&gt;Node5</title>
<path fill="none" stroke="midnightblue" d="M352.716,-56.324C340.929,-48.0577 322.955,-35.4527 308.952,-25.6322"/>
<polygon fill="midnightblue" stroke="midnightblue" points="310.625,-22.5307 300.428,-19.6545 306.605,-28.2619 310.625,-22.5307"/>
</g>
<!-- Node8&#45;&gt;Node6 -->
<g id="edge14" class="edge"><title>Node8&#45;&gt;Node6</title>
<path fill="none" stroke="midnightblue" d="M337.199,-56.4435C305.049,-46.5794 252.395,-30.424 219.295,-20.2685"/>
<polygon fill="midnightblue" stroke="midnightblue" points="220.282,-16.9102 209.695,-17.323 218.229,-23.6023 220.282,-16.9102"/>
</g>
<!-- Node8&#45;&gt;Node7 -->
<g id="edge17" class="edge"><title>Node8&#45;&gt;Node7</title>
<path fill="none" stroke="midnightblue" d="M315.967,-56.4435C251.944,-45.2913 141.758,-26.0975 87.375,-16.6243"/>
<polygon fill="midnightblue" stroke="midnightblue" points="87.7249,-13.1327 77.2726,-14.8646 86.5236,-20.0288 87.7249,-13.1327"/>
</g>
<!-- Node9 -->
<g id="node9" class="node"><title>Node9</title>
<polygon fill="none" stroke="#bfbfbf" points="332.087,-0.5 332.087,-19.5 370.087,-19.5 370.087,-0.5 332.087,-0.5"/>
<text text-anchor="middle" x="351.087" y="-7.5" font-family="Helvetica,sans-Serif" font-size="10.00">tuple</text>
</g>
<!-- Node8&#45;&gt;Node9 -->
<g id="edge15" class="edge"><title>Node8&#45;&gt;Node9</title>
<path fill="none" stroke="midnightblue" d="M362.775,-56.083C360.92,-48.9272 358.252,-38.6353 355.933,-29.6911"/>
<polygon fill="midnightblue" stroke="midnightblue" points="359.254,-28.5527 353.356,-19.7511 352.478,-30.3094 359.254,-28.5527"/>
</g>
<!-- Node10 -->
<g id="node10" class="node"><title>Node10</title>
<polygon fill="none" stroke="#bfbfbf" points="388.087,-0.5 388.087,-19.5 428.087,-19.5 428.087,-0.5 388.087,-0.5"/>
<text text-anchor="middle" x="408.087" y="-7.5" font-family="Helvetica,sans-Serif" font-size="10.00">utility</text>
</g>
<!-- Node8&#45;&gt;Node10 -->
<g id="edge16" class="edge"><title>Node8&#45;&gt;Node10</title>
<path fill="none" stroke="midnightblue" d="M372.188,-56.083C378.324,-48.3768 387.357,-37.0333 394.826,-27.6531"/>
<polygon fill="midnightblue" stroke="midnightblue" points="397.627,-29.7542 401.119,-19.7511 392.151,-25.3936 397.627,-29.7542"/>
</g>
<!-- Node12&#45;&gt;Node5 -->
<g id="edge20" class="edge"><title>Node12&#45;&gt;Node5</title>
<path fill="none" stroke="midnightblue" d="M432.523,-58.27C405.357,-49.3791 357.075,-33.5777 323.863,-22.7086"/>
<polygon fill="midnightblue" stroke="midnightblue" points="324.673,-19.291 314.08,-19.5069 322.496,-25.9437 324.673,-19.291"/>
</g>
<!-- Node12&#45;&gt;Node6 -->
<g id="edge22" class="edge"><title>Node12&#45;&gt;Node6</title>
<path fill="none" stroke="midnightblue" d="M432.481,-58.7315C429.025,-57.7626 425.465,-56.8147 422.087,-56 350.156,-38.6509 264.472,-23.4961 219.736,-15.9958"/>
<polygon fill="midnightblue" stroke="midnightblue" points="220.234,-12.5305 209.795,-14.3423 219.085,-19.4357 220.234,-12.5305"/>
</g>
<!-- Node13 -->
<g id="node13" class="node"><title>Node13</title>
<polygon fill="none" stroke="#bfbfbf" points="446.087,-0.5 446.087,-19.5 498.087,-19.5 498.087,-0.5 446.087,-0.5"/>
<text text-anchor="middle" x="472.087" y="-7.5" font-family="Helvetica,sans-Serif" font-size="10.00">sstream</text>
</g>
<!-- Node12&#45;&gt;Node13 -->
<g id="edge21" class="edge"><title>Node12&#45;&gt;Node13</title>
<path fill="none" stroke="midnightblue" d="M456.225,-56.083C458.77,-48.8486 462.443,-38.4087 465.614,-29.3968"/>
<polygon fill="midnightblue" stroke="midnightblue" points="468.99,-30.3459 469.008,-19.7511 462.387,-28.0225 468.99,-30.3459"/>
</g>
<!-- Node14&#45;&gt;Node6 -->
<g id="edge24" class="edge"><title>Node14&#45;&gt;Node6</title>
<path fill="none" stroke="midnightblue" d="M76.3198,-56.4435C98.6009,-47.4646 133.817,-33.2729 158.965,-23.1386"/>
<polygon fill="midnightblue" stroke="midnightblue" points="160.427,-26.3231 168.394,-19.339 157.811,-19.8305 160.427,-26.3231"/>
</g>
<!-- Node14&#45;&gt;Node7 -->
<g id="edge25" class="edge"><title>Node14&#45;&gt;Node7</title>
<path fill="none" stroke="midnightblue" d="M55.0871,-56.083C55.0871,-49.0059 55.0871,-38.8611 55.0871,-29.9865"/>
<polygon fill="midnightblue" stroke="midnightblue" points="58.5872,-29.751 55.0871,-19.7511 51.5872,-29.7511 58.5872,-29.751"/>
</g>
</g>
</svg>
        <g id="navigator" transform="translate(0 0)" fill="#404254">
                <rect fill="#f2f5e9" fill-opacity="0.5" stroke="#606060" stroke-width=".5" x="0" y="0" width="60" height="60"/>
                <use id="zoomplus" xlink:href="#zoomPlus" x="17" y="9" onmousedown="handleZoom(evt,'in')"/>
                <use id="zoomminus" xlink:href="#zoomMin" x="42" y="9" onmousedown="handleZoom(evt,'out')"/>
                <use id="reset" xlink:href="#resetDef" x="30" y="36" onmousedown="handleReset()"/>
                <g id="arrowUp" xlink:href="#dirArrow" transform="translate(30 24)" onmousedown="handlePan(0,-1)">
                  <use xlink:href="#rim" fill="#404040">
                        <set attributeName="fill" to="#808080" begin="arrowUp.mouseover" end="arrowUp.mouseout"/>
                  </use>
                  <path fill="none" stroke="white" stroke-width="1.5" d="M0,-3.0v7 M-2.5,-0.5L0,-3.0L2.5,-0.5"/>
                </g>
                <g id="arrowRight" xlink:href="#dirArrow" transform="rotate(90) translate(36 -43)" onmousedown="handlePan(1,0)">
                  <use xlink:href="#rim" fill="#404040">
                        <set attributeName="fill" to="#808080" begin="arrowRight.mouseover" end="arrowRight.mouseout"/>
                  </use>
                  <path fill="none" stroke="white" stroke-width="1.5" d="M0,-3.0v7 M-2.5,-0.5L0,-3.0L2.5,-0.5"/>
                </g>
                <g id="arrowDown" xlink:href="#dirArrow" transform="rotate(180) translate(-30 -48)" onmousedown="handlePan(0,1)">
                  <use xlink:href="#rim" fill="#404040">
                        <set attributeName="fill" to="#808080" begin="arrowDown.mouseover" end="arrowDown.mouseout"/>
                  </use>
                  <path fill="none" stroke="white" stroke-width="1.5" d="M0,-3.0v7 M-2.5,-0.5L0,-3.0L2.5,-0.5"/>
                </g>
                <g id="arrowLeft" xlink:href="#dirArrow" transform="rotate(270) translate(-36 17)" onmousedown="handlePan(-1,0)">
                  <use xlink:href="#rim" fill="#404040">
                        <set attributeName="fill" to="#808080" begin="arrowLeft.mouseover" end="arrowLeft.mouseout"/>
                  </use>
                  <path fill="none" stroke="white" stroke-width="1.5" d="M0,-3.0v7 M-2.5,-0.5L0,-3.0L2.5,-0.5"/>
                </g>
        </g>
        <svg viewBox="0 0 15 15" width="100%" height="30px" preserveAspectRatio="xMaxYMin meet">
         <g id="arrow_out" transform="scale(0.3 0.3)">
          <a xlink:href="_simulator_synchronizer_8cpp__incl_org.svg" target="_base">
           <rect id="button" ry="5" rx="5" y="6" x="6" height="38" width="38"
                fill="#f2f5e9" fill-opacity="0.5" stroke="#606060" stroke-width="1.0"/>
           <path id="arrow"
             d="M 11.500037,31.436501 C 11.940474,20.09759 22.043105,11.32322 32.158766,21.979434 L 37.068811,17.246167 C 37.068811,17.246167 37.088388,32 37.088388,32 L 22.160133,31.978069 C 22.160133,31.978069 26.997745,27.140456 26.997745,27.140456 C 18.528582,18.264221 13.291696,25.230495 11.500037,31.436501 z"
             style="fill:#404040;"/>
          </a>
         </g>
        </svg>
</svg>
