<?xml version="1.0" encoding="UTF-8" standalone="no"?>
<!DOCTYPE svg PUBLIC "-//W3C//DTD SVG 1.1//EN"
 "http://www.w3.org/Graphics/SVG/1.1/DTD/svg11.dtd">
<!-- Generated by graphviz version 2.36.0 (20140111.2315)
 -->
<!-- Title: /home/travis/build/robotology/wb&#45;toolbox/toolbox/core/src/WBToolbox.cpp Pages: 1 -->
<!--zoomable 218 -->
<svg id="main" version="1.1" xmlns="http://www.w3.org/2000/svg" xmlns:xlink="http://www.w3.org/1999/xlink" xml:space="preserve" onload="init(evt)">
<style type="text/css"><![CDATA[
.edge:hover path { stroke: red; }
.edge:hover polygon { stroke: red; fill: red; }
]]></style>
<script type="text/javascript"><![CDATA[
var edges = document.getElementsByTagName('g');
if (edges && edges.length) {
  for (var i=0;i<edges.length;i++) {
    if (edges[i].id.substr(0,4)=='edge') {
      edges[i].setAttribute('class','edge');
    }
  }
}
]]></script>
        <defs>
                <circle id="rim" cx="0" cy="0" r="7"/>
                <circle id="rim2" cx="0" cy="0" r="3.5"/>
                <g id="zoomPlus">
                        <use xlink:href="#rim" fill="#404040">
                                <set attributeName="fill" to="#808080" begin="zoomplus.mouseover" end="zoomplus.mouseout"/>
                        </use>
                        <path d="M-4,0h8M0,-4v8" fill="none" stroke="white" stroke-width="1.5" pointer-events="none"/>
                </g>
                <g id="zoomMin">
                        <use xlink:href="#rim" fill="#404040">
                                <set attributeName="fill" to="#808080" begin="zoomminus.mouseover" end="zoomminus.mouseout"/>
                        </use>
                        <path d="M-4,0h8" fill="none" stroke="white" stroke-width="1.5" pointer-events="none"/>
                </g>
                <g id="dirArrow">
                        <path fill="none" stroke="white" stroke-width="1.5" d="M0,-3.0v7 M-2.5,-0.5L0,-3.0L2.5,-0.5"/>
                </g>
               <g id="resetDef">
                       <use xlink:href="#rim2" fill="#404040">
                               <set attributeName="fill" to="#808080" begin="reset.mouseover" end="reset.mouseout"/>
                       </use>
               </g>
        </defs>

<script type="text/javascript">
var viewWidth = 1892;
var viewHeight = 218;
var sectionId = 'dynsection-0';
</script>
<script xlink:href="svgpan.js"/>
<svg id="graph" class="graph">
<g id="viewport">
<title>/home/travis/build/robotology/wb&#45;toolbox/toolbox/core/src/WBToolbox.cpp</title>
<!-- Node1 -->
<g id="node1" class="node"><title>Node1</title>
<polygon fill="#bfbfbf" stroke="black" points="845.229,-168.5 845.229,-209.5 1007.23,-209.5 1007.23,-168.5 845.229,-168.5"/>
<text text-anchor="start" x="853.229" y="-197.5" font-family="Helvetica,sans-Serif" font-size="10.00">/home/travis/build</text>
<text text-anchor="start" x="853.229" y="-186.5" font-family="Helvetica,sans-Serif" font-size="10.00">/robotology/wb&#45;toolbox</text>
<text text-anchor="middle" x="926.229" y="-175.5" font-family="Helvetica,sans-Serif" font-size="10.00">/toolbox/core/src/WBToolbox.cpp</text>
</g>
<!-- Node2 -->
<g id="node2" class="node"><title>Node2</title>
<g id="a_node2"><a xlink:href="_block_8h.html" target="_top" xlink:title="Core/Block.h">
<polygon fill="none" stroke="black" points="197.229,-112.5 197.229,-131.5 271.229,-131.5 271.229,-112.5 197.229,-112.5"/>
<text text-anchor="middle" x="234.229" y="-119.5" font-family="Helvetica,sans-Serif" font-size="10.00">Core/Block.h</text>
</a>
</g>
</g>
<!-- Node1&#45;&gt;Node2 -->
<g id="edge1" class="edge"><title>Node1&#45;&gt;Node2</title>
<path fill="none" stroke="midnightblue" d="M845.154,-180.385C699.473,-166.701 397.787,-138.363 281.43,-127.434"/>
<polygon fill="midnightblue" stroke="midnightblue" points="281.694,-123.943 271.41,-126.492 281.039,-130.912 281.694,-123.943"/>
</g>
<!-- Node3 -->
<g id="node3" class="node"><title>Node3</title>
<g id="a_node3"><a xlink:href="_parameters_8h.html" target="_top" xlink:title="Core/Parameters.h">
<polygon fill="none" stroke="black" points="210.729,-56.5 210.729,-75.5 309.729,-75.5 309.729,-56.5 210.729,-56.5"/>
<text text-anchor="middle" x="260.229" y="-63.5" font-family="Helvetica,sans-Serif" font-size="10.00">Core/Parameters.h</text>
</a>
</g>
</g>
<!-- Node1&#45;&gt;Node3 -->
<g id="edge15" class="edge"><title>Node1&#45;&gt;Node3</title>
<path fill="none" stroke="midnightblue" d="M844.938,-186.435C742.656,-182.811 562.335,-170.905 413.229,-132 366.313,-119.758 315.079,-95.5889 285.402,-80.4201"/>
<polygon fill="midnightblue" stroke="midnightblue" points="286.69,-77.1457 276.202,-75.6512 283.469,-83.3604 286.69,-77.1457"/>
</g>
<!-- Node4 -->
<g id="node4" class="node"><title>Node4</title>
<polygon fill="none" stroke="#bfbfbf" points="602.229,-0.5 602.229,-19.5 654.229,-19.5 654.229,-0.5 602.229,-0.5"/>
<text text-anchor="middle" x="628.229" y="-7.5" font-family="Helvetica,sans-Serif" font-size="10.00">memory</text>
</g>
<!-- Node1&#45;&gt;Node4 -->
<g id="edge39" class="edge"><title>Node1&#45;&gt;Node4</title>
<path fill="none" stroke="midnightblue" d="M877.305,-168.419C856.56,-158.964 832.726,-146.509 813.229,-132 776.146,-104.404 780.44,-82.0116 742.229,-56 718.22,-39.6561 687.404,-27.9477 663.865,-20.5781"/>
<polygon fill="midnightblue" stroke="midnightblue" points="664.848,-17.219 654.264,-17.6845 662.828,-23.9213 664.848,-17.219"/>
</g>
<!-- Node5 -->
<g id="node5" class="node"><title>Node5</title>
<polygon fill="none" stroke="#bfbfbf" points="239.729,-0.5 239.729,-19.5 280.729,-19.5 280.729,-0.5 239.729,-0.5"/>
<text text-anchor="middle" x="260.229" y="-7.5" font-family="Helvetica,sans-Serif" font-size="10.00">string</text>
</g>
<!-- Node1&#45;&gt;Node5 -->
<g id="edge42" class="edge"><title>Node1&#45;&gt;Node5</title>
<path fill="none" stroke="midnightblue" d="M845.092,-187.915C662.58,-186.878 232.152,-179.382 188.229,-132 177.872,-120.827 176.438,-87.0097 195.229,-56 203.471,-42.3984 217.569,-31.8904 230.533,-24.4621"/>
<polygon fill="midnightblue" stroke="midnightblue" points="232.49,-27.3856 239.673,-19.5972 229.201,-21.2064 232.49,-27.3856"/>
</g>
<!-- Node6 -->
<g id="node6" class="node"><title>Node6</title>
<polygon fill="none" stroke="#bfbfbf" points="112.229,-0.5 112.229,-19.5 156.229,-19.5 156.229,-0.5 112.229,-0.5"/>
<text text-anchor="middle" x="134.229" y="-7.5" font-family="Helvetica,sans-Serif" font-size="10.00">vector</text>
</g>
<!-- Node1&#45;&gt;Node6 -->
<g id="edge44" class="edge"><title>Node1&#45;&gt;Node6</title>
<path fill="none" stroke="midnightblue" d="M844.896,-187.245C664.669,-184.806 236.788,-174.571 99.2292,-132 52.4081,-117.51 28.543,-118.556 4.22918,-76 -18.5326,-36.1605 56.6286,-20.1228 102.088,-14.1742"/>
<polygon fill="midnightblue" stroke="midnightblue" points="102.603,-17.6374 112.11,-12.9612 101.762,-10.6882 102.603,-17.6374"/>
</g>
<!-- Node7 -->
<g id="node7" class="node"><title>Node7</title>
<g id="a_node7"><a xlink:href="_log_8h.html" target="_top" xlink:title="Core/Log.h">
<polygon fill="none" stroke="black" points="790.729,-56.5 790.729,-75.5 855.729,-75.5 855.729,-56.5 790.729,-56.5"/>
<text text-anchor="middle" x="823.229" y="-63.5" font-family="Helvetica,sans-Serif" font-size="10.00">Core/Log.h</text>
</a>
</g>
</g>
<!-- Node1&#45;&gt;Node7 -->
<g id="edge8" class="edge"><title>Node1&#45;&gt;Node7</title>
<path fill="none" stroke="midnightblue" d="M866.621,-168.376C850.033,-159.886 833.921,-148.094 824.229,-132 815.868,-118.115 816.573,-99.3537 818.803,-85.556"/>
<polygon fill="midnightblue" stroke="midnightblue" points="822.236,-86.2364 820.775,-75.7428 815.374,-84.8573 822.236,-86.2364"/>
</g>
<!-- Node9 -->
<g id="node9" class="node"><title>Node9</title>
<g id="a_node9"><a xlink:href="_parameter_8h.html" target="_top" xlink:title="Core/Parameter.h">
<polygon fill="none" stroke="black" points="22.2292,-56.5 22.2292,-75.5 116.229,-75.5 116.229,-56.5 22.2292,-56.5"/>
<text text-anchor="middle" x="69.2292" y="-63.5" font-family="Helvetica,sans-Serif" font-size="10.00">Core/Parameter.h</text>
</a>
</g>
</g>
<!-- Node1&#45;&gt;Node9 -->
<g id="edge12" class="edge"><title>Node1&#45;&gt;Node9</title>
<path fill="none" stroke="midnightblue" d="M845.116,-185.641C655.336,-179.645 193.612,-162.125 130.229,-132 108.468,-121.657 90.6144,-99.8541 79.9637,-84.3552"/>
<polygon fill="midnightblue" stroke="midnightblue" points="82.6933,-82.1342 74.2924,-75.6785 76.8339,-85.964 82.6933,-82.1342"/>
</g>
<!-- Node10 -->
<g id="node10" class="node"><title>Node10</title>
<g id="a_node10"><a xlink:href="_simulink_block_information_8h.html" target="_top" xlink:title="Core/SimulinkBlockInformation.h">
<polygon fill="none" stroke="black" points="422.229,-112.5 422.229,-131.5 582.229,-131.5 582.229,-112.5 422.229,-112.5"/>
<text text-anchor="middle" x="502.229" y="-119.5" font-family="Helvetica,sans-Serif" font-size="10.00">Core/SimulinkBlockInformation.h</text>
</a>
</g>
</g>
<!-- Node1&#45;&gt;Node10 -->
<g id="edge16" class="edge"><title>Node1&#45;&gt;Node10</title>
<path fill="none" stroke="midnightblue" d="M844.979,-175.544C764.484,-163.204 642.729,-144.539 568.077,-133.095"/>
<polygon fill="midnightblue" stroke="midnightblue" points="568.28,-129.585 557.865,-131.529 567.219,-136.504 568.28,-129.585"/>
</g>
<!-- Node14 -->
<g id="node14" class="node"><title>Node14</title>
<polygon fill="none" stroke="#bfbfbf" points="864.229,-0.5 864.229,-19.5 904.229,-19.5 904.229,-0.5 864.229,-0.5"/>
<text text-anchor="middle" x="884.229" y="-7.5" font-family="Helvetica,sans-Serif" font-size="10.00">utility</text>
</g>
<!-- Node1&#45;&gt;Node14 -->
<g id="edge43" class="edge"><title>Node1&#45;&gt;Node14</title>
<path fill="none" stroke="midnightblue" d="M891.393,-168.468C878.482,-159.238 865.278,-146.937 858.229,-132 854.436,-123.961 857.112,-120.818 858.229,-112 861.972,-82.4454 871.644,-49.1609 878.077,-29.1488"/>
<polygon fill="midnightblue" stroke="midnightblue" points="881.449,-30.0976 881.26,-19.5044 874.802,-27.9038 881.449,-30.0976"/>
</g>
<!-- Node16 -->
<g id="node16" class="node"><title>Node16</title>
<polygon fill="none" stroke="#bfbfbf" points="672.229,-56.5 672.229,-75.5 734.229,-75.5 734.229,-56.5 672.229,-56.5"/>
<text text-anchor="middle" x="703.229" y="-63.5" font-family="Helvetica,sans-Serif" font-size="10.00">simstruc.h</text>
</g>
<!-- Node1&#45;&gt;Node16 -->
<g id="edge33" class="edge"><title>Node1&#45;&gt;Node16</title>
<path fill="none" stroke="midnightblue" d="M844.782,-174.301C812.478,-165.964 776.396,-152.755 748.229,-132 731.531,-119.696 718.865,-99.2667 711.291,-84.5935"/>
<polygon fill="midnightblue" stroke="midnightblue" points="714.399,-82.9823 706.873,-75.5252 708.106,-86.0481 714.399,-82.9823"/>
</g>
<!-- Node17 -->
<g id="node17" class="node"><title>Node17</title>
<polygon fill="none" stroke="#bfbfbf" points="866.729,-112.5 866.729,-131.5 985.729,-131.5 985.729,-112.5 866.729,-112.5"/>
<text text-anchor="middle" x="926.229" y="-119.5" font-family="Helvetica,sans-Serif" font-size="10.00">shlibpp/SharedLibrary.h</text>
</g>
<!-- Node1&#45;&gt;Node17 -->
<g id="edge30" class="edge"><title>Node1&#45;&gt;Node17</title>
<path fill="none" stroke="midnightblue" d="M926.229,-168.498C926.229,-160.065 926.229,-150.235 926.229,-141.874"/>
<polygon fill="midnightblue" stroke="midnightblue" points="929.729,-141.652 926.229,-131.652 922.729,-141.653 929.729,-141.652"/>
</g>
<!-- Node18 -->
<g id="node18" class="node"><title>Node18</title>
<polygon fill="none" stroke="#bfbfbf" points="1004.23,-112.5 1004.23,-131.5 1148.23,-131.5 1148.23,-112.5 1004.23,-112.5"/>
<text text-anchor="middle" x="1076.23" y="-119.5" font-family="Helvetica,sans-Serif" font-size="10.00">shlibpp/SharedLibraryClass.h</text>
</g>
<!-- Node1&#45;&gt;Node18 -->
<g id="edge31" class="edge"><title>Node1&#45;&gt;Node18</title>
<path fill="none" stroke="midnightblue" d="M971.234,-168.498C995.78,-157.861 1025.46,-145.001 1046.99,-135.67"/>
<polygon fill="midnightblue" stroke="midnightblue" points="1048.48,-138.84 1056.26,-131.652 1045.69,-132.417 1048.48,-138.84"/>
</g>
<!-- Node19 -->
<g id="node19" class="node"><title>Node19</title>
<polygon fill="none" stroke="#bfbfbf" points="1166.23,-112.5 1166.23,-131.5 1218.23,-131.5 1218.23,-112.5 1166.23,-112.5"/>
<text text-anchor="middle" x="1192.23" y="-119.5" font-family="Helvetica,sans-Serif" font-size="10.00">matrix.h</text>
</g>
<!-- Node1&#45;&gt;Node19 -->
<g id="edge32" class="edge"><title>Node1&#45;&gt;Node19</title>
<path fill="none" stroke="midnightblue" d="M1007.28,-168.642C1049.1,-158.584 1101.19,-145.951 1155.97,-132.292"/>
<polygon fill="midnightblue" stroke="midnightblue" points="1157.01,-135.64 1165.87,-129.821 1155.32,-128.848 1157.01,-135.64"/>
</g>
<!-- Node20 -->
<g id="node20" class="node"><title>Node20</title>
<polygon fill="none" stroke="#bfbfbf" points="1236.23,-112.5 1236.23,-131.5 1328.23,-131.5 1328.23,-112.5 1236.23,-112.5"/>
<text text-anchor="middle" x="1282.23" y="-119.5" font-family="Helvetica,sans-Serif" font-size="10.00">simstruc_types.h</text>
</g>
<!-- Node1&#45;&gt;Node20 -->
<g id="edge34" class="edge"><title>Node1&#45;&gt;Node20</title>
<path fill="none" stroke="midnightblue" d="M1007.46,-173.169C1074.38,-160.949 1167.54,-143.941 1226.35,-133.203"/>
<polygon fill="midnightblue" stroke="midnightblue" points="1226.99,-136.644 1236.2,-131.405 1225.73,-129.758 1226.99,-136.644"/>
</g>
<!-- Node21 -->
<g id="node21" class="node"><title>Node21</title>
<polygon fill="none" stroke="#bfbfbf" points="1346.73,-112.5 1346.73,-131.5 1463.73,-131.5 1463.73,-112.5 1346.73,-112.5"/>
<text text-anchor="middle" x="1405.23" y="-119.5" font-family="Helvetica,sans-Serif" font-size="10.00">sl_sample_time_defs.h</text>
</g>
<!-- Node1&#45;&gt;Node21 -->
<g id="edge35" class="edge"><title>Node1&#45;&gt;Node21</title>
<path fill="none" stroke="midnightblue" d="M1007.49,-176.974C1100.04,-164.414 1249.68,-144.108 1336.61,-132.311"/>
<polygon fill="midnightblue" stroke="midnightblue" points="1337.2,-135.764 1346.64,-130.951 1336.26,-128.827 1337.2,-135.764"/>
</g>
<!-- Node22 -->
<g id="node22" class="node"><title>Node22</title>
<polygon fill="none" stroke="#bfbfbf" points="1482.23,-112.5 1482.23,-131.5 1550.23,-131.5 1550.23,-112.5 1482.23,-112.5"/>
<text text-anchor="middle" x="1516.23" y="-119.5" font-family="Helvetica,sans-Serif" font-size="10.00">tmwtypes.h</text>
</g>
<!-- Node1&#45;&gt;Node22 -->
<g id="edge36" class="edge"><title>Node1&#45;&gt;Node22</title>
<path fill="none" stroke="midnightblue" d="M1007.49,-182.206C1114.44,-174 1308.1,-157.139 1472.23,-132 1472.33,-131.985 1472.43,-131.969 1472.53,-131.953"/>
<polygon fill="midnightblue" stroke="midnightblue" points="1472.91,-135.44 1482.18,-130.313 1471.73,-128.539 1472.91,-135.44"/>
</g>
<!-- Node23 -->
<g id="node23" class="node"><title>Node23</title>
<polygon fill="none" stroke="#bfbfbf" points="1568.23,-112.5 1568.23,-131.5 1622.23,-131.5 1622.23,-112.5 1568.23,-112.5"/>
<text text-anchor="middle" x="1595.23" y="-119.5" font-family="Helvetica,sans-Serif" font-size="10.00">iostream</text>
</g>
<!-- Node1&#45;&gt;Node23 -->
<g id="edge37" class="edge"><title>Node1&#45;&gt;Node23</title>
<path fill="none" stroke="midnightblue" d="M1007.43,-184.889C1126.44,-179.428 1355.19,-165.506 1558.24,-131.907"/>
<polygon fill="midnightblue" stroke="midnightblue" points="1558.91,-135.344 1568.2,-130.241 1557.76,-128.44 1558.91,-135.344"/>
</g>
<!-- Node24 -->
<g id="node24" class="node"><title>Node24</title>
<polygon fill="none" stroke="#bfbfbf" points="1640.73,-112.5 1640.73,-131.5 1675.73,-131.5 1675.73,-112.5 1640.73,-112.5"/>
<text text-anchor="middle" x="1658.23" y="-119.5" font-family="Helvetica,sans-Serif" font-size="10.00">map</text>
</g>
<!-- Node1&#45;&gt;Node24 -->
<g id="edge38" class="edge"><title>Node1&#45;&gt;Node24</title>
<path fill="none" stroke="midnightblue" d="M1007.47,-187.906C1137.71,-186.361 1401.04,-177.496 1630.8,-131.534"/>
<polygon fill="midnightblue" stroke="midnightblue" points="1631.57,-134.949 1640.68,-129.531 1630.18,-128.088 1631.57,-134.949"/>
</g>
<!-- Node25 -->
<g id="node25" class="node"><title>Node25</title>
<polygon fill="none" stroke="#bfbfbf" points="1693.73,-112.5 1693.73,-131.5 1742.73,-131.5 1742.73,-112.5 1693.73,-112.5"/>
<text text-anchor="middle" x="1718.23" y="-119.5" font-family="Helvetica,sans-Serif" font-size="10.00">stdint.h</text>
</g>
<!-- Node1&#45;&gt;Node25 -->
<g id="edge40" class="edge"><title>Node1&#45;&gt;Node25</title>
<path fill="none" stroke="midnightblue" d="M1007.31,-186.918C1144.8,-184.007 1432.35,-173.262 1683.42,-131.801"/>
<polygon fill="midnightblue" stroke="midnightblue" points="1684.18,-135.223 1693.46,-130.123 1683.02,-128.319 1684.18,-135.223"/>
</g>
<!-- Node26 -->
<g id="node26" class="node"><title>Node26</title>
<polygon fill="none" stroke="#bfbfbf" points="1761.23,-112.5 1761.23,-131.5 1807.23,-131.5 1807.23,-112.5 1761.23,-112.5"/>
<text text-anchor="middle" x="1784.23" y="-119.5" font-family="Helvetica,sans-Serif" font-size="10.00">stdio.h</text>
</g>
<!-- Node1&#45;&gt;Node26 -->
<g id="edge41" class="edge"><title>Node1&#45;&gt;Node26</title>
<path fill="none" stroke="midnightblue" d="M1007.36,-187.81C1154.15,-186.304 1473.46,-177.706 1750.66,-131.695"/>
<polygon fill="midnightblue" stroke="midnightblue" points="1751.64,-135.08 1760.92,-129.972 1750.48,-128.177 1751.64,-135.08"/>
</g>
<!-- Node27 -->
<g id="node27" class="node"><title>Node27</title>
<polygon fill="none" stroke="#bfbfbf" points="1825.73,-112.5 1825.73,-131.5 1884.73,-131.5 1884.73,-112.5 1825.73,-112.5"/>
<text text-anchor="middle" x="1855.23" y="-119.5" font-family="Helvetica,sans-Serif" font-size="10.00">cg_sfun.h</text>
</g>
<!-- Node1&#45;&gt;Node27 -->
<g id="edge45" class="edge"><title>Node1&#45;&gt;Node27</title>
<path fill="none" stroke="midnightblue" d="M1007.38,-187.334C1162.62,-185.091 1512.39,-175.371 1815.21,-131.881"/>
<polygon fill="midnightblue" stroke="midnightblue" points="1816.12,-135.286 1825.51,-130.386 1815.11,-128.359 1816.12,-135.286"/>
</g>
<!-- Node2&#45;&gt;Node3 -->
<g id="edge2" class="edge"><title>Node2&#45;&gt;Node3</title>
<path fill="none" stroke="midnightblue" d="M238.523,-112.083C242.082,-104.691 247.252,-93.9533 251.653,-84.8111"/>
<polygon fill="midnightblue" stroke="midnightblue" points="254.831,-86.2795 256.016,-75.7511 248.524,-83.2427 254.831,-86.2795"/>
</g>
<!-- Node2&#45;&gt;Node5 -->
<g id="edge6" class="edge"><title>Node2&#45;&gt;Node5</title>
<path fill="none" stroke="midnightblue" d="M224.122,-112.197C211.094,-99.7279 191.236,-76.1896 201.229,-56 207.832,-42.6595 220.494,-32.1941 232.4,-24.7262"/>
<polygon fill="midnightblue" stroke="midnightblue" points="234.347,-27.6435 241.245,-19.6018 230.838,-21.5866 234.347,-27.6435"/>
</g>
<!-- Node2&#45;&gt;Node6 -->
<g id="edge7" class="edge"><title>Node2&#45;&gt;Node6</title>
<path fill="none" stroke="midnightblue" d="M197.026,-118.944C140.217,-114.94 36.0188,-103.898 13.2292,-76 -14.0751,-42.5757 57.709,-23.9233 102.12,-15.8624"/>
<polygon fill="midnightblue" stroke="midnightblue" points="102.947,-19.2716 112.208,-14.1257 101.759,-12.3731 102.947,-19.2716"/>
</g>
<!-- Node3&#45;&gt;Node4 -->
<g id="edge3" class="edge"><title>Node3&#45;&gt;Node4</title>
<path fill="none" stroke="midnightblue" d="M309.859,-57.7173C384.908,-46.7047 525.533,-26.0696 591.851,-16.3381"/>
<polygon fill="midnightblue" stroke="midnightblue" points="592.449,-19.7879 601.835,-14.873 591.433,-12.8621 592.449,-19.7879"/>
</g>
<!-- Node3&#45;&gt;Node5 -->
<g id="edge4" class="edge"><title>Node3&#45;&gt;Node5</title>
<path fill="none" stroke="midnightblue" d="M260.229,-56.083C260.229,-49.0059 260.229,-38.8611 260.229,-29.9865"/>
<polygon fill="midnightblue" stroke="midnightblue" points="263.729,-29.751 260.229,-19.7511 256.729,-29.7511 263.729,-29.751"/>
</g>
<!-- Node3&#45;&gt;Node6 -->
<g id="edge5" class="edge"><title>Node3&#45;&gt;Node6</title>
<path fill="none" stroke="midnightblue" d="M240.264,-56.4435C219.62,-47.5961 187.167,-33.6875 163.598,-23.5865"/>
<polygon fill="midnightblue" stroke="midnightblue" points="164.671,-20.2387 154.101,-19.5164 161.914,-26.6727 164.671,-20.2387"/>
</g>
<!-- Node7&#45;&gt;Node4 -->
<g id="edge9" class="edge"><title>Node7&#45;&gt;Node4</title>
<path fill="none" stroke="midnightblue" d="M792.331,-56.4435C757.483,-46.7934 700.892,-31.122 664.115,-20.9377"/>
<polygon fill="midnightblue" stroke="midnightblue" points="664.874,-17.5161 654.303,-18.2203 663.006,-24.2622 664.874,-17.5161"/>
</g>
<!-- Node7&#45;&gt;Node5 -->
<g id="edge11" class="edge"><title>Node7&#45;&gt;Node5</title>
<path fill="none" stroke="midnightblue" d="M790.531,-61.2347C775.781,-59.5701 758.135,-57.626 742.229,-56 572.092,-38.6072 367.883,-20.4318 291.271,-13.7077"/>
<polygon fill="midnightblue" stroke="midnightblue" points="291.18,-10.1864 280.912,-12.8001 290.569,-17.1597 291.18,-10.1864"/>
</g>
<!-- Node8 -->
<g id="node8" class="node"><title>Node8</title>
<polygon fill="none" stroke="#bfbfbf" points="794.229,-0.5 794.229,-19.5 846.229,-19.5 846.229,-0.5 794.229,-0.5"/>
<text text-anchor="middle" x="820.229" y="-7.5" font-family="Helvetica,sans-Serif" font-size="10.00">sstream</text>
</g>
<!-- Node7&#45;&gt;Node8 -->
<g id="edge10" class="edge"><title>Node7&#45;&gt;Node8</title>
<path fill="none" stroke="midnightblue" d="M822.734,-56.083C822.341,-49.0059 821.777,-38.8611 821.284,-29.9865"/>
<polygon fill="midnightblue" stroke="midnightblue" points="824.765,-29.5415 820.715,-19.7511 817.776,-29.9299 824.765,-29.5415"/>
</g>
<!-- Node9&#45;&gt;Node5 -->
<g id="edge13" class="edge"><title>Node9&#45;&gt;Node5</title>
<path fill="none" stroke="midnightblue" d="M99.4937,-56.4435C135.108,-46.3745 193.91,-29.7501 229.657,-19.6434"/>
<polygon fill="midnightblue" stroke="midnightblue" points="230.854,-22.9422 239.525,-16.8536 228.95,-16.2062 230.854,-22.9422"/>
</g>
<!-- Node9&#45;&gt;Node6 -->
<g id="edge14" class="edge"><title>Node9&#45;&gt;Node6</title>
<path fill="none" stroke="midnightblue" d="M79.6726,-56.324C89.3754,-48.2631 104.044,-36.0765 115.729,-26.3695"/>
<polygon fill="midnightblue" stroke="midnightblue" points="118.14,-28.9163 123.596,-19.8339 113.667,-23.532 118.14,-28.9163"/>
</g>
<!-- Node10&#45;&gt;Node5 -->
<g id="edge28" class="edge"><title>Node10&#45;&gt;Node5</title>
<path fill="none" stroke="midnightblue" d="M480.775,-112.351C459.073,-103.514 424.626,-89.2482 395.229,-76 374.724,-66.7587 320.32,-40.3424 287.171,-24.1717"/>
<polygon fill="midnightblue" stroke="midnightblue" points="288.551,-20.9505 278.029,-19.7088 285.48,-27.241 288.551,-20.9505"/>
</g>
<!-- Node10&#45;&gt;Node6 -->
<g id="edge29" class="edge"><title>Node10&#45;&gt;Node6</title>
<path fill="none" stroke="midnightblue" d="M464.979,-112.481C434.079,-104.792 389.357,-92.207 352.229,-76 336.162,-68.9862 334.472,-62.597 318.229,-56 267.203,-35.2763 204.195,-22.4089 166.718,-15.9877"/>
<polygon fill="midnightblue" stroke="midnightblue" points="166.841,-12.4601 156.402,-14.2732 165.693,-19.3654 166.841,-12.4601"/>
</g>
<!-- Node10&#45;&gt;Node9 -->
<g id="edge24" class="edge"><title>Node10&#45;&gt;Node9</title>
<path fill="none" stroke="midnightblue" d="M433.619,-112.444C348.836,-101.87 206.091,-84.0682 126.765,-74.1754"/>
<polygon fill="midnightblue" stroke="midnightblue" points="126.832,-70.6566 116.475,-72.8921 125.965,-77.6028 126.832,-70.6566"/>
</g>
<!-- Node11 -->
<g id="node11" class="node"><title>Node11</title>
<polygon fill="none" stroke="#bfbfbf" points="520.229,-56.5 520.229,-75.5 584.229,-75.5 584.229,-56.5 520.229,-56.5"/>
<text text-anchor="middle" x="552.229" y="-63.5" font-family="Helvetica,sans-Serif" font-size="10.00">AnyType.h</text>
</g>
<!-- Node10&#45;&gt;Node11 -->
<g id="edge17" class="edge"><title>Node10&#45;&gt;Node11</title>
<path fill="none" stroke="midnightblue" d="M510.486,-112.083C517.694,-104.298 528.339,-92.8015 537.075,-83.3665"/>
<polygon fill="midnightblue" stroke="midnightblue" points="539.9,-85.4666 544.126,-75.7511 534.764,-80.7108 539.9,-85.4666"/>
</g>
<!-- Node12 -->
<g id="node12" class="node"><title>Node12</title>
<g id="a_node12"><a xlink:href="_block_information_8h.html" target="_top" xlink:title="BlockInformation.h">
<polygon fill="none" stroke="black" points="404.229,-56.5 404.229,-75.5 502.229,-75.5 502.229,-56.5 404.229,-56.5"/>
<text text-anchor="middle" x="453.229" y="-63.5" font-family="Helvetica,sans-Serif" font-size="10.00">BlockInformation.h</text>
</a>
</g>
</g>
<!-- Node10&#45;&gt;Node12 -->
<g id="edge18" class="edge"><title>Node10&#45;&gt;Node12</title>
<path fill="none" stroke="midnightblue" d="M494.138,-112.083C487.074,-104.298 476.642,-92.8015 468.08,-83.3665"/>
<polygon fill="midnightblue" stroke="midnightblue" points="470.482,-80.8047 461.17,-75.7511 465.298,-85.5087 470.482,-80.8047"/>
</g>
<!-- Node15 -->
<g id="node15" class="node"><title>Node15</title>
<g id="a_node15"><a xlink:href="_signal_8h.html" target="_top" xlink:title="Signal.h">
<polygon fill="none" stroke="black" points="602.229,-56.5 602.229,-75.5 654.229,-75.5 654.229,-56.5 602.229,-56.5"/>
<text text-anchor="middle" x="628.229" y="-63.5" font-family="Helvetica,sans-Serif" font-size="10.00">Signal.h</text>
</a>
</g>
</g>
<!-- Node10&#45;&gt;Node15 -->
<g id="edge25" class="edge"><title>Node10&#45;&gt;Node15</title>
<path fill="none" stroke="midnightblue" d="M522.194,-112.444C542.838,-103.596 575.292,-89.6875 598.861,-79.5865"/>
<polygon fill="midnightblue" stroke="midnightblue" points="600.545,-82.6727 608.358,-75.5164 597.787,-76.2387 600.545,-82.6727"/>
</g>
<!-- Node10&#45;&gt;Node16 -->
<g id="edge27" class="edge"><title>Node10&#45;&gt;Node16</title>
<path fill="none" stroke="midnightblue" d="M534.078,-112.444C568.831,-103.107 624.562,-88.1343 662.479,-77.9478"/>
<polygon fill="midnightblue" stroke="midnightblue" points="663.44,-81.3138 672.19,-75.339 661.624,-74.5535 663.44,-81.3138"/>
</g>
<!-- Node12&#45;&gt;Node4 -->
<g id="edge19" class="edge"><title>Node12&#45;&gt;Node4</title>
<path fill="none" stroke="midnightblue" d="M480.958,-56.4435C511.091,-47.1454 559.34,-32.2572 592.343,-22.0735"/>
<polygon fill="midnightblue" stroke="midnightblue" points="593.535,-25.3685 602.059,-19.0755 591.471,-18.6797 593.535,-25.3685"/>
</g>
<!-- Node12&#45;&gt;Node5 -->
<g id="edge20" class="edge"><title>Node12&#45;&gt;Node5</title>
<path fill="none" stroke="midnightblue" d="M422.648,-56.4435C386.563,-46.3474 326.924,-29.6606 290.831,-19.562"/>
<polygon fill="midnightblue" stroke="midnightblue" points="291.449,-16.1007 280.876,-16.7767 289.563,-22.8418 291.449,-16.1007"/>
</g>
<!-- Node12&#45;&gt;Node6 -->
<g id="edge23" class="edge"><title>Node12&#45;&gt;Node6</title>
<path fill="none" stroke="midnightblue" d="M404.085,-56.6808C338.081,-45.5078 222.625,-25.9636 166.582,-16.4767"/>
<polygon fill="midnightblue" stroke="midnightblue" points="166.96,-12.9909 156.516,-14.7727 165.792,-19.8927 166.96,-12.9909"/>
</g>
<!-- Node13 -->
<g id="node13" class="node"><title>Node13</title>
<polygon fill="none" stroke="#bfbfbf" points="434.229,-0.5 434.229,-19.5 472.229,-19.5 472.229,-0.5 434.229,-0.5"/>
<text text-anchor="middle" x="453.229" y="-7.5" font-family="Helvetica,sans-Serif" font-size="10.00">tuple</text>
</g>
<!-- Node12&#45;&gt;Node13 -->
<g id="edge21" class="edge"><title>Node12&#45;&gt;Node13</title>
<path fill="none" stroke="midnightblue" d="M453.229,-56.083C453.229,-49.0059 453.229,-38.8611 453.229,-29.9865"/>
<polygon fill="midnightblue" stroke="midnightblue" points="456.729,-29.751 453.229,-19.7511 449.729,-29.7511 456.729,-29.751"/>
</g>
<!-- Node12&#45;&gt;Node14 -->
<g id="edge22" class="edge"><title>Node12&#45;&gt;Node14</title>
<path fill="none" stroke="midnightblue" d="M502.252,-57.2178C505.288,-56.7902 508.299,-56.3805 511.229,-56 660.398,-36.6333 702.837,-50.3145 853.966,-19.8782"/>
<polygon fill="midnightblue" stroke="midnightblue" points="854.985,-23.2424 864.08,-17.8088 853.581,-16.3844 854.985,-23.2424"/>
</g>
<!-- Node15&#45;&gt;Node4 -->
<g id="edge26" class="edge"><title>Node15&#45;&gt;Node4</title>
<path fill="none" stroke="midnightblue" d="M628.229,-56.083C628.229,-49.0059 628.229,-38.8611 628.229,-29.9865"/>
<polygon fill="midnightblue" stroke="midnightblue" points="631.729,-29.751 628.229,-19.7511 624.729,-29.7511 631.729,-29.751"/>
</g>
</g>
</svg>
        <g id="navigator" transform="translate(0 0)" fill="#404254">
                <rect fill="#f2f5e9" fill-opacity="0.5" stroke="#606060" stroke-width=".5" x="0" y="0" width="60" height="60"/>
                <use id="zoomplus" xlink:href="#zoomPlus" x="17" y="9" onmousedown="handleZoom(evt,'in')"/>
                <use id="zoomminus" xlink:href="#zoomMin" x="42" y="9" onmousedown="handleZoom(evt,'out')"/>
                <use id="reset" xlink:href="#resetDef" x="30" y="36" onmousedown="handleReset()"/>
                <g id="arrowUp" xlink:href="#dirArrow" transform="translate(30 24)" onmousedown="handlePan(0,-1)">
                  <use xlink:href="#rim" fill="#404040">
                        <set attributeName="fill" to="#808080" begin="arrowUp.mouseover" end="arrowUp.mouseout"/>
                  </use>
                  <path fill="none" stroke="white" stroke-width="1.5" d="M0,-3.0v7 M-2.5,-0.5L0,-3.0L2.5,-0.5"/>
                </g>
                <g id="arrowRight" xlink:href="#dirArrow" transform="rotate(90) translate(36 -43)" onmousedown="handlePan(1,0)">
                  <use xlink:href="#rim" fill="#404040">
                        <set attributeName="fill" to="#808080" begin="arrowRight.mouseover" end="arrowRight.mouseout"/>
                  </use>
                  <path fill="none" stroke="white" stroke-width="1.5" d="M0,-3.0v7 M-2.5,-0.5L0,-3.0L2.5,-0.5"/>
                </g>
                <g id="arrowDown" xlink:href="#dirArrow" transform="rotate(180) translate(-30 -48)" onmousedown="handlePan(0,1)">
                  <use xlink:href="#rim" fill="#404040">
                        <set attributeName="fill" to="#808080" begin="arrowDown.mouseover" end="arrowDown.mouseout"/>
                  </use>
                  <path fill="none" stroke="white" stroke-width="1.5" d="M0,-3.0v7 M-2.5,-0.5L0,-3.0L2.5,-0.5"/>
                </g>
                <g id="arrowLeft" xlink:href="#dirArrow" transform="rotate(270) translate(-36 17)" onmousedown="handlePan(-1,0)">
                  <use xlink:href="#rim" fill="#404040">
                        <set attributeName="fill" to="#808080" begin="arrowLeft.mouseover" end="arrowLeft.mouseout"/>
                  </use>
                  <path fill="none" stroke="white" stroke-width="1.5" d="M0,-3.0v7 M-2.5,-0.5L0,-3.0L2.5,-0.5"/>
                </g>
        </g>
        <svg viewBox="0 0 15 15" width="100%" height="30px" preserveAspectRatio="xMaxYMin meet">
         <g id="arrow_out" transform="scale(0.3 0.3)">
          <a xlink:href="_w_b_toolbox_8cpp__incl_org.svg" target="_base">
           <rect id="button" ry="5" rx="5" y="6" x="6" height="38" width="38"
                fill="#f2f5e9" fill-opacity="0.5" stroke="#606060" stroke-width="1.0"/>
           <path id="arrow"
             d="M 11.500037,31.436501 C 11.940474,20.09759 22.043105,11.32322 32.158766,21.979434 L 37.068811,17.246167 C 37.068811,17.246167 37.088388,32 37.088388,32 L 22.160133,31.978069 C 22.160133,31.978069 26.997745,27.140456 26.997745,27.140456 C 18.528582,18.264221 13.291696,25.230495 11.500037,31.436501 z"
             style="fill:#404040;"/>
          </a>
         </g>
        </svg>
</svg>
