<?xml version="1.0" encoding="UTF-8" standalone="no"?>
<!DOCTYPE svg PUBLIC "-//W3C//DTD SVG 1.1//EN"
 "http://www.w3.org/Graphics/SVG/1.1/DTD/svg11.dtd">
<!-- Generated by graphviz version 2.36.0 (20140111.2315)
 -->
<!-- Title: /home/travis/build/robotology/wb&#45;toolbox/toolbox/src/base/WBToolbox.cpp Pages: 1 -->
<svg width="1494pt" height="218pt"
 viewBox="0.00 0.00 1494.01 218.00" xmlns="http://www.w3.org/2000/svg" xmlns:xlink="http://www.w3.org/1999/xlink">
<g id="graph0" class="graph" transform="scale(1 1) rotate(0) translate(4 214)">
<title>/home/travis/build/robotology/wb&#45;toolbox/toolbox/src/base/WBToolbox.cpp</title>
<!-- Node1 -->
<g id="node1" class="node"><title>Node1</title>
<polygon fill="#bfbfbf" stroke="black" points="692.014,-168.5 692.014,-209.5 856.014,-209.5 856.014,-168.5 692.014,-168.5"/>
<text text-anchor="start" x="700.014" y="-197.5" font-family="Helvetica,sans-Serif" font-size="10.00">/home/travis/build</text>
<text text-anchor="start" x="700.014" y="-186.5" font-family="Helvetica,sans-Serif" font-size="10.00">/robotology/wb&#45;toolbox</text>
<text text-anchor="middle" x="774.014" y="-175.5" font-family="Helvetica,sans-Serif" font-size="10.00">/toolbox/src/base/WBToolbox.cpp</text>
</g>
<!-- Node2 -->
<g id="node2" class="node"><title>Node2</title>
<g id="a_node2"><a xlink:href="_block_8h.html" target="_top" xlink:title="Block.h">
<polygon fill="none" stroke="black" points="176.014,-112.5 176.014,-131.5 226.014,-131.5 226.014,-112.5 176.014,-112.5"/>
<text text-anchor="middle" x="201.014" y="-119.5" font-family="Helvetica,sans-Serif" font-size="10.00">Block.h</text>
</a>
</g>
</g>
<!-- Node1&#45;&gt;Node2 -->
<g id="edge1" class="edge"><title>Node1&#45;&gt;Node2</title>
<path fill="none" stroke="midnightblue" d="M691.917,-178.687C564.942,-164.283 326.2,-137.201 236.383,-127.012"/>
<polygon fill="midnightblue" stroke="midnightblue" points="236.516,-123.505 226.185,-125.855 235.727,-130.46 236.516,-123.505"/>
</g>
<!-- Node3 -->
<g id="node3" class="node"><title>Node3</title>
<g id="a_node3"><a xlink:href="_parameters_8h.html" target="_top" xlink:title="Parameters.h">
<polygon fill="none" stroke="black" points="189.514,-56.5 189.514,-75.5 264.514,-75.5 264.514,-56.5 189.514,-56.5"/>
<text text-anchor="middle" x="227.014" y="-63.5" font-family="Helvetica,sans-Serif" font-size="10.00">Parameters.h</text>
</a>
</g>
</g>
<!-- Node1&#45;&gt;Node3 -->
<g id="edge15" class="edge"><title>Node1&#45;&gt;Node3</title>
<path fill="none" stroke="midnightblue" d="M692.002,-182.596C611.407,-175.833 485.512,-161.363 380.014,-132 333.552,-119.068 282.553,-95.3223 252.738,-80.3909"/>
<polygon fill="midnightblue" stroke="midnightblue" points="253.978,-77.0953 243.477,-75.6935 250.812,-83.3383 253.978,-77.0953"/>
</g>
<!-- Node4 -->
<g id="node4" class="node"><title>Node4</title>
<polygon fill="none" stroke="#bfbfbf" points="557.014,-0.5 557.014,-19.5 609.014,-19.5 609.014,-0.5 557.014,-0.5"/>
<text text-anchor="middle" x="583.014" y="-7.5" font-family="Helvetica,sans-Serif" font-size="10.00">memory</text>
</g>
<!-- Node1&#45;&gt;Node4 -->
<g id="edge36" class="edge"><title>Node1&#45;&gt;Node4</title>
<path fill="none" stroke="midnightblue" d="M767.265,-168.23C756.597,-139.727 733.25,-87.1046 697.014,-56 674.693,-36.84 643.233,-25.2504 619.015,-18.6424"/>
<polygon fill="midnightblue" stroke="midnightblue" points="619.682,-15.2005 609.127,-16.1079 617.944,-21.9813 619.682,-15.2005"/>
</g>
<!-- Node5 -->
<g id="node5" class="node"><title>Node5</title>
<polygon fill="none" stroke="#bfbfbf" points="206.514,-0.5 206.514,-19.5 247.514,-19.5 247.514,-0.5 206.514,-0.5"/>
<text text-anchor="middle" x="227.014" y="-7.5" font-family="Helvetica,sans-Serif" font-size="10.00">string</text>
</g>
<!-- Node1&#45;&gt;Node5 -->
<g id="edge39" class="edge"><title>Node1&#45;&gt;Node5</title>
<path fill="none" stroke="midnightblue" d="M691.754,-186.44C534.061,-182.594 201.689,-170.022 167.014,-132 157.169,-121.206 156.671,-88.0796 174.014,-56 180.741,-43.5566 192.415,-33.0759 203.097,-25.3684"/>
<polygon fill="midnightblue" stroke="midnightblue" points="205.372,-28.0562 211.707,-19.5641 201.459,-22.2519 205.372,-28.0562"/>
</g>
<!-- Node6 -->
<g id="node6" class="node"><title>Node6</title>
<polygon fill="none" stroke="#bfbfbf" points="91.0137,-0.5 91.0137,-19.5 135.014,-19.5 135.014,-0.5 91.0137,-0.5"/>
<text text-anchor="middle" x="113.014" y="-7.5" font-family="Helvetica,sans-Serif" font-size="10.00">vector</text>
</g>
<!-- Node1&#45;&gt;Node6 -->
<g id="edge41" class="edge"><title>Node1&#45;&gt;Node6</title>
<path fill="none" stroke="midnightblue" d="M691.743,-186.871C533.654,-183.796 193.399,-172.536 84.0137,-132 38.9258,-115.291 -19.5249,-96.0974 7.0137,-56 23.2339,-31.4927 55.7773,-20.2927 80.5495,-15.1982"/>
<polygon fill="midnightblue" stroke="midnightblue" points="81.4073,-18.5998 90.6201,-13.3677 80.1554,-11.7126 81.4073,-18.5998"/>
</g>
<!-- Node7 -->
<g id="node7" class="node"><title>Node7</title>
<g id="a_node7"><a xlink:href="_log_8h.html" target="_top" xlink:title="Log.h">
<polygon fill="none" stroke="black" points="745.514,-56.5 745.514,-75.5 786.514,-75.5 786.514,-56.5 745.514,-56.5"/>
<text text-anchor="middle" x="766.014" y="-63.5" font-family="Helvetica,sans-Serif" font-size="10.00">Log.h</text>
</a>
</g>
</g>
<!-- Node1&#45;&gt;Node7 -->
<g id="edge8" class="edge"><title>Node1&#45;&gt;Node7</title>
<path fill="none" stroke="midnightblue" d="M772.711,-168.29C771.202,-145.48 768.737,-108.189 767.255,-85.7807"/>
<polygon fill="midnightblue" stroke="midnightblue" points="770.733,-85.3221 766.581,-75.5748 763.748,-85.784 770.733,-85.3221"/>
</g>
<!-- Node9 -->
<g id="node9" class="node"><title>Node9</title>
<g id="a_node9"><a xlink:href="_parameter_8h.html" target="_top" xlink:title="Parameter.h">
<polygon fill="none" stroke="black" points="25.0137,-56.5 25.0137,-75.5 95.0137,-75.5 95.0137,-56.5 25.0137,-56.5"/>
<text text-anchor="middle" x="60.0137" y="-63.5" font-family="Helvetica,sans-Serif" font-size="10.00">Parameter.h</text>
</a>
</g>
</g>
<!-- Node1&#45;&gt;Node9 -->
<g id="edge12" class="edge"><title>Node1&#45;&gt;Node9</title>
<path fill="none" stroke="midnightblue" d="M691.972,-184.829C525.373,-177.85 158.936,-159.56 109.014,-132 89.9339,-121.467 76.0597,-100.035 68.0434,-84.659"/>
<polygon fill="midnightblue" stroke="midnightblue" points="71.1561,-83.0568 63.6256,-75.6042 64.865,-86.1263 71.1561,-83.0568"/>
</g>
<!-- Node10 -->
<g id="node10" class="node"><title>Node10</title>
<g id="a_node10"><a xlink:href="_simulink_block_information_8h.html" target="_top" xlink:title="SimulinkBlockInformation.h">
<polygon fill="none" stroke="black" points="389.014,-112.5 389.014,-131.5 525.014,-131.5 525.014,-112.5 389.014,-112.5"/>
<text text-anchor="middle" x="457.014" y="-119.5" font-family="Helvetica,sans-Serif" font-size="10.00">SimulinkBlockInformation.h</text>
</a>
</g>
</g>
<!-- Node1&#45;&gt;Node10 -->
<g id="edge16" class="edge"><title>Node1&#45;&gt;Node10</title>
<path fill="none" stroke="midnightblue" d="M691.966,-171.176C633.957,-159.282 557.982,-143.703 508.359,-133.528"/>
<polygon fill="midnightblue" stroke="midnightblue" points="508.992,-130.085 498.493,-131.505 507.586,-136.943 508.992,-130.085"/>
</g>
<!-- Node14 -->
<g id="node14" class="node"><title>Node14</title>
<polygon fill="none" stroke="#bfbfbf" points="795.014,-0.5 795.014,-19.5 835.014,-19.5 835.014,-0.5 795.014,-0.5"/>
<text text-anchor="middle" x="815.014" y="-7.5" font-family="Helvetica,sans-Serif" font-size="10.00">utility</text>
</g>
<!-- Node1&#45;&gt;Node14 -->
<g id="edge40" class="edge"><title>Node1&#45;&gt;Node14</title>
<path fill="none" stroke="midnightblue" d="M778.558,-168.382C786.538,-133.932 802.959,-63.0422 810.742,-29.4424"/>
<polygon fill="midnightblue" stroke="midnightblue" points="814.178,-30.1157 813.025,-19.5838 807.359,-28.536 814.178,-30.1157"/>
</g>
<!-- Node16 -->
<g id="node16" class="node"><title>Node16</title>
<polygon fill="none" stroke="#bfbfbf" points="627.014,-56.5 627.014,-75.5 689.014,-75.5 689.014,-56.5 627.014,-56.5"/>
<text text-anchor="middle" x="658.014" y="-63.5" font-family="Helvetica,sans-Serif" font-size="10.00">simstruc.h</text>
</g>
<!-- Node1&#45;&gt;Node16 -->
<g id="edge31" class="edge"><title>Node1&#45;&gt;Node16</title>
<path fill="none" stroke="midnightblue" d="M745.42,-168.495C731.774,-158.453 715.699,-145.501 703.014,-132 689.25,-117.351 676.506,-98.1896 668.121,-84.4732"/>
<polygon fill="midnightblue" stroke="midnightblue" points="670.955,-82.3925 662.832,-75.5903 664.94,-85.9733 670.955,-82.3925"/>
</g>
<!-- Node17 -->
<g id="node17" class="node"><title>Node17</title>
<polygon fill="none" stroke="#bfbfbf" points="821.014,-112.5 821.014,-131.5 873.014,-131.5 873.014,-112.5 821.014,-112.5"/>
<text text-anchor="middle" x="847.014" y="-119.5" font-family="Helvetica,sans-Serif" font-size="10.00">matrix.h</text>
</g>
<!-- Node1&#45;&gt;Node17 -->
<g id="edge30" class="edge"><title>Node1&#45;&gt;Node17</title>
<path fill="none" stroke="midnightblue" d="M795.916,-168.498C806.678,-158.915 819.467,-147.528 829.558,-138.543"/>
<polygon fill="midnightblue" stroke="midnightblue" points="832.155,-140.916 837.296,-131.652 827.5,-135.689 832.155,-140.916"/>
</g>
<!-- Node18 -->
<g id="node18" class="node"><title>Node18</title>
<polygon fill="none" stroke="#bfbfbf" points="891.014,-112.5 891.014,-131.5 983.014,-131.5 983.014,-112.5 891.014,-112.5"/>
<text text-anchor="middle" x="937.014" y="-119.5" font-family="Helvetica,sans-Serif" font-size="10.00">simstruc_types.h</text>
</g>
<!-- Node1&#45;&gt;Node18 -->
<g id="edge32" class="edge"><title>Node1&#45;&gt;Node18</title>
<path fill="none" stroke="midnightblue" d="M822.919,-168.498C849.832,-157.766 882.423,-144.769 905.87,-135.419"/>
<polygon fill="midnightblue" stroke="midnightblue" points="907.324,-138.608 915.316,-131.652 904.731,-132.106 907.324,-138.608"/>
</g>
<!-- Node19 -->
<g id="node19" class="node"><title>Node19</title>
<polygon fill="none" stroke="#bfbfbf" points="1001.51,-112.5 1001.51,-131.5 1118.51,-131.5 1118.51,-112.5 1001.51,-112.5"/>
<text text-anchor="middle" x="1060.01" y="-119.5" font-family="Helvetica,sans-Serif" font-size="10.00">sl_sample_time_defs.h</text>
</g>
<!-- Node1&#45;&gt;Node19 -->
<g id="edge33" class="edge"><title>Node1&#45;&gt;Node19</title>
<path fill="none" stroke="midnightblue" d="M856.353,-169.287C907.073,-157.759 970.292,-143.391 1012.72,-133.748"/>
<polygon fill="midnightblue" stroke="midnightblue" points="1013.54,-137.152 1022.51,-131.523 1011.98,-130.327 1013.54,-137.152"/>
</g>
<!-- Node20 -->
<g id="node20" class="node"><title>Node20</title>
<polygon fill="none" stroke="#bfbfbf" points="1137.01,-112.5 1137.01,-131.5 1205.01,-131.5 1205.01,-112.5 1137.01,-112.5"/>
<text text-anchor="middle" x="1171.01" y="-119.5" font-family="Helvetica,sans-Serif" font-size="10.00">tmwtypes.h</text>
</g>
<!-- Node1&#45;&gt;Node20 -->
<g id="edge34" class="edge"><title>Node1&#45;&gt;Node20</title>
<path fill="none" stroke="midnightblue" d="M856.215,-176.016C927.87,-165.318 1034.52,-148.788 1127.01,-132 1127.11,-131.982 1127.22,-131.963 1127.32,-131.945"/>
<polygon fill="midnightblue" stroke="midnightblue" points="1127.76,-135.424 1136.93,-130.127 1126.46,-128.546 1127.76,-135.424"/>
</g>
<!-- Node21 -->
<g id="node21" class="node"><title>Node21</title>
<polygon fill="none" stroke="#bfbfbf" points="1223.01,-112.5 1223.01,-131.5 1277.01,-131.5 1277.01,-112.5 1223.01,-112.5"/>
<text text-anchor="middle" x="1250.01" y="-119.5" font-family="Helvetica,sans-Serif" font-size="10.00">iostream</text>
</g>
<!-- Node1&#45;&gt;Node21 -->
<g id="edge35" class="edge"><title>Node1&#45;&gt;Node21</title>
<path fill="none" stroke="midnightblue" d="M856.372,-180.459C942.865,-171.873 1082.94,-156.084 1212.83,-132.025"/>
<polygon fill="midnightblue" stroke="midnightblue" points="1213.78,-135.409 1222.96,-130.128 1212.49,-128.528 1213.78,-135.409"/>
</g>
<!-- Node22 -->
<g id="node22" class="node"><title>Node22</title>
<polygon fill="none" stroke="#bfbfbf" points="1295.51,-112.5 1295.51,-131.5 1344.51,-131.5 1344.51,-112.5 1295.51,-112.5"/>
<text text-anchor="middle" x="1320.01" y="-119.5" font-family="Helvetica,sans-Serif" font-size="10.00">stdint.h</text>
</g>
<!-- Node1&#45;&gt;Node22 -->
<g id="edge37" class="edge"><title>Node1&#45;&gt;Node22</title>
<path fill="none" stroke="midnightblue" d="M856.147,-182.824C955.657,-175.699 1128.42,-160.591 1285.39,-131.844"/>
<polygon fill="midnightblue" stroke="midnightblue" points="1286.03,-135.284 1295.23,-130.02 1284.76,-128.401 1286.03,-135.284"/>
</g>
<!-- Node23 -->
<g id="node23" class="node"><title>Node23</title>
<polygon fill="none" stroke="#bfbfbf" points="1363.01,-112.5 1363.01,-131.5 1409.01,-131.5 1409.01,-112.5 1363.01,-112.5"/>
<text text-anchor="middle" x="1386.01" y="-119.5" font-family="Helvetica,sans-Serif" font-size="10.00">stdio.h</text>
</g>
<!-- Node1&#45;&gt;Node23 -->
<g id="edge38" class="edge"><title>Node1&#45;&gt;Node23</title>
<path fill="none" stroke="midnightblue" d="M856.123,-184.453C966.858,-178.691 1170.18,-164.665 1352.64,-131.725"/>
<polygon fill="midnightblue" stroke="midnightblue" points="1353.48,-135.129 1362.69,-129.887 1352.22,-128.243 1353.48,-135.129"/>
</g>
<!-- Node24 -->
<g id="node24" class="node"><title>Node24</title>
<polygon fill="none" stroke="#bfbfbf" points="1427.51,-112.5 1427.51,-131.5 1486.51,-131.5 1486.51,-112.5 1427.51,-112.5"/>
<text text-anchor="middle" x="1457.01" y="-119.5" font-family="Helvetica,sans-Serif" font-size="10.00">cg_sfun.h</text>
</g>
<!-- Node1&#45;&gt;Node24 -->
<g id="edge42" class="edge"><title>Node1&#45;&gt;Node24</title>
<path fill="none" stroke="midnightblue" d="M856.042,-184.551C976.871,-178.653 1209.85,-164.169 1417.12,-131.911"/>
<polygon fill="midnightblue" stroke="midnightblue" points="1417.95,-135.324 1427.29,-130.312 1416.86,-128.409 1417.95,-135.324"/>
</g>
<!-- Node2&#45;&gt;Node3 -->
<g id="edge2" class="edge"><title>Node2&#45;&gt;Node3</title>
<path fill="none" stroke="midnightblue" d="M205.307,-112.083C208.866,-104.691 214.036,-93.9533 218.438,-84.8111"/>
<polygon fill="midnightblue" stroke="midnightblue" points="221.616,-86.2795 222.8,-75.7511 215.308,-83.2427 221.616,-86.2795"/>
</g>
<!-- Node2&#45;&gt;Node5 -->
<g id="edge6" class="edge"><title>Node2&#45;&gt;Node5</title>
<path fill="none" stroke="midnightblue" d="M194.344,-112.406C185.419,-99.7912 171.631,-75.6315 180.014,-56 185.16,-43.9469 195.295,-33.5764 204.84,-25.8389"/>
<polygon fill="midnightblue" stroke="midnightblue" points="207.054,-28.5532 212.935,-19.7409 202.842,-22.9619 207.054,-28.5532"/>
</g>
<!-- Node2&#45;&gt;Node6 -->
<g id="edge7" class="edge"><title>Node2&#45;&gt;Node6</title>
<path fill="none" stroke="midnightblue" d="M175.784,-118.647C129.88,-113.787 35.6217,-100.949 16.0137,-76 -5.45462,-48.6837 45.2979,-28.8096 81.1927,-18.6562"/>
<polygon fill="midnightblue" stroke="midnightblue" points="82.1066,-22.0348 90.8505,-16.052 80.2841,-15.2762 82.1066,-22.0348"/>
</g>
<!-- Node3&#45;&gt;Node4 -->
<g id="edge3" class="edge"><title>Node3&#45;&gt;Node4</title>
<path fill="none" stroke="midnightblue" d="M264.775,-59.2722C333.568,-48.8372 478.469,-26.8579 546.403,-16.5533"/>
<polygon fill="midnightblue" stroke="midnightblue" points="547.26,-19.9634 556.622,-15.0032 546.21,-13.0426 547.26,-19.9634"/>
</g>
<!-- Node3&#45;&gt;Node5 -->
<g id="edge4" class="edge"><title>Node3&#45;&gt;Node5</title>
<path fill="none" stroke="midnightblue" d="M227.014,-56.083C227.014,-49.0059 227.014,-38.8611 227.014,-29.9865"/>
<polygon fill="midnightblue" stroke="midnightblue" points="230.514,-29.751 227.014,-19.7511 223.514,-29.7511 230.514,-29.751"/>
</g>
<!-- Node3&#45;&gt;Node6 -->
<g id="edge5" class="edge"><title>Node3&#45;&gt;Node6</title>
<path fill="none" stroke="midnightblue" d="M208.95,-56.4435C190.439,-47.6751 161.433,-33.9355 140.158,-23.8579"/>
<polygon fill="midnightblue" stroke="midnightblue" points="141.529,-20.6343 130.993,-19.5164 138.532,-26.9604 141.529,-20.6343"/>
</g>
<!-- Node7&#45;&gt;Node4 -->
<g id="edge9" class="edge"><title>Node7&#45;&gt;Node4</title>
<path fill="none" stroke="midnightblue" d="M745.377,-58.9105C714.789,-49.8845 656.977,-32.8252 619.235,-21.6883"/>
<polygon fill="midnightblue" stroke="midnightblue" points="619.743,-18.1891 609.162,-18.7158 617.762,-24.903 619.743,-18.1891"/>
</g>
<!-- Node7&#45;&gt;Node5 -->
<g id="edge11" class="edge"><title>Node7&#45;&gt;Node5</title>
<path fill="none" stroke="midnightblue" d="M745.505,-62.138C731.793,-60.2704 713.339,-57.8457 697.014,-56 531.654,-37.3051 332.984,-19.9611 257.829,-13.5825"/>
<polygon fill="midnightblue" stroke="midnightblue" points="257.915,-10.0774 247.656,-12.7221 257.325,-17.0525 257.915,-10.0774"/>
</g>
<!-- Node8 -->
<g id="node8" class="node"><title>Node8</title>
<polygon fill="none" stroke="#bfbfbf" points="725.014,-0.5 725.014,-19.5 777.014,-19.5 777.014,-0.5 725.014,-0.5"/>
<text text-anchor="middle" x="751.014" y="-7.5" font-family="Helvetica,sans-Serif" font-size="10.00">sstream</text>
</g>
<!-- Node7&#45;&gt;Node8 -->
<g id="edge10" class="edge"><title>Node7&#45;&gt;Node8</title>
<path fill="none" stroke="midnightblue" d="M763.537,-56.083C761.527,-48.8486 758.627,-38.4087 756.124,-29.3968"/>
<polygon fill="midnightblue" stroke="midnightblue" points="759.493,-28.4495 753.445,-19.7511 752.749,-30.323 759.493,-28.4495"/>
</g>
<!-- Node9&#45;&gt;Node5 -->
<g id="edge13" class="edge"><title>Node9&#45;&gt;Node5</title>
<path fill="none" stroke="midnightblue" d="M86.4753,-56.4435C116.518,-46.7292 165.43,-30.9134 196.906,-20.7354"/>
<polygon fill="midnightblue" stroke="midnightblue" points="198.029,-24.0508 206.467,-17.6439 195.875,-17.3904 198.029,-24.0508"/>
</g>
<!-- Node9&#45;&gt;Node6 -->
<g id="edge14" class="edge"><title>Node9&#45;&gt;Node6</title>
<path fill="none" stroke="midnightblue" d="M68.7656,-56.083C76.4834,-48.2195 87.9184,-36.5688 97.2302,-27.0813"/>
<polygon fill="midnightblue" stroke="midnightblue" points="99.9179,-29.3396 104.425,-19.7511 94.9221,-24.4363 99.9179,-29.3396"/>
</g>
<!-- Node10&#45;&gt;Node5 -->
<g id="edge28" class="edge"><title>Node10&#45;&gt;Node5</title>
<path fill="none" stroke="midnightblue" d="M435.043,-112.419C413.237,-103.748 378.975,-89.7097 350.014,-76 315.132,-59.4874 275.874,-38.2646 251.294,-24.6449"/>
<polygon fill="midnightblue" stroke="midnightblue" points="252.765,-21.4582 242.325,-19.6518 249.36,-27.5742 252.765,-21.4582"/>
</g>
<!-- Node10&#45;&gt;Node6 -->
<g id="edge29" class="edge"><title>Node10&#45;&gt;Node6</title>
<path fill="none" stroke="midnightblue" d="M421.586,-112.49C391.13,-104.645 346.347,-91.8342 309.014,-76 292.163,-68.8532 289.938,-62.9694 273.014,-56 230.038,-38.3027 177.803,-25.0611 144.973,-17.674"/>
<polygon fill="midnightblue" stroke="midnightblue" points="145.551,-14.2174 135.032,-15.4831 144.044,-21.0534 145.551,-14.2174"/>
</g>
<!-- Node10&#45;&gt;Node9 -->
<g id="edge24" class="edge"><title>Node10&#45;&gt;Node9</title>
<path fill="none" stroke="midnightblue" d="M394.108,-112.444C313.565,-101.488 175.97,-82.7724 105.116,-73.1348"/>
<polygon fill="midnightblue" stroke="midnightblue" points="105.542,-69.6606 95.1611,-71.7808 104.598,-76.5967 105.542,-69.6606"/>
</g>
<!-- Node11 -->
<g id="node11" class="node"><title>Node11</title>
<polygon fill="none" stroke="#bfbfbf" points="475.014,-56.5 475.014,-75.5 539.014,-75.5 539.014,-56.5 475.014,-56.5"/>
<text text-anchor="middle" x="507.014" y="-63.5" font-family="Helvetica,sans-Serif" font-size="10.00">AnyType.h</text>
</g>
<!-- Node10&#45;&gt;Node11 -->
<g id="edge17" class="edge"><title>Node10&#45;&gt;Node11</title>
<path fill="none" stroke="midnightblue" d="M465.27,-112.083C472.478,-104.298 483.123,-92.8015 491.86,-83.3665"/>
<polygon fill="midnightblue" stroke="midnightblue" points="494.685,-85.4666 498.911,-75.7511 489.549,-80.7108 494.685,-85.4666"/>
</g>
<!-- Node12 -->
<g id="node12" class="node"><title>Node12</title>
<g id="a_node12"><a xlink:href="_block_information_8h.html" target="_top" xlink:title="BlockInformation.h">
<polygon fill="none" stroke="black" points="359.014,-56.5 359.014,-75.5 457.014,-75.5 457.014,-56.5 359.014,-56.5"/>
<text text-anchor="middle" x="408.014" y="-63.5" font-family="Helvetica,sans-Serif" font-size="10.00">BlockInformation.h</text>
</a>
</g>
</g>
<!-- Node10&#45;&gt;Node12 -->
<g id="edge18" class="edge"><title>Node10&#45;&gt;Node12</title>
<path fill="none" stroke="midnightblue" d="M448.922,-112.083C441.858,-104.298 431.426,-92.8015 422.865,-83.3665"/>
<polygon fill="midnightblue" stroke="midnightblue" points="425.266,-80.8047 415.954,-75.7511 420.082,-85.5087 425.266,-80.8047"/>
</g>
<!-- Node15 -->
<g id="node15" class="node"><title>Node15</title>
<g id="a_node15"><a xlink:href="_signal_8h.html" target="_top" xlink:title="Signal.h">
<polygon fill="none" stroke="black" points="557.014,-56.5 557.014,-75.5 609.014,-75.5 609.014,-56.5 557.014,-56.5"/>
<text text-anchor="middle" x="583.014" y="-63.5" font-family="Helvetica,sans-Serif" font-size="10.00">Signal.h</text>
</a>
</g>
</g>
<!-- Node10&#45;&gt;Node15 -->
<g id="edge25" class="edge"><title>Node10&#45;&gt;Node15</title>
<path fill="none" stroke="midnightblue" d="M476.979,-112.444C497.623,-103.596 530.076,-89.6875 553.645,-79.5865"/>
<polygon fill="midnightblue" stroke="midnightblue" points="555.329,-82.6727 563.142,-75.5164 552.572,-76.2387 555.329,-82.6727"/>
</g>
<!-- Node10&#45;&gt;Node16 -->
<g id="edge27" class="edge"><title>Node10&#45;&gt;Node16</title>
<path fill="none" stroke="midnightblue" d="M488.863,-112.444C523.615,-103.107 579.347,-88.1343 617.264,-77.9478"/>
<polygon fill="midnightblue" stroke="midnightblue" points="618.225,-81.3138 626.974,-75.339 616.408,-74.5535 618.225,-81.3138"/>
</g>
<!-- Node12&#45;&gt;Node4 -->
<g id="edge19" class="edge"><title>Node12&#45;&gt;Node4</title>
<path fill="none" stroke="midnightblue" d="M435.743,-56.4435C465.876,-47.1454 514.125,-32.2572 547.127,-22.0735"/>
<polygon fill="midnightblue" stroke="midnightblue" points="548.32,-25.3685 556.843,-19.0755 546.256,-18.6797 548.32,-25.3685"/>
</g>
<!-- Node12&#45;&gt;Node5 -->
<g id="edge20" class="edge"><title>Node12&#45;&gt;Node5</title>
<path fill="none" stroke="midnightblue" d="M379.334,-56.4435C346.09,-46.5255 291.528,-30.2473 257.524,-20.1025"/>
<polygon fill="midnightblue" stroke="midnightblue" points="258.261,-16.6699 247.677,-17.1649 256.259,-23.3778 258.261,-16.6699"/>
</g>
<!-- Node12&#45;&gt;Node6 -->
<g id="edge23" class="edge"><title>Node12&#45;&gt;Node6</title>
<path fill="none" stroke="midnightblue" d="M361.27,-56.4435C300.929,-45.398 197.493,-26.4641 145.239,-16.8989"/>
<polygon fill="midnightblue" stroke="midnightblue" points="145.666,-13.4189 135.199,-15.061 144.405,-20.3045 145.666,-13.4189"/>
</g>
<!-- Node13 -->
<g id="node13" class="node"><title>Node13</title>
<polygon fill="none" stroke="#bfbfbf" points="389.014,-0.5 389.014,-19.5 427.014,-19.5 427.014,-0.5 389.014,-0.5"/>
<text text-anchor="middle" x="408.014" y="-7.5" font-family="Helvetica,sans-Serif" font-size="10.00">tuple</text>
</g>
<!-- Node12&#45;&gt;Node13 -->
<g id="edge21" class="edge"><title>Node12&#45;&gt;Node13</title>
<path fill="none" stroke="midnightblue" d="M408.014,-56.083C408.014,-49.0059 408.014,-38.8611 408.014,-29.9865"/>
<polygon fill="midnightblue" stroke="midnightblue" points="411.514,-29.751 408.014,-19.7511 404.514,-29.7511 411.514,-29.751"/>
</g>
<!-- Node12&#45;&gt;Node14 -->
<g id="edge22" class="edge"><title>Node12&#45;&gt;Node14</title>
<path fill="none" stroke="midnightblue" d="M457.041,-57.2446C460.075,-56.8104 463.085,-56.3918 466.014,-56 604.683,-37.4493 644.172,-48.8034 784.991,-19.8488"/>
<polygon fill="midnightblue" stroke="midnightblue" points="785.787,-23.2582 794.86,-17.7882 784.356,-16.4059 785.787,-23.2582"/>
</g>
<!-- Node15&#45;&gt;Node4 -->
<g id="edge26" class="edge"><title>Node15&#45;&gt;Node4</title>
<path fill="none" stroke="midnightblue" d="M583.014,-56.083C583.014,-49.0059 583.014,-38.8611 583.014,-29.9865"/>
<polygon fill="midnightblue" stroke="midnightblue" points="586.514,-29.751 583.014,-19.7511 579.514,-29.7511 586.514,-29.751"/>
</g>
</g>
</svg>
