<?xml version="1.0" encoding="UTF-8" standalone="no"?>
<!DOCTYPE svg PUBLIC "-//W3C//DTD SVG 1.1//EN"
 "http://www.w3.org/Graphics/SVG/1.1/DTD/svg11.dtd">
<!-- Generated by graphviz version 2.38.0 (20140413.2041)
 -->
<!-- Title: /home/travis/build/robotology/wb&#45;toolbox/toolbox/base/src/WBBlock.cpp Pages: 1 -->
<!--zoomable 173 -->
<svg id="main" version="1.1" xmlns="http://www.w3.org/2000/svg" xmlns:xlink="http://www.w3.org/1999/xlink" xml:space="preserve" onload="init(evt)">
<style type="text/css"><![CDATA[
.edge:hover path { stroke: red; }
.edge:hover polygon { stroke: red; fill: red; }
]]></style>
<script type="text/javascript"><![CDATA[
var edges = document.getElementsByTagName('g');
if (edges && edges.length) {
  for (var i=0;i<edges.length;i++) {
    if (edges[i].id.substr(0,4)=='edge') {
      edges[i].setAttribute('class','edge');
    }
  }
}
]]></script>
        <defs>
                <circle id="rim" cx="0" cy="0" r="7"/>
                <circle id="rim2" cx="0" cy="0" r="3.5"/>
                <g id="zoomPlus">
                        <use xlink:href="#rim" fill="#404040">
                                <set attributeName="fill" to="#808080" begin="zoomplus.mouseover" end="zoomplus.mouseout"/>
                        </use>
                        <path d="M-4,0h8M0,-4v8" fill="none" stroke="white" stroke-width="1.5" pointer-events="none"/>
                </g>
                <g id="zoomMin">
                        <use xlink:href="#rim" fill="#404040">
                                <set attributeName="fill" to="#808080" begin="zoomminus.mouseover" end="zoomminus.mouseout"/>
                        </use>
                        <path d="M-4,0h8" fill="none" stroke="white" stroke-width="1.5" pointer-events="none"/>
                </g>
                <g id="dirArrow">
                        <path fill="none" stroke="white" stroke-width="1.5" d="M0,-3.0v7 M-2.5,-0.5L0,-3.0L2.5,-0.5"/>
                </g>
               <g id="resetDef">
                       <use xlink:href="#rim2" fill="#404040">
                               <set attributeName="fill" to="#808080" begin="reset.mouseover" end="reset.mouseout"/>
                       </use>
               </g>
        </defs>

<script type="text/javascript">
var viewWidth = 2987;
var viewHeight = 173;
var sectionId = 'dynsection-0';
</script>
<script xlink:href="svgpan.js"/>
<svg id="graph" class="graph">
<g id="viewport">
<title>/home/travis/build/robotology/wb&#45;toolbox/toolbox/base/src/WBBlock.cpp</title>
<!-- Node1 -->
<g id="node1" class="node"><title>Node1</title>
<polygon fill="#bfbfbf" stroke="black" points="1370.5,-123.5 1370.5,-164.5 1532.5,-164.5 1532.5,-123.5 1370.5,-123.5"/>
<text text-anchor="start" x="1378.5" y="-152.5" font-family="Helvetica,sans-Serif" font-size="10.00">/home/travis/build</text>
<text text-anchor="start" x="1378.5" y="-141.5" font-family="Helvetica,sans-Serif" font-size="10.00">/robotology/wb&#45;toolbox</text>
<text text-anchor="middle" x="1451.5" y="-130.5" font-family="Helvetica,sans-Serif" font-size="10.00">/toolbox/base/src/WBBlock.cpp</text>
</g>
<!-- Node2 -->
<g id="node2" class="node"><title>Node2</title>
<g id="a_node2"><a xlink:href="_w_b_block_8h.html" target="_top" xlink:title="WBToolbox/Base/WBBlock.h">
<polygon fill="none" stroke="black" points="248.5,-62 248.5,-81 394.5,-81 394.5,-62 248.5,-62"/>
<text text-anchor="middle" x="321.5" y="-69" font-family="Helvetica,sans-Serif" font-size="10.00">WBToolbox/Base/WBBlock.h</text>
</a>
</g>
</g>
<!-- Node1&#45;&gt;Node2 -->
<g id="edge1" class="edge"><title>Node1&#45;&gt;Node2</title>
<path fill="none" stroke="midnightblue" d="M1370.44,-141.959C1194.18,-138.975 763.066,-127.762 404.5,-87 394.792,-85.8963 384.499,-84.3814 374.587,-82.745"/>
<polygon fill="midnightblue" stroke="midnightblue" points="374.884,-79.2451 364.437,-81.0079 373.703,-86.1447 374.884,-79.2451"/>
</g>
<!-- Node4 -->
<g id="node4" class="node"><title>Node4</title>
<polygon fill="none" stroke="#bfbfbf" points="329,-0.5 329,-19.5 386,-19.5 386,-0.5 329,-0.5"/>
<text text-anchor="middle" x="357.5" y="-7.5" font-family="Helvetica,sans-Serif" font-size="10.00">memory</text>
</g>
<!-- Node1&#45;&gt;Node4 -->
<g id="edge33" class="edge"><title>Node1&#45;&gt;Node4</title>
<path fill="none" stroke="midnightblue" d="M1370.28,-142.292C1104.97,-139.586 278.549,-127.895 239.5,-87 229.985,-77.0353 231.684,-67.3461 239.5,-56 248.887,-42.3737 288.225,-29.1723 318.933,-20.6316"/>
<polygon fill="midnightblue" stroke="midnightblue" points="320.22,-23.9092 328.96,-17.92 318.393,-17.1519 320.22,-23.9092"/>
</g>
<!-- Node6 -->
<g id="node6" class="node"><title>Node6</title>
<g id="a_node6"><a xlink:href="_configuration_8h.html" target="_top" xlink:title="WBToolbox/Base/Configuration.h">
<polygon fill="none" stroke="black" points="22.5,-62 22.5,-81 192.5,-81 192.5,-62 22.5,-62"/>
<text text-anchor="middle" x="107.5" y="-69" font-family="Helvetica,sans-Serif" font-size="10.00">WBToolbox/Base/Configuration.h</text>
</a>
</g>
</g>
<!-- Node1&#45;&gt;Node6 -->
<g id="edge5" class="edge"><title>Node1&#45;&gt;Node6</title>
<path fill="none" stroke="midnightblue" d="M1370.46,-142.171C1171.69,-139.525 644.27,-128.798 206.5,-87 194.341,-85.8391 181.393,-84.2221 169.007,-82.487"/>
<polygon fill="midnightblue" stroke="midnightblue" points="169.161,-78.9732 158.764,-81.0093 168.162,-85.9014 169.161,-78.9732"/>
</g>
<!-- Node7 -->
<g id="node7" class="node"><title>Node7</title>
<polygon fill="none" stroke="#bfbfbf" points="0,-0.5 0,-19.5 41,-19.5 41,-0.5 0,-0.5"/>
<text text-anchor="middle" x="20.5" y="-7.5" font-family="Helvetica,sans-Serif" font-size="10.00">array</text>
</g>
<!-- Node1&#45;&gt;Node7 -->
<g id="edge32" class="edge"><title>Node1&#45;&gt;Node7</title>
<path fill="none" stroke="midnightblue" d="M1370.25,-142.911C1073.19,-142.194 60.7629,-136.139 13.5,-87 -1.02851,-71.8947 5.06837,-46.4423 11.8497,-29.1954"/>
<polygon fill="midnightblue" stroke="midnightblue" points="15.2078,-30.2494 15.9823,-19.6829 8.78746,-27.4602 15.2078,-30.2494"/>
</g>
<!-- Node9 -->
<g id="node9" class="node"><title>Node9</title>
<g id="a_node9"><a xlink:href="_robot_interface_8h.html" target="_top" xlink:title="WBToolbox/Base/RobotInterface.h">
<polygon fill="none" stroke="black" points="580,-62 580,-81 755,-81 755,-62 580,-62"/>
<text text-anchor="middle" x="667.5" y="-69" font-family="Helvetica,sans-Serif" font-size="10.00">WBToolbox/Base/RobotInterface.h</text>
</a>
</g>
</g>
<!-- Node1&#45;&gt;Node9 -->
<g id="edge10" class="edge"><title>Node1&#45;&gt;Node9</title>
<path fill="none" stroke="midnightblue" d="M1370.42,-138.158C1241.74,-130.076 982.938,-112.201 764.5,-87 753.314,-85.7095 741.435,-84.1182 729.966,-82.4676"/>
<polygon fill="midnightblue" stroke="midnightblue" points="730.424,-78.9973 720.022,-81.0078 729.408,-85.9231 730.424,-78.9973"/>
</g>
<!-- Node12 -->
<g id="node12" class="node"><title>Node12</title>
<g id="a_node12"><a xlink:href="_whole_body_singleton_8h.html" target="_top" xlink:title="WBToolbox/Base/WholeBody\lSingleton.h">
<polygon fill="none" stroke="black" points="413,-56.5 413,-86.5 562,-86.5 562,-56.5 413,-56.5"/>
<text text-anchor="start" x="421" y="-74.5" font-family="Helvetica,sans-Serif" font-size="10.00">WBToolbox/Base/WholeBody</text>
<text text-anchor="middle" x="487.5" y="-63.5" font-family="Helvetica,sans-Serif" font-size="10.00">Singleton.h</text>
</a>
</g>
</g>
<!-- Node1&#45;&gt;Node12 -->
<g id="edge15" class="edge"><title>Node1&#45;&gt;Node12</title>
<path fill="none" stroke="midnightblue" d="M1370.25,-140.745C1216.47,-135.84 872.204,-121.814 572.296,-86.9986"/>
<polygon fill="midnightblue" stroke="midnightblue" points="572.434,-83.4909 562.094,-85.8043 571.62,-90.4434 572.434,-83.4909"/>
</g>
<!-- Node13 -->
<g id="node13" class="node"><title>Node13</title>
<polygon fill="none" stroke="#bfbfbf" points="773.5,-62 773.5,-81 967.5,-81 967.5,-62 773.5,-62"/>
<text text-anchor="middle" x="870.5" y="-69" font-family="Helvetica,sans-Serif" font-size="10.00">BlockFactory/Core/BlockInformation.h</text>
</g>
<!-- Node1&#45;&gt;Node13 -->
<g id="edge19" class="edge"><title>Node1&#45;&gt;Node13</title>
<path fill="none" stroke="midnightblue" d="M1370.09,-133.81C1275.62,-123.047 1115.19,-104.462 977.5,-87 966.137,-85.5589 954.102,-83.9797 942.365,-82.4104"/>
<polygon fill="midnightblue" stroke="midnightblue" points="942.527,-78.9009 932.15,-81.0377 941.595,-85.8386 942.527,-78.9009"/>
</g>
<!-- Node14 -->
<g id="node14" class="node"><title>Node14</title>
<polygon fill="none" stroke="#bfbfbf" points="986,-62 986,-81 1117,-81 1117,-62 986,-62"/>
<text text-anchor="middle" x="1051.5" y="-69" font-family="Helvetica,sans-Serif" font-size="10.00">BlockFactory/Core/Log.h</text>
</g>
<!-- Node1&#45;&gt;Node14 -->
<g id="edge20" class="edge"><title>Node1&#45;&gt;Node14</title>
<path fill="none" stroke="midnightblue" d="M1370.28,-129.476C1304.49,-118.408 1209.43,-102.16 1126.5,-87 1119.41,-85.7048 1111.96,-84.3065 1104.61,-82.9071"/>
<polygon fill="midnightblue" stroke="midnightblue" points="1105.18,-79.4527 1094.7,-81.0079 1103.86,-86.3276 1105.18,-79.4527"/>
</g>
<!-- Node15 -->
<g id="node15" class="node"><title>Node15</title>
<polygon fill="none" stroke="#bfbfbf" points="1135.5,-62 1135.5,-81 1299.5,-81 1299.5,-62 1135.5,-62"/>
<text text-anchor="middle" x="1217.5" y="-69" font-family="Helvetica,sans-Serif" font-size="10.00">BlockFactory/Core/Parameter.h</text>
</g>
<!-- Node1&#45;&gt;Node15 -->
<g id="edge21" class="edge"><title>Node1&#45;&gt;Node15</title>
<path fill="none" stroke="midnightblue" d="M1386.63,-123.455C1344.53,-110.771 1291.11,-94.676 1255.69,-84.0058"/>
<polygon fill="midnightblue" stroke="midnightblue" points="1256.34,-80.5466 1245.76,-81.013 1254.32,-87.249 1256.34,-80.5466"/>
</g>
<!-- Node16 -->
<g id="node16" class="node"><title>Node16</title>
<polygon fill="none" stroke="#bfbfbf" points="1318,-62 1318,-81 1461,-81 1461,-62 1318,-62"/>
<text text-anchor="middle" x="1389.5" y="-69" font-family="Helvetica,sans-Serif" font-size="10.00">BlockFactory/Core/Signal.h</text>
</g>
<!-- Node1&#45;&gt;Node16 -->
<g id="edge22" class="edge"><title>Node1&#45;&gt;Node16</title>
<path fill="none" stroke="midnightblue" d="M1434.23,-123.362C1424.71,-112.539 1413.03,-99.2568 1403.99,-88.9795"/>
<polygon fill="midnightblue" stroke="midnightblue" points="1406.36,-86.3713 1397.13,-81.1734 1401.1,-90.994 1406.36,-86.3713"/>
</g>
<!-- Node17 -->
<g id="node17" class="node"><title>Node17</title>
<polygon fill="none" stroke="#bfbfbf" points="1479.5,-62 1479.5,-81 1547.5,-81 1547.5,-62 1479.5,-62"/>
<text text-anchor="middle" x="1513.5" y="-69" font-family="Helvetica,sans-Serif" font-size="10.00">Eigen/Core</text>
</g>
<!-- Node1&#45;&gt;Node17 -->
<g id="edge23" class="edge"><title>Node1&#45;&gt;Node17</title>
<path fill="none" stroke="midnightblue" d="M1468.77,-123.362C1478.29,-112.539 1489.97,-99.2568 1499.01,-88.9795"/>
<polygon fill="midnightblue" stroke="midnightblue" points="1501.9,-90.994 1505.87,-81.1734 1496.64,-86.3713 1501.9,-90.994"/>
</g>
<!-- Node18 -->
<g id="node18" class="node"><title>Node18</title>
<polygon fill="none" stroke="#bfbfbf" points="1566,-56.5 1566,-86.5 1721,-86.5 1721,-56.5 1566,-56.5"/>
<text text-anchor="start" x="1574" y="-74.5" font-family="Helvetica,sans-Serif" font-size="10.00">iDynTree/Core/AngularMotion</text>
<text text-anchor="middle" x="1643.5" y="-63.5" font-family="Helvetica,sans-Serif" font-size="10.00">Vector3.h</text>
</g>
<!-- Node1&#45;&gt;Node18 -->
<g id="edge24" class="edge"><title>Node1&#45;&gt;Node18</title>
<path fill="none" stroke="midnightblue" d="M1504.73,-123.455C1533.22,-112.994 1568.03,-100.212 1595.66,-90.067"/>
<polygon fill="midnightblue" stroke="midnightblue" points="1596.93,-93.3292 1605.11,-86.5968 1594.52,-86.7582 1596.93,-93.3292"/>
</g>
<!-- Node19 -->
<g id="node19" class="node"><title>Node19</title>
<polygon fill="none" stroke="#bfbfbf" points="1739.5,-62 1739.5,-81 1897.5,-81 1897.5,-62 1739.5,-62"/>
<text text-anchor="middle" x="1818.5" y="-69" font-family="Helvetica,sans-Serif" font-size="10.00">iDynTree/Core/EigenHelpers.h</text>
</g>
<!-- Node1&#45;&gt;Node19 -->
<g id="edge25" class="edge"><title>Node1&#45;&gt;Node19</title>
<path fill="none" stroke="midnightblue" d="M1532.95,-127.354C1603.36,-113.827 1703.17,-94.6545 1764.22,-82.9263"/>
<polygon fill="midnightblue" stroke="midnightblue" points="1764.89,-86.3628 1774.05,-81.039 1763.57,-79.4885 1764.89,-86.3628"/>
</g>
<!-- Node20 -->
<g id="node20" class="node"><title>Node20</title>
<polygon fill="none" stroke="#bfbfbf" points="1916,-56.5 1916,-86.5 2063,-86.5 2063,-56.5 1916,-56.5"/>
<text text-anchor="start" x="1924" y="-74.5" font-family="Helvetica,sans-Serif" font-size="10.00">iDynTree/Core/LinearMotion</text>
<text text-anchor="middle" x="1989.5" y="-63.5" font-family="Helvetica,sans-Serif" font-size="10.00">Vector3.h</text>
</g>
<!-- Node1&#45;&gt;Node20 -->
<g id="edge26" class="edge"><title>Node1&#45;&gt;Node20</title>
<path fill="none" stroke="midnightblue" d="M1532.63,-134.266C1621.54,-124.411 1768.62,-107.277 1905.51,-87.1008"/>
<polygon fill="midnightblue" stroke="midnightblue" points="1906.39,-90.5089 1915.77,-85.5804 1905.36,-83.5846 1906.39,-90.5089"/>
</g>
<!-- Node21 -->
<g id="node21" class="node"><title>Node21</title>
<polygon fill="none" stroke="#bfbfbf" points="2081.5,-62 2081.5,-81 2223.5,-81 2223.5,-62 2081.5,-62"/>
<text text-anchor="middle" x="2152.5" y="-69" font-family="Helvetica,sans-Serif" font-size="10.00">iDynTree/Core/Transform.h</text>
</g>
<!-- Node1&#45;&gt;Node21 -->
<g id="edge27" class="edge"><title>Node1&#45;&gt;Node21</title>
<path fill="none" stroke="midnightblue" d="M1532.64,-138.006C1651.48,-130.165 1879.68,-113.115 2072.5,-87 2081.24,-85.8163 2090.48,-84.3466 2099.45,-82.801"/>
<polygon fill="midnightblue" stroke="midnightblue" points="2100.2,-86.2241 2109.43,-81.035 2098.98,-79.3312 2100.2,-86.2241"/>
</g>
<!-- Node22 -->
<g id="node22" class="node"><title>Node22</title>
<polygon fill="none" stroke="#bfbfbf" points="2241.5,-62 2241.5,-81 2357.5,-81 2357.5,-62 2241.5,-62"/>
<text text-anchor="middle" x="2299.5" y="-69" font-family="Helvetica,sans-Serif" font-size="10.00">iDynTree/Core/Twist.h</text>
</g>
<!-- Node1&#45;&gt;Node22 -->
<g id="edge28" class="edge"><title>Node1&#45;&gt;Node22</title>
<path fill="none" stroke="midnightblue" d="M1532.57,-140.964C1674.89,-136.551 1978.68,-123.379 2232.5,-87 2239.71,-85.9669 2247.3,-84.5992 2254.68,-83.116"/>
<polygon fill="midnightblue" stroke="midnightblue" points="2255.48,-86.5233 2264.55,-81.0424 2254.04,-79.6727 2255.48,-86.5233"/>
</g>
<!-- Node23 -->
<g id="node23" class="node"><title>Node23</title>
<polygon fill="none" stroke="#bfbfbf" points="2375.5,-62 2375.5,-81 2539.5,-81 2539.5,-62 2375.5,-62"/>
<text text-anchor="middle" x="2457.5" y="-69" font-family="Helvetica,sans-Serif" font-size="10.00">iDynTree/Core/VectorDynSize.h</text>
</g>
<!-- Node1&#45;&gt;Node23 -->
<g id="edge29" class="edge"><title>Node1&#45;&gt;Node23</title>
<path fill="none" stroke="midnightblue" d="M1532.51,-140.678C1692.38,-135.513 2059.6,-120.762 2366.5,-87 2377.21,-85.8214 2388.59,-84.2588 2399.54,-82.596"/>
<polygon fill="midnightblue" stroke="midnightblue" points="2400.11,-86.0503 2409.45,-81.0489 2399.03,-79.1342 2400.11,-86.0503"/>
</g>
<!-- Node24 -->
<g id="node24" class="node"><title>Node24</title>
<polygon fill="none" stroke="#bfbfbf" points="2557.5,-62 2557.5,-81 2715.5,-81 2715.5,-62 2557.5,-62"/>
<text text-anchor="middle" x="2636.5" y="-69" font-family="Helvetica,sans-Serif" font-size="10.00">iDynTree/Core/VectorFixSize.h</text>
</g>
<!-- Node1&#45;&gt;Node24 -->
<g id="edge30" class="edge"><title>Node1&#45;&gt;Node24</title>
<path fill="none" stroke="midnightblue" d="M1532.6,-141.972C1714.75,-138.983 2170,-127.714 2548.5,-87 2559,-85.8706 2570.15,-84.3137 2580.86,-82.6374"/>
<polygon fill="midnightblue" stroke="midnightblue" points="2581.65,-86.056 2590.96,-81.0037 2580.53,-79.1458 2581.65,-86.056"/>
</g>
<!-- Node25 -->
<g id="node25" class="node"><title>Node25</title>
<polygon fill="none" stroke="#bfbfbf" points="2733.5,-62 2733.5,-81 2903.5,-81 2903.5,-62 2733.5,-62"/>
<text text-anchor="middle" x="2818.5" y="-69" font-family="Helvetica,sans-Serif" font-size="10.00">iDynTree/KinDynComputations.h</text>
</g>
<!-- Node1&#45;&gt;Node25 -->
<g id="edge31" class="edge"><title>Node1&#45;&gt;Node25</title>
<path fill="none" stroke="midnightblue" d="M1532.51,-142.497C1734.35,-140.58 2275.67,-131.356 2724.5,-87 2735.94,-85.8696 2748.11,-84.2818 2759.76,-82.5691"/>
<polygon fill="midnightblue" stroke="midnightblue" points="2760.48,-86.0004 2769.84,-81.0401 2759.43,-79.0796 2760.48,-86.0004"/>
</g>
<!-- Node26 -->
<g id="node26" class="node"><title>Node26</title>
<polygon fill="none" stroke="#bfbfbf" points="2922,-62 2922,-81 2979,-81 2979,-62 2922,-62"/>
<text text-anchor="middle" x="2950.5" y="-69" font-family="Helvetica,sans-Serif" font-size="10.00">ostream</text>
</g>
<!-- Node1&#45;&gt;Node26 -->
<g id="edge34" class="edge"><title>Node1&#45;&gt;Node26</title>
<path fill="none" stroke="midnightblue" d="M1532.74,-143.355C1799.32,-143.976 2645.61,-141.495 2912.5,-87 2915.58,-86.3705 2918.74,-85.5208 2921.86,-84.5466"/>
<polygon fill="midnightblue" stroke="midnightblue" points="2923.27,-87.7611 2931.53,-81.1278 2920.94,-81.1615 2923.27,-87.7611"/>
</g>
<!-- Node3 -->
<g id="node3" class="node"><title>Node3</title>
<polygon fill="none" stroke="#bfbfbf" points="170.5,-0.5 170.5,-19.5 310.5,-19.5 310.5,-0.5 170.5,-0.5"/>
<text text-anchor="middle" x="240.5" y="-7.5" font-family="Helvetica,sans-Serif" font-size="10.00">BlockFactory/Core/Block.h</text>
</g>
<!-- Node2&#45;&gt;Node3 -->
<g id="edge2" class="edge"><title>Node2&#45;&gt;Node3</title>
<path fill="none" stroke="midnightblue" d="M309.895,-61.9751C297.023,-52.5199 276.026,-37.0961 260.494,-25.6871"/>
<polygon fill="midnightblue" stroke="midnightblue" points="262.215,-22.6085 252.084,-19.5091 258.071,-28.25 262.215,-22.6085"/>
</g>
<!-- Node2&#45;&gt;Node4 -->
<g id="edge3" class="edge"><title>Node2&#45;&gt;Node4</title>
<path fill="none" stroke="midnightblue" d="M326.658,-61.9751C331.951,-53.2268 340.335,-39.3691 347.027,-28.3093"/>
<polygon fill="midnightblue" stroke="midnightblue" points="350.17,-29.8768 352.352,-19.5091 344.18,-26.2531 350.17,-29.8768"/>
</g>
<!-- Node5 -->
<g id="node5" class="node"><title>Node5</title>
<polygon fill="none" stroke="#bfbfbf" points="424.5,-0.5 424.5,-19.5 468.5,-19.5 468.5,-0.5 424.5,-0.5"/>
<text text-anchor="middle" x="446.5" y="-7.5" font-family="Helvetica,sans-Serif" font-size="10.00">string</text>
</g>
<!-- Node2&#45;&gt;Node5 -->
<g id="edge4" class="edge"><title>Node2&#45;&gt;Node5</title>
<path fill="none" stroke="midnightblue" d="M339.409,-61.9751C360.387,-51.9897 395.35,-35.3476 419.593,-23.8075"/>
<polygon fill="midnightblue" stroke="midnightblue" points="421.099,-26.9673 428.624,-19.5091 418.09,-20.6468 421.099,-26.9673"/>
</g>
<!-- Node6&#45;&gt;Node4 -->
<g id="edge7" class="edge"><title>Node6&#45;&gt;Node4</title>
<path fill="none" stroke="midnightblue" d="M143.319,-61.9751C189.859,-50.8985 270.815,-31.631 318.75,-20.2225"/>
<polygon fill="midnightblue" stroke="midnightblue" points="319.824,-23.5648 328.742,-17.8445 318.203,-16.755 319.824,-23.5648"/>
</g>
<!-- Node6&#45;&gt;Node5 -->
<g id="edge8" class="edge"><title>Node6&#45;&gt;Node5</title>
<path fill="none" stroke="midnightblue" d="M156.07,-61.9751C226.363,-49.6376 354.553,-27.1382 414.277,-16.6556"/>
<polygon fill="midnightblue" stroke="midnightblue" points="415.023,-20.0783 424.267,-14.9022 413.813,-13.1837 415.023,-20.0783"/>
</g>
<!-- Node6&#45;&gt;Node7 -->
<g id="edge6" class="edge"><title>Node6&#45;&gt;Node7</title>
<path fill="none" stroke="midnightblue" d="M95.035,-61.9751C81.0805,-52.4315 58.2351,-36.8073 41.5091,-25.3683"/>
<polygon fill="midnightblue" stroke="midnightblue" points="43.1719,-22.2653 32.9419,-19.5091 39.2203,-28.0433 43.1719,-22.2653"/>
</g>
<!-- Node8 -->
<g id="node8" class="node"><title>Node8</title>
<polygon fill="none" stroke="#bfbfbf" points="84,-0.5 84,-19.5 131,-19.5 131,-0.5 84,-0.5"/>
<text text-anchor="middle" x="107.5" y="-7.5" font-family="Helvetica,sans-Serif" font-size="10.00">vector</text>
</g>
<!-- Node6&#45;&gt;Node8 -->
<g id="edge9" class="edge"><title>Node6&#45;&gt;Node8</title>
<path fill="none" stroke="midnightblue" d="M107.5,-61.9751C107.5,-53.5803 107.5,-40.4806 107.5,-29.6631"/>
<polygon fill="midnightblue" stroke="midnightblue" points="111,-29.5091 107.5,-19.5091 104,-29.5091 111,-29.5091"/>
</g>
<!-- Node9&#45;&gt;Node4 -->
<g id="edge11" class="edge"><title>Node9&#45;&gt;Node4</title>
<path fill="none" stroke="midnightblue" d="M623.085,-61.9751C562.248,-50.2984 453.987,-29.5192 396.263,-18.44"/>
<polygon fill="midnightblue" stroke="midnightblue" points="396.576,-14.9362 386.095,-16.4885 395.256,-21.8108 396.576,-14.9362"/>
</g>
<!-- Node9&#45;&gt;Node5 -->
<g id="edge12" class="edge"><title>Node9&#45;&gt;Node5</title>
<path fill="none" stroke="midnightblue" d="M635.836,-61.9751C593.937,-50.6945 520.483,-30.9186 478.444,-19.6003"/>
<polygon fill="midnightblue" stroke="midnightblue" points="479.287,-16.2028 468.721,-16.9827 477.468,-22.9621 479.287,-16.2028"/>
</g>
<!-- Node10 -->
<g id="node10" class="node"><title>Node10</title>
<polygon fill="none" stroke="#bfbfbf" points="511,-0.5 511,-19.5 604,-19.5 604,-0.5 511,-0.5"/>
<text text-anchor="middle" x="557.5" y="-7.5" font-family="Helvetica,sans-Serif" font-size="10.00">unordered_map</text>
</g>
<!-- Node9&#45;&gt;Node10 -->
<g id="edge13" class="edge"><title>Node9&#45;&gt;Node10</title>
<path fill="none" stroke="midnightblue" d="M651.74,-61.9751C633.524,-52.1222 603.327,-35.7883 582.032,-24.2697"/>
<polygon fill="midnightblue" stroke="midnightblue" points="583.692,-21.1883 573.231,-19.5091 580.362,-27.3453 583.692,-21.1883"/>
</g>
<!-- Node11 -->
<g id="node11" class="node"><title>Node11</title>
<polygon fill="none" stroke="#bfbfbf" points="646.5,-0.5 646.5,-19.5 688.5,-19.5 688.5,-0.5 646.5,-0.5"/>
<text text-anchor="middle" x="667.5" y="-7.5" font-family="Helvetica,sans-Serif" font-size="10.00">utility</text>
</g>
<!-- Node9&#45;&gt;Node11 -->
<g id="edge14" class="edge"><title>Node9&#45;&gt;Node11</title>
<path fill="none" stroke="midnightblue" d="M667.5,-61.9751C667.5,-53.5803 667.5,-40.4806 667.5,-29.6631"/>
<polygon fill="midnightblue" stroke="midnightblue" points="671,-29.5091 667.5,-19.5091 664,-29.5091 671,-29.5091"/>
</g>
<!-- Node12&#45;&gt;Node4 -->
<g id="edge16" class="edge"><title>Node12&#45;&gt;Node4</title>
<path fill="none" stroke="midnightblue" d="M456.692,-56.3993C435.172,-46.55 406.663,-33.5014 385.732,-23.9217"/>
<polygon fill="midnightblue" stroke="midnightblue" points="386.966,-20.6371 376.416,-19.6578 384.052,-27.0021 386.966,-20.6371"/>
</g>
<!-- Node12&#45;&gt;Node5 -->
<g id="edge17" class="edge"><title>Node12&#45;&gt;Node5</title>
<path fill="none" stroke="midnightblue" d="M477.784,-56.3993C471.949,-47.9315 464.484,-37.0991 458.31,-28.1393"/>
<polygon fill="midnightblue" stroke="midnightblue" points="461.022,-25.9062 452.466,-19.6578 455.258,-29.8781 461.022,-25.9062"/>
</g>
<!-- Node12&#45;&gt;Node10 -->
<g id="edge18" class="edge"><title>Node12&#45;&gt;Node10</title>
<path fill="none" stroke="midnightblue" d="M504.089,-56.3993C514.785,-47.3076 528.688,-35.4899 539.628,-26.1909"/>
<polygon fill="midnightblue" stroke="midnightblue" points="541.962,-28.8011 547.314,-19.6578 537.428,-23.4675 541.962,-28.8011"/>
</g>
</g>
</svg>
        <g id="navigator" transform="translate(0 0)" fill="#404254">
                <rect fill="#f2f5e9" fill-opacity="0.5" stroke="#606060" stroke-width=".5" x="0" y="0" width="60" height="60"/>
                <use id="zoomplus" xlink:href="#zoomPlus" x="17" y="9" onmousedown="handleZoom(evt,'in')"/>
                <use id="zoomminus" xlink:href="#zoomMin" x="42" y="9" onmousedown="handleZoom(evt,'out')"/>
                <use id="reset" xlink:href="#resetDef" x="30" y="36" onmousedown="handleReset()"/>
                <g id="arrowUp" xlink:href="#dirArrow" transform="translate(30 24)" onmousedown="handlePan(0,-1)">
                  <use xlink:href="#rim" fill="#404040">
                        <set attributeName="fill" to="#808080" begin="arrowUp.mouseover" end="arrowUp.mouseout"/>
                  </use>
                  <path fill="none" stroke="white" stroke-width="1.5" d="M0,-3.0v7 M-2.5,-0.5L0,-3.0L2.5,-0.5"/>
                </g>
                <g id="arrowRight" xlink:href="#dirArrow" transform="rotate(90) translate(36 -43)" onmousedown="handlePan(1,0)">
                  <use xlink:href="#rim" fill="#404040">
                        <set attributeName="fill" to="#808080" begin="arrowRight.mouseover" end="arrowRight.mouseout"/>
                  </use>
                  <path fill="none" stroke="white" stroke-width="1.5" d="M0,-3.0v7 M-2.5,-0.5L0,-3.0L2.5,-0.5"/>
                </g>
                <g id="arrowDown" xlink:href="#dirArrow" transform="rotate(180) translate(-30 -48)" onmousedown="handlePan(0,1)">
                  <use xlink:href="#rim" fill="#404040">
                        <set attributeName="fill" to="#808080" begin="arrowDown.mouseover" end="arrowDown.mouseout"/>
                  </use>
                  <path fill="none" stroke="white" stroke-width="1.5" d="M0,-3.0v7 M-2.5,-0.5L0,-3.0L2.5,-0.5"/>
                </g>
                <g id="arrowLeft" xlink:href="#dirArrow" transform="rotate(270) translate(-36 17)" onmousedown="handlePan(-1,0)">
                  <use xlink:href="#rim" fill="#404040">
                        <set attributeName="fill" to="#808080" begin="arrowLeft.mouseover" end="arrowLeft.mouseout"/>
                  </use>
                  <path fill="none" stroke="white" stroke-width="1.5" d="M0,-3.0v7 M-2.5,-0.5L0,-3.0L2.5,-0.5"/>
                </g>
        </g>
        <svg viewBox="0 0 15 15" width="100%" height="30px" preserveAspectRatio="xMaxYMin meet">
         <g id="arrow_out" transform="scale(0.3 0.3)">
          <a xlink:href="_w_b_block_8cpp__incl_org.svg" target="_base">
           <rect id="button" ry="5" rx="5" y="6" x="6" height="38" width="38"
                fill="#f2f5e9" fill-opacity="0.5" stroke="#606060" stroke-width="1.0"/>
           <path id="arrow"
             d="M 11.500037,31.436501 C 11.940474,20.09759 22.043105,11.32322 32.158766,21.979434 L 37.068811,17.246167 C 37.068811,17.246167 37.088388,32 37.088388,32 L 22.160133,31.978069 C 22.160133,31.978069 26.997745,27.140456 26.997745,27.140456 C 18.528582,18.264221 13.291696,25.230495 11.500037,31.436501 z"
             style="fill:#404040;"/>
          </a>
         </g>
        </svg>
</svg>
