<?xml version="1.0" encoding="UTF-8" standalone="no"?>
<!DOCTYPE svg PUBLIC "-//W3C//DTD SVG 1.1//EN"
 "http://www.w3.org/Graphics/SVG/1.1/DTD/svg11.dtd">
<!-- Generated by graphviz version 2.36.0 (20140111.2315)
 -->
<!-- Title: /home/travis/build/robotology/wb&#45;toolbox/toolbox/src/base/WBBlock.cpp Pages: 1 -->
<svg width="2124pt" height="286pt"
 viewBox="0.00 0.00 2124.00 286.00" xmlns="http://www.w3.org/2000/svg" xmlns:xlink="http://www.w3.org/1999/xlink">
<g id="graph0" class="graph" transform="scale(1 1) rotate(0) translate(4 282)">
<title>/home/travis/build/robotology/wb&#45;toolbox/toolbox/src/base/WBBlock.cpp</title>
<!-- Node1 -->
<g id="node1" class="node"><title>Node1</title>
<polygon fill="#bfbfbf" stroke="black" points="698.5,-236.5 698.5,-277.5 853.5,-277.5 853.5,-236.5 698.5,-236.5"/>
<text text-anchor="start" x="706.5" y="-265.5" font-family="Helvetica,sans-Serif" font-size="10.00">/home/travis/build</text>
<text text-anchor="start" x="706.5" y="-254.5" font-family="Helvetica,sans-Serif" font-size="10.00">/robotology/wb&#45;toolbox</text>
<text text-anchor="middle" x="776" y="-243.5" font-family="Helvetica,sans-Serif" font-size="10.00">/toolbox/src/base/WBBlock.cpp</text>
</g>
<!-- Node2 -->
<g id="node2" class="node"><title>Node2</title>
<g id="a_node2"><a xlink:href="_w_b_block_8h.html" target="_top" xlink:title="WBBlock.h">
<polygon fill="none" stroke="black" points="313,-174.5 313,-193.5 379,-193.5 379,-174.5 313,-174.5"/>
<text text-anchor="middle" x="346" y="-181.5" font-family="Helvetica,sans-Serif" font-size="10.00">WBBlock.h</text>
</a>
</g>
</g>
<!-- Node1&#45;&gt;Node2 -->
<g id="edge1" class="edge"><title>Node1&#45;&gt;Node2</title>
<path fill="none" stroke="midnightblue" d="M698.281,-248.413C620.408,-239.929 497.433,-224.128 393,-200 388.775,-199.024 384.383,-197.847 380.056,-196.588"/>
<polygon fill="midnightblue" stroke="midnightblue" points="380.77,-193.146 370.183,-193.553 378.713,-199.837 380.77,-193.146"/>
</g>
<!-- Node5 -->
<g id="node5" class="node"><title>Node5</title>
<polygon fill="none" stroke="#bfbfbf" points="389,-0.5 389,-19.5 441,-19.5 441,-0.5 389,-0.5"/>
<text text-anchor="middle" x="415" y="-7.5" font-family="Helvetica,sans-Serif" font-size="10.00">memory</text>
</g>
<!-- Node1&#45;&gt;Node5 -->
<g id="edge42" class="edge"><title>Node1&#45;&gt;Node5</title>
<path fill="none" stroke="midnightblue" d="M698.158,-248.416C621.052,-239.714 509.377,-223.543 473,-200 415.827,-162.999 412.437,-69.8195 413.805,-29.7711"/>
<polygon fill="midnightblue" stroke="midnightblue" points="417.311,-29.7281 414.302,-19.5696 410.32,-29.3874 417.311,-29.7281"/>
</g>
<!-- Node8 -->
<g id="node8" class="node"><title>Node8</title>
<g id="a_node8"><a xlink:href="_block_information_8h.html" target="_top" xlink:title="BlockInformation.h">
<polygon fill="none" stroke="black" points="533,-56.5 533,-75.5 631,-75.5 631,-56.5 533,-56.5"/>
<text text-anchor="middle" x="582" y="-63.5" font-family="Helvetica,sans-Serif" font-size="10.00">BlockInformation.h</text>
</a>
</g>
</g>
<!-- Node1&#45;&gt;Node8 -->
<g id="edge10" class="edge"><title>Node1&#45;&gt;Node8</title>
<path fill="none" stroke="midnightblue" d="M698.332,-250.452C662.48,-243.729 622.521,-229.538 598,-200 570.974,-167.444 574.28,-113.988 578.456,-85.7816"/>
<polygon fill="midnightblue" stroke="midnightblue" points="581.948,-86.1234 580.154,-75.6814 575.045,-84.9626 581.948,-86.1234"/>
</g>
<!-- Node10 -->
<g id="node10" class="node"><title>Node10</title>
<g id="a_node10"><a xlink:href="_configuration_8h.html" target="_top" xlink:title="Configuration.h">
<polygon fill="none" stroke="black" points="126.5,-56.5 126.5,-75.5 209.5,-75.5 209.5,-56.5 126.5,-56.5"/>
<text text-anchor="middle" x="168" y="-63.5" font-family="Helvetica,sans-Serif" font-size="10.00">Configuration.h</text>
</a>
</g>
</g>
<!-- Node1&#45;&gt;Node10 -->
<g id="edge14" class="edge"><title>Node1&#45;&gt;Node10</title>
<path fill="none" stroke="midnightblue" d="M698.416,-252.837C582.882,-247.118 371.928,-232.492 304,-200 247.815,-173.125 200.604,-113.668 179.636,-84.2187"/>
<polygon fill="midnightblue" stroke="midnightblue" points="182.357,-82.0008 173.773,-75.7911 176.611,-85.9987 182.357,-82.0008"/>
</g>
<!-- Node11 -->
<g id="node11" class="node"><title>Node11</title>
<g id="a_node11"><a xlink:href="_log_8h.html" target="_top" xlink:title="Log.h">
<polygon fill="none" stroke="black" points="473.5,-56.5 473.5,-75.5 514.5,-75.5 514.5,-56.5 473.5,-56.5"/>
<text text-anchor="middle" x="494" y="-63.5" font-family="Helvetica,sans-Serif" font-size="10.00">Log.h</text>
</a>
</g>
</g>
<!-- Node1&#45;&gt;Node11 -->
<g id="edge18" class="edge"><title>Node1&#45;&gt;Node11</title>
<path fill="none" stroke="midnightblue" d="M698.262,-247.379C659.14,-239.908 612.774,-225.975 578,-200 537.645,-169.857 511.837,-114.112 500.562,-85.3021"/>
<polygon fill="midnightblue" stroke="midnightblue" points="503.744,-83.8199 496.952,-75.6886 497.191,-86.2807 503.744,-83.8199"/>
</g>
<!-- Node13 -->
<g id="node13" class="node"><title>Node13</title>
<g id="a_node13"><a xlink:href="_parameter_8h.html" target="_top" xlink:title="Parameter.h">
<polygon fill="none" stroke="black" points="0,-56.5 0,-75.5 70,-75.5 70,-56.5 0,-56.5"/>
<text text-anchor="middle" x="35" y="-63.5" font-family="Helvetica,sans-Serif" font-size="10.00">Parameter.h</text>
</a>
</g>
</g>
<!-- Node1&#45;&gt;Node13 -->
<g id="edge22" class="edge"><title>Node1&#45;&gt;Node13</title>
<path fill="none" stroke="midnightblue" d="M698.267,-251.824C573.47,-244.422 334.292,-227.172 254,-200 172.817,-172.526 89.7832,-111.07 53.6704,-82.3461"/>
<polygon fill="midnightblue" stroke="midnightblue" points="55.5133,-79.3363 45.5298,-75.7892 51.1223,-84.7879 55.5133,-79.3363"/>
</g>
<!-- Node14 -->
<g id="node14" class="node"><title>Node14</title>
<g id="a_node14"><a xlink:href="_robot_interface_8h.html" target="_top" xlink:title="RobotInterface.h">
<polygon fill="none" stroke="black" points="648.5,-56.5 648.5,-75.5 737.5,-75.5 737.5,-56.5 648.5,-56.5"/>
<text text-anchor="middle" x="693" y="-63.5" font-family="Helvetica,sans-Serif" font-size="10.00">RobotInterface.h</text>
</a>
</g>
</g>
<!-- Node1&#45;&gt;Node14 -->
<g id="edge25" class="edge"><title>Node1&#45;&gt;Node14</title>
<path fill="none" stroke="midnightblue" d="M698.104,-249.422C665.353,-242.351 630.223,-228.165 610,-200 580.272,-158.598 638.45,-106.599 671.834,-81.661"/>
<polygon fill="midnightblue" stroke="midnightblue" points="674.075,-84.3592 680.109,-75.6506 669.961,-78.6954 674.075,-84.3592"/>
</g>
<!-- Node16 -->
<g id="node16" class="node"><title>Node16</title>
<g id="a_node16"><a xlink:href="_signal_8h.html" target="_top" xlink:title="Signal.h">
<polygon fill="none" stroke="black" points="435,-112.5 435,-131.5 487,-131.5 487,-112.5 435,-112.5"/>
<text text-anchor="middle" x="461" y="-119.5" font-family="Helvetica,sans-Serif" font-size="10.00">Signal.h</text>
</a>
</g>
</g>
<!-- Node1&#45;&gt;Node16 -->
<g id="edge30" class="edge"><title>Node1&#45;&gt;Node16</title>
<path fill="none" stroke="midnightblue" d="M698.463,-247.729C628.355,-238.928 531.583,-223.07 501,-200 481.878,-185.575 471.079,-159.366 465.641,-141.574"/>
<polygon fill="midnightblue" stroke="midnightblue" points="468.966,-140.466 462.921,-131.765 462.22,-142.337 468.966,-140.466"/>
</g>
<!-- Node17 -->
<g id="node17" class="node"><title>Node17</title>
<polygon fill="none" stroke="#bfbfbf" points="619.5,-174.5 619.5,-193.5 684.5,-193.5 684.5,-174.5 619.5,-174.5"/>
<text text-anchor="middle" x="652" y="-181.5" font-family="Helvetica,sans-Serif" font-size="10.00">Eigen/Core</text>
</g>
<!-- Node1&#45;&gt;Node17 -->
<g id="edge32" class="edge"><title>Node1&#45;&gt;Node17</title>
<path fill="none" stroke="midnightblue" d="M741.788,-236.411C720.815,-224.402 694.493,-209.33 675.783,-198.618"/>
<polygon fill="midnightblue" stroke="midnightblue" points="677.431,-195.528 667.014,-193.597 673.953,-201.603 677.431,-195.528"/>
</g>
<!-- Node18 -->
<g id="node18" class="node"><title>Node18</title>
<polygon fill="none" stroke="#bfbfbf" points="703,-169 703,-199 849,-199 849,-169 703,-169"/>
<text text-anchor="start" x="711" y="-187" font-family="Helvetica,sans-Serif" font-size="10.00">iDynTree/Core/AngularMotion</text>
<text text-anchor="middle" x="776" y="-176" font-family="Helvetica,sans-Serif" font-size="10.00">Vector3.h</text>
</g>
<!-- Node1&#45;&gt;Node18 -->
<g id="edge33" class="edge"><title>Node1&#45;&gt;Node18</title>
<path fill="none" stroke="midnightblue" d="M776,-236.223C776,-227.821 776,-217.948 776,-209.123"/>
<polygon fill="midnightblue" stroke="midnightblue" points="779.5,-209.048 776,-199.049 772.5,-209.049 779.5,-209.048"/>
</g>
<!-- Node19 -->
<g id="node19" class="node"><title>Node19</title>
<polygon fill="none" stroke="#bfbfbf" points="867,-174.5 867,-193.5 1017,-193.5 1017,-174.5 867,-174.5"/>
<text text-anchor="middle" x="942" y="-181.5" font-family="Helvetica,sans-Serif" font-size="10.00">iDynTree/Core/EigenHelpers.h</text>
</g>
<!-- Node1&#45;&gt;Node19 -->
<g id="edge34" class="edge"><title>Node1&#45;&gt;Node19</title>
<path fill="none" stroke="midnightblue" d="M821.8,-236.411C850.774,-224.018 887.375,-208.364 912.532,-197.604"/>
<polygon fill="midnightblue" stroke="midnightblue" points="914.082,-200.747 921.9,-193.597 911.33,-194.311 914.082,-200.747"/>
</g>
<!-- Node20 -->
<g id="node20" class="node"><title>Node20</title>
<polygon fill="none" stroke="#bfbfbf" points="1035.5,-169 1035.5,-199 1174.5,-199 1174.5,-169 1035.5,-169"/>
<text text-anchor="start" x="1043.5" y="-187" font-family="Helvetica,sans-Serif" font-size="10.00">iDynTree/Core/LinearMotion</text>
<text text-anchor="middle" x="1105" y="-176" font-family="Helvetica,sans-Serif" font-size="10.00">Vector3.h</text>
</g>
<!-- Node1&#45;&gt;Node20 -->
<g id="edge35" class="edge"><title>Node1&#45;&gt;Node20</title>
<path fill="none" stroke="midnightblue" d="M853.552,-239.264C906.826,-227.767 977.173,-212.586 1029.91,-201.205"/>
<polygon fill="midnightblue" stroke="midnightblue" points="1030.84,-204.585 1039.88,-199.054 1029.36,-197.742 1030.84,-204.585"/>
</g>
<!-- Node21 -->
<g id="node21" class="node"><title>Node21</title>
<polygon fill="none" stroke="#bfbfbf" points="1193,-174.5 1193,-193.5 1329,-193.5 1329,-174.5 1193,-174.5"/>
<text text-anchor="middle" x="1261" y="-181.5" font-family="Helvetica,sans-Serif" font-size="10.00">iDynTree/Core/Transform.h</text>
</g>
<!-- Node1&#45;&gt;Node21 -->
<g id="edge36" class="edge"><title>Node1&#45;&gt;Node21</title>
<path fill="none" stroke="midnightblue" d="M853.831,-246.542C935.881,-236.28 1068.82,-218.821 1183,-200 1191.41,-198.614 1200.31,-197.022 1208.96,-195.406"/>
<polygon fill="midnightblue" stroke="midnightblue" points="1209.8,-198.81 1218.97,-193.507 1208.5,-191.932 1209.8,-198.81"/>
</g>
<!-- Node22 -->
<g id="node22" class="node"><title>Node22</title>
<polygon fill="none" stroke="#bfbfbf" points="1347,-174.5 1347,-193.5 1463,-193.5 1463,-174.5 1347,-174.5"/>
<text text-anchor="middle" x="1405" y="-181.5" font-family="Helvetica,sans-Serif" font-size="10.00">iDynTree/Core/Twist.h</text>
</g>
<!-- Node1&#45;&gt;Node22 -->
<g id="edge37" class="edge"><title>Node1&#45;&gt;Node22</title>
<path fill="none" stroke="midnightblue" d="M853.654,-251.244C962.442,-243.904 1166.17,-227.691 1338,-200 1345.45,-198.8 1353.3,-197.277 1360.92,-195.664"/>
<polygon fill="midnightblue" stroke="midnightblue" points="1361.71,-199.073 1370.73,-193.511 1360.21,-192.236 1361.71,-199.073"/>
</g>
<!-- Node23 -->
<g id="node23" class="node"><title>Node23</title>
<polygon fill="none" stroke="#bfbfbf" points="1481,-174.5 1481,-193.5 1639,-193.5 1639,-174.5 1481,-174.5"/>
<text text-anchor="middle" x="1560" y="-181.5" font-family="Helvetica,sans-Serif" font-size="10.00">iDynTree/Core/VectorDynSize.h</text>
</g>
<!-- Node1&#45;&gt;Node23 -->
<g id="edge38" class="edge"><title>Node1&#45;&gt;Node23</title>
<path fill="none" stroke="midnightblue" d="M853.616,-251.945C982.281,-244.73 1247.72,-227.759 1471,-200 1481.71,-198.668 1493.11,-196.966 1504.04,-195.19"/>
<polygon fill="midnightblue" stroke="midnightblue" points="1504.63,-198.641 1513.92,-193.547 1503.48,-191.736 1504.63,-198.641"/>
</g>
<!-- Node24 -->
<g id="node24" class="node"><title>Node24</title>
<polygon fill="none" stroke="#bfbfbf" points="1657.5,-174.5 1657.5,-193.5 1810.5,-193.5 1810.5,-174.5 1657.5,-174.5"/>
<text text-anchor="middle" x="1734" y="-181.5" font-family="Helvetica,sans-Serif" font-size="10.00">iDynTree/Core/VectorFixSize.h</text>
</g>
<!-- Node1&#45;&gt;Node24 -->
<g id="edge39" class="edge"><title>Node1&#45;&gt;Node24</title>
<path fill="none" stroke="midnightblue" d="M853.738,-253.78C1006.3,-248.811 1355.44,-234.408 1647,-200 1657.61,-198.748 1668.9,-197.065 1679.7,-195.279"/>
<polygon fill="midnightblue" stroke="midnightblue" points="1680.6,-198.676 1689.87,-193.546 1679.43,-191.775 1680.6,-198.676"/>
</g>
<!-- Node25 -->
<g id="node25" class="node"><title>Node25</title>
<polygon fill="none" stroke="#bfbfbf" points="1828.5,-174.5 1828.5,-193.5 1989.5,-193.5 1989.5,-174.5 1828.5,-174.5"/>
<text text-anchor="middle" x="1909" y="-181.5" font-family="Helvetica,sans-Serif" font-size="10.00">iDynTree/KinDynComputations.h</text>
</g>
<!-- Node1&#45;&gt;Node25 -->
<g id="edge40" class="edge"><title>Node1&#45;&gt;Node25</title>
<path fill="none" stroke="midnightblue" d="M853.765,-254.786C1027.39,-251.428 1459.62,-239.472 1819,-200 1830.33,-198.756 1842.39,-197.027 1853.89,-195.183"/>
<polygon fill="midnightblue" stroke="midnightblue" points="1854.52,-198.627 1863.81,-193.543 1853.38,-191.721 1854.52,-198.627"/>
</g>
<!-- Node26 -->
<g id="node26" class="node"><title>Node26</title>
<polygon fill="none" stroke="#bfbfbf" points="2008,-174.5 2008,-193.5 2046,-193.5 2046,-174.5 2008,-174.5"/>
<text text-anchor="middle" x="2027" y="-181.5" font-family="Helvetica,sans-Serif" font-size="10.00">array</text>
</g>
<!-- Node1&#45;&gt;Node26 -->
<g id="edge41" class="edge"><title>Node1&#45;&gt;Node26</title>
<path fill="none" stroke="midnightblue" d="M853.695,-254.374C1105.33,-248.841 1888.05,-229.434 1998,-200 1999.97,-199.472 2001.96,-198.796 2003.93,-198.024"/>
<polygon fill="midnightblue" stroke="midnightblue" points="2005.77,-201.024 2013.34,-193.605 2002.8,-194.688 2005.77,-201.024"/>
</g>
<!-- Node27 -->
<g id="node27" class="node"><title>Node27</title>
<polygon fill="none" stroke="#bfbfbf" points="2064,-174.5 2064,-193.5 2116,-193.5 2116,-174.5 2064,-174.5"/>
<text text-anchor="middle" x="2090" y="-181.5" font-family="Helvetica,sans-Serif" font-size="10.00">ostream</text>
</g>
<!-- Node1&#45;&gt;Node27 -->
<g id="edge43" class="edge"><title>Node1&#45;&gt;Node27</title>
<path fill="none" stroke="midnightblue" d="M853.869,-256.249C1094.63,-256.443 1824.63,-252.562 2055,-200 2057.9,-199.338 2060.86,-198.446 2063.78,-197.424"/>
<polygon fill="midnightblue" stroke="midnightblue" points="2065.34,-200.566 2073.33,-193.6 2062.74,-194.068 2065.34,-200.566"/>
</g>
<!-- Node3 -->
<g id="node3" class="node"><title>Node3</title>
<g id="a_node3"><a xlink:href="_block_8h.html" target="_top" xlink:title="Block.h">
<polygon fill="none" stroke="black" points="265,-112.5 265,-131.5 315,-131.5 315,-112.5 265,-112.5"/>
<text text-anchor="middle" x="290" y="-119.5" font-family="Helvetica,sans-Serif" font-size="10.00">Block.h</text>
</a>
</g>
</g>
<!-- Node2&#45;&gt;Node3 -->
<g id="edge2" class="edge"><title>Node2&#45;&gt;Node3</title>
<path fill="none" stroke="midnightblue" d="M337.977,-174.403C329.41,-165.225 315.639,-150.47 305.043,-139.117"/>
<polygon fill="midnightblue" stroke="midnightblue" points="307.39,-136.503 298.009,-131.581 302.273,-141.279 307.39,-136.503"/>
</g>
<!-- Node2&#45;&gt;Node5 -->
<g id="edge9" class="edge"><title>Node2&#45;&gt;Node5</title>
<path fill="none" stroke="midnightblue" d="M348.896,-174.259C355.85,-153.49 374.306,-99.6562 393,-56 396.942,-46.7931 401.79,-36.7623 405.931,-28.5125"/>
<polygon fill="midnightblue" stroke="midnightblue" points="409.098,-30.0064 410.523,-19.5078 402.862,-26.8265 409.098,-30.0064"/>
</g>
<!-- Node4 -->
<g id="node4" class="node"><title>Node4</title>
<g id="a_node4"><a xlink:href="_parameters_8h.html" target="_top" xlink:title="Parameters.h">
<polygon fill="none" stroke="black" points="227.5,-56.5 227.5,-75.5 302.5,-75.5 302.5,-56.5 227.5,-56.5"/>
<text text-anchor="middle" x="265" y="-63.5" font-family="Helvetica,sans-Serif" font-size="10.00">Parameters.h</text>
</a>
</g>
</g>
<!-- Node3&#45;&gt;Node4 -->
<g id="edge3" class="edge"><title>Node3&#45;&gt;Node4</title>
<path fill="none" stroke="midnightblue" d="M285.872,-112.083C282.486,-104.77 277.584,-94.1814 273.381,-85.1034"/>
<polygon fill="midnightblue" stroke="midnightblue" points="276.429,-83.3553 269.051,-75.7511 270.077,-86.2962 276.429,-83.3553"/>
</g>
<!-- Node6 -->
<g id="node6" class="node"><title>Node6</title>
<polygon fill="none" stroke="#bfbfbf" points="310.5,-0.5 310.5,-19.5 351.5,-19.5 351.5,-0.5 310.5,-0.5"/>
<text text-anchor="middle" x="331" y="-7.5" font-family="Helvetica,sans-Serif" font-size="10.00">string</text>
</g>
<!-- Node3&#45;&gt;Node6 -->
<g id="edge7" class="edge"><title>Node3&#45;&gt;Node6</title>
<path fill="none" stroke="midnightblue" d="M294.553,-112.192C299.079,-103.233 306.043,-88.8728 311,-76 316.966,-60.5057 322.413,-42.4202 326.11,-29.2658"/>
<polygon fill="midnightblue" stroke="midnightblue" points="329.508,-30.1106 328.778,-19.541 322.757,-28.2589 329.508,-30.1106"/>
</g>
<!-- Node7 -->
<g id="node7" class="node"><title>Node7</title>
<polygon fill="none" stroke="#bfbfbf" points="111,-0.5 111,-19.5 155,-19.5 155,-0.5 111,-0.5"/>
<text text-anchor="middle" x="133" y="-7.5" font-family="Helvetica,sans-Serif" font-size="10.00">vector</text>
</g>
<!-- Node3&#45;&gt;Node7 -->
<g id="edge8" class="edge"><title>Node3&#45;&gt;Node7</title>
<path fill="none" stroke="midnightblue" d="M264.685,-118.177C221.139,-112.743 134.986,-99.2628 117,-76 106.373,-62.2549 113.614,-42.3962 121.479,-28.252"/>
<polygon fill="midnightblue" stroke="midnightblue" points="124.588,-29.877 126.811,-19.5182 118.613,-26.2294 124.588,-29.877"/>
</g>
<!-- Node4&#45;&gt;Node5 -->
<g id="edge4" class="edge"><title>Node4&#45;&gt;Node5</title>
<path fill="none" stroke="midnightblue" d="M288.768,-56.4435C313.893,-47.3986 353.711,-33.064 381.9,-22.9158"/>
<polygon fill="midnightblue" stroke="midnightblue" points="383.12,-26.1968 391.343,-19.5164 380.749,-19.6106 383.12,-26.1968"/>
</g>
<!-- Node4&#45;&gt;Node6 -->
<g id="edge5" class="edge"><title>Node4&#45;&gt;Node6</title>
<path fill="none" stroke="midnightblue" d="M275.604,-56.324C285.456,-48.2631 300.351,-36.0765 312.215,-26.3695"/>
<polygon fill="midnightblue" stroke="midnightblue" points="314.68,-28.8752 320.203,-19.8339 310.247,-23.4575 314.68,-28.8752"/>
</g>
<!-- Node4&#45;&gt;Node7 -->
<g id="edge6" class="edge"><title>Node4&#45;&gt;Node7</title>
<path fill="none" stroke="midnightblue" d="M244.084,-56.4435C222.264,-47.5171 187.85,-33.4387 163.108,-23.3168"/>
<polygon fill="midnightblue" stroke="midnightblue" points="164.399,-20.0634 153.818,-19.5164 161.748,-26.5422 164.399,-20.0634"/>
</g>
<!-- Node8&#45;&gt;Node5 -->
<g id="edge11" class="edge"><title>Node8&#45;&gt;Node5</title>
<path fill="none" stroke="midnightblue" d="M555.538,-56.4435C527.239,-47.2928 482.195,-32.7279 450.755,-22.5614"/>
<polygon fill="midnightblue" stroke="midnightblue" points="451.655,-19.1741 441.063,-19.4275 449.501,-25.8345 451.655,-19.1741"/>
</g>
<!-- Node8&#45;&gt;Node6 -->
<g id="edge12" class="edge"><title>Node8&#45;&gt;Node6</title>
<path fill="none" stroke="midnightblue" d="M542.228,-56.4435C492.085,-45.6558 406.967,-27.3435 361.602,-17.5837"/>
<polygon fill="midnightblue" stroke="midnightblue" points="362.272,-14.1479 351.76,-15.4662 360.8,-20.9913 362.272,-14.1479"/>
</g>
<!-- Node9 -->
<g id="node9" class="node"><title>Node9</title>
<polygon fill="none" stroke="#bfbfbf" points="577,-0.5 577,-19.5 617,-19.5 617,-0.5 577,-0.5"/>
<text text-anchor="middle" x="597" y="-7.5" font-family="Helvetica,sans-Serif" font-size="10.00">utility</text>
</g>
<!-- Node8&#45;&gt;Node9 -->
<g id="edge13" class="edge"><title>Node8&#45;&gt;Node9</title>
<path fill="none" stroke="midnightblue" d="M584.477,-56.083C586.486,-48.8486 589.386,-38.4087 591.89,-29.3968"/>
<polygon fill="midnightblue" stroke="midnightblue" points="595.265,-30.323 594.569,-19.7511 588.52,-28.4495 595.265,-30.323"/>
</g>
<!-- Node10&#45;&gt;Node5 -->
<g id="edge15" class="edge"><title>Node10&#45;&gt;Node5</title>
<path fill="none" stroke="midnightblue" d="M207.138,-56.4435C254.436,-46.1031 333.356,-28.8492 379.136,-18.8407"/>
<polygon fill="midnightblue" stroke="midnightblue" points="379.905,-22.2554 388.926,-16.7003 378.409,-15.417 379.905,-22.2554"/>
</g>
<!-- Node10&#45;&gt;Node6 -->
<g id="edge16" class="edge"><title>Node10&#45;&gt;Node6</title>
<path fill="none" stroke="midnightblue" d="M193.828,-56.4435C222.862,-46.8247 269.954,-31.2238 300.703,-21.0372"/>
<polygon fill="midnightblue" stroke="midnightblue" points="302.062,-24.2739 310.454,-17.8067 299.861,-17.6291 302.062,-24.2739"/>
</g>
<!-- Node10&#45;&gt;Node7 -->
<g id="edge17" class="edge"><title>Node10&#45;&gt;Node7</title>
<path fill="none" stroke="midnightblue" d="M162.22,-56.083C157.328,-48.5341 150.173,-37.4948 144.167,-28.2298"/>
<polygon fill="midnightblue" stroke="midnightblue" points="147.048,-26.239 138.672,-19.7511 141.174,-30.0463 147.048,-26.239"/>
</g>
<!-- Node11&#45;&gt;Node5 -->
<g id="edge19" class="edge"><title>Node11&#45;&gt;Node5</title>
<path fill="none" stroke="midnightblue" d="M481.307,-56.324C469.099,-47.979 450.422,-35.2122 435.997,-25.3524"/>
<polygon fill="midnightblue" stroke="midnightblue" points="437.892,-22.4082 427.661,-19.6545 433.942,-28.1871 437.892,-22.4082"/>
</g>
<!-- Node11&#45;&gt;Node6 -->
<g id="edge21" class="edge"><title>Node11&#45;&gt;Node6</title>
<path fill="none" stroke="midnightblue" d="M473.356,-58.1609C445.019,-48.7732 393.879,-31.831 361.227,-21.0139"/>
<polygon fill="midnightblue" stroke="midnightblue" points="362.327,-17.6911 351.733,-17.8687 360.125,-24.336 362.327,-17.6911"/>
</g>
<!-- Node12 -->
<g id="node12" class="node"><title>Node12</title>
<polygon fill="none" stroke="#bfbfbf" points="468,-0.5 468,-19.5 520,-19.5 520,-0.5 468,-0.5"/>
<text text-anchor="middle" x="494" y="-7.5" font-family="Helvetica,sans-Serif" font-size="10.00">sstream</text>
</g>
<!-- Node11&#45;&gt;Node12 -->
<g id="edge20" class="edge"><title>Node11&#45;&gt;Node12</title>
<path fill="none" stroke="midnightblue" d="M494,-56.083C494,-49.0059 494,-38.8611 494,-29.9865"/>
<polygon fill="midnightblue" stroke="midnightblue" points="497.5,-29.751 494,-19.7511 490.5,-29.7511 497.5,-29.751"/>
</g>
<!-- Node13&#45;&gt;Node6 -->
<g id="edge23" class="edge"><title>Node13&#45;&gt;Node6</title>
<path fill="none" stroke="midnightblue" d="M70.1175,-58.5934C128.671,-47.9113 245.264,-26.6411 300.554,-16.5543"/>
<polygon fill="midnightblue" stroke="midnightblue" points="301.239,-19.9872 310.448,-14.7493 299.983,-13.1009 301.239,-19.9872"/>
</g>
<!-- Node13&#45;&gt;Node7 -->
<g id="edge24" class="edge"><title>Node13&#45;&gt;Node7</title>
<path fill="none" stroke="midnightblue" d="M50.7454,-56.324C66.3187,-47.7428 90.3773,-34.486 108.459,-24.5224"/>
<polygon fill="midnightblue" stroke="midnightblue" points="110.224,-27.546 117.294,-19.6545 106.846,-21.4152 110.224,-27.546"/>
</g>
<!-- Node14&#45;&gt;Node5 -->
<g id="edge26" class="edge"><title>Node14&#45;&gt;Node5</title>
<path fill="none" stroke="midnightblue" d="M648.11,-56.5298C600.981,-47.5991 524.737,-33.0435 459,-20 456.366,-19.4774 453.645,-18.9326 450.907,-18.3809"/>
<polygon fill="midnightblue" stroke="midnightblue" points="451.544,-14.9389 441.048,-16.3808 450.152,-21.7992 451.544,-14.9389"/>
</g>
<!-- Node14&#45;&gt;Node6 -->
<g id="edge27" class="edge"><title>Node14&#45;&gt;Node6</title>
<path fill="none" stroke="midnightblue" d="M648.226,-57.4419C645.105,-56.9446 642.006,-56.4594 639,-56 524.116,-38.4454 494.736,-38.5018 380,-20 374.236,-19.0706 368.105,-18.0055 362.202,-16.9411"/>
<polygon fill="midnightblue" stroke="midnightblue" points="362.417,-13.422 351.949,-15.055 361.15,-20.3065 362.417,-13.422"/>
</g>
<!-- Node14&#45;&gt;Node9 -->
<g id="edge29" class="edge"><title>Node14&#45;&gt;Node9</title>
<path fill="none" stroke="midnightblue" d="M677.576,-56.324C662.46,-47.8215 639.185,-34.7288 621.529,-24.7975"/>
<polygon fill="midnightblue" stroke="midnightblue" points="622.817,-21.5066 612.386,-19.6545 619.386,-27.6077 622.817,-21.5066"/>
</g>
<!-- Node15 -->
<g id="node15" class="node"><title>Node15</title>
<polygon fill="none" stroke="#bfbfbf" points="651.5,-0.5 651.5,-19.5 734.5,-19.5 734.5,-0.5 651.5,-0.5"/>
<text text-anchor="middle" x="693" y="-7.5" font-family="Helvetica,sans-Serif" font-size="10.00">unordered_map</text>
</g>
<!-- Node14&#45;&gt;Node15 -->
<g id="edge28" class="edge"><title>Node14&#45;&gt;Node15</title>
<path fill="none" stroke="midnightblue" d="M693,-56.083C693,-49.0059 693,-38.8611 693,-29.9865"/>
<polygon fill="midnightblue" stroke="midnightblue" points="696.5,-29.751 693,-19.7511 689.5,-29.7511 696.5,-29.751"/>
</g>
<!-- Node16&#45;&gt;Node5 -->
<g id="edge31" class="edge"><title>Node16&#45;&gt;Node5</title>
<path fill="none" stroke="midnightblue" d="M457.39,-112.368C449.9,-94.4563 432.532,-52.9233 422.506,-28.9482"/>
<polygon fill="midnightblue" stroke="midnightblue" points="425.68,-27.4669 418.593,-19.5914 419.222,-30.1676 425.68,-27.4669"/>
</g>
</g>
</svg>
