<?xml version="1.0" encoding="UTF-8" standalone="no"?>
<!DOCTYPE svg PUBLIC "-//W3C//DTD SVG 1.1//EN"
 "http://www.w3.org/Graphics/SVG/1.1/DTD/svg11.dtd">
<!-- Generated by graphviz version 2.36.0 (20140111.2315)
 -->
<!-- Title: /home/travis/build/robotology/wb&#45;toolbox/toolbox/include/base/WBBlock.h Pages: 1 -->
<svg width="2373pt" height="218pt"
 viewBox="0.00 0.00 2373.00 218.00" xmlns="http://www.w3.org/2000/svg" xmlns:xlink="http://www.w3.org/1999/xlink">
<g id="graph0" class="graph" transform="scale(1 1) rotate(0) translate(4 214)">
<title>/home/travis/build/robotology/wb&#45;toolbox/toolbox/include/base/WBBlock.h</title>
<!-- Node1 -->
<g id="node1" class="node"><title>Node1</title>
<polygon fill="#bfbfbf" stroke="black" points="1092.5,-157 1092.5,-209 1207.5,-209 1207.5,-157 1092.5,-157"/>
<text text-anchor="start" x="1100.5" y="-197" font-family="Helvetica,sans-Serif" font-size="10.00">/home/travis/build</text>
<text text-anchor="start" x="1100.5" y="-186" font-family="Helvetica,sans-Serif" font-size="10.00">/robotology/wb&#45;toolbox</text>
<text text-anchor="start" x="1100.5" y="-175" font-family="Helvetica,sans-Serif" font-size="10.00">/toolbox/include/base</text>
<text text-anchor="middle" x="1150" y="-164" font-family="Helvetica,sans-Serif" font-size="10.00">/WBBlock.h</text>
</g>
<!-- Node2 -->
<g id="node2" class="node"><title>Node2</title>
<g id="a_node2"><a xlink:href="_centroidal_momentum_8h.html" target="_top" xlink:title="/home/travis/build\l/robotology/wb&#45;toolbox\l/toolbox/include/CentroidalMomentum.h">
<polygon fill="none" stroke="black" points="2003.5,-78.5 2003.5,-119.5 2192.5,-119.5 2192.5,-78.5 2003.5,-78.5"/>
<text text-anchor="start" x="2011.5" y="-107.5" font-family="Helvetica,sans-Serif" font-size="10.00">/home/travis/build</text>
<text text-anchor="start" x="2011.5" y="-96.5" font-family="Helvetica,sans-Serif" font-size="10.00">/robotology/wb&#45;toolbox</text>
<text text-anchor="middle" x="2098" y="-85.5" font-family="Helvetica,sans-Serif" font-size="10.00">/toolbox/include/CentroidalMomentum.h</text>
</a>
</g>
</g>
<!-- Node1&#45;&gt;Node2 -->
<g id="edge1" class="edge"><title>Node1&#45;&gt;Node2</title>
<path fill="none" stroke="midnightblue" d="M1217.95,-179.699C1361.7,-174.24 1706.97,-158.01 1994,-120 1997.1,-119.59 2000.24,-119.146 2003.42,-118.674"/>
<polygon fill="midnightblue" stroke="midnightblue" points="1217.41,-176.217 1207.54,-180.089 1217.67,-183.212 1217.41,-176.217"/>
</g>
<!-- Node5 -->
<g id="node5" class="node"><title>Node5</title>
<g id="a_node5"><a xlink:href="_dot_j_nu_8h.html" target="_top" xlink:title="/home/travis/build\l/robotology/wb&#45;toolbox\l/toolbox/include/DotJNu.h">
<polygon fill="none" stroke="black" points="41,-78.5 41,-119.5 171,-119.5 171,-78.5 41,-78.5"/>
<text text-anchor="start" x="49" y="-107.5" font-family="Helvetica,sans-Serif" font-size="10.00">/home/travis/build</text>
<text text-anchor="start" x="49" y="-96.5" font-family="Helvetica,sans-Serif" font-size="10.00">/robotology/wb&#45;toolbox</text>
<text text-anchor="middle" x="106" y="-85.5" font-family="Helvetica,sans-Serif" font-size="10.00">/toolbox/include/DotJNu.h</text>
</a>
</g>
</g>
<!-- Node1&#45;&gt;Node5 -->
<g id="edge4" class="edge"><title>Node1&#45;&gt;Node5</title>
<path fill="none" stroke="midnightblue" d="M1082.33,-182.31C923.596,-182.031 515.387,-175.467 180,-120 177.111,-119.522 174.173,-118.979 171.214,-118.385"/>
<polygon fill="midnightblue" stroke="midnightblue" points="1082.42,-185.81 1092.42,-182.319 1082.42,-178.81 1082.42,-185.81"/>
</g>
<!-- Node7 -->
<g id="node7" class="node"><title>Node7</title>
<g id="a_node7"><a xlink:href="_forward_kinematics_8h.html" target="_top" xlink:title="/home/travis/build\l/robotology/wb&#45;toolbox\l/toolbox/include/ForwardKinematics.h">
<polygon fill="none" stroke="black" points="189,-78.5 189,-119.5 369,-119.5 369,-78.5 189,-78.5"/>
<text text-anchor="start" x="197" y="-107.5" font-family="Helvetica,sans-Serif" font-size="10.00">/home/travis/build</text>
<text text-anchor="start" x="197" y="-96.5" font-family="Helvetica,sans-Serif" font-size="10.00">/robotology/wb&#45;toolbox</text>
<text text-anchor="middle" x="279" y="-85.5" font-family="Helvetica,sans-Serif" font-size="10.00">/toolbox/include/ForwardKinematics.h</text>
</a>
</g>
</g>
<!-- Node1&#45;&gt;Node7 -->
<g id="edge7" class="edge"><title>Node1&#45;&gt;Node7</title>
<path fill="none" stroke="midnightblue" d="M1081.94,-179.263C947.073,-173.237 636.563,-156.368 378,-120 375.048,-119.585 372.052,-119.137 369.03,-118.661"/>
<polygon fill="midnightblue" stroke="midnightblue" points="1081.97,-182.768 1092.12,-179.712 1082.28,-175.774 1081.97,-182.768"/>
</g>
<!-- Node9 -->
<g id="node9" class="node"><title>Node9</title>
<g id="a_node9"><a xlink:href="_get_limits_8h.html" target="_top" xlink:title="/home/travis/build\l/robotology/wb&#45;toolbox\l/toolbox/include/GetLimits.h">
<polygon fill="none" stroke="black" points="387,-78.5 387,-119.5 525,-119.5 525,-78.5 387,-78.5"/>
<text text-anchor="start" x="395" y="-107.5" font-family="Helvetica,sans-Serif" font-size="10.00">/home/travis/build</text>
<text text-anchor="start" x="395" y="-96.5" font-family="Helvetica,sans-Serif" font-size="10.00">/robotology/wb&#45;toolbox</text>
<text text-anchor="middle" x="456" y="-85.5" font-family="Helvetica,sans-Serif" font-size="10.00">/toolbox/include/GetLimits.h</text>
</a>
</g>
</g>
<!-- Node1&#45;&gt;Node9 -->
<g id="edge10" class="edge"><title>Node1&#45;&gt;Node9</title>
<path fill="none" stroke="midnightblue" d="M1081.96,-178.511C967.923,-171.914 731.3,-155.018 534,-120 531.109,-119.487 528.168,-118.924 525.204,-118.321"/>
<polygon fill="midnightblue" stroke="midnightblue" points="1082.09,-182.024 1092.28,-179.099 1082.49,-175.035 1082.09,-182.024"/>
</g>
<!-- Node11 -->
<g id="node11" class="node"><title>Node11</title>
<g id="a_node11"><a xlink:href="_get_measurement_8h.html" target="_top" xlink:title="/home/travis/build\l/robotology/wb&#45;toolbox\l/toolbox/include/GetMeasurement.h">
<polygon fill="none" stroke="black" points="543.5,-78.5 543.5,-119.5 714.5,-119.5 714.5,-78.5 543.5,-78.5"/>
<text text-anchor="start" x="551.5" y="-107.5" font-family="Helvetica,sans-Serif" font-size="10.00">/home/travis/build</text>
<text text-anchor="start" x="551.5" y="-96.5" font-family="Helvetica,sans-Serif" font-size="10.00">/robotology/wb&#45;toolbox</text>
<text text-anchor="middle" x="629" y="-85.5" font-family="Helvetica,sans-Serif" font-size="10.00">/toolbox/include/GetMeasurement.h</text>
</a>
</g>
</g>
<!-- Node1&#45;&gt;Node11 -->
<g id="edge13" class="edge"><title>Node1&#45;&gt;Node11</title>
<path fill="none" stroke="midnightblue" d="M1082.52,-173.59C998.169,-162.758 849.484,-142.613 723,-120 720.208,-119.501 717.372,-118.98 714.511,-118.442"/>
<polygon fill="midnightblue" stroke="midnightblue" points="1082.12,-177.067 1092.48,-174.864 1083.01,-170.123 1082.12,-177.067"/>
</g>
<!-- Node13 -->
<g id="node13" class="node"><title>Node13</title>
<g id="a_node13"><a xlink:href="_inverse_dynamics_8h.html" target="_top" xlink:title="/home/travis/build\l/robotology/wb&#45;toolbox\l/toolbox/include/InverseDynamics.h">
<polygon fill="none" stroke="black" points="732.5,-78.5 732.5,-119.5 905.5,-119.5 905.5,-78.5 732.5,-78.5"/>
<text text-anchor="start" x="740.5" y="-107.5" font-family="Helvetica,sans-Serif" font-size="10.00">/home/travis/build</text>
<text text-anchor="start" x="740.5" y="-96.5" font-family="Helvetica,sans-Serif" font-size="10.00">/robotology/wb&#45;toolbox</text>
<text text-anchor="middle" x="819" y="-85.5" font-family="Helvetica,sans-Serif" font-size="10.00">/toolbox/include/InverseDynamics.h</text>
</a>
</g>
</g>
<!-- Node1&#45;&gt;Node13 -->
<g id="edge16" class="edge"><title>Node1&#45;&gt;Node13</title>
<path fill="none" stroke="midnightblue" d="M1082.62,-165.307C1029.15,-152.061 954.289,-133.516 898,-119.571"/>
<polygon fill="midnightblue" stroke="midnightblue" points="1081.8,-168.709 1092.34,-167.717 1083.48,-161.915 1081.8,-168.709"/>
</g>
<!-- Node15 -->
<g id="node15" class="node"><title>Node15</title>
<g id="a_node15"><a xlink:href="_jacobian_8h.html" target="_top" xlink:title="/home/travis/build\l/robotology/wb&#45;toolbox\l/toolbox/include/Jacobian.h">
<polygon fill="none" stroke="black" points="923.5,-78.5 923.5,-119.5 1058.5,-119.5 1058.5,-78.5 923.5,-78.5"/>
<text text-anchor="start" x="931.5" y="-107.5" font-family="Helvetica,sans-Serif" font-size="10.00">/home/travis/build</text>
<text text-anchor="start" x="931.5" y="-96.5" font-family="Helvetica,sans-Serif" font-size="10.00">/robotology/wb&#45;toolbox</text>
<text text-anchor="middle" x="991" y="-85.5" font-family="Helvetica,sans-Serif" font-size="10.00">/toolbox/include/Jacobian.h</text>
</a>
</g>
</g>
<!-- Node1&#45;&gt;Node15 -->
<g id="edge19" class="edge"><title>Node1&#45;&gt;Node15</title>
<path fill="none" stroke="midnightblue" d="M1092.52,-152.357C1071.36,-141.444 1047.94,-129.367 1028.94,-119.565"/>
<polygon fill="midnightblue" stroke="midnightblue" points="1090.94,-155.479 1101.43,-156.952 1094.15,-149.257 1090.94,-155.479"/>
</g>
<!-- Node17 -->
<g id="node17" class="node"><title>Node17</title>
<g id="a_node17"><a xlink:href="_mass_matrix_8h.html" target="_top" xlink:title="/home/travis/build\l/robotology/wb&#45;toolbox\l/toolbox/include/MassMatrix.h">
<polygon fill="none" stroke="black" points="1076.5,-78.5 1076.5,-119.5 1223.5,-119.5 1223.5,-78.5 1076.5,-78.5"/>
<text text-anchor="start" x="1084.5" y="-107.5" font-family="Helvetica,sans-Serif" font-size="10.00">/home/travis/build</text>
<text text-anchor="start" x="1084.5" y="-96.5" font-family="Helvetica,sans-Serif" font-size="10.00">/robotology/wb&#45;toolbox</text>
<text text-anchor="middle" x="1150" y="-85.5" font-family="Helvetica,sans-Serif" font-size="10.00">/toolbox/include/MassMatrix.h</text>
</a>
</g>
</g>
<!-- Node1&#45;&gt;Node17 -->
<g id="edge22" class="edge"><title>Node1&#45;&gt;Node17</title>
<path fill="none" stroke="midnightblue" d="M1150,-146.76C1150,-137.491 1150,-127.821 1150,-119.696"/>
<polygon fill="midnightblue" stroke="midnightblue" points="1146.5,-146.952 1150,-156.952 1153.5,-146.952 1146.5,-146.952"/>
</g>
<!-- Node19 -->
<g id="node19" class="node"><title>Node19</title>
<g id="a_node19"><a xlink:href="_model_partitioner_8h.html" target="_top" xlink:title="/home/travis/build\l/robotology/wb&#45;toolbox\l/toolbox/include/ModelPartitioner.h">
<polygon fill="none" stroke="black" points="1241.5,-78.5 1241.5,-119.5 1408.5,-119.5 1408.5,-78.5 1241.5,-78.5"/>
<text text-anchor="start" x="1249.5" y="-107.5" font-family="Helvetica,sans-Serif" font-size="10.00">/home/travis/build</text>
<text text-anchor="start" x="1249.5" y="-96.5" font-family="Helvetica,sans-Serif" font-size="10.00">/robotology/wb&#45;toolbox</text>
<text text-anchor="middle" x="1325" y="-85.5" font-family="Helvetica,sans-Serif" font-size="10.00">/toolbox/include/ModelPartitioner.h</text>
</a>
</g>
</g>
<!-- Node1&#45;&gt;Node19 -->
<g id="edge25" class="edge"><title>Node1&#45;&gt;Node19</title>
<path fill="none" stroke="midnightblue" d="M1212.64,-152.649C1236.09,-141.66 1262.14,-129.455 1283.25,-119.565"/>
<polygon fill="midnightblue" stroke="midnightblue" points="1211.03,-149.539 1203.46,-156.952 1214,-155.878 1211.03,-149.539"/>
</g>
<!-- Node21 -->
<g id="node21" class="node"><title>Node21</title>
<g id="a_node21"><a xlink:href="_relative_transform_8h.html" target="_top" xlink:title="/home/travis/build\l/robotology/wb&#45;toolbox\l/toolbox/include/RelativeTransform.h">
<polygon fill="none" stroke="black" points="1426,-78.5 1426,-119.5 1602,-119.5 1602,-78.5 1426,-78.5"/>
<text text-anchor="start" x="1434" y="-107.5" font-family="Helvetica,sans-Serif" font-size="10.00">/home/travis/build</text>
<text text-anchor="start" x="1434" y="-96.5" font-family="Helvetica,sans-Serif" font-size="10.00">/robotology/wb&#45;toolbox</text>
<text text-anchor="middle" x="1514" y="-85.5" font-family="Helvetica,sans-Serif" font-size="10.00">/toolbox/include/RelativeTransform.h</text>
</a>
</g>
</g>
<!-- Node1&#45;&gt;Node21 -->
<g id="edge28" class="edge"><title>Node1&#45;&gt;Node21</title>
<path fill="none" stroke="midnightblue" d="M1217.67,-166.756C1276.88,-153.418 1363.21,-133.969 1427.44,-119.501"/>
<polygon fill="midnightblue" stroke="midnightblue" points="1216.66,-163.395 1207.68,-169.007 1218.2,-170.224 1216.66,-163.395"/>
</g>
<!-- Node23 -->
<g id="node23" class="node"><title>Node23</title>
<g id="a_node23"><a xlink:href="_set_motor_parameters_8h.html" target="_top" xlink:title="/home/travis/build\l/robotology/wb&#45;toolbox\l/toolbox/include/SetMotorParameters.h">
<polygon fill="none" stroke="black" points="1620,-78.5 1620,-119.5 1806,-119.5 1806,-78.5 1620,-78.5"/>
<text text-anchor="start" x="1628" y="-107.5" font-family="Helvetica,sans-Serif" font-size="10.00">/home/travis/build</text>
<text text-anchor="start" x="1628" y="-96.5" font-family="Helvetica,sans-Serif" font-size="10.00">/robotology/wb&#45;toolbox</text>
<text text-anchor="middle" x="1713" y="-85.5" font-family="Helvetica,sans-Serif" font-size="10.00">/toolbox/include/SetMotorParameters.h</text>
</a>
</g>
</g>
<!-- Node1&#45;&gt;Node23 -->
<g id="edge31" class="edge"><title>Node1&#45;&gt;Node23</title>
<path fill="none" stroke="midnightblue" d="M1217.58,-174.132C1307.42,-163.389 1471.03,-142.837 1610,-120 1613.24,-119.468 1616.53,-118.912 1619.85,-118.339"/>
<polygon fill="midnightblue" stroke="midnightblue" points="1217.05,-170.671 1207.53,-175.33 1217.87,-177.622 1217.05,-170.671"/>
</g>
<!-- Node25 -->
<g id="node25" class="node"><title>Node25</title>
<g id="a_node25"><a xlink:href="_set_references_8h.html" target="_top" xlink:title="/home/travis/build\l/robotology/wb&#45;toolbox\l/toolbox/include/SetReferences.h">
<polygon fill="none" stroke="black" points="1824.5,-78.5 1824.5,-119.5 1985.5,-119.5 1985.5,-78.5 1824.5,-78.5"/>
<text text-anchor="start" x="1832.5" y="-107.5" font-family="Helvetica,sans-Serif" font-size="10.00">/home/travis/build</text>
<text text-anchor="start" x="1832.5" y="-96.5" font-family="Helvetica,sans-Serif" font-size="10.00">/robotology/wb&#45;toolbox</text>
<text text-anchor="middle" x="1905" y="-85.5" font-family="Helvetica,sans-Serif" font-size="10.00">/toolbox/include/SetReferences.h</text>
</a>
</g>
</g>
<!-- Node1&#45;&gt;Node25 -->
<g id="edge34" class="edge"><title>Node1&#45;&gt;Node25</title>
<path fill="none" stroke="midnightblue" d="M1217.76,-178.438C1338.27,-171.489 1597.52,-153.764 1814,-120 1817.36,-119.477 1820.77,-118.904 1824.22,-118.295"/>
<polygon fill="midnightblue" stroke="midnightblue" points="1217.37,-174.955 1207.58,-179.018 1217.77,-181.943 1217.37,-174.955"/>
</g>
<!-- Node27 -->
<g id="node27" class="node"><title>Node27</title>
<g id="a_node27"><a xlink:href="_w_b_block_8cpp.html" target="_top" xlink:title="/home/travis/build\l/robotology/wb&#45;toolbox\l/toolbox/src/base/WBBlock.cpp">
<polygon fill="none" stroke="black" points="2210.5,-78.5 2210.5,-119.5 2365.5,-119.5 2365.5,-78.5 2210.5,-78.5"/>
<text text-anchor="start" x="2218.5" y="-107.5" font-family="Helvetica,sans-Serif" font-size="10.00">/home/travis/build</text>
<text text-anchor="start" x="2218.5" y="-96.5" font-family="Helvetica,sans-Serif" font-size="10.00">/robotology/wb&#45;toolbox</text>
<text text-anchor="middle" x="2288" y="-85.5" font-family="Helvetica,sans-Serif" font-size="10.00">/toolbox/src/base/WBBlock.cpp</text>
</a>
</g>
</g>
<!-- Node1&#45;&gt;Node27 -->
<g id="edge37" class="edge"><title>Node1&#45;&gt;Node27</title>
<path fill="none" stroke="midnightblue" d="M1217.74,-181.911C1385.36,-180.844 1832.6,-172.833 2201,-120 2204.07,-119.56 2207.19,-119.067 2210.33,-118.531"/>
<polygon fill="midnightblue" stroke="midnightblue" points="1217.57,-178.412 1207.59,-181.969 1217.61,-185.412 1217.57,-178.412"/>
</g>
<!-- Node3 -->
<g id="node3" class="node"><title>Node3</title>
<g id="a_node3"><a xlink:href="_factory_8cpp.html" target="_top" xlink:title="/home/travis/build\l/robotology/wb&#45;toolbox\l/toolbox/src/base/Factory.cpp">
<polygon fill="none" stroke="black" points="993,-0.5 993,-41.5 1139,-41.5 1139,-0.5 993,-0.5"/>
<text text-anchor="start" x="1001" y="-29.5" font-family="Helvetica,sans-Serif" font-size="10.00">/home/travis/build</text>
<text text-anchor="start" x="1001" y="-18.5" font-family="Helvetica,sans-Serif" font-size="10.00">/robotology/wb&#45;toolbox</text>
<text text-anchor="middle" x="1066" y="-7.5" font-family="Helvetica,sans-Serif" font-size="10.00">/toolbox/src/base/Factory.cpp</text>
</a>
</g>
</g>
<!-- Node2&#45;&gt;Node3 -->
<g id="edge2" class="edge"><title>Node2&#45;&gt;Node3</title>
<path fill="none" stroke="midnightblue" d="M1993.39,-78.0425C1618.43,-35.4006 1517.34,-94.379 1148,-42 1145.1,-41.5885 1142.15,-41.1192 1139.18,-40.6037"/>
<polygon fill="midnightblue" stroke="midnightblue" points="1993.1,-81.5315 2003.43,-79.2009 1993.9,-74.5776 1993.1,-81.5315"/>
</g>
<!-- Node4 -->
<g id="node4" class="node"><title>Node4</title>
<g id="a_node4"><a xlink:href="_centroidal_momentum_8cpp.html" target="_top" xlink:title="/home/travis/build\l/robotology/wb&#45;toolbox\l/toolbox/src/CentroidalMomentum.cpp">
<polygon fill="none" stroke="black" points="2052,-0.5 2052,-41.5 2234,-41.5 2234,-0.5 2052,-0.5"/>
<text text-anchor="start" x="2060" y="-29.5" font-family="Helvetica,sans-Serif" font-size="10.00">/home/travis/build</text>
<text text-anchor="start" x="2060" y="-18.5" font-family="Helvetica,sans-Serif" font-size="10.00">/robotology/wb&#45;toolbox</text>
<text text-anchor="middle" x="2143" y="-7.5" font-family="Helvetica,sans-Serif" font-size="10.00">/toolbox/src/CentroidalMomentum.cpp</text>
</a>
</g>
</g>
<!-- Node2&#45;&gt;Node4 -->
<g id="edge3" class="edge"><title>Node2&#45;&gt;Node4</title>
<path fill="none" stroke="midnightblue" d="M2114.72,-69.7571C2120.29,-60.354 2126.36,-50.096 2131.45,-41.5056"/>
<polygon fill="midnightblue" stroke="midnightblue" points="2111.67,-68.0401 2109.59,-78.4281 2117.7,-71.6066 2111.67,-68.0401"/>
</g>
<!-- Node5&#45;&gt;Node3 -->
<g id="edge5" class="edge"><title>Node5&#45;&gt;Node3</title>
<path fill="none" stroke="midnightblue" d="M181.217,-78.0048C535.251,-24.2888 633.193,-92.1481 984,-42 986.901,-41.5853 989.85,-41.1133 992.82,-40.5955"/>
<polygon fill="midnightblue" stroke="midnightblue" points="180.554,-74.5654 171.203,-79.546 181.619,-81.484 180.554,-74.5654"/>
</g>
<!-- Node6 -->
<g id="node6" class="node"><title>Node6</title>
<g id="a_node6"><a xlink:href="_dot_j_nu_8cpp.html" target="_top" xlink:title="/home/travis/build\l/robotology/wb&#45;toolbox\l/toolbox/src/DotJNu.cpp">
<polygon fill="none" stroke="black" points="-0.5,-0.5 -0.5,-41.5 122.5,-41.5 122.5,-0.5 -0.5,-0.5"/>
<text text-anchor="start" x="7.5" y="-29.5" font-family="Helvetica,sans-Serif" font-size="10.00">/home/travis/build</text>
<text text-anchor="start" x="7.5" y="-18.5" font-family="Helvetica,sans-Serif" font-size="10.00">/robotology/wb&#45;toolbox</text>
<text text-anchor="middle" x="61" y="-7.5" font-family="Helvetica,sans-Serif" font-size="10.00">/toolbox/src/DotJNu.cpp</text>
</a>
</g>
</g>
<!-- Node5&#45;&gt;Node6 -->
<g id="edge6" class="edge"><title>Node5&#45;&gt;Node6</title>
<path fill="none" stroke="midnightblue" d="M89.2772,-69.7571C83.7096,-60.354 77.6358,-50.096 72.5493,-41.5056"/>
<polygon fill="midnightblue" stroke="midnightblue" points="86.3047,-71.6066 94.4114,-78.4281 92.3281,-68.0401 86.3047,-71.6066"/>
</g>
<!-- Node7&#45;&gt;Node3 -->
<g id="edge8" class="edge"><title>Node7&#45;&gt;Node3</title>
<path fill="none" stroke="midnightblue" d="M379.055,-77.971C647.333,-44.1397 720.45,-81.6387 984,-42 986.898,-41.5641 989.844,-41.0743 992.812,-40.5416"/>
<polygon fill="midnightblue" stroke="midnightblue" points="378.492,-74.5144 369.019,-79.2582 379.383,-81.4575 378.492,-74.5144"/>
</g>
<!-- Node8 -->
<g id="node8" class="node"><title>Node8</title>
<g id="a_node8"><a xlink:href="_forward_kinematics_8cpp.html" target="_top" xlink:title="/home/travis/build\l/robotology/wb&#45;toolbox\l/toolbox/src/ForwardKinematics.cpp">
<polygon fill="none" stroke="black" points="140.5,-0.5 140.5,-41.5 313.5,-41.5 313.5,-0.5 140.5,-0.5"/>
<text text-anchor="start" x="148.5" y="-29.5" font-family="Helvetica,sans-Serif" font-size="10.00">/home/travis/build</text>
<text text-anchor="start" x="148.5" y="-18.5" font-family="Helvetica,sans-Serif" font-size="10.00">/robotology/wb&#45;toolbox</text>
<text text-anchor="middle" x="227" y="-7.5" font-family="Helvetica,sans-Serif" font-size="10.00">/toolbox/src/ForwardKinematics.cpp</text>
</a>
</g>
</g>
<!-- Node7&#45;&gt;Node8 -->
<g id="edge9" class="edge"><title>Node7&#45;&gt;Node8</title>
<path fill="none" stroke="midnightblue" d="M259.875,-70.0476C253.387,-60.5657 246.284,-50.1845 240.346,-41.5056"/>
<polygon fill="midnightblue" stroke="midnightblue" points="257.073,-72.1514 265.609,-78.4281 262.85,-68.1986 257.073,-72.1514"/>
</g>
<!-- Node9&#45;&gt;Node3 -->
<g id="edge11" class="edge"><title>Node9&#45;&gt;Node3</title>
<path fill="none" stroke="midnightblue" d="M535.066,-77.9781C733.678,-45.8781 789.101,-73.3589 984,-42 986.893,-41.5344 989.835,-41.0196 992.8,-40.4659"/>
<polygon fill="midnightblue" stroke="midnightblue" points="534.49,-74.5258 525.191,-79.6037 535.627,-81.4328 534.49,-74.5258"/>
</g>
<!-- Node10 -->
<g id="node10" class="node"><title>Node10</title>
<g id="a_node10"><a xlink:href="_get_limits_8cpp.html" target="_top" xlink:title="/home/travis/build\l/robotology/wb&#45;toolbox\l/toolbox/src/GetLimits.cpp">
<polygon fill="none" stroke="black" points="331.5,-0.5 331.5,-41.5 462.5,-41.5 462.5,-0.5 331.5,-0.5"/>
<text text-anchor="start" x="339.5" y="-29.5" font-family="Helvetica,sans-Serif" font-size="10.00">/home/travis/build</text>
<text text-anchor="start" x="339.5" y="-18.5" font-family="Helvetica,sans-Serif" font-size="10.00">/robotology/wb&#45;toolbox</text>
<text text-anchor="middle" x="397" y="-7.5" font-family="Helvetica,sans-Serif" font-size="10.00">/toolbox/src/GetLimits.cpp</text>
</a>
</g>
</g>
<!-- Node9&#45;&gt;Node10 -->
<g id="edge12" class="edge"><title>Node9&#45;&gt;Node10</title>
<path fill="none" stroke="midnightblue" d="M434.525,-70.3376C427.104,-60.7777 418.949,-50.2731 412.142,-41.5056"/>
<polygon fill="midnightblue" stroke="midnightblue" points="431.909,-72.6753 440.806,-78.4281 437.438,-68.3827 431.909,-72.6753"/>
</g>
<!-- Node11&#45;&gt;Node3 -->
<g id="edge14" class="edge"><title>Node11&#45;&gt;Node3</title>
<path fill="none" stroke="midnightblue" d="M724.459,-77.8109C840.081,-58.1148 872.114,-63.3033 984,-42 986.879,-41.4518 989.809,-40.8673 992.763,-40.2553"/>
<polygon fill="midnightblue" stroke="midnightblue" points="723.763,-74.3792 714.506,-79.5321 724.956,-81.2768 723.763,-74.3792"/>
</g>
<!-- Node12 -->
<g id="node12" class="node"><title>Node12</title>
<g id="a_node12"><a xlink:href="_get_measurement_8cpp.html" target="_top" xlink:title="/home/travis/build\l/robotology/wb&#45;toolbox\l/toolbox/src/GetMeasurement.cpp">
<polygon fill="none" stroke="black" points="481,-0.5 481,-41.5 645,-41.5 645,-0.5 481,-0.5"/>
<text text-anchor="start" x="489" y="-29.5" font-family="Helvetica,sans-Serif" font-size="10.00">/home/travis/build</text>
<text text-anchor="start" x="489" y="-18.5" font-family="Helvetica,sans-Serif" font-size="10.00">/robotology/wb&#45;toolbox</text>
<text text-anchor="middle" x="563" y="-7.5" font-family="Helvetica,sans-Serif" font-size="10.00">/toolbox/src/GetMeasurement.cpp</text>
</a>
</g>
</g>
<!-- Node11&#45;&gt;Node12 -->
<g id="edge15" class="edge"><title>Node11&#45;&gt;Node12</title>
<path fill="none" stroke="midnightblue" d="M605.229,-70.627C596.86,-60.9901 587.63,-50.3617 579.939,-41.5056"/>
<polygon fill="midnightblue" stroke="midnightblue" points="602.804,-73.1727 612.003,-78.4281 608.089,-68.5828 602.804,-73.1727"/>
</g>
<!-- Node13&#45;&gt;Node3 -->
<g id="edge17" class="edge"><title>Node13&#45;&gt;Node3</title>
<path fill="none" stroke="midnightblue" d="M892.313,-75.4423C927.371,-64.655 968.932,-51.8672 1002.61,-41.5056"/>
<polygon fill="midnightblue" stroke="midnightblue" points="891.137,-72.142 882.609,-78.4281 893.196,-78.8324 891.137,-72.142"/>
</g>
<!-- Node14 -->
<g id="node14" class="node"><title>Node14</title>
<g id="a_node14"><a xlink:href="_inverse_dynamics_8cpp.html" target="_top" xlink:title="/home/travis/build\l/robotology/wb&#45;toolbox\l/toolbox/src/InverseDynamics.cpp">
<polygon fill="none" stroke="black" points="663,-0.5 663,-41.5 829,-41.5 829,-0.5 663,-0.5"/>
<text text-anchor="start" x="671" y="-29.5" font-family="Helvetica,sans-Serif" font-size="10.00">/home/travis/build</text>
<text text-anchor="start" x="671" y="-18.5" font-family="Helvetica,sans-Serif" font-size="10.00">/robotology/wb&#45;toolbox</text>
<text text-anchor="middle" x="746" y="-7.5" font-family="Helvetica,sans-Serif" font-size="10.00">/toolbox/src/InverseDynamics.cpp</text>
</a>
</g>
</g>
<!-- Node13&#45;&gt;Node14 -->
<g id="edge18" class="edge"><title>Node13&#45;&gt;Node14</title>
<path fill="none" stroke="midnightblue" d="M793.262,-71.204C783.86,-61.416 773.412,-50.5388 764.736,-41.5056"/>
<polygon fill="midnightblue" stroke="midnightblue" points="790.749,-73.6407 800.201,-78.4281 795.798,-68.7915 790.749,-73.6407"/>
</g>
<!-- Node15&#45;&gt;Node3 -->
<g id="edge20" class="edge"><title>Node15&#45;&gt;Node3</title>
<path fill="none" stroke="midnightblue" d="M1017.44,-71.204C1027.1,-61.416 1037.84,-50.5388 1046.75,-41.5056"/>
<polygon fill="midnightblue" stroke="midnightblue" points="1014.85,-68.8519 1010.31,-78.4281 1019.83,-73.7688 1014.85,-68.8519"/>
</g>
<!-- Node16 -->
<g id="node16" class="node"><title>Node16</title>
<g id="a_node16"><a xlink:href="_jacobian_8cpp.html" target="_top" xlink:title="/home/travis/build\l/robotology/wb&#45;toolbox\l/toolbox/src/Jacobian.cpp">
<polygon fill="none" stroke="black" points="847,-0.5 847,-41.5 975,-41.5 975,-0.5 847,-0.5"/>
<text text-anchor="start" x="855" y="-29.5" font-family="Helvetica,sans-Serif" font-size="10.00">/home/travis/build</text>
<text text-anchor="start" x="855" y="-18.5" font-family="Helvetica,sans-Serif" font-size="10.00">/robotology/wb&#45;toolbox</text>
<text text-anchor="middle" x="911" y="-7.5" font-family="Helvetica,sans-Serif" font-size="10.00">/toolbox/src/Jacobian.cpp</text>
</a>
</g>
</g>
<!-- Node15&#45;&gt;Node16 -->
<g id="edge21" class="edge"><title>Node15&#45;&gt;Node16</title>
<path fill="none" stroke="midnightblue" d="M963.096,-71.4916C952.715,-61.6294 941.134,-50.6273 931.532,-41.5056"/>
<polygon fill="midnightblue" stroke="midnightblue" points="960.737,-74.0781 970.398,-78.4281 965.559,-69.0031 960.737,-74.0781"/>
</g>
<!-- Node17&#45;&gt;Node3 -->
<g id="edge23" class="edge"><title>Node17&#45;&gt;Node3</title>
<path fill="none" stroke="midnightblue" d="M1120.7,-71.4916C1109.8,-61.6294 1097.64,-50.6273 1087.56,-41.5056"/>
<polygon fill="midnightblue" stroke="midnightblue" points="1118.6,-74.3143 1128.37,-78.4281 1123.3,-69.1236 1118.6,-74.3143"/>
</g>
<!-- Node18 -->
<g id="node18" class="node"><title>Node18</title>
<g id="a_node18"><a xlink:href="_mass_matrix_8cpp.html" target="_top" xlink:title="/home/travis/build\l/robotology/wb&#45;toolbox\l/toolbox/src/MassMatrix.cpp">
<polygon fill="none" stroke="black" points="1157,-0.5 1157,-41.5 1297,-41.5 1297,-0.5 1157,-0.5"/>
<text text-anchor="start" x="1165" y="-29.5" font-family="Helvetica,sans-Serif" font-size="10.00">/home/travis/build</text>
<text text-anchor="start" x="1165" y="-18.5" font-family="Helvetica,sans-Serif" font-size="10.00">/robotology/wb&#45;toolbox</text>
<text text-anchor="middle" x="1227" y="-7.5" font-family="Helvetica,sans-Serif" font-size="10.00">/toolbox/src/MassMatrix.cpp</text>
</a>
</g>
</g>
<!-- Node17&#45;&gt;Node18 -->
<g id="edge24" class="edge"><title>Node17&#45;&gt;Node18</title>
<path fill="none" stroke="midnightblue" d="M1177.15,-71.204C1187.07,-61.416 1198.09,-50.5388 1207.24,-41.5056"/>
<polygon fill="midnightblue" stroke="midnightblue" points="1174.49,-68.9124 1169.83,-78.4281 1179.41,-73.8944 1174.49,-68.9124"/>
</g>
<!-- Node19&#45;&gt;Node3 -->
<g id="edge26" class="edge"><title>Node19&#45;&gt;Node3</title>
<path fill="none" stroke="midnightblue" d="M1248.6,-75.5805C1211.74,-64.7644 1167.94,-51.9115 1132.47,-41.5056"/>
<polygon fill="midnightblue" stroke="midnightblue" points="1247.72,-78.9708 1258.3,-78.4281 1249.69,-72.254 1247.72,-78.9708"/>
</g>
<!-- Node20 -->
<g id="node20" class="node"><title>Node20</title>
<g id="a_node20"><a xlink:href="_model_partitioner_8cpp.html" target="_top" xlink:title="/home/travis/build\l/robotology/wb&#45;toolbox\l/toolbox/src/ModelPartitioner.cpp">
<polygon fill="none" stroke="black" points="1315,-0.5 1315,-41.5 1475,-41.5 1475,-0.5 1315,-0.5"/>
<text text-anchor="start" x="1323" y="-29.5" font-family="Helvetica,sans-Serif" font-size="10.00">/home/travis/build</text>
<text text-anchor="start" x="1323" y="-18.5" font-family="Helvetica,sans-Serif" font-size="10.00">/robotology/wb&#45;toolbox</text>
<text text-anchor="middle" x="1395" y="-7.5" font-family="Helvetica,sans-Serif" font-size="10.00">/toolbox/src/ModelPartitioner.cpp</text>
</a>
</g>
</g>
<!-- Node19&#45;&gt;Node20 -->
<g id="edge27" class="edge"><title>Node19&#45;&gt;Node20</title>
<path fill="none" stroke="midnightblue" d="M1349.95,-70.9158C1358.89,-61.2029 1368.8,-50.4502 1377.03,-41.5056"/>
<polygon fill="midnightblue" stroke="midnightblue" points="1347.23,-68.7015 1343.03,-78.4281 1352.38,-73.4438 1347.23,-68.7015"/>
</g>
<!-- Node21&#45;&gt;Node3 -->
<g id="edge29" class="edge"><title>Node21&#45;&gt;Node3</title>
<path fill="none" stroke="midnightblue" d="M1415.86,-77.8718C1296.36,-58.132 1263.41,-63.7339 1148,-42 1145.12,-41.4576 1142.19,-40.878 1139.23,-40.2701"/>
<polygon fill="midnightblue" stroke="midnightblue" points="1415.32,-81.3303 1425.76,-79.5323 1416.48,-74.4266 1415.32,-81.3303"/>
</g>
<!-- Node22 -->
<g id="node22" class="node"><title>Node22</title>
<g id="a_node22"><a xlink:href="_relative_transform_8cpp.html" target="_top" xlink:title="/home/travis/build\l/robotology/wb&#45;toolbox\l/toolbox/src/RelativeTransform.cpp">
<polygon fill="none" stroke="black" points="1493,-0.5 1493,-41.5 1663,-41.5 1663,-0.5 1493,-0.5"/>
<text text-anchor="start" x="1501" y="-29.5" font-family="Helvetica,sans-Serif" font-size="10.00">/home/travis/build</text>
<text text-anchor="start" x="1501" y="-18.5" font-family="Helvetica,sans-Serif" font-size="10.00">/robotology/wb&#45;toolbox</text>
<text text-anchor="middle" x="1578" y="-7.5" font-family="Helvetica,sans-Serif" font-size="10.00">/toolbox/src/RelativeTransform.cpp</text>
</a>
</g>
</g>
<!-- Node21&#45;&gt;Node22 -->
<g id="edge30" class="edge"><title>Node21&#45;&gt;Node22</title>
<path fill="none" stroke="midnightblue" d="M1537.05,-70.627C1545.17,-60.9901 1554.12,-50.3617 1561.57,-41.5056"/>
<polygon fill="midnightblue" stroke="midnightblue" points="1534.25,-68.5245 1530.48,-78.4281 1539.6,-73.0335 1534.25,-68.5245"/>
</g>
<!-- Node23&#45;&gt;Node3 -->
<g id="edge32" class="edge"><title>Node23&#45;&gt;Node3</title>
<path fill="none" stroke="midnightblue" d="M1609.97,-78.0997C1404.17,-51.0678 1348.2,-73.9992 1148,-42 1145.11,-41.5374 1142.16,-41.0251 1139.2,-40.4735"/>
<polygon fill="midnightblue" stroke="midnightblue" points="1609.51,-81.5691 1619.88,-79.4251 1610.43,-74.6308 1609.51,-81.5691"/>
</g>
<!-- Node24 -->
<g id="node24" class="node"><title>Node24</title>
<g id="a_node24"><a xlink:href="_set_motor_parameters_8cpp.html" target="_top" xlink:title="/home/travis/build\l/robotology/wb&#45;toolbox\l/toolbox/src/SetMotorParameters.cpp">
<polygon fill="none" stroke="black" points="1681.5,-0.5 1681.5,-41.5 1860.5,-41.5 1860.5,-0.5 1681.5,-0.5"/>
<text text-anchor="start" x="1689.5" y="-29.5" font-family="Helvetica,sans-Serif" font-size="10.00">/home/travis/build</text>
<text text-anchor="start" x="1689.5" y="-18.5" font-family="Helvetica,sans-Serif" font-size="10.00">/robotology/wb&#45;toolbox</text>
<text text-anchor="middle" x="1771" y="-7.5" font-family="Helvetica,sans-Serif" font-size="10.00">/toolbox/src/SetMotorParameters.cpp</text>
</a>
</g>
</g>
<!-- Node23&#45;&gt;Node24 -->
<g id="edge33" class="edge"><title>Node23&#45;&gt;Node24</title>
<path fill="none" stroke="midnightblue" d="M1734.11,-70.3376C1741.41,-60.7777 1749.42,-50.2731 1756.11,-41.5056"/>
<polygon fill="midnightblue" stroke="midnightblue" points="1731.22,-68.3552 1727.94,-78.4281 1736.79,-72.6019 1731.22,-68.3552"/>
</g>
<!-- Node25&#45;&gt;Node3 -->
<g id="edge35" class="edge"><title>Node25&#45;&gt;Node3</title>
<path fill="none" stroke="midnightblue" d="M1814.32,-78.0431C1814.21,-78.0287 1814.11,-78.0143 1814,-78 1520.27,-38.0529 1441.25,-85.3063 1148,-42 1145.1,-41.5719 1142.15,-41.0885 1139.18,-40.5613"/>
<polygon fill="midnightblue" stroke="midnightblue" points="1813.84,-81.5102 1824.25,-79.5389 1814.88,-74.5883 1813.84,-81.5102"/>
</g>
<!-- Node26 -->
<g id="node26" class="node"><title>Node26</title>
<g id="a_node26"><a xlink:href="_set_references_8cpp.html" target="_top" xlink:title="/home/travis/build\l/robotology/wb&#45;toolbox\l/toolbox/src/SetReferences.cpp">
<polygon fill="none" stroke="black" points="1878.5,-0.5 1878.5,-41.5 2033.5,-41.5 2033.5,-0.5 1878.5,-0.5"/>
<text text-anchor="start" x="1886.5" y="-29.5" font-family="Helvetica,sans-Serif" font-size="10.00">/home/travis/build</text>
<text text-anchor="start" x="1886.5" y="-18.5" font-family="Helvetica,sans-Serif" font-size="10.00">/robotology/wb&#45;toolbox</text>
<text text-anchor="middle" x="1956" y="-7.5" font-family="Helvetica,sans-Serif" font-size="10.00">/toolbox/src/SetReferences.cpp</text>
</a>
</g>
</g>
<!-- Node25&#45;&gt;Node26 -->
<g id="edge36" class="edge"><title>Node25&#45;&gt;Node26</title>
<path fill="none" stroke="midnightblue" d="M1923.76,-70.0476C1930.12,-60.5657 1937.09,-50.1845 1942.91,-41.5056"/>
<polygon fill="midnightblue" stroke="midnightblue" points="1920.8,-68.1742 1918.13,-78.4281 1926.61,-72.0747 1920.8,-68.1742"/>
</g>
</g>
</svg>
