<?xml version="1.0" encoding="UTF-8" standalone="no"?>
<!DOCTYPE svg PUBLIC "-//W3C//DTD SVG 1.1//EN"
 "http://www.w3.org/Graphics/SVG/1.1/DTD/svg11.dtd">
<!-- Generated by graphviz version 2.36.0 (20140111.2315)
 -->
<!-- Title: /home/travis/build/robotology/wb&#45;toolbox/toolbox/src/base/WBBlock.cpp Pages: 1 -->
<svg width="2170pt" height="286pt"
 viewBox="0.00 0.00 2170.00 286.00" xmlns="http://www.w3.org/2000/svg" xmlns:xlink="http://www.w3.org/1999/xlink">
<g id="graph0" class="graph" transform="scale(1 1) rotate(0) translate(4 282)">
<title>/home/travis/build/robotology/wb&#45;toolbox/toolbox/src/base/WBBlock.cpp</title>
<!-- Node1 -->
<g id="node1" class="node"><title>Node1</title>
<polygon fill="#bfbfbf" stroke="black" points="744.5,-236.5 744.5,-277.5 899.5,-277.5 899.5,-236.5 744.5,-236.5"/>
<text text-anchor="start" x="752.5" y="-265.5" font-family="Helvetica,sans-Serif" font-size="10.00">/home/travis/build</text>
<text text-anchor="start" x="752.5" y="-254.5" font-family="Helvetica,sans-Serif" font-size="10.00">/robotology/wb&#45;toolbox</text>
<text text-anchor="middle" x="822" y="-243.5" font-family="Helvetica,sans-Serif" font-size="10.00">/toolbox/src/base/WBBlock.cpp</text>
</g>
<!-- Node2 -->
<g id="node2" class="node"><title>Node2</title>
<g id="a_node2"><a xlink:href="_w_b_block_8h.html" target="_top" xlink:title="WBBlock.h">
<polygon fill="none" stroke="black" points="429,-174.5 429,-193.5 495,-193.5 495,-174.5 429,-174.5"/>
<text text-anchor="middle" x="462" y="-181.5" font-family="Helvetica,sans-Serif" font-size="10.00">WBBlock.h</text>
</a>
</g>
</g>
<!-- Node1&#45;&gt;Node2 -->
<g id="edge1" class="edge"><title>Node1&#45;&gt;Node2</title>
<path fill="none" stroke="midnightblue" d="M744.223,-245.005C680.523,-235.303 588.301,-219.657 509,-200 504.885,-198.98 500.604,-197.793 496.375,-196.543"/>
<polygon fill="midnightblue" stroke="midnightblue" points="497.292,-193.163 486.705,-193.558 495.228,-199.852 497.292,-193.163"/>
</g>
<!-- Node5 -->
<g id="node5" class="node"><title>Node5</title>
<polygon fill="none" stroke="#bfbfbf" points="456,-0.5 456,-19.5 508,-19.5 508,-0.5 456,-0.5"/>
<text text-anchor="middle" x="482" y="-7.5" font-family="Helvetica,sans-Serif" font-size="10.00">memory</text>
</g>
<!-- Node1&#45;&gt;Node5 -->
<g id="edge43" class="edge"><title>Node1&#45;&gt;Node5</title>
<path fill="none" stroke="midnightblue" d="M744.452,-254.119C693.657,-249.258 628.341,-235.72 582,-200 524.198,-155.446 496.2,-67.8614 486.318,-29.6116"/>
<polygon fill="midnightblue" stroke="midnightblue" points="489.696,-28.6909 483.91,-19.8155 482.898,-30.3619 489.696,-28.6909"/>
</g>
<!-- Node8 -->
<g id="node8" class="node"><title>Node8</title>
<g id="a_node8"><a xlink:href="_block_information_8h.html" target="_top" xlink:title="BlockInformation.h">
<polygon fill="none" stroke="black" points="359,-56.5 359,-75.5 457,-75.5 457,-56.5 359,-56.5"/>
<text text-anchor="middle" x="408" y="-63.5" font-family="Helvetica,sans-Serif" font-size="10.00">BlockInformation.h</text>
</a>
</g>
</g>
<!-- Node1&#45;&gt;Node8 -->
<g id="edge10" class="edge"><title>Node1&#45;&gt;Node8</title>
<path fill="none" stroke="midnightblue" d="M744.392,-256.211C640.213,-254.717 463.198,-245.343 420,-200 390.635,-169.177 397.222,-114.144 403.294,-85.4896"/>
<polygon fill="midnightblue" stroke="midnightblue" points="406.739,-86.1248 405.599,-75.5916 399.922,-84.5369 406.739,-86.1248"/>
</g>
<!-- Node10 -->
<g id="node10" class="node"><title>Node10</title>
<g id="a_node10"><a xlink:href="_configuration_8h.html" target="_top" xlink:title="Configuration.h">
<polygon fill="none" stroke="black" points="126.5,-56.5 126.5,-75.5 209.5,-75.5 209.5,-56.5 126.5,-56.5"/>
<text text-anchor="middle" x="168" y="-63.5" font-family="Helvetica,sans-Serif" font-size="10.00">Configuration.h</text>
</a>
</g>
</g>
<!-- Node1&#45;&gt;Node10 -->
<g id="edge15" class="edge"><title>Node1&#45;&gt;Node10</title>
<path fill="none" stroke="midnightblue" d="M744.132,-253.366C658.187,-248.701 516.578,-235.78 400,-200 313.712,-173.517 224.681,-110.552 186.839,-81.7902"/>
<polygon fill="midnightblue" stroke="midnightblue" points="188.812,-78.8925 178.752,-75.5686 184.544,-84.4405 188.812,-78.8925"/>
</g>
<!-- Node11 -->
<g id="node11" class="node"><title>Node11</title>
<g id="a_node11"><a xlink:href="_log_8h.html" target="_top" xlink:title="Log.h">
<polygon fill="none" stroke="black" points="551.5,-56.5 551.5,-75.5 592.5,-75.5 592.5,-56.5 551.5,-56.5"/>
<text text-anchor="middle" x="572" y="-63.5" font-family="Helvetica,sans-Serif" font-size="10.00">Log.h</text>
</a>
</g>
</g>
<!-- Node1&#45;&gt;Node11 -->
<g id="edge19" class="edge"><title>Node1&#45;&gt;Node11</title>
<path fill="none" stroke="midnightblue" d="M744.316,-252.461C699.775,-246.667 645.453,-232.721 608,-200 574.921,-171.1 570.774,-115.231 571.073,-85.9507"/>
<polygon fill="midnightblue" stroke="midnightblue" points="574.576,-85.9196 571.37,-75.8213 567.579,-85.7144 574.576,-85.9196"/>
</g>
<!-- Node13 -->
<g id="node13" class="node"><title>Node13</title>
<g id="a_node13"><a xlink:href="_parameter_8h.html" target="_top" xlink:title="Parameter.h">
<polygon fill="none" stroke="black" points="0,-56.5 0,-75.5 70,-75.5 70,-56.5 0,-56.5"/>
<text text-anchor="middle" x="35" y="-63.5" font-family="Helvetica,sans-Serif" font-size="10.00">Parameter.h</text>
</a>
</g>
</g>
<!-- Node1&#45;&gt;Node13 -->
<g id="edge23" class="edge"><title>Node1&#45;&gt;Node13</title>
<path fill="none" stroke="midnightblue" d="M744.239,-255.16C644.105,-252.317 465.532,-241.253 319,-200 216.283,-171.082 104.379,-108.484 57.5637,-80.7288"/>
<polygon fill="midnightblue" stroke="midnightblue" points="59.2177,-77.6398 48.839,-75.5108 55.6247,-83.6474 59.2177,-77.6398"/>
</g>
<!-- Node14 -->
<g id="node14" class="node"><title>Node14</title>
<g id="a_node14"><a xlink:href="_robot_interface_8h.html" target="_top" xlink:title="RobotInterface.h">
<polygon fill="none" stroke="black" points="649.5,-56.5 649.5,-75.5 738.5,-75.5 738.5,-56.5 649.5,-56.5"/>
<text text-anchor="middle" x="694" y="-63.5" font-family="Helvetica,sans-Serif" font-size="10.00">RobotInterface.h</text>
</a>
</g>
</g>
<!-- Node1&#45;&gt;Node14 -->
<g id="edge26" class="edge"><title>Node1&#45;&gt;Node14</title>
<path fill="none" stroke="midnightblue" d="M744.104,-249.422C711.353,-242.351 676.223,-228.165 656,-200 630.078,-163.897 661.499,-110.481 680.898,-83.6548"/>
<polygon fill="midnightblue" stroke="midnightblue" points="683.71,-85.7384 686.916,-75.6401 678.112,-81.5354 683.71,-85.7384"/>
</g>
<!-- Node16 -->
<g id="node16" class="node"><title>Node16</title>
<g id="a_node16"><a xlink:href="_signal_8h.html" target="_top" xlink:title="Signal.h">
<polygon fill="none" stroke="black" points="589,-112.5 589,-131.5 641,-131.5 641,-112.5 589,-112.5"/>
<text text-anchor="middle" x="615" y="-119.5" font-family="Helvetica,sans-Serif" font-size="10.00">Signal.h</text>
</a>
</g>
</g>
<!-- Node1&#45;&gt;Node16 -->
<g id="edge31" class="edge"><title>Node1&#45;&gt;Node16</title>
<path fill="none" stroke="midnightblue" d="M744.305,-243.347C695.534,-233.734 638.954,-218.941 623,-200 609.434,-183.894 609.477,-158.66 611.552,-141.504"/>
<polygon fill="midnightblue" stroke="midnightblue" points="615.019,-141.991 613.087,-131.574 608.101,-140.922 615.019,-141.991"/>
</g>
<!-- Node17 -->
<g id="node17" class="node"><title>Node17</title>
<polygon fill="none" stroke="#bfbfbf" points="665.5,-174.5 665.5,-193.5 730.5,-193.5 730.5,-174.5 665.5,-174.5"/>
<text text-anchor="middle" x="698" y="-181.5" font-family="Helvetica,sans-Serif" font-size="10.00">Eigen/Core</text>
</g>
<!-- Node1&#45;&gt;Node17 -->
<g id="edge33" class="edge"><title>Node1&#45;&gt;Node17</title>
<path fill="none" stroke="midnightblue" d="M787.788,-236.411C766.815,-224.402 740.493,-209.33 721.783,-198.618"/>
<polygon fill="midnightblue" stroke="midnightblue" points="723.431,-195.528 713.014,-193.597 719.953,-201.603 723.431,-195.528"/>
</g>
<!-- Node18 -->
<g id="node18" class="node"><title>Node18</title>
<polygon fill="none" stroke="#bfbfbf" points="749,-169 749,-199 895,-199 895,-169 749,-169"/>
<text text-anchor="start" x="757" y="-187" font-family="Helvetica,sans-Serif" font-size="10.00">iDynTree/Core/AngularMotion</text>
<text text-anchor="middle" x="822" y="-176" font-family="Helvetica,sans-Serif" font-size="10.00">Vector3.h</text>
</g>
<!-- Node1&#45;&gt;Node18 -->
<g id="edge34" class="edge"><title>Node1&#45;&gt;Node18</title>
<path fill="none" stroke="midnightblue" d="M822,-236.223C822,-227.821 822,-217.948 822,-209.123"/>
<polygon fill="midnightblue" stroke="midnightblue" points="825.5,-209.048 822,-199.049 818.5,-209.049 825.5,-209.048"/>
</g>
<!-- Node19 -->
<g id="node19" class="node"><title>Node19</title>
<polygon fill="none" stroke="#bfbfbf" points="913,-174.5 913,-193.5 1063,-193.5 1063,-174.5 913,-174.5"/>
<text text-anchor="middle" x="988" y="-181.5" font-family="Helvetica,sans-Serif" font-size="10.00">iDynTree/Core/EigenHelpers.h</text>
</g>
<!-- Node1&#45;&gt;Node19 -->
<g id="edge35" class="edge"><title>Node1&#45;&gt;Node19</title>
<path fill="none" stroke="midnightblue" d="M867.8,-236.411C896.774,-224.018 933.375,-208.364 958.532,-197.604"/>
<polygon fill="midnightblue" stroke="midnightblue" points="960.082,-200.747 967.9,-193.597 957.33,-194.311 960.082,-200.747"/>
</g>
<!-- Node20 -->
<g id="node20" class="node"><title>Node20</title>
<polygon fill="none" stroke="#bfbfbf" points="1081.5,-169 1081.5,-199 1220.5,-199 1220.5,-169 1081.5,-169"/>
<text text-anchor="start" x="1089.5" y="-187" font-family="Helvetica,sans-Serif" font-size="10.00">iDynTree/Core/LinearMotion</text>
<text text-anchor="middle" x="1151" y="-176" font-family="Helvetica,sans-Serif" font-size="10.00">Vector3.h</text>
</g>
<!-- Node1&#45;&gt;Node20 -->
<g id="edge36" class="edge"><title>Node1&#45;&gt;Node20</title>
<path fill="none" stroke="midnightblue" d="M899.552,-239.264C952.826,-227.767 1023.17,-212.586 1075.91,-201.205"/>
<polygon fill="midnightblue" stroke="midnightblue" points="1076.84,-204.585 1085.88,-199.054 1075.36,-197.742 1076.84,-204.585"/>
</g>
<!-- Node21 -->
<g id="node21" class="node"><title>Node21</title>
<polygon fill="none" stroke="#bfbfbf" points="1239,-174.5 1239,-193.5 1375,-193.5 1375,-174.5 1239,-174.5"/>
<text text-anchor="middle" x="1307" y="-181.5" font-family="Helvetica,sans-Serif" font-size="10.00">iDynTree/Core/Transform.h</text>
</g>
<!-- Node1&#45;&gt;Node21 -->
<g id="edge37" class="edge"><title>Node1&#45;&gt;Node21</title>
<path fill="none" stroke="midnightblue" d="M899.831,-246.542C981.881,-236.28 1114.82,-218.821 1229,-200 1237.41,-198.614 1246.31,-197.022 1254.96,-195.406"/>
<polygon fill="midnightblue" stroke="midnightblue" points="1255.8,-198.81 1264.97,-193.507 1254.5,-191.932 1255.8,-198.81"/>
</g>
<!-- Node22 -->
<g id="node22" class="node"><title>Node22</title>
<polygon fill="none" stroke="#bfbfbf" points="1393,-174.5 1393,-193.5 1509,-193.5 1509,-174.5 1393,-174.5"/>
<text text-anchor="middle" x="1451" y="-181.5" font-family="Helvetica,sans-Serif" font-size="10.00">iDynTree/Core/Twist.h</text>
</g>
<!-- Node1&#45;&gt;Node22 -->
<g id="edge38" class="edge"><title>Node1&#45;&gt;Node22</title>
<path fill="none" stroke="midnightblue" d="M899.654,-251.244C1008.44,-243.904 1212.17,-227.691 1384,-200 1391.45,-198.8 1399.3,-197.277 1406.92,-195.664"/>
<polygon fill="midnightblue" stroke="midnightblue" points="1407.71,-199.073 1416.73,-193.511 1406.21,-192.236 1407.71,-199.073"/>
</g>
<!-- Node23 -->
<g id="node23" class="node"><title>Node23</title>
<polygon fill="none" stroke="#bfbfbf" points="1527,-174.5 1527,-193.5 1685,-193.5 1685,-174.5 1527,-174.5"/>
<text text-anchor="middle" x="1606" y="-181.5" font-family="Helvetica,sans-Serif" font-size="10.00">iDynTree/Core/VectorDynSize.h</text>
</g>
<!-- Node1&#45;&gt;Node23 -->
<g id="edge39" class="edge"><title>Node1&#45;&gt;Node23</title>
<path fill="none" stroke="midnightblue" d="M899.616,-251.945C1028.28,-244.73 1293.72,-227.759 1517,-200 1527.71,-198.668 1539.11,-196.966 1550.04,-195.19"/>
<polygon fill="midnightblue" stroke="midnightblue" points="1550.63,-198.641 1559.92,-193.547 1549.48,-191.736 1550.63,-198.641"/>
</g>
<!-- Node24 -->
<g id="node24" class="node"><title>Node24</title>
<polygon fill="none" stroke="#bfbfbf" points="1703.5,-174.5 1703.5,-193.5 1856.5,-193.5 1856.5,-174.5 1703.5,-174.5"/>
<text text-anchor="middle" x="1780" y="-181.5" font-family="Helvetica,sans-Serif" font-size="10.00">iDynTree/Core/VectorFixSize.h</text>
</g>
<!-- Node1&#45;&gt;Node24 -->
<g id="edge40" class="edge"><title>Node1&#45;&gt;Node24</title>
<path fill="none" stroke="midnightblue" d="M899.738,-253.78C1052.3,-248.811 1401.44,-234.408 1693,-200 1703.61,-198.748 1714.9,-197.065 1725.7,-195.279"/>
<polygon fill="midnightblue" stroke="midnightblue" points="1726.6,-198.676 1735.87,-193.546 1725.43,-191.775 1726.6,-198.676"/>
</g>
<!-- Node25 -->
<g id="node25" class="node"><title>Node25</title>
<polygon fill="none" stroke="#bfbfbf" points="1874.5,-174.5 1874.5,-193.5 2035.5,-193.5 2035.5,-174.5 1874.5,-174.5"/>
<text text-anchor="middle" x="1955" y="-181.5" font-family="Helvetica,sans-Serif" font-size="10.00">iDynTree/KinDynComputations.h</text>
</g>
<!-- Node1&#45;&gt;Node25 -->
<g id="edge41" class="edge"><title>Node1&#45;&gt;Node25</title>
<path fill="none" stroke="midnightblue" d="M899.765,-254.786C1073.39,-251.428 1505.62,-239.472 1865,-200 1876.33,-198.756 1888.39,-197.027 1899.89,-195.183"/>
<polygon fill="midnightblue" stroke="midnightblue" points="1900.52,-198.627 1909.81,-193.543 1899.38,-191.721 1900.52,-198.627"/>
</g>
<!-- Node26 -->
<g id="node26" class="node"><title>Node26</title>
<polygon fill="none" stroke="#bfbfbf" points="2054,-174.5 2054,-193.5 2092,-193.5 2092,-174.5 2054,-174.5"/>
<text text-anchor="middle" x="2073" y="-181.5" font-family="Helvetica,sans-Serif" font-size="10.00">array</text>
</g>
<!-- Node1&#45;&gt;Node26 -->
<g id="edge42" class="edge"><title>Node1&#45;&gt;Node26</title>
<path fill="none" stroke="midnightblue" d="M899.695,-254.374C1151.33,-248.841 1934.05,-229.434 2044,-200 2045.97,-199.472 2047.96,-198.796 2049.93,-198.024"/>
<polygon fill="midnightblue" stroke="midnightblue" points="2051.77,-201.024 2059.34,-193.605 2048.8,-194.688 2051.77,-201.024"/>
</g>
<!-- Node27 -->
<g id="node27" class="node"><title>Node27</title>
<polygon fill="none" stroke="#bfbfbf" points="2110,-174.5 2110,-193.5 2162,-193.5 2162,-174.5 2110,-174.5"/>
<text text-anchor="middle" x="2136" y="-181.5" font-family="Helvetica,sans-Serif" font-size="10.00">ostream</text>
</g>
<!-- Node1&#45;&gt;Node27 -->
<g id="edge44" class="edge"><title>Node1&#45;&gt;Node27</title>
<path fill="none" stroke="midnightblue" d="M899.869,-256.249C1140.63,-256.443 1870.63,-252.562 2101,-200 2103.9,-199.338 2106.86,-198.446 2109.78,-197.424"/>
<polygon fill="midnightblue" stroke="midnightblue" points="2111.34,-200.566 2119.33,-193.6 2108.74,-194.068 2111.34,-200.566"/>
</g>
<!-- Node3 -->
<g id="node3" class="node"><title>Node3</title>
<g id="a_node3"><a xlink:href="_block_8h.html" target="_top" xlink:title="Block.h">
<polygon fill="none" stroke="black" points="273,-112.5 273,-131.5 323,-131.5 323,-112.5 273,-112.5"/>
<text text-anchor="middle" x="298" y="-119.5" font-family="Helvetica,sans-Serif" font-size="10.00">Block.h</text>
</a>
</g>
</g>
<!-- Node2&#45;&gt;Node3 -->
<g id="edge2" class="edge"><title>Node2&#45;&gt;Node3</title>
<path fill="none" stroke="midnightblue" d="M438.503,-174.403C410.371,-164.111 363.071,-146.806 331.211,-135.15"/>
<polygon fill="midnightblue" stroke="midnightblue" points="332.047,-131.73 321.454,-131.581 329.642,-138.303 332.047,-131.73"/>
</g>
<!-- Node2&#45;&gt;Node5 -->
<g id="edge9" class="edge"><title>Node2&#45;&gt;Node5</title>
<path fill="none" stroke="midnightblue" d="M463.019,-174.234C466.122,-147.548 475.503,-66.8773 479.803,-29.8931"/>
<polygon fill="midnightblue" stroke="midnightblue" points="483.328,-29.8816 481.006,-19.5442 476.375,-29.073 483.328,-29.8816"/>
</g>
<!-- Node4 -->
<g id="node4" class="node"><title>Node4</title>
<g id="a_node4"><a xlink:href="_parameters_8h.html" target="_top" xlink:title="Parameters.h">
<polygon fill="none" stroke="black" points="227.5,-56.5 227.5,-75.5 302.5,-75.5 302.5,-56.5 227.5,-56.5"/>
<text text-anchor="middle" x="265" y="-63.5" font-family="Helvetica,sans-Serif" font-size="10.00">Parameters.h</text>
</a>
</g>
</g>
<!-- Node3&#45;&gt;Node4 -->
<g id="edge3" class="edge"><title>Node3&#45;&gt;Node4</title>
<path fill="none" stroke="midnightblue" d="M292.551,-112.083C287.986,-104.613 281.332,-93.7244 275.707,-84.5199"/>
<polygon fill="midnightblue" stroke="midnightblue" points="278.549,-82.4588 270.348,-75.7511 272.576,-86.109 278.549,-82.4588"/>
</g>
<!-- Node6 -->
<g id="node6" class="node"><title>Node6</title>
<polygon fill="none" stroke="#bfbfbf" points="310.5,-0.5 310.5,-19.5 351.5,-19.5 351.5,-0.5 310.5,-0.5"/>
<text text-anchor="middle" x="331" y="-7.5" font-family="Helvetica,sans-Serif" font-size="10.00">string</text>
</g>
<!-- Node3&#45;&gt;Node6 -->
<g id="edge7" class="edge"><title>Node3&#45;&gt;Node6</title>
<path fill="none" stroke="midnightblue" d="M300.589,-112.368C305.939,-94.5366 318.311,-53.2953 325.518,-29.2717"/>
<polygon fill="midnightblue" stroke="midnightblue" points="328.901,-30.1754 328.423,-19.5914 322.197,-28.1639 328.901,-30.1754"/>
</g>
<!-- Node7 -->
<g id="node7" class="node"><title>Node7</title>
<polygon fill="none" stroke="#bfbfbf" points="146,-0.5 146,-19.5 190,-19.5 190,-0.5 146,-0.5"/>
<text text-anchor="middle" x="168" y="-7.5" font-family="Helvetica,sans-Serif" font-size="10.00">vector</text>
</g>
<!-- Node3&#45;&gt;Node7 -->
<g id="edge8" class="edge"><title>Node3&#45;&gt;Node7</title>
<path fill="none" stroke="midnightblue" d="M272.957,-118.521C227.906,-113.489 136.096,-100.425 117,-76 103.286,-58.4594 124.954,-38.2922 144.138,-25.1327"/>
<polygon fill="midnightblue" stroke="midnightblue" points="146.159,-27.994 152.642,-19.6142 142.348,-22.1222 146.159,-27.994"/>
</g>
<!-- Node4&#45;&gt;Node5 -->
<g id="edge4" class="edge"><title>Node4&#45;&gt;Node5</title>
<path fill="none" stroke="midnightblue" d="M299.384,-56.4435C339.487,-46.4641 405.465,-30.0457 446.175,-19.915"/>
<polygon fill="midnightblue" stroke="midnightblue" points="447.091,-23.294 455.949,-17.4826 445.4,-16.5011 447.091,-23.294"/>
</g>
<!-- Node4&#45;&gt;Node6 -->
<g id="edge5" class="edge"><title>Node4&#45;&gt;Node6</title>
<path fill="none" stroke="midnightblue" d="M275.604,-56.324C285.456,-48.2631 300.351,-36.0765 312.215,-26.3695"/>
<polygon fill="midnightblue" stroke="midnightblue" points="314.68,-28.8752 320.203,-19.8339 310.247,-23.4575 314.68,-28.8752"/>
</g>
<!-- Node4&#45;&gt;Node7 -->
<g id="edge6" class="edge"><title>Node4&#45;&gt;Node7</title>
<path fill="none" stroke="midnightblue" d="M249.415,-56.324C234.001,-47.7428 210.188,-34.486 192.29,-24.5224"/>
<polygon fill="midnightblue" stroke="midnightblue" points="193.986,-21.4606 183.546,-19.6545 190.581,-27.5767 193.986,-21.4606"/>
</g>
<!-- Node8&#45;&gt;Node5 -->
<g id="edge11" class="edge"><title>Node8&#45;&gt;Node5</title>
<path fill="none" stroke="midnightblue" d="M419.889,-56.324C431.15,-48.1066 448.287,-35.6017 461.709,-25.8069"/>
<polygon fill="midnightblue" stroke="midnightblue" points="463.88,-28.5559 469.894,-19.8339 459.753,-22.9014 463.88,-28.5559"/>
</g>
<!-- Node8&#45;&gt;Node6 -->
<g id="edge12" class="edge"><title>Node8&#45;&gt;Node6</title>
<path fill="none" stroke="midnightblue" d="M395.629,-56.324C383.842,-48.0577 365.868,-35.4527 351.864,-25.6322"/>
<polygon fill="midnightblue" stroke="midnightblue" points="353.538,-22.5307 343.341,-19.6545 349.518,-28.2619 353.538,-22.5307"/>
</g>
<!-- Node8&#45;&gt;Node7 -->
<g id="edge14" class="edge"><title>Node8&#45;&gt;Node7</title>
<path fill="none" stroke="midnightblue" d="M369.971,-56.4435C322.983,-45.8712 243.875,-28.0719 199.905,-18.1785"/>
<polygon fill="midnightblue" stroke="midnightblue" points="200.566,-14.7399 190.041,-15.9593 199.029,-21.5692 200.566,-14.7399"/>
</g>
<!-- Node9 -->
<g id="node9" class="node"><title>Node9</title>
<polygon fill="none" stroke="#bfbfbf" points="526,-0.5 526,-19.5 566,-19.5 566,-0.5 526,-0.5"/>
<text text-anchor="middle" x="546" y="-7.5" font-family="Helvetica,sans-Serif" font-size="10.00">utility</text>
</g>
<!-- Node8&#45;&gt;Node9 -->
<g id="edge13" class="edge"><title>Node8&#45;&gt;Node9</title>
<path fill="none" stroke="midnightblue" d="M429.867,-56.4435C453.184,-47.3194 490.257,-32.8125 516.227,-22.6501"/>
<polygon fill="midnightblue" stroke="midnightblue" points="517.548,-25.8917 525.585,-18.9883 514.998,-19.373 517.548,-25.8917"/>
</g>
<!-- Node10&#45;&gt;Node5 -->
<g id="edge16" class="edge"><title>Node10&#45;&gt;Node5</title>
<path fill="none" stroke="midnightblue" d="M209.737,-57.4576C212.533,-56.9615 215.307,-56.4719 218,-56 299.235,-41.7657 394.644,-25.6522 445.583,-17.0979"/>
<polygon fill="midnightblue" stroke="midnightblue" points="446.474,-20.4974 455.756,-15.3906 445.315,-13.5939 446.474,-20.4974"/>
</g>
<!-- Node10&#45;&gt;Node6 -->
<g id="edge17" class="edge"><title>Node10&#45;&gt;Node6</title>
<path fill="none" stroke="midnightblue" d="M193.828,-56.4435C222.862,-46.8247 269.954,-31.2238 300.703,-21.0372"/>
<polygon fill="midnightblue" stroke="midnightblue" points="302.062,-24.2739 310.454,-17.8067 299.861,-17.6291 302.062,-24.2739"/>
</g>
<!-- Node10&#45;&gt;Node7 -->
<g id="edge18" class="edge"><title>Node10&#45;&gt;Node7</title>
<path fill="none" stroke="midnightblue" d="M168,-56.083C168,-49.0059 168,-38.8611 168,-29.9865"/>
<polygon fill="midnightblue" stroke="midnightblue" points="171.5,-29.751 168,-19.7511 164.5,-29.7511 171.5,-29.751"/>
</g>
<!-- Node11&#45;&gt;Node5 -->
<g id="edge20" class="edge"><title>Node11&#45;&gt;Node5</title>
<path fill="none" stroke="midnightblue" d="M557.54,-56.324C543.5,-47.9002 521.952,-34.9709 505.457,-25.0741"/>
<polygon fill="midnightblue" stroke="midnightblue" points="506.8,-21.7983 496.424,-19.6545 503.198,-27.8007 506.8,-21.7983"/>
</g>
<!-- Node11&#45;&gt;Node6 -->
<g id="edge22" class="edge"><title>Node11&#45;&gt;Node6</title>
<path fill="none" stroke="midnightblue" d="M551.452,-60.396C509.051,-50.8952 411.657,-29.0724 361.733,-17.8863"/>
<polygon fill="midnightblue" stroke="midnightblue" points="362.361,-14.4403 351.838,-15.6691 360.831,-21.2709 362.361,-14.4403"/>
</g>
<!-- Node12 -->
<g id="node12" class="node"><title>Node12</title>
<polygon fill="none" stroke="#bfbfbf" points="584,-0.5 584,-19.5 636,-19.5 636,-0.5 584,-0.5"/>
<text text-anchor="middle" x="610" y="-7.5" font-family="Helvetica,sans-Serif" font-size="10.00">sstream</text>
</g>
<!-- Node11&#45;&gt;Node12 -->
<g id="edge21" class="edge"><title>Node11&#45;&gt;Node12</title>
<path fill="none" stroke="midnightblue" d="M578.275,-56.083C583.642,-48.4554 591.518,-37.2645 598.079,-27.9408"/>
<polygon fill="midnightblue" stroke="midnightblue" points="600.949,-29.9434 603.842,-19.7511 595.225,-25.9149 600.949,-29.9434"/>
</g>
<!-- Node13&#45;&gt;Node6 -->
<g id="edge24" class="edge"><title>Node13&#45;&gt;Node6</title>
<path fill="none" stroke="midnightblue" d="M70.1175,-58.5934C128.671,-47.9113 245.264,-26.6411 300.554,-16.5543"/>
<polygon fill="midnightblue" stroke="midnightblue" points="301.239,-19.9872 310.448,-14.7493 299.983,-13.1009 301.239,-19.9872"/>
</g>
<!-- Node13&#45;&gt;Node7 -->
<g id="edge25" class="edge"><title>Node13&#45;&gt;Node7</title>
<path fill="none" stroke="midnightblue" d="M56.0742,-56.4435C78.0598,-47.5171 112.734,-33.4387 137.664,-23.3168"/>
<polygon fill="midnightblue" stroke="midnightblue" points="139.076,-26.5213 147.024,-19.5164 136.442,-20.0355 139.076,-26.5213"/>
</g>
<!-- Node14&#45;&gt;Node5 -->
<g id="edge27" class="edge"><title>Node14&#45;&gt;Node5</title>
<path fill="none" stroke="midnightblue" d="M660.39,-56.4842C626.798,-47.9664 573.401,-34.4095 518.309,-20.3301"/>
<polygon fill="midnightblue" stroke="midnightblue" points="518.927,-16.8755 508.371,-17.7894 517.193,-23.6573 518.927,-16.8755"/>
</g>
<!-- Node14&#45;&gt;Node6 -->
<g id="edge28" class="edge"><title>Node14&#45;&gt;Node6</title>
<path fill="none" stroke="midnightblue" d="M649.489,-58.3785C574.706,-47.2538 425.743,-25.0941 361.573,-15.5481"/>
<polygon fill="midnightblue" stroke="midnightblue" points="362.078,-12.0847 351.672,-14.0751 361.048,-19.0085 362.078,-12.0847"/>
</g>
<!-- Node14&#45;&gt;Node9 -->
<g id="edge30" class="edge"><title>Node14&#45;&gt;Node9</title>
<path fill="none" stroke="midnightblue" d="M670.549,-56.4435C644.851,-47.0673 603.574,-32.0068 575.649,-21.818"/>
<polygon fill="midnightblue" stroke="midnightblue" points="576.613,-18.4439 566.019,-18.3042 574.213,-25.0198 576.613,-18.4439"/>
</g>
<!-- Node15 -->
<g id="node15" class="node"><title>Node15</title>
<polygon fill="none" stroke="#bfbfbf" points="654.5,-0.5 654.5,-19.5 737.5,-19.5 737.5,-0.5 654.5,-0.5"/>
<text text-anchor="middle" x="696" y="-7.5" font-family="Helvetica,sans-Serif" font-size="10.00">unordered_map</text>
</g>
<!-- Node14&#45;&gt;Node15 -->
<g id="edge29" class="edge"><title>Node14&#45;&gt;Node15</title>
<path fill="none" stroke="midnightblue" d="M694.33,-56.083C694.592,-49.0059 694.968,-38.8611 695.297,-29.9865"/>
<polygon fill="midnightblue" stroke="midnightblue" points="698.803,-29.8738 695.676,-19.7511 691.808,-29.6147 698.803,-29.8738"/>
</g>
<!-- Node16&#45;&gt;Node5 -->
<g id="edge32" class="edge"><title>Node16&#45;&gt;Node5</title>
<path fill="none" stroke="midnightblue" d="M615.589,-112.287C616.027,-98.6342 614.856,-72.0979 601,-56 589.867,-43.0656 548.813,-29.3495 518.018,-20.5085"/>
<polygon fill="midnightblue" stroke="midnightblue" points="518.6,-17.0366 508.026,-17.7053 516.709,-23.7764 518.6,-17.0366"/>
</g>
</g>
</svg>
