<?xml version="1.0" encoding="UTF-8" standalone="no"?>
<!DOCTYPE svg PUBLIC "-//W3C//DTD SVG 1.1//EN"
 "http://www.w3.org/Graphics/SVG/1.1/DTD/svg11.dtd">
<!-- Generated by graphviz version 2.36.0 (20140111.2315)
 -->
<!-- Title: /home/travis/build/robotology/wb&#45;toolbox/toolbox/src/base/WholeBodySingleton.cpp Pages: 1 -->
<svg width="739pt" height="162pt"
 viewBox="0.00 0.00 739.00 162.00" xmlns="http://www.w3.org/2000/svg" xmlns:xlink="http://www.w3.org/1999/xlink">
<g id="graph0" class="graph" transform="scale(1 1) rotate(0) translate(4 158)">
<title>/home/travis/build/robotology/wb&#45;toolbox/toolbox/src/base/WholeBodySingleton.cpp</title>
<!-- Node1 -->
<g id="node1" class="node"><title>Node1</title>
<polygon fill="#bfbfbf" stroke="black" points="322,-112.5 322,-153.5 526,-153.5 526,-112.5 322,-112.5"/>
<text text-anchor="start" x="330" y="-141.5" font-family="Helvetica,sans-Serif" font-size="10.00">/home/travis/build</text>
<text text-anchor="start" x="330" y="-130.5" font-family="Helvetica,sans-Serif" font-size="10.00">/robotology/wb&#45;toolbox</text>
<text text-anchor="middle" x="424" y="-119.5" font-family="Helvetica,sans-Serif" font-size="10.00">/toolbox/src/base/WholeBodySingleton.cpp</text>
</g>
<!-- Node2 -->
<g id="node2" class="node"><title>Node2</title>
<g id="a_node2"><a xlink:href="_whole_body_singleton_8h.html" target="_top" xlink:title="WholeBodySingleton.h">
<polygon fill="none" stroke="black" points="106,-56.5 106,-75.5 222,-75.5 222,-56.5 106,-56.5"/>
<text text-anchor="middle" x="164" y="-63.5" font-family="Helvetica,sans-Serif" font-size="10.00">WholeBodySingleton.h</text>
</a>
</g>
</g>
<!-- Node1&#45;&gt;Node2 -->
<g id="edge1" class="edge"><title>Node1&#45;&gt;Node2</title>
<path fill="none" stroke="midnightblue" d="M345.991,-112.498C301.009,-101.252 246.083,-87.5208 208.413,-78.1033"/>
<polygon fill="midnightblue" stroke="midnightblue" points="208.819,-74.597 198.268,-75.5671 207.121,-81.388 208.819,-74.597"/>
</g>
<!-- Node4 -->
<g id="node4" class="node"><title>Node4</title>
<polygon fill="none" stroke="#bfbfbf" points="305.5,-0.5 305.5,-19.5 346.5,-19.5 346.5,-0.5 305.5,-0.5"/>
<text text-anchor="middle" x="326" y="-7.5" font-family="Helvetica,sans-Serif" font-size="10.00">string</text>
</g>
<!-- Node1&#45;&gt;Node4 -->
<g id="edge26" class="edge"><title>Node1&#45;&gt;Node4</title>
<path fill="none" stroke="midnightblue" d="M370.671,-112.437C354.542,-103.801 338.582,-91.908 329,-76 320.712,-62.2407 320.705,-43.7138 322.337,-29.96"/>
<polygon fill="midnightblue" stroke="midnightblue" points="325.849,-30.1618 323.948,-19.7389 318.934,-29.0723 325.849,-30.1618"/>
</g>
<!-- Node6 -->
<g id="node6" class="node"><title>Node6</title>
<g id="a_node6"><a xlink:href="_configuration_8h.html" target="_top" xlink:title="Configuration.h">
<polygon fill="none" stroke="black" points="431.5,-56.5 431.5,-75.5 514.5,-75.5 514.5,-56.5 431.5,-56.5"/>
<text text-anchor="middle" x="473" y="-63.5" font-family="Helvetica,sans-Serif" font-size="10.00">Configuration.h</text>
</a>
</g>
</g>
<!-- Node1&#45;&gt;Node6 -->
<g id="edge5" class="edge"><title>Node1&#45;&gt;Node6</title>
<path fill="none" stroke="midnightblue" d="M438.702,-112.498C445.564,-103.395 453.655,-92.6623 460.254,-83.9081"/>
<polygon fill="midnightblue" stroke="midnightblue" points="463.253,-85.7446 466.477,-75.6525 457.663,-81.5309 463.253,-85.7446"/>
</g>
<!-- Node7 -->
<g id="node7" class="node"><title>Node7</title>
<polygon fill="none" stroke="#bfbfbf" points="537,-0.5 537,-19.5 575,-19.5 575,-0.5 537,-0.5"/>
<text text-anchor="middle" x="556" y="-7.5" font-family="Helvetica,sans-Serif" font-size="10.00">array</text>
</g>
<!-- Node1&#45;&gt;Node7 -->
<g id="edge23" class="edge"><title>Node1&#45;&gt;Node7</title>
<path fill="none" stroke="midnightblue" d="M487.972,-112.499C506.745,-103.981 525.766,-92.1426 539,-76 549.737,-62.9036 553.763,-43.7552 555.237,-29.6318"/>
<polygon fill="midnightblue" stroke="midnightblue" points="558.733,-29.8172 555.951,-19.594 551.75,-29.3204 558.733,-29.8172"/>
</g>
<!-- Node8 -->
<g id="node8" class="node"><title>Node8</title>
<polygon fill="none" stroke="#bfbfbf" points="451,-0.5 451,-19.5 495,-19.5 495,-0.5 451,-0.5"/>
<text text-anchor="middle" x="473" y="-7.5" font-family="Helvetica,sans-Serif" font-size="10.00">vector</text>
</g>
<!-- Node1&#45;&gt;Node8 -->
<g id="edge27" class="edge"><title>Node1&#45;&gt;Node8</title>
<path fill="none" stroke="midnightblue" d="M481.524,-112.369C497.816,-103.843 513.648,-92.034 523,-76 533.911,-57.2932 514.203,-37.8687 496.411,-25.1837"/>
<polygon fill="midnightblue" stroke="midnightblue" points="498.229,-22.1888 487.973,-19.5306 494.333,-28.0043 498.229,-22.1888"/>
</g>
<!-- Node9 -->
<g id="node9" class="node"><title>Node9</title>
<g id="a_node9"><a xlink:href="_log_8h.html" target="_top" xlink:title="Log.h">
<polygon fill="none" stroke="black" points="240.5,-56.5 240.5,-75.5 281.5,-75.5 281.5,-56.5 240.5,-56.5"/>
<text text-anchor="middle" x="261" y="-63.5" font-family="Helvetica,sans-Serif" font-size="10.00">Log.h</text>
</a>
</g>
</g>
<!-- Node1&#45;&gt;Node9 -->
<g id="edge10" class="edge"><title>Node1&#45;&gt;Node9</title>
<path fill="none" stroke="midnightblue" d="M375.095,-112.498C347.853,-101.635 314.795,-88.4518 291.29,-79.0787"/>
<polygon fill="midnightblue" stroke="midnightblue" points="292.431,-75.7659 281.846,-75.3128 289.838,-82.268 292.431,-75.7659"/>
</g>
<!-- Node11 -->
<g id="node11" class="node"><title>Node11</title>
<g id="a_node11"><a xlink:href="_parameters_8h.html" target="_top" xlink:title="Parameters.h">
<polygon fill="none" stroke="black" points="338.5,-56.5 338.5,-75.5 413.5,-75.5 413.5,-56.5 338.5,-56.5"/>
<text text-anchor="middle" x="376" y="-63.5" font-family="Helvetica,sans-Serif" font-size="10.00">Parameters.h</text>
</a>
</g>
</g>
<!-- Node1&#45;&gt;Node11 -->
<g id="edge14" class="edge"><title>Node1&#45;&gt;Node11</title>
<path fill="none" stroke="midnightblue" d="M409.598,-112.498C402.876,-103.395 394.951,-92.6623 388.486,-83.9081"/>
<polygon fill="midnightblue" stroke="midnightblue" points="391.146,-81.6177 382.39,-75.6525 385.514,-85.776 391.146,-81.6177"/>
</g>
<!-- Node12 -->
<g id="node12" class="node"><title>Node12</title>
<g id="a_node12"><a xlink:href="_robot_interface_8h.html" target="_top" xlink:title="RobotInterface.h">
<polygon fill="none" stroke="black" points="-0.5,-56.5 -0.5,-75.5 88.5,-75.5 88.5,-56.5 -0.5,-56.5"/>
<text text-anchor="middle" x="44" y="-63.5" font-family="Helvetica,sans-Serif" font-size="10.00">RobotInterface.h</text>
</a>
</g>
</g>
<!-- Node1&#45;&gt;Node12 -->
<g id="edge18" class="edge"><title>Node1&#45;&gt;Node12</title>
<path fill="none" stroke="midnightblue" d="M321.917,-114.538C250.162,-102.265 156.947,-86.3198 98.795,-76.3728"/>
<polygon fill="midnightblue" stroke="midnightblue" points="99.1589,-72.8843 88.7119,-74.6481 97.9786,-79.7841 99.1589,-72.8843"/>
</g>
<!-- Node14 -->
<g id="node14" class="node"><title>Node14</title>
<polygon fill="none" stroke="#bfbfbf" points="609,-56.5 609,-75.5 661,-75.5 661,-56.5 609,-56.5"/>
<text text-anchor="middle" x="635" y="-63.5" font-family="Helvetica,sans-Serif" font-size="10.00">ostream</text>
</g>
<!-- Node1&#45;&gt;Node14 -->
<g id="edge24" class="edge"><title>Node1&#45;&gt;Node14</title>
<path fill="none" stroke="midnightblue" d="M487.307,-112.498C523.842,-101.243 568.46,-87.498 599.033,-78.0798"/>
<polygon fill="midnightblue" stroke="midnightblue" points="600.305,-81.3505 608.831,-75.0615 598.244,-74.6607 600.305,-81.3505"/>
</g>
<!-- Node15 -->
<g id="node15" class="node"><title>Node15</title>
<polygon fill="none" stroke="#bfbfbf" points="679,-56.5 679,-75.5 731,-75.5 731,-56.5 679,-56.5"/>
<text text-anchor="middle" x="705" y="-63.5" font-family="Helvetica,sans-Serif" font-size="10.00">stddef.h</text>
</g>
<!-- Node1&#45;&gt;Node15 -->
<g id="edge25" class="edge"><title>Node1&#45;&gt;Node15</title>
<path fill="none" stroke="midnightblue" d="M512.667,-112.442C556.961,-102.522 611.603,-90.0618 668.712,-76.2676"/>
<polygon fill="midnightblue" stroke="midnightblue" points="669.752,-79.617 678.646,-73.8604 668.103,-72.8138 669.752,-79.617"/>
</g>
<!-- Node3 -->
<g id="node3" class="node"><title>Node3</title>
<polygon fill="none" stroke="#bfbfbf" points="235,-0.5 235,-19.5 287,-19.5 287,-0.5 235,-0.5"/>
<text text-anchor="middle" x="261" y="-7.5" font-family="Helvetica,sans-Serif" font-size="10.00">memory</text>
</g>
<!-- Node2&#45;&gt;Node3 -->
<g id="edge2" class="edge"><title>Node2&#45;&gt;Node3</title>
<path fill="none" stroke="midnightblue" d="M179.585,-56.324C194.999,-47.7428 218.812,-34.486 236.71,-24.5224"/>
<polygon fill="midnightblue" stroke="midnightblue" points="238.419,-27.5767 245.454,-19.6545 235.014,-21.4606 238.419,-27.5767"/>
</g>
<!-- Node2&#45;&gt;Node4 -->
<g id="edge3" class="edge"><title>Node2&#45;&gt;Node4</title>
<path fill="none" stroke="midnightblue" d="M189.669,-56.4435C218.366,-46.8782 264.809,-31.3969 295.378,-21.2075"/>
<polygon fill="midnightblue" stroke="midnightblue" points="296.707,-24.4537 305.087,-17.971 294.493,-17.8129 296.707,-24.4537"/>
</g>
<!-- Node5 -->
<g id="node5" class="node"><title>Node5</title>
<polygon fill="none" stroke="#bfbfbf" points="63.5,-0.5 63.5,-19.5 146.5,-19.5 146.5,-0.5 63.5,-0.5"/>
<text text-anchor="middle" x="105" y="-7.5" font-family="Helvetica,sans-Serif" font-size="10.00">unordered_map</text>
</g>
<!-- Node2&#45;&gt;Node5 -->
<g id="edge4" class="edge"><title>Node2&#45;&gt;Node5</title>
<path fill="none" stroke="midnightblue" d="M154.521,-56.324C145.799,-48.3414 132.657,-36.3128 122.102,-26.6529"/>
<polygon fill="midnightblue" stroke="midnightblue" points="124.392,-24.0036 114.652,-19.8339 119.666,-29.1674 124.392,-24.0036"/>
</g>
<!-- Node6&#45;&gt;Node3 -->
<g id="edge7" class="edge"><title>Node6&#45;&gt;Node3</title>
<path fill="none" stroke="midnightblue" d="M439.39,-56.4842C405.798,-47.9664 352.401,-34.4095 297.309,-20.3301"/>
<polygon fill="midnightblue" stroke="midnightblue" points="297.927,-16.8755 287.371,-17.7894 296.193,-23.6573 297.927,-16.8755"/>
</g>
<!-- Node6&#45;&gt;Node4 -->
<g id="edge8" class="edge"><title>Node6&#45;&gt;Node4</title>
<path fill="none" stroke="midnightblue" d="M449.707,-56.4435C424.472,-47.1732 384.11,-32.3464 356.394,-22.1652"/>
<polygon fill="midnightblue" stroke="midnightblue" points="357.4,-18.8062 346.807,-18.6433 354.987,-25.3769 357.4,-18.8062"/>
</g>
<!-- Node6&#45;&gt;Node7 -->
<g id="edge6" class="edge"><title>Node6&#45;&gt;Node7</title>
<path fill="none" stroke="midnightblue" d="M486.335,-56.324C499.162,-47.979 518.785,-35.2122 533.94,-25.3524"/>
<polygon fill="midnightblue" stroke="midnightblue" points="536.224,-28.0417 542.698,-19.6545 532.407,-22.1742 536.224,-28.0417"/>
</g>
<!-- Node6&#45;&gt;Node8 -->
<g id="edge9" class="edge"><title>Node6&#45;&gt;Node8</title>
<path fill="none" stroke="midnightblue" d="M473,-56.083C473,-49.0059 473,-38.8611 473,-29.9865"/>
<polygon fill="midnightblue" stroke="midnightblue" points="476.5,-29.751 473,-19.7511 469.5,-29.7511 476.5,-29.751"/>
</g>
<!-- Node9&#45;&gt;Node3 -->
<g id="edge11" class="edge"><title>Node9&#45;&gt;Node3</title>
<path fill="none" stroke="midnightblue" d="M261,-56.083C261,-49.0059 261,-38.8611 261,-29.9865"/>
<polygon fill="midnightblue" stroke="midnightblue" points="264.5,-29.751 261,-19.7511 257.5,-29.7511 264.5,-29.751"/>
</g>
<!-- Node9&#45;&gt;Node4 -->
<g id="edge13" class="edge"><title>Node9&#45;&gt;Node4</title>
<path fill="none" stroke="midnightblue" d="M271.443,-56.324C281.146,-48.2631 295.815,-36.0765 307.5,-26.3695"/>
<polygon fill="midnightblue" stroke="midnightblue" points="309.911,-28.9163 315.367,-19.8339 305.438,-23.532 309.911,-28.9163"/>
</g>
<!-- Node10 -->
<g id="node10" class="node"><title>Node10</title>
<polygon fill="none" stroke="#bfbfbf" points="165,-0.5 165,-19.5 217,-19.5 217,-0.5 165,-0.5"/>
<text text-anchor="middle" x="191" y="-7.5" font-family="Helvetica,sans-Serif" font-size="10.00">sstream</text>
</g>
<!-- Node9&#45;&gt;Node10 -->
<g id="edge12" class="edge"><title>Node9&#45;&gt;Node10</title>
<path fill="none" stroke="midnightblue" d="M249.753,-56.324C239.203,-48.1849 223.199,-35.8395 210.558,-26.0874"/>
<polygon fill="midnightblue" stroke="midnightblue" points="212.507,-23.1707 202.451,-19.8339 208.231,-28.7132 212.507,-23.1707"/>
</g>
<!-- Node11&#45;&gt;Node3 -->
<g id="edge15" class="edge"><title>Node11&#45;&gt;Node3</title>
<path fill="none" stroke="midnightblue" d="M357.778,-56.4435C339.104,-47.6751 309.844,-33.9355 288.383,-23.8579"/>
<polygon fill="midnightblue" stroke="midnightblue" points="289.676,-20.5988 279.137,-19.5164 286.701,-26.935 289.676,-20.5988"/>
</g>
<!-- Node11&#45;&gt;Node4 -->
<g id="edge16" class="edge"><title>Node11&#45;&gt;Node4</title>
<path fill="none" stroke="midnightblue" d="M367.744,-56.083C360.535,-48.2982 349.89,-36.8015 341.154,-27.3665"/>
<polygon fill="midnightblue" stroke="midnightblue" points="343.465,-24.7108 334.103,-19.7511 338.329,-29.4666 343.465,-24.7108"/>
</g>
<!-- Node11&#45;&gt;Node8 -->
<g id="edge17" class="edge"><title>Node11&#45;&gt;Node8</title>
<path fill="none" stroke="midnightblue" d="M391.585,-56.324C406.999,-47.7428 430.812,-34.486 448.71,-24.5224"/>
<polygon fill="midnightblue" stroke="midnightblue" points="450.419,-27.5767 457.454,-19.6545 447.014,-21.4606 450.419,-27.5767"/>
</g>
<!-- Node12&#45;&gt;Node3 -->
<g id="edge19" class="edge"><title>Node12&#45;&gt;Node3</title>
<path fill="none" stroke="midnightblue" d="M78.9146,-56.4694C113.566,-47.9805 168.454,-34.4737 224.837,-20.2778"/>
<polygon fill="midnightblue" stroke="midnightblue" points="225.792,-23.6464 234.633,-17.8079 224.081,-16.8588 225.792,-23.6464"/>
</g>
<!-- Node12&#45;&gt;Node4 -->
<g id="edge20" class="edge"><title>Node12&#45;&gt;Node4</title>
<path fill="none" stroke="midnightblue" d="M88.6882,-57.3073C149.606,-46.7811 254.962,-28.4232 295.442,-19.7719"/>
<polygon fill="midnightblue" stroke="midnightblue" points="296.448,-23.1328 305.428,-17.5106 294.901,-16.3057 296.448,-23.1328"/>
</g>
<!-- Node12&#45;&gt;Node5 -->
<g id="edge21" class="edge"><title>Node12&#45;&gt;Node5</title>
<path fill="none" stroke="midnightblue" d="M53.8007,-56.324C62.8181,-48.3414 76.406,-36.3128 87.318,-26.6529"/>
<polygon fill="midnightblue" stroke="midnightblue" points="89.8533,-29.083 95.021,-19.8339 85.2134,-23.8416 89.8533,-29.083"/>
</g>
<!-- Node13 -->
<g id="node13" class="node"><title>Node13</title>
<polygon fill="none" stroke="#bfbfbf" points="5,-0.5 5,-19.5 45,-19.5 45,-0.5 5,-0.5"/>
<text text-anchor="middle" x="25" y="-7.5" font-family="Helvetica,sans-Serif" font-size="10.00">utility</text>
</g>
<!-- Node12&#45;&gt;Node13 -->
<g id="edge22" class="edge"><title>Node12&#45;&gt;Node13</title>
<path fill="none" stroke="midnightblue" d="M40.8625,-56.083C38.3171,-48.8486 34.6438,-38.4087 31.4729,-29.3968"/>
<polygon fill="midnightblue" stroke="midnightblue" points="34.6998,-28.0225 28.0791,-19.7511 28.0966,-30.3459 34.6998,-28.0225"/>
</g>
</g>
</svg>
