<?xml version="1.0" encoding="UTF-8" standalone="no"?>
<!DOCTYPE svg PUBLIC "-//W3C//DTD SVG 1.1//EN"
 "http://www.w3.org/Graphics/SVG/1.1/DTD/svg11.dtd">
<!-- Generated by graphviz version 2.36.0 (20140111.2315)
 -->
<!-- Title: /home/travis/build/robotology/wb&#45;toolbox/toolbox/src/YarpWrite.cpp Pages: 1 -->
<svg width="1140pt" height="286pt"
 viewBox="0.00 0.00 1139.62 286.00" xmlns="http://www.w3.org/2000/svg" xmlns:xlink="http://www.w3.org/1999/xlink">
<g id="graph0" class="graph" transform="scale(1 1) rotate(0) translate(4 282)">
<title>/home/travis/build/robotology/wb&#45;toolbox/toolbox/src/YarpWrite.cpp</title>
<!-- Node1 -->
<g id="node1" class="node"><title>Node1</title>
<polygon fill="#bfbfbf" stroke="black" points="461.125,-236.5 461.125,-277.5 594.125,-277.5 594.125,-236.5 461.125,-236.5"/>
<text text-anchor="start" x="469.125" y="-265.5" font-family="Helvetica,sans-Serif" font-size="10.00">/home/travis/build</text>
<text text-anchor="start" x="469.125" y="-254.5" font-family="Helvetica,sans-Serif" font-size="10.00">/robotology/wb&#45;toolbox</text>
<text text-anchor="middle" x="527.625" y="-243.5" font-family="Helvetica,sans-Serif" font-size="10.00">/toolbox/src/YarpWrite.cpp</text>
</g>
<!-- Node2 -->
<g id="node2" class="node"><title>Node2</title>
<g id="a_node2"><a xlink:href="_yarp_write_8h.html" target="_top" xlink:title="YarpWrite.h">
<polygon fill="none" stroke="black" points="114.625,-174.5 114.625,-193.5 182.625,-193.5 182.625,-174.5 114.625,-174.5"/>
<text text-anchor="middle" x="148.625" y="-181.5" font-family="Helvetica,sans-Serif" font-size="10.00">YarpWrite.h</text>
</a>
</g>
</g>
<!-- Node1&#45;&gt;Node2 -->
<g id="edge1" class="edge"><title>Node1&#45;&gt;Node2</title>
<path fill="none" stroke="midnightblue" d="M460.836,-247.407C393.6,-238.125 287.166,-221.701 196.625,-200 192.422,-198.993 188.05,-197.814 183.731,-196.568"/>
<polygon fill="midnightblue" stroke="midnightblue" points="184.44,-193.126 173.855,-193.588 182.418,-199.828 184.44,-193.126"/>
</g>
<!-- Node4 -->
<g id="node4" class="node"><title>Node4</title>
<g id="a_node4"><a xlink:href="_parameters_8h.html" target="_top" xlink:title="Parameters.h">
<polygon fill="none" stroke="black" points="215.125,-56.5 215.125,-75.5 290.125,-75.5 290.125,-56.5 215.125,-56.5"/>
<text text-anchor="middle" x="252.625" y="-63.5" font-family="Helvetica,sans-Serif" font-size="10.00">Parameters.h</text>
</a>
</g>
</g>
<!-- Node1&#45;&gt;Node4 -->
<g id="edge23" class="edge"><title>Node1&#45;&gt;Node4</title>
<path fill="none" stroke="midnightblue" d="M460.932,-248.63C421.308,-241.487 371.881,-227.467 335.625,-200 295.611,-169.687 270.172,-114.017 259.076,-85.2622"/>
<polygon fill="midnightblue" stroke="midnightblue" points="262.279,-83.8318 255.525,-75.6684 255.714,-86.2615 262.279,-83.8318"/>
</g>
<!-- Node8 -->
<g id="node8" class="node"><title>Node8</title>
<g id="a_node8"><a xlink:href="_block_information_8h.html" target="_top" xlink:title="BlockInformation.h">
<polygon fill="none" stroke="black" points="344.625,-174.5 344.625,-193.5 442.625,-193.5 442.625,-174.5 344.625,-174.5"/>
<text text-anchor="middle" x="393.625" y="-181.5" font-family="Helvetica,sans-Serif" font-size="10.00">BlockInformation.h</text>
</a>
</g>
</g>
<!-- Node1&#45;&gt;Node8 -->
<g id="edge11" class="edge"><title>Node1&#45;&gt;Node8</title>
<path fill="none" stroke="midnightblue" d="M490.654,-236.411C467.782,-224.292 439.024,-209.055 418.774,-198.325"/>
<polygon fill="midnightblue" stroke="midnightblue" points="420.325,-195.186 409.85,-193.597 417.047,-201.372 420.325,-195.186"/>
</g>
<!-- Node9 -->
<g id="node9" class="node"><title>Node9</title>
<polygon fill="none" stroke="#bfbfbf" points="442.625,-112.5 442.625,-131.5 480.625,-131.5 480.625,-112.5 442.625,-112.5"/>
<text text-anchor="middle" x="461.625" y="-119.5" font-family="Helvetica,sans-Serif" font-size="10.00">tuple</text>
</g>
<!-- Node1&#45;&gt;Node9 -->
<g id="edge31" class="edge"><title>Node1&#45;&gt;Node9</title>
<path fill="none" stroke="midnightblue" d="M515.235,-236.387C508.758,-225.795 500.895,-212.383 494.625,-200 484.696,-180.391 474.989,-157.1 468.703,-141.307"/>
<polygon fill="midnightblue" stroke="midnightblue" points="471.848,-139.74 464.936,-131.71 465.332,-142.297 471.848,-139.74"/>
</g>
<!-- Node11 -->
<g id="node11" class="node"><title>Node11</title>
<g id="a_node11"><a xlink:href="_log_8h.html" target="_top" xlink:title="Log.h">
<polygon fill="none" stroke="black" points="385.125,-56.5 385.125,-75.5 426.125,-75.5 426.125,-56.5 385.125,-56.5"/>
<text text-anchor="middle" x="405.625" y="-63.5" font-family="Helvetica,sans-Serif" font-size="10.00">Log.h</text>
</a>
</g>
</g>
<!-- Node1&#45;&gt;Node11 -->
<g id="edge16" class="edge"><title>Node1&#45;&gt;Node11</title>
<path fill="none" stroke="midnightblue" d="M527.246,-236.116C525.693,-206.132 518.791,-148.929 489.625,-112 482.2,-102.599 456.294,-89.4333 435.192,-79.771"/>
<polygon fill="midnightblue" stroke="midnightblue" points="436.475,-76.5103 425.919,-75.6042 433.606,-82.8953 436.475,-76.5103"/>
</g>
<!-- Node13 -->
<g id="node13" class="node"><title>Node13</title>
<g id="a_node13"><a xlink:href="_parameter_8h.html" target="_top" xlink:title="Parameter.h">
<polygon fill="none" stroke="black" points="12.6247,-56.5 12.6247,-75.5 82.6247,-75.5 82.6247,-56.5 12.6247,-56.5"/>
<text text-anchor="middle" x="47.6247" y="-63.5" font-family="Helvetica,sans-Serif" font-size="10.00">Parameter.h</text>
</a>
</g>
</g>
<!-- Node1&#45;&gt;Node13 -->
<g id="edge20" class="edge"><title>Node1&#45;&gt;Node13</title>
<path fill="none" stroke="midnightblue" d="M460.849,-254.96C356.292,-252.065 160.223,-241.141 105.625,-200 68.505,-172.03 54.7636,-115.29 49.9836,-85.7802"/>
<polygon fill="midnightblue" stroke="midnightblue" points="53.4074,-84.9993 48.52,-75.599 46.4786,-85.9953 53.4074,-84.9993"/>
</g>
<!-- Node14 -->
<g id="node14" class="node"><title>Node14</title>
<g id="a_node14"><a xlink:href="_signal_8h.html" target="_top" xlink:title="Signal.h">
<polygon fill="none" stroke="black" points="536.625,-112.5 536.625,-131.5 588.625,-131.5 588.625,-112.5 536.625,-112.5"/>
<text text-anchor="middle" x="562.625" y="-119.5" font-family="Helvetica,sans-Serif" font-size="10.00">Signal.h</text>
</a>
</g>
</g>
<!-- Node1&#45;&gt;Node14 -->
<g id="edge24" class="edge"><title>Node1&#45;&gt;Node14</title>
<path fill="none" stroke="midnightblue" d="M532.789,-236.375C539.514,-210.82 551.184,-166.474 557.759,-141.49"/>
<polygon fill="midnightblue" stroke="midnightblue" points="561.15,-142.356 560.31,-131.794 554.381,-140.574 561.15,-142.356"/>
</g>
<!-- Node15 -->
<g id="node15" class="node"><title>Node15</title>
<polygon fill="none" stroke="#bfbfbf" points="575.125,-174.5 575.125,-193.5 690.125,-193.5 690.125,-174.5 575.125,-174.5"/>
<text text-anchor="middle" x="632.625" y="-181.5" font-family="Helvetica,sans-Serif" font-size="10.00">yarp/os/BufferedPort.h</text>
</g>
<!-- Node1&#45;&gt;Node15 -->
<g id="edge26" class="edge"><title>Node1&#45;&gt;Node15</title>
<path fill="none" stroke="midnightblue" d="M556.594,-236.411C573.948,-224.676 595.628,-210.017 611.391,-199.358"/>
<polygon fill="midnightblue" stroke="midnightblue" points="613.588,-202.098 619.911,-193.597 609.667,-196.299 613.588,-202.098"/>
</g>
<!-- Node16 -->
<g id="node16" class="node"><title>Node16</title>
<polygon fill="none" stroke="#bfbfbf" points="708.125,-174.5 708.125,-193.5 805.125,-193.5 805.125,-174.5 708.125,-174.5"/>
<text text-anchor="middle" x="756.625" y="-181.5" font-family="Helvetica,sans-Serif" font-size="10.00">yarp/os/Network.h</text>
</g>
<!-- Node1&#45;&gt;Node16 -->
<g id="edge27" class="edge"><title>Node1&#45;&gt;Node16</title>
<path fill="none" stroke="midnightblue" d="M590.806,-236.411C632.135,-223.597 684.712,-207.296 719.455,-196.524"/>
<polygon fill="midnightblue" stroke="midnightblue" points="720.68,-199.809 729.195,-193.504 718.607,-193.123 720.68,-199.809"/>
</g>
<!-- Node17 -->
<g id="node17" class="node"><title>Node17</title>
<polygon fill="none" stroke="#bfbfbf" points="823.625,-169 823.625,-199 951.625,-199 951.625,-169 823.625,-169"/>
<text text-anchor="start" x="831.625" y="-187" font-family="Helvetica,sans-Serif" font-size="10.00">yarp/os/PortReaderBuffer</text>
<text text-anchor="middle" x="887.625" y="-176" font-family="Helvetica,sans-Serif" font-size="10.00">&#45;inl.h</text>
</g>
<!-- Node1&#45;&gt;Node17 -->
<g id="edge28" class="edge"><title>Node1&#45;&gt;Node17</title>
<path fill="none" stroke="midnightblue" d="M594.395,-243.056C652.373,-231.786 738.574,-214.954 813.625,-200 813.725,-199.98 813.826,-199.96 813.926,-199.94"/>
<polygon fill="midnightblue" stroke="midnightblue" points="814.335,-203.428 823.455,-198.035 812.962,-196.563 814.335,-203.428"/>
</g>
<!-- Node18 -->
<g id="node18" class="node"><title>Node18</title>
<polygon fill="none" stroke="#bfbfbf" points="970.125,-174.5 970.125,-193.5 1061.12,-193.5 1061.12,-174.5 970.125,-174.5"/>
<text text-anchor="middle" x="1015.62" y="-181.5" font-family="Helvetica,sans-Serif" font-size="10.00">yarp/sig/Vector.h</text>
</g>
<!-- Node1&#45;&gt;Node18 -->
<g id="edge29" class="edge"><title>Node1&#45;&gt;Node18</title>
<path fill="none" stroke="midnightblue" d="M594.479,-250.234C679.943,-242.206 832.225,-225.685 960.625,-200 966.084,-198.908 971.799,-197.572 977.395,-196.151"/>
<polygon fill="midnightblue" stroke="midnightblue" points="978.487,-199.483 987.256,-193.538 976.693,-192.716 978.487,-199.483"/>
</g>
<!-- Node19 -->
<g id="node19" class="node"><title>Node19</title>
<polygon fill="none" stroke="#bfbfbf" points="1079.62,-174.5 1079.62,-193.5 1131.62,-193.5 1131.62,-174.5 1079.62,-174.5"/>
<text text-anchor="middle" x="1105.62" y="-181.5" font-family="Helvetica,sans-Serif" font-size="10.00">ostream</text>
</g>
<!-- Node1&#45;&gt;Node19 -->
<g id="edge30" class="edge"><title>Node1&#45;&gt;Node19</title>
<path fill="none" stroke="midnightblue" d="M594.201,-255.328C697.534,-252.906 902.073,-242.582 1069.62,-200 1072.61,-199.241 1075.68,-198.277 1078.69,-197.206"/>
<polygon fill="midnightblue" stroke="midnightblue" points="1080.01,-200.451 1088.03,-193.535 1077.44,-193.936 1080.01,-200.451"/>
</g>
<!-- Node3 -->
<g id="node3" class="node"><title>Node3</title>
<g id="a_node3"><a xlink:href="_block_8h.html" target="_top" xlink:title="Block.h">
<polygon fill="none" stroke="black" points="123.625,-112.5 123.625,-131.5 173.625,-131.5 173.625,-112.5 123.625,-112.5"/>
<text text-anchor="middle" x="148.625" y="-119.5" font-family="Helvetica,sans-Serif" font-size="10.00">Block.h</text>
</a>
</g>
</g>
<!-- Node2&#45;&gt;Node3 -->
<g id="edge2" class="edge"><title>Node2&#45;&gt;Node3</title>
<path fill="none" stroke="midnightblue" d="M148.625,-174.403C148.625,-165.938 148.625,-152.728 148.625,-141.82"/>
<polygon fill="midnightblue" stroke="midnightblue" points="152.125,-141.581 148.625,-131.581 145.125,-141.581 152.125,-141.581"/>
</g>
<!-- Node5 -->
<g id="node5" class="node"><title>Node5</title>
<polygon fill="none" stroke="#bfbfbf" points="300.625,-0.5 300.625,-19.5 352.625,-19.5 352.625,-0.5 300.625,-0.5"/>
<text text-anchor="middle" x="326.625" y="-7.5" font-family="Helvetica,sans-Serif" font-size="10.00">memory</text>
</g>
<!-- Node2&#45;&gt;Node5 -->
<g id="edge9" class="edge"><title>Node2&#45;&gt;Node5</title>
<path fill="none" stroke="midnightblue" d="M166.759,-174.268C197.666,-158.569 260.859,-122.801 298.625,-76 309.706,-62.2678 317.166,-43.4874 321.58,-29.6441"/>
<polygon fill="midnightblue" stroke="midnightblue" points="325.014,-30.3725 324.479,-19.7912 318.299,-28.397 325.014,-30.3725"/>
</g>
<!-- Node6 -->
<g id="node6" class="node"><title>Node6</title>
<polygon fill="none" stroke="#bfbfbf" points="110.125,-0.5 110.125,-19.5 151.125,-19.5 151.125,-0.5 110.125,-0.5"/>
<text text-anchor="middle" x="130.625" y="-7.5" font-family="Helvetica,sans-Serif" font-size="10.00">string</text>
</g>
<!-- Node2&#45;&gt;Node6 -->
<g id="edge10" class="edge"><title>Node2&#45;&gt;Node6</title>
<path fill="none" stroke="midnightblue" d="M126.548,-174.446C92.7802,-160.004 29.4981,-127.248 3.6247,-76 -16.691,-35.7601 56.0645,-19.8835 99.8274,-14.067"/>
<polygon fill="midnightblue" stroke="midnightblue" points="100.491,-17.512 109.993,-12.8254 99.6421,-10.5637 100.491,-17.512"/>
</g>
<!-- Node3&#45;&gt;Node4 -->
<g id="edge3" class="edge"><title>Node3&#45;&gt;Node4</title>
<path fill="none" stroke="midnightblue" d="M165.334,-112.324C181.937,-103.703 207.627,-90.3643 226.845,-80.3855"/>
<polygon fill="midnightblue" stroke="midnightblue" points="228.695,-83.3689 235.957,-75.6545 225.469,-77.1565 228.695,-83.3689"/>
</g>
<!-- Node3&#45;&gt;Node6 -->
<g id="edge7" class="edge"><title>Node3&#45;&gt;Node6</title>
<path fill="none" stroke="midnightblue" d="M145.192,-112.194C141.866,-103.235 136.988,-88.8758 134.625,-76 131.814,-60.6905 130.87,-43.0488 130.597,-30.0109"/>
<polygon fill="midnightblue" stroke="midnightblue" points="134.096,-29.8789 130.501,-19.9129 127.097,-29.946 134.096,-29.8789"/>
</g>
<!-- Node7 -->
<g id="node7" class="node"><title>Node7</title>
<polygon fill="none" stroke="#bfbfbf" points="190.625,-0.5 190.625,-19.5 234.625,-19.5 234.625,-0.5 190.625,-0.5"/>
<text text-anchor="middle" x="212.625" y="-7.5" font-family="Helvetica,sans-Serif" font-size="10.00">vector</text>
</g>
<!-- Node3&#45;&gt;Node7 -->
<g id="edge8" class="edge"><title>Node3&#45;&gt;Node7</title>
<path fill="none" stroke="midnightblue" d="M153.647,-112.368C164.162,-94.2957 188.668,-52.1764 202.555,-28.3074"/>
<polygon fill="midnightblue" stroke="midnightblue" points="205.622,-29.9951 207.626,-19.5914 199.572,-26.4748 205.622,-29.9951"/>
</g>
<!-- Node4&#45;&gt;Node5 -->
<g id="edge4" class="edge"><title>Node4&#45;&gt;Node5</title>
<path fill="none" stroke="midnightblue" d="M264.514,-56.324C275.775,-48.1066 292.911,-35.6017 306.334,-25.8069"/>
<polygon fill="midnightblue" stroke="midnightblue" points="308.504,-28.5559 314.519,-19.8339 304.378,-22.9014 308.504,-28.5559"/>
</g>
<!-- Node4&#45;&gt;Node6 -->
<g id="edge5" class="edge"><title>Node4&#45;&gt;Node6</title>
<path fill="none" stroke="midnightblue" d="M233.293,-56.4435C213.305,-47.5961 181.882,-33.6875 159.061,-23.5865"/>
<polygon fill="midnightblue" stroke="midnightblue" points="160.426,-20.3635 149.866,-19.5164 157.593,-26.7645 160.426,-20.3635"/>
</g>
<!-- Node4&#45;&gt;Node7 -->
<g id="edge6" class="edge"><title>Node4&#45;&gt;Node7</title>
<path fill="none" stroke="midnightblue" d="M246.02,-56.083C240.369,-48.4554 232.08,-37.2645 225.173,-27.9408"/>
<polygon fill="midnightblue" stroke="midnightblue" points="227.872,-25.7034 219.107,-19.7511 222.247,-29.87 227.872,-25.7034"/>
</g>
<!-- Node8&#45;&gt;Node6 -->
<g id="edge12" class="edge"><title>Node8&#45;&gt;Node6</title>
<path fill="none" stroke="midnightblue" d="M376.087,-174.486C341.999,-157.626 264.947,-117.972 205.625,-76 184.025,-60.7176 161.352,-40.381 146.665,-26.5528"/>
<polygon fill="midnightblue" stroke="midnightblue" points="149.038,-23.9797 139.385,-19.6134 144.209,-29.0466 149.038,-23.9797"/>
</g>
<!-- Node8&#45;&gt;Node7 -->
<g id="edge15" class="edge"><title>Node8&#45;&gt;Node7</title>
<path fill="none" stroke="midnightblue" d="M388.933,-174.244C376.668,-152.019 341.603,-92.5927 298.625,-56 282.537,-42.3022 261.576,-31.227 244.376,-23.4914"/>
<polygon fill="midnightblue" stroke="midnightblue" points="245.317,-20.085 234.749,-19.3282 242.538,-26.51 245.317,-20.085"/>
</g>
<!-- Node8&#45;&gt;Node9 -->
<g id="edge13" class="edge"><title>Node8&#45;&gt;Node9</title>
<path fill="none" stroke="midnightblue" d="M403.367,-174.403C413.971,-165.047 431.144,-149.895 444.104,-138.46"/>
<polygon fill="midnightblue" stroke="midnightblue" points="446.717,-140.821 451.9,-131.581 442.086,-135.572 446.717,-140.821"/>
</g>
<!-- Node10 -->
<g id="node10" class="node"><title>Node10</title>
<polygon fill="none" stroke="#bfbfbf" points="384.625,-112.5 384.625,-131.5 424.625,-131.5 424.625,-112.5 384.625,-112.5"/>
<text text-anchor="middle" x="404.625" y="-119.5" font-family="Helvetica,sans-Serif" font-size="10.00">utility</text>
</g>
<!-- Node8&#45;&gt;Node10 -->
<g id="edge14" class="edge"><title>Node8&#45;&gt;Node10</title>
<path fill="none" stroke="midnightblue" d="M395.201,-174.403C396.769,-165.849 399.226,-152.45 401.237,-141.476"/>
<polygon fill="midnightblue" stroke="midnightblue" points="404.691,-142.048 403.052,-131.581 397.806,-140.785 404.691,-142.048"/>
</g>
<!-- Node11&#45;&gt;Node5 -->
<g id="edge17" class="edge"><title>Node11&#45;&gt;Node5</title>
<path fill="none" stroke="midnightblue" d="M392.932,-56.324C380.724,-47.979 362.046,-35.2122 347.622,-25.3524"/>
<polygon fill="midnightblue" stroke="midnightblue" points="349.517,-22.4082 339.286,-19.6545 345.566,-28.1871 349.517,-22.4082"/>
</g>
<!-- Node11&#45;&gt;Node6 -->
<g id="edge19" class="edge"><title>Node11&#45;&gt;Node6</title>
<path fill="none" stroke="midnightblue" d="M384.955,-60.9412C336.96,-51.5167 217.765,-28.1111 161.266,-17.0168"/>
<polygon fill="midnightblue" stroke="midnightblue" points="161.646,-13.5247 151.159,-15.0322 160.297,-20.3935 161.646,-13.5247"/>
</g>
<!-- Node12 -->
<g id="node12" class="node"><title>Node12</title>
<polygon fill="none" stroke="#bfbfbf" points="379.625,-0.5 379.625,-19.5 431.625,-19.5 431.625,-0.5 379.625,-0.5"/>
<text text-anchor="middle" x="405.625" y="-7.5" font-family="Helvetica,sans-Serif" font-size="10.00">sstream</text>
</g>
<!-- Node11&#45;&gt;Node12 -->
<g id="edge18" class="edge"><title>Node11&#45;&gt;Node12</title>
<path fill="none" stroke="midnightblue" d="M405.625,-56.083C405.625,-49.0059 405.625,-38.8611 405.625,-29.9865"/>
<polygon fill="midnightblue" stroke="midnightblue" points="409.125,-29.751 405.625,-19.7511 402.125,-29.7511 409.125,-29.751"/>
</g>
<!-- Node13&#45;&gt;Node6 -->
<g id="edge21" class="edge"><title>Node13&#45;&gt;Node6</title>
<path fill="none" stroke="midnightblue" d="M60.9601,-56.324C73.7867,-47.979 93.4097,-35.2122 108.564,-25.3524"/>
<polygon fill="midnightblue" stroke="midnightblue" points="110.849,-28.0417 117.322,-19.6545 107.032,-22.1742 110.849,-28.0417"/>
</g>
<!-- Node13&#45;&gt;Node7 -->
<g id="edge22" class="edge"><title>Node13&#45;&gt;Node7</title>
<path fill="none" stroke="midnightblue" d="M73.7694,-56.4435C102.878,-46.9171 149.916,-31.5228 181.054,-21.3321"/>
<polygon fill="midnightblue" stroke="midnightblue" points="182.147,-24.6572 190.563,-18.2203 179.97,-18.0044 182.147,-24.6572"/>
</g>
<!-- Node14&#45;&gt;Node5 -->
<g id="edge25" class="edge"><title>Node14&#45;&gt;Node5</title>
<path fill="none" stroke="midnightblue" d="M546.65,-112.399C522.611,-99.568 475.585,-74.9012 434.625,-56 409.194,-44.2651 379.827,-32.1169 358.142,-23.4048"/>
<polygon fill="midnightblue" stroke="midnightblue" points="359.345,-20.1167 348.76,-19.6576 356.749,-26.6173 359.345,-20.1167"/>
</g>
</g>
</svg>
