<?xml version="1.0" encoding="UTF-8" standalone="no"?>
<!DOCTYPE svg PUBLIC "-//W3C//DTD SVG 1.1//EN"
 "http://www.w3.org/Graphics/SVG/1.1/DTD/svg11.dtd">
<!-- Generated by graphviz version 2.43.0 (0)
 -->
<!-- Title: /home/runner/work/wb&#45;toolbox/wb&#45;toolbox/toolbox/library/src/YarpClock.cpp Pages: 1 -->
<svg width="1115pt" height="162pt"
 viewBox="0.00 0.00 1115.00 162.00" xmlns="http://www.w3.org/2000/svg" xmlns:xlink="http://www.w3.org/1999/xlink">
<g id="graph0" class="graph" transform="scale(1 1) rotate(0) translate(4 158)">
<title>/home/runner/work/wb&#45;toolbox/wb&#45;toolbox/toolbox/library/src/YarpClock.cpp</title>
<!-- Node1 -->
<g id="node1" class="node">
<title>Node1</title>
<g id="a_node1"><a xlink:title=" ">
<polygon fill="#bfbfbf" stroke="black" points="663,-112.5 663,-153.5 818,-153.5 818,-112.5 663,-112.5"/>
<text text-anchor="start" x="671" y="-141.5" font-family="Helvetica,sans-Serif" font-size="10.00">/home/runner/work/wb</text>
<text text-anchor="start" x="671" y="-130.5" font-family="Helvetica,sans-Serif" font-size="10.00">&#45;toolbox/wb&#45;toolbox/toolbox</text>
<text text-anchor="middle" x="740.5" y="-119.5" font-family="Helvetica,sans-Serif" font-size="10.00">/library/src/YarpClock.cpp</text>
</a>
</g>
</g>
<!-- Node2 -->
<g id="node2" class="node">
<title>Node2</title>
<g id="a_node2"><a xlink:href="_yarp_clock_8h.html" target="_top" xlink:title=" ">
<polygon fill="none" stroke="black" points="47.5,-56.5 47.5,-75.5 207.5,-75.5 207.5,-56.5 47.5,-56.5"/>
<text text-anchor="middle" x="127.5" y="-63.5" font-family="Helvetica,sans-Serif" font-size="10.00">WBToolbox/Block/YarpClock.h</text>
</a>
</g>
</g>
<!-- Node1&#45;&gt;Node2 -->
<g id="edge1" class="edge">
<title>Node1&#45;&gt;Node2</title>
<path fill="none" stroke="midnightblue" d="M662.86,-123.77C549.38,-111.73 338.66,-89.39 218.21,-76.62"/>
<polygon fill="midnightblue" stroke="midnightblue" points="218.22,-73.1 207.91,-75.53 217.48,-80.06 218.22,-73.1"/>
</g>
<!-- Node5 -->
<g id="node5" class="node">
<title>Node5</title>
<g id="a_node5"><a xlink:title=" ">
<polygon fill="none" stroke="#bfbfbf" points="225.5,-56.5 225.5,-75.5 425.5,-75.5 425.5,-56.5 225.5,-56.5"/>
<text text-anchor="middle" x="325.5" y="-63.5" font-family="Helvetica,sans-Serif" font-size="10.00">BlockFactory/Core/BlockInformation.h</text>
</a>
</g>
</g>
<!-- Node1&#45;&gt;Node5 -->
<g id="edge4" class="edge">
<title>Node1&#45;&gt;Node5</title>
<path fill="none" stroke="midnightblue" d="M662.93,-119.85C584.17,-107.51 463.63,-88.63 389.95,-77.09"/>
<polygon fill="midnightblue" stroke="midnightblue" points="390.3,-73.61 379.88,-75.52 389.21,-80.52 390.3,-73.61"/>
</g>
<!-- Node6 -->
<g id="node6" class="node">
<title>Node6</title>
<g id="a_node6"><a xlink:title=" ">
<polygon fill="none" stroke="#bfbfbf" points="443.5,-56.5 443.5,-75.5 577.5,-75.5 577.5,-56.5 443.5,-56.5"/>
<text text-anchor="middle" x="510.5" y="-63.5" font-family="Helvetica,sans-Serif" font-size="10.00">BlockFactory/Core/Log.h</text>
</a>
</g>
</g>
<!-- Node1&#45;&gt;Node6 -->
<g id="edge5" class="edge">
<title>Node1&#45;&gt;Node6</title>
<path fill="none" stroke="midnightblue" d="M671.49,-112.5C632.04,-101.35 583.94,-87.76 550.65,-78.35"/>
<polygon fill="midnightblue" stroke="midnightblue" points="551.39,-74.92 540.81,-75.57 549.49,-81.65 551.39,-74.92"/>
</g>
<!-- Node7 -->
<g id="node7" class="node">
<title>Node7</title>
<g id="a_node7"><a xlink:title=" ">
<polygon fill="none" stroke="#bfbfbf" points="595.5,-56.5 595.5,-75.5 741.5,-75.5 741.5,-56.5 595.5,-56.5"/>
<text text-anchor="middle" x="668.5" y="-63.5" font-family="Helvetica,sans-Serif" font-size="10.00">BlockFactory/Core/Signal.h</text>
</a>
</g>
</g>
<!-- Node1&#45;&gt;Node7 -->
<g id="edge6" class="edge">
<title>Node1&#45;&gt;Node7</title>
<path fill="none" stroke="midnightblue" d="M718.9,-112.5C708.28,-102.92 695.67,-91.53 685.72,-82.54"/>
<polygon fill="midnightblue" stroke="midnightblue" points="687.85,-79.76 678.08,-75.65 683.16,-84.95 687.85,-79.76"/>
</g>
<!-- Node8 -->
<g id="node8" class="node">
<title>Node8</title>
<g id="a_node8"><a xlink:title=" ">
<polygon fill="none" stroke="#bfbfbf" points="759.5,-56.5 759.5,-75.5 865.5,-75.5 865.5,-56.5 759.5,-56.5"/>
<text text-anchor="middle" x="812.5" y="-63.5" font-family="Helvetica,sans-Serif" font-size="10.00">yarp/os/Network.h</text>
</a>
</g>
</g>
<!-- Node1&#45;&gt;Node8 -->
<g id="edge7" class="edge">
<title>Node1&#45;&gt;Node8</title>
<path fill="none" stroke="midnightblue" d="M762.1,-112.5C772.72,-102.92 785.33,-91.53 795.28,-82.54"/>
<polygon fill="midnightblue" stroke="midnightblue" points="797.84,-84.95 802.92,-75.65 793.15,-79.76 797.84,-84.95"/>
</g>
<!-- Node9 -->
<g id="node9" class="node">
<title>Node9</title>
<g id="a_node9"><a xlink:title=" ">
<polygon fill="none" stroke="#bfbfbf" points="884,-56.5 884,-75.5 973,-75.5 973,-56.5 884,-56.5"/>
<text text-anchor="middle" x="928.5" y="-63.5" font-family="Helvetica,sans-Serif" font-size="10.00">yarp/os/Time.h</text>
</a>
</g>
</g>
<!-- Node1&#45;&gt;Node9 -->
<g id="edge8" class="edge">
<title>Node1&#45;&gt;Node9</title>
<path fill="none" stroke="midnightblue" d="M796.91,-112.5C828.5,-101.57 866.88,-88.3 894.02,-78.92"/>
<polygon fill="midnightblue" stroke="midnightblue" points="895.17,-82.23 903.47,-75.65 892.88,-75.61 895.17,-82.23"/>
</g>
<!-- Node10 -->
<g id="node10" class="node">
<title>Node10</title>
<g id="a_node10"><a xlink:title=" ">
<polygon fill="none" stroke="#bfbfbf" points="991,-56.5 991,-75.5 1048,-75.5 1048,-56.5 991,-56.5"/>
<text text-anchor="middle" x="1019.5" y="-63.5" font-family="Helvetica,sans-Serif" font-size="10.00">ostream</text>
</a>
</g>
</g>
<!-- Node1&#45;&gt;Node10 -->
<g id="edge9" class="edge">
<title>Node1&#45;&gt;Node10</title>
<path fill="none" stroke="midnightblue" d="M818.2,-114.25C863.19,-103.92 921.15,-90.52 980.84,-76.38"/>
<polygon fill="midnightblue" stroke="midnightblue" points="981.9,-79.72 990.82,-74.01 980.29,-72.91 981.9,-79.72"/>
</g>
<!-- Node11 -->
<g id="node11" class="node">
<title>Node11</title>
<g id="a_node11"><a xlink:title=" ">
<polygon fill="none" stroke="#bfbfbf" points="1066,-56.5 1066,-75.5 1107,-75.5 1107,-56.5 1066,-56.5"/>
<text text-anchor="middle" x="1086.5" y="-63.5" font-family="Helvetica,sans-Serif" font-size="10.00">tuple</text>
</a>
</g>
</g>
<!-- Node1&#45;&gt;Node11 -->
<g id="edge10" class="edge">
<title>Node1&#45;&gt;Node11</title>
<path fill="none" stroke="midnightblue" d="M818.26,-121.06C880.38,-111.68 969.78,-96.75 1056.04,-76.12"/>
<polygon fill="midnightblue" stroke="midnightblue" points="1057.1,-79.47 1065.99,-73.71 1055.45,-72.67 1057.1,-79.47"/>
</g>
<!-- Node3 -->
<g id="node3" class="node">
<title>Node3</title>
<g id="a_node3"><a xlink:title=" ">
<polygon fill="none" stroke="#bfbfbf" points="0,-0.5 0,-19.5 143,-19.5 143,-0.5 0,-0.5"/>
<text text-anchor="middle" x="71.5" y="-7.5" font-family="Helvetica,sans-Serif" font-size="10.00">BlockFactory/Core/Block.h</text>
</a>
</g>
</g>
<!-- Node2&#45;&gt;Node3 -->
<g id="edge2" class="edge">
<title>Node2&#45;&gt;Node3</title>
<path fill="none" stroke="midnightblue" d="M118.5,-56.32C110.31,-48.42 97.99,-36.55 88.03,-26.94"/>
<polygon fill="midnightblue" stroke="midnightblue" points="90.29,-24.26 80.66,-19.83 85.43,-29.29 90.29,-24.26"/>
</g>
<!-- Node4 -->
<g id="node4" class="node">
<title>Node4</title>
<g id="a_node4"><a xlink:title=" ">
<polygon fill="none" stroke="#bfbfbf" points="161.5,-0.5 161.5,-19.5 205.5,-19.5 205.5,-0.5 161.5,-0.5"/>
<text text-anchor="middle" x="183.5" y="-7.5" font-family="Helvetica,sans-Serif" font-size="10.00">string</text>
</a>
</g>
</g>
<!-- Node2&#45;&gt;Node4 -->
<g id="edge3" class="edge">
<title>Node2&#45;&gt;Node4</title>
<path fill="none" stroke="midnightblue" d="M136.5,-56.32C144.69,-48.42 157.01,-36.55 166.97,-26.94"/>
<polygon fill="midnightblue" stroke="midnightblue" points="169.57,-29.29 174.34,-19.83 164.71,-24.26 169.57,-29.29"/>
</g>
</g>
</svg>
