<?xml version="1.0" encoding="UTF-8" standalone="no"?>
<!DOCTYPE svg PUBLIC "-//W3C//DTD SVG 1.1//EN"
 "http://www.w3.org/Graphics/SVG/1.1/DTD/svg11.dtd">
<!-- Generated by graphviz version 2.36.0 (20140111.2315)
 -->
<!-- Title: /home/travis/build/robotology/wb&#45;toolbox/toolbox/src/library/include/Block/YarpClock.h Pages: 1 -->
<svg width="250pt" height="230pt"
 viewBox="0.00 0.00 250.00 230.00" xmlns="http://www.w3.org/2000/svg" xmlns:xlink="http://www.w3.org/1999/xlink">
<g id="graph0" class="graph" transform="scale(1 1) rotate(0) translate(4 226)">
<title>/home/travis/build/robotology/wb&#45;toolbox/toolbox/src/library/include/Block/YarpClock.h</title>
<!-- Node1 -->
<g id="node1" class="node"><title>Node1</title>
<polygon fill="#bfbfbf" stroke="black" points="111.5,-169 111.5,-221 242.5,-221 242.5,-169 111.5,-169"/>
<text text-anchor="start" x="119.5" y="-209" font-family="Helvetica,sans-Serif" font-size="10.00">/home/travis/build</text>
<text text-anchor="start" x="119.5" y="-198" font-family="Helvetica,sans-Serif" font-size="10.00">/robotology/wb&#45;toolbox</text>
<text text-anchor="start" x="119.5" y="-187" font-family="Helvetica,sans-Serif" font-size="10.00">/toolbox/src/library/include</text>
<text text-anchor="middle" x="177" y="-176" font-family="Helvetica,sans-Serif" font-size="10.00">/Block/YarpClock.h</text>
</g>
<!-- Node2 -->
<g id="node2" class="node"><title>Node2</title>
<g id="a_node2"><a xlink:href="_block_8h.html" target="_top" xlink:title="Core/Block.h">
<polygon fill="none" stroke="black" points="82,-112.5 82,-131.5 156,-131.5 156,-112.5 82,-112.5"/>
<text text-anchor="middle" x="119" y="-119.5" font-family="Helvetica,sans-Serif" font-size="10.00">Core/Block.h</text>
</a>
</g>
</g>
<!-- Node1&#45;&gt;Node2 -->
<g id="edge1" class="edge"><title>Node1&#45;&gt;Node2</title>
<path fill="none" stroke="midnightblue" d="M156.388,-168.768C148.476,-159.083 139.652,-148.281 132.565,-139.605"/>
<polygon fill="midnightblue" stroke="midnightblue" points="135.191,-137.287 126.154,-131.757 129.77,-141.716 135.191,-137.287"/>
</g>
<!-- Node5 -->
<g id="node5" class="node"><title>Node5</title>
<polygon fill="none" stroke="#bfbfbf" points="151.5,-0.5 151.5,-19.5 192.5,-19.5 192.5,-0.5 151.5,-0.5"/>
<text text-anchor="middle" x="172" y="-7.5" font-family="Helvetica,sans-Serif" font-size="10.00">string</text>
</g>
<!-- Node1&#45;&gt;Node5 -->
<g id="edge8" class="edge"><title>Node1&#45;&gt;Node5</title>
<path fill="none" stroke="midnightblue" d="M176.315,-168.938C175.301,-131.811 173.421,-63.02 172.515,-29.8512"/>
<polygon fill="midnightblue" stroke="midnightblue" points="176.01,-29.6155 172.238,-19.7149 169.013,-29.8068 176.01,-29.6155"/>
</g>
<!-- Node3 -->
<g id="node3" class="node"><title>Node3</title>
<g id="a_node3"><a xlink:href="_parameters_8h.html" target="_top" xlink:title="Core/Parameters.h">
<polygon fill="none" stroke="black" points="44.5,-56.5 44.5,-75.5 143.5,-75.5 143.5,-56.5 44.5,-56.5"/>
<text text-anchor="middle" x="94" y="-63.5" font-family="Helvetica,sans-Serif" font-size="10.00">Core/Parameters.h</text>
</a>
</g>
</g>
<!-- Node2&#45;&gt;Node3 -->
<g id="edge2" class="edge"><title>Node2&#45;&gt;Node3</title>
<path fill="none" stroke="midnightblue" d="M114.872,-112.083C111.486,-104.77 106.584,-94.1814 102.381,-85.1034"/>
<polygon fill="midnightblue" stroke="midnightblue" points="105.429,-83.3553 98.0514,-75.7511 99.0766,-86.2962 105.429,-83.3553"/>
</g>
<!-- Node2&#45;&gt;Node5 -->
<g id="edge6" class="edge"><title>Node2&#45;&gt;Node5</title>
<path fill="none" stroke="midnightblue" d="M126.784,-112.278C134.168,-103.613 145.127,-89.6776 152,-76 159.455,-61.1642 164.754,-43.0139 168.017,-29.6671"/>
<polygon fill="midnightblue" stroke="midnightblue" points="171.464,-30.2924 170.281,-19.7638 164.64,-28.7321 171.464,-30.2924"/>
</g>
<!-- Node6 -->
<g id="node6" class="node"><title>Node6</title>
<polygon fill="none" stroke="#bfbfbf" points="0,-0.5 0,-19.5 44,-19.5 44,-0.5 0,-0.5"/>
<text text-anchor="middle" x="22" y="-7.5" font-family="Helvetica,sans-Serif" font-size="10.00">vector</text>
</g>
<!-- Node2&#45;&gt;Node6 -->
<g id="edge7" class="edge"><title>Node2&#45;&gt;Node6</title>
<path fill="none" stroke="midnightblue" d="M89.3595,-112.367C70.9377,-105.472 48.3057,-93.9386 35,-76 25.2517,-62.8575 22.3218,-44.2623 21.6434,-30.3258"/>
<polygon fill="midnightblue" stroke="midnightblue" points="25.1379,-29.8885 21.5029,-19.9368 18.1386,-29.9833 25.1379,-29.8885"/>
</g>
<!-- Node4 -->
<g id="node4" class="node"><title>Node4</title>
<polygon fill="none" stroke="#bfbfbf" points="68,-0.5 68,-19.5 120,-19.5 120,-0.5 68,-0.5"/>
<text text-anchor="middle" x="94" y="-7.5" font-family="Helvetica,sans-Serif" font-size="10.00">memory</text>
</g>
<!-- Node3&#45;&gt;Node4 -->
<g id="edge3" class="edge"><title>Node3&#45;&gt;Node4</title>
<path fill="none" stroke="midnightblue" d="M94,-56.083C94,-49.0059 94,-38.8611 94,-29.9865"/>
<polygon fill="midnightblue" stroke="midnightblue" points="97.5001,-29.751 94,-19.7511 90.5001,-29.7511 97.5001,-29.751"/>
</g>
<!-- Node3&#45;&gt;Node5 -->
<g id="edge4" class="edge"><title>Node3&#45;&gt;Node5</title>
<path fill="none" stroke="midnightblue" d="M106.532,-56.324C118.586,-47.979 137.027,-35.2122 151.269,-25.3524"/>
<polygon fill="midnightblue" stroke="midnightblue" points="153.269,-28.2243 159.499,-19.6545 149.285,-22.469 153.269,-28.2243"/>
</g>
<!-- Node3&#45;&gt;Node6 -->
<g id="edge5" class="edge"><title>Node3&#45;&gt;Node6</title>
<path fill="none" stroke="midnightblue" d="M82.432,-56.324C71.5798,-48.1849 55.1193,-35.8395 42.1166,-26.0874"/>
<polygon fill="midnightblue" stroke="midnightblue" points="43.8786,-23.0339 33.7785,-19.8339 39.6785,-28.6339 43.8786,-23.0339"/>
</g>
</g>
</svg>
