<?xml version="1.0" encoding="UTF-8" standalone="no"?>
<!DOCTYPE svg PUBLIC "-//W3C//DTD SVG 1.1//EN"
 "http://www.w3.org/Graphics/SVG/1.1/DTD/svg11.dtd">
<!-- Generated by graphviz version 2.36.0 (20140111.2315)
 -->
<!-- Title: /home/travis/build/robotology/wb&#45;toolbox/toolbox/include/YarpRead.h Pages: 1 -->
<svg width="225pt" height="218pt"
 viewBox="0.00 0.00 225.00 218.00" xmlns="http://www.w3.org/2000/svg" xmlns:xlink="http://www.w3.org/1999/xlink">
<g id="graph0" class="graph" transform="scale(1 1) rotate(0) translate(4 214)">
<title>/home/travis/build/robotology/wb&#45;toolbox/toolbox/include/YarpRead.h</title>
<!-- Node1 -->
<g id="node1" class="node"><title>Node1</title>
<polygon fill="#bfbfbf" stroke="black" points="77,-168.5 77,-209.5 217,-209.5 217,-168.5 77,-168.5"/>
<text text-anchor="start" x="85" y="-197.5" font-family="Helvetica,sans-Serif" font-size="10.00">/home/travis/build</text>
<text text-anchor="start" x="85" y="-186.5" font-family="Helvetica,sans-Serif" font-size="10.00">/robotology/wb&#45;toolbox</text>
<text text-anchor="middle" x="147" y="-175.5" font-family="Helvetica,sans-Serif" font-size="10.00">/toolbox/include/YarpRead.h</text>
</g>
<!-- Node2 -->
<g id="node2" class="node"><title>Node2</title>
<g id="a_node2"><a xlink:href="_block_8h.html" target="_top" xlink:title="Block.h">
<polygon fill="none" stroke="black" points="122,-112.5 122,-131.5 172,-131.5 172,-112.5 122,-112.5"/>
<text text-anchor="middle" x="147" y="-119.5" font-family="Helvetica,sans-Serif" font-size="10.00">Block.h</text>
</a>
</g>
</g>
<!-- Node1&#45;&gt;Node2 -->
<g id="edge1" class="edge"><title>Node1&#45;&gt;Node2</title>
<path fill="none" stroke="midnightblue" d="M147,-168.498C147,-160.065 147,-150.235 147,-141.874"/>
<polygon fill="midnightblue" stroke="midnightblue" points="150.5,-141.652 147,-131.652 143.5,-141.653 150.5,-141.652"/>
</g>
<!-- Node4 -->
<g id="node4" class="node"><title>Node4</title>
<polygon fill="none" stroke="#bfbfbf" points="0,-0.5 0,-19.5 52,-19.5 52,-0.5 0,-0.5"/>
<text text-anchor="middle" x="26" y="-7.5" font-family="Helvetica,sans-Serif" font-size="10.00">memory</text>
</g>
<!-- Node1&#45;&gt;Node4 -->
<g id="edge8" class="edge"><title>Node1&#45;&gt;Node4</title>
<path fill="none" stroke="midnightblue" d="M118.198,-168.363C91.5188,-148.448 53.1634,-115.056 34,-76 26.957,-61.6459 25.2376,-43.448 25.1185,-29.9606"/>
<polygon fill="midnightblue" stroke="midnightblue" points="28.6184,-29.9929 25.313,-19.9269 21.6197,-29.8571 28.6184,-29.9929"/>
</g>
<!-- Node5 -->
<g id="node5" class="node"><title>Node5</title>
<polygon fill="none" stroke="#bfbfbf" points="164.5,-0.5 164.5,-19.5 205.5,-19.5 205.5,-0.5 164.5,-0.5"/>
<text text-anchor="middle" x="185" y="-7.5" font-family="Helvetica,sans-Serif" font-size="10.00">string</text>
</g>
<!-- Node1&#45;&gt;Node5 -->
<g id="edge9" class="edge"><title>Node1&#45;&gt;Node5</title>
<path fill="none" stroke="midnightblue" d="M162.294,-168.454C169.392,-158.203 177.106,-145.081 181,-132 191.406,-97.0451 189.543,-53.8851 187.263,-29.7022"/>
<polygon fill="midnightblue" stroke="midnightblue" points="190.742,-29.3181 186.195,-19.7485 183.781,-30.0649 190.742,-29.3181"/>
</g>
<!-- Node3 -->
<g id="node3" class="node"><title>Node3</title>
<g id="a_node3"><a xlink:href="_parameters_8h.html" target="_top" xlink:title="Parameters.h">
<polygon fill="none" stroke="black" points="43.5,-56.5 43.5,-75.5 118.5,-75.5 118.5,-56.5 43.5,-56.5"/>
<text text-anchor="middle" x="81" y="-63.5" font-family="Helvetica,sans-Serif" font-size="10.00">Parameters.h</text>
</a>
</g>
</g>
<!-- Node2&#45;&gt;Node3 -->
<g id="edge2" class="edge"><title>Node2&#45;&gt;Node3</title>
<path fill="none" stroke="midnightblue" d="M136.396,-112.324C126.544,-104.263 111.649,-92.0765 99.7849,-82.3695"/>
<polygon fill="midnightblue" stroke="midnightblue" points="101.753,-79.4575 91.797,-75.8339 97.3202,-84.8752 101.753,-79.4575"/>
</g>
<!-- Node2&#45;&gt;Node5 -->
<g id="edge6" class="edge"><title>Node2&#45;&gt;Node5</title>
<path fill="none" stroke="midnightblue" d="M149.982,-112.368C156.142,-94.5366 170.389,-53.2953 178.688,-29.2717"/>
<polygon fill="midnightblue" stroke="midnightblue" points="182.075,-30.1862 182.032,-19.5914 175.459,-27.9005 182.075,-30.1862"/>
</g>
<!-- Node6 -->
<g id="node6" class="node"><title>Node6</title>
<polygon fill="none" stroke="#bfbfbf" points="91,-0.5 91,-19.5 135,-19.5 135,-0.5 91,-0.5"/>
<text text-anchor="middle" x="113" y="-7.5" font-family="Helvetica,sans-Serif" font-size="10.00">vector</text>
</g>
<!-- Node2&#45;&gt;Node6 -->
<g id="edge7" class="edge"><title>Node2&#45;&gt;Node6</title>
<path fill="none" stroke="midnightblue" d="M144.291,-112.166C140.455,-99.6594 133.212,-76.0771 127,-56 124.276,-47.1957 121.239,-37.4271 118.691,-29.2474"/>
<polygon fill="midnightblue" stroke="midnightblue" points="122.009,-28.1299 115.692,-19.6243 115.326,-30.2128 122.009,-28.1299"/>
</g>
<!-- Node3&#45;&gt;Node4 -->
<g id="edge3" class="edge"><title>Node3&#45;&gt;Node4</title>
<path fill="none" stroke="midnightblue" d="M71.9179,-56.083C63.8287,-48.1409 51.8046,-36.3354 42.0898,-26.7973"/>
<polygon fill="midnightblue" stroke="midnightblue" points="44.5009,-24.2595 34.9131,-19.7511 39.5967,-29.2545 44.5009,-24.2595"/>
</g>
<!-- Node3&#45;&gt;Node5 -->
<g id="edge4" class="edge"><title>Node3&#45;&gt;Node5</title>
<path fill="none" stroke="midnightblue" d="M97.7094,-56.324C114.312,-47.7034 140.002,-34.3643 159.22,-24.3855"/>
<polygon fill="midnightblue" stroke="midnightblue" points="161.07,-27.3689 168.332,-19.6545 157.844,-21.1565 161.07,-27.3689"/>
</g>
<!-- Node3&#45;&gt;Node6 -->
<g id="edge5" class="edge"><title>Node3&#45;&gt;Node6</title>
<path fill="none" stroke="midnightblue" d="M86.2841,-56.083C90.711,-48.6127 97.1633,-37.7244 102.618,-28.5199"/>
<polygon fill="midnightblue" stroke="midnightblue" points="105.727,-30.1383 107.814,-19.7511 99.7051,-26.5697 105.727,-30.1383"/>
</g>
</g>
</svg>
