<?xml version="1.0" encoding="UTF-8" standalone="no"?>
<!DOCTYPE svg PUBLIC "-//W3C//DTD SVG 1.1//EN"
 "http://www.w3.org/Graphics/SVG/1.1/DTD/svg11.dtd">
<!-- Generated by graphviz version 2.36.0 (20140111.2315)
 -->
<!-- Title: /home/travis/build/robotology/wb&#45;toolbox/toolbox/src/YarpClock.cpp Pages: 1 -->
<!--zoomable 274 -->
<svg id="main" version="1.1" xmlns="http://www.w3.org/2000/svg" xmlns:xlink="http://www.w3.org/1999/xlink" xml:space="preserve" onload="init(evt)">
<style type="text/css"><![CDATA[
.edge:hover path { stroke: red; }
.edge:hover polygon { stroke: red; fill: red; }
]]></style>
<script type="text/javascript"><![CDATA[
var edges = document.getElementsByTagName('g');
if (edges && edges.length) {
  for (var i=0;i<edges.length;i++) {
    if (edges[i].id.substr(0,4)=='edge') {
      edges[i].setAttribute('class','edge');
    }
  }
}
]]></script>
        <defs>
                <circle id="rim" cx="0" cy="0" r="7"/>
                <circle id="rim2" cx="0" cy="0" r="3.5"/>
                <g id="zoomPlus">
                        <use xlink:href="#rim" fill="#404040">
                                <set attributeName="fill" to="#808080" begin="zoomplus.mouseover" end="zoomplus.mouseout"/>
                        </use>
                        <path d="M-4,0h8M0,-4v8" fill="none" stroke="white" stroke-width="1.5" pointer-events="none"/>
                </g>
                <g id="zoomMin">
                        <use xlink:href="#rim" fill="#404040">
                                <set attributeName="fill" to="#808080" begin="zoomminus.mouseover" end="zoomminus.mouseout"/>
                        </use>
                        <path d="M-4,0h8" fill="none" stroke="white" stroke-width="1.5" pointer-events="none"/>
                </g>
                <g id="dirArrow">
                        <path fill="none" stroke="white" stroke-width="1.5" d="M0,-3.0v7 M-2.5,-0.5L0,-3.0L2.5,-0.5"/>
                </g>
               <g id="resetDef">
                       <use xlink:href="#rim2" fill="#404040">
                               <set attributeName="fill" to="#808080" begin="reset.mouseover" end="reset.mouseout"/>
                       </use>
               </g>
        </defs>

<script type="text/javascript">
var viewWidth = 666;
var viewHeight = 274;
var sectionId = 'dynsection-0';
</script>
<script xlink:href="svgpan.js"/>
<svg id="graph" class="graph">
<g id="viewport">
<title>/home/travis/build/robotology/wb&#45;toolbox/toolbox/src/YarpClock.cpp</title>
<!-- Node1 -->
<g id="node1" class="node"><title>Node1</title>
<polygon fill="#bfbfbf" stroke="black" points="275.5,-224.5 275.5,-265.5 410.5,-265.5 410.5,-224.5 275.5,-224.5"/>
<text text-anchor="start" x="283.5" y="-253.5" font-family="Helvetica,sans-Serif" font-size="10.00">/home/travis/build</text>
<text text-anchor="start" x="283.5" y="-242.5" font-family="Helvetica,sans-Serif" font-size="10.00">/robotology/wb&#45;toolbox</text>
<text text-anchor="middle" x="343" y="-231.5" font-family="Helvetica,sans-Serif" font-size="10.00">/toolbox/src/YarpClock.cpp</text>
</g>
<!-- Node2 -->
<g id="node2" class="node"><title>Node2</title>
<g id="a_node2"><a xlink:href="_yarp_clock_8h.html" target="_top" xlink:title="YarpClock.h">
<polygon fill="none" stroke="black" points="70.5,-168.5 70.5,-187.5 141.5,-187.5 141.5,-168.5 70.5,-168.5"/>
<text text-anchor="middle" x="106" y="-175.5" font-family="Helvetica,sans-Serif" font-size="10.00">YarpClock.h</text>
</a>
</g>
</g>
<!-- Node1&#45;&gt;Node2 -->
<g id="edge1" class="edge"><title>Node1&#45;&gt;Node2</title>
<path fill="none" stroke="midnightblue" d="M275.402,-225.461C234.06,-214.122 182.512,-199.984 147.204,-190.301"/>
<polygon fill="midnightblue" stroke="midnightblue" points="147.818,-186.84 137.248,-187.57 145.966,-193.591 147.818,-186.84"/>
</g>
<!-- Node8 -->
<g id="node8" class="node"><title>Node8</title>
<g id="a_node8"><a xlink:href="_block_information_8h.html" target="_top" xlink:title="BlockInformation.h">
<polygon fill="none" stroke="black" points="160,-168.5 160,-187.5 258,-187.5 258,-168.5 160,-168.5"/>
<text text-anchor="middle" x="209" y="-175.5" font-family="Helvetica,sans-Serif" font-size="10.00">BlockInformation.h</text>
</a>
</g>
</g>
<!-- Node1&#45;&gt;Node8 -->
<g id="edge10" class="edge"><title>Node1&#45;&gt;Node8</title>
<path fill="none" stroke="midnightblue" d="M302.796,-224.498C281.164,-214.005 255.072,-201.348 235.904,-192.051"/>
<polygon fill="midnightblue" stroke="midnightblue" points="237.362,-188.868 226.837,-187.652 234.307,-195.166 237.362,-188.868"/>
</g>
<!-- Node9 -->
<g id="node9" class="node"><title>Node9</title>
<polygon fill="none" stroke="#bfbfbf" points="258,-112.5 258,-131.5 296,-131.5 296,-112.5 258,-112.5"/>
<text text-anchor="middle" x="277" y="-119.5" font-family="Helvetica,sans-Serif" font-size="10.00">tuple</text>
</g>
<!-- Node1&#45;&gt;Node9 -->
<g id="edge24" class="edge"><title>Node1&#45;&gt;Node9</title>
<path fill="none" stroke="midnightblue" d="M331.089,-224.476C324.675,-213.795 316.723,-200.272 310,-188 301.364,-172.235 292.153,-153.955 285.663,-140.804"/>
<polygon fill="midnightblue" stroke="midnightblue" points="288.648,-138.942 281.105,-131.502 282.362,-142.022 288.648,-138.942"/>
</g>
<!-- Node11 -->
<g id="node11" class="node"><title>Node11</title>
<g id="a_node11"><a xlink:href="_log_8h.html" target="_top" xlink:title="Log.h">
<polygon fill="none" stroke="black" points="263.5,-56.5 263.5,-75.5 304.5,-75.5 304.5,-56.5 263.5,-56.5"/>
<text text-anchor="middle" x="284" y="-63.5" font-family="Helvetica,sans-Serif" font-size="10.00">Log.h</text>
</a>
</g>
</g>
<!-- Node1&#45;&gt;Node11 -->
<g id="edge15" class="edge"><title>Node1&#45;&gt;Node11</title>
<path fill="none" stroke="midnightblue" d="M338.392,-224.455C332.023,-198.414 319.641,-151.08 305,-112 301.597,-102.918 297.13,-93.1273 293.19,-85.0054"/>
<polygon fill="midnightblue" stroke="midnightblue" points="296.192,-83.1816 288.603,-75.7888 289.926,-86.3007 296.192,-83.1816"/>
</g>
<!-- Node13 -->
<g id="node13" class="node"><title>Node13</title>
<g id="a_node13"><a xlink:href="_signal_8h.html" target="_top" xlink:title="Signal.h">
<polygon fill="none" stroke="black" points="327,-56.5 327,-75.5 379,-75.5 379,-56.5 327,-56.5"/>
<text text-anchor="middle" x="353" y="-63.5" font-family="Helvetica,sans-Serif" font-size="10.00">Signal.h</text>
</a>
</g>
</g>
<!-- Node1&#45;&gt;Node13 -->
<g id="edge19" class="edge"><title>Node1&#45;&gt;Node13</title>
<path fill="none" stroke="midnightblue" d="M344.108,-224.382C346.046,-190.082 350.025,-119.658 351.933,-85.8828"/>
<polygon fill="midnightblue" stroke="midnightblue" points="355.445,-85.7653 352.515,-75.5838 348.456,-85.3704 355.445,-85.7653"/>
</g>
<!-- Node14 -->
<g id="node14" class="node"><title>Node14</title>
<polygon fill="none" stroke="#bfbfbf" points="390.5,-168.5 390.5,-187.5 487.5,-187.5 487.5,-168.5 390.5,-168.5"/>
<text text-anchor="middle" x="439" y="-175.5" font-family="Helvetica,sans-Serif" font-size="10.00">yarp/os/Network.h</text>
</g>
<!-- Node1&#45;&gt;Node14 -->
<g id="edge21" class="edge"><title>Node1&#45;&gt;Node14</title>
<path fill="none" stroke="midnightblue" d="M371.803,-224.498C386.522,-214.532 404.124,-202.614 417.62,-193.476"/>
<polygon fill="midnightblue" stroke="midnightblue" points="419.903,-196.157 426.221,-187.652 415.978,-190.361 419.903,-196.157"/>
</g>
<!-- Node15 -->
<g id="node15" class="node"><title>Node15</title>
<polygon fill="none" stroke="#bfbfbf" points="506,-168.5 506,-187.5 588,-187.5 588,-168.5 506,-168.5"/>
<text text-anchor="middle" x="547" y="-175.5" font-family="Helvetica,sans-Serif" font-size="10.00">yarp/os/Time.h</text>
</g>
<!-- Node1&#45;&gt;Node15 -->
<g id="edge22" class="edge"><title>Node1&#45;&gt;Node15</title>
<path fill="none" stroke="midnightblue" d="M404.207,-224.498C438.747,-213.493 480.758,-200.106 510.24,-190.713"/>
<polygon fill="midnightblue" stroke="midnightblue" points="511.647,-193.938 520.113,-187.567 509.522,-187.268 511.647,-193.938"/>
</g>
<!-- Node16 -->
<g id="node16" class="node"><title>Node16</title>
<polygon fill="none" stroke="#bfbfbf" points="606,-168.5 606,-187.5 658,-187.5 658,-168.5 606,-168.5"/>
<text text-anchor="middle" x="632" y="-175.5" font-family="Helvetica,sans-Serif" font-size="10.00">ostream</text>
</g>
<!-- Node1&#45;&gt;Node16 -->
<g id="edge23" class="edge"><title>Node1&#45;&gt;Node16</title>
<path fill="none" stroke="midnightblue" d="M410.529,-229.779C459.391,-219.334 527.251,-204.515 595.57,-188.284"/>
<polygon fill="midnightblue" stroke="midnightblue" points="596.736,-191.605 605.651,-185.88 595.112,-184.796 596.736,-191.605"/>
</g>
<!-- Node3 -->
<g id="node3" class="node"><title>Node3</title>
<g id="a_node3"><a xlink:href="_block_8h.html" target="_top" xlink:title="Block.h">
<polygon fill="none" stroke="black" points="45,-112.5 45,-131.5 95,-131.5 95,-112.5 45,-112.5"/>
<text text-anchor="middle" x="70" y="-119.5" font-family="Helvetica,sans-Serif" font-size="10.00">Block.h</text>
</a>
</g>
</g>
<!-- Node2&#45;&gt;Node3 -->
<g id="edge2" class="edge"><title>Node2&#45;&gt;Node3</title>
<path fill="none" stroke="midnightblue" d="M100.055,-168.083C95.0227,-160.534 87.6632,-149.495 81.4865,-140.23"/>
<polygon fill="midnightblue" stroke="midnightblue" points="84.2933,-138.13 75.8341,-131.751 78.4689,-142.013 84.2933,-138.13"/>
</g>
<!-- Node6 -->
<g id="node6" class="node"><title>Node6</title>
<polygon fill="none" stroke="#bfbfbf" points="171.5,-0.5 171.5,-19.5 212.5,-19.5 212.5,-0.5 171.5,-0.5"/>
<text text-anchor="middle" x="192" y="-7.5" font-family="Helvetica,sans-Serif" font-size="10.00">string</text>
</g>
<!-- Node2&#45;&gt;Node6 -->
<g id="edge9" class="edge"><title>Node2&#45;&gt;Node6</title>
<path fill="none" stroke="midnightblue" d="M112.904,-168.31C126.036,-151.42 154.83,-112.599 172,-76 179.052,-60.9686 184.391,-42.8375 187.772,-29.5479"/>
<polygon fill="midnightblue" stroke="midnightblue" points="191.205,-30.2393 190.145,-19.6976 184.4,-28.5995 191.205,-30.2393"/>
</g>
<!-- Node4 -->
<g id="node4" class="node"><title>Node4</title>
<g id="a_node4"><a xlink:href="_parameters_8h.html" target="_top" xlink:title="Parameters.h">
<polygon fill="none" stroke="black" points="88.5,-56.5 88.5,-75.5 163.5,-75.5 163.5,-56.5 88.5,-56.5"/>
<text text-anchor="middle" x="126" y="-63.5" font-family="Helvetica,sans-Serif" font-size="10.00">Parameters.h</text>
</a>
</g>
</g>
<!-- Node3&#45;&gt;Node4 -->
<g id="edge3" class="edge"><title>Node3&#45;&gt;Node4</title>
<path fill="none" stroke="midnightblue" d="M78.9974,-112.324C87.1944,-104.42 99.5055,-92.5482 109.472,-82.9377"/>
<polygon fill="midnightblue" stroke="midnightblue" points="112.07,-85.2947 116.839,-75.8339 107.211,-80.2558 112.07,-85.2947"/>
</g>
<!-- Node3&#45;&gt;Node6 -->
<g id="edge7" class="edge"><title>Node3&#45;&gt;Node6</title>
<path fill="none" stroke="midnightblue" d="M68.667,-112.383C67.0775,-98.8599 66.0701,-72.4992 79,-56 98.8048,-30.728 134.947,-19.6017 161.033,-14.7327"/>
<polygon fill="midnightblue" stroke="midnightblue" points="161.878,-18.1406 171.173,-13.056 160.736,-11.2343 161.878,-18.1406"/>
</g>
<!-- Node7 -->
<g id="node7" class="node"><title>Node7</title>
<polygon fill="none" stroke="#bfbfbf" points="0,-0.5 0,-19.5 44,-19.5 44,-0.5 0,-0.5"/>
<text text-anchor="middle" x="22" y="-7.5" font-family="Helvetica,sans-Serif" font-size="10.00">vector</text>
</g>
<!-- Node3&#45;&gt;Node7 -->
<g id="edge8" class="edge"><title>Node3&#45;&gt;Node7</title>
<path fill="none" stroke="midnightblue" d="M64.8532,-112.214C59.7252,-103.272 51.8003,-88.9248 46,-76 39.0739,-60.5665 32.5151,-42.4751 28.01,-29.3029"/>
<polygon fill="midnightblue" stroke="midnightblue" points="31.2417,-27.9313 24.7457,-19.5616 24.6045,-30.1555 31.2417,-27.9313"/>
</g>
<!-- Node5 -->
<g id="node5" class="node"><title>Node5</title>
<polygon fill="none" stroke="#bfbfbf" points="244,-0.5 244,-19.5 296,-19.5 296,-0.5 244,-0.5"/>
<text text-anchor="middle" x="270" y="-7.5" font-family="Helvetica,sans-Serif" font-size="10.00">memory</text>
</g>
<!-- Node4&#45;&gt;Node5 -->
<g id="edge4" class="edge"><title>Node4&#45;&gt;Node5</title>
<path fill="none" stroke="midnightblue" d="M148.817,-56.4435C172.832,-47.4381 210.829,-33.1891 237.869,-23.049"/>
<polygon fill="midnightblue" stroke="midnightblue" points="239.155,-26.3049 247.29,-19.5164 236.697,-19.7506 239.155,-26.3049"/>
</g>
<!-- Node4&#45;&gt;Node6 -->
<g id="edge5" class="edge"><title>Node4&#45;&gt;Node6</title>
<path fill="none" stroke="midnightblue" d="M136.604,-56.324C146.456,-48.2631 161.351,-36.0765 173.215,-26.3695"/>
<polygon fill="midnightblue" stroke="midnightblue" points="175.68,-28.8752 181.203,-19.8339 171.247,-23.4575 175.68,-28.8752"/>
</g>
<!-- Node4&#45;&gt;Node7 -->
<g id="edge6" class="edge"><title>Node4&#45;&gt;Node7</title>
<path fill="none" stroke="midnightblue" d="M109.291,-56.324C92.6881,-47.7034 66.9979,-34.3643 47.7795,-24.3855"/>
<polygon fill="midnightblue" stroke="midnightblue" points="49.1558,-21.1565 38.6679,-19.6545 45.93,-27.3689 49.1558,-21.1565"/>
</g>
<!-- Node8&#45;&gt;Node6 -->
<g id="edge11" class="edge"><title>Node8&#45;&gt;Node6</title>
<path fill="none" stroke="midnightblue" d="M209.779,-168.382C211.372,-148.396 214.198,-97.4337 206,-56 204.233,-47.0708 201.358,-37.404 198.672,-29.327"/>
<polygon fill="midnightblue" stroke="midnightblue" points="201.954,-28.1111 195.358,-19.8206 195.345,-30.4154 201.954,-28.1111"/>
</g>
<!-- Node8&#45;&gt;Node7 -->
<g id="edge14" class="edge"><title>Node8&#45;&gt;Node7</title>
<path fill="none" stroke="midnightblue" d="M166.049,-168.458C117.673,-158.434 44.6293,-141.924 36,-132 11.2202,-103.504 14.1988,-55.8864 18.2672,-29.6897"/>
<polygon fill="midnightblue" stroke="midnightblue" points="21.7568,-30.0563 20.0585,-19.5984 14.8645,-28.8328 21.7568,-30.0563"/>
</g>
<!-- Node8&#45;&gt;Node9 -->
<g id="edge12" class="edge"><title>Node8&#45;&gt;Node9</title>
<path fill="none" stroke="midnightblue" d="M219.925,-168.324C230.175,-160.185 245.721,-147.839 258.001,-138.087"/>
<polygon fill="midnightblue" stroke="midnightblue" points="260.221,-140.794 265.876,-131.834 255.868,-135.312 260.221,-140.794"/>
</g>
<!-- Node10 -->
<g id="node10" class="node"><title>Node10</title>
<polygon fill="none" stroke="#bfbfbf" points="162,-112.5 162,-131.5 202,-131.5 202,-112.5 162,-112.5"/>
<text text-anchor="middle" x="182" y="-119.5" font-family="Helvetica,sans-Serif" font-size="10.00">utility</text>
</g>
<!-- Node8&#45;&gt;Node10 -->
<g id="edge13" class="edge"><title>Node8&#45;&gt;Node10</title>
<path fill="none" stroke="midnightblue" d="M204.541,-168.083C200.846,-160.691 195.477,-149.953 190.906,-140.811"/>
<polygon fill="midnightblue" stroke="midnightblue" points="193.978,-139.13 186.376,-131.751 187.717,-142.261 193.978,-139.13"/>
</g>
<!-- Node11&#45;&gt;Node5 -->
<g id="edge16" class="edge"><title>Node11&#45;&gt;Node5</title>
<path fill="none" stroke="midnightblue" d="M281.688,-56.083C279.833,-48.9272 277.165,-38.6353 274.846,-29.6911"/>
<polygon fill="midnightblue" stroke="midnightblue" points="278.166,-28.5527 272.269,-19.7511 271.391,-30.3094 278.166,-28.5527"/>
</g>
<!-- Node11&#45;&gt;Node6 -->
<g id="edge18" class="edge"><title>Node11&#45;&gt;Node6</title>
<path fill="none" stroke="midnightblue" d="M269.219,-56.324C254.733,-47.8215 232.427,-34.7288 215.507,-24.7975"/>
<polygon fill="midnightblue" stroke="midnightblue" points="217.141,-21.6981 206.745,-19.6545 213.597,-27.735 217.141,-21.6981"/>
</g>
<!-- Node12 -->
<g id="node12" class="node"><title>Node12</title>
<polygon fill="none" stroke="#bfbfbf" points="314,-0.5 314,-19.5 366,-19.5 366,-0.5 314,-0.5"/>
<text text-anchor="middle" x="340" y="-7.5" font-family="Helvetica,sans-Serif" font-size="10.00">sstream</text>
</g>
<!-- Node11&#45;&gt;Node12 -->
<g id="edge17" class="edge"><title>Node11&#45;&gt;Node12</title>
<path fill="none" stroke="midnightblue" d="M292.997,-56.324C301.194,-48.4196 313.506,-36.5482 323.472,-26.9377"/>
<polygon fill="midnightblue" stroke="midnightblue" points="326.07,-29.2947 330.839,-19.8339 321.211,-24.2558 326.07,-29.2947"/>
</g>
<!-- Node13&#45;&gt;Node5 -->
<g id="edge20" class="edge"><title>Node13&#45;&gt;Node5</title>
<path fill="none" stroke="midnightblue" d="M339.665,-56.324C326.838,-47.979 307.215,-35.2122 292.06,-25.3524"/>
<polygon fill="midnightblue" stroke="midnightblue" points="293.593,-22.1742 283.302,-19.6545 289.776,-28.0417 293.593,-22.1742"/>
</g>
</g>
</svg>
        <g id="navigator" transform="translate(0 0)" fill="#404254">
                <rect fill="#f2f5e9" fill-opacity="0.5" stroke="#606060" stroke-width=".5" x="0" y="0" width="60" height="60"/>
                <use id="zoomplus" xlink:href="#zoomPlus" x="17" y="9" onmousedown="handleZoom(evt,'in')"/>
                <use id="zoomminus" xlink:href="#zoomMin" x="42" y="9" onmousedown="handleZoom(evt,'out')"/>
                <use id="reset" xlink:href="#resetDef" x="30" y="36" onmousedown="handleReset()"/>
                <g id="arrowUp" xlink:href="#dirArrow" transform="translate(30 24)" onmousedown="handlePan(0,-1)">
                  <use xlink:href="#rim" fill="#404040">
                        <set attributeName="fill" to="#808080" begin="arrowUp.mouseover" end="arrowUp.mouseout"/>
                  </use>
                  <path fill="none" stroke="white" stroke-width="1.5" d="M0,-3.0v7 M-2.5,-0.5L0,-3.0L2.5,-0.5"/>
                </g>
                <g id="arrowRight" xlink:href="#dirArrow" transform="rotate(90) translate(36 -43)" onmousedown="handlePan(1,0)">
                  <use xlink:href="#rim" fill="#404040">
                        <set attributeName="fill" to="#808080" begin="arrowRight.mouseover" end="arrowRight.mouseout"/>
                  </use>
                  <path fill="none" stroke="white" stroke-width="1.5" d="M0,-3.0v7 M-2.5,-0.5L0,-3.0L2.5,-0.5"/>
                </g>
                <g id="arrowDown" xlink:href="#dirArrow" transform="rotate(180) translate(-30 -48)" onmousedown="handlePan(0,1)">
                  <use xlink:href="#rim" fill="#404040">
                        <set attributeName="fill" to="#808080" begin="arrowDown.mouseover" end="arrowDown.mouseout"/>
                  </use>
                  <path fill="none" stroke="white" stroke-width="1.5" d="M0,-3.0v7 M-2.5,-0.5L0,-3.0L2.5,-0.5"/>
                </g>
                <g id="arrowLeft" xlink:href="#dirArrow" transform="rotate(270) translate(-36 17)" onmousedown="handlePan(-1,0)">
                  <use xlink:href="#rim" fill="#404040">
                        <set attributeName="fill" to="#808080" begin="arrowLeft.mouseover" end="arrowLeft.mouseout"/>
                  </use>
                  <path fill="none" stroke="white" stroke-width="1.5" d="M0,-3.0v7 M-2.5,-0.5L0,-3.0L2.5,-0.5"/>
                </g>
        </g>
        <svg viewBox="0 0 15 15" width="100%" height="30px" preserveAspectRatio="xMaxYMin meet">
         <g id="arrow_out" transform="scale(0.3 0.3)">
          <a xlink:href="_yarp_clock_8cpp__incl_org.svg" target="_base">
           <rect id="button" ry="5" rx="5" y="6" x="6" height="38" width="38"
                fill="#f2f5e9" fill-opacity="0.5" stroke="#606060" stroke-width="1.0"/>
           <path id="arrow"
             d="M 11.500037,31.436501 C 11.940474,20.09759 22.043105,11.32322 32.158766,21.979434 L 37.068811,17.246167 C 37.068811,17.246167 37.088388,32 37.088388,32 L 22.160133,31.978069 C 22.160133,31.978069 26.997745,27.140456 26.997745,27.140456 C 18.528582,18.264221 13.291696,25.230495 11.500037,31.436501 z"
             style="fill:#404040;"/>
          </a>
         </g>
        </svg>
</svg>
