<?xml version="1.0" encoding="UTF-8" standalone="no"?>
<!DOCTYPE svg PUBLIC "-//W3C//DTD SVG 1.1//EN"
 "http://www.w3.org/Graphics/SVG/1.1/DTD/svg11.dtd">
<!-- Generated by graphviz version 2.36.0 (20140111.2315)
 -->
<!-- Title: /home/travis/build/robotology/wb&#45;toolbox/toolbox/src/YarpWrite.cpp Pages: 1 -->
<svg width="1123pt" height="286pt"
 viewBox="0.00 0.00 1123.20 286.00" xmlns="http://www.w3.org/2000/svg" xmlns:xlink="http://www.w3.org/1999/xlink">
<g id="graph0" class="graph" transform="scale(1 1) rotate(0) translate(4 282)">
<title>/home/travis/build/robotology/wb&#45;toolbox/toolbox/src/YarpWrite.cpp</title>
<!-- Node1 -->
<g id="node1" class="node"><title>Node1</title>
<polygon fill="#bfbfbf" stroke="black" points="450.699,-236.5 450.699,-277.5 583.699,-277.5 583.699,-236.5 450.699,-236.5"/>
<text text-anchor="start" x="458.699" y="-265.5" font-family="Helvetica,sans-Serif" font-size="10.00">/home/travis/build</text>
<text text-anchor="start" x="458.699" y="-254.5" font-family="Helvetica,sans-Serif" font-size="10.00">/robotology/wb&#45;toolbox</text>
<text text-anchor="middle" x="517.199" y="-243.5" font-family="Helvetica,sans-Serif" font-size="10.00">/toolbox/src/YarpWrite.cpp</text>
</g>
<!-- Node2 -->
<g id="node2" class="node"><title>Node2</title>
<g id="a_node2"><a xlink:href="_yarp_write_8h.html" target="_top" xlink:title="YarpWrite.h">
<polygon fill="none" stroke="black" points="217.199,-174.5 217.199,-193.5 285.199,-193.5 285.199,-174.5 217.199,-174.5"/>
<text text-anchor="middle" x="251.199" y="-181.5" font-family="Helvetica,sans-Serif" font-size="10.00">YarpWrite.h</text>
</a>
</g>
</g>
<!-- Node1&#45;&gt;Node2 -->
<g id="edge1" class="edge"><title>Node1&#45;&gt;Node2</title>
<path fill="none" stroke="midnightblue" d="M450.42,-238.175C400.982,-224.979 335.154,-207.409 292.966,-196.148"/>
<polygon fill="midnightblue" stroke="midnightblue" points="293.861,-192.765 283.296,-193.567 292.055,-199.528 293.861,-192.765"/>
</g>
<!-- Node4 -->
<g id="node4" class="node"><title>Node4</title>
<g id="a_node4"><a xlink:href="_parameters_8h.html" target="_top" xlink:title="Parameters.h">
<polygon fill="none" stroke="black" points="102.699,-56.5 102.699,-75.5 177.699,-75.5 177.699,-56.5 102.699,-56.5"/>
<text text-anchor="middle" x="140.199" y="-63.5" font-family="Helvetica,sans-Serif" font-size="10.00">Parameters.h</text>
</a>
</g>
</g>
<!-- Node1&#45;&gt;Node4 -->
<g id="edge23" class="edge"><title>Node1&#45;&gt;Node4</title>
<path fill="none" stroke="midnightblue" d="M450.397,-249.643C372.042,-241.204 247.801,-224.46 208.199,-200 176.058,-180.148 173.62,-166.023 157.199,-132 150.07,-117.228 145.643,-99.071 143.102,-85.7057"/>
<polygon fill="midnightblue" stroke="midnightblue" points="146.539,-85.0455 141.392,-75.7853 139.641,-86.2345 146.539,-85.0455"/>
</g>
<!-- Node8 -->
<g id="node8" class="node"><title>Node8</title>
<g id="a_node8"><a xlink:href="_block_information_8h.html" target="_top" xlink:title="BlockInformation.h">
<polygon fill="none" stroke="black" points="272.199,-56.5 272.199,-75.5 370.199,-75.5 370.199,-56.5 272.199,-56.5"/>
<text text-anchor="middle" x="321.199" y="-63.5" font-family="Helvetica,sans-Serif" font-size="10.00">BlockInformation.h</text>
</a>
</g>
</g>
<!-- Node1&#45;&gt;Node8 -->
<g id="edge11" class="edge"><title>Node1&#45;&gt;Node8</title>
<path fill="none" stroke="midnightblue" d="M496.962,-236.486C458.026,-198.94 373.384,-117.321 337.647,-82.8603"/>
<polygon fill="midnightblue" stroke="midnightblue" points="339.672,-79.9506 330.044,-75.5287 334.813,-84.9895 339.672,-79.9506"/>
</g>
<!-- Node10 -->
<g id="node10" class="node"><title>Node10</title>
<g id="a_node10"><a xlink:href="_log_8h.html" target="_top" xlink:title="Log.h">
<polygon fill="none" stroke="black" points="426.699,-56.5 426.699,-75.5 467.699,-75.5 467.699,-56.5 426.699,-56.5"/>
<text text-anchor="middle" x="447.199" y="-63.5" font-family="Helvetica,sans-Serif" font-size="10.00">Log.h</text>
</a>
</g>
</g>
<!-- Node1&#45;&gt;Node10 -->
<g id="edge16" class="edge"><title>Node1&#45;&gt;Node10</title>
<path fill="none" stroke="midnightblue" d="M505.235,-236.19C491.457,-212.365 469.3,-170.731 458.199,-132 453.809,-116.683 450.941,-98.802 449.238,-85.6758"/>
<polygon fill="midnightblue" stroke="midnightblue" points="452.69,-85.0645 448.032,-75.5486 445.739,-85.8923 452.69,-85.0645"/>
</g>
<!-- Node12 -->
<g id="node12" class="node"><title>Node12</title>
<g id="a_node12"><a xlink:href="_parameter_8h.html" target="_top" xlink:title="Parameter.h">
<polygon fill="none" stroke="black" points="14.1994,-56.5 14.1994,-75.5 84.1994,-75.5 84.1994,-56.5 14.1994,-56.5"/>
<text text-anchor="middle" x="49.1994" y="-63.5" font-family="Helvetica,sans-Serif" font-size="10.00">Parameter.h</text>
</a>
</g>
</g>
<!-- Node1&#45;&gt;Node12 -->
<g id="edge20" class="edge"><title>Node1&#45;&gt;Node12</title>
<path fill="none" stroke="midnightblue" d="M450.39,-250.422C363.783,-242.304 218.267,-225.377 171.199,-200 119.411,-172.078 77.9585,-113.562 59.5416,-84.355"/>
<polygon fill="midnightblue" stroke="midnightblue" points="62.4156,-82.3468 54.1973,-75.6602 56.452,-86.0124 62.4156,-82.3468"/>
</g>
<!-- Node13 -->
<g id="node13" class="node"><title>Node13</title>
<g id="a_node13"><a xlink:href="_signal_8h.html" target="_top" xlink:title="Signal.h">
<polygon fill="none" stroke="black" points="467.199,-112.5 467.199,-131.5 519.199,-131.5 519.199,-112.5 467.199,-112.5"/>
<text text-anchor="middle" x="493.199" y="-119.5" font-family="Helvetica,sans-Serif" font-size="10.00">Signal.h</text>
</a>
</g>
</g>
<!-- Node1&#45;&gt;Node13 -->
<g id="edge24" class="edge"><title>Node1&#45;&gt;Node13</title>
<path fill="none" stroke="midnightblue" d="M506.999,-236.359C502.108,-225.871 496.764,-212.564 494.199,-200 490.198,-180.394 490.533,-157.393 491.503,-141.669"/>
<polygon fill="midnightblue" stroke="midnightblue" points="494.995,-141.896 492.267,-131.658 488.016,-141.362 494.995,-141.896"/>
</g>
<!-- Node14 -->
<g id="node14" class="node"><title>Node14</title>
<polygon fill="none" stroke="#bfbfbf" points="502.699,-174.5 502.699,-193.5 617.699,-193.5 617.699,-174.5 502.699,-174.5"/>
<text text-anchor="middle" x="560.199" y="-181.5" font-family="Helvetica,sans-Serif" font-size="10.00">yarp/os/BufferedPort.h</text>
</g>
<!-- Node1&#45;&gt;Node14 -->
<g id="edge26" class="edge"><title>Node1&#45;&gt;Node14</title>
<path fill="none" stroke="midnightblue" d="M529.177,-236.223C535.58,-225.65 543.395,-212.747 549.579,-202.536"/>
<polygon fill="midnightblue" stroke="midnightblue" points="552.723,-204.102 554.909,-193.735 546.735,-200.475 552.723,-204.102"/>
</g>
<!-- Node15 -->
<g id="node15" class="node"><title>Node15</title>
<polygon fill="none" stroke="#bfbfbf" points="635.699,-174.5 635.699,-193.5 732.699,-193.5 732.699,-174.5 635.699,-174.5"/>
<text text-anchor="middle" x="684.199" y="-181.5" font-family="Helvetica,sans-Serif" font-size="10.00">yarp/os/Network.h</text>
</g>
<!-- Node1&#45;&gt;Node15 -->
<g id="edge27" class="edge"><title>Node1&#45;&gt;Node15</title>
<path fill="none" stroke="midnightblue" d="M563.275,-236.411C592.424,-224.018 629.245,-208.364 654.554,-197.604"/>
<polygon fill="midnightblue" stroke="midnightblue" points="656.145,-200.73 663.979,-193.597 653.406,-194.288 656.145,-200.73"/>
</g>
<!-- Node16 -->
<g id="node16" class="node"><title>Node16</title>
<polygon fill="none" stroke="#bfbfbf" points="751.199,-169 751.199,-199 879.199,-199 879.199,-169 751.199,-169"/>
<text text-anchor="start" x="759.199" y="-187" font-family="Helvetica,sans-Serif" font-size="10.00">yarp/os/PortReaderBuffer</text>
<text text-anchor="middle" x="815.199" y="-176" font-family="Helvetica,sans-Serif" font-size="10.00">&#45;inl.h</text>
</g>
<!-- Node1&#45;&gt;Node16 -->
<g id="edge28" class="edge"><title>Node1&#45;&gt;Node16</title>
<path fill="none" stroke="midnightblue" d="M583.706,-240.155C632.011,-228.646 697.207,-213.112 746.102,-201.463"/>
<polygon fill="midnightblue" stroke="midnightblue" points="747.048,-204.835 755.964,-199.113 745.426,-198.026 747.048,-204.835"/>
</g>
<!-- Node17 -->
<g id="node17" class="node"><title>Node17</title>
<polygon fill="none" stroke="#bfbfbf" points="897.699,-174.5 897.699,-193.5 988.699,-193.5 988.699,-174.5 897.699,-174.5"/>
<text text-anchor="middle" x="943.199" y="-181.5" font-family="Helvetica,sans-Serif" font-size="10.00">yarp/sig/Vector.h</text>
</g>
<!-- Node1&#45;&gt;Node17 -->
<g id="edge29" class="edge"><title>Node1&#45;&gt;Node17</title>
<path fill="none" stroke="midnightblue" d="M583.966,-248.3C658.564,-239.147 782.718,-222.266 888.199,-200 893.392,-198.904 898.823,-197.609 904.164,-196.246"/>
<polygon fill="midnightblue" stroke="midnightblue" points="905.468,-199.521 914.239,-193.577 903.676,-192.755 905.468,-199.521"/>
</g>
<!-- Node18 -->
<g id="node18" class="node"><title>Node18</title>
<polygon fill="none" stroke="#bfbfbf" points="1007.2,-174.5 1007.2,-193.5 1059.2,-193.5 1059.2,-174.5 1007.2,-174.5"/>
<text text-anchor="middle" x="1033.2" y="-181.5" font-family="Helvetica,sans-Serif" font-size="10.00">ostream</text>
</g>
<!-- Node1&#45;&gt;Node18 -->
<g id="edge30" class="edge"><title>Node1&#45;&gt;Node18</title>
<path fill="none" stroke="midnightblue" d="M583.88,-254.065C677.582,-250.035 852.91,-237.685 997.199,-200 1000.02,-199.262 1002.92,-198.347 1005.78,-197.336"/>
<polygon fill="midnightblue" stroke="midnightblue" points="1007.19,-200.544 1015.23,-193.643 1004.64,-194.024 1007.19,-200.544"/>
</g>
<!-- Node19 -->
<g id="node19" class="node"><title>Node19</title>
<polygon fill="none" stroke="#bfbfbf" points="1077.2,-174.5 1077.2,-193.5 1115.2,-193.5 1115.2,-174.5 1077.2,-174.5"/>
<text text-anchor="middle" x="1096.2" y="-181.5" font-family="Helvetica,sans-Serif" font-size="10.00">tuple</text>
</g>
<!-- Node1&#45;&gt;Node19 -->
<g id="edge31" class="edge"><title>Node1&#45;&gt;Node19</title>
<path fill="none" stroke="midnightblue" d="M583.781,-252.477C709.959,-245.268 979.232,-227.185 1068.2,-200 1069.9,-199.479 1071.62,-198.851 1073.33,-198.151"/>
<polygon fill="midnightblue" stroke="midnightblue" points="1075.24,-201.113 1082.71,-193.598 1072.18,-194.816 1075.24,-201.113"/>
</g>
<!-- Node3 -->
<g id="node3" class="node"><title>Node3</title>
<g id="a_node3"><a xlink:href="_block_8h.html" target="_top" xlink:title="Block.h">
<polygon fill="none" stroke="black" points="166.199,-112.5 166.199,-131.5 216.199,-131.5 216.199,-112.5 166.199,-112.5"/>
<text text-anchor="middle" x="191.199" y="-119.5" font-family="Helvetica,sans-Serif" font-size="10.00">Block.h</text>
</a>
</g>
</g>
<!-- Node2&#45;&gt;Node3 -->
<g id="edge2" class="edge"><title>Node2&#45;&gt;Node3</title>
<path fill="none" stroke="midnightblue" d="M242.603,-174.403C233.336,-165.136 218.382,-150.183 206.987,-138.788"/>
<polygon fill="midnightblue" stroke="midnightblue" points="209.326,-136.177 199.78,-131.581 204.376,-141.127 209.326,-136.177"/>
</g>
<!-- Node5 -->
<g id="node5" class="node"><title>Node5</title>
<polygon fill="none" stroke="#bfbfbf" points="365.199,-0.5 365.199,-19.5 417.199,-19.5 417.199,-0.5 365.199,-0.5"/>
<text text-anchor="middle" x="391.199" y="-7.5" font-family="Helvetica,sans-Serif" font-size="10.00">memory</text>
</g>
<!-- Node2&#45;&gt;Node5 -->
<g id="edge9" class="edge"><title>Node2&#45;&gt;Node5</title>
<path fill="none" stroke="midnightblue" d="M267.044,-174.487C294.459,-158.872 350.464,-122.903 378.199,-76 386.528,-61.9151 389.616,-43.4244 390.714,-29.767"/>
<polygon fill="midnightblue" stroke="midnightblue" points="394.217,-29.8027 391.241,-19.6345 387.227,-29.4392 394.217,-29.8027"/>
</g>
<!-- Node6 -->
<g id="node6" class="node"><title>Node6</title>
<polygon fill="none" stroke="#bfbfbf" points="204.699,-0.5 204.699,-19.5 245.699,-19.5 245.699,-0.5 204.699,-0.5"/>
<text text-anchor="middle" x="225.199" y="-7.5" font-family="Helvetica,sans-Serif" font-size="10.00">string</text>
</g>
<!-- Node2&#45;&gt;Node6 -->
<g id="edge10" class="edge"><title>Node2&#45;&gt;Node6</title>
<path fill="none" stroke="midnightblue" d="M249.874,-174.234C245.84,-147.548 233.646,-66.8773 228.055,-29.8931"/>
<polygon fill="midnightblue" stroke="midnightblue" points="231.446,-28.9087 226.491,-19.5442 224.525,-29.955 231.446,-28.9087"/>
</g>
<!-- Node3&#45;&gt;Node4 -->
<g id="edge3" class="edge"><title>Node3&#45;&gt;Node4</title>
<path fill="none" stroke="midnightblue" d="M182.778,-112.083C175.351,-104.22 164.348,-92.5688 155.387,-83.0813"/>
<polygon fill="midnightblue" stroke="midnightblue" points="157.875,-80.618 148.464,-75.7511 152.786,-85.4244 157.875,-80.618"/>
</g>
<!-- Node3&#45;&gt;Node6 -->
<g id="edge7" class="edge"><title>Node3&#45;&gt;Node6</title>
<path fill="none" stroke="midnightblue" d="M193.867,-112.368C199.379,-94.5366 212.126,-53.2953 219.552,-29.2717"/>
<polygon fill="midnightblue" stroke="midnightblue" points="222.935,-30.179 222.544,-19.5914 216.247,-28.1119 222.935,-30.179"/>
</g>
<!-- Node7 -->
<g id="node7" class="node"><title>Node7</title>
<polygon fill="none" stroke="#bfbfbf" points="72.1994,-0.5 72.1994,-19.5 116.199,-19.5 116.199,-0.5 72.1994,-0.5"/>
<text text-anchor="middle" x="94.1994" y="-7.5" font-family="Helvetica,sans-Serif" font-size="10.00">vector</text>
</g>
<!-- Node3&#45;&gt;Node7 -->
<g id="edge8" class="edge"><title>Node3&#45;&gt;Node7</title>
<path fill="none" stroke="midnightblue" d="M166.195,-118.706C120.18,-113.911 24.9744,-101.13 5.19945,-76 -14.5844,-50.8589 29.4412,-30.8308 62.3632,-19.9615"/>
<polygon fill="midnightblue" stroke="midnightblue" points="63.6514,-23.2255 72.141,-16.8868 61.5516,-16.5479 63.6514,-23.2255"/>
</g>
<!-- Node4&#45;&gt;Node5 -->
<g id="edge4" class="edge"><title>Node4&#45;&gt;Node5</title>
<path fill="none" stroke="midnightblue" d="M177.767,-57.0088C219.793,-48.0555 289.893,-33.0802 350.199,-20 351.864,-19.6389 353.567,-19.2687 355.286,-18.8941"/>
<polygon fill="midnightblue" stroke="midnightblue" points="356.154,-22.2871 365.177,-16.7328 354.66,-15.4485 356.154,-22.2871"/>
</g>
<!-- Node4&#45;&gt;Node6 -->
<g id="edge5" class="edge"><title>Node4&#45;&gt;Node6</title>
<path fill="none" stroke="midnightblue" d="M153.856,-56.324C167.116,-47.9002 187.467,-34.9709 203.046,-25.0741"/>
<polygon fill="midnightblue" stroke="midnightblue" points="205.013,-27.9711 211.577,-19.6545 201.259,-22.0626 205.013,-27.9711"/>
</g>
<!-- Node4&#45;&gt;Node7 -->
<g id="edge6" class="edge"><title>Node4&#45;&gt;Node7</title>
<path fill="none" stroke="midnightblue" d="M132.603,-56.083C125.972,-48.2982 116.178,-36.8015 108.141,-27.3665"/>
<polygon fill="midnightblue" stroke="midnightblue" points="110.803,-25.0939 101.654,-19.7511 105.474,-29.6332 110.803,-25.0939"/>
</g>
<!-- Node8&#45;&gt;Node5 -->
<g id="edge12" class="edge"><title>Node8&#45;&gt;Node5</title>
<path fill="none" stroke="midnightblue" d="M332.446,-56.324C342.997,-48.1849 359,-35.8395 371.642,-26.0874"/>
<polygon fill="midnightblue" stroke="midnightblue" points="373.968,-28.7132 379.748,-19.8339 369.692,-23.1707 373.968,-28.7132"/>
</g>
<!-- Node8&#45;&gt;Node6 -->
<g id="edge13" class="edge"><title>Node8&#45;&gt;Node6</title>
<path fill="none" stroke="midnightblue" d="M305.775,-56.324C290.66,-47.8215 267.384,-34.7288 249.728,-24.7975"/>
<polygon fill="midnightblue" stroke="midnightblue" points="251.017,-21.5066 240.585,-19.6545 247.585,-27.6077 251.017,-21.5066"/>
</g>
<!-- Node8&#45;&gt;Node7 -->
<g id="edge15" class="edge"><title>Node8&#45;&gt;Node7</title>
<path fill="none" stroke="midnightblue" d="M285.231,-56.4435C241.436,-46.0255 168.142,-28.5899 126.217,-18.6166"/>
<polygon fill="midnightblue" stroke="midnightblue" points="126.81,-15.16 116.272,-16.2506 125.19,-21.97 126.81,-15.16"/>
</g>
<!-- Node9 -->
<g id="node9" class="node"><title>Node9</title>
<polygon fill="none" stroke="#bfbfbf" points="301.199,-0.5 301.199,-19.5 341.199,-19.5 341.199,-0.5 301.199,-0.5"/>
<text text-anchor="middle" x="321.199" y="-7.5" font-family="Helvetica,sans-Serif" font-size="10.00">utility</text>
</g>
<!-- Node8&#45;&gt;Node9 -->
<g id="edge14" class="edge"><title>Node8&#45;&gt;Node9</title>
<path fill="none" stroke="midnightblue" d="M321.199,-56.083C321.199,-49.0059 321.199,-38.8611 321.199,-29.9865"/>
<polygon fill="midnightblue" stroke="midnightblue" points="324.7,-29.751 321.199,-19.7511 317.7,-29.7511 324.7,-29.751"/>
</g>
<!-- Node10&#45;&gt;Node5 -->
<g id="edge17" class="edge"><title>Node10&#45;&gt;Node5</title>
<path fill="none" stroke="midnightblue" d="M438.202,-56.324C430.005,-48.4196 417.694,-36.5482 407.727,-26.9377"/>
<polygon fill="midnightblue" stroke="midnightblue" points="409.988,-24.2558 400.361,-19.8339 405.13,-29.2947 409.988,-24.2558"/>
</g>
<!-- Node10&#45;&gt;Node6 -->
<g id="edge19" class="edge"><title>Node10&#45;&gt;Node6</title>
<path fill="none" stroke="midnightblue" d="M426.314,-59.9198C386.96,-50.3473 301.67,-29.6009 255.823,-18.4489"/>
<polygon fill="midnightblue" stroke="midnightblue" points="256.411,-14.9901 245.867,-16.0274 254.757,-21.7918 256.411,-14.9901"/>
</g>
<!-- Node11 -->
<g id="node11" class="node"><title>Node11</title>
<polygon fill="none" stroke="#bfbfbf" points="435.199,-0.5 435.199,-19.5 487.199,-19.5 487.199,-0.5 435.199,-0.5"/>
<text text-anchor="middle" x="461.199" y="-7.5" font-family="Helvetica,sans-Serif" font-size="10.00">sstream</text>
</g>
<!-- Node10&#45;&gt;Node11 -->
<g id="edge18" class="edge"><title>Node10&#45;&gt;Node11</title>
<path fill="none" stroke="midnightblue" d="M449.511,-56.083C451.366,-48.9272 454.035,-38.6353 456.354,-29.6911"/>
<polygon fill="midnightblue" stroke="midnightblue" points="459.809,-30.3094 458.931,-19.7511 453.033,-28.5527 459.809,-30.3094"/>
</g>
<!-- Node12&#45;&gt;Node6 -->
<g id="edge21" class="edge"><title>Node12&#45;&gt;Node6</title>
<path fill="none" stroke="midnightblue" d="M77.0872,-56.4435C109.237,-46.5794 161.892,-30.424 194.991,-20.2685"/>
<polygon fill="midnightblue" stroke="midnightblue" points="196.058,-23.6023 204.591,-17.323 194.004,-16.9102 196.058,-23.6023"/>
</g>
<!-- Node12&#45;&gt;Node7 -->
<g id="edge22" class="edge"><title>Node12&#45;&gt;Node7</title>
<path fill="none" stroke="midnightblue" d="M56.6303,-56.083C63.0521,-48.3768 72.505,-37.0333 80.3219,-27.6531"/>
<polygon fill="midnightblue" stroke="midnightblue" points="83.1938,-29.674 86.9069,-19.7511 77.8162,-25.1927 83.1938,-29.674"/>
</g>
<!-- Node13&#45;&gt;Node5 -->
<g id="edge25" class="edge"><title>Node13&#45;&gt;Node5</title>
<path fill="none" stroke="midnightblue" d="M493.084,-112.46C492.477,-99.0429 489.525,-72.8246 476.199,-56 463.72,-40.2438 444.183,-29.3556 426.985,-22.2411"/>
<polygon fill="midnightblue" stroke="midnightblue" points="427.79,-18.801 417.2,-18.48 425.278,-25.3349 427.79,-18.801"/>
</g>
</g>
</svg>
