<?xml version="1.0" encoding="UTF-8" standalone="no"?>
<!DOCTYPE svg PUBLIC "-//W3C//DTD SVG 1.1//EN"
 "http://www.w3.org/Graphics/SVG/1.1/DTD/svg11.dtd">
<!-- Generated by graphviz version 2.38.0 (20140413.2041)
 -->
<!-- Title: /home/travis/build/robotology/wb&#45;toolbox/toolbox/library/src/YarpRead.cpp Pages: 1 -->
<!--zoomable 173 -->
<svg id="main" version="1.1" xmlns="http://www.w3.org/2000/svg" xmlns:xlink="http://www.w3.org/1999/xlink" xml:space="preserve" onload="init(evt)">
<style type="text/css"><![CDATA[
.edge:hover path { stroke: red; }
.edge:hover polygon { stroke: red; fill: red; }
]]></style>
<script type="text/javascript"><![CDATA[
var edges = document.getElementsByTagName('g');
if (edges && edges.length) {
  for (var i=0;i<edges.length;i++) {
    if (edges[i].id.substr(0,4)=='edge') {
      edges[i].setAttribute('class','edge');
    }
  }
}
]]></script>
        <defs>
                <circle id="rim" cx="0" cy="0" r="7"/>
                <circle id="rim2" cx="0" cy="0" r="3.5"/>
                <g id="zoomPlus">
                        <use xlink:href="#rim" fill="#404040">
                                <set attributeName="fill" to="#808080" begin="zoomplus.mouseover" end="zoomplus.mouseout"/>
                        </use>
                        <path d="M-4,0h8M0,-4v8" fill="none" stroke="white" stroke-width="1.5" pointer-events="none"/>
                </g>
                <g id="zoomMin">
                        <use xlink:href="#rim" fill="#404040">
                                <set attributeName="fill" to="#808080" begin="zoomminus.mouseover" end="zoomminus.mouseout"/>
                        </use>
                        <path d="M-4,0h8" fill="none" stroke="white" stroke-width="1.5" pointer-events="none"/>
                </g>
                <g id="dirArrow">
                        <path fill="none" stroke="white" stroke-width="1.5" d="M0,-3.0v7 M-2.5,-0.5L0,-3.0L2.5,-0.5"/>
                </g>
               <g id="resetDef">
                       <use xlink:href="#rim2" fill="#404040">
                               <set attributeName="fill" to="#808080" begin="reset.mouseover" end="reset.mouseout"/>
                       </use>
               </g>
        </defs>

<script type="text/javascript">
var viewWidth = 2306;
var viewHeight = 173;
var sectionId = 'dynsection-0';
</script>
<script xlink:href="svgpan.js"/>
<svg id="graph" class="graph">
<g id="viewport">
<title>/home/travis/build/robotology/wb&#45;toolbox/toolbox/library/src/YarpRead.cpp</title>
<!-- Node1 -->
<g id="node1" class="node"><title>Node1</title>
<polygon fill="#bfbfbf" stroke="black" points="1312,-123.5 1312,-164.5 1482,-164.5 1482,-123.5 1312,-123.5"/>
<text text-anchor="start" x="1320" y="-152.5" font-family="Helvetica,sans-Serif" font-size="10.00">/home/travis/build</text>
<text text-anchor="start" x="1320" y="-141.5" font-family="Helvetica,sans-Serif" font-size="10.00">/robotology/wb&#45;toolbox</text>
<text text-anchor="middle" x="1397" y="-130.5" font-family="Helvetica,sans-Serif" font-size="10.00">/toolbox/library/src/YarpRead.cpp</text>
</g>
<!-- Node2 -->
<g id="node2" class="node"><title>Node2</title>
<g id="a_node2"><a xlink:href="_yarp_read_8h.html" target="_top" xlink:title="WBToolbox/Block/YarpRead.h">
<polygon fill="none" stroke="black" points="103,-62 103,-81 253,-81 253,-62 103,-62"/>
<text text-anchor="middle" x="178" y="-69" font-family="Helvetica,sans-Serif" font-size="10.00">WBToolbox/Block/YarpRead.h</text>
</a>
</g>
</g>
<!-- Node1&#45;&gt;Node2 -->
<g id="edge1" class="edge"><title>Node1&#45;&gt;Node2</title>
<path fill="none" stroke="midnightblue" d="M1311.7,-142.03C1122.91,-139.17 655.705,-128.165 267,-87 256.273,-85.8639 244.872,-84.2889 233.938,-82.5936"/>
<polygon fill="midnightblue" stroke="midnightblue" points="234.488,-79.1371 224.06,-81.0119 233.381,-86.0491 234.488,-79.1371"/>
</g>
<!-- Node5 -->
<g id="node5" class="node"><title>Node5</title>
<polygon fill="none" stroke="#bfbfbf" points="242,-0.5 242,-19.5 286,-19.5 286,-0.5 242,-0.5"/>
<text text-anchor="middle" x="264" y="-7.5" font-family="Helvetica,sans-Serif" font-size="10.00">string</text>
</g>
<!-- Node1&#45;&gt;Node5 -->
<g id="edge19" class="edge"><title>Node1&#45;&gt;Node5</title>
<path fill="none" stroke="midnightblue" d="M1311.96,-143.617C1068.9,-144.695 383.257,-142.711 300,-87 280.707,-74.0903 271.492,-47.8993 267.279,-29.9049"/>
<polygon fill="midnightblue" stroke="midnightblue" points="270.678,-29.0548 265.257,-19.952 263.818,-30.4488 270.678,-29.0548"/>
</g>
<!-- Node6 -->
<g id="node6" class="node"><title>Node6</title>
<polygon fill="none" stroke="#bfbfbf" points="309,-62 309,-81 503,-81 503,-62 309,-62"/>
<text text-anchor="middle" x="406" y="-69" font-family="Helvetica,sans-Serif" font-size="10.00">BlockFactory/Core/BlockInformation.h</text>
</g>
<!-- Node1&#45;&gt;Node6 -->
<g id="edge5" class="edge"><title>Node1&#45;&gt;Node6</title>
<path fill="none" stroke="midnightblue" d="M1311.81,-139.629C1153.96,-132.934 805.473,-116.044 513,-87 500.067,-85.7157 486.292,-84.0636 473.079,-82.3371"/>
<polygon fill="midnightblue" stroke="midnightblue" points="473.482,-78.86 463.107,-81.0072 472.557,-85.7986 473.482,-78.86"/>
</g>
<!-- Node7 -->
<g id="node7" class="node"><title>Node7</title>
<polygon fill="none" stroke="#bfbfbf" points="521.5,-62 521.5,-81 652.5,-81 652.5,-62 521.5,-62"/>
<text text-anchor="middle" x="587" y="-69" font-family="Helvetica,sans-Serif" font-size="10.00">BlockFactory/Core/Log.h</text>
</g>
<!-- Node1&#45;&gt;Node7 -->
<g id="edge6" class="edge"><title>Node1&#45;&gt;Node7</title>
<path fill="none" stroke="midnightblue" d="M1311.79,-139.69C1174.49,-133.644 896.011,-118.43 662,-87 653.777,-85.8956 645.094,-84.4649 636.666,-82.9335"/>
<polygon fill="midnightblue" stroke="midnightblue" points="637.037,-79.4419 626.562,-81.0307 635.741,-86.3209 637.037,-79.4419"/>
</g>
<!-- Node8 -->
<g id="node8" class="node"><title>Node8</title>
<polygon fill="none" stroke="#bfbfbf" points="671,-62 671,-81 835,-81 835,-62 671,-62"/>
<text text-anchor="middle" x="753" y="-69" font-family="Helvetica,sans-Serif" font-size="10.00">BlockFactory/Core/Parameter.h</text>
</g>
<!-- Node1&#45;&gt;Node8 -->
<g id="edge7" class="edge"><title>Node1&#45;&gt;Node8</title>
<path fill="none" stroke="midnightblue" d="M1311.56,-135.872C1202.77,-126.446 1009.07,-108.491 844,-87 834.125,-85.7143 823.671,-84.1965 813.505,-82.6355"/>
<polygon fill="midnightblue" stroke="midnightblue" points="813.887,-79.1527 803.466,-81.0671 812.806,-86.0688 813.887,-79.1527"/>
</g>
<!-- Node9 -->
<g id="node9" class="node"><title>Node9</title>
<polygon fill="none" stroke="#bfbfbf" points="853,-62 853,-81 1023,-81 1023,-62 853,-62"/>
<text text-anchor="middle" x="938" y="-69" font-family="Helvetica,sans-Serif" font-size="10.00">BlockFactory/Core/Parameters.h</text>
</g>
<!-- Node1&#45;&gt;Node9 -->
<g id="edge8" class="edge"><title>Node1&#45;&gt;Node9</title>
<path fill="none" stroke="midnightblue" d="M1311.74,-129.905C1222.61,-116.215 1084.67,-95.027 1003.65,-82.5833"/>
<polygon fill="midnightblue" stroke="midnightblue" points="1003.99,-79.0947 993.574,-81.0359 1002.93,-86.0135 1003.99,-79.0947"/>
</g>
<!-- Node10 -->
<g id="node10" class="node"><title>Node10</title>
<polygon fill="none" stroke="#bfbfbf" points="1041.5,-62 1041.5,-81 1184.5,-81 1184.5,-62 1041.5,-62"/>
<text text-anchor="middle" x="1113" y="-69" font-family="Helvetica,sans-Serif" font-size="10.00">BlockFactory/Core/Signal.h</text>
</g>
<!-- Node1&#45;&gt;Node10 -->
<g id="edge9" class="edge"><title>Node1&#45;&gt;Node10</title>
<path fill="none" stroke="midnightblue" d="M1318.27,-123.455C1266.29,-110.553 1200.1,-94.1224 1157.16,-83.4611"/>
<polygon fill="midnightblue" stroke="midnightblue" points="1157.84,-80.0254 1147.29,-81.013 1156.16,-86.8192 1157.84,-80.0254"/>
</g>
<!-- Node11 -->
<g id="node11" class="node"><title>Node11</title>
<polygon fill="none" stroke="#bfbfbf" points="1203,-62 1203,-81 1327,-81 1327,-62 1203,-62"/>
<text text-anchor="middle" x="1265" y="-69" font-family="Helvetica,sans-Serif" font-size="10.00">yarp/os/BufferedPort.h</text>
</g>
<!-- Node1&#45;&gt;Node11 -->
<g id="edge10" class="edge"><title>Node1&#45;&gt;Node11</title>
<path fill="none" stroke="midnightblue" d="M1360.23,-123.362C1337.94,-111.457 1310.08,-96.5757 1290.26,-85.9919"/>
<polygon fill="midnightblue" stroke="midnightblue" points="1291.71,-82.7973 1281.24,-81.1734 1288.41,-88.9718 1291.71,-82.7973"/>
</g>
<!-- Node12 -->
<g id="node12" class="node"><title>Node12</title>
<polygon fill="none" stroke="#bfbfbf" points="1345.5,-62 1345.5,-81 1448.5,-81 1448.5,-62 1345.5,-62"/>
<text text-anchor="middle" x="1397" y="-69" font-family="Helvetica,sans-Serif" font-size="10.00">yarp/os/Network.h</text>
</g>
<!-- Node1&#45;&gt;Node12 -->
<g id="edge11" class="edge"><title>Node1&#45;&gt;Node12</title>
<path fill="none" stroke="midnightblue" d="M1397,-123.362C1397,-113.297 1397,-101.104 1397,-91.18"/>
<polygon fill="midnightblue" stroke="midnightblue" points="1400.5,-91.1733 1397,-81.1734 1393.5,-91.1734 1400.5,-91.1733"/>
</g>
<!-- Node13 -->
<g id="node13" class="node"><title>Node13</title>
<polygon fill="none" stroke="#bfbfbf" points="1467,-56.5 1467,-86.5 1603,-86.5 1603,-56.5 1467,-56.5"/>
<text text-anchor="start" x="1475" y="-74.5" font-family="Helvetica,sans-Serif" font-size="10.00">yarp/os/PortReaderBuffer</text>
<text text-anchor="middle" x="1535" y="-63.5" font-family="Helvetica,sans-Serif" font-size="10.00">&#45;inl.h</text>
</g>
<!-- Node1&#45;&gt;Node13 -->
<g id="edge12" class="edge"><title>Node1&#45;&gt;Node13</title>
<path fill="none" stroke="midnightblue" d="M1435.44,-123.362C1455.04,-113.348 1478.77,-101.228 1498.14,-91.3309"/>
<polygon fill="midnightblue" stroke="midnightblue" points="1499.95,-94.3363 1507.26,-86.67 1496.77,-88.1026 1499.95,-94.3363"/>
</g>
<!-- Node14 -->
<g id="node14" class="node"><title>Node14</title>
<polygon fill="none" stroke="#bfbfbf" points="1621,-62 1621,-81 1717,-81 1717,-62 1621,-62"/>
<text text-anchor="middle" x="1669" y="-69" font-family="Helvetica,sans-Serif" font-size="10.00">yarp/os/Stamp.h</text>
</g>
<!-- Node1&#45;&gt;Node14 -->
<g id="edge13" class="edge"><title>Node1&#45;&gt;Node14</title>
<path fill="none" stroke="midnightblue" d="M1472.41,-123.455C1522.08,-110.58 1585.31,-94.1917 1626.45,-83.5286"/>
<polygon fill="midnightblue" stroke="midnightblue" points="1627.35,-86.9101 1636.16,-81.013 1625.6,-80.134 1627.35,-86.9101"/>
</g>
<!-- Node15 -->
<g id="node15" class="node"><title>Node15</title>
<polygon fill="none" stroke="#bfbfbf" points="1735,-62 1735,-81 1861,-81 1861,-62 1735,-62"/>
<text text-anchor="middle" x="1798" y="-69" font-family="Helvetica,sans-Serif" font-size="10.00">yarp/os/SystemClock.h</text>
</g>
<!-- Node1&#45;&gt;Node15 -->
<g id="edge14" class="edge"><title>Node1&#45;&gt;Node15</title>
<path fill="none" stroke="midnightblue" d="M1482.33,-129.199C1548.82,-118.271 1643.4,-102.343 1726,-87 1732.65,-85.7639 1739.64,-84.4171 1746.54,-83.0586"/>
<polygon fill="midnightblue" stroke="midnightblue" points="1747.42,-86.454 1756.54,-81.0713 1746.05,-79.5884 1747.42,-86.454"/>
</g>
<!-- Node16 -->
<g id="node16" class="node"><title>Node16</title>
<polygon fill="none" stroke="#bfbfbf" points="1879.5,-62 1879.5,-81 1966.5,-81 1966.5,-62 1879.5,-62"/>
<text text-anchor="middle" x="1923" y="-69" font-family="Helvetica,sans-Serif" font-size="10.00">yarp/os/Time.h</text>
</g>
<!-- Node1&#45;&gt;Node16 -->
<g id="edge15" class="edge"><title>Node1&#45;&gt;Node16</title>
<path fill="none" stroke="midnightblue" d="M1482.18,-136.766C1577.34,-128.911 1735.67,-113.175 1870,-87 1874.84,-86.0575 1879.88,-84.905 1884.85,-83.6656"/>
<polygon fill="midnightblue" stroke="midnightblue" points="1886.07,-86.9635 1894.85,-81.0389 1884.29,-80.193 1886.07,-86.9635"/>
</g>
<!-- Node17 -->
<g id="node17" class="node"><title>Node17</title>
<polygon fill="none" stroke="#bfbfbf" points="1985,-62 1985,-81 2081,-81 2081,-62 1985,-62"/>
<text text-anchor="middle" x="2033" y="-69" font-family="Helvetica,sans-Serif" font-size="10.00">yarp/sig/Vector.h</text>
</g>
<!-- Node1&#45;&gt;Node17 -->
<g id="edge16" class="edge"><title>Node1&#45;&gt;Node17</title>
<path fill="none" stroke="midnightblue" d="M1482.41,-138.826C1595.85,-132.351 1802.15,-117.337 1976,-87 1981.53,-86.0346 1987.32,-84.8147 1992.99,-83.4943"/>
<polygon fill="midnightblue" stroke="midnightblue" points="1994.13,-86.8194 2003.01,-81.0421 1992.47,-80.0201 1994.13,-86.8194"/>
</g>
<!-- Node18 -->
<g id="node18" class="node"><title>Node18</title>
<polygon fill="none" stroke="#bfbfbf" points="2099,-62 2099,-81 2161,-81 2161,-62 2099,-62"/>
<text text-anchor="middle" x="2130" y="-69" font-family="Helvetica,sans-Serif" font-size="10.00">algorithm</text>
</g>
<!-- Node1&#45;&gt;Node18 -->
<g id="edge17" class="edge"><title>Node1&#45;&gt;Node18</title>
<path fill="none" stroke="midnightblue" d="M1482.07,-143.384C1613.85,-142.36 1874.6,-133.857 2090,-87 2093.25,-86.2934 2096.59,-85.3872 2099.89,-84.3734"/>
<polygon fill="midnightblue" stroke="midnightblue" points="2101.2,-87.6254 2109.55,-81.1011 2098.96,-80.9957 2101.2,-87.6254"/>
</g>
<!-- Node19 -->
<g id="node19" class="node"><title>Node19</title>
<polygon fill="none" stroke="#bfbfbf" points="2179.5,-62 2179.5,-81 2238.5,-81 2238.5,-62 2179.5,-62"/>
<text text-anchor="middle" x="2209" y="-69" font-family="Helvetica,sans-Serif" font-size="10.00">iostream</text>
</g>
<!-- Node1&#45;&gt;Node19 -->
<g id="edge18" class="edge"><title>Node1&#45;&gt;Node19</title>
<path fill="none" stroke="midnightblue" d="M1482.26,-139.871C1655.01,-133.03 2040.9,-115.075 2170,-87 2173.08,-86.3308 2176.24,-85.4691 2179.36,-84.4997"/>
<polygon fill="midnightblue" stroke="midnightblue" points="2180.78,-87.7145 2189.09,-81.1409 2178.49,-81.0982 2180.78,-87.7145"/>
</g>
<!-- Node20 -->
<g id="node20" class="node"><title>Node20</title>
<polygon fill="none" stroke="#bfbfbf" points="2256.5,-62 2256.5,-81 2297.5,-81 2297.5,-62 2256.5,-62"/>
<text text-anchor="middle" x="2277" y="-69" font-family="Helvetica,sans-Serif" font-size="10.00">tuple</text>
</g>
<!-- Node1&#45;&gt;Node20 -->
<g id="edge20" class="edge"><title>Node1&#45;&gt;Node20</title>
<path fill="none" stroke="midnightblue" d="M1482.23,-141.667C1668.26,-138.063 2105.45,-125.636 2248,-87 2249.72,-86.5343 2251.45,-85.9624 2253.18,-85.3176"/>
<polygon fill="midnightblue" stroke="midnightblue" points="2255,-88.3377 2262.7,-81.06 2252.14,-81.9476 2255,-88.3377"/>
</g>
<!-- Node3 -->
<g id="node3" class="node"><title>Node3</title>
<polygon fill="none" stroke="#bfbfbf" points="0,-0.5 0,-19.5 140,-19.5 140,-0.5 0,-0.5"/>
<text text-anchor="middle" x="70" y="-7.5" font-family="Helvetica,sans-Serif" font-size="10.00">BlockFactory/Core/Block.h</text>
</g>
<!-- Node2&#45;&gt;Node3 -->
<g id="edge2" class="edge"><title>Node2&#45;&gt;Node3</title>
<path fill="none" stroke="midnightblue" d="M162.526,-61.9751C144.722,-52.1664 115.259,-35.9346 94.368,-24.425"/>
<polygon fill="midnightblue" stroke="midnightblue" points="95.8927,-21.269 85.4451,-19.5091 92.5149,-27.4001 95.8927,-21.269"/>
</g>
<!-- Node4 -->
<g id="node4" class="node"><title>Node4</title>
<polygon fill="none" stroke="#bfbfbf" points="158.5,-0.5 158.5,-19.5 215.5,-19.5 215.5,-0.5 158.5,-0.5"/>
<text text-anchor="middle" x="187" y="-7.5" font-family="Helvetica,sans-Serif" font-size="10.00">memory</text>
</g>
<!-- Node2&#45;&gt;Node4 -->
<g id="edge3" class="edge"><title>Node2&#45;&gt;Node4</title>
<path fill="none" stroke="midnightblue" d="M179.289,-61.9751C180.559,-53.5803 182.541,-40.4806 184.177,-29.6631"/>
<polygon fill="midnightblue" stroke="midnightblue" points="187.678,-29.9201 185.713,-19.5091 180.757,-28.8731 187.678,-29.9201"/>
</g>
<!-- Node2&#45;&gt;Node5 -->
<g id="edge4" class="edge"><title>Node2&#45;&gt;Node5</title>
<path fill="none" stroke="midnightblue" d="M190.322,-61.9751C204.116,-52.4315 226.699,-36.8073 243.232,-25.3683"/>
<polygon fill="midnightblue" stroke="midnightblue" points="245.469,-28.077 251.701,-19.5091 241.486,-22.3205 245.469,-28.077"/>
</g>
</g>
</svg>
        <g id="navigator" transform="translate(0 0)" fill="#404254">
                <rect fill="#f2f5e9" fill-opacity="0.5" stroke="#606060" stroke-width=".5" x="0" y="0" width="60" height="60"/>
                <use id="zoomplus" xlink:href="#zoomPlus" x="17" y="9" onmousedown="handleZoom(evt,'in')"/>
                <use id="zoomminus" xlink:href="#zoomMin" x="42" y="9" onmousedown="handleZoom(evt,'out')"/>
                <use id="reset" xlink:href="#resetDef" x="30" y="36" onmousedown="handleReset()"/>
                <g id="arrowUp" xlink:href="#dirArrow" transform="translate(30 24)" onmousedown="handlePan(0,-1)">
                  <use xlink:href="#rim" fill="#404040">
                        <set attributeName="fill" to="#808080" begin="arrowUp.mouseover" end="arrowUp.mouseout"/>
                  </use>
                  <path fill="none" stroke="white" stroke-width="1.5" d="M0,-3.0v7 M-2.5,-0.5L0,-3.0L2.5,-0.5"/>
                </g>
                <g id="arrowRight" xlink:href="#dirArrow" transform="rotate(90) translate(36 -43)" onmousedown="handlePan(1,0)">
                  <use xlink:href="#rim" fill="#404040">
                        <set attributeName="fill" to="#808080" begin="arrowRight.mouseover" end="arrowRight.mouseout"/>
                  </use>
                  <path fill="none" stroke="white" stroke-width="1.5" d="M0,-3.0v7 M-2.5,-0.5L0,-3.0L2.5,-0.5"/>
                </g>
                <g id="arrowDown" xlink:href="#dirArrow" transform="rotate(180) translate(-30 -48)" onmousedown="handlePan(0,1)">
                  <use xlink:href="#rim" fill="#404040">
                        <set attributeName="fill" to="#808080" begin="arrowDown.mouseover" end="arrowDown.mouseout"/>
                  </use>
                  <path fill="none" stroke="white" stroke-width="1.5" d="M0,-3.0v7 M-2.5,-0.5L0,-3.0L2.5,-0.5"/>
                </g>
                <g id="arrowLeft" xlink:href="#dirArrow" transform="rotate(270) translate(-36 17)" onmousedown="handlePan(-1,0)">
                  <use xlink:href="#rim" fill="#404040">
                        <set attributeName="fill" to="#808080" begin="arrowLeft.mouseover" end="arrowLeft.mouseout"/>
                  </use>
                  <path fill="none" stroke="white" stroke-width="1.5" d="M0,-3.0v7 M-2.5,-0.5L0,-3.0L2.5,-0.5"/>
                </g>
        </g>
        <svg viewBox="0 0 15 15" width="100%" height="30px" preserveAspectRatio="xMaxYMin meet">
         <g id="arrow_out" transform="scale(0.3 0.3)">
          <a xlink:href="_yarp_read_8cpp__incl_org.svg" target="_base">
           <rect id="button" ry="5" rx="5" y="6" x="6" height="38" width="38"
                fill="#f2f5e9" fill-opacity="0.5" stroke="#606060" stroke-width="1.0"/>
           <path id="arrow"
             d="M 11.500037,31.436501 C 11.940474,20.09759 22.043105,11.32322 32.158766,21.979434 L 37.068811,17.246167 C 37.068811,17.246167 37.088388,32 37.088388,32 L 22.160133,31.978069 C 22.160133,31.978069 26.997745,27.140456 26.997745,27.140456 C 18.528582,18.264221 13.291696,25.230495 11.500037,31.436501 z"
             style="fill:#404040;"/>
          </a>
         </g>
        </svg>
</svg>
