<?xml version="1.0" encoding="UTF-8" standalone="no"?>
<!DOCTYPE svg PUBLIC "-//W3C//DTD SVG 1.1//EN"
 "http://www.w3.org/Graphics/SVG/1.1/DTD/svg11.dtd">
<!-- Generated by graphviz version 2.36.0 (20140111.2315)
 -->
<!-- Title: /home/travis/build/robotology/wb&#45;toolbox/toolbox/src/YarpClock.cpp Pages: 1 -->
<svg width="675pt" height="274pt"
 viewBox="0.00 0.00 675.23 274.00" xmlns="http://www.w3.org/2000/svg" xmlns:xlink="http://www.w3.org/1999/xlink">
<g id="graph0" class="graph" transform="scale(1 1) rotate(0) translate(4 270)">
<title>/home/travis/build/robotology/wb&#45;toolbox/toolbox/src/YarpClock.cpp</title>
<!-- Node1 -->
<g id="node1" class="node"><title>Node1</title>
<polygon fill="#bfbfbf" stroke="black" points="282.728,-224.5 282.728,-265.5 417.728,-265.5 417.728,-224.5 282.728,-224.5"/>
<text text-anchor="start" x="290.728" y="-253.5" font-family="Helvetica,sans-Serif" font-size="10.00">/home/travis/build</text>
<text text-anchor="start" x="290.728" y="-242.5" font-family="Helvetica,sans-Serif" font-size="10.00">/robotology/wb&#45;toolbox</text>
<text text-anchor="middle" x="350.228" y="-231.5" font-family="Helvetica,sans-Serif" font-size="10.00">/toolbox/src/YarpClock.cpp</text>
</g>
<!-- Node2 -->
<g id="node2" class="node"><title>Node2</title>
<g id="a_node2"><a xlink:href="_yarp_clock_8h.html" target="_top" xlink:title="YarpClock.h">
<polygon fill="none" stroke="black" points="19.7284,-168.5 19.7284,-187.5 90.7284,-187.5 90.7284,-168.5 19.7284,-168.5"/>
<text text-anchor="middle" x="55.2284" y="-175.5" font-family="Helvetica,sans-Serif" font-size="10.00">YarpClock.h</text>
</a>
</g>
</g>
<!-- Node1&#45;&gt;Node2 -->
<g id="edge1" class="edge"><title>Node1&#45;&gt;Node2</title>
<path fill="none" stroke="midnightblue" d="M282.549,-229.088C226.807,-216.806 149.3,-199.728 100.722,-189.024"/>
<polygon fill="midnightblue" stroke="midnightblue" points="101.332,-185.575 90.8134,-186.841 99.8261,-192.411 101.332,-185.575"/>
</g>
<!-- Node8 -->
<g id="node8" class="node"><title>Node8</title>
<g id="a_node8"><a xlink:href="_block_information_8h.html" target="_top" xlink:title="BlockInformation.h">
<polygon fill="none" stroke="black" points="149.228,-56.5 149.228,-75.5 247.228,-75.5 247.228,-56.5 149.228,-56.5"/>
<text text-anchor="middle" x="198.228" y="-63.5" font-family="Helvetica,sans-Serif" font-size="10.00">BlockInformation.h</text>
</a>
</g>
</g>
<!-- Node1&#45;&gt;Node8 -->
<g id="edge10" class="edge"><title>Node1&#45;&gt;Node8</title>
<path fill="none" stroke="midnightblue" d="M330.986,-224.368C320.767,-213.769 308.107,-200.359 297.228,-188 265.265,-151.688 229.821,-107.288 211.237,-83.6623"/>
<polygon fill="midnightblue" stroke="midnightblue" points="213.907,-81.3948 204.982,-75.6849 208.398,-85.714 213.907,-81.3948"/>
</g>
<!-- Node9 -->
<g id="node9" class="node"><title>Node9</title>
<polygon fill="none" stroke="#bfbfbf" points="356.228,-0.5 356.228,-19.5 394.228,-19.5 394.228,-0.5 356.228,-0.5"/>
<text text-anchor="middle" x="375.228" y="-7.5" font-family="Helvetica,sans-Serif" font-size="10.00">tuple</text>
</g>
<!-- Node1&#45;&gt;Node9 -->
<g id="edge25" class="edge"><title>Node1&#45;&gt;Node9</title>
<path fill="none" stroke="midnightblue" d="M352.36,-224.135C357.129,-179.684 368.605,-72.7257 373.239,-29.5445"/>
<polygon fill="midnightblue" stroke="midnightblue" points="376.72,-29.9027 374.307,-19.5863 369.76,-29.1558 376.72,-29.9027"/>
</g>
<!-- Node11 -->
<g id="node11" class="node"><title>Node11</title>
<g id="a_node11"><a xlink:href="_log_8h.html" target="_top" xlink:title="Log.h">
<polygon fill="none" stroke="black" points="265.728,-56.5 265.728,-75.5 306.728,-75.5 306.728,-56.5 265.728,-56.5"/>
<text text-anchor="middle" x="286.228" y="-63.5" font-family="Helvetica,sans-Serif" font-size="10.00">Log.h</text>
</a>
</g>
</g>
<!-- Node1&#45;&gt;Node11 -->
<g id="edge16" class="edge"><title>Node1&#45;&gt;Node11</title>
<path fill="none" stroke="midnightblue" d="M334.736,-224.365C318.982,-203.04 295.598,-167.281 286.228,-132 282.196,-116.816 282.549,-98.9234 283.711,-85.7588"/>
<polygon fill="midnightblue" stroke="midnightblue" points="287.215,-85.9216 284.85,-75.594 280.258,-85.1421 287.215,-85.9216"/>
</g>
<!-- Node13 -->
<g id="node13" class="node"><title>Node13</title>
<g id="a_node13"><a xlink:href="_signal_8h.html" target="_top" xlink:title="Signal.h">
<polygon fill="none" stroke="black" points="295.228,-112.5 295.228,-131.5 347.228,-131.5 347.228,-112.5 295.228,-112.5"/>
<text text-anchor="middle" x="321.228" y="-119.5" font-family="Helvetica,sans-Serif" font-size="10.00">Signal.h</text>
</a>
</g>
</g>
<!-- Node1&#45;&gt;Node13 -->
<g id="edge20" class="edge"><title>Node1&#45;&gt;Node13</title>
<path fill="none" stroke="midnightblue" d="M345.505,-224.29C340.012,-201.375 331.018,-163.846 325.656,-141.473"/>
<polygon fill="midnightblue" stroke="midnightblue" points="329.018,-140.484 323.284,-131.575 322.211,-142.115 329.018,-140.484"/>
</g>
<!-- Node14 -->
<g id="node14" class="node"><title>Node14</title>
<polygon fill="none" stroke="#bfbfbf" points="399.728,-168.5 399.728,-187.5 496.728,-187.5 496.728,-168.5 399.728,-168.5"/>
<text text-anchor="middle" x="448.228" y="-175.5" font-family="Helvetica,sans-Serif" font-size="10.00">yarp/os/Network.h</text>
</g>
<!-- Node1&#45;&gt;Node14 -->
<g id="edge22" class="edge"><title>Node1&#45;&gt;Node14</title>
<path fill="none" stroke="midnightblue" d="M379.632,-224.498C394.801,-214.436 412.971,-202.385 426.799,-193.214"/>
<polygon fill="midnightblue" stroke="midnightblue" points="428.784,-196.097 435.183,-187.652 424.915,-190.263 428.784,-196.097"/>
</g>
<!-- Node15 -->
<g id="node15" class="node"><title>Node15</title>
<polygon fill="none" stroke="#bfbfbf" points="515.228,-168.5 515.228,-187.5 597.228,-187.5 597.228,-168.5 515.228,-168.5"/>
<text text-anchor="middle" x="556.228" y="-175.5" font-family="Helvetica,sans-Serif" font-size="10.00">yarp/os/Time.h</text>
</g>
<!-- Node1&#45;&gt;Node15 -->
<g id="edge23" class="edge"><title>Node1&#45;&gt;Node15</title>
<path fill="none" stroke="midnightblue" d="M412.035,-224.498C447.066,-213.444 489.708,-199.99 519.497,-190.59"/>
<polygon fill="midnightblue" stroke="midnightblue" points="520.594,-193.914 529.077,-187.567 518.488,-187.238 520.594,-193.914"/>
</g>
<!-- Node16 -->
<g id="node16" class="node"><title>Node16</title>
<polygon fill="none" stroke="#bfbfbf" points="615.228,-168.5 615.228,-187.5 667.228,-187.5 667.228,-168.5 615.228,-168.5"/>
<text text-anchor="middle" x="641.228" y="-175.5" font-family="Helvetica,sans-Serif" font-size="10.00">ostream</text>
</g>
<!-- Node1&#45;&gt;Node16 -->
<g id="edge24" class="edge"><title>Node1&#45;&gt;Node16</title>
<path fill="none" stroke="midnightblue" d="M417.756,-229.928C467.138,-219.476 535.975,-204.572 605.123,-188.204"/>
<polygon fill="midnightblue" stroke="midnightblue" points="605.961,-191.602 614.881,-185.884 604.342,-184.792 605.961,-191.602"/>
</g>
<!-- Node3 -->
<g id="node3" class="node"><title>Node3</title>
<g id="a_node3"><a xlink:href="_block_8h.html" target="_top" xlink:title="Block.h">
<polygon fill="none" stroke="black" points="30.2284,-112.5 30.2284,-131.5 80.2284,-131.5 80.2284,-112.5 30.2284,-112.5"/>
<text text-anchor="middle" x="55.2284" y="-119.5" font-family="Helvetica,sans-Serif" font-size="10.00">Block.h</text>
</a>
</g>
</g>
<!-- Node2&#45;&gt;Node3 -->
<g id="edge2" class="edge"><title>Node2&#45;&gt;Node3</title>
<path fill="none" stroke="midnightblue" d="M55.2284,-168.083C55.2284,-161.006 55.2284,-150.861 55.2284,-141.986"/>
<polygon fill="midnightblue" stroke="midnightblue" points="58.7285,-141.751 55.2284,-131.751 51.7285,-141.751 58.7285,-141.751"/>
</g>
<!-- Node6 -->
<g id="node6" class="node"><title>Node6</title>
<polygon fill="none" stroke="#bfbfbf" points="34.7284,-0.5 34.7284,-19.5 75.7284,-19.5 75.7284,-0.5 34.7284,-0.5"/>
<text text-anchor="middle" x="55.2284" y="-7.5" font-family="Helvetica,sans-Serif" font-size="10.00">string</text>
</g>
<!-- Node2&#45;&gt;Node6 -->
<g id="edge9" class="edge"><title>Node2&#45;&gt;Node6</title>
<path fill="none" stroke="midnightblue" d="M47.279,-168.276C39.7236,-159.609 28.4694,-145.672 21.2284,-132 8.92716,-108.774 6.50774,-101.932 2.22841,-76 0.781112,-67.2297 -1.50476,-64.067 2.22841,-56 8.14858,-43.2072 19.6966,-32.7216 30.5059,-25.1003"/>
<polygon fill="midnightblue" stroke="midnightblue" points="32.4421,-28.0161 38.8948,-19.613 28.6102,-22.1581 32.4421,-28.0161"/>
</g>
<!-- Node4 -->
<g id="node4" class="node"><title>Node4</title>
<g id="a_node4"><a xlink:href="_parameters_8h.html" target="_top" xlink:title="Parameters.h">
<polygon fill="none" stroke="black" points="17.7284,-56.5 17.7284,-75.5 92.7284,-75.5 92.7284,-56.5 17.7284,-56.5"/>
<text text-anchor="middle" x="55.2284" y="-63.5" font-family="Helvetica,sans-Serif" font-size="10.00">Parameters.h</text>
</a>
</g>
</g>
<!-- Node3&#45;&gt;Node4 -->
<g id="edge3" class="edge"><title>Node3&#45;&gt;Node4</title>
<path fill="none" stroke="midnightblue" d="M55.2284,-112.083C55.2284,-105.006 55.2284,-94.8611 55.2284,-85.9865"/>
<polygon fill="midnightblue" stroke="midnightblue" points="58.7285,-85.751 55.2284,-75.7511 51.7285,-85.7511 58.7285,-85.751"/>
</g>
<!-- Node3&#45;&gt;Node6 -->
<g id="edge7" class="edge"><title>Node3&#45;&gt;Node6</title>
<path fill="none" stroke="midnightblue" d="M41.2158,-112.327C24.1354,-100.557 -1.34173,-78.4123 8.22841,-56 13.3751,-43.9469 23.5098,-33.5764 33.0544,-25.8389"/>
<polygon fill="midnightblue" stroke="midnightblue" points="35.2682,-28.5532 41.15,-19.7409 31.0566,-22.9619 35.2682,-28.5532"/>
</g>
<!-- Node7 -->
<g id="node7" class="node"><title>Node7</title>
<polygon fill="none" stroke="#bfbfbf" points="96.2284,-0.5 96.2284,-19.5 140.228,-19.5 140.228,-0.5 96.2284,-0.5"/>
<text text-anchor="middle" x="118.228" y="-7.5" font-family="Helvetica,sans-Serif" font-size="10.00">vector</text>
</g>
<!-- Node3&#45;&gt;Node7 -->
<g id="edge8" class="edge"><title>Node3&#45;&gt;Node7</title>
<path fill="none" stroke="midnightblue" d="M67.2023,-112.347C77.6973,-104.141 92.5888,-90.8783 101.228,-76 109.557,-61.6576 113.878,-43.1954 116.074,-29.6143"/>
<polygon fill="midnightblue" stroke="midnightblue" points="119.563,-29.936 117.46,-19.5518 112.628,-28.9806 119.563,-29.936"/>
</g>
<!-- Node5 -->
<g id="node5" class="node"><title>Node5</title>
<polygon fill="none" stroke="#bfbfbf" points="216.228,-0.5 216.228,-19.5 268.228,-19.5 268.228,-0.5 216.228,-0.5"/>
<text text-anchor="middle" x="242.228" y="-7.5" font-family="Helvetica,sans-Serif" font-size="10.00">memory</text>
</g>
<!-- Node4&#45;&gt;Node5 -->
<g id="edge4" class="edge"><title>Node4&#45;&gt;Node5</title>
<path fill="none" stroke="midnightblue" d="M84.8591,-56.4435C117.76,-46.9429 170.87,-31.6061 206.162,-21.415"/>
<polygon fill="midnightblue" stroke="midnightblue" points="207.419,-24.695 216.055,-18.558 205.477,-17.9698 207.419,-24.695"/>
</g>
<!-- Node4&#45;&gt;Node6 -->
<g id="edge5" class="edge"><title>Node4&#45;&gt;Node6</title>
<path fill="none" stroke="midnightblue" d="M55.2284,-56.083C55.2284,-49.0059 55.2284,-38.8611 55.2284,-29.9865"/>
<polygon fill="midnightblue" stroke="midnightblue" points="58.7285,-29.751 55.2284,-19.7511 51.7285,-29.7511 58.7285,-29.751"/>
</g>
<!-- Node4&#45;&gt;Node7 -->
<g id="edge6" class="edge"><title>Node4&#45;&gt;Node7</title>
<path fill="none" stroke="midnightblue" d="M65.3504,-56.324C74.7548,-48.2631 88.9725,-36.0765 100.297,-26.3695"/>
<polygon fill="midnightblue" stroke="midnightblue" points="102.607,-28.9993 107.922,-19.8339 98.0518,-23.6844 102.607,-28.9993"/>
</g>
<!-- Node8&#45;&gt;Node5 -->
<g id="edge11" class="edge"><title>Node8&#45;&gt;Node5</title>
<path fill="none" stroke="midnightblue" d="M205.494,-56.083C211.773,-48.3768 221.016,-37.0333 228.659,-27.6531"/>
<polygon fill="midnightblue" stroke="midnightblue" points="231.494,-29.7143 235.098,-19.7511 226.068,-25.2926 231.494,-29.7143"/>
</g>
<!-- Node8&#45;&gt;Node6 -->
<g id="edge12" class="edge"><title>Node8&#45;&gt;Node6</title>
<path fill="none" stroke="midnightblue" d="M175.57,-56.4435C151.268,-47.2666 112.547,-32.6446 85.6142,-22.4744"/>
<polygon fill="midnightblue" stroke="midnightblue" points="86.5156,-19.0736 75.924,-18.8151 84.0427,-25.6222 86.5156,-19.0736"/>
</g>
<!-- Node8&#45;&gt;Node7 -->
<g id="edge15" class="edge"><title>Node8&#45;&gt;Node7</title>
<path fill="none" stroke="midnightblue" d="M185.375,-56.324C173.012,-47.979 154.098,-35.2122 139.491,-25.3524"/>
<polygon fill="midnightblue" stroke="midnightblue" points="141.297,-22.3483 131.05,-19.6545 137.38,-28.1503 141.297,-22.3483"/>
</g>
<!-- Node8&#45;&gt;Node9 -->
<g id="edge13" class="edge"><title>Node8&#45;&gt;Node9</title>
<path fill="none" stroke="midnightblue" d="M227.117,-56.4401C255.232,-48.0732 299.402,-34.8337 346.247,-20.2697"/>
<polygon fill="midnightblue" stroke="midnightblue" points="347.457,-23.5587 355.963,-17.2419 345.374,-16.8757 347.457,-23.5587"/>
</g>
<!-- Node10 -->
<g id="node10" class="node"><title>Node10</title>
<polygon fill="none" stroke="#bfbfbf" points="158.228,-0.5 158.228,-19.5 198.228,-19.5 198.228,-0.5 158.228,-0.5"/>
<text text-anchor="middle" x="178.228" y="-7.5" font-family="Helvetica,sans-Serif" font-size="10.00">utility</text>
</g>
<!-- Node8&#45;&gt;Node10 -->
<g id="edge14" class="edge"><title>Node8&#45;&gt;Node10</title>
<path fill="none" stroke="midnightblue" d="M194.926,-56.083C192.246,-48.8486 188.38,-38.4087 185.042,-29.3968"/>
<polygon fill="midnightblue" stroke="midnightblue" points="188.225,-27.9129 181.47,-19.7511 181.661,-30.3442 188.225,-27.9129"/>
</g>
<!-- Node11&#45;&gt;Node5 -->
<g id="edge17" class="edge"><title>Node11&#45;&gt;Node5</title>
<path fill="none" stroke="midnightblue" d="M278.963,-56.083C272.684,-48.3768 263.441,-37.0333 255.798,-27.6531"/>
<polygon fill="midnightblue" stroke="midnightblue" points="258.389,-25.2926 249.359,-19.7511 252.962,-29.7143 258.389,-25.2926"/>
</g>
<!-- Node11&#45;&gt;Node6 -->
<g id="edge19" class="edge"><title>Node11&#45;&gt;Node6</title>
<path fill="none" stroke="midnightblue" d="M265.607,-58.7906C262.153,-57.8146 258.598,-56.8489 255.228,-56 181.181,-37.3429 161.353,-38.3464 87.2284,-20 86.7662,-19.8856 86.3006,-19.7692 85.8323,-19.6512"/>
<polygon fill="midnightblue" stroke="midnightblue" points="86.3972,-16.1801 75.8343,-17.0016 84.604,-22.9465 86.3972,-16.1801"/>
</g>
<!-- Node12 -->
<g id="node12" class="node"><title>Node12</title>
<polygon fill="none" stroke="#bfbfbf" points="286.228,-0.5 286.228,-19.5 338.228,-19.5 338.228,-0.5 286.228,-0.5"/>
<text text-anchor="middle" x="312.228" y="-7.5" font-family="Helvetica,sans-Serif" font-size="10.00">sstream</text>
</g>
<!-- Node11&#45;&gt;Node12 -->
<g id="edge18" class="edge"><title>Node11&#45;&gt;Node12</title>
<path fill="none" stroke="midnightblue" d="M290.522,-56.083C294.081,-48.6913 299.251,-37.9533 303.653,-28.8111"/>
<polygon fill="midnightblue" stroke="midnightblue" points="306.83,-30.2795 308.015,-19.7511 300.523,-27.2427 306.83,-30.2795"/>
</g>
<!-- Node13&#45;&gt;Node5 -->
<g id="edge21" class="edge"><title>Node13&#45;&gt;Node5</title>
<path fill="none" stroke="midnightblue" d="M322.74,-112.24C324.546,-98.9861 326.101,-73.5273 315.228,-56 306.28,-41.5741 290.821,-31.0715 276.426,-23.8593"/>
<polygon fill="midnightblue" stroke="midnightblue" points="277.744,-20.6128 267.199,-19.5868 274.803,-26.9649 277.744,-20.6128"/>
</g>
</g>
</svg>
