<?xml version="1.0" encoding="UTF-8" standalone="no"?>
<!DOCTYPE svg PUBLIC "-//W3C//DTD SVG 1.1//EN"
 "http://www.w3.org/Graphics/SVG/1.1/DTD/svg11.dtd">
<!-- Generated by graphviz version 2.36.0 (20140111.2315)
 -->
<!-- Title: wbt::Block Pages: 1 -->
<svg width="430pt" height="458pt"
 viewBox="0.00 0.00 430.00 458.00" xmlns="http://www.w3.org/2000/svg" xmlns:xlink="http://www.w3.org/1999/xlink">
<g id="graph0" class="graph" transform="scale(1 1) rotate(0) translate(4 454)">
<title>wbt::Block</title>
<!-- Node1 -->
<g id="node1" class="node"><title>Node1</title>
<polygon fill="#bfbfbf" stroke="black" points="0.5,-247.5 0.5,-266.5 63.5,-266.5 63.5,-247.5 0.5,-247.5"/>
<text text-anchor="middle" x="32" y="-254.5" font-family="Helvetica,sans-Serif" font-size="10.00">wbt::Block</text>
</g>
<!-- Node2 -->
<g id="node2" class="node"><title>Node2</title>
<g id="a_node2"><a xlink:href="classwbt_1_1_discrete_filter.html" target="_top" xlink:title="The wbt::DiscreteFilter class. ">
<polygon fill="none" stroke="black" points="128.5,-430.5 128.5,-449.5 225.5,-449.5 225.5,-430.5 128.5,-430.5"/>
<text text-anchor="middle" x="177" y="-437.5" font-family="Helvetica,sans-Serif" font-size="10.00">wbt::DiscreteFilter</text>
</a>
</g>
</g>
<!-- Node1&#45;&gt;Node2 -->
<g id="edge1" class="edge"><title>Node1&#45;&gt;Node2</title>
<path fill="none" stroke="midnightblue" d="M35.4524,-277.003C40.7612,-311.463 56.5657,-381.977 100,-420 108.007,-427.01 118.191,-431.605 128.481,-434.605"/>
<polygon fill="midnightblue" stroke="midnightblue" points="38.877,-276.219 34.0296,-266.798 31.944,-277.185 38.877,-276.219"/>
</g>
<!-- Node3 -->
<g id="node3" class="node"><title>Node3</title>
<g id="a_node3"><a xlink:href="classwbt_1_1_minimum_jerk_trajectory_generator.html" target="_top" xlink:title="The wbt::MinimumJerkTrajectoryGenerator class. ">
<polygon fill="none" stroke="black" points="107,-381 107,-411 247,-411 247,-381 107,-381"/>
<text text-anchor="start" x="115" y="-399" font-family="Helvetica,sans-Serif" font-size="10.00">wbt::MinimumJerkTrajectory</text>
<text text-anchor="middle" x="177" y="-388" font-family="Helvetica,sans-Serif" font-size="10.00">Generator</text>
</a>
</g>
</g>
<!-- Node1&#45;&gt;Node3 -->
<g id="edge2" class="edge"><title>Node1&#45;&gt;Node3</title>
<path fill="none" stroke="midnightblue" d="M39.3451,-276.064C48.7029,-301.329 68.5705,-345.656 100,-371 104.757,-374.836 110.125,-378.093 115.751,-380.855"/>
<polygon fill="midnightblue" stroke="midnightblue" points="42.6034,-274.779 35.975,-266.514 36.0024,-277.109 42.6034,-274.779"/>
</g>
<!-- Node4 -->
<g id="node4" class="node"><title>Node4</title>
<g id="a_node4"><a xlink:href="classwbt_1_1_qp_oases.html" target="_top" xlink:title="The wbt::QpOases class. ">
<polygon fill="none" stroke="black" points="137,-342.5 137,-361.5 217,-361.5 217,-342.5 137,-342.5"/>
<text text-anchor="middle" x="177" y="-349.5" font-family="Helvetica,sans-Serif" font-size="10.00">wbt::QpOases</text>
</a>
</g>
</g>
<!-- Node1&#45;&gt;Node4 -->
<g id="edge3" class="edge"><title>Node1&#45;&gt;Node4</title>
<path fill="none" stroke="midnightblue" d="M44.3608,-275.327C56.143,-292.787 76.164,-318.497 100,-333 111.038,-339.716 124.35,-344.064 136.727,-346.877"/>
<polygon fill="midnightblue" stroke="midnightblue" points="47.0737,-273.079 38.6908,-266.6 41.2037,-276.892 47.0737,-273.079"/>
</g>
<!-- Node5 -->
<g id="node5" class="node"><title>Node5</title>
<g id="a_node5"><a xlink:href="classwbt_1_1_real_time_synchronizer.html" target="_top" xlink:title="The wbt::RealTimeSynchronizer class. ">
<polygon fill="none" stroke="black" points="108.5,-304.5 108.5,-323.5 245.5,-323.5 245.5,-304.5 108.5,-304.5"/>
<text text-anchor="middle" x="177" y="-311.5" font-family="Helvetica,sans-Serif" font-size="10.00">wbt::RealTimeSynchronizer</text>
</a>
</g>
</g>
<!-- Node1&#45;&gt;Node5 -->
<g id="edge4" class="edge"><title>Node1&#45;&gt;Node5</title>
<path fill="none" stroke="midnightblue" d="M55.8134,-271.994C68.4235,-279.746 84.6134,-288.846 100,-295 109.218,-298.687 119.359,-301.816 129.147,-304.406"/>
<polygon fill="midnightblue" stroke="midnightblue" points="57.6536,-269.016 47.3267,-266.648 53.923,-274.939 57.6536,-269.016"/>
</g>
<!-- Node6 -->
<g id="node6" class="node"><title>Node6</title>
<g id="a_node6"><a xlink:href="classwbt_1_1_remote_inverse_kinematics.html" target="_top" xlink:title="wbt::RemoteInverseKinematics">
<polygon fill="none" stroke="black" points="100,-266.5 100,-285.5 254,-285.5 254,-266.5 100,-266.5"/>
<text text-anchor="middle" x="177" y="-273.5" font-family="Helvetica,sans-Serif" font-size="10.00">wbt::RemoteInverseKinematics</text>
</a>
</g>
</g>
<!-- Node1&#45;&gt;Node6 -->
<g id="edge5" class="edge"><title>Node1&#45;&gt;Node6</title>
<path fill="none" stroke="midnightblue" d="M73.669,-262.404C83.247,-263.676 93.738,-265.07 104.237,-266.465"/>
<polygon fill="midnightblue" stroke="midnightblue" points="74.051,-258.924 63.6771,-261.076 73.129,-265.863 74.051,-258.924"/>
</g>
<!-- Node7 -->
<g id="node7" class="node"><title>Node7</title>
<g id="a_node7"><a xlink:href="classwbt_1_1_simulator_synchronizer.html" target="_top" xlink:title="The wbt::SimulatorSynchronizer class. ">
<polygon fill="none" stroke="black" points="108.5,-228.5 108.5,-247.5 245.5,-247.5 245.5,-228.5 108.5,-228.5"/>
<text text-anchor="middle" x="177" y="-235.5" font-family="Helvetica,sans-Serif" font-size="10.00">wbt::SimulatorSynchronizer</text>
</a>
</g>
</g>
<!-- Node1&#45;&gt;Node7 -->
<g id="edge6" class="edge"><title>Node1&#45;&gt;Node7</title>
<path fill="none" stroke="midnightblue" d="M73.6607,-251.598C84.4915,-250.158 96.4902,-248.564 108.347,-246.989"/>
<polygon fill="midnightblue" stroke="midnightblue" points="73.129,-248.137 63.6771,-252.924 74.051,-255.076 73.129,-248.137"/>
</g>
<!-- Node8 -->
<g id="node8" class="node"><title>Node8</title>
<g id="a_node8"><a xlink:href="classwbt_1_1_w_b_block.html" target="_top" xlink:title="Extension of wbt::Block for simplifying the development of whole&#45;body blocks. ">
<polygon fill="none" stroke="black" points="137,-190.5 137,-209.5 217,-209.5 217,-190.5 137,-190.5"/>
<text text-anchor="middle" x="177" y="-197.5" font-family="Helvetica,sans-Serif" font-size="10.00">wbt::WBBlock</text>
</a>
</g>
</g>
<!-- Node1&#45;&gt;Node8 -->
<g id="edge7" class="edge"><title>Node1&#45;&gt;Node8</title>
<path fill="none" stroke="midnightblue" d="M55.8134,-242.006C68.4235,-234.254 84.6134,-225.154 100,-219 111.618,-214.354 124.701,-210.593 136.695,-207.681"/>
<polygon fill="midnightblue" stroke="midnightblue" points="53.923,-239.061 47.3267,-247.352 57.6536,-244.984 53.923,-239.061"/>
</g>
<!-- Node20 -->
<g id="node20" class="node"><title>Node20</title>
<g id="a_node20"><a xlink:href="classwbt_1_1_yarp_clock.html" target="_top" xlink:title="The wbt::YarpClock class. ">
<polygon fill="none" stroke="black" points="135,-152.5 135,-171.5 219,-171.5 219,-152.5 135,-152.5"/>
<text text-anchor="middle" x="177" y="-159.5" font-family="Helvetica,sans-Serif" font-size="10.00">wbt::YarpClock</text>
</a>
</g>
</g>
<!-- Node1&#45;&gt;Node20 -->
<g id="edge19" class="edge"><title>Node1&#45;&gt;Node20</title>
<path fill="none" stroke="midnightblue" d="M44.3608,-238.673C56.143,-221.213 76.164,-195.503 100,-181 110.457,-174.637 122.955,-170.4 134.766,-167.58"/>
<polygon fill="midnightblue" stroke="midnightblue" points="41.2037,-237.108 38.6908,-247.4 47.0737,-240.921 41.2037,-237.108"/>
</g>
<!-- Node21 -->
<g id="node21" class="node"><title>Node21</title>
<g id="a_node21"><a xlink:href="classwbt_1_1_yarp_read.html" target="_top" xlink:title="The wbt::YarpRead class. ">
<polygon fill="none" stroke="black" points="136,-114.5 136,-133.5 218,-133.5 218,-114.5 136,-114.5"/>
<text text-anchor="middle" x="177" y="-121.5" font-family="Helvetica,sans-Serif" font-size="10.00">wbt::YarpRead</text>
</a>
</g>
</g>
<!-- Node1&#45;&gt;Node21 -->
<g id="edge20" class="edge"><title>Node1&#45;&gt;Node21</title>
<path fill="none" stroke="midnightblue" d="M39.0801,-237.595C48.1384,-211.945 67.6688,-167.184 100,-143 110.346,-135.261 123.48,-130.649 135.907,-127.91"/>
<polygon fill="midnightblue" stroke="midnightblue" points="35.6861,-236.708 35.8323,-247.302 42.3244,-238.929 35.6861,-236.708"/>
</g>
<!-- Node22 -->
<g id="node22" class="node"><title>Node22</title>
<g id="a_node22"><a xlink:href="classwbt_1_1_yarp_write.html" target="_top" xlink:title="The wbt::YarpWrite class. ">
<polygon fill="none" stroke="black" points="136,-76.5 136,-95.5 218,-95.5 218,-76.5 136,-76.5"/>
<text text-anchor="middle" x="177" y="-83.5" font-family="Helvetica,sans-Serif" font-size="10.00">wbt::YarpWrite</text>
</a>
</g>
</g>
<!-- Node1&#45;&gt;Node22 -->
<g id="edge21" class="edge"><title>Node1&#45;&gt;Node22</title>
<path fill="none" stroke="midnightblue" d="M35.9953,-237.377C42.0286,-204.81 58.7732,-139.746 100,-105 109.984,-96.5857 123.167,-91.8103 135.746,-89.1278"/>
<polygon fill="midnightblue" stroke="midnightblue" points="32.5104,-236.994 34.2854,-247.439 39.4115,-238.167 32.5104,-236.994"/>
</g>
<!-- Node9 -->
<g id="node9" class="node"><title>Node9</title>
<g id="a_node9"><a xlink:href="classwbt_1_1_centroidal_momentum.html" target="_top" xlink:title="The wbt::CentroidalMomentum class. ">
<polygon fill="none" stroke="black" points="290.5,-380.5 290.5,-399.5 421.5,-399.5 421.5,-380.5 290.5,-380.5"/>
<text text-anchor="middle" x="356" y="-387.5" font-family="Helvetica,sans-Serif" font-size="10.00">wbt::CentroidalMomentum</text>
</a>
</g>
</g>
<!-- Node8&#45;&gt;Node9 -->
<g id="edge8" class="edge"><title>Node8&#45;&gt;Node9</title>
<path fill="none" stroke="midnightblue" d="M227.208,-204.092C237.151,-207.014 246.76,-211.67 254,-219 302.785,-268.394 242.198,-320.654 290,-371 293.643,-374.837 298.013,-377.912 302.743,-380.374"/>
<polygon fill="midnightblue" stroke="midnightblue" points="227.768,-200.628 217.229,-201.713 226.145,-207.437 227.768,-200.628"/>
</g>
<!-- Node10 -->
<g id="node10" class="node"><title>Node10</title>
<g id="a_node10"><a xlink:href="classwbt_1_1_dot_j_nu.html" target="_top" xlink:title="The wbt::DotJNu class. ">
<polygon fill="none" stroke="black" points="320,-342.5 320,-361.5 392,-361.5 392,-342.5 320,-342.5"/>
<text text-anchor="middle" x="356" y="-349.5" font-family="Helvetica,sans-Serif" font-size="10.00">wbt::DotJNu</text>
</a>
</g>
</g>
<!-- Node8&#45;&gt;Node10 -->
<g id="edge9" class="edge"><title>Node8&#45;&gt;Node10</title>
<path fill="none" stroke="midnightblue" d="M227.112,-204.581C236.972,-207.485 246.571,-212.01 254,-219 292.697,-255.409 252.028,-295.835 290,-333 297.982,-340.812 308.991,-345.443 319.681,-348.178"/>
<polygon fill="midnightblue" stroke="midnightblue" points="227.778,-201.141 217.235,-202.185 226.128,-207.944 227.778,-201.141"/>
</g>
<!-- Node11 -->
<g id="node11" class="node"><title>Node11</title>
<g id="a_node11"><a xlink:href="classwbt_1_1_forward_kinematics.html" target="_top" xlink:title="The wbt::ForwardKinematics class. ">
<polygon fill="none" stroke="black" points="295,-304.5 295,-323.5 417,-323.5 417,-304.5 295,-304.5"/>
<text text-anchor="middle" x="356" y="-311.5" font-family="Helvetica,sans-Serif" font-size="10.00">wbt::ForwardKinematics</text>
</a>
</g>
</g>
<!-- Node8&#45;&gt;Node11 -->
<g id="edge10" class="edge"><title>Node8&#45;&gt;Node11</title>
<path fill="none" stroke="midnightblue" d="M227.319,-205.628C236.912,-208.487 246.35,-212.728 254,-219 282.904,-242.696 261.568,-270.739 290,-295 294.561,-298.892 299.885,-301.987 305.486,-304.449"/>
<polygon fill="midnightblue" stroke="midnightblue" points="227.887,-202.162 217.336,-203.122 226.183,-208.951 227.887,-202.162"/>
</g>
<!-- Node12 -->
<g id="node12" class="node"><title>Node12</title>
<g id="a_node12"><a xlink:href="classwbt_1_1_get_limits.html" target="_top" xlink:title="The wbt::GetLimits class. ">
<polygon fill="none" stroke="black" points="316,-266.5 316,-285.5 396,-285.5 396,-266.5 316,-266.5"/>
<text text-anchor="middle" x="356" y="-273.5" font-family="Helvetica,sans-Serif" font-size="10.00">wbt::GetLimits</text>
</a>
</g>
</g>
<!-- Node8&#45;&gt;Node12 -->
<g id="edge11" class="edge"><title>Node8&#45;&gt;Node12</title>
<path fill="none" stroke="midnightblue" d="M226.839,-207.852C236.236,-210.549 245.72,-214.163 254,-219 274.088,-230.735 270.147,-244.872 290,-257 297.826,-261.781 306.917,-265.412 315.776,-268.151"/>
<polygon fill="midnightblue" stroke="midnightblue" points="227.688,-204.456 217.132,-205.359 225.947,-211.236 227.688,-204.456"/>
</g>
<!-- Node13 -->
<g id="node13" class="node"><title>Node13</title>
<g id="a_node13"><a xlink:href="classwbt_1_1_get_measurement.html" target="_top" xlink:title="The wbt::GetMeasurement class. ">
<polygon fill="none" stroke="black" points="299.5,-228.5 299.5,-247.5 412.5,-247.5 412.5,-228.5 299.5,-228.5"/>
<text text-anchor="middle" x="356" y="-235.5" font-family="Helvetica,sans-Serif" font-size="10.00">wbt::GetMeasurement</text>
</a>
</g>
</g>
<!-- Node8&#45;&gt;Node13 -->
<g id="edge12" class="edge"><title>Node8&#45;&gt;Node13</title>
<path fill="none" stroke="midnightblue" d="M227.343,-210.593C253.433,-216.195 285.209,-223.017 310.532,-228.453"/>
<polygon fill="midnightblue" stroke="midnightblue" points="227.794,-207.111 217.282,-208.433 226.325,-213.955 227.794,-207.111"/>
</g>
<!-- Node14 -->
<g id="node14" class="node"><title>Node14</title>
<g id="a_node14"><a xlink:href="classwbt_1_1_inverse_dynamics.html" target="_top" xlink:title="The wbt::InverseDynamics class. ">
<polygon fill="none" stroke="black" points="298.5,-190.5 298.5,-209.5 413.5,-209.5 413.5,-190.5 298.5,-190.5"/>
<text text-anchor="middle" x="356" y="-197.5" font-family="Helvetica,sans-Serif" font-size="10.00">wbt::InverseDynamics</text>
</a>
</g>
</g>
<!-- Node8&#45;&gt;Node14 -->
<g id="edge13" class="edge"><title>Node8&#45;&gt;Node14</title>
<path fill="none" stroke="midnightblue" d="M227.419,-200C249.458,-200 275.543,-200 298.365,-200"/>
<polygon fill="midnightblue" stroke="midnightblue" points="227.282,-196.5 217.282,-200 227.282,-203.5 227.282,-196.5"/>
</g>
<!-- Node15 -->
<g id="node15" class="node"><title>Node15</title>
<g id="a_node15"><a xlink:href="classwbt_1_1_jacobian.html" target="_top" xlink:title="The wbt::Jacobian class. ">
<polygon fill="none" stroke="black" points="317.5,-152.5 317.5,-171.5 394.5,-171.5 394.5,-152.5 317.5,-152.5"/>
<text text-anchor="middle" x="356" y="-159.5" font-family="Helvetica,sans-Serif" font-size="10.00">wbt::Jacobian</text>
</a>
</g>
</g>
<!-- Node8&#45;&gt;Node15 -->
<g id="edge14" class="edge"><title>Node8&#45;&gt;Node15</title>
<path fill="none" stroke="midnightblue" d="M227.063,-189.467C255.601,-183.34 291.015,-175.737 317.344,-170.084"/>
<polygon fill="midnightblue" stroke="midnightblue" points="226.325,-186.045 217.282,-191.567 227.794,-192.889 226.325,-186.045"/>
</g>
<!-- Node16 -->
<g id="node16" class="node"><title>Node16</title>
<g id="a_node16"><a xlink:href="classwbt_1_1_mass_matrix.html" target="_top" xlink:title="The wbt::MassMatrix class. ">
<polygon fill="none" stroke="black" points="311.5,-114.5 311.5,-133.5 400.5,-133.5 400.5,-114.5 311.5,-114.5"/>
<text text-anchor="middle" x="356" y="-121.5" font-family="Helvetica,sans-Serif" font-size="10.00">wbt::MassMatrix</text>
</a>
</g>
</g>
<!-- Node8&#45;&gt;Node16 -->
<g id="edge15" class="edge"><title>Node8&#45;&gt;Node16</title>
<path fill="none" stroke="midnightblue" d="M226.839,-192.148C236.236,-189.451 245.72,-185.837 254,-181 274.088,-169.265 270.147,-155.128 290,-143 296.521,-139.016 303.922,-135.83 311.334,-133.294"/>
<polygon fill="midnightblue" stroke="midnightblue" points="225.947,-188.764 217.132,-194.641 227.688,-195.544 225.947,-188.764"/>
</g>
<!-- Node17 -->
<g id="node17" class="node"><title>Node17</title>
<g id="a_node17"><a xlink:href="classwbt_1_1_relative_transform.html" target="_top" xlink:title="The wbt::RelativeTransform class. ">
<polygon fill="none" stroke="black" points="296.5,-76.5 296.5,-95.5 415.5,-95.5 415.5,-76.5 296.5,-76.5"/>
<text text-anchor="middle" x="356" y="-83.5" font-family="Helvetica,sans-Serif" font-size="10.00">wbt::RelativeTransform</text>
</a>
</g>
</g>
<!-- Node8&#45;&gt;Node17 -->
<g id="edge16" class="edge"><title>Node8&#45;&gt;Node17</title>
<path fill="none" stroke="midnightblue" d="M227.319,-194.372C236.912,-191.513 246.35,-187.272 254,-181 282.904,-157.304 261.568,-129.261 290,-105 294.561,-101.108 299.885,-98.0126 305.486,-95.5509"/>
<polygon fill="midnightblue" stroke="midnightblue" points="226.183,-191.049 217.336,-196.878 227.887,-197.838 226.183,-191.049"/>
</g>
<!-- Node18 -->
<g id="node18" class="node"><title>Node18</title>
<g id="a_node18"><a xlink:href="classwbt_1_1_set_motor_parameters.html" target="_top" xlink:title="The wbt::SetMotorParameters class. ">
<polygon fill="none" stroke="black" points="292,-38.5 292,-57.5 420,-57.5 420,-38.5 292,-38.5"/>
<text text-anchor="middle" x="356" y="-45.5" font-family="Helvetica,sans-Serif" font-size="10.00">wbt::SetMotorParameters</text>
</a>
</g>
</g>
<!-- Node8&#45;&gt;Node18 -->
<g id="edge17" class="edge"><title>Node8&#45;&gt;Node18</title>
<path fill="none" stroke="midnightblue" d="M227.112,-195.419C236.972,-192.515 246.571,-187.99 254,-181 292.697,-144.591 252.028,-104.165 290,-67 293.949,-63.1349 298.639,-60.0486 303.665,-57.5854"/>
<polygon fill="midnightblue" stroke="midnightblue" points="226.128,-192.056 217.235,-197.815 227.778,-198.859 226.128,-192.056"/>
</g>
<!-- Node19 -->
<g id="node19" class="node"><title>Node19</title>
<g id="a_node19"><a xlink:href="classwbt_1_1_set_references.html" target="_top" xlink:title="The wbt::SetReferences class. ">
<polygon fill="none" stroke="black" points="304,-0.5 304,-19.5 408,-19.5 408,-0.5 304,-0.5"/>
<text text-anchor="middle" x="356" y="-7.5" font-family="Helvetica,sans-Serif" font-size="10.00">wbt::SetReferences</text>
</a>
</g>
</g>
<!-- Node8&#45;&gt;Node19 -->
<g id="edge18" class="edge"><title>Node8&#45;&gt;Node19</title>
<path fill="none" stroke="midnightblue" d="M227.208,-195.908C237.151,-192.986 246.76,-188.33 254,-181 302.785,-131.606 242.198,-79.346 290,-29 293.886,-24.9075 298.599,-21.6817 303.694,-19.1415"/>
<polygon fill="midnightblue" stroke="midnightblue" points="226.145,-192.563 217.229,-198.287 227.768,-199.372 226.145,-192.563"/>
</g>
</g>
</svg>
