<?xml version="1.0" encoding="UTF-8" standalone="no"?>
<!DOCTYPE svg PUBLIC "-//W3C//DTD SVG 1.1//EN"
 "http://www.w3.org/Graphics/SVG/1.1/DTD/svg11.dtd">
<!-- Generated by graphviz version 2.36.0 (20140111.2315)
 -->
<!-- Title: wbt::Block Pages: 1 -->
<svg width="430pt" height="446pt"
 viewBox="0.00 0.00 430.00 446.00" xmlns="http://www.w3.org/2000/svg" xmlns:xlink="http://www.w3.org/1999/xlink">
<g id="graph0" class="graph" transform="scale(1 1) rotate(0) translate(4 442)">
<title>wbt::Block</title>
<!-- Node1 -->
<g id="node1" class="node"><title>Node1</title>
<polygon fill="#bfbfbf" stroke="black" points="0.5,-247.5 0.5,-266.5 63.5,-266.5 63.5,-247.5 0.5,-247.5"/>
<text text-anchor="middle" x="32" y="-254.5" font-family="Helvetica,sans-Serif" font-size="10.00">wbt::Block</text>
</g>
<!-- Node2 -->
<g id="node2" class="node"><title>Node2</title>
<g id="a_node2"><a xlink:href="classwbt_1_1_discrete_filter.html" target="_top" xlink:title="The wbt::DiscreteFilter class. ">
<polygon fill="none" stroke="black" points="128.5,-411.5 128.5,-430.5 225.5,-430.5 225.5,-411.5 128.5,-411.5"/>
<text text-anchor="middle" x="177" y="-418.5" font-family="Helvetica,sans-Serif" font-size="10.00">wbt::DiscreteFilter</text>
</a>
</g>
</g>
<!-- Node1&#45;&gt;Node2 -->
<g id="edge1" class="edge"><title>Node1&#45;&gt;Node2</title>
<path fill="none" stroke="midnightblue" d="M36.6415,-276.86C43.424,-308.07 60.9993,-368.395 100,-401 108.06,-407.738 118.147,-412.232 128.313,-415.223"/>
<polygon fill="midnightblue" stroke="midnightblue" points="40.0176,-275.895 34.6113,-266.784 33.1555,-277.278 40.0176,-275.895"/>
</g>
<!-- Node3 -->
<g id="node3" class="node"><title>Node3</title>
<g id="a_node3"><a xlink:href="classwbt_1_1_minimum_jerk_trajectory_generator.html" target="_top" xlink:title="The wbt::MinimumJerkTrajectoryGenerator class. ">
<polygon fill="none" stroke="black" points="107,-362 107,-392 247,-392 247,-362 107,-362"/>
<text text-anchor="start" x="115" y="-380" font-family="Helvetica,sans-Serif" font-size="10.00">wbt::MinimumJerkTrajectory</text>
<text text-anchor="middle" x="177" y="-369" font-family="Helvetica,sans-Serif" font-size="10.00">Generator</text>
</a>
</g>
</g>
<!-- Node1&#45;&gt;Node3 -->
<g id="edge2" class="edge"><title>Node1&#45;&gt;Node3</title>
<path fill="none" stroke="midnightblue" d="M41.5818,-275.679C52.3267,-297.079 72.6917,-331.788 100,-352 105.247,-355.884 111.13,-359.184 117.237,-361.985"/>
<polygon fill="midnightblue" stroke="midnightblue" points="44.71,-274.108 37.2113,-266.623 38.4058,-277.15 44.71,-274.108"/>
</g>
<!-- Node4 -->
<g id="node4" class="node"><title>Node4</title>
<g id="a_node4"><a xlink:href="classwbt_1_1_real_time_synchronizer.html" target="_top" xlink:title="The wbt::RealTimeSynchronizer class. ">
<polygon fill="none" stroke="black" points="108.5,-323.5 108.5,-342.5 245.5,-342.5 245.5,-323.5 108.5,-323.5"/>
<text text-anchor="middle" x="177" y="-330.5" font-family="Helvetica,sans-Serif" font-size="10.00">wbt::RealTimeSynchronizer</text>
</a>
</g>
</g>
<!-- Node1&#45;&gt;Node4 -->
<g id="edge3" class="edge"><title>Node1&#45;&gt;Node4</title>
<path fill="none" stroke="midnightblue" d="M48.5622,-273.946C61.2324,-286.757 80.205,-303.821 100,-314 107.499,-317.856 115.823,-320.959 124.134,-323.447"/>
<polygon fill="midnightblue" stroke="midnightblue" points="50.984,-271.415 41.5366,-266.619 45.9314,-276.26 50.984,-271.415"/>
</g>
<!-- Node5 -->
<g id="node5" class="node"><title>Node5</title>
<g id="a_node5"><a xlink:href="classwbt_1_1_remote_inverse_kinematics.html" target="_top" xlink:title="wbt::RemoteInverseKinematics">
<polygon fill="none" stroke="black" points="100,-285.5 100,-304.5 254,-304.5 254,-285.5 100,-285.5"/>
<text text-anchor="middle" x="177" y="-292.5" font-family="Helvetica,sans-Serif" font-size="10.00">wbt::RemoteInverseKinematics</text>
</a>
</g>
</g>
<!-- Node1&#45;&gt;Node5 -->
<g id="edge4" class="edge"><title>Node1&#45;&gt;Node5</title>
<path fill="none" stroke="midnightblue" d="M73.2945,-268.648C82.0825,-271.126 91.3424,-273.691 100,-276 111.958,-279.19 125.018,-282.512 136.886,-285.471"/>
<polygon fill="midnightblue" stroke="midnightblue" points="74.2061,-265.268 63.6304,-265.904 72.2944,-272.002 74.2061,-265.268"/>
</g>
<!-- Node6 -->
<g id="node6" class="node"><title>Node6</title>
<g id="a_node6"><a xlink:href="classwbt_1_1_simulator_synchronizer.html" target="_top" xlink:title="The wbt::SimulatorSynchronizer class. ">
<polygon fill="none" stroke="black" points="108.5,-247.5 108.5,-266.5 245.5,-266.5 245.5,-247.5 108.5,-247.5"/>
<text text-anchor="middle" x="177" y="-254.5" font-family="Helvetica,sans-Serif" font-size="10.00">wbt::SimulatorSynchronizer</text>
</a>
</g>
</g>
<!-- Node1&#45;&gt;Node6 -->
<g id="edge5" class="edge"><title>Node1&#45;&gt;Node6</title>
<path fill="none" stroke="midnightblue" d="M73.996,-257C84.7389,-257 96.6124,-257 108.347,-257"/>
<polygon fill="midnightblue" stroke="midnightblue" points="73.6771,-253.5 63.6771,-257 73.6771,-260.5 73.6771,-253.5"/>
</g>
<!-- Node7 -->
<g id="node7" class="node"><title>Node7</title>
<g id="a_node7"><a xlink:href="classwbt_1_1_w_b_block.html" target="_top" xlink:title="Extension of wbt::Block for simplifying the development of whole&#45;body blocks. ">
<polygon fill="none" stroke="black" points="137,-209.5 137,-228.5 217,-228.5 217,-209.5 137,-209.5"/>
<text text-anchor="middle" x="177" y="-216.5" font-family="Helvetica,sans-Serif" font-size="10.00">wbt::WBBlock</text>
</a>
</g>
</g>
<!-- Node1&#45;&gt;Node7 -->
<g id="edge6" class="edge"><title>Node1&#45;&gt;Node7</title>
<path fill="none" stroke="midnightblue" d="M73.2945,-245.352C82.0825,-242.874 91.3424,-240.309 100,-238 111.958,-234.81 125.018,-231.488 136.886,-228.529"/>
<polygon fill="midnightblue" stroke="midnightblue" points="72.2944,-241.998 63.6304,-248.096 74.2061,-248.732 72.2944,-241.998"/>
</g>
<!-- Node20 -->
<g id="node20" class="node"><title>Node20</title>
<g id="a_node20"><a xlink:href="classwbt_1_1_yarp_clock.html" target="_top" xlink:title="The wbt::YarpClock class. ">
<polygon fill="none" stroke="black" points="135,-171.5 135,-190.5 219,-190.5 219,-171.5 135,-171.5"/>
<text text-anchor="middle" x="177" y="-178.5" font-family="Helvetica,sans-Serif" font-size="10.00">wbt::YarpClock</text>
</a>
</g>
</g>
<!-- Node1&#45;&gt;Node20 -->
<g id="edge19" class="edge"><title>Node1&#45;&gt;Node20</title>
<path fill="none" stroke="midnightblue" d="M48.5622,-240.054C61.2324,-227.243 80.205,-210.179 100,-200 110.765,-194.465 123.23,-190.482 134.913,-187.641"/>
<polygon fill="midnightblue" stroke="midnightblue" points="45.9314,-237.74 41.5366,-247.381 50.984,-242.585 45.9314,-237.74"/>
</g>
<!-- Node21 -->
<g id="node21" class="node"><title>Node21</title>
<g id="a_node21"><a xlink:href="classwbt_1_1_yarp_read.html" target="_top" xlink:title="The wbt::YarpRead class. ">
<polygon fill="none" stroke="black" points="136,-133.5 136,-152.5 218,-152.5 218,-133.5 136,-133.5"/>
<text text-anchor="middle" x="177" y="-140.5" font-family="Helvetica,sans-Serif" font-size="10.00">wbt::YarpRead</text>
</a>
</g>
</g>
<!-- Node1&#45;&gt;Node21 -->
<g id="edge20" class="edge"><title>Node1&#45;&gt;Node21</title>
<path fill="none" stroke="midnightblue" d="M41.1685,-238.3C51.6289,-216.591 71.8303,-181.303 100,-162 110.546,-154.773 123.594,-150.292 135.885,-147.514"/>
<polygon fill="midnightblue" stroke="midnightblue" points="37.9468,-236.929 36.9387,-247.476 44.3038,-239.859 37.9468,-236.929"/>
</g>
<!-- Node22 -->
<g id="node22" class="node"><title>Node22</title>
<g id="a_node22"><a xlink:href="classwbt_1_1_yarp_write.html" target="_top" xlink:title="The wbt::YarpWrite class. ">
<polygon fill="none" stroke="black" points="136,-95.5 136,-114.5 218,-114.5 218,-95.5 136,-95.5"/>
<text text-anchor="middle" x="177" y="-102.5" font-family="Helvetica,sans-Serif" font-size="10.00">wbt::YarpWrite</text>
</a>
</g>
</g>
<!-- Node1&#45;&gt;Node22 -->
<g id="edge21" class="edge"><title>Node1&#45;&gt;Node22</title>
<path fill="none" stroke="midnightblue" d="M37.3742,-237.345C44.9353,-208.079 63.2956,-153.353 100,-124 110.197,-115.845 123.434,-111.135 135.996,-108.432"/>
<polygon fill="midnightblue" stroke="midnightblue" points="33.9374,-236.666 34.9893,-247.209 40.7414,-238.312 33.9374,-236.666"/>
</g>
<!-- Node8 -->
<g id="node8" class="node"><title>Node8</title>
<g id="a_node8"><a xlink:href="classwbt_1_1_centroidal_momentum.html" target="_top" xlink:title="The wbt::CentroidalMomentum class. ">
<polygon fill="none" stroke="black" points="290.5,-418.5 290.5,-437.5 421.5,-437.5 421.5,-418.5 290.5,-418.5"/>
<text text-anchor="middle" x="356" y="-425.5" font-family="Helvetica,sans-Serif" font-size="10.00">wbt::CentroidalMomentum</text>
</a>
</g>
</g>
<!-- Node7&#45;&gt;Node8 -->
<g id="edge7" class="edge"><title>Node7&#45;&gt;Node8</title>
<path fill="none" stroke="midnightblue" d="M227.346,-222.958C237.281,-225.887 246.853,-230.58 254,-238 307.879,-293.938 237.233,-352.012 290,-409 293.594,-412.882 297.934,-415.986 302.645,-418.467"/>
<polygon fill="midnightblue" stroke="midnightblue" points="227.904,-219.493 217.365,-220.581 226.282,-226.303 227.904,-219.493"/>
</g>
<!-- Node9 -->
<g id="node9" class="node"><title>Node9</title>
<g id="a_node9"><a xlink:href="classwbt_1_1_dot_j_nu.html" target="_top" xlink:title="The wbt::DotJNu class. ">
<polygon fill="none" stroke="black" points="320,-380.5 320,-399.5 392,-399.5 392,-380.5 320,-380.5"/>
<text text-anchor="middle" x="356" y="-387.5" font-family="Helvetica,sans-Serif" font-size="10.00">wbt::DotJNu</text>
</a>
</g>
</g>
<!-- Node7&#45;&gt;Node9 -->
<g id="edge8" class="edge"><title>Node7&#45;&gt;Node9</title>
<path fill="none" stroke="midnightblue" d="M227.036,-223.265C236.988,-226.178 246.645,-230.786 254,-238 297.719,-280.881 247.134,-327.266 290,-371 297.901,-379.06 309.016,-383.747 319.825,-386.458"/>
<polygon fill="midnightblue" stroke="midnightblue" points="227.599,-219.801 217.06,-220.883 225.974,-226.609 227.599,-219.801"/>
</g>
<!-- Node10 -->
<g id="node10" class="node"><title>Node10</title>
<g id="a_node10"><a xlink:href="classwbt_1_1_forward_kinematics.html" target="_top" xlink:title="The wbt::ForwardKinematics class. ">
<polygon fill="none" stroke="black" points="295,-342.5 295,-361.5 417,-361.5 417,-342.5 295,-342.5"/>
<text text-anchor="middle" x="356" y="-349.5" font-family="Helvetica,sans-Serif" font-size="10.00">wbt::ForwardKinematics</text>
</a>
</g>
</g>
<!-- Node7&#45;&gt;Node10 -->
<g id="edge9" class="edge"><title>Node7&#45;&gt;Node10</title>
<path fill="none" stroke="midnightblue" d="M227.117,-223.986C236.891,-226.874 246.453,-231.29 254,-238 287.743,-268.002 256.854,-302.339 290,-333 294.229,-336.912 299.22,-340.022 304.528,-342.495"/>
<polygon fill="midnightblue" stroke="midnightblue" points="227.886,-220.571 217.339,-221.578 226.213,-227.368 227.886,-220.571"/>
</g>
<!-- Node11 -->
<g id="node11" class="node"><title>Node11</title>
<g id="a_node11"><a xlink:href="classwbt_1_1_get_limits.html" target="_top" xlink:title="The wbt::GetLimits class. ">
<polygon fill="none" stroke="black" points="316,-304.5 316,-323.5 396,-323.5 396,-304.5 316,-304.5"/>
<text text-anchor="middle" x="356" y="-311.5" font-family="Helvetica,sans-Serif" font-size="10.00">wbt::GetLimits</text>
</a>
</g>
</g>
<!-- Node7&#45;&gt;Node11 -->
<g id="edge10" class="edge"><title>Node7&#45;&gt;Node11</title>
<path fill="none" stroke="midnightblue" d="M227.053,-225.443C236.585,-228.248 246.067,-232.261 254,-238 278.277,-255.561 266.073,-276.964 290,-295 297.511,-300.662 306.675,-304.64 315.726,-307.435"/>
<polygon fill="midnightblue" stroke="midnightblue" points="227.718,-222.001 217.165,-222.936 225.998,-228.786 227.718,-222.001"/>
</g>
<!-- Node12 -->
<g id="node12" class="node"><title>Node12</title>
<g id="a_node12"><a xlink:href="classwbt_1_1_get_measurement.html" target="_top" xlink:title="The wbt::GetMeasurement class. ">
<polygon fill="none" stroke="black" points="299.5,-266.5 299.5,-285.5 412.5,-285.5 412.5,-266.5 299.5,-266.5"/>
<text text-anchor="middle" x="356" y="-273.5" font-family="Helvetica,sans-Serif" font-size="10.00">wbt::GetMeasurement</text>
</a>
</g>
</g>
<!-- Node7&#45;&gt;Node12 -->
<g id="edge11" class="edge"><title>Node7&#45;&gt;Node12</title>
<path fill="none" stroke="midnightblue" d="M226.963,-229.393C236.072,-231.844 245.417,-234.717 254,-238 270.898,-244.463 273.233,-250.205 290,-257 298.717,-260.532 308.334,-263.712 317.436,-266.416"/>
<polygon fill="midnightblue" stroke="midnightblue" points="227.775,-225.988 217.22,-226.899 226.039,-232.769 227.775,-225.988"/>
</g>
<!-- Node13 -->
<g id="node13" class="node"><title>Node13</title>
<g id="a_node13"><a xlink:href="classwbt_1_1_inverse_dynamics.html" target="_top" xlink:title="The wbt::InverseDynamics class. ">
<polygon fill="none" stroke="black" points="298.5,-228.5 298.5,-247.5 413.5,-247.5 413.5,-228.5 298.5,-228.5"/>
<text text-anchor="middle" x="356" y="-235.5" font-family="Helvetica,sans-Serif" font-size="10.00">wbt::InverseDynamics</text>
</a>
</g>
</g>
<!-- Node7&#45;&gt;Node13 -->
<g id="edge12" class="edge"><title>Node7&#45;&gt;Node13</title>
<path fill="none" stroke="midnightblue" d="M227.419,-224.305C249.458,-226.671 275.543,-229.471 298.365,-231.921"/>
<polygon fill="midnightblue" stroke="midnightblue" points="227.599,-220.804 217.282,-223.217 226.851,-227.764 227.599,-220.804"/>
</g>
<!-- Node14 -->
<g id="node14" class="node"><title>Node14</title>
<g id="a_node14"><a xlink:href="classwbt_1_1_jacobian.html" target="_top" xlink:title="The wbt::Jacobian class. ">
<polygon fill="none" stroke="black" points="317.5,-190.5 317.5,-209.5 394.5,-209.5 394.5,-190.5 317.5,-190.5"/>
<text text-anchor="middle" x="356" y="-197.5" font-family="Helvetica,sans-Serif" font-size="10.00">wbt::Jacobian</text>
</a>
</g>
</g>
<!-- Node7&#45;&gt;Node14 -->
<g id="edge13" class="edge"><title>Node7&#45;&gt;Node14</title>
<path fill="none" stroke="midnightblue" d="M227.437,-213.693C255.91,-210.637 291.13,-206.856 317.344,-204.042"/>
<polygon fill="midnightblue" stroke="midnightblue" points="226.851,-210.236 217.282,-214.783 227.599,-217.196 226.851,-210.236"/>
</g>
<!-- Node15 -->
<g id="node15" class="node"><title>Node15</title>
<g id="a_node15"><a xlink:href="classwbt_1_1_mass_matrix.html" target="_top" xlink:title="The wbt::MassMatrix class. ">
<polygon fill="none" stroke="black" points="311.5,-152.5 311.5,-171.5 400.5,-171.5 400.5,-152.5 311.5,-152.5"/>
<text text-anchor="middle" x="356" y="-159.5" font-family="Helvetica,sans-Serif" font-size="10.00">wbt::MassMatrix</text>
</a>
</g>
</g>
<!-- Node7&#45;&gt;Node15 -->
<g id="edge14" class="edge"><title>Node7&#45;&gt;Node15</title>
<path fill="none" stroke="midnightblue" d="M226.963,-208.607C236.072,-206.156 245.417,-203.283 254,-200 270.898,-193.537 273.233,-187.795 290,-181 298.717,-177.468 308.334,-174.288 317.436,-171.584"/>
<polygon fill="midnightblue" stroke="midnightblue" points="226.039,-205.231 217.22,-211.101 227.775,-212.012 226.039,-205.231"/>
</g>
<!-- Node16 -->
<g id="node16" class="node"><title>Node16</title>
<g id="a_node16"><a xlink:href="classwbt_1_1_model_partitioner.html" target="_top" xlink:title="The wbt::ModelPartitioner class. ">
<polygon fill="none" stroke="black" points="301.5,-114.5 301.5,-133.5 410.5,-133.5 410.5,-114.5 301.5,-114.5"/>
<text text-anchor="middle" x="356" y="-121.5" font-family="Helvetica,sans-Serif" font-size="10.00">wbt::ModelPartitioner</text>
</a>
</g>
</g>
<!-- Node7&#45;&gt;Node16 -->
<g id="edge15" class="edge"><title>Node7&#45;&gt;Node16</title>
<path fill="none" stroke="midnightblue" d="M227.053,-212.557C236.585,-209.752 246.067,-205.739 254,-200 278.277,-182.439 266.073,-161.036 290,-143 295.164,-139.108 301.109,-136.011 307.261,-133.547"/>
<polygon fill="midnightblue" stroke="midnightblue" points="225.998,-209.214 217.165,-215.064 227.718,-215.999 225.998,-209.214"/>
</g>
<!-- Node17 -->
<g id="node17" class="node"><title>Node17</title>
<g id="a_node17"><a xlink:href="classwbt_1_1_relative_transform.html" target="_top" xlink:title="The wbt::RelativeTransform class. ">
<polygon fill="none" stroke="black" points="296.5,-76.5 296.5,-95.5 415.5,-95.5 415.5,-76.5 296.5,-76.5"/>
<text text-anchor="middle" x="356" y="-83.5" font-family="Helvetica,sans-Serif" font-size="10.00">wbt::RelativeTransform</text>
</a>
</g>
</g>
<!-- Node7&#45;&gt;Node17 -->
<g id="edge16" class="edge"><title>Node7&#45;&gt;Node17</title>
<path fill="none" stroke="midnightblue" d="M227.117,-214.014C236.891,-211.126 246.453,-206.71 254,-200 287.743,-169.998 256.854,-135.661 290,-105 294.229,-101.088 299.22,-97.9775 304.528,-95.505"/>
<polygon fill="midnightblue" stroke="midnightblue" points="226.213,-210.632 217.339,-216.422 227.886,-217.429 226.213,-210.632"/>
</g>
<!-- Node18 -->
<g id="node18" class="node"><title>Node18</title>
<g id="a_node18"><a xlink:href="classwbt_1_1_set_low_level_p_i_d.html" target="_top" xlink:title="The wbt::SetLowLevelPID class. ">
<polygon fill="none" stroke="black" points="300,-38.5 300,-57.5 412,-57.5 412,-38.5 300,-38.5"/>
<text text-anchor="middle" x="356" y="-45.5" font-family="Helvetica,sans-Serif" font-size="10.00">wbt::SetLowLevelPID</text>
</a>
</g>
</g>
<!-- Node7&#45;&gt;Node18 -->
<g id="edge17" class="edge"><title>Node7&#45;&gt;Node18</title>
<path fill="none" stroke="midnightblue" d="M227.036,-214.735C236.988,-211.822 246.645,-207.214 254,-200 297.719,-157.119 247.134,-110.734 290,-67 293.786,-63.1377 298.31,-60.0499 303.184,-57.5831"/>
<polygon fill="midnightblue" stroke="midnightblue" points="225.974,-211.391 217.06,-217.117 227.599,-218.199 225.974,-211.391"/>
</g>
<!-- Node19 -->
<g id="node19" class="node"><title>Node19</title>
<g id="a_node19"><a xlink:href="classwbt_1_1_set_references.html" target="_top" xlink:title="The wbt::SetReferences class. ">
<polygon fill="none" stroke="black" points="304,-0.5 304,-19.5 408,-19.5 408,-0.5 304,-0.5"/>
<text text-anchor="middle" x="356" y="-7.5" font-family="Helvetica,sans-Serif" font-size="10.00">wbt::SetReferences</text>
</a>
</g>
</g>
<!-- Node7&#45;&gt;Node19 -->
<g id="edge18" class="edge"><title>Node7&#45;&gt;Node19</title>
<path fill="none" stroke="midnightblue" d="M227.346,-215.042C237.281,-212.113 246.853,-207.42 254,-200 307.879,-144.062 237.233,-85.9883 290,-29 293.914,-24.7729 298.711,-21.4678 303.91,-18.8868"/>
<polygon fill="midnightblue" stroke="midnightblue" points="226.282,-211.697 217.365,-217.419 227.904,-218.507 226.282,-211.697"/>
</g>
</g>
</svg>
