<?xml version="1.0" encoding="UTF-8" standalone="no"?>
<!DOCTYPE svg PUBLIC "-//W3C//DTD SVG 1.1//EN"
 "http://www.w3.org/Graphics/SVG/1.1/DTD/svg11.dtd">
<!-- Generated by graphviz version 2.43.0 (0)
 -->
<!-- Title: /home/runner/work/wb&#45;toolbox/wb&#45;toolbox/toolbox/library/src Pages: 1 -->
<svg width="106pt" height="223pt"
 viewBox="0.00 0.00 106.00 223.00" xmlns="http://www.w3.org/2000/svg" xmlns:xlink="http://www.w3.org/1999/xlink">
<g id="graph0" class="graph" transform="scale(1 1) rotate(0) translate(4 219)">
<title>/home/runner/work/wb&#45;toolbox/wb&#45;toolbox/toolbox/library/src</title>
<g id="clust1" class="cluster">
<title>clusterdir_7bde9667b2ba59ec3c711e65eaa3055f</title>
<g id="a_clust1"><a xlink:href="dir_7bde9667b2ba59ec3c711e65eaa3055f.html" target="_top" xlink:title="library">
<polygon fill="#ddddee" stroke="black" points="20,-136 20,-207 90,-207 90,-136 20,-136"/>
<text text-anchor="middle" x="55" y="-195" font-family="Helvetica,sans-Serif" font-size="10.00">library</text>
</a>
</g>
</g>
<!-- dir_2c4e11c39b7e19db47740eda5eef0028 -->
<g id="node1" class="node">
<title>dir_2c4e11c39b7e19db47740eda5eef0028</title>
<g id="a_node1"><a xlink:href="dir_2c4e11c39b7e19db47740eda5eef0028.html" target="_top" xlink:title="src">
<polygon fill="#eeeeff" stroke="black" points="82,-180 28,-180 28,-144 82,-144 82,-180"/>
<text text-anchor="middle" x="55" y="-159.5" font-family="Helvetica,sans-Serif" font-size="10.00">src</text>
</a>
</g>
</g>
<!-- dir_a9f127b3106376eed0de24ada65c0c04 -->
<g id="node2" class="node">
<title>dir_a9f127b3106376eed0de24ada65c0c04</title>
<g id="a_node2"><a xlink:href="dir_a9f127b3106376eed0de24ada65c0c04.html" target="_top" xlink:title="include">
<polygon fill="none" stroke="red" points="54,-108 0,-108 0,-72 54,-72 54,-108"/>
<text text-anchor="middle" x="27" y="-87.5" font-family="Helvetica,sans-Serif" font-size="10.00">include</text>
</a>
</g>
</g>
<!-- dir_2c4e11c39b7e19db47740eda5eef0028&#45;&gt;dir_a9f127b3106376eed0de24ada65c0c04 -->
<g id="edge2" class="edge">
<title>dir_2c4e11c39b7e19db47740eda5eef0028&#45;&gt;dir_a9f127b3106376eed0de24ada65c0c04</title>
<path fill="none" stroke="black" d="M48.08,-143.7C44.93,-135.81 41.12,-126.3 37.62,-117.55"/>
<polygon fill="black" stroke="black" points="40.81,-116.09 33.84,-108.1 34.31,-118.69 40.81,-116.09"/>
<g id="a_edge2&#45;headlabel"><a xlink:href="dir_000012_000009.html" target="_top" xlink:title="37">
<text text-anchor="middle" x="44.78" y="-115.87" font-family="Helvetica,sans-Serif" font-size="10.00">37</text>
</a>
</g>
</g>
<!-- dir_ad2483e380b19eb5049237d6399c086c -->
<g id="node3" class="node">
<title>dir_ad2483e380b19eb5049237d6399c086c</title>
<g id="a_node3"><a xlink:href="dir_ad2483e380b19eb5049237d6399c086c.html" target="_top" xlink:title="base">
<polygon fill="none" stroke="red" points="81,-36 27,-36 27,0 81,0 81,-36"/>
<text text-anchor="middle" x="54" y="-15.5" font-family="Helvetica,sans-Serif" font-size="10.00">base</text>
</a>
</g>
</g>
<!-- dir_2c4e11c39b7e19db47740eda5eef0028&#45;&gt;dir_ad2483e380b19eb5049237d6399c086c -->
<g id="edge3" class="edge">
<title>dir_2c4e11c39b7e19db47740eda5eef0028&#45;&gt;dir_ad2483e380b19eb5049237d6399c086c</title>
<path fill="none" stroke="black" d="M58.25,-143.89C60.05,-133.54 62.09,-120.06 63,-108 64.2,-92.04 64.34,-87.94 63,-72 62.28,-63.5 60.93,-54.31 59.49,-46.01"/>
<polygon fill="black" stroke="black" points="62.91,-45.29 57.65,-36.09 56.03,-46.56 62.91,-45.29"/>
<g id="a_edge3&#45;headlabel"><a xlink:href="dir_000012_000003.html" target="_top" xlink:title="22">
<text text-anchor="middle" x="66.36" y="-45.81" font-family="Helvetica,sans-Serif" font-size="10.00">22</text>
</a>
</g>
</g>
<!-- dir_a9f127b3106376eed0de24ada65c0c04&#45;&gt;dir_ad2483e380b19eb5049237d6399c086c -->
<g id="edge1" class="edge">
<title>dir_a9f127b3106376eed0de24ada65c0c04&#45;&gt;dir_ad2483e380b19eb5049237d6399c086c</title>
<path fill="none" stroke="black" d="M33.67,-71.7C36.71,-63.81 40.38,-54.3 43.76,-45.55"/>
<polygon fill="black" stroke="black" points="47.07,-46.69 47.4,-36.1 40.54,-44.17 47.07,-46.69"/>
<g id="a_edge1&#45;headlabel"><a xlink:href="dir_000009_000003.html" target="_top" xlink:title="11">
<text text-anchor="middle" x="48.42" y="-48.57" font-family="Helvetica,sans-Serif" font-size="10.00">11</text>
</a>
</g>
</g>
</g>
</svg>
