<?xml version="1.0" encoding="UTF-8" standalone="no"?>
<!DOCTYPE svg PUBLIC "-//W3C//DTD SVG 1.1//EN"
 "http://www.w3.org/Graphics/SVG/1.1/DTD/svg11.dtd">
<!-- Generated by graphviz version 2.36.0 (20140111.2315)
 -->
<!-- Title: /home/travis/build/robotology/wb&#45;toolbox/toolbox/src/library/include Pages: 1 -->
<svg width="182pt" height="231pt"
 viewBox="0.00 0.00 182.00 231.00" xmlns="http://www.w3.org/2000/svg" xmlns:xlink="http://www.w3.org/1999/xlink">
<g id="graph0" class="graph" transform="scale(1 1) rotate(0) translate(4 227)">
<title>/home/travis/build/robotology/wb&#45;toolbox/toolbox/src/library/include</title>
<g id="clust1" class="cluster"><title>clusterdir_64380bcb215016201461a3db30e287e6</title>
<g id="a_clust1"><a xlink:href="dir_64380bcb215016201461a3db30e287e6.html" target="_top" xlink:title="library">
<polygon fill="#ddddee" stroke="black" points="8,-56 8,-215 166,-215 166,-56 8,-56"/>
<text text-anchor="middle" x="87" y="-203" font-family="Helvetica,sans-Serif" font-size="10.00">library</text>
</a>
</g>
</g>
<g id="clust2" class="cluster"><title>clusterdir_4f376f5fe6360b64f51b0ba34f613f53</title>
<g id="a_clust2"><a xlink:href="dir_4f376f5fe6360b64f51b0ba34f613f53.html" target="_top">
<polygon fill="#eeeeff" stroke="black" points="16,-64 16,-188 158,-188 158,-64 16,-64"/>
</a>
</g>
</g>
<!-- dir_4f376f5fe6360b64f51b0ba34f613f53 -->
<g id="node1" class="node"><title>dir_4f376f5fe6360b64f51b0ba34f613f53</title>
<text text-anchor="middle" x="123" y="-159.5" font-family="Helvetica,sans-Serif" font-size="10.00">include</text>
</g>
<!-- dir_ae3e7ab676f1c626064eebf5606ae168 -->
<g id="node2" class="node"><title>dir_ae3e7ab676f1c626064eebf5606ae168</title>
<g id="a_node2"><a xlink:href="dir_ae3e7ab676f1c626064eebf5606ae168.html" target="_top" xlink:title="Base">
<polygon fill="white" stroke="black" points="78,-108 24,-108 24,-72 78,-72 78,-108"/>
<text text-anchor="middle" x="51" y="-87.5" font-family="Helvetica,sans-Serif" font-size="10.00">Base</text>
</a>
</g>
</g>
<!-- dir_0d5ab87910e966a23f738f4cfd1bf596 -->
<g id="node4" class="node"><title>dir_0d5ab87910e966a23f738f4cfd1bf596</title>
<g id="a_node4"><a xlink:href="dir_0d5ab87910e966a23f738f4cfd1bf596.html" target="_top" xlink:title="core">
<polygon fill="none" stroke="red" points="105,-36 51,-36 51,-0 105,-0 105,-36"/>
<text text-anchor="middle" x="78" y="-15.5" font-family="Helvetica,sans-Serif" font-size="10.00">core</text>
</a>
</g>
</g>
<!-- dir_ae3e7ab676f1c626064eebf5606ae168&#45;&gt;dir_0d5ab87910e966a23f738f4cfd1bf596 -->
<g id="edge3" class="edge"><title>dir_ae3e7ab676f1c626064eebf5606ae168&#45;&gt;dir_0d5ab87910e966a23f738f4cfd1bf596</title>
<path fill="none" stroke="black" d="M57.6742,-71.6966C60.7149,-63.8132 64.3827,-54.3042 67.7607,-45.5464"/>
<polygon fill="black" stroke="black" points="71.0693,-46.6939 71.4026,-36.1043 64.5383,-44.1748 71.0693,-46.6939"/>
<g id="a_edge3&#45;headlabel"><a xlink:href="dir_000008_000002.html" target="_top" xlink:title="1">
<text text-anchor="middle" x="72.4248" y="-48.5695" font-family="Helvetica,sans-Serif" font-size="10.00">1</text>
</a>
</g>
</g>
<!-- dir_2bd3b3d0649f5e07fa6fd3bf496701de -->
<g id="node3" class="node"><title>dir_2bd3b3d0649f5e07fa6fd3bf496701de</title>
<g id="a_node3"><a xlink:href="dir_2bd3b3d0649f5e07fa6fd3bf496701de.html" target="_top" xlink:title="Block">
<polygon fill="white" stroke="black" points="78,-180 24,-180 24,-144 78,-144 78,-180"/>
<text text-anchor="middle" x="51" y="-159.5" font-family="Helvetica,sans-Serif" font-size="10.00">Block</text>
</a>
</g>
</g>
<!-- dir_2bd3b3d0649f5e07fa6fd3bf496701de&#45;&gt;dir_ae3e7ab676f1c626064eebf5606ae168 -->
<g id="edge2" class="edge"><title>dir_2bd3b3d0649f5e07fa6fd3bf496701de&#45;&gt;dir_ae3e7ab676f1c626064eebf5606ae168</title>
<path fill="none" stroke="black" d="M51,-143.697C51,-135.983 51,-126.712 51,-118.112"/>
<polygon fill="black" stroke="black" points="54.5001,-118.104 51,-108.104 47.5001,-118.104 54.5001,-118.104"/>
<g id="a_edge2&#45;headlabel"><a xlink:href="dir_000009_000008.html" target="_top" xlink:title="12">
<text text-anchor="middle" x="57.3393" y="-119.199" font-family="Helvetica,sans-Serif" font-size="10.00">12</text>
</a>
</g>
</g>
<!-- dir_2bd3b3d0649f5e07fa6fd3bf496701de&#45;&gt;dir_0d5ab87910e966a23f738f4cfd1bf596 -->
<g id="edge1" class="edge"><title>dir_2bd3b3d0649f5e07fa6fd3bf496701de&#45;&gt;dir_0d5ab87910e966a23f738f4cfd1bf596</title>
<path fill="none" stroke="black" d="M66.6099,-143.774C74.3729,-134.03 82.9459,-121.184 87,-108 93.2198,-87.7736 90.2688,-63.865 86.1475,-45.9241"/>
<polygon fill="black" stroke="black" points="89.5104,-44.9471 83.6461,-36.1232 82.7278,-46.6782 89.5104,-44.9471"/>
<g id="a_edge1&#45;headlabel"><a xlink:href="dir_000009_000002.html" target="_top" xlink:title="8">
<text text-anchor="middle" x="93.1503" y="-45.228" font-family="Helvetica,sans-Serif" font-size="10.00">8</text>
</a>
</g>
</g>
</g>
</svg>
