<?xml version="1.0" encoding="UTF-8" standalone="no"?>
<!DOCTYPE svg PUBLIC "-//W3C//DTD SVG 1.1//EN"
 "http://www.w3.org/Graphics/SVG/1.1/DTD/svg11.dtd">
<!-- Generated by graphviz version 2.36.0 (20140111.2315)
 -->
<!-- Title: /home/travis/build/robotology/wb&#45;toolbox/toolbox/src/library Pages: 1 -->
<svg width="182pt" height="303pt"
 viewBox="0.00 0.00 182.00 303.00" xmlns="http://www.w3.org/2000/svg" xmlns:xlink="http://www.w3.org/1999/xlink">
<g id="graph0" class="graph" transform="scale(1 1) rotate(0) translate(4 299)">
<title>/home/travis/build/robotology/wb&#45;toolbox/toolbox/src/library</title>
<g id="clust1" class="cluster"><title>clusterdir_1dbc6a313c5ed2ce247ebe7ca163e9a5</title>
<g id="a_clust1"><a xlink:href="dir_1dbc6a313c5ed2ce247ebe7ca163e9a5.html" target="_top" xlink:title="src">
<polygon fill="#ddddee" stroke="black" points="8,-128 8,-287 166,-287 166,-128 8,-128"/>
<text text-anchor="middle" x="87" y="-275" font-family="Helvetica,sans-Serif" font-size="10.00">src</text>
</a>
</g>
</g>
<g id="clust2" class="cluster"><title>clusterdir_64380bcb215016201461a3db30e287e6</title>
<g id="a_clust2"><a xlink:href="dir_64380bcb215016201461a3db30e287e6.html" target="_top">
<polygon fill="#eeeeff" stroke="black" points="16,-136 16,-260 158,-260 158,-136 16,-136"/>
</a>
</g>
</g>
<!-- dir_64380bcb215016201461a3db30e287e6 -->
<g id="node1" class="node"><title>dir_64380bcb215016201461a3db30e287e6</title>
<text text-anchor="middle" x="123" y="-231.5" font-family="Helvetica,sans-Serif" font-size="10.00">library</text>
</g>
<!-- dir_4f376f5fe6360b64f51b0ba34f613f53 -->
<g id="node2" class="node"><title>dir_4f376f5fe6360b64f51b0ba34f613f53</title>
<g id="a_node2"><a xlink:href="dir_4f376f5fe6360b64f51b0ba34f613f53.html" target="_top" xlink:title="include">
<polygon fill="white" stroke="red" points="78,-180 24,-180 24,-144 78,-144 78,-180"/>
<text text-anchor="middle" x="51" y="-159.5" font-family="Helvetica,sans-Serif" font-size="10.00">include</text>
</a>
</g>
</g>
<!-- dir_0d5ab87910e966a23f738f4cfd1bf596 -->
<g id="node4" class="node"><title>dir_0d5ab87910e966a23f738f4cfd1bf596</title>
<g id="a_node4"><a xlink:href="dir_0d5ab87910e966a23f738f4cfd1bf596.html" target="_top" xlink:title="core">
<polygon fill="none" stroke="red" points="116,-108 62,-108 62,-72 116,-72 116,-108"/>
<text text-anchor="middle" x="89" y="-87.5" font-family="Helvetica,sans-Serif" font-size="10.00">core</text>
</a>
</g>
</g>
<!-- dir_4f376f5fe6360b64f51b0ba34f613f53&#45;&gt;dir_0d5ab87910e966a23f738f4cfd1bf596 -->
<g id="edge5" class="edge"><title>dir_4f376f5fe6360b64f51b0ba34f613f53&#45;&gt;dir_0d5ab87910e966a23f738f4cfd1bf596</title>
<path fill="none" stroke="black" d="M60.3933,-143.697C64.7649,-135.644 70.0573,-125.894 74.8953,-116.982"/>
<polygon fill="black" stroke="black" points="78.0198,-118.563 79.7148,-108.104 71.8678,-115.223 78.0198,-118.563"/>
<g id="a_edge5&#45;headlabel"><a xlink:href="dir_000007_000002.html" target="_top" xlink:title="9">
<text text-anchor="middle" x="78.8002" y="-120.576" font-family="Helvetica,sans-Serif" font-size="10.00">9</text>
</a>
</g>
</g>
<!-- dir_0163352f8d67e136b6f0c10b53bf0f02 -->
<g id="node3" class="node"><title>dir_0163352f8d67e136b6f0c10b53bf0f02</title>
<g id="a_node3"><a xlink:href="dir_0163352f8d67e136b6f0c10b53bf0f02.html" target="_top" xlink:title="src">
<polygon fill="white" stroke="black" points="78,-252 24,-252 24,-216 78,-216 78,-252"/>
<text text-anchor="middle" x="51" y="-231.5" font-family="Helvetica,sans-Serif" font-size="10.00">src</text>
</a>
</g>
</g>
<!-- dir_0163352f8d67e136b6f0c10b53bf0f02&#45;&gt;dir_4f376f5fe6360b64f51b0ba34f613f53 -->
<g id="edge3" class="edge"><title>dir_0163352f8d67e136b6f0c10b53bf0f02&#45;&gt;dir_4f376f5fe6360b64f51b0ba34f613f53</title>
<path fill="none" stroke="black" d="M51,-215.697C51,-207.983 51,-198.712 51,-190.112"/>
<polygon fill="black" stroke="black" points="54.5001,-190.104 51,-180.104 47.5001,-190.104 54.5001,-190.104"/>
<g id="a_edge3&#45;headlabel"><a xlink:href="dir_000010_000007.html" target="_top" xlink:title="69">
<text text-anchor="middle" x="57.3393" y="-191.199" font-family="Helvetica,sans-Serif" font-size="10.00">69</text>
</a>
</g>
</g>
<!-- dir_0163352f8d67e136b6f0c10b53bf0f02&#45;&gt;dir_0d5ab87910e966a23f738f4cfd1bf596 -->
<g id="edge1" class="edge"><title>dir_0163352f8d67e136b6f0c10b53bf0f02&#45;&gt;dir_0d5ab87910e966a23f738f4cfd1bf596</title>
<path fill="none" stroke="black" d="M66.492,-215.737C74.2205,-205.983 82.7981,-193.137 87,-180 93.3855,-160.036 93.5666,-136.246 92.325,-118.287"/>
<polygon fill="black" stroke="black" points="95.8009,-117.858 91.4385,-108.203 88.8278,-118.471 95.8009,-117.858"/>
<g id="a_edge1&#45;headlabel"><a xlink:href="dir_000010_000002.html" target="_top" xlink:title="96">
<text text-anchor="middle" x="98.944" y="-118.69" font-family="Helvetica,sans-Serif" font-size="10.00">96</text>
</a>
</g>
</g>
<!-- dir_6e3959465ed458c91232866e7ca77487 -->
<g id="node5" class="node"><title>dir_6e3959465ed458c91232866e7ca77487</title>
<g id="a_node5"><a xlink:href="dir_6e3959465ed458c91232866e7ca77487.html" target="_top" xlink:title="sharedlibpp">
<polygon fill="none" stroke="red" points="149,-36 83,-36 83,-0 149,-0 149,-36"/>
<text text-anchor="middle" x="116" y="-15.5" font-family="Helvetica,sans-Serif" font-size="10.00">sharedlibpp</text>
</a>
</g>
</g>
<!-- dir_0163352f8d67e136b6f0c10b53bf0f02&#45;&gt;dir_6e3959465ed458c91232866e7ca77487 -->
<g id="edge2" class="edge"><title>dir_0163352f8d67e136b6f0c10b53bf0f02&#45;&gt;dir_6e3959465ed458c91232866e7ca77487</title>
<path fill="none" stroke="black" d="M72.7135,-215.866C83.4954,-206.338 95.9115,-193.66 104,-180 128.914,-137.924 129.108,-120.726 125,-72 124.283,-63.4991 122.931,-54.3119 121.488,-46.0122"/>
<polygon fill="black" stroke="black" points="124.914,-45.2892 119.654,-36.0925 118.031,-46.5623 124.914,-45.2892"/>
<g id="a_edge2&#45;headlabel"><a xlink:href="dir_000010_000011.html" target="_top" xlink:title="1">
<text text-anchor="middle" x="128.36" y="-45.8075" font-family="Helvetica,sans-Serif" font-size="10.00">1</text>
</a>
</g>
</g>
<!-- dir_0d5ab87910e966a23f738f4cfd1bf596&#45;&gt;dir_6e3959465ed458c91232866e7ca77487 -->
<g id="edge4" class="edge"><title>dir_0d5ab87910e966a23f738f4cfd1bf596&#45;&gt;dir_6e3959465ed458c91232866e7ca77487</title>
<path fill="none" stroke="black" d="M95.6742,-71.6966C98.7149,-63.8132 102.383,-54.3042 105.761,-45.5464"/>
<polygon fill="black" stroke="black" points="109.069,-46.6939 109.403,-36.1043 102.538,-44.1748 109.069,-46.6939"/>
<g id="a_edge4&#45;headlabel"><a xlink:href="dir_000002_000011.html" target="_top" xlink:title="2">
<text text-anchor="middle" x="110.425" y="-48.5695" font-family="Helvetica,sans-Serif" font-size="10.00">2</text>
</a>
</g>
</g>
</g>
</svg>
