<?xml version="1.0" encoding="UTF-8" standalone="no"?>
<!DOCTYPE svg PUBLIC "-//W3C//DTD SVG 1.1//EN"
 "http://www.w3.org/Graphics/SVG/1.1/DTD/svg11.dtd">
<!-- Generated by graphviz version 2.43.0 (0)
 -->
<!-- Title: Graphical Class Hierarchy Pages: 1 -->
<svg width="489pt" height="641pt"
 viewBox="0.00 0.00 489.00 641.00" xmlns="http://www.w3.org/2000/svg" xmlns:xlink="http://www.w3.org/1999/xlink">
<g id="graph0" class="graph" transform="scale(1 1) rotate(0) translate(4 637)">
<title>Graphical Class Hierarchy</title>
<!-- Node37 -->
<g id="node1" class="node">
<title>Node37</title>
<g id="a_node1"><a xlink:title=" ">
<polygon fill="none" stroke="#bfbfbf" points="0,-190.5 0,-209.5 44,-209.5 44,-190.5 0,-190.5"/>
<text text-anchor="middle" x="22" y="-197.5" font-family="Helvetica,sans-Serif" font-size="10.00">Block</text>
</a>
</g>
</g>
<!-- Node0 -->
<g id="node2" class="node">
<title>Node0</title>
<g id="a_node2"><a xlink:href="classwbt_1_1base_1_1_w_b_block.html" target="_top" xlink:title="Extension of blockfactory::core::Block for simplifying the development of whole&#45;body blocks.">
<polygon fill="none" stroke="black" points="116.5,-392.5 116.5,-411.5 229.5,-411.5 229.5,-392.5 116.5,-392.5"/>
<text text-anchor="middle" x="173" y="-399.5" font-family="Helvetica,sans-Serif" font-size="10.00">wbt::base::WBBlock</text>
</a>
</g>
</g>
<!-- Node37&#45;&gt;Node0 -->
<g id="edge1" class="edge">
<title>Node37&#45;&gt;Node0</title>
<path fill="none" stroke="midnightblue" d="M23.01,-219.94C24.18,-257.73 32.4,-339.87 80,-383 90.03,-392.09 103.23,-397.28 116.48,-400.15"/>
<polygon fill="midnightblue" stroke="midnightblue" points="26.51,-219.67 22.84,-209.73 19.51,-219.78 26.51,-219.67"/>
</g>
<!-- Node51 -->
<g id="node15" class="node">
<title>Node51</title>
<g id="a_node15"><a xlink:href="classwbt_1_1block_1_1_discrete_filter.html" target="_top" xlink:title="The wbt::DiscreteFilter class.">
<polygon fill="none" stroke="black" points="104,-354.5 104,-373.5 242,-373.5 242,-354.5 104,-354.5"/>
<text text-anchor="middle" x="173" y="-361.5" font-family="Helvetica,sans-Serif" font-size="10.00">wbt::block::DiscreteFilter</text>
</a>
</g>
</g>
<!-- Node37&#45;&gt;Node51 -->
<g id="edge14" class="edge">
<title>Node37&#45;&gt;Node51</title>
<path fill="none" stroke="midnightblue" d="M24.87,-219.71C28.97,-251.23 41.67,-312.72 80,-345 86.86,-350.78 95.02,-354.95 103.6,-357.94"/>
<polygon fill="midnightblue" stroke="midnightblue" points="28.33,-219.1 23.72,-209.56 21.37,-219.89 28.33,-219.1"/>
</g>
<!-- Node52 -->
<g id="node16" class="node">
<title>Node52</title>
<g id="a_node16"><a xlink:href="classwbt_1_1block_1_1_minimum_jerk_trajectory_generator.html" target="_top" xlink:title="The wbt::MinimumJerkTrajectoryGenerator class.">
<polygon fill="none" stroke="black" points="80,-305 80,-335 266,-335 266,-305 80,-305"/>
<text text-anchor="start" x="88" y="-323" font-family="Helvetica,sans-Serif" font-size="10.00">wbt::block::MinimumJerkTrajectory</text>
<text text-anchor="middle" x="173" y="-312" font-family="Helvetica,sans-Serif" font-size="10.00">Generator</text>
</a>
</g>
</g>
<!-- Node37&#45;&gt;Node52 -->
<g id="edge15" class="edge">
<title>Node37&#45;&gt;Node52</title>
<path fill="none" stroke="midnightblue" d="M29.5,-219.21C37.82,-240.86 54.3,-275.55 80,-295 85.15,-298.9 90.86,-302.18 96.85,-304.96"/>
<polygon fill="midnightblue" stroke="midnightblue" points="32.77,-217.96 26.07,-209.76 26.19,-220.35 32.77,-217.96"/>
</g>
<!-- Node53 -->
<g id="node17" class="node">
<title>Node53</title>
<g id="a_node17"><a xlink:href="classwbt_1_1block_1_1_o_s_q_p.html" target="_top" xlink:title="The wbt::OSQP class.">
<polygon fill="none" stroke="black" points="123,-266.5 123,-285.5 223,-285.5 223,-266.5 123,-266.5"/>
<text text-anchor="middle" x="173" y="-273.5" font-family="Helvetica,sans-Serif" font-size="10.00">wbt::block::OSQP</text>
</a>
</g>
</g>
<!-- Node37&#45;&gt;Node53 -->
<g id="edge16" class="edge">
<title>Node37&#45;&gt;Node53</title>
<path fill="none" stroke="midnightblue" d="M36.22,-217.96C46.66,-230.83 62.39,-247.5 80,-257 93.06,-264.04 108.46,-268.48 122.89,-271.27"/>
<polygon fill="midnightblue" stroke="midnightblue" points="38.77,-215.54 29.87,-209.8 33.24,-219.84 38.77,-215.54"/>
</g>
<!-- Node54 -->
<g id="node18" class="node">
<title>Node54</title>
<g id="a_node18"><a xlink:href="classwbt_1_1block_1_1_qp_oases.html" target="_top" xlink:title="The wbt::QpOases class.">
<polygon fill="none" stroke="black" points="115,-228.5 115,-247.5 231,-247.5 231,-228.5 115,-228.5"/>
<text text-anchor="middle" x="173" y="-235.5" font-family="Helvetica,sans-Serif" font-size="10.00">wbt::block::QpOases</text>
</a>
</g>
</g>
<!-- Node37&#45;&gt;Node54 -->
<g id="edge17" class="edge">
<title>Node37&#45;&gt;Node54</title>
<path fill="none" stroke="midnightblue" d="M53.7,-210.97C62.16,-213.79 71.38,-216.68 80,-219 92.91,-222.47 107,-225.67 120.17,-228.41"/>
<polygon fill="midnightblue" stroke="midnightblue" points="54.8,-207.65 44.2,-207.73 52.54,-214.27 54.8,-207.65"/>
</g>
<!-- Node55 -->
<g id="node19" class="node">
<title>Node55</title>
<g id="a_node19"><a xlink:href="classwbt_1_1block_1_1_real_time_synchronizer.html" target="_top" xlink:title="The wbt::RealTimeSynchronizer class.">
<polygon fill="none" stroke="black" points="82,-190.5 82,-209.5 264,-209.5 264,-190.5 82,-190.5"/>
<text text-anchor="middle" x="173" y="-197.5" font-family="Helvetica,sans-Serif" font-size="10.00">wbt::block::RealTimeSynchronizer</text>
</a>
</g>
</g>
<!-- Node37&#45;&gt;Node55 -->
<g id="edge18" class="edge">
<title>Node37&#45;&gt;Node55</title>
<path fill="none" stroke="midnightblue" d="M54.24,-200C62.53,-200 71.92,-200 81.68,-200"/>
<polygon fill="midnightblue" stroke="midnightblue" points="54.03,-196.5 44.03,-200 54.03,-203.5 54.03,-196.5"/>
</g>
<!-- Node56 -->
<g id="node20" class="node">
<title>Node56</title>
<g id="a_node20"><a xlink:href="classwbt_1_1block_1_1_simulator_synchronizer.html" target="_top" xlink:title="The wbt::SimulatorSynchronizer class.">
<polygon fill="none" stroke="black" points="81.5,-152.5 81.5,-171.5 264.5,-171.5 264.5,-152.5 81.5,-152.5"/>
<text text-anchor="middle" x="173" y="-159.5" font-family="Helvetica,sans-Serif" font-size="10.00">wbt::block::SimulatorSynchronizer</text>
</a>
</g>
</g>
<!-- Node37&#45;&gt;Node56 -->
<g id="edge19" class="edge">
<title>Node37&#45;&gt;Node56</title>
<path fill="none" stroke="midnightblue" d="M53.7,-189.03C62.16,-186.21 71.38,-183.32 80,-181 92.91,-177.53 107,-174.33 120.17,-171.59"/>
<polygon fill="midnightblue" stroke="midnightblue" points="52.54,-185.73 44.2,-192.27 54.8,-192.35 52.54,-185.73"/>
</g>
<!-- Node57 -->
<g id="node21" class="node">
<title>Node57</title>
<g id="a_node21"><a xlink:href="classwbt_1_1block_1_1_yarp_clock.html" target="_top" xlink:title="The wbt::YarpClock class.">
<polygon fill="none" stroke="black" points="113,-114.5 113,-133.5 233,-133.5 233,-114.5 113,-114.5"/>
<text text-anchor="middle" x="173" y="-121.5" font-family="Helvetica,sans-Serif" font-size="10.00">wbt::block::YarpClock</text>
</a>
</g>
</g>
<!-- Node37&#45;&gt;Node57 -->
<g id="edge20" class="edge">
<title>Node37&#45;&gt;Node57</title>
<path fill="none" stroke="midnightblue" d="M36.22,-182.04C46.66,-169.17 62.39,-152.5 80,-143 90.05,-137.58 101.48,-133.71 112.79,-130.93"/>
<polygon fill="midnightblue" stroke="midnightblue" points="33.24,-180.16 29.87,-190.2 38.77,-184.46 33.24,-180.16"/>
</g>
<!-- Node58 -->
<g id="node22" class="node">
<title>Node58</title>
<g id="a_node22"><a xlink:href="classwbt_1_1block_1_1_yarp_read.html" target="_top" xlink:title="The wbt::YarpRead class.">
<polygon fill="none" stroke="black" points="114,-76.5 114,-95.5 232,-95.5 232,-76.5 114,-76.5"/>
<text text-anchor="middle" x="173" y="-83.5" font-family="Helvetica,sans-Serif" font-size="10.00">wbt::block::YarpRead</text>
</a>
</g>
</g>
<!-- Node37&#45;&gt;Node58 -->
<g id="edge21" class="edge">
<title>Node37&#45;&gt;Node58</title>
<path fill="none" stroke="midnightblue" d="M29.17,-180.84C37.25,-158.95 53.58,-123.75 80,-105 89.84,-98.02 101.68,-93.48 113.54,-90.57"/>
<polygon fill="midnightblue" stroke="midnightblue" points="25.83,-179.79 25.86,-190.39 32.44,-182.08 25.83,-179.79"/>
</g>
<!-- Node59 -->
<g id="node23" class="node">
<title>Node59</title>
<g id="a_node23"><a xlink:href="classwbt_1_1block_1_1_yarp_write.html" target="_top" xlink:title="The wbt::YarpWrite class.">
<polygon fill="none" stroke="black" points="113.5,-38.5 113.5,-57.5 232.5,-57.5 232.5,-38.5 113.5,-38.5"/>
<text text-anchor="middle" x="173" y="-45.5" font-family="Helvetica,sans-Serif" font-size="10.00">wbt::block::YarpWrite</text>
</a>
</g>
</g>
<!-- Node37&#45;&gt;Node59 -->
<g id="edge22" class="edge">
<title>Node37&#45;&gt;Node59</title>
<path fill="none" stroke="midnightblue" d="M25.68,-180.23C30.75,-150.81 44.63,-95.88 80,-67 89.47,-59.26 101.29,-54.43 113.27,-51.46"/>
<polygon fill="midnightblue" stroke="midnightblue" points="22.21,-179.73 24.14,-190.15 29.13,-180.8 22.21,-179.73"/>
</g>
<!-- Node60 -->
<g id="node24" class="node">
<title>Node60</title>
<g id="a_node24"><a xlink:href="classwbt_1_1_remote_inverse_kinematics.html" target="_top" xlink:title=" ">
<polygon fill="none" stroke="black" points="88,-0.5 88,-19.5 258,-19.5 258,-0.5 88,-0.5"/>
<text text-anchor="middle" x="173" y="-7.5" font-family="Helvetica,sans-Serif" font-size="10.00">wbt::RemoteInverseKinematics</text>
</a>
</g>
</g>
<!-- Node37&#45;&gt;Node60 -->
<g id="edge23" class="edge">
<title>Node37&#45;&gt;Node60</title>
<path fill="none" stroke="midnightblue" d="M23.51,-180.37C25.55,-144.58 35.25,-68.76 80,-29 84.27,-25.21 89.09,-22.1 94.23,-19.56"/>
<polygon fill="midnightblue" stroke="midnightblue" points="20,-180.35 23.08,-190.49 27,-180.64 20,-180.35"/>
</g>
<!-- Node1 -->
<g id="node3" class="node">
<title>Node1</title>
<g id="a_node3"><a xlink:href="classwbt_1_1block_1_1_centroidal_momentum.html" target="_top" xlink:title="The wbt::CentroidalMomentum class.">
<polygon fill="none" stroke="black" points="302,-613.5 302,-632.5 481,-632.5 481,-613.5 302,-613.5"/>
<text text-anchor="middle" x="391.5" y="-620.5" font-family="Helvetica,sans-Serif" font-size="10.00">wbt::block::CentroidalMomentum</text>
</a>
</g>
</g>
<!-- Node0&#45;&gt;Node1 -->
<g id="edge2" class="edge">
<title>Node0&#45;&gt;Node1</title>
<path fill="none" stroke="midnightblue" d="M180.49,-421.56C195.13,-462.47 234.78,-557.14 302,-604 307.54,-607.86 313.72,-610.97 320.16,-613.45"/>
<polygon fill="midnightblue" stroke="midnightblue" points="183.74,-420.26 177.16,-411.96 177.13,-422.55 183.74,-420.26"/>
</g>
<!-- Node2 -->
<g id="node4" class="node">
<title>Node2</title>
<g id="a_node4"><a xlink:href="classwbt_1_1block_1_1_centroidal_total_momentum_matrix.html" target="_top" xlink:title="The wbt::CentroidalTotalMomentumMatrix class.">
<polygon fill="none" stroke="black" points="318.5,-564 318.5,-594 464.5,-594 464.5,-564 318.5,-564"/>
<text text-anchor="start" x="326.5" y="-582" font-family="Helvetica,sans-Serif" font-size="10.00">wbt::block::CentroidalTotal</text>
<text text-anchor="middle" x="391.5" y="-571" font-family="Helvetica,sans-Serif" font-size="10.00">MomentumMatrix</text>
</a>
</g>
</g>
<!-- Node0&#45;&gt;Node2 -->
<g id="edge3" class="edge">
<title>Node0&#45;&gt;Node2</title>
<path fill="none" stroke="midnightblue" d="M184.33,-420.31C203.37,-452.36 247.1,-518.57 302,-554 308.04,-557.9 314.69,-561.19 321.55,-563.99"/>
<polygon fill="midnightblue" stroke="midnightblue" points="187.28,-418.42 179.23,-411.54 181.23,-421.94 187.28,-418.42"/>
</g>
<!-- Node3 -->
<g id="node5" class="node">
<title>Node3</title>
<g id="a_node5"><a xlink:href="classwbt_1_1block_1_1_dot_j_nu.html" target="_top" xlink:title="The wbt::DotJNu class.">
<polygon fill="none" stroke="black" points="338,-525.5 338,-544.5 445,-544.5 445,-525.5 338,-525.5"/>
<text text-anchor="middle" x="391.5" y="-532.5" font-family="Helvetica,sans-Serif" font-size="10.00">wbt::block::DotJNu</text>
</a>
</g>
</g>
<!-- Node0&#45;&gt;Node3 -->
<g id="edge4" class="edge">
<title>Node0&#45;&gt;Node3</title>
<path fill="none" stroke="midnightblue" d="M188.3,-419.52C210.07,-444.95 254.08,-491.68 302,-516 313.07,-521.62 325.74,-525.58 337.96,-528.37"/>
<polygon fill="midnightblue" stroke="midnightblue" points="190.91,-417.18 181.8,-411.78 185.55,-421.69 190.91,-417.18"/>
</g>
<!-- Node4 -->
<g id="node6" class="node">
<title>Node4</title>
<g id="a_node6"><a xlink:href="classwbt_1_1block_1_1_forward_kinematics.html" target="_top" xlink:title="The wbt::ForwardKinematics class.">
<polygon fill="none" stroke="black" points="308,-487.5 308,-506.5 475,-506.5 475,-487.5 308,-487.5"/>
<text text-anchor="middle" x="391.5" y="-494.5" font-family="Helvetica,sans-Serif" font-size="10.00">wbt::block::ForwardKinematics</text>
</a>
</g>
</g>
<!-- Node0&#45;&gt;Node4 -->
<g id="edge5" class="edge">
<title>Node0&#45;&gt;Node4</title>
<path fill="none" stroke="midnightblue" d="M195.29,-417.6C219.82,-434.85 261.93,-462.29 302,-478 311.66,-481.79 322.22,-484.88 332.57,-487.39"/>
<polygon fill="midnightblue" stroke="midnightblue" points="197.25,-414.7 187.08,-411.74 193.19,-420.4 197.25,-414.7"/>
</g>
<!-- Node5 -->
<g id="node7" class="node">
<title>Node5</title>
<g id="a_node7"><a xlink:href="classwbt_1_1block_1_1_get_limits.html" target="_top" xlink:title="The wbt::GetLimits class.">
<polygon fill="none" stroke="black" points="331.5,-449.5 331.5,-468.5 451.5,-468.5 451.5,-449.5 331.5,-449.5"/>
<text text-anchor="middle" x="391.5" y="-456.5" font-family="Helvetica,sans-Serif" font-size="10.00">wbt::block::GetLimits</text>
</a>
</g>
</g>
<!-- Node0&#45;&gt;Node5 -->
<g id="edge6" class="edge">
<title>Node0&#45;&gt;Node5</title>
<path fill="none" stroke="midnightblue" d="M213.39,-414.55C238.59,-422.37 272.06,-432.35 302,-440 315.09,-443.34 329.38,-446.59 342.58,-449.42"/>
<polygon fill="midnightblue" stroke="midnightblue" points="214.41,-411.2 203.82,-411.56 212.32,-417.88 214.41,-411.2"/>
</g>
<!-- Node6 -->
<g id="node8" class="node">
<title>Node6</title>
<g id="a_node8"><a xlink:href="classwbt_1_1block_1_1_get_measurement.html" target="_top" xlink:title="The wbt::GetMeasurement class.">
<polygon fill="none" stroke="black" points="312.5,-411.5 312.5,-430.5 470.5,-430.5 470.5,-411.5 312.5,-411.5"/>
<text text-anchor="middle" x="391.5" y="-418.5" font-family="Helvetica,sans-Serif" font-size="10.00">wbt::block::GetMeasurement</text>
</a>
</g>
</g>
<!-- Node0&#45;&gt;Node6 -->
<g id="edge7" class="edge">
<title>Node0&#45;&gt;Node6</title>
<path fill="none" stroke="midnightblue" d="M239.73,-407.77C262.67,-409.78 288.65,-412.06 312.5,-414.15"/>
<polygon fill="midnightblue" stroke="midnightblue" points="240.02,-404.28 229.75,-406.89 239.41,-411.25 240.02,-404.28"/>
</g>
<!-- Node7 -->
<g id="node9" class="node">
<title>Node7</title>
<g id="a_node9"><a xlink:href="classwbt_1_1block_1_1_inverse_dynamics.html" target="_top" xlink:title="The wbt::InverseDynamics class.">
<polygon fill="none" stroke="black" points="312.5,-373.5 312.5,-392.5 470.5,-392.5 470.5,-373.5 312.5,-373.5"/>
<text text-anchor="middle" x="391.5" y="-380.5" font-family="Helvetica,sans-Serif" font-size="10.00">wbt::block::InverseDynamics</text>
</a>
</g>
</g>
<!-- Node0&#45;&gt;Node7 -->
<g id="edge8" class="edge">
<title>Node0&#45;&gt;Node7</title>
<path fill="none" stroke="midnightblue" d="M239.73,-396.23C262.67,-394.22 288.65,-391.94 312.5,-389.85"/>
<polygon fill="midnightblue" stroke="midnightblue" points="239.41,-392.75 229.75,-397.11 240.02,-399.72 239.41,-392.75"/>
</g>
<!-- Node8 -->
<g id="node10" class="node">
<title>Node8</title>
<g id="a_node10"><a xlink:href="classwbt_1_1block_1_1_jacobian.html" target="_top" xlink:title="The wbt::Jacobian class.">
<polygon fill="none" stroke="black" points="334.5,-335.5 334.5,-354.5 448.5,-354.5 448.5,-335.5 334.5,-335.5"/>
<text text-anchor="middle" x="391.5" y="-342.5" font-family="Helvetica,sans-Serif" font-size="10.00">wbt::block::Jacobian</text>
</a>
</g>
</g>
<!-- Node0&#45;&gt;Node8 -->
<g id="edge9" class="edge">
<title>Node0&#45;&gt;Node8</title>
<path fill="none" stroke="midnightblue" d="M239.43,-390.87C248.47,-388.64 257.55,-386.03 266,-383 283.03,-376.89 285,-370.18 302,-364 312.34,-360.24 323.64,-357.12 334.61,-354.57"/>
<polygon fill="midnightblue" stroke="midnightblue" points="238.62,-387.46 229.67,-393.13 240.2,-394.28 238.62,-387.46"/>
</g>
<!-- Node9 -->
<g id="node11" class="node">
<title>Node9</title>
<g id="a_node11"><a xlink:href="classwbt_1_1block_1_1_mass_matrix.html" target="_top" xlink:title="The wbt::MassMatrix class.">
<polygon fill="none" stroke="black" points="326.5,-297.5 326.5,-316.5 456.5,-316.5 456.5,-297.5 326.5,-297.5"/>
<text text-anchor="middle" x="391.5" y="-304.5" font-family="Helvetica,sans-Serif" font-size="10.00">wbt::block::MassMatrix</text>
</a>
</g>
</g>
<!-- Node0&#45;&gt;Node9 -->
<g id="edge10" class="edge">
<title>Node0&#45;&gt;Node9</title>
<path fill="none" stroke="midnightblue" d="M239.71,-395.24C249.05,-392.39 258.14,-388.44 266,-383 290.63,-365.94 277.43,-343.15 302,-326 309.22,-320.96 317.51,-317.22 326.06,-314.45"/>
<polygon fill="midnightblue" stroke="midnightblue" points="238.7,-391.89 229.93,-397.83 240.49,-398.65 238.7,-391.89"/>
</g>
<!-- Node10 -->
<g id="node12" class="node">
<title>Node10</title>
<g id="a_node12"><a xlink:href="classwbt_1_1block_1_1_relative_transform.html" target="_top" xlink:title="The wbt::RelativeTransform class.">
<polygon fill="none" stroke="black" points="310.5,-259.5 310.5,-278.5 472.5,-278.5 472.5,-259.5 310.5,-259.5"/>
<text text-anchor="middle" x="391.5" y="-266.5" font-family="Helvetica,sans-Serif" font-size="10.00">wbt::block::RelativeTransform</text>
</a>
</g>
</g>
<!-- Node0&#45;&gt;Node10 -->
<g id="edge11" class="edge">
<title>Node0&#45;&gt;Node10</title>
<path fill="none" stroke="midnightblue" d="M239.41,-397.03C249.09,-393.99 258.37,-389.51 266,-383 300.36,-353.7 267.76,-317.43 302,-288 306.41,-284.21 311.39,-281.12 316.69,-278.6"/>
<polygon fill="midnightblue" stroke="midnightblue" points="238.4,-393.68 229.63,-399.63 240.19,-400.45 238.4,-393.68"/>
</g>
<!-- Node11 -->
<g id="node13" class="node">
<title>Node11</title>
<g id="a_node13"><a xlink:href="classwbt_1_1block_1_1_set_motor_parameters.html" target="_top" xlink:title="The wbt::SetMotorParameters class.">
<polygon fill="none" stroke="black" points="305,-221.5 305,-240.5 478,-240.5 478,-221.5 305,-221.5"/>
<text text-anchor="middle" x="391.5" y="-228.5" font-family="Helvetica,sans-Serif" font-size="10.00">wbt::block::SetMotorParameters</text>
</a>
</g>
</g>
<!-- Node0&#45;&gt;Node11 -->
<g id="edge12" class="edge">
<title>Node0&#45;&gt;Node11</title>
<path fill="none" stroke="midnightblue" d="M239.62,-397.78C249.37,-394.66 258.61,-389.96 266,-383 310.6,-341.03 257.57,-292.14 302,-250 305.99,-246.21 310.54,-243.11 315.43,-240.57"/>
<polygon fill="midnightblue" stroke="midnightblue" points="238.52,-394.45 229.75,-400.41 240.32,-401.22 238.52,-394.45"/>
</g>
<!-- Node12 -->
<g id="node14" class="node">
<title>Node12</title>
<g id="a_node14"><a xlink:href="classwbt_1_1block_1_1_set_references.html" target="_top" xlink:title="The wbt::SetReferences class.">
<polygon fill="none" stroke="black" points="320,-183.5 320,-202.5 463,-202.5 463,-183.5 320,-183.5"/>
<text text-anchor="middle" x="391.5" y="-190.5" font-family="Helvetica,sans-Serif" font-size="10.00">wbt::block::SetReferences</text>
</a>
</g>
</g>
<!-- Node0&#45;&gt;Node12 -->
<g id="edge13" class="edge">
<title>Node0&#45;&gt;Node12</title>
<path fill="none" stroke="midnightblue" d="M239.61,-398.25C249.45,-395.08 258.72,-390.25 266,-383 321.02,-328.19 247.19,-267.03 302,-212 307.1,-206.88 313.23,-202.98 319.84,-200.04"/>
<polygon fill="midnightblue" stroke="midnightblue" points="238.41,-394.95 229.64,-400.89 240.2,-401.72 238.41,-394.95"/>
</g>
</g>
</svg>
