<?xml version="1.0" encoding="UTF-8" standalone="no"?>
<!DOCTYPE svg PUBLIC "-//W3C//DTD SVG 1.1//EN"
 "http://www.w3.org/Graphics/SVG/1.1/DTD/svg11.dtd">
<!-- Generated by graphviz version 2.43.0 (0)
 -->
<!-- Title: /home/runner/work/wb&#45;toolbox/wb&#45;toolbox/toolbox/library/src/CentroidalTotalMomentumMatrix.cpp Pages: 1 -->
<svg width="2319pt" height="240pt"
 viewBox="0.00 0.00 2318.60 240.00" xmlns="http://www.w3.org/2000/svg" xmlns:xlink="http://www.w3.org/1999/xlink">
<g id="graph0" class="graph" transform="scale(1 1) rotate(0) translate(4 236)">
<title>/home/runner/work/wb&#45;toolbox/wb&#45;toolbox/toolbox/library/src/CentroidalTotalMomentumMatrix.cpp</title>
<!-- Node1 -->
<g id="node1" class="node">
<title>Node1</title>
<g id="a_node1"><a xlink:title=" ">
<polygon fill="#bfbfbf" stroke="black" points="1142.6,-179.5 1142.6,-231.5 1343.6,-231.5 1343.6,-179.5 1142.6,-179.5"/>
<text text-anchor="start" x="1150.6" y="-219.5" font-family="Helvetica,sans-Serif" font-size="10.00">/home/runner/work/wb</text>
<text text-anchor="start" x="1150.6" y="-208.5" font-family="Helvetica,sans-Serif" font-size="10.00">&#45;toolbox/wb&#45;toolbox/toolbox</text>
<text text-anchor="start" x="1150.6" y="-197.5" font-family="Helvetica,sans-Serif" font-size="10.00">/library/src/CentroidalTotalMomentum</text>
<text text-anchor="middle" x="1243.1" y="-186.5" font-family="Helvetica,sans-Serif" font-size="10.00">Matrix.cpp</text>
</a>
</g>
</g>
<!-- Node2 -->
<g id="node2" class="node">
<title>Node2</title>
<g id="a_node2"><a xlink:href="_centroidal_total_momentum_matrix_8h.html" target="_top" xlink:title=" ">
<polygon fill="none" stroke="black" points="152.1,-112.5 152.1,-142.5 306.1,-142.5 306.1,-112.5 152.1,-112.5"/>
<text text-anchor="start" x="160.1" y="-130.5" font-family="Helvetica,sans-Serif" font-size="10.00">WBToolbox/Block/Centroidal</text>
<text text-anchor="middle" x="229.1" y="-119.5" font-family="Helvetica,sans-Serif" font-size="10.00">TotalMomentumMatrix.h</text>
</a>
</g>
</g>
<!-- Node1&#45;&gt;Node2 -->
<g id="edge1" class="edge">
<title>Node1&#45;&gt;Node2</title>
<path fill="none" stroke="midnightblue" d="M1142.4,-199.4C976.29,-190.59 634.52,-170.74 346.1,-143 336.4,-142.07 326.26,-140.98 316.17,-139.83"/>
<polygon fill="midnightblue" stroke="midnightblue" points="316.47,-136.34 306.13,-138.66 315.66,-143.29 316.47,-136.34"/>
</g>
<!-- Node5 -->
<g id="node5" class="node">
<title>Node5</title>
<g id="a_node5"><a xlink:title=" ">
<polygon fill="none" stroke="#bfbfbf" points="194.1,-0.5 194.1,-19.5 252.1,-19.5 252.1,-0.5 194.1,-0.5"/>
<text text-anchor="middle" x="223.1" y="-7.5" font-family="Helvetica,sans-Serif" font-size="10.00">memory</text>
</a>
</g>
</g>
<!-- Node1&#45;&gt;Node5 -->
<g id="edge29" class="edge">
<title>Node1&#45;&gt;Node5</title>
<path fill="none" stroke="midnightblue" d="M1142.53,-204.72C907.6,-204.31 328.66,-197.59 143.1,-143 85.24,-125.98 55.44,-128.12 25.1,-76 -25.01,10.08 -11.09,-62.03 183.7,-20.02"/>
<polygon fill="midnightblue" stroke="midnightblue" points="184.71,-23.38 193.72,-17.79 183.19,-16.55 184.71,-23.38"/>
</g>
<!-- Node7 -->
<g id="node7" class="node">
<title>Node7</title>
<g id="a_node7"><a xlink:href="_configuration_8h.html" target="_top" xlink:title=" ">
<polygon fill="none" stroke="black" points="482.6,-56.5 482.6,-75.5 657.6,-75.5 657.6,-56.5 482.6,-56.5"/>
<text text-anchor="middle" x="570.1" y="-63.5" font-family="Helvetica,sans-Serif" font-size="10.00">WBToolbox/Base/Configuration.h</text>
</a>
</g>
</g>
<!-- Node1&#45;&gt;Node7 -->
<g id="edge8" class="edge">
<title>Node1&#45;&gt;Node7</title>
<path fill="none" stroke="midnightblue" d="M1142.57,-204.49C933.16,-203.43 465.53,-195.17 417.1,-143 385.9,-109.39 448.21,-88.65 502.45,-77.5"/>
<polygon fill="midnightblue" stroke="midnightblue" points="503.32,-80.9 512.46,-75.53 501.97,-74.03 503.32,-80.9"/>
</g>
<!-- Node10 -->
<g id="node10" class="node">
<title>Node10</title>
<g id="a_node10"><a xlink:href="_robot_interface_8h.html" target="_top" xlink:title=" ">
<polygon fill="none" stroke="black" points="282.1,-56.5 282.1,-75.5 464.1,-75.5 464.1,-56.5 282.1,-56.5"/>
<text text-anchor="middle" x="373.1" y="-63.5" font-family="Helvetica,sans-Serif" font-size="10.00">WBToolbox/Base/RobotInterface.h</text>
</a>
</g>
</g>
<!-- Node1&#45;&gt;Node10 -->
<g id="edge13" class="edge">
<title>Node1&#45;&gt;Node10</title>
<path fill="none" stroke="midnightblue" d="M1142.42,-203C932.5,-199.05 462.59,-185.5 404.1,-143 385.86,-129.74 378.32,-103.84 375.23,-85.98"/>
<polygon fill="midnightblue" stroke="midnightblue" points="378.66,-85.27 373.79,-75.86 371.73,-86.25 378.66,-85.27"/>
</g>
<!-- Node13 -->
<g id="node13" class="node">
<title>Node13</title>
<g id="a_node13"><a xlink:title=" ">
<polygon fill="none" stroke="#bfbfbf" points="426.1,-118 426.1,-137 626.1,-137 626.1,-118 426.1,-118"/>
<text text-anchor="middle" x="526.1" y="-125" font-family="Helvetica,sans-Serif" font-size="10.00">BlockFactory/Core/BlockInformation.h</text>
</a>
</g>
</g>
<!-- Node1&#45;&gt;Node13 -->
<g id="edge18" class="edge">
<title>Node1&#45;&gt;Node13</title>
<path fill="none" stroke="midnightblue" d="M1142.41,-195.29C1021.73,-184.03 813.45,-163.88 635.1,-143 622.91,-141.57 609.96,-139.95 597.41,-138.31"/>
<polygon fill="midnightblue" stroke="midnightblue" points="597.82,-134.84 587.45,-137.01 596.91,-141.78 597.82,-134.84"/>
</g>
<!-- Node14 -->
<g id="node14" class="node">
<title>Node14</title>
<g id="a_node14"><a xlink:title=" ">
<polygon fill="none" stroke="#bfbfbf" points="644.1,-118 644.1,-137 778.1,-137 778.1,-118 644.1,-118"/>
<text text-anchor="middle" x="711.1" y="-125" font-family="Helvetica,sans-Serif" font-size="10.00">BlockFactory/Core/Log.h</text>
</a>
</g>
</g>
<!-- Node1&#45;&gt;Node14 -->
<g id="edge19" class="edge">
<title>Node1&#45;&gt;Node14</title>
<path fill="none" stroke="midnightblue" d="M1142.34,-192.51C1049.79,-181.12 908.92,-162.82 787.1,-143 779.46,-141.76 771.4,-140.34 763.51,-138.89"/>
<polygon fill="midnightblue" stroke="midnightblue" points="764.11,-135.44 753.64,-137.04 762.82,-142.32 764.11,-135.44"/>
</g>
<!-- Node15 -->
<g id="node15" class="node">
<title>Node15</title>
<g id="a_node15"><a xlink:title=" ">
<polygon fill="none" stroke="#bfbfbf" points="796.1,-118 796.1,-137 962.1,-137 962.1,-118 796.1,-118"/>
<text text-anchor="middle" x="879.1" y="-125" font-family="Helvetica,sans-Serif" font-size="10.00">BlockFactory/Core/Parameter.h</text>
</a>
</g>
</g>
<!-- Node1&#45;&gt;Node15 -->
<g id="edge20" class="edge">
<title>Node1&#45;&gt;Node15</title>
<path fill="none" stroke="midnightblue" d="M1142.19,-183.43C1073.26,-169.04 984.83,-150.57 930.07,-139.14"/>
<polygon fill="midnightblue" stroke="midnightblue" points="930.75,-135.71 920.25,-137.09 929.32,-142.56 930.75,-135.71"/>
</g>
<!-- Node16 -->
<g id="node16" class="node">
<title>Node16</title>
<g id="a_node16"><a xlink:title=" ">
<polygon fill="none" stroke="#bfbfbf" points="980.1,-118 980.1,-137 1152.1,-137 1152.1,-118 980.1,-118"/>
<text text-anchor="middle" x="1066.1" y="-125" font-family="Helvetica,sans-Serif" font-size="10.00">BlockFactory/Core/Parameters.h</text>
</a>
</g>
</g>
<!-- Node1&#45;&gt;Node16 -->
<g id="edge21" class="edge">
<title>Node1&#45;&gt;Node16</title>
<path fill="none" stroke="midnightblue" d="M1184.65,-179.4C1154.74,-166.56 1119.63,-151.48 1095.42,-141.09"/>
<polygon fill="midnightblue" stroke="midnightblue" points="1096.65,-137.81 1086.08,-137.08 1093.89,-144.24 1096.65,-137.81"/>
</g>
<!-- Node17 -->
<g id="node17" class="node">
<title>Node17</title>
<g id="a_node17"><a xlink:title=" ">
<polygon fill="none" stroke="#bfbfbf" points="1170.1,-118 1170.1,-137 1316.1,-137 1316.1,-118 1170.1,-118"/>
<text text-anchor="middle" x="1243.1" y="-125" font-family="Helvetica,sans-Serif" font-size="10.00">BlockFactory/Core/Signal.h</text>
</a>
</g>
</g>
<!-- Node1&#45;&gt;Node17 -->
<g id="edge22" class="edge">
<title>Node1&#45;&gt;Node17</title>
<path fill="none" stroke="midnightblue" d="M1243.1,-179.19C1243.1,-168.76 1243.1,-156.9 1243.1,-147.27"/>
<polygon fill="midnightblue" stroke="midnightblue" points="1246.6,-147.21 1243.1,-137.21 1239.6,-147.21 1246.6,-147.21"/>
</g>
<!-- Node18 -->
<g id="node18" class="node">
<title>Node18</title>
<g id="a_node18"><a xlink:title=" ">
<polygon fill="none" stroke="#bfbfbf" points="1334.6,-118 1334.6,-137 1403.6,-137 1403.6,-118 1334.6,-118"/>
<text text-anchor="middle" x="1369.1" y="-125" font-family="Helvetica,sans-Serif" font-size="10.00">Eigen/Core</text>
</a>
</g>
</g>
<!-- Node1&#45;&gt;Node18 -->
<g id="edge23" class="edge">
<title>Node1&#45;&gt;Node18</title>
<path fill="none" stroke="midnightblue" d="M1284.71,-179.4C1305.15,-167.07 1329,-152.69 1346.12,-142.36"/>
<polygon fill="midnightblue" stroke="midnightblue" points="1348.12,-145.24 1354.88,-137.08 1344.51,-139.25 1348.12,-145.24"/>
</g>
<!-- Node19 -->
<g id="node19" class="node">
<title>Node19</title>
<g id="a_node19"><a xlink:title=" ">
<polygon fill="none" stroke="#bfbfbf" points="1422.1,-118 1422.1,-137 1558.1,-137 1558.1,-118 1422.1,-118"/>
<text text-anchor="middle" x="1490.1" y="-125" font-family="Helvetica,sans-Serif" font-size="10.00">iDynTree/EigenHelpers.h</text>
</a>
</g>
</g>
<!-- Node1&#45;&gt;Node19 -->
<g id="edge24" class="edge">
<title>Node1&#45;&gt;Node19</title>
<path fill="none" stroke="midnightblue" d="M1324.66,-179.4C1367.7,-166.16 1418.46,-150.54 1452.29,-140.13"/>
<polygon fill="midnightblue" stroke="midnightblue" points="1453.69,-143.36 1462.22,-137.08 1451.64,-136.67 1453.69,-143.36"/>
</g>
<!-- Node20 -->
<g id="node20" class="node">
<title>Node20</title>
<g id="a_node20"><a xlink:title=" ">
<polygon fill="none" stroke="#bfbfbf" points="1576.6,-118 1576.6,-137 1719.6,-137 1719.6,-118 1576.6,-118"/>
<text text-anchor="middle" x="1648.1" y="-125" font-family="Helvetica,sans-Serif" font-size="10.00">iDynTree/MatrixDynSize.h</text>
</a>
</g>
</g>
<!-- Node1&#45;&gt;Node20 -->
<g id="edge25" class="edge">
<title>Node1&#45;&gt;Node20</title>
<path fill="none" stroke="midnightblue" d="M1343.73,-185.62C1422.45,-170.84 1528.94,-150.86 1592.85,-138.87"/>
<polygon fill="midnightblue" stroke="midnightblue" points="1593.54,-142.3 1602.73,-137.01 1592.25,-135.42 1593.54,-142.3"/>
</g>
<!-- Node21 -->
<g id="node21" class="node">
<title>Node21</title>
<g id="a_node21"><a xlink:title=" ">
<polygon fill="none" stroke="#bfbfbf" points="1738.1,-118 1738.1,-137 1858.1,-137 1858.1,-118 1738.1,-118"/>
<text text-anchor="middle" x="1798.1" y="-125" font-family="Helvetica,sans-Serif" font-size="10.00">iDynTree/Transform.h</text>
</a>
</g>
</g>
<!-- Node1&#45;&gt;Node21 -->
<g id="edge26" class="edge">
<title>Node1&#45;&gt;Node21</title>
<path fill="none" stroke="midnightblue" d="M1343.98,-194.15C1442.51,-183.48 1596.58,-165.27 1729.1,-143 1735.91,-141.86 1743.08,-140.51 1750.1,-139.11"/>
<polygon fill="midnightblue" stroke="midnightblue" points="1751.15,-142.47 1760.24,-137.03 1749.75,-135.61 1751.15,-142.47"/>
</g>
<!-- Node22 -->
<g id="node22" class="node">
<title>Node22</title>
<g id="a_node22"><a xlink:title=" ">
<polygon fill="none" stroke="#bfbfbf" points="1876.6,-118 1876.6,-137 2051.6,-137 2051.6,-118 1876.6,-118"/>
<text text-anchor="middle" x="1964.1" y="-125" font-family="Helvetica,sans-Serif" font-size="10.00">iDynTree/KinDynComputations.h</text>
</a>
</g>
</g>
<!-- Node1&#45;&gt;Node22 -->
<g id="edge27" class="edge">
<title>Node1&#45;&gt;Node22</title>
<path fill="none" stroke="midnightblue" d="M1343.78,-196.14C1467.27,-185.53 1682.91,-165.83 1867.1,-143 1877.84,-141.67 1889.22,-140.11 1900.27,-138.51"/>
<polygon fill="midnightblue" stroke="midnightblue" points="1900.91,-141.95 1910.29,-137.03 1899.89,-135.02 1900.91,-141.95"/>
</g>
<!-- Node23 -->
<g id="node23" class="node">
<title>Node23</title>
<g id="a_node23"><a xlink:title=" ">
<polygon fill="none" stroke="#bfbfbf" points="2070.1,-118 2070.1,-137 2176.1,-137 2176.1,-118 2070.1,-118"/>
<text text-anchor="middle" x="2123.1" y="-125" font-family="Helvetica,sans-Serif" font-size="10.00">iDynTree/Indices.h</text>
</a>
</g>
</g>
<!-- Node1&#45;&gt;Node23 -->
<g id="edge28" class="edge">
<title>Node1&#45;&gt;Node23</title>
<path fill="none" stroke="midnightblue" d="M1343.78,-201.94C1498.71,-196.87 1804.56,-182.4 2061.1,-143 2067.48,-142.02 2074.18,-140.73 2080.72,-139.33"/>
<polygon fill="midnightblue" stroke="midnightblue" points="2081.8,-142.67 2090.79,-137.05 2080.26,-135.84 2081.8,-142.67"/>
</g>
<!-- Node24 -->
<g id="node24" class="node">
<title>Node24</title>
<g id="a_node24"><a xlink:title=" ">
<polygon fill="none" stroke="#bfbfbf" points="2194.6,-118 2194.6,-137 2251.6,-137 2251.6,-118 2194.6,-118"/>
<text text-anchor="middle" x="2223.1" y="-125" font-family="Helvetica,sans-Serif" font-size="10.00">ostream</text>
</a>
</g>
</g>
<!-- Node1&#45;&gt;Node24 -->
<g id="edge30" class="edge">
<title>Node1&#45;&gt;Node24</title>
<path fill="none" stroke="midnightblue" d="M1343.82,-201.73C1552.77,-195.35 2027.08,-177.48 2185.1,-143 2188.17,-142.33 2191.33,-141.45 2194.45,-140.46"/>
<polygon fill="midnightblue" stroke="midnightblue" points="2195.86,-143.67 2204.11,-137.02 2193.52,-137.08 2195.86,-143.67"/>
</g>
<!-- Node25 -->
<g id="node25" class="node">
<title>Node25</title>
<g id="a_node25"><a xlink:title=" ">
<polygon fill="none" stroke="#bfbfbf" points="2269.6,-118 2269.6,-137 2310.6,-137 2310.6,-118 2269.6,-118"/>
<text text-anchor="middle" x="2290.1" y="-125" font-family="Helvetica,sans-Serif" font-size="10.00">tuple</text>
</a>
</g>
</g>
<!-- Node1&#45;&gt;Node25 -->
<g id="edge31" class="edge">
<title>Node1&#45;&gt;Node25</title>
<path fill="none" stroke="midnightblue" d="M1343.79,-203.54C1565.6,-200.59 2090.19,-188.83 2261.1,-143 2262.82,-142.54 2264.56,-141.97 2266.28,-141.33"/>
<polygon fill="midnightblue" stroke="midnightblue" points="2268.1,-144.35 2275.8,-137.08 2265.24,-137.96 2268.1,-144.35"/>
</g>
<!-- Node3 -->
<g id="node3" class="node">
<title>Node3</title>
<g id="a_node3"><a xlink:href="_w_b_block_8h.html" target="_top" xlink:title=" ">
<polygon fill="none" stroke="black" points="34.6,-56.5 34.6,-75.5 187.6,-75.5 187.6,-56.5 34.6,-56.5"/>
<text text-anchor="middle" x="111.1" y="-63.5" font-family="Helvetica,sans-Serif" font-size="10.00">WBToolbox/Base/WBBlock.h</text>
</a>
</g>
</g>
<!-- Node2&#45;&gt;Node3 -->
<g id="edge2" class="edge">
<title>Node2&#45;&gt;Node3</title>
<path fill="none" stroke="midnightblue" d="M201.14,-112.4C181.78,-102.64 156.19,-89.74 137.24,-80.18"/>
<polygon fill="midnightblue" stroke="midnightblue" points="138.78,-77.04 128.27,-75.66 135.62,-83.29 138.78,-77.04"/>
</g>
<!-- Node2&#45;&gt;Node5 -->
<g id="edge6" class="edge">
<title>Node2&#45;&gt;Node5</title>
<path fill="none" stroke="midnightblue" d="M228.36,-112.34C227.29,-91.62 225.28,-53.02 224.08,-29.9"/>
<polygon fill="midnightblue" stroke="midnightblue" points="227.56,-29.47 223.55,-19.67 220.57,-29.84 227.56,-29.47"/>
</g>
<!-- Node6 -->
<g id="node6" class="node">
<title>Node6</title>
<g id="a_node6"><a xlink:title=" ">
<polygon fill="none" stroke="#bfbfbf" points="275.1,-0.5 275.1,-19.5 319.1,-19.5 319.1,-0.5 275.1,-0.5"/>
<text text-anchor="middle" x="297.1" y="-7.5" font-family="Helvetica,sans-Serif" font-size="10.00">string</text>
</a>
</g>
</g>
<!-- Node2&#45;&gt;Node6 -->
<g id="edge7" class="edge">
<title>Node2&#45;&gt;Node6</title>
<path fill="none" stroke="midnightblue" d="M237.44,-112.34C249.91,-91.15 273.41,-51.24 286.89,-28.34"/>
<polygon fill="midnightblue" stroke="midnightblue" points="289.94,-30.06 292,-19.67 283.91,-26.51 289.94,-30.06"/>
</g>
<!-- Node4 -->
<g id="node4" class="node">
<title>Node4</title>
<g id="a_node4"><a xlink:title=" ">
<polygon fill="none" stroke="#bfbfbf" points="32.6,-0.5 32.6,-19.5 175.6,-19.5 175.6,-0.5 32.6,-0.5"/>
<text text-anchor="middle" x="104.1" y="-7.5" font-family="Helvetica,sans-Serif" font-size="10.00">BlockFactory/Core/Block.h</text>
</a>
</g>
</g>
<!-- Node3&#45;&gt;Node4 -->
<g id="edge3" class="edge">
<title>Node3&#45;&gt;Node4</title>
<path fill="none" stroke="midnightblue" d="M109.94,-56.08C109.02,-48.93 107.68,-38.64 106.52,-29.69"/>
<polygon fill="midnightblue" stroke="midnightblue" points="109.99,-29.22 105.23,-19.75 103.05,-30.12 109.99,-29.22"/>
</g>
<!-- Node3&#45;&gt;Node5 -->
<g id="edge4" class="edge">
<title>Node3&#45;&gt;Node5</title>
<path fill="none" stroke="midnightblue" d="M129.1,-56.32C147.14,-47.62 175.15,-34.12 195.9,-24.11"/>
<polygon fill="midnightblue" stroke="midnightblue" points="197.66,-27.15 205.15,-19.65 194.62,-20.84 197.66,-27.15"/>
</g>
<!-- Node3&#45;&gt;Node6 -->
<g id="edge5" class="edge">
<title>Node3&#45;&gt;Node6</title>
<path fill="none" stroke="midnightblue" d="M140.57,-56.44C174.6,-46.56 230.37,-30.37 265.34,-20.22"/>
<polygon fill="midnightblue" stroke="midnightblue" points="266.42,-23.55 275.05,-17.4 264.47,-16.83 266.42,-23.55"/>
</g>
<!-- Node7&#45;&gt;Node5 -->
<g id="edge10" class="edge">
<title>Node7&#45;&gt;Node5</title>
<path fill="none" stroke="midnightblue" d="M504.69,-56.46C443,-48.14 348.04,-34.63 266.1,-20 264.83,-19.77 263.55,-19.54 262.25,-19.3"/>
<polygon fill="midnightblue" stroke="midnightblue" points="262.68,-15.82 252.2,-17.33 261.34,-22.69 262.68,-15.82"/>
</g>
<!-- Node7&#45;&gt;Node6 -->
<g id="edge11" class="edge">
<title>Node7&#45;&gt;Node6</title>
<path fill="none" stroke="midnightblue" d="M519.06,-56.5C470.52,-48.15 395.55,-34.58 331.1,-20 330.5,-19.87 329.9,-19.73 329.3,-19.59"/>
<polygon fill="midnightblue" stroke="midnightblue" points="329.9,-16.13 319.36,-17.14 328.23,-22.93 329.9,-16.13"/>
</g>
<!-- Node8 -->
<g id="node8" class="node">
<title>Node8</title>
<g id="a_node8"><a xlink:title=" ">
<polygon fill="none" stroke="#bfbfbf" points="592.1,-0.5 592.1,-19.5 634.1,-19.5 634.1,-0.5 592.1,-0.5"/>
<text text-anchor="middle" x="613.1" y="-7.5" font-family="Helvetica,sans-Serif" font-size="10.00">array</text>
</a>
</g>
</g>
<!-- Node7&#45;&gt;Node8 -->
<g id="edge9" class="edge">
<title>Node7&#45;&gt;Node8</title>
<path fill="none" stroke="midnightblue" d="M577.2,-56.08C583.34,-48.38 592.37,-37.03 599.84,-27.65"/>
<polygon fill="midnightblue" stroke="midnightblue" points="602.64,-29.75 606.13,-19.75 597.16,-25.39 602.64,-29.75"/>
</g>
<!-- Node9 -->
<g id="node9" class="node">
<title>Node9</title>
<g id="a_node9"><a xlink:title=" ">
<polygon fill="none" stroke="#bfbfbf" points="526.6,-0.5 526.6,-19.5 573.6,-19.5 573.6,-0.5 526.6,-0.5"/>
<text text-anchor="middle" x="550.1" y="-7.5" font-family="Helvetica,sans-Serif" font-size="10.00">vector</text>
</a>
</g>
</g>
<!-- Node7&#45;&gt;Node9 -->
<g id="edge12" class="edge">
<title>Node7&#45;&gt;Node9</title>
<path fill="none" stroke="midnightblue" d="M566.8,-56.08C564.12,-48.85 560.25,-38.41 556.91,-29.4"/>
<polygon fill="midnightblue" stroke="midnightblue" points="560.1,-27.91 553.34,-19.75 553.53,-30.34 560.1,-27.91"/>
</g>
<!-- Node10&#45;&gt;Node5 -->
<g id="edge14" class="edge">
<title>Node10&#45;&gt;Node5</title>
<path fill="none" stroke="midnightblue" d="M349.33,-56.44C324.21,-47.4 284.39,-33.06 256.2,-22.92"/>
<polygon fill="midnightblue" stroke="midnightblue" points="257.35,-19.61 246.76,-19.52 254.98,-26.2 257.35,-19.61"/>
</g>
<!-- Node10&#45;&gt;Node6 -->
<g id="edge15" class="edge">
<title>Node10&#45;&gt;Node6</title>
<path fill="none" stroke="midnightblue" d="M360.89,-56.32C349.32,-48.11 331.73,-35.6 317.94,-25.81"/>
<polygon fill="midnightblue" stroke="midnightblue" points="319.71,-22.77 309.53,-19.83 315.66,-28.48 319.71,-22.77"/>
</g>
<!-- Node11 -->
<g id="node11" class="node">
<title>Node11</title>
<g id="a_node11"><a xlink:title=" ">
<polygon fill="none" stroke="#bfbfbf" points="403.6,-0.5 403.6,-19.5 496.6,-19.5 496.6,-0.5 403.6,-0.5"/>
<text text-anchor="middle" x="450.1" y="-7.5" font-family="Helvetica,sans-Serif" font-size="10.00">unordered_map</text>
</a>
</g>
</g>
<!-- Node10&#45;&gt;Node11 -->
<g id="edge16" class="edge">
<title>Node10&#45;&gt;Node11</title>
<path fill="none" stroke="midnightblue" d="M385.47,-56.32C397.26,-48.06 415.23,-35.45 429.24,-25.63"/>
<polygon fill="midnightblue" stroke="midnightblue" points="431.58,-28.26 437.76,-19.65 427.56,-22.53 431.58,-28.26"/>
</g>
<!-- Node12 -->
<g id="node12" class="node">
<title>Node12</title>
<g id="a_node12"><a xlink:title=" ">
<polygon fill="none" stroke="#bfbfbf" points="340.6,-0.5 340.6,-19.5 385.6,-19.5 385.6,-0.5 340.6,-0.5"/>
<text text-anchor="middle" x="363.1" y="-7.5" font-family="Helvetica,sans-Serif" font-size="10.00">utility</text>
</a>
</g>
</g>
<!-- Node10&#45;&gt;Node12 -->
<g id="edge17" class="edge">
<title>Node10&#45;&gt;Node12</title>
<path fill="none" stroke="midnightblue" d="M371.45,-56.08C370.12,-48.93 368.22,-38.64 366.56,-29.69"/>
<polygon fill="midnightblue" stroke="midnightblue" points="369.98,-28.95 364.72,-19.75 363.1,-30.22 369.98,-28.95"/>
</g>
</g>
</svg>
