<?xml version="1.0" encoding="UTF-8" standalone="no"?>
<!DOCTYPE svg PUBLIC "-//W3C//DTD SVG 1.1//EN"
 "http://www.w3.org/Graphics/SVG/1.1/DTD/svg11.dtd">
<!-- Generated by graphviz version 2.36.0 (20140111.2315)
 -->
<!-- Title: /home/travis/build/robotology/wb&#45;toolbox/toolbox/autogenerated/include/thrift/ClockServer.h Pages: 1 -->
<svg width="226pt" height="118pt"
 viewBox="0.00 0.00 226.00 118.00" xmlns="http://www.w3.org/2000/svg" xmlns:xlink="http://www.w3.org/1999/xlink">
<g id="graph0" class="graph" transform="scale(1 1) rotate(0) translate(4 114)">
<title>/home/travis/build/robotology/wb&#45;toolbox/toolbox/autogenerated/include/thrift/ClockServer.h</title>
<!-- Node1 -->
<g id="node1" class="node"><title>Node1</title>
<polygon fill="#bfbfbf" stroke="black" points="30,-57 30,-109 168,-109 168,-57 30,-57"/>
<text text-anchor="start" x="38" y="-97" font-family="Helvetica,sans-Serif" font-size="10.00">/home/travis/build</text>
<text text-anchor="start" x="38" y="-86" font-family="Helvetica,sans-Serif" font-size="10.00">/robotology/wb&#45;toolbox</text>
<text text-anchor="start" x="38" y="-75" font-family="Helvetica,sans-Serif" font-size="10.00">/toolbox/autogenerated</text>
<text text-anchor="middle" x="99" y="-64" font-family="Helvetica,sans-Serif" font-size="10.00">/include/thrift/ClockServer.h</text>
</g>
<!-- Node2 -->
<g id="node2" class="node"><title>Node2</title>
<polygon fill="none" stroke="#bfbfbf" points="0,-0.5 0,-19.5 80,-19.5 80,-0.5 0,-0.5"/>
<text text-anchor="middle" x="40" y="-7.5" font-family="Helvetica,sans-Serif" font-size="10.00">yarp/os/Wire.h</text>
</g>
<!-- Node1&#45;&gt;Node2 -->
<g id="edge1" class="edge"><title>Node1&#45;&gt;Node2</title>
<path fill="none" stroke="midnightblue" d="M78.0327,-56.7681C69.9841,-47.0826 61.0084,-36.2813 53.7985,-27.605"/>
<polygon fill="midnightblue" stroke="midnightblue" points="56.3602,-25.2113 47.2771,-19.7572 50.9764,-29.6852 56.3602,-25.2113"/>
</g>
<!-- Node3 -->
<g id="node3" class="node"><title>Node3</title>
<polygon fill="none" stroke="#bfbfbf" points="98,-0.5 98,-19.5 218,-19.5 218,-0.5 98,-0.5"/>
<text text-anchor="middle" x="158" y="-7.5" font-family="Helvetica,sans-Serif" font-size="10.00">yarp/os/idl/WireTypes.h</text>
</g>
<!-- Node1&#45;&gt;Node3 -->
<g id="edge2" class="edge"><title>Node1&#45;&gt;Node3</title>
<path fill="none" stroke="midnightblue" d="M119.967,-56.7681C128.016,-47.0826 136.992,-36.2813 144.201,-27.605"/>
<polygon fill="midnightblue" stroke="midnightblue" points="147.024,-29.6852 150.723,-19.7572 141.64,-25.2113 147.024,-29.6852"/>
</g>
</g>
</svg>
