<?xml version="1.0" encoding="UTF-8" standalone="no"?>
<!DOCTYPE svg PUBLIC "-//W3C//DTD SVG 1.1//EN"
 "http://www.w3.org/Graphics/SVG/1.1/DTD/svg11.dtd">
<!-- Generated by graphviz version 2.36.0 (20140111.2315)
 -->
<!-- Title: /home/travis/build/robotology/wb&#45;toolbox/toolbox/autogenerated/src/thrift/ClockServer.cpp Pages: 1 -->
<svg width="225pt" height="174pt"
 viewBox="0.00 0.00 225.00 174.00" xmlns="http://www.w3.org/2000/svg" xmlns:xlink="http://www.w3.org/1999/xlink">
<g id="graph0" class="graph" transform="scale(1 1) rotate(0) translate(4 170)">
<title>/home/travis/build/robotology/wb&#45;toolbox/toolbox/autogenerated/src/thrift/ClockServer.cpp</title>
<!-- Node1 -->
<g id="node1" class="node"><title>Node1</title>
<polygon fill="#bfbfbf" stroke="black" points="52.5,-113 52.5,-165 183.5,-165 183.5,-113 52.5,-113"/>
<text text-anchor="start" x="60.5" y="-153" font-family="Helvetica,sans-Serif" font-size="10.00">/home/travis/build</text>
<text text-anchor="start" x="60.5" y="-142" font-family="Helvetica,sans-Serif" font-size="10.00">/robotology/wb&#45;toolbox</text>
<text text-anchor="start" x="60.5" y="-131" font-family="Helvetica,sans-Serif" font-size="10.00">/toolbox/autogenerated</text>
<text text-anchor="middle" x="118" y="-120" font-family="Helvetica,sans-Serif" font-size="10.00">/src/thrift/ClockServer.cpp</text>
</g>
<!-- Node2 -->
<g id="node2" class="node"><title>Node2</title>
<g id="a_node2"><a xlink:href="_clock_server_8h.html" target="_top" xlink:title="thrift/ClockServer.h">
<polygon fill="none" stroke="black" points="28.5,-56.5 28.5,-75.5 129.5,-75.5 129.5,-56.5 28.5,-56.5"/>
<text text-anchor="middle" x="79" y="-63.5" font-family="Helvetica,sans-Serif" font-size="10.00">thrift/ClockServer.h</text>
</a>
</g>
</g>
<!-- Node1&#45;&gt;Node2 -->
<g id="edge1" class="edge"><title>Node1&#45;&gt;Node2</title>
<path fill="none" stroke="midnightblue" d="M104.14,-112.768C99.0417,-103.486 93.3803,-93.1794 88.7227,-84.7004"/>
<polygon fill="midnightblue" stroke="midnightblue" points="91.6924,-82.8369 83.8103,-75.7572 85.5571,-86.207 91.6924,-82.8369"/>
</g>
<!-- Node4 -->
<g id="node4" class="node"><title>Node4</title>
<polygon fill="none" stroke="#bfbfbf" points="98,-0.5 98,-19.5 218,-19.5 218,-0.5 98,-0.5"/>
<text text-anchor="middle" x="158" y="-7.5" font-family="Helvetica,sans-Serif" font-size="10.00">yarp/os/idl/WireTypes.h</text>
</g>
<!-- Node1&#45;&gt;Node4 -->
<g id="edge4" class="edge"><title>Node1&#45;&gt;Node4</title>
<path fill="none" stroke="midnightblue" d="M126.154,-112.986C129.812,-101.698 134.159,-88.1895 138,-76 142.935,-60.3402 148.41,-42.5134 152.382,-29.4948"/>
<polygon fill="midnightblue" stroke="midnightblue" points="155.756,-30.429 155.32,-19.8431 149.06,-28.3902 155.756,-30.429"/>
</g>
<!-- Node3 -->
<g id="node3" class="node"><title>Node3</title>
<polygon fill="none" stroke="#bfbfbf" points="0,-0.5 0,-19.5 80,-19.5 80,-0.5 0,-0.5"/>
<text text-anchor="middle" x="40" y="-7.5" font-family="Helvetica,sans-Serif" font-size="10.00">yarp/os/Wire.h</text>
</g>
<!-- Node2&#45;&gt;Node3 -->
<g id="edge2" class="edge"><title>Node2&#45;&gt;Node3</title>
<path fill="none" stroke="midnightblue" d="M72.5599,-56.083C67.0511,-48.4554 58.9688,-37.2645 52.235,-27.9408"/>
<polygon fill="midnightblue" stroke="midnightblue" points="55.0126,-25.8087 46.3202,-19.7511 49.3378,-29.9071 55.0126,-25.8087"/>
</g>
<!-- Node2&#45;&gt;Node4 -->
<g id="edge3" class="edge"><title>Node2&#45;&gt;Node4</title>
<path fill="none" stroke="midnightblue" d="M91.6927,-56.324C103.901,-47.979 122.578,-35.2122 137.003,-25.3524"/>
<polygon fill="midnightblue" stroke="midnightblue" points="139.058,-28.1871 145.339,-19.6545 135.108,-22.4082 139.058,-28.1871"/>
</g>
</g>
</svg>
