<?xml version="1.0" encoding="UTF-8" standalone="no"?>
<!DOCTYPE svg PUBLIC "-//W3C//DTD SVG 1.1//EN"
 "http://www.w3.org/Graphics/SVG/1.1/DTD/svg11.dtd">
<!-- Generated by graphviz version 2.36.0 (20140111.2315)
 -->
<!-- Title: /home/travis/build/robotology/wb&#45;toolbox/toolbox/include/base/Configuration.h Pages: 1 -->
<svg width="2721pt" height="398pt"
 viewBox="0.00 0.00 2721.00 398.00" xmlns="http://www.w3.org/2000/svg" xmlns:xlink="http://www.w3.org/1999/xlink">
<g id="graph0" class="graph" transform="scale(1 1) rotate(0) translate(4 394)">
<title>/home/travis/build/robotology/wb&#45;toolbox/toolbox/include/base/Configuration.h</title>
<!-- Node1 -->
<g id="node1" class="node"><title>Node1</title>
<polygon fill="#bfbfbf" stroke="black" points="1247.5,-337 1247.5,-389 1362.5,-389 1362.5,-337 1247.5,-337"/>
<text text-anchor="start" x="1255.5" y="-377" font-family="Helvetica,sans-Serif" font-size="10.00">/home/travis/build</text>
<text text-anchor="start" x="1255.5" y="-366" font-family="Helvetica,sans-Serif" font-size="10.00">/robotology/wb&#45;toolbox</text>
<text text-anchor="start" x="1255.5" y="-355" font-family="Helvetica,sans-Serif" font-size="10.00">/toolbox/include/base</text>
<text text-anchor="middle" x="1305" y="-344" font-family="Helvetica,sans-Serif" font-size="10.00">/Configuration.h</text>
</g>
<!-- Node2 -->
<g id="node2" class="node"><title>Node2</title>
<g id="a_node2"><a xlink:href="_robot_interface_8h.html" target="_top" xlink:title="/home/travis/build\l/robotology/wb&#45;toolbox\l/toolbox/include/base\l/RobotInterface.h">
<polygon fill="none" stroke="black" points="1247.5,-247 1247.5,-299 1362.5,-299 1362.5,-247 1247.5,-247"/>
<text text-anchor="start" x="1255.5" y="-287" font-family="Helvetica,sans-Serif" font-size="10.00">/home/travis/build</text>
<text text-anchor="start" x="1255.5" y="-276" font-family="Helvetica,sans-Serif" font-size="10.00">/robotology/wb&#45;toolbox</text>
<text text-anchor="start" x="1255.5" y="-265" font-family="Helvetica,sans-Serif" font-size="10.00">/toolbox/include/base</text>
<text text-anchor="middle" x="1305" y="-254" font-family="Helvetica,sans-Serif" font-size="10.00">/RobotInterface.h</text>
</a>
</g>
</g>
<!-- Node1&#45;&gt;Node2 -->
<g id="edge1" class="edge"><title>Node1&#45;&gt;Node2</title>
<path fill="none" stroke="midnightblue" d="M1305,-326.489C1305,-317.309 1305,-307.616 1305,-299.092"/>
<polygon fill="midnightblue" stroke="midnightblue" points="1301.5,-326.547 1305,-336.547 1308.5,-326.547 1301.5,-326.547"/>
</g>
<!-- Node8 -->
<g id="node8" class="node"><title>Node8</title>
<g id="a_node8"><a xlink:href="_model_partitioner_8cpp.html" target="_top" xlink:title="/home/travis/build\l/robotology/wb&#45;toolbox\l/toolbox/src/ModelPartitioner.cpp">
<polygon fill="none" stroke="black" points="1532,-84.5 1532,-125.5 1692,-125.5 1692,-84.5 1532,-84.5"/>
<text text-anchor="start" x="1540" y="-113.5" font-family="Helvetica,sans-Serif" font-size="10.00">/home/travis/build</text>
<text text-anchor="start" x="1540" y="-102.5" font-family="Helvetica,sans-Serif" font-size="10.00">/robotology/wb&#45;toolbox</text>
<text text-anchor="middle" x="1612" y="-91.5" font-family="Helvetica,sans-Serif" font-size="10.00">/toolbox/src/ModelPartitioner.cpp</text>
</a>
</g>
</g>
<!-- Node1&#45;&gt;Node8 -->
<g id="edge27" class="edge"><title>Node1&#45;&gt;Node8</title>
<path fill="none" stroke="midnightblue" d="M1372.57,-358.488C1613.5,-345.286 2420.16,-295.002 2495,-210 2507.33,-195.989 2507.73,-181.654 2495,-168 2440.9,-109.97 1899.54,-105.217 1692.21,-105.549"/>
<polygon fill="midnightblue" stroke="midnightblue" points="1372.33,-354.996 1362.54,-359.034 1372.72,-361.985 1372.33,-354.996"/>
</g>
<!-- Node11 -->
<g id="node11" class="node"><title>Node11</title>
<g id="a_node11"><a xlink:href="_w_b_block_8cpp.html" target="_top" xlink:title="/home/travis/build\l/robotology/wb&#45;toolbox\l/toolbox/src/base/WBBlock.cpp">
<polygon fill="none" stroke="black" points="-0.5,-168.5 -0.5,-209.5 154.5,-209.5 154.5,-168.5 -0.5,-168.5"/>
<text text-anchor="start" x="7.5" y="-197.5" font-family="Helvetica,sans-Serif" font-size="10.00">/home/travis/build</text>
<text text-anchor="start" x="7.5" y="-186.5" font-family="Helvetica,sans-Serif" font-size="10.00">/robotology/wb&#45;toolbox</text>
<text text-anchor="middle" x="77" y="-175.5" font-family="Helvetica,sans-Serif" font-size="10.00">/toolbox/src/base/WBBlock.cpp</text>
</a>
</g>
</g>
<!-- Node1&#45;&gt;Node11 -->
<g id="edge26" class="edge"><title>Node1&#45;&gt;Node11</title>
<path fill="none" stroke="midnightblue" d="M1237.38,-360.8C1012.06,-356.445 295.549,-339.595 200,-300 153.421,-280.698 112.751,-235.944 91.8815,-209.858"/>
<polygon fill="midnightblue" stroke="midnightblue" points="1237.36,-364.3 1247.42,-360.992 1237.49,-357.301 1237.36,-364.3"/>
</g>
<!-- Node22 -->
<g id="node22" class="node"><title>Node22</title>
<g id="a_node22"><a xlink:href="_toolbox_singleton_8h.html" target="_top" xlink:title="/home/travis/build\l/robotology/wb&#45;toolbox\l/toolbox/include/base\l/ToolboxSingleton.h">
<polygon fill="none" stroke="black" points="209.5,-247 209.5,-299 324.5,-299 324.5,-247 209.5,-247"/>
<text text-anchor="start" x="217.5" y="-287" font-family="Helvetica,sans-Serif" font-size="10.00">/home/travis/build</text>
<text text-anchor="start" x="217.5" y="-276" font-family="Helvetica,sans-Serif" font-size="10.00">/robotology/wb&#45;toolbox</text>
<text text-anchor="start" x="217.5" y="-265" font-family="Helvetica,sans-Serif" font-size="10.00">/toolbox/include/base</text>
<text text-anchor="middle" x="267" y="-254" font-family="Helvetica,sans-Serif" font-size="10.00">/ToolboxSingleton.h</text>
</a>
</g>
</g>
<!-- Node1&#45;&gt;Node22 -->
<g id="edge22" class="edge"><title>Node1&#45;&gt;Node22</title>
<path fill="none" stroke="midnightblue" d="M1237.13,-356.246C1045.58,-340.007 503.119,-294.018 324.685,-278.89"/>
<polygon fill="midnightblue" stroke="midnightblue" points="1237.08,-359.754 1247.34,-357.112 1237.67,-352.779 1237.08,-359.754"/>
</g>
<!-- Node23 -->
<g id="node23" class="node"><title>Node23</title>
<g id="a_node23"><a xlink:href="_configuration_8cpp.html" target="_top" xlink:title="/home/travis/build\l/robotology/wb&#45;toolbox\l/toolbox/src/base/Configuration.cpp">
<polygon fill="none" stroke="black" points="2542.5,-252.5 2542.5,-293.5 2713.5,-293.5 2713.5,-252.5 2542.5,-252.5"/>
<text text-anchor="start" x="2550.5" y="-281.5" font-family="Helvetica,sans-Serif" font-size="10.00">/home/travis/build</text>
<text text-anchor="start" x="2550.5" y="-270.5" font-family="Helvetica,sans-Serif" font-size="10.00">/robotology/wb&#45;toolbox</text>
<text text-anchor="middle" x="2628" y="-259.5" font-family="Helvetica,sans-Serif" font-size="10.00">/toolbox/src/base/Configuration.cpp</text>
</a>
</g>
</g>
<!-- Node1&#45;&gt;Node23 -->
<g id="edge25" class="edge"><title>Node1&#45;&gt;Node23</title>
<path fill="none" stroke="midnightblue" d="M1372.94,-360.379C1595.69,-354.776 2302.54,-334.655 2528,-300 2538.64,-298.365 2549.78,-296.068 2560.61,-293.509"/>
<polygon fill="midnightblue" stroke="midnightblue" points="1372.61,-356.886 1362.7,-360.634 1372.79,-363.883 1372.61,-356.886"/>
</g>
<!-- Node3 -->
<g id="node3" class="node"><title>Node3</title>
<g id="a_node3"><a xlink:href="_model_partitioner_8h.html" target="_top" xlink:title="/home/travis/build\l/robotology/wb&#45;toolbox\l/toolbox/include/ModelPartitioner.h">
<polygon fill="none" stroke="black" points="1221.5,-168.5 1221.5,-209.5 1388.5,-209.5 1388.5,-168.5 1221.5,-168.5"/>
<text text-anchor="start" x="1229.5" y="-197.5" font-family="Helvetica,sans-Serif" font-size="10.00">/home/travis/build</text>
<text text-anchor="start" x="1229.5" y="-186.5" font-family="Helvetica,sans-Serif" font-size="10.00">/robotology/wb&#45;toolbox</text>
<text text-anchor="middle" x="1305" y="-175.5" font-family="Helvetica,sans-Serif" font-size="10.00">/toolbox/include/ModelPartitioner.h</text>
</a>
</g>
</g>
<!-- Node2&#45;&gt;Node3 -->
<g id="edge2" class="edge"><title>Node2&#45;&gt;Node3</title>
<path fill="none" stroke="midnightblue" d="M1305,-236.76C1305,-227.491 1305,-217.821 1305,-209.696"/>
<polygon fill="midnightblue" stroke="midnightblue" points="1301.5,-236.952 1305,-246.952 1308.5,-236.952 1301.5,-236.952"/>
</g>
<!-- Node2&#45;&gt;Node8 -->
<g id="edge19" class="edge"><title>Node2&#45;&gt;Node8</title>
<path fill="none" stroke="midnightblue" d="M1373.01,-265.892C1448.02,-257.723 1562.09,-240.594 1592,-210 1613.85,-187.648 1615.5,-149.12 1614.14,-125.757"/>
<polygon fill="midnightblue" stroke="midnightblue" points="1372.27,-262.45 1362.7,-266.986 1373.01,-269.411 1372.27,-262.45"/>
</g>
<!-- Node9 -->
<g id="node9" class="node"><title>Node9</title>
<g id="a_node9"><a xlink:href="_robot_interface_8cpp.html" target="_top" xlink:title="/home/travis/build\l/robotology/wb&#45;toolbox\l/toolbox/src/base/RobotInterface.cpp">
<polygon fill="none" stroke="black" points="1406,-168.5 1406,-209.5 1584,-209.5 1584,-168.5 1406,-168.5"/>
<text text-anchor="start" x="1414" y="-197.5" font-family="Helvetica,sans-Serif" font-size="10.00">/home/travis/build</text>
<text text-anchor="start" x="1414" y="-186.5" font-family="Helvetica,sans-Serif" font-size="10.00">/robotology/wb&#45;toolbox</text>
<text text-anchor="middle" x="1495" y="-175.5" font-family="Helvetica,sans-Serif" font-size="10.00">/toolbox/src/base/RobotInterface.cpp</text>
</a>
</g>
</g>
<!-- Node2&#45;&gt;Node9 -->
<g id="edge8" class="edge"><title>Node2&#45;&gt;Node9</title>
<path fill="none" stroke="midnightblue" d="M1371.87,-243.142C1397.64,-232.017 1426.46,-219.58 1449.73,-209.537"/>
<polygon fill="midnightblue" stroke="midnightblue" points="1370.32,-239.999 1362.52,-247.175 1373.09,-246.426 1370.32,-239.999"/>
</g>
<!-- Node10 -->
<g id="node10" class="node"><title>Node10</title>
<g id="a_node10"><a xlink:href="_toolbox_singleton_8cpp.html" target="_top" xlink:title="/home/travis/build\l/robotology/wb&#45;toolbox\l/toolbox/src/base/ToolboxSingleton.cpp">
<polygon fill="none" stroke="black" points="173,-168.5 173,-209.5 361,-209.5 361,-168.5 173,-168.5"/>
<text text-anchor="start" x="181" y="-197.5" font-family="Helvetica,sans-Serif" font-size="10.00">/home/travis/build</text>
<text text-anchor="start" x="181" y="-186.5" font-family="Helvetica,sans-Serif" font-size="10.00">/robotology/wb&#45;toolbox</text>
<text text-anchor="middle" x="267" y="-175.5" font-family="Helvetica,sans-Serif" font-size="10.00">/toolbox/src/base/ToolboxSingleton.cpp</text>
</a>
</g>
</g>
<!-- Node2&#45;&gt;Node10 -->
<g id="edge9" class="edge"><title>Node2&#45;&gt;Node10</title>
<path fill="none" stroke="midnightblue" d="M1237.02,-270.416C1082.43,-266.175 692.906,-251.888 370,-210 367.11,-209.625 364.178,-209.219 361.222,-208.787"/>
<polygon fill="midnightblue" stroke="midnightblue" points="1237.21,-273.922 1247.3,-270.692 1237.4,-266.925 1237.21,-273.922"/>
</g>
<!-- Node2&#45;&gt;Node11 -->
<g id="edge10" class="edge"><title>Node2&#45;&gt;Node11</title>
<path fill="none" stroke="midnightblue" d="M1237.16,-272.361C1059.82,-272.43 568.222,-267.014 164,-210 160.931,-209.567 157.81,-209.08 154.665,-208.549"/>
<polygon fill="midnightblue" stroke="midnightblue" points="1237.38,-275.861 1247.38,-272.35 1237.37,-268.861 1237.38,-275.861"/>
</g>
<!-- Node12 -->
<g id="node12" class="node"><title>Node12</title>
<g id="a_node12"><a xlink:href="_centroidal_momentum_8cpp.html" target="_top" xlink:title="/home/travis/build\l/robotology/wb&#45;toolbox\l/toolbox/src/CentroidalMomentum.cpp">
<polygon fill="none" stroke="black" points="1640,-168.5 1640,-209.5 1822,-209.5 1822,-168.5 1640,-168.5"/>
<text text-anchor="start" x="1648" y="-197.5" font-family="Helvetica,sans-Serif" font-size="10.00">/home/travis/build</text>
<text text-anchor="start" x="1648" y="-186.5" font-family="Helvetica,sans-Serif" font-size="10.00">/robotology/wb&#45;toolbox</text>
<text text-anchor="middle" x="1731" y="-175.5" font-family="Helvetica,sans-Serif" font-size="10.00">/toolbox/src/CentroidalMomentum.cpp</text>
</a>
</g>
</g>
<!-- Node2&#45;&gt;Node12 -->
<g id="edge11" class="edge"><title>Node2&#45;&gt;Node12</title>
<path fill="none" stroke="midnightblue" d="M1372.79,-258.951C1444.96,-245.059 1559.58,-222.996 1639.67,-207.579"/>
<polygon fill="midnightblue" stroke="midnightblue" points="1372.05,-255.529 1362.9,-260.856 1373.38,-262.402 1372.05,-255.529"/>
</g>
<!-- Node13 -->
<g id="node13" class="node"><title>Node13</title>
<g id="a_node13"><a xlink:href="_dot_j_nu_8cpp.html" target="_top" xlink:title="/home/travis/build\l/robotology/wb&#45;toolbox\l/toolbox/src/DotJNu.cpp">
<polygon fill="none" stroke="black" points="1840.5,-168.5 1840.5,-209.5 1963.5,-209.5 1963.5,-168.5 1840.5,-168.5"/>
<text text-anchor="start" x="1848.5" y="-197.5" font-family="Helvetica,sans-Serif" font-size="10.00">/home/travis/build</text>
<text text-anchor="start" x="1848.5" y="-186.5" font-family="Helvetica,sans-Serif" font-size="10.00">/robotology/wb&#45;toolbox</text>
<text text-anchor="middle" x="1902" y="-175.5" font-family="Helvetica,sans-Serif" font-size="10.00">/toolbox/src/DotJNu.cpp</text>
</a>
</g>
</g>
<!-- Node2&#45;&gt;Node13 -->
<g id="edge12" class="edge"><title>Node2&#45;&gt;Node13</title>
<path fill="none" stroke="midnightblue" d="M1372.7,-267.441C1473.38,-259.893 1668.16,-242.324 1831,-210 1834.01,-209.402 1837.09,-208.74 1840.18,-208.031"/>
<polygon fill="midnightblue" stroke="midnightblue" points="1372.39,-263.955 1362.67,-268.184 1372.9,-270.936 1372.39,-263.955"/>
</g>
<!-- Node14 -->
<g id="node14" class="node"><title>Node14</title>
<g id="a_node14"><a xlink:href="_forward_kinematics_8cpp.html" target="_top" xlink:title="/home/travis/build\l/robotology/wb&#45;toolbox\l/toolbox/src/ForwardKinematics.cpp">
<polygon fill="none" stroke="black" points="1981.5,-168.5 1981.5,-209.5 2154.5,-209.5 2154.5,-168.5 1981.5,-168.5"/>
<text text-anchor="start" x="1989.5" y="-197.5" font-family="Helvetica,sans-Serif" font-size="10.00">/home/travis/build</text>
<text text-anchor="start" x="1989.5" y="-186.5" font-family="Helvetica,sans-Serif" font-size="10.00">/robotology/wb&#45;toolbox</text>
<text text-anchor="middle" x="2068" y="-175.5" font-family="Helvetica,sans-Serif" font-size="10.00">/toolbox/src/ForwardKinematics.cpp</text>
</a>
</g>
</g>
<!-- Node2&#45;&gt;Node14 -->
<g id="edge13" class="edge"><title>Node2&#45;&gt;Node14</title>
<path fill="none" stroke="midnightblue" d="M1373.03,-268.217C1494.02,-260.923 1754.36,-242.679 1972,-210 1975.11,-209.532 1978.28,-209.028 1981.47,-208.494"/>
<polygon fill="midnightblue" stroke="midnightblue" points="1372.58,-264.737 1362.81,-268.827 1373,-271.724 1372.58,-264.737"/>
</g>
<!-- Node15 -->
<g id="node15" class="node"><title>Node15</title>
<g id="a_node15"><a xlink:href="_get_limits_8cpp.html" target="_top" xlink:title="/home/travis/build\l/robotology/wb&#45;toolbox\l/toolbox/src/GetLimits.cpp">
<polygon fill="none" stroke="black" points="2172.5,-168.5 2172.5,-209.5 2303.5,-209.5 2303.5,-168.5 2172.5,-168.5"/>
<text text-anchor="start" x="2180.5" y="-197.5" font-family="Helvetica,sans-Serif" font-size="10.00">/home/travis/build</text>
<text text-anchor="start" x="2180.5" y="-186.5" font-family="Helvetica,sans-Serif" font-size="10.00">/robotology/wb&#45;toolbox</text>
<text text-anchor="middle" x="2238" y="-175.5" font-family="Helvetica,sans-Serif" font-size="10.00">/toolbox/src/GetLimits.cpp</text>
</a>
</g>
</g>
<!-- Node2&#45;&gt;Node15 -->
<g id="edge14" class="edge"><title>Node2&#45;&gt;Node15</title>
<path fill="none" stroke="midnightblue" d="M1372.8,-271.427C1518.48,-269.252 1871.74,-258.909 2163,-210 2166.06,-209.487 2169.17,-208.904 2172.3,-208.269"/>
<polygon fill="midnightblue" stroke="midnightblue" points="1372.63,-267.929 1362.68,-271.57 1372.73,-274.929 1372.63,-267.929"/>
</g>
<!-- Node16 -->
<g id="node16" class="node"><title>Node16</title>
<g id="a_node16"><a xlink:href="_get_measurement_8cpp.html" target="_top" xlink:title="/home/travis/build\l/robotology/wb&#45;toolbox\l/toolbox/src/GetMeasurement.cpp">
<polygon fill="none" stroke="black" points="2322,-168.5 2322,-209.5 2486,-209.5 2486,-168.5 2322,-168.5"/>
<text text-anchor="start" x="2330" y="-197.5" font-family="Helvetica,sans-Serif" font-size="10.00">/home/travis/build</text>
<text text-anchor="start" x="2330" y="-186.5" font-family="Helvetica,sans-Serif" font-size="10.00">/robotology/wb&#45;toolbox</text>
<text text-anchor="middle" x="2404" y="-175.5" font-family="Helvetica,sans-Serif" font-size="10.00">/toolbox/src/GetMeasurement.cpp</text>
</a>
</g>
</g>
<!-- Node2&#45;&gt;Node16 -->
<g id="edge15" class="edge"><title>Node2&#45;&gt;Node16</title>
<path fill="none" stroke="midnightblue" d="M1372.99,-271.385C1535.87,-269.135 1961,-258.668 2312,-210 2315.24,-209.551 2318.53,-209.05 2321.85,-208.508"/>
<polygon fill="midnightblue" stroke="midnightblue" points="1372.59,-267.889 1362.64,-271.521 1372.69,-274.889 1372.59,-267.889"/>
</g>
<!-- Node17 -->
<g id="node17" class="node"><title>Node17</title>
<g id="a_node17"><a xlink:href="_inverse_dynamics_8cpp.html" target="_top" xlink:title="/home/travis/build\l/robotology/wb&#45;toolbox\l/toolbox/src/InverseDynamics.cpp">
<polygon fill="none" stroke="black" points="379,-168.5 379,-209.5 545,-209.5 545,-168.5 379,-168.5"/>
<text text-anchor="start" x="387" y="-197.5" font-family="Helvetica,sans-Serif" font-size="10.00">/home/travis/build</text>
<text text-anchor="start" x="387" y="-186.5" font-family="Helvetica,sans-Serif" font-size="10.00">/robotology/wb&#45;toolbox</text>
<text text-anchor="middle" x="462" y="-175.5" font-family="Helvetica,sans-Serif" font-size="10.00">/toolbox/src/InverseDynamics.cpp</text>
</a>
</g>
</g>
<!-- Node2&#45;&gt;Node17 -->
<g id="edge16" class="edge"><title>Node2&#45;&gt;Node17</title>
<path fill="none" stroke="midnightblue" d="M1236.86,-269.382C1104.59,-263.636 804.069,-247.338 554,-210 551.09,-209.566 548.135,-209.093 545.154,-208.591"/>
<polygon fill="midnightblue" stroke="midnightblue" points="1237.09,-272.895 1247.23,-269.826 1237.39,-265.901 1237.09,-272.895"/>
</g>
<!-- Node18 -->
<g id="node18" class="node"><title>Node18</title>
<g id="a_node18"><a xlink:href="_jacobian_8cpp.html" target="_top" xlink:title="/home/travis/build\l/robotology/wb&#45;toolbox\l/toolbox/src/Jacobian.cpp">
<polygon fill="none" stroke="black" points="563,-168.5 563,-209.5 691,-209.5 691,-168.5 563,-168.5"/>
<text text-anchor="start" x="571" y="-197.5" font-family="Helvetica,sans-Serif" font-size="10.00">/home/travis/build</text>
<text text-anchor="start" x="571" y="-186.5" font-family="Helvetica,sans-Serif" font-size="10.00">/robotology/wb&#45;toolbox</text>
<text text-anchor="middle" x="627" y="-175.5" font-family="Helvetica,sans-Serif" font-size="10.00">/toolbox/src/Jacobian.cpp</text>
</a>
</g>
</g>
<!-- Node2&#45;&gt;Node18 -->
<g id="edge17" class="edge"><title>Node2&#45;&gt;Node18</title>
<path fill="none" stroke="midnightblue" d="M1237.23,-268.716C1124.81,-262.451 892.988,-246.069 700,-210 697.158,-209.469 694.266,-208.881 691.352,-208.251"/>
<polygon fill="midnightblue" stroke="midnightblue" points="1237.23,-272.221 1247.41,-269.273 1237.62,-265.231 1237.23,-272.221"/>
</g>
<!-- Node19 -->
<g id="node19" class="node"><title>Node19</title>
<g id="a_node19"><a xlink:href="_mass_matrix_8cpp.html" target="_top" xlink:title="/home/travis/build\l/robotology/wb&#45;toolbox\l/toolbox/src/MassMatrix.cpp">
<polygon fill="none" stroke="black" points="709,-168.5 709,-209.5 849,-209.5 849,-168.5 709,-168.5"/>
<text text-anchor="start" x="717" y="-197.5" font-family="Helvetica,sans-Serif" font-size="10.00">/home/travis/build</text>
<text text-anchor="start" x="717" y="-186.5" font-family="Helvetica,sans-Serif" font-size="10.00">/robotology/wb&#45;toolbox</text>
<text text-anchor="middle" x="779" y="-175.5" font-family="Helvetica,sans-Serif" font-size="10.00">/toolbox/src/MassMatrix.cpp</text>
</a>
</g>
</g>
<!-- Node2&#45;&gt;Node19 -->
<g id="edge18" class="edge"><title>Node2&#45;&gt;Node19</title>
<path fill="none" stroke="midnightblue" d="M1237.04,-264.932C1149.1,-255.248 991.323,-236.04 858,-210 855.084,-209.43 852.115,-208.82 849.121,-208.179"/>
<polygon fill="midnightblue" stroke="midnightblue" points="1236.83,-268.43 1247.16,-266.038 1237.59,-261.472 1236.83,-268.43"/>
</g>
<!-- Node20 -->
<g id="node20" class="node"><title>Node20</title>
<g id="a_node20"><a xlink:href="_set_low_level_p_i_d_8cpp.html" target="_top" xlink:title="/home/travis/build\l/robotology/wb&#45;toolbox\l/toolbox/src/SetLowLevelPID.cpp">
<polygon fill="none" stroke="black" points="867.5,-168.5 867.5,-209.5 1030.5,-209.5 1030.5,-168.5 867.5,-168.5"/>
<text text-anchor="start" x="875.5" y="-197.5" font-family="Helvetica,sans-Serif" font-size="10.00">/home/travis/build</text>
<text text-anchor="start" x="875.5" y="-186.5" font-family="Helvetica,sans-Serif" font-size="10.00">/robotology/wb&#45;toolbox</text>
<text text-anchor="middle" x="949" y="-175.5" font-family="Helvetica,sans-Serif" font-size="10.00">/toolbox/src/SetLowLevelPID.cpp</text>
</a>
</g>
</g>
<!-- Node2&#45;&gt;Node20 -->
<g id="edge20" class="edge"><title>Node2&#45;&gt;Node20</title>
<path fill="none" stroke="midnightblue" d="M1237.48,-256.448C1178.71,-242.912 1093.37,-223.253 1030.75,-208.829"/>
<polygon fill="midnightblue" stroke="midnightblue" points="1236.88,-259.9 1247.41,-258.734 1238.45,-253.079 1236.88,-259.9"/>
</g>
<!-- Node21 -->
<g id="node21" class="node"><title>Node21</title>
<g id="a_node21"><a xlink:href="_set_references_8cpp.html" target="_top" xlink:title="/home/travis/build\l/robotology/wb&#45;toolbox\l/toolbox/src/SetReferences.cpp">
<polygon fill="none" stroke="black" points="1048.5,-168.5 1048.5,-209.5 1203.5,-209.5 1203.5,-168.5 1048.5,-168.5"/>
<text text-anchor="start" x="1056.5" y="-197.5" font-family="Helvetica,sans-Serif" font-size="10.00">/home/travis/build</text>
<text text-anchor="start" x="1056.5" y="-186.5" font-family="Helvetica,sans-Serif" font-size="10.00">/robotology/wb&#45;toolbox</text>
<text text-anchor="middle" x="1126" y="-175.5" font-family="Helvetica,sans-Serif" font-size="10.00">/toolbox/src/SetReferences.cpp</text>
</a>
</g>
</g>
<!-- Node2&#45;&gt;Node21 -->
<g id="edge21" class="edge"><title>Node2&#45;&gt;Node21</title>
<path fill="none" stroke="midnightblue" d="M1240.93,-242.649C1216.94,-231.66 1190.3,-219.455 1168.71,-209.565"/>
<polygon fill="midnightblue" stroke="midnightblue" points="1239.77,-245.969 1250.32,-246.952 1242.69,-239.605 1239.77,-245.969"/>
</g>
<!-- Node4 -->
<g id="node4" class="node"><title>Node4</title>
<g id="a_node4"><a xlink:href="toolbox_8h.html" target="_top" xlink:title="/home/travis/build\l/robotology/wb&#45;toolbox\l/toolbox/include/base\l/toolbox.h">
<polygon fill="none" stroke="black" points="1247.5,-79 1247.5,-131 1362.5,-131 1362.5,-79 1247.5,-79"/>
<text text-anchor="start" x="1255.5" y="-119" font-family="Helvetica,sans-Serif" font-size="10.00">/home/travis/build</text>
<text text-anchor="start" x="1255.5" y="-108" font-family="Helvetica,sans-Serif" font-size="10.00">/robotology/wb&#45;toolbox</text>
<text text-anchor="start" x="1255.5" y="-97" font-family="Helvetica,sans-Serif" font-size="10.00">/toolbox/include/base</text>
<text text-anchor="middle" x="1305" y="-86" font-family="Helvetica,sans-Serif" font-size="10.00">/toolbox.h</text>
</a>
</g>
</g>
<!-- Node3&#45;&gt;Node4 -->
<g id="edge3" class="edge"><title>Node3&#45;&gt;Node4</title>
<path fill="none" stroke="midnightblue" d="M1305,-157.938C1305,-149.176 1305,-139.695 1305,-131.261"/>
<polygon fill="midnightblue" stroke="midnightblue" points="1301.5,-158.15 1305,-168.15 1308.5,-158.15 1301.5,-158.15"/>
</g>
<!-- Node3&#45;&gt;Node8 -->
<g id="edge7" class="edge"><title>Node3&#45;&gt;Node8</title>
<path fill="none" stroke="midnightblue" d="M1388.01,-165.827C1435.11,-153.246 1493.52,-137.645 1538.88,-125.529"/>
<polygon fill="midnightblue" stroke="midnightblue" points="1386.9,-162.501 1378.14,-168.463 1388.71,-169.264 1386.9,-162.501"/>
</g>
<!-- Node5 -->
<g id="node5" class="node"><title>Node5</title>
<g id="a_node5"><a xlink:href="_block_8cpp.html" target="_top" xlink:title="/home/travis/build\l/robotology/wb&#45;toolbox\l/toolbox/src/base/Block.cpp">
<polygon fill="none" stroke="black" points="1077,-0.5 1077,-41.5 1215,-41.5 1215,-0.5 1077,-0.5"/>
<text text-anchor="start" x="1085" y="-29.5" font-family="Helvetica,sans-Serif" font-size="10.00">/home/travis/build</text>
<text text-anchor="start" x="1085" y="-18.5" font-family="Helvetica,sans-Serif" font-size="10.00">/robotology/wb&#45;toolbox</text>
<text text-anchor="middle" x="1146" y="-7.5" font-family="Helvetica,sans-Serif" font-size="10.00">/toolbox/src/base/Block.cpp</text>
</a>
</g>
</g>
<!-- Node4&#45;&gt;Node5 -->
<g id="edge4" class="edge"><title>Node4&#45;&gt;Node5</title>
<path fill="none" stroke="midnightblue" d="M1247.52,-74.3565C1226.36,-63.4444 1202.94,-51.3673 1183.94,-41.5645"/>
<polygon fill="midnightblue" stroke="midnightblue" points="1245.94,-77.4788 1256.43,-78.9517 1249.15,-71.2574 1245.94,-77.4788"/>
</g>
<!-- Node6 -->
<g id="node6" class="node"><title>Node6</title>
<g id="a_node6"><a xlink:href="factory_8cpp.html" target="_top" xlink:title="/home/travis/build\l/robotology/wb&#45;toolbox\l/toolbox/src/base/factory.cpp">
<polygon fill="none" stroke="black" points="1233.5,-0.5 1233.5,-41.5 1376.5,-41.5 1376.5,-0.5 1233.5,-0.5"/>
<text text-anchor="start" x="1241.5" y="-29.5" font-family="Helvetica,sans-Serif" font-size="10.00">/home/travis/build</text>
<text text-anchor="start" x="1241.5" y="-18.5" font-family="Helvetica,sans-Serif" font-size="10.00">/robotology/wb&#45;toolbox</text>
<text text-anchor="middle" x="1305" y="-7.5" font-family="Helvetica,sans-Serif" font-size="10.00">/toolbox/src/base/factory.cpp</text>
</a>
</g>
</g>
<!-- Node4&#45;&gt;Node6 -->
<g id="edge5" class="edge"><title>Node4&#45;&gt;Node6</title>
<path fill="none" stroke="midnightblue" d="M1305,-68.7604C1305,-59.4912 1305,-49.8211 1305,-41.6965"/>
<polygon fill="midnightblue" stroke="midnightblue" points="1301.5,-68.9517 1305,-78.9517 1308.5,-68.9518 1301.5,-68.9517"/>
</g>
<!-- Node7 -->
<g id="node7" class="node"><title>Node7</title>
<g id="a_node7"><a xlink:href="toolbox_8cpp.html" target="_top" xlink:title="/home/travis/build\l/robotology/wb&#45;toolbox\l/toolbox/src/base/toolbox.cpp">
<polygon fill="none" stroke="black" points="1394.5,-0.5 1394.5,-41.5 1539.5,-41.5 1539.5,-0.5 1394.5,-0.5"/>
<text text-anchor="start" x="1402.5" y="-29.5" font-family="Helvetica,sans-Serif" font-size="10.00">/home/travis/build</text>
<text text-anchor="start" x="1402.5" y="-18.5" font-family="Helvetica,sans-Serif" font-size="10.00">/robotology/wb&#45;toolbox</text>
<text text-anchor="middle" x="1467" y="-7.5" font-family="Helvetica,sans-Serif" font-size="10.00">/toolbox/src/base/toolbox.cpp</text>
</a>
</g>
</g>
<!-- Node4&#45;&gt;Node7 -->
<g id="edge6" class="edge"><title>Node4&#45;&gt;Node7</title>
<path fill="none" stroke="midnightblue" d="M1363.56,-74.3565C1385.12,-63.4444 1408.98,-51.3673 1428.35,-41.5645"/>
<polygon fill="midnightblue" stroke="midnightblue" points="1361.83,-71.3128 1354.49,-78.9517 1364.99,-77.5583 1361.83,-71.3128"/>
</g>
<!-- Node22&#45;&gt;Node10 -->
<g id="edge23" class="edge"><title>Node22&#45;&gt;Node10</title>
<path fill="none" stroke="midnightblue" d="M267,-236.76C267,-227.491 267,-217.821 267,-209.696"/>
<polygon fill="midnightblue" stroke="midnightblue" points="263.5,-236.952 267,-246.952 270.5,-236.952 263.5,-236.952"/>
</g>
<!-- Node22&#45;&gt;Node11 -->
<g id="edge24" class="edge"><title>Node22&#45;&gt;Node11</title>
<path fill="none" stroke="midnightblue" d="M200.134,-243.142C174.356,-232.017 145.54,-219.58 122.268,-209.537"/>
<polygon fill="midnightblue" stroke="midnightblue" points="198.91,-246.426 209.478,-247.175 201.684,-239.999 198.91,-246.426"/>
</g>
</g>
</svg>
