<?xml version="1.0" encoding="UTF-8" standalone="no"?>
<!DOCTYPE svg PUBLIC "-//W3C//DTD SVG 1.1//EN"
 "http://www.w3.org/Graphics/SVG/1.1/DTD/svg11.dtd">
<!-- Generated by graphviz version 2.36.0 (20140111.2315)
 -->
<!-- Title: /home/travis/build/robotology/wb&#45;toolbox/toolbox/src/DiscreteFilter.cpp Pages: 1 -->
<!--zoomable 218 -->
<svg id="main" version="1.1" xmlns="http://www.w3.org/2000/svg" xmlns:xlink="http://www.w3.org/1999/xlink" xml:space="preserve" onload="init(evt)">
<style type="text/css"><![CDATA[
.edge:hover path { stroke: red; }
.edge:hover polygon { stroke: red; fill: red; }
]]></style>
<script type="text/javascript"><![CDATA[
var edges = document.getElementsByTagName('g');
if (edges && edges.length) {
  for (var i=0;i<edges.length;i++) {
    if (edges[i].id.substr(0,4)=='edge') {
      edges[i].setAttribute('class','edge');
    }
  }
}
]]></script>
        <defs>
                <circle id="rim" cx="0" cy="0" r="7"/>
                <circle id="rim2" cx="0" cy="0" r="3.5"/>
                <g id="zoomPlus">
                        <use xlink:href="#rim" fill="#404040">
                                <set attributeName="fill" to="#808080" begin="zoomplus.mouseover" end="zoomplus.mouseout"/>
                        </use>
                        <path d="M-4,0h8M0,-4v8" fill="none" stroke="white" stroke-width="1.5" pointer-events="none"/>
                </g>
                <g id="zoomMin">
                        <use xlink:href="#rim" fill="#404040">
                                <set attributeName="fill" to="#808080" begin="zoomminus.mouseover" end="zoomminus.mouseout"/>
                        </use>
                        <path d="M-4,0h8" fill="none" stroke="white" stroke-width="1.5" pointer-events="none"/>
                </g>
                <g id="dirArrow">
                        <path fill="none" stroke="white" stroke-width="1.5" d="M0,-3.0v7 M-2.5,-0.5L0,-3.0L2.5,-0.5"/>
                </g>
               <g id="resetDef">
                       <use xlink:href="#rim2" fill="#404040">
                               <set attributeName="fill" to="#808080" begin="reset.mouseover" end="reset.mouseout"/>
                       </use>
               </g>
        </defs>

<script type="text/javascript">
var viewWidth = 764;
var viewHeight = 218;
var sectionId = 'dynsection-0';
</script>
<script xlink:href="svgpan.js"/>
<svg id="graph" class="graph">
<g id="viewport">
<title>/home/travis/build/robotology/wb&#45;toolbox/toolbox/src/DiscreteFilter.cpp</title>
<!-- Node1 -->
<g id="node1" class="node"><title>Node1</title>
<polygon fill="#bfbfbf" stroke="black" points="285,-168.5 285,-209.5 433,-209.5 433,-168.5 285,-168.5"/>
<text text-anchor="start" x="293" y="-197.5" font-family="Helvetica,sans-Serif" font-size="10.00">/home/travis/build</text>
<text text-anchor="start" x="293" y="-186.5" font-family="Helvetica,sans-Serif" font-size="10.00">/robotology/wb&#45;toolbox</text>
<text text-anchor="middle" x="359" y="-175.5" font-family="Helvetica,sans-Serif" font-size="10.00">/toolbox/src/DiscreteFilter.cpp</text>
</g>
<!-- Node2 -->
<g id="node2" class="node"><title>Node2</title>
<g id="a_node2"><a xlink:href="_discrete_filter_8h.html" target="_top" xlink:title="DiscreteFilter.h">
<polygon fill="none" stroke="black" points="101.5,-112.5 101.5,-131.5 184.5,-131.5 184.5,-112.5 101.5,-112.5"/>
<text text-anchor="middle" x="143" y="-119.5" font-family="Helvetica,sans-Serif" font-size="10.00">DiscreteFilter.h</text>
</a>
</g>
</g>
<!-- Node1&#45;&gt;Node2 -->
<g id="edge1" class="edge"><title>Node1&#45;&gt;Node2</title>
<path fill="none" stroke="midnightblue" d="M294.193,-168.498C257.302,-157.396 212.361,-143.872 181.108,-134.468"/>
<polygon fill="midnightblue" stroke="midnightblue" points="182.053,-131.097 171.469,-131.567 180.036,-137.8 182.053,-131.097"/>
</g>
<!-- Node4 -->
<g id="node4" class="node"><title>Node4</title>
<polygon fill="none" stroke="#bfbfbf" points="154.5,-0.5 154.5,-19.5 195.5,-19.5 195.5,-0.5 154.5,-0.5"/>
<text text-anchor="middle" x="175" y="-7.5" font-family="Helvetica,sans-Serif" font-size="10.00">string</text>
</g>
<!-- Node1&#45;&gt;Node4 -->
<g id="edge22" class="edge"><title>Node1&#45;&gt;Node4</title>
<path fill="none" stroke="midnightblue" d="M333.658,-168.29C320.422,-157.782 304.091,-144.479 290,-132 263.175,-108.243 256.723,-101.937 232,-76 216.709,-59.9581 200.095,-40.7975 188.77,-27.4526"/>
<polygon fill="midnightblue" stroke="midnightblue" points="191.282,-25.0021 182.16,-19.6142 185.931,-29.515 191.282,-25.0021"/>
</g>
<!-- Node7 -->
<g id="node7" class="node"><title>Node7</title>
<g id="a_node7"><a xlink:href="_block_information_8h.html" target="_top" xlink:title="BlockInformation.h">
<polygon fill="none" stroke="black" points="311,-56.5 311,-75.5 409,-75.5 409,-56.5 311,-56.5"/>
<text text-anchor="middle" x="360" y="-63.5" font-family="Helvetica,sans-Serif" font-size="10.00">BlockInformation.h</text>
</a>
</g>
</g>
<!-- Node1&#45;&gt;Node7 -->
<g id="edge8" class="edge"><title>Node1&#45;&gt;Node7</title>
<path fill="none" stroke="midnightblue" d="M325.627,-168.385C305.657,-153.939 286.092,-133.197 297,-112 304.077,-98.2475 317.521,-87.7663 330.178,-80.3942"/>
<polygon fill="midnightblue" stroke="midnightblue" points="331.999,-83.3888 339.153,-75.5733 328.687,-77.2221 331.999,-83.3888"/>
</g>
<!-- Node9 -->
<g id="node9" class="node"><title>Node9</title>
<g id="a_node9"><a xlink:href="_log_8h.html" target="_top" xlink:title="Log.h">
<polygon fill="none" stroke="black" points="-0.5,-56.5 -0.5,-75.5 40.5,-75.5 40.5,-56.5 -0.5,-56.5"/>
<text text-anchor="middle" x="20" y="-63.5" font-family="Helvetica,sans-Serif" font-size="10.00">Log.h</text>
</a>
</g>
</g>
<!-- Node1&#45;&gt;Node9 -->
<g id="edge11" class="edge"><title>Node1&#45;&gt;Node9</title>
<path fill="none" stroke="midnightblue" d="M284.727,-182.913C229.138,-176.678 152.579,-162.814 92,-132 68.6616,-120.129 47.113,-98.7002 33.7893,-83.7029"/>
<polygon fill="midnightblue" stroke="midnightblue" points="36.1157,-81.0399 26.9436,-75.7367 30.8067,-85.6022 36.1157,-81.0399"/>
</g>
<!-- Node10 -->
<g id="node10" class="node"><title>Node10</title>
<g id="a_node10"><a xlink:href="_signal_8h.html" target="_top" xlink:title="Signal.h">
<polygon fill="none" stroke="black" points="306,-112.5 306,-131.5 358,-131.5 358,-112.5 306,-112.5"/>
<text text-anchor="middle" x="332" y="-119.5" font-family="Helvetica,sans-Serif" font-size="10.00">Signal.h</text>
</a>
</g>
</g>
<!-- Node1&#45;&gt;Node10 -->
<g id="edge14" class="edge"><title>Node1&#45;&gt;Node10</title>
<path fill="none" stroke="midnightblue" d="M350.899,-168.498C347.277,-159.778 343.034,-149.563 339.487,-141.024"/>
<polygon fill="midnightblue" stroke="midnightblue" points="342.662,-139.545 335.594,-131.652 336.198,-142.23 342.662,-139.545"/>
</g>
<!-- Node11 -->
<g id="node11" class="node"><title>Node11</title>
<polygon fill="none" stroke="#bfbfbf" points="426.5,-56.5 426.5,-75.5 475.5,-75.5 475.5,-56.5 426.5,-56.5"/>
<text text-anchor="middle" x="451" y="-63.5" font-family="Helvetica,sans-Serif" font-size="10.00">cassert</text>
</g>
<!-- Node1&#45;&gt;Node11 -->
<g id="edge19" class="edge"><title>Node1&#45;&gt;Node11</title>
<path fill="none" stroke="midnightblue" d="M369.082,-168.384C377.661,-152.493 390.819,-129.887 405,-112 413.396,-101.41 424.128,-90.78 433.115,-82.5128"/>
<polygon fill="midnightblue" stroke="midnightblue" points="435.653,-84.9371 440.759,-75.6536 430.978,-79.727 435.653,-84.9371"/>
</g>
<!-- Node12 -->
<g id="node12" class="node"><title>Node12</title>
<polygon fill="none" stroke="#bfbfbf" points="414,-112.5 414,-131.5 470,-131.5 470,-112.5 414,-112.5"/>
<text text-anchor="middle" x="442" y="-119.5" font-family="Helvetica,sans-Serif" font-size="10.00">algorithm</text>
</g>
<!-- Node1&#45;&gt;Node12 -->
<g id="edge18" class="edge"><title>Node1&#45;&gt;Node12</title>
<path fill="none" stroke="midnightblue" d="M383.903,-168.498C396.383,-158.724 411.262,-147.072 422.838,-138.007"/>
<polygon fill="midnightblue" stroke="midnightblue" points="425.236,-140.574 430.951,-131.652 420.92,-135.063 425.236,-140.574"/>
</g>
<!-- Node13 -->
<g id="node13" class="node"><title>Node13</title>
<polygon fill="none" stroke="#bfbfbf" points="487.5,-112.5 487.5,-131.5 576.5,-131.5 576.5,-112.5 487.5,-112.5"/>
<text text-anchor="middle" x="532" y="-119.5" font-family="Helvetica,sans-Serif" font-size="10.00">iCub/ctrl/filters.h</text>
</g>
<!-- Node1&#45;&gt;Node13 -->
<g id="edge20" class="edge"><title>Node1&#45;&gt;Node13</title>
<path fill="none" stroke="midnightblue" d="M410.906,-168.498C439.598,-157.718 474.37,-144.653 499.279,-135.294"/>
<polygon fill="midnightblue" stroke="midnightblue" points="500.841,-138.446 508.971,-131.652 498.379,-131.893 500.841,-138.446"/>
</g>
<!-- Node14 -->
<g id="node14" class="node"><title>Node14</title>
<polygon fill="none" stroke="#bfbfbf" points="595,-112.5 595,-131.5 647,-131.5 647,-112.5 595,-112.5"/>
<text text-anchor="middle" x="621" y="-119.5" font-family="Helvetica,sans-Serif" font-size="10.00">sstream</text>
</g>
<!-- Node1&#45;&gt;Node14 -->
<g id="edge21" class="edge"><title>Node1&#45;&gt;Node14</title>
<path fill="none" stroke="midnightblue" d="M433.059,-169.69C474.773,-159.368 528.092,-146.157 584.784,-132.05"/>
<polygon fill="midnightblue" stroke="midnightblue" points="585.797,-135.405 594.656,-129.593 584.106,-128.612 585.797,-135.405"/>
</g>
<!-- Node15 -->
<g id="node15" class="node"><title>Node15</title>
<polygon fill="none" stroke="#bfbfbf" points="665.5,-112.5 665.5,-131.5 756.5,-131.5 756.5,-112.5 665.5,-112.5"/>
<text text-anchor="middle" x="711" y="-119.5" font-family="Helvetica,sans-Serif" font-size="10.00">yarp/sig/Vector.h</text>
</g>
<!-- Node1&#45;&gt;Node15 -->
<g id="edge23" class="edge"><title>Node1&#45;&gt;Node15</title>
<path fill="none" stroke="midnightblue" d="M433.22,-174.295C499.575,-162.042 595.337,-144.358 655.324,-133.281"/>
<polygon fill="midnightblue" stroke="midnightblue" points="656.165,-136.685 665.363,-131.427 654.893,-129.801 656.165,-136.685"/>
</g>
<!-- Node3 -->
<g id="node3" class="node"><title>Node3</title>
<g id="a_node3"><a xlink:href="_block_8h.html" target="_top" xlink:title="Block.h">
<polygon fill="none" stroke="black" points="97,-56.5 97,-75.5 147,-75.5 147,-56.5 97,-56.5"/>
<text text-anchor="middle" x="122" y="-63.5" font-family="Helvetica,sans-Serif" font-size="10.00">Block.h</text>
</a>
</g>
</g>
<!-- Node2&#45;&gt;Node3 -->
<g id="edge2" class="edge"><title>Node2&#45;&gt;Node3</title>
<path fill="none" stroke="midnightblue" d="M139.532,-112.083C136.688,-104.77 132.571,-94.1814 129.04,-85.1034"/>
<polygon fill="midnightblue" stroke="midnightblue" points="132.29,-83.8025 125.403,-75.7511 125.766,-86.3397 132.29,-83.8025"/>
</g>
<!-- Node2&#45;&gt;Node4 -->
<g id="edge5" class="edge"><title>Node2&#45;&gt;Node4</title>
<path fill="none" stroke="midnightblue" d="M145.511,-112.368C150.698,-94.5366 162.696,-53.2953 169.685,-29.2717"/>
<polygon fill="midnightblue" stroke="midnightblue" points="173.068,-30.1711 172.501,-19.5914 166.347,-28.2157 173.068,-30.1711"/>
</g>
<!-- Node5 -->
<g id="node5" class="node"><title>Node5</title>
<polygon fill="none" stroke="#bfbfbf" points="47,-0.5 47,-19.5 91,-19.5 91,-0.5 47,-0.5"/>
<text text-anchor="middle" x="69" y="-7.5" font-family="Helvetica,sans-Serif" font-size="10.00">vector</text>
</g>
<!-- Node2&#45;&gt;Node5 -->
<g id="edge6" class="edge"><title>Node2&#45;&gt;Node5</title>
<path fill="none" stroke="midnightblue" d="M128.269,-112.496C115.8,-104.57 98.351,-91.6373 88,-76 78.7728,-62.0604 73.9342,-43.5535 71.4557,-29.8531"/>
<polygon fill="midnightblue" stroke="midnightblue" points="74.87,-29.0295 69.8843,-19.6811 67.9521,-30.0982 74.87,-29.0295"/>
</g>
<!-- Node6 -->
<g id="node6" class="node"><title>Node6</title>
<polygon fill="none" stroke="#bfbfbf" points="241,-56.5 241,-75.5 293,-75.5 293,-56.5 241,-56.5"/>
<text text-anchor="middle" x="267" y="-63.5" font-family="Helvetica,sans-Serif" font-size="10.00">memory</text>
</g>
<!-- Node2&#45;&gt;Node6 -->
<g id="edge7" class="edge"><title>Node2&#45;&gt;Node6</title>
<path fill="none" stroke="midnightblue" d="M162.648,-112.444C182.965,-103.596 214.903,-89.6875 238.098,-79.5865"/>
<polygon fill="midnightblue" stroke="midnightblue" points="239.673,-82.7181 247.444,-75.5164 236.878,-76.3002 239.673,-82.7181"/>
</g>
<!-- Node3&#45;&gt;Node4 -->
<g id="edge3" class="edge"><title>Node3&#45;&gt;Node4</title>
<path fill="none" stroke="midnightblue" d="M130.752,-56.083C138.47,-48.2195 149.905,-36.5688 159.217,-27.0813"/>
<polygon fill="midnightblue" stroke="midnightblue" points="161.904,-29.3396 166.411,-19.7511 156.908,-24.4363 161.904,-29.3396"/>
</g>
<!-- Node3&#45;&gt;Node5 -->
<g id="edge4" class="edge"><title>Node3&#45;&gt;Node5</title>
<path fill="none" stroke="midnightblue" d="M113.248,-56.083C105.53,-48.2195 94.0953,-36.5688 84.7835,-27.0813"/>
<polygon fill="midnightblue" stroke="midnightblue" points="87.0916,-24.4363 77.589,-19.7511 82.0958,-29.3396 87.0916,-24.4363"/>
</g>
<!-- Node7&#45;&gt;Node4 -->
<g id="edge10" class="edge"><title>Node7&#45;&gt;Node4</title>
<path fill="none" stroke="midnightblue" d="M330.686,-56.4435C296.523,-46.4716 240.333,-30.0701 205.62,-19.9377"/>
<polygon fill="midnightblue" stroke="midnightblue" points="206.165,-16.4507 195.584,-17.0084 204.203,-23.1703 206.165,-16.4507"/>
</g>
<!-- Node8 -->
<g id="node8" class="node"><title>Node8</title>
<polygon fill="none" stroke="#bfbfbf" points="328,-0.5 328,-19.5 392,-19.5 392,-0.5 328,-0.5"/>
<text text-anchor="middle" x="360" y="-7.5" font-family="Helvetica,sans-Serif" font-size="10.00">AnyType.h</text>
</g>
<!-- Node7&#45;&gt;Node8 -->
<g id="edge9" class="edge"><title>Node7&#45;&gt;Node8</title>
<path fill="none" stroke="midnightblue" d="M360,-56.083C360,-49.0059 360,-38.8611 360,-29.9865"/>
<polygon fill="midnightblue" stroke="midnightblue" points="363.5,-29.751 360,-19.7511 356.5,-29.7511 363.5,-29.751"/>
</g>
<!-- Node9&#45;&gt;Node4 -->
<g id="edge12" class="edge"><title>Node9&#45;&gt;Node4</title>
<path fill="none" stroke="midnightblue" d="M40.5828,-57.8292C67.2178,-48.5499 113.842,-32.3066 144.572,-21.6008"/>
<polygon fill="midnightblue" stroke="midnightblue" points="146.04,-24.7956 154.332,-18.2004 143.737,-18.1853 146.04,-24.7956"/>
</g>
<!-- Node9&#45;&gt;Node5 -->
<g id="edge13" class="edge"><title>Node9&#45;&gt;Node5</title>
<path fill="none" stroke="midnightblue" d="M28.0914,-56.083C35.1554,-48.2982 45.5876,-36.8015 54.1489,-27.3665"/>
<polygon fill="midnightblue" stroke="midnightblue" points="56.9312,-29.5087 61.0592,-19.7511 51.7473,-24.8047 56.9312,-29.5087"/>
</g>
<!-- Node10&#45;&gt;Node6 -->
<g id="edge17" class="edge"><title>Node10&#45;&gt;Node6</title>
<path fill="none" stroke="midnightblue" d="M321.557,-112.324C311.854,-104.263 297.185,-92.0765 285.5,-82.3695"/>
<polygon fill="midnightblue" stroke="midnightblue" points="287.562,-79.532 277.633,-75.8339 283.089,-84.9163 287.562,-79.532"/>
</g>
<!-- Node10&#45;&gt;Node7 -->
<g id="edge15" class="edge"><title>Node10&#45;&gt;Node7</title>
<path fill="none" stroke="midnightblue" d="M336.624,-112.083C340.456,-104.691 346.024,-93.9533 350.765,-84.8111"/>
<polygon fill="midnightblue" stroke="midnightblue" points="353.966,-86.2398 355.462,-75.7511 347.752,-83.0175 353.966,-86.2398"/>
</g>
<!-- Node10&#45;&gt;Node11 -->
<g id="edge16" class="edge"><title>Node10&#45;&gt;Node11</title>
<path fill="none" stroke="midnightblue" d="M350.856,-112.444C370.266,-103.636 400.73,-89.8116 422.965,-79.722"/>
<polygon fill="midnightblue" stroke="midnightblue" points="424.572,-82.836 432.232,-75.5164 421.68,-76.4615 424.572,-82.836"/>
</g>
</g>
</svg>
        <g id="navigator" transform="translate(0 0)" fill="#404254">
                <rect fill="#f2f5e9" fill-opacity="0.5" stroke="#606060" stroke-width=".5" x="0" y="0" width="60" height="60"/>
                <use id="zoomplus" xlink:href="#zoomPlus" x="17" y="9" onmousedown="handleZoom(evt,'in')"/>
                <use id="zoomminus" xlink:href="#zoomMin" x="42" y="9" onmousedown="handleZoom(evt,'out')"/>
                <use id="reset" xlink:href="#resetDef" x="30" y="36" onmousedown="handleReset()"/>
                <g id="arrowUp" xlink:href="#dirArrow" transform="translate(30 24)" onmousedown="handlePan(0,-1)">
                  <use xlink:href="#rim" fill="#404040">
                        <set attributeName="fill" to="#808080" begin="arrowUp.mouseover" end="arrowUp.mouseout"/>
                  </use>
                  <path fill="none" stroke="white" stroke-width="1.5" d="M0,-3.0v7 M-2.5,-0.5L0,-3.0L2.5,-0.5"/>
                </g>
                <g id="arrowRight" xlink:href="#dirArrow" transform="rotate(90) translate(36 -43)" onmousedown="handlePan(1,0)">
                  <use xlink:href="#rim" fill="#404040">
                        <set attributeName="fill" to="#808080" begin="arrowRight.mouseover" end="arrowRight.mouseout"/>
                  </use>
                  <path fill="none" stroke="white" stroke-width="1.5" d="M0,-3.0v7 M-2.5,-0.5L0,-3.0L2.5,-0.5"/>
                </g>
                <g id="arrowDown" xlink:href="#dirArrow" transform="rotate(180) translate(-30 -48)" onmousedown="handlePan(0,1)">
                  <use xlink:href="#rim" fill="#404040">
                        <set attributeName="fill" to="#808080" begin="arrowDown.mouseover" end="arrowDown.mouseout"/>
                  </use>
                  <path fill="none" stroke="white" stroke-width="1.5" d="M0,-3.0v7 M-2.5,-0.5L0,-3.0L2.5,-0.5"/>
                </g>
                <g id="arrowLeft" xlink:href="#dirArrow" transform="rotate(270) translate(-36 17)" onmousedown="handlePan(-1,0)">
                  <use xlink:href="#rim" fill="#404040">
                        <set attributeName="fill" to="#808080" begin="arrowLeft.mouseover" end="arrowLeft.mouseout"/>
                  </use>
                  <path fill="none" stroke="white" stroke-width="1.5" d="M0,-3.0v7 M-2.5,-0.5L0,-3.0L2.5,-0.5"/>
                </g>
        </g>
        <svg viewBox="0 0 15 15" width="100%" height="30px" preserveAspectRatio="xMaxYMin meet">
         <g id="arrow_out" transform="scale(0.3 0.3)">
          <a xlink:href="_discrete_filter_8cpp__incl_org.svg" target="_base">
           <rect id="button" ry="5" rx="5" y="6" x="6" height="38" width="38"
                fill="#f2f5e9" fill-opacity="0.5" stroke="#606060" stroke-width="1.0"/>
           <path id="arrow"
             d="M 11.500037,31.436501 C 11.940474,20.09759 22.043105,11.32322 32.158766,21.979434 L 37.068811,17.246167 C 37.068811,17.246167 37.088388,32 37.088388,32 L 22.160133,31.978069 C 22.160133,31.978069 26.997745,27.140456 26.997745,27.140456 C 18.528582,18.264221 13.291696,25.230495 11.500037,31.436501 z"
             style="fill:#404040;"/>
          </a>
         </g>
        </svg>
</svg>
