<?xml version="1.0" encoding="UTF-8" standalone="no"?>
<!DOCTYPE svg PUBLIC "-//W3C//DTD SVG 1.1//EN"
 "http://www.w3.org/Graphics/SVG/1.1/DTD/svg11.dtd">
<!-- Generated by graphviz version 2.43.0 (0)
 -->
<!-- Title: /home/runner/work/wb&#45;toolbox/wb&#45;toolbox/toolbox/library/src/Factory.cpp Pages: 1 -->
<svg width="2868pt" height="240pt"
 viewBox="0.00 0.00 2868.00 240.00" xmlns="http://www.w3.org/2000/svg" xmlns:xlink="http://www.w3.org/1999/xlink">
<g id="graph0" class="graph" transform="scale(1 1) rotate(0) translate(4 236)">
<title>/home/runner/work/wb&#45;toolbox/wb&#45;toolbox/toolbox/library/src/Factory.cpp</title>
<!-- Node1 -->
<g id="node1" class="node">
<title>Node1</title>
<g id="a_node1"><a xlink:title=" ">
<polygon fill="#bfbfbf" stroke="black" points="1792.5,-190.5 1792.5,-231.5 1947.5,-231.5 1947.5,-190.5 1792.5,-190.5"/>
<text text-anchor="start" x="1800.5" y="-219.5" font-family="Helvetica,sans-Serif" font-size="10.00">/home/runner/work/wb</text>
<text text-anchor="start" x="1800.5" y="-208.5" font-family="Helvetica,sans-Serif" font-size="10.00">&#45;toolbox/wb&#45;toolbox/toolbox</text>
<text text-anchor="middle" x="1870" y="-197.5" font-family="Helvetica,sans-Serif" font-size="10.00">/library/src/Factory.cpp</text>
</a>
</g>
</g>
<!-- Node2 -->
<g id="node2" class="node">
<title>Node2</title>
<g id="a_node2"><a xlink:href="_get_limits_8h.html" target="_top" xlink:title=" ">
<polygon fill="none" stroke="black" points="0,-129 0,-148 160,-148 160,-129 0,-129"/>
<text text-anchor="middle" x="80" y="-136" font-family="Helvetica,sans-Serif" font-size="10.00">WBToolbox/Block/GetLimits.h</text>
</a>
</g>
</g>
<!-- Node1&#45;&gt;Node2 -->
<g id="edge1" class="edge">
<title>Node1&#45;&gt;Node2</title>
<path fill="none" stroke="midnightblue" d="M1792.37,-208.77C1503.44,-204 490.46,-185.35 169,-154 158.02,-152.93 146.35,-151.35 135.2,-149.62"/>
<polygon fill="midnightblue" stroke="midnightblue" points="135.56,-146.14 125.13,-148.01 134.45,-153.05 135.56,-146.14"/>
</g>
<!-- Node6 -->
<g id="node6" class="node">
<title>Node6</title>
<g id="a_node6"><a xlink:title=" ">
<polygon fill="none" stroke="#bfbfbf" points="1482,-0.5 1482,-19.5 1526,-19.5 1526,-0.5 1482,-0.5"/>
<text text-anchor="middle" x="1504" y="-7.5" font-family="Helvetica,sans-Serif" font-size="10.00">string</text>
</a>
</g>
</g>
<!-- Node1&#45;&gt;Node6 -->
<g id="edge76" class="edge">
<title>Node1&#45;&gt;Node6</title>
<path fill="none" stroke="midnightblue" d="M1947.69,-207.24C2167.58,-198.08 2771.9,-162.96 2669,-56 2648.8,-35.01 1722.21,-15.37 1536.29,-11.64"/>
<polygon fill="midnightblue" stroke="midnightblue" points="1536.14,-8.13 1526.07,-11.43 1536,-15.13 1536.14,-8.13"/>
</g>
<!-- Node7 -->
<g id="node7" class="node">
<title>Node7</title>
<g id="a_node7"><a xlink:href="_get_measurement_8h.html" target="_top" xlink:title=" ">
<polygon fill="none" stroke="black" points="178.5,-129 178.5,-148 375.5,-148 375.5,-129 178.5,-129"/>
<text text-anchor="middle" x="277" y="-136" font-family="Helvetica,sans-Serif" font-size="10.00">WBToolbox/Block/GetMeasurement.h</text>
</a>
</g>
</g>
<!-- Node1&#45;&gt;Node7 -->
<g id="edge8" class="edge">
<title>Node1&#45;&gt;Node7</title>
<path fill="none" stroke="midnightblue" d="M1792.15,-209.69C1571.27,-208.24 921.92,-200.06 385,-154 371.27,-152.82 356.62,-151.14 342.67,-149.34"/>
<polygon fill="midnightblue" stroke="midnightblue" points="343.04,-145.86 332.66,-148.01 342.12,-152.8 343.04,-145.86"/>
</g>
<!-- Node8 -->
<g id="node8" class="node">
<title>Node8</title>
<g id="a_node8"><a xlink:href="_real_time_synchronizer_8h.html" target="_top" xlink:title=" ">
<polygon fill="none" stroke="black" points="1810,-56.5 1810,-86.5 1960,-86.5 1960,-56.5 1810,-56.5"/>
<text text-anchor="start" x="1818" y="-74.5" font-family="Helvetica,sans-Serif" font-size="10.00">WBToolbox/Block/RealTime</text>
<text text-anchor="middle" x="1885" y="-63.5" font-family="Helvetica,sans-Serif" font-size="10.00">Synchronizer.h</text>
</a>
</g>
</g>
<!-- Node1&#45;&gt;Node8 -->
<g id="edge12" class="edge">
<title>Node1&#45;&gt;Node8</title>
<path fill="none" stroke="midnightblue" d="M1947.73,-207.16C2084.47,-201.36 2356.36,-185.92 2385,-154 2394.2,-143.74 2394.31,-133.15 2385,-123 2355.17,-90.48 2047.35,-92.64 1970.07,-86.76"/>
<polygon fill="midnightblue" stroke="midnightblue" points="1970.35,-83.27 1960.06,-85.78 1969.67,-90.23 1970.35,-83.27"/>
</g>
<!-- Node9 -->
<g id="node9" class="node">
<title>Node9</title>
<g id="a_node9"><a xlink:href="_set_motor_parameters_8h.html" target="_top" xlink:title=" ">
<polygon fill="none" stroke="black" points="394,-123.5 394,-153.5 542,-153.5 542,-123.5 394,-123.5"/>
<text text-anchor="start" x="402" y="-141.5" font-family="Helvetica,sans-Serif" font-size="10.00">WBToolbox/Block/SetMotor</text>
<text text-anchor="middle" x="468" y="-130.5" font-family="Helvetica,sans-Serif" font-size="10.00">Parameters.h</text>
</a>
</g>
</g>
<!-- Node1&#45;&gt;Node9 -->
<g id="edge16" class="edge">
<title>Node1&#45;&gt;Node9</title>
<path fill="none" stroke="midnightblue" d="M1792.43,-210.23C1589.89,-210.09 1028.44,-204.82 552.32,-154.04"/>
<polygon fill="midnightblue" stroke="midnightblue" points="552.46,-150.54 542.14,-152.95 551.71,-157.5 552.46,-150.54"/>
</g>
<!-- Node10 -->
<g id="node10" class="node">
<title>Node10</title>
<g id="a_node10"><a xlink:href="_set_references_8h.html" target="_top" xlink:title=" ">
<polygon fill="none" stroke="black" points="560.5,-129 560.5,-148 743.5,-148 743.5,-129 560.5,-129"/>
<text text-anchor="middle" x="652" y="-136" font-family="Helvetica,sans-Serif" font-size="10.00">WBToolbox/Block/SetReferences.h</text>
</a>
</g>
</g>
<!-- Node1&#45;&gt;Node10 -->
<g id="edge20" class="edge">
<title>Node1&#45;&gt;Node10</title>
<path fill="none" stroke="midnightblue" d="M1792.29,-208.58C1610.26,-204.7 1142.19,-191.61 753,-154 740.62,-152.8 727.43,-151.17 714.81,-149.43"/>
<polygon fill="midnightblue" stroke="midnightblue" points="715.22,-145.96 704.83,-148.02 714.24,-152.89 715.22,-145.96"/>
</g>
<!-- Node11 -->
<g id="node11" class="node">
<title>Node11</title>
<g id="a_node11"><a xlink:href="_simulator_synchronizer_8h.html" target="_top" xlink:title=" ">
<polygon fill="none" stroke="black" points="2330.5,-56.5 2330.5,-86.5 2481.5,-86.5 2481.5,-56.5 2330.5,-56.5"/>
<text text-anchor="start" x="2338.5" y="-74.5" font-family="Helvetica,sans-Serif" font-size="10.00">WBToolbox/Block/Simulator</text>
<text text-anchor="middle" x="2406" y="-63.5" font-family="Helvetica,sans-Serif" font-size="10.00">Synchronizer.h</text>
</a>
</g>
</g>
<!-- Node1&#45;&gt;Node11 -->
<g id="edge24" class="edge">
<title>Node1&#45;&gt;Node11</title>
<path fill="none" stroke="midnightblue" d="M1947.61,-208.18C2097.69,-203.85 2415.93,-190.43 2449,-154 2465.09,-136.28 2447.68,-111.43 2430.44,-93.84"/>
<polygon fill="midnightblue" stroke="midnightblue" points="2432.77,-91.23 2423.16,-86.79 2427.9,-96.26 2432.77,-91.23"/>
</g>
<!-- Node13 -->
<g id="node13" class="node">
<title>Node13</title>
<g id="a_node13"><a xlink:href="_yarp_clock_8h.html" target="_top" xlink:title=" ">
<polygon fill="none" stroke="black" points="2500,-62 2500,-81 2660,-81 2660,-62 2500,-62"/>
<text text-anchor="middle" x="2580" y="-69" font-family="Helvetica,sans-Serif" font-size="10.00">WBToolbox/Block/YarpClock.h</text>
</a>
</g>
</g>
<!-- Node1&#45;&gt;Node13 -->
<g id="edge29" class="edge">
<title>Node1&#45;&gt;Node13</title>
<path fill="none" stroke="midnightblue" d="M1947.5,-207.72C2086.64,-202.81 2372.95,-188.72 2466,-154 2505.44,-139.28 2543.65,-107.23 2564.27,-87.99"/>
<polygon fill="midnightblue" stroke="midnightblue" points="2566.69,-90.52 2571.51,-81.08 2561.86,-85.45 2566.69,-90.52"/>
</g>
<!-- Node14 -->
<g id="node14" class="node">
<title>Node14</title>
<g id="a_node14"><a xlink:href="_yarp_read_8h.html" target="_top" xlink:title=" ">
<polygon fill="none" stroke="black" points="1978,-62 1978,-81 2136,-81 2136,-62 1978,-62"/>
<text text-anchor="middle" x="2057" y="-69" font-family="Helvetica,sans-Serif" font-size="10.00">WBToolbox/Block/YarpRead.h</text>
</a>
</g>
</g>
<!-- Node1&#45;&gt;Node14 -->
<g id="edge32" class="edge">
<title>Node1&#45;&gt;Node14</title>
<path fill="none" stroke="midnightblue" d="M1947.53,-207.46C2087.84,-202.07 2372.17,-187.13 2402,-154 2526.44,-15.77 2830.43,-191.46 2145,-87 2136.21,-85.66 2126.94,-84.19 2117.85,-82.72"/>
<polygon fill="midnightblue" stroke="midnightblue" points="2118.12,-79.22 2107.69,-81.07 2117,-86.13 2118.12,-79.22"/>
</g>
<!-- Node15 -->
<g id="node15" class="node">
<title>Node15</title>
<g id="a_node15"><a xlink:href="_yarp_write_8h.html" target="_top" xlink:title=" ">
<polygon fill="none" stroke="black" points="2153.5,-62 2153.5,-81 2312.5,-81 2312.5,-62 2153.5,-62"/>
<text text-anchor="middle" x="2233" y="-69" font-family="Helvetica,sans-Serif" font-size="10.00">WBToolbox/Block/YarpWrite.h</text>
</a>
</g>
</g>
<!-- Node1&#45;&gt;Node15 -->
<g id="edge36" class="edge">
<title>Node1&#45;&gt;Node15</title>
<path fill="none" stroke="midnightblue" d="M1947.59,-207.93C2094.19,-203.22 2400.1,-189.23 2432,-154 2441.25,-143.79 2440.46,-133.87 2432,-123 2423.06,-111.51 2344.52,-94.13 2288.83,-83.04"/>
<polygon fill="midnightblue" stroke="midnightblue" points="2289.21,-79.55 2278.72,-81.05 2287.86,-86.42 2289.21,-79.55"/>
</g>
<!-- Node16 -->
<g id="node16" class="node">
<title>Node16</title>
<g id="a_node16"><a xlink:href="_centroidal_momentum_8h.html" target="_top" xlink:title=" ">
<polygon fill="none" stroke="black" points="762,-123.5 762,-153.5 916,-153.5 916,-123.5 762,-123.5"/>
<text text-anchor="start" x="770" y="-141.5" font-family="Helvetica,sans-Serif" font-size="10.00">WBToolbox/Block/Centroidal</text>
<text text-anchor="middle" x="839" y="-130.5" font-family="Helvetica,sans-Serif" font-size="10.00">Momentum.h</text>
</a>
</g>
</g>
<!-- Node1&#45;&gt;Node16 -->
<g id="edge40" class="edge">
<title>Node1&#45;&gt;Node16</title>
<path fill="none" stroke="midnightblue" d="M1792.28,-208.23C1632.1,-203.97 1253.55,-190.7 926.45,-154.08"/>
<polygon fill="midnightblue" stroke="midnightblue" points="926.63,-150.58 916.3,-152.94 925.84,-157.54 926.63,-150.58"/>
</g>
<!-- Node17 -->
<g id="node17" class="node">
<title>Node17</title>
<g id="a_node17"><a xlink:href="_centroidal_total_momentum_matrix_8h.html" target="_top" xlink:title=" ">
<polygon fill="none" stroke="black" points="934,-123.5 934,-153.5 1088,-153.5 1088,-123.5 934,-123.5"/>
<text text-anchor="start" x="942" y="-141.5" font-family="Helvetica,sans-Serif" font-size="10.00">WBToolbox/Block/Centroidal</text>
<text text-anchor="middle" x="1011" y="-130.5" font-family="Helvetica,sans-Serif" font-size="10.00">TotalMomentumMatrix.h</text>
</a>
</g>
</g>
<!-- Node1&#45;&gt;Node17 -->
<g id="edge44" class="edge">
<title>Node1&#45;&gt;Node17</title>
<path fill="none" stroke="midnightblue" d="M1792.42,-206.81C1654.65,-200.62 1358.14,-184.89 1098.31,-154.08"/>
<polygon fill="midnightblue" stroke="midnightblue" points="1098.65,-150.6 1088.31,-152.89 1097.82,-157.55 1098.65,-150.6"/>
</g>
<!-- Node18 -->
<g id="node18" class="node">
<title>Node18</title>
<g id="a_node18"><a xlink:href="_dot_j_nu_8h.html" target="_top" xlink:title=" ">
<polygon fill="none" stroke="black" points="1106,-129 1106,-148 1252,-148 1252,-129 1106,-129"/>
<text text-anchor="middle" x="1179" y="-136" font-family="Helvetica,sans-Serif" font-size="10.00">WBToolbox/Block/DotJNu.h</text>
</a>
</g>
</g>
<!-- Node1&#45;&gt;Node18 -->
<g id="edge48" class="edge">
<title>Node1&#45;&gt;Node18</title>
<path fill="none" stroke="midnightblue" d="M1792.38,-204.94C1676.42,-196.92 1451.21,-179.52 1261,-154 1251.95,-152.79 1242.38,-151.29 1233.08,-149.72"/>
<polygon fill="midnightblue" stroke="midnightblue" points="1233.6,-146.26 1223.15,-148 1232.41,-153.16 1233.6,-146.26"/>
</g>
<!-- Node19 -->
<g id="node19" class="node">
<title>Node19</title>
<g id="a_node19"><a xlink:href="_forward_kinematics_8h.html" target="_top" xlink:title=" ">
<polygon fill="none" stroke="black" points="1270,-129 1270,-148 1476,-148 1476,-129 1270,-129"/>
<text text-anchor="middle" x="1373" y="-136" font-family="Helvetica,sans-Serif" font-size="10.00">WBToolbox/Block/ForwardKinematics.h</text>
</a>
</g>
</g>
<!-- Node1&#45;&gt;Node19 -->
<g id="edge52" class="edge">
<title>Node1&#45;&gt;Node19</title>
<path fill="none" stroke="midnightblue" d="M1792.34,-198.98C1696.56,-185.4 1535.14,-162.5 1443.01,-149.43"/>
<polygon fill="midnightblue" stroke="midnightblue" points="1443.34,-145.94 1432.95,-148 1442.36,-152.87 1443.34,-145.94"/>
</g>
<!-- Node20 -->
<g id="node20" class="node">
<title>Node20</title>
<g id="a_node20"><a xlink:href="_inverse_dynamics_8h.html" target="_top" xlink:title=" ">
<polygon fill="none" stroke="black" points="1494.5,-129 1494.5,-148 1691.5,-148 1691.5,-129 1494.5,-129"/>
<text text-anchor="middle" x="1593" y="-136" font-family="Helvetica,sans-Serif" font-size="10.00">WBToolbox/Block/InverseDynamics.h</text>
</a>
</g>
</g>
<!-- Node1&#45;&gt;Node20 -->
<g id="edge56" class="edge">
<title>Node1&#45;&gt;Node20</title>
<path fill="none" stroke="midnightblue" d="M1793.21,-190.46C1742.62,-177.58 1678.23,-161.19 1636.33,-150.53"/>
<polygon fill="midnightblue" stroke="midnightblue" points="1637,-147.09 1626.45,-148.01 1635.28,-153.87 1637,-147.09"/>
</g>
<!-- Node21 -->
<g id="node21" class="node">
<title>Node21</title>
<g id="a_node21"><a xlink:href="_jacobian_8h.html" target="_top" xlink:title=" ">
<polygon fill="none" stroke="black" points="1710,-129 1710,-148 1864,-148 1864,-129 1710,-129"/>
<text text-anchor="middle" x="1787" y="-136" font-family="Helvetica,sans-Serif" font-size="10.00">WBToolbox/Block/Jacobian.h</text>
</a>
</g>
</g>
<!-- Node1&#45;&gt;Node21 -->
<g id="edge60" class="edge">
<title>Node1&#45;&gt;Node21</title>
<path fill="none" stroke="midnightblue" d="M1846.88,-190.36C1833.63,-179.11 1817.25,-165.19 1804.97,-154.76"/>
<polygon fill="midnightblue" stroke="midnightblue" points="1807.1,-151.98 1797.21,-148.17 1802.57,-157.31 1807.1,-151.98"/>
</g>
<!-- Node22 -->
<g id="node22" class="node">
<title>Node22</title>
<g id="a_node22"><a xlink:href="_relative_jacobian_8h.html" target="_top" xlink:title=" ">
<polygon fill="none" stroke="black" points="1882,-123.5 1882,-153.5 2026,-153.5 2026,-123.5 1882,-123.5"/>
<text text-anchor="start" x="1890" y="-141.5" font-family="Helvetica,sans-Serif" font-size="10.00">WBToolbox/Block/Relative</text>
<text text-anchor="middle" x="1954" y="-130.5" font-family="Helvetica,sans-Serif" font-size="10.00">Jacobian.h</text>
</a>
</g>
</g>
<!-- Node1&#45;&gt;Node22 -->
<g id="edge64" class="edge">
<title>Node1&#45;&gt;Node22</title>
<path fill="none" stroke="midnightblue" d="M1893.4,-190.36C1904.57,-180.99 1917.94,-169.76 1929.28,-160.25"/>
<polygon fill="midnightblue" stroke="midnightblue" points="1931.71,-162.78 1937.12,-153.67 1927.21,-157.42 1931.71,-162.78"/>
</g>
<!-- Node23 -->
<g id="node23" class="node">
<title>Node23</title>
<g id="a_node23"><a xlink:href="_mass_matrix_8h.html" target="_top" xlink:title=" ">
<polygon fill="none" stroke="black" points="2044,-129 2044,-148 2214,-148 2214,-129 2044,-129"/>
<text text-anchor="middle" x="2129" y="-136" font-family="Helvetica,sans-Serif" font-size="10.00">WBToolbox/Block/MassMatrix.h</text>
</a>
</g>
</g>
<!-- Node1&#45;&gt;Node23 -->
<g id="edge68" class="edge">
<title>Node1&#45;&gt;Node23</title>
<path fill="none" stroke="midnightblue" d="M1941.8,-190.46C1988.9,-177.63 2048.8,-161.33 2087.99,-150.66"/>
<polygon fill="midnightblue" stroke="midnightblue" points="2089,-154.02 2097.73,-148.01 2087.16,-147.26 2089,-154.02"/>
</g>
<!-- Node24 -->
<g id="node24" class="node">
<title>Node24</title>
<g id="a_node24"><a xlink:href="_relative_transform_8h.html" target="_top" xlink:title=" ">
<polygon fill="none" stroke="black" points="2232,-123.5 2232,-153.5 2376,-153.5 2376,-123.5 2232,-123.5"/>
<text text-anchor="start" x="2240" y="-141.5" font-family="Helvetica,sans-Serif" font-size="10.00">WBToolbox/Block/Relative</text>
<text text-anchor="middle" x="2304" y="-130.5" font-family="Helvetica,sans-Serif" font-size="10.00">Transform.h</text>
</a>
</g>
</g>
<!-- Node1&#45;&gt;Node24 -->
<g id="edge72" class="edge">
<title>Node1&#45;&gt;Node24</title>
<path fill="none" stroke="midnightblue" d="M1947.54,-198.15C2016.81,-187.46 2121.32,-171.08 2221.59,-154.22"/>
<polygon fill="midnightblue" stroke="midnightblue" points="2222.31,-157.65 2231.59,-152.54 2221.15,-150.75 2222.31,-157.65"/>
</g>
<!-- Node25 -->
<g id="node25" class="node">
<title>Node25</title>
<g id="a_node25"><a xlink:title=" ">
<polygon fill="none" stroke="#bfbfbf" points="2716,-123.5 2716,-153.5 2860,-153.5 2860,-123.5 2716,-123.5"/>
<text text-anchor="start" x="2724" y="-141.5" font-family="Helvetica,sans-Serif" font-size="10.00">sharedlibpp/SharedLibrary</text>
<text text-anchor="middle" x="2788" y="-130.5" font-family="Helvetica,sans-Serif" font-size="10.00">ClassApi.h</text>
</a>
</g>
</g>
<!-- Node1&#45;&gt;Node25 -->
<g id="edge77" class="edge">
<title>Node1&#45;&gt;Node25</title>
<path fill="none" stroke="midnightblue" d="M1947.66,-207.36C2095.11,-201.78 2425.58,-186.52 2702,-154 2703.27,-153.85 2704.55,-153.7 2705.83,-153.53"/>
<polygon fill="midnightblue" stroke="midnightblue" points="2706.36,-157 2715.81,-152.21 2705.44,-150.06 2706.36,-157"/>
</g>
<!-- Node3 -->
<g id="node3" class="node">
<title>Node3</title>
<g id="a_node3"><a xlink:href="_w_b_block_8h.html" target="_top" xlink:title=" ">
<polygon fill="none" stroke="black" points="1182.5,-62 1182.5,-81 1335.5,-81 1335.5,-62 1182.5,-62"/>
<text text-anchor="middle" x="1259" y="-69" font-family="Helvetica,sans-Serif" font-size="10.00">WBToolbox/Base/WBBlock.h</text>
</a>
</g>
</g>
<!-- Node2&#45;&gt;Node3 -->
<g id="edge2" class="edge">
<title>Node2&#45;&gt;Node3</title>
<path fill="none" stroke="midnightblue" d="M126.06,-128.96C139.83,-126.69 154.99,-124.46 169,-123 540.92,-84.22 987.34,-75.22 1172.25,-73.13"/>
<polygon fill="midnightblue" stroke="midnightblue" points="1172.5,-76.63 1182.46,-73.02 1172.42,-69.63 1172.5,-76.63"/>
</g>
<!-- Node5 -->
<g id="node5" class="node">
<title>Node5</title>
<g id="a_node5"><a xlink:title=" ">
<polygon fill="none" stroke="#bfbfbf" points="1384,-0.5 1384,-19.5 1442,-19.5 1442,-0.5 1384,-0.5"/>
<text text-anchor="middle" x="1413" y="-7.5" font-family="Helvetica,sans-Serif" font-size="10.00">memory</text>
</a>
</g>
</g>
<!-- Node2&#45;&gt;Node5 -->
<g id="edge6" class="edge">
<title>Node2&#45;&gt;Node5</title>
<path fill="none" stroke="midnightblue" d="M90.75,-128.97C113.63,-111.38 169.56,-71.44 224,-56 336.51,-24.08 1180.46,-13.42 1373.68,-11.38"/>
<polygon fill="midnightblue" stroke="midnightblue" points="1373.96,-14.88 1383.93,-11.28 1373.89,-7.88 1373.96,-14.88"/>
</g>
<!-- Node2&#45;&gt;Node6 -->
<g id="edge7" class="edge">
<title>Node2&#45;&gt;Node6</title>
<path fill="none" stroke="midnightblue" d="M113.38,-128.97C182.77,-111.64 347.88,-72.59 489,-56 913.93,-6.03 1025.4,-63.91 1451,-20 1457.7,-19.31 1464.84,-18.29 1471.63,-17.19"/>
<polygon fill="midnightblue" stroke="midnightblue" points="1472.65,-20.56 1481.91,-15.41 1471.46,-13.66 1472.65,-20.56"/>
</g>
<!-- Node4 -->
<g id="node4" class="node">
<title>Node4</title>
<g id="a_node4"><a xlink:title=" ">
<polygon fill="none" stroke="#bfbfbf" points="2073.5,-0.5 2073.5,-19.5 2216.5,-19.5 2216.5,-0.5 2073.5,-0.5"/>
<text text-anchor="middle" x="2145" y="-7.5" font-family="Helvetica,sans-Serif" font-size="10.00">BlockFactory/Core/Block.h</text>
</a>
</g>
</g>
<!-- Node3&#45;&gt;Node4 -->
<g id="edge3" class="edge">
<title>Node3&#45;&gt;Node4</title>
<path fill="none" stroke="midnightblue" d="M1335.69,-65.35C1501.61,-54.21 1892.65,-27.95 2063.14,-16.5"/>
<polygon fill="midnightblue" stroke="midnightblue" points="2063.56,-19.98 2073.31,-15.81 2063.09,-12.99 2063.56,-19.98"/>
</g>
<!-- Node3&#45;&gt;Node5 -->
<g id="edge4" class="edge">
<title>Node3&#45;&gt;Node5</title>
<path fill="none" stroke="midnightblue" d="M1281.06,-61.98C1307.37,-51.81 1351.51,-34.76 1381.42,-23.2"/>
<polygon fill="midnightblue" stroke="midnightblue" points="1382.91,-26.38 1390.98,-19.51 1380.39,-19.85 1382.91,-26.38"/>
</g>
<!-- Node3&#45;&gt;Node6 -->
<g id="edge5" class="edge">
<title>Node3&#45;&gt;Node6</title>
<path fill="none" stroke="midnightblue" d="M1294.1,-61.98C1341.71,-50.41 1426.06,-29.93 1472,-18.77"/>
<polygon fill="midnightblue" stroke="midnightblue" points="1472.84,-22.17 1481.73,-16.41 1471.19,-15.37 1472.84,-22.17"/>
</g>
<!-- Node7&#45;&gt;Node3 -->
<g id="edge9" class="edge">
<title>Node7&#45;&gt;Node3</title>
<path fill="none" stroke="midnightblue" d="M334.36,-128.98C350.69,-126.77 368.52,-124.58 385,-123 672.58,-95.43 1014.93,-80.96 1172.19,-75.34"/>
<polygon fill="midnightblue" stroke="midnightblue" points="1172.41,-78.83 1182.28,-74.98 1172.16,-71.84 1172.41,-78.83"/>
</g>
<!-- Node7&#45;&gt;Node5 -->
<g id="edge10" class="edge">
<title>Node7&#45;&gt;Node5</title>
<path fill="none" stroke="midnightblue" d="M284.97,-128.73C301.66,-111.07 342.38,-71.57 386,-56 480.2,-22.37 1196.92,-13.13 1373.69,-11.35"/>
<polygon fill="midnightblue" stroke="midnightblue" points="1373.87,-14.85 1383.84,-11.25 1373.8,-7.85 1373.87,-14.85"/>
</g>
<!-- Node7&#45;&gt;Node6 -->
<g id="edge11" class="edge">
<title>Node7&#45;&gt;Node6</title>
<path fill="none" stroke="midnightblue" d="M308.73,-128.97C374.31,-111.74 529.84,-72.99 663,-56 1010.77,-11.64 1102.41,-57.42 1451,-20 1457.7,-19.28 1464.83,-18.25 1471.63,-17.14"/>
<polygon fill="midnightblue" stroke="midnightblue" points="1472.65,-20.52 1481.91,-15.37 1471.46,-13.62 1472.65,-20.52"/>
</g>
<!-- Node8&#45;&gt;Node4 -->
<g id="edge13" class="edge">
<title>Node8&#45;&gt;Node4</title>
<path fill="none" stroke="midnightblue" d="M1946.29,-56.47C1992.71,-45.85 2055.54,-31.47 2098.02,-21.75"/>
<polygon fill="midnightblue" stroke="midnightblue" points="2098.86,-25.15 2107.83,-19.51 2097.3,-18.33 2098.86,-25.15"/>
</g>
<!-- Node8&#45;&gt;Node5 -->
<g id="edge14" class="edge">
<title>Node8&#45;&gt;Node5</title>
<path fill="none" stroke="midnightblue" d="M1809.74,-61.89C1727.08,-52.29 1590.46,-36.01 1473,-20 1466.27,-19.08 1459.12,-18.06 1452.19,-17.03"/>
<polygon fill="midnightblue" stroke="midnightblue" points="1452.68,-13.57 1442.27,-15.55 1451.65,-20.49 1452.68,-13.57"/>
</g>
<!-- Node8&#45;&gt;Node6 -->
<g id="edge15" class="edge">
<title>Node8&#45;&gt;Node6</title>
<path fill="none" stroke="midnightblue" d="M1809.74,-58.19C1805.09,-57.45 1800.48,-56.71 1796,-56 1701.72,-41.06 1590.21,-24.06 1536.34,-15.89"/>
<polygon fill="midnightblue" stroke="midnightblue" points="1536.77,-12.42 1526.36,-14.38 1535.72,-19.34 1536.77,-12.42"/>
</g>
<!-- Node9&#45;&gt;Node3 -->
<g id="edge17" class="edge">
<title>Node9&#45;&gt;Node3</title>
<path fill="none" stroke="midnightblue" d="M542.16,-124.16C545.14,-123.75 548.1,-123.36 551,-123 773.92,-95.65 1038.27,-81.65 1172.08,-75.85"/>
<polygon fill="midnightblue" stroke="midnightblue" points="1172.43,-79.34 1182.27,-75.41 1172.13,-72.34 1172.43,-79.34"/>
</g>
<!-- Node9&#45;&gt;Node5 -->
<g id="edge18" class="edge">
<title>Node9&#45;&gt;Node5</title>
<path fill="none" stroke="midnightblue" d="M480.73,-123.41C499.14,-104.14 535.25,-70.34 574,-56 649.47,-28.06 1218.28,-14.85 1373.8,-11.74"/>
<polygon fill="midnightblue" stroke="midnightblue" points="1373.93,-15.24 1383.86,-11.54 1373.79,-8.24 1373.93,-15.24"/>
</g>
<!-- Node9&#45;&gt;Node6 -->
<g id="edge19" class="edge">
<title>Node9&#45;&gt;Node6</title>
<path fill="none" stroke="midnightblue" d="M517.61,-123.45C586.28,-104.63 714.45,-71.8 826,-56 1101.49,-16.98 1174.53,-51.34 1451,-20 1457.69,-19.24 1464.83,-18.19 1471.62,-17.08"/>
<polygon fill="midnightblue" stroke="midnightblue" points="1472.64,-20.46 1481.9,-15.31 1471.45,-13.56 1472.64,-20.46"/>
</g>
<!-- Node10&#45;&gt;Node3 -->
<g id="edge21" class="edge">
<title>Node10&#45;&gt;Node3</title>
<path fill="none" stroke="midnightblue" d="M708.3,-128.98C722.85,-126.9 738.49,-124.76 753,-123 899.79,-105.15 1071.11,-89.04 1172.02,-80.03"/>
<polygon fill="midnightblue" stroke="midnightblue" points="1172.51,-83.5 1182.16,-79.13 1171.89,-76.53 1172.51,-83.5"/>
</g>
<!-- Node10&#45;&gt;Node5 -->
<g id="edge22" class="edge">
<title>Node10&#45;&gt;Node5</title>
<path fill="none" stroke="midnightblue" d="M659.54,-128.82C675.36,-111.33 714.03,-72.11 756,-56 869.82,-12.3 1250.02,-10.18 1373.73,-10.69"/>
<polygon fill="midnightblue" stroke="midnightblue" points="1373.87,-14.19 1383.88,-10.74 1373.9,-7.19 1373.87,-14.19"/>
</g>
<!-- Node10&#45;&gt;Node6 -->
<g id="edge23" class="edge">
<title>Node10&#45;&gt;Node6</title>
<path fill="none" stroke="midnightblue" d="M679.14,-128.9C734.02,-111.9 862.35,-74.07 973,-56 1183.26,-21.66 1239.53,-45.86 1451,-20 1457.69,-19.18 1464.82,-18.11 1471.61,-16.99"/>
<polygon fill="midnightblue" stroke="midnightblue" points="1472.63,-20.37 1481.89,-15.23 1471.44,-13.47 1472.63,-20.37"/>
</g>
<!-- Node11&#45;&gt;Node4 -->
<g id="edge25" class="edge">
<title>Node11&#45;&gt;Node4</title>
<path fill="none" stroke="midnightblue" d="M2344.48,-56.47C2297.88,-45.85 2234.81,-31.47 2192.16,-21.75"/>
<polygon fill="midnightblue" stroke="midnightblue" points="2192.84,-18.32 2182.31,-19.51 2191.29,-25.14 2192.84,-18.32"/>
</g>
<!-- Node11&#45;&gt;Node5 -->
<g id="edge26" class="edge">
<title>Node11&#45;&gt;Node5</title>
<path fill="none" stroke="midnightblue" d="M2330.06,-56.94C2327.34,-56.6 2324.65,-56.28 2322,-56 1946.47,-15.8 1848.95,-56.06 1473,-20 1466.24,-19.35 1459.07,-18.46 1452.14,-17.48"/>
<polygon fill="midnightblue" stroke="midnightblue" points="1452.62,-14.02 1442.22,-16.02 1451.6,-20.94 1452.62,-14.02"/>
</g>
<!-- Node11&#45;&gt;Node6 -->
<g id="edge27" class="edge">
<title>Node11&#45;&gt;Node6</title>
<path fill="none" stroke="midnightblue" d="M2330.05,-56.98C2327.34,-56.63 2324.65,-56.3 2322,-56 2017.69,-21.48 1646.57,-13.19 1536.34,-11.43"/>
<polygon fill="midnightblue" stroke="midnightblue" points="1536.26,-7.93 1526.2,-11.28 1536.15,-14.93 1536.26,-7.93"/>
</g>
<!-- Node12 -->
<g id="node12" class="node">
<title>Node12</title>
<g id="a_node12"><a xlink:title=" ">
<polygon fill="none" stroke="#bfbfbf" points="2382.5,-0.5 2382.5,-19.5 2429.5,-19.5 2429.5,-0.5 2382.5,-0.5"/>
<text text-anchor="middle" x="2406" y="-7.5" font-family="Helvetica,sans-Serif" font-size="10.00">vector</text>
</a>
</g>
</g>
<!-- Node11&#45;&gt;Node12 -->
<g id="edge28" class="edge">
<title>Node11&#45;&gt;Node12</title>
<path fill="none" stroke="midnightblue" d="M2406,-56.4C2406,-48.47 2406,-38.46 2406,-29.86"/>
<polygon fill="midnightblue" stroke="midnightblue" points="2409.5,-29.66 2406,-19.66 2402.5,-29.66 2409.5,-29.66"/>
</g>
<!-- Node13&#45;&gt;Node4 -->
<g id="edge30" class="edge">
<title>Node13&#45;&gt;Node4</title>
<path fill="none" stroke="midnightblue" d="M2529.21,-61.94C2516.73,-59.91 2503.39,-57.81 2491,-56 2400.31,-42.72 2295.95,-29.42 2225.77,-20.76"/>
<polygon fill="midnightblue" stroke="midnightblue" points="2226.02,-17.26 2215.67,-19.52 2225.16,-24.21 2226.02,-17.26"/>
</g>
<!-- Node13&#45;&gt;Node6 -->
<g id="edge31" class="edge">
<title>Node13&#45;&gt;Node6</title>
<path fill="none" stroke="midnightblue" d="M2533.94,-61.95C2520.17,-59.68 2505.01,-57.46 2491,-56 2117.54,-17.2 1661.12,-11.85 1536.66,-11.12"/>
<polygon fill="midnightblue" stroke="midnightblue" points="1536.33,-7.61 1526.31,-11.06 1536.29,-14.61 1536.33,-7.61"/>
</g>
<!-- Node14&#45;&gt;Node4 -->
<g id="edge33" class="edge">
<title>Node14&#45;&gt;Node4</title>
<path fill="none" stroke="midnightblue" d="M2069.61,-61.98C2083.72,-52.43 2106.83,-36.81 2123.75,-25.37"/>
<polygon fill="midnightblue" stroke="midnightblue" points="2126.09,-28.01 2132.42,-19.51 2122.17,-22.21 2126.09,-28.01"/>
</g>
<!-- Node14&#45;&gt;Node5 -->
<g id="edge34" class="edge">
<title>Node14&#45;&gt;Node5</title>
<path fill="none" stroke="midnightblue" d="M2010.07,-61.96C1996.83,-59.77 1982.38,-57.58 1969,-56 1749.51,-30.01 1692.67,-44.41 1473,-20 1466.25,-19.25 1459.09,-18.31 1452.16,-17.31"/>
<polygon fill="midnightblue" stroke="midnightblue" points="1452.64,-13.85 1442.24,-15.84 1451.62,-20.77 1452.64,-13.85"/>
</g>
<!-- Node14&#45;&gt;Node6 -->
<g id="edge35" class="edge">
<title>Node14&#45;&gt;Node6</title>
<path fill="none" stroke="midnightblue" d="M2008.67,-61.94C1995.8,-59.82 1981.9,-57.68 1969,-56 1807.26,-34.87 1612.67,-19.17 1536.66,-13.41"/>
<polygon fill="midnightblue" stroke="midnightblue" points="1536.56,-9.89 1526.32,-12.63 1536.03,-16.87 1536.56,-9.89"/>
</g>
<!-- Node15&#45;&gt;Node4 -->
<g id="edge37" class="edge">
<title>Node15&#45;&gt;Node4</title>
<path fill="none" stroke="midnightblue" d="M2220.39,-61.98C2206.28,-52.43 2183.17,-36.81 2166.25,-25.37"/>
<polygon fill="midnightblue" stroke="midnightblue" points="2167.83,-22.21 2157.58,-19.51 2163.91,-28.01 2167.83,-22.21"/>
</g>
<!-- Node15&#45;&gt;Node5 -->
<g id="edge38" class="edge">
<title>Node15&#45;&gt;Node5</title>
<path fill="none" stroke="midnightblue" d="M2187,-61.94C2173.51,-59.7 2158.7,-57.49 2145,-56 1847.66,-23.64 1770.56,-50.22 1473,-20 1466.24,-19.31 1459.08,-18.4 1452.15,-17.42"/>
<polygon fill="midnightblue" stroke="midnightblue" points="1452.63,-13.96 1442.23,-15.96 1451.61,-20.88 1452.63,-13.96"/>
</g>
<!-- Node15&#45;&gt;Node6 -->
<g id="edge39" class="edge">
<title>Node15&#45;&gt;Node6</title>
<path fill="none" stroke="midnightblue" d="M2186.07,-61.94C2172.83,-59.75 2158.38,-57.57 2145,-56 1912.42,-28.73 1630.29,-15.93 1536.23,-12.2"/>
<polygon fill="midnightblue" stroke="midnightblue" points="1536.34,-8.7 1526.21,-11.81 1536.07,-15.7 1536.34,-8.7"/>
</g>
<!-- Node16&#45;&gt;Node3 -->
<g id="edge41" class="edge">
<title>Node16&#45;&gt;Node3</title>
<path fill="none" stroke="midnightblue" d="M916.34,-124.4C919.27,-123.92 922.16,-123.45 925,-123 1016.85,-108.31 1123.09,-92.44 1190.64,-82.49"/>
<polygon fill="midnightblue" stroke="midnightblue" points="1191.35,-85.92 1200.73,-81 1190.33,-79 1191.35,-85.92"/>
</g>
<!-- Node16&#45;&gt;Node5 -->
<g id="edge42" class="edge">
<title>Node16&#45;&gt;Node5</title>
<path fill="none" stroke="midnightblue" d="M848.25,-123.3C861.56,-104.24 888.05,-71.03 920,-56 1000.27,-18.23 1271.69,-12.11 1373.75,-11.16"/>
<polygon fill="midnightblue" stroke="midnightblue" points="1373.97,-14.66 1383.94,-11.08 1373.91,-7.66 1373.97,-14.66"/>
</g>
<!-- Node16&#45;&gt;Node6 -->
<g id="edge43" class="edge">
<title>Node16&#45;&gt;Node6</title>
<path fill="none" stroke="midnightblue" d="M873.8,-123.43C921.35,-104.83 1009.66,-72.5 1088,-56 1246.64,-22.59 1290.32,-41.58 1451,-20 1457.68,-19.1 1464.8,-18 1471.59,-16.87"/>
<polygon fill="midnightblue" stroke="midnightblue" points="1472.61,-20.25 1481.88,-15.11 1471.43,-13.35 1472.61,-20.25"/>
</g>
<!-- Node17&#45;&gt;Node3 -->
<g id="edge45" class="edge">
<title>Node17&#45;&gt;Node3</title>
<path fill="none" stroke="midnightblue" d="M1064.51,-123.48C1110.02,-111.55 1174.51,-94.64 1216.54,-83.63"/>
<polygon fill="midnightblue" stroke="midnightblue" points="1217.67,-86.95 1226.46,-81.03 1215.9,-80.18 1217.67,-86.95"/>
</g>
<!-- Node17&#45;&gt;Node5 -->
<g id="edge46" class="edge">
<title>Node17&#45;&gt;Node5</title>
<path fill="none" stroke="midnightblue" d="M1014.19,-123.29C1019.2,-104.53 1030.84,-72.01 1054,-56 1105.1,-20.66 1291.61,-13.07 1373.73,-11.44"/>
<polygon fill="midnightblue" stroke="midnightblue" points="1373.97,-14.94 1383.91,-11.26 1373.85,-7.94 1373.97,-14.94"/>
</g>
<!-- Node17&#45;&gt;Node6 -->
<g id="edge47" class="edge">
<title>Node17&#45;&gt;Node6</title>
<path fill="none" stroke="midnightblue" d="M1031.09,-123.26C1058.7,-104.47 1110.61,-71.92 1160,-56 1284.04,-16.02 1322.06,-38.91 1451,-20 1457.67,-19.02 1464.79,-17.88 1471.58,-16.74"/>
<polygon fill="midnightblue" stroke="midnightblue" points="1472.59,-20.12 1481.86,-14.99 1471.41,-13.22 1472.59,-20.12"/>
</g>
<!-- Node18&#45;&gt;Node3 -->
<g id="edge49" class="edge">
<title>Node18&#45;&gt;Node3</title>
<path fill="none" stroke="midnightblue" d="M1189.79,-128.73C1202.74,-118.21 1224.69,-100.38 1240.39,-87.62"/>
<polygon fill="midnightblue" stroke="midnightblue" points="1242.83,-90.15 1248.38,-81.13 1238.41,-84.72 1242.83,-90.15"/>
</g>
<!-- Node18&#45;&gt;Node5 -->
<g id="edge50" class="edge">
<title>Node18&#45;&gt;Node5</title>
<path fill="none" stroke="midnightblue" d="M1168.98,-128.82C1151.87,-112.97 1120.61,-78.84 1140,-56 1169.5,-21.24 1305.38,-13.28 1373.64,-11.5"/>
<polygon fill="midnightblue" stroke="midnightblue" points="1374.07,-14.99 1383.99,-11.26 1373.91,-7.99 1374.07,-14.99"/>
</g>
<!-- Node18&#45;&gt;Node6 -->
<g id="edge51" class="edge">
<title>Node18&#45;&gt;Node6</title>
<path fill="none" stroke="midnightblue" d="M1174.85,-128.6C1167.83,-112.07 1156.04,-76.45 1174,-56 1214.97,-9.36 1389.61,-29.2 1451,-20 1457.66,-19 1464.78,-17.85 1471.57,-16.71"/>
<polygon fill="midnightblue" stroke="midnightblue" points="1472.59,-20.09 1481.85,-14.96 1471.41,-13.19 1472.59,-20.09"/>
</g>
<!-- Node19&#45;&gt;Node3 -->
<g id="edge53" class="edge">
<title>Node19&#45;&gt;Node3</title>
<path fill="none" stroke="midnightblue" d="M1357.63,-128.73C1338.48,-117.82 1305.56,-99.05 1283.06,-86.22"/>
<polygon fill="midnightblue" stroke="midnightblue" points="1284.55,-83.04 1274.13,-81.13 1281.08,-89.12 1284.55,-83.04"/>
</g>
<!-- Node19&#45;&gt;Node5 -->
<g id="edge54" class="edge">
<title>Node19&#45;&gt;Node5</title>
<path fill="none" stroke="midnightblue" d="M1373.68,-128.69C1375.06,-113.48 1378.86,-81.46 1388,-56 1391.47,-46.33 1396.87,-36.26 1401.76,-28.11"/>
<polygon fill="midnightblue" stroke="midnightblue" points="1404.78,-29.89 1407.13,-19.56 1398.85,-26.17 1404.78,-29.89"/>
</g>
<!-- Node19&#45;&gt;Node6 -->
<g id="edge55" class="edge">
<title>Node19&#45;&gt;Node6</title>
<path fill="none" stroke="midnightblue" d="M1382,-128.81C1403.79,-107.77 1459.58,-53.89 1487.53,-26.9"/>
<polygon fill="midnightblue" stroke="midnightblue" points="1490.17,-29.22 1494.93,-19.76 1485.31,-24.18 1490.17,-29.22"/>
</g>
<!-- Node20&#45;&gt;Node3 -->
<g id="edge57" class="edge">
<title>Node20&#45;&gt;Node3</title>
<path fill="none" stroke="midnightblue" d="M1548.99,-128.94C1488.21,-117.11 1378.64,-95.78 1312.99,-83.01"/>
<polygon fill="midnightblue" stroke="midnightblue" points="1313.32,-79.51 1302.84,-81.03 1311.99,-86.38 1313.32,-79.51"/>
</g>
<!-- Node20&#45;&gt;Node5 -->
<g id="edge58" class="edge">
<title>Node20&#45;&gt;Node5</title>
<path fill="none" stroke="midnightblue" d="M1579.9,-128.87C1564.86,-118.93 1539.49,-102.01 1518,-87 1487.97,-66.03 1453.69,-41.01 1432.69,-25.56"/>
<polygon fill="midnightblue" stroke="midnightblue" points="1434.69,-22.68 1424.56,-19.56 1430.53,-28.32 1434.69,-22.68"/>
</g>
<!-- Node20&#45;&gt;Node6 -->
<g id="edge59" class="edge">
<title>Node20&#45;&gt;Node6</title>
<path fill="none" stroke="midnightblue" d="M1581.69,-128.82C1570.08,-119.48 1552.06,-103.69 1540,-87 1526.93,-68.93 1516.64,-45.36 1510.47,-29.3"/>
<polygon fill="midnightblue" stroke="midnightblue" points="1513.61,-27.7 1506.87,-19.53 1507.04,-30.12 1513.61,-27.7"/>
</g>
<!-- Node21&#45;&gt;Node3 -->
<g id="edge61" class="edge">
<title>Node21&#45;&gt;Node3</title>
<path fill="none" stroke="midnightblue" d="M1739.31,-128.99C1726.86,-126.9 1713.44,-124.76 1701,-123 1578.03,-105.62 1435.15,-90.15 1345.89,-81.05"/>
<polygon fill="midnightblue" stroke="midnightblue" points="1346.12,-77.55 1335.81,-80.02 1345.41,-84.52 1346.12,-77.55"/>
</g>
<!-- Node21&#45;&gt;Node5 -->
<g id="edge62" class="edge">
<title>Node21&#45;&gt;Node5</title>
<path fill="none" stroke="midnightblue" d="M1741.7,-128.94C1685.43,-118.04 1592.84,-99.17 1560,-87 1532.59,-76.84 1527.93,-69.48 1502,-56 1481,-45.08 1457.05,-32.99 1439.29,-24.1"/>
<polygon fill="midnightblue" stroke="midnightblue" points="1440.63,-20.85 1430.12,-19.51 1437.5,-27.11 1440.63,-20.85"/>
</g>
<!-- Node21&#45;&gt;Node6 -->
<g id="edge63" class="edge">
<title>Node21&#45;&gt;Node6</title>
<path fill="none" stroke="midnightblue" d="M1745.27,-128.99C1709.81,-120.87 1658.12,-106.91 1616,-87 1580.34,-70.14 1543.29,-42.71 1522,-25.82"/>
<polygon fill="midnightblue" stroke="midnightblue" points="1524.13,-23.05 1514.15,-19.5 1519.74,-28.5 1524.13,-23.05"/>
</g>
<!-- Node22&#45;&gt;Node3 -->
<g id="edge65" class="edge">
<title>Node22&#45;&gt;Node3</title>
<path fill="none" stroke="midnightblue" d="M1881.63,-124.19C1878.72,-123.77 1875.83,-123.37 1873,-123 1685.95,-98.62 1465.22,-83.87 1345.99,-77.04"/>
<polygon fill="midnightblue" stroke="midnightblue" points="1346.01,-73.54 1335.83,-76.47 1345.61,-80.53 1346.01,-73.54"/>
</g>
<!-- Node22&#45;&gt;Node5 -->
<g id="edge66" class="edge">
<title>Node22&#45;&gt;Node5</title>
<path fill="none" stroke="midnightblue" d="M1881.6,-124.38C1878.7,-123.91 1875.82,-123.44 1873,-123 1755.59,-104.52 1721.69,-121.69 1608,-87 1578.15,-77.89 1573.83,-67.95 1545,-56 1513.96,-43.14 1477.79,-30.99 1451.16,-22.57"/>
<polygon fill="midnightblue" stroke="midnightblue" points="1452.05,-19.18 1441.46,-19.53 1449.95,-25.86 1452.05,-19.18"/>
</g>
<!-- Node22&#45;&gt;Node6 -->
<g id="edge67" class="edge">
<title>Node22&#45;&gt;Node6</title>
<path fill="none" stroke="midnightblue" d="M1881.9,-124.35C1810.75,-111.24 1710.05,-92.33 1692,-87 1661,-77.84 1577.76,-42.72 1533.16,-23.6"/>
<polygon fill="midnightblue" stroke="midnightblue" points="1534.31,-20.28 1523.74,-19.55 1531.55,-26.71 1534.31,-20.28"/>
</g>
<!-- Node23&#45;&gt;Node3 -->
<g id="edge69" class="edge">
<title>Node23&#45;&gt;Node3</title>
<path fill="none" stroke="midnightblue" d="M2078.86,-128.93C2064.71,-126.74 2049.28,-124.56 2035,-123 1785.66,-95.71 1489.51,-81.43 1345.82,-75.65"/>
<polygon fill="midnightblue" stroke="midnightblue" points="1345.88,-72.15 1335.74,-75.25 1345.6,-79.15 1345.88,-72.15"/>
</g>
<!-- Node23&#45;&gt;Node5 -->
<g id="edge70" class="edge">
<title>Node23&#45;&gt;Node5</title>
<path fill="none" stroke="midnightblue" d="M2076.86,-128.97C2063.25,-126.88 2048.59,-124.74 2035,-123 1878.57,-102.97 1836.13,-120.39 1682,-87 1639.83,-77.87 1631.38,-68.21 1590,-56 1542.95,-42.11 1488.11,-28.57 1452.09,-20.04"/>
<polygon fill="midnightblue" stroke="midnightblue" points="1452.54,-16.54 1442,-17.66 1450.93,-23.36 1452.54,-16.54"/>
</g>
<!-- Node23&#45;&gt;Node6 -->
<g id="edge71" class="edge">
<title>Node23&#45;&gt;Node6</title>
<path fill="none" stroke="midnightblue" d="M2074.85,-128.97C2061.8,-126.96 2047.91,-124.87 2035,-123 1916.49,-105.87 1884.31,-115.46 1768,-87 1728.53,-77.34 1720.85,-67.88 1682,-56 1631.51,-40.56 1571.83,-26.26 1536,-18.09"/>
<polygon fill="midnightblue" stroke="midnightblue" points="1536.64,-14.65 1526.11,-15.85 1535.1,-21.47 1536.64,-14.65"/>
</g>
<!-- Node24&#45;&gt;Node3 -->
<g id="edge73" class="edge">
<title>Node24&#45;&gt;Node3</title>
<path fill="none" stroke="midnightblue" d="M2231.64,-124.09C2228.73,-123.69 2225.84,-123.33 2223,-123 2054.47,-103.58 1549.58,-83.29 1345.75,-75.65"/>
<polygon fill="midnightblue" stroke="midnightblue" points="1345.81,-72.15 1335.69,-75.28 1345.55,-79.15 1345.81,-72.15"/>
</g>
<!-- Node24&#45;&gt;Node5 -->
<g id="edge74" class="edge">
<title>Node24&#45;&gt;Node5</title>
<path fill="none" stroke="midnightblue" d="M2231.63,-124.18C2228.72,-123.76 2225.83,-123.36 2223,-123 2017.39,-96.7 1962,-123.78 1758,-87 1708.85,-78.14 1698.58,-67.56 1650,-56 1580.87,-39.55 1499.27,-25.14 1452.1,-17.29"/>
<polygon fill="midnightblue" stroke="midnightblue" points="1452.44,-13.8 1442,-15.62 1451.3,-20.71 1452.44,-13.8"/>
</g>
<!-- Node24&#45;&gt;Node6 -->
<g id="edge75" class="edge">
<title>Node24&#45;&gt;Node6</title>
<path fill="none" stroke="midnightblue" d="M2231.63,-124.2C2228.72,-123.78 2225.83,-123.37 2223,-123 2036.38,-98.39 1977.51,-152.41 1801,-87 1778.91,-78.81 1779.7,-65.17 1758,-56 1682.87,-24.24 1586.07,-14.89 1536.47,-12.14"/>
<polygon fill="midnightblue" stroke="midnightblue" points="1536.5,-8.64 1526.34,-11.64 1536.15,-15.63 1536.5,-8.64"/>
</g>
</g>
</svg>
