<?xml version="1.0" encoding="UTF-8" standalone="no"?>
<!DOCTYPE svg PUBLIC "-//W3C//DTD SVG 1.1//EN"
 "http://www.w3.org/Graphics/SVG/1.1/DTD/svg11.dtd">
<!-- Generated by graphviz version 2.43.0 (0)
 -->
<!-- Title: /home/runner/work/wb&#45;toolbox/wb&#45;toolbox/toolbox/library/src/ForwardKinematics.cpp Pages: 1 -->
<svg width="2135pt" height="218pt"
 viewBox="0.00 0.00 2135.00 218.00" xmlns="http://www.w3.org/2000/svg" xmlns:xlink="http://www.w3.org/1999/xlink">
<g id="graph0" class="graph" transform="scale(1 1) rotate(0) translate(4 214)">
<title>/home/runner/work/wb&#45;toolbox/wb&#45;toolbox/toolbox/library/src/ForwardKinematics.cpp</title>
<!-- Node1 -->
<g id="node1" class="node">
<title>Node1</title>
<g id="a_node1"><a xlink:title=" ">
<polygon fill="#bfbfbf" stroke="black" points="1129,-168.5 1129,-209.5 1314,-209.5 1314,-168.5 1129,-168.5"/>
<text text-anchor="start" x="1137" y="-197.5" font-family="Helvetica,sans-Serif" font-size="10.00">/home/runner/work/wb</text>
<text text-anchor="start" x="1137" y="-186.5" font-family="Helvetica,sans-Serif" font-size="10.00">&#45;toolbox/wb&#45;toolbox/toolbox</text>
<text text-anchor="middle" x="1221.5" y="-175.5" font-family="Helvetica,sans-Serif" font-size="10.00">/library/src/ForwardKinematics.cpp</text>
</a>
</g>
</g>
<!-- Node2 -->
<g id="node2" class="node">
<title>Node2</title>
<g id="a_node2"><a xlink:href="_forward_kinematics_8h.html" target="_top" xlink:title=" ">
<polygon fill="none" stroke="black" points="91.5,-112.5 91.5,-131.5 297.5,-131.5 297.5,-112.5 91.5,-112.5"/>
<text text-anchor="middle" x="194.5" y="-119.5" font-family="Helvetica,sans-Serif" font-size="10.00">WBToolbox/Block/ForwardKinematics.h</text>
</a>
</g>
</g>
<!-- Node1&#45;&gt;Node2 -->
<g id="edge1" class="edge">
<title>Node1&#45;&gt;Node2</title>
<path fill="none" stroke="midnightblue" d="M1128.84,-182.42C966.06,-172.58 618.18,-151.33 324.5,-132 319.07,-131.64 313.51,-131.27 307.89,-130.9"/>
<polygon fill="midnightblue" stroke="midnightblue" points="307.96,-127.39 297.74,-130.21 307.48,-134.38 307.96,-127.39"/>
</g>
<!-- Node7 -->
<g id="node7" class="node">
<title>Node7</title>
<g id="a_node7"><a xlink:href="_configuration_8h.html" target="_top" xlink:title=" ">
<polygon fill="none" stroke="black" points="448,-56.5 448,-75.5 623,-75.5 623,-56.5 448,-56.5"/>
<text text-anchor="middle" x="535.5" y="-63.5" font-family="Helvetica,sans-Serif" font-size="10.00">WBToolbox/Base/Configuration.h</text>
</a>
</g>
</g>
<!-- Node1&#45;&gt;Node7 -->
<g id="edge8" class="edge">
<title>Node1&#45;&gt;Node7</title>
<path fill="none" stroke="midnightblue" d="M1128.8,-188.67C923.5,-189.17 444.69,-184.64 395.5,-132 369.37,-104.03 415.98,-87.04 462.3,-77.48"/>
<polygon fill="midnightblue" stroke="midnightblue" points="463.01,-80.91 472.15,-75.55 461.67,-74.04 463.01,-80.91"/>
</g>
<!-- Node10 -->
<g id="node10" class="node">
<title>Node10</title>
<g id="a_node10"><a xlink:href="_robot_interface_8h.html" target="_top" xlink:title=" ">
<polygon fill="none" stroke="black" points="247.5,-56.5 247.5,-75.5 429.5,-75.5 429.5,-56.5 247.5,-56.5"/>
<text text-anchor="middle" x="338.5" y="-63.5" font-family="Helvetica,sans-Serif" font-size="10.00">WBToolbox/Base/RobotInterface.h</text>
</a>
</g>
</g>
<!-- Node1&#45;&gt;Node10 -->
<g id="edge13" class="edge">
<title>Node1&#45;&gt;Node10</title>
<path fill="none" stroke="midnightblue" d="M1129,-186.32C924.5,-181.97 447.03,-168.04 383.5,-132 365.26,-121.66 352.77,-100.51 345.66,-85.14"/>
<polygon fill="midnightblue" stroke="midnightblue" points="348.74,-83.45 341.59,-75.63 342.3,-86.2 348.74,-83.45"/>
</g>
<!-- Node13 -->
<g id="node13" class="node">
<title>Node13</title>
<g id="a_node13"><a xlink:title=" ">
<polygon fill="none" stroke="#bfbfbf" points="404.5,-112.5 404.5,-131.5 604.5,-131.5 604.5,-112.5 404.5,-112.5"/>
<text text-anchor="middle" x="504.5" y="-119.5" font-family="Helvetica,sans-Serif" font-size="10.00">BlockFactory/Core/BlockInformation.h</text>
</a>
</g>
</g>
<!-- Node1&#45;&gt;Node13 -->
<g id="edge18" class="edge">
<title>Node1&#45;&gt;Node13</title>
<path fill="none" stroke="midnightblue" d="M1128.87,-179.6C995.08,-167.47 748.51,-145.12 608.6,-132.44"/>
<polygon fill="midnightblue" stroke="midnightblue" points="608.57,-128.92 598.3,-131.5 607.94,-135.89 608.57,-128.92"/>
</g>
<!-- Node14 -->
<g id="node14" class="node">
<title>Node14</title>
<g id="a_node14"><a xlink:title=" ">
<polygon fill="none" stroke="#bfbfbf" points="622.5,-112.5 622.5,-131.5 756.5,-131.5 756.5,-112.5 622.5,-112.5"/>
<text text-anchor="middle" x="689.5" y="-119.5" font-family="Helvetica,sans-Serif" font-size="10.00">BlockFactory/Core/Log.h</text>
</a>
</g>
</g>
<!-- Node1&#45;&gt;Node14 -->
<g id="edge19" class="edge">
<title>Node1&#45;&gt;Node14</title>
<path fill="none" stroke="midnightblue" d="M1128.83,-176.68C1026.29,-164.15 862.88,-144.18 766.91,-132.46"/>
<polygon fill="midnightblue" stroke="midnightblue" points="767.04,-128.95 756.69,-131.21 766.19,-135.9 767.04,-128.95"/>
</g>
<!-- Node15 -->
<g id="node15" class="node">
<title>Node15</title>
<g id="a_node15"><a xlink:title=" ">
<polygon fill="none" stroke="#bfbfbf" points="774.5,-112.5 774.5,-131.5 940.5,-131.5 940.5,-112.5 774.5,-112.5"/>
<text text-anchor="middle" x="857.5" y="-119.5" font-family="Helvetica,sans-Serif" font-size="10.00">BlockFactory/Core/Parameter.h</text>
</a>
</g>
</g>
<!-- Node1&#45;&gt;Node15 -->
<g id="edge20" class="edge">
<title>Node1&#45;&gt;Node15</title>
<path fill="none" stroke="midnightblue" d="M1128.71,-171.43C1061.44,-159.42 972.59,-143.55 915.24,-133.31"/>
<polygon fill="midnightblue" stroke="midnightblue" points="915.72,-129.84 905.26,-131.53 914.49,-136.73 915.72,-129.84"/>
</g>
<!-- Node16 -->
<g id="node16" class="node">
<title>Node16</title>
<g id="a_node16"><a xlink:title=" ">
<polygon fill="none" stroke="#bfbfbf" points="958.5,-112.5 958.5,-131.5 1130.5,-131.5 1130.5,-112.5 958.5,-112.5"/>
<text text-anchor="middle" x="1044.5" y="-119.5" font-family="Helvetica,sans-Serif" font-size="10.00">BlockFactory/Core/Parameters.h</text>
</a>
</g>
</g>
<!-- Node1&#45;&gt;Node16 -->
<g id="edge21" class="edge">
<title>Node1&#45;&gt;Node16</title>
<path fill="none" stroke="midnightblue" d="M1168.39,-168.5C1138.91,-157.67 1103.15,-144.54 1077.64,-135.17"/>
<polygon fill="midnightblue" stroke="midnightblue" points="1078.66,-131.81 1068.06,-131.65 1076.24,-138.39 1078.66,-131.81"/>
</g>
<!-- Node17 -->
<g id="node17" class="node">
<title>Node17</title>
<g id="a_node17"><a xlink:title=" ">
<polygon fill="none" stroke="#bfbfbf" points="1148.5,-112.5 1148.5,-131.5 1294.5,-131.5 1294.5,-112.5 1148.5,-112.5"/>
<text text-anchor="middle" x="1221.5" y="-119.5" font-family="Helvetica,sans-Serif" font-size="10.00">BlockFactory/Core/Signal.h</text>
</a>
</g>
</g>
<!-- Node1&#45;&gt;Node17 -->
<g id="edge22" class="edge">
<title>Node1&#45;&gt;Node17</title>
<path fill="none" stroke="midnightblue" d="M1221.5,-168.5C1221.5,-160.07 1221.5,-150.24 1221.5,-141.87"/>
<polygon fill="midnightblue" stroke="midnightblue" points="1225,-141.65 1221.5,-131.65 1218,-141.65 1225,-141.65"/>
</g>
<!-- Node18 -->
<g id="node18" class="node">
<title>Node18</title>
<g id="a_node18"><a xlink:title=" ">
<polygon fill="none" stroke="#bfbfbf" points="1313,-112.5 1313,-131.5 1382,-131.5 1382,-112.5 1313,-112.5"/>
<text text-anchor="middle" x="1347.5" y="-119.5" font-family="Helvetica,sans-Serif" font-size="10.00">Eigen/Core</text>
</a>
</g>
</g>
<!-- Node1&#45;&gt;Node18 -->
<g id="edge23" class="edge">
<title>Node1&#45;&gt;Node18</title>
<path fill="none" stroke="midnightblue" d="M1259.3,-168.5C1279.37,-158.15 1303.51,-145.69 1321.46,-136.43"/>
<polygon fill="midnightblue" stroke="midnightblue" points="1323.44,-139.35 1330.73,-131.65 1320.24,-133.13 1323.44,-139.35"/>
</g>
<!-- Node19 -->
<g id="node19" class="node">
<title>Node19</title>
<g id="a_node19"><a xlink:title=" ">
<polygon fill="none" stroke="#bfbfbf" points="1400.5,-112.5 1400.5,-131.5 1536.5,-131.5 1536.5,-112.5 1400.5,-112.5"/>
<text text-anchor="middle" x="1468.5" y="-119.5" font-family="Helvetica,sans-Serif" font-size="10.00">iDynTree/EigenHelpers.h</text>
</a>
</g>
</g>
<!-- Node1&#45;&gt;Node19 -->
<g id="edge24" class="edge">
<title>Node1&#45;&gt;Node19</title>
<path fill="none" stroke="midnightblue" d="M1295.61,-168.5C1338.16,-157.3 1390.08,-143.64 1425.85,-134.22"/>
<polygon fill="midnightblue" stroke="midnightblue" points="1427.17,-137.5 1435.95,-131.57 1425.38,-130.73 1427.17,-137.5"/>
</g>
<!-- Node20 -->
<g id="node20" class="node">
<title>Node20</title>
<g id="a_node20"><a xlink:title=" ">
<polygon fill="none" stroke="#bfbfbf" points="1554.5,-112.5 1554.5,-131.5 1674.5,-131.5 1674.5,-112.5 1554.5,-112.5"/>
<text text-anchor="middle" x="1614.5" y="-119.5" font-family="Helvetica,sans-Serif" font-size="10.00">iDynTree/Transform.h</text>
</a>
</g>
</g>
<!-- Node1&#45;&gt;Node20 -->
<g id="edge25" class="edge">
<title>Node1&#45;&gt;Node20</title>
<path fill="none" stroke="midnightblue" d="M1314.14,-172.68C1387.91,-160.48 1489.1,-143.74 1553.14,-133.15"/>
<polygon fill="midnightblue" stroke="midnightblue" points="1553.8,-136.59 1563.09,-131.5 1552.66,-129.68 1553.8,-136.59"/>
</g>
<!-- Node21 -->
<g id="node21" class="node">
<title>Node21</title>
<g id="a_node21"><a xlink:title=" ">
<polygon fill="none" stroke="#bfbfbf" points="1693,-112.5 1693,-131.5 1868,-131.5 1868,-112.5 1693,-112.5"/>
<text text-anchor="middle" x="1780.5" y="-119.5" font-family="Helvetica,sans-Serif" font-size="10.00">iDynTree/KinDynComputations.h</text>
</a>
</g>
</g>
<!-- Node1&#45;&gt;Node21 -->
<g id="edge26" class="edge">
<title>Node1&#45;&gt;Node21</title>
<path fill="none" stroke="midnightblue" d="M1314.12,-177.23C1420.87,-164.82 1594.74,-144.6 1697.33,-132.67"/>
<polygon fill="midnightblue" stroke="midnightblue" points="1697.8,-136.14 1707.33,-131.51 1697,-129.19 1697.8,-136.14"/>
</g>
<!-- Node22 -->
<g id="node22" class="node">
<title>Node22</title>
<g id="a_node22"><a xlink:title=" ">
<polygon fill="none" stroke="#bfbfbf" points="1886.5,-112.5 1886.5,-131.5 1992.5,-131.5 1992.5,-112.5 1886.5,-112.5"/>
<text text-anchor="middle" x="1939.5" y="-119.5" font-family="Helvetica,sans-Serif" font-size="10.00">iDynTree/Indices.h</text>
</a>
</g>
</g>
<!-- Node1&#45;&gt;Node22 -->
<g id="edge27" class="edge">
<title>Node1&#45;&gt;Node22</title>
<path fill="none" stroke="midnightblue" d="M1314.01,-181.83C1439.14,-173.1 1669.51,-155.65 1876.29,-132.08"/>
<polygon fill="midnightblue" stroke="midnightblue" points="1876.89,-135.53 1886.43,-130.91 1876.09,-128.58 1876.89,-135.53"/>
</g>
<!-- Node23 -->
<g id="node23" class="node">
<title>Node23</title>
<g id="a_node23"><a xlink:title=" ">
<polygon fill="none" stroke="#bfbfbf" points="2011,-112.5 2011,-131.5 2068,-131.5 2068,-112.5 2011,-112.5"/>
<text text-anchor="middle" x="2039.5" y="-119.5" font-family="Helvetica,sans-Serif" font-size="10.00">ostream</text>
</a>
</g>
</g>
<!-- Node1&#45;&gt;Node23 -->
<g id="edge28" class="edge">
<title>Node1&#45;&gt;Node23</title>
<path fill="none" stroke="midnightblue" d="M1314.19,-186.16C1458.92,-182.22 1747.35,-170.1 2000.82,-131.83"/>
<polygon fill="midnightblue" stroke="midnightblue" points="2001.61,-135.25 2010.96,-130.28 2000.55,-128.33 2001.61,-135.25"/>
</g>
<!-- Node24 -->
<g id="node24" class="node">
<title>Node24</title>
<g id="a_node24"><a xlink:title=" ">
<polygon fill="none" stroke="#bfbfbf" points="2086,-112.5 2086,-131.5 2127,-131.5 2127,-112.5 2086,-112.5"/>
<text text-anchor="middle" x="2106.5" y="-119.5" font-family="Helvetica,sans-Serif" font-size="10.00">tuple</text>
</a>
</g>
</g>
<!-- Node1&#45;&gt;Node24 -->
<g id="edge29" class="edge">
<title>Node1&#45;&gt;Node24</title>
<path fill="none" stroke="midnightblue" d="M1314.32,-184.69C1500.56,-177.61 1915.04,-159.5 2075.54,-131.92"/>
<polygon fill="midnightblue" stroke="midnightblue" points="2076.51,-135.3 2085.74,-130.09 2075.28,-128.41 2076.51,-135.3"/>
</g>
<!-- Node3 -->
<g id="node3" class="node">
<title>Node3</title>
<g id="a_node3"><a xlink:href="_w_b_block_8h.html" target="_top" xlink:title=" ">
<polygon fill="none" stroke="black" points="0,-56.5 0,-75.5 153,-75.5 153,-56.5 0,-56.5"/>
<text text-anchor="middle" x="76.5" y="-63.5" font-family="Helvetica,sans-Serif" font-size="10.00">WBToolbox/Base/WBBlock.h</text>
</a>
</g>
</g>
<!-- Node2&#45;&gt;Node3 -->
<g id="edge2" class="edge">
<title>Node2&#45;&gt;Node3</title>
<path fill="none" stroke="midnightblue" d="M175.8,-112.44C156.56,-103.64 126.35,-89.81 104.3,-79.72"/>
<polygon fill="midnightblue" stroke="midnightblue" points="105.66,-76.5 95.11,-75.52 102.75,-82.86 105.66,-76.5"/>
</g>
<!-- Node5 -->
<g id="node5" class="node">
<title>Node5</title>
<g id="a_node5"><a xlink:title=" ">
<polygon fill="none" stroke="#bfbfbf" points="171.5,-0.5 171.5,-19.5 229.5,-19.5 229.5,-0.5 171.5,-0.5"/>
<text text-anchor="middle" x="200.5" y="-7.5" font-family="Helvetica,sans-Serif" font-size="10.00">memory</text>
</a>
</g>
</g>
<!-- Node2&#45;&gt;Node5 -->
<g id="edge6" class="edge">
<title>Node2&#45;&gt;Node5</title>
<path fill="none" stroke="midnightblue" d="M194.97,-112.37C195.94,-94.62 198.17,-53.67 199.49,-29.6"/>
<polygon fill="midnightblue" stroke="midnightblue" points="202.98,-29.77 200.03,-19.59 195.99,-29.39 202.98,-29.77"/>
</g>
<!-- Node6 -->
<g id="node6" class="node">
<title>Node6</title>
<g id="a_node6"><a xlink:title=" ">
<polygon fill="none" stroke="#bfbfbf" points="250.5,-0.5 250.5,-19.5 294.5,-19.5 294.5,-0.5 250.5,-0.5"/>
<text text-anchor="middle" x="272.5" y="-7.5" font-family="Helvetica,sans-Serif" font-size="10.00">string</text>
</a>
</g>
</g>
<!-- Node2&#45;&gt;Node6 -->
<g id="edge7" class="edge">
<title>Node2&#45;&gt;Node6</title>
<path fill="none" stroke="midnightblue" d="M200.06,-112.49C208.27,-99.98 224.23,-75.95 238.5,-56 245.35,-46.43 253.27,-35.92 259.74,-27.47"/>
<polygon fill="midnightblue" stroke="midnightblue" points="262.52,-29.59 265.85,-19.53 256.97,-25.32 262.52,-29.59"/>
</g>
<!-- Node4 -->
<g id="node4" class="node">
<title>Node4</title>
<g id="a_node4"><a xlink:title=" ">
<polygon fill="none" stroke="#bfbfbf" points="5,-0.5 5,-19.5 148,-19.5 148,-0.5 5,-0.5"/>
<text text-anchor="middle" x="76.5" y="-7.5" font-family="Helvetica,sans-Serif" font-size="10.00">BlockFactory/Core/Block.h</text>
</a>
</g>
</g>
<!-- Node3&#45;&gt;Node4 -->
<g id="edge3" class="edge">
<title>Node3&#45;&gt;Node4</title>
<path fill="none" stroke="midnightblue" d="M76.5,-56.08C76.5,-49.01 76.5,-38.86 76.5,-29.99"/>
<polygon fill="midnightblue" stroke="midnightblue" points="80,-29.75 76.5,-19.75 73,-29.75 80,-29.75"/>
</g>
<!-- Node3&#45;&gt;Node5 -->
<g id="edge4" class="edge">
<title>Node3&#45;&gt;Node5</title>
<path fill="none" stroke="midnightblue" d="M96.15,-56.44C116.46,-47.6 148.4,-33.69 171.6,-23.59"/>
<polygon fill="midnightblue" stroke="midnightblue" points="173.17,-26.72 180.94,-19.52 170.38,-20.3 173.17,-26.72"/>
</g>
<!-- Node3&#45;&gt;Node6 -->
<g id="edge5" class="edge">
<title>Node3&#45;&gt;Node6</title>
<path fill="none" stroke="midnightblue" d="M107.56,-56.44C143.96,-46.41 203.99,-29.88 240.71,-19.76"/>
<polygon fill="midnightblue" stroke="midnightblue" points="241.7,-23.12 250.41,-17.09 239.84,-16.37 241.7,-23.12"/>
</g>
<!-- Node7&#45;&gt;Node5 -->
<g id="edge10" class="edge">
<title>Node7&#45;&gt;Node5</title>
<path fill="none" stroke="midnightblue" d="M471.93,-56.47C412.25,-48.18 320.57,-34.71 241.5,-20 240.9,-19.89 240.29,-19.77 239.67,-19.66"/>
<polygon fill="midnightblue" stroke="midnightblue" points="240.06,-16.16 229.57,-17.62 238.68,-23.03 240.06,-16.16"/>
</g>
<!-- Node7&#45;&gt;Node6 -->
<g id="edge11" class="edge">
<title>Node7&#45;&gt;Node6</title>
<path fill="none" stroke="midnightblue" d="M485.23,-56.43C440.46,-48.52 373,-35.94 304.87,-19.92"/>
<polygon fill="midnightblue" stroke="midnightblue" points="305.36,-16.43 294.82,-17.53 303.74,-23.24 305.36,-16.43"/>
</g>
<!-- Node8 -->
<g id="node8" class="node">
<title>Node8</title>
<g id="a_node8"><a xlink:title=" ">
<polygon fill="none" stroke="#bfbfbf" points="565.5,-0.5 565.5,-19.5 607.5,-19.5 607.5,-0.5 565.5,-0.5"/>
<text text-anchor="middle" x="586.5" y="-7.5" font-family="Helvetica,sans-Serif" font-size="10.00">array</text>
</a>
</g>
</g>
<!-- Node7&#45;&gt;Node8 -->
<g id="edge9" class="edge">
<title>Node7&#45;&gt;Node8</title>
<path fill="none" stroke="midnightblue" d="M543.92,-56.08C551.35,-48.22 562.35,-36.57 571.31,-27.08"/>
<polygon fill="midnightblue" stroke="midnightblue" points="573.91,-29.42 578.24,-19.75 568.82,-24.62 573.91,-29.42"/>
</g>
<!-- Node9 -->
<g id="node9" class="node">
<title>Node9</title>
<g id="a_node9"><a xlink:title=" ">
<polygon fill="none" stroke="#bfbfbf" points="500,-0.5 500,-19.5 547,-19.5 547,-0.5 500,-0.5"/>
<text text-anchor="middle" x="523.5" y="-7.5" font-family="Helvetica,sans-Serif" font-size="10.00">vector</text>
</a>
</g>
</g>
<!-- Node7&#45;&gt;Node9 -->
<g id="edge12" class="edge">
<title>Node7&#45;&gt;Node9</title>
<path fill="none" stroke="midnightblue" d="M533.52,-56.08C531.93,-48.93 529.64,-38.64 527.65,-29.69"/>
<polygon fill="midnightblue" stroke="midnightblue" points="531.03,-28.75 525.44,-19.75 524.2,-30.27 531.03,-28.75"/>
</g>
<!-- Node10&#45;&gt;Node5 -->
<g id="edge14" class="edge">
<title>Node10&#45;&gt;Node5</title>
<path fill="none" stroke="midnightblue" d="M316.63,-56.44C293.72,-47.48 257.52,-33.31 231.63,-23.18"/>
<polygon fill="midnightblue" stroke="midnightblue" points="232.85,-19.9 222.26,-19.52 230.3,-26.42 232.85,-19.9"/>
</g>
<!-- Node10&#45;&gt;Node6 -->
<g id="edge15" class="edge">
<title>Node10&#45;&gt;Node6</title>
<path fill="none" stroke="midnightblue" d="M327.9,-56.32C318.04,-48.26 303.15,-36.08 291.28,-26.37"/>
<polygon fill="midnightblue" stroke="midnightblue" points="293.25,-23.46 283.3,-19.83 288.82,-28.88 293.25,-23.46"/>
</g>
<!-- Node11 -->
<g id="node11" class="node">
<title>Node11</title>
<g id="a_node11"><a xlink:title=" ">
<polygon fill="none" stroke="#bfbfbf" points="377,-0.5 377,-19.5 470,-19.5 470,-0.5 377,-0.5"/>
<text text-anchor="middle" x="423.5" y="-7.5" font-family="Helvetica,sans-Serif" font-size="10.00">unordered_map</text>
</a>
</g>
</g>
<!-- Node10&#45;&gt;Node11 -->
<g id="edge16" class="edge">
<title>Node10&#45;&gt;Node11</title>
<path fill="none" stroke="midnightblue" d="M352.16,-56.32C365.42,-47.9 385.77,-34.97 401.35,-25.07"/>
<polygon fill="midnightblue" stroke="midnightblue" points="403.31,-27.97 409.88,-19.65 399.56,-22.06 403.31,-27.97"/>
</g>
<!-- Node12 -->
<g id="node12" class="node">
<title>Node12</title>
<g id="a_node12"><a xlink:title=" ">
<polygon fill="none" stroke="#bfbfbf" points="314,-0.5 314,-19.5 359,-19.5 359,-0.5 314,-0.5"/>
<text text-anchor="middle" x="336.5" y="-7.5" font-family="Helvetica,sans-Serif" font-size="10.00">utility</text>
</a>
</g>
</g>
<!-- Node10&#45;&gt;Node12 -->
<g id="edge17" class="edge">
<title>Node10&#45;&gt;Node12</title>
<path fill="none" stroke="midnightblue" d="M338.17,-56.08C337.91,-49.01 337.53,-38.86 337.2,-29.99"/>
<polygon fill="midnightblue" stroke="midnightblue" points="340.69,-29.61 336.82,-19.75 333.7,-29.87 340.69,-29.61"/>
</g>
</g>
</svg>
