<?xml version="1.0" encoding="UTF-8" standalone="no"?>
<!DOCTYPE svg PUBLIC "-//W3C//DTD SVG 1.1//EN"
 "http://www.w3.org/Graphics/SVG/1.1/DTD/svg11.dtd">
<!-- Generated by graphviz version 2.38.0 (20140413.2041)
 -->
<!-- Title: /home/travis/build/robotology/wb&#45;toolbox/toolbox/library/src/ForwardKinematics.cpp Pages: 1 -->
<!--zoomable 229 -->
<svg id="main" version="1.1" xmlns="http://www.w3.org/2000/svg" xmlns:xlink="http://www.w3.org/1999/xlink" xml:space="preserve" onload="init(evt)">
<style type="text/css"><![CDATA[
.edge:hover path { stroke: red; }
.edge:hover polygon { stroke: red; fill: red; }
]]></style>
<script type="text/javascript"><![CDATA[
var edges = document.getElementsByTagName('g');
if (edges && edges.length) {
  for (var i=0;i<edges.length;i++) {
    if (edges[i].id.substr(0,4)=='edge') {
      edges[i].setAttribute('class','edge');
    }
  }
}
]]></script>
        <defs>
                <circle id="rim" cx="0" cy="0" r="7"/>
                <circle id="rim2" cx="0" cy="0" r="3.5"/>
                <g id="zoomPlus">
                        <use xlink:href="#rim" fill="#404040">
                                <set attributeName="fill" to="#808080" begin="zoomplus.mouseover" end="zoomplus.mouseout"/>
                        </use>
                        <path d="M-4,0h8M0,-4v8" fill="none" stroke="white" stroke-width="1.5" pointer-events="none"/>
                </g>
                <g id="zoomMin">
                        <use xlink:href="#rim" fill="#404040">
                                <set attributeName="fill" to="#808080" begin="zoomminus.mouseover" end="zoomminus.mouseout"/>
                        </use>
                        <path d="M-4,0h8" fill="none" stroke="white" stroke-width="1.5" pointer-events="none"/>
                </g>
                <g id="dirArrow">
                        <path fill="none" stroke="white" stroke-width="1.5" d="M0,-3.0v7 M-2.5,-0.5L0,-3.0L2.5,-0.5"/>
                </g>
               <g id="resetDef">
                       <use xlink:href="#rim2" fill="#404040">
                               <set attributeName="fill" to="#808080" begin="reset.mouseover" end="reset.mouseout"/>
                       </use>
               </g>
        </defs>

<script type="text/javascript">
var viewWidth = 2175;
var viewHeight = 229;
var sectionId = 'dynsection-0';
</script>
<script xlink:href="svgpan.js"/>
<svg id="graph" class="graph">
<g id="viewport">
<title>/home/travis/build/robotology/wb&#45;toolbox/toolbox/library/src/ForwardKinematics.cpp</title>
<!-- Node1 -->
<g id="node1" class="node"><title>Node1</title>
<polygon fill="#bfbfbf" stroke="black" points="1125.5,-168.5 1125.5,-220.5 1270.5,-220.5 1270.5,-168.5 1125.5,-168.5"/>
<text text-anchor="start" x="1133.5" y="-208.5" font-family="Helvetica,sans-Serif" font-size="10.00">/home/travis/build</text>
<text text-anchor="start" x="1133.5" y="-197.5" font-family="Helvetica,sans-Serif" font-size="10.00">/robotology/wb&#45;toolbox</text>
<text text-anchor="start" x="1133.5" y="-186.5" font-family="Helvetica,sans-Serif" font-size="10.00">/toolbox/library/src/Forward</text>
<text text-anchor="middle" x="1198" y="-175.5" font-family="Helvetica,sans-Serif" font-size="10.00">Kinematics.cpp</text>
</g>
<!-- Node2 -->
<g id="node2" class="node"><title>Node2</title>
<g id="a_node2"><a xlink:href="_forward_kinematics_8h.html" target="_top" xlink:title="WBToolbox/Block/ForwardKinematics.h">
<polygon fill="none" stroke="black" points="88.5,-112.5 88.5,-131.5 285.5,-131.5 285.5,-112.5 88.5,-112.5"/>
<text text-anchor="middle" x="187" y="-119.5" font-family="Helvetica,sans-Serif" font-size="10.00">WBToolbox/Block/ForwardKinematics.h</text>
</a>
</g>
</g>
<!-- Node1&#45;&gt;Node2 -->
<g id="edge1" class="edge"><title>Node1&#45;&gt;Node2</title>
<path fill="none" stroke="midnightblue" d="M1125.23,-188.469C974.095,-178.014 615.176,-153.148 314,-132 308.138,-131.588 302.124,-131.165 296.052,-130.737"/>
<polygon fill="midnightblue" stroke="midnightblue" points="296.018,-127.226 285.797,-130.014 295.526,-134.209 296.018,-127.226"/>
</g>
<!-- Node7 -->
<g id="node7" class="node"><title>Node7</title>
<g id="a_node7"><a xlink:href="_configuration_8h.html" target="_top" xlink:title="WBToolbox/Base/Configuration.h">
<polygon fill="none" stroke="black" points="434,-56.5 434,-75.5 604,-75.5 604,-56.5 434,-56.5"/>
<text text-anchor="middle" x="519" y="-63.5" font-family="Helvetica,sans-Serif" font-size="10.00">WBToolbox/Base/Configuration.h</text>
</a>
</g>
</g>
<!-- Node1&#45;&gt;Node7 -->
<g id="edge8" class="edge"><title>Node1&#45;&gt;Node7</title>
<path fill="none" stroke="midnightblue" d="M1125.18,-193.506C935.02,-192.764 434.775,-185.682 385,-132 359.532,-104.532 405.801,-87.3367 450.771,-77.5837"/>
<polygon fill="midnightblue" stroke="midnightblue" points="451.531,-81.0006 460.62,-75.5559 450.12,-74.1444 451.531,-81.0006"/>
</g>
<!-- Node10 -->
<g id="node10" class="node"><title>Node10</title>
<g id="a_node10"><a xlink:href="_robot_interface_8h.html" target="_top" xlink:title="WBToolbox/Base/RobotInterface.h">
<polygon fill="none" stroke="black" points="240.5,-56.5 240.5,-75.5 415.5,-75.5 415.5,-56.5 240.5,-56.5"/>
<text text-anchor="middle" x="328" y="-63.5" font-family="Helvetica,sans-Serif" font-size="10.00">WBToolbox/Base/RobotInterface.h</text>
</a>
</g>
</g>
<!-- Node1&#45;&gt;Node10 -->
<g id="edge13" class="edge"><title>Node1&#45;&gt;Node10</title>
<path fill="none" stroke="midnightblue" d="M1125.41,-191.6C936.283,-186.158 438.541,-168.502 374,-132 355.619,-121.604 342.796,-100.473 335.442,-85.1181"/>
<polygon fill="midnightblue" stroke="midnightblue" points="338.48,-83.3343 331.224,-75.6139 332.082,-86.174 338.48,-83.3343"/>
</g>
<!-- Node13 -->
<g id="node13" class="node"><title>Node13</title>
<polygon fill="none" stroke="#bfbfbf" points="394,-112.5 394,-131.5 588,-131.5 588,-112.5 394,-112.5"/>
<text text-anchor="middle" x="491" y="-119.5" font-family="Helvetica,sans-Serif" font-size="10.00">BlockFactory/Core/BlockInformation.h</text>
</g>
<!-- Node1&#45;&gt;Node13 -->
<g id="edge18" class="edge"><title>Node1&#45;&gt;Node13</title>
<path fill="none" stroke="midnightblue" d="M1125.33,-186.254C996.805,-173.437 729.475,-146.78 586.335,-132.506"/>
<polygon fill="midnightblue" stroke="midnightblue" points="586.545,-129.01 576.247,-131.501 585.85,-135.976 586.545,-129.01"/>
</g>
<!-- Node14 -->
<g id="node14" class="node"><title>Node14</title>
<polygon fill="none" stroke="#bfbfbf" points="606.5,-112.5 606.5,-131.5 737.5,-131.5 737.5,-112.5 606.5,-112.5"/>
<text text-anchor="middle" x="672" y="-119.5" font-family="Helvetica,sans-Serif" font-size="10.00">BlockFactory/Core/Log.h</text>
</g>
<!-- Node1&#45;&gt;Node14 -->
<g id="edge19" class="edge"><title>Node1&#45;&gt;Node14</title>
<path fill="none" stroke="midnightblue" d="M1125.41,-183.771C1025.42,-170.369 846.266,-146.357 745.69,-132.877"/>
<polygon fill="midnightblue" stroke="midnightblue" points="745.989,-129.386 735.613,-131.526 745.059,-136.324 745.989,-129.386"/>
</g>
<!-- Node15 -->
<g id="node15" class="node"><title>Node15</title>
<polygon fill="none" stroke="#bfbfbf" points="756,-112.5 756,-131.5 920,-131.5 920,-112.5 756,-112.5"/>
<text text-anchor="middle" x="838" y="-119.5" font-family="Helvetica,sans-Serif" font-size="10.00">BlockFactory/Core/Parameter.h</text>
</g>
<!-- Node1&#45;&gt;Node15 -->
<g id="edge20" class="edge"><title>Node1&#45;&gt;Node15</title>
<path fill="none" stroke="midnightblue" d="M1125.15,-179.233C1055.96,-165.684 953.566,-145.632 891.577,-133.492"/>
<polygon fill="midnightblue" stroke="midnightblue" points="892.098,-130.028 881.612,-131.541 890.753,-136.897 892.098,-130.028"/>
</g>
<!-- Node16 -->
<g id="node16" class="node"><title>Node16</title>
<polygon fill="none" stroke="#bfbfbf" points="938,-112.5 938,-131.5 1108,-131.5 1108,-112.5 938,-112.5"/>
<text text-anchor="middle" x="1023" y="-119.5" font-family="Helvetica,sans-Serif" font-size="10.00">BlockFactory/Core/Parameters.h</text>
</g>
<!-- Node1&#45;&gt;Node16 -->
<g id="edge21" class="edge"><title>Node1&#45;&gt;Node16</title>
<path fill="none" stroke="midnightblue" d="M1135.81,-168.446C1107.91,-157.207 1076.26,-144.455 1053.59,-135.325"/>
<polygon fill="midnightblue" stroke="midnightblue" points="1054.75,-132.017 1044.17,-131.527 1052.13,-138.51 1054.75,-132.017"/>
</g>
<!-- Node17 -->
<g id="node17" class="node"><title>Node17</title>
<polygon fill="none" stroke="#bfbfbf" points="1126.5,-112.5 1126.5,-131.5 1269.5,-131.5 1269.5,-112.5 1126.5,-112.5"/>
<text text-anchor="middle" x="1198" y="-119.5" font-family="Helvetica,sans-Serif" font-size="10.00">BlockFactory/Core/Signal.h</text>
</g>
<!-- Node1&#45;&gt;Node17 -->
<g id="edge22" class="edge"><title>Node1&#45;&gt;Node17</title>
<path fill="none" stroke="midnightblue" d="M1198,-168.446C1198,-159.73 1198,-150.104 1198,-141.964"/>
<polygon fill="midnightblue" stroke="midnightblue" points="1201.5,-141.695 1198,-131.695 1194.5,-141.696 1201.5,-141.695"/>
</g>
<!-- Node18 -->
<g id="node18" class="node"><title>Node18</title>
<polygon fill="none" stroke="#bfbfbf" points="1288,-112.5 1288,-131.5 1356,-131.5 1356,-112.5 1288,-112.5"/>
<text text-anchor="middle" x="1322" y="-119.5" font-family="Helvetica,sans-Serif" font-size="10.00">Eigen/Core</text>
</g>
<!-- Node1&#45;&gt;Node18 -->
<g id="edge23" class="edge"><title>Node1&#45;&gt;Node18</title>
<path fill="none" stroke="midnightblue" d="M1242.07,-168.446C1260.86,-157.761 1282.06,-145.709 1297.9,-136.702"/>
<polygon fill="midnightblue" stroke="midnightblue" points="1300.04,-139.512 1307,-131.527 1296.58,-133.427 1300.04,-139.512"/>
</g>
<!-- Node19 -->
<g id="node19" class="node"><title>Node19</title>
<polygon fill="none" stroke="#bfbfbf" points="1374,-112.5 1374,-131.5 1532,-131.5 1532,-112.5 1374,-112.5"/>
<text text-anchor="middle" x="1453" y="-119.5" font-family="Helvetica,sans-Serif" font-size="10.00">iDynTree/Core/EigenHelpers.h</text>
</g>
<!-- Node1&#45;&gt;Node19 -->
<g id="edge24" class="edge"><title>Node1&#45;&gt;Node19</title>
<path fill="none" stroke="midnightblue" d="M1270.73,-173.392C1316.68,-160.689 1374.34,-144.748 1412.36,-134.237"/>
<polygon fill="midnightblue" stroke="midnightblue" points="1413.35,-137.593 1422.06,-131.555 1411.49,-130.846 1413.35,-137.593"/>
</g>
<!-- Node20 -->
<g id="node20" class="node"><title>Node20</title>
<polygon fill="none" stroke="#bfbfbf" points="1550,-112.5 1550,-131.5 1692,-131.5 1692,-112.5 1550,-112.5"/>
<text text-anchor="middle" x="1621" y="-119.5" font-family="Helvetica,sans-Serif" font-size="10.00">iDynTree/Core/Transform.h</text>
</g>
<!-- Node1&#45;&gt;Node20 -->
<g id="edge25" class="edge"><title>Node1&#45;&gt;Node20</title>
<path fill="none" stroke="midnightblue" d="M1270.72,-181.381C1352.33,-167.779 1483.29,-145.951 1559.85,-133.192"/>
<polygon fill="midnightblue" stroke="midnightblue" points="1560.53,-136.626 1569.82,-131.53 1559.38,-129.722 1560.53,-136.626"/>
</g>
<!-- Node21 -->
<g id="node21" class="node"><title>Node21</title>
<polygon fill="none" stroke="#bfbfbf" points="1710,-112.5 1710,-131.5 1880,-131.5 1880,-112.5 1710,-112.5"/>
<text text-anchor="middle" x="1795" y="-119.5" font-family="Helvetica,sans-Serif" font-size="10.00">iDynTree/KinDynComputations.h</text>
</g>
<!-- Node1&#45;&gt;Node21 -->
<g id="edge26" class="edge"><title>Node1&#45;&gt;Node21</title>
<path fill="none" stroke="midnightblue" d="M1270.61,-184.926C1382.33,-171.733 1595.71,-146.534 1712.9,-132.695"/>
<polygon fill="midnightblue" stroke="midnightblue" points="1713.38,-136.163 1722.9,-131.515 1712.56,-129.212 1713.38,-136.163"/>
</g>
<!-- Node22 -->
<g id="node22" class="node"><title>Node22</title>
<polygon fill="none" stroke="#bfbfbf" points="1898,-112.5 1898,-131.5 2032,-131.5 2032,-112.5 1898,-112.5"/>
<text text-anchor="middle" x="1965" y="-119.5" font-family="Helvetica,sans-Serif" font-size="10.00">iDynTree/Model/Indices.h</text>
</g>
<!-- Node1&#45;&gt;Node22 -->
<g id="edge27" class="edge"><title>Node1&#45;&gt;Node22</title>
<path fill="none" stroke="midnightblue" d="M1270.69,-187.731C1394.91,-177.717 1656.25,-155.98 1887.91,-132.087"/>
<polygon fill="midnightblue" stroke="midnightblue" points="1888.29,-135.567 1897.88,-131.056 1887.57,-128.604 1888.29,-135.567"/>
</g>
<!-- Node23 -->
<g id="node23" class="node"><title>Node23</title>
<polygon fill="none" stroke="#bfbfbf" points="2050.5,-112.5 2050.5,-131.5 2107.5,-131.5 2107.5,-112.5 2050.5,-112.5"/>
<text text-anchor="middle" x="2079" y="-119.5" font-family="Helvetica,sans-Serif" font-size="10.00">ostream</text>
</g>
<!-- Node1&#45;&gt;Node23 -->
<g id="edge28" class="edge"><title>Node1&#45;&gt;Node23</title>
<path fill="none" stroke="midnightblue" d="M1270.61,-192.102C1415.38,-188.468 1750.21,-175.824 2040.17,-131.853"/>
<polygon fill="midnightblue" stroke="midnightblue" points="2041.11,-135.249 2050.46,-130.275 2040.05,-128.33 2041.11,-135.249"/>
</g>
<!-- Node24 -->
<g id="node24" class="node"><title>Node24</title>
<polygon fill="none" stroke="#bfbfbf" points="2125.5,-112.5 2125.5,-131.5 2166.5,-131.5 2166.5,-112.5 2125.5,-112.5"/>
<text text-anchor="middle" x="2146" y="-119.5" font-family="Helvetica,sans-Serif" font-size="10.00">tuple</text>
</g>
<!-- Node1&#45;&gt;Node24 -->
<g id="edge29" class="edge"><title>Node1&#45;&gt;Node24</title>
<path fill="none" stroke="midnightblue" d="M1270.51,-194.375C1425.08,-195.007 1798.17,-189.957 2115.4,-131.903"/>
<polygon fill="midnightblue" stroke="midnightblue" points="2116.04,-135.344 2125.24,-130.082 2114.77,-128.46 2116.04,-135.344"/>
</g>
<!-- Node3 -->
<g id="node3" class="node"><title>Node3</title>
<g id="a_node3"><a xlink:href="_w_b_block_8h.html" target="_top" xlink:title="WBToolbox/Base/WBBlock.h">
<polygon fill="none" stroke="black" points="0,-56.5 0,-75.5 146,-75.5 146,-56.5 0,-56.5"/>
<text text-anchor="middle" x="73" y="-63.5" font-family="Helvetica,sans-Serif" font-size="10.00">WBToolbox/Base/WBBlock.h</text>
</a>
</g>
</g>
<!-- Node2&#45;&gt;Node3 -->
<g id="edge2" class="edge"><title>Node2&#45;&gt;Node3</title>
<path fill="none" stroke="midnightblue" d="M168.936,-112.444C150.425,-103.675 121.419,-89.9355 100.145,-79.8579"/>
<polygon fill="midnightblue" stroke="midnightblue" points="101.515,-76.6343 90.9791,-75.5164 98.5182,-82.9604 101.515,-76.6343"/>
</g>
<!-- Node5 -->
<g id="node5" class="node"><title>Node5</title>
<polygon fill="none" stroke="#bfbfbf" points="165.5,-0.5 165.5,-19.5 222.5,-19.5 222.5,-0.5 165.5,-0.5"/>
<text text-anchor="middle" x="194" y="-7.5" font-family="Helvetica,sans-Serif" font-size="10.00">memory</text>
</g>
<!-- Node2&#45;&gt;Node5 -->
<g id="edge6" class="edge"><title>Node2&#45;&gt;Node5</title>
<path fill="none" stroke="midnightblue" d="M187.549,-112.368C188.679,-94.617 191.285,-53.6664 192.817,-29.5974"/>
<polygon fill="midnightblue" stroke="midnightblue" points="196.311,-29.7935 193.453,-19.5914 189.325,-29.3489 196.311,-29.7935"/>
</g>
<!-- Node6 -->
<g id="node6" class="node"><title>Node6</title>
<polygon fill="none" stroke="#bfbfbf" points="243,-0.5 243,-19.5 287,-19.5 287,-0.5 243,-0.5"/>
<text text-anchor="middle" x="265" y="-7.5" font-family="Helvetica,sans-Serif" font-size="10.00">string</text>
</g>
<!-- Node2&#45;&gt;Node6 -->
<g id="edge7" class="edge"><title>Node2&#45;&gt;Node6</title>
<path fill="none" stroke="midnightblue" d="M192.557,-112.49C200.772,-99.9793 216.727,-75.9483 231,-56 237.851,-46.4254 245.766,-35.9182 252.235,-27.4664"/>
<polygon fill="midnightblue" stroke="midnightblue" points="255.02,-29.5867 258.348,-19.528 249.474,-25.3161 255.02,-29.5867"/>
</g>
<!-- Node4 -->
<g id="node4" class="node"><title>Node4</title>
<polygon fill="none" stroke="#bfbfbf" points="3,-0.5 3,-19.5 143,-19.5 143,-0.5 3,-0.5"/>
<text text-anchor="middle" x="73" y="-7.5" font-family="Helvetica,sans-Serif" font-size="10.00">BlockFactory/Core/Block.h</text>
</g>
<!-- Node3&#45;&gt;Node4 -->
<g id="edge3" class="edge"><title>Node3&#45;&gt;Node4</title>
<path fill="none" stroke="midnightblue" d="M73,-56.083C73,-49.0059 73,-38.8611 73,-29.9865"/>
<polygon fill="midnightblue" stroke="midnightblue" points="76.5001,-29.751 73,-19.7511 69.5001,-29.7511 76.5001,-29.751"/>
</g>
<!-- Node3&#45;&gt;Node5 -->
<g id="edge4" class="edge"><title>Node3&#45;&gt;Node5</title>
<path fill="none" stroke="midnightblue" d="M92.1728,-56.4435C111.909,-47.6356 142.885,-33.8116 165.493,-23.722"/>
<polygon fill="midnightblue" stroke="midnightblue" points="167.211,-26.788 174.917,-19.5164 164.359,-20.3957 167.211,-26.788"/>
</g>
<!-- Node3&#45;&gt;Node6 -->
<g id="edge5" class="edge"><title>Node3&#45;&gt;Node6</title>
<path fill="none" stroke="midnightblue" d="M103.423,-56.4435C138.743,-46.5098 196.748,-30.1958 232.806,-20.0544"/>
<polygon fill="midnightblue" stroke="midnightblue" points="234.121,-23.3205 242.8,-17.2437 232.226,-16.582 234.121,-23.3205"/>
</g>
<!-- Node7&#45;&gt;Node5 -->
<g id="edge10" class="edge"><title>Node7&#45;&gt;Node5</title>
<path fill="none" stroke="midnightblue" d="M457.647,-56.4842C399.794,-48.1775 310.753,-34.6782 234,-20 233.546,-19.9131 233.088,-19.8248 232.629,-19.7352"/>
<polygon fill="midnightblue" stroke="midnightblue" points="233.294,-16.2988 222.794,-17.7124 231.883,-23.1552 233.294,-16.2988"/>
</g>
<!-- Node7&#45;&gt;Node6 -->
<g id="edge11" class="edge"><title>Node7&#45;&gt;Node6</title>
<path fill="none" stroke="midnightblue" d="M471.571,-56.4413C428.583,-48.4469 363.298,-35.7181 297.096,-19.8676"/>
<polygon fill="midnightblue" stroke="midnightblue" points="297.866,-16.4532 287.324,-17.5066 296.222,-23.2574 297.866,-16.4532"/>
</g>
<!-- Node8 -->
<g id="node8" class="node"><title>Node8</title>
<polygon fill="none" stroke="#bfbfbf" points="550.5,-0.5 550.5,-19.5 591.5,-19.5 591.5,-0.5 550.5,-0.5"/>
<text text-anchor="middle" x="571" y="-7.5" font-family="Helvetica,sans-Serif" font-size="10.00">array</text>
</g>
<!-- Node7&#45;&gt;Node8 -->
<g id="edge9" class="edge"><title>Node7&#45;&gt;Node8</title>
<path fill="none" stroke="midnightblue" d="M527.587,-56.083C535.159,-48.2195 546.378,-36.5688 555.514,-27.0813"/>
<polygon fill="midnightblue" stroke="midnightblue" points="558.158,-29.3821 562.573,-19.7511 553.115,-24.5266 558.158,-29.3821"/>
</g>
<!-- Node9 -->
<g id="node9" class="node"><title>Node9</title>
<polygon fill="none" stroke="#bfbfbf" points="485.5,-0.5 485.5,-19.5 532.5,-19.5 532.5,-0.5 485.5,-0.5"/>
<text text-anchor="middle" x="509" y="-7.5" font-family="Helvetica,sans-Serif" font-size="10.00">vector</text>
</g>
<!-- Node7&#45;&gt;Node9 -->
<g id="edge12" class="edge"><title>Node7&#45;&gt;Node9</title>
<path fill="none" stroke="midnightblue" d="M517.349,-56.083C516.024,-48.9272 514.118,-38.6353 512.461,-29.6911"/>
<polygon fill="midnightblue" stroke="midnightblue" points="515.883,-28.9466 510.621,-19.7511 509,-30.2212 515.883,-28.9466"/>
</g>
<!-- Node10&#45;&gt;Node5 -->
<g id="edge14" class="edge"><title>Node10&#45;&gt;Node5</title>
<path fill="none" stroke="midnightblue" d="M306.767,-56.4435C284.616,-47.5171 249.681,-33.4387 224.564,-23.3168"/>
<polygon fill="midnightblue" stroke="midnightblue" points="225.717,-20.0079 215.133,-19.5164 223.1,-26.5006 225.717,-20.0079"/>
</g>
<!-- Node10&#45;&gt;Node6 -->
<g id="edge15" class="edge"><title>Node10&#45;&gt;Node6</title>
<path fill="none" stroke="midnightblue" d="M317.878,-56.324C308.474,-48.2631 294.256,-36.0765 282.931,-26.3695"/>
<polygon fill="midnightblue" stroke="midnightblue" points="285.177,-23.6844 275.306,-19.8339 280.621,-28.9993 285.177,-23.6844"/>
</g>
<!-- Node11 -->
<g id="node11" class="node"><title>Node11</title>
<polygon fill="none" stroke="#bfbfbf" points="365.5,-0.5 365.5,-19.5 458.5,-19.5 458.5,-0.5 365.5,-0.5"/>
<text text-anchor="middle" x="412" y="-7.5" font-family="Helvetica,sans-Serif" font-size="10.00">unordered_map</text>
</g>
<!-- Node10&#45;&gt;Node11 -->
<g id="edge16" class="edge"><title>Node10&#45;&gt;Node11</title>
<path fill="none" stroke="midnightblue" d="M341.496,-56.324C354.6,-47.9002 374.712,-34.9709 390.107,-25.0741"/>
<polygon fill="midnightblue" stroke="midnightblue" points="392.018,-28.0063 398.537,-19.6545 388.233,-22.118 392.018,-28.0063"/>
</g>
<!-- Node12 -->
<g id="node12" class="node"><title>Node12</title>
<polygon fill="none" stroke="#bfbfbf" points="306,-0.5 306,-19.5 348,-19.5 348,-0.5 306,-0.5"/>
<text text-anchor="middle" x="327" y="-7.5" font-family="Helvetica,sans-Serif" font-size="10.00">utility</text>
</g>
<!-- Node10&#45;&gt;Node12 -->
<g id="edge17" class="edge"><title>Node10&#45;&gt;Node12</title>
<path fill="none" stroke="midnightblue" d="M327.835,-56.083C327.704,-49.0059 327.516,-38.8611 327.352,-29.9865"/>
<polygon fill="midnightblue" stroke="midnightblue" points="330.847,-29.6845 327.162,-19.7511 323.848,-29.8142 330.847,-29.6845"/>
</g>
</g>
</svg>
        <g id="navigator" transform="translate(0 0)" fill="#404254">
                <rect fill="#f2f5e9" fill-opacity="0.5" stroke="#606060" stroke-width=".5" x="0" y="0" width="60" height="60"/>
                <use id="zoomplus" xlink:href="#zoomPlus" x="17" y="9" onmousedown="handleZoom(evt,'in')"/>
                <use id="zoomminus" xlink:href="#zoomMin" x="42" y="9" onmousedown="handleZoom(evt,'out')"/>
                <use id="reset" xlink:href="#resetDef" x="30" y="36" onmousedown="handleReset()"/>
                <g id="arrowUp" xlink:href="#dirArrow" transform="translate(30 24)" onmousedown="handlePan(0,-1)">
                  <use xlink:href="#rim" fill="#404040">
                        <set attributeName="fill" to="#808080" begin="arrowUp.mouseover" end="arrowUp.mouseout"/>
                  </use>
                  <path fill="none" stroke="white" stroke-width="1.5" d="M0,-3.0v7 M-2.5,-0.5L0,-3.0L2.5,-0.5"/>
                </g>
                <g id="arrowRight" xlink:href="#dirArrow" transform="rotate(90) translate(36 -43)" onmousedown="handlePan(1,0)">
                  <use xlink:href="#rim" fill="#404040">
                        <set attributeName="fill" to="#808080" begin="arrowRight.mouseover" end="arrowRight.mouseout"/>
                  </use>
                  <path fill="none" stroke="white" stroke-width="1.5" d="M0,-3.0v7 M-2.5,-0.5L0,-3.0L2.5,-0.5"/>
                </g>
                <g id="arrowDown" xlink:href="#dirArrow" transform="rotate(180) translate(-30 -48)" onmousedown="handlePan(0,1)">
                  <use xlink:href="#rim" fill="#404040">
                        <set attributeName="fill" to="#808080" begin="arrowDown.mouseover" end="arrowDown.mouseout"/>
                  </use>
                  <path fill="none" stroke="white" stroke-width="1.5" d="M0,-3.0v7 M-2.5,-0.5L0,-3.0L2.5,-0.5"/>
                </g>
                <g id="arrowLeft" xlink:href="#dirArrow" transform="rotate(270) translate(-36 17)" onmousedown="handlePan(-1,0)">
                  <use xlink:href="#rim" fill="#404040">
                        <set attributeName="fill" to="#808080" begin="arrowLeft.mouseover" end="arrowLeft.mouseout"/>
                  </use>
                  <path fill="none" stroke="white" stroke-width="1.5" d="M0,-3.0v7 M-2.5,-0.5L0,-3.0L2.5,-0.5"/>
                </g>
        </g>
        <svg viewBox="0 0 15 15" width="100%" height="30px" preserveAspectRatio="xMaxYMin meet">
         <g id="arrow_out" transform="scale(0.3 0.3)">
          <a xlink:href="_forward_kinematics_8cpp__incl_org.svg" target="_base">
           <rect id="button" ry="5" rx="5" y="6" x="6" height="38" width="38"
                fill="#f2f5e9" fill-opacity="0.5" stroke="#606060" stroke-width="1.0"/>
           <path id="arrow"
             d="M 11.500037,31.436501 C 11.940474,20.09759 22.043105,11.32322 32.158766,21.979434 L 37.068811,17.246167 C 37.068811,17.246167 37.088388,32 37.088388,32 L 22.160133,31.978069 C 22.160133,31.978069 26.997745,27.140456 26.997745,27.140456 C 18.528582,18.264221 13.291696,25.230495 11.500037,31.436501 z"
             style="fill:#404040;"/>
          </a>
         </g>
        </svg>
</svg>
