<?xml version="1.0" encoding="UTF-8" standalone="no"?>
<!DOCTYPE svg PUBLIC "-//W3C//DTD SVG 1.1//EN"
 "http://www.w3.org/Graphics/SVG/1.1/DTD/svg11.dtd">
<!-- Generated by graphviz version 2.43.0 (0)
 -->
<!-- Title: /home/runner/work/wb&#45;toolbox/wb&#45;toolbox/toolbox/library/src/GetLimits.cpp Pages: 1 -->
<svg width="2472pt" height="218pt"
 viewBox="0.00 0.00 2471.75 218.00" xmlns="http://www.w3.org/2000/svg" xmlns:xlink="http://www.w3.org/1999/xlink">
<g id="graph0" class="graph" transform="scale(1 1) rotate(0) translate(4 214)">
<title>/home/runner/work/wb&#45;toolbox/wb&#45;toolbox/toolbox/library/src/GetLimits.cpp</title>
<!-- Node1 -->
<g id="node1" class="node">
<title>Node1</title>
<g id="a_node1"><a xlink:title=" ">
<polygon fill="#bfbfbf" stroke="black" points="1287.75,-168.5 1287.75,-209.5 1442.75,-209.5 1442.75,-168.5 1287.75,-168.5"/>
<text text-anchor="start" x="1295.75" y="-197.5" font-family="Helvetica,sans-Serif" font-size="10.00">/home/runner/work/wb</text>
<text text-anchor="start" x="1295.75" y="-186.5" font-family="Helvetica,sans-Serif" font-size="10.00">&#45;toolbox/wb&#45;toolbox/toolbox</text>
<text text-anchor="middle" x="1365.25" y="-175.5" font-family="Helvetica,sans-Serif" font-size="10.00">/library/src/GetLimits.cpp</text>
</a>
</g>
</g>
<!-- Node2 -->
<g id="node2" class="node">
<title>Node2</title>
<g id="a_node2"><a xlink:href="_get_limits_8h.html" target="_top" xlink:title=" ">
<polygon fill="none" stroke="black" points="11.25,-112.5 11.25,-131.5 171.25,-131.5 171.25,-112.5 11.25,-112.5"/>
<text text-anchor="middle" x="91.25" y="-119.5" font-family="Helvetica,sans-Serif" font-size="10.00">WBToolbox/Block/GetLimits.h</text>
</a>
</g>
</g>
<!-- Node1&#45;&gt;Node2 -->
<g id="edge1" class="edge">
<title>Node1&#45;&gt;Node2</title>
<path fill="none" stroke="midnightblue" d="M1287.52,-185.77C1099.51,-180.06 605.01,-163.18 181.28,-132.04"/>
<polygon fill="midnightblue" stroke="midnightblue" points="181.52,-128.54 171.29,-131.3 181,-135.52 181.52,-128.54"/>
</g>
<!-- Node7 -->
<g id="node7" class="node">
<title>Node7</title>
<g id="a_node7"><a xlink:href="_configuration_8h.html" target="_top" xlink:title=" ">
<polygon fill="none" stroke="black" points="189.75,-112.5 189.75,-131.5 364.75,-131.5 364.75,-112.5 189.75,-112.5"/>
<text text-anchor="middle" x="277.25" y="-119.5" font-family="Helvetica,sans-Serif" font-size="10.00">WBToolbox/Base/Configuration.h</text>
</a>
</g>
</g>
<!-- Node1&#45;&gt;Node7 -->
<g id="edge8" class="edge">
<title>Node1&#45;&gt;Node7</title>
<path fill="none" stroke="midnightblue" d="M1287.55,-184.41C1120.98,-176.55 717.21,-156.5 379.25,-132 377.93,-131.9 376.6,-131.81 375.26,-131.71"/>
<polygon fill="midnightblue" stroke="midnightblue" points="375.11,-128.18 364.87,-130.91 374.57,-135.16 375.11,-128.18"/>
</g>
<!-- Node9 -->
<g id="node9" class="node">
<title>Node9</title>
<g id="a_node9"><a xlink:title=" ">
<polygon fill="none" stroke="#bfbfbf" points="360.75,-56.5 360.75,-75.5 407.75,-75.5 407.75,-56.5 360.75,-56.5"/>
<text text-anchor="middle" x="384.25" y="-63.5" font-family="Helvetica,sans-Serif" font-size="10.00">vector</text>
</a>
</g>
</g>
<!-- Node1&#45;&gt;Node9 -->
<g id="edge32" class="edge">
<title>Node1&#45;&gt;Node9</title>
<path fill="none" stroke="midnightblue" d="M1287.42,-186.74C1078.33,-182.88 515.17,-169.12 440.25,-132 419.47,-121.7 403.26,-99.89 393.74,-84.38"/>
<polygon fill="midnightblue" stroke="midnightblue" points="396.74,-82.58 388.7,-75.69 390.69,-86.1 396.74,-82.58"/>
</g>
<!-- Node10 -->
<g id="node10" class="node">
<title>Node10</title>
<g id="a_node10"><a xlink:href="_robot_interface_8h.html" target="_top" xlink:title=" ">
<polygon fill="none" stroke="black" points="426.25,-56.5 426.25,-75.5 608.25,-75.5 608.25,-56.5 426.25,-56.5"/>
<text text-anchor="middle" x="517.25" y="-63.5" font-family="Helvetica,sans-Serif" font-size="10.00">WBToolbox/Base/RobotInterface.h</text>
</a>
</g>
</g>
<!-- Node1&#45;&gt;Node10 -->
<g id="edge13" class="edge">
<title>Node1&#45;&gt;Node10</title>
<path fill="none" stroke="midnightblue" d="M1287.71,-186.11C1072,-180.49 478.78,-162.32 450.25,-132 432.65,-113.29 462.54,-92.82 487.86,-79.95"/>
<polygon fill="midnightblue" stroke="midnightblue" points="489.41,-83.09 496.88,-75.57 486.35,-76.79 489.41,-83.09"/>
</g>
<!-- Node13 -->
<g id="node13" class="node">
<title>Node13</title>
<g id="a_node13"><a xlink:title=" ">
<polygon fill="none" stroke="#bfbfbf" points="459.25,-112.5 459.25,-131.5 659.25,-131.5 659.25,-112.5 459.25,-112.5"/>
<text text-anchor="middle" x="559.25" y="-119.5" font-family="Helvetica,sans-Serif" font-size="10.00">BlockFactory/Core/BlockInformation.h</text>
</a>
</g>
</g>
<!-- Node1&#45;&gt;Node13 -->
<g id="edge18" class="edge">
<title>Node1&#45;&gt;Node13</title>
<path fill="none" stroke="midnightblue" d="M1287.63,-181.82C1160.8,-171.71 900.91,-150.94 669.63,-132.11"/>
<polygon fill="midnightblue" stroke="midnightblue" points="669.59,-128.6 659.34,-131.27 669.02,-135.57 669.59,-128.6"/>
</g>
<!-- Node14 -->
<g id="node14" class="node">
<title>Node14</title>
<g id="a_node14"><a xlink:title=" ">
<polygon fill="none" stroke="#bfbfbf" points="677.25,-112.5 677.25,-131.5 811.25,-131.5 811.25,-112.5 677.25,-112.5"/>
<text text-anchor="middle" x="744.25" y="-119.5" font-family="Helvetica,sans-Serif" font-size="10.00">BlockFactory/Core/Log.h</text>
</a>
</g>
</g>
<!-- Node1&#45;&gt;Node14 -->
<g id="edge19" class="edge">
<title>Node1&#45;&gt;Node14</title>
<path fill="none" stroke="midnightblue" d="M1287.6,-180.4C1183.86,-170.17 994.05,-151.14 821.42,-132.11"/>
<polygon fill="midnightblue" stroke="midnightblue" points="821.71,-128.63 811.38,-131.01 820.94,-135.58 821.71,-128.63"/>
</g>
<!-- Node15 -->
<g id="node15" class="node">
<title>Node15</title>
<g id="a_node15"><a xlink:title=" ">
<polygon fill="none" stroke="#bfbfbf" points="829.25,-112.5 829.25,-131.5 995.25,-131.5 995.25,-112.5 829.25,-112.5"/>
<text text-anchor="middle" x="912.25" y="-119.5" font-family="Helvetica,sans-Serif" font-size="10.00">BlockFactory/Core/Parameter.h</text>
</a>
</g>
</g>
<!-- Node1&#45;&gt;Node15 -->
<g id="edge20" class="edge">
<title>Node1&#45;&gt;Node15</title>
<path fill="none" stroke="midnightblue" d="M1287.64,-176.86C1201.6,-164.52 1064.1,-144.79 981.55,-132.94"/>
<polygon fill="midnightblue" stroke="midnightblue" points="981.92,-129.46 971.52,-131.5 980.92,-136.39 981.92,-129.46"/>
</g>
<!-- Node16 -->
<g id="node16" class="node">
<title>Node16</title>
<g id="a_node16"><a xlink:title=" ">
<polygon fill="none" stroke="#bfbfbf" points="1013.25,-112.5 1013.25,-131.5 1185.25,-131.5 1185.25,-112.5 1013.25,-112.5"/>
<text text-anchor="middle" x="1099.25" y="-119.5" font-family="Helvetica,sans-Serif" font-size="10.00">BlockFactory/Core/Parameters.h</text>
</a>
</g>
</g>
<!-- Node1&#45;&gt;Node16 -->
<g id="edge21" class="edge">
<title>Node1&#45;&gt;Node16</title>
<path fill="none" stroke="midnightblue" d="M1287.6,-169.02C1240.91,-157.61 1183.14,-143.5 1143.98,-133.93"/>
<polygon fill="midnightblue" stroke="midnightblue" points="1144.74,-130.51 1134.2,-131.54 1143.08,-137.31 1144.74,-130.51"/>
</g>
<!-- Node17 -->
<g id="node17" class="node">
<title>Node17</title>
<g id="a_node17"><a xlink:title=" ">
<polygon fill="none" stroke="#bfbfbf" points="1203.25,-112.5 1203.25,-131.5 1349.25,-131.5 1349.25,-112.5 1203.25,-112.5"/>
<text text-anchor="middle" x="1276.25" y="-119.5" font-family="Helvetica,sans-Serif" font-size="10.00">BlockFactory/Core/Signal.h</text>
</a>
</g>
</g>
<!-- Node1&#45;&gt;Node17 -->
<g id="edge22" class="edge">
<title>Node1&#45;&gt;Node17</title>
<path fill="none" stroke="midnightblue" d="M1338.55,-168.5C1325.04,-158.63 1308.9,-146.84 1296.44,-137.74"/>
<polygon fill="midnightblue" stroke="midnightblue" points="1298.24,-134.72 1288.1,-131.65 1294.11,-140.38 1298.24,-134.72"/>
</g>
<!-- Node18 -->
<g id="node18" class="node">
<title>Node18</title>
<g id="a_node18"><a xlink:title=" ">
<polygon fill="none" stroke="#bfbfbf" points="1367.75,-112.5 1367.75,-131.5 1542.75,-131.5 1542.75,-112.5 1367.75,-112.5"/>
<text text-anchor="middle" x="1455.25" y="-119.5" font-family="Helvetica,sans-Serif" font-size="10.00">iDynTree/KinDynComputations.h</text>
</a>
</g>
</g>
<!-- Node1&#45;&gt;Node18 -->
<g id="edge23" class="edge">
<title>Node1&#45;&gt;Node18</title>
<path fill="none" stroke="midnightblue" d="M1392.26,-168.5C1405.92,-158.63 1422.24,-146.84 1434.84,-137.74"/>
<polygon fill="midnightblue" stroke="midnightblue" points="1437.22,-140.34 1443.27,-131.65 1433.12,-134.67 1437.22,-140.34"/>
</g>
<!-- Node19 -->
<g id="node19" class="node">
<title>Node19</title>
<g id="a_node19"><a xlink:title=" ">
<polygon fill="none" stroke="#bfbfbf" points="1560.75,-112.5 1560.75,-131.5 1689.75,-131.5 1689.75,-112.5 1560.75,-112.5"/>
<text text-anchor="middle" x="1625.25" y="-119.5" font-family="Helvetica,sans-Serif" font-size="10.00">iDynTree/Model/IJoint.h</text>
</a>
</g>
</g>
<!-- Node1&#45;&gt;Node19 -->
<g id="edge24" class="edge">
<title>Node1&#45;&gt;Node19</title>
<path fill="none" stroke="midnightblue" d="M1442.91,-168.59C1488.05,-157.3 1543.29,-143.49 1581.06,-134.05"/>
<polygon fill="midnightblue" stroke="midnightblue" points="1582.38,-137.33 1591.23,-131.51 1580.68,-130.54 1582.38,-137.33"/>
</g>
<!-- Node20 -->
<g id="node20" class="node">
<title>Node20</title>
<g id="a_node20"><a xlink:title=" ">
<polygon fill="none" stroke="#bfbfbf" points="1707.75,-112.5 1707.75,-131.5 1846.75,-131.5 1846.75,-112.5 1707.75,-112.5"/>
<text text-anchor="middle" x="1777.25" y="-119.5" font-family="Helvetica,sans-Serif" font-size="10.00">iDynTree/Model/Indices.h</text>
</a>
</g>
</g>
<!-- Node1&#45;&gt;Node20 -->
<g id="edge25" class="edge">
<title>Node1&#45;&gt;Node20</title>
<path fill="none" stroke="midnightblue" d="M1443.23,-175.7C1521.44,-163.36 1640.43,-144.59 1713.27,-133.09"/>
<polygon fill="midnightblue" stroke="midnightblue" points="1713.9,-136.54 1723.23,-131.52 1712.81,-129.62 1713.9,-136.54"/>
</g>
<!-- Node21 -->
<g id="node21" class="node">
<title>Node21</title>
<g id="a_node21"><a xlink:title=" ">
<polygon fill="none" stroke="#bfbfbf" points="1865.25,-112.5 1865.25,-131.5 1999.25,-131.5 1999.25,-112.5 1865.25,-112.5"/>
<text text-anchor="middle" x="1932.25" y="-119.5" font-family="Helvetica,sans-Serif" font-size="10.00">iDynTree/Model/Model.h</text>
</a>
</g>
</g>
<!-- Node1&#45;&gt;Node21 -->
<g id="edge26" class="edge">
<title>Node1&#45;&gt;Node21</title>
<path fill="none" stroke="midnightblue" d="M1443.08,-179.23C1537.83,-168.53 1703.02,-149.79 1855.12,-132.13"/>
<polygon fill="midnightblue" stroke="midnightblue" points="1855.59,-135.6 1865.12,-130.97 1854.78,-128.64 1855.59,-135.6"/>
</g>
<!-- Node22 -->
<g id="node22" class="node">
<title>Node22</title>
<g id="a_node22"><a xlink:title=" ">
<polygon fill="none" stroke="#bfbfbf" points="2017.25,-112.5 2017.25,-131.5 2201.25,-131.5 2201.25,-112.5 2017.25,-112.5"/>
<text text-anchor="middle" x="2109.25" y="-119.5" font-family="Helvetica,sans-Serif" font-size="10.00">yarp/dev/ControlBoardInterfaces.h</text>
</a>
</g>
</g>
<!-- Node1&#45;&gt;Node22 -->
<g id="edge27" class="edge">
<title>Node1&#45;&gt;Node22</title>
<path fill="none" stroke="midnightblue" d="M1442.95,-181.28C1561.95,-170.99 1796.78,-150.62 2007.06,-132.1"/>
<polygon fill="midnightblue" stroke="midnightblue" points="2007.4,-135.59 2017.06,-131.22 2006.79,-128.61 2007.4,-135.59"/>
</g>
<!-- Node23 -->
<g id="node23" class="node">
<title>Node23</title>
<g id="a_node23"><a xlink:title=" ">
<polygon fill="none" stroke="#bfbfbf" points="2219.75,-112.5 2219.75,-131.5 2266.75,-131.5 2266.75,-112.5 2219.75,-112.5"/>
<text text-anchor="middle" x="2243.25" y="-119.5" font-family="Helvetica,sans-Serif" font-size="10.00">cmath</text>
</a>
</g>
</g>
<!-- Node1&#45;&gt;Node23 -->
<g id="edge28" class="edge">
<title>Node1&#45;&gt;Node23</title>
<path fill="none" stroke="midnightblue" d="M1443.04,-188.02C1590.93,-186.94 1922.7,-179.1 2209.41,-131.76"/>
<polygon fill="midnightblue" stroke="midnightblue" points="2210.3,-135.16 2219.59,-130.06 2209.15,-128.26 2210.3,-135.16"/>
</g>
<!-- Node24 -->
<g id="node24" class="node">
<title>Node24</title>
<g id="a_node24"><a xlink:title=" ">
<polygon fill="none" stroke="#bfbfbf" points="2285.25,-112.5 2285.25,-131.5 2329.25,-131.5 2329.25,-112.5 2285.25,-112.5"/>
<text text-anchor="middle" x="2307.25" y="-119.5" font-family="Helvetica,sans-Serif" font-size="10.00">limits</text>
</a>
</g>
</g>
<!-- Node1&#45;&gt;Node24 -->
<g id="edge29" class="edge">
<title>Node1&#45;&gt;Node24</title>
<path fill="none" stroke="midnightblue" d="M1443.03,-185.43C1629.45,-178.92 2098.68,-160.38 2275.1,-131.76"/>
<polygon fill="midnightblue" stroke="midnightblue" points="2275.76,-135.2 2285.04,-130.09 2274.6,-128.3 2275.76,-135.2"/>
</g>
<!-- Node25 -->
<g id="node25" class="node">
<title>Node25</title>
<g id="a_node25"><a xlink:title=" ">
<polygon fill="none" stroke="#bfbfbf" points="2347.75,-112.5 2347.75,-131.5 2404.75,-131.5 2404.75,-112.5 2347.75,-112.5"/>
<text text-anchor="middle" x="2376.25" y="-119.5" font-family="Helvetica,sans-Serif" font-size="10.00">ostream</text>
</a>
</g>
</g>
<!-- Node1&#45;&gt;Node25 -->
<g id="edge30" class="edge">
<title>Node1&#45;&gt;Node25</title>
<path fill="none" stroke="midnightblue" d="M1442.97,-188.13C1606.9,-187.4 2000.02,-180.4 2337.75,-131.77"/>
<polygon fill="midnightblue" stroke="midnightblue" points="2338.33,-135.23 2347.72,-130.32 2337.32,-128.3 2338.33,-135.23"/>
</g>
<!-- Node26 -->
<g id="node26" class="node">
<title>Node26</title>
<g id="a_node26"><a xlink:title=" ">
<polygon fill="none" stroke="#bfbfbf" points="2422.75,-112.5 2422.75,-131.5 2463.75,-131.5 2463.75,-112.5 2422.75,-112.5"/>
<text text-anchor="middle" x="2443.25" y="-119.5" font-family="Helvetica,sans-Serif" font-size="10.00">tuple</text>
</a>
</g>
</g>
<!-- Node1&#45;&gt;Node26 -->
<g id="edge31" class="edge">
<title>Node1&#45;&gt;Node26</title>
<path fill="none" stroke="midnightblue" d="M1443.13,-186.34C1649.63,-181.54 2208.79,-165.91 2412.49,-131.86"/>
<polygon fill="midnightblue" stroke="midnightblue" points="2413.24,-135.28 2422.5,-130.12 2412.05,-128.38 2413.24,-135.28"/>
</g>
<!-- Node3 -->
<g id="node3" class="node">
<title>Node3</title>
<g id="a_node3"><a xlink:href="_w_b_block_8h.html" target="_top" xlink:title=" ">
<polygon fill="none" stroke="black" points="14.75,-56.5 14.75,-75.5 167.75,-75.5 167.75,-56.5 14.75,-56.5"/>
<text text-anchor="middle" x="91.25" y="-63.5" font-family="Helvetica,sans-Serif" font-size="10.00">WBToolbox/Base/WBBlock.h</text>
</a>
</g>
</g>
<!-- Node2&#45;&gt;Node3 -->
<g id="edge2" class="edge">
<title>Node2&#45;&gt;Node3</title>
<path fill="none" stroke="midnightblue" d="M91.25,-112.08C91.25,-105.01 91.25,-94.86 91.25,-85.99"/>
<polygon fill="midnightblue" stroke="midnightblue" points="94.75,-85.75 91.25,-75.75 87.75,-85.75 94.75,-85.75"/>
</g>
<!-- Node5 -->
<g id="node5" class="node">
<title>Node5</title>
<g id="a_node5"><a xlink:title=" ">
<polygon fill="none" stroke="#bfbfbf" points="243.25,-0.5 243.25,-19.5 301.25,-19.5 301.25,-0.5 243.25,-0.5"/>
<text text-anchor="middle" x="272.25" y="-7.5" font-family="Helvetica,sans-Serif" font-size="10.00">memory</text>
</a>
</g>
</g>
<!-- Node2&#45;&gt;Node5 -->
<g id="edge6" class="edge">
<title>Node2&#45;&gt;Node5</title>
<path fill="none" stroke="midnightblue" d="M108.81,-112.4C126.22,-103.72 153.5,-89.67 176.25,-76 203.21,-59.8 233.03,-39.16 252.17,-25.54"/>
<polygon fill="midnightblue" stroke="midnightblue" points="254.31,-28.31 260.4,-19.64 250.23,-22.61 254.31,-28.31"/>
</g>
<!-- Node6 -->
<g id="node6" class="node">
<title>Node6</title>
<g id="a_node6"><a xlink:title=" ">
<polygon fill="none" stroke="#bfbfbf" points="181.25,-0.5 181.25,-19.5 225.25,-19.5 225.25,-0.5 181.25,-0.5"/>
<text text-anchor="middle" x="203.25" y="-7.5" font-family="Helvetica,sans-Serif" font-size="10.00">string</text>
</a>
</g>
</g>
<!-- Node2&#45;&gt;Node6 -->
<g id="edge7" class="edge">
<title>Node2&#45;&gt;Node6</title>
<path fill="none" stroke="midnightblue" d="M62.18,-112.4C30.02,-101.42 -14.78,-80.84 5.25,-56 50.7,0.36 94.27,-35.03 170.9,-19.72"/>
<polygon fill="midnightblue" stroke="midnightblue" points="171.93,-23.08 180.92,-17.47 170.39,-16.25 171.93,-23.08"/>
</g>
<!-- Node4 -->
<g id="node4" class="node">
<title>Node4</title>
<g id="a_node4"><a xlink:title=" ">
<polygon fill="none" stroke="#bfbfbf" points="19.75,-0.5 19.75,-19.5 162.75,-19.5 162.75,-0.5 19.75,-0.5"/>
<text text-anchor="middle" x="91.25" y="-7.5" font-family="Helvetica,sans-Serif" font-size="10.00">BlockFactory/Core/Block.h</text>
</a>
</g>
</g>
<!-- Node3&#45;&gt;Node4 -->
<g id="edge3" class="edge">
<title>Node3&#45;&gt;Node4</title>
<path fill="none" stroke="midnightblue" d="M91.25,-56.08C91.25,-49.01 91.25,-38.86 91.25,-29.99"/>
<polygon fill="midnightblue" stroke="midnightblue" points="94.75,-29.75 91.25,-19.75 87.75,-29.75 94.75,-29.75"/>
</g>
<!-- Node3&#45;&gt;Node5 -->
<g id="edge4" class="edge">
<title>Node3&#45;&gt;Node5</title>
<path fill="none" stroke="midnightblue" d="M119.93,-56.44C150.78,-47.24 199.98,-32.56 234.08,-22.39"/>
<polygon fill="midnightblue" stroke="midnightblue" points="235.13,-25.73 243.71,-19.52 233.12,-19.02 235.13,-25.73"/>
</g>
<!-- Node3&#45;&gt;Node6 -->
<g id="edge5" class="edge">
<title>Node3&#45;&gt;Node6</title>
<path fill="none" stroke="midnightblue" d="M109.25,-56.32C127.29,-47.62 155.3,-34.12 176.06,-24.11"/>
<polygon fill="midnightblue" stroke="midnightblue" points="177.82,-27.15 185.3,-19.65 174.78,-20.84 177.82,-27.15"/>
</g>
<!-- Node7&#45;&gt;Node5 -->
<g id="edge10" class="edge">
<title>Node7&#45;&gt;Node5</title>
<path fill="none" stroke="midnightblue" d="M276.86,-112.37C276.05,-94.62 274.19,-53.67 273.1,-29.6"/>
<polygon fill="midnightblue" stroke="midnightblue" points="276.59,-29.42 272.64,-19.59 269.6,-29.74 276.59,-29.42"/>
</g>
<!-- Node7&#45;&gt;Node6 -->
<g id="edge11" class="edge">
<title>Node7&#45;&gt;Node6</title>
<path fill="none" stroke="midnightblue" d="M271.45,-112.37C259.23,-94.22 230.7,-51.8 214.68,-27.99"/>
<polygon fill="midnightblue" stroke="midnightblue" points="217.52,-25.94 209.03,-19.59 211.71,-29.84 217.52,-25.94"/>
</g>
<!-- Node8 -->
<g id="node8" class="node">
<title>Node8</title>
<g id="a_node8"><a xlink:title=" ">
<polygon fill="none" stroke="#bfbfbf" points="300.25,-56.5 300.25,-75.5 342.25,-75.5 342.25,-56.5 300.25,-56.5"/>
<text text-anchor="middle" x="321.25" y="-63.5" font-family="Helvetica,sans-Serif" font-size="10.00">array</text>
</a>
</g>
</g>
<!-- Node7&#45;&gt;Node8 -->
<g id="edge9" class="edge">
<title>Node7&#45;&gt;Node8</title>
<path fill="none" stroke="midnightblue" d="M284.52,-112.08C290.8,-104.38 300.04,-93.03 307.68,-83.65"/>
<polygon fill="midnightblue" stroke="midnightblue" points="310.52,-85.71 314.12,-75.75 305.09,-81.29 310.52,-85.71"/>
</g>
<!-- Node7&#45;&gt;Node9 -->
<g id="edge12" class="edge">
<title>Node7&#45;&gt;Node9</title>
<path fill="none" stroke="midnightblue" d="M294.44,-112.32C311.6,-103.66 338.2,-90.24 358,-80.25"/>
<polygon fill="midnightblue" stroke="midnightblue" points="359.75,-83.28 367.1,-75.65 356.6,-77.04 359.75,-83.28"/>
</g>
<!-- Node10&#45;&gt;Node5 -->
<g id="edge14" class="edge">
<title>Node10&#45;&gt;Node5</title>
<path fill="none" stroke="midnightblue" d="M478.43,-56.44C432.65,-46.35 356.98,-29.68 311.16,-19.58"/>
<polygon fill="midnightblue" stroke="midnightblue" points="311.82,-16.14 301.3,-17.4 310.31,-22.97 311.82,-16.14"/>
</g>
<!-- Node10&#45;&gt;Node6 -->
<g id="edge15" class="edge">
<title>Node10&#45;&gt;Node6</title>
<path fill="none" stroke="midnightblue" d="M448.17,-56.47C392.95,-49.09 313.44,-37.21 235.51,-20.05"/>
<polygon fill="midnightblue" stroke="midnightblue" points="236.04,-16.59 225.52,-17.82 234.51,-23.42 236.04,-16.59"/>
</g>
<!-- Node11 -->
<g id="node11" class="node">
<title>Node11</title>
<g id="a_node11"><a xlink:title=" ">
<polygon fill="none" stroke="#bfbfbf" points="513.75,-0.5 513.75,-19.5 606.75,-19.5 606.75,-0.5 513.75,-0.5"/>
<text text-anchor="middle" x="560.25" y="-7.5" font-family="Helvetica,sans-Serif" font-size="10.00">unordered_map</text>
</a>
</g>
</g>
<!-- Node10&#45;&gt;Node11 -->
<g id="edge16" class="edge">
<title>Node10&#45;&gt;Node11</title>
<path fill="none" stroke="midnightblue" d="M524.35,-56.08C530.49,-48.38 539.52,-37.03 546.99,-27.65"/>
<polygon fill="midnightblue" stroke="midnightblue" points="549.79,-29.75 553.28,-19.75 544.32,-25.39 549.79,-29.75"/>
</g>
<!-- Node12 -->
<g id="node12" class="node">
<title>Node12</title>
<g id="a_node12"><a xlink:title=" ">
<polygon fill="none" stroke="#bfbfbf" points="450.75,-0.5 450.75,-19.5 495.75,-19.5 495.75,-0.5 450.75,-0.5"/>
<text text-anchor="middle" x="473.25" y="-7.5" font-family="Helvetica,sans-Serif" font-size="10.00">utility</text>
</a>
</g>
</g>
<!-- Node10&#45;&gt;Node12 -->
<g id="edge17" class="edge">
<title>Node10&#45;&gt;Node12</title>
<path fill="none" stroke="midnightblue" d="M509.99,-56.08C503.71,-48.38 494.47,-37.03 486.82,-27.65"/>
<polygon fill="midnightblue" stroke="midnightblue" points="489.41,-25.29 480.38,-19.75 483.99,-29.71 489.41,-25.29"/>
</g>
</g>
</svg>
