<?xml version="1.0" encoding="UTF-8" standalone="no"?>
<!DOCTYPE svg PUBLIC "-//W3C//DTD SVG 1.1//EN"
 "http://www.w3.org/Graphics/SVG/1.1/DTD/svg11.dtd">
<!-- Generated by graphviz version 2.36.0 (20140111.2315)
 -->
<!-- Title: /home/travis/build/robotology/wb&#45;toolbox/toolbox/src/GetMeasurement.cpp Pages: 1 -->
<svg width="1464pt" height="274pt"
 viewBox="0.00 0.00 1464.00 274.00" xmlns="http://www.w3.org/2000/svg" xmlns:xlink="http://www.w3.org/1999/xlink">
<g id="graph0" class="graph" transform="scale(1 1) rotate(0) translate(4 270)">
<title>/home/travis/build/robotology/wb&#45;toolbox/toolbox/src/GetMeasurement.cpp</title>
<!-- Node1 -->
<g id="node1" class="node"><title>Node1</title>
<polygon fill="#bfbfbf" stroke="black" points="998,-224.5 998,-265.5 1162,-265.5 1162,-224.5 998,-224.5"/>
<text text-anchor="start" x="1006" y="-253.5" font-family="Helvetica,sans-Serif" font-size="10.00">/home/travis/build</text>
<text text-anchor="start" x="1006" y="-242.5" font-family="Helvetica,sans-Serif" font-size="10.00">/robotology/wb&#45;toolbox</text>
<text text-anchor="middle" x="1080" y="-231.5" font-family="Helvetica,sans-Serif" font-size="10.00">/toolbox/src/GetMeasurement.cpp</text>
</g>
<!-- Node2 -->
<g id="node2" class="node"><title>Node2</title>
<g id="a_node2"><a xlink:href="_get_measurement_8h.html" target="_top" xlink:title="GetMeasurement.h">
<polygon fill="none" stroke="black" points="564,-168.5 564,-187.5 664,-187.5 664,-168.5 564,-168.5"/>
<text text-anchor="middle" x="614" y="-175.5" font-family="Helvetica,sans-Serif" font-size="10.00">GetMeasurement.h</text>
</a>
</g>
</g>
<!-- Node1&#45;&gt;Node2 -->
<g id="edge1" class="edge"><title>Node1&#45;&gt;Node2</title>
<path fill="none" stroke="midnightblue" d="M997.761,-232.529C905.081,-219.601 756.629,-198.895 674.163,-187.392"/>
<polygon fill="midnightblue" stroke="midnightblue" points="674.585,-183.917 664.198,-186.002 673.618,-190.85 674.585,-183.917"/>
</g>
<!-- Node13 -->
<g id="node13" class="node"><title>Node13</title>
<g id="a_node13"><a xlink:href="_log_8h.html" target="_top" xlink:title="Log.h">
<polygon fill="none" stroke="black" points="1372.5,-56.5 1372.5,-75.5 1413.5,-75.5 1413.5,-56.5 1372.5,-56.5"/>
<text text-anchor="middle" x="1393" y="-63.5" font-family="Helvetica,sans-Serif" font-size="10.00">Log.h</text>
</a>
</g>
</g>
<!-- Node1&#45;&gt;Node13 -->
<g id="edge13" class="edge"><title>Node1&#45;&gt;Node13</title>
<path fill="none" stroke="midnightblue" d="M1087.81,-224.328C1095.48,-207.303 1108.69,-183.107 1127,-168 1198.82,-108.732 1309.11,-81.9836 1362.26,-71.9998"/>
<polygon fill="midnightblue" stroke="midnightblue" points="1363.18,-75.3901 1372.4,-70.1699 1361.94,-68.5013 1363.18,-75.3901"/>
</g>
<!-- Node14 -->
<g id="node14" class="node"><title>Node14</title>
<g id="a_node14"><a xlink:href="_block_information_8h.html" target="_top" xlink:title="BlockInformation.h">
<polygon fill="none" stroke="black" points="712,-56.5 712,-75.5 810,-75.5 810,-56.5 712,-56.5"/>
<text text-anchor="middle" x="761" y="-63.5" font-family="Helvetica,sans-Serif" font-size="10.00">BlockInformation.h</text>
</a>
</g>
</g>
<!-- Node1&#45;&gt;Node14 -->
<g id="edge16" class="edge"><title>Node1&#45;&gt;Node14</title>
<path fill="none" stroke="midnightblue" d="M1044.64,-224.382C979.317,-188.135 841.283,-111.546 785.327,-80.4983"/>
<polygon fill="midnightblue" stroke="midnightblue" points="786.913,-77.3752 776.47,-75.5838 783.516,-83.4961 786.913,-77.3752"/>
</g>
<!-- Node16 -->
<g id="node16" class="node"><title>Node16</title>
<g id="a_node16"><a xlink:href="_signal_8h.html" target="_top" xlink:title="Signal.h">
<polygon fill="none" stroke="black" points="912,-112.5 912,-131.5 964,-131.5 964,-112.5 912,-112.5"/>
<text text-anchor="middle" x="938" y="-119.5" font-family="Helvetica,sans-Serif" font-size="10.00">Signal.h</text>
</a>
</g>
</g>
<!-- Node1&#45;&gt;Node16 -->
<g id="edge19" class="edge"><title>Node1&#45;&gt;Node16</title>
<path fill="none" stroke="midnightblue" d="M1056.87,-224.29C1028.63,-200.224 981.468,-160.04 955.862,-138.22"/>
<polygon fill="midnightblue" stroke="midnightblue" points="957.945,-135.397 948.063,-131.575 953.404,-140.725 957.945,-135.397"/>
</g>
<!-- Node18 -->
<g id="node18" class="node"><title>Node18</title>
<g id="a_node18"><a xlink:href="_robot_interface_8h.html" target="_top" xlink:title="RobotInterface.h">
<polygon fill="none" stroke="black" points="999.5,-112.5 999.5,-131.5 1088.5,-131.5 1088.5,-112.5 999.5,-112.5"/>
<text text-anchor="middle" x="1044" y="-119.5" font-family="Helvetica,sans-Serif" font-size="10.00">RobotInterface.h</text>
</a>
</g>
</g>
<!-- Node1&#45;&gt;Node18 -->
<g id="edge23" class="edge"><title>Node1&#45;&gt;Node18</title>
<path fill="none" stroke="midnightblue" d="M1074.14,-224.29C1067.29,-201.27 1056.05,-163.503 1049.41,-141.168"/>
<polygon fill="midnightblue" stroke="midnightblue" points="1052.76,-140.161 1046.55,-131.575 1046.05,-142.158 1052.76,-140.161"/>
</g>
<!-- Node22 -->
<g id="node22" class="node"><title>Node22</title>
<polygon fill="none" stroke="#bfbfbf" points="1136,-168.5 1136,-187.5 1246,-187.5 1246,-168.5 1136,-168.5"/>
<text text-anchor="middle" x="1191" y="-175.5" font-family="Helvetica,sans-Serif" font-size="10.00">yarp/dev/IEncoders.h</text>
</g>
<!-- Node1&#45;&gt;Node22 -->
<g id="edge34" class="edge"><title>Node1&#45;&gt;Node22</title>
<path fill="none" stroke="midnightblue" d="M1113.3,-224.498C1130.65,-214.34 1151.46,-202.155 1167.17,-192.952"/>
<polygon fill="midnightblue" stroke="midnightblue" points="1169.36,-195.726 1176.22,-187.652 1165.83,-189.685 1169.36,-195.726"/>
</g>
<!-- Node23 -->
<g id="node23" class="node"><title>Node23</title>
<polygon fill="none" stroke="#bfbfbf" points="1264,-168.5 1264,-187.5 1394,-187.5 1394,-168.5 1264,-168.5"/>
<text text-anchor="middle" x="1329" y="-175.5" font-family="Helvetica,sans-Serif" font-size="10.00">yarp/dev/ITorqueControl.h</text>
</g>
<!-- Node1&#45;&gt;Node23 -->
<g id="edge35" class="edge"><title>Node1&#45;&gt;Node23</title>
<path fill="none" stroke="midnightblue" d="M1154.71,-224.498C1197.79,-213.252 1250.39,-199.521 1286.47,-190.103"/>
<polygon fill="midnightblue" stroke="midnightblue" points="1287.39,-193.479 1296.18,-187.567 1285.62,-186.706 1287.39,-193.479"/>
</g>
<!-- Node24 -->
<g id="node24" class="node"><title>Node24</title>
<polygon fill="none" stroke="#bfbfbf" points="1412,-168.5 1412,-187.5 1456,-187.5 1456,-168.5 1412,-168.5"/>
<text text-anchor="middle" x="1434" y="-175.5" font-family="Helvetica,sans-Serif" font-size="10.00">cmath</text>
</g>
<!-- Node1&#45;&gt;Node24 -->
<g id="edge36" class="edge"><title>Node1&#45;&gt;Node24</title>
<path fill="none" stroke="midnightblue" d="M1162.14,-232.332C1225.36,-222.758 1315.01,-207.895 1401.96,-188.041"/>
<polygon fill="midnightblue" stroke="midnightblue" points="1402.77,-191.446 1411.73,-185.787 1401.2,-184.625 1402.77,-191.446"/>
</g>
<!-- Node3 -->
<g id="node3" class="node"><title>Node3</title>
<g id="a_node3"><a xlink:href="_w_b_block_8h.html" target="_top" xlink:title="WBBlock.h">
<polygon fill="none" stroke="black" points="479,-112.5 479,-131.5 545,-131.5 545,-112.5 479,-112.5"/>
<text text-anchor="middle" x="512" y="-119.5" font-family="Helvetica,sans-Serif" font-size="10.00">WBBlock.h</text>
</a>
</g>
</g>
<!-- Node2&#45;&gt;Node3 -->
<g id="edge2" class="edge"><title>Node2&#45;&gt;Node3</title>
<path fill="none" stroke="midnightblue" d="M597.612,-168.324C581.329,-159.703 556.133,-146.364 537.284,-136.386"/>
<polygon fill="midnightblue" stroke="midnightblue" points="538.823,-133.24 528.347,-131.655 535.548,-139.427 538.823,-133.24"/>
</g>
<!-- Node4 -->
<g id="node4" class="node"><title>Node4</title>
<g id="a_node4"><a xlink:href="_block_8h.html" target="_top" xlink:title="Block.h">
<polygon fill="none" stroke="black" points="828,-56.5 828,-75.5 878,-75.5 878,-56.5 828,-56.5"/>
<text text-anchor="middle" x="853" y="-63.5" font-family="Helvetica,sans-Serif" font-size="10.00">Block.h</text>
</a>
</g>
</g>
<!-- Node3&#45;&gt;Node4 -->
<g id="edge3" class="edge"><title>Node3&#45;&gt;Node4</title>
<path fill="none" stroke="midnightblue" d="M545.254,-117.278C601.661,-110.704 719.566,-95.8358 818,-76 818.1,-75.9799 818.2,-75.9596 818.3,-75.9393"/>
<polygon fill="midnightblue" stroke="midnightblue" points="818.842,-79.4047 827.838,-73.8091 817.316,-72.573 818.842,-79.4047"/>
</g>
<!-- Node5 -->
<g id="node5" class="node"><title>Node5</title>
<polygon fill="none" stroke="#bfbfbf" points="984.5,-0.5 984.5,-19.5 1025.5,-19.5 1025.5,-0.5 984.5,-0.5"/>
<text text-anchor="middle" x="1005" y="-7.5" font-family="Helvetica,sans-Serif" font-size="10.00">string</text>
</g>
<!-- Node3&#45;&gt;Node5 -->
<g id="edge6" class="edge"><title>Node3&#45;&gt;Node5</title>
<path fill="none" stroke="midnightblue" d="M511.704,-112.202C511.751,-97.9303 514.142,-69.9287 531,-56 535.299,-52.4483 869.361,-22.8914 974.012,-13.71"/>
<polygon fill="midnightblue" stroke="midnightblue" points="974.58,-17.1738 984.236,-12.8139 973.969,-10.2005 974.58,-17.1738"/>
</g>
<!-- Node7 -->
<g id="node7" class="node"><title>Node7</title>
<polygon fill="none" stroke="#bfbfbf" points="850,-0.5 850,-19.5 888,-19.5 888,-0.5 850,-0.5"/>
<text text-anchor="middle" x="869" y="-7.5" font-family="Helvetica,sans-Serif" font-size="10.00">array</text>
</g>
<!-- Node3&#45;&gt;Node7 -->
<g id="edge7" class="edge"><title>Node3&#45;&gt;Node7</title>
<path fill="none" stroke="midnightblue" d="M505.953,-112.235C497.297,-98.5102 483.892,-71.8776 498,-56 543.186,-5.1474 734.509,-28.5286 802,-20 814.392,-18.4341 828.059,-16.6148 839.8,-15.0234"/>
<polygon fill="midnightblue" stroke="midnightblue" points="840.514,-18.4585 849.95,-13.6397 839.569,-11.5227 840.514,-18.4585"/>
</g>
<!-- Node8 -->
<g id="node8" class="node"><title>Node8</title>
<polygon fill="none" stroke="#bfbfbf" points="896,-56.5 896,-75.5 948,-75.5 948,-56.5 896,-56.5"/>
<text text-anchor="middle" x="922" y="-63.5" font-family="Helvetica,sans-Serif" font-size="10.00">memory</text>
</g>
<!-- Node3&#45;&gt;Node8 -->
<g id="edge8" class="edge"><title>Node3&#45;&gt;Node8</title>
<path fill="none" stroke="midnightblue" d="M545.079,-118.51C609.095,-113.375 754.487,-100.166 885.874,-75.9932"/>
<polygon fill="midnightblue" stroke="midnightblue" points="886.522,-79.4328 895.71,-74.1577 885.238,-72.5515 886.522,-79.4328"/>
</g>
<!-- Node9 -->
<g id="node9" class="node"><title>Node9</title>
<polygon fill="none" stroke="#bfbfbf" points="540.5,-56.5 540.5,-75.5 693.5,-75.5 693.5,-56.5 540.5,-56.5"/>
<text text-anchor="middle" x="617" y="-63.5" font-family="Helvetica,sans-Serif" font-size="10.00">iDynTree/Core/VectorFixSize.h</text>
</g>
<!-- Node3&#45;&gt;Node9 -->
<g id="edge9" class="edge"><title>Node3&#45;&gt;Node9</title>
<path fill="none" stroke="midnightblue" d="M528.87,-112.324C545.709,-103.664 571.807,-90.2424 591.238,-80.249"/>
<polygon fill="midnightblue" stroke="midnightblue" points="592.88,-83.3405 600.172,-75.6545 589.678,-77.1155 592.88,-83.3405"/>
</g>
<!-- Node10 -->
<g id="node10" class="node"><title>Node10</title>
<polygon fill="none" stroke="#bfbfbf" points="0,-56.5 0,-75.5 158,-75.5 158,-56.5 0,-56.5"/>
<text text-anchor="middle" x="79" y="-63.5" font-family="Helvetica,sans-Serif" font-size="10.00">iDynTree/Core/VectorDynSize.h</text>
</g>
<!-- Node3&#45;&gt;Node10 -->
<g id="edge10" class="edge"><title>Node3&#45;&gt;Node10</title>
<path fill="none" stroke="midnightblue" d="M478.742,-116.852C410.53,-108.346 253.176,-88.7217 157.494,-76.789"/>
<polygon fill="midnightblue" stroke="midnightblue" points="157.644,-73.2807 147.287,-75.5162 156.777,-80.2269 157.644,-73.2807"/>
</g>
<!-- Node11 -->
<g id="node11" class="node"><title>Node11</title>
<polygon fill="none" stroke="#bfbfbf" points="176,-56.5 176,-75.5 292,-75.5 292,-56.5 176,-56.5"/>
<text text-anchor="middle" x="234" y="-63.5" font-family="Helvetica,sans-Serif" font-size="10.00">iDynTree/Core/Twist.h</text>
</g>
<!-- Node3&#45;&gt;Node11 -->
<g id="edge11" class="edge"><title>Node3&#45;&gt;Node11</title>
<path fill="none" stroke="midnightblue" d="M478.743,-114.54C431.429,-105.35 344.17,-88.3999 287.642,-77.4197"/>
<polygon fill="midnightblue" stroke="midnightblue" points="288.292,-73.9806 277.808,-75.5095 286.957,-80.8521 288.292,-73.9806"/>
</g>
<!-- Node12 -->
<g id="node12" class="node"><title>Node12</title>
<polygon fill="none" stroke="#bfbfbf" points="310,-56.5 310,-75.5 446,-75.5 446,-56.5 310,-56.5"/>
<text text-anchor="middle" x="378" y="-63.5" font-family="Helvetica,sans-Serif" font-size="10.00">iDynTree/Core/Transform.h</text>
</g>
<!-- Node3&#45;&gt;Node12 -->
<g id="edge12" class="edge"><title>Node3&#45;&gt;Node12</title>
<path fill="none" stroke="midnightblue" d="M490.767,-112.444C468.616,-103.517 433.681,-89.4387 408.564,-79.3168"/>
<polygon fill="midnightblue" stroke="midnightblue" points="409.717,-76.0079 399.133,-75.5164 407.1,-82.5006 409.717,-76.0079"/>
</g>
<!-- Node4&#45;&gt;Node5 -->
<g id="edge4" class="edge"><title>Node4&#45;&gt;Node5</title>
<path fill="none" stroke="midnightblue" d="M877.085,-56.4435C903.593,-47.0262 946.242,-31.8746 974.926,-21.6842"/>
<polygon fill="midnightblue" stroke="midnightblue" points="976.189,-24.9499 984.44,-18.3042 973.845,-18.3538 976.189,-24.9499"/>
</g>
<!-- Node6 -->
<g id="node6" class="node"><title>Node6</title>
<polygon fill="none" stroke="#bfbfbf" points="1207,-0.5 1207,-19.5 1251,-19.5 1251,-0.5 1207,-0.5"/>
<text text-anchor="middle" x="1229" y="-7.5" font-family="Helvetica,sans-Serif" font-size="10.00">vector</text>
</g>
<!-- Node4&#45;&gt;Node6 -->
<g id="edge5" class="edge"><title>Node4&#45;&gt;Node6</title>
<path fill="none" stroke="midnightblue" d="M878.167,-57.9542C881.132,-57.2383 884.125,-56.5673 887,-56 999.792,-33.7459 1135.74,-19.5628 1196.69,-13.8604"/>
<polygon fill="midnightblue" stroke="midnightblue" points="1197.2,-17.3284 1206.83,-12.925 1196.56,-10.3579 1197.2,-17.3284"/>
</g>
<!-- Node13&#45;&gt;Node5 -->
<g id="edge14" class="edge"><title>Node13&#45;&gt;Node5</title>
<path fill="none" stroke="midnightblue" d="M1372.41,-62.1349C1308.35,-53.2193 1112.28,-25.9309 1035.91,-15.3015"/>
<polygon fill="midnightblue" stroke="midnightblue" points="1035.92,-11.7702 1025.54,-13.8582 1034.96,-18.7034 1035.92,-11.7702"/>
</g>
<!-- Node13&#45;&gt;Node6 -->
<g id="edge15" class="edge"><title>Node13&#45;&gt;Node6</title>
<path fill="none" stroke="midnightblue" d="M1372.23,-58.1609C1344.11,-48.9018 1293.67,-32.2938 1260.77,-21.4619"/>
<polygon fill="midnightblue" stroke="midnightblue" points="1261.76,-18.1034 1251.17,-18.3002 1259.57,-24.7522 1261.76,-18.1034"/>
</g>
<!-- Node14&#45;&gt;Node5 -->
<g id="edge18" class="edge"><title>Node14&#45;&gt;Node5</title>
<path fill="none" stroke="midnightblue" d="M799.663,-56.4435C848.056,-45.7335 929.96,-27.6072 974.292,-17.7961"/>
<polygon fill="midnightblue" stroke="midnightblue" points="975.185,-21.1831 984.193,-15.6049 973.673,-14.3485 975.185,-21.1831"/>
</g>
<!-- Node15 -->
<g id="node15" class="node"><title>Node15</title>
<polygon fill="none" stroke="#bfbfbf" points="729,-0.5 729,-19.5 793,-19.5 793,-0.5 729,-0.5"/>
<text text-anchor="middle" x="761" y="-7.5" font-family="Helvetica,sans-Serif" font-size="10.00">AnyType.h</text>
</g>
<!-- Node14&#45;&gt;Node15 -->
<g id="edge17" class="edge"><title>Node14&#45;&gt;Node15</title>
<path fill="none" stroke="midnightblue" d="M761,-56.083C761,-49.0059 761,-38.8611 761,-29.9865"/>
<polygon fill="midnightblue" stroke="midnightblue" points="764.5,-29.751 761,-19.7511 757.5,-29.7511 764.5,-29.751"/>
</g>
<!-- Node16&#45;&gt;Node8 -->
<g id="edge22" class="edge"><title>Node16&#45;&gt;Node8</title>
<path fill="none" stroke="midnightblue" d="M935.358,-112.083C933.214,-104.849 930.121,-94.4087 927.451,-85.3968"/>
<polygon fill="midnightblue" stroke="midnightblue" points="930.79,-84.3447 924.593,-75.7511 924.078,-86.3334 930.79,-84.3447"/>
</g>
<!-- Node16&#45;&gt;Node14 -->
<g id="edge20" class="edge"><title>Node16&#45;&gt;Node14</title>
<path fill="none" stroke="midnightblue" d="M911.883,-113.032C881.95,-103.9 832.645,-88.8578 798.586,-78.467"/>
<polygon fill="midnightblue" stroke="midnightblue" points="799.565,-75.1064 788.979,-75.536 797.522,-81.8018 799.565,-75.1064"/>
</g>
<!-- Node17 -->
<g id="node17" class="node"><title>Node17</title>
<polygon fill="none" stroke="#bfbfbf" points="966.5,-56.5 966.5,-75.5 1015.5,-75.5 1015.5,-56.5 966.5,-56.5"/>
<text text-anchor="middle" x="991" y="-63.5" font-family="Helvetica,sans-Serif" font-size="10.00">cassert</text>
</g>
<!-- Node16&#45;&gt;Node17 -->
<g id="edge21" class="edge"><title>Node16&#45;&gt;Node17</title>
<path fill="none" stroke="midnightblue" d="M946.752,-112.083C954.47,-104.22 965.905,-92.5688 975.217,-83.0813"/>
<polygon fill="midnightblue" stroke="midnightblue" points="977.904,-85.3396 982.411,-75.7511 972.908,-80.4363 977.904,-85.3396"/>
</g>
<!-- Node18&#45;&gt;Node5 -->
<g id="edge29" class="edge"><title>Node18&#45;&gt;Node5</title>
<path fill="none" stroke="midnightblue" d="M1041.68,-112.496C1038.2,-99.9928 1031.27,-75.9711 1024,-56 1020.7,-46.9227 1016.57,-37.0143 1013.01,-28.8114"/>
<polygon fill="midnightblue" stroke="midnightblue" points="1016.15,-27.2549 1008.9,-19.5242 1009.75,-30.0855 1016.15,-27.2549"/>
</g>
<!-- Node18&#45;&gt;Node6 -->
<g id="edge30" class="edge"><title>Node18&#45;&gt;Node6</title>
<path fill="none" stroke="midnightblue" d="M1088.62,-114.203C1167.17,-102.185 1322.09,-78.2368 1324,-76 1346.06,-50.1113 1296.8,-29.9155 1261.3,-19.286"/>
<polygon fill="midnightblue" stroke="midnightblue" points="1261.84,-15.8025 1251.27,-16.4215 1259.92,-22.5334 1261.84,-15.8025"/>
</g>
<!-- Node18&#45;&gt;Node8 -->
<g id="edge28" class="edge"><title>Node18&#45;&gt;Node8</title>
<path fill="none" stroke="midnightblue" d="M1024.67,-112.444C1004.68,-103.596 973.257,-89.6875 950.436,-79.5865"/>
<polygon fill="midnightblue" stroke="midnightblue" points="951.802,-76.3635 941.241,-75.5164 948.968,-82.7645 951.802,-76.3635"/>
</g>
<!-- Node18&#45;&gt;Node17 -->
<g id="edge32" class="edge"><title>Node18&#45;&gt;Node17</title>
<path fill="none" stroke="midnightblue" d="M1035.25,-112.083C1027.53,-104.22 1016.1,-92.5688 1006.78,-83.0813"/>
<polygon fill="midnightblue" stroke="midnightblue" points="1009.09,-80.4363 999.589,-75.7511 1004.1,-85.3396 1009.09,-80.4363"/>
</g>
<!-- Node19 -->
<g id="node19" class="node"><title>Node19</title>
<g id="a_node19"><a xlink:href="_configuration_8h.html" target="_top" xlink:title="Configuration.h">
<polygon fill="none" stroke="black" points="1072.5,-56.5 1072.5,-75.5 1155.5,-75.5 1155.5,-56.5 1072.5,-56.5"/>
<text text-anchor="middle" x="1114" y="-63.5" font-family="Helvetica,sans-Serif" font-size="10.00">Configuration.h</text>
</a>
</g>
</g>
<!-- Node18&#45;&gt;Node19 -->
<g id="edge24" class="edge"><title>Node18&#45;&gt;Node19</title>
<path fill="none" stroke="midnightblue" d="M1055.25,-112.324C1065.8,-104.185 1081.8,-91.8395 1094.44,-82.0874"/>
<polygon fill="midnightblue" stroke="midnightblue" points="1096.77,-84.7132 1102.55,-75.8339 1092.49,-79.1707 1096.77,-84.7132"/>
</g>
<!-- Node20 -->
<g id="node20" class="node"><title>Node20</title>
<polygon fill="none" stroke="#bfbfbf" points="1174,-56.5 1174,-75.5 1214,-75.5 1214,-56.5 1174,-56.5"/>
<text text-anchor="middle" x="1194" y="-63.5" font-family="Helvetica,sans-Serif" font-size="10.00">utility</text>
</g>
<!-- Node18&#45;&gt;Node20 -->
<g id="edge31" class="edge"><title>Node18&#45;&gt;Node20</title>
<path fill="none" stroke="midnightblue" d="M1067.77,-112.444C1093.81,-103.067 1135.65,-88.0068 1163.95,-77.818"/>
<polygon fill="midnightblue" stroke="midnightblue" points="1165.49,-80.9845 1173.71,-74.3042 1163.12,-74.3983 1165.49,-80.9845"/>
</g>
<!-- Node21 -->
<g id="node21" class="node"><title>Node21</title>
<polygon fill="none" stroke="#bfbfbf" points="1232.5,-56.5 1232.5,-75.5 1315.5,-75.5 1315.5,-56.5 1232.5,-56.5"/>
<text text-anchor="middle" x="1274" y="-63.5" font-family="Helvetica,sans-Serif" font-size="10.00">unordered_map</text>
</g>
<!-- Node18&#45;&gt;Node21 -->
<g id="edge33" class="edge"><title>Node18&#45;&gt;Node21</title>
<path fill="none" stroke="midnightblue" d="M1080.44,-112.444C1120.4,-103.063 1184.59,-87.9926 1227.98,-77.8036"/>
<polygon fill="midnightblue" stroke="midnightblue" points="1228.79,-81.2095 1237.73,-75.5164 1227.19,-74.3948 1228.79,-81.2095"/>
</g>
<!-- Node19&#45;&gt;Node5 -->
<g id="edge27" class="edge"><title>Node19&#45;&gt;Node5</title>
<path fill="none" stroke="midnightblue" d="M1096.49,-56.324C1078.93,-47.6247 1051.67,-34.1202 1031.47,-24.113"/>
<polygon fill="midnightblue" stroke="midnightblue" points="1032.98,-20.9575 1022.47,-19.6545 1029.88,-27.23 1032.98,-20.9575"/>
</g>
<!-- Node19&#45;&gt;Node6 -->
<g id="edge25" class="edge"><title>Node19&#45;&gt;Node6</title>
<path fill="none" stroke="midnightblue" d="M1132.22,-56.4435C1150.9,-47.6751 1180.16,-33.9355 1201.62,-23.8579"/>
<polygon fill="midnightblue" stroke="midnightblue" points="1203.3,-26.935 1210.86,-19.5164 1200.32,-20.5988 1203.3,-26.935"/>
</g>
<!-- Node19&#45;&gt;Node7 -->
<g id="edge26" class="edge"><title>Node19&#45;&gt;Node7</title>
<path fill="none" stroke="midnightblue" d="M1075.18,-56.4435C1025.84,-45.5684 941.802,-27.0463 897.802,-17.3481"/>
<polygon fill="midnightblue" stroke="midnightblue" points="898.549,-13.9288 888.03,-15.1943 897.042,-20.7647 898.549,-13.9288"/>
</g>
</g>
</svg>
