<?xml version="1.0" encoding="UTF-8" standalone="no"?>
<!DOCTYPE svg PUBLIC "-//W3C//DTD SVG 1.1//EN"
 "http://www.w3.org/Graphics/SVG/1.1/DTD/svg11.dtd">
<!-- Generated by graphviz version 2.36.0 (20140111.2315)
 -->
<!-- Title: /home/travis/build/robotology/wb&#45;toolbox/toolbox/library/src/GetMeasurement.cpp Pages: 1 -->
<!--zoomable 330 -->
<svg id="main" version="1.1" xmlns="http://www.w3.org/2000/svg" xmlns:xlink="http://www.w3.org/1999/xlink" xml:space="preserve" onload="init(evt)">
<style type="text/css"><![CDATA[
.edge:hover path { stroke: red; }
.edge:hover polygon { stroke: red; fill: red; }
]]></style>
<script type="text/javascript"><![CDATA[
var edges = document.getElementsByTagName('g');
if (edges && edges.length) {
  for (var i=0;i<edges.length;i++) {
    if (edges[i].id.substr(0,4)=='edge') {
      edges[i].setAttribute('class','edge');
    }
  }
}
]]></script>
        <defs>
                <circle id="rim" cx="0" cy="0" r="7"/>
                <circle id="rim2" cx="0" cy="0" r="3.5"/>
                <g id="zoomPlus">
                        <use xlink:href="#rim" fill="#404040">
                                <set attributeName="fill" to="#808080" begin="zoomplus.mouseover" end="zoomplus.mouseout"/>
                        </use>
                        <path d="M-4,0h8M0,-4v8" fill="none" stroke="white" stroke-width="1.5" pointer-events="none"/>
                </g>
                <g id="zoomMin">
                        <use xlink:href="#rim" fill="#404040">
                                <set attributeName="fill" to="#808080" begin="zoomminus.mouseover" end="zoomminus.mouseout"/>
                        </use>
                        <path d="M-4,0h8" fill="none" stroke="white" stroke-width="1.5" pointer-events="none"/>
                </g>
                <g id="dirArrow">
                        <path fill="none" stroke="white" stroke-width="1.5" d="M0,-3.0v7 M-2.5,-0.5L0,-3.0L2.5,-0.5"/>
                </g>
               <g id="resetDef">
                       <use xlink:href="#rim2" fill="#404040">
                               <set attributeName="fill" to="#808080" begin="reset.mouseover" end="reset.mouseout"/>
                       </use>
               </g>
        </defs>

<script type="text/javascript">
var viewWidth = 1741;
var viewHeight = 330;
var sectionId = 'dynsection-0';
</script>
<script xlink:href="svgpan.js"/>
<svg id="graph" class="graph">
<g id="viewport">
<title>/home/travis/build/robotology/wb&#45;toolbox/toolbox/library/src/GetMeasurement.cpp</title>
<!-- Node1 -->
<g id="node1" class="node"><title>Node1</title>
<polygon fill="#bfbfbf" stroke="black" points="733.638,-280.5 733.638,-321.5 927.638,-321.5 927.638,-280.5 733.638,-280.5"/>
<text text-anchor="start" x="741.638" y="-309.5" font-family="Helvetica,sans-Serif" font-size="10.00">/home/travis/build</text>
<text text-anchor="start" x="741.638" y="-298.5" font-family="Helvetica,sans-Serif" font-size="10.00">/robotology/wb&#45;toolbox</text>
<text text-anchor="middle" x="830.638" y="-287.5" font-family="Helvetica,sans-Serif" font-size="10.00">/toolbox/library/src/GetMeasurement.cpp</text>
</g>
<!-- Node2 -->
<g id="node2" class="node"><title>Node2</title>
<g id="a_node2"><a xlink:href="_get_measurement_8h.html" target="_top" xlink:title="GetMeasurement.h">
<polygon fill="none" stroke="black" points="413.638,-224.5 413.638,-243.5 513.638,-243.5 513.638,-224.5 413.638,-224.5"/>
<text text-anchor="middle" x="463.638" y="-231.5" font-family="Helvetica,sans-Serif" font-size="10.00">GetMeasurement.h</text>
</a>
</g>
</g>
<!-- Node1&#45;&gt;Node2 -->
<g id="edge1" class="edge"><title>Node1&#45;&gt;Node2</title>
<path fill="none" stroke="midnightblue" d="M733.253,-282.752C665.943,-270.83 578.641,-255.368 521.898,-245.318"/>
<polygon fill="midnightblue" stroke="midnightblue" points="522.475,-241.866 512.018,-243.569 521.254,-248.759 522.475,-241.866"/>
</g>
<!-- Node5 -->
<g id="node5" class="node"><title>Node5</title>
<g id="a_node5"><a xlink:href="_parameters_8h.html" target="_top" xlink:title="Core/Parameters.h">
<polygon fill="none" stroke="black" points="179.138,-56.5 179.138,-75.5 278.138,-75.5 278.138,-56.5 179.138,-56.5"/>
<text text-anchor="middle" x="228.638" y="-63.5" font-family="Helvetica,sans-Serif" font-size="10.00">Core/Parameters.h</text>
</a>
</g>
</g>
<!-- Node1&#45;&gt;Node5 -->
<g id="edge37" class="edge"><title>Node1&#45;&gt;Node5</title>
<path fill="none" stroke="midnightblue" d="M733.55,-294.142C587.004,-283.23 319.394,-254.557 253.638,-188 226.717,-160.751 225.189,-112.64 226.728,-86.0318"/>
<polygon fill="midnightblue" stroke="midnightblue" points="230.24,-86.0138 227.54,-75.7688 223.262,-85.4615 230.24,-86.0138"/>
</g>
<!-- Node8 -->
<g id="node8" class="node"><title>Node8</title>
<polygon fill="none" stroke="#bfbfbf" points="167.638,-0.5 167.638,-19.5 211.638,-19.5 211.638,-0.5 167.638,-0.5"/>
<text text-anchor="middle" x="189.638" y="-7.5" font-family="Helvetica,sans-Serif" font-size="10.00">vector</text>
</g>
<!-- Node1&#45;&gt;Node8 -->
<g id="edge48" class="edge"><title>Node1&#45;&gt;Node8</title>
<path fill="none" stroke="midnightblue" d="M733.395,-295.837C514.22,-285.157 0.638289,-252.311 0.638289,-179 0.638289,-179 0.638289,-179 0.638289,-121 0.638289,-90.9022 -1.91487,-77.008 19.6383,-56 56.8087,-19.7697 119.588,-11.8145 157.567,-10.5578"/>
<polygon fill="midnightblue" stroke="midnightblue" points="157.649,-14.0569 167.579,-10.363 157.513,-7.05827 157.649,-14.0569"/>
</g>
<!-- Node9 -->
<g id="node9" class="node"><title>Node9</title>
<g id="a_node9"><a xlink:href="_configuration_8h.html" target="_top" xlink:title="Base/Configuration.h">
<polygon fill="none" stroke="black" points="410.638,-56.5 410.638,-75.5 518.638,-75.5 518.638,-56.5 410.638,-56.5"/>
<text text-anchor="middle" x="464.638" y="-63.5" font-family="Helvetica,sans-Serif" font-size="10.00">Base/Configuration.h</text>
</a>
</g>
</g>
<!-- Node1&#45;&gt;Node9 -->
<g id="edge14" class="edge"><title>Node1&#45;&gt;Node9</title>
<path fill="none" stroke="midnightblue" d="M781.183,-280.457C757.989,-270.593 730.31,-257.801 706.638,-244 617.592,-192.084 521.505,-114.577 482.551,-82.1344"/>
<polygon fill="midnightblue" stroke="midnightblue" points="484.635,-79.3141 474.721,-75.5772 480.14,-84.6809 484.635,-79.3141"/>
</g>
<!-- Node11 -->
<g id="node11" class="node"><title>Node11</title>
<g id="a_node11"><a xlink:href="_robot_interface_8h.html" target="_top" xlink:title="Base/RobotInterface.h">
<polygon fill="none" stroke="black" points="875.138,-56.5 875.138,-75.5 990.138,-75.5 990.138,-56.5 875.138,-56.5"/>
<text text-anchor="middle" x="932.638" y="-63.5" font-family="Helvetica,sans-Serif" font-size="10.00">Base/RobotInterface.h</text>
</a>
</g>
</g>
<!-- Node1&#45;&gt;Node11 -->
<g id="edge19" class="edge"><title>Node1&#45;&gt;Node11</title>
<path fill="none" stroke="midnightblue" d="M835.937,-280.34C840.336,-264.819 847.08,-242.734 854.638,-224 875.725,-171.737 907.115,-112.939 922.871,-84.4035"/>
<polygon fill="midnightblue" stroke="midnightblue" points="925.948,-86.0728 927.75,-75.6323 919.831,-82.6701 925.948,-86.0728"/>
</g>
<!-- Node14 -->
<g id="node14" class="node"><title>Node14</title>
<g id="a_node14"><a xlink:href="_block_information_8h.html" target="_top" xlink:title="Core/BlockInformation.h">
<polygon fill="none" stroke="black" points="734.638,-56.5 734.638,-75.5 856.638,-75.5 856.638,-56.5 734.638,-56.5"/>
<text text-anchor="middle" x="795.638" y="-63.5" font-family="Helvetica,sans-Serif" font-size="10.00">Core/BlockInformation.h</text>
</a>
</g>
</g>
<!-- Node1&#45;&gt;Node14 -->
<g id="edge24" class="edge"><title>Node1&#45;&gt;Node14</title>
<path fill="none" stroke="midnightblue" d="M825.1,-280.437C822.237,-269.743 818.882,-256.222 816.638,-244 806.14,-186.804 799.738,-118.202 797.076,-85.7597"/>
<polygon fill="midnightblue" stroke="midnightblue" points="800.545,-85.2231 796.264,-75.5316 793.567,-85.7773 800.545,-85.2231"/>
</g>
<!-- Node15 -->
<g id="node15" class="node"><title>Node15</title>
<polygon fill="none" stroke="#bfbfbf" points="995.638,-0.5 995.638,-19.5 1033.64,-19.5 1033.64,-0.5 995.638,-0.5"/>
<text text-anchor="middle" x="1014.64" y="-7.5" font-family="Helvetica,sans-Serif" font-size="10.00">tuple</text>
</g>
<!-- Node1&#45;&gt;Node15 -->
<g id="edge47" class="edge"><title>Node1&#45;&gt;Node15</title>
<path fill="none" stroke="midnightblue" d="M845.539,-280.14C886.632,-225.366 998.553,-76.1793 998.638,-76 1005.64,-61.2307 1009.77,-43.0738 1012.08,-29.7076"/>
<polygon fill="midnightblue" stroke="midnightblue" points="1015.55,-30.2033 1013.61,-19.7864 1008.63,-29.1353 1015.55,-30.2033"/>
</g>
<!-- Node16 -->
<g id="node16" class="node"><title>Node16</title>
<g id="a_node16"><a xlink:href="_log_8h.html" target="_top" xlink:title="Core/Log.h">
<polygon fill="none" stroke="black" points="613.138,-56.5 613.138,-75.5 678.138,-75.5 678.138,-56.5 613.138,-56.5"/>
<text text-anchor="middle" x="645.638" y="-63.5" font-family="Helvetica,sans-Serif" font-size="10.00">Core/Log.h</text>
</a>
</g>
</g>
<!-- Node1&#45;&gt;Node16 -->
<g id="edge30" class="edge"><title>Node1&#45;&gt;Node16</title>
<path fill="none" stroke="midnightblue" d="M791.072,-280.355C756.689,-261.306 708.063,-229.258 679.638,-188 657.845,-156.368 649.947,-111.023 647.139,-85.782"/>
<polygon fill="midnightblue" stroke="midnightblue" points="650.613,-85.3418 646.175,-75.721 643.645,-86.0092 650.613,-85.3418"/>
</g>
<!-- Node18 -->
<g id="node18" class="node"><title>Node18</title>
<g id="a_node18"><a xlink:href="_parameter_8h.html" target="_top" xlink:title="Core/Parameter.h">
<polygon fill="none" stroke="black" points="28.6383,-56.5 28.6383,-75.5 122.638,-75.5 122.638,-56.5 28.6383,-56.5"/>
<text text-anchor="middle" x="75.6383" y="-63.5" font-family="Helvetica,sans-Serif" font-size="10.00">Core/Parameter.h</text>
</a>
</g>
</g>
<!-- Node1&#45;&gt;Node18 -->
<g id="edge34" class="edge"><title>Node1&#45;&gt;Node18</title>
<path fill="none" stroke="midnightblue" d="M733.512,-295.004C606.768,-287.52 392.446,-271.282 318.638,-244 220.33,-207.662 126.73,-119.421 90.9421,-83.0644"/>
<polygon fill="midnightblue" stroke="midnightblue" points="93.3157,-80.4847 83.8373,-75.7507 88.2947,-85.3623 93.3157,-80.4847"/>
</g>
<!-- Node19 -->
<g id="node19" class="node"><title>Node19</title>
<g id="a_node19"><a xlink:href="_signal_8h.html" target="_top" xlink:title="Core/Signal.h">
<polygon fill="none" stroke="black" points="688.638,-168.5 688.638,-187.5 764.638,-187.5 764.638,-168.5 688.638,-168.5"/>
<text text-anchor="middle" x="726.638" y="-175.5" font-family="Helvetica,sans-Serif" font-size="10.00">Core/Signal.h</text>
</a>
</g>
</g>
<!-- Node1&#45;&gt;Node19 -->
<g id="edge38" class="edge"><title>Node1&#45;&gt;Node19</title>
<path fill="none" stroke="midnightblue" d="M811.745,-280.368C801.715,-269.769 789.295,-256.359 778.638,-244 764.837,-227.993 749.833,-209.061 739.505,-195.771"/>
<polygon fill="midnightblue" stroke="midnightblue" points="742.058,-193.35 733.175,-187.576 736.519,-197.629 742.058,-193.35"/>
</g>
<!-- Node20 -->
<g id="node20" class="node"><title>Node20</title>
<polygon fill="none" stroke="#bfbfbf" points="896.638,-224.5 896.638,-243.5 1028.64,-243.5 1028.64,-224.5 896.638,-224.5"/>
<text text-anchor="middle" x="962.638" y="-231.5" font-family="Helvetica,sans-Serif" font-size="10.00">yarp/dev/ICurrentControl.h</text>
</g>
<!-- Node1&#45;&gt;Node20 -->
<g id="edge40" class="edge"><title>Node1&#45;&gt;Node20</title>
<path fill="none" stroke="midnightblue" d="M870.243,-280.498C891.454,-270.053 917.02,-257.464 935.876,-248.178"/>
<polygon fill="midnightblue" stroke="midnightblue" points="937.642,-251.21 945.067,-243.652 934.55,-244.93 937.642,-251.21"/>
</g>
<!-- Node21 -->
<g id="node21" class="node"><title>Node21</title>
<polygon fill="none" stroke="#bfbfbf" points="1046.64,-224.5 1046.64,-243.5 1156.64,-243.5 1156.64,-224.5 1046.64,-224.5"/>
<text text-anchor="middle" x="1101.64" y="-231.5" font-family="Helvetica,sans-Serif" font-size="10.00">yarp/dev/IEncoders.h</text>
</g>
<!-- Node1&#45;&gt;Node21 -->
<g id="edge41" class="edge"><title>Node1&#45;&gt;Node21</title>
<path fill="none" stroke="midnightblue" d="M911.947,-280.498C959.133,-269.18 1016.82,-255.345 1056.1,-245.923"/>
<polygon fill="midnightblue" stroke="midnightblue" points="1057.01,-249.303 1065.92,-243.567 1055.38,-242.496 1057.01,-249.303"/>
</g>
<!-- Node22 -->
<g id="node22" class="node"><title>Node22</title>
<polygon fill="none" stroke="#bfbfbf" points="1174.64,-224.5 1174.64,-243.5 1308.64,-243.5 1308.64,-224.5 1174.64,-224.5"/>
<text text-anchor="middle" x="1241.64" y="-231.5" font-family="Helvetica,sans-Serif" font-size="10.00">yarp/dev/IMotorEncoders.h</text>
</g>
<!-- Node1&#45;&gt;Node22 -->
<g id="edge42" class="edge"><title>Node1&#45;&gt;Node22</title>
<path fill="none" stroke="midnightblue" d="M927.779,-284.637C1004.99,-272.426 1110.79,-255.695 1177.67,-245.116"/>
<polygon fill="midnightblue" stroke="midnightblue" points="1178.33,-248.556 1187.66,-243.537 1177.23,-241.642 1178.33,-248.556"/>
</g>
<!-- Node23 -->
<g id="node23" class="node"><title>Node23</title>
<polygon fill="none" stroke="#bfbfbf" points="1327.14,-224.5 1327.14,-243.5 1452.14,-243.5 1452.14,-224.5 1327.14,-224.5"/>
<text text-anchor="middle" x="1389.64" y="-231.5" font-family="Helvetica,sans-Serif" font-size="10.00">yarp/dev/IPWMControl.h</text>
</g>
<!-- Node1&#45;&gt;Node23 -->
<g id="edge43" class="edge"><title>Node1&#45;&gt;Node23</title>
<path fill="none" stroke="midnightblue" d="M927.691,-289.125C1023.7,-278.302 1175.14,-261.054 1316.64,-244.109"/>
<polygon fill="midnightblue" stroke="midnightblue" points="1317.3,-247.556 1326.81,-242.89 1316.47,-240.606 1317.3,-247.556"/>
</g>
<!-- Node24 -->
<g id="node24" class="node"><title>Node24</title>
<polygon fill="none" stroke="#bfbfbf" points="1470.64,-224.5 1470.64,-243.5 1600.64,-243.5 1600.64,-224.5 1470.64,-224.5"/>
<text text-anchor="middle" x="1535.64" y="-231.5" font-family="Helvetica,sans-Serif" font-size="10.00">yarp/dev/ITorqueControl.h</text>
</g>
<!-- Node1&#45;&gt;Node24 -->
<g id="edge44" class="edge"><title>Node1&#45;&gt;Node24</title>
<path fill="none" stroke="midnightblue" d="M927.861,-292.292C1051.69,-282.259 1272.25,-263.672 1460.64,-244 1460.74,-243.989 1460.84,-243.979 1460.94,-243.968"/>
<polygon fill="midnightblue" stroke="midnightblue" points="1461.04,-247.478 1470.61,-242.928 1460.29,-240.518 1461.04,-247.478"/>
</g>
<!-- Node25 -->
<g id="node25" class="node"><title>Node25</title>
<polygon fill="none" stroke="#bfbfbf" points="1618.64,-224.5 1618.64,-243.5 1662.64,-243.5 1662.64,-224.5 1618.64,-224.5"/>
<text text-anchor="middle" x="1640.64" y="-231.5" font-family="Helvetica,sans-Serif" font-size="10.00">cmath</text>
</g>
<!-- Node1&#45;&gt;Node25 -->
<g id="edge45" class="edge"><title>Node1&#45;&gt;Node25</title>
<path fill="none" stroke="midnightblue" d="M927.694,-299.565C1073.92,-297.462 1359.24,-287.722 1608.45,-243.836"/>
<polygon fill="midnightblue" stroke="midnightblue" points="1609.19,-247.259 1618.42,-242.058 1607.96,-240.368 1609.19,-247.259"/>
</g>
<!-- Node26 -->
<g id="node26" class="node"><title>Node26</title>
<polygon fill="none" stroke="#bfbfbf" points="1680.64,-224.5 1680.64,-243.5 1732.64,-243.5 1732.64,-224.5 1680.64,-224.5"/>
<text text-anchor="middle" x="1706.64" y="-231.5" font-family="Helvetica,sans-Serif" font-size="10.00">ostream</text>
</g>
<!-- Node1&#45;&gt;Node26 -->
<g id="edge46" class="edge"><title>Node1&#45;&gt;Node26</title>
<path fill="none" stroke="midnightblue" d="M927.952,-299.131C1083.17,-296.503 1396.3,-286.122 1670.26,-243.72"/>
<polygon fill="midnightblue" stroke="midnightblue" points="1671.06,-247.138 1680.4,-242.133 1669.98,-240.222 1671.06,-247.138"/>
</g>
<!-- Node3 -->
<g id="node3" class="node"><title>Node3</title>
<g id="a_node3"><a xlink:href="_w_b_block_8h.html" target="_top" xlink:title="Base/WBBlock.h">
<polygon fill="none" stroke="black" points="262.638,-168.5 262.638,-187.5 354.638,-187.5 354.638,-168.5 262.638,-168.5"/>
<text text-anchor="middle" x="308.638" y="-175.5" font-family="Helvetica,sans-Serif" font-size="10.00">Base/WBBlock.h</text>
</a>
</g>
</g>
<!-- Node2&#45;&gt;Node3 -->
<g id="edge2" class="edge"><title>Node2&#45;&gt;Node3</title>
<path fill="none" stroke="midnightblue" d="M439.078,-224.444C413.116,-215.399 371.97,-201.064 342.841,-190.916"/>
<polygon fill="midnightblue" stroke="midnightblue" points="343.678,-187.501 333.084,-187.516 341.375,-194.112 343.678,-187.501"/>
</g>
<!-- Node6 -->
<g id="node6" class="node"><title>Node6</title>
<polygon fill="none" stroke="#bfbfbf" points="558.638,-0.5 558.638,-19.5 610.638,-19.5 610.638,-0.5 558.638,-0.5"/>
<text text-anchor="middle" x="584.638" y="-7.5" font-family="Helvetica,sans-Serif" font-size="10.00">memory</text>
</g>
<!-- Node2&#45;&gt;Node6 -->
<g id="edge12" class="edge"><title>Node2&#45;&gt;Node6</title>
<path fill="none" stroke="midnightblue" d="M468.839,-224.247C482.838,-200.597 522.31,-133.329 552.638,-76 560.899,-60.3841 569.728,-42.3377 576.015,-29.2282"/>
<polygon fill="midnightblue" stroke="midnightblue" points="579.311,-30.4471 580.452,-19.9139 572.991,-27.4364 579.311,-30.4471"/>
</g>
<!-- Node7 -->
<g id="node7" class="node"><title>Node7</title>
<polygon fill="none" stroke="#bfbfbf" points="362.138,-0.5 362.138,-19.5 403.138,-19.5 403.138,-0.5 362.138,-0.5"/>
<text text-anchor="middle" x="382.638" y="-7.5" font-family="Helvetica,sans-Serif" font-size="10.00">string</text>
</g>
<!-- Node2&#45;&gt;Node7 -->
<g id="edge13" class="edge"><title>Node2&#45;&gt;Node7</title>
<path fill="none" stroke="midnightblue" d="M459.856,-224.253C449.706,-200.618 421.309,-133.384 401.638,-76 396.337,-60.534 391.188,-42.6904 387.591,-29.6161"/>
<polygon fill="midnightblue" stroke="midnightblue" points="390.956,-28.6507 384.965,-19.9122 384.199,-30.4793 390.956,-28.6507"/>
</g>
<!-- Node4 -->
<g id="node4" class="node"><title>Node4</title>
<g id="a_node4"><a xlink:href="_block_8h.html" target="_top" xlink:title="Core/Block.h">
<polygon fill="none" stroke="black" points="242.638,-112.5 242.638,-131.5 316.638,-131.5 316.638,-112.5 242.638,-112.5"/>
<text text-anchor="middle" x="279.638" y="-119.5" font-family="Helvetica,sans-Serif" font-size="10.00">Core/Block.h</text>
</a>
</g>
</g>
<!-- Node3&#45;&gt;Node4 -->
<g id="edge3" class="edge"><title>Node3&#45;&gt;Node4</title>
<path fill="none" stroke="midnightblue" d="M303.85,-168.083C299.88,-160.691 294.113,-149.953 289.204,-140.811"/>
<polygon fill="midnightblue" stroke="midnightblue" points="292.153,-138.905 284.338,-131.751 285.986,-142.217 292.153,-138.905"/>
</g>
<!-- Node3&#45;&gt;Node6 -->
<g id="edge10" class="edge"><title>Node3&#45;&gt;Node6</title>
<path fill="none" stroke="midnightblue" d="M336.216,-168.466C379.783,-154.108 465.914,-122.1 527.638,-76 545.789,-62.4437 562.351,-42.2772 572.888,-28.0078"/>
<polygon fill="midnightblue" stroke="midnightblue" points="575.924,-29.7797 578.899,-19.611 570.232,-25.7052 575.924,-29.7797"/>
</g>
<!-- Node3&#45;&gt;Node7 -->
<g id="edge11" class="edge"><title>Node3&#45;&gt;Node7</title>
<path fill="none" stroke="midnightblue" d="M312.617,-168.075C324.316,-141.832 358.769,-64.5453 374.562,-29.1165"/>
<polygon fill="midnightblue" stroke="midnightblue" points="377.944,-30.1268 378.819,-19.5681 371.55,-27.2766 377.944,-30.1268"/>
</g>
<!-- Node4&#45;&gt;Node5 -->
<g id="edge4" class="edge"><title>Node4&#45;&gt;Node5</title>
<path fill="none" stroke="midnightblue" d="M271.217,-112.083C263.79,-104.22 252.787,-92.5688 243.826,-83.0813"/>
<polygon fill="midnightblue" stroke="midnightblue" points="246.314,-80.618 236.903,-75.7511 241.225,-85.4244 246.314,-80.618"/>
</g>
<!-- Node4&#45;&gt;Node7 -->
<g id="edge8" class="edge"><title>Node4&#45;&gt;Node7</title>
<path fill="none" stroke="midnightblue" d="M285.744,-112.157C294.848,-99.2322 312.826,-74.69 330.638,-56 340.805,-45.3319 353.258,-34.4894 363.427,-26.1209"/>
<polygon fill="midnightblue" stroke="midnightblue" points="365.756,-28.7394 371.333,-19.7314 361.356,-23.2953 365.756,-28.7394"/>
</g>
<!-- Node4&#45;&gt;Node8 -->
<g id="edge9" class="edge"><title>Node4&#45;&gt;Node8</title>
<path fill="none" stroke="midnightblue" d="M242.537,-116.484C217.352,-111.273 185.797,-100.069 169.638,-76 159.907,-61.5044 168.091,-42.067 176.741,-28.2336"/>
<polygon fill="midnightblue" stroke="midnightblue" points="179.833,-29.9118 182.589,-19.6815 174.055,-25.9605 179.833,-29.9118"/>
</g>
<!-- Node5&#45;&gt;Node6 -->
<g id="edge5" class="edge"><title>Node5&#45;&gt;Node6</title>
<path fill="none" stroke="midnightblue" d="M278.139,-57.4915C350.711,-46.4834 484.303,-26.2194 548.429,-16.4925"/>
<polygon fill="midnightblue" stroke="midnightblue" points="549.108,-19.9296 558.47,-14.9694 548.058,-13.0087 549.108,-19.9296"/>
</g>
<!-- Node5&#45;&gt;Node7 -->
<g id="edge6" class="edge"><title>Node5&#45;&gt;Node7</title>
<path fill="none" stroke="midnightblue" d="M253.04,-56.4435C279.897,-47.0262 323.107,-31.8746 352.169,-21.6842"/>
<polygon fill="midnightblue" stroke="midnightblue" points="353.529,-24.916 361.808,-18.3042 351.213,-18.3104 353.529,-24.916"/>
</g>
<!-- Node5&#45;&gt;Node8 -->
<g id="edge7" class="edge"><title>Node5&#45;&gt;Node8</title>
<path fill="none" stroke="midnightblue" d="M222.198,-56.083C216.689,-48.4554 208.607,-37.2645 201.873,-27.9408"/>
<polygon fill="midnightblue" stroke="midnightblue" points="204.651,-25.8087 195.959,-19.7511 198.976,-29.9071 204.651,-25.8087"/>
</g>
<!-- Node9&#45;&gt;Node6 -->
<g id="edge16" class="edge"><title>Node9&#45;&gt;Node6</title>
<path fill="none" stroke="midnightblue" d="M483.653,-56.4435C503.226,-47.6356 533.946,-33.8116 556.367,-23.722"/>
<polygon fill="midnightblue" stroke="midnightblue" points="558.03,-26.8119 565.713,-19.5164 555.157,-20.4284 558.03,-26.8119"/>
</g>
<!-- Node9&#45;&gt;Node7 -->
<g id="edge17" class="edge"><title>Node9&#45;&gt;Node7</title>
<path fill="none" stroke="midnightblue" d="M451.464,-56.324C438.792,-47.979 419.405,-35.2122 404.433,-25.3524"/>
<polygon fill="midnightblue" stroke="midnightblue" points="406.057,-22.2313 395.78,-19.6545 402.207,-28.0776 406.057,-22.2313"/>
</g>
<!-- Node9&#45;&gt;Node8 -->
<g id="edge18" class="edge"><title>Node9&#45;&gt;Node8</title>
<path fill="none" stroke="midnightblue" d="M421.064,-56.4435C365.613,-45.5549 271.123,-27.0005 221.784,-17.3123"/>
<polygon fill="midnightblue" stroke="midnightblue" points="222.173,-13.8219 211.686,-15.3294 220.824,-20.6907 222.173,-13.8219"/>
</g>
<!-- Node10 -->
<g id="node10" class="node"><title>Node10</title>
<polygon fill="none" stroke="#bfbfbf" points="445.638,-0.5 445.638,-19.5 483.638,-19.5 483.638,-0.5 445.638,-0.5"/>
<text text-anchor="middle" x="464.638" y="-7.5" font-family="Helvetica,sans-Serif" font-size="10.00">array</text>
</g>
<!-- Node9&#45;&gt;Node10 -->
<g id="edge15" class="edge"><title>Node9&#45;&gt;Node10</title>
<path fill="none" stroke="midnightblue" d="M464.638,-56.083C464.638,-49.0059 464.638,-38.8611 464.638,-29.9865"/>
<polygon fill="midnightblue" stroke="midnightblue" points="468.138,-29.751 464.638,-19.7511 461.138,-29.7511 468.138,-29.751"/>
</g>
<!-- Node11&#45;&gt;Node6 -->
<g id="edge20" class="edge"><title>Node11&#45;&gt;Node6</title>
<path fill="none" stroke="midnightblue" d="M875.094,-57.073C798.28,-46.4429 667.311,-28.134 621.015,-19.9782"/>
<polygon fill="midnightblue" stroke="midnightblue" points="621.414,-16.4923 610.941,-18.0909 620.125,-23.3726 621.414,-16.4923"/>
</g>
<!-- Node11&#45;&gt;Node7 -->
<g id="edge21" class="edge"><title>Node11&#45;&gt;Node7</title>
<path fill="none" stroke="midnightblue" d="M874.917,-57.0607C871.78,-56.6873 868.672,-56.3308 865.638,-56 675.429,-35.257 626.496,-43.7475 436.638,-20 429.052,-19.0511 420.902,-17.81 413.292,-16.554"/>
<polygon fill="midnightblue" stroke="midnightblue" points="413.797,-13.0898 403.351,-14.858 412.62,-19.9901 413.797,-13.0898"/>
</g>
<!-- Node12 -->
<g id="node12" class="node"><title>Node12</title>
<polygon fill="none" stroke="#bfbfbf" points="891.138,-0.5 891.138,-19.5 974.138,-19.5 974.138,-0.5 891.138,-0.5"/>
<text text-anchor="middle" x="932.638" y="-7.5" font-family="Helvetica,sans-Serif" font-size="10.00">unordered_map</text>
</g>
<!-- Node11&#45;&gt;Node12 -->
<g id="edge22" class="edge"><title>Node11&#45;&gt;Node12</title>
<path fill="none" stroke="midnightblue" d="M932.638,-56.083C932.638,-49.0059 932.638,-38.8611 932.638,-29.9865"/>
<polygon fill="midnightblue" stroke="midnightblue" points="936.138,-29.751 932.638,-19.7511 929.138,-29.7511 936.138,-29.751"/>
</g>
<!-- Node13 -->
<g id="node13" class="node"><title>Node13</title>
<polygon fill="none" stroke="#bfbfbf" points="803.638,-0.5 803.638,-19.5 843.638,-19.5 843.638,-0.5 803.638,-0.5"/>
<text text-anchor="middle" x="823.638" y="-7.5" font-family="Helvetica,sans-Serif" font-size="10.00">utility</text>
</g>
<!-- Node11&#45;&gt;Node13 -->
<g id="edge23" class="edge"><title>Node11&#45;&gt;Node13</title>
<path fill="none" stroke="midnightblue" d="M915.126,-56.324C897.566,-47.6247 870.307,-34.1202 850.107,-24.113"/>
<polygon fill="midnightblue" stroke="midnightblue" points="851.622,-20.9575 841.108,-19.6545 848.514,-27.23 851.622,-20.9575"/>
</g>
<!-- Node14&#45;&gt;Node6 -->
<g id="edge25" class="edge"><title>Node14&#45;&gt;Node6</title>
<path fill="none" stroke="midnightblue" d="M762.222,-56.4705C728.822,-47.9422 675.729,-34.3765 620.901,-20.3215"/>
<polygon fill="midnightblue" stroke="midnightblue" points="621.567,-16.879 611.011,-17.7856 619.828,-23.6596 621.567,-16.879"/>
</g>
<!-- Node14&#45;&gt;Node7 -->
<g id="edge26" class="edge"><title>Node14&#45;&gt;Node7</title>
<path fill="none" stroke="midnightblue" d="M734.557,-58.106C663.036,-49.8573 541.06,-35.2399 436.638,-20 429.073,-18.8959 420.931,-17.5971 413.321,-16.335"/>
<polygon fill="midnightblue" stroke="midnightblue" points="413.821,-12.8699 403.378,-14.6583 412.657,-19.7725 413.821,-12.8699"/>
</g>
<!-- Node14&#45;&gt;Node8 -->
<g id="edge29" class="edge"><title>Node14&#45;&gt;Node8</title>
<path fill="none" stroke="midnightblue" d="M734.478,-59.55C607.315,-48.2187 318.209,-22.4568 221.686,-13.8557"/>
<polygon fill="midnightblue" stroke="midnightblue" points="221.933,-10.3639 211.661,-12.9625 221.311,-17.3363 221.933,-10.3639"/>
</g>
<!-- Node14&#45;&gt;Node13 -->
<g id="edge28" class="edge"><title>Node14&#45;&gt;Node13</title>
<path fill="none" stroke="midnightblue" d="M800.262,-56.083C804.095,-48.6913 809.663,-37.9533 814.403,-28.8111"/>
<polygon fill="midnightblue" stroke="midnightblue" points="817.605,-30.2398 819.101,-19.7511 811.39,-27.0175 817.605,-30.2398"/>
</g>
<!-- Node14&#45;&gt;Node15 -->
<g id="edge27" class="edge"><title>Node14&#45;&gt;Node15</title>
<path fill="none" stroke="midnightblue" d="M832.996,-56.4507C870.818,-47.6919 930.941,-33.485 982.638,-20 983.542,-19.7642 984.46,-19.5223 985.386,-19.2759"/>
<polygon fill="midnightblue" stroke="midnightblue" points="986.656,-22.557 995.38,-16.5443 984.811,-15.8047 986.656,-22.557"/>
</g>
<!-- Node16&#45;&gt;Node6 -->
<g id="edge31" class="edge"><title>Node16&#45;&gt;Node6</title>
<path fill="none" stroke="midnightblue" d="M635.838,-56.324C626.82,-48.3414 613.232,-36.3128 602.32,-26.6529"/>
<polygon fill="midnightblue" stroke="midnightblue" points="604.425,-23.8416 594.617,-19.8339 599.785,-29.083 604.425,-23.8416"/>
</g>
<!-- Node16&#45;&gt;Node7 -->
<g id="edge33" class="edge"><title>Node16&#45;&gt;Node7</title>
<path fill="none" stroke="midnightblue" d="M613.126,-58.3244C561.931,-47.813 463.227,-27.5467 413.242,-17.2838"/>
<polygon fill="midnightblue" stroke="midnightblue" points="413.85,-13.8356 403.35,-15.2527 412.442,-20.6925 413.85,-13.8356"/>
</g>
<!-- Node17 -->
<g id="node17" class="node"><title>Node17</title>
<polygon fill="none" stroke="#bfbfbf" points="628.638,-0.5 628.638,-19.5 680.638,-19.5 680.638,-0.5 628.638,-0.5"/>
<text text-anchor="middle" x="654.638" y="-7.5" font-family="Helvetica,sans-Serif" font-size="10.00">sstream</text>
</g>
<!-- Node16&#45;&gt;Node17 -->
<g id="edge32" class="edge"><title>Node16&#45;&gt;Node17</title>
<path fill="none" stroke="midnightblue" d="M647.124,-56.083C648.317,-48.9272 650.032,-38.6353 651.523,-29.6911"/>
<polygon fill="midnightblue" stroke="midnightblue" points="654.988,-30.1904 653.18,-19.7511 648.083,-29.0396 654.988,-30.1904"/>
</g>
<!-- Node18&#45;&gt;Node7 -->
<g id="edge35" class="edge"><title>Node18&#45;&gt;Node7</title>
<path fill="none" stroke="midnightblue" d="M122.934,-56.6808C186.638,-45.4756 298.209,-25.8508 351.968,-16.3948"/>
<polygon fill="midnightblue" stroke="midnightblue" points="352.675,-19.8243 361.917,-14.6447 351.462,-12.9301 352.675,-19.8243"/>
</g>
<!-- Node18&#45;&gt;Node8 -->
<g id="edge36" class="edge"><title>Node18&#45;&gt;Node8</title>
<path fill="none" stroke="midnightblue" d="M93.7019,-56.4435C112.213,-47.6751 141.219,-33.9355 162.494,-23.8579"/>
<polygon fill="midnightblue" stroke="midnightblue" points="164.12,-26.9604 171.659,-19.5164 161.123,-20.6343 164.12,-26.9604"/>
</g>
<!-- Node19&#45;&gt;Node6 -->
<g id="edge39" class="edge"><title>Node19&#45;&gt;Node6</title>
<path fill="none" stroke="midnightblue" d="M726.113,-168.187C724.366,-146.41 716.982,-89.4133 686.638,-56 677.119,-45.5181 645.164,-32.3189 619.528,-22.9321"/>
<polygon fill="midnightblue" stroke="midnightblue" points="620.666,-19.6221 610.072,-19.5348 618.299,-26.2099 620.666,-19.6221"/>
</g>
</g>
</svg>
        <g id="navigator" transform="translate(0 0)" fill="#404254">
                <rect fill="#f2f5e9" fill-opacity="0.5" stroke="#606060" stroke-width=".5" x="0" y="0" width="60" height="60"/>
                <use id="zoomplus" xlink:href="#zoomPlus" x="17" y="9" onmousedown="handleZoom(evt,'in')"/>
                <use id="zoomminus" xlink:href="#zoomMin" x="42" y="9" onmousedown="handleZoom(evt,'out')"/>
                <use id="reset" xlink:href="#resetDef" x="30" y="36" onmousedown="handleReset()"/>
                <g id="arrowUp" xlink:href="#dirArrow" transform="translate(30 24)" onmousedown="handlePan(0,-1)">
                  <use xlink:href="#rim" fill="#404040">
                        <set attributeName="fill" to="#808080" begin="arrowUp.mouseover" end="arrowUp.mouseout"/>
                  </use>
                  <path fill="none" stroke="white" stroke-width="1.5" d="M0,-3.0v7 M-2.5,-0.5L0,-3.0L2.5,-0.5"/>
                </g>
                <g id="arrowRight" xlink:href="#dirArrow" transform="rotate(90) translate(36 -43)" onmousedown="handlePan(1,0)">
                  <use xlink:href="#rim" fill="#404040">
                        <set attributeName="fill" to="#808080" begin="arrowRight.mouseover" end="arrowRight.mouseout"/>
                  </use>
                  <path fill="none" stroke="white" stroke-width="1.5" d="M0,-3.0v7 M-2.5,-0.5L0,-3.0L2.5,-0.5"/>
                </g>
                <g id="arrowDown" xlink:href="#dirArrow" transform="rotate(180) translate(-30 -48)" onmousedown="handlePan(0,1)">
                  <use xlink:href="#rim" fill="#404040">
                        <set attributeName="fill" to="#808080" begin="arrowDown.mouseover" end="arrowDown.mouseout"/>
                  </use>
                  <path fill="none" stroke="white" stroke-width="1.5" d="M0,-3.0v7 M-2.5,-0.5L0,-3.0L2.5,-0.5"/>
                </g>
                <g id="arrowLeft" xlink:href="#dirArrow" transform="rotate(270) translate(-36 17)" onmousedown="handlePan(-1,0)">
                  <use xlink:href="#rim" fill="#404040">
                        <set attributeName="fill" to="#808080" begin="arrowLeft.mouseover" end="arrowLeft.mouseout"/>
                  </use>
                  <path fill="none" stroke="white" stroke-width="1.5" d="M0,-3.0v7 M-2.5,-0.5L0,-3.0L2.5,-0.5"/>
                </g>
        </g>
        <svg viewBox="0 0 15 15" width="100%" height="30px" preserveAspectRatio="xMaxYMin meet">
         <g id="arrow_out" transform="scale(0.3 0.3)">
          <a xlink:href="_get_measurement_8cpp__incl_org.svg" target="_base">
           <rect id="button" ry="5" rx="5" y="6" x="6" height="38" width="38"
                fill="#f2f5e9" fill-opacity="0.5" stroke="#606060" stroke-width="1.0"/>
           <path id="arrow"
             d="M 11.500037,31.436501 C 11.940474,20.09759 22.043105,11.32322 32.158766,21.979434 L 37.068811,17.246167 C 37.068811,17.246167 37.088388,32 37.088388,32 L 22.160133,31.978069 C 22.160133,31.978069 26.997745,27.140456 26.997745,27.140456 C 18.528582,18.264221 13.291696,25.230495 11.500037,31.436501 z"
             style="fill:#404040;"/>
          </a>
         </g>
        </svg>
</svg>
