<?xml version="1.0" encoding="UTF-8" standalone="no"?>
<!DOCTYPE svg PUBLIC "-//W3C//DTD SVG 1.1//EN"
 "http://www.w3.org/Graphics/SVG/1.1/DTD/svg11.dtd">
<!-- Generated by graphviz version 2.43.0 (0)
 -->
<!-- Title: /home/dferigo/git/WB&#45;Toolbox/toolbox/library/src/GetLimits.cpp Pages: 1 -->
<!--zoomable 218 -->
<svg id="main" version="1.1" xmlns="http://www.w3.org/2000/svg" xmlns:xlink="http://www.w3.org/1999/xlink" xml:space="preserve" onload="init(evt)">
<style type="text/css"><![CDATA[
.edge:hover path { stroke: red; }
.edge:hover polygon { stroke: red; fill: red; }
]]></style>
<script type="text/javascript"><![CDATA[
var edges = document.getElementsByTagName('g');
if (edges && edges.length) {
  for (var i=0;i<edges.length;i++) {
    if (edges[i].id.substr(0,4)=='edge') {
      edges[i].setAttribute('class','edge');
    }
  }
}
]]></script>
        <defs>
                <circle id="rim" cx="0" cy="0" r="7"/>
                <circle id="rim2" cx="0" cy="0" r="3.5"/>
                <g id="zoomPlus">
                        <use xlink:href="#rim" fill="#404040">
                                <set attributeName="fill" to="#808080" begin="zoomplus.mouseover" end="zoomplus.mouseout"/>
                        </use>
                        <path d="M-4,0h8M0,-4v8" fill="none" stroke="white" stroke-width="1.5" pointer-events="none"/>
                </g>
                <g id="zoomMin">
                        <use xlink:href="#rim" fill="#404040">
                                <set attributeName="fill" to="#808080" begin="zoomminus.mouseover" end="zoomminus.mouseout"/>
                        </use>
                        <path d="M-4,0h8" fill="none" stroke="white" stroke-width="1.5" pointer-events="none"/>
                </g>
                <g id="dirArrow">
                        <path fill="none" stroke="white" stroke-width="1.5" d="M0,-3.0v7 M-2.5,-0.5L0,-3.0L2.5,-0.5"/>
                </g>
               <g id="resetDef">
                       <use xlink:href="#rim2" fill="#404040">
                               <set attributeName="fill" to="#808080" begin="reset.mouseover" end="reset.mouseout"/>
                       </use>
               </g>
        </defs>

<script type="text/javascript">
var viewWidth = 2478;
var viewHeight = 218;
var sectionId = 'dynsection-0';
</script>
<script xlink:href="svgpan.js"/>
<svg id="graph" class="graph">
<g id="viewport">
<title>/home/dferigo/git/WB&#45;Toolbox/toolbox/library/src/GetLimits.cpp</title>
<!-- Node1 -->
<g id="node1" class="node">
<title>Node1</title>
<g id="a_node1"><a xlink:title=" ">
<polygon fill="#bfbfbf" stroke="black" points="1305.76,-168.5 1305.76,-209.5 1436.76,-209.5 1436.76,-168.5 1305.76,-168.5"/>
<text text-anchor="start" x="1313.76" y="-197.5" font-family="Helvetica,sans-Serif" font-size="10.00">/home/dferigo/git/WB</text>
<text text-anchor="start" x="1313.76" y="-186.5" font-family="Helvetica,sans-Serif" font-size="10.00">&#45;Toolbox/toolbox/library</text>
<text text-anchor="middle" x="1371.26" y="-175.5" font-family="Helvetica,sans-Serif" font-size="10.00">/src/GetLimits.cpp</text>
</a>
</g>
</g>
<!-- Node2 -->
<g id="node2" class="node">
<title>Node2</title>
<g id="a_node2"><a xlink:href="_get_limits_8h.html" target="_top" xlink:title=" ">
<polygon fill="none" stroke="black" points="11.26,-112.5 11.26,-131.5 171.26,-131.5 171.26,-112.5 11.26,-112.5"/>
<text text-anchor="middle" x="91.26" y="-119.5" font-family="Helvetica,sans-Serif" font-size="10.00">WBToolbox/Block/GetLimits.h</text>
</a>
</g>
</g>
<!-- Node1&#45;&gt;Node2 -->
<g id="edge1" class="edge">
<title>Node1&#45;&gt;Node2</title>
<path fill="none" stroke="midnightblue" d="M1305.66,-186.16C1127.07,-180.87 616.93,-163.99 181.57,-132.06"/>
<polygon fill="midnightblue" stroke="midnightblue" points="181.53,-128.54 171.3,-131.3 181.01,-135.52 181.53,-128.54"/>
</g>
<!-- Node7 -->
<g id="node7" class="node">
<title>Node7</title>
<g id="a_node7"><a xlink:href="_configuration_8h.html" target="_top" xlink:title=" ">
<polygon fill="none" stroke="black" points="189.26,-112.5 189.26,-131.5 365.26,-131.5 365.26,-112.5 189.26,-112.5"/>
<text text-anchor="middle" x="277.26" y="-119.5" font-family="Helvetica,sans-Serif" font-size="10.00">WBToolbox/Base/Configuration.h</text>
</a>
</g>
</g>
<!-- Node1&#45;&gt;Node7 -->
<g id="edge8" class="edge">
<title>Node1&#45;&gt;Node7</title>
<path fill="none" stroke="midnightblue" d="M1305.63,-185.01C1146.61,-177.62 728.09,-157.23 379.26,-132 377.99,-131.91 376.71,-131.81 375.42,-131.72"/>
<polygon fill="midnightblue" stroke="midnightblue" points="375.67,-128.23 365.43,-130.95 375.13,-135.21 375.67,-128.23"/>
</g>
<!-- Node9 -->
<g id="node9" class="node">
<title>Node9</title>
<g id="a_node9"><a xlink:title=" ">
<polygon fill="none" stroke="#bfbfbf" points="360.76,-56.5 360.76,-75.5 407.76,-75.5 407.76,-56.5 360.76,-56.5"/>
<text text-anchor="middle" x="384.26" y="-63.5" font-family="Helvetica,sans-Serif" font-size="10.00">vector</text>
</a>
</g>
</g>
<!-- Node1&#45;&gt;Node9 -->
<g id="edge32" class="edge">
<title>Node1&#45;&gt;Node9</title>
<path fill="none" stroke="midnightblue" d="M1305.46,-186.95C1106.2,-183.38 518.29,-169.74 441.26,-132 420.28,-121.72 403.73,-99.9 393.99,-84.38"/>
<polygon fill="midnightblue" stroke="midnightblue" points="396.95,-82.5 388.83,-75.69 390.93,-86.08 396.95,-82.5"/>
</g>
<!-- Node10 -->
<g id="node10" class="node">
<title>Node10</title>
<g id="a_node10"><a xlink:href="_robot_interface_8h.html" target="_top" xlink:title=" ">
<polygon fill="none" stroke="black" points="426.26,-56.5 426.26,-75.5 608.26,-75.5 608.26,-56.5 426.26,-56.5"/>
<text text-anchor="middle" x="517.26" y="-63.5" font-family="Helvetica,sans-Serif" font-size="10.00">WBToolbox/Base/RobotInterface.h</text>
</a>
</g>
</g>
<!-- Node1&#45;&gt;Node10 -->
<g id="edge13" class="edge">
<title>Node1&#45;&gt;Node10</title>
<path fill="none" stroke="midnightblue" d="M1305.67,-186.44C1100.14,-181.25 480.51,-163.08 451.26,-132 433.87,-113.51 463.01,-93.11 487.92,-80.19"/>
<polygon fill="midnightblue" stroke="midnightblue" points="489.74,-83.19 497.15,-75.62 486.64,-76.92 489.74,-83.19"/>
</g>
<!-- Node13 -->
<g id="node13" class="node">
<title>Node13</title>
<g id="a_node13"><a xlink:title=" ">
<polygon fill="none" stroke="#bfbfbf" points="459.76,-112.5 459.76,-131.5 660.76,-131.5 660.76,-112.5 459.76,-112.5"/>
<text text-anchor="middle" x="560.26" y="-119.5" font-family="Helvetica,sans-Serif" font-size="10.00">BlockFactory/Core/BlockInformation.h</text>
</a>
</g>
</g>
<!-- Node1&#45;&gt;Node13 -->
<g id="edge18" class="edge">
<title>Node1&#45;&gt;Node13</title>
<path fill="none" stroke="midnightblue" d="M1305.54,-182.79C1183.1,-173.08 911.47,-151.49 670.95,-132.05"/>
<polygon fill="midnightblue" stroke="midnightblue" points="671.22,-128.56 660.97,-131.25 670.65,-135.54 671.22,-128.56"/>
</g>
<!-- Node14 -->
<g id="node14" class="node">
<title>Node14</title>
<g id="a_node14"><a xlink:title=" ">
<polygon fill="none" stroke="#bfbfbf" points="679.26,-112.5 679.26,-131.5 813.26,-131.5 813.26,-112.5 679.26,-112.5"/>
<text text-anchor="middle" x="746.26" y="-119.5" font-family="Helvetica,sans-Serif" font-size="10.00">BlockFactory/Core/Log.h</text>
</a>
</g>
</g>
<!-- Node1&#45;&gt;Node14 -->
<g id="edge19" class="edge">
<title>Node1&#45;&gt;Node14</title>
<path fill="none" stroke="midnightblue" d="M1305.73,-181.66C1204.61,-171.81 1004.18,-151.97 823.35,-132.11"/>
<polygon fill="midnightblue" stroke="midnightblue" points="823.71,-128.62 813.39,-131.01 822.95,-135.58 823.71,-128.62"/>
</g>
<!-- Node15 -->
<g id="node15" class="node">
<title>Node15</title>
<g id="a_node15"><a xlink:title=" ">
<polygon fill="none" stroke="#bfbfbf" points="831.26,-112.5 831.26,-131.5 999.26,-131.5 999.26,-112.5 831.26,-112.5"/>
<text text-anchor="middle" x="915.26" y="-119.5" font-family="Helvetica,sans-Serif" font-size="10.00">BlockFactory/Core/Parameter.h</text>
</a>
</g>
</g>
<!-- Node1&#45;&gt;Node15 -->
<g id="edge20" class="edge">
<title>Node1&#45;&gt;Node15</title>
<path fill="none" stroke="midnightblue" d="M1305.44,-178.62C1220.27,-166.48 1072.49,-145.41 985.31,-132.98"/>
<polygon fill="midnightblue" stroke="midnightblue" points="985.64,-129.5 975.24,-131.55 984.65,-136.43 985.64,-129.5"/>
</g>
<!-- Node16 -->
<g id="node16" class="node">
<title>Node16</title>
<g id="a_node16"><a xlink:title=" ">
<polygon fill="none" stroke="#bfbfbf" points="1017.76,-112.5 1017.76,-131.5 1190.76,-131.5 1190.76,-112.5 1017.76,-112.5"/>
<text text-anchor="middle" x="1104.26" y="-119.5" font-family="Helvetica,sans-Serif" font-size="10.00">BlockFactory/Core/Parameters.h</text>
</a>
</g>
</g>
<!-- Node1&#45;&gt;Node16 -->
<g id="edge21" class="edge">
<title>Node1&#45;&gt;Node16</title>
<path fill="none" stroke="midnightblue" d="M1305.6,-172.02C1257,-160.18 1192.06,-144.37 1149.24,-133.95"/>
<polygon fill="midnightblue" stroke="midnightblue" points="1149.93,-130.52 1139.39,-131.55 1148.28,-137.32 1149.93,-130.52"/>
</g>
<!-- Node17 -->
<g id="node17" class="node">
<title>Node17</title>
<g id="a_node17"><a xlink:title=" ">
<polygon fill="none" stroke="#bfbfbf" points="1208.76,-112.5 1208.76,-131.5 1355.76,-131.5 1355.76,-112.5 1208.76,-112.5"/>
<text text-anchor="middle" x="1282.26" y="-119.5" font-family="Helvetica,sans-Serif" font-size="10.00">BlockFactory/Core/Signal.h</text>
</a>
</g>
</g>
<!-- Node1&#45;&gt;Node17 -->
<g id="edge22" class="edge">
<title>Node1&#45;&gt;Node17</title>
<path fill="none" stroke="midnightblue" d="M1344.56,-168.5C1331.04,-158.63 1314.91,-146.84 1302.44,-137.74"/>
<polygon fill="midnightblue" stroke="midnightblue" points="1304.25,-134.72 1294.11,-131.65 1300.12,-140.38 1304.25,-134.72"/>
</g>
<!-- Node18 -->
<g id="node18" class="node">
<title>Node18</title>
<g id="a_node18"><a xlink:title=" ">
<polygon fill="none" stroke="#bfbfbf" points="1373.76,-112.5 1373.76,-131.5 1548.76,-131.5 1548.76,-112.5 1373.76,-112.5"/>
<text text-anchor="middle" x="1461.26" y="-119.5" font-family="Helvetica,sans-Serif" font-size="10.00">iDynTree/KinDynComputations.h</text>
</a>
</g>
</g>
<!-- Node1&#45;&gt;Node18 -->
<g id="edge23" class="edge">
<title>Node1&#45;&gt;Node18</title>
<path fill="none" stroke="midnightblue" d="M1398.26,-168.5C1411.93,-158.63 1428.25,-146.84 1440.85,-137.74"/>
<polygon fill="midnightblue" stroke="midnightblue" points="1443.22,-140.34 1449.28,-131.65 1439.13,-134.67 1443.22,-140.34"/>
</g>
<!-- Node19 -->
<g id="node19" class="node">
<title>Node19</title>
<g id="a_node19"><a xlink:title=" ">
<polygon fill="none" stroke="#bfbfbf" points="1566.76,-112.5 1566.76,-131.5 1695.76,-131.5 1695.76,-112.5 1566.76,-112.5"/>
<text text-anchor="middle" x="1631.26" y="-119.5" font-family="Helvetica,sans-Serif" font-size="10.00">iDynTree/Model/IJoint.h</text>
</a>
</g>
</g>
<!-- Node1&#45;&gt;Node19 -->
<g id="edge24" class="edge">
<title>Node1&#45;&gt;Node19</title>
<path fill="none" stroke="midnightblue" d="M1436.87,-171.6C1483.98,-159.82 1546.19,-144.27 1587.4,-133.97"/>
<polygon fill="midnightblue" stroke="midnightblue" points="1588.29,-137.35 1597.15,-131.53 1586.6,-130.56 1588.29,-137.35"/>
</g>
<!-- Node20 -->
<g id="node20" class="node">
<title>Node20</title>
<g id="a_node20"><a xlink:title=" ">
<polygon fill="none" stroke="#bfbfbf" points="1713.76,-112.5 1713.76,-131.5 1852.76,-131.5 1852.76,-112.5 1713.76,-112.5"/>
<text text-anchor="middle" x="1783.26" y="-119.5" font-family="Helvetica,sans-Serif" font-size="10.00">iDynTree/Model/Indices.h</text>
</a>
</g>
</g>
<!-- Node1&#45;&gt;Node20 -->
<g id="edge25" class="edge">
<title>Node1&#45;&gt;Node20</title>
<path fill="none" stroke="midnightblue" d="M1437,-177.63C1514.51,-165.4 1642.48,-145.21 1719.24,-133.1"/>
<polygon fill="midnightblue" stroke="midnightblue" points="1719.92,-136.54 1729.26,-131.52 1718.83,-129.62 1719.92,-136.54"/>
</g>
<!-- Node21 -->
<g id="node21" class="node">
<title>Node21</title>
<g id="a_node21"><a xlink:title=" ">
<polygon fill="none" stroke="#bfbfbf" points="1871.26,-112.5 1871.26,-131.5 2005.26,-131.5 2005.26,-112.5 1871.26,-112.5"/>
<text text-anchor="middle" x="1938.26" y="-119.5" font-family="Helvetica,sans-Serif" font-size="10.00">iDynTree/Model/Model.h</text>
</a>
</g>
</g>
<!-- Node1&#45;&gt;Node21 -->
<g id="edge26" class="edge">
<title>Node1&#45;&gt;Node21</title>
<path fill="none" stroke="midnightblue" d="M1436.79,-180.62C1529.01,-170.21 1702.62,-150.53 1861.19,-132.12"/>
<polygon fill="midnightblue" stroke="midnightblue" points="1861.6,-135.6 1871.13,-130.97 1860.79,-128.64 1861.6,-135.6"/>
</g>
<!-- Node22 -->
<g id="node22" class="node">
<title>Node22</title>
<g id="a_node22"><a xlink:title=" ">
<polygon fill="none" stroke="#bfbfbf" points="2023.26,-112.5 2023.26,-131.5 2207.26,-131.5 2207.26,-112.5 2023.26,-112.5"/>
<text text-anchor="middle" x="2115.26" y="-119.5" font-family="Helvetica,sans-Serif" font-size="10.00">yarp/dev/ControlBoardInterfaces.h</text>
</a>
</g>
</g>
<!-- Node1&#45;&gt;Node22 -->
<g id="edge27" class="edge">
<title>Node1&#45;&gt;Node22</title>
<path fill="none" stroke="midnightblue" d="M1436.99,-182.32C1551.6,-172.4 1795.76,-151.24 2013.06,-132.1"/>
<polygon fill="midnightblue" stroke="midnightblue" points="2013.41,-135.59 2023.06,-131.22 2012.8,-128.61 2013.41,-135.59"/>
</g>
<!-- Node23 -->
<g id="node23" class="node">
<title>Node23</title>
<g id="a_node23"><a xlink:title=" ">
<polygon fill="none" stroke="#bfbfbf" points="2225.76,-112.5 2225.76,-131.5 2272.76,-131.5 2272.76,-112.5 2225.76,-112.5"/>
<text text-anchor="middle" x="2249.26" y="-119.5" font-family="Helvetica,sans-Serif" font-size="10.00">cmath</text>
</a>
</g>
</g>
<!-- Node1&#45;&gt;Node23 -->
<g id="edge28" class="edge">
<title>Node1&#45;&gt;Node23</title>
<path fill="none" stroke="midnightblue" d="M1436.98,-188.1C1578.2,-187.35 1920.99,-180.38 2215.58,-131.74"/>
<polygon fill="midnightblue" stroke="midnightblue" points="2216.31,-135.16 2225.59,-130.06 2215.15,-128.26 2216.31,-135.16"/>
</g>
<!-- Node24 -->
<g id="node24" class="node">
<title>Node24</title>
<g id="a_node24"><a xlink:title=" ">
<polygon fill="none" stroke="#bfbfbf" points="2291.26,-112.5 2291.26,-131.5 2335.26,-131.5 2335.26,-112.5 2291.26,-112.5"/>
<text text-anchor="middle" x="2313.26" y="-119.5" font-family="Helvetica,sans-Serif" font-size="10.00">limits</text>
</a>
</g>
</g>
<!-- Node1&#45;&gt;Node24 -->
<g id="edge29" class="edge">
<title>Node1&#45;&gt;Node24</title>
<path fill="none" stroke="midnightblue" d="M1436.9,-185.85C1614.21,-179.75 2100.99,-160.98 2281.16,-131.76"/>
<polygon fill="midnightblue" stroke="midnightblue" points="2281.77,-135.2 2291.05,-130.09 2280.61,-128.3 2281.77,-135.2"/>
</g>
<!-- Node25 -->
<g id="node25" class="node">
<title>Node25</title>
<g id="a_node25"><a xlink:title=" ">
<polygon fill="none" stroke="#bfbfbf" points="2353.76,-112.5 2353.76,-131.5 2410.76,-131.5 2410.76,-112.5 2353.76,-112.5"/>
<text text-anchor="middle" x="2382.26" y="-119.5" font-family="Helvetica,sans-Serif" font-size="10.00">ostream</text>
</a>
</g>
</g>
<!-- Node1&#45;&gt;Node25 -->
<g id="edge30" class="edge">
<title>Node1&#45;&gt;Node25</title>
<path fill="none" stroke="midnightblue" d="M1436.85,-188.17C1592.75,-187.73 1997.62,-181.6 2343.77,-131.77"/>
<polygon fill="midnightblue" stroke="midnightblue" points="2344.34,-135.23 2353.73,-130.32 2343.33,-128.3 2344.34,-135.23"/>
</g>
<!-- Node26 -->
<g id="node26" class="node">
<title>Node26</title>
<g id="a_node26"><a xlink:title=" ">
<polygon fill="none" stroke="#bfbfbf" points="2428.76,-112.5 2428.76,-131.5 2469.76,-131.5 2469.76,-112.5 2428.76,-112.5"/>
<text text-anchor="middle" x="2449.26" y="-119.5" font-family="Helvetica,sans-Serif" font-size="10.00">tuple</text>
</a>
</g>
</g>
<!-- Node1&#45;&gt;Node26 -->
<g id="edge31" class="edge">
<title>Node1&#45;&gt;Node26</title>
<path fill="none" stroke="midnightblue" d="M1437.06,-186.62C1632.95,-182.17 2211.04,-166.56 2418.61,-131.84"/>
<polygon fill="midnightblue" stroke="midnightblue" points="2419.25,-135.28 2428.51,-130.12 2418.05,-128.38 2419.25,-135.28"/>
</g>
<!-- Node3 -->
<g id="node3" class="node">
<title>Node3</title>
<g id="a_node3"><a xlink:href="_w_b_block_8h.html" target="_top" xlink:title=" ">
<polygon fill="none" stroke="black" points="14.76,-56.5 14.76,-75.5 167.76,-75.5 167.76,-56.5 14.76,-56.5"/>
<text text-anchor="middle" x="91.26" y="-63.5" font-family="Helvetica,sans-Serif" font-size="10.00">WBToolbox/Base/WBBlock.h</text>
</a>
</g>
</g>
<!-- Node2&#45;&gt;Node3 -->
<g id="edge2" class="edge">
<title>Node2&#45;&gt;Node3</title>
<path fill="none" stroke="midnightblue" d="M91.26,-112.08C91.26,-105.01 91.26,-94.86 91.26,-85.99"/>
<polygon fill="midnightblue" stroke="midnightblue" points="94.76,-85.75 91.26,-75.75 87.76,-85.75 94.76,-85.75"/>
</g>
<!-- Node5 -->
<g id="node5" class="node">
<title>Node5</title>
<g id="a_node5"><a xlink:title=" ">
<polygon fill="none" stroke="#bfbfbf" points="243.26,-0.5 243.26,-19.5 301.26,-19.5 301.26,-0.5 243.26,-0.5"/>
<text text-anchor="middle" x="272.26" y="-7.5" font-family="Helvetica,sans-Serif" font-size="10.00">memory</text>
</a>
</g>
</g>
<!-- Node2&#45;&gt;Node5 -->
<g id="edge6" class="edge">
<title>Node2&#45;&gt;Node5</title>
<path fill="none" stroke="midnightblue" d="M108.82,-112.4C126.23,-103.72 153.5,-89.67 176.26,-76 203.22,-59.8 233.03,-39.16 252.17,-25.54"/>
<polygon fill="midnightblue" stroke="midnightblue" points="254.32,-28.31 260.41,-19.64 250.24,-22.61 254.32,-28.31"/>
</g>
<!-- Node6 -->
<g id="node6" class="node">
<title>Node6</title>
<g id="a_node6"><a xlink:title=" ">
<polygon fill="none" stroke="#bfbfbf" points="181.26,-0.5 181.26,-19.5 225.26,-19.5 225.26,-0.5 181.26,-0.5"/>
<text text-anchor="middle" x="203.26" y="-7.5" font-family="Helvetica,sans-Serif" font-size="10.00">string</text>
</a>
</g>
</g>
<!-- Node2&#45;&gt;Node6 -->
<g id="edge7" class="edge">
<title>Node2&#45;&gt;Node6</title>
<path fill="none" stroke="midnightblue" d="M62.47,-112.5C30.28,-101.54 -14.84,-80.9 5.26,-56 51,0.65 94.9,-35.35 171.02,-19.95"/>
<polygon fill="midnightblue" stroke="midnightblue" points="171.99,-23.31 180.96,-17.68 170.43,-16.49 171.99,-23.31"/>
</g>
<!-- Node4 -->
<g id="node4" class="node">
<title>Node4</title>
<g id="a_node4"><a xlink:title=" ">
<polygon fill="none" stroke="#bfbfbf" points="19.26,-0.5 19.26,-19.5 163.26,-19.5 163.26,-0.5 19.26,-0.5"/>
<text text-anchor="middle" x="91.26" y="-7.5" font-family="Helvetica,sans-Serif" font-size="10.00">BlockFactory/Core/Block.h</text>
</a>
</g>
</g>
<!-- Node3&#45;&gt;Node4 -->
<g id="edge3" class="edge">
<title>Node3&#45;&gt;Node4</title>
<path fill="none" stroke="midnightblue" d="M91.26,-56.08C91.26,-49.01 91.26,-38.86 91.26,-29.99"/>
<polygon fill="midnightblue" stroke="midnightblue" points="94.76,-29.75 91.26,-19.75 87.76,-29.75 94.76,-29.75"/>
</g>
<!-- Node3&#45;&gt;Node5 -->
<g id="edge4" class="edge">
<title>Node3&#45;&gt;Node5</title>
<path fill="none" stroke="midnightblue" d="M119.94,-56.44C150.79,-47.24 199.99,-32.56 234.09,-22.39"/>
<polygon fill="midnightblue" stroke="midnightblue" points="235.13,-25.73 243.72,-19.52 233.13,-19.02 235.13,-25.73"/>
</g>
<!-- Node3&#45;&gt;Node6 -->
<g id="edge5" class="edge">
<title>Node3&#45;&gt;Node6</title>
<path fill="none" stroke="midnightblue" d="M109.26,-56.32C127.3,-47.62 155.31,-34.12 176.06,-24.11"/>
<polygon fill="midnightblue" stroke="midnightblue" points="177.82,-27.15 185.31,-19.65 174.78,-20.84 177.82,-27.15"/>
</g>
<!-- Node7&#45;&gt;Node5 -->
<g id="edge10" class="edge">
<title>Node7&#45;&gt;Node5</title>
<path fill="none" stroke="midnightblue" d="M276.87,-112.37C276.06,-94.62 274.2,-53.67 273.11,-29.6"/>
<polygon fill="midnightblue" stroke="midnightblue" points="276.6,-29.42 272.65,-19.59 269.61,-29.74 276.6,-29.42"/>
</g>
<!-- Node7&#45;&gt;Node6 -->
<g id="edge11" class="edge">
<title>Node7&#45;&gt;Node6</title>
<path fill="none" stroke="midnightblue" d="M271.45,-112.37C259.24,-94.22 230.71,-51.8 214.69,-27.99"/>
<polygon fill="midnightblue" stroke="midnightblue" points="217.53,-25.94 209.04,-19.59 211.72,-29.84 217.53,-25.94"/>
</g>
<!-- Node8 -->
<g id="node8" class="node">
<title>Node8</title>
<g id="a_node8"><a xlink:title=" ">
<polygon fill="none" stroke="#bfbfbf" points="300.26,-56.5 300.26,-75.5 342.26,-75.5 342.26,-56.5 300.26,-56.5"/>
<text text-anchor="middle" x="321.26" y="-63.5" font-family="Helvetica,sans-Serif" font-size="10.00">array</text>
</a>
</g>
</g>
<!-- Node7&#45;&gt;Node8 -->
<g id="edge9" class="edge">
<title>Node7&#45;&gt;Node8</title>
<path fill="none" stroke="midnightblue" d="M284.53,-112.08C290.81,-104.38 300.05,-93.03 307.69,-83.65"/>
<polygon fill="midnightblue" stroke="midnightblue" points="310.53,-85.71 314.13,-75.75 305.1,-81.29 310.53,-85.71"/>
</g>
<!-- Node7&#45;&gt;Node9 -->
<g id="edge12" class="edge">
<title>Node7&#45;&gt;Node9</title>
<path fill="none" stroke="midnightblue" d="M294.45,-112.32C311.61,-103.66 338.21,-90.24 358.01,-80.25"/>
<polygon fill="midnightblue" stroke="midnightblue" points="359.76,-83.28 367.11,-75.65 356.61,-77.04 359.76,-83.28"/>
</g>
<!-- Node10&#45;&gt;Node5 -->
<g id="edge14" class="edge">
<title>Node10&#45;&gt;Node5</title>
<path fill="none" stroke="midnightblue" d="M478.44,-56.44C432.65,-46.35 356.99,-29.68 311.17,-19.58"/>
<polygon fill="midnightblue" stroke="midnightblue" points="311.83,-16.14 301.31,-17.4 310.32,-22.97 311.83,-16.14"/>
</g>
<!-- Node10&#45;&gt;Node6 -->
<g id="edge15" class="edge">
<title>Node10&#45;&gt;Node6</title>
<path fill="none" stroke="midnightblue" d="M448.18,-56.47C392.96,-49.09 313.45,-37.21 235.51,-20.05"/>
<polygon fill="midnightblue" stroke="midnightblue" points="236.05,-16.59 225.53,-17.82 234.52,-23.42 236.05,-16.59"/>
</g>
<!-- Node11 -->
<g id="node11" class="node">
<title>Node11</title>
<g id="a_node11"><a xlink:title=" ">
<polygon fill="none" stroke="#bfbfbf" points="513.76,-0.5 513.76,-19.5 606.76,-19.5 606.76,-0.5 513.76,-0.5"/>
<text text-anchor="middle" x="560.26" y="-7.5" font-family="Helvetica,sans-Serif" font-size="10.00">unordered_map</text>
</a>
</g>
</g>
<!-- Node10&#45;&gt;Node11 -->
<g id="edge16" class="edge">
<title>Node10&#45;&gt;Node11</title>
<path fill="none" stroke="midnightblue" d="M524.36,-56.08C530.5,-48.38 539.53,-37.03 547,-27.65"/>
<polygon fill="midnightblue" stroke="midnightblue" points="549.8,-29.75 553.29,-19.75 544.33,-25.39 549.8,-29.75"/>
</g>
<!-- Node12 -->
<g id="node12" class="node">
<title>Node12</title>
<g id="a_node12"><a xlink:title=" ">
<polygon fill="none" stroke="#bfbfbf" points="450.76,-0.5 450.76,-19.5 495.76,-19.5 495.76,-0.5 450.76,-0.5"/>
<text text-anchor="middle" x="473.26" y="-7.5" font-family="Helvetica,sans-Serif" font-size="10.00">utility</text>
</a>
</g>
</g>
<!-- Node10&#45;&gt;Node12 -->
<g id="edge17" class="edge">
<title>Node10&#45;&gt;Node12</title>
<path fill="none" stroke="midnightblue" d="M510,-56.08C503.72,-48.38 494.47,-37.03 486.83,-27.65"/>
<polygon fill="midnightblue" stroke="midnightblue" points="489.42,-25.29 480.39,-19.75 484,-29.71 489.42,-25.29"/>
</g>
</g>
</svg>
        <g id="navigator" transform="translate(0 0)" fill="#404254">
                <rect fill="#f2f5e9" fill-opacity="0.5" stroke="#606060" stroke-width=".5" x="0" y="0" width="60" height="60"/>
                <use id="zoomplus" xlink:href="#zoomPlus" x="17" y="9" onmousedown="handleZoom(evt,'in')"/>
                <use id="zoomminus" xlink:href="#zoomMin" x="42" y="9" onmousedown="handleZoom(evt,'out')"/>
                <use id="reset" xlink:href="#resetDef" x="30" y="36" onmousedown="handleReset()"/>
                <g id="arrowUp" xlink:href="#dirArrow" transform="translate(30 24)" onmousedown="handlePan(0,-1)">
                  <use xlink:href="#rim" fill="#404040">
                        <set attributeName="fill" to="#808080" begin="arrowUp.mouseover" end="arrowUp.mouseout"/>
                  </use>
                  <path fill="none" stroke="white" stroke-width="1.5" d="M0,-3.0v7 M-2.5,-0.5L0,-3.0L2.5,-0.5"/>
                </g>
                <g id="arrowRight" xlink:href="#dirArrow" transform="rotate(90) translate(36 -43)" onmousedown="handlePan(1,0)">
                  <use xlink:href="#rim" fill="#404040">
                        <set attributeName="fill" to="#808080" begin="arrowRight.mouseover" end="arrowRight.mouseout"/>
                  </use>
                  <path fill="none" stroke="white" stroke-width="1.5" d="M0,-3.0v7 M-2.5,-0.5L0,-3.0L2.5,-0.5"/>
                </g>
                <g id="arrowDown" xlink:href="#dirArrow" transform="rotate(180) translate(-30 -48)" onmousedown="handlePan(0,1)">
                  <use xlink:href="#rim" fill="#404040">
                        <set attributeName="fill" to="#808080" begin="arrowDown.mouseover" end="arrowDown.mouseout"/>
                  </use>
                  <path fill="none" stroke="white" stroke-width="1.5" d="M0,-3.0v7 M-2.5,-0.5L0,-3.0L2.5,-0.5"/>
                </g>
                <g id="arrowLeft" xlink:href="#dirArrow" transform="rotate(270) translate(-36 17)" onmousedown="handlePan(-1,0)">
                  <use xlink:href="#rim" fill="#404040">
                        <set attributeName="fill" to="#808080" begin="arrowLeft.mouseover" end="arrowLeft.mouseout"/>
                  </use>
                  <path fill="none" stroke="white" stroke-width="1.5" d="M0,-3.0v7 M-2.5,-0.5L0,-3.0L2.5,-0.5"/>
                </g>
        </g>
        <svg viewBox="0 0 15 15" width="100%" height="30px" preserveAspectRatio="xMaxYMin meet">
         <g id="arrow_out" transform="scale(0.3 0.3)">
          <a xlink:href="_get_limits_8cpp__incl_org.svg" target="_base">
           <rect id="button" ry="5" rx="5" y="6" x="6" height="38" width="38"
                fill="#f2f5e9" fill-opacity="0.5" stroke="#606060" stroke-width="1.0"/>
           <path id="arrow"
             d="M 11.500037,31.436501 C 11.940474,20.09759 22.043105,11.32322 32.158766,21.979434 L 37.068811,17.246167 C 37.068811,17.246167 37.088388,32 37.088388,32 L 22.160133,31.978069 C 22.160133,31.978069 26.997745,27.140456 26.997745,27.140456 C 18.528582,18.264221 13.291696,25.230495 11.500037,31.436501 z"
             style="fill:#404040;"/>
          </a>
         </g>
        </svg>
</svg>
