<?xml version="1.0" encoding="UTF-8" standalone="no"?>
<!DOCTYPE svg PUBLIC "-//W3C//DTD SVG 1.1//EN"
 "http://www.w3.org/Graphics/SVG/1.1/DTD/svg11.dtd">
<!-- Generated by graphviz version 2.43.0 (0)
 -->
<!-- Title: /home/dferigo/git/WB&#45;Toolbox/toolbox/library/src/GetMeasurement.cpp Pages: 1 -->
<!--zoomable 218 -->
<svg id="main" version="1.1" xmlns="http://www.w3.org/2000/svg" xmlns:xlink="http://www.w3.org/1999/xlink" xml:space="preserve" onload="init(evt)">
<style type="text/css"><![CDATA[
.edge:hover path { stroke: red; }
.edge:hover polygon { stroke: red; fill: red; }
]]></style>
<script type="text/javascript"><![CDATA[
var edges = document.getElementsByTagName('g');
if (edges && edges.length) {
  for (var i=0;i<edges.length;i++) {
    if (edges[i].id.substr(0,4)=='edge') {
      edges[i].setAttribute('class','edge');
    }
  }
}
]]></script>
        <defs>
                <circle id="rim" cx="0" cy="0" r="7"/>
                <circle id="rim2" cx="0" cy="0" r="3.5"/>
                <g id="zoomPlus">
                        <use xlink:href="#rim" fill="#404040">
                                <set attributeName="fill" to="#808080" begin="zoomplus.mouseover" end="zoomplus.mouseout"/>
                        </use>
                        <path d="M-4,0h8M0,-4v8" fill="none" stroke="white" stroke-width="1.5" pointer-events="none"/>
                </g>
                <g id="zoomMin">
                        <use xlink:href="#rim" fill="#404040">
                                <set attributeName="fill" to="#808080" begin="zoomminus.mouseover" end="zoomminus.mouseout"/>
                        </use>
                        <path d="M-4,0h8" fill="none" stroke="white" stroke-width="1.5" pointer-events="none"/>
                </g>
                <g id="dirArrow">
                        <path fill="none" stroke="white" stroke-width="1.5" d="M0,-3.0v7 M-2.5,-0.5L0,-3.0L2.5,-0.5"/>
                </g>
               <g id="resetDef">
                       <use xlink:href="#rim2" fill="#404040">
                               <set attributeName="fill" to="#808080" begin="reset.mouseover" end="reset.mouseout"/>
                       </use>
               </g>
        </defs>

<script type="text/javascript">
var viewWidth = 2369;
var viewHeight = 218;
var sectionId = 'dynsection-0';
</script>
<script xlink:href="svgpan.js"/>
<svg id="graph" class="graph">
<g id="viewport">
<title>/home/dferigo/git/WB&#45;Toolbox/toolbox/library/src/GetMeasurement.cpp</title>
<!-- Node1 -->
<g id="node1" class="node">
<title>Node1</title>
<g id="a_node1"><a xlink:title=" ">
<polygon fill="#bfbfbf" stroke="black" points="1237.5,-168.5 1237.5,-209.5 1379.5,-209.5 1379.5,-168.5 1237.5,-168.5"/>
<text text-anchor="start" x="1245.5" y="-197.5" font-family="Helvetica,sans-Serif" font-size="10.00">/home/dferigo/git/WB</text>
<text text-anchor="start" x="1245.5" y="-186.5" font-family="Helvetica,sans-Serif" font-size="10.00">&#45;Toolbox/toolbox/library</text>
<text text-anchor="middle" x="1308.5" y="-175.5" font-family="Helvetica,sans-Serif" font-size="10.00">/src/GetMeasurement.cpp</text>
</a>
</g>
</g>
<!-- Node2 -->
<g id="node2" class="node">
<title>Node2</title>
<g id="a_node2"><a xlink:href="_get_measurement_8h.html" target="_top" xlink:title=" ">
<polygon fill="none" stroke="black" points="0,-112.5 0,-131.5 197,-131.5 197,-112.5 0,-112.5"/>
<text text-anchor="middle" x="98.5" y="-119.5" font-family="Helvetica,sans-Serif" font-size="10.00">WBToolbox/Block/GetMeasurement.h</text>
</a>
</g>
</g>
<!-- Node1&#45;&gt;Node2 -->
<g id="edge1" class="edge">
<title>Node1&#45;&gt;Node2</title>
<path fill="none" stroke="midnightblue" d="M1237.22,-185.18C1063.32,-178.12 603.18,-158.41 207.3,-132.03"/>
<polygon fill="midnightblue" stroke="midnightblue" points="207.29,-128.52 197.08,-131.35 206.82,-135.51 207.29,-128.52"/>
</g>
<!-- Node7 -->
<g id="node7" class="node">
<title>Node7</title>
<g id="a_node7"><a xlink:href="_configuration_8h.html" target="_top" xlink:title=" ">
<polygon fill="none" stroke="black" points="215.5,-112.5 215.5,-131.5 391.5,-131.5 391.5,-112.5 215.5,-112.5"/>
<text text-anchor="middle" x="303.5" y="-119.5" font-family="Helvetica,sans-Serif" font-size="10.00">WBToolbox/Base/Configuration.h</text>
</a>
</g>
</g>
<!-- Node1&#45;&gt;Node7 -->
<g id="edge8" class="edge">
<title>Node1&#45;&gt;Node7</title>
<path fill="none" stroke="midnightblue" d="M1237.34,-184.22C1084.8,-175.98 715.04,-155.25 405.5,-132 404.23,-131.9 402.95,-131.81 401.66,-131.71"/>
<polygon fill="midnightblue" stroke="midnightblue" points="401.91,-128.22 391.67,-130.92 401.37,-135.2 401.91,-128.22"/>
</g>
<!-- Node9 -->
<g id="node9" class="node">
<title>Node9</title>
<g id="a_node9"><a xlink:title=" ">
<polygon fill="none" stroke="#bfbfbf" points="368,-56.5 368,-75.5 415,-75.5 415,-56.5 368,-56.5"/>
<text text-anchor="middle" x="391.5" y="-63.5" font-family="Helvetica,sans-Serif" font-size="10.00">vector</text>
</a>
</g>
</g>
<!-- Node1&#45;&gt;Node9 -->
<g id="edge31" class="edge">
<title>Node1&#45;&gt;Node9</title>
<path fill="none" stroke="midnightblue" d="M1237.29,-185.83C1047.27,-179.67 537.84,-160.67 467.5,-132 442,-121.61 418.92,-99.14 405.05,-83.55"/>
<polygon fill="midnightblue" stroke="midnightblue" points="407.51,-81.03 398.34,-75.71 402.19,-85.59 407.51,-81.03"/>
</g>
<!-- Node10 -->
<g id="node10" class="node">
<title>Node10</title>
<g id="a_node10"><a xlink:href="_robot_interface_8h.html" target="_top" xlink:title=" ">
<polygon fill="none" stroke="black" points="433.5,-56.5 433.5,-75.5 615.5,-75.5 615.5,-56.5 433.5,-56.5"/>
<text text-anchor="middle" x="524.5" y="-63.5" font-family="Helvetica,sans-Serif" font-size="10.00">WBToolbox/Base/RobotInterface.h</text>
</a>
</g>
</g>
<!-- Node1&#45;&gt;Node10 -->
<g id="edge13" class="edge">
<title>Node1&#45;&gt;Node10</title>
<path fill="none" stroke="midnightblue" d="M1237.23,-188.63C1045.35,-189.57 528.85,-186.93 477.5,-132 462.49,-115.94 483.85,-94.98 502.44,-81.26"/>
<polygon fill="midnightblue" stroke="midnightblue" points="504.47,-84.12 510.65,-75.51 500.45,-78.38 504.47,-84.12"/>
</g>
<!-- Node13 -->
<g id="node13" class="node">
<title>Node13</title>
<g id="a_node13"><a xlink:title=" ">
<polygon fill="none" stroke="#bfbfbf" points="486,-112.5 486,-131.5 687,-131.5 687,-112.5 486,-112.5"/>
<text text-anchor="middle" x="586.5" y="-119.5" font-family="Helvetica,sans-Serif" font-size="10.00">BlockFactory/Core/BlockInformation.h</text>
</a>
</g>
</g>
<!-- Node1&#45;&gt;Node13 -->
<g id="edge18" class="edge">
<title>Node1&#45;&gt;Node13</title>
<path fill="none" stroke="midnightblue" d="M1237.3,-181.59C1109.4,-170.08 840.27,-145.85 691.29,-132.43"/>
<polygon fill="midnightblue" stroke="midnightblue" points="691.48,-128.94 681.21,-131.53 690.86,-135.91 691.48,-128.94"/>
</g>
<!-- Node14 -->
<g id="node14" class="node">
<title>Node14</title>
<g id="a_node14"><a xlink:title=" ">
<polygon fill="none" stroke="#bfbfbf" points="705.5,-112.5 705.5,-131.5 839.5,-131.5 839.5,-112.5 705.5,-112.5"/>
<text text-anchor="middle" x="772.5" y="-119.5" font-family="Helvetica,sans-Serif" font-size="10.00">BlockFactory/Core/Log.h</text>
</a>
</g>
</g>
<!-- Node1&#45;&gt;Node14 -->
<g id="edge19" class="edge">
<title>Node1&#45;&gt;Node14</title>
<path fill="none" stroke="midnightblue" d="M1237.32,-179.37C1136.73,-167.17 953.69,-144.97 849.85,-132.38"/>
<polygon fill="midnightblue" stroke="midnightblue" points="850.09,-128.88 839.74,-131.15 849.25,-135.83 850.09,-128.88"/>
</g>
<!-- Node15 -->
<g id="node15" class="node">
<title>Node15</title>
<g id="a_node15"><a xlink:title=" ">
<polygon fill="none" stroke="#bfbfbf" points="857.5,-112.5 857.5,-131.5 1025.5,-131.5 1025.5,-112.5 857.5,-112.5"/>
<text text-anchor="middle" x="941.5" y="-119.5" font-family="Helvetica,sans-Serif" font-size="10.00">BlockFactory/Core/Parameter.h</text>
</a>
</g>
</g>
<!-- Node1&#45;&gt;Node15 -->
<g id="edge20" class="edge">
<title>Node1&#45;&gt;Node15</title>
<path fill="none" stroke="midnightblue" d="M1237.3,-175.39C1168.05,-163.12 1064.13,-144.72 999.68,-133.3"/>
<polygon fill="midnightblue" stroke="midnightblue" points="1000.15,-129.83 989.69,-131.53 998.93,-136.73 1000.15,-129.83"/>
</g>
<!-- Node16 -->
<g id="node16" class="node">
<title>Node16</title>
<g id="a_node16"><a xlink:title=" ">
<polygon fill="none" stroke="#bfbfbf" points="1044,-112.5 1044,-131.5 1217,-131.5 1217,-112.5 1044,-112.5"/>
<text text-anchor="middle" x="1130.5" y="-119.5" font-family="Helvetica,sans-Serif" font-size="10.00">BlockFactory/Core/Parameters.h</text>
</a>
</g>
</g>
<!-- Node1&#45;&gt;Node16 -->
<g id="edge21" class="edge">
<title>Node1&#45;&gt;Node16</title>
<path fill="none" stroke="midnightblue" d="M1255.09,-168.5C1225.44,-157.67 1189.48,-144.54 1163.83,-135.17"/>
<polygon fill="midnightblue" stroke="midnightblue" points="1164.79,-131.8 1154.19,-131.65 1162.39,-138.37 1164.79,-131.8"/>
</g>
<!-- Node17 -->
<g id="node17" class="node">
<title>Node17</title>
<g id="a_node17"><a xlink:title=" ">
<polygon fill="none" stroke="#bfbfbf" points="1235,-112.5 1235,-131.5 1382,-131.5 1382,-112.5 1235,-112.5"/>
<text text-anchor="middle" x="1308.5" y="-119.5" font-family="Helvetica,sans-Serif" font-size="10.00">BlockFactory/Core/Signal.h</text>
</a>
</g>
</g>
<!-- Node1&#45;&gt;Node17 -->
<g id="edge22" class="edge">
<title>Node1&#45;&gt;Node17</title>
<path fill="none" stroke="midnightblue" d="M1308.5,-168.5C1308.5,-160.07 1308.5,-150.24 1308.5,-141.87"/>
<polygon fill="midnightblue" stroke="midnightblue" points="1312,-141.65 1308.5,-131.65 1305,-141.65 1312,-141.65"/>
</g>
<!-- Node18 -->
<g id="node18" class="node">
<title>Node18</title>
<g id="a_node18"><a xlink:title=" ">
<polygon fill="none" stroke="#bfbfbf" points="1400.5,-112.5 1400.5,-131.5 1546.5,-131.5 1546.5,-112.5 1400.5,-112.5"/>
<text text-anchor="middle" x="1473.5" y="-119.5" font-family="Helvetica,sans-Serif" font-size="10.00">yarp/dev/ICurrentControl.h</text>
</a>
</g>
</g>
<!-- Node1&#45;&gt;Node18 -->
<g id="edge23" class="edge">
<title>Node1&#45;&gt;Node18</title>
<path fill="none" stroke="midnightblue" d="M1358.01,-168.5C1385.25,-157.77 1418.24,-144.77 1441.97,-135.42"/>
<polygon fill="midnightblue" stroke="midnightblue" points="1443.51,-138.57 1451.54,-131.65 1440.95,-132.06 1443.51,-138.57"/>
</g>
<!-- Node19 -->
<g id="node19" class="node">
<title>Node19</title>
<g id="a_node19"><a xlink:title=" ">
<polygon fill="none" stroke="#bfbfbf" points="1565,-112.5 1565,-131.5 1684,-131.5 1684,-112.5 1565,-112.5"/>
<text text-anchor="middle" x="1624.5" y="-119.5" font-family="Helvetica,sans-Serif" font-size="10.00">yarp/dev/IEncoders.h</text>
</a>
</g>
</g>
<!-- Node1&#45;&gt;Node19 -->
<g id="edge24" class="edge">
<title>Node1&#45;&gt;Node19</title>
<path fill="none" stroke="midnightblue" d="M1379.81,-173.33C1438.52,-161.26 1520.35,-144.42 1572.88,-133.62"/>
<polygon fill="midnightblue" stroke="midnightblue" points="1573.89,-136.98 1582.98,-131.54 1572.48,-130.13 1573.89,-136.98"/>
</g>
<!-- Node20 -->
<g id="node20" class="node">
<title>Node20</title>
<g id="a_node20"><a xlink:title=" ">
<polygon fill="none" stroke="#bfbfbf" points="1702,-112.5 1702,-131.5 1849,-131.5 1849,-112.5 1702,-112.5"/>
<text text-anchor="middle" x="1775.5" y="-119.5" font-family="Helvetica,sans-Serif" font-size="10.00">yarp/dev/IMotorEncoders.h</text>
</a>
</g>
</g>
<!-- Node1&#45;&gt;Node20 -->
<g id="edge25" class="edge">
<title>Node1&#45;&gt;Node20</title>
<path fill="none" stroke="midnightblue" d="M1379.68,-178.09C1467.61,-165.85 1616.32,-145.16 1704.27,-132.91"/>
<polygon fill="midnightblue" stroke="midnightblue" points="1705,-136.35 1714.42,-131.5 1704.04,-129.41 1705,-136.35"/>
</g>
<!-- Node21 -->
<g id="node21" class="node">
<title>Node21</title>
<g id="a_node21"><a xlink:title=" ">
<polygon fill="none" stroke="#bfbfbf" points="1867.5,-112.5 1867.5,-131.5 2001.5,-131.5 2001.5,-112.5 1867.5,-112.5"/>
<text text-anchor="middle" x="1934.5" y="-119.5" font-family="Helvetica,sans-Serif" font-size="10.00">yarp/dev/IPWMControl.h</text>
</a>
</g>
</g>
<!-- Node1&#45;&gt;Node21 -->
<g id="edge26" class="edge">
<title>Node1&#45;&gt;Node21</title>
<path fill="none" stroke="midnightblue" d="M1379.74,-181.12C1482.68,-171.1 1679.31,-151.65 1857.3,-132.12"/>
<polygon fill="midnightblue" stroke="midnightblue" points="1857.81,-135.58 1867.37,-131.01 1857.05,-128.62 1857.81,-135.58"/>
</g>
<!-- Node22 -->
<g id="node22" class="node">
<title>Node22</title>
<g id="a_node22"><a xlink:title=" ">
<polygon fill="none" stroke="#bfbfbf" points="2019.5,-112.5 2019.5,-131.5 2161.5,-131.5 2161.5,-112.5 2019.5,-112.5"/>
<text text-anchor="middle" x="2090.5" y="-119.5" font-family="Helvetica,sans-Serif" font-size="10.00">yarp/dev/ITorqueControl.h</text>
</a>
</g>
</g>
<!-- Node1&#45;&gt;Node22 -->
<g id="edge27" class="edge">
<title>Node1&#45;&gt;Node22</title>
<path fill="none" stroke="midnightblue" d="M1379.56,-183.1C1504.59,-174.3 1772.31,-154.72 2009.22,-132.09"/>
<polygon fill="midnightblue" stroke="midnightblue" points="2009.79,-135.56 2019.41,-131.12 2009.12,-128.59 2009.79,-135.56"/>
</g>
<!-- Node23 -->
<g id="node23" class="node">
<title>Node23</title>
<g id="a_node23"><a xlink:title=" ">
<polygon fill="none" stroke="#bfbfbf" points="2180,-112.5 2180,-131.5 2227,-131.5 2227,-112.5 2180,-112.5"/>
<text text-anchor="middle" x="2203.5" y="-119.5" font-family="Helvetica,sans-Serif" font-size="10.00">cmath</text>
</a>
</g>
</g>
<!-- Node1&#45;&gt;Node23 -->
<g id="edge28" class="edge">
<title>Node1&#45;&gt;Node23</title>
<path fill="none" stroke="midnightblue" d="M1379.73,-188.2C1526.3,-187.57 1872.15,-180.69 2169.71,-131.75"/>
<polygon fill="midnightblue" stroke="midnightblue" points="2170.54,-135.16 2179.83,-130.07 2169.39,-128.26 2170.54,-135.16"/>
</g>
<!-- Node24 -->
<g id="node24" class="node">
<title>Node24</title>
<g id="a_node24"><a xlink:title=" ">
<polygon fill="none" stroke="#bfbfbf" points="2245,-112.5 2245,-131.5 2302,-131.5 2302,-112.5 2245,-112.5"/>
<text text-anchor="middle" x="2273.5" y="-119.5" font-family="Helvetica,sans-Serif" font-size="10.00">ostream</text>
</a>
</g>
</g>
<!-- Node1&#45;&gt;Node24 -->
<g id="edge29" class="edge">
<title>Node1&#45;&gt;Node24</title>
<path fill="none" stroke="midnightblue" d="M1379.68,-188.01C1534.15,-187.12 1911.64,-179.88 2234.89,-131.99"/>
<polygon fill="midnightblue" stroke="midnightblue" points="2235.55,-135.43 2244.92,-130.49 2234.51,-128.51 2235.55,-135.43"/>
</g>
<!-- Node25 -->
<g id="node25" class="node">
<title>Node25</title>
<g id="a_node25"><a xlink:title=" ">
<polygon fill="none" stroke="#bfbfbf" points="2320,-112.5 2320,-131.5 2361,-131.5 2361,-112.5 2320,-112.5"/>
<text text-anchor="middle" x="2340.5" y="-119.5" font-family="Helvetica,sans-Serif" font-size="10.00">tuple</text>
</a>
</g>
</g>
<!-- Node1&#45;&gt;Node25 -->
<g id="edge30" class="edge">
<title>Node1&#45;&gt;Node25</title>
<path fill="none" stroke="midnightblue" d="M1379.73,-186.29C1574.4,-181.26 2113.4,-164.89 2309.81,-131.85"/>
<polygon fill="midnightblue" stroke="midnightblue" points="2310.5,-135.28 2319.74,-130.11 2309.29,-128.39 2310.5,-135.28"/>
</g>
<!-- Node3 -->
<g id="node3" class="node">
<title>Node3</title>
<g id="a_node3"><a xlink:href="_w_b_block_8h.html" target="_top" xlink:title=" ">
<polygon fill="none" stroke="black" points="22,-56.5 22,-75.5 175,-75.5 175,-56.5 22,-56.5"/>
<text text-anchor="middle" x="98.5" y="-63.5" font-family="Helvetica,sans-Serif" font-size="10.00">WBToolbox/Base/WBBlock.h</text>
</a>
</g>
</g>
<!-- Node2&#45;&gt;Node3 -->
<g id="edge2" class="edge">
<title>Node2&#45;&gt;Node3</title>
<path fill="none" stroke="midnightblue" d="M98.5,-112.08C98.5,-105.01 98.5,-94.86 98.5,-85.99"/>
<polygon fill="midnightblue" stroke="midnightblue" points="102,-85.75 98.5,-75.75 95,-85.75 102,-85.75"/>
</g>
<!-- Node5 -->
<g id="node5" class="node">
<title>Node5</title>
<g id="a_node5"><a xlink:title=" ">
<polygon fill="none" stroke="#bfbfbf" points="250.5,-0.5 250.5,-19.5 308.5,-19.5 308.5,-0.5 250.5,-0.5"/>
<text text-anchor="middle" x="279.5" y="-7.5" font-family="Helvetica,sans-Serif" font-size="10.00">memory</text>
</a>
</g>
</g>
<!-- Node2&#45;&gt;Node5 -->
<g id="edge6" class="edge">
<title>Node2&#45;&gt;Node5</title>
<path fill="none" stroke="midnightblue" d="M116.06,-112.4C133.47,-103.72 160.74,-89.67 183.5,-76 210.46,-59.8 240.27,-39.16 259.41,-25.54"/>
<polygon fill="midnightblue" stroke="midnightblue" points="261.56,-28.31 267.65,-19.64 257.48,-22.61 261.56,-28.31"/>
</g>
<!-- Node6 -->
<g id="node6" class="node">
<title>Node6</title>
<g id="a_node6"><a xlink:title=" ">
<polygon fill="none" stroke="#bfbfbf" points="188.5,-0.5 188.5,-19.5 232.5,-19.5 232.5,-0.5 188.5,-0.5"/>
<text text-anchor="middle" x="210.5" y="-7.5" font-family="Helvetica,sans-Serif" font-size="10.00">string</text>
</a>
</g>
</g>
<!-- Node2&#45;&gt;Node6 -->
<g id="edge7" class="edge">
<title>Node2&#45;&gt;Node6</title>
<path fill="none" stroke="midnightblue" d="M69.7,-112.5C37.52,-101.54 -7.6,-80.9 12.5,-56 58.24,0.65 102.13,-35.35 178.25,-19.95"/>
<polygon fill="midnightblue" stroke="midnightblue" points="179.23,-23.31 188.2,-17.68 177.67,-16.49 179.23,-23.31"/>
</g>
<!-- Node4 -->
<g id="node4" class="node">
<title>Node4</title>
<g id="a_node4"><a xlink:title=" ">
<polygon fill="none" stroke="#bfbfbf" points="26.5,-0.5 26.5,-19.5 170.5,-19.5 170.5,-0.5 26.5,-0.5"/>
<text text-anchor="middle" x="98.5" y="-7.5" font-family="Helvetica,sans-Serif" font-size="10.00">BlockFactory/Core/Block.h</text>
</a>
</g>
</g>
<!-- Node3&#45;&gt;Node4 -->
<g id="edge3" class="edge">
<title>Node3&#45;&gt;Node4</title>
<path fill="none" stroke="midnightblue" d="M98.5,-56.08C98.5,-49.01 98.5,-38.86 98.5,-29.99"/>
<polygon fill="midnightblue" stroke="midnightblue" points="102,-29.75 98.5,-19.75 95,-29.75 102,-29.75"/>
</g>
<!-- Node3&#45;&gt;Node5 -->
<g id="edge4" class="edge">
<title>Node3&#45;&gt;Node5</title>
<path fill="none" stroke="midnightblue" d="M127.18,-56.44C158.03,-47.24 207.23,-32.56 241.33,-22.39"/>
<polygon fill="midnightblue" stroke="midnightblue" points="242.37,-25.73 250.95,-19.52 240.37,-19.02 242.37,-25.73"/>
</g>
<!-- Node3&#45;&gt;Node6 -->
<g id="edge5" class="edge">
<title>Node3&#45;&gt;Node6</title>
<path fill="none" stroke="midnightblue" d="M116.49,-56.32C134.54,-47.62 162.55,-34.12 183.3,-24.11"/>
<polygon fill="midnightblue" stroke="midnightblue" points="185.06,-27.15 192.55,-19.65 182.02,-20.84 185.06,-27.15"/>
</g>
<!-- Node7&#45;&gt;Node5 -->
<g id="edge10" class="edge">
<title>Node7&#45;&gt;Node5</title>
<path fill="none" stroke="midnightblue" d="M301.62,-112.37C297.74,-94.62 288.81,-53.67 283.56,-29.6"/>
<polygon fill="midnightblue" stroke="midnightblue" points="286.93,-28.62 281.37,-19.59 280.09,-30.11 286.93,-28.62"/>
</g>
<!-- Node7&#45;&gt;Node6 -->
<g id="edge11" class="edge">
<title>Node7&#45;&gt;Node6</title>
<path fill="none" stroke="midnightblue" d="M296.2,-112.37C280.72,-94.05 244.36,-51.05 224.33,-27.36"/>
<polygon fill="midnightblue" stroke="midnightblue" points="226.89,-24.97 217.76,-19.59 221.55,-29.49 226.89,-24.97"/>
</g>
<!-- Node8 -->
<g id="node8" class="node">
<title>Node8</title>
<g id="a_node8"><a xlink:title=" ">
<polygon fill="none" stroke="#bfbfbf" points="307.5,-56.5 307.5,-75.5 349.5,-75.5 349.5,-56.5 307.5,-56.5"/>
<text text-anchor="middle" x="328.5" y="-63.5" font-family="Helvetica,sans-Serif" font-size="10.00">array</text>
</a>
</g>
</g>
<!-- Node7&#45;&gt;Node8 -->
<g id="edge9" class="edge">
<title>Node7&#45;&gt;Node8</title>
<path fill="none" stroke="midnightblue" d="M307.63,-112.08C311.01,-104.77 315.92,-94.18 320.12,-85.1"/>
<polygon fill="midnightblue" stroke="midnightblue" points="323.42,-86.3 324.45,-75.75 317.07,-83.36 323.42,-86.3"/>
</g>
<!-- Node7&#45;&gt;Node9 -->
<g id="edge12" class="edge">
<title>Node7&#45;&gt;Node9</title>
<path fill="none" stroke="midnightblue" d="M317.64,-112.32C331.37,-103.9 352.44,-90.97 368.56,-81.07"/>
<polygon fill="midnightblue" stroke="midnightblue" points="370.7,-83.87 377.4,-75.65 367.04,-77.9 370.7,-83.87"/>
</g>
<!-- Node10&#45;&gt;Node5 -->
<g id="edge14" class="edge">
<title>Node10&#45;&gt;Node5</title>
<path fill="none" stroke="midnightblue" d="M485.68,-56.44C439.89,-46.35 364.23,-29.68 318.41,-19.58"/>
<polygon fill="midnightblue" stroke="midnightblue" points="319.07,-16.14 308.55,-17.4 317.56,-22.97 319.07,-16.14"/>
</g>
<!-- Node10&#45;&gt;Node6 -->
<g id="edge15" class="edge">
<title>Node10&#45;&gt;Node6</title>
<path fill="none" stroke="midnightblue" d="M455.42,-56.47C400.2,-49.09 320.68,-37.21 242.75,-20.05"/>
<polygon fill="midnightblue" stroke="midnightblue" points="243.29,-16.59 232.76,-17.82 241.76,-23.42 243.29,-16.59"/>
</g>
<!-- Node11 -->
<g id="node11" class="node">
<title>Node11</title>
<g id="a_node11"><a xlink:title=" ">
<polygon fill="none" stroke="#bfbfbf" points="521,-0.5 521,-19.5 614,-19.5 614,-0.5 521,-0.5"/>
<text text-anchor="middle" x="567.5" y="-7.5" font-family="Helvetica,sans-Serif" font-size="10.00">unordered_map</text>
</a>
</g>
</g>
<!-- Node10&#45;&gt;Node11 -->
<g id="edge16" class="edge">
<title>Node10&#45;&gt;Node11</title>
<path fill="none" stroke="midnightblue" d="M531.6,-56.08C537.74,-48.38 546.77,-37.03 554.24,-27.65"/>
<polygon fill="midnightblue" stroke="midnightblue" points="557.04,-29.75 560.53,-19.75 551.56,-25.39 557.04,-29.75"/>
</g>
<!-- Node12 -->
<g id="node12" class="node">
<title>Node12</title>
<g id="a_node12"><a xlink:title=" ">
<polygon fill="none" stroke="#bfbfbf" points="458,-0.5 458,-19.5 503,-19.5 503,-0.5 458,-0.5"/>
<text text-anchor="middle" x="480.5" y="-7.5" font-family="Helvetica,sans-Serif" font-size="10.00">utility</text>
</a>
</g>
</g>
<!-- Node10&#45;&gt;Node12 -->
<g id="edge17" class="edge">
<title>Node10&#45;&gt;Node12</title>
<path fill="none" stroke="midnightblue" d="M517.23,-56.08C510.96,-48.38 501.71,-37.03 494.07,-27.65"/>
<polygon fill="midnightblue" stroke="midnightblue" points="496.66,-25.29 487.63,-19.75 491.23,-29.71 496.66,-25.29"/>
</g>
</g>
</svg>
        <g id="navigator" transform="translate(0 0)" fill="#404254">
                <rect fill="#f2f5e9" fill-opacity="0.5" stroke="#606060" stroke-width=".5" x="0" y="0" width="60" height="60"/>
                <use id="zoomplus" xlink:href="#zoomPlus" x="17" y="9" onmousedown="handleZoom(evt,'in')"/>
                <use id="zoomminus" xlink:href="#zoomMin" x="42" y="9" onmousedown="handleZoom(evt,'out')"/>
                <use id="reset" xlink:href="#resetDef" x="30" y="36" onmousedown="handleReset()"/>
                <g id="arrowUp" xlink:href="#dirArrow" transform="translate(30 24)" onmousedown="handlePan(0,-1)">
                  <use xlink:href="#rim" fill="#404040">
                        <set attributeName="fill" to="#808080" begin="arrowUp.mouseover" end="arrowUp.mouseout"/>
                  </use>
                  <path fill="none" stroke="white" stroke-width="1.5" d="M0,-3.0v7 M-2.5,-0.5L0,-3.0L2.5,-0.5"/>
                </g>
                <g id="arrowRight" xlink:href="#dirArrow" transform="rotate(90) translate(36 -43)" onmousedown="handlePan(1,0)">
                  <use xlink:href="#rim" fill="#404040">
                        <set attributeName="fill" to="#808080" begin="arrowRight.mouseover" end="arrowRight.mouseout"/>
                  </use>
                  <path fill="none" stroke="white" stroke-width="1.5" d="M0,-3.0v7 M-2.5,-0.5L0,-3.0L2.5,-0.5"/>
                </g>
                <g id="arrowDown" xlink:href="#dirArrow" transform="rotate(180) translate(-30 -48)" onmousedown="handlePan(0,1)">
                  <use xlink:href="#rim" fill="#404040">
                        <set attributeName="fill" to="#808080" begin="arrowDown.mouseover" end="arrowDown.mouseout"/>
                  </use>
                  <path fill="none" stroke="white" stroke-width="1.5" d="M0,-3.0v7 M-2.5,-0.5L0,-3.0L2.5,-0.5"/>
                </g>
                <g id="arrowLeft" xlink:href="#dirArrow" transform="rotate(270) translate(-36 17)" onmousedown="handlePan(-1,0)">
                  <use xlink:href="#rim" fill="#404040">
                        <set attributeName="fill" to="#808080" begin="arrowLeft.mouseover" end="arrowLeft.mouseout"/>
                  </use>
                  <path fill="none" stroke="white" stroke-width="1.5" d="M0,-3.0v7 M-2.5,-0.5L0,-3.0L2.5,-0.5"/>
                </g>
        </g>
        <svg viewBox="0 0 15 15" width="100%" height="30px" preserveAspectRatio="xMaxYMin meet">
         <g id="arrow_out" transform="scale(0.3 0.3)">
          <a xlink:href="_get_measurement_8cpp__incl_org.svg" target="_base">
           <rect id="button" ry="5" rx="5" y="6" x="6" height="38" width="38"
                fill="#f2f5e9" fill-opacity="0.5" stroke="#606060" stroke-width="1.0"/>
           <path id="arrow"
             d="M 11.500037,31.436501 C 11.940474,20.09759 22.043105,11.32322 32.158766,21.979434 L 37.068811,17.246167 C 37.068811,17.246167 37.088388,32 37.088388,32 L 22.160133,31.978069 C 22.160133,31.978069 26.997745,27.140456 26.997745,27.140456 C 18.528582,18.264221 13.291696,25.230495 11.500037,31.436501 z"
             style="fill:#404040;"/>
          </a>
         </g>
        </svg>
</svg>
