<?xml version="1.0" encoding="UTF-8" standalone="no"?>
<!DOCTYPE svg PUBLIC "-//W3C//DTD SVG 1.1//EN"
 "http://www.w3.org/Graphics/SVG/1.1/DTD/svg11.dtd">
<!-- Generated by graphviz version 2.36.0 (20140111.2315)
 -->
<!-- Title: /home/travis/build/robotology/wb&#45;toolbox/toolbox/src/GetLimits.cpp Pages: 1 -->
<!--zoomable 274 -->
<svg id="main" version="1.1" xmlns="http://www.w3.org/2000/svg" xmlns:xlink="http://www.w3.org/1999/xlink" xml:space="preserve" onload="init(evt)">
<style type="text/css"><![CDATA[
.edge:hover path { stroke: red; }
.edge:hover polygon { stroke: red; fill: red; }
]]></style>
<script type="text/javascript"><![CDATA[
var edges = document.getElementsByTagName('g');
if (edges && edges.length) {
  for (var i=0;i<edges.length;i++) {
    if (edges[i].id.substr(0,4)=='edge') {
      edges[i].setAttribute('class','edge');
    }
  }
}
]]></script>
        <defs>
                <circle id="rim" cx="0" cy="0" r="7"/>
                <circle id="rim2" cx="0" cy="0" r="3.5"/>
                <g id="zoomPlus">
                        <use xlink:href="#rim" fill="#404040">
                                <set attributeName="fill" to="#808080" begin="zoomplus.mouseover" end="zoomplus.mouseout"/>
                        </use>
                        <path d="M-4,0h8M0,-4v8" fill="none" stroke="white" stroke-width="1.5" pointer-events="none"/>
                </g>
                <g id="zoomMin">
                        <use xlink:href="#rim" fill="#404040">
                                <set attributeName="fill" to="#808080" begin="zoomminus.mouseover" end="zoomminus.mouseout"/>
                        </use>
                        <path d="M-4,0h8" fill="none" stroke="white" stroke-width="1.5" pointer-events="none"/>
                </g>
                <g id="dirArrow">
                        <path fill="none" stroke="white" stroke-width="1.5" d="M0,-3.0v7 M-2.5,-0.5L0,-3.0L2.5,-0.5"/>
                </g>
               <g id="resetDef">
                       <use xlink:href="#rim2" fill="#404040">
                               <set attributeName="fill" to="#808080" begin="reset.mouseover" end="reset.mouseout"/>
                       </use>
               </g>
        </defs>

<script type="text/javascript">
var viewWidth = 2038;
var viewHeight = 274;
var sectionId = 'dynsection-0';
</script>
<script xlink:href="svgpan.js"/>
<svg id="graph" class="graph">
<g id="viewport">
<title>/home/travis/build/robotology/wb&#45;toolbox/toolbox/src/GetLimits.cpp</title>
<!-- Node1 -->
<g id="node1" class="node"><title>Node1</title>
<polygon fill="#bfbfbf" stroke="black" points="1364.5,-224.5 1364.5,-265.5 1495.5,-265.5 1495.5,-224.5 1364.5,-224.5"/>
<text text-anchor="start" x="1372.5" y="-253.5" font-family="Helvetica,sans-Serif" font-size="10.00">/home/travis/build</text>
<text text-anchor="start" x="1372.5" y="-242.5" font-family="Helvetica,sans-Serif" font-size="10.00">/robotology/wb&#45;toolbox</text>
<text text-anchor="middle" x="1430" y="-231.5" font-family="Helvetica,sans-Serif" font-size="10.00">/toolbox/src/GetLimits.cpp</text>
</g>
<!-- Node2 -->
<g id="node2" class="node"><title>Node2</title>
<g id="a_node2"><a xlink:href="_get_limits_8h.html" target="_top" xlink:title="GetLimits.h">
<polygon fill="none" stroke="black" points="797.5,-168.5 797.5,-187.5 864.5,-187.5 864.5,-168.5 797.5,-168.5"/>
<text text-anchor="middle" x="831" y="-175.5" font-family="Helvetica,sans-Serif" font-size="10.00">GetLimits.h</text>
</a>
</g>
</g>
<!-- Node1&#45;&gt;Node2 -->
<g id="edge1" class="edge"><title>Node1&#45;&gt;Node2</title>
<path fill="none" stroke="midnightblue" d="M1364.47,-236.889C1241.5,-223.545 979.174,-195.079 874.982,-183.773"/>
<polygon fill="midnightblue" stroke="midnightblue" points="875.138,-180.269 864.819,-182.67 874.383,-187.228 875.138,-180.269"/>
</g>
<!-- Node6 -->
<g id="node6" class="node"><title>Node6</title>
<polygon fill="none" stroke="#bfbfbf" points="1152,-0.5 1152,-19.5 1196,-19.5 1196,-0.5 1152,-0.5"/>
<text text-anchor="middle" x="1174" y="-7.5" font-family="Helvetica,sans-Serif" font-size="10.00">vector</text>
</g>
<!-- Node1&#45;&gt;Node6 -->
<g id="edge38" class="edge"><title>Node1&#45;&gt;Node6</title>
<path fill="none" stroke="midnightblue" d="M1436.1,-224.36C1446.48,-186.636 1462.65,-103.568 1421,-56 1393.3,-24.3691 1267.08,-14.8563 1206.56,-12.0887"/>
<polygon fill="midnightblue" stroke="midnightblue" points="1206.54,-8.58498 1196.4,-11.6598 1206.25,-15.5787 1206.54,-8.58498"/>
</g>
<!-- Node13 -->
<g id="node13" class="node"><title>Node13</title>
<g id="a_node13"><a xlink:href="_log_8h.html" target="_top" xlink:title="Log.h">
<polygon fill="none" stroke="black" points="1371.5,-56.5 1371.5,-75.5 1412.5,-75.5 1412.5,-56.5 1371.5,-56.5"/>
<text text-anchor="middle" x="1392" y="-63.5" font-family="Helvetica,sans-Serif" font-size="10.00">Log.h</text>
</a>
</g>
</g>
<!-- Node1&#45;&gt;Node13 -->
<g id="edge14" class="edge"><title>Node1&#45;&gt;Node13</title>
<path fill="none" stroke="midnightblue" d="M1424.84,-224.36C1422.09,-213.644 1418.72,-200.126 1416,-188 1407.91,-151.902 1399.81,-109.429 1395.4,-85.6186"/>
<polygon fill="midnightblue" stroke="midnightblue" points="1398.8,-84.7405 1393.54,-75.5388 1391.91,-86.0071 1398.8,-84.7405"/>
</g>
<!-- Node14 -->
<g id="node14" class="node"><title>Node14</title>
<g id="a_node14"><a xlink:href="_block_information_8h.html" target="_top" xlink:title="BlockInformation.h">
<polygon fill="none" stroke="black" points="0,-56.5 0,-75.5 98,-75.5 98,-56.5 0,-56.5"/>
<text text-anchor="middle" x="49" y="-63.5" font-family="Helvetica,sans-Serif" font-size="10.00">BlockInformation.h</text>
</a>
</g>
</g>
<!-- Node1&#45;&gt;Node14 -->
<g id="edge17" class="edge"><title>Node1&#45;&gt;Node14</title>
<path fill="none" stroke="midnightblue" d="M1364.41,-242.918C1212.63,-239.784 825.669,-228.182 505,-188 373.449,-171.516 339.263,-169.167 212,-132 162.971,-117.681 108.249,-94.2384 76.3204,-79.764"/>
<polygon fill="midnightblue" stroke="midnightblue" points="77.7243,-76.5575 67.1747,-75.5799 74.8121,-82.923 77.7243,-76.5575"/>
</g>
<!-- Node16 -->
<g id="node16" class="node"><title>Node16</title>
<g id="a_node16"><a xlink:href="_signal_8h.html" target="_top" xlink:title="Signal.h">
<polygon fill="none" stroke="black" points="221,-112.5 221,-131.5 273,-131.5 273,-112.5 221,-112.5"/>
<text text-anchor="middle" x="247" y="-119.5" font-family="Helvetica,sans-Serif" font-size="10.00">Signal.h</text>
</a>
</g>
</g>
<!-- Node1&#45;&gt;Node16 -->
<g id="edge20" class="edge"><title>Node1&#45;&gt;Node16</title>
<path fill="none" stroke="midnightblue" d="M1364.42,-241.181C1230.54,-235.006 916.316,-218.354 654,-188 516.413,-172.079 354.206,-143.074 283.268,-129.872"/>
<polygon fill="midnightblue" stroke="midnightblue" points="283.553,-126.365 273.08,-127.968 282.267,-133.246 283.553,-126.365"/>
</g>
<!-- Node18 -->
<g id="node18" class="node"><title>Node18</title>
<g id="a_node18"><a xlink:href="_robot_interface_8h.html" target="_top" xlink:title="RobotInterface.h">
<polygon fill="none" stroke="black" points="349.5,-112.5 349.5,-131.5 438.5,-131.5 438.5,-112.5 349.5,-112.5"/>
<text text-anchor="middle" x="394" y="-119.5" font-family="Helvetica,sans-Serif" font-size="10.00">RobotInterface.h</text>
</a>
</g>
</g>
<!-- Node1&#45;&gt;Node18 -->
<g id="edge24" class="edge"><title>Node1&#45;&gt;Node18</title>
<path fill="none" stroke="midnightblue" d="M1364.21,-239.929C1247.74,-232.351 997.8,-214.417 788,-188 666.465,-172.697 525.007,-147.554 449.022,-133.444"/>
<polygon fill="midnightblue" stroke="midnightblue" points="449.216,-129.92 438.744,-131.529 447.934,-136.802 449.216,-129.92"/>
</g>
<!-- Node22 -->
<g id="node22" class="node"><title>Node22</title>
<polygon fill="none" stroke="#bfbfbf" points="1458.5,-168.5 1458.5,-187.5 1619.5,-187.5 1619.5,-168.5 1458.5,-168.5"/>
<text text-anchor="middle" x="1539" y="-175.5" font-family="Helvetica,sans-Serif" font-size="10.00">iDynTree/KinDynComputations.h</text>
</g>
<!-- Node1&#45;&gt;Node22 -->
<g id="edge35" class="edge"><title>Node1&#45;&gt;Node22</title>
<path fill="none" stroke="midnightblue" d="M1462.7,-224.498C1479.74,-214.34 1500.17,-202.155 1515.6,-192.952"/>
<polygon fill="midnightblue" stroke="midnightblue" points="1517.69,-195.78 1524.49,-187.652 1514.11,-189.768 1517.69,-195.78"/>
</g>
<!-- Node23 -->
<g id="node23" class="node"><title>Node23</title>
<polygon fill="none" stroke="#bfbfbf" points="1637.5,-168.5 1637.5,-187.5 1760.5,-187.5 1760.5,-168.5 1637.5,-168.5"/>
<text text-anchor="middle" x="1699" y="-175.5" font-family="Helvetica,sans-Serif" font-size="10.00">iDynTree/Model/Model.h</text>
</g>
<!-- Node1&#45;&gt;Node23 -->
<g id="edge36" class="edge"><title>Node1&#45;&gt;Node23</title>
<path fill="none" stroke="midnightblue" d="M1495.8,-228.099C1544.76,-216.269 1610.32,-200.428 1653.57,-189.978"/>
<polygon fill="midnightblue" stroke="midnightblue" points="1654.62,-193.325 1663.52,-187.574 1652.98,-186.521 1654.62,-193.325"/>
</g>
<!-- Node24 -->
<g id="node24" class="node"><title>Node24</title>
<polygon fill="none" stroke="#bfbfbf" points="1778.5,-168.5 1778.5,-187.5 1909.5,-187.5 1909.5,-168.5 1778.5,-168.5"/>
<text text-anchor="middle" x="1844" y="-175.5" font-family="Helvetica,sans-Serif" font-size="10.00">yarp/dev/IControlLimits2.h</text>
</g>
<!-- Node1&#45;&gt;Node24 -->
<g id="edge37" class="edge"><title>Node1&#45;&gt;Node24</title>
<path fill="none" stroke="midnightblue" d="M1495.6,-233.701C1573.39,-221.487 1702.21,-201.261 1779.51,-189.125"/>
<polygon fill="midnightblue" stroke="midnightblue" points="1780.27,-192.549 1789.6,-187.541 1779.18,-185.634 1780.27,-192.549"/>
</g>
<!-- Node25 -->
<g id="node25" class="node"><title>Node25</title>
<polygon fill="none" stroke="#bfbfbf" points="1928,-168.5 1928,-187.5 1968,-187.5 1968,-168.5 1928,-168.5"/>
<text text-anchor="middle" x="1948" y="-175.5" font-family="Helvetica,sans-Serif" font-size="10.00">limits</text>
</g>
<!-- Node1&#45;&gt;Node25 -->
<g id="edge39" class="edge"><title>Node1&#45;&gt;Node25</title>
<path fill="none" stroke="midnightblue" d="M1495.7,-240.169C1589.97,-233.837 1768.69,-218.711 1918,-188 1918.1,-187.979 1918.2,-187.959 1918.3,-187.938"/>
<polygon fill="midnightblue" stroke="midnightblue" points="1918.92,-191.389 1927.79,-185.593 1917.24,-184.594 1918.92,-191.389"/>
</g>
<!-- Node26 -->
<g id="node26" class="node"><title>Node26</title>
<polygon fill="none" stroke="#bfbfbf" points="1986,-168.5 1986,-187.5 2030,-187.5 2030,-168.5 1986,-168.5"/>
<text text-anchor="middle" x="2008" y="-175.5" font-family="Helvetica,sans-Serif" font-size="10.00">cmath</text>
</g>
<!-- Node1&#45;&gt;Node26 -->
<g id="edge40" class="edge"><title>Node1&#45;&gt;Node26</title>
<path fill="none" stroke="midnightblue" d="M1495.82,-241.102C1597.21,-235.795 1797.68,-221.957 1975.7,-187.928"/>
<polygon fill="midnightblue" stroke="midnightblue" points="1976.62,-191.315 1985.77,-185.976 1975.28,-184.442 1976.62,-191.315"/>
</g>
<!-- Node3 -->
<g id="node3" class="node"><title>Node3</title>
<g id="a_node3"><a xlink:href="_w_b_block_8h.html" target="_top" xlink:title="WBBlock.h">
<polygon fill="none" stroke="black" points="798,-112.5 798,-131.5 864,-131.5 864,-112.5 798,-112.5"/>
<text text-anchor="middle" x="831" y="-119.5" font-family="Helvetica,sans-Serif" font-size="10.00">WBBlock.h</text>
</a>
</g>
</g>
<!-- Node2&#45;&gt;Node3 -->
<g id="edge2" class="edge"><title>Node2&#45;&gt;Node3</title>
<path fill="none" stroke="midnightblue" d="M831,-168.083C831,-161.006 831,-150.861 831,-141.986"/>
<polygon fill="midnightblue" stroke="midnightblue" points="834.5,-141.751 831,-131.751 827.5,-141.751 834.5,-141.751"/>
</g>
<!-- Node8 -->
<g id="node8" class="node"><title>Node8</title>
<polygon fill="none" stroke="#bfbfbf" points="521,-56.5 521,-75.5 573,-75.5 573,-56.5 521,-56.5"/>
<text text-anchor="middle" x="547" y="-63.5" font-family="Helvetica,sans-Serif" font-size="10.00">memory</text>
</g>
<!-- Node2&#45;&gt;Node8 -->
<g id="edge13" class="edge"><title>Node2&#45;&gt;Node8</title>
<path fill="none" stroke="midnightblue" d="M808.715,-168.368C758.529,-148.93 636.523,-101.674 578.57,-79.2278"/>
<polygon fill="midnightblue" stroke="midnightblue" points="579.771,-75.9395 569.181,-75.5914 577.242,-82.467 579.771,-75.9395"/>
</g>
<!-- Node4 -->
<g id="node4" class="node"><title>Node4</title>
<g id="a_node4"><a xlink:href="_block_8h.html" target="_top" xlink:title="Block.h">
<polygon fill="none" stroke="black" points="1149,-56.5 1149,-75.5 1199,-75.5 1199,-56.5 1149,-56.5"/>
<text text-anchor="middle" x="1174" y="-63.5" font-family="Helvetica,sans-Serif" font-size="10.00">Block.h</text>
</a>
</g>
</g>
<!-- Node3&#45;&gt;Node4 -->
<g id="edge3" class="edge"><title>Node3&#45;&gt;Node4</title>
<path fill="none" stroke="midnightblue" d="M864.018,-117.348C920.615,-110.827 1039.66,-95.9696 1139,-76 1139.1,-75.9799 1139.2,-75.9597 1139.3,-75.9394"/>
<polygon fill="midnightblue" stroke="midnightblue" points="1139.84,-79.405 1148.84,-73.8119 1138.32,-72.5728 1139.84,-79.405"/>
</g>
<!-- Node5 -->
<g id="node5" class="node"><title>Node5</title>
<polygon fill="none" stroke="#bfbfbf" points="539.5,-0.5 539.5,-19.5 580.5,-19.5 580.5,-0.5 539.5,-0.5"/>
<text text-anchor="middle" x="560" y="-7.5" font-family="Helvetica,sans-Serif" font-size="10.00">string</text>
</g>
<!-- Node3&#45;&gt;Node5 -->
<g id="edge6" class="edge"><title>Node3&#45;&gt;Node5</title>
<path fill="none" stroke="midnightblue" d="M797.709,-115.725C762.047,-109.309 704.33,-96.6929 658,-76 628.229,-62.7028 597.462,-40.6989 578.529,-26.027"/>
<polygon fill="midnightblue" stroke="midnightblue" points="580.493,-23.1187 570.475,-19.6716 576.157,-28.6139 580.493,-23.1187"/>
</g>
<!-- Node7 -->
<g id="node7" class="node"><title>Node7</title>
<polygon fill="none" stroke="#bfbfbf" points="443,-0.5 443,-19.5 481,-19.5 481,-0.5 443,-0.5"/>
<text text-anchor="middle" x="462" y="-7.5" font-family="Helvetica,sans-Serif" font-size="10.00">array</text>
</g>
<!-- Node3&#45;&gt;Node7 -->
<g id="edge7" class="edge"><title>Node3&#45;&gt;Node7</title>
<path fill="none" stroke="midnightblue" d="M797.69,-116.779C755.436,-110.778 680.754,-97.9911 620,-76 602.054,-69.5041 599.414,-63.8105 582,-56 551.446,-42.296 515.343,-29.1522 490.775,-20.6463"/>
<polygon fill="midnightblue" stroke="midnightblue" points="491.597,-17.228 481.002,-17.2967 489.327,-23.8499 491.597,-17.228"/>
</g>
<!-- Node3&#45;&gt;Node8 -->
<g id="edge8" class="edge"><title>Node3&#45;&gt;Node8</title>
<path fill="none" stroke="midnightblue" d="M797.769,-115.294C750.739,-107.123 662.118,-91.3715 587,-76 585.745,-75.7431 584.468,-75.4779 583.18,-75.2067"/>
<polygon fill="midnightblue" stroke="midnightblue" points="583.732,-71.7454 573.219,-73.0526 582.253,-78.5873 583.732,-71.7454"/>
</g>
<!-- Node9 -->
<g id="node9" class="node"><title>Node9</title>
<polygon fill="none" stroke="#bfbfbf" points="667.5,-56.5 667.5,-75.5 820.5,-75.5 820.5,-56.5 667.5,-56.5"/>
<text text-anchor="middle" x="744" y="-63.5" font-family="Helvetica,sans-Serif" font-size="10.00">iDynTree/Core/VectorFixSize.h</text>
</g>
<!-- Node3&#45;&gt;Node9 -->
<g id="edge9" class="edge"><title>Node3&#45;&gt;Node9</title>
<path fill="none" stroke="midnightblue" d="M817.022,-112.324C803.45,-103.9 782.62,-90.9709 766.675,-81.0741"/>
<polygon fill="midnightblue" stroke="midnightblue" points="768.286,-77.9544 757.943,-75.6545 764.594,-83.9019 768.286,-77.9544"/>
</g>
<!-- Node10 -->
<g id="node10" class="node"><title>Node10</title>
<polygon fill="none" stroke="#bfbfbf" points="839,-56.5 839,-75.5 997,-75.5 997,-56.5 839,-56.5"/>
<text text-anchor="middle" x="918" y="-63.5" font-family="Helvetica,sans-Serif" font-size="10.00">iDynTree/Core/VectorDynSize.h</text>
</g>
<!-- Node3&#45;&gt;Node10 -->
<g id="edge10" class="edge"><title>Node3&#45;&gt;Node10</title>
<path fill="none" stroke="midnightblue" d="M844.978,-112.324C858.55,-103.9 879.38,-90.9709 895.325,-81.0741"/>
<polygon fill="midnightblue" stroke="midnightblue" points="897.406,-83.9019 904.057,-75.6545 893.714,-77.9544 897.406,-83.9019"/>
</g>
<!-- Node11 -->
<g id="node11" class="node"><title>Node11</title>
<polygon fill="none" stroke="#bfbfbf" points="1015,-56.5 1015,-75.5 1131,-75.5 1131,-56.5 1015,-56.5"/>
<text text-anchor="middle" x="1073" y="-63.5" font-family="Helvetica,sans-Serif" font-size="10.00">iDynTree/Core/Twist.h</text>
</g>
<!-- Node3&#45;&gt;Node11 -->
<g id="edge11" class="edge"><title>Node3&#45;&gt;Node11</title>
<path fill="none" stroke="midnightblue" d="M864.142,-113.605C905.715,-104.328 977.31,-88.3524 1024.91,-77.7316"/>
<polygon fill="midnightblue" stroke="midnightblue" points="1025.68,-81.1448 1034.68,-75.5509 1024.16,-74.3128 1025.68,-81.1448"/>
</g>
<!-- Node12 -->
<g id="node12" class="node"><title>Node12</title>
<polygon fill="none" stroke="#bfbfbf" points="1217,-56.5 1217,-75.5 1353,-75.5 1353,-56.5 1217,-56.5"/>
<text text-anchor="middle" x="1285" y="-63.5" font-family="Helvetica,sans-Serif" font-size="10.00">iDynTree/Core/Transform.h</text>
</g>
<!-- Node3&#45;&gt;Node12 -->
<g id="edge12" class="edge"><title>Node3&#45;&gt;Node12</title>
<path fill="none" stroke="midnightblue" d="M864.016,-117.073C935.43,-108.579 1105.92,-88.3006 1206.67,-76.3174"/>
<polygon fill="midnightblue" stroke="midnightblue" points="1207.28,-79.7696 1216.79,-75.1129 1206.45,-72.8186 1207.28,-79.7696"/>
</g>
<!-- Node4&#45;&gt;Node5 -->
<g id="edge4" class="edge"><title>Node4&#45;&gt;Node5</title>
<path fill="none" stroke="midnightblue" d="M1148.88,-57.9817C1145.57,-57.2235 1142.22,-56.5347 1139,-56 931.546,-21.5355 677.781,-13.359 590.886,-11.5125"/>
<polygon fill="midnightblue" stroke="midnightblue" points="590.737,-8.00889 580.669,-11.3087 590.597,-15.0075 590.737,-8.00889"/>
</g>
<!-- Node4&#45;&gt;Node6 -->
<g id="edge5" class="edge"><title>Node4&#45;&gt;Node6</title>
<path fill="none" stroke="midnightblue" d="M1174,-56.083C1174,-49.0059 1174,-38.8611 1174,-29.9865"/>
<polygon fill="midnightblue" stroke="midnightblue" points="1177.5,-29.751 1174,-19.7511 1170.5,-29.7511 1177.5,-29.751"/>
</g>
<!-- Node13&#45;&gt;Node5 -->
<g id="edge15" class="edge"><title>Node13&#45;&gt;Node5</title>
<path fill="none" stroke="midnightblue" d="M1371.5,-58.1551C1368.35,-57.3054 1365.11,-56.5452 1362,-56 1209.68,-29.2647 719.333,-15.0783 590.985,-11.7639"/>
<polygon fill="midnightblue" stroke="midnightblue" points="590.788,-8.25783 580.702,-11.5017 590.61,-15.2556 590.788,-8.25783"/>
</g>
<!-- Node13&#45;&gt;Node6 -->
<g id="edge16" class="edge"><title>Node13&#45;&gt;Node6</title>
<path fill="none" stroke="midnightblue" d="M1371.39,-58.6491C1368.25,-57.7312 1365.05,-56.8205 1362,-56 1307.5,-41.3146 1243.46,-26.5021 1205.95,-18.0682"/>
<polygon fill="midnightblue" stroke="midnightblue" points="1206.62,-14.6326 1196.1,-15.8639 1205.09,-21.4636 1206.62,-14.6326"/>
</g>
<!-- Node14&#45;&gt;Node5 -->
<g id="edge19" class="edge"><title>Node14&#45;&gt;Node5</title>
<path fill="none" stroke="midnightblue" d="M98.0971,-57.0463C100.768,-56.6766 103.416,-56.3249 106,-56 276.077,-34.6222 319.634,-38.9324 490,-20 502.81,-18.5765 516.911,-16.8033 529.079,-15.2082"/>
<polygon fill="midnightblue" stroke="midnightblue" points="529.742,-18.651 539.194,-13.8655 528.821,-11.7119 529.742,-18.651"/>
</g>
<!-- Node15 -->
<g id="node15" class="node"><title>Node15</title>
<polygon fill="none" stroke="#bfbfbf" points="17,-0.5 17,-19.5 81,-19.5 81,-0.5 17,-0.5"/>
<text text-anchor="middle" x="49" y="-7.5" font-family="Helvetica,sans-Serif" font-size="10.00">AnyType.h</text>
</g>
<!-- Node14&#45;&gt;Node15 -->
<g id="edge18" class="edge"><title>Node14&#45;&gt;Node15</title>
<path fill="none" stroke="midnightblue" d="M49,-56.083C49,-49.0059 49,-38.8611 49,-29.9865"/>
<polygon fill="midnightblue" stroke="midnightblue" points="52.5001,-29.751 49,-19.7511 45.5001,-29.7511 52.5001,-29.751"/>
</g>
<!-- Node16&#45;&gt;Node8 -->
<g id="edge23" class="edge"><title>Node16&#45;&gt;Node8</title>
<path fill="none" stroke="midnightblue" d="M273.098,-116.302C326.732,-106.648 449.443,-84.5602 510.75,-73.525"/>
<polygon fill="midnightblue" stroke="midnightblue" points="511.527,-76.9415 520.748,-71.7253 510.287,-70.0522 511.527,-76.9415"/>
</g>
<!-- Node16&#45;&gt;Node14 -->
<g id="edge21" class="edge"><title>Node16&#45;&gt;Node14</title>
<path fill="none" stroke="midnightblue" d="M220.707,-113.829C187.321,-104.724 129.349,-88.9133 90.0986,-78.2087"/>
<polygon fill="midnightblue" stroke="midnightblue" points="90.8714,-74.7917 80.3028,-75.5371 89.0295,-81.5451 90.8714,-74.7917"/>
</g>
<!-- Node17 -->
<g id="node17" class="node"><title>Node17</title>
<polygon fill="none" stroke="#bfbfbf" points="115.5,-56.5 115.5,-75.5 164.5,-75.5 164.5,-56.5 115.5,-56.5"/>
<text text-anchor="middle" x="140" y="-63.5" font-family="Helvetica,sans-Serif" font-size="10.00">cassert</text>
</g>
<!-- Node16&#45;&gt;Node17 -->
<g id="edge22" class="edge"><title>Node16&#45;&gt;Node17</title>
<path fill="none" stroke="midnightblue" d="M229.809,-112.324C212.649,-103.664 186.054,-90.2424 166.253,-80.249"/>
<polygon fill="midnightblue" stroke="midnightblue" points="167.653,-77.0354 157.149,-75.6545 164.499,-83.2847 167.653,-77.0354"/>
</g>
<!-- Node18&#45;&gt;Node5 -->
<g id="edge30" class="edge"><title>Node18&#45;&gt;Node5</title>
<path fill="none" stroke="midnightblue" d="M349.378,-116.225C301.099,-110.03 228.753,-97.4003 212,-76 206.521,-69.0008 206.131,-62.6763 212,-56 212.164,-55.8132 444.139,-25.9213 529.205,-14.9653"/>
<polygon fill="midnightblue" stroke="midnightblue" points="529.813,-18.416 539.285,-13.6673 528.919,-11.4734 529.813,-18.416"/>
</g>
<!-- Node18&#45;&gt;Node6 -->
<g id="edge31" class="edge"><title>Node18&#45;&gt;Node6</title>
<path fill="none" stroke="midnightblue" d="M409.033,-112.492C439.576,-95.2397 506.474,-57.6231 512,-56 632.176,-20.7021 1025.87,-12.9013 1141.68,-11.3526"/>
<polygon fill="midnightblue" stroke="midnightblue" points="1141.74,-14.8522 1151.7,-11.2252 1141.65,-7.85274 1141.74,-14.8522"/>
</g>
<!-- Node18&#45;&gt;Node8 -->
<g id="edge29" class="edge"><title>Node18&#45;&gt;Node8</title>
<path fill="none" stroke="midnightblue" d="M418.243,-112.444C443.871,-103.399 484.485,-89.064 513.238,-78.9158"/>
<polygon fill="midnightblue" stroke="midnightblue" points="514.605,-82.1452 522.87,-75.5164 512.275,-75.5442 514.605,-82.1452"/>
</g>
<!-- Node18&#45;&gt;Node17 -->
<g id="edge33" class="edge"><title>Node18&#45;&gt;Node17</title>
<path fill="none" stroke="midnightblue" d="M351.924,-112.459C308.542,-103.59 238.964,-89.1927 179,-76 177.558,-75.6827 176.086,-75.3561 174.601,-75.0239"/>
<polygon fill="midnightblue" stroke="midnightblue" points="175.267,-71.5861 164.74,-72.7896 173.72,-78.4131 175.267,-71.5861"/>
</g>
<!-- Node19 -->
<g id="node19" class="node"><title>Node19</title>
<g id="a_node19"><a xlink:href="_configuration_8h.html" target="_top" xlink:title="Configuration.h">
<polygon fill="none" stroke="black" points="381.5,-56.5 381.5,-75.5 464.5,-75.5 464.5,-56.5 381.5,-56.5"/>
<text text-anchor="middle" x="423" y="-63.5" font-family="Helvetica,sans-Serif" font-size="10.00">Configuration.h</text>
</a>
</g>
</g>
<!-- Node18&#45;&gt;Node19 -->
<g id="edge25" class="edge"><title>Node18&#45;&gt;Node19</title>
<path fill="none" stroke="midnightblue" d="M398.789,-112.083C402.758,-104.691 408.525,-93.9533 413.435,-84.8111"/>
<polygon fill="midnightblue" stroke="midnightblue" points="416.653,-86.217 418.3,-75.7511 410.486,-82.9051 416.653,-86.217"/>
</g>
<!-- Node20 -->
<g id="node20" class="node"><title>Node20</title>
<polygon fill="none" stroke="#bfbfbf" points="323,-56.5 323,-75.5 363,-75.5 363,-56.5 323,-56.5"/>
<text text-anchor="middle" x="343" y="-63.5" font-family="Helvetica,sans-Serif" font-size="10.00">utility</text>
</g>
<!-- Node18&#45;&gt;Node20 -->
<g id="edge32" class="edge"><title>Node18&#45;&gt;Node20</title>
<path fill="none" stroke="midnightblue" d="M385.578,-112.083C378.152,-104.22 367.148,-92.5688 358.188,-83.0813"/>
<polygon fill="midnightblue" stroke="midnightblue" points="360.676,-80.618 351.265,-75.7511 355.587,-85.4244 360.676,-80.618"/>
</g>
<!-- Node21 -->
<g id="node21" class="node"><title>Node21</title>
<polygon fill="none" stroke="#bfbfbf" points="221.5,-56.5 221.5,-75.5 304.5,-75.5 304.5,-56.5 221.5,-56.5"/>
<text text-anchor="middle" x="263" y="-63.5" font-family="Helvetica,sans-Serif" font-size="10.00">unordered_map</text>
</g>
<!-- Node18&#45;&gt;Node21 -->
<g id="edge34" class="edge"><title>Node18&#45;&gt;Node21</title>
<path fill="none" stroke="midnightblue" d="M373.243,-112.444C351.684,-103.557 317.737,-89.5632 293.206,-79.4514"/>
<polygon fill="midnightblue" stroke="midnightblue" points="294.239,-76.0917 283.66,-75.5164 291.572,-82.5634 294.239,-76.0917"/>
</g>
<!-- Node19&#45;&gt;Node5 -->
<g id="edge28" class="edge"><title>Node19&#45;&gt;Node5</title>
<path fill="none" stroke="midnightblue" d="M444.708,-56.4435C467.621,-47.4121 503.914,-33.1067 529.654,-22.9612"/>
<polygon fill="midnightblue" stroke="midnightblue" points="531.27,-26.0862 539.29,-19.1629 528.703,-19.5738 531.27,-26.0862"/>
</g>
<!-- Node19&#45;&gt;Node6 -->
<g id="edge26" class="edge"><title>Node19&#45;&gt;Node6</title>
<path fill="none" stroke="midnightblue" d="M464.53,-57.8768C469.399,-57.1749 474.303,-56.5283 479,-56 733.21,-27.4076 1041.93,-15.3399 1141.43,-12.0122"/>
<polygon fill="midnightblue" stroke="midnightblue" points="1141.85,-15.5006 1151.73,-11.6744 1141.62,-8.50433 1141.85,-15.5006"/>
</g>
<!-- Node19&#45;&gt;Node7 -->
<g id="edge27" class="edge"><title>Node19&#45;&gt;Node7</title>
<path fill="none" stroke="midnightblue" d="M429.44,-56.083C434.949,-48.4554 443.031,-37.2645 449.765,-27.9408"/>
<polygon fill="midnightblue" stroke="midnightblue" points="452.662,-29.9071 455.68,-19.7511 446.987,-25.8087 452.662,-29.9071"/>
</g>
</g>
</svg>
        <g id="navigator" transform="translate(0 0)" fill="#404254">
                <rect fill="#f2f5e9" fill-opacity="0.5" stroke="#606060" stroke-width=".5" x="0" y="0" width="60" height="60"/>
                <use id="zoomplus" xlink:href="#zoomPlus" x="17" y="9" onmousedown="handleZoom(evt,'in')"/>
                <use id="zoomminus" xlink:href="#zoomMin" x="42" y="9" onmousedown="handleZoom(evt,'out')"/>
                <use id="reset" xlink:href="#resetDef" x="30" y="36" onmousedown="handleReset()"/>
                <g id="arrowUp" xlink:href="#dirArrow" transform="translate(30 24)" onmousedown="handlePan(0,-1)">
                  <use xlink:href="#rim" fill="#404040">
                        <set attributeName="fill" to="#808080" begin="arrowUp.mouseover" end="arrowUp.mouseout"/>
                  </use>
                  <path fill="none" stroke="white" stroke-width="1.5" d="M0,-3.0v7 M-2.5,-0.5L0,-3.0L2.5,-0.5"/>
                </g>
                <g id="arrowRight" xlink:href="#dirArrow" transform="rotate(90) translate(36 -43)" onmousedown="handlePan(1,0)">
                  <use xlink:href="#rim" fill="#404040">
                        <set attributeName="fill" to="#808080" begin="arrowRight.mouseover" end="arrowRight.mouseout"/>
                  </use>
                  <path fill="none" stroke="white" stroke-width="1.5" d="M0,-3.0v7 M-2.5,-0.5L0,-3.0L2.5,-0.5"/>
                </g>
                <g id="arrowDown" xlink:href="#dirArrow" transform="rotate(180) translate(-30 -48)" onmousedown="handlePan(0,1)">
                  <use xlink:href="#rim" fill="#404040">
                        <set attributeName="fill" to="#808080" begin="arrowDown.mouseover" end="arrowDown.mouseout"/>
                  </use>
                  <path fill="none" stroke="white" stroke-width="1.5" d="M0,-3.0v7 M-2.5,-0.5L0,-3.0L2.5,-0.5"/>
                </g>
                <g id="arrowLeft" xlink:href="#dirArrow" transform="rotate(270) translate(-36 17)" onmousedown="handlePan(-1,0)">
                  <use xlink:href="#rim" fill="#404040">
                        <set attributeName="fill" to="#808080" begin="arrowLeft.mouseover" end="arrowLeft.mouseout"/>
                  </use>
                  <path fill="none" stroke="white" stroke-width="1.5" d="M0,-3.0v7 M-2.5,-0.5L0,-3.0L2.5,-0.5"/>
                </g>
        </g>
        <svg viewBox="0 0 15 15" width="100%" height="30px" preserveAspectRatio="xMaxYMin meet">
         <g id="arrow_out" transform="scale(0.3 0.3)">
          <a xlink:href="_get_limits_8cpp__incl_org.svg" target="_base">
           <rect id="button" ry="5" rx="5" y="6" x="6" height="38" width="38"
                fill="#f2f5e9" fill-opacity="0.5" stroke="#606060" stroke-width="1.0"/>
           <path id="arrow"
             d="M 11.500037,31.436501 C 11.940474,20.09759 22.043105,11.32322 32.158766,21.979434 L 37.068811,17.246167 C 37.068811,17.246167 37.088388,32 37.088388,32 L 22.160133,31.978069 C 22.160133,31.978069 26.997745,27.140456 26.997745,27.140456 C 18.528582,18.264221 13.291696,25.230495 11.500037,31.436501 z"
             style="fill:#404040;"/>
          </a>
         </g>
        </svg>
</svg>
