<?xml version="1.0" encoding="UTF-8" standalone="no"?>
<!DOCTYPE svg PUBLIC "-//W3C//DTD SVG 1.1//EN"
 "http://www.w3.org/Graphics/SVG/1.1/DTD/svg11.dtd">
<!-- Generated by graphviz version 2.43.0 (0)
 -->
<!-- Title: /home/dferigo/git/WB&#45;Toolbox/toolbox/library/src/InverseDynamics.cpp Pages: 1 -->
<svg width="2573pt" height="229pt"
 viewBox="0.00 0.00 2572.58 229.00" xmlns="http://www.w3.org/2000/svg" xmlns:xlink="http://www.w3.org/1999/xlink">
<g id="graph0" class="graph" transform="scale(1 1) rotate(0) translate(4 225)">
<title>/home/dferigo/git/WB&#45;Toolbox/toolbox/library/src/InverseDynamics.cpp</title>
<!-- Node1 -->
<g id="node1" class="node">
<title>Node1</title>
<g id="a_node1"><a xlink:title=" ">
<polygon fill="#bfbfbf" stroke="black" points="1146.08,-179.5 1146.08,-220.5 1288.08,-220.5 1288.08,-179.5 1146.08,-179.5"/>
<text text-anchor="start" x="1154.08" y="-208.5" font-family="Helvetica,sans-Serif" font-size="10.00">/home/dferigo/git/WB</text>
<text text-anchor="start" x="1154.08" y="-197.5" font-family="Helvetica,sans-Serif" font-size="10.00">&#45;Toolbox/toolbox/library</text>
<text text-anchor="middle" x="1217.08" y="-186.5" font-family="Helvetica,sans-Serif" font-size="10.00">/src/InverseDynamics.cpp</text>
</a>
</g>
</g>
<!-- Node2 -->
<g id="node2" class="node">
<title>Node2</title>
<g id="a_node2"><a xlink:href="_inverse_dynamics_8h.html" target="_top" xlink:title=" ">
<polygon fill="none" stroke="black" points="114.58,-118 114.58,-137 311.58,-137 311.58,-118 114.58,-118"/>
<text text-anchor="middle" x="213.08" y="-125" font-family="Helvetica,sans-Serif" font-size="10.00">WBToolbox/Block/InverseDynamics.h</text>
</a>
</g>
</g>
<!-- Node1&#45;&gt;Node2 -->
<g id="edge1" class="edge">
<title>Node1&#45;&gt;Node2</title>
<path fill="none" stroke="midnightblue" d="M1146.02,-195.64C996.76,-188.32 639.75,-169.45 341.08,-143 325.55,-141.62 308.98,-139.92 293.09,-138.17"/>
<polygon fill="midnightblue" stroke="midnightblue" points="293.1,-134.65 282.77,-137.02 292.32,-141.61 293.1,-134.65"/>
</g>
<!-- Node5 -->
<g id="node5" class="node">
<title>Node5</title>
<g id="a_node5"><a xlink:title=" ">
<polygon fill="none" stroke="#bfbfbf" points="184.08,-0.5 184.08,-19.5 242.08,-19.5 242.08,-0.5 184.08,-0.5"/>
<text text-anchor="middle" x="213.08" y="-7.5" font-family="Helvetica,sans-Serif" font-size="10.00">memory</text>
</a>
</g>
</g>
<!-- Node1&#45;&gt;Node5 -->
<g id="edge30" class="edge">
<title>Node1&#45;&gt;Node5</title>
<path fill="none" stroke="midnightblue" d="M1145.77,-197.81C915.73,-193.65 202.51,-178.03 105.08,-143 58.15,-126.13 37.46,-120.56 15.08,-76 -28.83,11.43 26.62,-50.9 174.19,-20.08"/>
<polygon fill="midnightblue" stroke="midnightblue" points="175.03,-23.48 184.04,-17.91 173.52,-16.64 175.03,-23.48"/>
</g>
<!-- Node7 -->
<g id="node7" class="node">
<title>Node7</title>
<g id="a_node7"><a xlink:href="_configuration_8h.html" target="_top" xlink:title=" ">
<polygon fill="none" stroke="black" points="472.08,-56.5 472.08,-75.5 648.08,-75.5 648.08,-56.5 472.08,-56.5"/>
<text text-anchor="middle" x="560.08" y="-63.5" font-family="Helvetica,sans-Serif" font-size="10.00">WBToolbox/Base/Configuration.h</text>
</a>
</g>
</g>
<!-- Node1&#45;&gt;Node7 -->
<g id="edge8" class="edge">
<title>Node1&#45;&gt;Node7</title>
<path fill="none" stroke="midnightblue" d="M1145.76,-199.45C958.26,-199.89 462.5,-195.98 413.08,-143 382.43,-110.14 444.11,-89.06 496.74,-77.64"/>
<polygon fill="midnightblue" stroke="midnightblue" points="497.7,-81.01 506.78,-75.55 496.27,-74.16 497.7,-81.01"/>
</g>
<!-- Node10 -->
<g id="node10" class="node">
<title>Node10</title>
<g id="a_node10"><a xlink:href="_robot_interface_8h.html" target="_top" xlink:title=" ">
<polygon fill="none" stroke="black" points="272.08,-56.5 272.08,-75.5 454.08,-75.5 454.08,-56.5 272.08,-56.5"/>
<text text-anchor="middle" x="363.08" y="-63.5" font-family="Helvetica,sans-Serif" font-size="10.00">WBToolbox/Base/RobotInterface.h</text>
</a>
</g>
</g>
<!-- Node1&#45;&gt;Node10 -->
<g id="edge13" class="edge">
<title>Node1&#45;&gt;Node10</title>
<path fill="none" stroke="midnightblue" d="M1145.79,-198.16C958.21,-195.37 461.13,-184.15 400.08,-143 380.73,-129.96 371.15,-103.8 366.66,-85.85"/>
<polygon fill="midnightblue" stroke="midnightblue" points="370.04,-84.94 364.48,-75.92 363.2,-86.44 370.04,-84.94"/>
</g>
<!-- Node13 -->
<g id="node13" class="node">
<title>Node13</title>
<g id="a_node13"><a xlink:title=" ">
<polygon fill="none" stroke="#bfbfbf" points="421.58,-118 421.58,-137 622.58,-137 622.58,-118 421.58,-118"/>
<text text-anchor="middle" x="522.08" y="-125" font-family="Helvetica,sans-Serif" font-size="10.00">BlockFactory/Core/BlockInformation.h</text>
</a>
</g>
</g>
<!-- Node1&#45;&gt;Node13 -->
<g id="edge18" class="edge">
<title>Node1&#45;&gt;Node13</title>
<path fill="none" stroke="midnightblue" d="M1145.85,-193.01C1035.62,-183.54 817.09,-164.04 632.08,-143 619.7,-141.59 606.55,-139.97 593.81,-138.33"/>
<polygon fill="midnightblue" stroke="midnightblue" points="594.07,-134.83 583.7,-137.02 593.17,-141.78 594.07,-134.83"/>
</g>
<!-- Node14 -->
<g id="node14" class="node">
<title>Node14</title>
<g id="a_node14"><a xlink:title=" ">
<polygon fill="none" stroke="#bfbfbf" points="641.08,-118 641.08,-137 775.08,-137 775.08,-118 641.08,-118"/>
<text text-anchor="middle" x="708.08" y="-125" font-family="Helvetica,sans-Serif" font-size="10.00">BlockFactory/Core/Log.h</text>
</a>
</g>
</g>
<!-- Node1&#45;&gt;Node14 -->
<g id="edge19" class="edge">
<title>Node1&#45;&gt;Node14</title>
<path fill="none" stroke="midnightblue" d="M1145.81,-191.03C1060.02,-181.14 911.68,-163.11 785.08,-143 777.34,-141.77 769.17,-140.36 761.17,-138.91"/>
<polygon fill="midnightblue" stroke="midnightblue" points="761.64,-135.44 751.17,-137.06 760.37,-142.32 761.64,-135.44"/>
</g>
<!-- Node15 -->
<g id="node15" class="node">
<title>Node15</title>
<g id="a_node15"><a xlink:title=" ">
<polygon fill="none" stroke="#bfbfbf" points="793.58,-118 793.58,-137 940.58,-137 940.58,-118 793.58,-118"/>
<text text-anchor="middle" x="867.08" y="-125" font-family="Helvetica,sans-Serif" font-size="10.00">BlockFactory/Core/Signal.h</text>
</a>
</g>
</g>
<!-- Node1&#45;&gt;Node15 -->
<g id="edge20" class="edge">
<title>Node1&#45;&gt;Node15</title>
<path fill="none" stroke="midnightblue" d="M1145.83,-184.65C1078.76,-171.14 979.86,-151.22 919.67,-139.09"/>
<polygon fill="midnightblue" stroke="midnightblue" points="920.12,-135.61 909.62,-137.07 918.73,-142.47 920.12,-135.61"/>
</g>
<!-- Node16 -->
<g id="node16" class="node">
<title>Node16</title>
<g id="a_node16"><a xlink:title=" ">
<polygon fill="none" stroke="#bfbfbf" points="958.58,-118 958.58,-137 1027.58,-137 1027.58,-118 958.58,-118"/>
<text text-anchor="middle" x="993.08" y="-125" font-family="Helvetica,sans-Serif" font-size="10.00">Eigen/Core</text>
</a>
</g>
</g>
<!-- Node1&#45;&gt;Node16 -->
<g id="edge21" class="edge">
<title>Node1&#45;&gt;Node16</title>
<path fill="none" stroke="midnightblue" d="M1153.27,-179.43C1118.82,-168.8 1075.57,-155.33 1037.08,-143 1034.19,-142.07 1031.19,-141.1 1028.18,-140.13"/>
<polygon fill="midnightblue" stroke="midnightblue" points="1029.24,-136.79 1018.65,-137.01 1027.07,-143.44 1029.24,-136.79"/>
</g>
<!-- Node17 -->
<g id="node17" class="node">
<title>Node17</title>
<g id="a_node17"><a xlink:title=" ">
<polygon fill="none" stroke="#bfbfbf" points="1045.58,-118 1045.58,-137 1206.58,-137 1206.58,-118 1045.58,-118"/>
<text text-anchor="middle" x="1126.08" y="-125" font-family="Helvetica,sans-Serif" font-size="10.00">iDynTree/Core/EigenHelpers.h</text>
</a>
</g>
</g>
<!-- Node1&#45;&gt;Node17 -->
<g id="edge22" class="edge">
<title>Node1&#45;&gt;Node17</title>
<path fill="none" stroke="midnightblue" d="M1191.73,-179.36C1177.06,-168 1158.9,-153.92 1145.39,-143.46"/>
<polygon fill="midnightblue" stroke="midnightblue" points="1147.33,-140.53 1137.28,-137.17 1143.04,-146.06 1147.33,-140.53"/>
</g>
<!-- Node18 -->
<g id="node18" class="node">
<title>Node18</title>
<g id="a_node18"><a xlink:title=" ">
<polygon fill="none" stroke="#bfbfbf" points="1225.08,-118 1225.08,-137 1393.08,-137 1393.08,-118 1225.08,-118"/>
<text text-anchor="middle" x="1309.08" y="-125" font-family="Helvetica,sans-Serif" font-size="10.00">iDynTree/Core/VectorDynSize.h</text>
</a>
</g>
</g>
<!-- Node1&#45;&gt;Node18 -->
<g id="edge23" class="edge">
<title>Node1&#45;&gt;Node18</title>
<path fill="none" stroke="midnightblue" d="M1242.71,-179.36C1257.54,-168 1275.91,-153.92 1289.56,-143.46"/>
<polygon fill="midnightblue" stroke="midnightblue" points="1291.95,-146.03 1297.76,-137.17 1287.7,-140.48 1291.95,-146.03"/>
</g>
<!-- Node19 -->
<g id="node19" class="node">
<title>Node19</title>
<g id="a_node19"><a xlink:title=" ">
<polygon fill="none" stroke="#bfbfbf" points="1411.08,-118 1411.08,-137 1573.08,-137 1573.08,-118 1411.08,-118"/>
<text text-anchor="middle" x="1492.08" y="-125" font-family="Helvetica,sans-Serif" font-size="10.00">iDynTree/Core/VectorFixSize.h</text>
</a>
</g>
</g>
<!-- Node1&#45;&gt;Node19 -->
<g id="edge24" class="edge">
<title>Node1&#45;&gt;Node19</title>
<path fill="none" stroke="midnightblue" d="M1288.26,-180.75C1339.09,-167.72 1405.82,-150.61 1448.83,-139.59"/>
<polygon fill="midnightblue" stroke="midnightblue" points="1449.88,-142.93 1458.7,-137.06 1448.14,-136.15 1449.88,-142.93"/>
</g>
<!-- Node20 -->
<g id="node20" class="node">
<title>Node20</title>
<g id="a_node20"><a xlink:title=" ">
<polygon fill="none" stroke="#bfbfbf" points="1591.08,-118 1591.08,-137 1725.08,-137 1725.08,-118 1591.08,-118"/>
<text text-anchor="middle" x="1658.08" y="-125" font-family="Helvetica,sans-Serif" font-size="10.00">iDynTree/Core/Wrench.h</text>
</a>
</g>
</g>
<!-- Node1&#45;&gt;Node20 -->
<g id="edge25" class="edge">
<title>Node1&#45;&gt;Node20</title>
<path fill="none" stroke="midnightblue" d="M1288.2,-188.87C1361.85,-178.19 1480.2,-160.53 1582.08,-143 1589.44,-141.73 1597.2,-140.33 1604.82,-138.92"/>
<polygon fill="midnightblue" stroke="midnightblue" points="1605.54,-142.34 1614.72,-137.05 1604.25,-135.46 1605.54,-142.34"/>
</g>
<!-- Node21 -->
<g id="node21" class="node">
<title>Node21</title>
<g id="a_node21"><a xlink:title=" ">
<polygon fill="none" stroke="#bfbfbf" points="1743.58,-118 1743.58,-137 1918.58,-137 1918.58,-118 1743.58,-118"/>
<text text-anchor="middle" x="1831.08" y="-125" font-family="Helvetica,sans-Serif" font-size="10.00">iDynTree/KinDynComputations.h</text>
</a>
</g>
</g>
<!-- Node1&#45;&gt;Node21 -->
<g id="edge26" class="edge">
<title>Node1&#45;&gt;Node21</title>
<path fill="none" stroke="midnightblue" d="M1288.27,-192.21C1388.06,-182.48 1575.14,-163.48 1734.08,-143 1744.68,-141.63 1755.92,-140.07 1766.84,-138.48"/>
<polygon fill="midnightblue" stroke="midnightblue" points="1767.37,-141.94 1776.75,-137.02 1766.35,-135.01 1767.37,-141.94"/>
</g>
<!-- Node22 -->
<g id="node22" class="node">
<title>Node22</title>
<g id="a_node22"><a xlink:title=" ">
<polygon fill="none" stroke="#bfbfbf" points="1937.08,-112.5 1937.08,-142.5 2093.08,-142.5 2093.08,-112.5 1937.08,-112.5"/>
<text text-anchor="start" x="1945.08" y="-130.5" font-family="Helvetica,sans-Serif" font-size="10.00">iDynTree/Model/FreeFloating</text>
<text text-anchor="middle" x="2015.08" y="-119.5" font-family="Helvetica,sans-Serif" font-size="10.00">State.h</text>
</a>
</g>
</g>
<!-- Node1&#45;&gt;Node22 -->
<g id="edge27" class="edge">
<title>Node1&#45;&gt;Node22</title>
<path fill="none" stroke="midnightblue" d="M1288.18,-195.44C1414.64,-188.67 1687.14,-172.04 1926.92,-143.07"/>
<polygon fill="midnightblue" stroke="midnightblue" points="1927.37,-146.55 1936.87,-141.86 1926.52,-139.6 1927.37,-146.55"/>
</g>
<!-- Node23 -->
<g id="node23" class="node">
<title>Node23</title>
<g id="a_node23"><a xlink:title=" ">
<polygon fill="none" stroke="#bfbfbf" points="2111.08,-118 2111.08,-137 2263.08,-137 2263.08,-118 2111.08,-118"/>
<text text-anchor="middle" x="2187.08" y="-125" font-family="Helvetica,sans-Serif" font-size="10.00">iDynTree/Model/JointState.h</text>
</a>
</g>
</g>
<!-- Node1&#45;&gt;Node23 -->
<g id="edge28" class="edge">
<title>Node1&#45;&gt;Node23</title>
<path fill="none" stroke="midnightblue" d="M1288.15,-197.05C1438.69,-192.37 1800.64,-178.15 2102.08,-143 2111.89,-141.86 2122.3,-140.34 2132.33,-138.71"/>
<polygon fill="midnightblue" stroke="midnightblue" points="2132.93,-142.16 2142.21,-137.07 2131.77,-135.26 2132.93,-142.16"/>
</g>
<!-- Node24 -->
<g id="node24" class="node">
<title>Node24</title>
<g id="a_node24"><a xlink:title=" ">
<polygon fill="none" stroke="#bfbfbf" points="2281.08,-118 2281.08,-137 2431.08,-137 2431.08,-118 2281.08,-118"/>
<text text-anchor="middle" x="2356.08" y="-125" font-family="Helvetica,sans-Serif" font-size="10.00">iDynTree/Model/LinkState.h</text>
</a>
</g>
</g>
<!-- Node1&#45;&gt;Node24 -->
<g id="edge29" class="edge">
<title>Node1&#45;&gt;Node24</title>
<path fill="none" stroke="midnightblue" d="M1288.32,-198.11C1458.79,-195.36 1903.44,-184.45 2272.08,-143 2282.01,-141.88 2292.54,-140.35 2302.67,-138.69"/>
<polygon fill="midnightblue" stroke="midnightblue" points="2303.35,-142.13 2312.62,-137.01 2302.18,-135.22 2303.35,-142.13"/>
</g>
<!-- Node25 -->
<g id="node25" class="node">
<title>Node25</title>
<g id="a_node25"><a xlink:title=" ">
<polygon fill="none" stroke="#bfbfbf" points="2448.58,-118 2448.58,-137 2505.58,-137 2505.58,-118 2448.58,-118"/>
<text text-anchor="middle" x="2477.08" y="-125" font-family="Helvetica,sans-Serif" font-size="10.00">ostream</text>
</a>
</g>
</g>
<!-- Node1&#45;&gt;Node25 -->
<g id="edge31" class="edge">
<title>Node1&#45;&gt;Node25</title>
<path fill="none" stroke="midnightblue" d="M1288.26,-198.79C1514.94,-197.64 2218.02,-190.24 2440.08,-143 2443.09,-142.36 2446.17,-141.5 2449.21,-140.53"/>
<polygon fill="midnightblue" stroke="midnightblue" points="2450.42,-143.81 2458.63,-137.1 2448.03,-137.23 2450.42,-143.81"/>
</g>
<!-- Node26 -->
<g id="node26" class="node">
<title>Node26</title>
<g id="a_node26"><a xlink:title=" ">
<polygon fill="none" stroke="#bfbfbf" points="2523.58,-118 2523.58,-137 2564.58,-137 2564.58,-118 2523.58,-118"/>
<text text-anchor="middle" x="2544.08" y="-125" font-family="Helvetica,sans-Serif" font-size="10.00">tuple</text>
</a>
</g>
</g>
<!-- Node1&#45;&gt;Node26 -->
<g id="edge32" class="edge">
<title>Node1&#45;&gt;Node26</title>
<path fill="none" stroke="midnightblue" d="M1288.27,-197.67C1542.43,-192.67 2396.35,-173.74 2515.08,-143 2516.8,-142.55 2518.54,-142 2520.27,-141.36"/>
<polygon fill="midnightblue" stroke="midnightblue" points="2522.08,-144.39 2529.8,-137.13 2519.24,-137.99 2522.08,-144.39"/>
</g>
<!-- Node3 -->
<g id="node3" class="node">
<title>Node3</title>
<g id="a_node3"><a xlink:href="_w_b_block_8h.html" target="_top" xlink:title=" ">
<polygon fill="none" stroke="black" points="24.58,-56.5 24.58,-75.5 177.58,-75.5 177.58,-56.5 24.58,-56.5"/>
<text text-anchor="middle" x="101.08" y="-63.5" font-family="Helvetica,sans-Serif" font-size="10.00">WBToolbox/Base/WBBlock.h</text>
</a>
</g>
</g>
<!-- Node2&#45;&gt;Node3 -->
<g id="edge2" class="edge">
<title>Node2&#45;&gt;Node3</title>
<path fill="none" stroke="midnightblue" d="M197.03,-117.98C178.49,-108.12 147.74,-91.79 126.06,-80.27"/>
<polygon fill="midnightblue" stroke="midnightblue" points="127.57,-77.11 117.1,-75.51 124.29,-83.29 127.57,-77.11"/>
</g>
<!-- Node2&#45;&gt;Node5 -->
<g id="edge6" class="edge">
<title>Node2&#45;&gt;Node5</title>
<path fill="none" stroke="midnightblue" d="M213.08,-117.82C213.08,-99.26 213.08,-55.34 213.08,-29.97"/>
<polygon fill="midnightblue" stroke="midnightblue" points="216.58,-29.78 213.08,-19.78 209.58,-29.78 216.58,-29.78"/>
</g>
<!-- Node6 -->
<g id="node6" class="node">
<title>Node6</title>
<g id="a_node6"><a xlink:title=" ">
<polygon fill="none" stroke="#bfbfbf" points="265.08,-0.5 265.08,-19.5 309.08,-19.5 309.08,-0.5 265.08,-0.5"/>
<text text-anchor="middle" x="287.08" y="-7.5" font-family="Helvetica,sans-Serif" font-size="10.00">string</text>
</a>
</g>
</g>
<!-- Node2&#45;&gt;Node6 -->
<g id="edge7" class="edge">
<title>Node2&#45;&gt;Node6</title>
<path fill="none" stroke="midnightblue" d="M218.64,-117.82C230.8,-98.84 259.95,-53.35 276,-28.29"/>
<polygon fill="midnightblue" stroke="midnightblue" points="279.01,-30.09 281.45,-19.78 273.11,-26.31 279.01,-30.09"/>
</g>
<!-- Node4 -->
<g id="node4" class="node">
<title>Node4</title>
<g id="a_node4"><a xlink:title=" ">
<polygon fill="none" stroke="#bfbfbf" points="22.08,-0.5 22.08,-19.5 166.08,-19.5 166.08,-0.5 22.08,-0.5"/>
<text text-anchor="middle" x="94.08" y="-7.5" font-family="Helvetica,sans-Serif" font-size="10.00">BlockFactory/Core/Block.h</text>
</a>
</g>
</g>
<!-- Node3&#45;&gt;Node4 -->
<g id="edge3" class="edge">
<title>Node3&#45;&gt;Node4</title>
<path fill="none" stroke="midnightblue" d="M99.93,-56.08C99,-48.93 97.66,-38.64 96.5,-29.69"/>
<polygon fill="midnightblue" stroke="midnightblue" points="99.97,-29.22 95.22,-19.75 93.03,-30.12 99.97,-29.22"/>
</g>
<!-- Node3&#45;&gt;Node5 -->
<g id="edge4" class="edge">
<title>Node3&#45;&gt;Node5</title>
<path fill="none" stroke="midnightblue" d="M119.08,-56.32C137.12,-47.62 165.13,-34.12 185.88,-24.11"/>
<polygon fill="midnightblue" stroke="midnightblue" points="187.64,-27.15 195.13,-19.65 184.6,-20.84 187.64,-27.15"/>
</g>
<!-- Node3&#45;&gt;Node6 -->
<g id="edge5" class="edge">
<title>Node3&#45;&gt;Node6</title>
<path fill="none" stroke="midnightblue" d="M130.55,-56.44C164.58,-46.56 220.35,-30.37 255.32,-20.22"/>
<polygon fill="midnightblue" stroke="midnightblue" points="256.4,-23.55 265.03,-17.4 254.45,-16.83 256.4,-23.55"/>
</g>
<!-- Node7&#45;&gt;Node5 -->
<g id="edge10" class="edge">
<title>Node7&#45;&gt;Node5</title>
<path fill="none" stroke="midnightblue" d="M494.67,-56.46C432.98,-48.14 338.02,-34.63 256.08,-20 254.81,-19.77 253.53,-19.54 252.23,-19.3"/>
<polygon fill="midnightblue" stroke="midnightblue" points="252.67,-15.82 242.18,-17.33 251.32,-22.69 252.67,-15.82"/>
</g>
<!-- Node7&#45;&gt;Node6 -->
<g id="edge11" class="edge">
<title>Node7&#45;&gt;Node6</title>
<path fill="none" stroke="midnightblue" d="M509.04,-56.5C460.5,-48.15 385.53,-34.58 321.08,-20 320.49,-19.87 319.88,-19.73 319.28,-19.59"/>
<polygon fill="midnightblue" stroke="midnightblue" points="319.88,-16.13 309.34,-17.14 318.21,-22.93 319.88,-16.13"/>
</g>
<!-- Node8 -->
<g id="node8" class="node">
<title>Node8</title>
<g id="a_node8"><a xlink:title=" ">
<polygon fill="none" stroke="#bfbfbf" points="582.08,-0.5 582.08,-19.5 624.08,-19.5 624.08,-0.5 582.08,-0.5"/>
<text text-anchor="middle" x="603.08" y="-7.5" font-family="Helvetica,sans-Serif" font-size="10.00">array</text>
</a>
</g>
</g>
<!-- Node7&#45;&gt;Node8 -->
<g id="edge9" class="edge">
<title>Node7&#45;&gt;Node8</title>
<path fill="none" stroke="midnightblue" d="M567.18,-56.08C573.32,-48.38 582.35,-37.03 589.82,-27.65"/>
<polygon fill="midnightblue" stroke="midnightblue" points="592.62,-29.75 596.11,-19.75 587.15,-25.39 592.62,-29.75"/>
</g>
<!-- Node9 -->
<g id="node9" class="node">
<title>Node9</title>
<g id="a_node9"><a xlink:title=" ">
<polygon fill="none" stroke="#bfbfbf" points="516.58,-0.5 516.58,-19.5 563.58,-19.5 563.58,-0.5 516.58,-0.5"/>
<text text-anchor="middle" x="540.08" y="-7.5" font-family="Helvetica,sans-Serif" font-size="10.00">vector</text>
</a>
</g>
</g>
<!-- Node7&#45;&gt;Node9 -->
<g id="edge12" class="edge">
<title>Node7&#45;&gt;Node9</title>
<path fill="none" stroke="midnightblue" d="M556.78,-56.08C554.1,-48.85 550.23,-38.41 546.89,-29.4"/>
<polygon fill="midnightblue" stroke="midnightblue" points="550.08,-27.91 543.32,-19.75 543.51,-30.34 550.08,-27.91"/>
</g>
<!-- Node10&#45;&gt;Node5 -->
<g id="edge14" class="edge">
<title>Node10&#45;&gt;Node5</title>
<path fill="none" stroke="midnightblue" d="M339.31,-56.44C314.19,-47.4 274.37,-33.06 246.18,-22.92"/>
<polygon fill="midnightblue" stroke="midnightblue" points="247.33,-19.61 236.74,-19.52 244.96,-26.2 247.33,-19.61"/>
</g>
<!-- Node10&#45;&gt;Node6 -->
<g id="edge15" class="edge">
<title>Node10&#45;&gt;Node6</title>
<path fill="none" stroke="midnightblue" d="M350.87,-56.32C339.31,-48.11 321.71,-35.6 307.92,-25.81"/>
<polygon fill="midnightblue" stroke="midnightblue" points="309.69,-22.77 299.51,-19.83 305.64,-28.48 309.69,-22.77"/>
</g>
<!-- Node11 -->
<g id="node11" class="node">
<title>Node11</title>
<g id="a_node11"><a xlink:title=" ">
<polygon fill="none" stroke="#bfbfbf" points="393.58,-0.5 393.58,-19.5 486.58,-19.5 486.58,-0.5 393.58,-0.5"/>
<text text-anchor="middle" x="440.08" y="-7.5" font-family="Helvetica,sans-Serif" font-size="10.00">unordered_map</text>
</a>
</g>
</g>
<!-- Node10&#45;&gt;Node11 -->
<g id="edge16" class="edge">
<title>Node10&#45;&gt;Node11</title>
<path fill="none" stroke="midnightblue" d="M375.45,-56.32C387.24,-48.06 405.21,-35.45 419.22,-25.63"/>
<polygon fill="midnightblue" stroke="midnightblue" points="421.56,-28.26 427.74,-19.65 417.54,-22.53 421.56,-28.26"/>
</g>
<!-- Node12 -->
<g id="node12" class="node">
<title>Node12</title>
<g id="a_node12"><a xlink:title=" ">
<polygon fill="none" stroke="#bfbfbf" points="330.58,-0.5 330.58,-19.5 375.58,-19.5 375.58,-0.5 330.58,-0.5"/>
<text text-anchor="middle" x="353.08" y="-7.5" font-family="Helvetica,sans-Serif" font-size="10.00">utility</text>
</a>
</g>
</g>
<!-- Node10&#45;&gt;Node12 -->
<g id="edge17" class="edge">
<title>Node10&#45;&gt;Node12</title>
<path fill="none" stroke="midnightblue" d="M361.43,-56.08C360.1,-48.93 358.2,-38.64 356.54,-29.69"/>
<polygon fill="midnightblue" stroke="midnightblue" points="359.96,-28.95 354.7,-19.75 353.08,-30.22 359.96,-28.95"/>
</g>
</g>
</svg>
