<?xml version="1.0" encoding="UTF-8" standalone="no"?>
<!DOCTYPE svg PUBLIC "-//W3C//DTD SVG 1.1//EN"
 "http://www.w3.org/Graphics/SVG/1.1/DTD/svg11.dtd">
<!-- Generated by graphviz version 2.43.0 (0)
 -->
<!-- Title: /home/runner/work/wb&#45;toolbox/wb&#45;toolbox/toolbox/library/src/InverseDynamics.cpp Pages: 1 -->
<!--zoomable 218 -->
<svg id="main" version="1.1" xmlns="http://www.w3.org/2000/svg" xmlns:xlink="http://www.w3.org/1999/xlink" xml:space="preserve" onload="init(evt)">
<style type="text/css"><![CDATA[
.edge:hover path { stroke: red; }
.edge:hover polygon { stroke: red; fill: red; }
]]></style>
<script type="text/javascript"><![CDATA[
var edges = document.getElementsByTagName('g');
if (edges && edges.length) {
  for (var i=0;i<edges.length;i++) {
    if (edges[i].id.substr(0,4)=='edge') {
      edges[i].setAttribute('class','edge');
    }
  }
}
]]></script>
        <defs>
                <circle id="rim" cx="0" cy="0" r="7"/>
                <circle id="rim2" cx="0" cy="0" r="3.5"/>
                <g id="zoomPlus">
                        <use xlink:href="#rim" fill="#404040">
                                <set attributeName="fill" to="#808080" begin="zoomplus.mouseover" end="zoomplus.mouseout"/>
                        </use>
                        <path d="M-4,0h8M0,-4v8" fill="none" stroke="white" stroke-width="1.5" pointer-events="none"/>
                </g>
                <g id="zoomMin">
                        <use xlink:href="#rim" fill="#404040">
                                <set attributeName="fill" to="#808080" begin="zoomminus.mouseover" end="zoomminus.mouseout"/>
                        </use>
                        <path d="M-4,0h8" fill="none" stroke="white" stroke-width="1.5" pointer-events="none"/>
                </g>
                <g id="dirArrow">
                        <path fill="none" stroke="white" stroke-width="1.5" d="M0,-3.0v7 M-2.5,-0.5L0,-3.0L2.5,-0.5"/>
                </g>
               <g id="resetDef">
                       <use xlink:href="#rim2" fill="#404040">
                               <set attributeName="fill" to="#808080" begin="reset.mouseover" end="reset.mouseout"/>
                       </use>
               </g>
        </defs>

<script type="text/javascript">
var viewWidth = 2412;
var viewHeight = 218;
var sectionId = 'dynsection-0';
</script>
<script xlink:href="svgpan.js"/>
<svg id="graph" class="graph">
<g id="viewport">
<title>/home/runner/work/wb&#45;toolbox/wb&#45;toolbox/toolbox/library/src/InverseDynamics.cpp</title>
<!-- Node1 -->
<g id="node1" class="node">
<title>Node1</title>
<g id="a_node1"><a xlink:title=" ">
<polygon fill="#bfbfbf" stroke="black" points="1107.24,-168.5 1107.24,-209.5 1283.24,-209.5 1283.24,-168.5 1107.24,-168.5"/>
<text text-anchor="start" x="1115.24" y="-197.5" font-family="Helvetica,sans-Serif" font-size="10.00">/home/runner/work/wb</text>
<text text-anchor="start" x="1115.24" y="-186.5" font-family="Helvetica,sans-Serif" font-size="10.00">&#45;toolbox/wb&#45;toolbox/toolbox</text>
<text text-anchor="middle" x="1195.24" y="-175.5" font-family="Helvetica,sans-Serif" font-size="10.00">/library/src/InverseDynamics.cpp</text>
</a>
</g>
</g>
<!-- Node2 -->
<g id="node2" class="node">
<title>Node2</title>
<g id="a_node2"><a xlink:href="_inverse_dynamics_8h.html" target="_top" xlink:title=" ">
<polygon fill="none" stroke="black" points="120.74,-112.5 120.74,-131.5 317.74,-131.5 317.74,-112.5 120.74,-112.5"/>
<text text-anchor="middle" x="219.24" y="-119.5" font-family="Helvetica,sans-Serif" font-size="10.00">WBToolbox/Block/InverseDynamics.h</text>
</a>
</g>
</g>
<!-- Node1&#45;&gt;Node2 -->
<g id="edge1" class="edge">
<title>Node1&#45;&gt;Node2</title>
<path fill="none" stroke="midnightblue" d="M1107.03,-182.3C952.9,-172.31 624.53,-150.9 347.24,-132 340.97,-131.57 334.52,-131.13 328.02,-130.68"/>
<polygon fill="midnightblue" stroke="midnightblue" points="327.99,-127.17 317.77,-129.97 327.51,-134.15 327.99,-127.17"/>
</g>
<!-- Node5 -->
<g id="node5" class="node">
<title>Node5</title>
<g id="a_node5"><a xlink:title=" ">
<polygon fill="none" stroke="#bfbfbf" points="190.24,-0.5 190.24,-19.5 248.24,-19.5 248.24,-0.5 190.24,-0.5"/>
<text text-anchor="middle" x="219.24" y="-7.5" font-family="Helvetica,sans-Serif" font-size="10.00">memory</text>
</a>
</g>
</g>
<!-- Node1&#45;&gt;Node5 -->
<g id="edge30" class="edge">
<title>Node1&#45;&gt;Node5</title>
<path fill="none" stroke="midnightblue" d="M1106.81,-185.97C865.07,-180.06 204.96,-161.41 111.24,-132 66.29,-117.89 44.12,-117.18 21.24,-76 -26.77,10.41 1.32,-58.08 179.85,-20.01"/>
<polygon fill="midnightblue" stroke="midnightblue" points="180.85,-23.37 189.86,-17.79 179.34,-16.54 180.85,-23.37"/>
</g>
<!-- Node7 -->
<g id="node7" class="node">
<title>Node7</title>
<g id="a_node7"><a xlink:href="_configuration_8h.html" target="_top" xlink:title=" ">
<polygon fill="none" stroke="black" points="478.74,-56.5 478.74,-75.5 653.74,-75.5 653.74,-56.5 478.74,-56.5"/>
<text text-anchor="middle" x="566.24" y="-63.5" font-family="Helvetica,sans-Serif" font-size="10.00">WBToolbox/Base/Configuration.h</text>
</a>
</g>
</g>
<!-- Node1&#45;&gt;Node7 -->
<g id="edge8" class="edge">
<title>Node1&#45;&gt;Node7</title>
<path fill="none" stroke="midnightblue" d="M1106.94,-188.24C913.2,-187.85 464.33,-181.54 418.24,-132 391.59,-103.36 437.85,-86.64 485.51,-77.35"/>
<polygon fill="midnightblue" stroke="midnightblue" points="486.16,-80.79 495.36,-75.53 484.89,-73.9 486.16,-80.79"/>
</g>
<!-- Node10 -->
<g id="node10" class="node">
<title>Node10</title>
<g id="a_node10"><a xlink:href="_robot_interface_8h.html" target="_top" xlink:title=" ">
<polygon fill="none" stroke="black" points="278.24,-56.5 278.24,-75.5 460.24,-75.5 460.24,-56.5 278.24,-56.5"/>
<text text-anchor="middle" x="369.24" y="-63.5" font-family="Helvetica,sans-Serif" font-size="10.00">WBToolbox/Base/RobotInterface.h</text>
</a>
</g>
</g>
<!-- Node1&#45;&gt;Node10 -->
<g id="edge13" class="edge">
<title>Node1&#45;&gt;Node10</title>
<path fill="none" stroke="midnightblue" d="M1107.2,-186.39C913.79,-182.21 464.37,-168.62 406.24,-132 389.62,-121.53 379.72,-100.74 374.4,-85.48"/>
<polygon fill="midnightblue" stroke="midnightblue" points="377.63,-84.07 371.31,-75.57 370.95,-86.16 377.63,-84.07"/>
</g>
<!-- Node13 -->
<g id="node13" class="node">
<title>Node13</title>
<g id="a_node13"><a xlink:title=" ">
<polygon fill="none" stroke="#bfbfbf" points="427.24,-112.5 427.24,-131.5 627.24,-131.5 627.24,-112.5 427.24,-112.5"/>
<text text-anchor="middle" x="527.24" y="-119.5" font-family="Helvetica,sans-Serif" font-size="10.00">BlockFactory/Core/BlockInformation.h</text>
</a>
</g>
</g>
<!-- Node1&#45;&gt;Node13 -->
<g id="edge18" class="edge">
<title>Node1&#45;&gt;Node13</title>
<path fill="none" stroke="midnightblue" d="M1107.22,-179.44C982.44,-167.29 754.88,-145.15 624.99,-132.51"/>
<polygon fill="midnightblue" stroke="midnightblue" points="624.95,-128.99 614.65,-131.51 624.27,-135.96 624.95,-128.99"/>
</g>
<!-- Node14 -->
<g id="node14" class="node">
<title>Node14</title>
<g id="a_node14"><a xlink:title=" ">
<polygon fill="none" stroke="#bfbfbf" points="645.24,-112.5 645.24,-131.5 779.24,-131.5 779.24,-112.5 645.24,-112.5"/>
<text text-anchor="middle" x="712.24" y="-119.5" font-family="Helvetica,sans-Serif" font-size="10.00">BlockFactory/Core/Log.h</text>
</a>
</g>
</g>
<!-- Node1&#45;&gt;Node14 -->
<g id="edge19" class="edge">
<title>Node1&#45;&gt;Node14</title>
<path fill="none" stroke="midnightblue" d="M1107.21,-176.15C1014.95,-163.74 871.66,-144.45 785.4,-132.85"/>
<polygon fill="midnightblue" stroke="midnightblue" points="785.8,-129.37 775.43,-131.5 784.87,-136.31 785.8,-129.37"/>
</g>
<!-- Node15 -->
<g id="node15" class="node">
<title>Node15</title>
<g id="a_node15"><a xlink:title=" ">
<polygon fill="none" stroke="#bfbfbf" points="797.24,-112.5 797.24,-131.5 943.24,-131.5 943.24,-112.5 797.24,-112.5"/>
<text text-anchor="middle" x="870.24" y="-119.5" font-family="Helvetica,sans-Serif" font-size="10.00">BlockFactory/Core/Signal.h</text>
</a>
</g>
</g>
<!-- Node1&#45;&gt;Node15 -->
<g id="edge20" class="edge">
<title>Node1&#45;&gt;Node15</title>
<path fill="none" stroke="midnightblue" d="M1106.86,-170.32C1047.95,-158.54 972.5,-143.45 922.83,-133.52"/>
<polygon fill="midnightblue" stroke="midnightblue" points="923.44,-130.07 912.95,-131.54 922.07,-136.93 923.44,-130.07"/>
</g>
<!-- Node16 -->
<g id="node16" class="node">
<title>Node16</title>
<g id="a_node16"><a xlink:title=" ">
<polygon fill="none" stroke="#bfbfbf" points="961.74,-112.5 961.74,-131.5 1030.74,-131.5 1030.74,-112.5 961.74,-112.5"/>
<text text-anchor="middle" x="996.24" y="-119.5" font-family="Helvetica,sans-Serif" font-size="10.00">Eigen/Core</text>
</a>
</g>
</g>
<!-- Node1&#45;&gt;Node16 -->
<g id="edge21" class="edge">
<title>Node1&#45;&gt;Node16</title>
<path fill="none" stroke="midnightblue" d="M1135.53,-168.5C1101.84,-157.49 1060.86,-144.11 1032.1,-134.71"/>
<polygon fill="midnightblue" stroke="midnightblue" points="1033.06,-131.35 1022.47,-131.57 1030.89,-138 1033.06,-131.35"/>
</g>
<!-- Node17 -->
<g id="node17" class="node">
<title>Node17</title>
<g id="a_node17"><a xlink:title=" ">
<polygon fill="none" stroke="#bfbfbf" points="1049.24,-112.5 1049.24,-131.5 1185.24,-131.5 1185.24,-112.5 1049.24,-112.5"/>
<text text-anchor="middle" x="1117.24" y="-119.5" font-family="Helvetica,sans-Serif" font-size="10.00">iDynTree/EigenHelpers.h</text>
</a>
</g>
</g>
<!-- Node1&#45;&gt;Node17 -->
<g id="edge22" class="edge">
<title>Node1&#45;&gt;Node17</title>
<path fill="none" stroke="midnightblue" d="M1171.84,-168.5C1160.22,-158.82 1146.4,-147.3 1135.57,-138.27"/>
<polygon fill="midnightblue" stroke="midnightblue" points="1137.55,-135.37 1127.62,-131.65 1133.06,-140.74 1137.55,-135.37"/>
</g>
<!-- Node18 -->
<g id="node18" class="node">
<title>Node18</title>
<g id="a_node18"><a xlink:title=" ">
<polygon fill="none" stroke="#bfbfbf" points="1203.24,-112.5 1203.24,-131.5 1345.24,-131.5 1345.24,-112.5 1203.24,-112.5"/>
<text text-anchor="middle" x="1274.24" y="-119.5" font-family="Helvetica,sans-Serif" font-size="10.00">iDynTree/VectorDynSize.h</text>
</a>
</g>
</g>
<!-- Node1&#45;&gt;Node18 -->
<g id="edge23" class="edge">
<title>Node1&#45;&gt;Node18</title>
<path fill="none" stroke="midnightblue" d="M1218.94,-168.5C1230.82,-158.72 1244.98,-147.07 1256,-138.01"/>
<polygon fill="midnightblue" stroke="midnightblue" points="1258.23,-140.71 1263.72,-131.65 1253.78,-135.3 1258.23,-140.71"/>
</g>
<!-- Node19 -->
<g id="node19" class="node">
<title>Node19</title>
<g id="a_node19"><a xlink:title=" ">
<polygon fill="none" stroke="#bfbfbf" points="1363.74,-112.5 1363.74,-131.5 1500.74,-131.5 1500.74,-112.5 1363.74,-112.5"/>
<text text-anchor="middle" x="1432.24" y="-119.5" font-family="Helvetica,sans-Serif" font-size="10.00">iDynTree/VectorFixSize.h</text>
</a>
</g>
</g>
<!-- Node1&#45;&gt;Node19 -->
<g id="edge24" class="edge">
<title>Node1&#45;&gt;Node19</title>
<path fill="none" stroke="midnightblue" d="M1266.35,-168.5C1307.18,-157.3 1356.99,-143.64 1391.31,-134.22"/>
<polygon fill="midnightblue" stroke="midnightblue" points="1392.28,-137.59 1401,-131.57 1390.43,-130.84 1392.28,-137.59"/>
</g>
<!-- Node20 -->
<g id="node20" class="node">
<title>Node20</title>
<g id="a_node20"><a xlink:title=" ">
<polygon fill="none" stroke="#bfbfbf" points="1519.24,-112.5 1519.24,-131.5 1627.24,-131.5 1627.24,-112.5 1519.24,-112.5"/>
<text text-anchor="middle" x="1573.24" y="-119.5" font-family="Helvetica,sans-Serif" font-size="10.00">iDynTree/Wrench.h</text>
</a>
</g>
</g>
<!-- Node1&#45;&gt;Node20 -->
<g id="edge25" class="edge">
<title>Node1&#45;&gt;Node20</title>
<path fill="none" stroke="midnightblue" d="M1283.39,-172.84C1354.27,-160.65 1451.91,-143.86 1513.81,-133.22"/>
<polygon fill="midnightblue" stroke="midnightblue" points="1514.54,-136.64 1523.81,-131.5 1513.36,-129.75 1514.54,-136.64"/>
</g>
<!-- Node21 -->
<g id="node21" class="node">
<title>Node21</title>
<g id="a_node21"><a xlink:title=" ">
<polygon fill="none" stroke="#bfbfbf" points="1645.74,-112.5 1645.74,-131.5 1820.74,-131.5 1820.74,-112.5 1645.74,-112.5"/>
<text text-anchor="middle" x="1733.24" y="-119.5" font-family="Helvetica,sans-Serif" font-size="10.00">iDynTree/KinDynComputations.h</text>
</a>
</g>
</g>
<!-- Node1&#45;&gt;Node21 -->
<g id="edge26" class="edge">
<title>Node1&#45;&gt;Node21</title>
<path fill="none" stroke="midnightblue" d="M1283.48,-177.34C1385.93,-164.96 1553.51,-144.71 1652.61,-132.74"/>
<polygon fill="midnightblue" stroke="midnightblue" points="1653.06,-136.21 1662.57,-131.54 1652.22,-129.26 1653.06,-136.21"/>
</g>
<!-- Node22 -->
<g id="node22" class="node">
<title>Node22</title>
<g id="a_node22"><a xlink:title=" ">
<polygon fill="none" stroke="#bfbfbf" points="1839.24,-112.5 1839.24,-131.5 1997.24,-131.5 1997.24,-112.5 1839.24,-112.5"/>
<text text-anchor="middle" x="1918.24" y="-119.5" font-family="Helvetica,sans-Serif" font-size="10.00">iDynTree/FreeFloatingState.h</text>
</a>
</g>
</g>
<!-- Node1&#45;&gt;Node22 -->
<g id="edge27" class="edge">
<title>Node1&#45;&gt;Node22</title>
<path fill="none" stroke="midnightblue" d="M1283.36,-180.62C1403.97,-170.43 1627.52,-151.23 1828.91,-132.12"/>
<polygon fill="midnightblue" stroke="midnightblue" points="1829.47,-135.58 1839.09,-131.15 1828.8,-128.61 1829.47,-135.58"/>
</g>
<!-- Node23 -->
<g id="node23" class="node">
<title>Node23</title>
<g id="a_node23"><a xlink:title=" ">
<polygon fill="none" stroke="#bfbfbf" points="2015.74,-112.5 2015.74,-131.5 2134.74,-131.5 2134.74,-112.5 2015.74,-112.5"/>
<text text-anchor="middle" x="2075.24" y="-119.5" font-family="Helvetica,sans-Serif" font-size="10.00">iDynTree/JointState.h</text>
</a>
</g>
</g>
<!-- Node1&#45;&gt;Node23 -->
<g id="edge28" class="edge">
<title>Node1&#45;&gt;Node23</title>
<path fill="none" stroke="midnightblue" d="M1283.29,-183.68C1430.53,-176.06 1736.22,-158.59 2005.46,-132.02"/>
<polygon fill="midnightblue" stroke="midnightblue" points="2005.82,-135.5 2015.43,-131.03 2005.13,-128.53 2005.82,-135.5"/>
</g>
<!-- Node24 -->
<g id="node24" class="node">
<title>Node24</title>
<g id="a_node24"><a xlink:title=" ">
<polygon fill="none" stroke="#bfbfbf" points="2152.74,-112.5 2152.74,-131.5 2269.74,-131.5 2269.74,-112.5 2152.74,-112.5"/>
<text text-anchor="middle" x="2211.24" y="-119.5" font-family="Helvetica,sans-Serif" font-size="10.00">iDynTree/LinkState.h</text>
</a>
</g>
</g>
<!-- Node1&#45;&gt;Node24 -->
<g id="edge29" class="edge">
<title>Node1&#45;&gt;Node24</title>
<path fill="none" stroke="midnightblue" d="M1283.4,-185C1449.53,-178.85 1820.5,-162.84 2142.45,-132.11"/>
<polygon fill="midnightblue" stroke="midnightblue" points="2142.82,-135.59 2152.44,-131.15 2142.15,-128.62 2142.82,-135.59"/>
</g>
<!-- Node25 -->
<g id="node25" class="node">
<title>Node25</title>
<g id="a_node25"><a xlink:title=" ">
<polygon fill="none" stroke="#bfbfbf" points="2287.74,-112.5 2287.74,-131.5 2344.74,-131.5 2344.74,-112.5 2287.74,-112.5"/>
<text text-anchor="middle" x="2316.24" y="-119.5" font-family="Helvetica,sans-Serif" font-size="10.00">ostream</text>
</a>
</g>
</g>
<!-- Node1&#45;&gt;Node25 -->
<g id="edge31" class="edge">
<title>Node1&#45;&gt;Node25</title>
<path fill="none" stroke="midnightblue" d="M1283.59,-185.57C1502.96,-179.19 2069.24,-160.58 2277.71,-131.93"/>
<polygon fill="midnightblue" stroke="midnightblue" points="2278.25,-135.38 2287.66,-130.51 2277.27,-128.45 2278.25,-135.38"/>
</g>
<!-- Node26 -->
<g id="node26" class="node">
<title>Node26</title>
<g id="a_node26"><a xlink:title=" ">
<polygon fill="none" stroke="#bfbfbf" points="2362.74,-112.5 2362.74,-131.5 2403.74,-131.5 2403.74,-112.5 2362.74,-112.5"/>
<text text-anchor="middle" x="2383.24" y="-119.5" font-family="Helvetica,sans-Serif" font-size="10.00">tuple</text>
</a>
</g>
</g>
<!-- Node1&#45;&gt;Node26 -->
<g id="edge32" class="edge">
<title>Node1&#45;&gt;Node26</title>
<path fill="none" stroke="midnightblue" d="M1283.38,-186.62C1513.55,-182.56 2129.75,-168.67 2352.5,-131.84"/>
<polygon fill="midnightblue" stroke="midnightblue" points="2353.22,-135.27 2362.49,-130.13 2352.04,-128.37 2353.22,-135.27"/>
</g>
<!-- Node3 -->
<g id="node3" class="node">
<title>Node3</title>
<g id="a_node3"><a xlink:href="_w_b_block_8h.html" target="_top" xlink:title=" ">
<polygon fill="none" stroke="black" points="30.74,-56.5 30.74,-75.5 183.74,-75.5 183.74,-56.5 30.74,-56.5"/>
<text text-anchor="middle" x="107.24" y="-63.5" font-family="Helvetica,sans-Serif" font-size="10.00">WBToolbox/Base/WBBlock.h</text>
</a>
</g>
</g>
<!-- Node2&#45;&gt;Node3 -->
<g id="edge2" class="edge">
<title>Node2&#45;&gt;Node3</title>
<path fill="none" stroke="midnightblue" d="M201.25,-112.32C183.2,-103.62 155.19,-90.12 134.44,-80.11"/>
<polygon fill="midnightblue" stroke="midnightblue" points="135.72,-76.84 125.19,-75.65 132.68,-83.15 135.72,-76.84"/>
</g>
<!-- Node2&#45;&gt;Node5 -->
<g id="edge6" class="edge">
<title>Node2&#45;&gt;Node5</title>
<path fill="none" stroke="midnightblue" d="M219.24,-112.37C219.24,-94.62 219.24,-53.67 219.24,-29.6"/>
<polygon fill="midnightblue" stroke="midnightblue" points="222.74,-29.59 219.24,-19.59 215.74,-29.59 222.74,-29.59"/>
</g>
<!-- Node6 -->
<g id="node6" class="node">
<title>Node6</title>
<g id="a_node6"><a xlink:title=" ">
<polygon fill="none" stroke="#bfbfbf" points="271.24,-0.5 271.24,-19.5 315.24,-19.5 315.24,-0.5 271.24,-0.5"/>
<text text-anchor="middle" x="293.24" y="-7.5" font-family="Helvetica,sans-Serif" font-size="10.00">string</text>
</a>
</g>
</g>
<!-- Node2&#45;&gt;Node6 -->
<g id="edge7" class="edge">
<title>Node2&#45;&gt;Node6</title>
<path fill="none" stroke="midnightblue" d="M225.05,-112.37C237.26,-94.22 265.79,-51.8 281.81,-27.99"/>
<polygon fill="midnightblue" stroke="midnightblue" points="284.78,-29.84 287.46,-19.59 278.97,-25.94 284.78,-29.84"/>
</g>
<!-- Node4 -->
<g id="node4" class="node">
<title>Node4</title>
<g id="a_node4"><a xlink:title=" ">
<polygon fill="none" stroke="#bfbfbf" points="28.74,-0.5 28.74,-19.5 171.74,-19.5 171.74,-0.5 28.74,-0.5"/>
<text text-anchor="middle" x="100.24" y="-7.5" font-family="Helvetica,sans-Serif" font-size="10.00">BlockFactory/Core/Block.h</text>
</a>
</g>
</g>
<!-- Node3&#45;&gt;Node4 -->
<g id="edge3" class="edge">
<title>Node3&#45;&gt;Node4</title>
<path fill="none" stroke="midnightblue" d="M106.08,-56.08C105.16,-48.93 103.82,-38.64 102.66,-29.69"/>
<polygon fill="midnightblue" stroke="midnightblue" points="106.13,-29.22 101.37,-19.75 99.19,-30.12 106.13,-29.22"/>
</g>
<!-- Node3&#45;&gt;Node5 -->
<g id="edge4" class="edge">
<title>Node3&#45;&gt;Node5</title>
<path fill="none" stroke="midnightblue" d="M125.23,-56.32C143.28,-47.62 171.29,-34.12 192.04,-24.11"/>
<polygon fill="midnightblue" stroke="midnightblue" points="193.8,-27.15 201.29,-19.65 190.76,-20.84 193.8,-27.15"/>
</g>
<!-- Node3&#45;&gt;Node6 -->
<g id="edge5" class="edge">
<title>Node3&#45;&gt;Node6</title>
<path fill="none" stroke="midnightblue" d="M136.71,-56.44C170.74,-46.56 226.51,-30.37 261.48,-20.22"/>
<polygon fill="midnightblue" stroke="midnightblue" points="262.56,-23.55 271.19,-17.4 260.61,-16.83 262.56,-23.55"/>
</g>
<!-- Node7&#45;&gt;Node5 -->
<g id="edge10" class="edge">
<title>Node7&#45;&gt;Node5</title>
<path fill="none" stroke="midnightblue" d="M500.83,-56.46C439.14,-48.14 344.18,-34.63 262.24,-20 260.97,-19.77 259.69,-19.54 258.39,-19.3"/>
<polygon fill="midnightblue" stroke="midnightblue" points="258.82,-15.82 248.34,-17.33 257.48,-22.69 258.82,-15.82"/>
</g>
<!-- Node7&#45;&gt;Node6 -->
<g id="edge11" class="edge">
<title>Node7&#45;&gt;Node6</title>
<path fill="none" stroke="midnightblue" d="M515.2,-56.5C466.66,-48.15 391.69,-34.58 327.24,-20 326.64,-19.87 326.04,-19.73 325.44,-19.59"/>
<polygon fill="midnightblue" stroke="midnightblue" points="326.04,-16.13 315.5,-17.14 324.37,-22.93 326.04,-16.13"/>
</g>
<!-- Node8 -->
<g id="node8" class="node">
<title>Node8</title>
<g id="a_node8"><a xlink:title=" ">
<polygon fill="none" stroke="#bfbfbf" points="588.24,-0.5 588.24,-19.5 630.24,-19.5 630.24,-0.5 588.24,-0.5"/>
<text text-anchor="middle" x="609.24" y="-7.5" font-family="Helvetica,sans-Serif" font-size="10.00">array</text>
</a>
</g>
</g>
<!-- Node7&#45;&gt;Node8 -->
<g id="edge9" class="edge">
<title>Node7&#45;&gt;Node8</title>
<path fill="none" stroke="midnightblue" d="M573.34,-56.08C579.48,-48.38 588.51,-37.03 595.98,-27.65"/>
<polygon fill="midnightblue" stroke="midnightblue" points="598.78,-29.75 602.27,-19.75 593.3,-25.39 598.78,-29.75"/>
</g>
<!-- Node9 -->
<g id="node9" class="node">
<title>Node9</title>
<g id="a_node9"><a xlink:title=" ">
<polygon fill="none" stroke="#bfbfbf" points="522.74,-0.5 522.74,-19.5 569.74,-19.5 569.74,-0.5 522.74,-0.5"/>
<text text-anchor="middle" x="546.24" y="-7.5" font-family="Helvetica,sans-Serif" font-size="10.00">vector</text>
</a>
</g>
</g>
<!-- Node7&#45;&gt;Node9 -->
<g id="edge12" class="edge">
<title>Node7&#45;&gt;Node9</title>
<path fill="none" stroke="midnightblue" d="M562.94,-56.08C560.26,-48.85 556.39,-38.41 553.05,-29.4"/>
<polygon fill="midnightblue" stroke="midnightblue" points="556.24,-27.91 549.48,-19.75 549.67,-30.34 556.24,-27.91"/>
</g>
<!-- Node10&#45;&gt;Node5 -->
<g id="edge14" class="edge">
<title>Node10&#45;&gt;Node5</title>
<path fill="none" stroke="midnightblue" d="M345.47,-56.44C320.35,-47.4 280.53,-33.06 252.34,-22.92"/>
<polygon fill="midnightblue" stroke="midnightblue" points="253.49,-19.61 242.9,-19.52 251.12,-26.2 253.49,-19.61"/>
</g>
<!-- Node10&#45;&gt;Node6 -->
<g id="edge15" class="edge">
<title>Node10&#45;&gt;Node6</title>
<path fill="none" stroke="midnightblue" d="M357.03,-56.32C345.46,-48.11 327.86,-35.6 314.08,-25.81"/>
<polygon fill="midnightblue" stroke="midnightblue" points="315.85,-22.77 305.67,-19.83 311.8,-28.48 315.85,-22.77"/>
</g>
<!-- Node11 -->
<g id="node11" class="node">
<title>Node11</title>
<g id="a_node11"><a xlink:title=" ">
<polygon fill="none" stroke="#bfbfbf" points="399.74,-0.5 399.74,-19.5 492.74,-19.5 492.74,-0.5 399.74,-0.5"/>
<text text-anchor="middle" x="446.24" y="-7.5" font-family="Helvetica,sans-Serif" font-size="10.00">unordered_map</text>
</a>
</g>
</g>
<!-- Node10&#45;&gt;Node11 -->
<g id="edge16" class="edge">
<title>Node10&#45;&gt;Node11</title>
<path fill="none" stroke="midnightblue" d="M381.61,-56.32C393.4,-48.06 411.37,-35.45 425.38,-25.63"/>
<polygon fill="midnightblue" stroke="midnightblue" points="427.72,-28.26 433.9,-19.65 423.7,-22.53 427.72,-28.26"/>
</g>
<!-- Node12 -->
<g id="node12" class="node">
<title>Node12</title>
<g id="a_node12"><a xlink:title=" ">
<polygon fill="none" stroke="#bfbfbf" points="336.74,-0.5 336.74,-19.5 381.74,-19.5 381.74,-0.5 336.74,-0.5"/>
<text text-anchor="middle" x="359.24" y="-7.5" font-family="Helvetica,sans-Serif" font-size="10.00">utility</text>
</a>
</g>
</g>
<!-- Node10&#45;&gt;Node12 -->
<g id="edge17" class="edge">
<title>Node10&#45;&gt;Node12</title>
<path fill="none" stroke="midnightblue" d="M367.59,-56.08C366.26,-48.93 364.36,-38.64 362.7,-29.69"/>
<polygon fill="midnightblue" stroke="midnightblue" points="366.12,-28.95 360.86,-19.75 359.24,-30.22 366.12,-28.95"/>
</g>
</g>
</svg>
        <g id="navigator" transform="translate(0 0)" fill="#404254">
                <rect fill="#f2f5e9" fill-opacity="0.5" stroke="#606060" stroke-width=".5" x="0" y="0" width="60" height="60"/>
                <use id="zoomplus" xlink:href="#zoomPlus" x="17" y="9" onmousedown="handleZoom(evt,'in')"/>
                <use id="zoomminus" xlink:href="#zoomMin" x="42" y="9" onmousedown="handleZoom(evt,'out')"/>
                <use id="reset" xlink:href="#resetDef" x="30" y="36" onmousedown="handleReset()"/>
                <g id="arrowUp" xlink:href="#dirArrow" transform="translate(30 24)" onmousedown="handlePan(0,-1)">
                  <use xlink:href="#rim" fill="#404040">
                        <set attributeName="fill" to="#808080" begin="arrowUp.mouseover" end="arrowUp.mouseout"/>
                  </use>
                  <path fill="none" stroke="white" stroke-width="1.5" d="M0,-3.0v7 M-2.5,-0.5L0,-3.0L2.5,-0.5"/>
                </g>
                <g id="arrowRight" xlink:href="#dirArrow" transform="rotate(90) translate(36 -43)" onmousedown="handlePan(1,0)">
                  <use xlink:href="#rim" fill="#404040">
                        <set attributeName="fill" to="#808080" begin="arrowRight.mouseover" end="arrowRight.mouseout"/>
                  </use>
                  <path fill="none" stroke="white" stroke-width="1.5" d="M0,-3.0v7 M-2.5,-0.5L0,-3.0L2.5,-0.5"/>
                </g>
                <g id="arrowDown" xlink:href="#dirArrow" transform="rotate(180) translate(-30 -48)" onmousedown="handlePan(0,1)">
                  <use xlink:href="#rim" fill="#404040">
                        <set attributeName="fill" to="#808080" begin="arrowDown.mouseover" end="arrowDown.mouseout"/>
                  </use>
                  <path fill="none" stroke="white" stroke-width="1.5" d="M0,-3.0v7 M-2.5,-0.5L0,-3.0L2.5,-0.5"/>
                </g>
                <g id="arrowLeft" xlink:href="#dirArrow" transform="rotate(270) translate(-36 17)" onmousedown="handlePan(-1,0)">
                  <use xlink:href="#rim" fill="#404040">
                        <set attributeName="fill" to="#808080" begin="arrowLeft.mouseover" end="arrowLeft.mouseout"/>
                  </use>
                  <path fill="none" stroke="white" stroke-width="1.5" d="M0,-3.0v7 M-2.5,-0.5L0,-3.0L2.5,-0.5"/>
                </g>
        </g>
        <svg viewBox="0 0 15 15" width="100%" height="30px" preserveAspectRatio="xMaxYMin meet">
         <g id="arrow_out" transform="scale(0.3 0.3)">
          <a xlink:href="_inverse_dynamics_8cpp__incl_org.svg" target="_base">
           <rect id="button" ry="5" rx="5" y="6" x="6" height="38" width="38"
                fill="#f2f5e9" fill-opacity="0.5" stroke="#606060" stroke-width="1.0"/>
           <path id="arrow"
             d="M 11.500037,31.436501 C 11.940474,20.09759 22.043105,11.32322 32.158766,21.979434 L 37.068811,17.246167 C 37.068811,17.246167 37.088388,32 37.088388,32 L 22.160133,31.978069 C 22.160133,31.978069 26.997745,27.140456 26.997745,27.140456 C 18.528582,18.264221 13.291696,25.230495 11.500037,31.436501 z"
             style="fill:#404040;"/>
          </a>
         </g>
        </svg>
</svg>
