<?xml version="1.0" encoding="UTF-8" standalone="no"?>
<!DOCTYPE svg PUBLIC "-//W3C//DTD SVG 1.1//EN"
 "http://www.w3.org/Graphics/SVG/1.1/DTD/svg11.dtd">
<!-- Generated by graphviz version 2.36.0 (20140111.2315)
 -->
<!-- Title: /home/travis/build/robotology/wb&#45;toolbox/toolbox/library/include/Block/InverseDynamics.h Pages: 1 -->
<svg width="310pt" height="152pt"
 viewBox="0.00 0.00 310.00 152.00" xmlns="http://www.w3.org/2000/svg" xmlns:xlink="http://www.w3.org/1999/xlink">
<g id="graph0" class="graph" transform="scale(1 1) rotate(0) translate(4 148)">
<title>/home/travis/build/robotology/wb&#45;toolbox/toolbox/library/include/Block/InverseDynamics.h</title>
<!-- Node1 -->
<g id="node1" class="node"><title>Node1</title>
<polygon fill="#bfbfbf" stroke="black" points="90,-91 90,-143 222,-143 222,-91 90,-91"/>
<text text-anchor="start" x="98" y="-131" font-family="Helvetica,sans-Serif" font-size="10.00">/home/travis/build</text>
<text text-anchor="start" x="98" y="-120" font-family="Helvetica,sans-Serif" font-size="10.00">/robotology/wb&#45;toolbox</text>
<text text-anchor="start" x="98" y="-109" font-family="Helvetica,sans-Serif" font-size="10.00">/toolbox/library/include</text>
<text text-anchor="middle" x="156" y="-98" font-family="Helvetica,sans-Serif" font-size="10.00">/Block/InverseDynamics.h</text>
</g>
<!-- Node2 -->
<g id="node2" class="node"><title>Node2</title>
<g id="a_node2"><a xlink:href="_factory_8cpp.html" target="_top" xlink:title="/home/travis/build\l/robotology/wb&#45;toolbox\l/toolbox/library/src/Factory.cpp">
<polygon fill="none" stroke="black" points="0,-6.5 0,-47.5 152,-47.5 152,-6.5 0,-6.5"/>
<text text-anchor="start" x="8" y="-35.5" font-family="Helvetica,sans-Serif" font-size="10.00">/home/travis/build</text>
<text text-anchor="start" x="8" y="-24.5" font-family="Helvetica,sans-Serif" font-size="10.00">/robotology/wb&#45;toolbox</text>
<text text-anchor="middle" x="76" y="-13.5" font-family="Helvetica,sans-Serif" font-size="10.00">/toolbox/library/src/Factory.cpp</text>
</a>
</g>
</g>
<!-- Node1&#45;&gt;Node2 -->
<g id="edge1" class="edge"><title>Node1&#45;&gt;Node2</title>
<path fill="none" stroke="midnightblue" d="M125.922,-82.9141C115.08,-70.988 103.2,-57.92 93.7499,-47.5249"/>
<polygon fill="midnightblue" stroke="midnightblue" points="123.544,-85.5017 132.861,-90.5468 128.724,-80.793 123.544,-85.5017"/>
</g>
<!-- Node3 -->
<g id="node3" class="node"><title>Node3</title>
<g id="a_node3"><a xlink:href="_inverse_dynamics_8cpp.html" target="_top" xlink:title="/home/travis/build\l/robotology/wb&#45;toolbox\l/toolbox/library/src/Inverse\lDynamics.cpp">
<polygon fill="none" stroke="black" points="170,-1 170,-53 302,-53 302,-1 170,-1"/>
<text text-anchor="start" x="178" y="-41" font-family="Helvetica,sans-Serif" font-size="10.00">/home/travis/build</text>
<text text-anchor="start" x="178" y="-30" font-family="Helvetica,sans-Serif" font-size="10.00">/robotology/wb&#45;toolbox</text>
<text text-anchor="start" x="178" y="-19" font-family="Helvetica,sans-Serif" font-size="10.00">/toolbox/library/src/Inverse</text>
<text text-anchor="middle" x="236" y="-8" font-family="Helvetica,sans-Serif" font-size="10.00">Dynamics.cpp</text>
</a>
</g>
</g>
<!-- Node1&#45;&gt;Node3 -->
<g id="edge2" class="edge"><title>Node1&#45;&gt;Node3</title>
<path fill="none" stroke="midnightblue" d="M185.874,-83.1386C194.913,-73.1958 204.69,-62.4408 213.189,-53.0921"/>
<polygon fill="midnightblue" stroke="midnightblue" points="183.276,-80.793 179.139,-90.5468 188.456,-85.5017 183.276,-80.793"/>
</g>
</g>
</svg>
