<?xml version="1.0" encoding="UTF-8" standalone="no"?>
<!DOCTYPE svg PUBLIC "-//W3C//DTD SVG 1.1//EN"
 "http://www.w3.org/Graphics/SVG/1.1/DTD/svg11.dtd">
<!-- Generated by graphviz version 2.43.0 (0)
 -->
<!-- Title: /home/runner/work/wb&#45;toolbox/wb&#45;toolbox/toolbox/library/src/InverseKinematics.cpp Pages: 1 -->
<svg width="2287pt" height="173pt"
 viewBox="0.00 0.00 2286.50 173.00" xmlns="http://www.w3.org/2000/svg" xmlns:xlink="http://www.w3.org/1999/xlink">
<g id="graph0" class="graph" transform="scale(1 1) rotate(0) translate(4 169)">
<title>/home/runner/work/wb&#45;toolbox/wb&#45;toolbox/toolbox/library/src/InverseKinematics.cpp</title>
<!-- Node1 -->
<g id="node1" class="node">
<title>Node1</title>
<g id="a_node1"><a xlink:title=" ">
<polygon fill="#bfbfbf" stroke="black" points="967,-123.5 967,-164.5 1149,-164.5 1149,-123.5 967,-123.5"/>
<text text-anchor="start" x="975" y="-152.5" font-family="Helvetica,sans-Serif" font-size="10.00">/home/runner/work/wb</text>
<text text-anchor="start" x="975" y="-141.5" font-family="Helvetica,sans-Serif" font-size="10.00">&#45;toolbox/wb&#45;toolbox/toolbox</text>
<text text-anchor="middle" x="1058" y="-130.5" font-family="Helvetica,sans-Serif" font-size="10.00">/library/src/InverseKinematics.cpp</text>
</a>
</g>
</g>
<!-- Node2 -->
<g id="node2" class="node">
<title>Node2</title>
<g id="a_node2"><a xlink:href="_inverse_kinematics_8h.html" target="_top" xlink:title=" ">
<polygon fill="none" stroke="black" points="0,-62 0,-81 116,-81 116,-62 0,-62"/>
<text text-anchor="middle" x="58" y="-69" font-family="Helvetica,sans-Serif" font-size="10.00">InverseKinematics.h</text>
</a>
</g>
</g>
<!-- Node1&#45;&gt;Node2 -->
<g id="edge1" class="edge">
<title>Node1&#45;&gt;Node2</title>
<path fill="none" stroke="midnightblue" d="M966.83,-142.15C799.32,-139.57 431.65,-129.13 125,-87 117.7,-86 110.02,-84.63 102.57,-83.14"/>
<polygon fill="midnightblue" stroke="midnightblue" points="103.1,-79.68 92.59,-81.04 101.66,-86.53 103.1,-79.68"/>
</g>
<!-- Node4 -->
<g id="node4" class="node">
<title>Node4</title>
<g id="a_node4"><a xlink:title=" ">
<polygon fill="none" stroke="#bfbfbf" points="134,-62 134,-81 244,-81 244,-62 134,-62"/>
<text text-anchor="middle" x="189" y="-69" font-family="Helvetica,sans-Serif" font-size="10.00">BlockInformation.h</text>
</a>
</g>
</g>
<!-- Node1&#45;&gt;Node4 -->
<g id="edge3" class="edge">
<title>Node1&#45;&gt;Node4</title>
<path fill="none" stroke="midnightblue" d="M966.97,-141.21C817.28,-137.24 510.11,-124.84 253,-87 246.18,-86 239.02,-84.66 232.05,-83.2"/>
<polygon fill="midnightblue" stroke="midnightblue" points="232.55,-79.73 222.04,-81 231.05,-86.56 232.55,-79.73"/>
</g>
<!-- Node5 -->
<g id="node5" class="node">
<title>Node5</title>
<g id="a_node5"><a xlink:title=" ">
<polygon fill="none" stroke="#bfbfbf" points="262,-62 262,-81 310,-81 310,-62 262,-62"/>
<text text-anchor="middle" x="286" y="-69" font-family="Helvetica,sans-Serif" font-size="10.00">Error.h</text>
</a>
</g>
</g>
<!-- Node1&#45;&gt;Node5 -->
<g id="edge4" class="edge">
<title>Node1&#45;&gt;Node5</title>
<path fill="none" stroke="midnightblue" d="M966.99,-139.94C797.39,-133.6 439.3,-117.06 319,-87 316.64,-86.41 314.24,-85.67 311.87,-84.83"/>
<polygon fill="midnightblue" stroke="midnightblue" points="312.98,-81.51 302.4,-81.01 310.36,-88 312.98,-81.51"/>
</g>
<!-- Node6 -->
<g id="node6" class="node">
<title>Node6</title>
<g id="a_node6"><a xlink:title=" ">
<polygon fill="none" stroke="#bfbfbf" points="328,-62 328,-81 384,-81 384,-62 328,-62"/>
<text text-anchor="middle" x="356" y="-69" font-family="Helvetica,sans-Serif" font-size="10.00">Signal.h</text>
</a>
</g>
</g>
<!-- Node1&#45;&gt;Node6 -->
<g id="edge5" class="edge">
<title>Node1&#45;&gt;Node6</title>
<path fill="none" stroke="midnightblue" d="M966.9,-143.6C837.58,-142.6 594.14,-133.83 393,-87 390.17,-86.34 387.26,-85.5 384.38,-84.57"/>
<polygon fill="midnightblue" stroke="midnightblue" points="385.46,-81.23 374.87,-81.11 383.07,-87.81 385.46,-81.23"/>
</g>
<!-- Node7 -->
<g id="node7" class="node">
<title>Node7</title>
<g id="a_node7"><a xlink:title=" ">
<polygon fill="none" stroke="#bfbfbf" points="402,-62 402,-81 488,-81 488,-62 402,-62"/>
<text text-anchor="middle" x="445" y="-69" font-family="Helvetica,sans-Serif" font-size="10.00">WBInterface.h</text>
</a>
</g>
</g>
<!-- Node1&#45;&gt;Node7 -->
<g id="edge6" class="edge">
<title>Node1&#45;&gt;Node7</title>
<path fill="none" stroke="midnightblue" d="M966.65,-138.57C855.25,-132.09 661.56,-117.33 498,-87 492.97,-86.07 487.72,-84.89 482.57,-83.61"/>
<polygon fill="midnightblue" stroke="midnightblue" points="483.41,-80.21 472.85,-81.06 481.64,-86.98 483.41,-80.21"/>
</g>
<!-- Node8 -->
<g id="node8" class="node">
<title>Node8</title>
<g id="a_node8"><a xlink:title=" ">
<polygon fill="none" stroke="#bfbfbf" points="506.5,-62 506.5,-81 575.5,-81 575.5,-62 506.5,-62"/>
<text text-anchor="middle" x="541" y="-69" font-family="Helvetica,sans-Serif" font-size="10.00">Eigen/Core</text>
</a>
</g>
</g>
<!-- Node1&#45;&gt;Node8 -->
<g id="edge7" class="edge">
<title>Node1&#45;&gt;Node8</title>
<path fill="none" stroke="midnightblue" d="M966.86,-137.65C870.94,-130.76 715.99,-116.03 585,-87 581.33,-86.19 577.53,-85.19 573.78,-84.1"/>
<polygon fill="midnightblue" stroke="midnightblue" points="574.64,-80.7 564.05,-81.06 572.55,-87.38 574.64,-80.7"/>
</g>
<!-- Node9 -->
<g id="node9" class="node">
<title>Node9</title>
<g id="a_node9"><a xlink:title=" ">
<polygon fill="none" stroke="#bfbfbf" points="593.5,-62 593.5,-81 704.5,-81 704.5,-62 593.5,-62"/>
<text text-anchor="middle" x="649" y="-69" font-family="Helvetica,sans-Serif" font-size="10.00">iCub/iKin/iKinFwd.h</text>
</a>
</g>
</g>
<!-- Node1&#45;&gt;Node9 -->
<g id="edge8" class="edge">
<title>Node1&#45;&gt;Node9</title>
<path fill="none" stroke="midnightblue" d="M966.85,-129.64C897.37,-119.1 799.41,-103.46 714,-87 707.89,-85.82 701.48,-84.5 695.16,-83.14"/>
<polygon fill="midnightblue" stroke="midnightblue" points="695.88,-79.72 685.36,-81 694.39,-86.56 695.88,-79.72"/>
</g>
<!-- Node10 -->
<g id="node10" class="node">
<title>Node10</title>
<g id="a_node10"><a xlink:title=" ">
<polygon fill="none" stroke="#bfbfbf" points="722.5,-62 722.5,-81 839.5,-81 839.5,-62 722.5,-62"/>
<text text-anchor="middle" x="781" y="-69" font-family="Helvetica,sans-Serif" font-size="10.00">iCub/iKin/iKinIpOpt.h</text>
</a>
</g>
</g>
<!-- Node1&#45;&gt;Node10 -->
<g id="edge9" class="edge">
<title>Node1&#45;&gt;Node10</title>
<path fill="none" stroke="midnightblue" d="M981.21,-123.46C930.62,-110.58 866.23,-94.19 824.33,-83.53"/>
<polygon fill="midnightblue" stroke="midnightblue" points="825,-80.09 814.45,-81.01 823.28,-86.87 825,-80.09"/>
</g>
<!-- Node11 -->
<g id="node11" class="node">
<title>Node11</title>
<g id="a_node11"><a xlink:title=" ">
<polygon fill="none" stroke="#bfbfbf" points="857.5,-62 857.5,-81 1054.5,-81 1054.5,-62 857.5,-62"/>
<text text-anchor="middle" x="956" y="-69" font-family="Helvetica,sans-Serif" font-size="10.00">iDynTree/Model/DenavitHartenberg.h</text>
</a>
</g>
</g>
<!-- Node1&#45;&gt;Node11 -->
<g id="edge10" class="edge">
<title>Node1&#45;&gt;Node11</title>
<path fill="none" stroke="midnightblue" d="M1029.59,-123.36C1012.83,-111.78 992,-97.39 976.79,-86.87"/>
<polygon fill="midnightblue" stroke="midnightblue" points="978.77,-83.98 968.55,-81.17 974.78,-89.74 978.77,-83.98"/>
</g>
<!-- Node12 -->
<g id="node12" class="node">
<title>Node12</title>
<g id="a_node12"><a xlink:title=" ">
<polygon fill="none" stroke="#bfbfbf" points="1072.5,-62 1072.5,-81 1249.5,-81 1249.5,-62 1072.5,-62"/>
<text text-anchor="middle" x="1161" y="-69" font-family="Helvetica,sans-Serif" font-size="10.00">iDynTree/ModelIO/ModelLoader.h</text>
</a>
</g>
</g>
<!-- Node1&#45;&gt;Node12 -->
<g id="edge11" class="edge">
<title>Node1&#45;&gt;Node12</title>
<path fill="none" stroke="midnightblue" d="M1086.69,-123.36C1103.61,-111.78 1124.64,-97.39 1140.01,-86.87"/>
<polygon fill="midnightblue" stroke="midnightblue" points="1142.05,-89.71 1148.33,-81.17 1138.1,-83.93 1142.05,-89.71"/>
</g>
<!-- Node13 -->
<g id="node13" class="node">
<title>Node13</title>
<g id="a_node13"><a xlink:title=" ">
<polygon fill="none" stroke="#bfbfbf" points="1267,-62 1267,-81 1417,-81 1417,-62 1267,-62"/>
<text text-anchor="middle" x="1342" y="-69" font-family="Helvetica,sans-Serif" font-size="10.00">iDynTree/iKinConversions.h</text>
</a>
</g>
</g>
<!-- Node1&#45;&gt;Node13 -->
<g id="edge12" class="edge">
<title>Node1&#45;&gt;Node13</title>
<path fill="none" stroke="midnightblue" d="M1136.73,-123.46C1188.71,-110.55 1254.9,-94.12 1297.84,-83.46"/>
<polygon fill="midnightblue" stroke="midnightblue" points="1298.84,-86.82 1307.71,-81.01 1297.16,-80.03 1298.84,-86.82"/>
</g>
<!-- Node14 -->
<g id="node14" class="node">
<title>Node14</title>
<g id="a_node14"><a xlink:title=" ">
<polygon fill="none" stroke="#bfbfbf" points="1435.5,-62 1435.5,-81 1578.5,-81 1578.5,-62 1435.5,-62"/>
<text text-anchor="middle" x="1507" y="-69" font-family="Helvetica,sans-Serif" font-size="10.00">wbi/wholeBodyInterface.h</text>
</a>
</g>
</g>
<!-- Node1&#45;&gt;Node14 -->
<g id="edge13" class="edge">
<title>Node1&#45;&gt;Node14</title>
<path fill="none" stroke="midnightblue" d="M1149.22,-129.79C1223.75,-118.84 1331.8,-102.6 1426,-87 1433.92,-85.69 1442.26,-84.26 1450.46,-82.82"/>
<polygon fill="midnightblue" stroke="midnightblue" points="1451.11,-86.26 1460.35,-81.07 1449.89,-79.36 1451.11,-86.26"/>
</g>
<!-- Node15 -->
<g id="node15" class="node">
<title>Node15</title>
<g id="a_node15"><a xlink:title=" ">
<polygon fill="none" stroke="#bfbfbf" points="1596.5,-62 1596.5,-81 1735.5,-81 1735.5,-62 1596.5,-62"/>
<text text-anchor="middle" x="1666" y="-69" font-family="Helvetica,sans-Serif" font-size="10.00">yarp/os/ResourceFinder.h</text>
</a>
</g>
</g>
<!-- Node1&#45;&gt;Node15 -->
<g id="edge14" class="edge">
<title>Node1&#45;&gt;Node15</title>
<path fill="none" stroke="midnightblue" d="M1149.24,-135.55C1255.07,-126.41 1434.63,-109.32 1588,-87 1596.33,-85.79 1605.12,-84.33 1613.69,-82.81"/>
<polygon fill="midnightblue" stroke="midnightblue" points="1614.38,-86.24 1623.59,-81.01 1613.13,-79.35 1614.38,-86.24"/>
</g>
<!-- Node16 -->
<g id="node16" class="node">
<title>Node16</title>
<g id="a_node16"><a xlink:title=" ">
<polygon fill="none" stroke="#bfbfbf" points="1753.5,-62 1753.5,-81 1852.5,-81 1852.5,-62 1753.5,-62"/>
<text text-anchor="middle" x="1803" y="-69" font-family="Helvetica,sans-Serif" font-size="10.00">yarp/sig/Matrix.h</text>
</a>
</g>
</g>
<!-- Node1&#45;&gt;Node16 -->
<g id="edge15" class="edge">
<title>Node1&#45;&gt;Node16</title>
<path fill="none" stroke="midnightblue" d="M1149.15,-140.31C1281.27,-135.35 1533.35,-121.84 1745,-87 1750.84,-86.04 1756.95,-84.79 1762.93,-83.42"/>
<polygon fill="midnightblue" stroke="midnightblue" points="1763.89,-86.79 1772.79,-81.05 1762.25,-79.98 1763.89,-86.79"/>
</g>
<!-- Node17 -->
<g id="node17" class="node">
<title>Node17</title>
<g id="a_node17"><a xlink:title=" ">
<polygon fill="none" stroke="#bfbfbf" points="1871,-62 1871,-81 1969,-81 1969,-62 1871,-62"/>
<text text-anchor="middle" x="1920" y="-69" font-family="Helvetica,sans-Serif" font-size="10.00">yarp/sig/Vector.h</text>
</a>
</g>
</g>
<!-- Node1&#45;&gt;Node17 -->
<g id="edge16" class="edge">
<title>Node1&#45;&gt;Node17</title>
<path fill="none" stroke="midnightblue" d="M1149.02,-141.85C1298.66,-138.79 1605.65,-127.65 1862,-87 1867.91,-86.06 1874.1,-84.81 1880.14,-83.44"/>
<polygon fill="midnightblue" stroke="midnightblue" points="1881.2,-86.78 1890.1,-81.04 1879.56,-79.98 1881.2,-86.78"/>
</g>
<!-- Node18 -->
<g id="node18" class="node">
<title>Node18</title>
<g id="a_node18"><a xlink:title=" ">
<polygon fill="none" stroke="#bfbfbf" points="1987.5,-56.5 1987.5,-86.5 2124.5,-86.5 2124.5,-56.5 1987.5,-56.5"/>
<text text-anchor="start" x="1995.5" y="-74.5" font-family="Helvetica,sans-Serif" font-size="10.00">yarpWholeBodyInterface</text>
<text text-anchor="middle" x="2056" y="-63.5" font-family="Helvetica,sans-Serif" font-size="10.00">/yarpWbiUtil.h</text>
</a>
</g>
</g>
<!-- Node1&#45;&gt;Node18 -->
<g id="edge17" class="edge">
<title>Node1&#45;&gt;Node18</title>
<path fill="none" stroke="midnightblue" d="M1149.09,-141.16C1312.9,-137.05 1668.1,-124.41 1977.12,-87"/>
<polygon fill="midnightblue" stroke="midnightblue" points="1977.67,-90.46 1987.17,-85.77 1976.82,-83.51 1977.67,-90.46"/>
</g>
<!-- Node19 -->
<g id="node19" class="node">
<title>Node19</title>
<g id="a_node19"><a xlink:title=" ">
<polygon fill="none" stroke="#bfbfbf" points="2143,-62 2143,-81 2203,-81 2203,-62 2143,-62"/>
<text text-anchor="middle" x="2173" y="-69" font-family="Helvetica,sans-Serif" font-size="10.00">iostream</text>
</a>
</g>
</g>
<!-- Node1&#45;&gt;Node19 -->
<g id="edge18" class="edge">
<title>Node1&#45;&gt;Node19</title>
<path fill="none" stroke="midnightblue" d="M1149.2,-141.8C1373.42,-138.29 1946.93,-125.7 2134,-87 2137.25,-86.33 2140.6,-85.43 2143.89,-84.4"/>
<polygon fill="midnightblue" stroke="midnightblue" points="2145.2,-87.66 2153.5,-81.07 2142.91,-81.04 2145.2,-87.66"/>
</g>
<!-- Node20 -->
<g id="node20" class="node">
<title>Node20</title>
<g id="a_node20"><a xlink:title=" ">
<polygon fill="none" stroke="#bfbfbf" points="2221.5,-62 2221.5,-81 2278.5,-81 2278.5,-62 2221.5,-62"/>
<text text-anchor="middle" x="2250" y="-69" font-family="Helvetica,sans-Serif" font-size="10.00">typeinfo</text>
</a>
</g>
</g>
<!-- Node1&#45;&gt;Node20 -->
<g id="edge19" class="edge">
<title>Node1&#45;&gt;Node20</title>
<path fill="none" stroke="midnightblue" d="M1149.3,-142.28C1385.01,-139.82 2009.67,-129.39 2212,-87 2215.08,-86.35 2218.24,-85.49 2221.36,-84.51"/>
<polygon fill="midnightblue" stroke="midnightblue" points="2222.77,-87.73 2231.02,-81.09 2220.43,-81.13 2222.77,-87.73"/>
</g>
<!-- Node3 -->
<g id="node3" class="node">
<title>Node3</title>
<g id="a_node3"><a xlink:title=" ">
<polygon fill="none" stroke="#bfbfbf" points="7,-0.5 7,-19.5 109,-19.5 109,-0.5 7,-0.5"/>
<text text-anchor="middle" x="58" y="-7.5" font-family="Helvetica,sans-Serif" font-size="10.00">WBIModelBlock.h</text>
</a>
</g>
</g>
<!-- Node2&#45;&gt;Node3 -->
<g id="edge2" class="edge">
<title>Node2&#45;&gt;Node3</title>
<path fill="none" stroke="midnightblue" d="M58,-61.98C58,-53.58 58,-40.48 58,-29.66"/>
<polygon fill="midnightblue" stroke="midnightblue" points="61.5,-29.51 58,-19.51 54.5,-29.51 61.5,-29.51"/>
</g>
</g>
</svg>
