<?xml version="1.0" encoding="UTF-8" standalone="no"?>
<!DOCTYPE svg PUBLIC "-//W3C//DTD SVG 1.1//EN"
 "http://www.w3.org/Graphics/SVG/1.1/DTD/svg11.dtd">
<!-- Generated by graphviz version 2.43.0 (0)
 -->
<!-- Title: /home/runner/work/wb&#45;toolbox/wb&#45;toolbox/toolbox/library/src/Jacobian.cpp Pages: 1 -->
<svg width="2327pt" height="218pt"
 viewBox="0.00 0.00 2327.02 218.00" xmlns="http://www.w3.org/2000/svg" xmlns:xlink="http://www.w3.org/1999/xlink">
<g id="graph0" class="graph" transform="scale(1 1) rotate(0) translate(4 214)">
<title>/home/runner/work/wb&#45;toolbox/wb&#45;toolbox/toolbox/library/src/Jacobian.cpp</title>
<!-- Node1 -->
<g id="node1" class="node">
<title>Node1</title>
<g id="a_node1"><a xlink:title=" ">
<polygon fill="#bfbfbf" stroke="black" points="1174.02,-168.5 1174.02,-209.5 1329.02,-209.5 1329.02,-168.5 1174.02,-168.5"/>
<text text-anchor="start" x="1182.02" y="-197.5" font-family="Helvetica,sans-Serif" font-size="10.00">/home/runner/work/wb</text>
<text text-anchor="start" x="1182.02" y="-186.5" font-family="Helvetica,sans-Serif" font-size="10.00">&#45;toolbox/wb&#45;toolbox/toolbox</text>
<text text-anchor="middle" x="1251.52" y="-175.5" font-family="Helvetica,sans-Serif" font-size="10.00">/library/src/Jacobian.cpp</text>
</a>
</g>
</g>
<!-- Node2 -->
<g id="node2" class="node">
<title>Node2</title>
<g id="a_node2"><a xlink:href="_jacobian_8h.html" target="_top" xlink:title=" ">
<polygon fill="none" stroke="black" points="160.52,-112.5 160.52,-131.5 314.52,-131.5 314.52,-112.5 160.52,-112.5"/>
<text text-anchor="middle" x="237.52" y="-119.5" font-family="Helvetica,sans-Serif" font-size="10.00">WBToolbox/Block/Jacobian.h</text>
</a>
</g>
</g>
<!-- Node1&#45;&gt;Node2 -->
<g id="edge1" class="edge">
<title>Node1&#45;&gt;Node2</title>
<path fill="none" stroke="midnightblue" d="M1173.8,-183.53C1018.23,-174.49 657.46,-153.11 354.52,-132 344.84,-131.33 334.71,-130.59 324.64,-129.84"/>
<polygon fill="midnightblue" stroke="midnightblue" points="324.84,-126.35 314.6,-129.09 324.31,-133.33 324.84,-126.35"/>
</g>
<!-- Node5 -->
<g id="node5" class="node">
<title>Node5</title>
<g id="a_node5"><a xlink:title=" ">
<polygon fill="none" stroke="#bfbfbf" points="202.52,-0.5 202.52,-19.5 260.52,-19.5 260.52,-0.5 202.52,-0.5"/>
<text text-anchor="middle" x="231.52" y="-7.5" font-family="Helvetica,sans-Serif" font-size="10.00">memory</text>
</a>
</g>
</g>
<!-- Node1&#45;&gt;Node5 -->
<g id="edge29" class="edge">
<title>Node1&#45;&gt;Node5</title>
<path fill="none" stroke="midnightblue" d="M1173.88,-187.97C956.57,-187.27 345.39,-180.88 151.52,-132 95.23,-117.81 64.54,-125.06 33.52,-76 -20.5,9.43 -33.1,-69.36 192.27,-20"/>
<polygon fill="midnightblue" stroke="midnightblue" points="193.14,-23.39 202.13,-17.79 191.61,-16.56 193.14,-23.39"/>
</g>
<!-- Node7 -->
<g id="node7" class="node">
<title>Node7</title>
<g id="a_node7"><a xlink:href="_configuration_8h.html" target="_top" xlink:title=" ">
<polygon fill="none" stroke="black" points="491.02,-56.5 491.02,-75.5 666.02,-75.5 666.02,-56.5 491.02,-56.5"/>
<text text-anchor="middle" x="578.52" y="-63.5" font-family="Helvetica,sans-Serif" font-size="10.00">WBToolbox/Base/Configuration.h</text>
</a>
</g>
</g>
<!-- Node1&#45;&gt;Node7 -->
<g id="edge8" class="edge">
<title>Node1&#45;&gt;Node7</title>
<path fill="none" stroke="midnightblue" d="M1174.01,-188.62C978.28,-189.38 475.97,-185.98 425.52,-132 398.46,-103.05 444.43,-86.46 492.88,-77.29"/>
<polygon fill="midnightblue" stroke="midnightblue" points="493.68,-80.71 502.91,-75.5 492.45,-73.82 493.68,-80.71"/>
</g>
<!-- Node10 -->
<g id="node10" class="node">
<title>Node10</title>
<g id="a_node10"><a xlink:href="_robot_interface_8h.html" target="_top" xlink:title=" ">
<polygon fill="none" stroke="black" points="290.52,-56.5 290.52,-75.5 472.52,-75.5 472.52,-56.5 290.52,-56.5"/>
<text text-anchor="middle" x="381.52" y="-63.5" font-family="Helvetica,sans-Serif" font-size="10.00">WBToolbox/Base/RobotInterface.h</text>
</a>
</g>
</g>
<!-- Node1&#45;&gt;Node10 -->
<g id="edge13" class="edge">
<title>Node1&#45;&gt;Node10</title>
<path fill="none" stroke="midnightblue" d="M1173.82,-187.19C978.07,-184.53 475.76,-173.68 413.52,-132 397.71,-121.41 389.41,-100.64 385.26,-85.42"/>
<polygon fill="midnightblue" stroke="midnightblue" points="388.64,-84.47 382.93,-75.54 381.82,-86.07 388.64,-84.47"/>
</g>
<!-- Node13 -->
<g id="node13" class="node">
<title>Node13</title>
<g id="a_node13"><a xlink:title=" ">
<polygon fill="none" stroke="#bfbfbf" points="434.52,-112.5 434.52,-131.5 634.52,-131.5 634.52,-112.5 434.52,-112.5"/>
<text text-anchor="middle" x="534.52" y="-119.5" font-family="Helvetica,sans-Serif" font-size="10.00">BlockFactory/Core/BlockInformation.h</text>
</a>
</g>
</g>
<!-- Node1&#45;&gt;Node13 -->
<g id="edge18" class="edge">
<title>Node1&#45;&gt;Node13</title>
<path fill="none" stroke="midnightblue" d="M1173.76,-180.95C1044.19,-169.2 784,-145.62 638.7,-132.45"/>
<polygon fill="midnightblue" stroke="midnightblue" points="638.72,-128.93 628.44,-131.51 638.09,-135.9 638.72,-128.93"/>
</g>
<!-- Node14 -->
<g id="node14" class="node">
<title>Node14</title>
<g id="a_node14"><a xlink:title=" ">
<polygon fill="none" stroke="#bfbfbf" points="652.52,-112.5 652.52,-131.5 786.52,-131.5 786.52,-112.5 652.52,-112.5"/>
<text text-anchor="middle" x="719.52" y="-119.5" font-family="Helvetica,sans-Serif" font-size="10.00">BlockFactory/Core/Log.h</text>
</a>
</g>
</g>
<!-- Node1&#45;&gt;Node14 -->
<g id="edge19" class="edge">
<title>Node1&#45;&gt;Node14</title>
<path fill="none" stroke="midnightblue" d="M1173.88,-178.51C1072.94,-166.18 897.7,-144.77 796.89,-132.45"/>
<polygon fill="midnightblue" stroke="midnightblue" points="797.13,-128.96 786.78,-131.22 796.28,-135.91 797.13,-128.96"/>
</g>
<!-- Node15 -->
<g id="node15" class="node">
<title>Node15</title>
<g id="a_node15"><a xlink:title=" ">
<polygon fill="none" stroke="#bfbfbf" points="804.52,-112.5 804.52,-131.5 970.52,-131.5 970.52,-112.5 804.52,-112.5"/>
<text text-anchor="middle" x="887.52" y="-119.5" font-family="Helvetica,sans-Serif" font-size="10.00">BlockFactory/Core/Parameter.h</text>
</a>
</g>
</g>
<!-- Node1&#45;&gt;Node15 -->
<g id="edge20" class="edge">
<title>Node1&#45;&gt;Node15</title>
<path fill="none" stroke="midnightblue" d="M1173.88,-174.14C1105.34,-161.9 1006.99,-144.34 945.22,-133.3"/>
<polygon fill="midnightblue" stroke="midnightblue" points="945.72,-129.84 935.26,-131.53 944.49,-136.73 945.72,-129.84"/>
</g>
<!-- Node16 -->
<g id="node16" class="node">
<title>Node16</title>
<g id="a_node16"><a xlink:title=" ">
<polygon fill="none" stroke="#bfbfbf" points="988.52,-112.5 988.52,-131.5 1160.52,-131.5 1160.52,-112.5 988.52,-112.5"/>
<text text-anchor="middle" x="1074.52" y="-119.5" font-family="Helvetica,sans-Serif" font-size="10.00">BlockFactory/Core/Parameters.h</text>
</a>
</g>
</g>
<!-- Node1&#45;&gt;Node16 -->
<g id="edge21" class="edge">
<title>Node1&#45;&gt;Node16</title>
<path fill="none" stroke="midnightblue" d="M1198.41,-168.5C1168.93,-157.67 1133.16,-144.54 1107.66,-135.17"/>
<polygon fill="midnightblue" stroke="midnightblue" points="1108.67,-131.81 1098.08,-131.65 1106.26,-138.39 1108.67,-131.81"/>
</g>
<!-- Node17 -->
<g id="node17" class="node">
<title>Node17</title>
<g id="a_node17"><a xlink:title=" ">
<polygon fill="none" stroke="#bfbfbf" points="1178.52,-112.5 1178.52,-131.5 1324.52,-131.5 1324.52,-112.5 1178.52,-112.5"/>
<text text-anchor="middle" x="1251.52" y="-119.5" font-family="Helvetica,sans-Serif" font-size="10.00">BlockFactory/Core/Signal.h</text>
</a>
</g>
</g>
<!-- Node1&#45;&gt;Node17 -->
<g id="edge22" class="edge">
<title>Node1&#45;&gt;Node17</title>
<path fill="none" stroke="midnightblue" d="M1251.52,-168.5C1251.52,-160.07 1251.52,-150.24 1251.52,-141.87"/>
<polygon fill="midnightblue" stroke="midnightblue" points="1255.02,-141.65 1251.52,-131.65 1248.02,-141.65 1255.02,-141.65"/>
</g>
<!-- Node18 -->
<g id="node18" class="node">
<title>Node18</title>
<g id="a_node18"><a xlink:title=" ">
<polygon fill="none" stroke="#bfbfbf" points="1343.02,-112.5 1343.02,-131.5 1412.02,-131.5 1412.02,-112.5 1343.02,-112.5"/>
<text text-anchor="middle" x="1377.52" y="-119.5" font-family="Helvetica,sans-Serif" font-size="10.00">Eigen/Core</text>
</a>
</g>
</g>
<!-- Node1&#45;&gt;Node18 -->
<g id="edge23" class="edge">
<title>Node1&#45;&gt;Node18</title>
<path fill="none" stroke="midnightblue" d="M1289.32,-168.5C1309.38,-158.15 1333.52,-145.69 1351.47,-136.43"/>
<polygon fill="midnightblue" stroke="midnightblue" points="1353.46,-139.35 1360.74,-131.65 1350.25,-133.13 1353.46,-139.35"/>
</g>
<!-- Node19 -->
<g id="node19" class="node">
<title>Node19</title>
<g id="a_node19"><a xlink:title=" ">
<polygon fill="none" stroke="#bfbfbf" points="1430.52,-112.5 1430.52,-131.5 1566.52,-131.5 1566.52,-112.5 1430.52,-112.5"/>
<text text-anchor="middle" x="1498.52" y="-119.5" font-family="Helvetica,sans-Serif" font-size="10.00">iDynTree/EigenHelpers.h</text>
</a>
</g>
</g>
<!-- Node1&#45;&gt;Node19 -->
<g id="edge24" class="edge">
<title>Node1&#45;&gt;Node19</title>
<path fill="none" stroke="midnightblue" d="M1325.63,-168.5C1368.18,-157.3 1420.09,-143.64 1455.87,-134.22"/>
<polygon fill="midnightblue" stroke="midnightblue" points="1457.18,-137.5 1465.96,-131.57 1455.4,-130.73 1457.18,-137.5"/>
</g>
<!-- Node20 -->
<g id="node20" class="node">
<title>Node20</title>
<g id="a_node20"><a xlink:title=" ">
<polygon fill="none" stroke="#bfbfbf" points="1585.02,-112.5 1585.02,-131.5 1728.02,-131.5 1728.02,-112.5 1585.02,-112.5"/>
<text text-anchor="middle" x="1656.52" y="-119.5" font-family="Helvetica,sans-Serif" font-size="10.00">iDynTree/MatrixDynSize.h</text>
</a>
</g>
</g>
<!-- Node1&#45;&gt;Node20 -->
<g id="edge25" class="edge">
<title>Node1&#45;&gt;Node20</title>
<path fill="none" stroke="midnightblue" d="M1329.13,-175.54C1405.86,-163.23 1521.84,-144.62 1593.18,-133.16"/>
<polygon fill="midnightblue" stroke="midnightblue" points="1594.06,-136.57 1603.37,-131.53 1592.95,-129.66 1594.06,-136.57"/>
</g>
<!-- Node21 -->
<g id="node21" class="node">
<title>Node21</title>
<g id="a_node21"><a xlink:title=" ">
<polygon fill="none" stroke="#bfbfbf" points="1746.52,-112.5 1746.52,-131.5 1866.52,-131.5 1866.52,-112.5 1746.52,-112.5"/>
<text text-anchor="middle" x="1806.52" y="-119.5" font-family="Helvetica,sans-Serif" font-size="10.00">iDynTree/Transform.h</text>
</a>
</g>
</g>
<!-- Node1&#45;&gt;Node21 -->
<g id="edge26" class="edge">
<title>Node1&#45;&gt;Node21</title>
<path fill="none" stroke="midnightblue" d="M1329.42,-179.39C1423.28,-168.93 1586.06,-150.53 1736,-132.17"/>
<polygon fill="midnightblue" stroke="midnightblue" points="1736.81,-135.6 1746.31,-130.91 1735.96,-128.65 1736.81,-135.6"/>
</g>
<!-- Node22 -->
<g id="node22" class="node">
<title>Node22</title>
<g id="a_node22"><a xlink:title=" ">
<polygon fill="none" stroke="#bfbfbf" points="1885.02,-112.5 1885.02,-131.5 2060.02,-131.5 2060.02,-112.5 1885.02,-112.5"/>
<text text-anchor="middle" x="1972.52" y="-119.5" font-family="Helvetica,sans-Serif" font-size="10.00">iDynTree/KinDynComputations.h</text>
</a>
</g>
</g>
<!-- Node1&#45;&gt;Node22 -->
<g id="edge27" class="edge">
<title>Node1&#45;&gt;Node22</title>
<path fill="none" stroke="midnightblue" d="M1329.35,-181.09C1445.53,-170.76 1671.49,-150.61 1875.03,-132.04"/>
<polygon fill="midnightblue" stroke="midnightblue" points="1875.37,-135.53 1885.01,-131.13 1874.73,-128.55 1875.37,-135.53"/>
</g>
<!-- Node23 -->
<g id="node23" class="node">
<title>Node23</title>
<g id="a_node23"><a xlink:title=" ">
<polygon fill="none" stroke="#bfbfbf" points="2078.52,-112.5 2078.52,-131.5 2184.52,-131.5 2184.52,-112.5 2078.52,-112.5"/>
<text text-anchor="middle" x="2131.52" y="-119.5" font-family="Helvetica,sans-Serif" font-size="10.00">iDynTree/Indices.h</text>
</a>
</g>
</g>
<!-- Node1&#45;&gt;Node23 -->
<g id="edge28" class="edge">
<title>Node1&#45;&gt;Node23</title>
<path fill="none" stroke="midnightblue" d="M1329.23,-184.65C1473,-178.01 1790.41,-161.34 2068.17,-132.06"/>
<polygon fill="midnightblue" stroke="midnightblue" points="2068.88,-135.51 2078.45,-130.97 2068.14,-128.55 2068.88,-135.51"/>
</g>
<!-- Node24 -->
<g id="node24" class="node">
<title>Node24</title>
<g id="a_node24"><a xlink:title=" ">
<polygon fill="none" stroke="#bfbfbf" points="2203.02,-112.5 2203.02,-131.5 2260.02,-131.5 2260.02,-112.5 2203.02,-112.5"/>
<text text-anchor="middle" x="2231.52" y="-119.5" font-family="Helvetica,sans-Serif" font-size="10.00">ostream</text>
</a>
</g>
</g>
<!-- Node1&#45;&gt;Node24 -->
<g id="edge30" class="edge">
<title>Node1&#45;&gt;Node24</title>
<path fill="none" stroke="midnightblue" d="M1329.22,-187.92C1489.29,-186.76 1867.36,-178.96 2192.89,-131.8"/>
<polygon fill="midnightblue" stroke="midnightblue" points="2193.6,-135.23 2202.99,-130.32 2192.58,-128.3 2193.6,-135.23"/>
</g>
<!-- Node25 -->
<g id="node25" class="node">
<title>Node25</title>
<g id="a_node25"><a xlink:title=" ">
<polygon fill="none" stroke="#bfbfbf" points="2278.02,-112.5 2278.02,-131.5 2319.02,-131.5 2319.02,-112.5 2278.02,-112.5"/>
<text text-anchor="middle" x="2298.52" y="-119.5" font-family="Helvetica,sans-Serif" font-size="10.00">tuple</text>
</a>
</g>
</g>
<!-- Node1&#45;&gt;Node25 -->
<g id="edge31" class="edge">
<title>Node1&#45;&gt;Node25</title>
<path fill="none" stroke="midnightblue" d="M1329.31,-186.19C1531.39,-181.12 2070.37,-164.99 2267.78,-131.86"/>
<polygon fill="midnightblue" stroke="midnightblue" points="2268.51,-135.28 2277.76,-130.11 2267.31,-128.39 2268.51,-135.28"/>
</g>
<!-- Node3 -->
<g id="node3" class="node">
<title>Node3</title>
<g id="a_node3"><a xlink:href="_w_b_block_8h.html" target="_top" xlink:title=" ">
<polygon fill="none" stroke="black" points="43.02,-56.5 43.02,-75.5 196.02,-75.5 196.02,-56.5 43.02,-56.5"/>
<text text-anchor="middle" x="119.52" y="-63.5" font-family="Helvetica,sans-Serif" font-size="10.00">WBToolbox/Base/WBBlock.h</text>
</a>
</g>
</g>
<!-- Node2&#45;&gt;Node3 -->
<g id="edge2" class="edge">
<title>Node2&#45;&gt;Node3</title>
<path fill="none" stroke="midnightblue" d="M218.82,-112.44C199.57,-103.64 169.36,-89.81 147.32,-79.72"/>
<polygon fill="midnightblue" stroke="midnightblue" points="148.68,-76.5 138.13,-75.52 145.76,-82.86 148.68,-76.5"/>
</g>
<!-- Node2&#45;&gt;Node5 -->
<g id="edge6" class="edge">
<title>Node2&#45;&gt;Node5</title>
<path fill="none" stroke="midnightblue" d="M237.05,-112.37C236.08,-94.62 233.84,-53.67 232.53,-29.6"/>
<polygon fill="midnightblue" stroke="midnightblue" points="236.03,-29.39 231.99,-19.59 229.04,-29.77 236.03,-29.39"/>
</g>
<!-- Node6 -->
<g id="node6" class="node">
<title>Node6</title>
<g id="a_node6"><a xlink:title=" ">
<polygon fill="none" stroke="#bfbfbf" points="283.52,-0.5 283.52,-19.5 327.52,-19.5 327.52,-0.5 283.52,-0.5"/>
<text text-anchor="middle" x="305.52" y="-7.5" font-family="Helvetica,sans-Serif" font-size="10.00">string</text>
</a>
</g>
</g>
<!-- Node2&#45;&gt;Node6 -->
<g id="edge7" class="edge">
<title>Node2&#45;&gt;Node6</title>
<path fill="none" stroke="midnightblue" d="M242.85,-112.37C254.03,-94.3 280.06,-52.18 294.82,-28.31"/>
<polygon fill="midnightblue" stroke="midnightblue" points="297.93,-29.94 300.21,-19.59 291.97,-26.26 297.93,-29.94"/>
</g>
<!-- Node4 -->
<g id="node4" class="node">
<title>Node4</title>
<g id="a_node4"><a xlink:title=" ">
<polygon fill="none" stroke="#bfbfbf" points="41.02,-0.5 41.02,-19.5 184.02,-19.5 184.02,-0.5 41.02,-0.5"/>
<text text-anchor="middle" x="112.52" y="-7.5" font-family="Helvetica,sans-Serif" font-size="10.00">BlockFactory/Core/Block.h</text>
</a>
</g>
</g>
<!-- Node3&#45;&gt;Node4 -->
<g id="edge3" class="edge">
<title>Node3&#45;&gt;Node4</title>
<path fill="none" stroke="midnightblue" d="M118.36,-56.08C117.43,-48.93 116.1,-38.64 114.94,-29.69"/>
<polygon fill="midnightblue" stroke="midnightblue" points="118.41,-29.22 113.65,-19.75 111.47,-30.12 118.41,-29.22"/>
</g>
<!-- Node3&#45;&gt;Node5 -->
<g id="edge4" class="edge">
<title>Node3&#45;&gt;Node5</title>
<path fill="none" stroke="midnightblue" d="M137.51,-56.32C155.55,-47.62 183.56,-34.12 204.32,-24.11"/>
<polygon fill="midnightblue" stroke="midnightblue" points="206.08,-27.15 213.57,-19.65 203.04,-20.84 206.08,-27.15"/>
</g>
<!-- Node3&#45;&gt;Node6 -->
<g id="edge5" class="edge">
<title>Node3&#45;&gt;Node6</title>
<path fill="none" stroke="midnightblue" d="M148.99,-56.44C183.02,-46.56 238.79,-30.37 273.76,-20.22"/>
<polygon fill="midnightblue" stroke="midnightblue" points="274.84,-23.55 283.46,-17.4 272.88,-16.83 274.84,-23.55"/>
</g>
<!-- Node7&#45;&gt;Node5 -->
<g id="edge10" class="edge">
<title>Node7&#45;&gt;Node5</title>
<path fill="none" stroke="midnightblue" d="M513.1,-56.46C451.42,-48.14 356.45,-34.63 274.52,-20 273.25,-19.77 271.96,-19.54 270.66,-19.3"/>
<polygon fill="midnightblue" stroke="midnightblue" points="271.1,-15.82 260.62,-17.33 269.76,-22.69 271.1,-15.82"/>
</g>
<!-- Node7&#45;&gt;Node6 -->
<g id="edge11" class="edge">
<title>Node7&#45;&gt;Node6</title>
<path fill="none" stroke="midnightblue" d="M527.48,-56.5C478.94,-48.15 403.97,-34.58 339.52,-20 338.92,-19.87 338.32,-19.73 337.72,-19.59"/>
<polygon fill="midnightblue" stroke="midnightblue" points="338.32,-16.13 327.77,-17.14 336.65,-22.93 338.32,-16.13"/>
</g>
<!-- Node8 -->
<g id="node8" class="node">
<title>Node8</title>
<g id="a_node8"><a xlink:title=" ">
<polygon fill="none" stroke="#bfbfbf" points="600.52,-0.5 600.52,-19.5 642.52,-19.5 642.52,-0.5 600.52,-0.5"/>
<text text-anchor="middle" x="621.52" y="-7.5" font-family="Helvetica,sans-Serif" font-size="10.00">array</text>
</a>
</g>
</g>
<!-- Node7&#45;&gt;Node8 -->
<g id="edge9" class="edge">
<title>Node7&#45;&gt;Node8</title>
<path fill="none" stroke="midnightblue" d="M585.62,-56.08C591.75,-48.38 600.79,-37.03 608.26,-27.65"/>
<polygon fill="midnightblue" stroke="midnightblue" points="611.06,-29.75 614.55,-19.75 605.58,-25.39 611.06,-29.75"/>
</g>
<!-- Node9 -->
<g id="node9" class="node">
<title>Node9</title>
<g id="a_node9"><a xlink:title=" ">
<polygon fill="none" stroke="#bfbfbf" points="535.02,-0.5 535.02,-19.5 582.02,-19.5 582.02,-0.5 535.02,-0.5"/>
<text text-anchor="middle" x="558.52" y="-7.5" font-family="Helvetica,sans-Serif" font-size="10.00">vector</text>
</a>
</g>
</g>
<!-- Node7&#45;&gt;Node9 -->
<g id="edge12" class="edge">
<title>Node7&#45;&gt;Node9</title>
<path fill="none" stroke="midnightblue" d="M575.21,-56.08C572.54,-48.85 568.67,-38.41 565.33,-29.4"/>
<polygon fill="midnightblue" stroke="midnightblue" points="568.51,-27.91 561.76,-19.75 561.95,-30.34 568.51,-27.91"/>
</g>
<!-- Node10&#45;&gt;Node5 -->
<g id="edge14" class="edge">
<title>Node10&#45;&gt;Node5</title>
<path fill="none" stroke="midnightblue" d="M357.75,-56.44C332.62,-47.4 292.81,-33.06 264.62,-22.92"/>
<polygon fill="midnightblue" stroke="midnightblue" points="265.77,-19.61 255.17,-19.52 263.4,-26.2 265.77,-19.61"/>
</g>
<!-- Node10&#45;&gt;Node6 -->
<g id="edge15" class="edge">
<title>Node10&#45;&gt;Node6</title>
<path fill="none" stroke="midnightblue" d="M369.31,-56.32C357.74,-48.11 340.14,-35.6 326.36,-25.81"/>
<polygon fill="midnightblue" stroke="midnightblue" points="328.13,-22.77 317.95,-19.83 324.07,-28.48 328.13,-22.77"/>
</g>
<!-- Node11 -->
<g id="node11" class="node">
<title>Node11</title>
<g id="a_node11"><a xlink:title=" ">
<polygon fill="none" stroke="#bfbfbf" points="412.02,-0.5 412.02,-19.5 505.02,-19.5 505.02,-0.5 412.02,-0.5"/>
<text text-anchor="middle" x="458.52" y="-7.5" font-family="Helvetica,sans-Serif" font-size="10.00">unordered_map</text>
</a>
</g>
</g>
<!-- Node10&#45;&gt;Node11 -->
<g id="edge16" class="edge">
<title>Node10&#45;&gt;Node11</title>
<path fill="none" stroke="midnightblue" d="M393.89,-56.32C405.68,-48.06 423.65,-35.45 437.65,-25.63"/>
<polygon fill="midnightblue" stroke="midnightblue" points="440,-28.26 446.18,-19.65 435.98,-22.53 440,-28.26"/>
</g>
<!-- Node12 -->
<g id="node12" class="node">
<title>Node12</title>
<g id="a_node12"><a xlink:title=" ">
<polygon fill="none" stroke="#bfbfbf" points="349.02,-0.5 349.02,-19.5 394.02,-19.5 394.02,-0.5 349.02,-0.5"/>
<text text-anchor="middle" x="371.52" y="-7.5" font-family="Helvetica,sans-Serif" font-size="10.00">utility</text>
</a>
</g>
</g>
<!-- Node10&#45;&gt;Node12 -->
<g id="edge17" class="edge">
<title>Node10&#45;&gt;Node12</title>
<path fill="none" stroke="midnightblue" d="M379.87,-56.08C378.54,-48.93 376.63,-38.64 374.98,-29.69"/>
<polygon fill="midnightblue" stroke="midnightblue" points="378.4,-28.95 373.14,-19.75 371.52,-30.22 378.4,-28.95"/>
</g>
</g>
</svg>
