<?xml version="1.0" encoding="UTF-8" standalone="no"?>
<!DOCTYPE svg PUBLIC "-//W3C//DTD SVG 1.1//EN"
 "http://www.w3.org/Graphics/SVG/1.1/DTD/svg11.dtd">
<!-- Generated by graphviz version 2.36.0 (20140111.2315)
 -->
<!-- Title: /home/travis/build/robotology/wb&#45;toolbox/toolbox/src/Jacobian.cpp Pages: 1 -->
<svg width="1396pt" height="274pt"
 viewBox="0.00 0.00 1396.47 274.00" xmlns="http://www.w3.org/2000/svg" xmlns:xlink="http://www.w3.org/1999/xlink">
<g id="graph0" class="graph" transform="scale(1 1) rotate(0) translate(4 270)">
<title>/home/travis/build/robotology/wb&#45;toolbox/toolbox/src/Jacobian.cpp</title>
<!-- Node1 -->
<g id="node1" class="node"><title>Node1</title>
<polygon fill="#bfbfbf" stroke="black" points="481,-224.5 481,-265.5 609,-265.5 609,-224.5 481,-224.5"/>
<text text-anchor="start" x="489" y="-253.5" font-family="Helvetica,sans-Serif" font-size="10.00">/home/travis/build</text>
<text text-anchor="start" x="489" y="-242.5" font-family="Helvetica,sans-Serif" font-size="10.00">/robotology/wb&#45;toolbox</text>
<text text-anchor="middle" x="545" y="-231.5" font-family="Helvetica,sans-Serif" font-size="10.00">/toolbox/src/Jacobian.cpp</text>
</g>
<!-- Node2 -->
<g id="node2" class="node"><title>Node2</title>
<g id="a_node2"><a xlink:href="_jacobian_8h.html" target="_top" xlink:title="Jacobian.h">
<polygon fill="none" stroke="black" points="573,-168.5 573,-187.5 637,-187.5 637,-168.5 573,-168.5"/>
<text text-anchor="middle" x="605" y="-175.5" font-family="Helvetica,sans-Serif" font-size="10.00">Jacobian.h</text>
</a>
</g>
</g>
<!-- Node1&#45;&gt;Node2 -->
<g id="edge1" class="edge"><title>Node1&#45;&gt;Node2</title>
<path fill="none" stroke="midnightblue" d="M563.002,-224.498C571.67,-215.107 581.939,-203.983 590.153,-195.085"/>
<polygon fill="midnightblue" stroke="midnightblue" points="592.802,-197.375 597.013,-187.652 587.658,-192.627 592.802,-197.375"/>
</g>
<!-- Node8 -->
<g id="node8" class="node"><title>Node8</title>
<polygon fill="none" stroke="#bfbfbf" points="465,-56.5 465,-75.5 517,-75.5 517,-56.5 465,-56.5"/>
<text text-anchor="middle" x="491" y="-63.5" font-family="Helvetica,sans-Serif" font-size="10.00">memory</text>
</g>
<!-- Node1&#45;&gt;Node8 -->
<g id="edge36" class="edge"><title>Node1&#45;&gt;Node8</title>
<path fill="none" stroke="midnightblue" d="M522.363,-224.391C500.585,-203.889 469.092,-169.519 456,-132 449.846,-114.363 462.044,-95.7391 473.692,-82.9694"/>
<polygon fill="midnightblue" stroke="midnightblue" points="476.19,-85.4209 480.705,-75.836 471.199,-80.5135 476.19,-85.4209"/>
</g>
<!-- Node14 -->
<g id="node14" class="node"><title>Node14</title>
<g id="a_node14"><a xlink:href="_log_8h.html" target="_top" xlink:title="Log.h">
<polygon fill="none" stroke="black" points="-0.5,-56.5 -0.5,-75.5 40.5,-75.5 40.5,-56.5 -0.5,-56.5"/>
<text text-anchor="middle" x="20" y="-63.5" font-family="Helvetica,sans-Serif" font-size="10.00">Log.h</text>
</a>
</g>
</g>
<!-- Node1&#45;&gt;Node14 -->
<g id="edge15" class="edge"><title>Node1&#45;&gt;Node14</title>
<path fill="none" stroke="midnightblue" d="M487.062,-224.467C375.591,-186.885 134.817,-105.71 50.1722,-77.1723"/>
<polygon fill="midnightblue" stroke="midnightblue" points="51.2369,-73.8378 40.6428,-73.9596 49.0005,-80.471 51.2369,-73.8378"/>
</g>
<!-- Node15 -->
<g id="node15" class="node"><title>Node15</title>
<g id="a_node15"><a xlink:href="_robot_interface_8h.html" target="_top" xlink:title="RobotInterface.h">
<polygon fill="none" stroke="black" points="287.5,-112.5 287.5,-131.5 376.5,-131.5 376.5,-112.5 287.5,-112.5"/>
<text text-anchor="middle" x="332" y="-119.5" font-family="Helvetica,sans-Serif" font-size="10.00">RobotInterface.h</text>
</a>
</g>
</g>
<!-- Node1&#45;&gt;Node15 -->
<g id="edge18" class="edge"><title>Node1&#45;&gt;Node15</title>
<path fill="none" stroke="midnightblue" d="M497.021,-224.493C474.101,-214.546 446.591,-201.673 423,-188 396.728,-172.772 368.59,-151.889 350.673,-137.945"/>
<polygon fill="midnightblue" stroke="midnightblue" points="352.775,-135.145 342.752,-131.712 348.447,-140.646 352.775,-135.145"/>
</g>
<!-- Node20 -->
<g id="node20" class="node"><title>Node20</title>
<g id="a_node20"><a xlink:href="_block_information_8h.html" target="_top" xlink:title="BlockInformation.h">
<polygon fill="none" stroke="black" points="603,-56.5 603,-75.5 701,-75.5 701,-56.5 603,-56.5"/>
<text text-anchor="middle" x="652" y="-63.5" font-family="Helvetica,sans-Serif" font-size="10.00">BlockInformation.h</text>
</a>
</g>
</g>
<!-- Node1&#45;&gt;Node20 -->
<g id="edge29" class="edge"><title>Node1&#45;&gt;Node20</title>
<path fill="none" stroke="midnightblue" d="M547.961,-224.325C550.784,-208.601 555.837,-186.25 564,-168 576.281,-140.543 582.233,-134.67 602,-112 611.379,-101.243 623.197,-90.502 632.989,-82.2126"/>
<polygon fill="midnightblue" stroke="midnightblue" points="635.484,-84.6908 640.959,-75.6204 631.023,-79.2966 635.484,-84.6908"/>
</g>
<!-- Node22 -->
<g id="node22" class="node"><title>Node22</title>
<g id="a_node22"><a xlink:href="_signal_8h.html" target="_top" xlink:title="Signal.h">
<polygon fill="none" stroke="black" points="465,-112.5 465,-131.5 517,-131.5 517,-112.5 465,-112.5"/>
<text text-anchor="middle" x="491" y="-119.5" font-family="Helvetica,sans-Serif" font-size="10.00">Signal.h</text>
</a>
</g>
</g>
<!-- Node1&#45;&gt;Node22 -->
<g id="edge32" class="edge"><title>Node1&#45;&gt;Node22</title>
<path fill="none" stroke="midnightblue" d="M536.204,-224.29C525.884,-201.166 508.923,-163.16 498.972,-140.864"/>
<polygon fill="midnightblue" stroke="midnightblue" points="502.098,-139.28 494.827,-131.575 495.706,-142.133 502.098,-139.28"/>
</g>
<!-- Node23 -->
<g id="node23" class="node"><title>Node23</title>
<polygon fill="none" stroke="#bfbfbf" points="655.5,-168.5 655.5,-187.5 816.5,-187.5 816.5,-168.5 655.5,-168.5"/>
<text text-anchor="middle" x="736" y="-175.5" font-family="Helvetica,sans-Serif" font-size="10.00">iDynTree/KinDynComputations.h</text>
</g>
<!-- Node1&#45;&gt;Node23 -->
<g id="edge37" class="edge"><title>Node1&#45;&gt;Node23</title>
<path fill="none" stroke="midnightblue" d="M602.306,-224.498C634.406,-213.574 673.398,-200.304 700.968,-190.922"/>
<polygon fill="midnightblue" stroke="midnightblue" points="702.236,-194.188 710.575,-187.652 699.981,-187.561 702.236,-194.188"/>
</g>
<!-- Node24 -->
<g id="node24" class="node"><title>Node24</title>
<polygon fill="none" stroke="#bfbfbf" points="835,-168.5 835,-187.5 985,-187.5 985,-168.5 835,-168.5"/>
<text text-anchor="middle" x="910" y="-175.5" font-family="Helvetica,sans-Serif" font-size="10.00">iDynTree/Core/EigenHelpers.h</text>
</g>
<!-- Node1&#45;&gt;Node24 -->
<g id="edge38" class="edge"><title>Node1&#45;&gt;Node24</title>
<path fill="none" stroke="midnightblue" d="M609.414,-232.529C678.087,-220.3 785.852,-201.109 851.974,-189.333"/>
<polygon fill="midnightblue" stroke="midnightblue" points="852.985,-192.709 862.216,-187.509 851.757,-185.817 852.985,-192.709"/>
</g>
<!-- Node25 -->
<g id="node25" class="node"><title>Node25</title>
<polygon fill="none" stroke="#bfbfbf" points="1002.5,-168.5 1002.5,-187.5 1067.5,-187.5 1067.5,-168.5 1002.5,-168.5"/>
<text text-anchor="middle" x="1035" y="-175.5" font-family="Helvetica,sans-Serif" font-size="10.00">Eigen/Core</text>
</g>
<!-- Node1&#45;&gt;Node25 -->
<g id="edge39" class="edge"><title>Node1&#45;&gt;Node25</title>
<path fill="none" stroke="midnightblue" d="M609.057,-237.759C694.195,-229.071 849.487,-211.861 992.239,-187.987"/>
<polygon fill="midnightblue" stroke="midnightblue" points="993.216,-191.372 1002.49,-186.257 992.051,-184.469 993.216,-191.372"/>
</g>
<!-- Node3 -->
<g id="node3" class="node"><title>Node3</title>
<g id="a_node3"><a xlink:href="_w_b_block_8h.html" target="_top" xlink:title="WBBlock.h">
<polygon fill="none" stroke="black" points="801,-112.5 801,-131.5 867,-131.5 867,-112.5 801,-112.5"/>
<text text-anchor="middle" x="834" y="-119.5" font-family="Helvetica,sans-Serif" font-size="10.00">WBBlock.h</text>
</a>
</g>
</g>
<!-- Node2&#45;&gt;Node3 -->
<g id="edge2" class="edge"><title>Node2&#45;&gt;Node3</title>
<path fill="none" stroke="midnightblue" d="M637.324,-169.378C677.472,-159.911 746.107,-143.726 790.754,-133.198"/>
<polygon fill="midnightblue" stroke="midnightblue" points="791.796,-136.548 800.725,-130.846 790.189,-129.735 791.796,-136.548"/>
</g>
<!-- Node2&#45;&gt;Node8 -->
<g id="edge13" class="edge"><title>Node2&#45;&gt;Node8</title>
<path fill="none" stroke="midnightblue" d="M596.055,-168.368C576.908,-149.894 531.721,-106.293 507.316,-82.7436"/>
<polygon fill="midnightblue" stroke="midnightblue" points="509.53,-80.0165 499.904,-75.5914 504.67,-85.0538 509.53,-80.0165"/>
</g>
<!-- Node13 -->
<g id="node13" class="node"><title>Node13</title>
<polygon fill="none" stroke="#bfbfbf" points="611,-112.5 611,-131.5 739,-131.5 739,-112.5 611,-112.5"/>
<text text-anchor="middle" x="675" y="-119.5" font-family="Helvetica,sans-Serif" font-size="10.00">iDynTree/Model/Indices.h</text>
</g>
<!-- Node2&#45;&gt;Node13 -->
<g id="edge14" class="edge"><title>Node2&#45;&gt;Node13</title>
<path fill="none" stroke="midnightblue" d="M616.247,-168.324C626.797,-160.185 642.801,-147.839 655.442,-138.087"/>
<polygon fill="midnightblue" stroke="midnightblue" points="657.769,-140.713 663.549,-131.834 653.493,-135.171 657.769,-140.713"/>
</g>
<!-- Node4 -->
<g id="node4" class="node"><title>Node4</title>
<g id="a_node4"><a xlink:href="_block_8h.html" target="_top" xlink:title="Block.h">
<polygon fill="none" stroke="black" points="535,-56.5 535,-75.5 585,-75.5 585,-56.5 535,-56.5"/>
<text text-anchor="middle" x="560" y="-63.5" font-family="Helvetica,sans-Serif" font-size="10.00">Block.h</text>
</a>
</g>
</g>
<!-- Node3&#45;&gt;Node4 -->
<g id="edge3" class="edge"><title>Node3&#45;&gt;Node4</title>
<path fill="none" stroke="midnightblue" d="M800.844,-115.576C756.299,-108.116 674.468,-93.8087 595.336,-76.172"/>
<polygon fill="midnightblue" stroke="midnightblue" points="595.725,-72.6721 585.2,-73.891 594.188,-79.5013 595.725,-72.6721"/>
</g>
<!-- Node5 -->
<g id="node5" class="node"><title>Node5</title>
<polygon fill="none" stroke="#bfbfbf" points="443.5,-0.5 443.5,-19.5 484.5,-19.5 484.5,-0.5 443.5,-0.5"/>
<text text-anchor="middle" x="464" y="-7.5" font-family="Helvetica,sans-Serif" font-size="10.00">string</text>
</g>
<!-- Node3&#45;&gt;Node5 -->
<g id="edge6" class="edge"><title>Node3&#45;&gt;Node5</title>
<path fill="none" stroke="midnightblue" d="M817.553,-112.283C784.93,-95.0136 714.668,-57.9452 709,-56 634.431,-30.4096 541.825,-18.446 494.685,-13.6786"/>
<polygon fill="midnightblue" stroke="midnightblue" points="494.818,-10.1752 484.527,-12.6925 494.142,-17.1424 494.818,-10.1752"/>
</g>
<!-- Node7 -->
<g id="node7" class="node"><title>Node7</title>
<polygon fill="none" stroke="#bfbfbf" points="1043,-0.5 1043,-19.5 1081,-19.5 1081,-0.5 1043,-0.5"/>
<text text-anchor="middle" x="1062" y="-7.5" font-family="Helvetica,sans-Serif" font-size="10.00">array</text>
</g>
<!-- Node3&#45;&gt;Node7 -->
<g id="edge7" class="edge"><title>Node3&#45;&gt;Node7</title>
<path fill="none" stroke="midnightblue" d="M867.125,-120.837C980.64,-119.939 1348.9,-114.088 1384,-76 1390.02,-69.4634 1389.83,-62.7063 1384,-56 1346.12,-12.4554 1163.28,-9.76452 1091.25,-10.444"/>
<polygon fill="midnightblue" stroke="midnightblue" points="1091.02,-6.94647 1081.07,-10.5703 1091.11,-13.9459 1091.02,-6.94647"/>
</g>
<!-- Node3&#45;&gt;Node8 -->
<g id="edge8" class="edge"><title>Node3&#45;&gt;Node8</title>
<path fill="none" stroke="midnightblue" d="M800.982,-117.348C746.099,-111.024 632.488,-96.8615 527.144,-76.0527"/>
<polygon fill="midnightblue" stroke="midnightblue" points="527.796,-72.6139 517.304,-74.0844 526.423,-79.4779 527.796,-72.6139"/>
</g>
<!-- Node9 -->
<g id="node9" class="node"><title>Node9</title>
<polygon fill="none" stroke="#bfbfbf" points="757.5,-56.5 757.5,-75.5 910.5,-75.5 910.5,-56.5 757.5,-56.5"/>
<text text-anchor="middle" x="834" y="-63.5" font-family="Helvetica,sans-Serif" font-size="10.00">iDynTree/Core/VectorFixSize.h</text>
</g>
<!-- Node3&#45;&gt;Node9 -->
<g id="edge9" class="edge"><title>Node3&#45;&gt;Node9</title>
<path fill="none" stroke="midnightblue" d="M834,-112.083C834,-105.006 834,-94.8611 834,-85.9865"/>
<polygon fill="midnightblue" stroke="midnightblue" points="837.5,-85.751 834,-75.7511 830.5,-85.7511 837.5,-85.751"/>
</g>
<!-- Node10 -->
<g id="node10" class="node"><title>Node10</title>
<polygon fill="none" stroke="#bfbfbf" points="929,-56.5 929,-75.5 1087,-75.5 1087,-56.5 929,-56.5"/>
<text text-anchor="middle" x="1008" y="-63.5" font-family="Helvetica,sans-Serif" font-size="10.00">iDynTree/Core/VectorDynSize.h</text>
</g>
<!-- Node3&#45;&gt;Node10 -->
<g id="edge10" class="edge"><title>Node3&#45;&gt;Node10</title>
<path fill="none" stroke="midnightblue" d="M861.571,-112.444C891.097,-103.28 938.118,-88.6876 970.883,-78.5192"/>
<polygon fill="midnightblue" stroke="midnightblue" points="972.045,-81.8232 980.558,-75.5164 969.97,-75.1378 972.045,-81.8232"/>
</g>
<!-- Node11 -->
<g id="node11" class="node"><title>Node11</title>
<polygon fill="none" stroke="#bfbfbf" points="1105,-56.5 1105,-75.5 1221,-75.5 1221,-56.5 1105,-56.5"/>
<text text-anchor="middle" x="1163" y="-63.5" font-family="Helvetica,sans-Serif" font-size="10.00">iDynTree/Core/Twist.h</text>
</g>
<!-- Node3&#45;&gt;Node11 -->
<g id="edge11" class="edge"><title>Node3&#45;&gt;Node11</title>
<path fill="none" stroke="midnightblue" d="M867.052,-115.575C921.722,-106.602 1031.82,-88.5312 1101.23,-77.1386"/>
<polygon fill="midnightblue" stroke="midnightblue" points="1101.86,-80.5816 1111.16,-75.5081 1100.73,-73.674 1101.86,-80.5816"/>
</g>
<!-- Node12 -->
<g id="node12" class="node"><title>Node12</title>
<polygon fill="none" stroke="#bfbfbf" points="1239,-56.5 1239,-75.5 1375,-75.5 1375,-56.5 1239,-56.5"/>
<text text-anchor="middle" x="1307" y="-63.5" font-family="Helvetica,sans-Serif" font-size="10.00">iDynTree/Core/Transform.h</text>
</g>
<!-- Node3&#45;&gt;Node12 -->
<g id="edge12" class="edge"><title>Node3&#45;&gt;Node12</title>
<path fill="none" stroke="midnightblue" d="M867.034,-117.253C934.867,-109.555 1094.77,-91.3897 1229,-76 1229.1,-75.9884 1229.2,-75.9767 1229.3,-75.965"/>
<polygon fill="midnightblue" stroke="midnightblue" points="1229.4,-79.4771 1238.94,-74.8593 1228.6,-72.5228 1229.4,-79.4771"/>
</g>
<!-- Node4&#45;&gt;Node5 -->
<g id="edge4" class="edge"><title>Node4&#45;&gt;Node5</title>
<path fill="none" stroke="midnightblue" d="M544.576,-56.324C529.46,-47.8215 506.185,-34.7288 488.529,-24.7975"/>
<polygon fill="midnightblue" stroke="midnightblue" points="489.817,-21.5066 479.386,-19.6545 486.386,-27.6077 489.817,-21.5066"/>
</g>
<!-- Node6 -->
<g id="node6" class="node"><title>Node6</title>
<polygon fill="none" stroke="#bfbfbf" points="162,-0.5 162,-19.5 206,-19.5 206,-0.5 162,-0.5"/>
<text text-anchor="middle" x="184" y="-7.5" font-family="Helvetica,sans-Serif" font-size="10.00">vector</text>
</g>
<!-- Node4&#45;&gt;Node6 -->
<g id="edge5" class="edge"><title>Node4&#45;&gt;Node6</title>
<path fill="none" stroke="midnightblue" d="M534.833,-57.9542C531.868,-57.2383 528.875,-56.5673 526,-56 413.208,-33.7459 277.258,-19.5628 216.311,-13.8604"/>
<polygon fill="midnightblue" stroke="midnightblue" points="216.445,-10.3579 206.165,-12.925 215.802,-17.3284 216.445,-10.3579"/>
</g>
<!-- Node14&#45;&gt;Node5 -->
<g id="edge16" class="edge"><title>Node14&#45;&gt;Node5</title>
<path fill="none" stroke="midnightblue" d="M40.5236,-62.2159C54.0117,-60.4028 72.0497,-58.0099 88,-56 215.946,-39.8773 368.569,-22.0425 432.937,-14.5848"/>
<polygon fill="midnightblue" stroke="midnightblue" points="433.669,-18.0235 443.201,-13.397 432.865,-11.0699 433.669,-18.0235"/>
</g>
<!-- Node14&#45;&gt;Node6 -->
<g id="edge17" class="edge"><title>Node14&#45;&gt;Node6</title>
<path fill="none" stroke="midnightblue" d="M40.7707,-58.1609C68.8907,-48.9018 119.33,-32.2938 152.227,-21.4619"/>
<polygon fill="midnightblue" stroke="midnightblue" points="153.425,-24.7522 161.829,-18.3002 151.236,-18.1034 153.425,-24.7522"/>
</g>
<!-- Node15&#45;&gt;Node5 -->
<g id="edge24" class="edge"><title>Node15&#45;&gt;Node5</title>
<path fill="none" stroke="midnightblue" d="M338.122,-112.209C347.68,-98.915 367.215,-73.4044 388,-56 402.993,-43.4451 421.909,-32.2314 437.119,-24.1384"/>
<polygon fill="midnightblue" stroke="midnightblue" points="438.77,-27.2245 446.041,-19.5185 435.552,-21.0083 438.77,-27.2245"/>
</g>
<!-- Node15&#45;&gt;Node6 -->
<g id="edge25" class="edge"><title>Node15&#45;&gt;Node6</title>
<path fill="none" stroke="midnightblue" d="M287.34,-119.363C223.971,-115.995 112.872,-105.878 88,-76 65.9301,-49.4877 116.438,-29.3411 152.237,-18.9197"/>
<polygon fill="midnightblue" stroke="midnightblue" points="153.175,-22.2918 161.872,-16.241 151.3,-15.5476 153.175,-22.2918"/>
</g>
<!-- Node15&#45;&gt;Node8 -->
<g id="edge23" class="edge"><title>Node15&#45;&gt;Node8</title>
<path fill="none" stroke="midnightblue" d="M357.194,-112.444C383.943,-103.359 426.403,-88.9388 456.305,-78.7831"/>
<polygon fill="midnightblue" stroke="midnightblue" points="457.581,-82.0464 465.924,-75.5164 455.329,-75.4182 457.581,-82.0464"/>
</g>
<!-- Node16 -->
<g id="node16" class="node"><title>Node16</title>
<g id="a_node16"><a xlink:href="_configuration_8h.html" target="_top" xlink:title="Configuration.h">
<polygon fill="none" stroke="black" points="257.5,-56.5 257.5,-75.5 340.5,-75.5 340.5,-56.5 257.5,-56.5"/>
<text text-anchor="middle" x="299" y="-63.5" font-family="Helvetica,sans-Serif" font-size="10.00">Configuration.h</text>
</a>
</g>
</g>
<!-- Node15&#45;&gt;Node16 -->
<g id="edge19" class="edge"><title>Node15&#45;&gt;Node16</title>
<path fill="none" stroke="midnightblue" d="M326.551,-112.083C321.986,-104.613 315.332,-93.7244 309.707,-84.5199"/>
<polygon fill="midnightblue" stroke="midnightblue" points="312.549,-82.4588 304.348,-75.7511 306.576,-86.109 312.549,-82.4588"/>
</g>
<!-- Node17 -->
<g id="node17" class="node"><title>Node17</title>
<polygon fill="none" stroke="#bfbfbf" points="199,-56.5 199,-75.5 239,-75.5 239,-56.5 199,-56.5"/>
<text text-anchor="middle" x="219" y="-63.5" font-family="Helvetica,sans-Serif" font-size="10.00">utility</text>
</g>
<!-- Node15&#45;&gt;Node17 -->
<g id="edge26" class="edge"><title>Node15&#45;&gt;Node17</title>
<path fill="none" stroke="midnightblue" d="M314.095,-112.444C295.746,-103.675 266.995,-89.9355 245.906,-79.8579"/>
<polygon fill="midnightblue" stroke="midnightblue" points="247.353,-76.6703 236.821,-75.5164 244.335,-82.9862 247.353,-76.6703"/>
</g>
<!-- Node18 -->
<g id="node18" class="node"><title>Node18</title>
<polygon fill="none" stroke="#bfbfbf" points="397.5,-56.5 397.5,-75.5 446.5,-75.5 446.5,-56.5 397.5,-56.5"/>
<text text-anchor="middle" x="422" y="-63.5" font-family="Helvetica,sans-Serif" font-size="10.00">cassert</text>
</g>
<!-- Node15&#45;&gt;Node18 -->
<g id="edge27" class="edge"><title>Node15&#45;&gt;Node18</title>
<path fill="none" stroke="midnightblue" d="M346.46,-112.324C360.5,-103.9 382.048,-90.9709 398.543,-81.0741"/>
<polygon fill="midnightblue" stroke="midnightblue" points="400.802,-83.8007 407.576,-75.6545 397.2,-77.7983 400.802,-83.8007"/>
</g>
<!-- Node19 -->
<g id="node19" class="node"><title>Node19</title>
<polygon fill="none" stroke="#bfbfbf" points="97.5,-56.5 97.5,-75.5 180.5,-75.5 180.5,-56.5 97.5,-56.5"/>
<text text-anchor="middle" x="139" y="-63.5" font-family="Helvetica,sans-Serif" font-size="10.00">unordered_map</text>
</g>
<!-- Node15&#45;&gt;Node19 -->
<g id="edge28" class="edge"><title>Node15&#45;&gt;Node19</title>
<path fill="none" stroke="midnightblue" d="M301.419,-112.444C268.385,-103.201 215.612,-88.4356 179.234,-78.2572"/>
<polygon fill="midnightblue" stroke="midnightblue" points="180.012,-74.8404 169.438,-75.5164 178.125,-81.5815 180.012,-74.8404"/>
</g>
<!-- Node16&#45;&gt;Node5 -->
<g id="edge22" class="edge"><title>Node16&#45;&gt;Node5</title>
<path fill="none" stroke="midnightblue" d="M325.145,-56.4435C354.536,-46.8247 402.205,-31.2238 433.331,-21.0372"/>
<polygon fill="midnightblue" stroke="midnightblue" points="434.787,-24.2435 443.202,-17.8067 432.609,-17.5907 434.787,-24.2435"/>
</g>
<!-- Node16&#45;&gt;Node6 -->
<g id="edge20" class="edge"><title>Node16&#45;&gt;Node6</title>
<path fill="none" stroke="midnightblue" d="M280.778,-56.4435C262.104,-47.6751 232.844,-33.9355 211.383,-23.8579"/>
<polygon fill="midnightblue" stroke="midnightblue" points="212.676,-20.5988 202.137,-19.5164 209.701,-26.935 212.676,-20.5988"/>
</g>
<!-- Node16&#45;&gt;Node7 -->
<g id="edge21" class="edge"><title>Node16&#45;&gt;Node7</title>
<path fill="none" stroke="midnightblue" d="M340.628,-60.4938C355.559,-58.9561 372.524,-57.2987 388,-56 637.275,-35.0808 939.077,-17.7807 1032.81,-12.5919"/>
<polygon fill="midnightblue" stroke="midnightblue" points="1033.16,-16.0782 1042.95,-12.0331 1032.77,-9.08883 1033.16,-16.0782"/>
</g>
<!-- Node20&#45;&gt;Node5 -->
<g id="edge31" class="edge"><title>Node20&#45;&gt;Node5</title>
<path fill="none" stroke="midnightblue" d="M622.211,-56.4435C587.25,-46.4015 529.589,-29.8394 494.376,-19.7251"/>
<polygon fill="midnightblue" stroke="midnightblue" points="495.226,-16.3276 484.648,-16.9308 493.293,-23.0556 495.226,-16.3276"/>
</g>
<!-- Node21 -->
<g id="node21" class="node"><title>Node21</title>
<polygon fill="none" stroke="#bfbfbf" points="620,-0.5 620,-19.5 684,-19.5 684,-0.5 620,-0.5"/>
<text text-anchor="middle" x="652" y="-7.5" font-family="Helvetica,sans-Serif" font-size="10.00">AnyType.h</text>
</g>
<!-- Node20&#45;&gt;Node21 -->
<g id="edge30" class="edge"><title>Node20&#45;&gt;Node21</title>
<path fill="none" stroke="midnightblue" d="M652,-56.083C652,-49.0059 652,-38.8611 652,-29.9865"/>
<polygon fill="midnightblue" stroke="midnightblue" points="655.5,-29.751 652,-19.7511 648.5,-29.7511 655.5,-29.751"/>
</g>
<!-- Node22&#45;&gt;Node8 -->
<g id="edge35" class="edge"><title>Node22&#45;&gt;Node8</title>
<path fill="none" stroke="midnightblue" d="M491,-112.083C491,-105.006 491,-94.8611 491,-85.9865"/>
<polygon fill="midnightblue" stroke="midnightblue" points="494.5,-85.751 491,-75.7511 487.5,-85.7511 494.5,-85.751"/>
</g>
<!-- Node22&#45;&gt;Node18 -->
<g id="edge34" class="edge"><title>Node22&#45;&gt;Node18</title>
<path fill="none" stroke="midnightblue" d="M479.914,-112.324C469.514,-104.185 453.739,-91.8395 441.278,-82.0874"/>
<polygon fill="midnightblue" stroke="midnightblue" points="443.32,-79.2407 433.288,-75.8339 439.006,-84.7533 443.32,-79.2407"/>
</g>
<!-- Node22&#45;&gt;Node20 -->
<g id="edge33" class="edge"><title>Node22&#45;&gt;Node20</title>
<path fill="none" stroke="midnightblue" d="M516.511,-112.444C543.596,-103.359 586.59,-88.9388 616.869,-78.7831"/>
<polygon fill="midnightblue" stroke="midnightblue" points="618.24,-82.0148 626.608,-75.5164 616.014,-75.3781 618.24,-82.0148"/>
</g>
</g>
</svg>
