<?xml version="1.0" encoding="UTF-8" standalone="no"?>
<!DOCTYPE svg PUBLIC "-//W3C//DTD SVG 1.1//EN"
 "http://www.w3.org/Graphics/SVG/1.1/DTD/svg11.dtd">
<!-- Generated by graphviz version 2.36.0 (20140111.2315)
 -->
<!-- Title: /home/travis/build/robotology/wb&#45;toolbox/toolbox/core/include/Core/Log.h Pages: 1 -->
<!--zoomable 152 -->
<svg id="main" version="1.1" xmlns="http://www.w3.org/2000/svg" xmlns:xlink="http://www.w3.org/1999/xlink" xml:space="preserve" onload="init(evt)">
<style type="text/css"><![CDATA[
.edge:hover path { stroke: red; }
.edge:hover polygon { stroke: red; fill: red; }
]]></style>
<script type="text/javascript"><![CDATA[
var edges = document.getElementsByTagName('g');
if (edges && edges.length) {
  for (var i=0;i<edges.length;i++) {
    if (edges[i].id.substr(0,4)=='edge') {
      edges[i].setAttribute('class','edge');
    }
  }
}
]]></script>
        <defs>
                <circle id="rim" cx="0" cy="0" r="7"/>
                <circle id="rim2" cx="0" cy="0" r="3.5"/>
                <g id="zoomPlus">
                        <use xlink:href="#rim" fill="#404040">
                                <set attributeName="fill" to="#808080" begin="zoomplus.mouseover" end="zoomplus.mouseout"/>
                        </use>
                        <path d="M-4,0h8M0,-4v8" fill="none" stroke="white" stroke-width="1.5" pointer-events="none"/>
                </g>
                <g id="zoomMin">
                        <use xlink:href="#rim" fill="#404040">
                                <set attributeName="fill" to="#808080" begin="zoomminus.mouseover" end="zoomminus.mouseout"/>
                        </use>
                        <path d="M-4,0h8" fill="none" stroke="white" stroke-width="1.5" pointer-events="none"/>
                </g>
                <g id="dirArrow">
                        <path fill="none" stroke="white" stroke-width="1.5" d="M0,-3.0v7 M-2.5,-0.5L0,-3.0L2.5,-0.5"/>
                </g>
               <g id="resetDef">
                       <use xlink:href="#rim2" fill="#404040">
                               <set attributeName="fill" to="#808080" begin="reset.mouseover" end="reset.mouseout"/>
                       </use>
               </g>
        </defs>

<script type="text/javascript">
var viewWidth = 4947;
var viewHeight = 152;
var sectionId = 'dynsection-1';
</script>
<script xlink:href="svgpan.js"/>
<svg id="graph" class="graph">
<g id="viewport">
<title>/home/travis/build/robotology/wb&#45;toolbox/toolbox/core/include/Core/Log.h</title>
<!-- Node1 -->
<g id="node1" class="node"><title>Node1</title>
<polygon fill="#bfbfbf" stroke="black" points="2354.5,-91 2354.5,-143 2469.5,-143 2469.5,-91 2354.5,-91"/>
<text text-anchor="start" x="2362.5" y="-131" font-family="Helvetica,sans-Serif" font-size="10.00">/home/travis/build</text>
<text text-anchor="start" x="2362.5" y="-120" font-family="Helvetica,sans-Serif" font-size="10.00">/robotology/wb&#45;toolbox</text>
<text text-anchor="start" x="2362.5" y="-109" font-family="Helvetica,sans-Serif" font-size="10.00">/toolbox/core/include</text>
<text text-anchor="middle" x="2412" y="-98" font-family="Helvetica,sans-Serif" font-size="10.00">/Core/Log.h</text>
</g>
<!-- Node2 -->
<g id="node2" class="node"><title>Node2</title>
<g id="a_node2"><a xlink:href="_block_8cpp.html" target="_top" xlink:title="/home/travis/build\l/robotology/wb&#45;toolbox\l/toolbox/core/src/Block.cpp">
<polygon fill="none" stroke="black" points="0,-6.5 0,-47.5 136,-47.5 136,-6.5 0,-6.5"/>
<text text-anchor="start" x="8" y="-35.5" font-family="Helvetica,sans-Serif" font-size="10.00">/home/travis/build</text>
<text text-anchor="start" x="8" y="-24.5" font-family="Helvetica,sans-Serif" font-size="10.00">/robotology/wb&#45;toolbox</text>
<text text-anchor="middle" x="68" y="-13.5" font-family="Helvetica,sans-Serif" font-size="10.00">/toolbox/core/src/Block.cpp</text>
</a>
</g>
</g>
<!-- Node1&#45;&gt;Node2 -->
<g id="edge1" class="edge"><title>Node1&#45;&gt;Node2</title>
<path fill="none" stroke="midnightblue" d="M2344.22,-115.348C1990.68,-111.789 365.878,-93.393 145,-54 136.388,-52.4641 127.431,-50.1471 118.801,-47.5174"/>
<polygon fill="midnightblue" stroke="midnightblue" points="2344.27,-118.849 2354.31,-115.449 2344.34,-111.849 2344.27,-118.849"/>
</g>
<!-- Node3 -->
<g id="node3" class="node"><title>Node3</title>
<g id="a_node3"><a xlink:href="_coder_block_information_8cpp.html" target="_top" xlink:title="/home/travis/build\l/robotology/wb&#45;toolbox\l/toolbox/core/src/CoderBlock\lInformation.cpp">
<polygon fill="none" stroke="black" points="154.5,-1 154.5,-53 297.5,-53 297.5,-1 154.5,-1"/>
<text text-anchor="start" x="162.5" y="-41" font-family="Helvetica,sans-Serif" font-size="10.00">/home/travis/build</text>
<text text-anchor="start" x="162.5" y="-30" font-family="Helvetica,sans-Serif" font-size="10.00">/robotology/wb&#45;toolbox</text>
<text text-anchor="start" x="162.5" y="-19" font-family="Helvetica,sans-Serif" font-size="10.00">/toolbox/core/src/CoderBlock</text>
<text text-anchor="middle" x="226" y="-8" font-family="Helvetica,sans-Serif" font-size="10.00">Information.cpp</text>
</a>
</g>
</g>
<!-- Node1&#45;&gt;Node3 -->
<g id="edge2" class="edge"><title>Node1&#45;&gt;Node3</title>
<path fill="none" stroke="midnightblue" d="M2344.19,-115.15C2006.08,-110.76 510.379,-89.4685 306,-54 303.266,-53.5256 300.497,-52.9783 297.714,-52.3717"/>
<polygon fill="midnightblue" stroke="midnightblue" points="2344.28,-118.652 2354.33,-115.281 2344.37,-111.652 2344.28,-118.652"/>
</g>
<!-- Node4 -->
<g id="node4" class="node"><title>Node4</title>
<g id="a_node4"><a xlink:href="_log_8cpp.html" target="_top" xlink:title="/home/travis/build\l/robotology/wb&#45;toolbox\l/toolbox/core/src/Log.cpp">
<polygon fill="none" stroke="black" points="315.5,-6.5 315.5,-47.5 442.5,-47.5 442.5,-6.5 315.5,-6.5"/>
<text text-anchor="start" x="323.5" y="-35.5" font-family="Helvetica,sans-Serif" font-size="10.00">/home/travis/build</text>
<text text-anchor="start" x="323.5" y="-24.5" font-family="Helvetica,sans-Serif" font-size="10.00">/robotology/wb&#45;toolbox</text>
<text text-anchor="middle" x="379" y="-13.5" font-family="Helvetica,sans-Serif" font-size="10.00">/toolbox/core/src/Log.cpp</text>
</a>
</g>
</g>
<!-- Node1&#45;&gt;Node4 -->
<g id="edge3" class="edge"><title>Node1&#45;&gt;Node4</title>
<path fill="none" stroke="midnightblue" d="M2343.91,-115.117C2019.64,-110.738 639.749,-90.1187 451,-54 443.038,-52.4763 434.782,-50.2025 426.824,-47.6226"/>
<polygon fill="midnightblue" stroke="midnightblue" points="2344.05,-118.619 2354.1,-115.253 2344.15,-111.619 2344.05,-118.619"/>
</g>
<!-- Node5 -->
<g id="node5" class="node"><title>Node5</title>
<g id="a_node5"><a xlink:href="_parameters_8cpp.html" target="_top" xlink:title="/home/travis/build\l/robotology/wb&#45;toolbox\l/toolbox/core/src/Parameters.cpp">
<polygon fill="none" stroke="black" points="460.5,-6.5 460.5,-47.5 621.5,-47.5 621.5,-6.5 460.5,-6.5"/>
<text text-anchor="start" x="468.5" y="-35.5" font-family="Helvetica,sans-Serif" font-size="10.00">/home/travis/build</text>
<text text-anchor="start" x="468.5" y="-24.5" font-family="Helvetica,sans-Serif" font-size="10.00">/robotology/wb&#45;toolbox</text>
<text text-anchor="middle" x="541" y="-13.5" font-family="Helvetica,sans-Serif" font-size="10.00">/toolbox/core/src/Parameters.cpp</text>
</a>
</g>
</g>
<!-- Node1&#45;&gt;Node5 -->
<g id="edge4" class="edge"><title>Node1&#45;&gt;Node5</title>
<path fill="none" stroke="midnightblue" d="M2344.07,-115.869C2060.49,-114.98 970.153,-108.042 631,-54 621.203,-52.4388 610.964,-50.1455 601.051,-47.5574"/>
<polygon fill="midnightblue" stroke="midnightblue" points="2344.2,-119.37 2354.21,-115.9 2344.22,-112.37 2344.2,-119.37"/>
</g>
<!-- Node6 -->
<g id="node6" class="node"><title>Node6</title>
<g id="a_node6"><a xlink:href="_signal_8cpp.html" target="_top" xlink:title="/home/travis/build\l/robotology/wb&#45;toolbox\l/toolbox/core/src/Signal.cpp">
<polygon fill="none" stroke="black" points="640,-6.5 640,-47.5 778,-47.5 778,-6.5 640,-6.5"/>
<text text-anchor="start" x="648" y="-35.5" font-family="Helvetica,sans-Serif" font-size="10.00">/home/travis/build</text>
<text text-anchor="start" x="648" y="-24.5" font-family="Helvetica,sans-Serif" font-size="10.00">/robotology/wb&#45;toolbox</text>
<text text-anchor="middle" x="709" y="-13.5" font-family="Helvetica,sans-Serif" font-size="10.00">/toolbox/core/src/Signal.cpp</text>
</a>
</g>
</g>
<!-- Node1&#45;&gt;Node6 -->
<g id="edge5" class="edge"><title>Node1&#45;&gt;Node6</title>
<path fill="none" stroke="midnightblue" d="M2343.88,-115.966C2075.77,-115.437 1092.97,-109.659 787,-54 778.433,-52.4416 769.521,-50.1497 760.913,-47.5623"/>
<polygon fill="midnightblue" stroke="midnightblue" points="2344.24,-119.467 2354.24,-115.985 2344.25,-112.467 2344.24,-119.467"/>
</g>
<!-- Node7 -->
<g id="node7" class="node"><title>Node7</title>
<g id="a_node7"><a xlink:href="_simulink_block_information_8cpp.html" target="_top" xlink:title="/home/travis/build\l/robotology/wb&#45;toolbox\l/toolbox/core/src/SimulinkBlock\lInformation.cpp">
<polygon fill="none" stroke="black" points="796.5,-1 796.5,-53 951.5,-53 951.5,-1 796.5,-1"/>
<text text-anchor="start" x="804.5" y="-41" font-family="Helvetica,sans-Serif" font-size="10.00">/home/travis/build</text>
<text text-anchor="start" x="804.5" y="-30" font-family="Helvetica,sans-Serif" font-size="10.00">/robotology/wb&#45;toolbox</text>
<text text-anchor="start" x="804.5" y="-19" font-family="Helvetica,sans-Serif" font-size="10.00">/toolbox/core/src/SimulinkBlock</text>
<text text-anchor="middle" x="874" y="-8" font-family="Helvetica,sans-Serif" font-size="10.00">Information.cpp</text>
</a>
</g>
</g>
<!-- Node1&#45;&gt;Node7 -->
<g id="edge6" class="edge"><title>Node1&#45;&gt;Node7</title>
<path fill="none" stroke="midnightblue" d="M2343.9,-115.324C2094.59,-112.5 1232.17,-99.5871 961,-54 957.891,-53.4773 954.736,-52.8776 951.563,-52.2161"/>
<polygon fill="midnightblue" stroke="midnightblue" points="2344.22,-118.827 2354.26,-115.439 2344.3,-111.828 2344.22,-118.827"/>
</g>
<!-- Node8 -->
<g id="node8" class="node"><title>Node8</title>
<g id="a_node8"><a xlink:href="_w_b_toolbox_8cpp.html" target="_top" xlink:title="/home/travis/build\l/robotology/wb&#45;toolbox\l/toolbox/core/src/WBToolbox.cpp">
<polygon fill="none" stroke="black" points="970,-6.5 970,-47.5 1132,-47.5 1132,-6.5 970,-6.5"/>
<text text-anchor="start" x="978" y="-35.5" font-family="Helvetica,sans-Serif" font-size="10.00">/home/travis/build</text>
<text text-anchor="start" x="978" y="-24.5" font-family="Helvetica,sans-Serif" font-size="10.00">/robotology/wb&#45;toolbox</text>
<text text-anchor="middle" x="1051" y="-13.5" font-family="Helvetica,sans-Serif" font-size="10.00">/toolbox/core/src/WBToolbox.cpp</text>
</a>
</g>
</g>
<!-- Node1&#45;&gt;Node8 -->
<g id="edge7" class="edge"><title>Node1&#45;&gt;Node8</title>
<path fill="none" stroke="midnightblue" d="M2344.07,-114.767C2115.53,-110.295 1375.74,-93.0851 1141,-54 1131.37,-52.3973 1121.32,-50.1176 1111.56,-47.5664"/>
<polygon fill="midnightblue" stroke="midnightblue" points="2344.17,-118.27 2354.24,-114.965 2344.31,-111.271 2344.17,-118.27"/>
</g>
<!-- Node9 -->
<g id="node9" class="node"><title>Node9</title>
<g id="a_node9"><a xlink:href="_centroidal_momentum_8cpp.html" target="_top" xlink:title="/home/travis/build\l/robotology/wb&#45;toolbox\l/toolbox/library/src/Centroidal\lMomentum.cpp">
<polygon fill="none" stroke="black" points="1150,-1 1150,-53 1294,-53 1294,-1 1150,-1"/>
<text text-anchor="start" x="1158" y="-41" font-family="Helvetica,sans-Serif" font-size="10.00">/home/travis/build</text>
<text text-anchor="start" x="1158" y="-30" font-family="Helvetica,sans-Serif" font-size="10.00">/robotology/wb&#45;toolbox</text>
<text text-anchor="start" x="1158" y="-19" font-family="Helvetica,sans-Serif" font-size="10.00">/toolbox/library/src/Centroidal</text>
<text text-anchor="middle" x="1222" y="-8" font-family="Helvetica,sans-Serif" font-size="10.00">Momentum.cpp</text>
</a>
</g>
</g>
<!-- Node1&#45;&gt;Node9 -->
<g id="edge8" class="edge"><title>Node1&#45;&gt;Node9</title>
<path fill="none" stroke="midnightblue" d="M2344.02,-114.465C2135.09,-109.392 1504.38,-91.3154 1303,-54 1300.1,-53.4618 1297.15,-52.849 1294.19,-52.1766"/>
<polygon fill="midnightblue" stroke="midnightblue" points="2344.15,-117.97 2354.23,-114.711 2344.32,-110.972 2344.15,-117.97"/>
</g>
<!-- Node10 -->
<g id="node10" class="node"><title>Node10</title>
<g id="a_node10"><a xlink:href="_discrete_filter_8cpp.html" target="_top" xlink:title="/home/travis/build\l/robotology/wb&#45;toolbox\l/toolbox/library/src/Discrete\lFilter.cpp">
<polygon fill="none" stroke="black" points="1312.5,-1 1312.5,-53 1449.5,-53 1449.5,-1 1312.5,-1"/>
<text text-anchor="start" x="1320.5" y="-41" font-family="Helvetica,sans-Serif" font-size="10.00">/home/travis/build</text>
<text text-anchor="start" x="1320.5" y="-30" font-family="Helvetica,sans-Serif" font-size="10.00">/robotology/wb&#45;toolbox</text>
<text text-anchor="start" x="1320.5" y="-19" font-family="Helvetica,sans-Serif" font-size="10.00">/toolbox/library/src/Discrete</text>
<text text-anchor="middle" x="1381" y="-8" font-family="Helvetica,sans-Serif" font-size="10.00">Filter.cpp</text>
</a>
</g>
</g>
<!-- Node1&#45;&gt;Node10 -->
<g id="edge9" class="edge"><title>Node1&#45;&gt;Node10</title>
<path fill="none" stroke="midnightblue" d="M2344.37,-113.856C2156.15,-107.531 1628.96,-87.2784 1459,-54 1455.92,-53.3966 1452.79,-52.7048 1449.65,-51.9444"/>
<polygon fill="midnightblue" stroke="midnightblue" points="2344.3,-117.356 2354.41,-114.191 2344.53,-110.359 2344.3,-117.356"/>
</g>
<!-- Node11 -->
<g id="node11" class="node"><title>Node11</title>
<g id="a_node11"><a xlink:href="_dot_j_nu_8cpp.html" target="_top" xlink:title="/home/travis/build\l/robotology/wb&#45;toolbox\l/toolbox/library/src/DotJNu.cpp">
<polygon fill="none" stroke="black" points="1468,-6.5 1468,-47.5 1620,-47.5 1620,-6.5 1468,-6.5"/>
<text text-anchor="start" x="1476" y="-35.5" font-family="Helvetica,sans-Serif" font-size="10.00">/home/travis/build</text>
<text text-anchor="start" x="1476" y="-24.5" font-family="Helvetica,sans-Serif" font-size="10.00">/robotology/wb&#45;toolbox</text>
<text text-anchor="middle" x="1544" y="-13.5" font-family="Helvetica,sans-Serif" font-size="10.00">/toolbox/library/src/DotJNu.cpp</text>
</a>
</g>
</g>
<!-- Node1&#45;&gt;Node11 -->
<g id="edge10" class="edge"><title>Node1&#45;&gt;Node11</title>
<path fill="none" stroke="midnightblue" d="M2344.15,-115.577C2207.54,-113.64 1890.12,-103.659 1629,-54 1620.21,-52.3278 1611.04,-50.0787 1602.11,-47.6"/>
<polygon fill="midnightblue" stroke="midnightblue" points="2344.41,-119.08 2354.45,-115.712 2344.5,-112.081 2344.41,-119.08"/>
</g>
<!-- Node12 -->
<g id="node12" class="node"><title>Node12</title>
<g id="a_node12"><a xlink:href="_forward_kinematics_8cpp.html" target="_top" xlink:title="/home/travis/build\l/robotology/wb&#45;toolbox\l/toolbox/library/src/Forward\lKinematics.cpp">
<polygon fill="none" stroke="black" points="1638.5,-1 1638.5,-53 1773.5,-53 1773.5,-1 1638.5,-1"/>
<text text-anchor="start" x="1646.5" y="-41" font-family="Helvetica,sans-Serif" font-size="10.00">/home/travis/build</text>
<text text-anchor="start" x="1646.5" y="-30" font-family="Helvetica,sans-Serif" font-size="10.00">/robotology/wb&#45;toolbox</text>
<text text-anchor="start" x="1646.5" y="-19" font-family="Helvetica,sans-Serif" font-size="10.00">/toolbox/library/src/Forward</text>
<text text-anchor="middle" x="1706" y="-8" font-family="Helvetica,sans-Serif" font-size="10.00">Kinematics.cpp</text>
</a>
</g>
</g>
<!-- Node1&#45;&gt;Node12 -->
<g id="edge11" class="edge"><title>Node1&#45;&gt;Node12</title>
<path fill="none" stroke="midnightblue" d="M2344.24,-114.458C2227.96,-110.677 1983.47,-97.7555 1782,-54 1779.27,-53.4081 1776.51,-52.7499 1773.73,-52.0396"/>
<polygon fill="midnightblue" stroke="midnightblue" points="2344.31,-117.961 2354.41,-114.776 2344.53,-110.965 2344.31,-117.961"/>
</g>
<!-- Node13 -->
<g id="node13" class="node"><title>Node13</title>
<g id="a_node13"><a xlink:href="_get_limits_8cpp.html" target="_top" xlink:title="/home/travis/build\l/robotology/wb&#45;toolbox\l/toolbox/library/src/GetLimits.cpp">
<polygon fill="none" stroke="black" points="1791.5,-6.5 1791.5,-47.5 1952.5,-47.5 1952.5,-6.5 1791.5,-6.5"/>
<text text-anchor="start" x="1799.5" y="-35.5" font-family="Helvetica,sans-Serif" font-size="10.00">/home/travis/build</text>
<text text-anchor="start" x="1799.5" y="-24.5" font-family="Helvetica,sans-Serif" font-size="10.00">/robotology/wb&#45;toolbox</text>
<text text-anchor="middle" x="1872" y="-13.5" font-family="Helvetica,sans-Serif" font-size="10.00">/toolbox/library/src/GetLimits.cpp</text>
</a>
</g>
</g>
<!-- Node1&#45;&gt;Node13 -->
<g id="edge12" class="edge"><title>Node1&#45;&gt;Node13</title>
<path fill="none" stroke="midnightblue" d="M2344.18,-109.737C2255.64,-100.86 2096.13,-82.459 1962,-54 1953.41,-52.1771 1944.44,-49.9665 1935.63,-47.6126"/>
<polygon fill="midnightblue" stroke="midnightblue" points="2344.06,-113.243 2354.36,-110.747 2344.75,-106.277 2344.06,-113.243"/>
</g>
<!-- Node14 -->
<g id="node14" class="node"><title>Node14</title>
<g id="a_node14"><a xlink:href="_get_measurement_8cpp.html" target="_top" xlink:title="/home/travis/build\l/robotology/wb&#45;toolbox\l/toolbox/library/src/GetMeasurement.cpp">
<polygon fill="none" stroke="black" points="1971,-6.5 1971,-47.5 2165,-47.5 2165,-6.5 1971,-6.5"/>
<text text-anchor="start" x="1979" y="-35.5" font-family="Helvetica,sans-Serif" font-size="10.00">/home/travis/build</text>
<text text-anchor="start" x="1979" y="-24.5" font-family="Helvetica,sans-Serif" font-size="10.00">/robotology/wb&#45;toolbox</text>
<text text-anchor="middle" x="2068" y="-13.5" font-family="Helvetica,sans-Serif" font-size="10.00">/toolbox/library/src/GetMeasurement.cpp</text>
</a>
</g>
</g>
<!-- Node1&#45;&gt;Node14 -->
<g id="edge13" class="edge"><title>Node1&#45;&gt;Node14</title>
<path fill="none" stroke="midnightblue" d="M2344.71,-98.7851C2287.21,-84.0761 2204.51,-62.9206 2144.51,-47.5715"/>
<polygon fill="midnightblue" stroke="midnightblue" points="2343.87,-102.183 2354.42,-101.271 2345.6,-95.4016 2343.87,-102.183"/>
</g>
<!-- Node15 -->
<g id="node15" class="node"><title>Node15</title>
<g id="a_node15"><a xlink:href="_inverse_dynamics_8cpp.html" target="_top" xlink:title="/home/travis/build\l/robotology/wb&#45;toolbox\l/toolbox/library/src/Inverse\lDynamics.cpp">
<polygon fill="none" stroke="black" points="2183,-1 2183,-53 2315,-53 2315,-1 2183,-1"/>
<text text-anchor="start" x="2191" y="-41" font-family="Helvetica,sans-Serif" font-size="10.00">/home/travis/build</text>
<text text-anchor="start" x="2191" y="-30" font-family="Helvetica,sans-Serif" font-size="10.00">/robotology/wb&#45;toolbox</text>
<text text-anchor="start" x="2191" y="-19" font-family="Helvetica,sans-Serif" font-size="10.00">/toolbox/library/src/Inverse</text>
<text text-anchor="middle" x="2249" y="-8" font-family="Helvetica,sans-Serif" font-size="10.00">Dynamics.cpp</text>
</a>
</g>
</g>
<!-- Node1&#45;&gt;Node15 -->
<g id="edge14" class="edge"><title>Node1&#45;&gt;Node15</title>
<path fill="none" stroke="midnightblue" d="M2356.36,-85.9601C2336.52,-75.2526 2314.41,-63.3145 2295.43,-53.0687"/>
<polygon fill="midnightblue" stroke="midnightblue" points="2354.83,-89.1119 2365.29,-90.7827 2358.15,-82.9522 2354.83,-89.1119"/>
</g>
<!-- Node16 -->
<g id="node16" class="node"><title>Node16</title>
<g id="a_node16"><a xlink:href="_jacobian_8cpp.html" target="_top" xlink:title="/home/travis/build\l/robotology/wb&#45;toolbox\l/toolbox/library/src/Jacobian.cpp">
<polygon fill="none" stroke="black" points="2333,-6.5 2333,-47.5 2491,-47.5 2491,-6.5 2333,-6.5"/>
<text text-anchor="start" x="2341" y="-35.5" font-family="Helvetica,sans-Serif" font-size="10.00">/home/travis/build</text>
<text text-anchor="start" x="2341" y="-24.5" font-family="Helvetica,sans-Serif" font-size="10.00">/robotology/wb&#45;toolbox</text>
<text text-anchor="middle" x="2412" y="-13.5" font-family="Helvetica,sans-Serif" font-size="10.00">/toolbox/library/src/Jacobian.cpp</text>
</a>
</g>
</g>
<!-- Node1&#45;&gt;Node16 -->
<g id="edge15" class="edge"><title>Node1&#45;&gt;Node16</title>
<path fill="none" stroke="midnightblue" d="M2412,-80.5147C2412,-69.2575 2412,-57.227 2412,-47.5249"/>
<polygon fill="midnightblue" stroke="midnightblue" points="2408.5,-80.5467 2412,-90.5468 2415.5,-80.5468 2408.5,-80.5467"/>
</g>
<!-- Node17 -->
<g id="node17" class="node"><title>Node17</title>
<g id="a_node17"><a xlink:href="_mass_matrix_8cpp.html" target="_top" xlink:title="/home/travis/build\l/robotology/wb&#45;toolbox\l/toolbox/library/src/MassMatrix.cpp">
<polygon fill="none" stroke="black" points="2509,-6.5 2509,-47.5 2679,-47.5 2679,-6.5 2509,-6.5"/>
<text text-anchor="start" x="2517" y="-35.5" font-family="Helvetica,sans-Serif" font-size="10.00">/home/travis/build</text>
<text text-anchor="start" x="2517" y="-24.5" font-family="Helvetica,sans-Serif" font-size="10.00">/robotology/wb&#45;toolbox</text>
<text text-anchor="middle" x="2594" y="-13.5" font-family="Helvetica,sans-Serif" font-size="10.00">/toolbox/library/src/MassMatrix.cpp</text>
</a>
</g>
</g>
<!-- Node1&#45;&gt;Node17 -->
<g id="edge16" class="edge"><title>Node1&#45;&gt;Node17</title>
<path fill="none" stroke="midnightblue" d="M2473.32,-86.3521C2499.71,-73.5894 2529.85,-59.0175 2553.41,-47.6283"/>
<polygon fill="midnightblue" stroke="midnightblue" points="2471.63,-83.2787 2464.15,-90.7827 2474.68,-89.5807 2471.63,-83.2787"/>
</g>
<!-- Node18 -->
<g id="node18" class="node"><title>Node18</title>
<g id="a_node18"><a xlink:href="_minimum_jerk_trajectory_generator_8cpp.html" target="_top" xlink:title="/home/travis/build\l/robotology/wb&#45;toolbox\l/toolbox/library/src/Minimum\lJerkTrajectoryGenerator.cpp">
<polygon fill="none" stroke="black" points="2697,-1 2697,-53 2837,-53 2837,-1 2697,-1"/>
<text text-anchor="start" x="2705" y="-41" font-family="Helvetica,sans-Serif" font-size="10.00">/home/travis/build</text>
<text text-anchor="start" x="2705" y="-30" font-family="Helvetica,sans-Serif" font-size="10.00">/robotology/wb&#45;toolbox</text>
<text text-anchor="start" x="2705" y="-19" font-family="Helvetica,sans-Serif" font-size="10.00">/toolbox/library/src/Minimum</text>
<text text-anchor="middle" x="2767" y="-8" font-family="Helvetica,sans-Serif" font-size="10.00">JerkTrajectoryGenerator.cpp</text>
</a>
</g>
</g>
<!-- Node1&#45;&gt;Node18 -->
<g id="edge17" class="edge"><title>Node1&#45;&gt;Node18</title>
<path fill="none" stroke="midnightblue" d="M2479.59,-102.727C2535.74,-91.2429 2617.55,-73.4557 2688,-54 2690.92,-53.1928 2693.9,-52.3431 2696.9,-51.4632"/>
<polygon fill="midnightblue" stroke="midnightblue" points="2478.86,-99.3033 2469.76,-104.726 2480.25,-106.163 2478.86,-99.3033"/>
</g>
<!-- Node19 -->
<g id="node19" class="node"><title>Node19</title>
<g id="a_node19"><a xlink:href="_qp_oases_8cpp.html" target="_top" xlink:title="/home/travis/build\l/robotology/wb&#45;toolbox\l/toolbox/library/src/QpOases.cpp">
<polygon fill="none" stroke="black" points="2855,-6.5 2855,-47.5 3015,-47.5 3015,-6.5 2855,-6.5"/>
<text text-anchor="start" x="2863" y="-35.5" font-family="Helvetica,sans-Serif" font-size="10.00">/home/travis/build</text>
<text text-anchor="start" x="2863" y="-24.5" font-family="Helvetica,sans-Serif" font-size="10.00">/robotology/wb&#45;toolbox</text>
<text text-anchor="middle" x="2935" y="-13.5" font-family="Helvetica,sans-Serif" font-size="10.00">/toolbox/library/src/QpOases.cpp</text>
</a>
</g>
</g>
<!-- Node1&#45;&gt;Node19 -->
<g id="edge18" class="edge"><title>Node1&#45;&gt;Node19</title>
<path fill="none" stroke="midnightblue" d="M2479.82,-109.335C2565.68,-100.207 2717.86,-81.7219 2846,-54 2854.5,-52.1619 2863.37,-49.9425 2872.08,-47.5842"/>
<polygon fill="midnightblue" stroke="midnightblue" points="2479.26,-105.875 2469.68,-110.402 2479.99,-112.836 2479.26,-105.875"/>
</g>
<!-- Node20 -->
<g id="node20" class="node"><title>Node20</title>
<g id="a_node20"><a xlink:href="_real_time_synchronizer_8cpp.html" target="_top" xlink:title="/home/travis/build\l/robotology/wb&#45;toolbox\l/toolbox/library/src/RealTime\lSynchronizer.cpp">
<polygon fill="none" stroke="black" points="3033,-1 3033,-53 3175,-53 3175,-1 3033,-1"/>
<text text-anchor="start" x="3041" y="-41" font-family="Helvetica,sans-Serif" font-size="10.00">/home/travis/build</text>
<text text-anchor="start" x="3041" y="-30" font-family="Helvetica,sans-Serif" font-size="10.00">/robotology/wb&#45;toolbox</text>
<text text-anchor="start" x="3041" y="-19" font-family="Helvetica,sans-Serif" font-size="10.00">/toolbox/library/src/RealTime</text>
<text text-anchor="middle" x="3104" y="-8" font-family="Helvetica,sans-Serif" font-size="10.00">Synchronizer.cpp</text>
</a>
</g>
</g>
<!-- Node1&#45;&gt;Node20 -->
<g id="edge19" class="edge"><title>Node1&#45;&gt;Node20</title>
<path fill="none" stroke="midnightblue" d="M2479.86,-113.844C2593.55,-109.184 2829.18,-95.0355 3024,-54 3026.86,-53.398 3029.76,-52.7314 3032.68,-52.0139"/>
<polygon fill="midnightblue" stroke="midnightblue" points="2479.43,-110.358 2469.58,-114.253 2479.71,-117.353 2479.43,-110.358"/>
</g>
<!-- Node21 -->
<g id="node21" class="node"><title>Node21</title>
<g id="a_node21"><a xlink:href="_relative_transform_8cpp.html" target="_top" xlink:title="/home/travis/build\l/robotology/wb&#45;toolbox\l/toolbox/library/src/Relative\lTransform.cpp">
<polygon fill="none" stroke="black" points="3193,-1 3193,-53 3329,-53 3329,-1 3193,-1"/>
<text text-anchor="start" x="3201" y="-41" font-family="Helvetica,sans-Serif" font-size="10.00">/home/travis/build</text>
<text text-anchor="start" x="3201" y="-30" font-family="Helvetica,sans-Serif" font-size="10.00">/robotology/wb&#45;toolbox</text>
<text text-anchor="start" x="3201" y="-19" font-family="Helvetica,sans-Serif" font-size="10.00">/toolbox/library/src/Relative</text>
<text text-anchor="middle" x="3261" y="-8" font-family="Helvetica,sans-Serif" font-size="10.00">Transform.cpp</text>
</a>
</g>
</g>
<!-- Node1&#45;&gt;Node21 -->
<g id="edge20" class="edge"><title>Node1&#45;&gt;Node21</title>
<path fill="none" stroke="midnightblue" d="M2480.04,-116.108C2615.5,-115.103 2927.93,-106.68 3184,-54 3186.9,-53.403 3189.85,-52.7289 3192.81,-51.9945"/>
<polygon fill="midnightblue" stroke="midnightblue" points="2479.8,-112.609 2469.82,-116.172 2479.84,-119.609 2479.8,-112.609"/>
</g>
<!-- Node22 -->
<g id="node22" class="node"><title>Node22</title>
<g id="a_node22"><a xlink:href="_robot_interface_8cpp.html" target="_top" xlink:title="/home/travis/build\l/robotology/wb&#45;toolbox\l/toolbox/library/src/RobotInterface.cpp">
<polygon fill="none" stroke="black" points="3347.5,-6.5 3347.5,-47.5 3530.5,-47.5 3530.5,-6.5 3347.5,-6.5"/>
<text text-anchor="start" x="3355.5" y="-35.5" font-family="Helvetica,sans-Serif" font-size="10.00">/home/travis/build</text>
<text text-anchor="start" x="3355.5" y="-24.5" font-family="Helvetica,sans-Serif" font-size="10.00">/robotology/wb&#45;toolbox</text>
<text text-anchor="middle" x="3439" y="-13.5" font-family="Helvetica,sans-Serif" font-size="10.00">/toolbox/library/src/RobotInterface.cpp</text>
</a>
</g>
</g>
<!-- Node1&#45;&gt;Node22 -->
<g id="edge21" class="edge"><title>Node1&#45;&gt;Node22</title>
<path fill="none" stroke="midnightblue" d="M2479.81,-115.741C2633.51,-114.223 3019.79,-105.158 3338,-54 3348.46,-52.3187 3359.41,-50.0481 3370.09,-47.5453"/>
<polygon fill="midnightblue" stroke="midnightblue" points="2479.55,-112.243 2469.58,-115.834 2479.61,-119.243 2479.55,-112.243"/>
</g>
<!-- Node23 -->
<g id="node23" class="node"><title>Node23</title>
<g id="a_node23"><a xlink:href="_set_motor_parameters_8cpp.html" target="_top" xlink:title="/home/travis/build\l/robotology/wb&#45;toolbox\l/toolbox/library/src/SetMotor\lParameters.cpp">
<polygon fill="none" stroke="black" points="3549,-1 3549,-53 3689,-53 3689,-1 3549,-1"/>
<text text-anchor="start" x="3557" y="-41" font-family="Helvetica,sans-Serif" font-size="10.00">/home/travis/build</text>
<text text-anchor="start" x="3557" y="-30" font-family="Helvetica,sans-Serif" font-size="10.00">/robotology/wb&#45;toolbox</text>
<text text-anchor="start" x="3557" y="-19" font-family="Helvetica,sans-Serif" font-size="10.00">/toolbox/library/src/SetMotor</text>
<text text-anchor="middle" x="3619" y="-8" font-family="Helvetica,sans-Serif" font-size="10.00">Parameters.cpp</text>
</a>
</g>
</g>
<!-- Node1&#45;&gt;Node23 -->
<g id="edge22" class="edge"><title>Node1&#45;&gt;Node23</title>
<path fill="none" stroke="midnightblue" d="M2479.68,-114.575C2690.56,-109.771 3333.96,-92.2851 3539,-54 3542.16,-53.4103 3545.36,-52.7299 3548.59,-51.9788"/>
<polygon fill="midnightblue" stroke="midnightblue" points="2479.58,-111.076 2469.67,-114.8 2479.74,-118.074 2479.58,-111.076"/>
</g>
<!-- Node24 -->
<g id="node24" class="node"><title>Node24</title>
<g id="a_node24"><a xlink:href="_set_references_8cpp.html" target="_top" xlink:title="/home/travis/build\l/robotology/wb&#45;toolbox\l/toolbox/library/src/SetReferences.cpp">
<polygon fill="none" stroke="black" points="3707,-6.5 3707,-47.5 3891,-47.5 3891,-6.5 3707,-6.5"/>
<text text-anchor="start" x="3715" y="-35.5" font-family="Helvetica,sans-Serif" font-size="10.00">/home/travis/build</text>
<text text-anchor="start" x="3715" y="-24.5" font-family="Helvetica,sans-Serif" font-size="10.00">/robotology/wb&#45;toolbox</text>
<text text-anchor="middle" x="3799" y="-13.5" font-family="Helvetica,sans-Serif" font-size="10.00">/toolbox/library/src/SetReferences.cpp</text>
</a>
</g>
</g>
<!-- Node1&#45;&gt;Node24 -->
<g id="edge23" class="edge"><title>Node1&#45;&gt;Node24</title>
<path fill="none" stroke="midnightblue" d="M2479.9,-114.553C2710.08,-109.361 3459.66,-90.038 3698,-54 3708.74,-52.3758 3720,-50.0848 3730.93,-47.5286"/>
<polygon fill="midnightblue" stroke="midnightblue" points="2479.58,-111.059 2469.66,-114.782 2479.74,-118.057 2479.58,-111.059"/>
</g>
<!-- Node25 -->
<g id="node25" class="node"><title>Node25</title>
<g id="a_node25"><a xlink:href="_simulator_synchronizer_8cpp.html" target="_top" xlink:title="/home/travis/build\l/robotology/wb&#45;toolbox\l/toolbox/library/src/Simulator\lSynchronizer.cpp">
<polygon fill="none" stroke="black" points="3909.5,-1 3909.5,-53 4050.5,-53 4050.5,-1 3909.5,-1"/>
<text text-anchor="start" x="3917.5" y="-41" font-family="Helvetica,sans-Serif" font-size="10.00">/home/travis/build</text>
<text text-anchor="start" x="3917.5" y="-30" font-family="Helvetica,sans-Serif" font-size="10.00">/robotology/wb&#45;toolbox</text>
<text text-anchor="start" x="3917.5" y="-19" font-family="Helvetica,sans-Serif" font-size="10.00">/toolbox/library/src/Simulator</text>
<text text-anchor="middle" x="3980" y="-8" font-family="Helvetica,sans-Serif" font-size="10.00">Synchronizer.cpp</text>
</a>
</g>
</g>
<!-- Node1&#45;&gt;Node25 -->
<g id="edge24" class="edge"><title>Node1&#45;&gt;Node25</title>
<path fill="none" stroke="midnightblue" d="M2479.78,-115.623C2732.79,-113.834 3621.71,-104.048 3900,-54 3903.02,-53.4572 3906.08,-52.8284 3909.16,-52.1316"/>
<polygon fill="midnightblue" stroke="midnightblue" points="2479.6,-112.124 2469.63,-115.692 2479.65,-119.123 2479.6,-112.124"/>
</g>
<!-- Node26 -->
<g id="node26" class="node"><title>Node26</title>
<g id="a_node26"><a xlink:href="_w_b_block_8cpp.html" target="_top" xlink:title="/home/travis/build\l/robotology/wb&#45;toolbox\l/toolbox/library/src/WBBlock.cpp">
<polygon fill="none" stroke="black" points="4069,-6.5 4069,-47.5 4229,-47.5 4229,-6.5 4069,-6.5"/>
<text text-anchor="start" x="4077" y="-35.5" font-family="Helvetica,sans-Serif" font-size="10.00">/home/travis/build</text>
<text text-anchor="start" x="4077" y="-24.5" font-family="Helvetica,sans-Serif" font-size="10.00">/robotology/wb&#45;toolbox</text>
<text text-anchor="middle" x="4149" y="-13.5" font-family="Helvetica,sans-Serif" font-size="10.00">/toolbox/library/src/WBBlock.cpp</text>
</a>
</g>
</g>
<!-- Node1&#45;&gt;Node26 -->
<g id="edge25" class="edge"><title>Node1&#45;&gt;Node26</title>
<path fill="none" stroke="midnightblue" d="M2479.67,-115.647C2749.26,-113.901 3747.3,-104.119 4059,-54 4068.8,-52.425 4079.03,-50.1243 4088.94,-47.5333"/>
<polygon fill="midnightblue" stroke="midnightblue" points="2479.61,-112.147 2469.63,-115.71 2479.65,-119.147 2479.61,-112.147"/>
</g>
<!-- Node27 -->
<g id="node27" class="node"><title>Node27</title>
<g id="a_node27"><a xlink:href="_whole_body_singleton_8cpp.html" target="_top" xlink:title="/home/travis/build\l/robotology/wb&#45;toolbox\l/toolbox/library/src/WholeBody\lSingleton.cpp">
<polygon fill="none" stroke="black" points="4247,-1 4247,-53 4397,-53 4397,-1 4247,-1"/>
<text text-anchor="start" x="4255" y="-41" font-family="Helvetica,sans-Serif" font-size="10.00">/home/travis/build</text>
<text text-anchor="start" x="4255" y="-30" font-family="Helvetica,sans-Serif" font-size="10.00">/robotology/wb&#45;toolbox</text>
<text text-anchor="start" x="4255" y="-19" font-family="Helvetica,sans-Serif" font-size="10.00">/toolbox/library/src/WholeBody</text>
<text text-anchor="middle" x="4322" y="-8" font-family="Helvetica,sans-Serif" font-size="10.00">Singleton.cpp</text>
</a>
</g>
</g>
<!-- Node1&#45;&gt;Node27 -->
<g id="edge26" class="edge"><title>Node1&#45;&gt;Node27</title>
<path fill="none" stroke="midnightblue" d="M2480.23,-116.107C2768.8,-116.188 3890.22,-112.645 4238,-54 4240.86,-53.5177 4243.76,-52.9638 4246.67,-52.3515"/>
<polygon fill="midnightblue" stroke="midnightblue" points="2479.91,-112.607 2469.91,-116.103 2479.91,-119.607 2479.91,-112.607"/>
</g>
<!-- Node28 -->
<g id="node28" class="node"><title>Node28</title>
<g id="a_node28"><a xlink:href="_yarp_clock_8cpp.html" target="_top" xlink:title="/home/travis/build\l/robotology/wb&#45;toolbox\l/toolbox/library/src/YarpClock.cpp">
<polygon fill="none" stroke="black" points="4415,-6.5 4415,-47.5 4579,-47.5 4579,-6.5 4415,-6.5"/>
<text text-anchor="start" x="4423" y="-35.5" font-family="Helvetica,sans-Serif" font-size="10.00">/home/travis/build</text>
<text text-anchor="start" x="4423" y="-24.5" font-family="Helvetica,sans-Serif" font-size="10.00">/robotology/wb&#45;toolbox</text>
<text text-anchor="middle" x="4497" y="-13.5" font-family="Helvetica,sans-Serif" font-size="10.00">/toolbox/library/src/YarpClock.cpp</text>
</a>
</g>
</g>
<!-- Node1&#45;&gt;Node28 -->
<g id="edge27" class="edge"><title>Node1&#45;&gt;Node28</title>
<path fill="none" stroke="midnightblue" d="M2480.3,-116.111C2785.02,-116.262 4022.09,-113.149 4405,-54 4415.01,-52.4543 4425.47,-50.1691 4435.6,-47.5844"/>
<polygon fill="midnightblue" stroke="midnightblue" points="2479.86,-112.611 2469.86,-116.104 2479.86,-119.611 2479.86,-112.611"/>
</g>
<!-- Node29 -->
<g id="node29" class="node"><title>Node29</title>
<g id="a_node29"><a xlink:href="_yarp_read_8cpp.html" target="_top" xlink:title="/home/travis/build\l/robotology/wb&#45;toolbox\l/toolbox/library/src/YarpRead.cpp">
<polygon fill="none" stroke="black" points="4597,-6.5 4597,-47.5 4759,-47.5 4759,-6.5 4597,-6.5"/>
<text text-anchor="start" x="4605" y="-35.5" font-family="Helvetica,sans-Serif" font-size="10.00">/home/travis/build</text>
<text text-anchor="start" x="4605" y="-24.5" font-family="Helvetica,sans-Serif" font-size="10.00">/robotology/wb&#45;toolbox</text>
<text text-anchor="middle" x="4678" y="-13.5" font-family="Helvetica,sans-Serif" font-size="10.00">/toolbox/library/src/YarpRead.cpp</text>
</a>
</g>
</g>
<!-- Node1&#45;&gt;Node29 -->
<g id="edge28" class="edge"><title>Node1&#45;&gt;Node29</title>
<path fill="none" stroke="midnightblue" d="M2479.68,-116.37C2800.18,-117.769 4167.12,-119.703 4588,-54 4597.8,-52.4698 4608.04,-50.1926 4617.96,-47.6113"/>
<polygon fill="midnightblue" stroke="midnightblue" points="2479.63,-112.869 2469.62,-116.324 2479.6,-119.869 2479.63,-112.869"/>
</g>
<!-- Node30 -->
<g id="node30" class="node"><title>Node30</title>
<g id="a_node30"><a xlink:href="_yarp_write_8cpp.html" target="_top" xlink:title="/home/travis/build\l/robotology/wb&#45;toolbox\l/toolbox/library/src/YarpWrite.cpp">
<polygon fill="none" stroke="black" points="4777,-6.5 4777,-47.5 4939,-47.5 4939,-6.5 4777,-6.5"/>
<text text-anchor="start" x="4785" y="-35.5" font-family="Helvetica,sans-Serif" font-size="10.00">/home/travis/build</text>
<text text-anchor="start" x="4785" y="-24.5" font-family="Helvetica,sans-Serif" font-size="10.00">/robotology/wb&#45;toolbox</text>
<text text-anchor="middle" x="4858" y="-13.5" font-family="Helvetica,sans-Serif" font-size="10.00">/toolbox/library/src/YarpWrite.cpp</text>
</a>
</g>
</g>
<!-- Node1&#45;&gt;Node30 -->
<g id="edge29" class="edge"><title>Node1&#45;&gt;Node30</title>
<path fill="none" stroke="midnightblue" d="M2479.77,-115.246C2841.49,-111.085 4537.03,-89.7992 4768,-54 4777.96,-52.4555 4788.38,-50.1341 4798.45,-47.5027"/>
<polygon fill="midnightblue" stroke="midnightblue" points="2479.67,-111.747 2469.71,-115.361 2479.75,-118.747 2479.67,-111.747"/>
</g>
</g>
</svg>
        <g id="navigator" transform="translate(0 0)" fill="#404254">
                <rect fill="#f2f5e9" fill-opacity="0.5" stroke="#606060" stroke-width=".5" x="0" y="0" width="60" height="60"/>
                <use id="zoomplus" xlink:href="#zoomPlus" x="17" y="9" onmousedown="handleZoom(evt,'in')"/>
                <use id="zoomminus" xlink:href="#zoomMin" x="42" y="9" onmousedown="handleZoom(evt,'out')"/>
                <use id="reset" xlink:href="#resetDef" x="30" y="36" onmousedown="handleReset()"/>
                <g id="arrowUp" xlink:href="#dirArrow" transform="translate(30 24)" onmousedown="handlePan(0,-1)">
                  <use xlink:href="#rim" fill="#404040">
                        <set attributeName="fill" to="#808080" begin="arrowUp.mouseover" end="arrowUp.mouseout"/>
                  </use>
                  <path fill="none" stroke="white" stroke-width="1.5" d="M0,-3.0v7 M-2.5,-0.5L0,-3.0L2.5,-0.5"/>
                </g>
                <g id="arrowRight" xlink:href="#dirArrow" transform="rotate(90) translate(36 -43)" onmousedown="handlePan(1,0)">
                  <use xlink:href="#rim" fill="#404040">
                        <set attributeName="fill" to="#808080" begin="arrowRight.mouseover" end="arrowRight.mouseout"/>
                  </use>
                  <path fill="none" stroke="white" stroke-width="1.5" d="M0,-3.0v7 M-2.5,-0.5L0,-3.0L2.5,-0.5"/>
                </g>
                <g id="arrowDown" xlink:href="#dirArrow" transform="rotate(180) translate(-30 -48)" onmousedown="handlePan(0,1)">
                  <use xlink:href="#rim" fill="#404040">
                        <set attributeName="fill" to="#808080" begin="arrowDown.mouseover" end="arrowDown.mouseout"/>
                  </use>
                  <path fill="none" stroke="white" stroke-width="1.5" d="M0,-3.0v7 M-2.5,-0.5L0,-3.0L2.5,-0.5"/>
                </g>
                <g id="arrowLeft" xlink:href="#dirArrow" transform="rotate(270) translate(-36 17)" onmousedown="handlePan(-1,0)">
                  <use xlink:href="#rim" fill="#404040">
                        <set attributeName="fill" to="#808080" begin="arrowLeft.mouseover" end="arrowLeft.mouseout"/>
                  </use>
                  <path fill="none" stroke="white" stroke-width="1.5" d="M0,-3.0v7 M-2.5,-0.5L0,-3.0L2.5,-0.5"/>
                </g>
        </g>
        <svg viewBox="0 0 15 15" width="100%" height="30px" preserveAspectRatio="xMaxYMin meet">
         <g id="arrow_out" transform="scale(0.3 0.3)">
          <a xlink:href="_log_8h__dep__incl_org.svg" target="_base">
           <rect id="button" ry="5" rx="5" y="6" x="6" height="38" width="38"
                fill="#f2f5e9" fill-opacity="0.5" stroke="#606060" stroke-width="1.0"/>
           <path id="arrow"
             d="M 11.500037,31.436501 C 11.940474,20.09759 22.043105,11.32322 32.158766,21.979434 L 37.068811,17.246167 C 37.068811,17.246167 37.088388,32 37.088388,32 L 22.160133,31.978069 C 22.160133,31.978069 26.997745,27.140456 26.997745,27.140456 C 18.528582,18.264221 13.291696,25.230495 11.500037,31.436501 z"
             style="fill:#404040;"/>
          </a>
         </g>
        </svg>
</svg>
