<?xml version="1.0" encoding="UTF-8" standalone="no"?>
<!DOCTYPE svg PUBLIC "-//W3C//DTD SVG 1.1//EN"
 "http://www.w3.org/Graphics/SVG/1.1/DTD/svg11.dtd">
<!-- Generated by graphviz version 2.36.0 (20140111.2315)
 -->
<!-- Title: /home/travis/build/robotology/wb&#45;toolbox/toolbox/src/base/Log.cpp Pages: 1 -->
<svg width="214pt" height="162pt"
 viewBox="0.00 0.00 214.00 162.00" xmlns="http://www.w3.org/2000/svg" xmlns:xlink="http://www.w3.org/1999/xlink">
<g id="graph0" class="graph" transform="scale(1 1) rotate(0) translate(4 158)">
<title>/home/travis/build/robotology/wb&#45;toolbox/toolbox/src/base/Log.cpp</title>
<!-- Node1 -->
<g id="node1" class="node"><title>Node1</title>
<polygon fill="#bfbfbf" stroke="black" points="50.5,-112.5 50.5,-153.5 179.5,-153.5 179.5,-112.5 50.5,-112.5"/>
<text text-anchor="start" x="58.5" y="-141.5" font-family="Helvetica,sans-Serif" font-size="10.00">/home/travis/build</text>
<text text-anchor="start" x="58.5" y="-130.5" font-family="Helvetica,sans-Serif" font-size="10.00">/robotology/wb&#45;toolbox</text>
<text text-anchor="middle" x="115" y="-119.5" font-family="Helvetica,sans-Serif" font-size="10.00">/toolbox/src/base/Log.cpp</text>
</g>
<!-- Node2 -->
<g id="node2" class="node"><title>Node2</title>
<g id="a_node2"><a xlink:href="_log_8h.html" target="_top" xlink:title="Log.h">
<polygon fill="none" stroke="black" points="29.5,-56.5 29.5,-75.5 70.5,-75.5 70.5,-56.5 29.5,-56.5"/>
<text text-anchor="middle" x="50" y="-63.5" font-family="Helvetica,sans-Serif" font-size="10.00">Log.h</text>
</a>
</g>
</g>
<!-- Node1&#45;&gt;Node2 -->
<g id="edge1" class="edge"><title>Node1&#45;&gt;Node2</title>
<path fill="none" stroke="midnightblue" d="M95.4979,-112.498C86.0113,-103.011 74.7557,-91.7557 65.8131,-82.8131"/>
<polygon fill="midnightblue" stroke="midnightblue" points="68.1985,-80.2487 58.6525,-75.6525 63.2487,-85.1985 68.1985,-80.2487"/>
</g>
<!-- Node5 -->
<g id="node5" class="node"><title>Node5</title>
<polygon fill="none" stroke="#bfbfbf" points="89,-56.5 89,-75.5 141,-75.5 141,-56.5 89,-56.5"/>
<text text-anchor="middle" x="115" y="-63.5" font-family="Helvetica,sans-Serif" font-size="10.00">sstream</text>
</g>
<!-- Node1&#45;&gt;Node5 -->
<g id="edge4" class="edge"><title>Node1&#45;&gt;Node5</title>
<path fill="none" stroke="midnightblue" d="M115,-112.498C115,-104.065 115,-94.2351 115,-85.874"/>
<polygon fill="midnightblue" stroke="midnightblue" points="118.5,-85.6525 115,-75.6525 111.5,-85.6525 118.5,-85.6525"/>
</g>
<!-- Node6 -->
<g id="node6" class="node"><title>Node6</title>
<polygon fill="none" stroke="#bfbfbf" points="159.5,-56.5 159.5,-75.5 206.5,-75.5 206.5,-56.5 159.5,-56.5"/>
<text text-anchor="middle" x="183" y="-63.5" font-family="Helvetica,sans-Serif" font-size="10.00">iterator</text>
</g>
<!-- Node1&#45;&gt;Node6 -->
<g id="edge5" class="edge"><title>Node1&#45;&gt;Node6</title>
<path fill="none" stroke="midnightblue" d="M135.402,-112.498C145.327,-103.011 157.102,-91.7557 166.457,-82.8131"/>
<polygon fill="midnightblue" stroke="midnightblue" points="169.138,-85.0924 173.948,-75.6525 164.301,-80.0323 169.138,-85.0924"/>
</g>
<!-- Node3 -->
<g id="node3" class="node"><title>Node3</title>
<polygon fill="none" stroke="#bfbfbf" points="-0.5,-0.5 -0.5,-19.5 40.5,-19.5 40.5,-0.5 -0.5,-0.5"/>
<text text-anchor="middle" x="20" y="-7.5" font-family="Helvetica,sans-Serif" font-size="10.00">string</text>
</g>
<!-- Node2&#45;&gt;Node3 -->
<g id="edge2" class="edge"><title>Node2&#45;&gt;Node3</title>
<path fill="none" stroke="midnightblue" d="M45.0461,-56.083C40.8959,-48.6127 34.8469,-37.7244 29.7333,-28.5199"/>
<polygon fill="midnightblue" stroke="midnightblue" points="32.7777,-26.7929 24.8617,-19.7511 26.6586,-30.1924 32.7777,-26.7929"/>
</g>
<!-- Node4 -->
<g id="node4" class="node"><title>Node4</title>
<polygon fill="none" stroke="#bfbfbf" points="59,-0.5 59,-19.5 103,-19.5 103,-0.5 59,-0.5"/>
<text text-anchor="middle" x="81" y="-7.5" font-family="Helvetica,sans-Serif" font-size="10.00">vector</text>
</g>
<!-- Node2&#45;&gt;Node4 -->
<g id="edge3" class="edge"><title>Node2&#45;&gt;Node4</title>
<path fill="none" stroke="midnightblue" d="M55.119,-56.083C59.4075,-48.6127 65.6582,-37.7244 70.9423,-28.5199"/>
<polygon fill="midnightblue" stroke="midnightblue" points="74.0329,-30.1662 75.9762,-19.7511 67.9621,-26.6811 74.0329,-30.1662"/>
</g>
</g>
</svg>
