<?xml version="1.0" encoding="UTF-8" standalone="no"?>
<!DOCTYPE svg PUBLIC "-//W3C//DTD SVG 1.1//EN"
 "http://www.w3.org/Graphics/SVG/1.1/DTD/svg11.dtd">
<!-- Generated by graphviz version 2.38.0 (20140413.2041)
 -->
<!-- Title: /home/travis/build/robotology/wb&#45;toolbox/toolbox/library/src/MassMatrix.cpp Pages: 1 -->
<svg width="1674pt" height="218pt"
 viewBox="0.00 0.00 1673.50 218.00" xmlns="http://www.w3.org/2000/svg" xmlns:xlink="http://www.w3.org/1999/xlink">
<g id="graph0" class="graph" transform="scale(1 1) rotate(0) translate(4 214)">
<title>/home/travis/build/robotology/wb&#45;toolbox/toolbox/library/src/MassMatrix.cpp</title>
<!-- Node1 -->
<g id="node1" class="node"><title>Node1</title>
<polygon fill="#bfbfbf" stroke="black" points="798,-168.5 798,-209.5 980,-209.5 980,-168.5 798,-168.5"/>
<text text-anchor="start" x="806" y="-197.5" font-family="Helvetica,sans-Serif" font-size="10.00">/home/travis/build</text>
<text text-anchor="start" x="806" y="-186.5" font-family="Helvetica,sans-Serif" font-size="10.00">/robotology/wb&#45;toolbox</text>
<text text-anchor="middle" x="889" y="-175.5" font-family="Helvetica,sans-Serif" font-size="10.00">/toolbox/library/src/MassMatrix.cpp</text>
</g>
<!-- Node2 -->
<g id="node2" class="node"><title>Node2</title>
<g id="a_node2"><a xlink:href="_mass_matrix_8h.html" target="_top" xlink:title="WBToolbox/Block/MassMatrix.h">
<polygon fill="none" stroke="black" points="112.5,-112.5 112.5,-131.5 273.5,-131.5 273.5,-112.5 112.5,-112.5"/>
<text text-anchor="middle" x="193" y="-119.5" font-family="Helvetica,sans-Serif" font-size="10.00">WBToolbox/Block/MassMatrix.h</text>
</a>
</g>
</g>
<!-- Node1&#45;&gt;Node2 -->
<g id="edge1" class="edge"><title>Node1&#45;&gt;Node2</title>
<path fill="none" stroke="midnightblue" d="M797.653,-179.469C664.121,-166.998 417.072,-143.926 283.833,-131.483"/>
<polygon fill="midnightblue" stroke="midnightblue" points="283.938,-127.978 273.655,-130.532 283.287,-134.947 283.938,-127.978"/>
</g>
<!-- Node7 -->
<g id="node7" class="node"><title>Node7</title>
<g id="a_node7"><a xlink:href="_configuration_8h.html" target="_top" xlink:title="WBToolbox/Base/Configuration.h">
<polygon fill="none" stroke="black" points="434,-56.5 434,-75.5 604,-75.5 604,-56.5 434,-56.5"/>
<text text-anchor="middle" x="519" y="-63.5" font-family="Helvetica,sans-Serif" font-size="10.00">WBToolbox/Base/Configuration.h</text>
</a>
</g>
</g>
<!-- Node1&#45;&gt;Node7 -->
<g id="edge8" class="edge"><title>Node1&#45;&gt;Node7</title>
<path fill="none" stroke="midnightblue" d="M797.952,-184.35C660.222,-177.882 411.99,-162.155 385,-132 360.231,-104.326 405.442,-87.2444 449.901,-77.5803"/>
<polygon fill="midnightblue" stroke="midnightblue" points="450.856,-80.9573 459.945,-75.5136 449.445,-74.101 450.856,-80.9573"/>
</g>
<!-- Node10 -->
<g id="node10" class="node"><title>Node10</title>
<g id="a_node10"><a xlink:href="_robot_interface_8h.html" target="_top" xlink:title="WBToolbox/Base/RobotInterface.h">
<polygon fill="none" stroke="black" points="240.5,-56.5 240.5,-75.5 415.5,-75.5 415.5,-56.5 240.5,-56.5"/>
<text text-anchor="middle" x="328" y="-63.5" font-family="Helvetica,sans-Serif" font-size="10.00">WBToolbox/Base/RobotInterface.h</text>
</a>
</g>
</g>
<!-- Node1&#45;&gt;Node10 -->
<g id="edge13" class="edge"><title>Node1&#45;&gt;Node10</title>
<path fill="none" stroke="midnightblue" d="M797.927,-186.847C669.955,-183.764 444.744,-172.55 375,-132 356.611,-121.308 343.433,-100.234 335.795,-84.9737"/>
<polygon fill="midnightblue" stroke="midnightblue" points="338.793,-83.1217 331.396,-75.5368 332.449,-86.0792 338.793,-83.1217"/>
</g>
<!-- Node13 -->
<g id="node13" class="node"><title>Node13</title>
<polygon fill="none" stroke="#bfbfbf" points="394,-112.5 394,-131.5 588,-131.5 588,-112.5 394,-112.5"/>
<text text-anchor="middle" x="491" y="-119.5" font-family="Helvetica,sans-Serif" font-size="10.00">BlockFactory/Core/BlockInformation.h</text>
</g>
<!-- Node1&#45;&gt;Node13 -->
<g id="edge18" class="edge"><title>Node1&#45;&gt;Node13</title>
<path fill="none" stroke="midnightblue" d="M797.691,-173.088C722.861,-160.867 618.96,-143.898 553.362,-133.185"/>
<polygon fill="midnightblue" stroke="midnightblue" points="553.606,-129.678 543.173,-131.521 552.478,-136.587 553.606,-129.678"/>
</g>
<!-- Node14 -->
<g id="node14" class="node"><title>Node14</title>
<polygon fill="none" stroke="#bfbfbf" points="606.5,-112.5 606.5,-131.5 737.5,-131.5 737.5,-112.5 606.5,-112.5"/>
<text text-anchor="middle" x="672" y="-119.5" font-family="Helvetica,sans-Serif" font-size="10.00">BlockFactory/Core/Log.h</text>
</g>
<!-- Node1&#45;&gt;Node14 -->
<g id="edge19" class="edge"><title>Node1&#45;&gt;Node14</title>
<path fill="none" stroke="midnightblue" d="M823.893,-168.498C786.831,-157.396 741.682,-143.872 710.284,-134.468"/>
<polygon fill="midnightblue" stroke="midnightblue" points="711.185,-131.084 700.601,-131.567 709.176,-137.789 711.185,-131.084"/>
</g>
<!-- Node15 -->
<g id="node15" class="node"><title>Node15</title>
<polygon fill="none" stroke="#bfbfbf" points="755.5,-112.5 755.5,-131.5 898.5,-131.5 898.5,-112.5 755.5,-112.5"/>
<text text-anchor="middle" x="827" y="-119.5" font-family="Helvetica,sans-Serif" font-size="10.00">BlockFactory/Core/Signal.h</text>
</g>
<!-- Node1&#45;&gt;Node15 -->
<g id="edge20" class="edge"><title>Node1&#45;&gt;Node15</title>
<path fill="none" stroke="midnightblue" d="M870.398,-168.498C861.441,-159.107 850.83,-147.983 842.342,-139.085"/>
<polygon fill="midnightblue" stroke="midnightblue" points="844.688,-136.473 835.253,-131.652 839.623,-141.304 844.688,-136.473"/>
</g>
<!-- Node16 -->
<g id="node16" class="node"><title>Node16</title>
<polygon fill="none" stroke="#bfbfbf" points="917,-112.5 917,-131.5 985,-131.5 985,-112.5 917,-112.5"/>
<text text-anchor="middle" x="951" y="-119.5" font-family="Helvetica,sans-Serif" font-size="10.00">Eigen/Core</text>
</g>
<!-- Node1&#45;&gt;Node16 -->
<g id="edge21" class="edge"><title>Node1&#45;&gt;Node16</title>
<path fill="none" stroke="midnightblue" d="M907.602,-168.498C916.559,-159.107 927.17,-147.983 935.658,-139.085"/>
<polygon fill="midnightblue" stroke="midnightblue" points="938.377,-141.304 942.747,-131.652 933.312,-136.473 938.377,-141.304"/>
</g>
<!-- Node17 -->
<g id="node17" class="node"><title>Node17</title>
<polygon fill="none" stroke="#bfbfbf" points="1003,-112.5 1003,-131.5 1161,-131.5 1161,-112.5 1003,-112.5"/>
<text text-anchor="middle" x="1082" y="-119.5" font-family="Helvetica,sans-Serif" font-size="10.00">iDynTree/Core/EigenHelpers.h</text>
</g>
<!-- Node1&#45;&gt;Node17 -->
<g id="edge22" class="edge"><title>Node1&#45;&gt;Node17</title>
<path fill="none" stroke="midnightblue" d="M946.906,-168.498C979.441,-157.541 1018.98,-144.223 1046.86,-134.836"/>
<polygon fill="midnightblue" stroke="midnightblue" points="1048.2,-138.076 1056.56,-131.567 1045.97,-131.442 1048.2,-138.076"/>
</g>
<!-- Node18 -->
<g id="node18" class="node"><title>Node18</title>
<polygon fill="none" stroke="#bfbfbf" points="1179.5,-112.5 1179.5,-131.5 1342.5,-131.5 1342.5,-112.5 1179.5,-112.5"/>
<text text-anchor="middle" x="1261" y="-119.5" font-family="Helvetica,sans-Serif" font-size="10.00">iDynTree/Core/MatrixDynSize.h</text>
</g>
<!-- Node1&#45;&gt;Node18 -->
<g id="edge23" class="edge"><title>Node1&#45;&gt;Node18</title>
<path fill="none" stroke="midnightblue" d="M980.001,-172.099C1049.24,-160.002 1142.48,-143.71 1202.18,-133.278"/>
<polygon fill="midnightblue" stroke="midnightblue" points="1202.94,-136.698 1212.19,-131.529 1201.74,-129.802 1202.94,-136.698"/>
</g>
<!-- Node19 -->
<g id="node19" class="node"><title>Node19</title>
<polygon fill="none" stroke="#bfbfbf" points="1361,-112.5 1361,-131.5 1531,-131.5 1531,-112.5 1361,-112.5"/>
<text text-anchor="middle" x="1446" y="-119.5" font-family="Helvetica,sans-Serif" font-size="10.00">iDynTree/KinDynComputations.h</text>
</g>
<!-- Node1&#45;&gt;Node19 -->
<g id="edge24" class="edge"><title>Node1&#45;&gt;Node19</title>
<path fill="none" stroke="midnightblue" d="M980.042,-177.376C1086.16,-164.992 1260.06,-144.699 1362.73,-132.717"/>
<polygon fill="midnightblue" stroke="midnightblue" points="1363.22,-136.184 1372.75,-131.549 1362.41,-129.231 1363.22,-136.184"/>
</g>
<!-- Node20 -->
<g id="node20" class="node"><title>Node20</title>
<polygon fill="none" stroke="#bfbfbf" points="1549.5,-112.5 1549.5,-131.5 1606.5,-131.5 1606.5,-112.5 1549.5,-112.5"/>
<text text-anchor="middle" x="1578" y="-119.5" font-family="Helvetica,sans-Serif" font-size="10.00">ostream</text>
</g>
<!-- Node1&#45;&gt;Node20 -->
<g id="edge25" class="edge"><title>Node1&#45;&gt;Node20</title>
<path fill="none" stroke="midnightblue" d="M980.085,-184.385C1104.4,-178.51 1334.2,-164.295 1539.39,-131.844"/>
<polygon fill="midnightblue" stroke="midnightblue" points="1540.13,-135.27 1549.46,-130.235 1539.03,-128.358 1540.13,-135.27"/>
</g>
<!-- Node21 -->
<g id="node21" class="node"><title>Node21</title>
<polygon fill="none" stroke="#bfbfbf" points="1624.5,-112.5 1624.5,-131.5 1665.5,-131.5 1665.5,-112.5 1624.5,-112.5"/>
<text text-anchor="middle" x="1645" y="-119.5" font-family="Helvetica,sans-Serif" font-size="10.00">tuple</text>
</g>
<!-- Node1&#45;&gt;Node21 -->
<g id="edge26" class="edge"><title>Node1&#45;&gt;Node21</title>
<path fill="none" stroke="midnightblue" d="M980.251,-187.499C1116.88,-185.305 1382.51,-175.458 1614.27,-131.952"/>
<polygon fill="midnightblue" stroke="midnightblue" points="1615.06,-135.363 1624.23,-130.056 1613.75,-128.487 1615.06,-135.363"/>
</g>
<!-- Node3 -->
<g id="node3" class="node"><title>Node3</title>
<g id="a_node3"><a xlink:href="_w_b_block_8h.html" target="_top" xlink:title="WBToolbox/Base/WBBlock.h">
<polygon fill="none" stroke="black" points="0,-56.5 0,-75.5 146,-75.5 146,-56.5 0,-56.5"/>
<text text-anchor="middle" x="73" y="-63.5" font-family="Helvetica,sans-Serif" font-size="10.00">WBToolbox/Base/WBBlock.h</text>
</a>
</g>
</g>
<!-- Node2&#45;&gt;Node3 -->
<g id="edge2" class="edge"><title>Node2&#45;&gt;Node3</title>
<path fill="none" stroke="midnightblue" d="M173.986,-112.444C154.412,-103.636 123.692,-89.8116 101.271,-79.722"/>
<polygon fill="midnightblue" stroke="midnightblue" points="102.481,-76.4284 91.9254,-75.5164 99.6083,-82.8119 102.481,-76.4284"/>
</g>
<!-- Node5 -->
<g id="node5" class="node"><title>Node5</title>
<polygon fill="none" stroke="#bfbfbf" points="165.5,-0.5 165.5,-19.5 222.5,-19.5 222.5,-0.5 165.5,-0.5"/>
<text text-anchor="middle" x="194" y="-7.5" font-family="Helvetica,sans-Serif" font-size="10.00">memory</text>
</g>
<!-- Node2&#45;&gt;Node5 -->
<g id="edge6" class="edge"><title>Node2&#45;&gt;Node5</title>
<path fill="none" stroke="midnightblue" d="M193.078,-112.368C193.24,-94.617 193.612,-53.6664 193.831,-29.5974"/>
<polygon fill="midnightblue" stroke="midnightblue" points="197.331,-29.6229 193.922,-19.5914 190.331,-29.5592 197.331,-29.6229"/>
</g>
<!-- Node6 -->
<g id="node6" class="node"><title>Node6</title>
<polygon fill="none" stroke="#bfbfbf" points="243,-0.5 243,-19.5 287,-19.5 287,-0.5 243,-0.5"/>
<text text-anchor="middle" x="265" y="-7.5" font-family="Helvetica,sans-Serif" font-size="10.00">string</text>
</g>
<!-- Node2&#45;&gt;Node6 -->
<g id="edge7" class="edge"><title>Node2&#45;&gt;Node6</title>
<path fill="none" stroke="midnightblue" d="M197.608,-112.391C204.464,-99.7588 217.948,-75.5768 231,-56 237.382,-46.4273 245.069,-36.162 251.517,-27.8566"/>
<polygon fill="midnightblue" stroke="midnightblue" points="254.472,-29.7611 257.909,-19.739 248.972,-25.4308 254.472,-29.7611"/>
</g>
<!-- Node4 -->
<g id="node4" class="node"><title>Node4</title>
<polygon fill="none" stroke="#bfbfbf" points="3,-0.5 3,-19.5 143,-19.5 143,-0.5 3,-0.5"/>
<text text-anchor="middle" x="73" y="-7.5" font-family="Helvetica,sans-Serif" font-size="10.00">BlockFactory/Core/Block.h</text>
</g>
<!-- Node3&#45;&gt;Node4 -->
<g id="edge3" class="edge"><title>Node3&#45;&gt;Node4</title>
<path fill="none" stroke="midnightblue" d="M73,-56.083C73,-49.0059 73,-38.8611 73,-29.9865"/>
<polygon fill="midnightblue" stroke="midnightblue" points="76.5001,-29.751 73,-19.7511 69.5001,-29.7511 76.5001,-29.751"/>
</g>
<!-- Node3&#45;&gt;Node5 -->
<g id="edge4" class="edge"><title>Node3&#45;&gt;Node5</title>
<path fill="none" stroke="midnightblue" d="M92.1728,-56.4435C111.909,-47.6356 142.885,-33.8116 165.493,-23.722"/>
<polygon fill="midnightblue" stroke="midnightblue" points="167.211,-26.788 174.917,-19.5164 164.359,-20.3957 167.211,-26.788"/>
</g>
<!-- Node3&#45;&gt;Node6 -->
<g id="edge5" class="edge"><title>Node3&#45;&gt;Node6</title>
<path fill="none" stroke="midnightblue" d="M103.423,-56.4435C138.743,-46.5098 196.748,-30.1958 232.806,-20.0544"/>
<polygon fill="midnightblue" stroke="midnightblue" points="234.121,-23.3205 242.8,-17.2437 232.226,-16.582 234.121,-23.3205"/>
</g>
<!-- Node7&#45;&gt;Node5 -->
<g id="edge10" class="edge"><title>Node7&#45;&gt;Node5</title>
<path fill="none" stroke="midnightblue" d="M457.647,-56.4842C399.794,-48.1775 310.753,-34.6782 234,-20 233.546,-19.9131 233.088,-19.8248 232.629,-19.7352"/>
<polygon fill="midnightblue" stroke="midnightblue" points="233.294,-16.2988 222.794,-17.7124 231.883,-23.1552 233.294,-16.2988"/>
</g>
<!-- Node7&#45;&gt;Node6 -->
<g id="edge11" class="edge"><title>Node7&#45;&gt;Node6</title>
<path fill="none" stroke="midnightblue" d="M471.571,-56.4413C428.583,-48.4469 363.298,-35.7181 297.096,-19.8676"/>
<polygon fill="midnightblue" stroke="midnightblue" points="297.866,-16.4532 287.324,-17.5066 296.222,-23.2574 297.866,-16.4532"/>
</g>
<!-- Node8 -->
<g id="node8" class="node"><title>Node8</title>
<polygon fill="none" stroke="#bfbfbf" points="550.5,-0.5 550.5,-19.5 591.5,-19.5 591.5,-0.5 550.5,-0.5"/>
<text text-anchor="middle" x="571" y="-7.5" font-family="Helvetica,sans-Serif" font-size="10.00">array</text>
</g>
<!-- Node7&#45;&gt;Node8 -->
<g id="edge9" class="edge"><title>Node7&#45;&gt;Node8</title>
<path fill="none" stroke="midnightblue" d="M527.587,-56.083C535.159,-48.2195 546.378,-36.5688 555.514,-27.0813"/>
<polygon fill="midnightblue" stroke="midnightblue" points="558.158,-29.3821 562.573,-19.7511 553.115,-24.5266 558.158,-29.3821"/>
</g>
<!-- Node9 -->
<g id="node9" class="node"><title>Node9</title>
<polygon fill="none" stroke="#bfbfbf" points="485.5,-0.5 485.5,-19.5 532.5,-19.5 532.5,-0.5 485.5,-0.5"/>
<text text-anchor="middle" x="509" y="-7.5" font-family="Helvetica,sans-Serif" font-size="10.00">vector</text>
</g>
<!-- Node7&#45;&gt;Node9 -->
<g id="edge12" class="edge"><title>Node7&#45;&gt;Node9</title>
<path fill="none" stroke="midnightblue" d="M517.349,-56.083C516.024,-48.9272 514.118,-38.6353 512.461,-29.6911"/>
<polygon fill="midnightblue" stroke="midnightblue" points="515.883,-28.9466 510.621,-19.7511 509,-30.2212 515.883,-28.9466"/>
</g>
<!-- Node10&#45;&gt;Node5 -->
<g id="edge14" class="edge"><title>Node10&#45;&gt;Node5</title>
<path fill="none" stroke="midnightblue" d="M306.767,-56.4435C284.616,-47.5171 249.681,-33.4387 224.564,-23.3168"/>
<polygon fill="midnightblue" stroke="midnightblue" points="225.717,-20.0079 215.133,-19.5164 223.1,-26.5006 225.717,-20.0079"/>
</g>
<!-- Node10&#45;&gt;Node6 -->
<g id="edge15" class="edge"><title>Node10&#45;&gt;Node6</title>
<path fill="none" stroke="midnightblue" d="M317.878,-56.324C308.474,-48.2631 294.256,-36.0765 282.931,-26.3695"/>
<polygon fill="midnightblue" stroke="midnightblue" points="285.177,-23.6844 275.306,-19.8339 280.621,-28.9993 285.177,-23.6844"/>
</g>
<!-- Node11 -->
<g id="node11" class="node"><title>Node11</title>
<polygon fill="none" stroke="#bfbfbf" points="365.5,-0.5 365.5,-19.5 458.5,-19.5 458.5,-0.5 365.5,-0.5"/>
<text text-anchor="middle" x="412" y="-7.5" font-family="Helvetica,sans-Serif" font-size="10.00">unordered_map</text>
</g>
<!-- Node10&#45;&gt;Node11 -->
<g id="edge16" class="edge"><title>Node10&#45;&gt;Node11</title>
<path fill="none" stroke="midnightblue" d="M341.496,-56.324C354.6,-47.9002 374.712,-34.9709 390.107,-25.0741"/>
<polygon fill="midnightblue" stroke="midnightblue" points="392.018,-28.0063 398.537,-19.6545 388.233,-22.118 392.018,-28.0063"/>
</g>
<!-- Node12 -->
<g id="node12" class="node"><title>Node12</title>
<polygon fill="none" stroke="#bfbfbf" points="306,-0.5 306,-19.5 348,-19.5 348,-0.5 306,-0.5"/>
<text text-anchor="middle" x="327" y="-7.5" font-family="Helvetica,sans-Serif" font-size="10.00">utility</text>
</g>
<!-- Node10&#45;&gt;Node12 -->
<g id="edge17" class="edge"><title>Node10&#45;&gt;Node12</title>
<path fill="none" stroke="midnightblue" d="M327.835,-56.083C327.704,-49.0059 327.516,-38.8611 327.352,-29.9865"/>
<polygon fill="midnightblue" stroke="midnightblue" points="330.847,-29.6845 327.162,-19.7511 323.848,-29.8142 330.847,-29.6845"/>
</g>
</g>
</svg>
