<?xml version="1.0" encoding="UTF-8" standalone="no"?>
<!DOCTYPE svg PUBLIC "-//W3C//DTD SVG 1.1//EN"
 "http://www.w3.org/Graphics/SVG/1.1/DTD/svg11.dtd">
<!-- Generated by graphviz version 2.43.0 (0)
 -->
<!-- Title: /home/runner/work/wb&#45;toolbox/wb&#45;toolbox/toolbox/library/src/MassMatrix.cpp Pages: 1 -->
<svg width="1659pt" height="218pt"
 viewBox="0.00 0.00 1659.00 218.00" xmlns="http://www.w3.org/2000/svg" xmlns:xlink="http://www.w3.org/1999/xlink">
<g id="graph0" class="graph" transform="scale(1 1) rotate(0) translate(4 214)">
<title>/home/runner/work/wb&#45;toolbox/wb&#45;toolbox/toolbox/library/src/MassMatrix.cpp</title>
<!-- Node1 -->
<g id="node1" class="node">
<title>Node1</title>
<g id="a_node1"><a xlink:title=" ">
<polygon fill="#bfbfbf" stroke="black" points="833,-168.5 833,-209.5 988,-209.5 988,-168.5 833,-168.5"/>
<text text-anchor="start" x="841" y="-197.5" font-family="Helvetica,sans-Serif" font-size="10.00">/home/runner/work/wb</text>
<text text-anchor="start" x="841" y="-186.5" font-family="Helvetica,sans-Serif" font-size="10.00">&#45;toolbox/wb&#45;toolbox/toolbox</text>
<text text-anchor="middle" x="910.5" y="-175.5" font-family="Helvetica,sans-Serif" font-size="10.00">/library/src/MassMatrix.cpp</text>
</a>
</g>
</g>
<!-- Node2 -->
<g id="node2" class="node">
<title>Node2</title>
<g id="a_node2"><a xlink:href="_mass_matrix_8h.html" target="_top" xlink:title=" ">
<polygon fill="none" stroke="black" points="115.5,-112.5 115.5,-131.5 285.5,-131.5 285.5,-112.5 115.5,-112.5"/>
<text text-anchor="middle" x="200.5" y="-119.5" font-family="Helvetica,sans-Serif" font-size="10.00">WBToolbox/Block/MassMatrix.h</text>
</a>
</g>
</g>
<!-- Node1&#45;&gt;Node2 -->
<g id="edge1" class="edge">
<title>Node1&#45;&gt;Node2</title>
<path fill="none" stroke="midnightblue" d="M832.83,-180.89C701.85,-168.9 437.49,-144.7 295.61,-131.71"/>
<polygon fill="midnightblue" stroke="midnightblue" points="295.89,-128.22 285.61,-130.79 295.25,-135.19 295.89,-128.22"/>
</g>
<!-- Node7 -->
<g id="node7" class="node">
<title>Node7</title>
<g id="a_node7"><a xlink:href="_configuration_8h.html" target="_top" xlink:title=" ">
<polygon fill="none" stroke="black" points="448,-56.5 448,-75.5 623,-75.5 623,-56.5 448,-56.5"/>
<text text-anchor="middle" x="535.5" y="-63.5" font-family="Helvetica,sans-Serif" font-size="10.00">WBToolbox/Base/Configuration.h</text>
</a>
</g>
</g>
<!-- Node1&#45;&gt;Node7 -->
<g id="edge8" class="edge">
<title>Node1&#45;&gt;Node7</title>
<path fill="none" stroke="midnightblue" d="M832.77,-185.16C696.03,-179.36 424.14,-163.92 395.5,-132 370.24,-103.85 415.39,-86.98 460.99,-77.51"/>
<polygon fill="midnightblue" stroke="midnightblue" points="461.87,-80.9 471.01,-75.54 460.52,-74.04 461.87,-80.9"/>
</g>
<!-- Node10 -->
<g id="node10" class="node">
<title>Node10</title>
<g id="a_node10"><a xlink:href="_robot_interface_8h.html" target="_top" xlink:title=" ">
<polygon fill="none" stroke="black" points="247.5,-56.5 247.5,-75.5 429.5,-75.5 429.5,-56.5 247.5,-56.5"/>
<text text-anchor="middle" x="338.5" y="-63.5" font-family="Helvetica,sans-Serif" font-size="10.00">WBToolbox/Base/RobotInterface.h</text>
</a>
</g>
</g>
<!-- Node1&#45;&gt;Node10 -->
<g id="edge13" class="edge">
<title>Node1&#45;&gt;Node10</title>
<path fill="none" stroke="midnightblue" d="M832.92,-187.56C705.24,-185.57 457.58,-175.96 383.5,-132 365.47,-121.3 352.94,-100.23 345.76,-84.97"/>
<polygon fill="midnightblue" stroke="midnightblue" points="348.85,-83.3 341.64,-75.53 342.43,-86.1 348.85,-83.3"/>
</g>
<!-- Node13 -->
<g id="node13" class="node">
<title>Node13</title>
<g id="a_node13"><a xlink:title=" ">
<polygon fill="none" stroke="#bfbfbf" points="404.5,-112.5 404.5,-131.5 604.5,-131.5 604.5,-112.5 404.5,-112.5"/>
<text text-anchor="middle" x="504.5" y="-119.5" font-family="Helvetica,sans-Serif" font-size="10.00">BlockFactory/Core/BlockInformation.h</text>
</a>
</g>
</g>
<!-- Node1&#45;&gt;Node13 -->
<g id="edge18" class="edge">
<title>Node1&#45;&gt;Node13</title>
<path fill="none" stroke="midnightblue" d="M832.7,-175.54C755.78,-163.23 639.51,-144.62 567.99,-133.16"/>
<polygon fill="midnightblue" stroke="midnightblue" points="568.2,-129.65 557.77,-131.53 567.1,-136.57 568.2,-129.65"/>
</g>
<!-- Node14 -->
<g id="node14" class="node">
<title>Node14</title>
<g id="a_node14"><a xlink:title=" ">
<polygon fill="none" stroke="#bfbfbf" points="622.5,-112.5 622.5,-131.5 756.5,-131.5 756.5,-112.5 622.5,-112.5"/>
<text text-anchor="middle" x="689.5" y="-119.5" font-family="Helvetica,sans-Serif" font-size="10.00">BlockFactory/Core/Log.h</text>
</a>
</g>
</g>
<!-- Node1&#45;&gt;Node14 -->
<g id="edge19" class="edge">
<title>Node1&#45;&gt;Node14</title>
<path fill="none" stroke="midnightblue" d="M844.19,-168.5C806.45,-157.4 760.47,-143.87 728.49,-134.47"/>
<polygon fill="midnightblue" stroke="midnightblue" points="729.21,-131.03 718.63,-131.57 727.23,-137.75 729.21,-131.03"/>
</g>
<!-- Node15 -->
<g id="node15" class="node">
<title>Node15</title>
<g id="a_node15"><a xlink:title=" ">
<polygon fill="none" stroke="#bfbfbf" points="774.5,-112.5 774.5,-131.5 920.5,-131.5 920.5,-112.5 774.5,-112.5"/>
<text text-anchor="middle" x="847.5" y="-119.5" font-family="Helvetica,sans-Serif" font-size="10.00">BlockFactory/Core/Signal.h</text>
</a>
</g>
</g>
<!-- Node1&#45;&gt;Node15 -->
<g id="edge20" class="edge">
<title>Node1&#45;&gt;Node15</title>
<path fill="none" stroke="midnightblue" d="M891.6,-168.5C882.5,-159.11 871.71,-147.98 863.09,-139.08"/>
<polygon fill="midnightblue" stroke="midnightblue" points="865.36,-136.4 855.89,-131.65 860.33,-141.27 865.36,-136.4"/>
</g>
<!-- Node16 -->
<g id="node16" class="node">
<title>Node16</title>
<g id="a_node16"><a xlink:title=" ">
<polygon fill="none" stroke="#bfbfbf" points="939,-112.5 939,-131.5 1008,-131.5 1008,-112.5 939,-112.5"/>
<text text-anchor="middle" x="973.5" y="-119.5" font-family="Helvetica,sans-Serif" font-size="10.00">Eigen/Core</text>
</a>
</g>
</g>
<!-- Node1&#45;&gt;Node16 -->
<g id="edge21" class="edge">
<title>Node1&#45;&gt;Node16</title>
<path fill="none" stroke="midnightblue" d="M929.4,-168.5C938.5,-159.11 949.29,-147.98 957.91,-139.08"/>
<polygon fill="midnightblue" stroke="midnightblue" points="960.67,-141.27 965.11,-131.65 955.64,-136.4 960.67,-141.27"/>
</g>
<!-- Node17 -->
<g id="node17" class="node">
<title>Node17</title>
<g id="a_node17"><a xlink:title=" ">
<polygon fill="none" stroke="#bfbfbf" points="1026.5,-112.5 1026.5,-131.5 1162.5,-131.5 1162.5,-112.5 1026.5,-112.5"/>
<text text-anchor="middle" x="1094.5" y="-119.5" font-family="Helvetica,sans-Serif" font-size="10.00">iDynTree/EigenHelpers.h</text>
</a>
</g>
</g>
<!-- Node1&#45;&gt;Node17 -->
<g id="edge22" class="edge">
<title>Node1&#45;&gt;Node17</title>
<path fill="none" stroke="midnightblue" d="M965.71,-168.5C996.49,-157.62 1033.86,-144.42 1060.4,-135.05"/>
<polygon fill="midnightblue" stroke="midnightblue" points="1061.74,-138.28 1070.01,-131.65 1059.41,-131.68 1061.74,-138.28"/>
</g>
<!-- Node18 -->
<g id="node18" class="node">
<title>Node18</title>
<g id="a_node18"><a xlink:title=" ">
<polygon fill="none" stroke="#bfbfbf" points="1181,-112.5 1181,-131.5 1324,-131.5 1324,-112.5 1181,-112.5"/>
<text text-anchor="middle" x="1252.5" y="-119.5" font-family="Helvetica,sans-Serif" font-size="10.00">iDynTree/MatrixDynSize.h</text>
</a>
</g>
</g>
<!-- Node1&#45;&gt;Node18 -->
<g id="edge23" class="edge">
<title>Node1&#45;&gt;Node18</title>
<path fill="none" stroke="midnightblue" d="M988.11,-173.25C1052.06,-161.1 1141.16,-144.16 1197.83,-133.39"/>
<polygon fill="midnightblue" stroke="midnightblue" points="1198.51,-136.82 1207.68,-131.52 1197.2,-129.95 1198.51,-136.82"/>
</g>
<!-- Node19 -->
<g id="node19" class="node">
<title>Node19</title>
<g id="a_node19"><a xlink:title=" ">
<polygon fill="none" stroke="#bfbfbf" points="1342,-112.5 1342,-131.5 1517,-131.5 1517,-112.5 1342,-112.5"/>
<text text-anchor="middle" x="1429.5" y="-119.5" font-family="Helvetica,sans-Serif" font-size="10.00">iDynTree/KinDynComputations.h</text>
</a>
</g>
</g>
<!-- Node1&#45;&gt;Node19 -->
<g id="edge24" class="edge">
<title>Node1&#45;&gt;Node19</title>
<path fill="none" stroke="midnightblue" d="M988.2,-178.27C1086.11,-166.01 1253.42,-145.05 1351.48,-132.77"/>
<polygon fill="midnightblue" stroke="midnightblue" points="1352.14,-136.22 1361.62,-131.5 1351.27,-129.27 1352.14,-136.22"/>
</g>
<!-- Node20 -->
<g id="node20" class="node">
<title>Node20</title>
<g id="a_node20"><a xlink:title=" ">
<polygon fill="none" stroke="#bfbfbf" points="1535,-112.5 1535,-131.5 1592,-131.5 1592,-112.5 1535,-112.5"/>
<text text-anchor="middle" x="1563.5" y="-119.5" font-family="Helvetica,sans-Serif" font-size="10.00">ostream</text>
</a>
</g>
</g>
<!-- Node1&#45;&gt;Node20 -->
<g id="edge25" class="edge">
<title>Node1&#45;&gt;Node20</title>
<path fill="none" stroke="midnightblue" d="M988.28,-184.62C1103.64,-178.8 1326.93,-164.39 1524.9,-132.05"/>
<polygon fill="midnightblue" stroke="midnightblue" points="1525.61,-135.48 1534.9,-130.4 1524.47,-128.58 1525.61,-135.48"/>
</g>
<!-- Node21 -->
<g id="node21" class="node">
<title>Node21</title>
<g id="a_node21"><a xlink:title=" ">
<polygon fill="none" stroke="#bfbfbf" points="1610,-112.5 1610,-131.5 1651,-131.5 1651,-112.5 1610,-112.5"/>
<text text-anchor="middle" x="1630.5" y="-119.5" font-family="Helvetica,sans-Serif" font-size="10.00">tuple</text>
</a>
</g>
</g>
<!-- Node1&#45;&gt;Node21 -->
<g id="edge26" class="edge">
<title>Node1&#45;&gt;Node21</title>
<path fill="none" stroke="midnightblue" d="M988.2,-187.25C1114.99,-184.81 1374.11,-174.75 1599.69,-131.98"/>
<polygon fill="midnightblue" stroke="midnightblue" points="1600.57,-135.37 1609.73,-130.05 1599.25,-128.5 1600.57,-135.37"/>
</g>
<!-- Node3 -->
<g id="node3" class="node">
<title>Node3</title>
<g id="a_node3"><a xlink:href="_w_b_block_8h.html" target="_top" xlink:title=" ">
<polygon fill="none" stroke="black" points="0,-56.5 0,-75.5 153,-75.5 153,-56.5 0,-56.5"/>
<text text-anchor="middle" x="76.5" y="-63.5" font-family="Helvetica,sans-Serif" font-size="10.00">WBToolbox/Base/WBBlock.h</text>
</a>
</g>
</g>
<!-- Node2&#45;&gt;Node3 -->
<g id="edge2" class="edge">
<title>Node2&#45;&gt;Node3</title>
<path fill="none" stroke="midnightblue" d="M180.85,-112.44C160.54,-103.6 128.6,-89.69 105.4,-79.59"/>
<polygon fill="midnightblue" stroke="midnightblue" points="106.62,-76.3 96.06,-75.52 103.83,-82.72 106.62,-76.3"/>
</g>
<!-- Node5 -->
<g id="node5" class="node">
<title>Node5</title>
<g id="a_node5"><a xlink:title=" ">
<polygon fill="none" stroke="#bfbfbf" points="171.5,-0.5 171.5,-19.5 229.5,-19.5 229.5,-0.5 171.5,-0.5"/>
<text text-anchor="middle" x="200.5" y="-7.5" font-family="Helvetica,sans-Serif" font-size="10.00">memory</text>
</a>
</g>
</g>
<!-- Node2&#45;&gt;Node5 -->
<g id="edge6" class="edge">
<title>Node2&#45;&gt;Node5</title>
<path fill="none" stroke="midnightblue" d="M200.5,-112.37C200.5,-94.62 200.5,-53.67 200.5,-29.6"/>
<polygon fill="midnightblue" stroke="midnightblue" points="204,-29.59 200.5,-19.59 197,-29.59 204,-29.59"/>
</g>
<!-- Node6 -->
<g id="node6" class="node">
<title>Node6</title>
<g id="a_node6"><a xlink:title=" ">
<polygon fill="none" stroke="#bfbfbf" points="250.5,-0.5 250.5,-19.5 294.5,-19.5 294.5,-0.5 250.5,-0.5"/>
<text text-anchor="middle" x="272.5" y="-7.5" font-family="Helvetica,sans-Serif" font-size="10.00">string</text>
</a>
</g>
</g>
<!-- Node2&#45;&gt;Node6 -->
<g id="edge7" class="edge">
<title>Node2&#45;&gt;Node6</title>
<path fill="none" stroke="midnightblue" d="M205.11,-112.39C211.96,-99.76 225.45,-75.58 238.5,-56 244.88,-46.43 252.57,-36.16 259.02,-27.86"/>
<polygon fill="midnightblue" stroke="midnightblue" points="261.97,-29.76 265.41,-19.74 256.47,-25.43 261.97,-29.76"/>
</g>
<!-- Node4 -->
<g id="node4" class="node">
<title>Node4</title>
<g id="a_node4"><a xlink:title=" ">
<polygon fill="none" stroke="#bfbfbf" points="5,-0.5 5,-19.5 148,-19.5 148,-0.5 5,-0.5"/>
<text text-anchor="middle" x="76.5" y="-7.5" font-family="Helvetica,sans-Serif" font-size="10.00">BlockFactory/Core/Block.h</text>
</a>
</g>
</g>
<!-- Node3&#45;&gt;Node4 -->
<g id="edge3" class="edge">
<title>Node3&#45;&gt;Node4</title>
<path fill="none" stroke="midnightblue" d="M76.5,-56.08C76.5,-49.01 76.5,-38.86 76.5,-29.99"/>
<polygon fill="midnightblue" stroke="midnightblue" points="80,-29.75 76.5,-19.75 73,-29.75 80,-29.75"/>
</g>
<!-- Node3&#45;&gt;Node5 -->
<g id="edge4" class="edge">
<title>Node3&#45;&gt;Node5</title>
<path fill="none" stroke="midnightblue" d="M96.15,-56.44C116.46,-47.6 148.4,-33.69 171.6,-23.59"/>
<polygon fill="midnightblue" stroke="midnightblue" points="173.17,-26.72 180.94,-19.52 170.38,-20.3 173.17,-26.72"/>
</g>
<!-- Node3&#45;&gt;Node6 -->
<g id="edge5" class="edge">
<title>Node3&#45;&gt;Node6</title>
<path fill="none" stroke="midnightblue" d="M107.56,-56.44C143.96,-46.41 203.99,-29.88 240.71,-19.76"/>
<polygon fill="midnightblue" stroke="midnightblue" points="241.7,-23.12 250.41,-17.09 239.84,-16.37 241.7,-23.12"/>
</g>
<!-- Node7&#45;&gt;Node5 -->
<g id="edge10" class="edge">
<title>Node7&#45;&gt;Node5</title>
<path fill="none" stroke="midnightblue" d="M471.93,-56.47C412.25,-48.18 320.57,-34.71 241.5,-20 240.9,-19.89 240.29,-19.77 239.67,-19.66"/>
<polygon fill="midnightblue" stroke="midnightblue" points="240.06,-16.16 229.57,-17.62 238.68,-23.03 240.06,-16.16"/>
</g>
<!-- Node7&#45;&gt;Node6 -->
<g id="edge11" class="edge">
<title>Node7&#45;&gt;Node6</title>
<path fill="none" stroke="midnightblue" d="M485.23,-56.43C440.46,-48.52 373,-35.94 304.87,-19.92"/>
<polygon fill="midnightblue" stroke="midnightblue" points="305.36,-16.43 294.82,-17.53 303.74,-23.24 305.36,-16.43"/>
</g>
<!-- Node8 -->
<g id="node8" class="node">
<title>Node8</title>
<g id="a_node8"><a xlink:title=" ">
<polygon fill="none" stroke="#bfbfbf" points="565.5,-0.5 565.5,-19.5 607.5,-19.5 607.5,-0.5 565.5,-0.5"/>
<text text-anchor="middle" x="586.5" y="-7.5" font-family="Helvetica,sans-Serif" font-size="10.00">array</text>
</a>
</g>
</g>
<!-- Node7&#45;&gt;Node8 -->
<g id="edge9" class="edge">
<title>Node7&#45;&gt;Node8</title>
<path fill="none" stroke="midnightblue" d="M543.92,-56.08C551.35,-48.22 562.35,-36.57 571.31,-27.08"/>
<polygon fill="midnightblue" stroke="midnightblue" points="573.91,-29.42 578.24,-19.75 568.82,-24.62 573.91,-29.42"/>
</g>
<!-- Node9 -->
<g id="node9" class="node">
<title>Node9</title>
<g id="a_node9"><a xlink:title=" ">
<polygon fill="none" stroke="#bfbfbf" points="500,-0.5 500,-19.5 547,-19.5 547,-0.5 500,-0.5"/>
<text text-anchor="middle" x="523.5" y="-7.5" font-family="Helvetica,sans-Serif" font-size="10.00">vector</text>
</a>
</g>
</g>
<!-- Node7&#45;&gt;Node9 -->
<g id="edge12" class="edge">
<title>Node7&#45;&gt;Node9</title>
<path fill="none" stroke="midnightblue" d="M533.52,-56.08C531.93,-48.93 529.64,-38.64 527.65,-29.69"/>
<polygon fill="midnightblue" stroke="midnightblue" points="531.03,-28.75 525.44,-19.75 524.2,-30.27 531.03,-28.75"/>
</g>
<!-- Node10&#45;&gt;Node5 -->
<g id="edge14" class="edge">
<title>Node10&#45;&gt;Node5</title>
<path fill="none" stroke="midnightblue" d="M316.63,-56.44C293.72,-47.48 257.52,-33.31 231.63,-23.18"/>
<polygon fill="midnightblue" stroke="midnightblue" points="232.85,-19.9 222.26,-19.52 230.3,-26.42 232.85,-19.9"/>
</g>
<!-- Node10&#45;&gt;Node6 -->
<g id="edge15" class="edge">
<title>Node10&#45;&gt;Node6</title>
<path fill="none" stroke="midnightblue" d="M327.9,-56.32C318.04,-48.26 303.15,-36.08 291.28,-26.37"/>
<polygon fill="midnightblue" stroke="midnightblue" points="293.25,-23.46 283.3,-19.83 288.82,-28.88 293.25,-23.46"/>
</g>
<!-- Node11 -->
<g id="node11" class="node">
<title>Node11</title>
<g id="a_node11"><a xlink:title=" ">
<polygon fill="none" stroke="#bfbfbf" points="377,-0.5 377,-19.5 470,-19.5 470,-0.5 377,-0.5"/>
<text text-anchor="middle" x="423.5" y="-7.5" font-family="Helvetica,sans-Serif" font-size="10.00">unordered_map</text>
</a>
</g>
</g>
<!-- Node10&#45;&gt;Node11 -->
<g id="edge16" class="edge">
<title>Node10&#45;&gt;Node11</title>
<path fill="none" stroke="midnightblue" d="M352.16,-56.32C365.42,-47.9 385.77,-34.97 401.35,-25.07"/>
<polygon fill="midnightblue" stroke="midnightblue" points="403.31,-27.97 409.88,-19.65 399.56,-22.06 403.31,-27.97"/>
</g>
<!-- Node12 -->
<g id="node12" class="node">
<title>Node12</title>
<g id="a_node12"><a xlink:title=" ">
<polygon fill="none" stroke="#bfbfbf" points="314,-0.5 314,-19.5 359,-19.5 359,-0.5 314,-0.5"/>
<text text-anchor="middle" x="336.5" y="-7.5" font-family="Helvetica,sans-Serif" font-size="10.00">utility</text>
</a>
</g>
</g>
<!-- Node10&#45;&gt;Node12 -->
<g id="edge17" class="edge">
<title>Node10&#45;&gt;Node12</title>
<path fill="none" stroke="midnightblue" d="M338.17,-56.08C337.91,-49.01 337.53,-38.86 337.2,-29.99"/>
<polygon fill="midnightblue" stroke="midnightblue" points="340.69,-29.61 336.82,-19.75 333.7,-29.87 340.69,-29.61"/>
</g>
</g>
</svg>
