<?xml version="1.0" encoding="UTF-8" standalone="no"?>
<!DOCTYPE svg PUBLIC "-//W3C//DTD SVG 1.1//EN"
 "http://www.w3.org/Graphics/SVG/1.1/DTD/svg11.dtd">
<!-- Generated by graphviz version 2.36.0 (20140111.2315)
 -->
<!-- Title: /home/travis/build/robotology/wb&#45;toolbox/toolbox/include/MassMatrix.h Pages: 1 -->
<svg width="858pt" height="218pt"
 viewBox="0.00 0.00 858.00 218.00" xmlns="http://www.w3.org/2000/svg" xmlns:xlink="http://www.w3.org/1999/xlink">
<g id="graph0" class="graph" transform="scale(1 1) rotate(0) translate(4 214)">
<title>/home/travis/build/robotology/wb&#45;toolbox/toolbox/include/MassMatrix.h</title>
<!-- Node1 -->
<g id="node1" class="node"><title>Node1</title>
<polygon fill="#bfbfbf" stroke="black" points="63.5,-168.5 63.5,-209.5 210.5,-209.5 210.5,-168.5 63.5,-168.5"/>
<text text-anchor="start" x="71.5" y="-197.5" font-family="Helvetica,sans-Serif" font-size="10.00">/home/travis/build</text>
<text text-anchor="start" x="71.5" y="-186.5" font-family="Helvetica,sans-Serif" font-size="10.00">/robotology/wb&#45;toolbox</text>
<text text-anchor="middle" x="137" y="-175.5" font-family="Helvetica,sans-Serif" font-size="10.00">/toolbox/include/MassMatrix.h</text>
</g>
<!-- Node2 -->
<g id="node2" class="node"><title>Node2</title>
<g id="a_node2"><a xlink:href="_w_b_block_8h.html" target="_top" xlink:title="WBBlock.h">
<polygon fill="none" stroke="black" points="162,-112.5 162,-131.5 228,-131.5 228,-112.5 162,-112.5"/>
<text text-anchor="middle" x="195" y="-119.5" font-family="Helvetica,sans-Serif" font-size="10.00">WBBlock.h</text>
</a>
</g>
</g>
<!-- Node1&#45;&gt;Node2 -->
<g id="edge1" class="edge"><title>Node1&#45;&gt;Node2</title>
<path fill="none" stroke="midnightblue" d="M154.402,-168.498C162.696,-159.203 172.505,-148.21 180.404,-139.358"/>
<polygon fill="midnightblue" stroke="midnightblue" points="183.233,-141.444 187.279,-131.652 178.01,-136.784 183.233,-141.444"/>
</g>
<!-- Node7 -->
<g id="node7" class="node"><title>Node7</title>
<polygon fill="none" stroke="#bfbfbf" points="0,-56.5 0,-75.5 52,-75.5 52,-56.5 0,-56.5"/>
<text text-anchor="middle" x="26" y="-63.5" font-family="Helvetica,sans-Serif" font-size="10.00">memory</text>
</g>
<!-- Node1&#45;&gt;Node7 -->
<g id="edge12" class="edge"><title>Node1&#45;&gt;Node7</title>
<path fill="none" stroke="midnightblue" d="M118.919,-168.29C97.1297,-144.538 60.9375,-105.085 40.7543,-83.0835"/>
<polygon fill="midnightblue" stroke="midnightblue" points="43.2053,-80.5778 33.8661,-75.5748 38.047,-85.3099 43.2053,-80.5778"/>
</g>
<!-- Node3 -->
<g id="node3" class="node"><title>Node3</title>
<g id="a_node3"><a xlink:href="_block_8h.html" target="_top" xlink:title="Block.h">
<polygon fill="none" stroke="black" points="108,-56.5 108,-75.5 158,-75.5 158,-56.5 108,-56.5"/>
<text text-anchor="middle" x="133" y="-63.5" font-family="Helvetica,sans-Serif" font-size="10.00">Block.h</text>
</a>
</g>
</g>
<!-- Node2&#45;&gt;Node3 -->
<g id="edge2" class="edge"><title>Node2&#45;&gt;Node3</title>
<path fill="none" stroke="midnightblue" d="M185.039,-112.324C175.873,-104.341 162.063,-92.3128 150.972,-82.6529"/>
<polygon fill="midnightblue" stroke="midnightblue" points="152.982,-79.7624 143.143,-75.8339 148.385,-85.041 152.982,-79.7624"/>
</g>
<!-- Node4 -->
<g id="node4" class="node"><title>Node4</title>
<polygon fill="none" stroke="#bfbfbf" points="59.5,-0.5 59.5,-19.5 100.5,-19.5 100.5,-0.5 59.5,-0.5"/>
<text text-anchor="middle" x="80" y="-7.5" font-family="Helvetica,sans-Serif" font-size="10.00">string</text>
</g>
<!-- Node2&#45;&gt;Node4 -->
<g id="edge5" class="edge"><title>Node2&#45;&gt;Node4</title>
<path fill="none" stroke="midnightblue" d="M161.769,-112.991C140.98,-106.352 115.168,-94.8703 99,-76 87.8939,-63.0375 83.2739,-43.8711 81.3552,-29.707"/>
<polygon fill="midnightblue" stroke="midnightblue" points="84.8243,-29.2255 80.3233,-19.6343 77.8608,-29.9389 84.8243,-29.2255"/>
</g>
<!-- Node6 -->
<g id="node6" class="node"><title>Node6</title>
<polygon fill="none" stroke="#bfbfbf" points="176,-56.5 176,-75.5 214,-75.5 214,-56.5 176,-56.5"/>
<text text-anchor="middle" x="195" y="-63.5" font-family="Helvetica,sans-Serif" font-size="10.00">array</text>
</g>
<!-- Node2&#45;&gt;Node6 -->
<g id="edge6" class="edge"><title>Node2&#45;&gt;Node6</title>
<path fill="none" stroke="midnightblue" d="M195,-112.083C195,-105.006 195,-94.8611 195,-85.9865"/>
<polygon fill="midnightblue" stroke="midnightblue" points="198.5,-85.751 195,-75.7511 191.5,-85.7511 198.5,-85.751"/>
</g>
<!-- Node2&#45;&gt;Node7 -->
<g id="edge7" class="edge"><title>Node2&#45;&gt;Node7</title>
<path fill="none" stroke="midnightblue" d="M168.221,-112.444C139.499,-103.266 93.7327,-88.6424 61.9032,-78.472"/>
<polygon fill="midnightblue" stroke="midnightblue" points="62.6888,-75.0488 52.098,-75.339 60.5582,-81.7167 62.6888,-75.0488"/>
</g>
<!-- Node8 -->
<g id="node8" class="node"><title>Node8</title>
<polygon fill="none" stroke="#bfbfbf" points="232.5,-56.5 232.5,-75.5 385.5,-75.5 385.5,-56.5 232.5,-56.5"/>
<text text-anchor="middle" x="309" y="-63.5" font-family="Helvetica,sans-Serif" font-size="10.00">iDynTree/Core/VectorFixSize.h</text>
</g>
<!-- Node2&#45;&gt;Node8 -->
<g id="edge8" class="edge"><title>Node2&#45;&gt;Node8</title>
<path fill="none" stroke="midnightblue" d="M213.064,-112.444C231.575,-103.675 260.581,-89.9355 281.855,-79.8579"/>
<polygon fill="midnightblue" stroke="midnightblue" points="283.482,-82.9604 291.021,-75.5164 280.485,-76.6343 283.482,-82.9604"/>
</g>
<!-- Node9 -->
<g id="node9" class="node"><title>Node9</title>
<polygon fill="none" stroke="#bfbfbf" points="404,-56.5 404,-75.5 562,-75.5 562,-56.5 404,-56.5"/>
<text text-anchor="middle" x="483" y="-63.5" font-family="Helvetica,sans-Serif" font-size="10.00">iDynTree/Core/VectorDynSize.h</text>
</g>
<!-- Node2&#45;&gt;Node9 -->
<g id="edge9" class="edge"><title>Node2&#45;&gt;Node9</title>
<path fill="none" stroke="midnightblue" d="M228.037,-114.806C276.782,-105.666 368.57,-88.4557 427.691,-77.3705"/>
<polygon fill="midnightblue" stroke="midnightblue" points="428.425,-80.7939 437.609,-75.5108 427.135,-73.9138 428.425,-80.7939"/>
</g>
<!-- Node10 -->
<g id="node10" class="node"><title>Node10</title>
<polygon fill="none" stroke="#bfbfbf" points="580,-56.5 580,-75.5 696,-75.5 696,-56.5 580,-56.5"/>
<text text-anchor="middle" x="638" y="-63.5" font-family="Helvetica,sans-Serif" font-size="10.00">iDynTree/Core/Twist.h</text>
</g>
<!-- Node2&#45;&gt;Node10 -->
<g id="edge10" class="edge"><title>Node2&#45;&gt;Node10</title>
<path fill="none" stroke="midnightblue" d="M228.125,-117.162C291.917,-109.741 436.505,-92.7788 569.784,-76.0128"/>
<polygon fill="midnightblue" stroke="midnightblue" points="570.284,-79.4776 579.767,-74.7546 569.408,-72.5325 570.284,-79.4776"/>
</g>
<!-- Node11 -->
<g id="node11" class="node"><title>Node11</title>
<polygon fill="none" stroke="#bfbfbf" points="714,-56.5 714,-75.5 850,-75.5 850,-56.5 714,-56.5"/>
<text text-anchor="middle" x="782" y="-63.5" font-family="Helvetica,sans-Serif" font-size="10.00">iDynTree/Core/Transform.h</text>
</g>
<!-- Node2&#45;&gt;Node11 -->
<g id="edge11" class="edge"><title>Node2&#45;&gt;Node11</title>
<path fill="none" stroke="midnightblue" d="M228.079,-118.383C309.228,-111.897 524.62,-94.2749 704,-76 704.102,-75.9896 704.203,-75.9793 704.305,-75.9689"/>
<polygon fill="midnightblue" stroke="midnightblue" points="704.366,-79.4817 713.947,-74.9605 703.637,-72.5197 704.366,-79.4817"/>
</g>
<!-- Node3&#45;&gt;Node4 -->
<g id="edge3" class="edge"><title>Node3&#45;&gt;Node4</title>
<path fill="none" stroke="midnightblue" d="M124.248,-56.083C116.53,-48.2195 105.095,-36.5688 95.7835,-27.0813"/>
<polygon fill="midnightblue" stroke="midnightblue" points="98.0916,-24.4363 88.589,-19.7511 93.0958,-29.3396 98.0916,-24.4363"/>
</g>
<!-- Node5 -->
<g id="node5" class="node"><title>Node5</title>
<polygon fill="none" stroke="#bfbfbf" points="119,-0.5 119,-19.5 163,-19.5 163,-0.5 119,-0.5"/>
<text text-anchor="middle" x="141" y="-7.5" font-family="Helvetica,sans-Serif" font-size="10.00">vector</text>
</g>
<!-- Node3&#45;&gt;Node5 -->
<g id="edge4" class="edge"><title>Node3&#45;&gt;Node5</title>
<path fill="none" stroke="midnightblue" d="M134.321,-56.083C135.381,-48.9272 136.906,-38.6353 138.231,-29.6911"/>
<polygon fill="midnightblue" stroke="midnightblue" points="141.7,-30.1561 139.704,-19.7511 134.776,-29.1302 141.7,-30.1561"/>
</g>
</g>
</svg>
