<?xml version="1.0" encoding="UTF-8" standalone="no"?>
<!DOCTYPE svg PUBLIC "-//W3C//DTD SVG 1.1//EN"
 "http://www.w3.org/Graphics/SVG/1.1/DTD/svg11.dtd">
<!-- Generated by graphviz version 2.36.0 (20140111.2315)
 -->
<!-- Title: /home/travis/build/robotology/wb&#45;toolbox/toolbox/src/ModelPartitioner.cpp Pages: 1 -->
<svg width="1442pt" height="274pt"
 viewBox="0.00 0.00 1441.88 274.00" xmlns="http://www.w3.org/2000/svg" xmlns:xlink="http://www.w3.org/1999/xlink">
<g id="graph0" class="graph" transform="scale(1 1) rotate(0) translate(4 270)">
<title>/home/travis/build/robotology/wb&#45;toolbox/toolbox/src/ModelPartitioner.cpp</title>
<!-- Node1 -->
<g id="node1" class="node"><title>Node1</title>
<polygon fill="#bfbfbf" stroke="black" points="1061.88,-224.5 1061.88,-265.5 1221.88,-265.5 1221.88,-224.5 1061.88,-224.5"/>
<text text-anchor="start" x="1069.88" y="-253.5" font-family="Helvetica,sans-Serif" font-size="10.00">/home/travis/build</text>
<text text-anchor="start" x="1069.88" y="-242.5" font-family="Helvetica,sans-Serif" font-size="10.00">/robotology/wb&#45;toolbox</text>
<text text-anchor="middle" x="1141.88" y="-231.5" font-family="Helvetica,sans-Serif" font-size="10.00">/toolbox/src/ModelPartitioner.cpp</text>
</g>
<!-- Node2 -->
<g id="node2" class="node"><title>Node2</title>
<g id="a_node2"><a xlink:href="_model_partitioner_8h.html" target="_top" xlink:title="ModelPartitioner.h">
<polygon fill="none" stroke="black" points="779.375,-168.5 779.375,-187.5 874.375,-187.5 874.375,-168.5 779.375,-168.5"/>
<text text-anchor="middle" x="826.875" y="-175.5" font-family="Helvetica,sans-Serif" font-size="10.00">ModelPartitioner.h</text>
</a>
</g>
</g>
<!-- Node1&#45;&gt;Node2 -->
<g id="edge1" class="edge"><title>Node1&#45;&gt;Node2</title>
<path fill="none" stroke="midnightblue" d="M1061.57,-227.43C1003.93,-215.536 927.968,-199.86 878.3,-189.611"/>
<polygon fill="midnightblue" stroke="midnightblue" points="878.924,-186.167 868.423,-187.573 877.51,-193.022 878.924,-186.167"/>
</g>
<!-- Node13 -->
<g id="node13" class="node"><title>Node13</title>
<g id="a_node13"><a xlink:href="_robot_interface_8h.html" target="_top" xlink:title="RobotInterface.h">
<polygon fill="none" stroke="black" points="986.375,-112.5 986.375,-131.5 1075.38,-131.5 1075.38,-112.5 986.375,-112.5"/>
<text text-anchor="middle" x="1030.88" y="-119.5" font-family="Helvetica,sans-Serif" font-size="10.00">RobotInterface.h</text>
</a>
</g>
</g>
<!-- Node1&#45;&gt;Node13 -->
<g id="edge30" class="edge"><title>Node1&#45;&gt;Node13</title>
<path fill="none" stroke="midnightblue" d="M1123.79,-224.29C1102.01,-200.538 1065.81,-161.085 1045.63,-139.084"/>
<polygon fill="midnightblue" stroke="midnightblue" points="1048.08,-136.578 1038.74,-131.575 1042.92,-141.31 1048.08,-136.578"/>
</g>
<!-- Node14 -->
<g id="node14" class="node"><title>Node14</title>
<g id="a_node14"><a xlink:href="_configuration_8h.html" target="_top" xlink:title="Configuration.h">
<polygon fill="none" stroke="black" points="871.375,-56.5 871.375,-75.5 954.375,-75.5 954.375,-56.5 871.375,-56.5"/>
<text text-anchor="middle" x="912.875" y="-63.5" font-family="Helvetica,sans-Serif" font-size="10.00">Configuration.h</text>
</a>
</g>
</g>
<!-- Node1&#45;&gt;Node14 -->
<g id="edge29" class="edge"><title>Node1&#45;&gt;Node14</title>
<path fill="none" stroke="midnightblue" d="M1108.9,-224.311C1074.59,-203.22 1019.96,-167.907 976.875,-132 958.539,-116.719 939.61,-96.9011 927.142,-83.1849"/>
<polygon fill="midnightblue" stroke="midnightblue" points="929.558,-80.6372 920.276,-75.5283 924.346,-85.3102 929.558,-80.6372"/>
</g>
<!-- Node18 -->
<g id="node18" class="node"><title>Node18</title>
<g id="a_node18"><a xlink:href="_block_information_8h.html" target="_top" xlink:title="BlockInformation.h">
<polygon fill="none" stroke="black" points="1335.88,-56.5 1335.88,-75.5 1433.88,-75.5 1433.88,-56.5 1335.88,-56.5"/>
<text text-anchor="middle" x="1384.88" y="-63.5" font-family="Helvetica,sans-Serif" font-size="10.00">BlockInformation.h</text>
</a>
</g>
</g>
<!-- Node1&#45;&gt;Node18 -->
<g id="edge26" class="edge"><title>Node1&#45;&gt;Node18</title>
<path fill="none" stroke="midnightblue" d="M1168.81,-224.382C1218.06,-188.51 1321.55,-113.124 1365,-81.475"/>
<polygon fill="midnightblue" stroke="midnightblue" points="1367.07,-84.3006 1373.09,-75.5838 1362.95,-78.6424 1367.07,-84.3006"/>
</g>
<!-- Node20 -->
<g id="node20" class="node"><title>Node20</title>
<g id="a_node20"><a xlink:href="_signal_8h.html" target="_top" xlink:title="Signal.h">
<polygon fill="none" stroke="black" points="1169.88,-112.5 1169.88,-131.5 1221.88,-131.5 1221.88,-112.5 1169.88,-112.5"/>
<text text-anchor="middle" x="1195.88" y="-119.5" font-family="Helvetica,sans-Serif" font-size="10.00">Signal.h</text>
</a>
</g>
</g>
<!-- Node1&#45;&gt;Node20 -->
<g id="edge31" class="edge"><title>Node1&#45;&gt;Node20</title>
<path fill="none" stroke="midnightblue" d="M1150.67,-224.29C1160.99,-201.166 1177.95,-163.16 1187.9,-140.864"/>
<polygon fill="midnightblue" stroke="midnightblue" points="1191.17,-142.133 1192.05,-131.575 1184.78,-139.28 1191.17,-142.133"/>
</g>
<!-- Node21 -->
<g id="node21" class="node"><title>Node21</title>
<g id="a_node21"><a xlink:href="_log_8h.html" target="_top" xlink:title="Log.h">
<polygon fill="none" stroke="black" points="1276.38,-56.5 1276.38,-75.5 1317.38,-75.5 1317.38,-56.5 1276.38,-56.5"/>
<text text-anchor="middle" x="1296.88" y="-63.5" font-family="Helvetica,sans-Serif" font-size="10.00">Log.h</text>
</a>
</g>
</g>
<!-- Node1&#45;&gt;Node21 -->
<g id="edge35" class="edge"><title>Node1&#45;&gt;Node21</title>
<path fill="none" stroke="midnightblue" d="M1138.83,-224.455C1135.6,-196.231 1134.12,-143.952 1160.88,-112 1164.39,-107.799 1227.53,-88.0526 1266.53,-76.1574"/>
<polygon fill="midnightblue" stroke="midnightblue" points="1267.79,-79.4305 1276.34,-73.1732 1265.76,-72.7332 1267.79,-79.4305"/>
</g>
<!-- Node22 -->
<g id="node22" class="node"><title>Node22</title>
<polygon fill="none" stroke="#bfbfbf" points="1277.88,-168.5 1277.88,-187.5 1333.88,-187.5 1333.88,-168.5 1277.88,-168.5"/>
<text text-anchor="middle" x="1305.88" y="-175.5" font-family="Helvetica,sans-Serif" font-size="10.00">algorithm</text>
</g>
<!-- Node1&#45;&gt;Node22 -->
<g id="edge38" class="edge"><title>Node1&#45;&gt;Node22</title>
<path fill="none" stroke="midnightblue" d="M1191.08,-224.498C1218.16,-213.766 1250.95,-200.769 1274.54,-191.419"/>
<polygon fill="midnightblue" stroke="midnightblue" points="1276.04,-194.591 1284.04,-187.652 1273.46,-188.083 1276.04,-194.591"/>
</g>
<!-- Node3 -->
<g id="node3" class="node"><title>Node3</title>
<g id="a_node3"><a xlink:href="_w_b_block_8h.html" target="_top" xlink:title="WBBlock.h">
<polygon fill="none" stroke="black" points="471.875,-112.5 471.875,-131.5 537.875,-131.5 537.875,-112.5 471.875,-112.5"/>
<text text-anchor="middle" x="504.875" y="-119.5" font-family="Helvetica,sans-Serif" font-size="10.00">WBBlock.h</text>
</a>
</g>
</g>
<!-- Node2&#45;&gt;Node3 -->
<g id="edge2" class="edge"><title>Node2&#45;&gt;Node3</title>
<path fill="none" stroke="midnightblue" d="M779.363,-169.032C717.017,-158.577 608.475,-140.374 548.254,-130.275"/>
<polygon fill="midnightblue" stroke="midnightblue" points="548.747,-126.809 538.306,-128.606 547.589,-133.712 548.747,-126.809"/>
</g>
<!-- Node6 -->
<g id="node6" class="node"><title>Node6</title>
<polygon fill="none" stroke="#bfbfbf" points="890.875,-0.5 890.875,-19.5 934.875,-19.5 934.875,-0.5 890.875,-0.5"/>
<text text-anchor="middle" x="912.875" y="-7.5" font-family="Helvetica,sans-Serif" font-size="10.00">vector</text>
</g>
<!-- Node2&#45;&gt;Node6 -->
<g id="edge24" class="edge"><title>Node2&#45;&gt;Node6</title>
<path fill="none" stroke="midnightblue" d="M779.23,-177.255C589.468,-177.49 -97.0691,-170.522 11.8755,-56 27.1599,-39.9331 720.983,-17.0623 880.443,-12.012"/>
<polygon fill="midnightblue" stroke="midnightblue" points="880.689,-15.5061 890.574,-11.6924 880.468,-8.50958 880.689,-15.5061"/>
</g>
<!-- Node8 -->
<g id="node8" class="node"><title>Node8</title>
<polygon fill="none" stroke="#bfbfbf" points="800.875,-56.5 800.875,-75.5 852.875,-75.5 852.875,-56.5 800.875,-56.5"/>
<text text-anchor="middle" x="826.875" y="-63.5" font-family="Helvetica,sans-Serif" font-size="10.00">memory</text>
</g>
<!-- Node2&#45;&gt;Node8 -->
<g id="edge25" class="edge"><title>Node2&#45;&gt;Node8</title>
<path fill="none" stroke="midnightblue" d="M826.875,-168.368C826.875,-150.617 826.875,-109.666 826.875,-85.5974"/>
<polygon fill="midnightblue" stroke="midnightblue" points="830.376,-85.5914 826.875,-75.5914 823.376,-85.5915 830.376,-85.5914"/>
</g>
<!-- Node2&#45;&gt;Node13 -->
<g id="edge13" class="edge"><title>Node2&#45;&gt;Node13</title>
<path fill="none" stroke="midnightblue" d="M859.2,-168.444C894.265,-159.162 950.374,-144.309 988.84,-134.127"/>
<polygon fill="midnightblue" stroke="midnightblue" points="989.931,-137.459 998.702,-131.516 988.14,-130.692 989.931,-137.459"/>
</g>
<!-- Node4 -->
<g id="node4" class="node"><title>Node4</title>
<g id="a_node4"><a xlink:href="_block_8h.html" target="_top" xlink:title="Block.h">
<polygon fill="none" stroke="black" points="368.875,-56.5 368.875,-75.5 418.875,-75.5 418.875,-56.5 368.875,-56.5"/>
<text text-anchor="middle" x="393.875" y="-63.5" font-family="Helvetica,sans-Serif" font-size="10.00">Block.h</text>
</a>
</g>
</g>
<!-- Node3&#45;&gt;Node4 -->
<g id="edge3" class="edge"><title>Node3&#45;&gt;Node4</title>
<path fill="none" stroke="midnightblue" d="M487.041,-112.324C469.16,-103.625 441.4,-90.1202 420.83,-80.113"/>
<polygon fill="midnightblue" stroke="midnightblue" points="422.189,-76.8819 411.665,-75.6545 419.126,-83.1765 422.189,-76.8819"/>
</g>
<!-- Node5 -->
<g id="node5" class="node"><title>Node5</title>
<polygon fill="none" stroke="#bfbfbf" points="1057.38,-0.5 1057.38,-19.5 1098.38,-19.5 1098.38,-0.5 1057.38,-0.5"/>
<text text-anchor="middle" x="1077.88" y="-7.5" font-family="Helvetica,sans-Serif" font-size="10.00">string</text>
</g>
<!-- Node3&#45;&gt;Node5 -->
<g id="edge6" class="edge"><title>Node3&#45;&gt;Node5</title>
<path fill="none" stroke="midnightblue" d="M538.148,-118.099C586.487,-113.188 678.483,-101.205 752.875,-76 771.325,-69.7491 773.354,-62.0343 791.875,-56 881.744,-26.7205 993.902,-16.1752 1047.11,-12.6398"/>
<polygon fill="midnightblue" stroke="midnightblue" points="1047.48,-16.1235 1057.25,-12.005 1047.05,-9.13721 1047.48,-16.1235"/>
</g>
<!-- Node7 -->
<g id="node7" class="node"><title>Node7</title>
<polygon fill="none" stroke="#bfbfbf" points="577.875,-0.5 577.875,-19.5 615.875,-19.5 615.875,-0.5 577.875,-0.5"/>
<text text-anchor="middle" x="596.875" y="-7.5" font-family="Helvetica,sans-Serif" font-size="10.00">array</text>
</g>
<!-- Node3&#45;&gt;Node7 -->
<g id="edge7" class="edge"><title>Node3&#45;&gt;Node7</title>
<path fill="none" stroke="midnightblue" d="M471.782,-118.039C419.51,-112.103 326.975,-95.7353 359.875,-56 385.909,-24.5583 509.717,-14.9078 567.299,-12.0928"/>
<polygon fill="midnightblue" stroke="midnightblue" points="567.731,-15.577 577.563,-11.6297 567.415,-8.58409 567.731,-15.577"/>
</g>
<!-- Node3&#45;&gt;Node8 -->
<g id="edge8" class="edge"><title>Node3&#45;&gt;Node8</title>
<path fill="none" stroke="midnightblue" d="M537.989,-116.407C590.802,-108.927 697.29,-93.2083 786.875,-76 788.134,-75.7583 789.413,-75.5061 790.703,-75.2461"/>
<polygon fill="midnightblue" stroke="midnightblue" points="791.612,-78.6315 800.675,-73.1436 790.168,-71.7821 791.612,-78.6315"/>
</g>
<!-- Node9 -->
<g id="node9" class="node"><title>Node9</title>
<polygon fill="none" stroke="#bfbfbf" points="591.375,-56.5 591.375,-75.5 744.375,-75.5 744.375,-56.5 591.375,-56.5"/>
<text text-anchor="middle" x="667.875" y="-63.5" font-family="Helvetica,sans-Serif" font-size="10.00">iDynTree/Core/VectorFixSize.h</text>
</g>
<!-- Node3&#45;&gt;Node9 -->
<g id="edge9" class="edge"><title>Node3&#45;&gt;Node9</title>
<path fill="none" stroke="midnightblue" d="M530.703,-112.444C558.125,-103.359 601.653,-88.9388 632.308,-78.7831"/>
<polygon fill="midnightblue" stroke="midnightblue" points="633.777,-81.9837 642.168,-75.5164 631.575,-75.3389 633.777,-81.9837"/>
</g>
<!-- Node10 -->
<g id="node10" class="node"><title>Node10</title>
<polygon fill="none" stroke="#bfbfbf" points="20.8755,-56.5 20.8755,-75.5 178.875,-75.5 178.875,-56.5 20.8755,-56.5"/>
<text text-anchor="middle" x="99.8755" y="-63.5" font-family="Helvetica,sans-Serif" font-size="10.00">iDynTree/Core/VectorDynSize.h</text>
</g>
<!-- Node3&#45;&gt;Node10 -->
<g id="edge10" class="edge"><title>Node3&#45;&gt;Node10</title>
<path fill="none" stroke="midnightblue" d="M471.733,-116.581C406.974,-107.946 262.246,-88.6494 173.657,-76.8375"/>
<polygon fill="midnightblue" stroke="midnightblue" points="174.047,-73.3586 163.672,-75.5062 173.122,-80.2972 174.047,-73.3586"/>
</g>
<!-- Node11 -->
<g id="node11" class="node"><title>Node11</title>
<polygon fill="none" stroke="#bfbfbf" points="196.875,-56.5 196.875,-75.5 312.875,-75.5 312.875,-56.5 196.875,-56.5"/>
<text text-anchor="middle" x="254.875" y="-63.5" font-family="Helvetica,sans-Serif" font-size="10.00">iDynTree/Core/Twist.h</text>
</g>
<!-- Node3&#45;&gt;Node11 -->
<g id="edge11" class="edge"><title>Node3&#45;&gt;Node11</title>
<path fill="none" stroke="midnightblue" d="M471.677,-113.829C428.807,-104.569 353.83,-88.3742 304.263,-77.6677"/>
<polygon fill="midnightblue" stroke="midnightblue" points="304.913,-74.2274 294.399,-75.5371 303.435,-81.0696 304.913,-74.2274"/>
</g>
<!-- Node12 -->
<g id="node12" class="node"><title>Node12</title>
<polygon fill="none" stroke="#bfbfbf" points="436.875,-56.5 436.875,-75.5 572.875,-75.5 572.875,-56.5 436.875,-56.5"/>
<text text-anchor="middle" x="504.875" y="-63.5" font-family="Helvetica,sans-Serif" font-size="10.00">iDynTree/Core/Transform.h</text>
</g>
<!-- Node3&#45;&gt;Node12 -->
<g id="edge12" class="edge"><title>Node3&#45;&gt;Node12</title>
<path fill="none" stroke="midnightblue" d="M504.875,-112.083C504.875,-105.006 504.875,-94.8611 504.875,-85.9865"/>
<polygon fill="midnightblue" stroke="midnightblue" points="508.376,-85.751 504.875,-75.7511 501.376,-85.7511 508.376,-85.751"/>
</g>
<!-- Node4&#45;&gt;Node5 -->
<g id="edge4" class="edge"><title>Node4&#45;&gt;Node5</title>
<path fill="none" stroke="midnightblue" d="M419.011,-57.7779C421.981,-57.0937 424.984,-56.4784 427.875,-56 443.345,-53.4408 919.877,-21.5406 1046.98,-13.0594"/>
<polygon fill="midnightblue" stroke="midnightblue" points="1047.43,-16.5367 1057.18,-12.3788 1046.97,-9.55224 1047.43,-16.5367"/>
</g>
<!-- Node4&#45;&gt;Node6 -->
<g id="edge5" class="edge"><title>Node4&#45;&gt;Node6</title>
<path fill="none" stroke="midnightblue" d="M419.022,-57.8449C421.991,-57.1487 424.99,-56.5122 427.875,-56 596.461,-26.0804 801.767,-15.3388 880.247,-12.1551"/>
<polygon fill="midnightblue" stroke="midnightblue" points="880.606,-15.6438 890.462,-11.7548 880.332,-8.64914 880.606,-15.6438"/>
</g>
<!-- Node13&#45;&gt;Node5 -->
<g id="edge19" class="edge"><title>Node13&#45;&gt;Node5</title>
<path fill="none" stroke="midnightblue" d="M1075.45,-118.339C1104.95,-113.985 1141.62,-103.043 1160.88,-76 1178.43,-51.3534 1138.7,-31.4333 1108.35,-20.4129"/>
<polygon fill="midnightblue" stroke="midnightblue" points="1109.11,-16.9723 1098.51,-17.0227 1106.83,-23.5902 1109.11,-16.9723"/>
</g>
<!-- Node13&#45;&gt;Node6 -->
<g id="edge20" class="edge"><title>Node13&#45;&gt;Node6</title>
<path fill="none" stroke="midnightblue" d="M1021.72,-112.08C1008.74,-99.4716 984.189,-75.769 962.875,-56 952.147,-46.049 939.943,-35.059 930.278,-26.4308"/>
<polygon fill="midnightblue" stroke="midnightblue" points="932.335,-23.5764 922.538,-19.542 927.681,-28.8051 932.335,-23.5764"/>
</g>
<!-- Node13&#45;&gt;Node8 -->
<g id="edge18" class="edge"><title>Node13&#45;&gt;Node8</title>
<path fill="none" stroke="midnightblue" d="M998.551,-112.444C961.526,-102.643 901.04,-86.6319 862.634,-76.4655"/>
<polygon fill="midnightblue" stroke="midnightblue" points="863.462,-73.0642 852.899,-73.8886 861.671,-79.8311 863.462,-73.0642"/>
</g>
<!-- Node13&#45;&gt;Node14 -->
<g id="edge14" class="edge"><title>Node13&#45;&gt;Node14</title>
<path fill="none" stroke="midnightblue" d="M1012.18,-112.444C992.931,-103.636 962.723,-89.8116 940.675,-79.722"/>
<polygon fill="midnightblue" stroke="midnightblue" points="942.035,-76.4951 931.485,-75.5164 939.122,-82.8603 942.035,-76.4951"/>
</g>
<!-- Node15 -->
<g id="node15" class="node"><title>Node15</title>
<polygon fill="none" stroke="#bfbfbf" points="1010.88,-56.5 1010.88,-75.5 1050.88,-75.5 1050.88,-56.5 1010.88,-56.5"/>
<text text-anchor="middle" x="1030.88" y="-63.5" font-family="Helvetica,sans-Serif" font-size="10.00">utility</text>
</g>
<!-- Node13&#45;&gt;Node15 -->
<g id="edge21" class="edge"><title>Node13&#45;&gt;Node15</title>
<path fill="none" stroke="midnightblue" d="M1030.88,-112.083C1030.88,-105.006 1030.88,-94.8611 1030.88,-85.9865"/>
<polygon fill="midnightblue" stroke="midnightblue" points="1034.38,-85.751 1030.88,-75.7511 1027.38,-85.7511 1034.38,-85.751"/>
</g>
<!-- Node16 -->
<g id="node16" class="node"><title>Node16</title>
<polygon fill="none" stroke="#bfbfbf" points="1209.38,-56.5 1209.38,-75.5 1258.38,-75.5 1258.38,-56.5 1209.38,-56.5"/>
<text text-anchor="middle" x="1233.88" y="-63.5" font-family="Helvetica,sans-Serif" font-size="10.00">cassert</text>
</g>
<!-- Node13&#45;&gt;Node16 -->
<g id="edge22" class="edge"><title>Node13&#45;&gt;Node16</title>
<path fill="none" stroke="midnightblue" d="M1063.04,-112.444C1100.14,-102.576 1160.9,-86.4126 1199.07,-76.2577"/>
<polygon fill="midnightblue" stroke="midnightblue" points="1200.44,-79.5162 1209.2,-73.5631 1198.64,-72.7514 1200.44,-79.5162"/>
</g>
<!-- Node17 -->
<g id="node17" class="node"><title>Node17</title>
<polygon fill="none" stroke="#bfbfbf" points="1069.38,-56.5 1069.38,-75.5 1152.38,-75.5 1152.38,-56.5 1069.38,-56.5"/>
<text text-anchor="middle" x="1110.88" y="-63.5" font-family="Helvetica,sans-Serif" font-size="10.00">unordered_map</text>
</g>
<!-- Node13&#45;&gt;Node17 -->
<g id="edge23" class="edge"><title>Node13&#45;&gt;Node17</title>
<path fill="none" stroke="midnightblue" d="M1043.73,-112.324C1056.09,-103.979 1075.01,-91.2122 1089.61,-81.3524"/>
<polygon fill="midnightblue" stroke="midnightblue" points="1091.72,-84.1503 1098.05,-75.6545 1087.81,-78.3483 1091.72,-84.1503"/>
</g>
<!-- Node14&#45;&gt;Node5 -->
<g id="edge17" class="edge"><title>Node14&#45;&gt;Node5</title>
<path fill="none" stroke="midnightblue" d="M939.02,-56.4435C968.411,-46.8247 1016.08,-31.2238 1047.21,-21.0372"/>
<polygon fill="midnightblue" stroke="midnightblue" points="1048.66,-24.2435 1057.08,-17.8067 1046.48,-17.5907 1048.66,-24.2435"/>
</g>
<!-- Node14&#45;&gt;Node6 -->
<g id="edge15" class="edge"><title>Node14&#45;&gt;Node6</title>
<path fill="none" stroke="midnightblue" d="M912.875,-56.083C912.875,-49.0059 912.875,-38.8611 912.875,-29.9865"/>
<polygon fill="midnightblue" stroke="midnightblue" points="916.376,-29.751 912.875,-19.7511 909.376,-29.7511 916.376,-29.751"/>
</g>
<!-- Node14&#45;&gt;Node7 -->
<g id="edge16" class="edge"><title>Node14&#45;&gt;Node7</title>
<path fill="none" stroke="midnightblue" d="M871.131,-57.6106C867.999,-57.0633 864.888,-56.5215 861.875,-56 776.199,-41.1661 674.855,-24.0866 626.038,-15.8888"/>
<polygon fill="midnightblue" stroke="midnightblue" points="626.609,-12.4358 616.168,-14.2322 625.451,-19.3392 626.609,-12.4358"/>
</g>
<!-- Node18&#45;&gt;Node5 -->
<g id="edge28" class="edge"><title>Node18&#45;&gt;Node5</title>
<path fill="none" stroke="midnightblue" d="M1336.23,-56.4435C1272.19,-45.1798 1161.52,-25.7129 1108.25,-16.3431"/>
<polygon fill="midnightblue" stroke="midnightblue" points="1108.85,-12.8945 1098.39,-14.6092 1107.64,-19.7887 1108.85,-12.8945"/>
</g>
<!-- Node19 -->
<g id="node19" class="node"><title>Node19</title>
<polygon fill="none" stroke="#bfbfbf" points="1352.88,-0.5 1352.88,-19.5 1416.88,-19.5 1416.88,-0.5 1352.88,-0.5"/>
<text text-anchor="middle" x="1384.88" y="-7.5" font-family="Helvetica,sans-Serif" font-size="10.00">AnyType.h</text>
</g>
<!-- Node18&#45;&gt;Node19 -->
<g id="edge27" class="edge"><title>Node18&#45;&gt;Node19</title>
<path fill="none" stroke="midnightblue" d="M1384.88,-56.083C1384.88,-49.0059 1384.88,-38.8611 1384.88,-29.9865"/>
<polygon fill="midnightblue" stroke="midnightblue" points="1388.38,-29.751 1384.88,-19.7511 1381.38,-29.7511 1388.38,-29.751"/>
</g>
<!-- Node20&#45;&gt;Node8 -->
<g id="edge34" class="edge"><title>Node20&#45;&gt;Node8</title>
<path fill="none" stroke="midnightblue" d="M1169.72,-118.535C1114.74,-113.13 983.044,-98.9999 863.246,-76.0709"/>
<polygon fill="midnightblue" stroke="midnightblue" points="863.657,-72.5853 853.173,-74.1163 862.323,-79.4572 863.657,-72.5853"/>
</g>
<!-- Node20&#45;&gt;Node16 -->
<g id="edge33" class="edge"><title>Node20&#45;&gt;Node16</title>
<path fill="none" stroke="midnightblue" d="M1202.15,-112.083C1207.52,-104.455 1215.39,-93.2645 1221.95,-83.9408"/>
<polygon fill="midnightblue" stroke="midnightblue" points="1224.82,-85.9434 1227.72,-75.7511 1219.1,-81.9149 1224.82,-85.9434"/>
</g>
<!-- Node20&#45;&gt;Node18 -->
<g id="edge32" class="edge"><title>Node20&#45;&gt;Node18</title>
<path fill="none" stroke="midnightblue" d="M1222.16,-113.492C1254.05,-104.379 1308.14,-88.9244 1345.14,-78.3542"/>
<polygon fill="midnightblue" stroke="midnightblue" points="1346.43,-81.6244 1355.08,-75.5118 1344.51,-74.8937 1346.43,-81.6244"/>
</g>
<!-- Node21&#45;&gt;Node5 -->
<g id="edge36" class="edge"><title>Node21&#45;&gt;Node5</title>
<path fill="none" stroke="midnightblue" d="M1276.26,-58.6459C1273.13,-57.7284 1269.92,-56.8187 1266.88,-56 1211.2,-41.0334 1145.61,-25.9913 1108.17,-17.6469"/>
<polygon fill="midnightblue" stroke="midnightblue" points="1108.91,-14.2257 1098.39,-15.4766 1107.39,-21.0596 1108.91,-14.2257"/>
</g>
<!-- Node21&#45;&gt;Node6 -->
<g id="edge37" class="edge"><title>Node21&#45;&gt;Node6</title>
<path fill="none" stroke="midnightblue" d="M1276.33,-58.3506C1273.19,-57.474 1269.96,-56.6542 1266.88,-56 1149.72,-31.1569 1007.64,-18.1732 945.081,-13.3043"/>
<polygon fill="midnightblue" stroke="midnightblue" points="945.28,-9.80941 935.043,-12.54 944.749,-16.7892 945.28,-9.80941"/>
</g>
</g>
</svg>
