<?xml version="1.0" encoding="UTF-8" standalone="no"?>
<!DOCTYPE svg PUBLIC "-//W3C//DTD SVG 1.1//EN"
 "http://www.w3.org/Graphics/SVG/1.1/DTD/svg11.dtd">
<!-- Generated by graphviz version 2.36.0 (20140111.2315)
 -->
<!-- Title: /home/travis/build/robotology/wb&#45;toolbox/toolbox/include/ModelPartitioner.h Pages: 1 -->
<!--zoomable 218 -->
<svg id="main" version="1.1" xmlns="http://www.w3.org/2000/svg" xmlns:xlink="http://www.w3.org/1999/xlink" xml:space="preserve" onload="init(evt)">
<style type="text/css"><![CDATA[
.edge:hover path { stroke: red; }
.edge:hover polygon { stroke: red; fill: red; }
]]></style>
<script type="text/javascript"><![CDATA[
var edges = document.getElementsByTagName('g');
if (edges && edges.length) {
  for (var i=0;i<edges.length;i++) {
    if (edges[i].id.substr(0,4)=='edge') {
      edges[i].setAttribute('class','edge');
    }
  }
}
]]></script>
        <defs>
                <circle id="rim" cx="0" cy="0" r="7"/>
                <circle id="rim2" cx="0" cy="0" r="3.5"/>
                <g id="zoomPlus">
                        <use xlink:href="#rim" fill="#404040">
                                <set attributeName="fill" to="#808080" begin="zoomplus.mouseover" end="zoomplus.mouseout"/>
                        </use>
                        <path d="M-4,0h8M0,-4v8" fill="none" stroke="white" stroke-width="1.5" pointer-events="none"/>
                </g>
                <g id="zoomMin">
                        <use xlink:href="#rim" fill="#404040">
                                <set attributeName="fill" to="#808080" begin="zoomminus.mouseover" end="zoomminus.mouseout"/>
                        </use>
                        <path d="M-4,0h8" fill="none" stroke="white" stroke-width="1.5" pointer-events="none"/>
                </g>
                <g id="dirArrow">
                        <path fill="none" stroke="white" stroke-width="1.5" d="M0,-3.0v7 M-2.5,-0.5L0,-3.0L2.5,-0.5"/>
                </g>
               <g id="resetDef">
                       <use xlink:href="#rim2" fill="#404040">
                               <set attributeName="fill" to="#808080" begin="reset.mouseover" end="reset.mouseout"/>
                       </use>
               </g>
        </defs>

<script type="text/javascript">
var viewWidth = 1206;
var viewHeight = 218;
var sectionId = 'dynsection-0';
</script>
<script xlink:href="svgpan.js"/>
<svg id="graph" class="graph">
<g id="viewport">
<title>/home/travis/build/robotology/wb&#45;toolbox/toolbox/include/ModelPartitioner.h</title>
<!-- Node1 -->
<g id="node1" class="node"><title>Node1</title>
<polygon fill="#bfbfbf" stroke="black" points="220.267,-168.5 220.267,-209.5 387.267,-209.5 387.267,-168.5 220.267,-168.5"/>
<text text-anchor="start" x="228.267" y="-197.5" font-family="Helvetica,sans-Serif" font-size="10.00">/home/travis/build</text>
<text text-anchor="start" x="228.267" y="-186.5" font-family="Helvetica,sans-Serif" font-size="10.00">/robotology/wb&#45;toolbox</text>
<text text-anchor="middle" x="303.767" y="-175.5" font-family="Helvetica,sans-Serif" font-size="10.00">/toolbox/include/ModelPartitioner.h</text>
</g>
<!-- Node2 -->
<g id="node2" class="node"><title>Node2</title>
<g id="a_node2"><a xlink:href="_w_b_block_8h.html" target="_top" xlink:title="WBBlock.h">
<polygon fill="none" stroke="black" points="610.767,-112.5 610.767,-131.5 676.767,-131.5 676.767,-112.5 610.767,-112.5"/>
<text text-anchor="middle" x="643.767" y="-119.5" font-family="Helvetica,sans-Serif" font-size="10.00">WBBlock.h</text>
</a>
</g>
</g>
<!-- Node1&#45;&gt;Node2 -->
<g id="edge1" class="edge"><title>Node1&#45;&gt;Node2</title>
<path fill="none" stroke="midnightblue" d="M387.376,-172.016C454.982,-159.091 547.416,-141.42 600.841,-131.206"/>
<polygon fill="midnightblue" stroke="midnightblue" points="601.502,-134.643 610.667,-129.328 600.188,-127.768 601.502,-134.643"/>
</g>
<!-- Node5 -->
<g id="node5" class="node"><title>Node5</title>
<polygon fill="none" stroke="#bfbfbf" points="122.767,-0.5 122.767,-19.5 166.767,-19.5 166.767,-0.5 122.767,-0.5"/>
<text text-anchor="middle" x="144.767" y="-7.5" font-family="Helvetica,sans-Serif" font-size="10.00">vector</text>
</g>
<!-- Node1&#45;&gt;Node5 -->
<g id="edge23" class="edge"><title>Node1&#45;&gt;Node5</title>
<path fill="none" stroke="midnightblue" d="M220.208,-181.812C149.998,-171.689 53.6715,-145.181 5.7668,-76 -22.3505,-35.3949 63.1593,-19.5119 112.464,-13.8395"/>
<polygon fill="midnightblue" stroke="midnightblue" points="113.102,-17.2915 122.674,-12.7501 112.359,-10.331 113.102,-17.2915"/>
</g>
<!-- Node7 -->
<g id="node7" class="node"><title>Node7</title>
<polygon fill="none" stroke="#bfbfbf" points="390.767,-56.5 390.767,-75.5 442.767,-75.5 442.767,-56.5 390.767,-56.5"/>
<text text-anchor="middle" x="416.767" y="-63.5" font-family="Helvetica,sans-Serif" font-size="10.00">memory</text>
</g>
<!-- Node1&#45;&gt;Node7 -->
<g id="edge24" class="edge"><title>Node1&#45;&gt;Node7</title>
<path fill="none" stroke="midnightblue" d="M322.174,-168.29C344.355,-144.538 381.2,-105.085 401.747,-83.0835"/>
<polygon fill="midnightblue" stroke="midnightblue" points="404.492,-85.2723 408.759,-75.5748 399.376,-80.4945 404.492,-85.2723"/>
</g>
<!-- Node12 -->
<g id="node12" class="node"><title>Node12</title>
<g id="a_node12"><a xlink:href="_robot_interface_8h.html" target="_top" xlink:title="RobotInterface.h">
<polygon fill="none" stroke="black" points="185.267,-112.5 185.267,-131.5 274.267,-131.5 274.267,-112.5 185.267,-112.5"/>
<text text-anchor="middle" x="229.767" y="-119.5" font-family="Helvetica,sans-Serif" font-size="10.00">RobotInterface.h</text>
</a>
</g>
</g>
<!-- Node1&#45;&gt;Node12 -->
<g id="edge12" class="edge"><title>Node1&#45;&gt;Node12</title>
<path fill="none" stroke="midnightblue" d="M281.564,-168.498C270.546,-158.82 257.432,-147.3 247.156,-138.274"/>
<polygon fill="midnightblue" stroke="midnightblue" points="249.44,-135.622 239.617,-131.652 244.821,-140.882 249.44,-135.622"/>
</g>
<!-- Node3 -->
<g id="node3" class="node"><title>Node3</title>
<g id="a_node3"><a xlink:href="_block_8h.html" target="_top" xlink:title="Block.h">
<polygon fill="none" stroke="black" points="460.767,-56.5 460.767,-75.5 510.767,-75.5 510.767,-56.5 460.767,-56.5"/>
<text text-anchor="middle" x="485.767" y="-63.5" font-family="Helvetica,sans-Serif" font-size="10.00">Block.h</text>
</a>
</g>
</g>
<!-- Node2&#45;&gt;Node3 -->
<g id="edge2" class="edge"><title>Node2&#45;&gt;Node3</title>
<path fill="none" stroke="midnightblue" d="M618.731,-112.444C592.151,-103.359 549.958,-88.9388 520.243,-78.7831"/>
<polygon fill="midnightblue" stroke="midnightblue" points="521.28,-75.4386 510.685,-75.5164 519.016,-82.0625 521.28,-75.4386"/>
</g>
<!-- Node4 -->
<g id="node4" class="node"><title>Node4</title>
<polygon fill="none" stroke="#bfbfbf" points="403.267,-0.5 403.267,-19.5 444.267,-19.5 444.267,-0.5 403.267,-0.5"/>
<text text-anchor="middle" x="423.767" y="-7.5" font-family="Helvetica,sans-Serif" font-size="10.00">string</text>
</g>
<!-- Node2&#45;&gt;Node4 -->
<g id="edge5" class="edge"><title>Node2&#45;&gt;Node4</title>
<path fill="none" stroke="midnightblue" d="M627.415,-112.313C598.737,-97.0966 540.452,-66.2631 519.767,-56 497.057,-44.732 470.995,-32.5631 451.763,-23.7243"/>
<polygon fill="midnightblue" stroke="midnightblue" points="453.197,-20.5319 442.648,-19.55 450.283,-26.8962 453.197,-20.5319"/>
</g>
<!-- Node6 -->
<g id="node6" class="node"><title>Node6</title>
<polygon fill="none" stroke="#bfbfbf" points="858.767,-0.5 858.767,-19.5 896.767,-19.5 896.767,-0.5 858.767,-0.5"/>
<text text-anchor="middle" x="877.767" y="-7.5" font-family="Helvetica,sans-Serif" font-size="10.00">array</text>
</g>
<!-- Node2&#45;&gt;Node6 -->
<g id="edge6" class="edge"><title>Node2&#45;&gt;Node6</title>
<path fill="none" stroke="midnightblue" d="M676.891,-120.837C790.407,-119.939 1158.67,-114.088 1193.77,-76 1199.79,-69.4634 1199.59,-62.7139 1193.77,-56 1156.72,-13.3023 978.009,-10.08 906.972,-10.5315"/>
<polygon fill="midnightblue" stroke="midnightblue" points="906.883,-7.03212 896.917,-10.6253 906.949,-14.0318 906.883,-7.03212"/>
</g>
<!-- Node2&#45;&gt;Node7 -->
<g id="edge7" class="edge"><title>Node2&#45;&gt;Node7</title>
<path fill="none" stroke="midnightblue" d="M610.76,-113.491C574.412,-105.171 513.99,-91.196 452.927,-76.2489"/>
<polygon fill="midnightblue" stroke="midnightblue" points="453.671,-72.8277 443.125,-73.8424 452.002,-79.6258 453.671,-72.8277"/>
</g>
<!-- Node8 -->
<g id="node8" class="node"><title>Node8</title>
<polygon fill="none" stroke="#bfbfbf" points="567.267,-56.5 567.267,-75.5 720.267,-75.5 720.267,-56.5 567.267,-56.5"/>
<text text-anchor="middle" x="643.767" y="-63.5" font-family="Helvetica,sans-Serif" font-size="10.00">iDynTree/Core/VectorFixSize.h</text>
</g>
<!-- Node2&#45;&gt;Node8 -->
<g id="edge8" class="edge"><title>Node2&#45;&gt;Node8</title>
<path fill="none" stroke="midnightblue" d="M643.767,-112.083C643.767,-105.006 643.767,-94.8611 643.767,-85.9865"/>
<polygon fill="midnightblue" stroke="midnightblue" points="647.267,-85.751 643.767,-75.7511 640.267,-85.7511 647.267,-85.751"/>
</g>
<!-- Node9 -->
<g id="node9" class="node"><title>Node9</title>
<polygon fill="none" stroke="#bfbfbf" points="738.767,-56.5 738.767,-75.5 896.767,-75.5 896.767,-56.5 738.767,-56.5"/>
<text text-anchor="middle" x="817.767" y="-63.5" font-family="Helvetica,sans-Serif" font-size="10.00">iDynTree/Core/VectorDynSize.h</text>
</g>
<!-- Node2&#45;&gt;Node9 -->
<g id="edge9" class="edge"><title>Node2&#45;&gt;Node9</title>
<path fill="none" stroke="midnightblue" d="M671.338,-112.444C700.864,-103.28 747.885,-88.6876 780.649,-78.5192"/>
<polygon fill="midnightblue" stroke="midnightblue" points="781.812,-81.8232 790.325,-75.5164 779.737,-75.1378 781.812,-81.8232"/>
</g>
<!-- Node10 -->
<g id="node10" class="node"><title>Node10</title>
<polygon fill="none" stroke="#bfbfbf" points="914.767,-56.5 914.767,-75.5 1030.77,-75.5 1030.77,-56.5 914.767,-56.5"/>
<text text-anchor="middle" x="972.767" y="-63.5" font-family="Helvetica,sans-Serif" font-size="10.00">iDynTree/Core/Twist.h</text>
</g>
<!-- Node2&#45;&gt;Node10 -->
<g id="edge10" class="edge"><title>Node2&#45;&gt;Node10</title>
<path fill="none" stroke="midnightblue" d="M676.819,-115.575C731.488,-106.602 841.586,-88.5312 910.996,-77.1386"/>
<polygon fill="midnightblue" stroke="midnightblue" points="911.63,-80.5816 920.931,-75.5081 910.496,-73.674 911.63,-80.5816"/>
</g>
<!-- Node11 -->
<g id="node11" class="node"><title>Node11</title>
<polygon fill="none" stroke="#bfbfbf" points="1048.77,-56.5 1048.77,-75.5 1184.77,-75.5 1184.77,-56.5 1048.77,-56.5"/>
<text text-anchor="middle" x="1116.77" y="-63.5" font-family="Helvetica,sans-Serif" font-size="10.00">iDynTree/Core/Transform.h</text>
</g>
<!-- Node2&#45;&gt;Node11 -->
<g id="edge11" class="edge"><title>Node2&#45;&gt;Node11</title>
<path fill="none" stroke="midnightblue" d="M676.801,-117.253C744.634,-109.555 904.54,-91.3897 1038.77,-76 1038.87,-75.9884 1038.97,-75.9767 1039.07,-75.965"/>
<polygon fill="midnightblue" stroke="midnightblue" points="1039.17,-79.4771 1048.7,-74.8593 1038.37,-72.5228 1039.17,-79.4771"/>
</g>
<!-- Node3&#45;&gt;Node4 -->
<g id="edge3" class="edge"><title>Node3&#45;&gt;Node4</title>
<path fill="none" stroke="midnightblue" d="M475.805,-56.324C466.64,-48.3414 452.83,-36.3128 441.739,-26.6529"/>
<polygon fill="midnightblue" stroke="midnightblue" points="443.749,-23.7624 433.909,-19.8339 439.152,-29.041 443.749,-23.7624"/>
</g>
<!-- Node3&#45;&gt;Node5 -->
<g id="edge4" class="edge"><title>Node3&#45;&gt;Node5</title>
<path fill="none" stroke="midnightblue" d="M460.591,-57.996C457.628,-57.2727 454.638,-56.5885 451.767,-56 352.367,-35.6273 233.038,-20.8724 176.92,-14.4977"/>
<polygon fill="midnightblue" stroke="midnightblue" points="177.207,-11.0081 166.879,-13.3703 176.426,-17.9644 177.207,-11.0081"/>
</g>
<!-- Node12&#45;&gt;Node4 -->
<g id="edge18" class="edge"><title>Node12&#45;&gt;Node4</title>
<path fill="none" stroke="midnightblue" d="M257.768,-112.446C281.308,-104.656 315.4,-91.9473 342.767,-76 366.953,-61.9066 391.593,-41.0016 407.243,-26.7298"/>
<polygon fill="midnightblue" stroke="midnightblue" points="410.007,-28.9392 414.951,-19.5689 405.243,-23.8105 410.007,-28.9392"/>
</g>
<!-- Node12&#45;&gt;Node5 -->
<g id="edge19" class="edge"><title>Node12&#45;&gt;Node5</title>
<path fill="none" stroke="midnightblue" d="M184.855,-118.042C128.489,-113.285 36.6409,-101.72 15.7668,-76 -13.2505,-40.2464 65.7187,-22.3425 112.697,-15.076"/>
<polygon fill="midnightblue" stroke="midnightblue" points="113.359,-18.5167 122.747,-13.6068 112.346,-11.5903 113.359,-18.5167"/>
</g>
<!-- Node12&#45;&gt;Node7 -->
<g id="edge17" class="edge"><title>Node12&#45;&gt;Node7</title>
<path fill="none" stroke="midnightblue" d="M259.398,-112.444C292.298,-102.943 345.409,-87.6061 380.7,-77.415"/>
<polygon fill="midnightblue" stroke="midnightblue" points="381.957,-80.695 390.594,-74.558 380.015,-73.9698 381.957,-80.695"/>
</g>
<!-- Node13 -->
<g id="node13" class="node"><title>Node13</title>
<g id="a_node13"><a xlink:href="_configuration_8h.html" target="_top" xlink:title="Configuration.h">
<polygon fill="none" stroke="black" points="251.267,-56.5 251.267,-75.5 334.267,-75.5 334.267,-56.5 251.267,-56.5"/>
<text text-anchor="middle" x="292.767" y="-63.5" font-family="Helvetica,sans-Serif" font-size="10.00">Configuration.h</text>
</a>
</g>
</g>
<!-- Node12&#45;&gt;Node13 -->
<g id="edge13" class="edge"><title>Node12&#45;&gt;Node13</title>
<path fill="none" stroke="midnightblue" d="M239.889,-112.324C249.293,-104.263 263.511,-92.0765 274.836,-82.3695"/>
<polygon fill="midnightblue" stroke="midnightblue" points="277.146,-84.9993 282.461,-75.8339 272.59,-79.6844 277.146,-84.9993"/>
</g>
<!-- Node14 -->
<g id="node14" class="node"><title>Node14</title>
<polygon fill="none" stroke="#bfbfbf" points="24.7668,-56.5 24.7668,-75.5 64.7668,-75.5 64.7668,-56.5 24.7668,-56.5"/>
<text text-anchor="middle" x="44.7668" y="-63.5" font-family="Helvetica,sans-Serif" font-size="10.00">utility</text>
</g>
<!-- Node12&#45;&gt;Node14 -->
<g id="edge20" class="edge"><title>Node12&#45;&gt;Node14</title>
<path fill="none" stroke="midnightblue" d="M199.517,-112.468C170.016,-104.106 123.636,-90.8455 74.8233,-76.2764"/>
<polygon fill="midnightblue" stroke="midnightblue" points="75.6161,-72.8604 65.0324,-73.3462 73.6091,-79.5665 75.6161,-72.8604"/>
</g>
<!-- Node15 -->
<g id="node15" class="node"><title>Node15</title>
<polygon fill="none" stroke="#bfbfbf" points="83.2668,-56.5 83.2668,-75.5 132.267,-75.5 132.267,-56.5 83.2668,-56.5"/>
<text text-anchor="middle" x="107.767" y="-63.5" font-family="Helvetica,sans-Serif" font-size="10.00">cassert</text>
</g>
<!-- Node12&#45;&gt;Node15 -->
<g id="edge21" class="edge"><title>Node12&#45;&gt;Node15</title>
<path fill="none" stroke="midnightblue" d="M210.436,-112.444C190.447,-103.596 159.024,-89.6875 136.203,-79.5865"/>
<polygon fill="midnightblue" stroke="midnightblue" points="137.569,-76.3635 127.008,-75.5164 134.735,-82.7645 137.569,-76.3635"/>
</g>
<!-- Node16 -->
<g id="node16" class="node"><title>Node16</title>
<polygon fill="none" stroke="#bfbfbf" points="150.267,-56.5 150.267,-75.5 233.267,-75.5 233.267,-56.5 150.267,-56.5"/>
<text text-anchor="middle" x="191.767" y="-63.5" font-family="Helvetica,sans-Serif" font-size="10.00">unordered_map</text>
</g>
<!-- Node12&#45;&gt;Node16 -->
<g id="edge22" class="edge"><title>Node12&#45;&gt;Node16</title>
<path fill="none" stroke="midnightblue" d="M223.492,-112.083C218.124,-104.455 210.249,-93.2645 203.688,-83.9408"/>
<polygon fill="midnightblue" stroke="midnightblue" points="206.542,-81.9149 197.925,-75.7511 200.818,-85.9434 206.542,-81.9149"/>
</g>
<!-- Node13&#45;&gt;Node4 -->
<g id="edge16" class="edge"><title>Node13&#45;&gt;Node4</title>
<path fill="none" stroke="midnightblue" d="M313.524,-56.4435C335.083,-47.5566 369.03,-33.5632 393.561,-23.4514"/>
<polygon fill="midnightblue" stroke="midnightblue" points="395.195,-26.5634 403.107,-19.5164 392.527,-20.0917 395.195,-26.5634"/>
</g>
<!-- Node13&#45;&gt;Node5 -->
<g id="edge14" class="edge"><title>Node13&#45;&gt;Node5</title>
<path fill="none" stroke="midnightblue" d="M269.316,-56.4435C244.344,-47.3322 204.661,-32.8531 176.814,-22.6929"/>
<polygon fill="midnightblue" stroke="midnightblue" points="177.733,-19.3027 167.139,-19.1629 175.334,-25.8786 177.733,-19.3027"/>
</g>
<!-- Node13&#45;&gt;Node6 -->
<g id="edge15" class="edge"><title>Node13&#45;&gt;Node6</title>
<path fill="none" stroke="midnightblue" d="M334.414,-60.6989C349.346,-59.1806 366.308,-57.4829 381.767,-56 558.553,-39.0423 770.952,-20.3277 848.012,-13.5918"/>
<polygon fill="midnightblue" stroke="midnightblue" points="848.722,-17.0433 858.379,-12.6866 848.113,-10.0698 848.722,-17.0433"/>
</g>
</g>
</svg>
        <g id="navigator" transform="translate(0 0)" fill="#404254">
                <rect fill="#f2f5e9" fill-opacity="0.5" stroke="#606060" stroke-width=".5" x="0" y="0" width="60" height="60"/>
                <use id="zoomplus" xlink:href="#zoomPlus" x="17" y="9" onmousedown="handleZoom(evt,'in')"/>
                <use id="zoomminus" xlink:href="#zoomMin" x="42" y="9" onmousedown="handleZoom(evt,'out')"/>
                <use id="reset" xlink:href="#resetDef" x="30" y="36" onmousedown="handleReset()"/>
                <g id="arrowUp" xlink:href="#dirArrow" transform="translate(30 24)" onmousedown="handlePan(0,-1)">
                  <use xlink:href="#rim" fill="#404040">
                        <set attributeName="fill" to="#808080" begin="arrowUp.mouseover" end="arrowUp.mouseout"/>
                  </use>
                  <path fill="none" stroke="white" stroke-width="1.5" d="M0,-3.0v7 M-2.5,-0.5L0,-3.0L2.5,-0.5"/>
                </g>
                <g id="arrowRight" xlink:href="#dirArrow" transform="rotate(90) translate(36 -43)" onmousedown="handlePan(1,0)">
                  <use xlink:href="#rim" fill="#404040">
                        <set attributeName="fill" to="#808080" begin="arrowRight.mouseover" end="arrowRight.mouseout"/>
                  </use>
                  <path fill="none" stroke="white" stroke-width="1.5" d="M0,-3.0v7 M-2.5,-0.5L0,-3.0L2.5,-0.5"/>
                </g>
                <g id="arrowDown" xlink:href="#dirArrow" transform="rotate(180) translate(-30 -48)" onmousedown="handlePan(0,1)">
                  <use xlink:href="#rim" fill="#404040">
                        <set attributeName="fill" to="#808080" begin="arrowDown.mouseover" end="arrowDown.mouseout"/>
                  </use>
                  <path fill="none" stroke="white" stroke-width="1.5" d="M0,-3.0v7 M-2.5,-0.5L0,-3.0L2.5,-0.5"/>
                </g>
                <g id="arrowLeft" xlink:href="#dirArrow" transform="rotate(270) translate(-36 17)" onmousedown="handlePan(-1,0)">
                  <use xlink:href="#rim" fill="#404040">
                        <set attributeName="fill" to="#808080" begin="arrowLeft.mouseover" end="arrowLeft.mouseout"/>
                  </use>
                  <path fill="none" stroke="white" stroke-width="1.5" d="M0,-3.0v7 M-2.5,-0.5L0,-3.0L2.5,-0.5"/>
                </g>
        </g>
        <svg viewBox="0 0 15 15" width="100%" height="30px" preserveAspectRatio="xMaxYMin meet">
         <g id="arrow_out" transform="scale(0.3 0.3)">
          <a xlink:href="_model_partitioner_8h__incl_org.svg" target="_base">
           <rect id="button" ry="5" rx="5" y="6" x="6" height="38" width="38"
                fill="#f2f5e9" fill-opacity="0.5" stroke="#606060" stroke-width="1.0"/>
           <path id="arrow"
             d="M 11.500037,31.436501 C 11.940474,20.09759 22.043105,11.32322 32.158766,21.979434 L 37.068811,17.246167 C 37.068811,17.246167 37.088388,32 37.088388,32 L 22.160133,31.978069 C 22.160133,31.978069 26.997745,27.140456 26.997745,27.140456 C 18.528582,18.264221 13.291696,25.230495 11.500037,31.436501 z"
             style="fill:#404040;"/>
          </a>
         </g>
        </svg>
</svg>
