<?xml version="1.0" encoding="UTF-8" standalone="no"?>
<!DOCTYPE svg PUBLIC "-//W3C//DTD SVG 1.1//EN"
 "http://www.w3.org/Graphics/SVG/1.1/DTD/svg11.dtd">
<!-- Generated by graphviz version 2.43.0 (0)
 -->
<!-- Title: /home/runner/work/wb&#45;toolbox/wb&#45;toolbox/toolbox/library/src/OSQP.cpp Pages: 1 -->
<svg width="1707pt" height="162pt"
 viewBox="0.00 0.00 1707.00 162.00" xmlns="http://www.w3.org/2000/svg" xmlns:xlink="http://www.w3.org/1999/xlink">
<g id="graph0" class="graph" transform="scale(1 1) rotate(0) translate(4 158)">
<title>/home/runner/work/wb&#45;toolbox/wb&#45;toolbox/toolbox/library/src/OSQP.cpp</title>
<!-- Node1 -->
<g id="node1" class="node">
<title>Node1</title>
<g id="a_node1"><a xlink:title=" ">
<polygon fill="#bfbfbf" stroke="black" points="1017,-112.5 1017,-153.5 1172,-153.5 1172,-112.5 1017,-112.5"/>
<text text-anchor="start" x="1025" y="-141.5" font-family="Helvetica,sans-Serif" font-size="10.00">/home/runner/work/wb</text>
<text text-anchor="start" x="1025" y="-130.5" font-family="Helvetica,sans-Serif" font-size="10.00">&#45;toolbox/wb&#45;toolbox/toolbox</text>
<text text-anchor="middle" x="1094.5" y="-119.5" font-family="Helvetica,sans-Serif" font-size="10.00">/library/src/OSQP.cpp</text>
</a>
</g>
</g>
<!-- Node2 -->
<g id="node2" class="node">
<title>Node2</title>
<g id="a_node2"><a xlink:href="_o_s_q_p_8h.html" target="_top" xlink:title=" ">
<polygon fill="none" stroke="black" points="121.5,-56.5 121.5,-75.5 259.5,-75.5 259.5,-56.5 121.5,-56.5"/>
<text text-anchor="middle" x="190.5" y="-63.5" font-family="Helvetica,sans-Serif" font-size="10.00">WBToolbox/Block/OSQP.h</text>
</a>
</g>
</g>
<!-- Node1&#45;&gt;Node2 -->
<g id="edge1" class="edge">
<title>Node1&#45;&gt;Node2</title>
<path fill="none" stroke="midnightblue" d="M1016.97,-127.97C872.25,-120.17 550.96,-101.6 269.79,-76.08"/>
<polygon fill="midnightblue" stroke="midnightblue" points="270.08,-72.59 259.8,-75.17 269.45,-79.56 270.08,-72.59"/>
</g>
<!-- Node6 -->
<g id="node6" class="node">
<title>Node6</title>
<g id="a_node6"><a xlink:title=" ">
<polygon fill="none" stroke="#bfbfbf" points="277.5,-56.5 277.5,-75.5 477.5,-75.5 477.5,-56.5 277.5,-56.5"/>
<text text-anchor="middle" x="377.5" y="-63.5" font-family="Helvetica,sans-Serif" font-size="10.00">BlockFactory/Core/BlockInformation.h</text>
</a>
</g>
</g>
<!-- Node1&#45;&gt;Node6 -->
<g id="edge5" class="edge">
<title>Node1&#45;&gt;Node6</title>
<path fill="none" stroke="midnightblue" d="M1016.75,-124.95C887.17,-113.2 626.98,-89.62 481.69,-76.45"/>
<polygon fill="midnightblue" stroke="midnightblue" points="481.7,-72.93 471.43,-75.51 481.07,-79.9 481.7,-72.93"/>
</g>
<!-- Node7 -->
<g id="node7" class="node">
<title>Node7</title>
<g id="a_node7"><a xlink:title=" ">
<polygon fill="none" stroke="#bfbfbf" points="495.5,-56.5 495.5,-75.5 629.5,-75.5 629.5,-56.5 495.5,-56.5"/>
<text text-anchor="middle" x="562.5" y="-63.5" font-family="Helvetica,sans-Serif" font-size="10.00">BlockFactory/Core/Log.h</text>
</a>
</g>
</g>
<!-- Node1&#45;&gt;Node7 -->
<g id="edge6" class="edge">
<title>Node1&#45;&gt;Node7</title>
<path fill="none" stroke="midnightblue" d="M1016.86,-122.51C915.92,-110.18 740.68,-88.77 639.88,-76.45"/>
<polygon fill="midnightblue" stroke="midnightblue" points="640.11,-72.96 629.76,-75.22 639.26,-79.91 640.11,-72.96"/>
</g>
<!-- Node8 -->
<g id="node8" class="node">
<title>Node8</title>
<g id="a_node8"><a xlink:title=" ">
<polygon fill="none" stroke="#bfbfbf" points="647.5,-56.5 647.5,-75.5 813.5,-75.5 813.5,-56.5 647.5,-56.5"/>
<text text-anchor="middle" x="730.5" y="-63.5" font-family="Helvetica,sans-Serif" font-size="10.00">BlockFactory/Core/Parameter.h</text>
</a>
</g>
</g>
<!-- Node1&#45;&gt;Node8 -->
<g id="edge7" class="edge">
<title>Node1&#45;&gt;Node8</title>
<path fill="none" stroke="midnightblue" d="M1016.86,-118.14C948.33,-105.9 849.98,-88.34 788.21,-77.3"/>
<polygon fill="midnightblue" stroke="midnightblue" points="788.7,-73.84 778.24,-75.53 787.47,-80.73 788.7,-73.84"/>
</g>
<!-- Node9 -->
<g id="node9" class="node">
<title>Node9</title>
<g id="a_node9"><a xlink:title=" ">
<polygon fill="none" stroke="#bfbfbf" points="831.5,-56.5 831.5,-75.5 1003.5,-75.5 1003.5,-56.5 831.5,-56.5"/>
<text text-anchor="middle" x="917.5" y="-63.5" font-family="Helvetica,sans-Serif" font-size="10.00">BlockFactory/Core/Parameters.h</text>
</a>
</g>
</g>
<!-- Node1&#45;&gt;Node9 -->
<g id="edge8" class="edge">
<title>Node1&#45;&gt;Node9</title>
<path fill="none" stroke="midnightblue" d="M1041.39,-112.5C1011.91,-101.67 976.15,-88.54 950.64,-79.17"/>
<polygon fill="midnightblue" stroke="midnightblue" points="951.66,-75.81 941.06,-75.65 949.24,-82.39 951.66,-75.81"/>
</g>
<!-- Node10 -->
<g id="node10" class="node">
<title>Node10</title>
<g id="a_node10"><a xlink:title=" ">
<polygon fill="none" stroke="#bfbfbf" points="1021.5,-56.5 1021.5,-75.5 1167.5,-75.5 1167.5,-56.5 1021.5,-56.5"/>
<text text-anchor="middle" x="1094.5" y="-63.5" font-family="Helvetica,sans-Serif" font-size="10.00">BlockFactory/Core/Signal.h</text>
</a>
</g>
</g>
<!-- Node1&#45;&gt;Node10 -->
<g id="edge9" class="edge">
<title>Node1&#45;&gt;Node10</title>
<path fill="none" stroke="midnightblue" d="M1094.5,-112.5C1094.5,-104.07 1094.5,-94.24 1094.5,-85.87"/>
<polygon fill="midnightblue" stroke="midnightblue" points="1098,-85.65 1094.5,-75.65 1091,-85.65 1098,-85.65"/>
</g>
<!-- Node11 -->
<g id="node11" class="node">
<title>Node11</title>
<g id="a_node11"><a xlink:title=" ">
<polygon fill="none" stroke="#bfbfbf" points="1186,-56.5 1186,-75.5 1255,-75.5 1255,-56.5 1186,-56.5"/>
<text text-anchor="middle" x="1220.5" y="-63.5" font-family="Helvetica,sans-Serif" font-size="10.00">Eigen/Core</text>
</a>
</g>
</g>
<!-- Node1&#45;&gt;Node11 -->
<g id="edge10" class="edge">
<title>Node1&#45;&gt;Node11</title>
<path fill="none" stroke="midnightblue" d="M1132.3,-112.5C1152.37,-102.15 1176.51,-89.69 1194.46,-80.43"/>
<polygon fill="midnightblue" stroke="midnightblue" points="1196.44,-83.35 1203.73,-75.65 1193.24,-77.13 1196.44,-83.35"/>
</g>
<!-- Node12 -->
<g id="node12" class="node">
<title>Node12</title>
<g id="a_node12"><a xlink:title=" ">
<polygon fill="none" stroke="#bfbfbf" points="1273,-56.5 1273,-75.5 1414,-75.5 1414,-56.5 1273,-56.5"/>
<text text-anchor="middle" x="1343.5" y="-63.5" font-family="Helvetica,sans-Serif" font-size="10.00">OsqpEigen/Constants.hpp</text>
</a>
</g>
</g>
<!-- Node1&#45;&gt;Node12 -->
<g id="edge11" class="edge">
<title>Node1&#45;&gt;Node12</title>
<path fill="none" stroke="midnightblue" d="M1169.21,-112.5C1212.29,-101.25 1264.89,-87.52 1300.97,-78.1"/>
<polygon fill="midnightblue" stroke="midnightblue" points="1301.89,-81.48 1310.68,-75.57 1300.12,-74.71 1301.89,-81.48"/>
</g>
<!-- Node13 -->
<g id="node13" class="node">
<title>Node13</title>
<g id="a_node13"><a xlink:title=" ">
<polygon fill="none" stroke="#bfbfbf" points="1432.5,-56.5 1432.5,-75.5 1564.5,-75.5 1564.5,-56.5 1432.5,-56.5"/>
<text text-anchor="middle" x="1498.5" y="-63.5" font-family="Helvetica,sans-Serif" font-size="10.00">OsqpEigen/OsqpEigen.h</text>
</a>
</g>
</g>
<!-- Node1&#45;&gt;Node13 -->
<g id="edge12" class="edge">
<title>Node1&#45;&gt;Node13</title>
<path fill="none" stroke="midnightblue" d="M1172.4,-119.47C1249,-107.14 1364.47,-88.56 1435.48,-77.14"/>
<polygon fill="midnightblue" stroke="midnightblue" points="1436.3,-80.55 1445.62,-75.51 1435.19,-73.64 1436.3,-80.55"/>
</g>
<!-- Node14 -->
<g id="node14" class="node">
<title>Node14</title>
<g id="a_node14"><a xlink:title=" ">
<polygon fill="none" stroke="#bfbfbf" points="1583,-56.5 1583,-75.5 1640,-75.5 1640,-56.5 1583,-56.5"/>
<text text-anchor="middle" x="1611.5" y="-63.5" font-family="Helvetica,sans-Serif" font-size="10.00">ostream</text>
</a>
</g>
</g>
<!-- Node1&#45;&gt;Node14 -->
<g id="edge13" class="edge">
<title>Node1&#45;&gt;Node14</title>
<path fill="none" stroke="midnightblue" d="M1172.06,-125.73C1264.98,-117.58 1425.5,-101.52 1572.81,-75.92"/>
<polygon fill="midnightblue" stroke="midnightblue" points="1573.7,-79.32 1582.94,-74.14 1572.49,-72.42 1573.7,-79.32"/>
</g>
<!-- Node15 -->
<g id="node15" class="node">
<title>Node15</title>
<g id="a_node15"><a xlink:title=" ">
<polygon fill="none" stroke="#bfbfbf" points="1658,-56.5 1658,-75.5 1699,-75.5 1699,-56.5 1658,-56.5"/>
<text text-anchor="middle" x="1678.5" y="-63.5" font-family="Helvetica,sans-Serif" font-size="10.00">tuple</text>
</a>
</g>
</g>
<!-- Node1&#45;&gt;Node15 -->
<g id="edge14" class="edge">
<title>Node1&#45;&gt;Node15</title>
<path fill="none" stroke="midnightblue" d="M1172.45,-129.06C1278.51,-123.96 1474.1,-110.68 1647.89,-75.99"/>
<polygon fill="midnightblue" stroke="midnightblue" points="1648.61,-79.41 1657.72,-74 1647.23,-72.55 1648.61,-79.41"/>
</g>
<!-- Node3 -->
<g id="node3" class="node">
<title>Node3</title>
<g id="a_node3"><a xlink:title=" ">
<polygon fill="none" stroke="#bfbfbf" points="0,-0.5 0,-19.5 143,-19.5 143,-0.5 0,-0.5"/>
<text text-anchor="middle" x="71.5" y="-7.5" font-family="Helvetica,sans-Serif" font-size="10.00">BlockFactory/Core/Block.h</text>
</a>
</g>
</g>
<!-- Node2&#45;&gt;Node3 -->
<g id="edge2" class="edge">
<title>Node2&#45;&gt;Node3</title>
<path fill="none" stroke="midnightblue" d="M171.64,-56.44C152.23,-47.64 121.77,-33.81 99.54,-23.72"/>
<polygon fill="midnightblue" stroke="midnightblue" points="100.82,-20.46 90.27,-19.52 97.93,-26.84 100.82,-20.46"/>
</g>
<!-- Node4 -->
<g id="node4" class="node">
<title>Node4</title>
<g id="a_node4"><a xlink:title=" ">
<polygon fill="none" stroke="#bfbfbf" points="161.5,-0.5 161.5,-19.5 219.5,-19.5 219.5,-0.5 161.5,-0.5"/>
<text text-anchor="middle" x="190.5" y="-7.5" font-family="Helvetica,sans-Serif" font-size="10.00">memory</text>
</a>
</g>
</g>
<!-- Node2&#45;&gt;Node4 -->
<g id="edge3" class="edge">
<title>Node2&#45;&gt;Node4</title>
<path fill="none" stroke="midnightblue" d="M190.5,-56.08C190.5,-49.01 190.5,-38.86 190.5,-29.99"/>
<polygon fill="midnightblue" stroke="midnightblue" points="194,-29.75 190.5,-19.75 187,-29.75 194,-29.75"/>
</g>
<!-- Node5 -->
<g id="node5" class="node">
<title>Node5</title>
<g id="a_node5"><a xlink:title=" ">
<polygon fill="none" stroke="#bfbfbf" points="237.5,-0.5 237.5,-19.5 281.5,-19.5 281.5,-0.5 237.5,-0.5"/>
<text text-anchor="middle" x="259.5" y="-7.5" font-family="Helvetica,sans-Serif" font-size="10.00">string</text>
</a>
</g>
</g>
<!-- Node2&#45;&gt;Node5 -->
<g id="edge4" class="edge">
<title>Node2&#45;&gt;Node5</title>
<path fill="none" stroke="midnightblue" d="M201.59,-56.32C211.99,-48.18 227.76,-35.84 240.22,-26.09"/>
<polygon fill="midnightblue" stroke="midnightblue" points="242.49,-28.75 248.21,-19.83 238.18,-23.24 242.49,-28.75"/>
</g>
</g>
</svg>
