<?xml version="1.0" encoding="UTF-8" standalone="no"?>
<!DOCTYPE svg PUBLIC "-//W3C//DTD SVG 1.1//EN"
 "http://www.w3.org/Graphics/SVG/1.1/DTD/svg11.dtd">
<!-- Generated by graphviz version 2.36.0 (20140111.2315)
 -->
<!-- Title: /home/travis/build/robotology/wb&#45;toolbox/toolbox/core/src/Parameters.cpp Pages: 1 -->
<svg width="715pt" height="162pt"
 viewBox="0.00 0.00 715.00 162.00" xmlns="http://www.w3.org/2000/svg" xmlns:xlink="http://www.w3.org/1999/xlink">
<g id="graph0" class="graph" transform="scale(1 1) rotate(0) translate(4 158)">
<title>/home/travis/build/robotology/wb&#45;toolbox/toolbox/core/src/Parameters.cpp</title>
<!-- Node1 -->
<g id="node1" class="node"><title>Node1</title>
<polygon fill="#bfbfbf" stroke="black" points="348.5,-112.5 348.5,-153.5 509.5,-153.5 509.5,-112.5 348.5,-112.5"/>
<text text-anchor="start" x="356.5" y="-141.5" font-family="Helvetica,sans-Serif" font-size="10.00">/home/travis/build</text>
<text text-anchor="start" x="356.5" y="-130.5" font-family="Helvetica,sans-Serif" font-size="10.00">/robotology/wb&#45;toolbox</text>
<text text-anchor="middle" x="429" y="-119.5" font-family="Helvetica,sans-Serif" font-size="10.00">/toolbox/core/src/Parameters.cpp</text>
</g>
<!-- Node2 -->
<g id="node2" class="node"><title>Node2</title>
<g id="a_node2"><a xlink:href="_parameters_8h.html" target="_top" xlink:title="Core/Parameters.h">
<polygon fill="none" stroke="black" points="82.5,-56.5 82.5,-75.5 181.5,-75.5 181.5,-56.5 82.5,-56.5"/>
<text text-anchor="middle" x="132" y="-63.5" font-family="Helvetica,sans-Serif" font-size="10.00">Core/Parameters.h</text>
</a>
</g>
</g>
<!-- Node1&#45;&gt;Node2 -->
<g id="edge1" class="edge"><title>Node1&#45;&gt;Node2</title>
<path fill="none" stroke="midnightblue" d="M348.236,-114.324C294.738,-102.616 226.313,-87.641 180.917,-77.7057"/>
<polygon fill="midnightblue" stroke="midnightblue" points="181.546,-74.2605 171.028,-75.5416 180.049,-81.0987 181.546,-74.2605"/>
</g>
<!-- Node5 -->
<g id="node5" class="node"><title>Node5</title>
<polygon fill="none" stroke="#bfbfbf" points="305,-0.5 305,-19.5 349,-19.5 349,-0.5 305,-0.5"/>
<text text-anchor="middle" x="327" y="-7.5" font-family="Helvetica,sans-Serif" font-size="10.00">vector</text>
</g>
<!-- Node1&#45;&gt;Node5 -->
<g id="edge18" class="edge"><title>Node1&#45;&gt;Node5</title>
<path fill="none" stroke="midnightblue" d="M442.063,-112.317C451.119,-95.9654 459.643,-72.7521 448,-56 428.178,-27.4793 388.014,-16.9984 359.4,-13.1679"/>
<polygon fill="midnightblue" stroke="midnightblue" points="359.771,-9.68762 349.44,-12.0365 358.981,-16.6429 359.771,-9.68762"/>
</g>
<!-- Node6 -->
<g id="node6" class="node"><title>Node6</title>
<g id="a_node6"><a xlink:href="_convert_std_vector_8h.html" target="_top" xlink:title="Core/ConvertStdVector.h">
<polygon fill="none" stroke="black" points="199.5,-56.5 199.5,-75.5 326.5,-75.5 326.5,-56.5 199.5,-56.5"/>
<text text-anchor="middle" x="263" y="-63.5" font-family="Helvetica,sans-Serif" font-size="10.00">Core/ConvertStdVector.h</text>
</a>
</g>
</g>
<!-- Node1&#45;&gt;Node6 -->
<g id="edge5" class="edge"><title>Node1&#45;&gt;Node6</title>
<path fill="none" stroke="midnightblue" d="M379.195,-112.498C351.786,-101.766 318.595,-88.7691 294.717,-79.4192"/>
<polygon fill="midnightblue" stroke="midnightblue" points="295.685,-76.0396 285.097,-75.6525 293.133,-82.5577 295.685,-76.0396"/>
</g>
<!-- Node7 -->
<g id="node7" class="node"><title>Node7</title>
<g id="a_node7"><a xlink:href="_log_8h.html" target="_top" xlink:title="Core/Log.h">
<polygon fill="none" stroke="black" points="-0.5,-56.5 -0.5,-75.5 64.5,-75.5 64.5,-56.5 -0.5,-56.5"/>
<text text-anchor="middle" x="32" y="-63.5" font-family="Helvetica,sans-Serif" font-size="10.00">Core/Log.h</text>
</a>
</g>
</g>
<!-- Node1&#45;&gt;Node7 -->
<g id="edge8" class="edge"><title>Node1&#45;&gt;Node7</title>
<path fill="none" stroke="midnightblue" d="M348.171,-120.698C278.191,-110.589 174.047,-94.7676 74.5594,-76.2122"/>
<polygon fill="midnightblue" stroke="midnightblue" points="75.1117,-72.7548 64.6376,-74.3495 73.8201,-79.6346 75.1117,-72.7548"/>
</g>
<!-- Node9 -->
<g id="node9" class="node"><title>Node9</title>
<g id="a_node9"><a xlink:href="_parameter_8h.html" target="_top" xlink:title="Core/Parameter.h">
<polygon fill="none" stroke="black" points="345,-56.5 345,-75.5 439,-75.5 439,-56.5 345,-56.5"/>
<text text-anchor="middle" x="392" y="-63.5" font-family="Helvetica,sans-Serif" font-size="10.00">Core/Parameter.h</text>
</a>
</g>
</g>
<!-- Node1&#45;&gt;Node9 -->
<g id="edge12" class="edge"><title>Node1&#45;&gt;Node9</title>
<path fill="none" stroke="midnightblue" d="M417.899,-112.498C412.826,-103.586 406.865,-93.1135 401.941,-84.4636"/>
<polygon fill="midnightblue" stroke="midnightblue" points="404.914,-82.6117 396.925,-75.6525 398.831,-86.0746 404.914,-82.6117"/>
</g>
<!-- Node10 -->
<g id="node10" class="node"><title>Node10</title>
<polygon fill="none" stroke="#bfbfbf" points="495,-56.5 495,-75.5 547,-75.5 547,-56.5 495,-56.5"/>
<text text-anchor="middle" x="521" y="-63.5" font-family="Helvetica,sans-Serif" font-size="10.00">stddef.h</text>
</g>
<!-- Node1&#45;&gt;Node10 -->
<g id="edge15" class="edge"><title>Node1&#45;&gt;Node10</title>
<path fill="none" stroke="midnightblue" d="M456.603,-112.498C470.708,-102.532 487.577,-90.6142 500.51,-81.4764"/>
<polygon fill="midnightblue" stroke="midnightblue" points="502.606,-84.2814 508.753,-75.6525 498.567,-78.5643 502.606,-84.2814"/>
</g>
<!-- Node11 -->
<g id="node11" class="node"><title>Node11</title>
<polygon fill="none" stroke="#bfbfbf" points="565.5,-56.5 565.5,-75.5 648.5,-75.5 648.5,-56.5 565.5,-56.5"/>
<text text-anchor="middle" x="607" y="-63.5" font-family="Helvetica,sans-Serif" font-size="10.00">unordered_map</text>
</g>
<!-- Node1&#45;&gt;Node11 -->
<g id="edge16" class="edge"><title>Node1&#45;&gt;Node11</title>
<path fill="none" stroke="midnightblue" d="M482.406,-112.498C512.058,-101.67 548.022,-88.5369 573.674,-79.1696"/>
<polygon fill="midnightblue" stroke="midnightblue" points="575.113,-82.3704 583.305,-75.6525 572.712,-75.795 575.113,-82.3704"/>
</g>
<!-- Node12 -->
<g id="node12" class="node"><title>Node12</title>
<polygon fill="none" stroke="#bfbfbf" points="667,-56.5 667,-75.5 707,-75.5 707,-56.5 667,-56.5"/>
<text text-anchor="middle" x="687" y="-63.5" font-family="Helvetica,sans-Serif" font-size="10.00">utility</text>
</g>
<!-- Node1&#45;&gt;Node12 -->
<g id="edge17" class="edge"><title>Node1&#45;&gt;Node12</title>
<path fill="none" stroke="midnightblue" d="M509.713,-113.228C553.442,-102.793 608.336,-89.2668 657,-76 657.098,-75.9732 657.197,-75.9463 657.296,-75.9193"/>
<polygon fill="midnightblue" stroke="midnightblue" points="658.048,-79.3444 666.707,-73.2395 656.131,-72.612 658.048,-79.3444"/>
</g>
<!-- Node3 -->
<g id="node3" class="node"><title>Node3</title>
<polygon fill="none" stroke="#bfbfbf" points="85,-0.5 85,-19.5 137,-19.5 137,-0.5 85,-0.5"/>
<text text-anchor="middle" x="111" y="-7.5" font-family="Helvetica,sans-Serif" font-size="10.00">memory</text>
</g>
<!-- Node2&#45;&gt;Node3 -->
<g id="edge2" class="edge"><title>Node2&#45;&gt;Node3</title>
<path fill="none" stroke="midnightblue" d="M128.532,-56.083C125.688,-48.77 121.571,-38.1814 118.04,-29.1034"/>
<polygon fill="midnightblue" stroke="midnightblue" points="121.29,-27.8025 114.403,-19.7511 114.766,-30.3397 121.29,-27.8025"/>
</g>
<!-- Node4 -->
<g id="node4" class="node"><title>Node4</title>
<polygon fill="none" stroke="#bfbfbf" points="172.5,-0.5 172.5,-19.5 213.5,-19.5 213.5,-0.5 172.5,-0.5"/>
<text text-anchor="middle" x="193" y="-7.5" font-family="Helvetica,sans-Serif" font-size="10.00">string</text>
</g>
<!-- Node2&#45;&gt;Node4 -->
<g id="edge3" class="edge"><title>Node2&#45;&gt;Node4</title>
<path fill="none" stroke="midnightblue" d="M141.801,-56.324C150.818,-48.3414 164.406,-36.3128 175.318,-26.6529"/>
<polygon fill="midnightblue" stroke="midnightblue" points="177.853,-29.083 183.021,-19.8339 173.213,-23.8416 177.853,-29.083"/>
</g>
<!-- Node2&#45;&gt;Node5 -->
<g id="edge4" class="edge"><title>Node2&#45;&gt;Node5</title>
<path fill="none" stroke="midnightblue" d="M162.898,-56.4435C199.022,-46.44 258.511,-29.9661 295.072,-19.8415"/>
<polygon fill="midnightblue" stroke="midnightblue" points="296.035,-23.2068 304.738,-17.1649 294.166,-16.4607 296.035,-23.2068"/>
</g>
<!-- Node6&#45;&gt;Node4 -->
<g id="edge6" class="edge"><title>Node6&#45;&gt;Node4</title>
<path fill="none" stroke="midnightblue" d="M251.753,-56.324C241.203,-48.1849 225.199,-35.8395 212.558,-26.0874"/>
<polygon fill="midnightblue" stroke="midnightblue" points="214.507,-23.1707 204.451,-19.8339 210.231,-28.7132 214.507,-23.1707"/>
</g>
<!-- Node6&#45;&gt;Node5 -->
<g id="edge7" class="edge"><title>Node6&#45;&gt;Node5</title>
<path fill="none" stroke="midnightblue" d="M273.283,-56.324C282.836,-48.2631 297.28,-36.0765 308.784,-26.3695"/>
<polygon fill="midnightblue" stroke="midnightblue" points="311.144,-28.9577 316.53,-19.8339 306.63,-23.6076 311.144,-28.9577"/>
</g>
<!-- Node7&#45;&gt;Node3 -->
<g id="edge9" class="edge"><title>Node7&#45;&gt;Node3</title>
<path fill="none" stroke="midnightblue" d="M44.6927,-56.324C56.9011,-47.979 75.5785,-35.2122 90.0029,-25.3524"/>
<polygon fill="midnightblue" stroke="midnightblue" points="92.0582,-28.1871 98.3388,-19.6545 88.108,-22.4082 92.0582,-28.1871"/>
</g>
<!-- Node7&#45;&gt;Node4 -->
<g id="edge11" class="edge"><title>Node7&#45;&gt;Node4</title>
<path fill="none" stroke="midnightblue" d="M57.5109,-56.4435C86.0299,-46.8782 132.187,-31.3969 162.567,-21.2075"/>
<polygon fill="midnightblue" stroke="midnightblue" points="163.848,-24.4693 172.216,-17.971 161.622,-17.8327 163.848,-24.4693"/>
</g>
<!-- Node8 -->
<g id="node8" class="node"><title>Node8</title>
<polygon fill="none" stroke="#bfbfbf" points="6,-0.5 6,-19.5 58,-19.5 58,-0.5 6,-0.5"/>
<text text-anchor="middle" x="32" y="-7.5" font-family="Helvetica,sans-Serif" font-size="10.00">sstream</text>
</g>
<!-- Node7&#45;&gt;Node8 -->
<g id="edge10" class="edge"><title>Node7&#45;&gt;Node8</title>
<path fill="none" stroke="midnightblue" d="M32,-56.083C32,-49.0059 32,-38.8611 32,-29.9865"/>
<polygon fill="midnightblue" stroke="midnightblue" points="35.5001,-29.751 32,-19.7511 28.5001,-29.7511 35.5001,-29.751"/>
</g>
<!-- Node9&#45;&gt;Node4 -->
<g id="edge13" class="edge"><title>Node9&#45;&gt;Node4</title>
<path fill="none" stroke="midnightblue" d="M360.468,-56.4435C322.902,-46.2497 260.575,-29.3371 223.479,-19.2707"/>
<polygon fill="midnightblue" stroke="midnightblue" points="224.294,-15.8654 213.727,-16.6243 222.461,-22.6211 224.294,-15.8654"/>
</g>
<!-- Node9&#45;&gt;Node5 -->
<g id="edge14" class="edge"><title>Node9&#45;&gt;Node5</title>
<path fill="none" stroke="midnightblue" d="M381.557,-56.324C371.854,-48.2631 357.185,-36.0765 345.5,-26.3695"/>
<polygon fill="midnightblue" stroke="midnightblue" points="347.562,-23.532 337.633,-19.8339 343.089,-28.9163 347.562,-23.532"/>
</g>
</g>
</svg>
