<?xml version="1.0" encoding="UTF-8" standalone="no"?>
<!DOCTYPE svg PUBLIC "-//W3C//DTD SVG 1.1//EN"
 "http://www.w3.org/Graphics/SVG/1.1/DTD/svg11.dtd">
<!-- Generated by graphviz version 2.38.0 (20140413.2041)
 -->
<!-- Title: /home/travis/build/robotology/wb&#45;toolbox/toolbox/library/src/QpOases.cpp Pages: 1 -->
<svg width="1487pt" height="162pt"
 viewBox="0.00 0.00 1486.50 162.00" xmlns="http://www.w3.org/2000/svg" xmlns:xlink="http://www.w3.org/1999/xlink">
<g id="graph0" class="graph" transform="scale(1 1) rotate(0) translate(4 158)">
<title>/home/travis/build/robotology/wb&#45;toolbox/toolbox/library/src/QpOases.cpp</title>
<!-- Node1 -->
<g id="node1" class="node"><title>Node1</title>
<polygon fill="#bfbfbf" stroke="black" points="911.5,-112.5 911.5,-153.5 1082.5,-153.5 1082.5,-112.5 911.5,-112.5"/>
<text text-anchor="start" x="919.5" y="-141.5" font-family="Helvetica,sans-Serif" font-size="10.00">/home/travis/build</text>
<text text-anchor="start" x="919.5" y="-130.5" font-family="Helvetica,sans-Serif" font-size="10.00">/robotology/wb&#45;toolbox</text>
<text text-anchor="middle" x="997" y="-119.5" font-family="Helvetica,sans-Serif" font-size="10.00">/toolbox/library/src/QpOases.cpp</text>
</g>
<!-- Node2 -->
<g id="node2" class="node"><title>Node2</title>
<g id="a_node2"><a xlink:href="_qp_oases_8h.html" target="_top" xlink:title="WBToolbox/Block/QpOases.h">
<polygon fill="none" stroke="black" points="111.5,-56.5 111.5,-75.5 262.5,-75.5 262.5,-56.5 111.5,-56.5"/>
<text text-anchor="middle" x="187" y="-63.5" font-family="Helvetica,sans-Serif" font-size="10.00">WBToolbox/Block/QpOases.h</text>
</a>
</g>
</g>
<!-- Node1&#45;&gt;Node2 -->
<g id="edge1" class="edge"><title>Node1&#45;&gt;Node2</title>
<path fill="none" stroke="midnightblue" d="M911.276,-126.17C777.462,-116.894 510.544,-97.6864 272.76,-76.0441"/>
<polygon fill="midnightblue" stroke="midnightblue" points="272.81,-72.5342 262.533,-75.1101 272.173,-79.5051 272.81,-72.5342"/>
</g>
<!-- Node6 -->
<g id="node6" class="node"><title>Node6</title>
<polygon fill="none" stroke="#bfbfbf" points="281,-56.5 281,-75.5 475,-75.5 475,-56.5 281,-56.5"/>
<text text-anchor="middle" x="378" y="-63.5" font-family="Helvetica,sans-Serif" font-size="10.00">BlockFactory/Core/BlockInformation.h</text>
</g>
<!-- Node1&#45;&gt;Node6 -->
<g id="edge5" class="edge"><title>Node1&#45;&gt;Node6</title>
<path fill="none" stroke="midnightblue" d="M911.256,-122.996C794.985,-110.787 588.206,-89.0733 469.186,-76.5753"/>
<polygon fill="midnightblue" stroke="midnightblue" points="469.318,-73.07 459.008,-75.5064 468.587,-80.0317 469.318,-73.07"/>
</g>
<!-- Node7 -->
<g id="node7" class="node"><title>Node7</title>
<polygon fill="none" stroke="#bfbfbf" points="493.5,-56.5 493.5,-75.5 624.5,-75.5 624.5,-56.5 493.5,-56.5"/>
<text text-anchor="middle" x="559" y="-63.5" font-family="Helvetica,sans-Serif" font-size="10.00">BlockFactory/Core/Log.h</text>
</g>
<!-- Node1&#45;&gt;Node7 -->
<g id="edge6" class="edge"><title>Node1&#45;&gt;Node7</title>
<path fill="none" stroke="midnightblue" d="M911.249,-119.274C827.828,-106.895 702.794,-88.3393 626.3,-76.9875"/>
<polygon fill="midnightblue" stroke="midnightblue" points="626.704,-73.5092 616.299,-75.5032 625.676,-80.4333 626.704,-73.5092"/>
</g>
<!-- Node8 -->
<g id="node8" class="node"><title>Node8</title>
<polygon fill="none" stroke="#bfbfbf" points="643,-56.5 643,-75.5 807,-75.5 807,-56.5 643,-56.5"/>
<text text-anchor="middle" x="725" y="-63.5" font-family="Helvetica,sans-Serif" font-size="10.00">BlockFactory/Core/Parameter.h</text>
</g>
<!-- Node1&#45;&gt;Node8 -->
<g id="edge7" class="edge"><title>Node1&#45;&gt;Node8</title>
<path fill="none" stroke="midnightblue" d="M915.391,-112.498C868.031,-101.18 810.135,-87.3446 770.707,-77.9227"/>
<polygon fill="midnightblue" stroke="midnightblue" points="771.39,-74.4873 760.85,-75.5671 769.763,-81.2956 771.39,-74.4873"/>
</g>
<!-- Node9 -->
<g id="node9" class="node"><title>Node9</title>
<polygon fill="none" stroke="#bfbfbf" points="825,-56.5 825,-75.5 995,-75.5 995,-56.5 825,-56.5"/>
<text text-anchor="middle" x="910" y="-63.5" font-family="Helvetica,sans-Serif" font-size="10.00">BlockFactory/Core/Parameters.h</text>
</g>
<!-- Node1&#45;&gt;Node9 -->
<g id="edge8" class="edge"><title>Node1&#45;&gt;Node9</title>
<path fill="none" stroke="midnightblue" d="M970.897,-112.498C957.687,-102.628 941.913,-90.8432 929.73,-81.7407"/>
<polygon fill="midnightblue" stroke="midnightblue" points="931.687,-78.8339 921.581,-75.6525 927.497,-84.4417 931.687,-78.8339"/>
</g>
<!-- Node10 -->
<g id="node10" class="node"><title>Node10</title>
<polygon fill="none" stroke="#bfbfbf" points="1013.5,-56.5 1013.5,-75.5 1156.5,-75.5 1156.5,-56.5 1013.5,-56.5"/>
<text text-anchor="middle" x="1085" y="-63.5" font-family="Helvetica,sans-Serif" font-size="10.00">BlockFactory/Core/Signal.h</text>
</g>
<!-- Node1&#45;&gt;Node10 -->
<g id="edge9" class="edge"><title>Node1&#45;&gt;Node10</title>
<path fill="none" stroke="midnightblue" d="M1023.4,-112.498C1036.77,-102.628 1052.72,-90.8432 1065.04,-81.7407"/>
<polygon fill="midnightblue" stroke="midnightblue" points="1067.32,-84.4092 1073.29,-75.6525 1063.16,-78.7786 1067.32,-84.4092"/>
</g>
<!-- Node11 -->
<g id="node11" class="node"><title>Node11</title>
<polygon fill="none" stroke="#bfbfbf" points="1175,-56.5 1175,-75.5 1243,-75.5 1243,-56.5 1175,-56.5"/>
<text text-anchor="middle" x="1209" y="-63.5" font-family="Helvetica,sans-Serif" font-size="10.00">Eigen/Core</text>
</g>
<!-- Node1&#45;&gt;Node11 -->
<g id="edge10" class="edge"><title>Node1&#45;&gt;Node11</title>
<path fill="none" stroke="midnightblue" d="M1060.61,-112.498C1096.66,-101.444 1140.54,-87.9895 1171.2,-78.59"/>
<polygon fill="midnightblue" stroke="midnightblue" points="1172.52,-81.8447 1181.06,-75.5671 1170.47,-75.1522 1172.52,-81.8447"/>
</g>
<!-- Node12 -->
<g id="node12" class="node"><title>Node12</title>
<polygon fill="none" stroke="#bfbfbf" points="1261.5,-56.5 1261.5,-75.5 1344.5,-75.5 1344.5,-56.5 1261.5,-56.5"/>
<text text-anchor="middle" x="1303" y="-63.5" font-family="Helvetica,sans-Serif" font-size="10.00">qpOASES.hpp</text>
</g>
<!-- Node1&#45;&gt;Node12 -->
<g id="edge11" class="edge"><title>Node1&#45;&gt;Node12</title>
<path fill="none" stroke="midnightblue" d="M1082.64,-113.807C1137.38,-102.18 1206.49,-87.5006 1252.58,-77.711"/>
<polygon fill="midnightblue" stroke="midnightblue" points="1253.57,-81.0787 1262.62,-75.5771 1252.11,-74.2314 1253.57,-81.0787"/>
</g>
<!-- Node13 -->
<g id="node13" class="node"><title>Node13</title>
<polygon fill="none" stroke="#bfbfbf" points="1362.5,-56.5 1362.5,-75.5 1419.5,-75.5 1419.5,-56.5 1362.5,-56.5"/>
<text text-anchor="middle" x="1391" y="-63.5" font-family="Helvetica,sans-Serif" font-size="10.00">ostream</text>
</g>
<!-- Node1&#45;&gt;Node13 -->
<g id="edge12" class="edge"><title>Node1&#45;&gt;Node13</title>
<path fill="none" stroke="midnightblue" d="M1082.83,-120.576C1152.96,-110.77 1254.84,-95.4562 1352.34,-76.2097"/>
<polygon fill="midnightblue" stroke="midnightblue" points="1353.24,-79.5983 1362.37,-74.2129 1351.88,-72.733 1353.24,-79.5983"/>
</g>
<!-- Node14 -->
<g id="node14" class="node"><title>Node14</title>
<polygon fill="none" stroke="#bfbfbf" points="1437.5,-56.5 1437.5,-75.5 1478.5,-75.5 1478.5,-56.5 1437.5,-56.5"/>
<text text-anchor="middle" x="1458" y="-63.5" font-family="Helvetica,sans-Serif" font-size="10.00">tuple</text>
</g>
<!-- Node1&#45;&gt;Node14 -->
<g id="edge13" class="edge"><title>Node1&#45;&gt;Node14</title>
<path fill="none" stroke="midnightblue" d="M1082.58,-125.279C1167.97,-117.582 1302.88,-102.736 1427.14,-76.1122"/>
<polygon fill="midnightblue" stroke="midnightblue" points="1428.18,-79.4675 1437.21,-73.9231 1426.69,-72.6273 1428.18,-79.4675"/>
</g>
<!-- Node3 -->
<g id="node3" class="node"><title>Node3</title>
<polygon fill="none" stroke="#bfbfbf" points="0,-0.5 0,-19.5 140,-19.5 140,-0.5 0,-0.5"/>
<text text-anchor="middle" x="70" y="-7.5" font-family="Helvetica,sans-Serif" font-size="10.00">BlockFactory/Core/Block.h</text>
</g>
<!-- Node2&#45;&gt;Node3 -->
<g id="edge2" class="edge"><title>Node2&#45;&gt;Node3</title>
<path fill="none" stroke="midnightblue" d="M168.461,-56.4435C149.377,-47.6356 119.425,-33.8116 97.5643,-23.722"/>
<polygon fill="midnightblue" stroke="midnightblue" points="98.9986,-20.5292 88.4523,-19.5164 96.0651,-26.8849 98.9986,-20.5292"/>
</g>
<!-- Node4 -->
<g id="node4" class="node"><title>Node4</title>
<polygon fill="none" stroke="#bfbfbf" points="158.5,-0.5 158.5,-19.5 215.5,-19.5 215.5,-0.5 158.5,-0.5"/>
<text text-anchor="middle" x="187" y="-7.5" font-family="Helvetica,sans-Serif" font-size="10.00">memory</text>
</g>
<!-- Node2&#45;&gt;Node4 -->
<g id="edge3" class="edge"><title>Node2&#45;&gt;Node4</title>
<path fill="none" stroke="midnightblue" d="M187,-56.083C187,-49.0059 187,-38.8611 187,-29.9865"/>
<polygon fill="midnightblue" stroke="midnightblue" points="190.5,-29.751 187,-19.7511 183.5,-29.7511 190.5,-29.751"/>
</g>
<!-- Node5 -->
<g id="node5" class="node"><title>Node5</title>
<polygon fill="none" stroke="#bfbfbf" points="234,-0.5 234,-19.5 278,-19.5 278,-0.5 234,-0.5"/>
<text text-anchor="middle" x="256" y="-7.5" font-family="Helvetica,sans-Serif" font-size="10.00">string</text>
</g>
<!-- Node2&#45;&gt;Node5 -->
<g id="edge4" class="edge"><title>Node2&#45;&gt;Node5</title>
<path fill="none" stroke="midnightblue" d="M198.086,-56.324C208.486,-48.1849 224.261,-35.8395 236.722,-26.0874"/>
<polygon fill="midnightblue" stroke="midnightblue" points="238.994,-28.7533 244.712,-19.8339 234.68,-23.2407 238.994,-28.7533"/>
</g>
</g>
</svg>
