<?xml version="1.0" encoding="UTF-8" standalone="no"?>
<!DOCTYPE svg PUBLIC "-//W3C//DTD SVG 1.1//EN"
 "http://www.w3.org/Graphics/SVG/1.1/DTD/svg11.dtd">
<!-- Generated by graphviz version 2.36.0 (20140111.2315)
 -->
<!-- Title: /home/travis/build/robotology/wb&#45;toolbox/toolbox/library/src/RealTimeSynchronizer.cpp Pages: 1 -->
<!--zoomable 286 -->
<svg id="main" version="1.1" xmlns="http://www.w3.org/2000/svg" xmlns:xlink="http://www.w3.org/1999/xlink" xml:space="preserve" onload="init(evt)">
<style type="text/css"><![CDATA[
.edge:hover path { stroke: red; }
.edge:hover polygon { stroke: red; fill: red; }
]]></style>
<script type="text/javascript"><![CDATA[
var edges = document.getElementsByTagName('g');
if (edges && edges.length) {
  for (var i=0;i<edges.length;i++) {
    if (edges[i].id.substr(0,4)=='edge') {
      edges[i].setAttribute('class','edge');
    }
  }
}
]]></script>
        <defs>
                <circle id="rim" cx="0" cy="0" r="7"/>
                <circle id="rim2" cx="0" cy="0" r="3.5"/>
                <g id="zoomPlus">
                        <use xlink:href="#rim" fill="#404040">
                                <set attributeName="fill" to="#808080" begin="zoomplus.mouseover" end="zoomplus.mouseout"/>
                        </use>
                        <path d="M-4,0h8M0,-4v8" fill="none" stroke="white" stroke-width="1.5" pointer-events="none"/>
                </g>
                <g id="zoomMin">
                        <use xlink:href="#rim" fill="#404040">
                                <set attributeName="fill" to="#808080" begin="zoomminus.mouseover" end="zoomminus.mouseout"/>
                        </use>
                        <path d="M-4,0h8" fill="none" stroke="white" stroke-width="1.5" pointer-events="none"/>
                </g>
                <g id="dirArrow">
                        <path fill="none" stroke="white" stroke-width="1.5" d="M0,-3.0v7 M-2.5,-0.5L0,-3.0L2.5,-0.5"/>
                </g>
               <g id="resetDef">
                       <use xlink:href="#rim2" fill="#404040">
                               <set attributeName="fill" to="#808080" begin="reset.mouseover" end="reset.mouseout"/>
                       </use>
               </g>
        </defs>

<script type="text/javascript">
var viewWidth = 881;
var viewHeight = 286;
var sectionId = 'dynsection-0';
</script>
<script xlink:href="svgpan.js"/>
<svg id="graph" class="graph">
<g id="viewport">
<title>/home/travis/build/robotology/wb&#45;toolbox/toolbox/library/src/RealTimeSynchronizer.cpp</title>
<!-- Node1 -->
<g id="node1" class="node"><title>Node1</title>
<polygon fill="#bfbfbf" stroke="black" points="455,-225 455,-277 597,-277 597,-225 455,-225"/>
<text text-anchor="start" x="463" y="-265" font-family="Helvetica,sans-Serif" font-size="10.00">/home/travis/build</text>
<text text-anchor="start" x="463" y="-254" font-family="Helvetica,sans-Serif" font-size="10.00">/robotology/wb&#45;toolbox</text>
<text text-anchor="start" x="463" y="-243" font-family="Helvetica,sans-Serif" font-size="10.00">/toolbox/library/src/RealTime</text>
<text text-anchor="middle" x="526" y="-232" font-family="Helvetica,sans-Serif" font-size="10.00">Synchronizer.cpp</text>
</g>
<!-- Node2 -->
<g id="node2" class="node"><title>Node2</title>
<g id="a_node2"><a xlink:href="_real_time_synchronizer_8h.html" target="_top" xlink:title="RealTimeSynchronizer.h">
<polygon fill="none" stroke="black" points="123,-168.5 123,-187.5 247,-187.5 247,-168.5 123,-168.5"/>
<text text-anchor="middle" x="185" y="-175.5" font-family="Helvetica,sans-Serif" font-size="10.00">RealTimeSynchronizer.h</text>
</a>
</g>
</g>
<!-- Node1&#45;&gt;Node2 -->
<g id="edge1" class="edge"><title>Node1&#45;&gt;Node2</title>
<path fill="none" stroke="midnightblue" d="M454.93,-235.202C389.563,-221.592 294.223,-201.741 236.086,-189.637"/>
<polygon fill="midnightblue" stroke="midnightblue" points="236.535,-186.155 226.031,-187.543 235.108,-193.008 236.535,-186.155"/>
</g>
<!-- Node4 -->
<g id="node4" class="node"><title>Node4</title>
<g id="a_node4"><a xlink:href="_parameters_8h.html" target="_top" xlink:title="Core/Parameters.h">
<polygon fill="none" stroke="black" points="197.5,-56.5 197.5,-75.5 296.5,-75.5 296.5,-56.5 197.5,-56.5"/>
<text text-anchor="middle" x="247" y="-63.5" font-family="Helvetica,sans-Serif" font-size="10.00">Core/Parameters.h</text>
</a>
</g>
</g>
<!-- Node1&#45;&gt;Node4 -->
<g id="edge24" class="edge"><title>Node1&#45;&gt;Node4</title>
<path fill="none" stroke="midnightblue" d="M487.791,-224.938C428.328,-185.936 315.592,-111.99 268.507,-81.1067"/>
<polygon fill="midnightblue" stroke="midnightblue" points="270.282,-78.0853 260.001,-75.5273 266.443,-83.9385 270.282,-78.0853"/>
</g>
<!-- Node8 -->
<g id="node8" class="node"><title>Node8</title>
<g id="a_node8"><a xlink:href="_block_information_8h.html" target="_top" xlink:title="Core/BlockInformation.h">
<polygon fill="none" stroke="black" points="465,-56.5 465,-75.5 587,-75.5 587,-56.5 465,-56.5"/>
<text text-anchor="middle" x="526" y="-63.5" font-family="Helvetica,sans-Serif" font-size="10.00">Core/BlockInformation.h</text>
</a>
</g>
</g>
<!-- Node1&#45;&gt;Node8 -->
<g id="edge11" class="edge"><title>Node1&#45;&gt;Node8</title>
<path fill="none" stroke="midnightblue" d="M526,-224.938C526,-187.811 526,-119.02 526,-85.8512"/>
<polygon fill="midnightblue" stroke="midnightblue" points="529.5,-85.7148 526,-75.7149 522.5,-85.7149 529.5,-85.7148"/>
</g>
<!-- Node9 -->
<g id="node9" class="node"><title>Node9</title>
<polygon fill="none" stroke="#bfbfbf" points="580,-0.5 580,-19.5 618,-19.5 618,-0.5 580,-0.5"/>
<text text-anchor="middle" x="599" y="-7.5" font-family="Helvetica,sans-Serif" font-size="10.00">tuple</text>
</g>
<!-- Node1&#45;&gt;Node9 -->
<g id="edge28" class="edge"><title>Node1&#45;&gt;Node9</title>
<path fill="none" stroke="midnightblue" d="M539.236,-224.919C555.943,-191.849 583.951,-131.36 596,-76 599.345,-60.6326 599.939,-42.7561 599.785,-29.6444"/>
<polygon fill="midnightblue" stroke="midnightblue" points="603.28,-29.4316 599.507,-19.5314 596.283,-29.6237 603.28,-29.4316"/>
</g>
<!-- Node11 -->
<g id="node11" class="node"><title>Node11</title>
<g id="a_node11"><a xlink:href="_log_8h.html" target="_top" xlink:title="Core/Log.h">
<polygon fill="none" stroke="black" points="-0.5,-56.5 -0.5,-75.5 64.5,-75.5 64.5,-56.5 -0.5,-56.5"/>
<text text-anchor="middle" x="32" y="-63.5" font-family="Helvetica,sans-Serif" font-size="10.00">Core/Log.h</text>
</a>
</g>
</g>
<!-- Node1&#45;&gt;Node11 -->
<g id="edge17" class="edge"><title>Node1&#45;&gt;Node11</title>
<path fill="none" stroke="midnightblue" d="M454.894,-246.14C352.407,-239.442 169.383,-222.899 114,-188 74.7664,-163.277 49.7614,-112.194 38.6632,-84.9814"/>
<polygon fill="midnightblue" stroke="midnightblue" points="41.87,-83.5709 34.978,-75.5241 35.3477,-86.1125 41.87,-83.5709"/>
</g>
<!-- Node13 -->
<g id="node13" class="node"><title>Node13</title>
<g id="a_node13"><a xlink:href="_parameter_8h.html" target="_top" xlink:title="Core/Parameter.h">
<polygon fill="none" stroke="black" points="353,-56.5 353,-75.5 447,-75.5 447,-56.5 353,-56.5"/>
<text text-anchor="middle" x="400" y="-63.5" font-family="Helvetica,sans-Serif" font-size="10.00">Core/Parameter.h</text>
</a>
</g>
</g>
<!-- Node1&#45;&gt;Node13 -->
<g id="edge21" class="edge"><title>Node1&#45;&gt;Node13</title>
<path fill="none" stroke="midnightblue" d="M508.744,-224.938C482.735,-187.162 434.156,-116.607 411.805,-84.146"/>
<polygon fill="midnightblue" stroke="midnightblue" points="414.554,-81.9665 406,-75.7149 408.789,-85.9362 414.554,-81.9665"/>
</g>
<!-- Node14 -->
<g id="node14" class="node"><title>Node14</title>
<polygon fill="none" stroke="#bfbfbf" points="605.5,-168.5 605.5,-187.5 702.5,-187.5 702.5,-168.5 605.5,-168.5"/>
<text text-anchor="middle" x="654" y="-175.5" font-family="Helvetica,sans-Serif" font-size="10.00">yarp/os/Network.h</text>
</g>
<!-- Node1&#45;&gt;Node14 -->
<g id="edge25" class="edge"><title>Node1&#45;&gt;Node14</title>
<path fill="none" stroke="midnightblue" d="M571.128,-224.968C590.743,-214.088 612.955,-201.767 629.442,-192.622"/>
<polygon fill="midnightblue" stroke="midnightblue" points="631.379,-195.55 638.426,-187.639 627.983,-189.429 631.379,-195.55"/>
</g>
<!-- Node15 -->
<g id="node15" class="node"><title>Node15</title>
<polygon fill="none" stroke="#bfbfbf" points="721,-168.5 721,-187.5 803,-187.5 803,-168.5 721,-168.5"/>
<text text-anchor="middle" x="762" y="-175.5" font-family="Helvetica,sans-Serif" font-size="10.00">yarp/os/Time.h</text>
</g>
<!-- Node1&#45;&gt;Node15 -->
<g id="edge26" class="edge"><title>Node1&#45;&gt;Node15</title>
<path fill="none" stroke="midnightblue" d="M597.128,-228.601C638.88,-216.04 689.98,-200.667 724.122,-190.396"/>
<polygon fill="midnightblue" stroke="midnightblue" points="725.144,-193.743 733.712,-187.511 723.127,-187.04 725.144,-193.743"/>
</g>
<!-- Node16 -->
<g id="node16" class="node"><title>Node16</title>
<polygon fill="none" stroke="#bfbfbf" points="821,-168.5 821,-187.5 873,-187.5 873,-168.5 821,-168.5"/>
<text text-anchor="middle" x="847" y="-175.5" font-family="Helvetica,sans-Serif" font-size="10.00">ostream</text>
</g>
<!-- Node1&#45;&gt;Node16 -->
<g id="edge27" class="edge"><title>Node1&#45;&gt;Node16</title>
<path fill="none" stroke="midnightblue" d="M597.279,-235.337C652.866,-223.721 732.245,-206.736 810.606,-188.267"/>
<polygon fill="midnightblue" stroke="midnightblue" points="811.728,-191.599 820.653,-185.89 810.116,-184.787 811.728,-191.599"/>
</g>
<!-- Node3 -->
<g id="node3" class="node"><title>Node3</title>
<g id="a_node3"><a xlink:href="_block_8h.html" target="_top" xlink:title="Core/Block.h">
<polygon fill="none" stroke="black" points="185,-112.5 185,-131.5 259,-131.5 259,-112.5 185,-112.5"/>
<text text-anchor="middle" x="222" y="-119.5" font-family="Helvetica,sans-Serif" font-size="10.00">Core/Block.h</text>
</a>
</g>
</g>
<!-- Node2&#45;&gt;Node3 -->
<g id="edge2" class="edge"><title>Node2&#45;&gt;Node3</title>
<path fill="none" stroke="midnightblue" d="M191.11,-168.083C196.282,-160.534 203.846,-149.495 210.194,-140.23"/>
<polygon fill="midnightblue" stroke="midnightblue" points="213.239,-141.979 216.004,-131.751 207.464,-138.022 213.239,-141.979"/>
</g>
<!-- Node5 -->
<g id="node5" class="node"><title>Node5</title>
<polygon fill="none" stroke="#bfbfbf" points="116,-0.5 116,-19.5 168,-19.5 168,-0.5 116,-0.5"/>
<text text-anchor="middle" x="142" y="-7.5" font-family="Helvetica,sans-Serif" font-size="10.00">memory</text>
</g>
<!-- Node2&#45;&gt;Node5 -->
<g id="edge9" class="edge"><title>Node2&#45;&gt;Node5</title>
<path fill="none" stroke="midnightblue" d="M182.145,-168.423C179.188,-159.406 174.515,-144.78 171,-132 161.059,-95.8589 151.271,-53.1207 145.995,-29.3328"/>
<polygon fill="midnightblue" stroke="midnightblue" points="149.412,-28.5732 143.846,-19.5583 142.575,-30.0767 149.412,-28.5732"/>
</g>
<!-- Node6 -->
<g id="node6" class="node"><title>Node6</title>
<polygon fill="none" stroke="#bfbfbf" points="187.5,-0.5 187.5,-19.5 228.5,-19.5 228.5,-0.5 187.5,-0.5"/>
<text text-anchor="middle" x="208" y="-7.5" font-family="Helvetica,sans-Serif" font-size="10.00">string</text>
</g>
<!-- Node2&#45;&gt;Node6 -->
<g id="edge10" class="edge"><title>Node2&#45;&gt;Node6</title>
<path fill="none" stroke="midnightblue" d="M182.765,-168.449C180.538,-159.453 177.272,-144.844 176,-132 172.658,-98.2443 172.467,-88.2441 183,-56 186.191,-46.2303 191.56,-36.1571 196.507,-28.0247"/>
<polygon fill="midnightblue" stroke="midnightblue" points="199.518,-29.8127 201.963,-19.5039 193.623,-26.0378 199.518,-29.8127"/>
</g>
<!-- Node3&#45;&gt;Node4 -->
<g id="edge3" class="edge"><title>Node3&#45;&gt;Node4</title>
<path fill="none" stroke="midnightblue" d="M226.128,-112.083C229.514,-104.77 234.416,-94.1814 238.619,-85.1034"/>
<polygon fill="midnightblue" stroke="midnightblue" points="241.923,-86.2962 242.949,-75.7511 235.571,-83.3553 241.923,-86.2962"/>
</g>
<!-- Node3&#45;&gt;Node6 -->
<g id="edge7" class="edge"><title>Node3&#45;&gt;Node6</title>
<path fill="none" stroke="midnightblue" d="M212.712,-112.395C204.419,-104.025 192.856,-90.4826 188,-76 182.676,-60.1216 189.392,-41.8838 196.44,-28.7759"/>
<polygon fill="midnightblue" stroke="midnightblue" points="199.625,-30.2657 201.701,-19.8762 193.599,-26.7037 199.625,-30.2657"/>
</g>
<!-- Node7 -->
<g id="node7" class="node"><title>Node7</title>
<polygon fill="none" stroke="#bfbfbf" points="340,-0.5 340,-19.5 384,-19.5 384,-0.5 340,-0.5"/>
<text text-anchor="middle" x="362" y="-7.5" font-family="Helvetica,sans-Serif" font-size="10.00">vector</text>
</g>
<!-- Node3&#45;&gt;Node7 -->
<g id="edge8" class="edge"><title>Node3&#45;&gt;Node7</title>
<path fill="none" stroke="midnightblue" d="M242.325,-112.451C259.921,-104.496 285.531,-91.5467 305,-76 322.51,-62.0175 338.983,-42.2367 349.673,-28.1762"/>
<polygon fill="midnightblue" stroke="midnightblue" points="352.678,-30.0003 355.816,-19.8809 347.052,-25.8346 352.678,-30.0003"/>
</g>
<!-- Node4&#45;&gt;Node5 -->
<g id="edge4" class="edge"><title>Node4&#45;&gt;Node5</title>
<path fill="none" stroke="midnightblue" d="M230.13,-56.324C213.291,-47.6641 187.193,-34.2424 167.762,-24.249"/>
<polygon fill="midnightblue" stroke="midnightblue" points="169.322,-21.1155 158.828,-19.6545 166.12,-27.3405 169.322,-21.1155"/>
</g>
<!-- Node4&#45;&gt;Node6 -->
<g id="edge5" class="edge"><title>Node4&#45;&gt;Node6</title>
<path fill="none" stroke="midnightblue" d="M240.56,-56.083C235.051,-48.4554 226.969,-37.2645 220.235,-27.9408"/>
<polygon fill="midnightblue" stroke="midnightblue" points="223.013,-25.8087 214.32,-19.7511 217.338,-29.9071 223.013,-25.8087"/>
</g>
<!-- Node4&#45;&gt;Node7 -->
<g id="edge6" class="edge"><title>Node4&#45;&gt;Node7</title>
<path fill="none" stroke="midnightblue" d="M265.222,-56.4435C283.896,-47.6751 313.156,-33.9355 334.617,-23.8579"/>
<polygon fill="midnightblue" stroke="midnightblue" points="336.299,-26.935 343.863,-19.5164 333.324,-20.5988 336.299,-26.935"/>
</g>
<!-- Node8&#45;&gt;Node5 -->
<g id="edge12" class="edge"><title>Node8&#45;&gt;Node5</title>
<path fill="none" stroke="midnightblue" d="M464.943,-57.15C376.687,-45.7974 220.166,-25.6411 178.146,-19.5075"/>
<polygon fill="midnightblue" stroke="midnightblue" points="178.693,-16.0506 168.268,-17.9421 177.597,-22.9644 178.693,-16.0506"/>
</g>
<!-- Node8&#45;&gt;Node6 -->
<g id="edge13" class="edge"><title>Node8&#45;&gt;Node6</title>
<path fill="none" stroke="midnightblue" d="M475.612,-56.4435C408.952,-45.124 293.506,-25.5199 238.65,-16.2047"/>
<polygon fill="midnightblue" stroke="midnightblue" points="238.964,-12.7079 228.519,-14.4843 237.792,-19.6091 238.964,-12.7079"/>
</g>
<!-- Node8&#45;&gt;Node7 -->
<g id="edge16" class="edge"><title>Node8&#45;&gt;Node7</title>
<path fill="none" stroke="midnightblue" d="M500.014,-56.4435C471.288,-46.985 424.995,-31.7421 394.044,-21.551"/>
<polygon fill="midnightblue" stroke="midnightblue" points="394.776,-18.1073 384.183,-18.3042 392.587,-24.7562 394.776,-18.1073"/>
</g>
<!-- Node8&#45;&gt;Node9 -->
<g id="edge14" class="edge"><title>Node8&#45;&gt;Node9</title>
<path fill="none" stroke="midnightblue" d="M537.729,-56.324C548.837,-48.1066 565.742,-35.6017 578.983,-25.8069"/>
<polygon fill="midnightblue" stroke="midnightblue" points="581.1,-28.5948 587.058,-19.8339 576.937,-22.9671 581.1,-28.5948"/>
</g>
<!-- Node10 -->
<g id="node10" class="node"><title>Node10</title>
<polygon fill="none" stroke="#bfbfbf" points="506,-0.5 506,-19.5 546,-19.5 546,-0.5 506,-0.5"/>
<text text-anchor="middle" x="526" y="-7.5" font-family="Helvetica,sans-Serif" font-size="10.00">utility</text>
</g>
<!-- Node8&#45;&gt;Node10 -->
<g id="edge15" class="edge"><title>Node8&#45;&gt;Node10</title>
<path fill="none" stroke="midnightblue" d="M526,-56.083C526,-49.0059 526,-38.8611 526,-29.9865"/>
<polygon fill="midnightblue" stroke="midnightblue" points="529.5,-29.751 526,-19.7511 522.5,-29.7511 529.5,-29.751"/>
</g>
<!-- Node11&#45;&gt;Node5 -->
<g id="edge18" class="edge"><title>Node11&#45;&gt;Node5</title>
<path fill="none" stroke="midnightblue" d="M49.6734,-56.324C67.3941,-47.6247 94.9032,-34.1202 115.288,-24.113"/>
<polygon fill="midnightblue" stroke="midnightblue" points="116.936,-27.2031 124.37,-19.6545 113.851,-20.9195 116.936,-27.2031"/>
</g>
<!-- Node11&#45;&gt;Node6 -->
<g id="edge20" class="edge"><title>Node11&#45;&gt;Node6</title>
<path fill="none" stroke="midnightblue" d="M59.8877,-56.4435C92.0376,-46.5794 144.692,-30.424 177.792,-20.2685"/>
<polygon fill="midnightblue" stroke="midnightblue" points="178.858,-23.6023 187.392,-17.323 176.805,-16.9102 178.858,-23.6023"/>
</g>
<!-- Node12 -->
<g id="node12" class="node"><title>Node12</title>
<polygon fill="none" stroke="#bfbfbf" points="6,-0.5 6,-19.5 58,-19.5 58,-0.5 6,-0.5"/>
<text text-anchor="middle" x="32" y="-7.5" font-family="Helvetica,sans-Serif" font-size="10.00">sstream</text>
</g>
<!-- Node11&#45;&gt;Node12 -->
<g id="edge19" class="edge"><title>Node11&#45;&gt;Node12</title>
<path fill="none" stroke="midnightblue" d="M32,-56.083C32,-49.0059 32,-38.8611 32,-29.9865"/>
<polygon fill="midnightblue" stroke="midnightblue" points="35.5001,-29.751 32,-19.7511 28.5001,-29.7511 35.5001,-29.751"/>
</g>
<!-- Node13&#45;&gt;Node6 -->
<g id="edge22" class="edge"><title>Node13&#45;&gt;Node6</title>
<path fill="none" stroke="midnightblue" d="M369.577,-56.4435C333.68,-46.3474 274.349,-29.6606 238.443,-19.562"/>
<polygon fill="midnightblue" stroke="midnightblue" points="239.114,-16.115 228.54,-16.7767 237.218,-22.8536 239.114,-16.115"/>
</g>
<!-- Node13&#45;&gt;Node7 -->
<g id="edge23" class="edge"><title>Node13&#45;&gt;Node7</title>
<path fill="none" stroke="midnightblue" d="M393.725,-56.083C388.358,-48.4554 380.482,-37.2645 373.921,-27.9408"/>
<polygon fill="midnightblue" stroke="midnightblue" points="376.775,-25.9149 368.158,-19.7511 371.051,-29.9434 376.775,-25.9149"/>
</g>
</g>
</svg>
        <g id="navigator" transform="translate(0 0)" fill="#404254">
                <rect fill="#f2f5e9" fill-opacity="0.5" stroke="#606060" stroke-width=".5" x="0" y="0" width="60" height="60"/>
                <use id="zoomplus" xlink:href="#zoomPlus" x="17" y="9" onmousedown="handleZoom(evt,'in')"/>
                <use id="zoomminus" xlink:href="#zoomMin" x="42" y="9" onmousedown="handleZoom(evt,'out')"/>
                <use id="reset" xlink:href="#resetDef" x="30" y="36" onmousedown="handleReset()"/>
                <g id="arrowUp" xlink:href="#dirArrow" transform="translate(30 24)" onmousedown="handlePan(0,-1)">
                  <use xlink:href="#rim" fill="#404040">
                        <set attributeName="fill" to="#808080" begin="arrowUp.mouseover" end="arrowUp.mouseout"/>
                  </use>
                  <path fill="none" stroke="white" stroke-width="1.5" d="M0,-3.0v7 M-2.5,-0.5L0,-3.0L2.5,-0.5"/>
                </g>
                <g id="arrowRight" xlink:href="#dirArrow" transform="rotate(90) translate(36 -43)" onmousedown="handlePan(1,0)">
                  <use xlink:href="#rim" fill="#404040">
                        <set attributeName="fill" to="#808080" begin="arrowRight.mouseover" end="arrowRight.mouseout"/>
                  </use>
                  <path fill="none" stroke="white" stroke-width="1.5" d="M0,-3.0v7 M-2.5,-0.5L0,-3.0L2.5,-0.5"/>
                </g>
                <g id="arrowDown" xlink:href="#dirArrow" transform="rotate(180) translate(-30 -48)" onmousedown="handlePan(0,1)">
                  <use xlink:href="#rim" fill="#404040">
                        <set attributeName="fill" to="#808080" begin="arrowDown.mouseover" end="arrowDown.mouseout"/>
                  </use>
                  <path fill="none" stroke="white" stroke-width="1.5" d="M0,-3.0v7 M-2.5,-0.5L0,-3.0L2.5,-0.5"/>
                </g>
                <g id="arrowLeft" xlink:href="#dirArrow" transform="rotate(270) translate(-36 17)" onmousedown="handlePan(-1,0)">
                  <use xlink:href="#rim" fill="#404040">
                        <set attributeName="fill" to="#808080" begin="arrowLeft.mouseover" end="arrowLeft.mouseout"/>
                  </use>
                  <path fill="none" stroke="white" stroke-width="1.5" d="M0,-3.0v7 M-2.5,-0.5L0,-3.0L2.5,-0.5"/>
                </g>
        </g>
        <svg viewBox="0 0 15 15" width="100%" height="30px" preserveAspectRatio="xMaxYMin meet">
         <g id="arrow_out" transform="scale(0.3 0.3)">
          <a xlink:href="_real_time_synchronizer_8cpp__incl_org.svg" target="_base">
           <rect id="button" ry="5" rx="5" y="6" x="6" height="38" width="38"
                fill="#f2f5e9" fill-opacity="0.5" stroke="#606060" stroke-width="1.0"/>
           <path id="arrow"
             d="M 11.500037,31.436501 C 11.940474,20.09759 22.043105,11.32322 32.158766,21.979434 L 37.068811,17.246167 C 37.068811,17.246167 37.088388,32 37.088388,32 L 22.160133,31.978069 C 22.160133,31.978069 26.997745,27.140456 26.997745,27.140456 C 18.528582,18.264221 13.291696,25.230495 11.500037,31.436501 z"
             style="fill:#404040;"/>
          </a>
         </g>
        </svg>
</svg>
