<?xml version="1.0" encoding="UTF-8" standalone="no"?>
<!DOCTYPE svg PUBLIC "-//W3C//DTD SVG 1.1//EN"
 "http://www.w3.org/Graphics/SVG/1.1/DTD/svg11.dtd">
<!-- Generated by graphviz version 2.43.0 (0)
 -->
<!-- Title: /home/dferigo/git/WB&#45;Toolbox/toolbox/base/include/WBToolbox/Base/RobotInterface.h Pages: 1 -->
<svg width="2213pt" height="139pt"
 viewBox="0.00 0.00 2213.00 139.00" xmlns="http://www.w3.org/2000/svg" xmlns:xlink="http://www.w3.org/1999/xlink">
<g id="graph0" class="graph" transform="scale(1 1) rotate(0) translate(4 135)">
<title>/home/dferigo/git/WB&#45;Toolbox/toolbox/base/include/WBToolbox/Base/RobotInterface.h</title>
<!-- Node1 -->
<g id="node1" class="node">
<title>Node1</title>
<g id="a_node1"><a xlink:title=" ">
<polygon fill="#bfbfbf" stroke="black" points="1037,-78.5 1037,-130.5 1176,-130.5 1176,-78.5 1037,-78.5"/>
<text text-anchor="start" x="1045" y="-118.5" font-family="Helvetica,sans-Serif" font-size="10.00">/home/dferigo/git/WB</text>
<text text-anchor="start" x="1045" y="-107.5" font-family="Helvetica,sans-Serif" font-size="10.00">&#45;Toolbox/toolbox/base</text>
<text text-anchor="start" x="1045" y="-96.5" font-family="Helvetica,sans-Serif" font-size="10.00">/include/WBToolbox/Base</text>
<text text-anchor="middle" x="1106.5" y="-85.5" font-family="Helvetica,sans-Serif" font-size="10.00">/RobotInterface.h</text>
</a>
</g>
</g>
<!-- Node2 -->
<g id="node2" class="node">
<title>Node2</title>
<g id="a_node2"><a xlink:href="_robot_interface_8cpp.html" target="_top" xlink:title=" ">
<polygon fill="none" stroke="black" points="0,-0.5 0,-41.5 129,-41.5 129,-0.5 0,-0.5"/>
<text text-anchor="start" x="8" y="-29.5" font-family="Helvetica,sans-Serif" font-size="10.00">/home/dferigo/git/WB</text>
<text text-anchor="start" x="8" y="-18.5" font-family="Helvetica,sans-Serif" font-size="10.00">&#45;Toolbox/toolbox/base</text>
<text text-anchor="middle" x="64.5" y="-7.5" font-family="Helvetica,sans-Serif" font-size="10.00">/src/RobotInterface.cpp</text>
</a>
</g>
</g>
<!-- Node1&#45;&gt;Node2 -->
<g id="edge1" class="edge">
<title>Node1&#45;&gt;Node2</title>
<path fill="none" stroke="midnightblue" d="M1026.56,-103.82C860.13,-103.29 464.79,-95.9 138.5,-42 135.48,-41.5 132.41,-40.93 129.31,-40.3"/>
<polygon fill="midnightblue" stroke="midnightblue" points="1026.7,-107.32 1036.71,-103.84 1026.72,-100.32 1026.7,-107.32"/>
</g>
<!-- Node3 -->
<g id="node3" class="node">
<title>Node3</title>
<g id="a_node3"><a xlink:href="_w_b_block_8cpp.html" target="_top" xlink:title=" ">
<polygon fill="none" stroke="black" points="147.5,-0.5 147.5,-41.5 269.5,-41.5 269.5,-0.5 147.5,-0.5"/>
<text text-anchor="start" x="155.5" y="-29.5" font-family="Helvetica,sans-Serif" font-size="10.00">/home/dferigo/git/WB</text>
<text text-anchor="start" x="155.5" y="-18.5" font-family="Helvetica,sans-Serif" font-size="10.00">&#45;Toolbox/toolbox/base</text>
<text text-anchor="middle" x="208.5" y="-7.5" font-family="Helvetica,sans-Serif" font-size="10.00">/src/WBBlock.cpp</text>
</a>
</g>
</g>
<!-- Node1&#45;&gt;Node3 -->
<g id="edge2" class="edge">
<title>Node1&#45;&gt;Node3</title>
<path fill="none" stroke="midnightblue" d="M1026.55,-102.96C878.03,-100.78 549.96,-90.34 278.5,-42 275.64,-41.49 272.73,-40.91 269.79,-40.28"/>
<polygon fill="midnightblue" stroke="midnightblue" points="1026.89,-106.47 1036.93,-103.11 1026.98,-99.47 1026.89,-106.47"/>
</g>
<!-- Node4 -->
<g id="node4" class="node">
<title>Node4</title>
<g id="a_node4"><a xlink:href="_whole_body_singleton_8cpp.html" target="_top" xlink:title=" ">
<polygon fill="none" stroke="black" points="287.5,-0.5 287.5,-41.5 445.5,-41.5 445.5,-0.5 287.5,-0.5"/>
<text text-anchor="start" x="295.5" y="-29.5" font-family="Helvetica,sans-Serif" font-size="10.00">/home/dferigo/git/WB</text>
<text text-anchor="start" x="295.5" y="-18.5" font-family="Helvetica,sans-Serif" font-size="10.00">&#45;Toolbox/toolbox/base</text>
<text text-anchor="middle" x="366.5" y="-7.5" font-family="Helvetica,sans-Serif" font-size="10.00">/src/WholeBodySingleton.cpp</text>
</a>
</g>
</g>
<!-- Node1&#45;&gt;Node4 -->
<g id="edge3" class="edge">
<title>Node1&#45;&gt;Node4</title>
<path fill="none" stroke="midnightblue" d="M1026.54,-99.3C903.17,-92.07 659.24,-74.78 454.5,-42 451.56,-41.53 448.57,-41.02 445.56,-40.48"/>
<polygon fill="midnightblue" stroke="midnightblue" points="1026.46,-102.8 1036.65,-99.89 1026.87,-95.81 1026.46,-102.8"/>
</g>
<!-- Node5 -->
<g id="node5" class="node">
<title>Node5</title>
<g id="a_node5"><a xlink:href="_centroidal_momentum_8cpp.html" target="_top" xlink:title=" ">
<polygon fill="none" stroke="black" points="463.5,-0.5 463.5,-41.5 627.5,-41.5 627.5,-0.5 463.5,-0.5"/>
<text text-anchor="start" x="471.5" y="-29.5" font-family="Helvetica,sans-Serif" font-size="10.00">/home/dferigo/git/WB</text>
<text text-anchor="start" x="471.5" y="-18.5" font-family="Helvetica,sans-Serif" font-size="10.00">&#45;Toolbox/toolbox/library</text>
<text text-anchor="middle" x="545.5" y="-7.5" font-family="Helvetica,sans-Serif" font-size="10.00">/src/CentroidalMomentum.cpp</text>
</a>
</g>
</g>
<!-- Node1&#45;&gt;Node5 -->
<g id="edge4" class="edge">
<title>Node1&#45;&gt;Node5</title>
<path fill="none" stroke="midnightblue" d="M1026.96,-95.21C933.23,-84.95 772.98,-65.88 636.5,-42 633.63,-41.5 630.72,-40.97 627.78,-40.42"/>
<polygon fill="midnightblue" stroke="midnightblue" points="1026.61,-98.69 1036.93,-96.3 1027.37,-91.73 1026.61,-98.69"/>
</g>
<!-- Node6 -->
<g id="node6" class="node">
<title>Node6</title>
<g id="a_node6"><a xlink:href="_dot_j_nu_8cpp.html" target="_top" xlink:title=" ">
<polygon fill="none" stroke="black" points="646,-0.5 646,-41.5 777,-41.5 777,-0.5 646,-0.5"/>
<text text-anchor="start" x="654" y="-29.5" font-family="Helvetica,sans-Serif" font-size="10.00">/home/dferigo/git/WB</text>
<text text-anchor="start" x="654" y="-18.5" font-family="Helvetica,sans-Serif" font-size="10.00">&#45;Toolbox/toolbox/library</text>
<text text-anchor="middle" x="711.5" y="-7.5" font-family="Helvetica,sans-Serif" font-size="10.00">/src/DotJNu.cpp</text>
</a>
</g>
</g>
<!-- Node1&#45;&gt;Node6 -->
<g id="edge5" class="edge">
<title>Node1&#45;&gt;Node6</title>
<path fill="none" stroke="midnightblue" d="M1026.79,-89.94C961.63,-78.44 867.24,-60.85 785.5,-42 782.78,-41.37 780,-40.71 777.2,-40.03"/>
<polygon fill="midnightblue" stroke="midnightblue" points="1026.54,-93.45 1036.99,-91.73 1027.75,-86.55 1026.54,-93.45"/>
</g>
<!-- Node7 -->
<g id="node7" class="node">
<title>Node7</title>
<g id="a_node7"><a xlink:href="_forward_kinematics_8cpp.html" target="_top" xlink:title=" ">
<polygon fill="none" stroke="black" points="795,-0.5 795,-41.5 946,-41.5 946,-0.5 795,-0.5"/>
<text text-anchor="start" x="803" y="-29.5" font-family="Helvetica,sans-Serif" font-size="10.00">/home/dferigo/git/WB</text>
<text text-anchor="start" x="803" y="-18.5" font-family="Helvetica,sans-Serif" font-size="10.00">&#45;Toolbox/toolbox/library</text>
<text text-anchor="middle" x="870.5" y="-7.5" font-family="Helvetica,sans-Serif" font-size="10.00">/src/ForwardKinematics.cpp</text>
</a>
</g>
</g>
<!-- Node1&#45;&gt;Node7 -->
<g id="edge6" class="edge">
<title>Node1&#45;&gt;Node7</title>
<path fill="none" stroke="midnightblue" d="M1027.4,-76.18C994.58,-64.85 957.26,-51.96 927.24,-41.6"/>
<polygon fill="midnightblue" stroke="midnightblue" points="1026.37,-79.53 1036.97,-79.49 1028.66,-72.92 1026.37,-79.53"/>
</g>
<!-- Node8 -->
<g id="node8" class="node">
<title>Node8</title>
<g id="a_node8"><a xlink:href="_get_limits_8cpp.html" target="_top" xlink:title=" ">
<polygon fill="none" stroke="black" points="964,-0.5 964,-41.5 1095,-41.5 1095,-0.5 964,-0.5"/>
<text text-anchor="start" x="972" y="-29.5" font-family="Helvetica,sans-Serif" font-size="10.00">/home/dferigo/git/WB</text>
<text text-anchor="start" x="972" y="-18.5" font-family="Helvetica,sans-Serif" font-size="10.00">&#45;Toolbox/toolbox/library</text>
<text text-anchor="middle" x="1029.5" y="-7.5" font-family="Helvetica,sans-Serif" font-size="10.00">/src/GetLimits.cpp</text>
</a>
</g>
</g>
<!-- Node1&#45;&gt;Node8 -->
<g id="edge7" class="edge">
<title>Node1&#45;&gt;Node8</title>
<path fill="none" stroke="midnightblue" d="M1075.58,-70.78C1066.25,-60.9 1056.3,-50.37 1048.04,-41.63"/>
<polygon fill="midnightblue" stroke="midnightblue" points="1073.15,-73.29 1082.56,-78.16 1078.24,-68.49 1073.15,-73.29"/>
</g>
<!-- Node9 -->
<g id="node9" class="node">
<title>Node9</title>
<g id="a_node9"><a xlink:href="_get_measurement_8cpp.html" target="_top" xlink:title=" ">
<polygon fill="none" stroke="black" points="1113.5,-0.5 1113.5,-41.5 1255.5,-41.5 1255.5,-0.5 1113.5,-0.5"/>
<text text-anchor="start" x="1121.5" y="-29.5" font-family="Helvetica,sans-Serif" font-size="10.00">/home/dferigo/git/WB</text>
<text text-anchor="start" x="1121.5" y="-18.5" font-family="Helvetica,sans-Serif" font-size="10.00">&#45;Toolbox/toolbox/library</text>
<text text-anchor="middle" x="1184.5" y="-7.5" font-family="Helvetica,sans-Serif" font-size="10.00">/src/GetMeasurement.cpp</text>
</a>
</g>
</g>
<!-- Node1&#45;&gt;Node9 -->
<g id="edge8" class="edge">
<title>Node1&#45;&gt;Node9</title>
<path fill="none" stroke="midnightblue" d="M1137.82,-70.78C1147.27,-60.9 1157.35,-50.37 1165.71,-41.63"/>
<polygon fill="midnightblue" stroke="midnightblue" points="1135.14,-68.52 1130.75,-78.16 1140.19,-73.36 1135.14,-68.52"/>
</g>
<!-- Node10 -->
<g id="node10" class="node">
<title>Node10</title>
<g id="a_node10"><a xlink:href="_inverse_dynamics_8cpp.html" target="_top" xlink:title=" ">
<polygon fill="none" stroke="black" points="1273.5,-0.5 1273.5,-41.5 1415.5,-41.5 1415.5,-0.5 1273.5,-0.5"/>
<text text-anchor="start" x="1281.5" y="-29.5" font-family="Helvetica,sans-Serif" font-size="10.00">/home/dferigo/git/WB</text>
<text text-anchor="start" x="1281.5" y="-18.5" font-family="Helvetica,sans-Serif" font-size="10.00">&#45;Toolbox/toolbox/library</text>
<text text-anchor="middle" x="1344.5" y="-7.5" font-family="Helvetica,sans-Serif" font-size="10.00">/src/InverseDynamics.cpp</text>
</a>
</g>
</g>
<!-- Node1&#45;&gt;Node10 -->
<g id="edge9" class="edge">
<title>Node1&#45;&gt;Node10</title>
<path fill="none" stroke="midnightblue" d="M1186,-76.28C1219.24,-64.89 1257.12,-51.92 1287.51,-41.51"/>
<polygon fill="midnightblue" stroke="midnightblue" points="1184.63,-73.05 1176.3,-79.6 1186.89,-79.67 1184.63,-73.05"/>
</g>
<!-- Node11 -->
<g id="node11" class="node">
<title>Node11</title>
<g id="a_node11"><a xlink:href="_jacobian_8cpp.html" target="_top" xlink:title=" ">
<polygon fill="none" stroke="black" points="1434,-0.5 1434,-41.5 1565,-41.5 1565,-0.5 1434,-0.5"/>
<text text-anchor="start" x="1442" y="-29.5" font-family="Helvetica,sans-Serif" font-size="10.00">/home/dferigo/git/WB</text>
<text text-anchor="start" x="1442" y="-18.5" font-family="Helvetica,sans-Serif" font-size="10.00">&#45;Toolbox/toolbox/library</text>
<text text-anchor="middle" x="1499.5" y="-7.5" font-family="Helvetica,sans-Serif" font-size="10.00">/src/Jacobian.cpp</text>
</a>
</g>
</g>
<!-- Node1&#45;&gt;Node11 -->
<g id="edge10" class="edge">
<title>Node1&#45;&gt;Node11</title>
<path fill="none" stroke="midnightblue" d="M1186.37,-89.64C1250.88,-78.07 1343.87,-60.52 1424.5,-42 1427.52,-41.31 1430.6,-40.58 1433.71,-39.82"/>
<polygon fill="midnightblue" stroke="midnightblue" points="1185.5,-86.24 1176.27,-91.45 1186.73,-93.13 1185.5,-86.24"/>
</g>
<!-- Node12 -->
<g id="node12" class="node">
<title>Node12</title>
<g id="a_node12"><a xlink:href="_mass_matrix_8cpp.html" target="_top" xlink:title=" ">
<polygon fill="none" stroke="black" points="1583,-0.5 1583,-41.5 1714,-41.5 1714,-0.5 1583,-0.5"/>
<text text-anchor="start" x="1591" y="-29.5" font-family="Helvetica,sans-Serif" font-size="10.00">/home/dferigo/git/WB</text>
<text text-anchor="start" x="1591" y="-18.5" font-family="Helvetica,sans-Serif" font-size="10.00">&#45;Toolbox/toolbox/library</text>
<text text-anchor="middle" x="1648.5" y="-7.5" font-family="Helvetica,sans-Serif" font-size="10.00">/src/MassMatrix.cpp</text>
</a>
</g>
</g>
<!-- Node1&#45;&gt;Node12 -->
<g id="edge11" class="edge">
<title>Node1&#45;&gt;Node12</title>
<path fill="none" stroke="midnightblue" d="M1186.32,-96.28C1279.9,-87.07 1439.4,-69.01 1574.5,-42 1577.24,-41.45 1580.03,-40.86 1582.84,-40.23"/>
<polygon fill="midnightblue" stroke="midnightblue" points="1185.97,-92.8 1176.36,-97.25 1186.65,-99.77 1185.97,-92.8"/>
</g>
<!-- Node13 -->
<g id="node13" class="node">
<title>Node13</title>
<g id="a_node13"><a xlink:href="_relative_transform_8cpp.html" target="_top" xlink:title=" ">
<polygon fill="none" stroke="black" points="1732,-0.5 1732,-41.5 1879,-41.5 1879,-0.5 1732,-0.5"/>
<text text-anchor="start" x="1740" y="-29.5" font-family="Helvetica,sans-Serif" font-size="10.00">/home/dferigo/git/WB</text>
<text text-anchor="start" x="1740" y="-18.5" font-family="Helvetica,sans-Serif" font-size="10.00">&#45;Toolbox/toolbox/library</text>
<text text-anchor="middle" x="1805.5" y="-7.5" font-family="Helvetica,sans-Serif" font-size="10.00">/src/RelativeTransform.cpp</text>
</a>
</g>
</g>
<!-- Node1&#45;&gt;Node13 -->
<g id="edge12" class="edge">
<title>Node1&#45;&gt;Node13</title>
<path fill="none" stroke="midnightblue" d="M1186.36,-99.12C1304.44,-91.84 1532.24,-74.69 1723.5,-42 1726.24,-41.53 1729.03,-41.02 1731.84,-40.48"/>
<polygon fill="midnightblue" stroke="midnightblue" points="1186.09,-95.63 1176.32,-99.73 1186.52,-102.62 1186.09,-95.63"/>
</g>
<!-- Node14 -->
<g id="node14" class="node">
<title>Node14</title>
<g id="a_node14"><a xlink:href="_set_motor_parameters_8cpp.html" target="_top" xlink:title=" ">
<polygon fill="none" stroke="black" points="1897.5,-0.5 1897.5,-41.5 2055.5,-41.5 2055.5,-0.5 1897.5,-0.5"/>
<text text-anchor="start" x="1905.5" y="-29.5" font-family="Helvetica,sans-Serif" font-size="10.00">/home/dferigo/git/WB</text>
<text text-anchor="start" x="1905.5" y="-18.5" font-family="Helvetica,sans-Serif" font-size="10.00">&#45;Toolbox/toolbox/library</text>
<text text-anchor="middle" x="1976.5" y="-7.5" font-family="Helvetica,sans-Serif" font-size="10.00">/src/SetMotorParameters.cpp</text>
</a>
</g>
</g>
<!-- Node1&#45;&gt;Node14 -->
<g id="edge13" class="edge">
<title>Node1&#45;&gt;Node14</title>
<path fill="none" stroke="midnightblue" d="M1186.55,-101.03C1328.61,-95.81 1633.85,-80.74 1888.5,-42 1891.44,-41.55 1894.43,-41.06 1897.45,-40.53"/>
<polygon fill="midnightblue" stroke="midnightblue" points="1186.06,-97.55 1176.19,-101.41 1186.31,-104.54 1186.06,-97.55"/>
</g>
<!-- Node15 -->
<g id="node15" class="node">
<title>Node15</title>
<g id="a_node15"><a xlink:href="_set_references_8cpp.html" target="_top" xlink:title=" ">
<polygon fill="none" stroke="black" points="2074,-0.5 2074,-41.5 2205,-41.5 2205,-0.5 2074,-0.5"/>
<text text-anchor="start" x="2082" y="-29.5" font-family="Helvetica,sans-Serif" font-size="10.00">/home/dferigo/git/WB</text>
<text text-anchor="start" x="2082" y="-18.5" font-family="Helvetica,sans-Serif" font-size="10.00">&#45;Toolbox/toolbox/library</text>
<text text-anchor="middle" x="2139.5" y="-7.5" font-family="Helvetica,sans-Serif" font-size="10.00">/src/SetReferences.cpp</text>
</a>
</g>
</g>
<!-- Node1&#45;&gt;Node15 -->
<g id="edge14" class="edge">
<title>Node1&#45;&gt;Node15</title>
<path fill="none" stroke="midnightblue" d="M1186.22,-103.65C1351.26,-102.81 1741.9,-94.84 2064.5,-42 2067.56,-41.5 2070.67,-40.93 2073.81,-40.3"/>
<polygon fill="midnightblue" stroke="midnightblue" points="1186.14,-100.15 1176.15,-103.7 1186.17,-107.15 1186.14,-100.15"/>
</g>
</g>
</svg>
