<?xml version="1.0" encoding="UTF-8" standalone="no"?>
<!DOCTYPE svg PUBLIC "-//W3C//DTD SVG 1.1//EN"
 "http://www.w3.org/Graphics/SVG/1.1/DTD/svg11.dtd">
<!-- Generated by graphviz version 2.36.0 (20140111.2315)
 -->
<!-- Title: /home/travis/build/robotology/wb&#45;toolbox/toolbox/src/base/RobotInterface.cpp Pages: 1 -->
<svg width="1742pt" height="218pt"
 viewBox="0.00 0.00 1742.00 218.00" xmlns="http://www.w3.org/2000/svg" xmlns:xlink="http://www.w3.org/1999/xlink">
<g id="graph0" class="graph" transform="scale(1 1) rotate(0) translate(4 214)">
<title>/home/travis/build/robotology/wb&#45;toolbox/toolbox/src/base/RobotInterface.cpp</title>
<!-- Node1 -->
<g id="node1" class="node"><title>Node1</title>
<polygon fill="#bfbfbf" stroke="black" points="734,-168.5 734,-209.5 912,-209.5 912,-168.5 734,-168.5"/>
<text text-anchor="start" x="742" y="-197.5" font-family="Helvetica,sans-Serif" font-size="10.00">/home/travis/build</text>
<text text-anchor="start" x="742" y="-186.5" font-family="Helvetica,sans-Serif" font-size="10.00">/robotology/wb&#45;toolbox</text>
<text text-anchor="middle" x="823" y="-175.5" font-family="Helvetica,sans-Serif" font-size="10.00">/toolbox/src/base/RobotInterface.cpp</text>
</g>
<!-- Node2 -->
<g id="node2" class="node"><title>Node2</title>
<g id="a_node2"><a xlink:href="_robot_interface_8h.html" target="_top" xlink:title="RobotInterface.h">
<polygon fill="none" stroke="black" points="281.5,-112.5 281.5,-131.5 370.5,-131.5 370.5,-112.5 281.5,-112.5"/>
<text text-anchor="middle" x="326" y="-119.5" font-family="Helvetica,sans-Serif" font-size="10.00">RobotInterface.h</text>
</a>
</g>
</g>
<!-- Node1&#45;&gt;Node2 -->
<g id="edge1" class="edge"><title>Node1&#45;&gt;Node2</title>
<path fill="none" stroke="midnightblue" d="M733.994,-177.261C645.438,-166.425 505.71,-148.921 385,-132 383.701,-131.818 382.387,-131.632 381.061,-131.443"/>
<polygon fill="midnightblue" stroke="midnightblue" points="381.161,-127.92 370.761,-129.944 380.153,-134.848 381.161,-127.92"/>
</g>
<!-- Node8 -->
<g id="node8" class="node"><title>Node8</title>
<polygon fill="none" stroke="#bfbfbf" points="476,-56.5 476,-75.5 516,-75.5 516,-56.5 476,-56.5"/>
<text text-anchor="middle" x="496" y="-63.5" font-family="Helvetica,sans-Serif" font-size="10.00">utility</text>
</g>
<!-- Node1&#45;&gt;Node8 -->
<g id="edge17" class="edge"><title>Node1&#45;&gt;Node8</title>
<path fill="none" stroke="midnightblue" d="M733.754,-188.735C627.139,-187.484 458.1,-178.026 418,-132 398.858,-110.029 436.964,-89.3289 466.363,-77.4202"/>
<polygon fill="midnightblue" stroke="midnightblue" points="467.841,-80.6014 475.905,-73.7294 465.316,-74.0728 467.841,-80.6014"/>
</g>
<!-- Node11 -->
<g id="node11" class="node"><title>Node11</title>
<g id="a_node11"><a xlink:href="_log_8h.html" target="_top" xlink:title="Log.h">
<polygon fill="none" stroke="black" points="-0.5,-56.5 -0.5,-75.5 40.5,-75.5 40.5,-56.5 -0.5,-56.5"/>
<text text-anchor="middle" x="20" y="-63.5" font-family="Helvetica,sans-Serif" font-size="10.00">Log.h</text>
</a>
</g>
</g>
<!-- Node1&#45;&gt;Node11 -->
<g id="edge12" class="edge"><title>Node1&#45;&gt;Node11</title>
<path fill="none" stroke="midnightblue" d="M733.674,-183.085C624.209,-176.107 433.383,-160.844 272,-132 190.954,-117.515 97.6087,-90.7185 50.5348,-76.4757"/>
<polygon fill="midnightblue" stroke="midnightblue" points="51.2595,-73.0377 40.6735,-73.4704 49.2188,-79.7337 51.2595,-73.0377"/>
</g>
<!-- Node12 -->
<g id="node12" class="node"><title>Node12</title>
<polygon fill="none" stroke="#bfbfbf" points="427,-112.5 427,-131.5 479,-131.5 479,-112.5 427,-112.5"/>
<text text-anchor="middle" x="453" y="-119.5" font-family="Helvetica,sans-Serif" font-size="10.00">sstream</text>
</g>
<!-- Node1&#45;&gt;Node12 -->
<g id="edge15" class="edge"><title>Node1&#45;&gt;Node12</title>
<path fill="none" stroke="midnightblue" d="M733.685,-174.984C668.648,-165.05 578.264,-150.303 489.29,-131.911"/>
<polygon fill="midnightblue" stroke="midnightblue" points="489.795,-128.441 479.291,-129.827 488.367,-135.294 489.795,-128.441"/>
</g>
<!-- Node13 -->
<g id="node13" class="node"><title>Node13</title>
<polygon fill="none" stroke="#bfbfbf" points="497.5,-112.5 497.5,-131.5 544.5,-131.5 544.5,-112.5 497.5,-112.5"/>
<text text-anchor="middle" x="521" y="-119.5" font-family="Helvetica,sans-Serif" font-size="10.00">iterator</text>
</g>
<!-- Node1&#45;&gt;Node13 -->
<g id="edge16" class="edge"><title>Node1&#45;&gt;Node13</title>
<path fill="none" stroke="midnightblue" d="M733.948,-170.879C683.974,-160.936 620.293,-147.712 554.841,-132.088"/>
<polygon fill="midnightblue" stroke="midnightblue" points="555.289,-128.596 544.748,-129.663 553.654,-135.402 555.289,-128.596"/>
</g>
<!-- Node14 -->
<g id="node14" class="node"><title>Node14</title>
<polygon fill="none" stroke="#bfbfbf" points="562.5,-112.5 562.5,-131.5 723.5,-131.5 723.5,-112.5 562.5,-112.5"/>
<text text-anchor="middle" x="643" y="-119.5" font-family="Helvetica,sans-Serif" font-size="10.00">iDynTree/KinDynComputations.h</text>
</g>
<!-- Node1&#45;&gt;Node14 -->
<g id="edge18" class="edge"><title>Node1&#45;&gt;Node14</title>
<path fill="none" stroke="midnightblue" d="M768.994,-168.498C739.008,-157.67 702.641,-144.537 676.7,-135.17"/>
<polygon fill="midnightblue" stroke="midnightblue" points="677.555,-131.757 666.961,-131.652 675.178,-138.341 677.555,-131.757"/>
</g>
<!-- Node15 -->
<g id="node15" class="node"><title>Node15</title>
<polygon fill="none" stroke="#bfbfbf" points="741.5,-112.5 741.5,-131.5 904.5,-131.5 904.5,-112.5 741.5,-112.5"/>
<text text-anchor="middle" x="823" y="-119.5" font-family="Helvetica,sans-Serif" font-size="10.00">iDynTree/ModelIO/ModelLoader.h</text>
</g>
<!-- Node1&#45;&gt;Node15 -->
<g id="edge19" class="edge"><title>Node1&#45;&gt;Node15</title>
<path fill="none" stroke="midnightblue" d="M823,-168.498C823,-160.065 823,-150.235 823,-141.874"/>
<polygon fill="midnightblue" stroke="midnightblue" points="826.5,-141.652 823,-131.652 819.5,-141.653 826.5,-141.652"/>
</g>
<!-- Node16 -->
<g id="node16" class="node"><title>Node16</title>
<polygon fill="none" stroke="#bfbfbf" points="922.5,-112.5 922.5,-131.5 1033.5,-131.5 1033.5,-112.5 922.5,-112.5"/>
<text text-anchor="middle" x="978" y="-119.5" font-family="Helvetica,sans-Serif" font-size="10.00">yarp/dev/PolyDriver.h</text>
</g>
<!-- Node1&#45;&gt;Node16 -->
<g id="edge20" class="edge"><title>Node1&#45;&gt;Node16</title>
<path fill="none" stroke="midnightblue" d="M869.505,-168.498C894.983,-157.813 925.812,-144.885 948.086,-135.545"/>
<polygon fill="midnightblue" stroke="midnightblue" points="949.499,-138.748 957.367,-131.652 946.792,-132.292 949.499,-138.748"/>
</g>
<!-- Node17 -->
<g id="node17" class="node"><title>Node17</title>
<polygon fill="none" stroke="#bfbfbf" points="1051.5,-112.5 1051.5,-131.5 1180.5,-131.5 1180.5,-112.5 1051.5,-112.5"/>
<text text-anchor="middle" x="1116" y="-119.5" font-family="Helvetica,sans-Serif" font-size="10.00">yarp/os/ResourceFinder.h</text>
</g>
<!-- Node1&#45;&gt;Node17 -->
<g id="edge21" class="edge"><title>Node1&#45;&gt;Node17</title>
<path fill="none" stroke="midnightblue" d="M910.91,-168.498C962.251,-157.108 1025.09,-143.168 1067.57,-133.743"/>
<polygon fill="midnightblue" stroke="midnightblue" points="1068.38,-137.15 1077.38,-131.567 1066.86,-130.316 1068.38,-137.15"/>
</g>
<!-- Node18 -->
<g id="node18" class="node"><title>Node18</title>
<polygon fill="none" stroke="#bfbfbf" points="1199,-112.5 1199,-131.5 1365,-131.5 1365,-112.5 1199,-112.5"/>
<text text-anchor="middle" x="1282" y="-119.5" font-family="Helvetica,sans-Serif" font-size="10.00">yarp/dev/ControlBoardInterfaces.h</text>
</g>
<!-- Node1&#45;&gt;Node18 -->
<g id="edge22" class="edge"><title>Node1&#45;&gt;Node18</title>
<path fill="none" stroke="midnightblue" d="M912.044,-175.39C999.547,-162.999 1131.31,-144.339 1211.7,-132.955"/>
<polygon fill="midnightblue" stroke="midnightblue" points="1212.32,-136.403 1221.73,-131.535 1211.34,-129.472 1212.32,-136.403"/>
</g>
<!-- Node19 -->
<g id="node19" class="node"><title>Node19</title>
<polygon fill="none" stroke="#bfbfbf" points="1383.5,-112.5 1383.5,-131.5 1514.5,-131.5 1514.5,-112.5 1383.5,-112.5"/>
<text text-anchor="middle" x="1449" y="-119.5" font-family="Helvetica,sans-Serif" font-size="10.00">yarp/dev/IControlLimits2.h</text>
</g>
<!-- Node1&#45;&gt;Node19 -->
<g id="edge23" class="edge"><title>Node1&#45;&gt;Node19</title>
<path fill="none" stroke="midnightblue" d="M912.284,-179.428C1019.18,-169.052 1203.91,-150.761 1373.07,-132.086"/>
<polygon fill="midnightblue" stroke="midnightblue" points="1373.6,-135.548 1383.16,-130.97 1372.83,-128.591 1373.6,-135.548"/>
</g>
<!-- Node20 -->
<g id="node20" class="node"><title>Node20</title>
<polygon fill="none" stroke="#bfbfbf" points="1532.5,-112.5 1532.5,-131.5 1629.5,-131.5 1629.5,-112.5 1532.5,-112.5"/>
<text text-anchor="middle" x="1581" y="-119.5" font-family="Helvetica,sans-Serif" font-size="10.00">yarp/os/Property.h</text>
</g>
<!-- Node1&#45;&gt;Node20 -->
<g id="edge24" class="edge"><title>Node1&#45;&gt;Node20</title>
<path fill="none" stroke="midnightblue" d="M912.16,-182.99C1043.42,-175.142 1296.59,-158.205 1522.26,-131.999"/>
<polygon fill="midnightblue" stroke="midnightblue" points="1522.78,-135.463 1532.3,-130.825 1521.96,-128.51 1522.78,-135.463"/>
</g>
<!-- Node21 -->
<g id="node21" class="node"><title>Node21</title>
<polygon fill="none" stroke="#bfbfbf" points="1648,-112.5 1648,-131.5 1734,-131.5 1734,-112.5 1648,-112.5"/>
<text text-anchor="middle" x="1691" y="-119.5" font-family="Helvetica,sans-Serif" font-size="10.00">yarp/os/Bottle.h</text>
</g>
<!-- Node1&#45;&gt;Node21 -->
<g id="edge25" class="edge"><title>Node1&#45;&gt;Node21</title>
<path fill="none" stroke="midnightblue" d="M912.212,-184.78C1062.42,-178.707 1375.17,-163.267 1638,-132 1638.1,-131.988 1638.2,-131.976 1638.3,-131.964"/>
<polygon fill="midnightblue" stroke="midnightblue" points="1638.5,-135.468 1647.95,-130.679 1637.58,-128.529 1638.5,-135.468"/>
</g>
<!-- Node3 -->
<g id="node3" class="node"><title>Node3</title>
<g id="a_node3"><a xlink:href="_configuration_8h.html" target="_top" xlink:title="Configuration.h">
<polygon fill="none" stroke="black" points="198.5,-56.5 198.5,-75.5 281.5,-75.5 281.5,-56.5 198.5,-56.5"/>
<text text-anchor="middle" x="240" y="-63.5" font-family="Helvetica,sans-Serif" font-size="10.00">Configuration.h</text>
</a>
</g>
</g>
<!-- Node2&#45;&gt;Node3 -->
<g id="edge2" class="edge"><title>Node2&#45;&gt;Node3</title>
<path fill="none" stroke="midnightblue" d="M312.183,-112.324C298.767,-103.9 278.176,-90.9709 262.414,-81.0741"/>
<polygon fill="midnightblue" stroke="midnightblue" points="264.113,-78.0081 253.783,-75.6545 260.391,-83.9364 264.113,-78.0081"/>
</g>
<!-- Node4 -->
<g id="node4" class="node"><title>Node4</title>
<polygon fill="none" stroke="#bfbfbf" points="247,-0.5 247,-19.5 291,-19.5 291,-0.5 247,-0.5"/>
<text text-anchor="middle" x="269" y="-7.5" font-family="Helvetica,sans-Serif" font-size="10.00">vector</text>
</g>
<!-- Node2&#45;&gt;Node4 -->
<g id="edge8" class="edge"><title>Node2&#45;&gt;Node4</title>
<path fill="none" stroke="midnightblue" d="M336.652,-112.39C350.949,-99.7555 373.214,-75.5714 361,-56 347.975,-35.1298 322.156,-23.6742 301.176,-17.5529"/>
<polygon fill="midnightblue" stroke="midnightblue" points="301.906,-14.1256 291.344,-14.9586 300.12,-20.894 301.906,-14.1256"/>
</g>
<!-- Node6 -->
<g id="node6" class="node"><title>Node6</title>
<polygon fill="none" stroke="#bfbfbf" points="48.5,-0.5 48.5,-19.5 89.5,-19.5 89.5,-0.5 48.5,-0.5"/>
<text text-anchor="middle" x="69" y="-7.5" font-family="Helvetica,sans-Serif" font-size="10.00">string</text>
</g>
<!-- Node2&#45;&gt;Node6 -->
<g id="edge7" class="edge"><title>Node2&#45;&gt;Node6</title>
<path fill="none" stroke="midnightblue" d="M281.413,-118.057C220.543,-113.144 115.8,-101.213 88,-76 75.092,-64.2932 70.7618,-44.3532 69.4037,-29.6381"/>
<polygon fill="midnightblue" stroke="midnightblue" points="72.897,-29.4188 68.8516,-19.6268 65.9076,-29.8044 72.897,-29.4188"/>
</g>
<!-- Node7 -->
<g id="node7" class="node"><title>Node7</title>
<polygon fill="none" stroke="#bfbfbf" points="300,-56.5 300,-75.5 352,-75.5 352,-56.5 300,-56.5"/>
<text text-anchor="middle" x="326" y="-63.5" font-family="Helvetica,sans-Serif" font-size="10.00">memory</text>
</g>
<!-- Node2&#45;&gt;Node7 -->
<g id="edge6" class="edge"><title>Node2&#45;&gt;Node7</title>
<path fill="none" stroke="midnightblue" d="M326,-112.083C326,-105.006 326,-94.8611 326,-85.9865"/>
<polygon fill="midnightblue" stroke="midnightblue" points="329.5,-85.751 326,-75.7511 322.5,-85.7511 329.5,-85.751"/>
</g>
<!-- Node2&#45;&gt;Node8 -->
<g id="edge9" class="edge"><title>Node2&#45;&gt;Node8</title>
<path fill="none" stroke="midnightblue" d="M352.937,-112.444C383.773,-102.649 434.136,-86.6509 466.144,-76.4836"/>
<polygon fill="midnightblue" stroke="midnightblue" points="467.373,-79.7658 475.844,-73.4026 465.253,-73.0943 467.373,-79.7658"/>
</g>
<!-- Node9 -->
<g id="node9" class="node"><title>Node9</title>
<polygon fill="none" stroke="#bfbfbf" points="408.5,-56.5 408.5,-75.5 457.5,-75.5 457.5,-56.5 408.5,-56.5"/>
<text text-anchor="middle" x="433" y="-63.5" font-family="Helvetica,sans-Serif" font-size="10.00">cassert</text>
</g>
<!-- Node2&#45;&gt;Node9 -->
<g id="edge10" class="edge"><title>Node2&#45;&gt;Node9</title>
<path fill="none" stroke="midnightblue" d="M343.191,-112.324C360.351,-103.664 386.946,-90.2424 406.747,-80.249"/>
<polygon fill="midnightblue" stroke="midnightblue" points="408.501,-83.2847 415.851,-75.6545 405.347,-77.0354 408.501,-83.2847"/>
</g>
<!-- Node10 -->
<g id="node10" class="node"><title>Node10</title>
<polygon fill="none" stroke="#bfbfbf" points="97.5,-56.5 97.5,-75.5 180.5,-75.5 180.5,-56.5 97.5,-56.5"/>
<text text-anchor="middle" x="139" y="-63.5" font-family="Helvetica,sans-Serif" font-size="10.00">unordered_map</text>
</g>
<!-- Node2&#45;&gt;Node10 -->
<g id="edge11" class="edge"><title>Node2&#45;&gt;Node10</title>
<path fill="none" stroke="midnightblue" d="M296.369,-112.444C264.5,-103.241 213.667,-88.5617 178.436,-78.3879"/>
<polygon fill="midnightblue" stroke="midnightblue" points="179.071,-74.9282 168.492,-75.5164 177.128,-81.6534 179.071,-74.9282"/>
</g>
<!-- Node3&#45;&gt;Node4 -->
<g id="edge3" class="edge"><title>Node3&#45;&gt;Node4</title>
<path fill="none" stroke="midnightblue" d="M244.789,-56.083C248.758,-48.6913 254.525,-37.9533 259.435,-28.8111"/>
<polygon fill="midnightblue" stroke="midnightblue" points="262.653,-30.217 264.3,-19.7511 256.486,-26.9051 262.653,-30.217"/>
</g>
<!-- Node5 -->
<g id="node5" class="node"><title>Node5</title>
<polygon fill="none" stroke="#bfbfbf" points="191,-0.5 191,-19.5 229,-19.5 229,-0.5 191,-0.5"/>
<text text-anchor="middle" x="210" y="-7.5" font-family="Helvetica,sans-Serif" font-size="10.00">array</text>
</g>
<!-- Node3&#45;&gt;Node5 -->
<g id="edge4" class="edge"><title>Node3&#45;&gt;Node5</title>
<path fill="none" stroke="midnightblue" d="M235.046,-56.083C230.896,-48.6127 224.847,-37.7244 219.733,-28.5199"/>
<polygon fill="midnightblue" stroke="midnightblue" points="222.778,-26.7929 214.862,-19.7511 216.659,-30.1924 222.778,-26.7929"/>
</g>
<!-- Node3&#45;&gt;Node6 -->
<g id="edge5" class="edge"><title>Node3&#45;&gt;Node6</title>
<path fill="none" stroke="midnightblue" d="M212.905,-56.4435C181.973,-46.6756 131.505,-30.7385 99.2963,-20.5673"/>
<polygon fill="midnightblue" stroke="midnightblue" points="100.118,-17.1565 89.5283,-17.4826 98.0102,-23.8316 100.118,-17.1565"/>
</g>
<!-- Node11&#45;&gt;Node4 -->
<g id="edge14" class="edge"><title>Node11&#45;&gt;Node4</title>
<path fill="none" stroke="midnightblue" d="M40.5592,-61.3171C77.7745,-54.5315 158.957,-39.1859 236.747,-20.1615"/>
<polygon fill="midnightblue" stroke="midnightblue" points="237.838,-23.4975 246.706,-17.7007 236.158,-16.7018 237.838,-23.4975"/>
</g>
<!-- Node11&#45;&gt;Node6 -->
<g id="edge13" class="edge"><title>Node11&#45;&gt;Node6</title>
<path fill="none" stroke="midnightblue" d="M28.0914,-56.083C35.1554,-48.2982 45.5876,-36.8015 54.1489,-27.3665"/>
<polygon fill="midnightblue" stroke="midnightblue" points="56.9312,-29.5087 61.0592,-19.7511 51.7473,-24.8047 56.9312,-29.5087"/>
</g>
</g>
</svg>
