<?xml version="1.0" encoding="UTF-8" standalone="no"?>
<!DOCTYPE svg PUBLIC "-//W3C//DTD SVG 1.1//EN"
 "http://www.w3.org/Graphics/SVG/1.1/DTD/svg11.dtd">
<!-- Generated by graphviz version 2.43.0 (0)
 -->
<!-- Title: /home/dferigo/git/WB&#45;Toolbox/toolbox/base/src/RobotInterface.cpp Pages: 1 -->
<svg width="2699pt" height="173pt"
 viewBox="0.00 0.00 2698.50 173.00" xmlns="http://www.w3.org/2000/svg" xmlns:xlink="http://www.w3.org/1999/xlink">
<g id="graph0" class="graph" transform="scale(1 1) rotate(0) translate(4 169)">
<title>/home/dferigo/git/WB&#45;Toolbox/toolbox/base/src/RobotInterface.cpp</title>
<!-- Node1 -->
<g id="node1" class="node">
<title>Node1</title>
<g id="a_node1"><a xlink:title=" ">
<polygon fill="#bfbfbf" stroke="black" points="1516,-123.5 1516,-164.5 1645,-164.5 1645,-123.5 1516,-123.5"/>
<text text-anchor="start" x="1524" y="-152.5" font-family="Helvetica,sans-Serif" font-size="10.00">/home/dferigo/git/WB</text>
<text text-anchor="start" x="1524" y="-141.5" font-family="Helvetica,sans-Serif" font-size="10.00">&#45;Toolbox/toolbox/base</text>
<text text-anchor="middle" x="1580.5" y="-130.5" font-family="Helvetica,sans-Serif" font-size="10.00">/src/RobotInterface.cpp</text>
</a>
</g>
</g>
<!-- Node2 -->
<g id="node2" class="node">
<title>Node2</title>
<g id="a_node2"><a xlink:href="_robot_interface_8h.html" target="_top" xlink:title=" ">
<polygon fill="none" stroke="black" points="224.5,-62 224.5,-81 406.5,-81 406.5,-62 224.5,-62"/>
<text text-anchor="middle" x="315.5" y="-69" font-family="Helvetica,sans-Serif" font-size="10.00">WBToolbox/Base/RobotInterface.h</text>
</a>
</g>
</g>
<!-- Node1&#45;&gt;Node2 -->
<g id="edge1" class="edge">
<title>Node1&#45;&gt;Node2</title>
<path fill="none" stroke="midnightblue" d="M1515.91,-141.9C1339.84,-138.46 836.82,-125.72 420.5,-87 407.5,-85.79 393.65,-84.14 380.41,-82.38"/>
<polygon fill="midnightblue" stroke="midnightblue" points="380.81,-78.91 370.43,-81.02 379.87,-85.84 380.81,-78.91"/>
</g>
<!-- Node6 -->
<g id="node6" class="node">
<title>Node6</title>
<g id="a_node6"><a xlink:title=" ">
<polygon fill="none" stroke="#bfbfbf" points="404,-0.5 404,-19.5 449,-19.5 449,-0.5 404,-0.5"/>
<text text-anchor="middle" x="426.5" y="-7.5" font-family="Helvetica,sans-Serif" font-size="10.00">utility</text>
</a>
</g>
</g>
<!-- Node1&#45;&gt;Node6 -->
<g id="edge28" class="edge">
<title>Node1&#45;&gt;Node6</title>
<path fill="none" stroke="midnightblue" d="M1515.81,-141.76C1282.57,-137.05 496.31,-118.84 453.5,-87 435.72,-73.78 429.6,-47.86 427.53,-30"/>
<polygon fill="midnightblue" stroke="midnightblue" points="431,-29.54 426.67,-19.87 424.03,-30.12 431,-29.54"/>
</g>
<!-- Node7 -->
<g id="node7" class="node">
<title>Node7</title>
<g id="a_node7"><a xlink:href="_configuration_8h.html" target="_top" xlink:title=" ">
<polygon fill="none" stroke="black" points="30.5,-62 30.5,-81 206.5,-81 206.5,-62 30.5,-62"/>
<text text-anchor="middle" x="118.5" y="-69" font-family="Helvetica,sans-Serif" font-size="10.00">WBToolbox/Base/Configuration.h</text>
</a>
</g>
</g>
<!-- Node1&#45;&gt;Node7 -->
<g id="edge6" class="edge">
<title>Node1&#45;&gt;Node7</title>
<path fill="none" stroke="midnightblue" d="M1515.68,-142.81C1319.38,-141.7 714.29,-134.37 215.5,-87 203.58,-85.87 190.89,-84.26 178.76,-82.53"/>
<polygon fill="midnightblue" stroke="midnightblue" points="179.12,-79.05 168.72,-81.06 178.1,-85.97 179.12,-79.05"/>
</g>
<!-- Node9 -->
<g id="node9" class="node">
<title>Node9</title>
<g id="a_node9"><a xlink:title=" ">
<polygon fill="none" stroke="#bfbfbf" points="0,-0.5 0,-19.5 47,-19.5 47,-0.5 0,-0.5"/>
<text text-anchor="middle" x="23.5" y="-7.5" font-family="Helvetica,sans-Serif" font-size="10.00">vector</text>
</a>
</g>
</g>
<!-- Node1&#45;&gt;Node9 -->
<g id="edge29" class="edge">
<title>Node1&#45;&gt;Node9</title>
<path fill="none" stroke="midnightblue" d="M1515.98,-143.15C1228.27,-143.52 74.15,-141.58 21.5,-87 7.01,-71.98 11.19,-46.5 16.5,-29.23"/>
<polygon fill="midnightblue" stroke="midnightblue" points="19.83,-30.3 19.79,-19.7 13.22,-28.01 19.83,-30.3"/>
</g>
<!-- Node10 -->
<g id="node10" class="node">
<title>Node10</title>
<g id="a_node10"><a xlink:title=" ">
<polygon fill="none" stroke="#bfbfbf" points="462.5,-62 462.5,-81 596.5,-81 596.5,-62 462.5,-62"/>
<text text-anchor="middle" x="529.5" y="-69" font-family="Helvetica,sans-Serif" font-size="10.00">BlockFactory/Core/Log.h</text>
</a>
</g>
</g>
<!-- Node1&#45;&gt;Node10 -->
<g id="edge11" class="edge">
<title>Node1&#45;&gt;Node10</title>
<path fill="none" stroke="midnightblue" d="M1515.85,-142.15C1359.25,-139.48 947.37,-128.72 606.5,-87 597.67,-85.92 588.33,-84.44 579.31,-82.85"/>
<polygon fill="midnightblue" stroke="midnightblue" points="579.78,-79.38 569.31,-81.01 578.51,-86.26 579.78,-79.38"/>
</g>
<!-- Node11 -->
<g id="node11" class="node">
<title>Node11</title>
<g id="a_node11"><a xlink:title=" ">
<polygon fill="none" stroke="#bfbfbf" points="615,-62 615,-81 790,-81 790,-62 615,-62"/>
<text text-anchor="middle" x="702.5" y="-69" font-family="Helvetica,sans-Serif" font-size="10.00">iDynTree/KinDynComputations.h</text>
</a>
</g>
</g>
<!-- Node1&#45;&gt;Node11 -->
<g id="edge12" class="edge">
<title>Node1&#45;&gt;Node11</title>
<path fill="none" stroke="midnightblue" d="M1515.8,-140.05C1381.85,-133.56 1064.5,-116.26 799.5,-87 788.18,-85.75 776.15,-84.16 764.55,-82.5"/>
<polygon fill="midnightblue" stroke="midnightblue" points="764.91,-79.01 754.51,-81.03 763.89,-85.94 764.91,-79.01"/>
</g>
<!-- Node12 -->
<g id="node12" class="node">
<title>Node12</title>
<g id="a_node12"><a xlink:title=" ">
<polygon fill="none" stroke="#bfbfbf" points="808.5,-56.5 808.5,-86.5 964.5,-86.5 964.5,-56.5 808.5,-56.5"/>
<text text-anchor="start" x="816.5" y="-74.5" font-family="Helvetica,sans-Serif" font-size="10.00">iDynTree/Model/FreeFloating</text>
<text text-anchor="middle" x="886.5" y="-63.5" font-family="Helvetica,sans-Serif" font-size="10.00">Matrices.h</text>
</a>
</g>
</g>
<!-- Node1&#45;&gt;Node12 -->
<g id="edge13" class="edge">
<title>Node1&#45;&gt;Node12</title>
<path fill="none" stroke="midnightblue" d="M1515.76,-138.54C1406.53,-130.67 1178.49,-112.82 974.66,-86.95"/>
<polygon fill="midnightblue" stroke="midnightblue" points="975.03,-83.47 964.67,-85.68 974.14,-90.42 975.03,-83.47"/>
</g>
<!-- Node13 -->
<g id="node13" class="node">
<title>Node13</title>
<g id="a_node13"><a xlink:title=" ">
<polygon fill="none" stroke="#bfbfbf" points="983,-62 983,-81 1122,-81 1122,-62 983,-62"/>
<text text-anchor="middle" x="1052.5" y="-69" font-family="Helvetica,sans-Serif" font-size="10.00">iDynTree/Model/Indices.h</text>
</a>
</g>
</g>
<!-- Node1&#45;&gt;Node13 -->
<g id="edge14" class="edge">
<title>Node1&#45;&gt;Node13</title>
<path fill="none" stroke="midnightblue" d="M1515.65,-136.1C1428.21,-126.52 1267.76,-107.98 1131.5,-87 1123.37,-85.75 1114.79,-84.3 1106.4,-82.82"/>
<polygon fill="midnightblue" stroke="midnightblue" points="1106.76,-79.33 1096.3,-81 1105.52,-86.22 1106.76,-79.33"/>
</g>
<!-- Node14 -->
<g id="node14" class="node">
<title>Node14</title>
<g id="a_node14"><a xlink:title=" ">
<polygon fill="none" stroke="#bfbfbf" points="1140.5,-62 1140.5,-81 1274.5,-81 1274.5,-62 1140.5,-62"/>
<text text-anchor="middle" x="1207.5" y="-69" font-family="Helvetica,sans-Serif" font-size="10.00">iDynTree/Model/Model.h</text>
</a>
</g>
</g>
<!-- Node1&#45;&gt;Node14 -->
<g id="edge15" class="edge">
<title>Node1&#45;&gt;Node14</title>
<path fill="none" stroke="midnightblue" d="M1515.89,-130.86C1455.73,-119.54 1363.53,-102.18 1283.5,-87 1276.67,-85.71 1269.5,-84.34 1262.4,-82.99"/>
<polygon fill="midnightblue" stroke="midnightblue" points="1262.58,-79.46 1252.1,-81.03 1261.27,-86.34 1262.58,-79.46"/>
</g>
<!-- Node15 -->
<g id="node15" class="node">
<title>Node15</title>
<g id="a_node15"><a xlink:title=" ">
<polygon fill="none" stroke="#bfbfbf" points="1292.5,-62 1292.5,-81 1470.5,-81 1470.5,-62 1292.5,-62"/>
<text text-anchor="middle" x="1381.5" y="-69" font-family="Helvetica,sans-Serif" font-size="10.00">iDynTree/ModelIO/ModelLoader.h</text>
</a>
</g>
</g>
<!-- Node1&#45;&gt;Node15 -->
<g id="edge16" class="edge">
<title>Node1&#45;&gt;Node15</title>
<path fill="none" stroke="midnightblue" d="M1525.33,-123.46C1489.99,-110.93 1445.26,-95.09 1415.15,-84.42"/>
<polygon fill="midnightblue" stroke="midnightblue" points="1416.12,-81.05 1405.53,-81.01 1413.79,-87.65 1416.12,-81.05"/>
</g>
<!-- Node16 -->
<g id="node16" class="node">
<title>Node16</title>
<g id="a_node16"><a xlink:title=" ">
<polygon fill="none" stroke="#bfbfbf" points="1488.5,-62 1488.5,-81 1672.5,-81 1672.5,-62 1488.5,-62"/>
<text text-anchor="middle" x="1580.5" y="-69" font-family="Helvetica,sans-Serif" font-size="10.00">yarp/dev/ControlBoardInterfaces.h</text>
</a>
</g>
</g>
<!-- Node1&#45;&gt;Node16 -->
<g id="edge17" class="edge">
<title>Node1&#45;&gt;Node16</title>
<path fill="none" stroke="midnightblue" d="M1580.5,-123.36C1580.5,-113.3 1580.5,-101.1 1580.5,-91.18"/>
<polygon fill="midnightblue" stroke="midnightblue" points="1584,-91.17 1580.5,-81.17 1577,-91.17 1584,-91.17"/>
</g>
<!-- Node17 -->
<g id="node17" class="node">
<title>Node17</title>
<g id="a_node17"><a xlink:title=" ">
<polygon fill="none" stroke="#bfbfbf" points="1690.5,-62 1690.5,-81 1812.5,-81 1812.5,-62 1690.5,-62"/>
<text text-anchor="middle" x="1751.5" y="-69" font-family="Helvetica,sans-Serif" font-size="10.00">yarp/dev/PolyDriver.h</text>
</a>
</g>
</g>
<!-- Node1&#45;&gt;Node17 -->
<g id="edge18" class="edge">
<title>Node1&#45;&gt;Node17</title>
<path fill="none" stroke="midnightblue" d="M1628.13,-123.36C1657.93,-111.08 1695.41,-95.63 1721.19,-84.99"/>
<polygon fill="midnightblue" stroke="midnightblue" points="1722.55,-88.22 1730.46,-81.17 1719.88,-81.75 1722.55,-88.22"/>
</g>
<!-- Node18 -->
<g id="node18" class="node">
<title>Node18</title>
<g id="a_node18"><a xlink:title=" ">
<polygon fill="none" stroke="#bfbfbf" points="1830.5,-62 1830.5,-81 1924.5,-81 1924.5,-62 1830.5,-62"/>
<text text-anchor="middle" x="1877.5" y="-69" font-family="Helvetica,sans-Serif" font-size="10.00">yarp/os/Bottle.h</text>
</a>
</g>
</g>
<!-- Node1&#45;&gt;Node18 -->
<g id="edge19" class="edge">
<title>Node1&#45;&gt;Node18</title>
<path fill="none" stroke="midnightblue" d="M1645.05,-128.46C1693.64,-117.41 1761.85,-101.65 1821.5,-87 1825.9,-85.92 1830.48,-84.77 1835.06,-83.61"/>
<polygon fill="midnightblue" stroke="midnightblue" points="1836.14,-86.94 1844.96,-81.07 1834.41,-80.16 1836.14,-86.94"/>
</g>
<!-- Node19 -->
<g id="node19" class="node">
<title>Node19</title>
<g id="a_node19"><a xlink:title=" ">
<polygon fill="none" stroke="#bfbfbf" points="1942.5,-62 1942.5,-81 2048.5,-81 2048.5,-62 1942.5,-62"/>
<text text-anchor="middle" x="1995.5" y="-69" font-family="Helvetica,sans-Serif" font-size="10.00">yarp/os/Network.h</text>
</a>
</g>
</g>
<!-- Node1&#45;&gt;Node19 -->
<g id="edge20" class="edge">
<title>Node1&#45;&gt;Node19</title>
<path fill="none" stroke="midnightblue" d="M1645.16,-134.18C1716.14,-124.16 1833.33,-106.63 1933.5,-87 1939.2,-85.88 1945.17,-84.61 1951.06,-83.3"/>
<polygon fill="midnightblue" stroke="midnightblue" points="1951.86,-86.71 1960.84,-81.07 1950.31,-79.88 1951.86,-86.71"/>
</g>
<!-- Node20 -->
<g id="node20" class="node">
<title>Node20</title>
<g id="a_node20"><a xlink:title=" ">
<polygon fill="none" stroke="#bfbfbf" points="2066.5,-62 2066.5,-81 2170.5,-81 2170.5,-62 2066.5,-62"/>
<text text-anchor="middle" x="2118.5" y="-69" font-family="Helvetica,sans-Serif" font-size="10.00">yarp/os/Property.h</text>
</a>
</g>
</g>
<!-- Node1&#45;&gt;Node20 -->
<g id="edge21" class="edge">
<title>Node1&#45;&gt;Node20</title>
<path fill="none" stroke="midnightblue" d="M1645.27,-137.81C1737.34,-129.88 1911.15,-112.89 2057.5,-87 2063.41,-85.96 2069.59,-84.69 2075.67,-83.34"/>
<polygon fill="midnightblue" stroke="midnightblue" points="2076.76,-86.68 2085.72,-81.03 2075.19,-79.86 2076.76,-86.68"/>
</g>
<!-- Node21 -->
<g id="node21" class="node">
<title>Node21</title>
<g id="a_node21"><a xlink:title=" ">
<polygon fill="none" stroke="#bfbfbf" points="2189,-62 2189,-81 2328,-81 2328,-62 2189,-62"/>
<text text-anchor="middle" x="2258.5" y="-69" font-family="Helvetica,sans-Serif" font-size="10.00">yarp/os/ResourceFinder.h</text>
</a>
</g>
</g>
<!-- Node1&#45;&gt;Node21 -->
<g id="edge22" class="edge">
<title>Node1&#45;&gt;Node21</title>
<path fill="none" stroke="midnightblue" d="M1645.42,-138.82C1755.59,-131.3 1986.02,-113.75 2179.5,-87 2188.13,-85.81 2197.26,-84.33 2206.12,-82.78"/>
<polygon fill="midnightblue" stroke="midnightblue" points="2206.75,-86.23 2215.97,-81.02 2205.51,-79.34 2206.75,-86.23"/>
</g>
<!-- Node22 -->
<g id="node22" class="node">
<title>Node22</title>
<g id="a_node22"><a xlink:title=" ">
<polygon fill="none" stroke="#bfbfbf" points="2346.5,-62 2346.5,-81 2398.5,-81 2398.5,-62 2346.5,-62"/>
<text text-anchor="middle" x="2372.5" y="-69" font-family="Helvetica,sans-Serif" font-size="10.00">cassert</text>
</a>
</g>
</g>
<!-- Node1&#45;&gt;Node22 -->
<g id="edge23" class="edge">
<title>Node1&#45;&gt;Node22</title>
<path fill="none" stroke="midnightblue" d="M1645.03,-140.86C1803.18,-135.21 2206.64,-118.1 2337.5,-87 2340.17,-86.37 2342.89,-85.55 2345.59,-84.64"/>
<polygon fill="midnightblue" stroke="midnightblue" points="2346.98,-87.86 2355.06,-81.01 2344.47,-81.32 2346.98,-87.86"/>
</g>
<!-- Node23 -->
<g id="node23" class="node">
<title>Node23</title>
<g id="a_node23"><a xlink:title=" ">
<polygon fill="none" stroke="#bfbfbf" points="2416.5,-62 2416.5,-81 2466.5,-81 2466.5,-62 2416.5,-62"/>
<text text-anchor="middle" x="2441.5" y="-69" font-family="Helvetica,sans-Serif" font-size="10.00">chrono</text>
</a>
</g>
</g>
<!-- Node1&#45;&gt;Node23 -->
<g id="edge24" class="edge">
<title>Node1&#45;&gt;Node23</title>
<path fill="none" stroke="midnightblue" d="M1645.1,-141.41C1813.52,-136.84 2263.01,-121.65 2407.5,-87 2410.01,-86.4 2412.57,-85.63 2415.11,-84.75"/>
<polygon fill="midnightblue" stroke="midnightblue" points="2416.56,-87.95 2424.59,-81.03 2414,-81.43 2416.56,-87.95"/>
</g>
<!-- Node24 -->
<g id="node24" class="node">
<title>Node24</title>
<g id="a_node24"><a xlink:title=" ">
<polygon fill="none" stroke="#bfbfbf" points="2485,-62 2485,-81 2550,-81 2550,-62 2485,-62"/>
<text text-anchor="middle" x="2517.5" y="-69" font-family="Helvetica,sans-Serif" font-size="10.00">functional</text>
</a>
</g>
</g>
<!-- Node1&#45;&gt;Node24 -->
<g id="edge25" class="edge">
<title>Node1&#45;&gt;Node24</title>
<path fill="none" stroke="midnightblue" d="M1645.07,-141.22C1822.76,-135.96 2316.35,-118.84 2475.5,-87 2479.2,-86.26 2483.01,-85.27 2486.77,-84.16"/>
<polygon fill="midnightblue" stroke="midnightblue" points="2488.02,-87.44 2496.44,-81.01 2485.85,-80.78 2488.02,-87.44"/>
</g>
<!-- Node25 -->
<g id="node25" class="node">
<title>Node25</title>
<g id="a_node25"><a xlink:title=" ">
<polygon fill="none" stroke="#bfbfbf" points="2568.5,-62 2568.5,-81 2624.5,-81 2624.5,-62 2568.5,-62"/>
<text text-anchor="middle" x="2596.5" y="-69" font-family="Helvetica,sans-Serif" font-size="10.00">sstream</text>
</a>
</g>
</g>
<!-- Node1&#45;&gt;Node25 -->
<g id="edge26" class="edge">
<title>Node1&#45;&gt;Node25</title>
<path fill="none" stroke="midnightblue" d="M1645.02,-141.96C1834.05,-138.5 2384.25,-125.33 2559.5,-87 2562.5,-86.34 2565.58,-85.48 2568.62,-84.49"/>
<polygon fill="midnightblue" stroke="midnightblue" points="2569.84,-87.77 2578.04,-81.06 2567.44,-81.19 2569.84,-87.77"/>
</g>
<!-- Node26 -->
<g id="node26" class="node">
<title>Node26</title>
<g id="a_node26"><a xlink:title=" ">
<polygon fill="none" stroke="#bfbfbf" points="2642.5,-62 2642.5,-81 2690.5,-81 2690.5,-62 2642.5,-62"/>
<text text-anchor="middle" x="2666.5" y="-69" font-family="Helvetica,sans-Serif" font-size="10.00">thread</text>
</a>
</g>
</g>
<!-- Node1&#45;&gt;Node26 -->
<g id="edge27" class="edge">
<title>Node1&#45;&gt;Node26</title>
<path fill="none" stroke="midnightblue" d="M1645.34,-142.6C1844.35,-140.87 2444.38,-131.99 2633.5,-87 2635.86,-86.44 2638.27,-85.71 2640.65,-84.89"/>
<polygon fill="midnightblue" stroke="midnightblue" points="2642.14,-88.06 2650.12,-81.09 2639.53,-81.56 2642.14,-88.06"/>
</g>
<!-- Node3 -->
<g id="node3" class="node">
<title>Node3</title>
<g id="a_node3"><a xlink:title=" ">
<polygon fill="none" stroke="#bfbfbf" points="138.5,-0.5 138.5,-19.5 196.5,-19.5 196.5,-0.5 138.5,-0.5"/>
<text text-anchor="middle" x="167.5" y="-7.5" font-family="Helvetica,sans-Serif" font-size="10.00">memory</text>
</a>
</g>
</g>
<!-- Node2&#45;&gt;Node3 -->
<g id="edge2" class="edge">
<title>Node2&#45;&gt;Node3</title>
<path fill="none" stroke="midnightblue" d="M294.3,-61.98C269.13,-51.86 226.96,-34.9 198.22,-23.35"/>
<polygon fill="midnightblue" stroke="midnightblue" points="199.25,-19.99 188.67,-19.51 196.64,-26.49 199.25,-19.99"/>
</g>
<!-- Node4 -->
<g id="node4" class="node">
<title>Node4</title>
<g id="a_node4"><a xlink:title=" ">
<polygon fill="none" stroke="#bfbfbf" points="214.5,-0.5 214.5,-19.5 258.5,-19.5 258.5,-0.5 214.5,-0.5"/>
<text text-anchor="middle" x="236.5" y="-7.5" font-family="Helvetica,sans-Serif" font-size="10.00">string</text>
</a>
</g>
</g>
<!-- Node2&#45;&gt;Node4 -->
<g id="edge3" class="edge">
<title>Node2&#45;&gt;Node4</title>
<path fill="none" stroke="midnightblue" d="M304.18,-61.98C291.63,-52.52 271.15,-37.1 256,-25.69"/>
<polygon fill="midnightblue" stroke="midnightblue" points="257.89,-22.73 247.8,-19.51 253.68,-28.32 257.89,-22.73"/>
</g>
<!-- Node5 -->
<g id="node5" class="node">
<title>Node5</title>
<g id="a_node5"><a xlink:title=" ">
<polygon fill="none" stroke="#bfbfbf" points="277,-0.5 277,-19.5 370,-19.5 370,-0.5 277,-0.5"/>
<text text-anchor="middle" x="323.5" y="-7.5" font-family="Helvetica,sans-Serif" font-size="10.00">unordered_map</text>
</a>
</g>
</g>
<!-- Node2&#45;&gt;Node5 -->
<g id="edge4" class="edge">
<title>Node2&#45;&gt;Node5</title>
<path fill="none" stroke="midnightblue" d="M316.65,-61.98C317.77,-53.58 319.54,-40.48 320.99,-29.66"/>
<polygon fill="midnightblue" stroke="midnightblue" points="324.49,-29.89 322.36,-19.51 317.55,-28.95 324.49,-29.89"/>
</g>
<!-- Node2&#45;&gt;Node6 -->
<g id="edge5" class="edge">
<title>Node2&#45;&gt;Node6</title>
<path fill="none" stroke="midnightblue" d="M331.4,-61.98C349.78,-52.12 380.26,-35.79 401.74,-24.27"/>
<polygon fill="midnightblue" stroke="midnightblue" points="403.47,-27.32 410.63,-19.51 400.16,-21.15 403.47,-27.32"/>
</g>
<!-- Node7&#45;&gt;Node3 -->
<g id="edge8" class="edge">
<title>Node7&#45;&gt;Node3</title>
<path fill="none" stroke="midnightblue" d="M125.52,-61.98C132.94,-52.96 144.83,-38.52 154.07,-27.31"/>
<polygon fill="midnightblue" stroke="midnightblue" points="156.84,-29.45 160.49,-19.51 151.43,-25 156.84,-29.45"/>
</g>
<!-- Node7&#45;&gt;Node4 -->
<g id="edge9" class="edge">
<title>Node7&#45;&gt;Node4</title>
<path fill="none" stroke="midnightblue" d="M135.41,-61.98C155.03,-52.08 187.63,-35.64 210.49,-24.12"/>
<polygon fill="midnightblue" stroke="midnightblue" points="212.27,-27.14 219.62,-19.51 209.12,-20.89 212.27,-27.14"/>
</g>
<!-- Node8 -->
<g id="node8" class="node">
<title>Node8</title>
<g id="a_node8"><a xlink:title=" ">
<polygon fill="none" stroke="#bfbfbf" points="78.5,-0.5 78.5,-19.5 120.5,-19.5 120.5,-0.5 78.5,-0.5"/>
<text text-anchor="middle" x="99.5" y="-7.5" font-family="Helvetica,sans-Serif" font-size="10.00">array</text>
</a>
</g>
</g>
<!-- Node7&#45;&gt;Node8 -->
<g id="edge7" class="edge">
<title>Node7&#45;&gt;Node8</title>
<path fill="none" stroke="midnightblue" d="M115.78,-61.98C113.07,-53.49 108.83,-40.2 105.35,-29.32"/>
<polygon fill="midnightblue" stroke="midnightblue" points="108.59,-27.97 102.22,-19.51 101.93,-30.1 108.59,-27.97"/>
</g>
<!-- Node7&#45;&gt;Node9 -->
<g id="edge10" class="edge">
<title>Node7&#45;&gt;Node9</title>
<path fill="none" stroke="midnightblue" d="M104.89,-61.98C89.44,-52.3 64.01,-36.37 45.68,-24.89"/>
<polygon fill="midnightblue" stroke="midnightblue" points="47.42,-21.85 37.09,-19.51 43.7,-27.78 47.42,-21.85"/>
</g>
</g>
</svg>
