<?xml version="1.0" encoding="UTF-8" standalone="no"?>
<!DOCTYPE svg PUBLIC "-//W3C//DTD SVG 1.1//EN"
 "http://www.w3.org/Graphics/SVG/1.1/DTD/svg11.dtd">
<!-- Generated by graphviz version 2.38.0 (20140413.2041)
 -->
<!-- Title: /home/travis/build/robotology/wb&#45;toolbox/toolbox/base/include/WBToolbox/Base/RobotInterface.h Pages: 1 -->
<svg width="298pt" height="117pt"
 viewBox="0.00 0.00 297.50 117.00" xmlns="http://www.w3.org/2000/svg" xmlns:xlink="http://www.w3.org/1999/xlink">
<g id="graph0" class="graph" transform="scale(1 1) rotate(0) translate(4 113)">
<title>/home/travis/build/robotology/wb&#45;toolbox/toolbox/base/include/WBToolbox/Base/RobotInterface.h</title>
<!-- Node1 -->
<g id="node1" class="node"><title>Node1</title>
<polygon fill="#bfbfbf" stroke="black" points="51.5,-56.5 51.5,-108.5 229.5,-108.5 229.5,-56.5 51.5,-56.5"/>
<text text-anchor="start" x="59.5" y="-96.5" font-family="Helvetica,sans-Serif" font-size="10.00">/home/travis/build</text>
<text text-anchor="start" x="59.5" y="-85.5" font-family="Helvetica,sans-Serif" font-size="10.00">/robotology/wb&#45;toolbox</text>
<text text-anchor="start" x="59.5" y="-74.5" font-family="Helvetica,sans-Serif" font-size="10.00">/toolbox/base/include</text>
<text text-anchor="middle" x="140.5" y="-63.5" font-family="Helvetica,sans-Serif" font-size="10.00">/WBToolbox/Base/RobotInterface.h</text>
</g>
<!-- Node2 -->
<g id="node2" class="node"><title>Node2</title>
<polygon fill="none" stroke="#bfbfbf" points="0,-0.5 0,-19.5 57,-19.5 57,-0.5 0,-0.5"/>
<text text-anchor="middle" x="28.5" y="-7.5" font-family="Helvetica,sans-Serif" font-size="10.00">memory</text>
</g>
<!-- Node1&#45;&gt;Node2 -->
<g id="edge1" class="edge"><title>Node1&#45;&gt;Node2</title>
<path fill="none" stroke="midnightblue" d="M100.698,-56.4458C83.8835,-45.8619 64.9377,-33.9362 50.6741,-24.9578"/>
<polygon fill="midnightblue" stroke="midnightblue" points="52.3739,-21.8921 42.0464,-19.527 48.6449,-27.8162 52.3739,-21.8921"/>
</g>
<!-- Node3 -->
<g id="node3" class="node"><title>Node3</title>
<polygon fill="none" stroke="#bfbfbf" points="75.5,-0.5 75.5,-19.5 119.5,-19.5 119.5,-0.5 75.5,-0.5"/>
<text text-anchor="middle" x="97.5" y="-7.5" font-family="Helvetica,sans-Serif" font-size="10.00">string</text>
</g>
<!-- Node1&#45;&gt;Node3 -->
<g id="edge2" class="edge"><title>Node1&#45;&gt;Node3</title>
<path fill="none" stroke="midnightblue" d="M125.219,-56.4458C119.536,-47.129 113.219,-36.7725 108.053,-28.3018"/>
<polygon fill="midnightblue" stroke="midnightblue" points="110.999,-26.4103 102.804,-19.6955 105.023,-30.0553 110.999,-26.4103"/>
</g>
<!-- Node4 -->
<g id="node4" class="node"><title>Node4</title>
<polygon fill="none" stroke="#bfbfbf" points="137,-0.5 137,-19.5 230,-19.5 230,-0.5 137,-0.5"/>
<text text-anchor="middle" x="183.5" y="-7.5" font-family="Helvetica,sans-Serif" font-size="10.00">unordered_map</text>
</g>
<!-- Node1&#45;&gt;Node4 -->
<g id="edge3" class="edge"><title>Node1&#45;&gt;Node4</title>
<path fill="none" stroke="midnightblue" d="M155.781,-56.4458C161.464,-47.129 167.781,-36.7725 172.947,-28.3018"/>
<polygon fill="midnightblue" stroke="midnightblue" points="175.977,-30.0553 178.196,-19.6955 170.001,-26.4103 175.977,-30.0553"/>
</g>
<!-- Node5 -->
<g id="node5" class="node"><title>Node5</title>
<polygon fill="none" stroke="#bfbfbf" points="247.5,-0.5 247.5,-19.5 289.5,-19.5 289.5,-0.5 247.5,-0.5"/>
<text text-anchor="middle" x="268.5" y="-7.5" font-family="Helvetica,sans-Serif" font-size="10.00">utility</text>
</g>
<!-- Node1&#45;&gt;Node5 -->
<g id="edge4" class="edge"><title>Node1&#45;&gt;Node5</title>
<path fill="none" stroke="midnightblue" d="M185.988,-56.4458C205.571,-45.6603 227.683,-33.4814 244.084,-24.448"/>
<polygon fill="midnightblue" stroke="midnightblue" points="245.948,-27.4172 253.018,-19.527 242.571,-21.2857 245.948,-27.4172"/>
</g>
</g>
</svg>
