<?xml version="1.0" encoding="UTF-8" standalone="no"?>
<!DOCTYPE svg PUBLIC "-//W3C//DTD SVG 1.1//EN"
 "http://www.w3.org/Graphics/SVG/1.1/DTD/svg11.dtd">
<!-- Generated by graphviz version 2.36.0 (20140111.2315)
 -->
<!-- Title: /home/travis/build/robotology/wb&#45;toolbox/toolbox/library/include/Base/RobotInterface.h Pages: 1 -->
<!--zoomable 152 -->
<svg id="main" version="1.1" xmlns="http://www.w3.org/2000/svg" xmlns:xlink="http://www.w3.org/1999/xlink" xml:space="preserve" onload="init(evt)">
<style type="text/css"><![CDATA[
.edge:hover path { stroke: red; }
.edge:hover polygon { stroke: red; fill: red; }
]]></style>
<script type="text/javascript"><![CDATA[
var edges = document.getElementsByTagName('g');
if (edges && edges.length) {
  for (var i=0;i<edges.length;i++) {
    if (edges[i].id.substr(0,4)=='edge') {
      edges[i].setAttribute('class','edge');
    }
  }
}
]]></script>
        <defs>
                <circle id="rim" cx="0" cy="0" r="7"/>
                <circle id="rim2" cx="0" cy="0" r="3.5"/>
                <g id="zoomPlus">
                        <use xlink:href="#rim" fill="#404040">
                                <set attributeName="fill" to="#808080" begin="zoomplus.mouseover" end="zoomplus.mouseout"/>
                        </use>
                        <path d="M-4,0h8M0,-4v8" fill="none" stroke="white" stroke-width="1.5" pointer-events="none"/>
                </g>
                <g id="zoomMin">
                        <use xlink:href="#rim" fill="#404040">
                                <set attributeName="fill" to="#808080" begin="zoomminus.mouseover" end="zoomminus.mouseout"/>
                        </use>
                        <path d="M-4,0h8" fill="none" stroke="white" stroke-width="1.5" pointer-events="none"/>
                </g>
                <g id="dirArrow">
                        <path fill="none" stroke="white" stroke-width="1.5" d="M0,-3.0v7 M-2.5,-0.5L0,-3.0L2.5,-0.5"/>
                </g>
               <g id="resetDef">
                       <use xlink:href="#rim2" fill="#404040">
                               <set attributeName="fill" to="#808080" begin="reset.mouseover" end="reset.mouseout"/>
                       </use>
               </g>
        </defs>

<script type="text/javascript">
var viewWidth = 2443;
var viewHeight = 152;
var sectionId = 'dynsection-1';
</script>
<script xlink:href="svgpan.js"/>
<svg id="graph" class="graph">
<g id="viewport">
<title>/home/travis/build/robotology/wb&#45;toolbox/toolbox/library/include/Base/RobotInterface.h</title>
<!-- Node1 -->
<g id="node1" class="node"><title>Node1</title>
<polygon fill="#bfbfbf" stroke="black" points="1138,-91 1138,-143 1256,-143 1256,-91 1138,-91"/>
<text text-anchor="start" x="1146" y="-131" font-family="Helvetica,sans-Serif" font-size="10.00">/home/travis/build</text>
<text text-anchor="start" x="1146" y="-120" font-family="Helvetica,sans-Serif" font-size="10.00">/robotology/wb&#45;toolbox</text>
<text text-anchor="start" x="1146" y="-109" font-family="Helvetica,sans-Serif" font-size="10.00">/toolbox/library/include</text>
<text text-anchor="middle" x="1197" y="-98" font-family="Helvetica,sans-Serif" font-size="10.00">/Base/RobotInterface.h</text>
</g>
<!-- Node2 -->
<g id="node2" class="node"><title>Node2</title>
<g id="a_node2"><a xlink:href="_centroidal_momentum_8cpp.html" target="_top" xlink:title="/home/travis/build\l/robotology/wb&#45;toolbox\l/toolbox/library/src/Centroidal\lMomentum.cpp">
<polygon fill="none" stroke="black" points="0,-1 0,-53 144,-53 144,-1 0,-1"/>
<text text-anchor="start" x="8" y="-41" font-family="Helvetica,sans-Serif" font-size="10.00">/home/travis/build</text>
<text text-anchor="start" x="8" y="-30" font-family="Helvetica,sans-Serif" font-size="10.00">/robotology/wb&#45;toolbox</text>
<text text-anchor="start" x="8" y="-19" font-family="Helvetica,sans-Serif" font-size="10.00">/toolbox/library/src/Centroidal</text>
<text text-anchor="middle" x="72" y="-8" font-family="Helvetica,sans-Serif" font-size="10.00">Momentum.cpp</text>
</a>
</g>
</g>
<!-- Node1&#45;&gt;Node2 -->
<g id="edge1" class="edge"><title>Node1&#45;&gt;Node2</title>
<path fill="none" stroke="midnightblue" d="M1127.49,-114.148C925.451,-108.406 340.812,-89.1389 153,-54 150.097,-53.4568 147.152,-52.8397 144.192,-52.1637"/>
<polygon fill="midnightblue" stroke="midnightblue" points="1127.58,-117.652 1137.67,-114.436 1127.78,-110.655 1127.58,-117.652"/>
</g>
<!-- Node3 -->
<g id="node3" class="node"><title>Node3</title>
<g id="a_node3"><a xlink:href="_dot_j_nu_8cpp.html" target="_top" xlink:title="/home/travis/build\l/robotology/wb&#45;toolbox\l/toolbox/library/src/DotJNu.cpp">
<polygon fill="none" stroke="black" points="162,-6.5 162,-47.5 314,-47.5 314,-6.5 162,-6.5"/>
<text text-anchor="start" x="170" y="-35.5" font-family="Helvetica,sans-Serif" font-size="10.00">/home/travis/build</text>
<text text-anchor="start" x="170" y="-24.5" font-family="Helvetica,sans-Serif" font-size="10.00">/robotology/wb&#45;toolbox</text>
<text text-anchor="middle" x="238" y="-13.5" font-family="Helvetica,sans-Serif" font-size="10.00">/toolbox/library/src/DotJNu.cpp</text>
</a>
</g>
</g>
<!-- Node1&#45;&gt;Node3 -->
<g id="edge2" class="edge"><title>Node1&#45;&gt;Node3</title>
<path fill="none" stroke="midnightblue" d="M1127.51,-116.371C978.668,-116.011 618.567,-108.955 323,-54 314.049,-52.3357 304.708,-50.0575 295.634,-47.5368"/>
<polygon fill="midnightblue" stroke="midnightblue" points="1127.85,-119.871 1137.86,-116.386 1127.86,-112.871 1127.85,-119.871"/>
</g>
<!-- Node4 -->
<g id="node4" class="node"><title>Node4</title>
<g id="a_node4"><a xlink:href="_forward_kinematics_8cpp.html" target="_top" xlink:title="/home/travis/build\l/robotology/wb&#45;toolbox\l/toolbox/library/src/Forward\lKinematics.cpp">
<polygon fill="none" stroke="black" points="332.5,-1 332.5,-53 467.5,-53 467.5,-1 332.5,-1"/>
<text text-anchor="start" x="340.5" y="-41" font-family="Helvetica,sans-Serif" font-size="10.00">/home/travis/build</text>
<text text-anchor="start" x="340.5" y="-30" font-family="Helvetica,sans-Serif" font-size="10.00">/robotology/wb&#45;toolbox</text>
<text text-anchor="start" x="340.5" y="-19" font-family="Helvetica,sans-Serif" font-size="10.00">/toolbox/library/src/Forward</text>
<text text-anchor="middle" x="400" y="-8" font-family="Helvetica,sans-Serif" font-size="10.00">Kinematics.cpp</text>
</a>
</g>
</g>
<!-- Node1&#45;&gt;Node4 -->
<g id="edge3" class="edge"><title>Node1&#45;&gt;Node4</title>
<path fill="none" stroke="midnightblue" d="M1127.72,-115.626C998.27,-113.7 711.498,-103.629 476,-54 473.271,-53.4249 470.504,-52.7809 467.723,-52.0824"/>
<polygon fill="midnightblue" stroke="midnightblue" points="1127.83,-119.128 1137.88,-115.765 1127.93,-112.129 1127.83,-119.128"/>
</g>
<!-- Node5 -->
<g id="node5" class="node"><title>Node5</title>
<g id="a_node5"><a xlink:href="_get_limits_8cpp.html" target="_top" xlink:title="/home/travis/build\l/robotology/wb&#45;toolbox\l/toolbox/library/src/GetLimits.cpp">
<polygon fill="none" stroke="black" points="485.5,-6.5 485.5,-47.5 646.5,-47.5 646.5,-6.5 485.5,-6.5"/>
<text text-anchor="start" x="493.5" y="-35.5" font-family="Helvetica,sans-Serif" font-size="10.00">/home/travis/build</text>
<text text-anchor="start" x="493.5" y="-24.5" font-family="Helvetica,sans-Serif" font-size="10.00">/robotology/wb&#45;toolbox</text>
<text text-anchor="middle" x="566" y="-13.5" font-family="Helvetica,sans-Serif" font-size="10.00">/toolbox/library/src/GetLimits.cpp</text>
</a>
</g>
</g>
<!-- Node1&#45;&gt;Node5 -->
<g id="edge4" class="edge"><title>Node1&#45;&gt;Node5</title>
<path fill="none" stroke="midnightblue" d="M1127.65,-111.775C1024.16,-104.633 823.534,-87.5543 656,-54 647.07,-52.2114 637.74,-49.9611 628.612,-47.5368"/>
<polygon fill="midnightblue" stroke="midnightblue" points="1127.44,-115.269 1137.66,-112.455 1127.92,-108.285 1127.44,-115.269"/>
</g>
<!-- Node6 -->
<g id="node6" class="node"><title>Node6</title>
<g id="a_node6"><a xlink:href="_get_measurement_8cpp.html" target="_top" xlink:title="/home/travis/build\l/robotology/wb&#45;toolbox\l/toolbox/library/src/GetMeasurement.cpp">
<polygon fill="none" stroke="black" points="665,-6.5 665,-47.5 859,-47.5 859,-6.5 665,-6.5"/>
<text text-anchor="start" x="673" y="-35.5" font-family="Helvetica,sans-Serif" font-size="10.00">/home/travis/build</text>
<text text-anchor="start" x="673" y="-24.5" font-family="Helvetica,sans-Serif" font-size="10.00">/robotology/wb&#45;toolbox</text>
<text text-anchor="middle" x="762" y="-13.5" font-family="Helvetica,sans-Serif" font-size="10.00">/toolbox/library/src/GetMeasurement.cpp</text>
</a>
</g>
</g>
<!-- Node1&#45;&gt;Node6 -->
<g id="edge5" class="edge"><title>Node1&#45;&gt;Node6</title>
<path fill="none" stroke="midnightblue" d="M1127.99,-104.12C1061.27,-92.3677 957.422,-73.3776 868,-54 858.741,-51.9935 849.055,-49.779 839.462,-47.5143"/>
<polygon fill="midnightblue" stroke="midnightblue" points="1127.51,-107.589 1137.97,-105.871 1128.72,-100.694 1127.51,-107.589"/>
</g>
<!-- Node7 -->
<g id="node7" class="node"><title>Node7</title>
<g id="a_node7"><a xlink:href="_inverse_dynamics_8cpp.html" target="_top" xlink:title="/home/travis/build\l/robotology/wb&#45;toolbox\l/toolbox/library/src/Inverse\lDynamics.cpp">
<polygon fill="none" stroke="black" points="877,-1 877,-53 1009,-53 1009,-1 877,-1"/>
<text text-anchor="start" x="885" y="-41" font-family="Helvetica,sans-Serif" font-size="10.00">/home/travis/build</text>
<text text-anchor="start" x="885" y="-30" font-family="Helvetica,sans-Serif" font-size="10.00">/robotology/wb&#45;toolbox</text>
<text text-anchor="start" x="885" y="-19" font-family="Helvetica,sans-Serif" font-size="10.00">/toolbox/library/src/Inverse</text>
<text text-anchor="middle" x="943" y="-8" font-family="Helvetica,sans-Serif" font-size="10.00">Dynamics.cpp</text>
</a>
</g>
</g>
<!-- Node1&#45;&gt;Node7 -->
<g id="edge6" class="edge"><title>Node1&#45;&gt;Node7</title>
<path fill="none" stroke="midnightblue" d="M1128.11,-92.1432C1094.84,-80.6209 1054.34,-66.5937 1018,-54 1015.14,-53.0073 1012.21,-51.9933 1009.25,-50.9688"/>
<polygon fill="midnightblue" stroke="midnightblue" points="1127.14,-95.513 1137.74,-95.4784 1129.44,-88.8985 1127.14,-95.513"/>
</g>
<!-- Node8 -->
<g id="node8" class="node"><title>Node8</title>
<g id="a_node8"><a xlink:href="_jacobian_8cpp.html" target="_top" xlink:title="/home/travis/build\l/robotology/wb&#45;toolbox\l/toolbox/library/src/Jacobian.cpp">
<polygon fill="none" stroke="black" points="1027,-6.5 1027,-47.5 1185,-47.5 1185,-6.5 1027,-6.5"/>
<text text-anchor="start" x="1035" y="-35.5" font-family="Helvetica,sans-Serif" font-size="10.00">/home/travis/build</text>
<text text-anchor="start" x="1035" y="-24.5" font-family="Helvetica,sans-Serif" font-size="10.00">/robotology/wb&#45;toolbox</text>
<text text-anchor="middle" x="1106" y="-13.5" font-family="Helvetica,sans-Serif" font-size="10.00">/toolbox/library/src/Jacobian.cpp</text>
</a>
</g>
</g>
<!-- Node1&#45;&gt;Node8 -->
<g id="edge7" class="edge"><title>Node1&#45;&gt;Node8</title>
<path fill="none" stroke="midnightblue" d="M1163.49,-83.5943C1150.97,-71.4868 1137.14,-58.118 1126.19,-47.5249"/>
<polygon fill="midnightblue" stroke="midnightblue" points="1161.06,-86.1111 1170.68,-90.5468 1165.92,-81.0791 1161.06,-86.1111"/>
</g>
<!-- Node9 -->
<g id="node9" class="node"><title>Node9</title>
<g id="a_node9"><a xlink:href="_mass_matrix_8cpp.html" target="_top" xlink:title="/home/travis/build\l/robotology/wb&#45;toolbox\l/toolbox/library/src/MassMatrix.cpp">
<polygon fill="none" stroke="black" points="1203,-6.5 1203,-47.5 1373,-47.5 1373,-6.5 1203,-6.5"/>
<text text-anchor="start" x="1211" y="-35.5" font-family="Helvetica,sans-Serif" font-size="10.00">/home/travis/build</text>
<text text-anchor="start" x="1211" y="-24.5" font-family="Helvetica,sans-Serif" font-size="10.00">/robotology/wb&#45;toolbox</text>
<text text-anchor="middle" x="1288" y="-13.5" font-family="Helvetica,sans-Serif" font-size="10.00">/toolbox/library/src/MassMatrix.cpp</text>
</a>
</g>
</g>
<!-- Node1&#45;&gt;Node9 -->
<g id="edge8" class="edge"><title>Node1&#45;&gt;Node9</title>
<path fill="none" stroke="midnightblue" d="M1230.51,-83.5943C1243.03,-71.4868 1256.86,-58.118 1267.81,-47.5249"/>
<polygon fill="midnightblue" stroke="midnightblue" points="1228.08,-81.0791 1223.32,-90.5468 1232.94,-86.1111 1228.08,-81.0791"/>
</g>
<!-- Node10 -->
<g id="node10" class="node"><title>Node10</title>
<g id="a_node10"><a xlink:href="_relative_transform_8cpp.html" target="_top" xlink:title="/home/travis/build\l/robotology/wb&#45;toolbox\l/toolbox/library/src/Relative\lTransform.cpp">
<polygon fill="none" stroke="black" points="1391,-1 1391,-53 1527,-53 1527,-1 1391,-1"/>
<text text-anchor="start" x="1399" y="-41" font-family="Helvetica,sans-Serif" font-size="10.00">/home/travis/build</text>
<text text-anchor="start" x="1399" y="-30" font-family="Helvetica,sans-Serif" font-size="10.00">/robotology/wb&#45;toolbox</text>
<text text-anchor="start" x="1399" y="-19" font-family="Helvetica,sans-Serif" font-size="10.00">/toolbox/library/src/Relative</text>
<text text-anchor="middle" x="1459" y="-8" font-family="Helvetica,sans-Serif" font-size="10.00">Transform.cpp</text>
</a>
</g>
</g>
<!-- Node1&#45;&gt;Node10 -->
<g id="edge9" class="edge"><title>Node1&#45;&gt;Node10</title>
<path fill="none" stroke="midnightblue" d="M1265.77,-92.9955C1300.6,-81.3315 1343.56,-66.9326 1382,-54 1384.94,-53.0103 1387.95,-51.9987 1390.98,-50.9762"/>
<polygon fill="midnightblue" stroke="midnightblue" points="1264.54,-89.7157 1256.17,-96.2094 1266.76,-96.3535 1264.54,-89.7157"/>
</g>
<!-- Node11 -->
<g id="node11" class="node"><title>Node11</title>
<g id="a_node11"><a xlink:href="_robot_interface_8cpp.html" target="_top" xlink:title="/home/travis/build\l/robotology/wb&#45;toolbox\l/toolbox/library/src/RobotInterface.cpp">
<polygon fill="none" stroke="black" points="1545.5,-6.5 1545.5,-47.5 1728.5,-47.5 1728.5,-6.5 1545.5,-6.5"/>
<text text-anchor="start" x="1553.5" y="-35.5" font-family="Helvetica,sans-Serif" font-size="10.00">/home/travis/build</text>
<text text-anchor="start" x="1553.5" y="-24.5" font-family="Helvetica,sans-Serif" font-size="10.00">/robotology/wb&#45;toolbox</text>
<text text-anchor="middle" x="1637" y="-13.5" font-family="Helvetica,sans-Serif" font-size="10.00">/toolbox/library/src/RobotInterface.cpp</text>
</a>
</g>
</g>
<!-- Node1&#45;&gt;Node11 -->
<g id="edge10" class="edge"><title>Node1&#45;&gt;Node11</title>
<path fill="none" stroke="midnightblue" d="M1266.31,-104.807C1335.03,-93.3608 1443.18,-74.4083 1536,-54 1545.02,-52.0171 1554.45,-49.7923 1563.78,-47.5008"/>
<polygon fill="midnightblue" stroke="midnightblue" points="1265.34,-101.42 1256.05,-106.509 1266.48,-108.326 1265.34,-101.42"/>
</g>
<!-- Node12 -->
<g id="node12" class="node"><title>Node12</title>
<g id="a_node12"><a xlink:href="_set_motor_parameters_8cpp.html" target="_top" xlink:title="/home/travis/build\l/robotology/wb&#45;toolbox\l/toolbox/library/src/SetMotor\lParameters.cpp">
<polygon fill="none" stroke="black" points="1747,-1 1747,-53 1887,-53 1887,-1 1747,-1"/>
<text text-anchor="start" x="1755" y="-41" font-family="Helvetica,sans-Serif" font-size="10.00">/home/travis/build</text>
<text text-anchor="start" x="1755" y="-30" font-family="Helvetica,sans-Serif" font-size="10.00">/robotology/wb&#45;toolbox</text>
<text text-anchor="start" x="1755" y="-19" font-family="Helvetica,sans-Serif" font-size="10.00">/toolbox/library/src/SetMotor</text>
<text text-anchor="middle" x="1817" y="-8" font-family="Helvetica,sans-Serif" font-size="10.00">Parameters.cpp</text>
</a>
</g>
</g>
<!-- Node1&#45;&gt;Node12 -->
<g id="edge11" class="edge"><title>Node1&#45;&gt;Node12</title>
<path fill="none" stroke="midnightblue" d="M1266.37,-112.478C1369.86,-106.227 1570.35,-90.2651 1737,-54 1740.28,-53.2858 1743.62,-52.49 1746.98,-51.6331"/>
<polygon fill="midnightblue" stroke="midnightblue" points="1266.14,-108.985 1256.36,-113.07 1266.55,-115.973 1266.14,-108.985"/>
</g>
<!-- Node13 -->
<g id="node13" class="node"><title>Node13</title>
<g id="a_node13"><a xlink:href="_set_references_8cpp.html" target="_top" xlink:title="/home/travis/build\l/robotology/wb&#45;toolbox\l/toolbox/library/src/SetReferences.cpp">
<polygon fill="none" stroke="black" points="1905,-6.5 1905,-47.5 2089,-47.5 2089,-6.5 1905,-6.5"/>
<text text-anchor="start" x="1913" y="-35.5" font-family="Helvetica,sans-Serif" font-size="10.00">/home/travis/build</text>
<text text-anchor="start" x="1913" y="-24.5" font-family="Helvetica,sans-Serif" font-size="10.00">/robotology/wb&#45;toolbox</text>
<text text-anchor="middle" x="1997" y="-13.5" font-family="Helvetica,sans-Serif" font-size="10.00">/toolbox/library/src/SetReferences.cpp</text>
</a>
</g>
</g>
<!-- Node1&#45;&gt;Node13 -->
<g id="edge12" class="edge"><title>Node1&#45;&gt;Node13</title>
<path fill="none" stroke="midnightblue" d="M1266.63,-113.593C1392.88,-108.395 1667.68,-93.242 1896,-54 1906.17,-52.2518 1916.82,-49.9931 1927.23,-47.5379"/>
<polygon fill="midnightblue" stroke="midnightblue" points="1266.19,-110.108 1256.34,-114.008 1266.47,-117.102 1266.19,-110.108"/>
</g>
<!-- Node14 -->
<g id="node14" class="node"><title>Node14</title>
<g id="a_node14"><a xlink:href="_w_b_block_8cpp.html" target="_top" xlink:title="/home/travis/build\l/robotology/wb&#45;toolbox\l/toolbox/library/src/WBBlock.cpp">
<polygon fill="none" stroke="black" points="2107,-6.5 2107,-47.5 2267,-47.5 2267,-6.5 2107,-6.5"/>
<text text-anchor="start" x="2115" y="-35.5" font-family="Helvetica,sans-Serif" font-size="10.00">/home/travis/build</text>
<text text-anchor="start" x="2115" y="-24.5" font-family="Helvetica,sans-Serif" font-size="10.00">/robotology/wb&#45;toolbox</text>
<text text-anchor="middle" x="2187" y="-13.5" font-family="Helvetica,sans-Serif" font-size="10.00">/toolbox/library/src/WBBlock.cpp</text>
</a>
</g>
</g>
<!-- Node1&#45;&gt;Node14 -->
<g id="edge13" class="edge"><title>Node1&#45;&gt;Node14</title>
<path fill="none" stroke="midnightblue" d="M1266.15,-116.292C1417.96,-115.834 1791.31,-108.688 2098,-54 2107.35,-52.3327 2117.12,-50.053 2126.61,-47.5316"/>
<polygon fill="midnightblue" stroke="midnightblue" points="1266.03,-112.792 1256.04,-116.314 1266.05,-119.792 1266.03,-112.792"/>
</g>
<!-- Node15 -->
<g id="node15" class="node"><title>Node15</title>
<g id="a_node15"><a xlink:href="_whole_body_singleton_8cpp.html" target="_top" xlink:title="/home/travis/build\l/robotology/wb&#45;toolbox\l/toolbox/library/src/WholeBody\lSingleton.cpp">
<polygon fill="none" stroke="black" points="2285,-1 2285,-53 2435,-53 2435,-1 2285,-1"/>
<text text-anchor="start" x="2293" y="-41" font-family="Helvetica,sans-Serif" font-size="10.00">/home/travis/build</text>
<text text-anchor="start" x="2293" y="-30" font-family="Helvetica,sans-Serif" font-size="10.00">/robotology/wb&#45;toolbox</text>
<text text-anchor="start" x="2293" y="-19" font-family="Helvetica,sans-Serif" font-size="10.00">/toolbox/library/src/WholeBody</text>
<text text-anchor="middle" x="2360" y="-8" font-family="Helvetica,sans-Serif" font-size="10.00">Singleton.cpp</text>
</a>
</g>
</g>
<!-- Node1&#45;&gt;Node15 -->
<g id="edge14" class="edge"><title>Node1&#45;&gt;Node15</title>
<path fill="none" stroke="midnightblue" d="M1266.34,-114.214C1472.74,-108.551 2080.92,-89.2544 2276,-54 2278.85,-53.4842 2281.75,-52.9017 2284.66,-52.2653"/>
<polygon fill="midnightblue" stroke="midnightblue" points="1266.13,-110.719 1256.23,-114.49 1266.32,-117.716 1266.13,-110.719"/>
</g>
</g>
</svg>
        <g id="navigator" transform="translate(0 0)" fill="#404254">
                <rect fill="#f2f5e9" fill-opacity="0.5" stroke="#606060" stroke-width=".5" x="0" y="0" width="60" height="60"/>
                <use id="zoomplus" xlink:href="#zoomPlus" x="17" y="9" onmousedown="handleZoom(evt,'in')"/>
                <use id="zoomminus" xlink:href="#zoomMin" x="42" y="9" onmousedown="handleZoom(evt,'out')"/>
                <use id="reset" xlink:href="#resetDef" x="30" y="36" onmousedown="handleReset()"/>
                <g id="arrowUp" xlink:href="#dirArrow" transform="translate(30 24)" onmousedown="handlePan(0,-1)">
                  <use xlink:href="#rim" fill="#404040">
                        <set attributeName="fill" to="#808080" begin="arrowUp.mouseover" end="arrowUp.mouseout"/>
                  </use>
                  <path fill="none" stroke="white" stroke-width="1.5" d="M0,-3.0v7 M-2.5,-0.5L0,-3.0L2.5,-0.5"/>
                </g>
                <g id="arrowRight" xlink:href="#dirArrow" transform="rotate(90) translate(36 -43)" onmousedown="handlePan(1,0)">
                  <use xlink:href="#rim" fill="#404040">
                        <set attributeName="fill" to="#808080" begin="arrowRight.mouseover" end="arrowRight.mouseout"/>
                  </use>
                  <path fill="none" stroke="white" stroke-width="1.5" d="M0,-3.0v7 M-2.5,-0.5L0,-3.0L2.5,-0.5"/>
                </g>
                <g id="arrowDown" xlink:href="#dirArrow" transform="rotate(180) translate(-30 -48)" onmousedown="handlePan(0,1)">
                  <use xlink:href="#rim" fill="#404040">
                        <set attributeName="fill" to="#808080" begin="arrowDown.mouseover" end="arrowDown.mouseout"/>
                  </use>
                  <path fill="none" stroke="white" stroke-width="1.5" d="M0,-3.0v7 M-2.5,-0.5L0,-3.0L2.5,-0.5"/>
                </g>
                <g id="arrowLeft" xlink:href="#dirArrow" transform="rotate(270) translate(-36 17)" onmousedown="handlePan(-1,0)">
                  <use xlink:href="#rim" fill="#404040">
                        <set attributeName="fill" to="#808080" begin="arrowLeft.mouseover" end="arrowLeft.mouseout"/>
                  </use>
                  <path fill="none" stroke="white" stroke-width="1.5" d="M0,-3.0v7 M-2.5,-0.5L0,-3.0L2.5,-0.5"/>
                </g>
        </g>
        <svg viewBox="0 0 15 15" width="100%" height="30px" preserveAspectRatio="xMaxYMin meet">
         <g id="arrow_out" transform="scale(0.3 0.3)">
          <a xlink:href="_robot_interface_8h__dep__incl_org.svg" target="_base">
           <rect id="button" ry="5" rx="5" y="6" x="6" height="38" width="38"
                fill="#f2f5e9" fill-opacity="0.5" stroke="#606060" stroke-width="1.0"/>
           <path id="arrow"
             d="M 11.500037,31.436501 C 11.940474,20.09759 22.043105,11.32322 32.158766,21.979434 L 37.068811,17.246167 C 37.068811,17.246167 37.088388,32 37.088388,32 L 22.160133,31.978069 C 22.160133,31.978069 26.997745,27.140456 26.997745,27.140456 C 18.528582,18.264221 13.291696,25.230495 11.500037,31.436501 z"
             style="fill:#404040;"/>
          </a>
         </g>
        </svg>
</svg>
