<?xml version="1.0" encoding="UTF-8" standalone="no"?>
<!DOCTYPE svg PUBLIC "-//W3C//DTD SVG 1.1//EN"
 "http://www.w3.org/Graphics/SVG/1.1/DTD/svg11.dtd">
<!-- Generated by graphviz version 2.43.0 (0)
 -->
<!-- Title: /home/runner/work/wb&#45;toolbox/wb&#45;toolbox/toolbox/library/src/SetMotorParameters.cpp Pages: 1 -->
<!--zoomable 229 -->
<svg id="main" version="1.1" xmlns="http://www.w3.org/2000/svg" xmlns:xlink="http://www.w3.org/1999/xlink" xml:space="preserve" onload="init(evt)">
<style type="text/css"><![CDATA[
.edge:hover path { stroke: red; }
.edge:hover polygon { stroke: red; fill: red; }
]]></style>
<script type="text/javascript"><![CDATA[
var edges = document.getElementsByTagName('g');
if (edges && edges.length) {
  for (var i=0;i<edges.length;i++) {
    if (edges[i].id.substr(0,4)=='edge') {
      edges[i].setAttribute('class','edge');
    }
  }
}
]]></script>
        <defs>
                <circle id="rim" cx="0" cy="0" r="7"/>
                <circle id="rim2" cx="0" cy="0" r="3.5"/>
                <g id="zoomPlus">
                        <use xlink:href="#rim" fill="#404040">
                                <set attributeName="fill" to="#808080" begin="zoomplus.mouseover" end="zoomplus.mouseout"/>
                        </use>
                        <path d="M-4,0h8M0,-4v8" fill="none" stroke="white" stroke-width="1.5" pointer-events="none"/>
                </g>
                <g id="zoomMin">
                        <use xlink:href="#rim" fill="#404040">
                                <set attributeName="fill" to="#808080" begin="zoomminus.mouseover" end="zoomminus.mouseout"/>
                        </use>
                        <path d="M-4,0h8" fill="none" stroke="white" stroke-width="1.5" pointer-events="none"/>
                </g>
                <g id="dirArrow">
                        <path fill="none" stroke="white" stroke-width="1.5" d="M0,-3.0v7 M-2.5,-0.5L0,-3.0L2.5,-0.5"/>
                </g>
               <g id="resetDef">
                       <use xlink:href="#rim2" fill="#404040">
                               <set attributeName="fill" to="#808080" begin="reset.mouseover" end="reset.mouseout"/>
                       </use>
               </g>
        </defs>

<script type="text/javascript">
var viewWidth = 2269;
var viewHeight = 229;
var sectionId = 'dynsection-0';
</script>
<script xlink:href="svgpan.js"/>
<svg id="graph" class="graph">
<g id="viewport">
<title>/home/runner/work/wb&#45;toolbox/wb&#45;toolbox/toolbox/library/src/SetMotorParameters.cpp</title>
<!-- Node1 -->
<g id="node1" class="node">
<title>Node1</title>
<g id="a_node1"><a xlink:title=" ">
<polygon fill="#bfbfbf" stroke="black" points="1029.47,-179.5 1029.47,-220.5 1220.47,-220.5 1220.47,-179.5 1029.47,-179.5"/>
<text text-anchor="start" x="1037.47" y="-208.5" font-family="Helvetica,sans-Serif" font-size="10.00">/home/runner/work/wb</text>
<text text-anchor="start" x="1037.47" y="-197.5" font-family="Helvetica,sans-Serif" font-size="10.00">&#45;toolbox/wb&#45;toolbox/toolbox</text>
<text text-anchor="middle" x="1124.97" y="-186.5" font-family="Helvetica,sans-Serif" font-size="10.00">/library/src/SetMotorParameters.cpp</text>
</a>
</g>
</g>
<!-- Node2 -->
<g id="node2" class="node">
<title>Node2</title>
<g id="a_node2"><a xlink:href="_set_motor_parameters_8h.html" target="_top" xlink:title=" ">
<polygon fill="none" stroke="black" points="35.97,-112.5 35.97,-142.5 183.97,-142.5 183.97,-112.5 35.97,-112.5"/>
<text text-anchor="start" x="43.97" y="-130.5" font-family="Helvetica,sans-Serif" font-size="10.00">WBToolbox/Block/SetMotor</text>
<text text-anchor="middle" x="109.97" y="-119.5" font-family="Helvetica,sans-Serif" font-size="10.00">Parameters.h</text>
</a>
</g>
</g>
<!-- Node1&#45;&gt;Node2 -->
<g id="edge1" class="edge">
<title>Node1&#45;&gt;Node2</title>
<path fill="none" stroke="midnightblue" d="M1029.4,-196.82C862.06,-192.21 505.03,-178.9 194.23,-143.06"/>
<polygon fill="midnightblue" stroke="midnightblue" points="194.46,-139.56 184.12,-141.88 193.65,-146.51 194.46,-139.56"/>
</g>
<!-- Node6 -->
<g id="node6" class="node">
<title>Node6</title>
<g id="a_node6"><a xlink:title=" ">
<polygon fill="none" stroke="#bfbfbf" points="0.97,-0.5 0.97,-19.5 44.97,-19.5 44.97,-0.5 0.97,-0.5"/>
<text text-anchor="middle" x="22.97" y="-7.5" font-family="Helvetica,sans-Serif" font-size="10.00">string</text>
</a>
</g>
</g>
<!-- Node1&#45;&gt;Node6 -->
<g id="edge29" class="edge">
<title>Node1&#45;&gt;Node6</title>
<path fill="none" stroke="midnightblue" d="M1029.21,-197.04C769.14,-191.33 66.48,-173.18 26.97,-143 -4.73,-118.79 -2.57,-95.16 4.97,-56 6.76,-46.7 10.45,-36.89 14.03,-28.8"/>
<polygon fill="midnightblue" stroke="midnightblue" points="17.24,-30.2 18.35,-19.66 10.91,-27.21 17.24,-30.2"/>
</g>
<!-- Node7 -->
<g id="node7" class="node">
<title>Node7</title>
<g id="a_node7"><a xlink:href="_configuration_8h.html" target="_top" xlink:title=" ">
<polygon fill="none" stroke="black" points="440.47,-118 440.47,-137 615.47,-137 615.47,-118 440.47,-118"/>
<text text-anchor="middle" x="527.97" y="-125" font-family="Helvetica,sans-Serif" font-size="10.00">WBToolbox/Base/Configuration.h</text>
</a>
</g>
</g>
<!-- Node1&#45;&gt;Node7 -->
<g id="edge8" class="edge">
<title>Node1&#45;&gt;Node7</title>
<path fill="none" stroke="midnightblue" d="M1029.05,-188.97C929.26,-178.34 768.52,-160.68 629.97,-143 618.92,-141.59 607.22,-140.01 595.82,-138.42"/>
<polygon fill="midnightblue" stroke="midnightblue" points="596.31,-134.96 585.92,-137.03 595.33,-141.89 596.31,-134.96"/>
</g>
<!-- Node9 -->
<g id="node9" class="node">
<title>Node9</title>
<g id="a_node9"><a xlink:title=" ">
<polygon fill="none" stroke="#bfbfbf" points="618.47,-56.5 618.47,-75.5 665.47,-75.5 665.47,-56.5 618.47,-56.5"/>
<text text-anchor="middle" x="641.97" y="-63.5" font-family="Helvetica,sans-Serif" font-size="10.00">vector</text>
</a>
</g>
</g>
<!-- Node1&#45;&gt;Node9 -->
<g id="edge31" class="edge">
<title>Node1&#45;&gt;Node9</title>
<path fill="none" stroke="midnightblue" d="M1029.27,-199.56C910.25,-198.24 716.2,-188.83 662.97,-143 646.63,-128.93 642.45,-103.41 641.65,-85.85"/>
<polygon fill="midnightblue" stroke="midnightblue" points="645.14,-85.61 641.52,-75.66 638.15,-85.7 645.14,-85.61"/>
</g>
<!-- Node10 -->
<g id="node10" class="node">
<title>Node10</title>
<g id="a_node10"><a xlink:href="_robot_interface_8h.html" target="_top" xlink:title=" ">
<polygon fill="none" stroke="black" points="201.97,-118 201.97,-137 383.97,-137 383.97,-118 201.97,-118"/>
<text text-anchor="middle" x="292.97" y="-125" font-family="Helvetica,sans-Serif" font-size="10.00">WBToolbox/Base/RobotInterface.h</text>
</a>
</g>
</g>
<!-- Node1&#45;&gt;Node10 -->
<g id="edge13" class="edge">
<title>Node1&#45;&gt;Node10</title>
<path fill="none" stroke="midnightblue" d="M1029.24,-193.47C890.05,-185.02 623.74,-167.26 397.97,-143 385.7,-141.68 372.65,-140.06 360.07,-138.38"/>
<polygon fill="midnightblue" stroke="midnightblue" points="360.49,-134.91 350.11,-137.03 359.55,-141.84 360.49,-134.91"/>
</g>
<!-- Node11 -->
<g id="node11" class="node">
<title>Node11</title>
<g id="a_node11"><a xlink:title=" ">
<polygon fill="none" stroke="#bfbfbf" points="367.47,-56.5 367.47,-75.5 460.47,-75.5 460.47,-56.5 367.47,-56.5"/>
<text text-anchor="middle" x="413.97" y="-63.5" font-family="Helvetica,sans-Serif" font-size="10.00">unordered_map</text>
</a>
</g>
</g>
<!-- Node1&#45;&gt;Node11 -->
<g id="edge30" class="edge">
<title>Node1&#45;&gt;Node11</title>
<path fill="none" stroke="midnightblue" d="M1029.14,-197.42C849.53,-193.57 476.27,-181.04 431.97,-143 415.77,-129.09 412.69,-103.53 412.72,-85.92"/>
<polygon fill="midnightblue" stroke="midnightblue" points="416.22,-85.81 413.08,-75.7 409.23,-85.57 416.22,-85.81"/>
</g>
<!-- Node13 -->
<g id="node13" class="node">
<title>Node13</title>
<g id="a_node13"><a xlink:title=" ">
<polygon fill="none" stroke="#bfbfbf" points="671.97,-118 671.97,-137 871.97,-137 871.97,-118 671.97,-118"/>
<text text-anchor="middle" x="771.97" y="-125" font-family="Helvetica,sans-Serif" font-size="10.00">BlockFactory/Core/BlockInformation.h</text>
</a>
</g>
</g>
<!-- Node1&#45;&gt;Node13 -->
<g id="edge18" class="edge">
<title>Node1&#45;&gt;Node13</title>
<path fill="none" stroke="midnightblue" d="M1029.44,-179.92C963.65,-166.78 878.69,-149.81 824.74,-139.04"/>
<polygon fill="midnightblue" stroke="midnightblue" points="825.21,-135.56 814.72,-137.04 823.84,-142.43 825.21,-135.56"/>
</g>
<!-- Node14 -->
<g id="node14" class="node">
<title>Node14</title>
<g id="a_node14"><a xlink:title=" ">
<polygon fill="none" stroke="#bfbfbf" points="889.97,-118 889.97,-137 1023.97,-137 1023.97,-118 889.97,-118"/>
<text text-anchor="middle" x="956.97" y="-125" font-family="Helvetica,sans-Serif" font-size="10.00">BlockFactory/Core/Log.h</text>
</a>
</g>
</g>
<!-- Node1&#45;&gt;Node14 -->
<g id="edge19" class="edge">
<title>Node1&#45;&gt;Node14</title>
<path fill="none" stroke="midnightblue" d="M1078.17,-179.36C1049.03,-167.13 1012.4,-151.76 987.08,-141.14"/>
<polygon fill="midnightblue" stroke="midnightblue" points="988.21,-137.82 977.64,-137.17 985.5,-144.27 988.21,-137.82"/>
</g>
<!-- Node15 -->
<g id="node15" class="node">
<title>Node15</title>
<g id="a_node15"><a xlink:title=" ">
<polygon fill="none" stroke="#bfbfbf" points="1041.97,-118 1041.97,-137 1207.97,-137 1207.97,-118 1041.97,-118"/>
<text text-anchor="middle" x="1124.97" y="-125" font-family="Helvetica,sans-Serif" font-size="10.00">BlockFactory/Core/Parameter.h</text>
</a>
</g>
</g>
<!-- Node1&#45;&gt;Node15 -->
<g id="edge20" class="edge">
<title>Node1&#45;&gt;Node15</title>
<path fill="none" stroke="midnightblue" d="M1124.97,-179.36C1124.97,-169.3 1124.97,-157.1 1124.97,-147.18"/>
<polygon fill="midnightblue" stroke="midnightblue" points="1128.47,-147.17 1124.97,-137.17 1121.47,-147.17 1128.47,-147.17"/>
</g>
<!-- Node16 -->
<g id="node16" class="node">
<title>Node16</title>
<g id="a_node16"><a xlink:title=" ">
<polygon fill="none" stroke="#bfbfbf" points="1225.97,-118 1225.97,-137 1397.97,-137 1397.97,-118 1225.97,-118"/>
<text text-anchor="middle" x="1311.97" y="-125" font-family="Helvetica,sans-Serif" font-size="10.00">BlockFactory/Core/Parameters.h</text>
</a>
</g>
</g>
<!-- Node1&#45;&gt;Node16 -->
<g id="edge21" class="edge">
<title>Node1&#45;&gt;Node16</title>
<path fill="none" stroke="midnightblue" d="M1177.06,-179.36C1209.93,-166.97 1251.35,-151.35 1279.57,-140.72"/>
<polygon fill="midnightblue" stroke="midnightblue" points="1280.84,-143.98 1288.96,-137.17 1278.37,-137.43 1280.84,-143.98"/>
</g>
<!-- Node17 -->
<g id="node17" class="node">
<title>Node17</title>
<g id="a_node17"><a xlink:title=" ">
<polygon fill="none" stroke="#bfbfbf" points="1415.97,-118 1415.97,-137 1561.97,-137 1561.97,-118 1415.97,-118"/>
<text text-anchor="middle" x="1488.97" y="-125" font-family="Helvetica,sans-Serif" font-size="10.00">BlockFactory/Core/Signal.h</text>
</a>
</g>
</g>
<!-- Node1&#45;&gt;Node17 -->
<g id="edge22" class="edge">
<title>Node1&#45;&gt;Node17</title>
<path fill="none" stroke="midnightblue" d="M1220.61,-180.48C1288.82,-167.27 1378.1,-149.97 1434.52,-139.05"/>
<polygon fill="midnightblue" stroke="midnightblue" points="1435.5,-142.42 1444.65,-137.08 1434.17,-135.55 1435.5,-142.42"/>
</g>
<!-- Node18 -->
<g id="node18" class="node">
<title>Node18</title>
<g id="a_node18"><a xlink:title=" ">
<polygon fill="none" stroke="#bfbfbf" points="1579.97,-118 1579.97,-137 1729.97,-137 1729.97,-118 1579.97,-118"/>
<text text-anchor="middle" x="1654.97" y="-125" font-family="Helvetica,sans-Serif" font-size="10.00">yarp/dev/ControlBoardPid.h</text>
</a>
</g>
</g>
<!-- Node1&#45;&gt;Node18 -->
<g id="edge23" class="edge">
<title>Node1&#45;&gt;Node18</title>
<path fill="none" stroke="midnightblue" d="M1220.84,-188.25C1311.28,-177.81 1450.56,-160.94 1570.97,-143 1579.69,-141.7 1588.9,-140.22 1597.9,-138.71"/>
<polygon fill="midnightblue" stroke="midnightblue" points="1598.66,-142.14 1607.94,-137.01 1597.49,-135.23 1598.66,-142.14"/>
</g>
<!-- Node19 -->
<g id="node19" class="node">
<title>Node19</title>
<g id="a_node19"><a xlink:title=" ">
<polygon fill="none" stroke="#bfbfbf" points="1747.47,-118 1747.47,-137 1872.47,-137 1872.47,-118 1747.47,-118"/>
<text text-anchor="middle" x="1809.97" y="-125" font-family="Helvetica,sans-Serif" font-size="10.00">yarp/dev/IPidControl.h</text>
</a>
</g>
</g>
<!-- Node1&#45;&gt;Node19 -->
<g id="edge24" class="edge">
<title>Node1&#45;&gt;Node19</title>
<path fill="none" stroke="midnightblue" d="M1220.55,-193.57C1341.64,-185.93 1556.56,-169.86 1738.97,-143 1746.5,-141.89 1754.43,-140.5 1762.16,-139.01"/>
<polygon fill="midnightblue" stroke="midnightblue" points="1763.03,-142.41 1772.15,-137.03 1761.66,-135.54 1763.03,-142.41"/>
</g>
<!-- Node20 -->
<g id="node20" class="node">
<title>Node20</title>
<g id="a_node20"><a xlink:title=" ">
<polygon fill="none" stroke="#bfbfbf" points="1890.97,-118 1890.97,-137 2032.97,-137 2032.97,-118 1890.97,-118"/>
<text text-anchor="middle" x="1961.97" y="-125" font-family="Helvetica,sans-Serif" font-size="10.00">yarp/dev/ITorqueControl.h</text>
</a>
</g>
</g>
<!-- Node1&#45;&gt;Node20 -->
<g id="edge25" class="edge">
<title>Node1&#45;&gt;Node20</title>
<path fill="none" stroke="midnightblue" d="M1220.59,-195.16C1364.52,-188.66 1645.19,-173.13 1881.97,-143 1891.02,-141.85 1900.6,-140.35 1909.86,-138.76"/>
<polygon fill="midnightblue" stroke="midnightblue" points="1910.51,-142.2 1919.75,-137.01 1909.29,-135.31 1910.51,-142.2"/>
</g>
<!-- Node21 -->
<g id="node21" class="node">
<title>Node21</title>
<g id="a_node21"><a xlink:title=" ">
<polygon fill="none" stroke="#bfbfbf" points="2050.97,-118 2050.97,-137 2114.97,-137 2114.97,-118 2050.97,-118"/>
<text text-anchor="middle" x="2082.97" y="-125" font-family="Helvetica,sans-Serif" font-size="10.00">algorithm</text>
</a>
</g>
</g>
<!-- Node1&#45;&gt;Node21 -->
<g id="edge26" class="edge">
<title>Node1&#45;&gt;Node21</title>
<path fill="none" stroke="midnightblue" d="M1220.64,-196.53C1422.71,-190.77 1887.13,-174.46 2041.97,-143 2045.48,-142.29 2049.1,-141.34 2052.66,-140.27"/>
<polygon fill="midnightblue" stroke="midnightblue" points="2054.04,-143.5 2062.43,-137.03 2051.84,-136.86 2054.04,-143.5"/>
</g>
<!-- Node22 -->
<g id="node22" class="node">
<title>Node22</title>
<g id="a_node22"><a xlink:title=" ">
<polygon fill="none" stroke="#bfbfbf" points="2133.47,-118 2133.47,-137 2186.47,-137 2186.47,-118 2133.47,-118"/>
<text text-anchor="middle" x="2159.97" y="-125" font-family="Helvetica,sans-Serif" font-size="10.00">iterator</text>
</a>
</g>
</g>
<!-- Node1&#45;&gt;Node22 -->
<g id="edge27" class="edge">
<title>Node1&#45;&gt;Node22</title>
<path fill="none" stroke="midnightblue" d="M1220.7,-197.6C1436.19,-193.82 1953.79,-180.96 2123.97,-143 2126.81,-142.37 2129.71,-141.54 2132.57,-140.59"/>
<polygon fill="midnightblue" stroke="midnightblue" points="2133.88,-143.84 2142.02,-137.07 2131.43,-137.28 2133.88,-143.84"/>
</g>
<!-- Node23 -->
<g id="node23" class="node">
<title>Node23</title>
<g id="a_node23"><a xlink:title=" ">
<polygon fill="none" stroke="#bfbfbf" points="2204.47,-118 2204.47,-137 2261.47,-137 2261.47,-118 2204.47,-118"/>
<text text-anchor="middle" x="2232.97" y="-125" font-family="Helvetica,sans-Serif" font-size="10.00">ostream</text>
</a>
</g>
</g>
<!-- Node1&#45;&gt;Node23 -->
<g id="edge28" class="edge">
<title>Node1&#45;&gt;Node23</title>
<path fill="none" stroke="midnightblue" d="M1220.76,-197.92C1447.43,-194.72 2011.48,-182.88 2195.97,-143 2198.97,-142.35 2202.05,-141.49 2205.09,-140.51"/>
<polygon fill="midnightblue" stroke="midnightblue" points="2206.31,-143.79 2214.51,-137.08 2203.91,-137.21 2206.31,-143.79"/>
</g>
<!-- Node3 -->
<g id="node3" class="node">
<title>Node3</title>
<g id="a_node3"><a xlink:href="_w_b_block_8h.html" target="_top" xlink:title=" ">
<polygon fill="none" stroke="black" points="55.47,-56.5 55.47,-75.5 208.47,-75.5 208.47,-56.5 55.47,-56.5"/>
<text text-anchor="middle" x="131.97" y="-63.5" font-family="Helvetica,sans-Serif" font-size="10.00">WBToolbox/Base/WBBlock.h</text>
</a>
</g>
</g>
<!-- Node2&#45;&gt;Node3 -->
<g id="edge2" class="edge">
<title>Node2&#45;&gt;Node3</title>
<path fill="none" stroke="midnightblue" d="M115.18,-112.4C118.18,-104.29 121.98,-94.01 125.21,-85.28"/>
<polygon fill="midnightblue" stroke="midnightblue" points="128.58,-86.25 128.77,-75.66 122.02,-83.82 128.58,-86.25"/>
</g>
<!-- Node5 -->
<g id="node5" class="node">
<title>Node5</title>
<g id="a_node5"><a xlink:title=" ">
<polygon fill="none" stroke="#bfbfbf" points="268.97,-0.5 268.97,-19.5 326.97,-19.5 326.97,-0.5 268.97,-0.5"/>
<text text-anchor="middle" x="297.97" y="-7.5" font-family="Helvetica,sans-Serif" font-size="10.00">memory</text>
</a>
</g>
</g>
<!-- Node2&#45;&gt;Node5 -->
<g id="edge6" class="edge">
<title>Node2&#45;&gt;Node5</title>
<path fill="none" stroke="midnightblue" d="M145.27,-112.34C166.67,-103.15 194.15,-90.26 216.97,-76 240.45,-61.33 264.91,-40.87 280.72,-26.84"/>
<polygon fill="midnightblue" stroke="midnightblue" points="283.46,-29.08 288.55,-19.79 278.78,-23.88 283.46,-29.08"/>
</g>
<!-- Node2&#45;&gt;Node6 -->
<g id="edge7" class="edge">
<title>Node2&#45;&gt;Node6</title>
<path fill="none" stroke="midnightblue" d="M59.59,-112.42C41.66,-104.71 23.36,-93.12 12.97,-76 4.38,-61.84 8.73,-42.87 14.12,-29.07"/>
<polygon fill="midnightblue" stroke="midnightblue" points="17.42,-30.26 18.24,-19.7 11.01,-27.44 17.42,-30.26"/>
</g>
<!-- Node4 -->
<g id="node4" class="node">
<title>Node4</title>
<g id="a_node4"><a xlink:title=" ">
<polygon fill="none" stroke="#bfbfbf" points="63.47,-0.5 63.47,-19.5 206.47,-19.5 206.47,-0.5 63.47,-0.5"/>
<text text-anchor="middle" x="134.97" y="-7.5" font-family="Helvetica,sans-Serif" font-size="10.00">BlockFactory/Core/Block.h</text>
</a>
</g>
</g>
<!-- Node3&#45;&gt;Node4 -->
<g id="edge3" class="edge">
<title>Node3&#45;&gt;Node4</title>
<path fill="none" stroke="midnightblue" d="M132.46,-56.08C132.86,-49.01 133.42,-38.86 133.91,-29.99"/>
<polygon fill="midnightblue" stroke="midnightblue" points="137.42,-29.93 134.48,-19.75 130.43,-29.54 137.42,-29.93"/>
</g>
<!-- Node3&#45;&gt;Node5 -->
<g id="edge4" class="edge">
<title>Node3&#45;&gt;Node5</title>
<path fill="none" stroke="midnightblue" d="M158.27,-56.44C186.32,-47.32 230.91,-32.81 262.15,-22.65"/>
<polygon fill="midnightblue" stroke="midnightblue" points="263.36,-25.94 271.79,-19.52 261.2,-19.28 263.36,-25.94"/>
</g>
<!-- Node3&#45;&gt;Node6 -->
<g id="edge5" class="edge">
<title>Node3&#45;&gt;Node6</title>
<path fill="none" stroke="midnightblue" d="M114.46,-56.32C96.9,-47.62 69.64,-34.12 49.44,-24.11"/>
<polygon fill="midnightblue" stroke="midnightblue" points="50.95,-20.96 40.44,-19.65 47.85,-27.23 50.95,-20.96"/>
</g>
<!-- Node7&#45;&gt;Node5 -->
<g id="edge10" class="edge">
<title>Node7&#45;&gt;Node5</title>
<path fill="none" stroke="midnightblue" d="M527.49,-117.64C526.18,-102.6 521.27,-72.15 502.97,-56 478.7,-34.58 389.39,-21.22 337,-15.05"/>
<polygon fill="midnightblue" stroke="midnightblue" points="337.37,-11.57 327.04,-13.91 336.58,-18.52 337.37,-11.57"/>
</g>
<!-- Node7&#45;&gt;Node6 -->
<g id="edge11" class="edge">
<title>Node7&#45;&gt;Node6</title>
<path fill="none" stroke="midnightblue" d="M523.59,-117.65C515.34,-102.06 495.86,-70.01 468.97,-56 389.52,-14.61 160.39,-35.52 55.27,-19.72"/>
<polygon fill="midnightblue" stroke="midnightblue" points="55.64,-16.23 45.19,-18.02 54.47,-23.14 55.64,-16.23"/>
</g>
<!-- Node8 -->
<g id="node8" class="node">
<title>Node8</title>
<g id="a_node8"><a xlink:title=" ">
<polygon fill="none" stroke="#bfbfbf" points="554.97,-56.5 554.97,-75.5 596.97,-75.5 596.97,-56.5 554.97,-56.5"/>
<text text-anchor="middle" x="575.97" y="-63.5" font-family="Helvetica,sans-Serif" font-size="10.00">array</text>
</a>
</g>
</g>
<!-- Node7&#45;&gt;Node8 -->
<g id="edge9" class="edge">
<title>Node7&#45;&gt;Node8</title>
<path fill="none" stroke="midnightblue" d="M534.85,-117.98C542.12,-108.96 553.76,-94.52 562.81,-83.31"/>
<polygon fill="midnightblue" stroke="midnightblue" points="565.55,-85.49 569.1,-75.51 560.1,-81.09 565.55,-85.49"/>
</g>
<!-- Node7&#45;&gt;Node9 -->
<g id="edge12" class="edge">
<title>Node7&#45;&gt;Node9</title>
<path fill="none" stroke="midnightblue" d="M544.3,-117.98C563.18,-108.12 594.48,-91.79 616.54,-80.27"/>
<polygon fill="midnightblue" stroke="midnightblue" points="618.42,-83.24 625.67,-75.51 615.18,-77.03 618.42,-83.24"/>
</g>
<!-- Node10&#45;&gt;Node5 -->
<g id="edge14" class="edge">
<title>Node10&#45;&gt;Node5</title>
<path fill="none" stroke="midnightblue" d="M299.15,-117.71C305.56,-108.02 315.16,-91.72 318.97,-76 322.93,-59.65 316.05,-41.46 309.14,-28.5"/>
<polygon fill="midnightblue" stroke="midnightblue" points="312.07,-26.59 304.01,-19.71 306.03,-30.11 312.07,-26.59"/>
</g>
<!-- Node10&#45;&gt;Node6 -->
<g id="edge15" class="edge">
<title>Node10&#45;&gt;Node6</title>
<path fill="none" stroke="midnightblue" d="M236.71,-117.98C168.34,-107.18 60.27,-88.45 45.97,-76 32.59,-64.35 26.99,-44.4 24.65,-29.67"/>
<polygon fill="midnightblue" stroke="midnightblue" points="28.11,-29.14 23.42,-19.64 21.16,-30 28.11,-29.14"/>
</g>
<!-- Node10&#45;&gt;Node11 -->
<g id="edge16" class="edge">
<title>Node10&#45;&gt;Node11</title>
<path fill="none" stroke="midnightblue" d="M310.31,-117.98C330.52,-108.03 364.16,-91.49 387.61,-79.96"/>
<polygon fill="midnightblue" stroke="midnightblue" points="389.24,-83.06 396.66,-75.51 386.15,-76.78 389.24,-83.06"/>
</g>
<!-- Node12 -->
<g id="node12" class="node">
<title>Node12</title>
<g id="a_node12"><a xlink:title=" ">
<polygon fill="none" stroke="#bfbfbf" points="265.47,-56.5 265.47,-75.5 310.47,-75.5 310.47,-56.5 265.47,-56.5"/>
<text text-anchor="middle" x="287.97" y="-63.5" font-family="Helvetica,sans-Serif" font-size="10.00">utility</text>
</a>
</g>
</g>
<!-- Node10&#45;&gt;Node12 -->
<g id="edge17" class="edge">
<title>Node10&#45;&gt;Node12</title>
<path fill="none" stroke="midnightblue" d="M292.25,-117.98C291.55,-109.58 290.45,-96.48 289.54,-85.66"/>
<polygon fill="midnightblue" stroke="midnightblue" points="293.01,-85.18 288.68,-75.51 286.03,-85.77 293.01,-85.18"/>
</g>
</g>
</svg>
        <g id="navigator" transform="translate(0 0)" fill="#404254">
                <rect fill="#f2f5e9" fill-opacity="0.5" stroke="#606060" stroke-width=".5" x="0" y="0" width="60" height="60"/>
                <use id="zoomplus" xlink:href="#zoomPlus" x="17" y="9" onmousedown="handleZoom(evt,'in')"/>
                <use id="zoomminus" xlink:href="#zoomMin" x="42" y="9" onmousedown="handleZoom(evt,'out')"/>
                <use id="reset" xlink:href="#resetDef" x="30" y="36" onmousedown="handleReset()"/>
                <g id="arrowUp" xlink:href="#dirArrow" transform="translate(30 24)" onmousedown="handlePan(0,-1)">
                  <use xlink:href="#rim" fill="#404040">
                        <set attributeName="fill" to="#808080" begin="arrowUp.mouseover" end="arrowUp.mouseout"/>
                  </use>
                  <path fill="none" stroke="white" stroke-width="1.5" d="M0,-3.0v7 M-2.5,-0.5L0,-3.0L2.5,-0.5"/>
                </g>
                <g id="arrowRight" xlink:href="#dirArrow" transform="rotate(90) translate(36 -43)" onmousedown="handlePan(1,0)">
                  <use xlink:href="#rim" fill="#404040">
                        <set attributeName="fill" to="#808080" begin="arrowRight.mouseover" end="arrowRight.mouseout"/>
                  </use>
                  <path fill="none" stroke="white" stroke-width="1.5" d="M0,-3.0v7 M-2.5,-0.5L0,-3.0L2.5,-0.5"/>
                </g>
                <g id="arrowDown" xlink:href="#dirArrow" transform="rotate(180) translate(-30 -48)" onmousedown="handlePan(0,1)">
                  <use xlink:href="#rim" fill="#404040">
                        <set attributeName="fill" to="#808080" begin="arrowDown.mouseover" end="arrowDown.mouseout"/>
                  </use>
                  <path fill="none" stroke="white" stroke-width="1.5" d="M0,-3.0v7 M-2.5,-0.5L0,-3.0L2.5,-0.5"/>
                </g>
                <g id="arrowLeft" xlink:href="#dirArrow" transform="rotate(270) translate(-36 17)" onmousedown="handlePan(-1,0)">
                  <use xlink:href="#rim" fill="#404040">
                        <set attributeName="fill" to="#808080" begin="arrowLeft.mouseover" end="arrowLeft.mouseout"/>
                  </use>
                  <path fill="none" stroke="white" stroke-width="1.5" d="M0,-3.0v7 M-2.5,-0.5L0,-3.0L2.5,-0.5"/>
                </g>
        </g>
        <svg viewBox="0 0 15 15" width="100%" height="30px" preserveAspectRatio="xMaxYMin meet">
         <g id="arrow_out" transform="scale(0.3 0.3)">
          <a xlink:href="_set_motor_parameters_8cpp__incl_org.svg" target="_base">
           <rect id="button" ry="5" rx="5" y="6" x="6" height="38" width="38"
                fill="#f2f5e9" fill-opacity="0.5" stroke="#606060" stroke-width="1.0"/>
           <path id="arrow"
             d="M 11.500037,31.436501 C 11.940474,20.09759 22.043105,11.32322 32.158766,21.979434 L 37.068811,17.246167 C 37.068811,17.246167 37.088388,32 37.088388,32 L 22.160133,31.978069 C 22.160133,31.978069 26.997745,27.140456 26.997745,27.140456 C 18.528582,18.264221 13.291696,25.230495 11.500037,31.436501 z"
             style="fill:#404040;"/>
          </a>
         </g>
        </svg>
</svg>
