<?xml version="1.0" encoding="UTF-8" standalone="no"?>
<!DOCTYPE svg PUBLIC "-//W3C//DTD SVG 1.1//EN"
 "http://www.w3.org/Graphics/SVG/1.1/DTD/svg11.dtd">
<!-- Generated by graphviz version 2.43.0 (0)
 -->
<!-- Title: /home/runner/work/wb&#45;toolbox/wb&#45;toolbox/toolbox/library/include/WBToolbox/Block/SetReferences.h Pages: 1 -->
<svg width="344pt" height="139pt"
 viewBox="0.00 0.00 343.50 139.00" xmlns="http://www.w3.org/2000/svg" xmlns:xlink="http://www.w3.org/1999/xlink">
<g id="graph0" class="graph" transform="scale(1 1) rotate(0) translate(4 135)">
<title>/home/runner/work/wb&#45;toolbox/wb&#45;toolbox/toolbox/library/include/WBToolbox/Block/SetReferences.h</title>
<!-- Node1 -->
<g id="node1" class="node">
<title>Node1</title>
<g id="a_node1"><a xlink:title=" ">
<polygon fill="#bfbfbf" stroke="black" points="88,-78.5 88,-130.5 243,-130.5 243,-78.5 88,-78.5"/>
<text text-anchor="start" x="96" y="-118.5" font-family="Helvetica,sans-Serif" font-size="10.00">/home/runner/work/wb</text>
<text text-anchor="start" x="96" y="-107.5" font-family="Helvetica,sans-Serif" font-size="10.00">&#45;toolbox/wb&#45;toolbox/toolbox</text>
<text text-anchor="start" x="96" y="-96.5" font-family="Helvetica,sans-Serif" font-size="10.00">/library/include/WBToolbox</text>
<text text-anchor="middle" x="165.5" y="-85.5" font-family="Helvetica,sans-Serif" font-size="10.00">/Block/SetReferences.h</text>
</a>
</g>
</g>
<!-- Node2 -->
<g id="node2" class="node">
<title>Node2</title>
<g id="a_node2"><a xlink:href="_factory_8cpp.html" target="_top" xlink:title=" ">
<polygon fill="none" stroke="black" points="0,-0.5 0,-41.5 155,-41.5 155,-0.5 0,-0.5"/>
<text text-anchor="start" x="8" y="-29.5" font-family="Helvetica,sans-Serif" font-size="10.00">/home/runner/work/wb</text>
<text text-anchor="start" x="8" y="-18.5" font-family="Helvetica,sans-Serif" font-size="10.00">&#45;toolbox/wb&#45;toolbox/toolbox</text>
<text text-anchor="middle" x="77.5" y="-7.5" font-family="Helvetica,sans-Serif" font-size="10.00">/library/src/Factory.cpp</text>
</a>
</g>
</g>
<!-- Node1&#45;&gt;Node2 -->
<g id="edge1" class="edge">
<title>Node1&#45;&gt;Node2</title>
<path fill="none" stroke="midnightblue" d="M130.79,-71.36C119.95,-61.31 108.32,-50.54 98.69,-41.63"/>
<polygon fill="midnightblue" stroke="midnightblue" points="128.42,-73.93 138.14,-78.16 133.18,-68.8 128.42,-73.93"/>
</g>
<!-- Node3 -->
<g id="node3" class="node">
<title>Node3</title>
<g id="a_node3"><a xlink:href="_set_references_8cpp.html" target="_top" xlink:title=" ">
<polygon fill="none" stroke="black" points="173.5,-0.5 173.5,-41.5 335.5,-41.5 335.5,-0.5 173.5,-0.5"/>
<text text-anchor="start" x="181.5" y="-29.5" font-family="Helvetica,sans-Serif" font-size="10.00">/home/runner/work/wb</text>
<text text-anchor="start" x="181.5" y="-18.5" font-family="Helvetica,sans-Serif" font-size="10.00">&#45;toolbox/wb&#45;toolbox/toolbox</text>
<text text-anchor="middle" x="254.5" y="-7.5" font-family="Helvetica,sans-Serif" font-size="10.00">/library/src/SetReferences.cpp</text>
</a>
</g>
</g>
<!-- Node1&#45;&gt;Node3 -->
<g id="edge2" class="edge">
<title>Node1&#45;&gt;Node3</title>
<path fill="none" stroke="midnightblue" d="M200.6,-71.36C211.57,-61.31 223.33,-50.54 233.07,-41.63"/>
<polygon fill="midnightblue" stroke="midnightblue" points="198.18,-68.82 193.17,-78.16 202.91,-73.99 198.18,-68.82"/>
</g>
</g>
</svg>
