<?xml version="1.0" encoding="UTF-8" standalone="no"?>
<!DOCTYPE svg PUBLIC "-//W3C//DTD SVG 1.1//EN"
 "http://www.w3.org/Graphics/SVG/1.1/DTD/svg11.dtd">
<!-- Generated by graphviz version 2.38.0 (20140413.2041)
 -->
<!-- Title: /home/travis/build/robotology/wb&#45;toolbox/toolbox/library/src/SetReferences.cpp Pages: 1 -->
<!--zoomable 218 -->
<svg id="main" version="1.1" xmlns="http://www.w3.org/2000/svg" xmlns:xlink="http://www.w3.org/1999/xlink" xml:space="preserve" onload="init(evt)">
<style type="text/css"><![CDATA[
.edge:hover path { stroke: red; }
.edge:hover polygon { stroke: red; fill: red; }
]]></style>
<script type="text/javascript"><![CDATA[
var edges = document.getElementsByTagName('g');
if (edges && edges.length) {
  for (var i=0;i<edges.length;i++) {
    if (edges[i].id.substr(0,4)=='edge') {
      edges[i].setAttribute('class','edge');
    }
  }
}
]]></script>
        <defs>
                <circle id="rim" cx="0" cy="0" r="7"/>
                <circle id="rim2" cx="0" cy="0" r="3.5"/>
                <g id="zoomPlus">
                        <use xlink:href="#rim" fill="#404040">
                                <set attributeName="fill" to="#808080" begin="zoomplus.mouseover" end="zoomplus.mouseout"/>
                        </use>
                        <path d="M-4,0h8M0,-4v8" fill="none" stroke="white" stroke-width="1.5" pointer-events="none"/>
                </g>
                <g id="zoomMin">
                        <use xlink:href="#rim" fill="#404040">
                                <set attributeName="fill" to="#808080" begin="zoomminus.mouseover" end="zoomminus.mouseout"/>
                        </use>
                        <path d="M-4,0h8" fill="none" stroke="white" stroke-width="1.5" pointer-events="none"/>
                </g>
                <g id="dirArrow">
                        <path fill="none" stroke="white" stroke-width="1.5" d="M0,-3.0v7 M-2.5,-0.5L0,-3.0L2.5,-0.5"/>
                </g>
               <g id="resetDef">
                       <use xlink:href="#rim2" fill="#404040">
                               <set attributeName="fill" to="#808080" begin="reset.mouseover" end="reset.mouseout"/>
                       </use>
               </g>
        </defs>

<script type="text/javascript">
var viewWidth = 2835;
var viewHeight = 218;
var sectionId = 'dynsection-0';
</script>
<script xlink:href="svgpan.js"/>
<svg id="graph" class="graph">
<g id="viewport">
<title>/home/travis/build/robotology/wb&#45;toolbox/toolbox/library/src/SetReferences.cpp</title>
<!-- Node1 -->
<g id="node1" class="node"><title>Node1</title>
<polygon fill="#bfbfbf" stroke="black" points="1430.5,-168.5 1430.5,-209.5 1627.5,-209.5 1627.5,-168.5 1430.5,-168.5"/>
<text text-anchor="start" x="1438.5" y="-197.5" font-family="Helvetica,sans-Serif" font-size="10.00">/home/travis/build</text>
<text text-anchor="start" x="1438.5" y="-186.5" font-family="Helvetica,sans-Serif" font-size="10.00">/robotology/wb&#45;toolbox</text>
<text text-anchor="middle" x="1529" y="-175.5" font-family="Helvetica,sans-Serif" font-size="10.00">/toolbox/library/src/SetReferences.cpp</text>
</g>
<!-- Node2 -->
<g id="node2" class="node"><title>Node2</title>
<g id="a_node2"><a xlink:href="_set_references_8h.html" target="_top" xlink:title="WBToolbox/Block/SetReferences.h">
<polygon fill="none" stroke="black" points="0,-112.5 0,-131.5 176,-131.5 176,-112.5 0,-112.5"/>
<text text-anchor="middle" x="88" y="-119.5" font-family="Helvetica,sans-Serif" font-size="10.00">WBToolbox/Block/SetReferences.h</text>
</a>
</g>
</g>
<!-- Node1&#45;&gt;Node2 -->
<g id="edge1" class="edge"><title>Node1&#45;&gt;Node2</title>
<path fill="none" stroke="midnightblue" d="M1430.27,-185.606C1209.38,-179.876 658.314,-163.503 186.102,-132.038"/>
<polygon fill="midnightblue" stroke="midnightblue" points="186.224,-128.539 176.013,-131.363 185.757,-135.523 186.224,-128.539"/>
</g>
<!-- Node7 -->
<g id="node7" class="node"><title>Node7</title>
<g id="a_node7"><a xlink:href="_configuration_8h.html" target="_top" xlink:title="WBToolbox/Base/Configuration.h">
<polygon fill="none" stroke="black" points="194,-112.5 194,-131.5 364,-131.5 364,-112.5 194,-112.5"/>
<text text-anchor="middle" x="279" y="-119.5" font-family="Helvetica,sans-Serif" font-size="10.00">WBToolbox/Base/Configuration.h</text>
</a>
</g>
</g>
<!-- Node1&#45;&gt;Node7 -->
<g id="edge8" class="edge"><title>Node1&#45;&gt;Node7</title>
<path fill="none" stroke="midnightblue" d="M1430.38,-184.6C1231.3,-177.428 767.177,-159.145 378,-132 376.717,-131.91 375.424,-131.819 374.125,-131.724"/>
<polygon fill="midnightblue" stroke="midnightblue" points="374.272,-128.226 364.037,-130.963 373.745,-135.206 374.272,-128.226"/>
</g>
<!-- Node9 -->
<g id="node9" class="node"><title>Node9</title>
<polygon fill="none" stroke="#bfbfbf" points="352.5,-56.5 352.5,-75.5 399.5,-75.5 399.5,-56.5 352.5,-56.5"/>
<text text-anchor="middle" x="376" y="-63.5" font-family="Helvetica,sans-Serif" font-size="10.00">vector</text>
</g>
<!-- Node1&#45;&gt;Node9 -->
<g id="edge34" class="edge"><title>Node1&#45;&gt;Node9</title>
<path fill="none" stroke="midnightblue" d="M1430.32,-186.993C1179.1,-183.855 528.878,-171.932 440,-132 417.298,-121.8 398.35,-99.6274 387.102,-84.0258"/>
<polygon fill="midnightblue" stroke="midnightblue" points="389.952,-81.9929 381.399,-75.7394 384.185,-85.9614 389.952,-81.9929"/>
</g>
<!-- Node10 -->
<g id="node10" class="node"><title>Node10</title>
<g id="a_node10"><a xlink:href="_robot_interface_8h.html" target="_top" xlink:title="WBToolbox/Base/RobotInterface.h">
<polygon fill="none" stroke="black" points="417.5,-56.5 417.5,-75.5 592.5,-75.5 592.5,-56.5 417.5,-56.5"/>
<text text-anchor="middle" x="505" y="-63.5" font-family="Helvetica,sans-Serif" font-size="10.00">WBToolbox/Base/RobotInterface.h</text>
</a>
</g>
</g>
<!-- Node1&#45;&gt;Node10 -->
<g id="edge13" class="edge"><title>Node1&#45;&gt;Node10</title>
<path fill="none" stroke="midnightblue" d="M1430.07,-186.518C1169.59,-182.137 482.491,-167.273 449,-132 432.774,-114.911 457.989,-94.1201 479.623,-80.7286"/>
<polygon fill="midnightblue" stroke="midnightblue" points="481.408,-83.7393 488.243,-75.644 477.851,-77.7101 481.408,-83.7393"/>
</g>
<!-- Node13 -->
<g id="node13" class="node"><title>Node13</title>
<polygon fill="none" stroke="#bfbfbf" points="458,-112.5 458,-131.5 652,-131.5 652,-112.5 458,-112.5"/>
<text text-anchor="middle" x="555" y="-119.5" font-family="Helvetica,sans-Serif" font-size="10.00">BlockFactory/Core/BlockInformation.h</text>
</g>
<!-- Node1&#45;&gt;Node13 -->
<g id="edge18" class="edge"><title>Node1&#45;&gt;Node13</title>
<path fill="none" stroke="midnightblue" d="M1430.46,-182.26C1271.46,-172.859 948.154,-153.171 662.251,-132.003"/>
<polygon fill="midnightblue" stroke="midnightblue" points="662.329,-128.5 652.097,-131.25 661.811,-135.48 662.329,-128.5"/>
</g>
<!-- Node14 -->
<g id="node14" class="node"><title>Node14</title>
<polygon fill="none" stroke="#bfbfbf" points="670.5,-112.5 670.5,-131.5 801.5,-131.5 801.5,-112.5 670.5,-112.5"/>
<text text-anchor="middle" x="736" y="-119.5" font-family="Helvetica,sans-Serif" font-size="10.00">BlockFactory/Core/Log.h</text>
</g>
<!-- Node1&#45;&gt;Node14 -->
<g id="edge19" class="edge"><title>Node1&#45;&gt;Node14</title>
<path fill="none" stroke="midnightblue" d="M1430.46,-181.617C1294.02,-172.486 1039.6,-154.409 811.967,-132.057"/>
<polygon fill="midnightblue" stroke="midnightblue" points="812.128,-128.556 801.833,-131.057 811.441,-135.522 812.128,-128.556"/>
</g>
<!-- Node15 -->
<g id="node15" class="node"><title>Node15</title>
<polygon fill="none" stroke="#bfbfbf" points="820,-112.5 820,-131.5 984,-131.5 984,-112.5 820,-112.5"/>
<text text-anchor="middle" x="902" y="-119.5" font-family="Helvetica,sans-Serif" font-size="10.00">BlockFactory/Core/Parameter.h</text>
</g>
<!-- Node1&#45;&gt;Node15 -->
<g id="edge20" class="edge"><title>Node1&#45;&gt;Node15</title>
<path fill="none" stroke="midnightblue" d="M1430.34,-177.772C1310.71,-165.37 1110.66,-144.631 994.073,-132.545"/>
<polygon fill="midnightblue" stroke="midnightblue" points="994.404,-129.061 984.096,-131.511 993.682,-136.023 994.404,-129.061"/>
</g>
<!-- Node16 -->
<g id="node16" class="node"><title>Node16</title>
<polygon fill="none" stroke="#bfbfbf" points="1002,-112.5 1002,-131.5 1172,-131.5 1172,-112.5 1002,-112.5"/>
<text text-anchor="middle" x="1087" y="-119.5" font-family="Helvetica,sans-Serif" font-size="10.00">BlockFactory/Core/Parameters.h</text>
</g>
<!-- Node1&#45;&gt;Node16 -->
<g id="edge21" class="edge"><title>Node1&#45;&gt;Node16</title>
<path fill="none" stroke="midnightblue" d="M1430.36,-173.494C1346.64,-161.183 1228.73,-143.842 1155.14,-133.02"/>
<polygon fill="midnightblue" stroke="midnightblue" points="1155.46,-129.53 1145.06,-131.538 1154.44,-136.456 1155.46,-129.53"/>
</g>
<!-- Node17 -->
<g id="node17" class="node"><title>Node17</title>
<polygon fill="none" stroke="#bfbfbf" points="1190.5,-112.5 1190.5,-131.5 1333.5,-131.5 1333.5,-112.5 1190.5,-112.5"/>
<text text-anchor="middle" x="1262" y="-119.5" font-family="Helvetica,sans-Serif" font-size="10.00">BlockFactory/Core/Signal.h</text>
</g>
<!-- Node1&#45;&gt;Node17 -->
<g id="edge22" class="edge"><title>Node1&#45;&gt;Node17</title>
<path fill="none" stroke="midnightblue" d="M1448.89,-168.498C1402.5,-157.204 1345.81,-143.403 1307.11,-133.983"/>
<polygon fill="midnightblue" stroke="midnightblue" points="1307.74,-130.532 1297.19,-131.567 1306.08,-137.333 1307.74,-130.532"/>
</g>
<!-- Node18 -->
<g id="node18" class="node"><title>Node18</title>
<polygon fill="none" stroke="#bfbfbf" points="1352,-112.5 1352,-131.5 1532,-131.5 1532,-112.5 1352,-112.5"/>
<text text-anchor="middle" x="1442" y="-119.5" font-family="Helvetica,sans-Serif" font-size="10.00">yarp/dev/ControlBoardInterfaces.h</text>
</g>
<!-- Node1&#45;&gt;Node18 -->
<g id="edge23" class="edge"><title>Node1&#45;&gt;Node18</title>
<path fill="none" stroke="midnightblue" d="M1502.9,-168.498C1489.69,-158.628 1473.91,-146.843 1461.73,-137.741"/>
<polygon fill="midnightblue" stroke="midnightblue" points="1463.69,-134.834 1453.58,-131.652 1459.5,-140.442 1463.69,-134.834"/>
</g>
<!-- Node19 -->
<g id="node19" class="node"><title>Node19</title>
<polygon fill="none" stroke="#bfbfbf" points="1550.5,-112.5 1550.5,-131.5 1683.5,-131.5 1683.5,-112.5 1550.5,-112.5"/>
<text text-anchor="middle" x="1617" y="-119.5" font-family="Helvetica,sans-Serif" font-size="10.00">yarp/dev/IControlMode.h</text>
</g>
<!-- Node1&#45;&gt;Node19 -->
<g id="edge24" class="edge"><title>Node1&#45;&gt;Node19</title>
<path fill="none" stroke="midnightblue" d="M1555.4,-168.498C1568.77,-158.628 1584.72,-146.843 1597.04,-137.741"/>
<polygon fill="midnightblue" stroke="midnightblue" points="1599.32,-140.409 1605.29,-131.652 1595.16,-134.779 1599.32,-140.409"/>
</g>
<!-- Node20 -->
<g id="node20" class="node"><title>Node20</title>
<polygon fill="none" stroke="#bfbfbf" points="1701.5,-112.5 1701.5,-131.5 1844.5,-131.5 1844.5,-112.5 1701.5,-112.5"/>
<text text-anchor="middle" x="1773" y="-119.5" font-family="Helvetica,sans-Serif" font-size="10.00">yarp/dev/ICurrentControl.h</text>
</g>
<!-- Node1&#45;&gt;Node20 -->
<g id="edge25" class="edge"><title>Node1&#45;&gt;Node20</title>
<path fill="none" stroke="midnightblue" d="M1602.21,-168.498C1644.24,-157.3 1695.53,-143.638 1730.87,-134.224"/>
<polygon fill="midnightblue" stroke="midnightblue" points="1732.08,-137.523 1740.84,-131.567 1730.28,-130.759 1732.08,-137.523"/>
</g>
<!-- Node21 -->
<g id="node21" class="node"><title>Node21</title>
<polygon fill="none" stroke="#bfbfbf" points="1862.5,-112.5 1862.5,-131.5 1991.5,-131.5 1991.5,-112.5 1862.5,-112.5"/>
<text text-anchor="middle" x="1927" y="-119.5" font-family="Helvetica,sans-Serif" font-size="10.00">yarp/dev/IPWMControl.h</text>
</g>
<!-- Node1&#45;&gt;Node21 -->
<g id="edge26" class="edge"><title>Node1&#45;&gt;Node21</title>
<path fill="none" stroke="midnightblue" d="M1627.64,-171.891C1701.78,-159.782 1801.1,-143.561 1864.59,-133.193"/>
<polygon fill="midnightblue" stroke="midnightblue" points="1865.54,-136.584 1874.85,-131.518 1864.41,-129.675 1865.54,-136.584"/>
</g>
<!-- Node22 -->
<g id="node22" class="node"><title>Node22</title>
<polygon fill="none" stroke="#bfbfbf" points="2010,-112.5 2010,-131.5 2154,-131.5 2154,-112.5 2010,-112.5"/>
<text text-anchor="middle" x="2082" y="-119.5" font-family="Helvetica,sans-Serif" font-size="10.00">yarp/dev/IPositionControl.h</text>
</g>
<!-- Node1&#45;&gt;Node22 -->
<g id="edge27" class="edge"><title>Node1&#45;&gt;Node22</title>
<path fill="none" stroke="midnightblue" d="M1627.55,-176.417C1733.67,-163.943 1900.61,-144.321 1999.88,-132.652"/>
<polygon fill="midnightblue" stroke="midnightblue" points="2000.34,-136.122 2009.87,-131.478 1999.53,-129.17 2000.34,-136.122"/>
</g>
<!-- Node23 -->
<g id="node23" class="node"><title>Node23</title>
<polygon fill="none" stroke="#bfbfbf" points="2172,-112.5 2172,-131.5 2310,-131.5 2310,-112.5 2172,-112.5"/>
<text text-anchor="middle" x="2241" y="-119.5" font-family="Helvetica,sans-Serif" font-size="10.00">yarp/dev/IPositionDirect.h</text>
</g>
<!-- Node1&#45;&gt;Node23 -->
<g id="edge28" class="edge"><title>Node1&#45;&gt;Node23</title>
<path fill="none" stroke="midnightblue" d="M1627.64,-180.11C1750.27,-170.117 1966.25,-151.905 2161.52,-132.128"/>
<polygon fill="midnightblue" stroke="midnightblue" points="2162.09,-135.588 2171.69,-131.095 2161.39,-128.624 2162.09,-135.588"/>
</g>
<!-- Node24 -->
<g id="node24" class="node"><title>Node24</title>
<polygon fill="none" stroke="#bfbfbf" points="2328,-112.5 2328,-131.5 2466,-131.5 2466,-112.5 2328,-112.5"/>
<text text-anchor="middle" x="2397" y="-119.5" font-family="Helvetica,sans-Serif" font-size="10.00">yarp/dev/ITorqueControl.h</text>
</g>
<!-- Node1&#45;&gt;Node24 -->
<g id="edge29" class="edge"><title>Node1&#45;&gt;Node24</title>
<path fill="none" stroke="midnightblue" d="M1627.64,-182.409C1775.3,-173.728 2062.81,-155.617 2317.5,-132.103"/>
<polygon fill="midnightblue" stroke="midnightblue" points="2318.06,-135.566 2327.69,-131.157 2317.41,-128.596 2318.06,-135.566"/>
</g>
<!-- Node25 -->
<g id="node25" class="node"><title>Node25</title>
<polygon fill="none" stroke="#bfbfbf" points="2484.5,-112.5 2484.5,-131.5 2627.5,-131.5 2627.5,-112.5 2484.5,-112.5"/>
<text text-anchor="middle" x="2556" y="-119.5" font-family="Helvetica,sans-Serif" font-size="10.00">yarp/dev/IVelocityControl.h</text>
</g>
<!-- Node1&#45;&gt;Node25 -->
<g id="edge30" class="edge"><title>Node1&#45;&gt;Node25</title>
<path fill="none" stroke="midnightblue" d="M1627.52,-183.843C1797.78,-176.287 2158.34,-158.662 2474.19,-132.022"/>
<polygon fill="midnightblue" stroke="midnightblue" points="2474.8,-135.483 2484.47,-131.15 2474.21,-128.508 2474.8,-135.483"/>
</g>
<!-- Node26 -->
<g id="node26" class="node"><title>Node26</title>
<polygon fill="none" stroke="#bfbfbf" points="2645.5,-112.5 2645.5,-131.5 2692.5,-131.5 2692.5,-112.5 2645.5,-112.5"/>
<text text-anchor="middle" x="2669" y="-119.5" font-family="Helvetica,sans-Serif" font-size="10.00">cmath</text>
</g>
<!-- Node1&#45;&gt;Node26 -->
<g id="edge31" class="edge"><title>Node1&#45;&gt;Node26</title>
<path fill="none" stroke="midnightblue" d="M1627.87,-185.835C1858.07,-180.344 2425.63,-164.093 2635.35,-131.878"/>
<polygon fill="midnightblue" stroke="midnightblue" points="2636.04,-135.313 2645.37,-130.283 2634.94,-128.4 2636.04,-135.313"/>
</g>
<!-- Node27 -->
<g id="node27" class="node"><title>Node27</title>
<polygon fill="none" stroke="#bfbfbf" points="2710.5,-112.5 2710.5,-131.5 2767.5,-131.5 2767.5,-112.5 2710.5,-112.5"/>
<text text-anchor="middle" x="2739" y="-119.5" font-family="Helvetica,sans-Serif" font-size="10.00">ostream</text>
</g>
<!-- Node1&#45;&gt;Node27 -->
<g id="edge32" class="edge"><title>Node1&#45;&gt;Node27</title>
<path fill="none" stroke="midnightblue" d="M1627.71,-185.713C1867.54,-179.771 2476.97,-162.264 2700.4,-131.93"/>
<polygon fill="midnightblue" stroke="midnightblue" points="2701.01,-135.379 2710.42,-130.522 2700.03,-128.447 2701.01,-135.379"/>
</g>
<!-- Node28 -->
<g id="node28" class="node"><title>Node28</title>
<polygon fill="none" stroke="#bfbfbf" points="2785.5,-112.5 2785.5,-131.5 2826.5,-131.5 2826.5,-112.5 2785.5,-112.5"/>
<text text-anchor="middle" x="2806" y="-119.5" font-family="Helvetica,sans-Serif" font-size="10.00">tuple</text>
</g>
<!-- Node1&#45;&gt;Node28 -->
<g id="edge33" class="edge"><title>Node1&#45;&gt;Node28</title>
<path fill="none" stroke="midnightblue" d="M1627.58,-186.83C1878.51,-183.338 2537.78,-170.813 2775.28,-131.835"/>
<polygon fill="midnightblue" stroke="midnightblue" points="2775.98,-135.266 2785.25,-130.139 2774.8,-128.365 2775.98,-135.266"/>
</g>
<!-- Node3 -->
<g id="node3" class="node"><title>Node3</title>
<g id="a_node3"><a xlink:href="_w_b_block_8h.html" target="_top" xlink:title="WBToolbox/Base/WBBlock.h">
<polygon fill="none" stroke="black" points="15,-56.5 15,-75.5 161,-75.5 161,-56.5 15,-56.5"/>
<text text-anchor="middle" x="88" y="-63.5" font-family="Helvetica,sans-Serif" font-size="10.00">WBToolbox/Base/WBBlock.h</text>
</a>
</g>
</g>
<!-- Node2&#45;&gt;Node3 -->
<g id="edge2" class="edge"><title>Node2&#45;&gt;Node3</title>
<path fill="none" stroke="midnightblue" d="M88,-112.083C88,-105.006 88,-94.8611 88,-85.9865"/>
<polygon fill="midnightblue" stroke="midnightblue" points="91.5001,-85.751 88,-75.7511 84.5001,-85.7511 91.5001,-85.751"/>
</g>
<!-- Node5 -->
<g id="node5" class="node"><title>Node5</title>
<polygon fill="none" stroke="#bfbfbf" points="236.5,-0.5 236.5,-19.5 293.5,-19.5 293.5,-0.5 236.5,-0.5"/>
<text text-anchor="middle" x="265" y="-7.5" font-family="Helvetica,sans-Serif" font-size="10.00">memory</text>
</g>
<!-- Node2&#45;&gt;Node5 -->
<g id="edge6" class="edge"><title>Node2&#45;&gt;Node5</title>
<path fill="none" stroke="midnightblue" d="M104.922,-112.336C121.697,-103.603 148.001,-89.5172 170,-76 196.605,-59.6525 226.124,-39.0454 245.089,-25.4687"/>
<polygon fill="midnightblue" stroke="midnightblue" points="247.181,-28.2753 253.251,-19.5921 243.091,-22.5944 247.181,-28.2753"/>
</g>
<!-- Node6 -->
<g id="node6" class="node"><title>Node6</title>
<polygon fill="none" stroke="#bfbfbf" points="174,-0.5 174,-19.5 218,-19.5 218,-0.5 174,-0.5"/>
<text text-anchor="middle" x="196" y="-7.5" font-family="Helvetica,sans-Serif" font-size="10.00">string</text>
</g>
<!-- Node2&#45;&gt;Node6 -->
<g id="edge7" class="edge"><title>Node2&#45;&gt;Node6</title>
<path fill="none" stroke="midnightblue" d="M61.0086,-112.483C30.2174,-101.362 -13.5027,-80.4121 6,-56 49.2812,-1.82382 91.0926,-34.9575 163.721,-19.9712"/>
<polygon fill="midnightblue" stroke="midnightblue" points="164.747,-23.3259 173.693,-17.6493 163.16,-16.5083 164.747,-23.3259"/>
</g>
<!-- Node4 -->
<g id="node4" class="node"><title>Node4</title>
<polygon fill="none" stroke="#bfbfbf" points="16,-0.5 16,-19.5 156,-19.5 156,-0.5 16,-0.5"/>
<text text-anchor="middle" x="86" y="-7.5" font-family="Helvetica,sans-Serif" font-size="10.00">BlockFactory/Core/Block.h</text>
</g>
<!-- Node3&#45;&gt;Node4 -->
<g id="edge3" class="edge"><title>Node3&#45;&gt;Node4</title>
<path fill="none" stroke="midnightblue" d="M87.6697,-56.083C87.4076,-49.0059 87.0319,-38.8611 86.7032,-29.9865"/>
<polygon fill="midnightblue" stroke="midnightblue" points="90.1919,-29.6147 86.3241,-19.7511 83.1967,-29.8738 90.1919,-29.6147"/>
</g>
<!-- Node3&#45;&gt;Node5 -->
<g id="edge4" class="edge"><title>Node3&#45;&gt;Node5</title>
<path fill="none" stroke="midnightblue" d="M116.046,-56.4435C146.082,-47.2801 193.913,-32.6876 227.243,-22.5192"/>
<polygon fill="midnightblue" stroke="midnightblue" points="228.542,-25.7822 237.085,-19.5164 226.499,-19.0869 228.542,-25.7822"/>
</g>
<!-- Node3&#45;&gt;Node6 -->
<g id="edge5" class="edge"><title>Node3&#45;&gt;Node6</title>
<path fill="none" stroke="midnightblue" d="M105.352,-56.324C122.672,-47.6641 149.515,-34.2424 169.502,-24.249"/>
<polygon fill="midnightblue" stroke="midnightblue" points="171.312,-27.2572 178.691,-19.6545 168.181,-20.9962 171.312,-27.2572"/>
</g>
<!-- Node7&#45;&gt;Node5 -->
<g id="edge10" class="edge"><title>Node7&#45;&gt;Node5</title>
<path fill="none" stroke="midnightblue" d="M277.901,-112.368C275.642,-94.617 270.43,-53.6664 267.367,-29.5974"/>
<polygon fill="midnightblue" stroke="midnightblue" points="270.828,-29.0695 266.093,-19.5914 263.884,-29.9533 270.828,-29.0695"/>
</g>
<!-- Node7&#45;&gt;Node6 -->
<g id="edge11" class="edge"><title>Node7&#45;&gt;Node6</title>
<path fill="none" stroke="midnightblue" d="M272.487,-112.368C258.729,-94.135 226.503,-51.4257 208.582,-27.6752"/>
<polygon fill="midnightblue" stroke="midnightblue" points="211.3,-25.4659 202.483,-19.5914 205.712,-29.6821 211.3,-25.4659"/>
</g>
<!-- Node8 -->
<g id="node8" class="node"><title>Node8</title>
<polygon fill="none" stroke="#bfbfbf" points="293.5,-56.5 293.5,-75.5 334.5,-75.5 334.5,-56.5 293.5,-56.5"/>
<text text-anchor="middle" x="314" y="-63.5" font-family="Helvetica,sans-Serif" font-size="10.00">array</text>
</g>
<!-- Node7&#45;&gt;Node8 -->
<g id="edge9" class="edge"><title>Node7&#45;&gt;Node8</title>
<path fill="none" stroke="midnightblue" d="M284.78,-112.083C289.672,-104.534 296.827,-93.4948 302.833,-84.2298"/>
<polygon fill="midnightblue" stroke="midnightblue" points="305.826,-86.0463 308.328,-75.7511 299.952,-82.239 305.826,-86.0463"/>
</g>
<!-- Node7&#45;&gt;Node9 -->
<g id="edge12" class="edge"><title>Node7&#45;&gt;Node9</title>
<path fill="none" stroke="midnightblue" d="M294.585,-112.324C309.999,-103.743 333.812,-90.486 351.71,-80.5224"/>
<polygon fill="midnightblue" stroke="midnightblue" points="353.419,-83.5767 360.454,-75.6545 350.014,-77.4606 353.419,-83.5767"/>
</g>
<!-- Node10&#45;&gt;Node5 -->
<g id="edge14" class="edge"><title>Node10&#45;&gt;Node5</title>
<path fill="none" stroke="midnightblue" d="M466.971,-56.4435C422.336,-46.4007 348.719,-29.8367 303.767,-19.7226"/>
<polygon fill="midnightblue" stroke="midnightblue" points="304.336,-16.2632 293.812,-17.4826 302.799,-23.0925 304.336,-16.2632"/>
</g>
<!-- Node10&#45;&gt;Node6 -->
<g id="edge15" class="edge"><title>Node10&#45;&gt;Node6</title>
<path fill="none" stroke="midnightblue" d="M437.999,-56.4926C383.737,-49.0684 305.19,-37.1169 228.142,-20.0368"/>
<polygon fill="midnightblue" stroke="midnightblue" points="228.791,-16.5953 218.267,-17.8171 227.256,-23.4249 228.791,-16.5953"/>
</g>
<!-- Node11 -->
<g id="node11" class="node"><title>Node11</title>
<polygon fill="none" stroke="#bfbfbf" points="500.5,-0.5 500.5,-19.5 593.5,-19.5 593.5,-0.5 500.5,-0.5"/>
<text text-anchor="middle" x="547" y="-7.5" font-family="Helvetica,sans-Serif" font-size="10.00">unordered_map</text>
</g>
<!-- Node10&#45;&gt;Node11 -->
<g id="edge16" class="edge"><title>Node10&#45;&gt;Node11</title>
<path fill="none" stroke="midnightblue" d="M511.935,-56.083C517.929,-48.3768 526.752,-37.0333 534.048,-27.6531"/>
<polygon fill="midnightblue" stroke="midnightblue" points="536.817,-29.7934 540.194,-19.7511 531.291,-25.4958 536.817,-29.7934"/>
</g>
<!-- Node12 -->
<g id="node12" class="node"><title>Node12</title>
<polygon fill="none" stroke="#bfbfbf" points="441,-0.5 441,-19.5 483,-19.5 483,-0.5 441,-0.5"/>
<text text-anchor="middle" x="462" y="-7.5" font-family="Helvetica,sans-Serif" font-size="10.00">utility</text>
</g>
<!-- Node10&#45;&gt;Node12 -->
<g id="edge17" class="edge"><title>Node10&#45;&gt;Node12</title>
<path fill="none" stroke="midnightblue" d="M497.899,-56.083C491.763,-48.3768 482.73,-37.0333 475.261,-27.6531"/>
<polygon fill="midnightblue" stroke="midnightblue" points="477.936,-25.3936 468.968,-19.7511 472.46,-29.7542 477.936,-25.3936"/>
</g>
</g>
</svg>
        <g id="navigator" transform="translate(0 0)" fill="#404254">
                <rect fill="#f2f5e9" fill-opacity="0.5" stroke="#606060" stroke-width=".5" x="0" y="0" width="60" height="60"/>
                <use id="zoomplus" xlink:href="#zoomPlus" x="17" y="9" onmousedown="handleZoom(evt,'in')"/>
                <use id="zoomminus" xlink:href="#zoomMin" x="42" y="9" onmousedown="handleZoom(evt,'out')"/>
                <use id="reset" xlink:href="#resetDef" x="30" y="36" onmousedown="handleReset()"/>
                <g id="arrowUp" xlink:href="#dirArrow" transform="translate(30 24)" onmousedown="handlePan(0,-1)">
                  <use xlink:href="#rim" fill="#404040">
                        <set attributeName="fill" to="#808080" begin="arrowUp.mouseover" end="arrowUp.mouseout"/>
                  </use>
                  <path fill="none" stroke="white" stroke-width="1.5" d="M0,-3.0v7 M-2.5,-0.5L0,-3.0L2.5,-0.5"/>
                </g>
                <g id="arrowRight" xlink:href="#dirArrow" transform="rotate(90) translate(36 -43)" onmousedown="handlePan(1,0)">
                  <use xlink:href="#rim" fill="#404040">
                        <set attributeName="fill" to="#808080" begin="arrowRight.mouseover" end="arrowRight.mouseout"/>
                  </use>
                  <path fill="none" stroke="white" stroke-width="1.5" d="M0,-3.0v7 M-2.5,-0.5L0,-3.0L2.5,-0.5"/>
                </g>
                <g id="arrowDown" xlink:href="#dirArrow" transform="rotate(180) translate(-30 -48)" onmousedown="handlePan(0,1)">
                  <use xlink:href="#rim" fill="#404040">
                        <set attributeName="fill" to="#808080" begin="arrowDown.mouseover" end="arrowDown.mouseout"/>
                  </use>
                  <path fill="none" stroke="white" stroke-width="1.5" d="M0,-3.0v7 M-2.5,-0.5L0,-3.0L2.5,-0.5"/>
                </g>
                <g id="arrowLeft" xlink:href="#dirArrow" transform="rotate(270) translate(-36 17)" onmousedown="handlePan(-1,0)">
                  <use xlink:href="#rim" fill="#404040">
                        <set attributeName="fill" to="#808080" begin="arrowLeft.mouseover" end="arrowLeft.mouseout"/>
                  </use>
                  <path fill="none" stroke="white" stroke-width="1.5" d="M0,-3.0v7 M-2.5,-0.5L0,-3.0L2.5,-0.5"/>
                </g>
        </g>
        <svg viewBox="0 0 15 15" width="100%" height="30px" preserveAspectRatio="xMaxYMin meet">
         <g id="arrow_out" transform="scale(0.3 0.3)">
          <a xlink:href="_set_references_8cpp__incl_org.svg" target="_base">
           <rect id="button" ry="5" rx="5" y="6" x="6" height="38" width="38"
                fill="#f2f5e9" fill-opacity="0.5" stroke="#606060" stroke-width="1.0"/>
           <path id="arrow"
             d="M 11.500037,31.436501 C 11.940474,20.09759 22.043105,11.32322 32.158766,21.979434 L 37.068811,17.246167 C 37.068811,17.246167 37.088388,32 37.088388,32 L 22.160133,31.978069 C 22.160133,31.978069 26.997745,27.140456 26.997745,27.140456 C 18.528582,18.264221 13.291696,25.230495 11.500037,31.436501 z"
             style="fill:#404040;"/>
          </a>
         </g>
        </svg>
</svg>
