<?xml version="1.0" encoding="UTF-8" standalone="no"?>
<!DOCTYPE svg PUBLIC "-//W3C//DTD SVG 1.1//EN"
 "http://www.w3.org/Graphics/SVG/1.1/DTD/svg11.dtd">
<!-- Generated by graphviz version 2.38.0 (20140413.2041)
 -->
<!-- Title: /home/travis/build/robotology/wb&#45;toolbox/toolbox/library/include/WBToolbox/Block/SetReferences.h Pages: 1 -->
<svg width="384pt" height="139pt"
 viewBox="0.00 0.00 384.00 139.00" xmlns="http://www.w3.org/2000/svg" xmlns:xlink="http://www.w3.org/1999/xlink">
<g id="graph0" class="graph" transform="scale(1 1) rotate(0) translate(4 135)">
<title>/home/travis/build/robotology/wb&#45;toolbox/toolbox/library/include/WBToolbox/Block/SetReferences.h</title>
<!-- Node1 -->
<g id="node1" class="node"><title>Node1</title>
<polygon fill="#bfbfbf" stroke="black" points="89,-78.5 89,-130.5 268,-130.5 268,-78.5 89,-78.5"/>
<text text-anchor="start" x="97" y="-118.5" font-family="Helvetica,sans-Serif" font-size="10.00">/home/travis/build</text>
<text text-anchor="start" x="97" y="-107.5" font-family="Helvetica,sans-Serif" font-size="10.00">/robotology/wb&#45;toolbox</text>
<text text-anchor="start" x="97" y="-96.5" font-family="Helvetica,sans-Serif" font-size="10.00">/toolbox/library/include</text>
<text text-anchor="middle" x="178.5" y="-85.5" font-family="Helvetica,sans-Serif" font-size="10.00">/WBToolbox/Block/SetReferences.h</text>
</g>
<!-- Node2 -->
<g id="node2" class="node"><title>Node2</title>
<g id="a_node2"><a xlink:href="_factory_8cpp.html" target="_top" xlink:title="/home/travis/build\l/robotology/wb&#45;toolbox\l/toolbox/library/src/Factory.cpp">
<polygon fill="none" stroke="black" points="0,-0.5 0,-41.5 161,-41.5 161,-0.5 0,-0.5"/>
<text text-anchor="start" x="8" y="-29.5" font-family="Helvetica,sans-Serif" font-size="10.00">/home/travis/build</text>
<text text-anchor="start" x="8" y="-18.5" font-family="Helvetica,sans-Serif" font-size="10.00">/robotology/wb&#45;toolbox</text>
<text text-anchor="middle" x="80.5" y="-7.5" font-family="Helvetica,sans-Serif" font-size="10.00">/toolbox/library/src/Factory.cpp</text>
</a>
</g>
</g>
<!-- Node1&#45;&gt;Node2 -->
<g id="edge1" class="edge"><title>Node1&#45;&gt;Node2</title>
<path fill="none" stroke="midnightblue" d="M140.452,-71.8579C128.252,-61.7125 115.099,-50.7733 104.229,-41.7338"/>
<polygon fill="midnightblue" stroke="midnightblue" points="138.371,-74.6792 148.297,-78.3823 142.846,-69.2971 138.371,-74.6792"/>
</g>
<!-- Node3 -->
<g id="node3" class="node"><title>Node3</title>
<g id="a_node3"><a xlink:href="_set_references_8cpp.html" target="_top" xlink:title="/home/travis/build\l/robotology/wb&#45;toolbox\l/toolbox/library/src/SetReferences.cpp">
<polygon fill="none" stroke="black" points="179,-0.5 179,-41.5 376,-41.5 376,-0.5 179,-0.5"/>
<text text-anchor="start" x="187" y="-29.5" font-family="Helvetica,sans-Serif" font-size="10.00">/home/travis/build</text>
<text text-anchor="start" x="187" y="-18.5" font-family="Helvetica,sans-Serif" font-size="10.00">/robotology/wb&#45;toolbox</text>
<text text-anchor="middle" x="277.5" y="-7.5" font-family="Helvetica,sans-Serif" font-size="10.00">/toolbox/library/src/SetReferences.cpp</text>
</a>
</g>
</g>
<!-- Node1&#45;&gt;Node3 -->
<g id="edge2" class="edge"><title>Node1&#45;&gt;Node3</title>
<path fill="none" stroke="midnightblue" d="M216.936,-71.8579C229.26,-61.7125 242.548,-50.7733 253.529,-41.7338"/>
<polygon fill="midnightblue" stroke="midnightblue" points="214.507,-69.3244 209.011,-78.3823 218.956,-74.7287 214.507,-69.3244"/>
</g>
</g>
</svg>
