<?xml version="1.0" encoding="UTF-8" standalone="no"?>
<!DOCTYPE svg PUBLIC "-//W3C//DTD SVG 1.1//EN"
 "http://www.w3.org/Graphics/SVG/1.1/DTD/svg11.dtd">
<!-- Generated by graphviz version 2.43.0 (0)
 -->
<!-- Title: /home/dferigo/git/WB&#45;Toolbox/toolbox/library/src/SetMotorParameters.cpp Pages: 1 -->
<!--zoomable 229 -->
<svg id="main" version="1.1" xmlns="http://www.w3.org/2000/svg" xmlns:xlink="http://www.w3.org/1999/xlink" xml:space="preserve" onload="init(evt)">
<style type="text/css"><![CDATA[
.edge:hover path { stroke: red; }
.edge:hover polygon { stroke: red; fill: red; }
]]></style>
<script type="text/javascript"><![CDATA[
var edges = document.getElementsByTagName('g');
if (edges && edges.length) {
  for (var i=0;i<edges.length;i++) {
    if (edges[i].id.substr(0,4)=='edge') {
      edges[i].setAttribute('class','edge');
    }
  }
}
]]></script>
        <defs>
                <circle id="rim" cx="0" cy="0" r="7"/>
                <circle id="rim2" cx="0" cy="0" r="3.5"/>
                <g id="zoomPlus">
                        <use xlink:href="#rim" fill="#404040">
                                <set attributeName="fill" to="#808080" begin="zoomplus.mouseover" end="zoomplus.mouseout"/>
                        </use>
                        <path d="M-4,0h8M0,-4v8" fill="none" stroke="white" stroke-width="1.5" pointer-events="none"/>
                </g>
                <g id="zoomMin">
                        <use xlink:href="#rim" fill="#404040">
                                <set attributeName="fill" to="#808080" begin="zoomminus.mouseover" end="zoomminus.mouseout"/>
                        </use>
                        <path d="M-4,0h8" fill="none" stroke="white" stroke-width="1.5" pointer-events="none"/>
                </g>
                <g id="dirArrow">
                        <path fill="none" stroke="white" stroke-width="1.5" d="M0,-3.0v7 M-2.5,-0.5L0,-3.0L2.5,-0.5"/>
                </g>
               <g id="resetDef">
                       <use xlink:href="#rim2" fill="#404040">
                               <set attributeName="fill" to="#808080" begin="reset.mouseover" end="reset.mouseout"/>
                       </use>
               </g>
        </defs>

<script type="text/javascript">
var viewWidth = 2276;
var viewHeight = 229;
var sectionId = 'dynsection-0';
</script>
<script xlink:href="svgpan.js"/>
<svg id="graph" class="graph">
<g id="viewport">
<title>/home/dferigo/git/WB&#45;Toolbox/toolbox/library/src/SetMotorParameters.cpp</title>
<!-- Node1 -->
<g id="node1" class="node">
<title>Node1</title>
<g id="a_node1"><a xlink:title=" ">
<polygon fill="#bfbfbf" stroke="black" points="1048.97,-179.5 1048.97,-220.5 1206.97,-220.5 1206.97,-179.5 1048.97,-179.5"/>
<text text-anchor="start" x="1056.97" y="-208.5" font-family="Helvetica,sans-Serif" font-size="10.00">/home/dferigo/git/WB</text>
<text text-anchor="start" x="1056.97" y="-197.5" font-family="Helvetica,sans-Serif" font-size="10.00">&#45;Toolbox/toolbox/library</text>
<text text-anchor="middle" x="1127.97" y="-186.5" font-family="Helvetica,sans-Serif" font-size="10.00">/src/SetMotorParameters.cpp</text>
</a>
</g>
</g>
<!-- Node2 -->
<g id="node2" class="node">
<title>Node2</title>
<g id="a_node2"><a xlink:href="_set_motor_parameters_8h.html" target="_top" xlink:title=" ">
<polygon fill="none" stroke="black" points="35.97,-112.5 35.97,-142.5 183.97,-142.5 183.97,-112.5 35.97,-112.5"/>
<text text-anchor="start" x="43.97" y="-130.5" font-family="Helvetica,sans-Serif" font-size="10.00">WBToolbox/Block/SetMotor</text>
<text text-anchor="middle" x="109.97" y="-119.5" font-family="Helvetica,sans-Serif" font-size="10.00">Parameters.h</text>
</a>
</g>
</g>
<!-- Node1&#45;&gt;Node2 -->
<g id="edge1" class="edge">
<title>Node1&#45;&gt;Node2</title>
<path fill="none" stroke="midnightblue" d="M1048.9,-197.28C889.16,-193.15 516.48,-180.19 194.12,-143.04"/>
<polygon fill="midnightblue" stroke="midnightblue" points="194.46,-139.56 184.12,-141.88 193.65,-146.51 194.46,-139.56"/>
</g>
<!-- Node6 -->
<g id="node6" class="node">
<title>Node6</title>
<g id="a_node6"><a xlink:title=" ">
<polygon fill="none" stroke="#bfbfbf" points="0.97,-0.5 0.97,-19.5 44.97,-19.5 44.97,-0.5 0.97,-0.5"/>
<text text-anchor="middle" x="22.97" y="-7.5" font-family="Helvetica,sans-Serif" font-size="10.00">string</text>
</a>
</g>
</g>
<!-- Node1&#45;&gt;Node6 -->
<g id="edge29" class="edge">
<title>Node1&#45;&gt;Node6</title>
<path fill="none" stroke="midnightblue" d="M1048.64,-197.41C802.77,-192.16 67.47,-173.93 26.97,-143 -4.73,-118.79 -2.57,-95.16 4.97,-56 6.76,-46.7 10.45,-36.89 14.03,-28.8"/>
<polygon fill="midnightblue" stroke="midnightblue" points="17.24,-30.2 18.35,-19.66 10.91,-27.21 17.24,-30.2"/>
</g>
<!-- Node7 -->
<g id="node7" class="node">
<title>Node7</title>
<g id="a_node7"><a xlink:href="_configuration_8h.html" target="_top" xlink:title=" ">
<polygon fill="none" stroke="black" points="439.97,-118 439.97,-137 615.97,-137 615.97,-118 439.97,-118"/>
<text text-anchor="middle" x="527.97" y="-125" font-family="Helvetica,sans-Serif" font-size="10.00">WBToolbox/Base/Configuration.h</text>
</a>
</g>
</g>
<!-- Node1&#45;&gt;Node7 -->
<g id="edge8" class="edge">
<title>Node1&#45;&gt;Node7</title>
<path fill="none" stroke="midnightblue" d="M1048.96,-190.84C950.68,-180.51 777.77,-161.81 629.97,-143 618.92,-141.59 607.22,-140.01 595.82,-138.43"/>
<polygon fill="midnightblue" stroke="midnightblue" points="596.31,-134.96 585.92,-137.04 595.33,-141.89 596.31,-134.96"/>
</g>
<!-- Node9 -->
<g id="node9" class="node">
<title>Node9</title>
<g id="a_node9"><a xlink:title=" ">
<polygon fill="none" stroke="#bfbfbf" points="618.47,-56.5 618.47,-75.5 665.47,-75.5 665.47,-56.5 618.47,-56.5"/>
<text text-anchor="middle" x="641.97" y="-63.5" font-family="Helvetica,sans-Serif" font-size="10.00">vector</text>
</a>
</g>
</g>
<!-- Node1&#45;&gt;Node9 -->
<g id="edge31" class="edge">
<title>Node1&#45;&gt;Node9</title>
<path fill="none" stroke="midnightblue" d="M1048.66,-199.66C931.59,-198.98 720.3,-190.89 663.97,-143 647.49,-128.99 642.96,-103.45 641.91,-85.87"/>
<polygon fill="midnightblue" stroke="midnightblue" points="645.41,-85.57 641.64,-75.67 638.41,-85.76 645.41,-85.57"/>
</g>
<!-- Node10 -->
<g id="node10" class="node">
<title>Node10</title>
<g id="a_node10"><a xlink:href="_robot_interface_8h.html" target="_top" xlink:title=" ">
<polygon fill="none" stroke="black" points="201.97,-118 201.97,-137 383.97,-137 383.97,-118 201.97,-118"/>
<text text-anchor="middle" x="292.97" y="-125" font-family="Helvetica,sans-Serif" font-size="10.00">WBToolbox/Base/RobotInterface.h</text>
</a>
</g>
</g>
<!-- Node1&#45;&gt;Node10 -->
<g id="edge13" class="edge">
<title>Node1&#45;&gt;Node10</title>
<path fill="none" stroke="midnightblue" d="M1048.97,-194.52C914.89,-186.55 634.31,-168.36 397.97,-143 385.7,-141.68 372.65,-140.06 360.07,-138.38"/>
<polygon fill="midnightblue" stroke="midnightblue" points="360.49,-134.91 350.11,-137.03 359.55,-141.85 360.49,-134.91"/>
</g>
<!-- Node11 -->
<g id="node11" class="node">
<title>Node11</title>
<g id="a_node11"><a xlink:title=" ">
<polygon fill="none" stroke="#bfbfbf" points="367.47,-56.5 367.47,-75.5 460.47,-75.5 460.47,-56.5 367.47,-56.5"/>
<text text-anchor="middle" x="413.97" y="-63.5" font-family="Helvetica,sans-Serif" font-size="10.00">unordered_map</text>
</a>
</g>
</g>
<!-- Node1&#45;&gt;Node11 -->
<g id="edge30" class="edge">
<title>Node1&#45;&gt;Node11</title>
<path fill="none" stroke="midnightblue" d="M1048.76,-197.84C875.93,-194.58 476.76,-182.79 430.97,-143 414.9,-129.03 412.17,-103.48 412.44,-85.89"/>
<polygon fill="midnightblue" stroke="midnightblue" points="415.95,-85.84 412.95,-75.68 408.96,-85.5 415.95,-85.84"/>
</g>
<!-- Node13 -->
<g id="node13" class="node">
<title>Node13</title>
<g id="a_node13"><a xlink:title=" ">
<polygon fill="none" stroke="#bfbfbf" points="672.47,-118 672.47,-137 873.47,-137 873.47,-118 672.47,-118"/>
<text text-anchor="middle" x="772.97" y="-125" font-family="Helvetica,sans-Serif" font-size="10.00">BlockFactory/Core/BlockInformation.h</text>
</a>
</g>
</g>
<!-- Node1&#45;&gt;Node13 -->
<g id="edge18" class="edge">
<title>Node1&#45;&gt;Node13</title>
<path fill="none" stroke="midnightblue" d="M1048.74,-183.27C980.75,-169.76 884.65,-150.68 825.7,-138.97"/>
<polygon fill="midnightblue" stroke="midnightblue" points="826.35,-135.53 815.86,-137.02 824.98,-142.4 826.35,-135.53"/>
</g>
<!-- Node14 -->
<g id="node14" class="node">
<title>Node14</title>
<g id="a_node14"><a xlink:title=" ">
<polygon fill="none" stroke="#bfbfbf" points="891.97,-118 891.97,-137 1025.97,-137 1025.97,-118 891.97,-118"/>
<text text-anchor="middle" x="958.97" y="-125" font-family="Helvetica,sans-Serif" font-size="10.00">BlockFactory/Core/Log.h</text>
</a>
</g>
</g>
<!-- Node1&#45;&gt;Node14 -->
<g id="edge19" class="edge">
<title>Node1&#45;&gt;Node14</title>
<path fill="none" stroke="midnightblue" d="M1080.89,-179.36C1051.58,-167.13 1014.73,-151.76 989.26,-141.14"/>
<polygon fill="midnightblue" stroke="midnightblue" points="990.34,-137.79 979.76,-137.17 987.64,-144.25 990.34,-137.79"/>
</g>
<!-- Node15 -->
<g id="node15" class="node">
<title>Node15</title>
<g id="a_node15"><a xlink:title=" ">
<polygon fill="none" stroke="#bfbfbf" points="1043.97,-118 1043.97,-137 1211.97,-137 1211.97,-118 1043.97,-118"/>
<text text-anchor="middle" x="1127.97" y="-125" font-family="Helvetica,sans-Serif" font-size="10.00">BlockFactory/Core/Parameter.h</text>
</a>
</g>
</g>
<!-- Node1&#45;&gt;Node15 -->
<g id="edge20" class="edge">
<title>Node1&#45;&gt;Node15</title>
<path fill="none" stroke="midnightblue" d="M1127.97,-179.36C1127.97,-169.3 1127.97,-157.1 1127.97,-147.18"/>
<polygon fill="midnightblue" stroke="midnightblue" points="1131.47,-147.17 1127.97,-137.17 1124.47,-147.17 1131.47,-147.17"/>
</g>
<!-- Node16 -->
<g id="node16" class="node">
<title>Node16</title>
<g id="a_node16"><a xlink:title=" ">
<polygon fill="none" stroke="#bfbfbf" points="1230.47,-118 1230.47,-137 1403.47,-137 1403.47,-118 1230.47,-118"/>
<text text-anchor="middle" x="1316.97" y="-125" font-family="Helvetica,sans-Serif" font-size="10.00">BlockFactory/Core/Parameters.h</text>
</a>
</g>
</g>
<!-- Node1&#45;&gt;Node16 -->
<g id="edge21" class="edge">
<title>Node1&#45;&gt;Node16</title>
<path fill="none" stroke="midnightblue" d="M1180.37,-179.46C1213.79,-166.99 1256.04,-151.23 1284.64,-140.56"/>
<polygon fill="midnightblue" stroke="midnightblue" points="1286,-143.79 1294.15,-137.01 1283.55,-137.23 1286,-143.79"/>
</g>
<!-- Node17 -->
<g id="node17" class="node">
<title>Node17</title>
<g id="a_node17"><a xlink:title=" ">
<polygon fill="none" stroke="#bfbfbf" points="1421.47,-118 1421.47,-137 1568.47,-137 1568.47,-118 1421.47,-118"/>
<text text-anchor="middle" x="1494.97" y="-125" font-family="Helvetica,sans-Serif" font-size="10.00">BlockFactory/Core/Signal.h</text>
</a>
</g>
</g>
<!-- Node1&#45;&gt;Node17 -->
<g id="edge22" class="edge">
<title>Node1&#45;&gt;Node17</title>
<path fill="none" stroke="midnightblue" d="M1207.15,-183.79C1277.71,-170.23 1379.09,-150.76 1440.79,-138.91"/>
<polygon fill="midnightblue" stroke="midnightblue" points="1441.55,-142.33 1450.71,-137 1440.23,-135.45 1441.55,-142.33"/>
</g>
<!-- Node18 -->
<g id="node18" class="node">
<title>Node18</title>
<g id="a_node18"><a xlink:title=" ">
<polygon fill="none" stroke="#bfbfbf" points="1586.97,-118 1586.97,-137 1736.97,-137 1736.97,-118 1586.97,-118"/>
<text text-anchor="middle" x="1661.97" y="-125" font-family="Helvetica,sans-Serif" font-size="10.00">yarp/dev/ControlBoardPid.h</text>
</a>
</g>
</g>
<!-- Node1&#45;&gt;Node18 -->
<g id="edge23" class="edge">
<title>Node1&#45;&gt;Node18</title>
<path fill="none" stroke="midnightblue" d="M1206.97,-190.31C1296.95,-180.15 1448.31,-162.25 1577.97,-143 1586.69,-141.71 1595.9,-140.23 1604.9,-138.72"/>
<polygon fill="midnightblue" stroke="midnightblue" points="1605.67,-142.14 1614.94,-137.02 1604.5,-135.24 1605.67,-142.14"/>
</g>
<!-- Node19 -->
<g id="node19" class="node">
<title>Node19</title>
<g id="a_node19"><a xlink:title=" ">
<polygon fill="none" stroke="#bfbfbf" points="1754.47,-118 1754.47,-137 1879.47,-137 1879.47,-118 1754.47,-118"/>
<text text-anchor="middle" x="1816.97" y="-125" font-family="Helvetica,sans-Serif" font-size="10.00">yarp/dev/IPidControl.h</text>
</a>
</g>
</g>
<!-- Node1&#45;&gt;Node19 -->
<g id="edge24" class="edge">
<title>Node1&#45;&gt;Node19</title>
<path fill="none" stroke="midnightblue" d="M1207.32,-194.64C1325.26,-187.52 1553.58,-171.27 1745.97,-143 1753.5,-141.89 1761.43,-140.5 1769.16,-139.02"/>
<polygon fill="midnightblue" stroke="midnightblue" points="1770.03,-142.41 1779.15,-137.03 1768.66,-135.55 1770.03,-142.41"/>
</g>
<!-- Node20 -->
<g id="node20" class="node">
<title>Node20</title>
<g id="a_node20"><a xlink:title=" ">
<polygon fill="none" stroke="#bfbfbf" points="1897.97,-118 1897.97,-137 2039.97,-137 2039.97,-118 1897.97,-118"/>
<text text-anchor="middle" x="1968.97" y="-125" font-family="Helvetica,sans-Serif" font-size="10.00">yarp/dev/ITorqueControl.h</text>
</a>
</g>
</g>
<!-- Node1&#45;&gt;Node20 -->
<g id="edge25" class="edge">
<title>Node1&#45;&gt;Node20</title>
<path fill="none" stroke="midnightblue" d="M1207.12,-195.94C1345.74,-189.96 1641.25,-174.47 1888.97,-143 1898.02,-141.85 1907.6,-140.36 1916.86,-138.77"/>
<polygon fill="midnightblue" stroke="midnightblue" points="1917.51,-142.21 1926.75,-137.02 1916.29,-135.31 1917.51,-142.21"/>
</g>
<!-- Node21 -->
<g id="node21" class="node">
<title>Node21</title>
<g id="a_node21"><a xlink:title=" ">
<polygon fill="none" stroke="#bfbfbf" points="2057.97,-118 2057.97,-137 2121.97,-137 2121.97,-118 2057.97,-118"/>
<text text-anchor="middle" x="2089.97" y="-125" font-family="Helvetica,sans-Serif" font-size="10.00">algorithm</text>
</a>
</g>
</g>
<!-- Node1&#45;&gt;Node21 -->
<g id="edge26" class="edge">
<title>Node1&#45;&gt;Node21</title>
<path fill="none" stroke="midnightblue" d="M1207.07,-197.02C1399.67,-191.75 1888.94,-175.49 2048.97,-143 2052.48,-142.29 2056.1,-141.34 2059.66,-140.27"/>
<polygon fill="midnightblue" stroke="midnightblue" points="2061.04,-143.5 2069.43,-137.03 2058.84,-136.86 2061.04,-143.5"/>
</g>
<!-- Node22 -->
<g id="node22" class="node">
<title>Node22</title>
<g id="a_node22"><a xlink:title=" ">
<polygon fill="none" stroke="#bfbfbf" points="2140.47,-118 2140.47,-137 2193.47,-137 2193.47,-118 2140.47,-118"/>
<text text-anchor="middle" x="2166.97" y="-125" font-family="Helvetica,sans-Serif" font-size="10.00">iterator</text>
</a>
</g>
</g>
<!-- Node1&#45;&gt;Node22 -->
<g id="edge27" class="edge">
<title>Node1&#45;&gt;Node22</title>
<path fill="none" stroke="midnightblue" d="M1207,-197.91C1411.7,-194.56 1955.43,-182.13 2130.97,-143 2133.81,-142.37 2136.71,-141.54 2139.57,-140.59"/>
<polygon fill="midnightblue" stroke="midnightblue" points="2140.88,-143.84 2149.03,-137.07 2138.43,-137.28 2140.88,-143.84"/>
</g>
<!-- Node23 -->
<g id="node23" class="node">
<title>Node23</title>
<g id="a_node23"><a xlink:title=" ">
<polygon fill="none" stroke="#bfbfbf" points="2211.47,-118 2211.47,-137 2268.47,-137 2268.47,-118 2211.47,-118"/>
<text text-anchor="middle" x="2239.97" y="-125" font-family="Helvetica,sans-Serif" font-size="10.00">ostream</text>
</a>
</g>
</g>
<!-- Node1&#45;&gt;Node23 -->
<g id="edge28" class="edge">
<title>Node1&#45;&gt;Node23</title>
<path fill="none" stroke="midnightblue" d="M1207.14,-198.16C1422.06,-195.36 2012.99,-184.04 2202.97,-143 2205.97,-142.35 2209.05,-141.49 2212.09,-140.51"/>
<polygon fill="midnightblue" stroke="midnightblue" points="2213.31,-143.79 2221.51,-137.08 2210.92,-137.21 2213.31,-143.79"/>
</g>
<!-- Node3 -->
<g id="node3" class="node">
<title>Node3</title>
<g id="a_node3"><a xlink:href="_w_b_block_8h.html" target="_top" xlink:title=" ">
<polygon fill="none" stroke="black" points="55.47,-56.5 55.47,-75.5 208.47,-75.5 208.47,-56.5 55.47,-56.5"/>
<text text-anchor="middle" x="131.97" y="-63.5" font-family="Helvetica,sans-Serif" font-size="10.00">WBToolbox/Base/WBBlock.h</text>
</a>
</g>
</g>
<!-- Node2&#45;&gt;Node3 -->
<g id="edge2" class="edge">
<title>Node2&#45;&gt;Node3</title>
<path fill="none" stroke="midnightblue" d="M115.18,-112.4C118.18,-104.29 121.98,-94.01 125.21,-85.28"/>
<polygon fill="midnightblue" stroke="midnightblue" points="128.58,-86.25 128.77,-75.66 122.02,-83.82 128.58,-86.25"/>
</g>
<!-- Node5 -->
<g id="node5" class="node">
<title>Node5</title>
<g id="a_node5"><a xlink:title=" ">
<polygon fill="none" stroke="#bfbfbf" points="268.97,-0.5 268.97,-19.5 326.97,-19.5 326.97,-0.5 268.97,-0.5"/>
<text text-anchor="middle" x="297.97" y="-7.5" font-family="Helvetica,sans-Serif" font-size="10.00">memory</text>
</a>
</g>
</g>
<!-- Node2&#45;&gt;Node5 -->
<g id="edge6" class="edge">
<title>Node2&#45;&gt;Node5</title>
<path fill="none" stroke="midnightblue" d="M145.27,-112.34C166.67,-103.15 194.15,-90.26 216.97,-76 240.45,-61.33 264.91,-40.87 280.72,-26.84"/>
<polygon fill="midnightblue" stroke="midnightblue" points="283.46,-29.08 288.55,-19.79 278.78,-23.88 283.46,-29.08"/>
</g>
<!-- Node2&#45;&gt;Node6 -->
<g id="edge7" class="edge">
<title>Node2&#45;&gt;Node6</title>
<path fill="none" stroke="midnightblue" d="M59.59,-112.42C41.66,-104.71 23.36,-93.12 12.97,-76 4.38,-61.84 8.73,-42.87 14.12,-29.07"/>
<polygon fill="midnightblue" stroke="midnightblue" points="17.42,-30.26 18.24,-19.7 11.01,-27.44 17.42,-30.26"/>
</g>
<!-- Node4 -->
<g id="node4" class="node">
<title>Node4</title>
<g id="a_node4"><a xlink:title=" ">
<polygon fill="none" stroke="#bfbfbf" points="62.97,-0.5 62.97,-19.5 206.97,-19.5 206.97,-0.5 62.97,-0.5"/>
<text text-anchor="middle" x="134.97" y="-7.5" font-family="Helvetica,sans-Serif" font-size="10.00">BlockFactory/Core/Block.h</text>
</a>
</g>
</g>
<!-- Node3&#45;&gt;Node4 -->
<g id="edge3" class="edge">
<title>Node3&#45;&gt;Node4</title>
<path fill="none" stroke="midnightblue" d="M132.46,-56.08C132.86,-49.01 133.42,-38.86 133.91,-29.99"/>
<polygon fill="midnightblue" stroke="midnightblue" points="137.42,-29.93 134.48,-19.75 130.43,-29.54 137.42,-29.93"/>
</g>
<!-- Node3&#45;&gt;Node5 -->
<g id="edge4" class="edge">
<title>Node3&#45;&gt;Node5</title>
<path fill="none" stroke="midnightblue" d="M158.27,-56.44C186.32,-47.32 230.91,-32.81 262.15,-22.65"/>
<polygon fill="midnightblue" stroke="midnightblue" points="263.36,-25.94 271.79,-19.52 261.2,-19.28 263.36,-25.94"/>
</g>
<!-- Node3&#45;&gt;Node6 -->
<g id="edge5" class="edge">
<title>Node3&#45;&gt;Node6</title>
<path fill="none" stroke="midnightblue" d="M114.46,-56.32C96.9,-47.62 69.64,-34.12 49.44,-24.11"/>
<polygon fill="midnightblue" stroke="midnightblue" points="50.95,-20.96 40.44,-19.65 47.85,-27.23 50.95,-20.96"/>
</g>
<!-- Node7&#45;&gt;Node5 -->
<g id="edge10" class="edge">
<title>Node7&#45;&gt;Node5</title>
<path fill="none" stroke="midnightblue" d="M527.49,-117.64C526.18,-102.6 521.28,-72.15 502.97,-56 478.7,-34.58 389.39,-21.22 337,-15.05"/>
<polygon fill="midnightblue" stroke="midnightblue" points="337.37,-11.57 327.04,-13.91 336.58,-18.52 337.37,-11.57"/>
</g>
<!-- Node7&#45;&gt;Node6 -->
<g id="edge11" class="edge">
<title>Node7&#45;&gt;Node6</title>
<path fill="none" stroke="midnightblue" d="M523.59,-117.65C515.34,-102.06 495.86,-70.01 468.97,-56 389.52,-14.61 160.39,-35.52 55.27,-19.72"/>
<polygon fill="midnightblue" stroke="midnightblue" points="55.64,-16.23 45.19,-18.02 54.47,-23.14 55.64,-16.23"/>
</g>
<!-- Node8 -->
<g id="node8" class="node">
<title>Node8</title>
<g id="a_node8"><a xlink:title=" ">
<polygon fill="none" stroke="#bfbfbf" points="554.97,-56.5 554.97,-75.5 596.97,-75.5 596.97,-56.5 554.97,-56.5"/>
<text text-anchor="middle" x="575.97" y="-63.5" font-family="Helvetica,sans-Serif" font-size="10.00">array</text>
</a>
</g>
</g>
<!-- Node7&#45;&gt;Node8 -->
<g id="edge9" class="edge">
<title>Node7&#45;&gt;Node8</title>
<path fill="none" stroke="midnightblue" d="M534.85,-117.98C542.12,-108.96 553.76,-94.52 562.81,-83.31"/>
<polygon fill="midnightblue" stroke="midnightblue" points="565.55,-85.49 569.1,-75.51 560.1,-81.09 565.55,-85.49"/>
</g>
<!-- Node7&#45;&gt;Node9 -->
<g id="edge12" class="edge">
<title>Node7&#45;&gt;Node9</title>
<path fill="none" stroke="midnightblue" d="M544.3,-117.98C563.18,-108.12 594.48,-91.79 616.55,-80.27"/>
<polygon fill="midnightblue" stroke="midnightblue" points="618.42,-83.24 625.67,-75.51 615.18,-77.03 618.42,-83.24"/>
</g>
<!-- Node10&#45;&gt;Node5 -->
<g id="edge14" class="edge">
<title>Node10&#45;&gt;Node5</title>
<path fill="none" stroke="midnightblue" d="M299.15,-117.71C305.56,-108.02 315.16,-91.72 318.97,-76 322.93,-59.65 316.06,-41.46 309.14,-28.5"/>
<polygon fill="midnightblue" stroke="midnightblue" points="312.08,-26.59 304.01,-19.71 306.03,-30.11 312.08,-26.59"/>
</g>
<!-- Node10&#45;&gt;Node6 -->
<g id="edge15" class="edge">
<title>Node10&#45;&gt;Node6</title>
<path fill="none" stroke="midnightblue" d="M236.71,-117.98C168.34,-107.18 60.27,-88.45 45.97,-76 32.59,-64.35 26.99,-44.4 24.65,-29.67"/>
<polygon fill="midnightblue" stroke="midnightblue" points="28.11,-29.14 23.42,-19.64 21.16,-30 28.11,-29.14"/>
</g>
<!-- Node10&#45;&gt;Node11 -->
<g id="edge16" class="edge">
<title>Node10&#45;&gt;Node11</title>
<path fill="none" stroke="midnightblue" d="M310.31,-117.98C330.52,-108.03 364.16,-91.49 387.61,-79.96"/>
<polygon fill="midnightblue" stroke="midnightblue" points="389.24,-83.06 396.67,-75.51 386.15,-76.78 389.24,-83.06"/>
</g>
<!-- Node12 -->
<g id="node12" class="node">
<title>Node12</title>
<g id="a_node12"><a xlink:title=" ">
<polygon fill="none" stroke="#bfbfbf" points="265.47,-56.5 265.47,-75.5 310.47,-75.5 310.47,-56.5 265.47,-56.5"/>
<text text-anchor="middle" x="287.97" y="-63.5" font-family="Helvetica,sans-Serif" font-size="10.00">utility</text>
</a>
</g>
</g>
<!-- Node10&#45;&gt;Node12 -->
<g id="edge17" class="edge">
<title>Node10&#45;&gt;Node12</title>
<path fill="none" stroke="midnightblue" d="M292.25,-117.98C291.55,-109.58 290.45,-96.48 289.54,-85.66"/>
<polygon fill="midnightblue" stroke="midnightblue" points="293.01,-85.18 288.68,-75.51 286.03,-85.77 293.01,-85.18"/>
</g>
</g>
</svg>
        <g id="navigator" transform="translate(0 0)" fill="#404254">
                <rect fill="#f2f5e9" fill-opacity="0.5" stroke="#606060" stroke-width=".5" x="0" y="0" width="60" height="60"/>
                <use id="zoomplus" xlink:href="#zoomPlus" x="17" y="9" onmousedown="handleZoom(evt,'in')"/>
                <use id="zoomminus" xlink:href="#zoomMin" x="42" y="9" onmousedown="handleZoom(evt,'out')"/>
                <use id="reset" xlink:href="#resetDef" x="30" y="36" onmousedown="handleReset()"/>
                <g id="arrowUp" xlink:href="#dirArrow" transform="translate(30 24)" onmousedown="handlePan(0,-1)">
                  <use xlink:href="#rim" fill="#404040">
                        <set attributeName="fill" to="#808080" begin="arrowUp.mouseover" end="arrowUp.mouseout"/>
                  </use>
                  <path fill="none" stroke="white" stroke-width="1.5" d="M0,-3.0v7 M-2.5,-0.5L0,-3.0L2.5,-0.5"/>
                </g>
                <g id="arrowRight" xlink:href="#dirArrow" transform="rotate(90) translate(36 -43)" onmousedown="handlePan(1,0)">
                  <use xlink:href="#rim" fill="#404040">
                        <set attributeName="fill" to="#808080" begin="arrowRight.mouseover" end="arrowRight.mouseout"/>
                  </use>
                  <path fill="none" stroke="white" stroke-width="1.5" d="M0,-3.0v7 M-2.5,-0.5L0,-3.0L2.5,-0.5"/>
                </g>
                <g id="arrowDown" xlink:href="#dirArrow" transform="rotate(180) translate(-30 -48)" onmousedown="handlePan(0,1)">
                  <use xlink:href="#rim" fill="#404040">
                        <set attributeName="fill" to="#808080" begin="arrowDown.mouseover" end="arrowDown.mouseout"/>
                  </use>
                  <path fill="none" stroke="white" stroke-width="1.5" d="M0,-3.0v7 M-2.5,-0.5L0,-3.0L2.5,-0.5"/>
                </g>
                <g id="arrowLeft" xlink:href="#dirArrow" transform="rotate(270) translate(-36 17)" onmousedown="handlePan(-1,0)">
                  <use xlink:href="#rim" fill="#404040">
                        <set attributeName="fill" to="#808080" begin="arrowLeft.mouseover" end="arrowLeft.mouseout"/>
                  </use>
                  <path fill="none" stroke="white" stroke-width="1.5" d="M0,-3.0v7 M-2.5,-0.5L0,-3.0L2.5,-0.5"/>
                </g>
        </g>
        <svg viewBox="0 0 15 15" width="100%" height="30px" preserveAspectRatio="xMaxYMin meet">
         <g id="arrow_out" transform="scale(0.3 0.3)">
          <a xlink:href="_set_motor_parameters_8cpp__incl_org.svg" target="_base">
           <rect id="button" ry="5" rx="5" y="6" x="6" height="38" width="38"
                fill="#f2f5e9" fill-opacity="0.5" stroke="#606060" stroke-width="1.0"/>
           <path id="arrow"
             d="M 11.500037,31.436501 C 11.940474,20.09759 22.043105,11.32322 32.158766,21.979434 L 37.068811,17.246167 C 37.068811,17.246167 37.088388,32 37.088388,32 L 22.160133,31.978069 C 22.160133,31.978069 26.997745,27.140456 26.997745,27.140456 C 18.528582,18.264221 13.291696,25.230495 11.500037,31.436501 z"
             style="fill:#404040;"/>
          </a>
         </g>
        </svg>
</svg>
