<?xml version="1.0" encoding="UTF-8" standalone="no"?>
<!DOCTYPE svg PUBLIC "-//W3C//DTD SVG 1.1//EN"
 "http://www.w3.org/Graphics/SVG/1.1/DTD/svg11.dtd">
<!-- Generated by graphviz version 2.36.0 (20140111.2315)
 -->
<!-- Title: /home/travis/build/robotology/wb&#45;toolbox/toolbox/include/base/Signal.h Pages: 1 -->
<svg width="261pt" height="174pt"
 viewBox="0.00 0.00 261.00 174.00" xmlns="http://www.w3.org/2000/svg" xmlns:xlink="http://www.w3.org/1999/xlink">
<g id="graph0" class="graph" transform="scale(1 1) rotate(0) translate(4 170)">
<title>/home/travis/build/robotology/wb&#45;toolbox/toolbox/include/base/Signal.h</title>
<!-- Node1 -->
<g id="node1" class="node"><title>Node1</title>
<polygon fill="#bfbfbf" stroke="black" points="100.5,-113 100.5,-165 215.5,-165 215.5,-113 100.5,-113"/>
<text text-anchor="start" x="108.5" y="-153" font-family="Helvetica,sans-Serif" font-size="10.00">/home/travis/build</text>
<text text-anchor="start" x="108.5" y="-142" font-family="Helvetica,sans-Serif" font-size="10.00">/robotology/wb&#45;toolbox</text>
<text text-anchor="start" x="108.5" y="-131" font-family="Helvetica,sans-Serif" font-size="10.00">/toolbox/include/base</text>
<text text-anchor="middle" x="158" y="-120" font-family="Helvetica,sans-Serif" font-size="10.00">/Signal.h</text>
</g>
<!-- Node2 -->
<g id="node2" class="node"><title>Node2</title>
<g id="a_node2"><a xlink:href="_block_information_8h.html" target="_top" xlink:title="BlockInformation.h">
<polygon fill="none" stroke="black" points="18,-56.5 18,-75.5 116,-75.5 116,-56.5 18,-56.5"/>
<text text-anchor="middle" x="67" y="-63.5" font-family="Helvetica,sans-Serif" font-size="10.00">BlockInformation.h</text>
</a>
</g>
</g>
<!-- Node1&#45;&gt;Node2 -->
<g id="edge1" class="edge"><title>Node1&#45;&gt;Node2</title>
<path fill="none" stroke="midnightblue" d="M125.917,-112.968C112.705,-102.66 97.836,-91.0589 86.3407,-82.09"/>
<polygon fill="midnightblue" stroke="midnightblue" points="88.3283,-79.2015 78.2911,-75.8095 84.0223,-84.7205 88.3283,-79.2015"/>
</g>
<!-- Node5 -->
<g id="node5" class="node"><title>Node5</title>
<polygon fill="none" stroke="#bfbfbf" points="133.5,-56.5 133.5,-75.5 182.5,-75.5 182.5,-56.5 133.5,-56.5"/>
<text text-anchor="middle" x="158" y="-63.5" font-family="Helvetica,sans-Serif" font-size="10.00">cassert</text>
</g>
<!-- Node1&#45;&gt;Node5 -->
<g id="edge4" class="edge"><title>Node1&#45;&gt;Node5</title>
<path fill="none" stroke="midnightblue" d="M158,-112.768C158,-103.89 158,-94.0737 158,-85.8165"/>
<polygon fill="midnightblue" stroke="midnightblue" points="161.5,-85.7571 158,-75.7572 154.5,-85.7572 161.5,-85.7571"/>
</g>
<!-- Node6 -->
<g id="node6" class="node"><title>Node6</title>
<polygon fill="none" stroke="#bfbfbf" points="201,-56.5 201,-75.5 253,-75.5 253,-56.5 201,-56.5"/>
<text text-anchor="middle" x="227" y="-63.5" font-family="Helvetica,sans-Serif" font-size="10.00">memory</text>
</g>
<!-- Node1&#45;&gt;Node6 -->
<g id="edge5" class="edge"><title>Node1&#45;&gt;Node6</title>
<path fill="none" stroke="midnightblue" d="M182.521,-112.768C192.13,-102.881 202.869,-91.8307 211.387,-83.0656"/>
<polygon fill="midnightblue" stroke="midnightblue" points="214.03,-85.3678 218.49,-75.7572 209.01,-80.4893 214.03,-85.3678"/>
</g>
<!-- Node3 -->
<g id="node3" class="node"><title>Node3</title>
<polygon fill="none" stroke="#bfbfbf" points="0,-0.5 0,-19.5 64,-19.5 64,-0.5 0,-0.5"/>
<text text-anchor="middle" x="32" y="-7.5" font-family="Helvetica,sans-Serif" font-size="10.00">AnyType.h</text>
</g>
<!-- Node2&#45;&gt;Node3 -->
<g id="edge2" class="edge"><title>Node2&#45;&gt;Node3</title>
<path fill="none" stroke="midnightblue" d="M61.2205,-56.083C56.3276,-48.5341 49.1726,-37.4948 43.1674,-28.2298"/>
<polygon fill="midnightblue" stroke="midnightblue" points="46.048,-26.239 37.672,-19.7511 40.174,-30.0463 46.048,-26.239"/>
</g>
<!-- Node4 -->
<g id="node4" class="node"><title>Node4</title>
<polygon fill="none" stroke="#bfbfbf" points="82.5,-0.5 82.5,-19.5 123.5,-19.5 123.5,-0.5 82.5,-0.5"/>
<text text-anchor="middle" x="103" y="-7.5" font-family="Helvetica,sans-Serif" font-size="10.00">string</text>
</g>
<!-- Node2&#45;&gt;Node4 -->
<g id="edge3" class="edge"><title>Node2&#45;&gt;Node4</title>
<path fill="none" stroke="midnightblue" d="M72.9447,-56.083C77.9773,-48.5341 85.3368,-37.4948 91.5135,-28.2298"/>
<polygon fill="midnightblue" stroke="midnightblue" points="94.5311,-30.0131 97.1659,-19.7511 88.7067,-26.1301 94.5311,-30.0131"/>
</g>
</g>
</svg>
