<?xml version="1.0" encoding="UTF-8" standalone="no"?>
<!DOCTYPE svg PUBLIC "-//W3C//DTD SVG 1.1//EN"
 "http://www.w3.org/Graphics/SVG/1.1/DTD/svg11.dtd">
<!-- Generated by graphviz version 2.38.0 (20140413.2041)
 -->
<!-- Title: /home/travis/build/robotology/wb&#45;toolbox/toolbox/library/include/WBToolbox/Block/SimulatorSynchronizer.h Pages: 1 -->
<svg width="352pt" height="117pt"
 viewBox="0.00 0.00 351.50 117.00" xmlns="http://www.w3.org/2000/svg" xmlns:xlink="http://www.w3.org/1999/xlink">
<g id="graph0" class="graph" transform="scale(1 1) rotate(0) translate(4 113)">
<title>/home/travis/build/robotology/wb&#45;toolbox/toolbox/library/include/WBToolbox/Block/SimulatorSynchronizer.h</title>
<!-- Node1 -->
<g id="node1" class="node"><title>Node1</title>
<polygon fill="#bfbfbf" stroke="black" points="112,-56.5 112,-108.5 330,-108.5 330,-56.5 112,-56.5"/>
<text text-anchor="start" x="120" y="-96.5" font-family="Helvetica,sans-Serif" font-size="10.00">/home/travis/build</text>
<text text-anchor="start" x="120" y="-85.5" font-family="Helvetica,sans-Serif" font-size="10.00">/robotology/wb&#45;toolbox</text>
<text text-anchor="start" x="120" y="-74.5" font-family="Helvetica,sans-Serif" font-size="10.00">/toolbox/library/include</text>
<text text-anchor="middle" x="221" y="-63.5" font-family="Helvetica,sans-Serif" font-size="10.00">/WBToolbox/Block/SimulatorSynchronizer.h</text>
</g>
<!-- Node2 -->
<g id="node2" class="node"><title>Node2</title>
<polygon fill="none" stroke="#bfbfbf" points="0,-0.5 0,-19.5 140,-19.5 140,-0.5 0,-0.5"/>
<text text-anchor="middle" x="70" y="-7.5" font-family="Helvetica,sans-Serif" font-size="10.00">BlockFactory/Core/Block.h</text>
</g>
<!-- Node1&#45;&gt;Node2 -->
<g id="edge1" class="edge"><title>Node1&#45;&gt;Node2</title>
<path fill="none" stroke="midnightblue" d="M167.338,-56.4458C143.697,-45.4083 116.931,-32.9116 97.4584,-23.82"/>
<polygon fill="midnightblue" stroke="midnightblue" points="98.8052,-20.5862 88.2634,-19.527 95.8438,-26.9289 98.8052,-20.5862"/>
</g>
<!-- Node3 -->
<g id="node3" class="node"><title>Node3</title>
<polygon fill="none" stroke="#bfbfbf" points="158.5,-0.5 158.5,-19.5 215.5,-19.5 215.5,-0.5 158.5,-0.5"/>
<text text-anchor="middle" x="187" y="-7.5" font-family="Helvetica,sans-Serif" font-size="10.00">memory</text>
</g>
<!-- Node1&#45;&gt;Node3 -->
<g id="edge2" class="edge"><title>Node1&#45;&gt;Node3</title>
<path fill="none" stroke="midnightblue" d="M208.917,-56.4458C204.521,-47.3294 199.644,-37.2174 195.609,-28.8509"/>
<polygon fill="midnightblue" stroke="midnightblue" points="198.69,-27.1823 191.194,-19.6955 192.385,-30.2231 198.69,-27.1823"/>
</g>
<!-- Node4 -->
<g id="node4" class="node"><title>Node4</title>
<polygon fill="none" stroke="#bfbfbf" points="234,-0.5 234,-19.5 278,-19.5 278,-0.5 234,-0.5"/>
<text text-anchor="middle" x="256" y="-7.5" font-family="Helvetica,sans-Serif" font-size="10.00">string</text>
</g>
<!-- Node1&#45;&gt;Node4 -->
<g id="edge3" class="edge"><title>Node1&#45;&gt;Node4</title>
<path fill="none" stroke="midnightblue" d="M233.438,-56.4458C237.964,-47.3294 242.984,-37.2174 247.138,-28.8509"/>
<polygon fill="midnightblue" stroke="midnightblue" points="250.371,-30.2088 251.683,-19.6955 244.101,-27.0961 250.371,-30.2088"/>
</g>
<!-- Node5 -->
<g id="node5" class="node"><title>Node5</title>
<polygon fill="none" stroke="#bfbfbf" points="296.5,-0.5 296.5,-19.5 343.5,-19.5 343.5,-0.5 296.5,-0.5"/>
<text text-anchor="middle" x="320" y="-7.5" font-family="Helvetica,sans-Serif" font-size="10.00">vector</text>
</g>
<!-- Node1&#45;&gt;Node5 -->
<g id="edge4" class="edge"><title>Node1&#45;&gt;Node5</title>
<path fill="none" stroke="midnightblue" d="M256.182,-56.4458C270.672,-46.1272 286.953,-34.5333 299.444,-25.6384"/>
<polygon fill="midnightblue" stroke="midnightblue" points="301.674,-28.3472 307.789,-19.6955 297.613,-22.6452 301.674,-28.3472"/>
</g>
</g>
</svg>
