<?xml version="1.0" encoding="UTF-8" standalone="no"?>
<!DOCTYPE svg PUBLIC "-//W3C//DTD SVG 1.1//EN"
 "http://www.w3.org/Graphics/SVG/1.1/DTD/svg11.dtd">
<!-- Generated by graphviz version 2.38.0 (20140413.2041)
 -->
<!-- Title: /home/travis/build/robotology/wb&#45;toolbox/toolbox/library/src/SimulatorSynchronizer.cpp Pages: 1 -->
<svg width="1553pt" height="184pt"
 viewBox="0.00 0.00 1552.50 184.00" xmlns="http://www.w3.org/2000/svg" xmlns:xlink="http://www.w3.org/1999/xlink">
<g id="graph0" class="graph" transform="scale(1 1) rotate(0) translate(4 180)">
<title>/home/travis/build/robotology/wb&#45;toolbox/toolbox/library/src/SimulatorSynchronizer.cpp</title>
<!-- Node1 -->
<g id="node1" class="node"><title>Node1</title>
<polygon fill="#bfbfbf" stroke="black" points="871,-123.5 871,-175.5 1025,-175.5 1025,-123.5 871,-123.5"/>
<text text-anchor="start" x="879" y="-163.5" font-family="Helvetica,sans-Serif" font-size="10.00">/home/travis/build</text>
<text text-anchor="start" x="879" y="-152.5" font-family="Helvetica,sans-Serif" font-size="10.00">/robotology/wb&#45;toolbox</text>
<text text-anchor="start" x="879" y="-141.5" font-family="Helvetica,sans-Serif" font-size="10.00">/toolbox/library/src/Simulator</text>
<text text-anchor="middle" x="948" y="-130.5" font-family="Helvetica,sans-Serif" font-size="10.00">Synchronizer.cpp</text>
</g>
<!-- Node2 -->
<g id="node2" class="node"><title>Node2</title>
<g id="a_node2"><a xlink:href="_simulator_synchronizer_8h.html" target="_top" xlink:title="WBToolbox/Block/Simulator\lSynchronizer.h">
<polygon fill="none" stroke="black" points="148.5,-56.5 148.5,-86.5 293.5,-86.5 293.5,-56.5 148.5,-56.5"/>
<text text-anchor="start" x="156.5" y="-74.5" font-family="Helvetica,sans-Serif" font-size="10.00">WBToolbox/Block/Simulator</text>
<text text-anchor="middle" x="221" y="-63.5" font-family="Helvetica,sans-Serif" font-size="10.00">Synchronizer.h</text>
</a>
</g>
</g>
<!-- Node1&#45;&gt;Node2 -->
<g id="edge1" class="edge"><title>Node1&#45;&gt;Node2</title>
<path fill="none" stroke="midnightblue" d="M870.824,-143.146C751.482,-134.424 514.799,-115.36 303.855,-87.0453"/>
<polygon fill="midnightblue" stroke="midnightblue" points="304.209,-83.5614 293.83,-85.69 303.271,-90.4983 304.209,-83.5614"/>
</g>
<!-- Node7 -->
<g id="node7" class="node"><title>Node7</title>
<polygon fill="none" stroke="#bfbfbf" points="312,-62 312,-81 394,-81 394,-62 312,-62"/>
<text text-anchor="middle" x="353" y="-69" font-family="Helvetica,sans-Serif" font-size="10.00">ClockServer.h</text>
</g>
<!-- Node1&#45;&gt;Node7 -->
<g id="edge6" class="edge"><title>Node1&#45;&gt;Node7</title>
<path fill="none" stroke="midnightblue" d="M870.646,-143.922C764.42,-136.696 567.8,-119.946 403,-87 398.491,-86.0986 393.8,-84.9828 389.176,-83.7734"/>
<polygon fill="midnightblue" stroke="midnightblue" points="389.832,-80.3234 379.261,-81.0234 387.961,-87.0688 389.832,-80.3234"/>
</g>
<!-- Node8 -->
<g id="node8" class="node"><title>Node8</title>
<polygon fill="none" stroke="#bfbfbf" points="412,-62 412,-81 606,-81 606,-62 412,-62"/>
<text text-anchor="middle" x="509" y="-69" font-family="Helvetica,sans-Serif" font-size="10.00">BlockFactory/Core/BlockInformation.h</text>
</g>
<!-- Node1&#45;&gt;Node8 -->
<g id="edge7" class="edge"><title>Node1&#45;&gt;Node8</title>
<path fill="none" stroke="midnightblue" d="M870.778,-135.131C784.483,-120.192 646.637,-96.3278 568.37,-82.7782"/>
<polygon fill="midnightblue" stroke="midnightblue" points="568.649,-79.2745 558.198,-81.0173 567.455,-86.1719 568.649,-79.2745"/>
</g>
<!-- Node9 -->
<g id="node9" class="node"><title>Node9</title>
<polygon fill="none" stroke="#bfbfbf" points="624.5,-62 624.5,-81 755.5,-81 755.5,-62 624.5,-62"/>
<text text-anchor="middle" x="690" y="-69" font-family="Helvetica,sans-Serif" font-size="10.00">BlockFactory/Core/Log.h</text>
</g>
<!-- Node1&#45;&gt;Node9 -->
<g id="edge8" class="edge"><title>Node1&#45;&gt;Node9</title>
<path fill="none" stroke="midnightblue" d="M870.941,-125.8C824.252,-112.047 766.666,-95.0837 729.176,-84.0402"/>
<polygon fill="midnightblue" stroke="midnightblue" points="729.742,-80.5584 719.161,-81.09 727.764,-87.2731 729.742,-80.5584"/>
</g>
<!-- Node10 -->
<g id="node10" class="node"><title>Node10</title>
<polygon fill="none" stroke="#bfbfbf" points="774,-62 774,-81 938,-81 938,-62 774,-62"/>
<text text-anchor="middle" x="856" y="-69" font-family="Helvetica,sans-Serif" font-size="10.00">BlockFactory/Core/Parameter.h</text>
</g>
<!-- Node1&#45;&gt;Node10 -->
<g id="edge9" class="edge"><title>Node1&#45;&gt;Node10</title>
<path fill="none" stroke="midnightblue" d="M917.621,-123.404C903.332,-111.601 886.762,-97.9121 874.406,-87.7046"/>
<polygon fill="midnightblue" stroke="midnightblue" points="876.543,-84.9304 866.604,-81.2599 872.085,-90.3271 876.543,-84.9304"/>
</g>
<!-- Node11 -->
<g id="node11" class="node"><title>Node11</title>
<polygon fill="none" stroke="#bfbfbf" points="956,-62 956,-81 1126,-81 1126,-62 956,-62"/>
<text text-anchor="middle" x="1041" y="-69" font-family="Helvetica,sans-Serif" font-size="10.00">BlockFactory/Core/Parameters.h</text>
</g>
<!-- Node1&#45;&gt;Node11 -->
<g id="edge10" class="edge"><title>Node1&#45;&gt;Node11</title>
<path fill="none" stroke="midnightblue" d="M978.709,-123.404C993.153,-111.601 1009.9,-97.9121 1022.39,-87.7046"/>
<polygon fill="midnightblue" stroke="midnightblue" points="1024.75,-90.2979 1030.28,-81.2599 1020.32,-84.8776 1024.75,-90.2979"/>
</g>
<!-- Node12 -->
<g id="node12" class="node"><title>Node12</title>
<polygon fill="none" stroke="#bfbfbf" points="1144.5,-62 1144.5,-81 1247.5,-81 1247.5,-62 1144.5,-62"/>
<text text-anchor="middle" x="1196" y="-69" font-family="Helvetica,sans-Serif" font-size="10.00">yarp/os/Network.h</text>
</g>
<!-- Node1&#45;&gt;Node12 -->
<g id="edge11" class="edge"><title>Node1&#45;&gt;Node12</title>
<path fill="none" stroke="midnightblue" d="M1025.11,-124.87C1069.37,-111.306 1122.98,-94.8784 1158.21,-84.0821"/>
<polygon fill="midnightblue" stroke="midnightblue" points="1159.54,-87.3343 1168.07,-81.0578 1157.49,-80.6415 1159.54,-87.3343"/>
</g>
<!-- Node13 -->
<g id="node13" class="node"><title>Node13</title>
<polygon fill="none" stroke="#bfbfbf" points="1265.5,-62 1265.5,-81 1348.5,-81 1348.5,-62 1265.5,-62"/>
<text text-anchor="middle" x="1307" y="-69" font-family="Helvetica,sans-Serif" font-size="10.00">yarp/os/Port.h</text>
</g>
<!-- Node1&#45;&gt;Node13 -->
<g id="edge12" class="edge"><title>Node1&#45;&gt;Node13</title>
<path fill="none" stroke="midnightblue" d="M1025.23,-135.03C1087.98,-123.63 1178.62,-106.128 1257,-87 1261.05,-86.0116 1265.26,-84.9087 1269.45,-83.7646"/>
<polygon fill="midnightblue" stroke="midnightblue" points="1270.4,-87.1324 1279.08,-81.0548 1268.51,-80.394 1270.4,-87.1324"/>
</g>
<!-- Node14 -->
<g id="node14" class="node"><title>Node14</title>
<polygon fill="none" stroke="#bfbfbf" points="1366.5,-62 1366.5,-81 1469.5,-81 1469.5,-62 1366.5,-62"/>
<text text-anchor="middle" x="1418" y="-69" font-family="Helvetica,sans-Serif" font-size="10.00">yarp/os/WireLink.h</text>
</g>
<!-- Node1&#45;&gt;Node14 -->
<g id="edge13" class="edge"><title>Node1&#45;&gt;Node14</title>
<path fill="none" stroke="midnightblue" d="M1025.05,-139.007C1107.71,-128.341 1242.68,-109.538 1358,-87 1363.52,-85.9208 1369.3,-84.6745 1375,-83.3749"/>
<polygon fill="midnightblue" stroke="midnightblue" points="1376.17,-86.6961 1385.1,-81.0027 1374.57,-79.8815 1376.17,-86.6961"/>
</g>
<!-- Node15 -->
<g id="node15" class="node"><title>Node15</title>
<polygon fill="none" stroke="#bfbfbf" points="1487.5,-62 1487.5,-81 1544.5,-81 1544.5,-62 1487.5,-62"/>
<text text-anchor="middle" x="1516" y="-69" font-family="Helvetica,sans-Serif" font-size="10.00">ostream</text>
</g>
<!-- Node1&#45;&gt;Node15 -->
<g id="edge14" class="edge"><title>Node1&#45;&gt;Node15</title>
<path fill="none" stroke="midnightblue" d="M1025.17,-145.794C1129.51,-140.73 1320.74,-126.467 1479,-87 1481.67,-86.3343 1484.4,-85.5242 1487.12,-84.6308"/>
<polygon fill="midnightblue" stroke="midnightblue" points="1488.52,-87.8465 1496.72,-81.1397 1486.13,-81.268 1488.52,-87.8465"/>
</g>
<!-- Node3 -->
<g id="node3" class="node"><title>Node3</title>
<polygon fill="none" stroke="#bfbfbf" points="0,-0.5 0,-19.5 140,-19.5 140,-0.5 0,-0.5"/>
<text text-anchor="middle" x="70" y="-7.5" font-family="Helvetica,sans-Serif" font-size="10.00">BlockFactory/Core/Block.h</text>
</g>
<!-- Node2&#45;&gt;Node3 -->
<g id="edge2" class="edge"><title>Node2&#45;&gt;Node3</title>
<path fill="none" stroke="midnightblue" d="M185.215,-56.3993C159.767,-46.3717 125.903,-33.028 101.482,-23.405"/>
<polygon fill="midnightblue" stroke="midnightblue" points="102.559,-20.0676 91.9718,-19.6578 99.9925,-26.5802 102.559,-20.0676"/>
</g>
<!-- Node4 -->
<g id="node4" class="node"><title>Node4</title>
<polygon fill="none" stroke="#bfbfbf" points="158.5,-0.5 158.5,-19.5 215.5,-19.5 215.5,-0.5 158.5,-0.5"/>
<text text-anchor="middle" x="187" y="-7.5" font-family="Helvetica,sans-Serif" font-size="10.00">memory</text>
</g>
<!-- Node2&#45;&gt;Node4 -->
<g id="edge3" class="edge"><title>Node2&#45;&gt;Node4</title>
<path fill="none" stroke="midnightblue" d="M212.942,-56.3993C208.155,-48.0207 202.044,-37.3269 196.956,-28.4229"/>
<polygon fill="midnightblue" stroke="midnightblue" points="199.948,-26.6037 191.947,-19.6578 193.87,-30.0767 199.948,-26.6037"/>
</g>
<!-- Node5 -->
<g id="node5" class="node"><title>Node5</title>
<polygon fill="none" stroke="#bfbfbf" points="234,-0.5 234,-19.5 278,-19.5 278,-0.5 234,-0.5"/>
<text text-anchor="middle" x="256" y="-7.5" font-family="Helvetica,sans-Serif" font-size="10.00">string</text>
</g>
<!-- Node2&#45;&gt;Node5 -->
<g id="edge4" class="edge"><title>Node2&#45;&gt;Node5</title>
<path fill="none" stroke="midnightblue" d="M229.295,-56.3993C234.223,-48.0207 240.514,-37.3269 245.751,-28.4229"/>
<polygon fill="midnightblue" stroke="midnightblue" points="248.854,-30.0517 250.907,-19.6578 242.82,-26.5025 248.854,-30.0517"/>
</g>
<!-- Node6 -->
<g id="node6" class="node"><title>Node6</title>
<polygon fill="none" stroke="#bfbfbf" points="296.5,-0.5 296.5,-19.5 343.5,-19.5 343.5,-0.5 296.5,-0.5"/>
<text text-anchor="middle" x="320" y="-7.5" font-family="Helvetica,sans-Serif" font-size="10.00">vector</text>
</g>
<!-- Node2&#45;&gt;Node6 -->
<g id="edge5" class="edge"><title>Node2&#45;&gt;Node6</title>
<path fill="none" stroke="midnightblue" d="M244.462,-56.3993C260.331,-46.8619 281.191,-34.3248 296.968,-24.8422"/>
<polygon fill="midnightblue" stroke="midnightblue" points="298.826,-27.809 305.595,-19.6578 295.221,-21.8093 298.826,-27.809"/>
</g>
</g>
</svg>
