<?xml version="1.0" encoding="UTF-8" standalone="no"?>
<!DOCTYPE svg PUBLIC "-//W3C//DTD SVG 1.1//EN"
 "http://www.w3.org/Graphics/SVG/1.1/DTD/svg11.dtd">
<!-- Generated by graphviz version 2.36.0 (20140111.2315)
 -->
<!-- Title: /home/travis/build/robotology/wb&#45;toolbox/toolbox/library/include/Block/SimulatorSynchronizer.h Pages: 1 -->
<svg width="263pt" height="230pt"
 viewBox="0.00 0.00 263.00 230.00" xmlns="http://www.w3.org/2000/svg" xmlns:xlink="http://www.w3.org/1999/xlink">
<g id="graph0" class="graph" transform="scale(1 1) rotate(0) translate(4 226)">
<title>/home/travis/build/robotology/wb&#45;toolbox/toolbox/library/include/Block/SimulatorSynchronizer.h</title>
<!-- Node1 -->
<g id="node1" class="node"><title>Node1</title>
<polygon fill="#bfbfbf" stroke="black" points="20,-169 20,-221 174,-221 174,-169 20,-169"/>
<text text-anchor="start" x="28" y="-209" font-family="Helvetica,sans-Serif" font-size="10.00">/home/travis/build</text>
<text text-anchor="start" x="28" y="-198" font-family="Helvetica,sans-Serif" font-size="10.00">/robotology/wb&#45;toolbox</text>
<text text-anchor="start" x="28" y="-187" font-family="Helvetica,sans-Serif" font-size="10.00">/toolbox/library/include</text>
<text text-anchor="middle" x="97" y="-176" font-family="Helvetica,sans-Serif" font-size="10.00">/Block/SimulatorSynchronizer.h</text>
</g>
<!-- Node2 -->
<g id="node2" class="node"><title>Node2</title>
<g id="a_node2"><a xlink:href="_block_8h.html" target="_top" xlink:title="Core/Block.h">
<polygon fill="none" stroke="black" points="119,-112.5 119,-131.5 193,-131.5 193,-112.5 119,-112.5"/>
<text text-anchor="middle" x="156" y="-119.5" font-family="Helvetica,sans-Serif" font-size="10.00">Core/Block.h</text>
</a>
</g>
</g>
<!-- Node1&#45;&gt;Node2 -->
<g id="edge1" class="edge"><title>Node1&#45;&gt;Node2</title>
<path fill="none" stroke="midnightblue" d="M117.967,-168.768C126.016,-159.083 134.992,-148.281 142.201,-139.605"/>
<polygon fill="midnightblue" stroke="midnightblue" points="145.024,-141.685 148.723,-131.757 139.64,-137.211 145.024,-141.685"/>
</g>
<!-- Node4 -->
<g id="node4" class="node"><title>Node4</title>
<polygon fill="none" stroke="#bfbfbf" points="0,-0.5 0,-19.5 52,-19.5 52,-0.5 0,-0.5"/>
<text text-anchor="middle" x="26" y="-7.5" font-family="Helvetica,sans-Serif" font-size="10.00">memory</text>
</g>
<!-- Node1&#45;&gt;Node4 -->
<g id="edge8" class="edge"><title>Node1&#45;&gt;Node4</title>
<path fill="none" stroke="midnightblue" d="M74.3473,-168.741C65.859,-158.067 56.8613,-145.089 51,-132 35.712,-97.8606 29.6516,-54.0863 27.3412,-29.6444"/>
<polygon fill="midnightblue" stroke="midnightblue" points="30.8227,-29.2761 26.5039,-19.6015 23.8469,-29.8577 30.8227,-29.2761"/>
</g>
<!-- Node5 -->
<g id="node5" class="node"><title>Node5</title>
<polygon fill="none" stroke="#bfbfbf" points="96.5,-0.5 96.5,-19.5 137.5,-19.5 137.5,-0.5 96.5,-0.5"/>
<text text-anchor="middle" x="117" y="-7.5" font-family="Helvetica,sans-Serif" font-size="10.00">string</text>
</g>
<!-- Node1&#45;&gt;Node5 -->
<g id="edge9" class="edge"><title>Node1&#45;&gt;Node5</title>
<path fill="none" stroke="midnightblue" d="M79.2899,-168.815C61.6399,-140.352 39.6117,-93.1514 58,-56 64.603,-42.6595 77.2649,-32.1941 89.1712,-24.7262"/>
<polygon fill="midnightblue" stroke="midnightblue" points="91.1178,-27.6435 98.0158,-19.6018 87.6086,-21.5866 91.1178,-27.6435"/>
</g>
<!-- Node6 -->
<g id="node6" class="node"><title>Node6</title>
<polygon fill="none" stroke="#bfbfbf" points="211,-0.5 211,-19.5 255,-19.5 255,-0.5 211,-0.5"/>
<text text-anchor="middle" x="233" y="-7.5" font-family="Helvetica,sans-Serif" font-size="10.00">vector</text>
</g>
<!-- Node1&#45;&gt;Node6 -->
<g id="edge10" class="edge"><title>Node1&#45;&gt;Node6</title>
<path fill="none" stroke="midnightblue" d="M157.487,-168.975C174.003,-159.557 190.495,-147.32 202,-132 225.036,-101.324 231.038,-55.2626 232.548,-29.7288"/>
<polygon fill="midnightblue" stroke="midnightblue" points="236.052,-29.7074 232.971,-19.5705 229.058,-29.4163 236.052,-29.7074"/>
</g>
<!-- Node3 -->
<g id="node3" class="node"><title>Node3</title>
<g id="a_node3"><a xlink:href="_parameters_8h.html" target="_top" xlink:title="Core/Parameters.h">
<polygon fill="none" stroke="black" points="67.5,-56.5 67.5,-75.5 166.5,-75.5 166.5,-56.5 67.5,-56.5"/>
<text text-anchor="middle" x="117" y="-63.5" font-family="Helvetica,sans-Serif" font-size="10.00">Core/Parameters.h</text>
</a>
</g>
</g>
<!-- Node2&#45;&gt;Node3 -->
<g id="edge2" class="edge"><title>Node2&#45;&gt;Node3</title>
<path fill="none" stroke="midnightblue" d="M149.56,-112.083C144.051,-104.455 135.969,-93.2645 129.235,-83.9408"/>
<polygon fill="midnightblue" stroke="midnightblue" points="132.013,-81.8087 123.32,-75.7511 126.338,-85.9071 132.013,-81.8087"/>
</g>
<!-- Node2&#45;&gt;Node5 -->
<g id="edge6" class="edge"><title>Node2&#45;&gt;Node5</title>
<path fill="none" stroke="midnightblue" d="M162.491,-112.24C171.134,-99.4193 184.309,-75.005 175,-56 168.477,-42.6839 155.904,-32.177 144.127,-24.6761"/>
<polygon fill="midnightblue" stroke="midnightblue" points="145.782,-21.5891 135.389,-19.5294 142.229,-27.6205 145.782,-21.5891"/>
</g>
<!-- Node2&#45;&gt;Node6 -->
<g id="edge7" class="edge"><title>Node2&#45;&gt;Node6</title>
<path fill="none" stroke="midnightblue" d="M163.207,-112.209C170.453,-103.263 181.833,-88.9127 191,-76 202.265,-60.1316 214.228,-41.4117 222.493,-28.1468"/>
<polygon fill="midnightblue" stroke="midnightblue" points="225.513,-29.9171 227.794,-19.5708 219.559,-26.2363 225.513,-29.9171"/>
</g>
<!-- Node3&#45;&gt;Node4 -->
<g id="edge3" class="edge"><title>Node3&#45;&gt;Node4</title>
<path fill="none" stroke="midnightblue" d="M102.379,-56.324C88.0511,-47.8215 65.9875,-34.7288 49.2513,-24.7975"/>
<polygon fill="midnightblue" stroke="midnightblue" points="50.9704,-21.7478 40.5844,-19.6545 47.3982,-27.7677 50.9704,-21.7478"/>
</g>
<!-- Node3&#45;&gt;Node5 -->
<g id="edge4" class="edge"><title>Node3&#45;&gt;Node5</title>
<path fill="none" stroke="midnightblue" d="M117,-56.083C117,-49.0059 117,-38.8611 117,-29.9865"/>
<polygon fill="midnightblue" stroke="midnightblue" points="120.5,-29.751 117,-19.7511 113.5,-29.7511 120.5,-29.751"/>
</g>
<!-- Node3&#45;&gt;Node6 -->
<g id="edge5" class="edge"><title>Node3&#45;&gt;Node6</title>
<path fill="none" stroke="midnightblue" d="M135.381,-56.4435C154.216,-47.6751 183.731,-33.9355 205.379,-23.8579"/>
<polygon fill="midnightblue" stroke="midnightblue" points="207.117,-26.9098 214.705,-19.5164 204.162,-20.5637 207.117,-26.9098"/>
</g>
</g>
</svg>
