<?xml version="1.0" encoding="UTF-8" standalone="no"?>
<!DOCTYPE svg PUBLIC "-//W3C//DTD SVG 1.1//EN"
 "http://www.w3.org/Graphics/SVG/1.1/DTD/svg11.dtd">
<!-- Generated by graphviz version 2.36.0 (20140111.2315)
 -->
<!-- Title: /home/travis/build/robotology/wb&#45;toolbox/toolbox/src/base/ToolboxSingleton.cpp Pages: 1 -->
<!--zoomable 218 -->
<svg id="main" version="1.1" xmlns="http://www.w3.org/2000/svg" xmlns:xlink="http://www.w3.org/1999/xlink" xml:space="preserve" onload="init(evt)">
<style type="text/css"><![CDATA[
.edge:hover path { stroke: red; }
.edge:hover polygon { stroke: red; fill: red; }
]]></style>
<script type="text/javascript"><![CDATA[
var edges = document.getElementsByTagName('g');
if (edges && edges.length) {
  for (var i=0;i<edges.length;i++) {
    if (edges[i].id.substr(0,4)=='edge') {
      edges[i].setAttribute('class','edge');
    }
  }
}
]]></script>
        <defs>
                <circle id="rim" cx="0" cy="0" r="7"/>
                <circle id="rim2" cx="0" cy="0" r="3.5"/>
                <g id="zoomPlus">
                        <use xlink:href="#rim" fill="#404040">
                                <set attributeName="fill" to="#808080" begin="zoomplus.mouseover" end="zoomplus.mouseout"/>
                        </use>
                        <path d="M-4,0h8M0,-4v8" fill="none" stroke="white" stroke-width="1.5" pointer-events="none"/>
                </g>
                <g id="zoomMin">
                        <use xlink:href="#rim" fill="#404040">
                                <set attributeName="fill" to="#808080" begin="zoomminus.mouseover" end="zoomminus.mouseout"/>
                        </use>
                        <path d="M-4,0h8" fill="none" stroke="white" stroke-width="1.5" pointer-events="none"/>
                </g>
                <g id="dirArrow">
                        <path fill="none" stroke="white" stroke-width="1.5" d="M0,-3.0v7 M-2.5,-0.5L0,-3.0L2.5,-0.5"/>
                </g>
               <g id="resetDef">
                       <use xlink:href="#rim2" fill="#404040">
                               <set attributeName="fill" to="#808080" begin="reset.mouseover" end="reset.mouseout"/>
                       </use>
               </g>
        </defs>

<script type="text/javascript">
var viewWidth = 967;
var viewHeight = 218;
var sectionId = 'dynsection-0';
</script>
<script xlink:href="svgpan.js"/>
<svg id="graph" class="graph">
<g id="viewport">
<title>/home/travis/build/robotology/wb&#45;toolbox/toolbox/src/base/ToolboxSingleton.cpp</title>
<!-- Node1 -->
<g id="node1" class="node"><title>Node1</title>
<polygon fill="#bfbfbf" stroke="black" points="269.923,-168.5 269.923,-209.5 457.923,-209.5 457.923,-168.5 269.923,-168.5"/>
<text text-anchor="start" x="277.923" y="-197.5" font-family="Helvetica,sans-Serif" font-size="10.00">/home/travis/build</text>
<text text-anchor="start" x="277.923" y="-186.5" font-family="Helvetica,sans-Serif" font-size="10.00">/robotology/wb&#45;toolbox</text>
<text text-anchor="middle" x="363.923" y="-175.5" font-family="Helvetica,sans-Serif" font-size="10.00">/toolbox/src/base/ToolboxSingleton.cpp</text>
</g>
<!-- Node2 -->
<g id="node2" class="node"><title>Node2</title>
<g id="a_node2"><a xlink:href="_toolbox_singleton_8h.html" target="_top" xlink:title="ToolboxSingleton.h">
<polygon fill="none" stroke="black" points="116.923,-112.5 116.923,-131.5 216.923,-131.5 216.923,-112.5 116.923,-112.5"/>
<text text-anchor="middle" x="166.923" y="-119.5" font-family="Helvetica,sans-Serif" font-size="10.00">ToolboxSingleton.h</text>
</a>
</g>
</g>
<!-- Node1&#45;&gt;Node2 -->
<g id="edge1" class="edge"><title>Node1&#45;&gt;Node2</title>
<path fill="none" stroke="midnightblue" d="M304.816,-168.498C271.462,-157.493 230.892,-144.106 202.422,-134.713"/>
<polygon fill="midnightblue" stroke="midnightblue" points="203.481,-131.377 192.888,-131.567 201.287,-138.024 203.481,-131.377"/>
</g>
<!-- Node3 -->
<g id="node3" class="node"><title>Node3</title>
<polygon fill="none" stroke="#bfbfbf" points="20.4228,-0.5 20.4228,-19.5 61.4228,-19.5 61.4228,-0.5 20.4228,-0.5"/>
<text text-anchor="middle" x="40.9228" y="-7.5" font-family="Helvetica,sans-Serif" font-size="10.00">string</text>
</g>
<!-- Node1&#45;&gt;Node3 -->
<g id="edge21" class="edge"><title>Node1&#45;&gt;Node3</title>
<path fill="none" stroke="midnightblue" d="M269.615,-180.242C212.265,-172.954 138.629,-158.918 77.9228,-132 39.8936,-115.137 21.5667,-113.188 2.9228,-76 -5.79419,-58.6125 8.45993,-39.4781 21.9267,-26.5017"/>
<polygon fill="midnightblue" stroke="midnightblue" points="24.4777,-28.9152 29.5852,-19.6327 19.8039,-23.7042 24.4777,-28.9152"/>
</g>
<!-- Node9 -->
<g id="node9" class="node"><title>Node9</title>
<g id="a_node9"><a xlink:href="_log_8h.html" target="_top" xlink:title="Log.h">
<polygon fill="none" stroke="black" points="20.4228,-56.5 20.4228,-75.5 61.4228,-75.5 61.4228,-56.5 20.4228,-56.5"/>
<text text-anchor="middle" x="40.9228" y="-63.5" font-family="Helvetica,sans-Serif" font-size="10.00">Log.h</text>
</a>
</g>
</g>
<!-- Node1&#45;&gt;Node9 -->
<g id="edge10" class="edge"><title>Node1&#45;&gt;Node9</title>
<path fill="none" stroke="midnightblue" d="M269.871,-180.02C219.489,-172.718 157.725,-158.743 107.923,-132 85.7227,-120.079 65.7741,-98.6608 53.5314,-83.6796"/>
<polygon fill="midnightblue" stroke="midnightblue" points="56.1963,-81.4066 47.2548,-75.7232 50.7005,-85.7421 56.1963,-81.4066"/>
</g>
<!-- Node10 -->
<g id="node10" class="node"><title>Node10</title>
<g id="a_node10"><a xlink:href="_robot_interface_8h.html" target="_top" xlink:title="RobotInterface.h">
<polygon fill="none" stroke="black" points="248.423,-112.5 248.423,-131.5 337.423,-131.5 337.423,-112.5 248.423,-112.5"/>
<text text-anchor="middle" x="292.923" y="-119.5" font-family="Helvetica,sans-Serif" font-size="10.00">RobotInterface.h</text>
</a>
</g>
</g>
<!-- Node1&#45;&gt;Node10 -->
<g id="edge13" class="edge"><title>Node1&#45;&gt;Node10</title>
<path fill="none" stroke="midnightblue" d="M342.62,-168.498C332.153,-158.915 319.715,-147.528 309.9,-138.543"/>
<polygon fill="midnightblue" stroke="midnightblue" points="312.113,-135.824 302.374,-131.652 307.386,-140.987 312.113,-135.824"/>
</g>
<!-- Node13 -->
<g id="node13" class="node"><title>Node13</title>
<polygon fill="none" stroke="#bfbfbf" points="355.423,-112.5 355.423,-131.5 516.423,-131.5 516.423,-112.5 355.423,-112.5"/>
<text text-anchor="middle" x="435.923" y="-119.5" font-family="Helvetica,sans-Serif" font-size="10.00">iDynTree/KinDynComputations.h</text>
</g>
<!-- Node1&#45;&gt;Node13 -->
<g id="edge22" class="edge"><title>Node1&#45;&gt;Node13</title>
<path fill="none" stroke="midnightblue" d="M385.525,-168.498C396.14,-158.915 408.753,-147.528 418.706,-138.543"/>
<polygon fill="midnightblue" stroke="midnightblue" points="421.261,-140.952 426.339,-131.652 416.57,-135.756 421.261,-140.952"/>
</g>
<!-- Node14 -->
<g id="node14" class="node"><title>Node14</title>
<polygon fill="none" stroke="#bfbfbf" points="534.423,-112.5 534.423,-131.5 697.423,-131.5 697.423,-112.5 534.423,-112.5"/>
<text text-anchor="middle" x="615.923" y="-119.5" font-family="Helvetica,sans-Serif" font-size="10.00">iDynTree/ModelIO/ModelLoader.h</text>
</g>
<!-- Node1&#45;&gt;Node14 -->
<g id="edge23" class="edge"><title>Node1&#45;&gt;Node14</title>
<path fill="none" stroke="midnightblue" d="M439.531,-168.498C483.13,-157.252 536.365,-143.521 572.876,-134.103"/>
<polygon fill="midnightblue" stroke="midnightblue" points="573.9,-137.454 582.709,-131.567 572.152,-130.676 573.9,-137.454"/>
</g>
<!-- Node15 -->
<g id="node15" class="node"><title>Node15</title>
<polygon fill="none" stroke="#bfbfbf" points="715.423,-112.5 715.423,-131.5 844.423,-131.5 844.423,-112.5 715.423,-112.5"/>
<text text-anchor="middle" x="779.923" y="-119.5" font-family="Helvetica,sans-Serif" font-size="10.00">yarp/os/ResourceFinder.h</text>
</g>
<!-- Node1&#45;&gt;Node15 -->
<g id="edge24" class="edge"><title>Node1&#45;&gt;Node15</title>
<path fill="none" stroke="midnightblue" d="M458.06,-173.291C536.484,-161.037 646.123,-143.906 715.051,-133.136"/>
<polygon fill="midnightblue" stroke="midnightblue" points="715.995,-136.531 725.334,-131.529 714.914,-129.615 715.995,-136.531"/>
</g>
<!-- Node16 -->
<g id="node16" class="node"><title>Node16</title>
<polygon fill="none" stroke="#bfbfbf" points="862.423,-112.5 862.423,-131.5 959.423,-131.5 959.423,-112.5 862.423,-112.5"/>
<text text-anchor="middle" x="910.923" y="-119.5" font-family="Helvetica,sans-Serif" font-size="10.00">yarp/os/Network.h</text>
</g>
<!-- Node1&#45;&gt;Node16 -->
<g id="edge25" class="edge"><title>Node1&#45;&gt;Node16</title>
<path fill="none" stroke="midnightblue" d="M458.262,-178.325C554.535,-168.194 708.52,-151.279 851.905,-132.089"/>
<polygon fill="midnightblue" stroke="midnightblue" points="852.765,-135.505 862.209,-130.703 851.832,-128.567 852.765,-135.505"/>
</g>
<!-- Node2&#45;&gt;Node3 -->
<g id="edge2" class="edge"><title>Node2&#45;&gt;Node3</title>
<path fill="none" stroke="midnightblue" d="M116.579,-113.156C76.0375,-105.69 23.7593,-93.0627 10.9228,-76 -0.444978,-60.8895 12.2947,-40.7819 24.5028,-26.9536"/>
<polygon fill="midnightblue" stroke="midnightblue" points="27.1098,-29.2908 31.443,-19.6226 22.0264,-24.4784 27.1098,-29.2908"/>
</g>
<!-- Node4 -->
<g id="node4" class="node"><title>Node4</title>
<polygon fill="none" stroke="#bfbfbf" points="184.923,-0.5 184.923,-19.5 228.923,-19.5 228.923,-0.5 184.923,-0.5"/>
<text text-anchor="middle" x="206.923" y="-7.5" font-family="Helvetica,sans-Serif" font-size="10.00">vector</text>
</g>
<!-- Node2&#45;&gt;Node4 -->
<g id="edge3" class="edge"><title>Node2&#45;&gt;Node4</title>
<path fill="none" stroke="midnightblue" d="M149.261,-112.489C127.357,-100.727 94.5549,-78.4077 108.923,-56 123.382,-33.4493 152.294,-22.049 174.984,-16.3794"/>
<polygon fill="midnightblue" stroke="midnightblue" points="175.905,-19.76 184.898,-14.1583 174.375,-12.9293 175.905,-19.76"/>
</g>
<!-- Node5 -->
<g id="node5" class="node"><title>Node5</title>
<polygon fill="none" stroke="#bfbfbf" points="219.923,-56.5 219.923,-75.5 271.923,-75.5 271.923,-56.5 219.923,-56.5"/>
<text text-anchor="middle" x="245.923" y="-63.5" font-family="Helvetica,sans-Serif" font-size="10.00">memory</text>
</g>
<!-- Node2&#45;&gt;Node5 -->
<g id="edge4" class="edge"><title>Node2&#45;&gt;Node5</title>
<path fill="none" stroke="midnightblue" d="M179.616,-112.324C191.824,-103.979 210.501,-91.2122 224.926,-81.3524"/>
<polygon fill="midnightblue" stroke="midnightblue" points="226.981,-84.1871 233.262,-75.6545 223.031,-78.4082 226.981,-84.1871"/>
</g>
<!-- Node6 -->
<g id="node6" class="node"><title>Node6</title>
<polygon fill="none" stroke="#bfbfbf" points="118.423,-56.5 118.423,-75.5 201.423,-75.5 201.423,-56.5 118.423,-56.5"/>
<text text-anchor="middle" x="159.923" y="-63.5" font-family="Helvetica,sans-Serif" font-size="10.00">unordered_map</text>
</g>
<!-- Node2&#45;&gt;Node6 -->
<g id="edge5" class="edge"><title>Node2&#45;&gt;Node6</title>
<path fill="none" stroke="midnightblue" d="M165.767,-112.083C164.839,-104.927 163.505,-94.6353 162.346,-85.6911"/>
<polygon fill="midnightblue" stroke="midnightblue" points="165.814,-85.2181 161.057,-75.7511 158.872,-86.1181 165.814,-85.2181"/>
</g>
<!-- Node7 -->
<g id="node7" class="node"><title>Node7</title>
<g id="a_node7"><a xlink:href="_configuration_8h.html" target="_top" xlink:title="Configuration.h">
<polygon fill="none" stroke="black" points="328.423,-56.5 328.423,-75.5 411.423,-75.5 411.423,-56.5 328.423,-56.5"/>
<text text-anchor="middle" x="369.923" y="-63.5" font-family="Helvetica,sans-Serif" font-size="10.00">Configuration.h</text>
</a>
</g>
</g>
<!-- Node2&#45;&gt;Node7 -->
<g id="edge6" class="edge"><title>Node2&#45;&gt;Node7</title>
<path fill="none" stroke="midnightblue" d="M199.089,-112.444C233.982,-103.162 289.816,-88.3093 328.094,-78.127"/>
<polygon fill="midnightblue" stroke="midnightblue" points="329.143,-81.4696 337.907,-75.5164 327.344,-74.7048 329.143,-81.4696"/>
</g>
<!-- Node7&#45;&gt;Node3 -->
<g id="edge9" class="edge"><title>Node7&#45;&gt;Node3</title>
<path fill="none" stroke="midnightblue" d="M328.255,-58.1609C261.214,-47.1573 130.937,-25.7744 71.6424,-16.0421"/>
<polygon fill="midnightblue" stroke="midnightblue" points="72.1936,-12.5858 61.7587,-14.4199 71.0597,-19.4934 72.1936,-12.5858"/>
</g>
<!-- Node7&#45;&gt;Node4 -->
<g id="edge7" class="edge"><title>Node7&#45;&gt;Node4</title>
<path fill="none" stroke="midnightblue" d="M344.095,-56.4435C315.544,-46.985 269.533,-31.7421 238.771,-21.551"/>
<polygon fill="midnightblue" stroke="midnightblue" points="239.564,-18.1266 228.971,-18.3042 237.363,-24.7715 239.564,-18.1266"/>
</g>
<!-- Node8 -->
<g id="node8" class="node"><title>Node8</title>
<polygon fill="none" stroke="#bfbfbf" points="350.923,-0.5 350.923,-19.5 388.923,-19.5 388.923,-0.5 350.923,-0.5"/>
<text text-anchor="middle" x="369.923" y="-7.5" font-family="Helvetica,sans-Serif" font-size="10.00">array</text>
</g>
<!-- Node7&#45;&gt;Node8 -->
<g id="edge8" class="edge"><title>Node7&#45;&gt;Node8</title>
<path fill="none" stroke="midnightblue" d="M369.923,-56.083C369.923,-49.0059 369.923,-38.8611 369.923,-29.9865"/>
<polygon fill="midnightblue" stroke="midnightblue" points="373.423,-29.751 369.923,-19.7511 366.423,-29.7511 373.423,-29.751"/>
</g>
<!-- Node9&#45;&gt;Node3 -->
<g id="edge11" class="edge"><title>Node9&#45;&gt;Node3</title>
<path fill="none" stroke="midnightblue" d="M40.9228,-56.083C40.9228,-49.0059 40.9228,-38.8611 40.9228,-29.9865"/>
<polygon fill="midnightblue" stroke="midnightblue" points="44.4229,-29.751 40.9228,-19.7511 37.4229,-29.7511 44.4229,-29.751"/>
</g>
<!-- Node9&#45;&gt;Node4 -->
<g id="edge12" class="edge"><title>Node9&#45;&gt;Node4</title>
<path fill="none" stroke="midnightblue" d="M61.6112,-58.27C90.1239,-48.9948 141.756,-32.1987 175.175,-21.3277"/>
<polygon fill="midnightblue" stroke="midnightblue" points="176.489,-24.5809 184.915,-18.159 174.323,-17.9242 176.489,-24.5809"/>
</g>
<!-- Node10&#45;&gt;Node3 -->
<g id="edge16" class="edge"><title>Node10&#45;&gt;Node3</title>
<path fill="none" stroke="midnightblue" d="M294.102,-112.468C295.5,-98.5784 295.994,-71.1137 280.923,-56 251.967,-26.9638 129.716,-16.1142 71.7114,-12.546"/>
<polygon fill="midnightblue" stroke="midnightblue" points="71.8517,-9.04838 61.6654,-11.9618 71.4452,-16.0366 71.8517,-9.04838"/>
</g>
<!-- Node10&#45;&gt;Node4 -->
<g id="edge17" class="edge"><title>Node10&#45;&gt;Node4</title>
<path fill="none" stroke="midnightblue" d="M331.744,-112.427C365.111,-104.179 409.461,-90.8056 419.923,-76 425.052,-68.7405 425.521,-62.9045 419.923,-56 397.551,-28.4082 293.198,-17.0744 239.315,-12.9991"/>
<polygon fill="midnightblue" stroke="midnightblue" points="239.475,-9.50169 229.251,-12.2782 238.975,-16.4838 239.475,-9.50169"/>
</g>
<!-- Node10&#45;&gt;Node5 -->
<g id="edge15" class="edge"><title>Node10&#45;&gt;Node5</title>
<path fill="none" stroke="midnightblue" d="M285.162,-112.083C278.386,-104.298 268.38,-92.8015 260.168,-83.3665"/>
<polygon fill="midnightblue" stroke="midnightblue" points="262.745,-80.9963 253.539,-75.7511 257.465,-85.592 262.745,-80.9963"/>
</g>
<!-- Node10&#45;&gt;Node6 -->
<g id="edge20" class="edge"><title>Node10&#45;&gt;Node6</title>
<path fill="none" stroke="midnightblue" d="M271.849,-112.444C249.863,-103.517 215.189,-89.4387 190.259,-79.3168"/>
<polygon fill="midnightblue" stroke="midnightblue" points="191.481,-76.0355 180.898,-75.5164 188.847,-82.5213 191.481,-76.0355"/>
</g>
<!-- Node10&#45;&gt;Node7 -->
<g id="edge14" class="edge"><title>Node10&#45;&gt;Node7</title>
<path fill="none" stroke="midnightblue" d="M305.294,-112.324C317.081,-104.058 335.055,-91.4527 349.058,-81.6322"/>
<polygon fill="midnightblue" stroke="midnightblue" points="351.404,-84.2619 357.582,-75.6545 347.385,-78.5307 351.404,-84.2619"/>
</g>
<!-- Node11 -->
<g id="node11" class="node"><title>Node11</title>
<polygon fill="none" stroke="#bfbfbf" points="535.923,-56.5 535.923,-75.5 575.923,-75.5 575.923,-56.5 535.923,-56.5"/>
<text text-anchor="middle" x="555.923" y="-63.5" font-family="Helvetica,sans-Serif" font-size="10.00">utility</text>
</g>
<!-- Node10&#45;&gt;Node11 -->
<g id="edge18" class="edge"><title>Node10&#45;&gt;Node11</title>
<path fill="none" stroke="midnightblue" d="M337.627,-112.921C394.889,-102.476 490.917,-84.6082 525.923,-76 526.022,-75.9757 526.121,-75.9512 526.22,-75.9266"/>
<polygon fill="midnightblue" stroke="midnightblue" points="526.922,-79.3624 535.666,-73.3785 525.099,-72.604 526.922,-79.3624"/>
</g>
<!-- Node12 -->
<g id="node12" class="node"><title>Node12</title>
<polygon fill="none" stroke="#bfbfbf" points="468.423,-56.5 468.423,-75.5 517.423,-75.5 517.423,-56.5 468.423,-56.5"/>
<text text-anchor="middle" x="492.923" y="-63.5" font-family="Helvetica,sans-Serif" font-size="10.00">cassert</text>
</g>
<!-- Node10&#45;&gt;Node12 -->
<g id="edge19" class="edge"><title>Node10&#45;&gt;Node12</title>
<path fill="none" stroke="midnightblue" d="M324.613,-112.444C361.06,-102.603 420.695,-86.5016 458.324,-76.3418"/>
<polygon fill="midnightblue" stroke="midnightblue" points="459.574,-79.6296 468.316,-73.6439 457.749,-72.8716 459.574,-79.6296"/>
</g>
</g>
</svg>
        <g id="navigator" transform="translate(0 0)" fill="#404254">
                <rect fill="#f2f5e9" fill-opacity="0.5" stroke="#606060" stroke-width=".5" x="0" y="0" width="60" height="60"/>
                <use id="zoomplus" xlink:href="#zoomPlus" x="17" y="9" onmousedown="handleZoom(evt,'in')"/>
                <use id="zoomminus" xlink:href="#zoomMin" x="42" y="9" onmousedown="handleZoom(evt,'out')"/>
                <use id="reset" xlink:href="#resetDef" x="30" y="36" onmousedown="handleReset()"/>
                <g id="arrowUp" xlink:href="#dirArrow" transform="translate(30 24)" onmousedown="handlePan(0,-1)">
                  <use xlink:href="#rim" fill="#404040">
                        <set attributeName="fill" to="#808080" begin="arrowUp.mouseover" end="arrowUp.mouseout"/>
                  </use>
                  <path fill="none" stroke="white" stroke-width="1.5" d="M0,-3.0v7 M-2.5,-0.5L0,-3.0L2.5,-0.5"/>
                </g>
                <g id="arrowRight" xlink:href="#dirArrow" transform="rotate(90) translate(36 -43)" onmousedown="handlePan(1,0)">
                  <use xlink:href="#rim" fill="#404040">
                        <set attributeName="fill" to="#808080" begin="arrowRight.mouseover" end="arrowRight.mouseout"/>
                  </use>
                  <path fill="none" stroke="white" stroke-width="1.5" d="M0,-3.0v7 M-2.5,-0.5L0,-3.0L2.5,-0.5"/>
                </g>
                <g id="arrowDown" xlink:href="#dirArrow" transform="rotate(180) translate(-30 -48)" onmousedown="handlePan(0,1)">
                  <use xlink:href="#rim" fill="#404040">
                        <set attributeName="fill" to="#808080" begin="arrowDown.mouseover" end="arrowDown.mouseout"/>
                  </use>
                  <path fill="none" stroke="white" stroke-width="1.5" d="M0,-3.0v7 M-2.5,-0.5L0,-3.0L2.5,-0.5"/>
                </g>
                <g id="arrowLeft" xlink:href="#dirArrow" transform="rotate(270) translate(-36 17)" onmousedown="handlePan(-1,0)">
                  <use xlink:href="#rim" fill="#404040">
                        <set attributeName="fill" to="#808080" begin="arrowLeft.mouseover" end="arrowLeft.mouseout"/>
                  </use>
                  <path fill="none" stroke="white" stroke-width="1.5" d="M0,-3.0v7 M-2.5,-0.5L0,-3.0L2.5,-0.5"/>
                </g>
        </g>
        <svg viewBox="0 0 15 15" width="100%" height="30px" preserveAspectRatio="xMaxYMin meet">
         <g id="arrow_out" transform="scale(0.3 0.3)">
          <a xlink:href="_toolbox_singleton_8cpp__incl_org.svg" target="_base">
           <rect id="button" ry="5" rx="5" y="6" x="6" height="38" width="38"
                fill="#f2f5e9" fill-opacity="0.5" stroke="#606060" stroke-width="1.0"/>
           <path id="arrow"
             d="M 11.500037,31.436501 C 11.940474,20.09759 22.043105,11.32322 32.158766,21.979434 L 37.068811,17.246167 C 37.068811,17.246167 37.088388,32 37.088388,32 L 22.160133,31.978069 C 22.160133,31.978069 26.997745,27.140456 26.997745,27.140456 C 18.528582,18.264221 13.291696,25.230495 11.500037,31.436501 z"
             style="fill:#404040;"/>
          </a>
         </g>
        </svg>
</svg>
