<?xml version="1.0" encoding="UTF-8" standalone="no"?>
<!DOCTYPE svg PUBLIC "-//W3C//DTD SVG 1.1//EN"
 "http://www.w3.org/Graphics/SVG/1.1/DTD/svg11.dtd">
<!-- Generated by graphviz version 2.43.0 (0)
 -->
<!-- Title: /home/dferigo/git/WB&#45;Toolbox/toolbox/base/src/WBBlock.cpp Pages: 1 -->
<svg width="2719pt" height="173pt"
 viewBox="0.00 0.00 2718.50 173.00" xmlns="http://www.w3.org/2000/svg" xmlns:xlink="http://www.w3.org/1999/xlink">
<g id="graph0" class="graph" transform="scale(1 1) rotate(0) translate(4 169)">
<title>/home/dferigo/git/WB&#45;Toolbox/toolbox/base/src/WBBlock.cpp</title>
<!-- Node1 -->
<g id="node1" class="node">
<title>Node1</title>
<g id="a_node1"><a xlink:title=" ">
<polygon fill="#bfbfbf" stroke="black" points="1283,-123.5 1283,-164.5 1405,-164.5 1405,-123.5 1283,-123.5"/>
<text text-anchor="start" x="1291" y="-152.5" font-family="Helvetica,sans-Serif" font-size="10.00">/home/dferigo/git/WB</text>
<text text-anchor="start" x="1291" y="-141.5" font-family="Helvetica,sans-Serif" font-size="10.00">&#45;Toolbox/toolbox/base</text>
<text text-anchor="middle" x="1344" y="-130.5" font-family="Helvetica,sans-Serif" font-size="10.00">/src/WBBlock.cpp</text>
</a>
</g>
</g>
<!-- Node2 -->
<g id="node2" class="node">
<title>Node2</title>
<g id="a_node2"><a xlink:href="_w_b_block_8h.html" target="_top" xlink:title=" ">
<polygon fill="none" stroke="black" points="254.5,-62 254.5,-81 407.5,-81 407.5,-62 254.5,-62"/>
<text text-anchor="middle" x="331" y="-69" font-family="Helvetica,sans-Serif" font-size="10.00">WBToolbox/Base/WBBlock.h</text>
</a>
</g>
</g>
<!-- Node1&#45;&gt;Node2 -->
<g id="edge1" class="edge">
<title>Node1&#45;&gt;Node2</title>
<path fill="none" stroke="midnightblue" d="M1282.79,-141.56C1134.06,-137.57 741.99,-124.11 417,-87 406.96,-85.85 396.31,-84.32 386.05,-82.68"/>
<polygon fill="midnightblue" stroke="midnightblue" points="386.39,-79.19 375.95,-81.01 385.25,-86.09 386.39,-79.19"/>
</g>
<!-- Node4 -->
<g id="node4" class="node">
<title>Node4</title>
<g id="a_node4"><a xlink:title=" ">
<polygon fill="none" stroke="#bfbfbf" points="360,-0.5 360,-19.5 418,-19.5 418,-0.5 360,-0.5"/>
<text text-anchor="middle" x="389" y="-7.5" font-family="Helvetica,sans-Serif" font-size="10.00">memory</text>
</a>
</g>
</g>
<!-- Node1&#45;&gt;Node4 -->
<g id="edge31" class="edge">
<title>Node1&#45;&gt;Node4</title>
<path fill="none" stroke="midnightblue" d="M1282.86,-142.19C1057.03,-138.89 280.97,-124.85 245,-87 235.51,-77.01 236.84,-67.1 245,-56 251.42,-47.27 309.71,-31.02 350.12,-20.63"/>
<polygon fill="midnightblue" stroke="midnightblue" points="351.15,-23.98 359.97,-18.12 349.42,-17.19 351.15,-23.98"/>
</g>
<!-- Node6 -->
<g id="node6" class="node">
<title>Node6</title>
<g id="a_node6"><a xlink:href="_configuration_8h.html" target="_top" xlink:title=" ">
<polygon fill="none" stroke="black" points="22,-62 22,-81 198,-81 198,-62 22,-62"/>
<text text-anchor="middle" x="110" y="-69" font-family="Helvetica,sans-Serif" font-size="10.00">WBToolbox/Base/Configuration.h</text>
</a>
</g>
</g>
<!-- Node1&#45;&gt;Node6 -->
<g id="edge5" class="edge">
<title>Node1&#45;&gt;Node6</title>
<path fill="none" stroke="midnightblue" d="M1282.81,-141.95C1112.67,-138.59 619.66,-125.98 212,-87 199.5,-85.8 186.18,-84.17 173.43,-82.44"/>
<polygon fill="midnightblue" stroke="midnightblue" points="173.75,-78.95 163.36,-81.03 172.77,-85.88 173.75,-78.95"/>
</g>
<!-- Node7 -->
<g id="node7" class="node">
<title>Node7</title>
<g id="a_node7"><a xlink:title=" ">
<polygon fill="none" stroke="#bfbfbf" points="0,-0.5 0,-19.5 42,-19.5 42,-0.5 0,-0.5"/>
<text text-anchor="middle" x="21" y="-7.5" font-family="Helvetica,sans-Serif" font-size="10.00">array</text>
</a>
</g>
</g>
<!-- Node1&#45;&gt;Node7 -->
<g id="edge30" class="edge">
<title>Node1&#45;&gt;Node7</title>
<path fill="none" stroke="midnightblue" d="M1282.59,-142.75C1026.82,-141.43 57.44,-133.35 13,-87 -1.52,-71.85 4.95,-46.41 12.03,-29.18"/>
<polygon fill="midnightblue" stroke="midnightblue" points="15.39,-30.23 16.32,-19.67 9.01,-27.34 15.39,-30.23"/>
</g>
<!-- Node9 -->
<g id="node9" class="node">
<title>Node9</title>
<g id="a_node9"><a xlink:href="_robot_interface_8h.html" target="_top" xlink:title=" ">
<polygon fill="none" stroke="black" points="600,-62 600,-81 782,-81 782,-62 600,-62"/>
<text text-anchor="middle" x="691" y="-69" font-family="Helvetica,sans-Serif" font-size="10.00">WBToolbox/Base/RobotInterface.h</text>
</a>
</g>
</g>
<!-- Node1&#45;&gt;Node9 -->
<g id="edge10" class="edge">
<title>Node1&#45;&gt;Node9</title>
<path fill="none" stroke="midnightblue" d="M1282.64,-137.61C1180.65,-128.47 969.84,-108.78 792,-87 780.78,-85.63 768.88,-84.04 757.33,-82.42"/>
<polygon fill="midnightblue" stroke="midnightblue" points="757.7,-78.94 747.3,-81.01 756.71,-85.87 757.7,-78.94"/>
</g>
<!-- Node12 -->
<g id="node12" class="node">
<title>Node12</title>
<g id="a_node12"><a xlink:href="_whole_body_singleton_8h.html" target="_top" xlink:title=" ">
<polygon fill="none" stroke="black" points="426,-56.5 426,-86.5 582,-86.5 582,-56.5 426,-56.5"/>
<text text-anchor="start" x="434" y="-74.5" font-family="Helvetica,sans-Serif" font-size="10.00">WBToolbox/Base/WholeBody</text>
<text text-anchor="middle" x="504" y="-63.5" font-family="Helvetica,sans-Serif" font-size="10.00">Singleton.h</text>
</a>
</g>
</g>
<!-- Node1&#45;&gt;Node12 -->
<g id="edge15" class="edge">
<title>Node1&#45;&gt;Node12</title>
<path fill="none" stroke="midnightblue" d="M1282.81,-140.34C1155.95,-134.41 854.85,-118.22 592.31,-87.09"/>
<polygon fill="midnightblue" stroke="midnightblue" points="592.55,-83.59 582.21,-85.88 591.72,-90.54 592.55,-83.59"/>
</g>
<!-- Node13 -->
<g id="node13" class="node">
<title>Node13</title>
<g id="a_node13"><a xlink:title=" ">
<polygon fill="none" stroke="#bfbfbf" points="800.5,-62 800.5,-81 1001.5,-81 1001.5,-62 800.5,-62"/>
<text text-anchor="middle" x="901" y="-69" font-family="Helvetica,sans-Serif" font-size="10.00">BlockFactory/Core/BlockInformation.h</text>
</a>
</g>
</g>
<!-- Node1&#45;&gt;Node13 -->
<g id="edge19" class="edge">
<title>Node1&#45;&gt;Node13</title>
<path fill="none" stroke="midnightblue" d="M1282.87,-133.27C1199.16,-119.95 1049.59,-96.15 964.61,-82.62"/>
<polygon fill="midnightblue" stroke="midnightblue" points="965,-79.14 954.57,-81.03 963.9,-86.05 965,-79.14"/>
</g>
<!-- Node14 -->
<g id="node14" class="node">
<title>Node14</title>
<g id="a_node14"><a xlink:title=" ">
<polygon fill="none" stroke="#bfbfbf" points="1020,-62 1020,-81 1154,-81 1154,-62 1020,-62"/>
<text text-anchor="middle" x="1087" y="-69" font-family="Helvetica,sans-Serif" font-size="10.00">BlockFactory/Core/Log.h</text>
</a>
</g>
</g>
<!-- Node1&#45;&gt;Node14 -->
<g id="edge20" class="edge">
<title>Node1&#45;&gt;Node14</title>
<path fill="none" stroke="midnightblue" d="M1282.77,-126.2C1234.9,-113.07 1169.69,-95.18 1127.96,-83.74"/>
<polygon fill="midnightblue" stroke="midnightblue" points="1128.71,-80.31 1118.14,-81.04 1126.85,-87.06 1128.71,-80.31"/>
</g>
<!-- Node15 -->
<g id="node15" class="node">
<title>Node15</title>
<g id="a_node15"><a xlink:title=" ">
<polygon fill="none" stroke="#bfbfbf" points="1172,-62 1172,-81 1340,-81 1340,-62 1172,-62"/>
<text text-anchor="middle" x="1256" y="-69" font-family="Helvetica,sans-Serif" font-size="10.00">BlockFactory/Core/Parameter.h</text>
</a>
</g>
</g>
<!-- Node1&#45;&gt;Node15 -->
<g id="edge21" class="edge">
<title>Node1&#45;&gt;Node15</title>
<path fill="none" stroke="midnightblue" d="M1319.49,-123.36C1305.3,-112 1287.73,-97.92 1274.67,-87.46"/>
<polygon fill="midnightblue" stroke="midnightblue" points="1276.82,-84.69 1266.83,-81.17 1272.44,-90.16 1276.82,-84.69"/>
</g>
<!-- Node16 -->
<g id="node16" class="node">
<title>Node16</title>
<g id="a_node16"><a xlink:title=" ">
<polygon fill="none" stroke="#bfbfbf" points="1358.5,-62 1358.5,-81 1505.5,-81 1505.5,-62 1358.5,-62"/>
<text text-anchor="middle" x="1432" y="-69" font-family="Helvetica,sans-Serif" font-size="10.00">BlockFactory/Core/Signal.h</text>
</a>
</g>
</g>
<!-- Node1&#45;&gt;Node16 -->
<g id="edge22" class="edge">
<title>Node1&#45;&gt;Node16</title>
<path fill="none" stroke="midnightblue" d="M1368.51,-123.36C1382.7,-112 1400.27,-97.92 1413.33,-87.46"/>
<polygon fill="midnightblue" stroke="midnightblue" points="1415.56,-90.16 1421.17,-81.17 1411.18,-84.69 1415.56,-90.16"/>
</g>
<!-- Node17 -->
<g id="node17" class="node">
<title>Node17</title>
<g id="a_node17"><a xlink:title=" ">
<polygon fill="none" stroke="#bfbfbf" points="1523.5,-62 1523.5,-81 1592.5,-81 1592.5,-62 1523.5,-62"/>
<text text-anchor="middle" x="1558" y="-69" font-family="Helvetica,sans-Serif" font-size="10.00">Eigen/Core</text>
</a>
</g>
</g>
<!-- Node1&#45;&gt;Node17 -->
<g id="edge23" class="edge">
<title>Node1&#45;&gt;Node17</title>
<path fill="none" stroke="midnightblue" d="M1404.19,-123.43C1436.97,-112.74 1478.24,-99.22 1515,-87 1517.57,-86.14 1520.23,-85.26 1522.91,-84.36"/>
<polygon fill="midnightblue" stroke="midnightblue" points="1524.18,-87.63 1532.55,-81.12 1521.95,-80.99 1524.18,-87.63"/>
</g>
<!-- Node18 -->
<g id="node18" class="node">
<title>Node18</title>
<g id="a_node18"><a xlink:title=" ">
<polygon fill="none" stroke="#bfbfbf" points="1610.5,-62 1610.5,-81 1771.5,-81 1771.5,-62 1610.5,-62"/>
<text text-anchor="middle" x="1691" y="-69" font-family="Helvetica,sans-Serif" font-size="10.00">iDynTree/Core/EigenHelpers.h</text>
</a>
</g>
</g>
<!-- Node1&#45;&gt;Node18 -->
<g id="edge24" class="edge">
<title>Node1&#45;&gt;Node18</title>
<path fill="none" stroke="midnightblue" d="M1405.24,-130.56C1471.59,-117.08 1576.32,-95.8 1638.88,-83.09"/>
<polygon fill="midnightblue" stroke="midnightblue" points="1639.81,-86.47 1648.92,-81.05 1638.42,-79.61 1639.81,-86.47"/>
</g>
<!-- Node19 -->
<g id="node19" class="node">
<title>Node19</title>
<g id="a_node19"><a xlink:title=" ">
<polygon fill="none" stroke="#bfbfbf" points="1790,-62 1790,-81 1936,-81 1936,-62 1790,-62"/>
<text text-anchor="middle" x="1863" y="-69" font-family="Helvetica,sans-Serif" font-size="10.00">iDynTree/Core/Transform.h</text>
</a>
</g>
</g>
<!-- Node1&#45;&gt;Node19 -->
<g id="edge25" class="edge">
<title>Node1&#45;&gt;Node19</title>
<path fill="none" stroke="midnightblue" d="M1405.28,-136.08C1489.94,-126.31 1647.35,-107.37 1781,-87 1789.42,-85.72 1798.31,-84.26 1807.01,-82.77"/>
<polygon fill="midnightblue" stroke="midnightblue" points="1807.84,-86.17 1817.09,-81.01 1806.64,-79.28 1807.84,-86.17"/>
</g>
<!-- Node20 -->
<g id="node20" class="node">
<title>Node20</title>
<g id="a_node20"><a xlink:title=" ">
<polygon fill="none" stroke="#bfbfbf" points="1954,-62 1954,-81 2076,-81 2076,-62 1954,-62"/>
<text text-anchor="middle" x="2015" y="-69" font-family="Helvetica,sans-Serif" font-size="10.00">iDynTree/Core/Twist.h</text>
</a>
</g>
</g>
<!-- Node1&#45;&gt;Node20 -->
<g id="edge26" class="edge">
<title>Node1&#45;&gt;Node20</title>
<path fill="none" stroke="midnightblue" d="M1405.27,-139.55C1514.27,-132.91 1748.87,-116.36 1945,-87 1952.42,-85.89 1960.25,-84.49 1967.87,-83.01"/>
<polygon fill="midnightblue" stroke="midnightblue" points="1968.61,-86.43 1977.72,-81.02 1967.23,-79.57 1968.61,-86.43"/>
</g>
<!-- Node21 -->
<g id="node21" class="node">
<title>Node21</title>
<g id="a_node21"><a xlink:title=" ">
<polygon fill="none" stroke="#bfbfbf" points="2094,-62 2094,-81 2262,-81 2262,-62 2094,-62"/>
<text text-anchor="middle" x="2178" y="-69" font-family="Helvetica,sans-Serif" font-size="10.00">iDynTree/Core/VectorDynSize.h</text>
</a>
</g>
</g>
<!-- Node1&#45;&gt;Node21 -->
<g id="edge27" class="edge">
<title>Node1&#45;&gt;Node21</title>
<path fill="none" stroke="midnightblue" d="M1405.15,-140.02C1532.12,-133.48 1833.49,-116.06 2085,-87 2095.69,-85.76 2107.03,-84.21 2117.98,-82.57"/>
<polygon fill="midnightblue" stroke="midnightblue" points="2118.55,-86.03 2127.9,-81.06 2117.49,-79.11 2118.55,-86.03"/>
</g>
<!-- Node22 -->
<g id="node22" class="node">
<title>Node22</title>
<g id="a_node22"><a xlink:title=" ">
<polygon fill="none" stroke="#bfbfbf" points="2280,-62 2280,-81 2442,-81 2442,-62 2280,-62"/>
<text text-anchor="middle" x="2361" y="-69" font-family="Helvetica,sans-Serif" font-size="10.00">iDynTree/Core/VectorFixSize.h</text>
</a>
</g>
</g>
<!-- Node1&#45;&gt;Node22 -->
<g id="edge28" class="edge">
<title>Node1&#45;&gt;Node22</title>
<path fill="none" stroke="midnightblue" d="M1405.19,-141.41C1553.88,-137.08 1945.88,-122.92 2271,-87 2281.49,-85.84 2292.62,-84.3 2303.35,-82.66"/>
<polygon fill="midnightblue" stroke="midnightblue" points="2304.15,-86.08 2313.48,-81.06 2303.05,-79.16 2304.15,-86.08"/>
</g>
<!-- Node23 -->
<g id="node23" class="node">
<title>Node23</title>
<g id="a_node23"><a xlink:title=" ">
<polygon fill="none" stroke="#bfbfbf" points="2460.5,-62 2460.5,-81 2635.5,-81 2635.5,-62 2460.5,-62"/>
<text text-anchor="middle" x="2548" y="-69" font-family="Helvetica,sans-Serif" font-size="10.00">iDynTree/KinDynComputations.h</text>
</a>
</g>
</g>
<!-- Node1&#45;&gt;Node23 -->
<g id="edge29" class="edge">
<title>Node1&#45;&gt;Node23</title>
<path fill="none" stroke="midnightblue" d="M1405.06,-142.01C1572.59,-138.83 2053.44,-126.67 2451,-87 2462.85,-85.82 2475.46,-84.2 2487.53,-82.47"/>
<polygon fill="midnightblue" stroke="midnightblue" points="2488.14,-85.92 2497.52,-81 2487.12,-79 2488.14,-85.92"/>
</g>
<!-- Node24 -->
<g id="node24" class="node">
<title>Node24</title>
<g id="a_node24"><a xlink:title=" ">
<polygon fill="none" stroke="#bfbfbf" points="2653.5,-62 2653.5,-81 2710.5,-81 2710.5,-62 2653.5,-62"/>
<text text-anchor="middle" x="2682" y="-69" font-family="Helvetica,sans-Serif" font-size="10.00">ostream</text>
</a>
</g>
</g>
<!-- Node1&#45;&gt;Node24 -->
<g id="edge32" class="edge">
<title>Node1&#45;&gt;Node24</title>
<path fill="none" stroke="midnightblue" d="M1405.16,-143.03C1629.1,-142.74 2403.76,-137.98 2645,-87 2648.01,-86.36 2651.09,-85.51 2654.13,-84.53"/>
<polygon fill="midnightblue" stroke="midnightblue" points="2655.34,-87.82 2663.55,-81.11 2652.95,-81.24 2655.34,-87.82"/>
</g>
<!-- Node3 -->
<g id="node3" class="node">
<title>Node3</title>
<g id="a_node3"><a xlink:title=" ">
<polygon fill="none" stroke="#bfbfbf" points="198,-0.5 198,-19.5 342,-19.5 342,-0.5 198,-0.5"/>
<text text-anchor="middle" x="270" y="-7.5" font-family="Helvetica,sans-Serif" font-size="10.00">BlockFactory/Core/Block.h</text>
</a>
</g>
</g>
<!-- Node2&#45;&gt;Node3 -->
<g id="edge2" class="edge">
<title>Node2&#45;&gt;Node3</title>
<path fill="none" stroke="midnightblue" d="M322.26,-61.98C312.84,-52.78 297.64,-37.96 286.05,-26.66"/>
<polygon fill="midnightblue" stroke="midnightblue" points="288.33,-23.99 278.72,-19.51 283.44,-29 288.33,-23.99"/>
</g>
<!-- Node2&#45;&gt;Node4 -->
<g id="edge3" class="edge">
<title>Node2&#45;&gt;Node4</title>
<path fill="none" stroke="midnightblue" d="M339.31,-61.98C348.18,-52.87 362.45,-38.24 373.42,-26.98"/>
<polygon fill="midnightblue" stroke="midnightblue" points="376.23,-29.11 380.71,-19.51 371.22,-24.23 376.23,-29.11"/>
</g>
<!-- Node5 -->
<g id="node5" class="node">
<title>Node5</title>
<g id="a_node5"><a xlink:title=" ">
<polygon fill="none" stroke="#bfbfbf" points="438,-0.5 438,-19.5 482,-19.5 482,-0.5 438,-0.5"/>
<text text-anchor="middle" x="460" y="-7.5" font-family="Helvetica,sans-Serif" font-size="10.00">string</text>
</a>
</g>
</g>
<!-- Node2&#45;&gt;Node5 -->
<g id="edge4" class="edge">
<title>Node2&#45;&gt;Node5</title>
<path fill="none" stroke="midnightblue" d="M349.48,-61.98C371.13,-51.99 407.21,-35.35 432.23,-23.81"/>
<polygon fill="midnightblue" stroke="midnightblue" points="433.94,-26.88 441.55,-19.51 431.01,-20.52 433.94,-26.88"/>
</g>
<!-- Node6&#45;&gt;Node4 -->
<g id="edge7" class="edge">
<title>Node6&#45;&gt;Node4</title>
<path fill="none" stroke="midnightblue" d="M152.3,-61.98C198.41,-52.62 274.63,-36.92 349.85,-20.21"/>
<polygon fill="midnightblue" stroke="midnightblue" points="350.97,-23.55 359.97,-17.96 349.45,-16.72 350.97,-23.55"/>
</g>
<!-- Node6&#45;&gt;Node5 -->
<g id="edge8" class="edge">
<title>Node6&#45;&gt;Node5</title>
<path fill="none" stroke="midnightblue" d="M176.87,-61.99C241.3,-53.29 341.33,-38.45 427,-20 427.33,-19.93 427.65,-19.86 427.98,-19.79"/>
<polygon fill="midnightblue" stroke="midnightblue" points="428.82,-23.18 437.71,-17.43 427.17,-16.38 428.82,-23.18"/>
</g>
<!-- Node6&#45;&gt;Node7 -->
<g id="edge6" class="edge">
<title>Node6&#45;&gt;Node7</title>
<path fill="none" stroke="midnightblue" d="M97.25,-61.98C82.97,-52.43 59.6,-36.81 42.49,-25.37"/>
<polygon fill="midnightblue" stroke="midnightblue" points="43.99,-22.16 33.73,-19.51 40.1,-27.98 43.99,-22.16"/>
</g>
<!-- Node8 -->
<g id="node8" class="node">
<title>Node8</title>
<g id="a_node8"><a xlink:title=" ">
<polygon fill="none" stroke="#bfbfbf" points="86.5,-0.5 86.5,-19.5 133.5,-19.5 133.5,-0.5 86.5,-0.5"/>
<text text-anchor="middle" x="110" y="-7.5" font-family="Helvetica,sans-Serif" font-size="10.00">vector</text>
</a>
</g>
</g>
<!-- Node6&#45;&gt;Node8 -->
<g id="edge9" class="edge">
<title>Node6&#45;&gt;Node8</title>
<path fill="none" stroke="midnightblue" d="M110,-61.98C110,-53.58 110,-40.48 110,-29.66"/>
<polygon fill="midnightblue" stroke="midnightblue" points="113.5,-29.51 110,-19.51 106.5,-29.51 113.5,-29.51"/>
</g>
<!-- Node9&#45;&gt;Node4 -->
<g id="edge11" class="edge">
<title>Node9&#45;&gt;Node4</title>
<path fill="none" stroke="midnightblue" d="M644.53,-61.99C592.09,-52.29 504.27,-35.72 429,-20 428.78,-19.95 428.56,-19.91 428.34,-19.86"/>
<polygon fill="midnightblue" stroke="midnightblue" points="428.76,-16.37 418.25,-17.69 427.29,-23.22 428.76,-16.37"/>
</g>
<!-- Node9&#45;&gt;Node5 -->
<g id="edge12" class="edge">
<title>Node9&#45;&gt;Node5</title>
<path fill="none" stroke="midnightblue" d="M656.62,-61.91C617.09,-52 550.28,-35.12 493,-20 492.68,-19.91 492.35,-19.83 492.03,-19.74"/>
<polygon fill="midnightblue" stroke="midnightblue" points="492.92,-16.36 482.35,-17.15 491.11,-23.12 492.92,-16.36"/>
</g>
<!-- Node10 -->
<g id="node10" class="node">
<title>Node10</title>
<g id="a_node10"><a xlink:title=" ">
<polygon fill="none" stroke="#bfbfbf" points="501.5,-0.5 501.5,-19.5 594.5,-19.5 594.5,-0.5 501.5,-0.5"/>
<text text-anchor="middle" x="548" y="-7.5" font-family="Helvetica,sans-Serif" font-size="10.00">unordered_map</text>
</a>
</g>
</g>
<!-- Node9&#45;&gt;Node10 -->
<g id="edge13" class="edge">
<title>Node9&#45;&gt;Node10</title>
<path fill="none" stroke="midnightblue" d="M670.51,-61.98C646.19,-51.86 605.45,-34.9 577.68,-23.35"/>
<polygon fill="midnightblue" stroke="midnightblue" points="579.03,-20.12 568.45,-19.51 576.34,-26.58 579.03,-20.12"/>
</g>
<!-- Node11 -->
<g id="node11" class="node">
<title>Node11</title>
<g id="a_node11"><a xlink:title=" ">
<polygon fill="none" stroke="#bfbfbf" points="668.5,-0.5 668.5,-19.5 713.5,-19.5 713.5,-0.5 668.5,-0.5"/>
<text text-anchor="middle" x="691" y="-7.5" font-family="Helvetica,sans-Serif" font-size="10.00">utility</text>
</a>
</g>
</g>
<!-- Node9&#45;&gt;Node11 -->
<g id="edge14" class="edge">
<title>Node9&#45;&gt;Node11</title>
<path fill="none" stroke="midnightblue" d="M691,-61.98C691,-53.58 691,-40.48 691,-29.66"/>
<polygon fill="midnightblue" stroke="midnightblue" points="694.5,-29.51 691,-19.51 687.5,-29.51 694.5,-29.51"/>
</g>
<!-- Node12&#45;&gt;Node4 -->
<g id="edge16" class="edge">
<title>Node12&#45;&gt;Node4</title>
<path fill="none" stroke="midnightblue" d="M476.75,-56.4C457.97,-46.68 433.17,-33.86 414.73,-24.31"/>
<polygon fill="midnightblue" stroke="midnightblue" points="416.22,-21.14 405.73,-19.66 413.01,-27.36 416.22,-21.14"/>
</g>
<!-- Node12&#45;&gt;Node5 -->
<g id="edge17" class="edge">
<title>Node12&#45;&gt;Node5</title>
<path fill="none" stroke="midnightblue" d="M493.57,-56.4C487.24,-47.84 479.13,-36.87 472.47,-27.86"/>
<polygon fill="midnightblue" stroke="midnightblue" points="475.16,-25.62 466.4,-19.66 469.53,-29.78 475.16,-25.62"/>
</g>
<!-- Node12&#45;&gt;Node10 -->
<g id="edge18" class="edge">
<title>Node12&#45;&gt;Node10</title>
<path fill="none" stroke="midnightblue" d="M514.43,-56.4C520.76,-47.84 528.87,-36.87 535.53,-27.86"/>
<polygon fill="midnightblue" stroke="midnightblue" points="538.47,-29.78 541.6,-19.66 532.84,-25.62 538.47,-29.78"/>
</g>
</g>
</svg>
