<?xml version="1.0" encoding="UTF-8" standalone="no"?>
<!DOCTYPE svg PUBLIC "-//W3C//DTD SVG 1.1//EN"
 "http://www.w3.org/Graphics/SVG/1.1/DTD/svg11.dtd">
<!-- Generated by graphviz version 2.36.0 (20140111.2315)
 -->
<!-- Title: /home/travis/build/robotology/wb&#45;toolbox/toolbox/include/base/WBBlock.h Pages: 1 -->
<!--zoomable 308 -->
<svg id="main" version="1.1" xmlns="http://www.w3.org/2000/svg" xmlns:xlink="http://www.w3.org/1999/xlink" xml:space="preserve" onload="init(evt)">
<style type="text/css"><![CDATA[
.edge:hover path { stroke: red; }
.edge:hover polygon { stroke: red; fill: red; }
]]></style>
<script type="text/javascript"><![CDATA[
var edges = document.getElementsByTagName('g');
if (edges && edges.length) {
  for (var i=0;i<edges.length;i++) {
    if (edges[i].id.substr(0,4)=='edge') {
      edges[i].setAttribute('class','edge');
    }
  }
}
]]></script>
        <defs>
                <circle id="rim" cx="0" cy="0" r="7"/>
                <circle id="rim2" cx="0" cy="0" r="3.5"/>
                <g id="zoomPlus">
                        <use xlink:href="#rim" fill="#404040">
                                <set attributeName="fill" to="#808080" begin="zoomplus.mouseover" end="zoomplus.mouseout"/>
                        </use>
                        <path d="M-4,0h8M0,-4v8" fill="none" stroke="white" stroke-width="1.5" pointer-events="none"/>
                </g>
                <g id="zoomMin">
                        <use xlink:href="#rim" fill="#404040">
                                <set attributeName="fill" to="#808080" begin="zoomminus.mouseover" end="zoomminus.mouseout"/>
                        </use>
                        <path d="M-4,0h8" fill="none" stroke="white" stroke-width="1.5" pointer-events="none"/>
                </g>
                <g id="dirArrow">
                        <path fill="none" stroke="white" stroke-width="1.5" d="M0,-3.0v7 M-2.5,-0.5L0,-3.0L2.5,-0.5"/>
                </g>
               <g id="resetDef">
                       <use xlink:href="#rim2" fill="#404040">
                               <set attributeName="fill" to="#808080" begin="reset.mouseover" end="reset.mouseout"/>
                       </use>
               </g>
        </defs>

<script type="text/javascript">
var viewWidth = 2151;
var viewHeight = 308;
var sectionId = 'dynsection-1';
</script>
<script xlink:href="svgpan.js"/>
<svg id="graph" class="graph">
<g id="viewport">
<title>/home/travis/build/robotology/wb&#45;toolbox/toolbox/include/base/WBBlock.h</title>
<!-- Node1 -->
<g id="node1" class="node"><title>Node1</title>
<polygon fill="#bfbfbf" stroke="black" points="999.5,-247 999.5,-299 1114.5,-299 1114.5,-247 999.5,-247"/>
<text text-anchor="start" x="1007.5" y="-287" font-family="Helvetica,sans-Serif" font-size="10.00">/home/travis/build</text>
<text text-anchor="start" x="1007.5" y="-276" font-family="Helvetica,sans-Serif" font-size="10.00">/robotology/wb&#45;toolbox</text>
<text text-anchor="start" x="1007.5" y="-265" font-family="Helvetica,sans-Serif" font-size="10.00">/toolbox/include/base</text>
<text text-anchor="middle" x="1057" y="-254" font-family="Helvetica,sans-Serif" font-size="10.00">/WBBlock.h</text>
</g>
<!-- Node2 -->
<g id="node2" class="node"><title>Node2</title>
<g id="a_node2"><a xlink:href="_centroidal_momentum_8h.html" target="_top" xlink:title="/home/travis/build\l/robotology/wb&#45;toolbox\l/toolbox/include/CentroidalMomentum.h">
<polygon fill="none" stroke="black" points="1781.5,-168.5 1781.5,-209.5 1970.5,-209.5 1970.5,-168.5 1781.5,-168.5"/>
<text text-anchor="start" x="1789.5" y="-197.5" font-family="Helvetica,sans-Serif" font-size="10.00">/home/travis/build</text>
<text text-anchor="start" x="1789.5" y="-186.5" font-family="Helvetica,sans-Serif" font-size="10.00">/robotology/wb&#45;toolbox</text>
<text text-anchor="middle" x="1876" y="-175.5" font-family="Helvetica,sans-Serif" font-size="10.00">/toolbox/include/CentroidalMomentum.h</text>
</a>
</g>
</g>
<!-- Node1&#45;&gt;Node2 -->
<g id="edge1" class="edge"><title>Node1&#45;&gt;Node2</title>
<path fill="none" stroke="midnightblue" d="M1124.68,-268.472C1251.91,-261.321 1535.29,-242.933 1772,-210 1775.1,-209.569 1778.24,-209.108 1781.41,-208.621"/>
<polygon fill="midnightblue" stroke="midnightblue" points="1124.48,-264.978 1114.69,-269.028 1124.87,-271.967 1124.48,-264.978"/>
</g>
<!-- Node8 -->
<g id="node8" class="node"><title>Node8</title>
<g id="a_node8"><a xlink:href="_dot_j_nu_8h.html" target="_top" xlink:title="/home/travis/build\l/robotology/wb&#45;toolbox\l/toolbox/include/DotJNu.h">
<polygon fill="none" stroke="black" points="28,-168.5 28,-209.5 158,-209.5 158,-168.5 28,-168.5"/>
<text text-anchor="start" x="36" y="-197.5" font-family="Helvetica,sans-Serif" font-size="10.00">/home/travis/build</text>
<text text-anchor="start" x="36" y="-186.5" font-family="Helvetica,sans-Serif" font-size="10.00">/robotology/wb&#45;toolbox</text>
<text text-anchor="middle" x="93" y="-175.5" font-family="Helvetica,sans-Serif" font-size="10.00">/toolbox/include/DotJNu.h</text>
</a>
</g>
</g>
<!-- Node1&#45;&gt;Node8 -->
<g id="edge7" class="edge"><title>Node1&#45;&gt;Node8</title>
<path fill="none" stroke="midnightblue" d="M988.879,-271.751C839.148,-270.222 470.54,-261.092 167,-210 164.113,-209.514 161.175,-208.964 158.218,-208.364"/>
<polygon fill="midnightblue" stroke="midnightblue" points="989.245,-275.254 999.277,-271.848 989.311,-268.254 989.245,-275.254"/>
</g>
<!-- Node10 -->
<g id="node10" class="node"><title>Node10</title>
<g id="a_node10"><a xlink:href="_forward_kinematics_8h.html" target="_top" xlink:title="/home/travis/build\l/robotology/wb&#45;toolbox\l/toolbox/include/ForwardKinematics.h">
<polygon fill="none" stroke="black" points="176,-168.5 176,-209.5 356,-209.5 356,-168.5 176,-168.5"/>
<text text-anchor="start" x="184" y="-197.5" font-family="Helvetica,sans-Serif" font-size="10.00">/home/travis/build</text>
<text text-anchor="start" x="184" y="-186.5" font-family="Helvetica,sans-Serif" font-size="10.00">/robotology/wb&#45;toolbox</text>
<text text-anchor="middle" x="266" y="-175.5" font-family="Helvetica,sans-Serif" font-size="10.00">/toolbox/include/ForwardKinematics.h</text>
</a>
</g>
</g>
<!-- Node1&#45;&gt;Node10 -->
<g id="edge10" class="edge"><title>Node1&#45;&gt;Node10</title>
<path fill="none" stroke="midnightblue" d="M989.211,-268.408C864.954,-261.273 592.559,-243.078 365,-210 362.05,-209.571 359.055,-209.111 356.035,-208.626"/>
<polygon fill="midnightblue" stroke="midnightblue" points="989.153,-271.91 999.335,-268.983 989.55,-264.921 989.153,-271.91"/>
</g>
<!-- Node12 -->
<g id="node12" class="node"><title>Node12</title>
<g id="a_node12"><a xlink:href="_get_limits_8h.html" target="_top" xlink:title="/home/travis/build\l/robotology/wb&#45;toolbox\l/toolbox/include/GetLimits.h">
<polygon fill="none" stroke="black" points="374,-168.5 374,-209.5 512,-209.5 512,-168.5 374,-168.5"/>
<text text-anchor="start" x="382" y="-197.5" font-family="Helvetica,sans-Serif" font-size="10.00">/home/travis/build</text>
<text text-anchor="start" x="382" y="-186.5" font-family="Helvetica,sans-Serif" font-size="10.00">/robotology/wb&#45;toolbox</text>
<text text-anchor="middle" x="443" y="-175.5" font-family="Helvetica,sans-Serif" font-size="10.00">/toolbox/include/GetLimits.h</text>
</a>
</g>
</g>
<!-- Node1&#45;&gt;Node12 -->
<g id="edge13" class="edge"><title>Node1&#45;&gt;Node12</title>
<path fill="none" stroke="midnightblue" d="M988.925,-267.106C886.702,-259.087 687.75,-240.875 521,-210 518.113,-209.466 515.175,-208.884 512.214,-208.267"/>
<polygon fill="midnightblue" stroke="midnightblue" points="988.869,-270.612 999.109,-267.897 989.41,-263.633 988.869,-270.612"/>
</g>
<!-- Node14 -->
<g id="node14" class="node"><title>Node14</title>
<g id="a_node14"><a xlink:href="_get_measurement_8h.html" target="_top" xlink:title="/home/travis/build\l/robotology/wb&#45;toolbox\l/toolbox/include/GetMeasurement.h">
<polygon fill="none" stroke="black" points="530.5,-168.5 530.5,-209.5 701.5,-209.5 701.5,-168.5 530.5,-168.5"/>
<text text-anchor="start" x="538.5" y="-197.5" font-family="Helvetica,sans-Serif" font-size="10.00">/home/travis/build</text>
<text text-anchor="start" x="538.5" y="-186.5" font-family="Helvetica,sans-Serif" font-size="10.00">/robotology/wb&#45;toolbox</text>
<text text-anchor="middle" x="616" y="-175.5" font-family="Helvetica,sans-Serif" font-size="10.00">/toolbox/include/GetMeasurement.h</text>
</a>
</g>
</g>
<!-- Node1&#45;&gt;Node14 -->
<g id="edge16" class="edge"><title>Node1&#45;&gt;Node14</title>
<path fill="none" stroke="midnightblue" d="M989.469,-260.609C919.453,-248.642 806.884,-228.957 710,-210 707.216,-209.455 704.388,-208.895 701.533,-208.323"/>
<polygon fill="midnightblue" stroke="midnightblue" points="989.037,-264.086 999.483,-262.318 990.215,-257.186 989.037,-264.086"/>
</g>
<!-- Node16 -->
<g id="node16" class="node"><title>Node16</title>
<g id="a_node16"><a xlink:href="_inverse_dynamics_8h.html" target="_top" xlink:title="/home/travis/build\l/robotology/wb&#45;toolbox\l/toolbox/include/InverseDynamics.h">
<polygon fill="none" stroke="black" points="719.5,-168.5 719.5,-209.5 892.5,-209.5 892.5,-168.5 719.5,-168.5"/>
<text text-anchor="start" x="727.5" y="-197.5" font-family="Helvetica,sans-Serif" font-size="10.00">/home/travis/build</text>
<text text-anchor="start" x="727.5" y="-186.5" font-family="Helvetica,sans-Serif" font-size="10.00">/robotology/wb&#45;toolbox</text>
<text text-anchor="middle" x="806" y="-175.5" font-family="Helvetica,sans-Serif" font-size="10.00">/toolbox/include/InverseDynamics.h</text>
</a>
</g>
</g>
<!-- Node1&#45;&gt;Node16 -->
<g id="edge19" class="edge"><title>Node1&#45;&gt;Node16</title>
<path fill="none" stroke="midnightblue" d="M989.825,-250.054C951.252,-237.453 903.225,-221.763 865.936,-209.581"/>
<polygon fill="midnightblue" stroke="midnightblue" points="988.823,-253.409 999.416,-253.188 990.997,-246.755 988.823,-253.409"/>
</g>
<!-- Node18 -->
<g id="node18" class="node"><title>Node18</title>
<g id="a_node18"><a xlink:href="_jacobian_8h.html" target="_top" xlink:title="/home/travis/build\l/robotology/wb&#45;toolbox\l/toolbox/include/Jacobian.h">
<polygon fill="none" stroke="black" points="910.5,-168.5 910.5,-209.5 1045.5,-209.5 1045.5,-168.5 910.5,-168.5"/>
<text text-anchor="start" x="918.5" y="-197.5" font-family="Helvetica,sans-Serif" font-size="10.00">/home/travis/build</text>
<text text-anchor="start" x="918.5" y="-186.5" font-family="Helvetica,sans-Serif" font-size="10.00">/robotology/wb&#45;toolbox</text>
<text text-anchor="middle" x="978" y="-175.5" font-family="Helvetica,sans-Serif" font-size="10.00">/toolbox/include/Jacobian.h</text>
</a>
</g>
</g>
<!-- Node1&#45;&gt;Node18 -->
<g id="edge22" class="edge"><title>Node1&#45;&gt;Node18</title>
<path fill="none" stroke="midnightblue" d="M1025.91,-239.734C1016.14,-229.589 1005.64,-218.695 996.976,-209.696"/>
<polygon fill="midnightblue" stroke="midnightblue" points="1023.41,-242.178 1032.87,-246.952 1028.45,-237.322 1023.41,-242.178"/>
</g>
<!-- Node20 -->
<g id="node20" class="node"><title>Node20</title>
<g id="a_node20"><a xlink:href="_mass_matrix_8h.html" target="_top" xlink:title="/home/travis/build\l/robotology/wb&#45;toolbox\l/toolbox/include/MassMatrix.h">
<polygon fill="none" stroke="black" points="1063.5,-168.5 1063.5,-209.5 1210.5,-209.5 1210.5,-168.5 1063.5,-168.5"/>
<text text-anchor="start" x="1071.5" y="-197.5" font-family="Helvetica,sans-Serif" font-size="10.00">/home/travis/build</text>
<text text-anchor="start" x="1071.5" y="-186.5" font-family="Helvetica,sans-Serif" font-size="10.00">/robotology/wb&#45;toolbox</text>
<text text-anchor="middle" x="1137" y="-175.5" font-family="Helvetica,sans-Serif" font-size="10.00">/toolbox/include/MassMatrix.h</text>
</a>
</g>
</g>
<!-- Node1&#45;&gt;Node20 -->
<g id="edge25" class="edge"><title>Node1&#45;&gt;Node20</title>
<path fill="none" stroke="midnightblue" d="M1088.48,-239.734C1098.38,-229.589 1109.01,-218.695 1117.78,-209.696"/>
<polygon fill="midnightblue" stroke="midnightblue" points="1085.92,-237.35 1081.44,-246.952 1090.93,-242.238 1085.92,-237.35"/>
</g>
<!-- Node22 -->
<g id="node22" class="node"><title>Node22</title>
<g id="a_node22"><a xlink:href="_model_partitioner_8h.html" target="_top" xlink:title="/home/travis/build\l/robotology/wb&#45;toolbox\l/toolbox/include/ModelPartitioner.h">
<polygon fill="none" stroke="black" points="1228.5,-168.5 1228.5,-209.5 1395.5,-209.5 1395.5,-168.5 1228.5,-168.5"/>
<text text-anchor="start" x="1236.5" y="-197.5" font-family="Helvetica,sans-Serif" font-size="10.00">/home/travis/build</text>
<text text-anchor="start" x="1236.5" y="-186.5" font-family="Helvetica,sans-Serif" font-size="10.00">/robotology/wb&#45;toolbox</text>
<text text-anchor="middle" x="1312" y="-175.5" font-family="Helvetica,sans-Serif" font-size="10.00">/toolbox/include/ModelPartitioner.h</text>
</a>
</g>
</g>
<!-- Node1&#45;&gt;Node22 -->
<g id="edge28" class="edge"><title>Node1&#45;&gt;Node22</title>
<path fill="none" stroke="midnightblue" d="M1124.32,-250.352C1163.66,-237.7 1212.93,-221.859 1251.11,-209.581"/>
<polygon fill="midnightblue" stroke="midnightblue" points="1122.99,-247.102 1114.54,-253.495 1125.14,-253.766 1122.99,-247.102"/>
</g>
<!-- Node24 -->
<g id="node24" class="node"><title>Node24</title>
<g id="a_node24"><a xlink:href="_set_low_level_p_i_d_8h.html" target="_top" xlink:title="/home/travis/build\l/robotology/wb&#45;toolbox\l/toolbox/include/SetLowLevelPID.h">
<polygon fill="none" stroke="black" points="1414,-168.5 1414,-209.5 1584,-209.5 1584,-168.5 1414,-168.5"/>
<text text-anchor="start" x="1422" y="-197.5" font-family="Helvetica,sans-Serif" font-size="10.00">/home/travis/build</text>
<text text-anchor="start" x="1422" y="-186.5" font-family="Helvetica,sans-Serif" font-size="10.00">/robotology/wb&#45;toolbox</text>
<text text-anchor="middle" x="1499" y="-175.5" font-family="Helvetica,sans-Serif" font-size="10.00">/toolbox/include/SetLowLevelPID.h</text>
</a>
</g>
</g>
<!-- Node1&#45;&gt;Node24 -->
<g id="edge31" class="edge"><title>Node1&#45;&gt;Node24</title>
<path fill="none" stroke="midnightblue" d="M1124.52,-260.567C1194.53,-248.565 1307.1,-228.853 1404,-210 1407.23,-209.372 1410.51,-208.724 1413.83,-208.063"/>
<polygon fill="midnightblue" stroke="midnightblue" points="1123.78,-257.144 1114.51,-262.281 1124.96,-264.043 1123.78,-257.144"/>
</g>
<!-- Node26 -->
<g id="node26" class="node"><title>Node26</title>
<g id="a_node26"><a xlink:href="_set_references_8h.html" target="_top" xlink:title="/home/travis/build\l/robotology/wb&#45;toolbox\l/toolbox/include/SetReferences.h">
<polygon fill="none" stroke="black" points="1602.5,-168.5 1602.5,-209.5 1763.5,-209.5 1763.5,-168.5 1602.5,-168.5"/>
<text text-anchor="start" x="1610.5" y="-197.5" font-family="Helvetica,sans-Serif" font-size="10.00">/home/travis/build</text>
<text text-anchor="start" x="1610.5" y="-186.5" font-family="Helvetica,sans-Serif" font-size="10.00">/robotology/wb&#45;toolbox</text>
<text text-anchor="middle" x="1683" y="-175.5" font-family="Helvetica,sans-Serif" font-size="10.00">/toolbox/include/SetReferences.h</text>
</a>
</g>
</g>
<!-- Node1&#45;&gt;Node26 -->
<g id="edge34" class="edge"><title>Node1&#45;&gt;Node26</title>
<path fill="none" stroke="midnightblue" d="M1124.95,-266.412C1227.02,-257.506 1425.77,-238.175 1593,-210 1596,-209.495 1599.05,-208.954 1602.12,-208.387"/>
<polygon fill="midnightblue" stroke="midnightblue" points="1124.44,-262.943 1114.78,-267.292 1125.05,-269.917 1124.44,-262.943"/>
</g>
<!-- Node28 -->
<g id="node28" class="node"><title>Node28</title>
<g id="a_node28"><a xlink:href="_w_b_block_8cpp.html" target="_top" xlink:title="/home/travis/build\l/robotology/wb&#45;toolbox\l/toolbox/src/base/WBBlock.cpp">
<polygon fill="none" stroke="black" points="1988.5,-168.5 1988.5,-209.5 2143.5,-209.5 2143.5,-168.5 1988.5,-168.5"/>
<text text-anchor="start" x="1996.5" y="-197.5" font-family="Helvetica,sans-Serif" font-size="10.00">/home/travis/build</text>
<text text-anchor="start" x="1996.5" y="-186.5" font-family="Helvetica,sans-Serif" font-size="10.00">/robotology/wb&#45;toolbox</text>
<text text-anchor="middle" x="2066" y="-175.5" font-family="Helvetica,sans-Serif" font-size="10.00">/toolbox/src/base/WBBlock.cpp</text>
</a>
</g>
</g>
<!-- Node1&#45;&gt;Node28 -->
<g id="edge37" class="edge"><title>Node1&#45;&gt;Node28</title>
<path fill="none" stroke="midnightblue" d="M1124.7,-271.12C1277.74,-268.33 1661.73,-256.833 1979,-210 1982.07,-209.547 1985.18,-209.043 1988.33,-208.499"/>
<polygon fill="midnightblue" stroke="midnightblue" points="1124.46,-267.624 1114.52,-271.299 1124.58,-274.622 1124.46,-267.624"/>
</g>
<!-- Node3 -->
<g id="node3" class="node"><title>Node3</title>
<g id="a_node3"><a xlink:href="toolbox_8h.html" target="_top" xlink:title="/home/travis/build\l/robotology/wb&#45;toolbox\l/toolbox/include/base\l/toolbox.h">
<polygon fill="none" stroke="black" points="847.5,-79 847.5,-131 962.5,-131 962.5,-79 847.5,-79"/>
<text text-anchor="start" x="855.5" y="-119" font-family="Helvetica,sans-Serif" font-size="10.00">/home/travis/build</text>
<text text-anchor="start" x="855.5" y="-108" font-family="Helvetica,sans-Serif" font-size="10.00">/robotology/wb&#45;toolbox</text>
<text text-anchor="start" x="855.5" y="-97" font-family="Helvetica,sans-Serif" font-size="10.00">/toolbox/include/base</text>
<text text-anchor="middle" x="905" y="-86" font-family="Helvetica,sans-Serif" font-size="10.00">/toolbox.h</text>
</a>
</g>
</g>
<!-- Node2&#45;&gt;Node3 -->
<g id="edge2" class="edge"><title>Node2&#45;&gt;Node3</title>
<path fill="none" stroke="midnightblue" d="M1771.4,-168.047C1416.69,-127.737 1317.04,-204.668 972,-132 968.948,-131.357 965.853,-130.592 962.752,-129.734"/>
<polygon fill="midnightblue" stroke="midnightblue" points="1771.09,-171.535 1781.43,-169.211 1771.9,-164.582 1771.09,-171.535"/>
</g>
<!-- Node7 -->
<g id="node7" class="node"><title>Node7</title>
<g id="a_node7"><a xlink:href="_centroidal_momentum_8cpp.html" target="_top" xlink:title="/home/travis/build\l/robotology/wb&#45;toolbox\l/toolbox/src/CentroidalMomentum.cpp">
<polygon fill="none" stroke="black" points="1818,-84.5 1818,-125.5 2000,-125.5 2000,-84.5 1818,-84.5"/>
<text text-anchor="start" x="1826" y="-113.5" font-family="Helvetica,sans-Serif" font-size="10.00">/home/travis/build</text>
<text text-anchor="start" x="1826" y="-102.5" font-family="Helvetica,sans-Serif" font-size="10.00">/robotology/wb&#45;toolbox</text>
<text text-anchor="middle" x="1909" y="-91.5" font-family="Helvetica,sans-Serif" font-size="10.00">/toolbox/src/CentroidalMomentum.cpp</text>
</a>
</g>
</g>
<!-- Node2&#45;&gt;Node7 -->
<g id="edge6" class="edge"><title>Node2&#45;&gt;Node7</title>
<path fill="none" stroke="midnightblue" d="M1887.85,-158.551C1892.25,-147.626 1897.12,-135.51 1901.09,-125.667"/>
<polygon fill="midnightblue" stroke="midnightblue" points="1884.47,-157.566 1883.99,-168.15 1890.97,-160.18 1884.47,-157.566"/>
</g>
<!-- Node4 -->
<g id="node4" class="node"><title>Node4</title>
<g id="a_node4"><a xlink:href="_block_8cpp.html" target="_top" xlink:title="/home/travis/build\l/robotology/wb&#45;toolbox\l/toolbox/src/base/Block.cpp">
<polygon fill="none" stroke="black" points="677,-0.5 677,-41.5 815,-41.5 815,-0.5 677,-0.5"/>
<text text-anchor="start" x="685" y="-29.5" font-family="Helvetica,sans-Serif" font-size="10.00">/home/travis/build</text>
<text text-anchor="start" x="685" y="-18.5" font-family="Helvetica,sans-Serif" font-size="10.00">/robotology/wb&#45;toolbox</text>
<text text-anchor="middle" x="746" y="-7.5" font-family="Helvetica,sans-Serif" font-size="10.00">/toolbox/src/base/Block.cpp</text>
</a>
</g>
</g>
<!-- Node3&#45;&gt;Node4 -->
<g id="edge3" class="edge"><title>Node3&#45;&gt;Node4</title>
<path fill="none" stroke="midnightblue" d="M847.521,-74.3565C826.362,-63.4444 802.944,-51.3673 783.936,-41.5645"/>
<polygon fill="midnightblue" stroke="midnightblue" points="845.939,-77.4788 856.431,-78.9517 849.147,-71.2574 845.939,-77.4788"/>
</g>
<!-- Node5 -->
<g id="node5" class="node"><title>Node5</title>
<g id="a_node5"><a xlink:href="factory_8cpp.html" target="_top" xlink:title="/home/travis/build\l/robotology/wb&#45;toolbox\l/toolbox/src/base/factory.cpp">
<polygon fill="none" stroke="black" points="833.5,-0.5 833.5,-41.5 976.5,-41.5 976.5,-0.5 833.5,-0.5"/>
<text text-anchor="start" x="841.5" y="-29.5" font-family="Helvetica,sans-Serif" font-size="10.00">/home/travis/build</text>
<text text-anchor="start" x="841.5" y="-18.5" font-family="Helvetica,sans-Serif" font-size="10.00">/robotology/wb&#45;toolbox</text>
<text text-anchor="middle" x="905" y="-7.5" font-family="Helvetica,sans-Serif" font-size="10.00">/toolbox/src/base/factory.cpp</text>
</a>
</g>
</g>
<!-- Node3&#45;&gt;Node5 -->
<g id="edge4" class="edge"><title>Node3&#45;&gt;Node5</title>
<path fill="none" stroke="midnightblue" d="M905,-68.7604C905,-59.4912 905,-49.8211 905,-41.6965"/>
<polygon fill="midnightblue" stroke="midnightblue" points="901.5,-68.9517 905,-78.9517 908.5,-68.9518 901.5,-68.9517"/>
</g>
<!-- Node6 -->
<g id="node6" class="node"><title>Node6</title>
<g id="a_node6"><a xlink:href="toolbox_8cpp.html" target="_top" xlink:title="/home/travis/build\l/robotology/wb&#45;toolbox\l/toolbox/src/base/toolbox.cpp">
<polygon fill="none" stroke="black" points="994.5,-0.5 994.5,-41.5 1139.5,-41.5 1139.5,-0.5 994.5,-0.5"/>
<text text-anchor="start" x="1002.5" y="-29.5" font-family="Helvetica,sans-Serif" font-size="10.00">/home/travis/build</text>
<text text-anchor="start" x="1002.5" y="-18.5" font-family="Helvetica,sans-Serif" font-size="10.00">/robotology/wb&#45;toolbox</text>
<text text-anchor="middle" x="1067" y="-7.5" font-family="Helvetica,sans-Serif" font-size="10.00">/toolbox/src/base/toolbox.cpp</text>
</a>
</g>
</g>
<!-- Node3&#45;&gt;Node6 -->
<g id="edge5" class="edge"><title>Node3&#45;&gt;Node6</title>
<path fill="none" stroke="midnightblue" d="M963.564,-74.3565C985.122,-63.4444 1008.98,-51.3673 1028.35,-41.5645"/>
<polygon fill="midnightblue" stroke="midnightblue" points="961.827,-71.3128 954.486,-78.9517 964.988,-77.5583 961.827,-71.3128"/>
</g>
<!-- Node8&#45;&gt;Node3 -->
<g id="edge8" class="edge"><title>Node8&#45;&gt;Node3</title>
<path fill="none" stroke="midnightblue" d="M168.357,-167.98C463.81,-122.424 549.307,-194.102 838,-132 841.05,-131.344 844.142,-130.568 847.241,-129.702"/>
<polygon fill="midnightblue" stroke="midnightblue" points="167.542,-164.565 158.208,-169.578 168.631,-171.48 167.542,-164.565"/>
</g>
<!-- Node9 -->
<g id="node9" class="node"><title>Node9</title>
<g id="a_node9"><a xlink:href="_dot_j_nu_8cpp.html" target="_top" xlink:title="/home/travis/build\l/robotology/wb&#45;toolbox\l/toolbox/src/DotJNu.cpp">
<polygon fill="none" stroke="black" points="-0.5,-84.5 -0.5,-125.5 122.5,-125.5 122.5,-84.5 -0.5,-84.5"/>
<text text-anchor="start" x="7.5" y="-113.5" font-family="Helvetica,sans-Serif" font-size="10.00">/home/travis/build</text>
<text text-anchor="start" x="7.5" y="-102.5" font-family="Helvetica,sans-Serif" font-size="10.00">/robotology/wb&#45;toolbox</text>
<text text-anchor="middle" x="61" y="-91.5" font-family="Helvetica,sans-Serif" font-size="10.00">/toolbox/src/DotJNu.cpp</text>
</a>
</g>
</g>
<!-- Node8&#45;&gt;Node9 -->
<g id="edge9" class="edge"><title>Node8&#45;&gt;Node9</title>
<path fill="none" stroke="midnightblue" d="M81.5078,-158.551C77.2444,-147.626 72.5161,-135.51 68.675,-125.667"/>
<polygon fill="midnightblue" stroke="midnightblue" points="78.3577,-160.107 85.2537,-168.15 84.8787,-157.562 78.3577,-160.107"/>
</g>
<!-- Node10&#45;&gt;Node3 -->
<g id="edge11" class="edge"><title>Node10&#45;&gt;Node3</title>
<path fill="none" stroke="midnightblue" d="M366.122,-167.955C575.702,-140.286 635.606,-177.911 838,-132 841.042,-131.31 844.129,-130.507 847.223,-129.619"/>
<polygon fill="midnightblue" stroke="midnightblue" points="365.467,-164.512 356.028,-169.322 366.407,-171.448 365.467,-164.512"/>
</g>
<!-- Node11 -->
<g id="node11" class="node"><title>Node11</title>
<g id="a_node11"><a xlink:href="_forward_kinematics_8cpp.html" target="_top" xlink:title="/home/travis/build\l/robotology/wb&#45;toolbox\l/toolbox/src/ForwardKinematics.cpp">
<polygon fill="none" stroke="black" points="140.5,-84.5 140.5,-125.5 313.5,-125.5 313.5,-84.5 140.5,-84.5"/>
<text text-anchor="start" x="148.5" y="-113.5" font-family="Helvetica,sans-Serif" font-size="10.00">/home/travis/build</text>
<text text-anchor="start" x="148.5" y="-102.5" font-family="Helvetica,sans-Serif" font-size="10.00">/robotology/wb&#45;toolbox</text>
<text text-anchor="middle" x="227" y="-91.5" font-family="Helvetica,sans-Serif" font-size="10.00">/toolbox/src/ForwardKinematics.cpp</text>
</a>
</g>
</g>
<!-- Node10&#45;&gt;Node11 -->
<g id="edge12" class="edge"><title>Node10&#45;&gt;Node11</title>
<path fill="none" stroke="midnightblue" d="M252.153,-158.885C246.916,-147.874 241.083,-135.61 236.354,-125.667"/>
<polygon fill="midnightblue" stroke="midnightblue" points="249.103,-160.623 256.559,-168.15 255.425,-157.616 249.103,-160.623"/>
</g>
<!-- Node12&#45;&gt;Node3 -->
<g id="edge14" class="edge"><title>Node12&#45;&gt;Node3</title>
<path fill="none" stroke="midnightblue" d="M522.46,-167.882C662.374,-143.404 703.551,-165.134 838,-132 841.029,-131.254 844.105,-130.405 847.19,-129.481"/>
<polygon fill="midnightblue" stroke="midnightblue" points="521.435,-164.51 512.213,-169.725 522.674,-171.399 521.435,-164.51"/>
</g>
<!-- Node13 -->
<g id="node13" class="node"><title>Node13</title>
<g id="a_node13"><a xlink:href="_get_limits_8cpp.html" target="_top" xlink:title="/home/travis/build\l/robotology/wb&#45;toolbox\l/toolbox/src/GetLimits.cpp">
<polygon fill="none" stroke="black" points="331.5,-84.5 331.5,-125.5 462.5,-125.5 462.5,-84.5 331.5,-84.5"/>
<text text-anchor="start" x="339.5" y="-113.5" font-family="Helvetica,sans-Serif" font-size="10.00">/home/travis/build</text>
<text text-anchor="start" x="339.5" y="-102.5" font-family="Helvetica,sans-Serif" font-size="10.00">/robotology/wb&#45;toolbox</text>
<text text-anchor="middle" x="397" y="-91.5" font-family="Helvetica,sans-Serif" font-size="10.00">/toolbox/src/GetLimits.cpp</text>
</a>
</g>
</g>
<!-- Node12&#45;&gt;Node13 -->
<g id="edge15" class="edge"><title>Node12&#45;&gt;Node13</title>
<path fill="none" stroke="midnightblue" d="M426.854,-159.219C420.629,-148.122 413.667,-135.711 408.033,-125.667"/>
<polygon fill="midnightblue" stroke="midnightblue" points="423.92,-161.141 431.865,-168.15 430.025,-157.716 423.92,-161.141"/>
</g>
<!-- Node14&#45;&gt;Node3 -->
<g id="edge17" class="edge"><title>Node14&#45;&gt;Node3</title>
<path fill="none" stroke="midnightblue" d="M711.443,-166.651C750.925,-157.115 796.978,-145.079 838,-132 841.091,-131.015 844.245,-129.961 847.417,-128.864"/>
<polygon fill="midnightblue" stroke="midnightblue" points="710.463,-163.286 701.554,-169.02 712.094,-170.094 710.463,-163.286"/>
</g>
<!-- Node15 -->
<g id="node15" class="node"><title>Node15</title>
<g id="a_node15"><a xlink:href="_get_measurement_8cpp.html" target="_top" xlink:title="/home/travis/build\l/robotology/wb&#45;toolbox\l/toolbox/src/GetMeasurement.cpp">
<polygon fill="none" stroke="black" points="481,-84.5 481,-125.5 645,-125.5 645,-84.5 481,-84.5"/>
<text text-anchor="start" x="489" y="-113.5" font-family="Helvetica,sans-Serif" font-size="10.00">/home/travis/build</text>
<text text-anchor="start" x="489" y="-102.5" font-family="Helvetica,sans-Serif" font-size="10.00">/robotology/wb&#45;toolbox</text>
<text text-anchor="middle" x="563" y="-91.5" font-family="Helvetica,sans-Serif" font-size="10.00">/toolbox/src/GetMeasurement.cpp</text>
</a>
</g>
</g>
<!-- Node14&#45;&gt;Node15 -->
<g id="edge18" class="edge"><title>Node14&#45;&gt;Node15</title>
<path fill="none" stroke="midnightblue" d="M597.612,-159.551C590.386,-148.37 582.268,-135.811 575.712,-125.667"/>
<polygon fill="midnightblue" stroke="midnightblue" points="594.802,-161.652 603.17,-168.15 600.681,-157.852 594.802,-161.652"/>
</g>
<!-- Node16&#45;&gt;Node3 -->
<g id="edge20" class="edge"><title>Node16&#45;&gt;Node3</title>
<path fill="none" stroke="midnightblue" d="M837.641,-161.793C849.516,-151.957 862.975,-140.809 874.723,-131.078"/>
<polygon fill="midnightblue" stroke="midnightblue" points="835.182,-159.285 829.713,-168.359 839.647,-164.676 835.182,-159.285"/>
</g>
<!-- Node17 -->
<g id="node17" class="node"><title>Node17</title>
<g id="a_node17"><a xlink:href="_inverse_dynamics_8cpp.html" target="_top" xlink:title="/home/travis/build\l/robotology/wb&#45;toolbox\l/toolbox/src/InverseDynamics.cpp">
<polygon fill="none" stroke="black" points="663,-84.5 663,-125.5 829,-125.5 829,-84.5 663,-84.5"/>
<text text-anchor="start" x="671" y="-113.5" font-family="Helvetica,sans-Serif" font-size="10.00">/home/travis/build</text>
<text text-anchor="start" x="671" y="-102.5" font-family="Helvetica,sans-Serif" font-size="10.00">/robotology/wb&#45;toolbox</text>
<text text-anchor="middle" x="746" y="-91.5" font-family="Helvetica,sans-Serif" font-size="10.00">/toolbox/src/InverseDynamics.cpp</text>
</a>
</g>
</g>
<!-- Node16&#45;&gt;Node17 -->
<g id="edge21" class="edge"><title>Node16&#45;&gt;Node17</title>
<path fill="none" stroke="midnightblue" d="M785.426,-159.883C777.185,-148.619 767.887,-135.912 760.391,-125.667"/>
<polygon fill="midnightblue" stroke="midnightblue" points="782.746,-162.147 791.476,-168.15 788.395,-158.013 782.746,-162.147"/>
</g>
<!-- Node18&#45;&gt;Node3 -->
<g id="edge23" class="edge"><title>Node18&#45;&gt;Node3</title>
<path fill="none" stroke="midnightblue" d="M953.531,-160.515C945.116,-151.061 935.739,-140.529 927.489,-131.261"/>
<polygon fill="midnightblue" stroke="midnightblue" points="951.065,-163.008 960.329,-168.15 956.294,-158.354 951.065,-163.008"/>
</g>
<!-- Node19 -->
<g id="node19" class="node"><title>Node19</title>
<g id="a_node19"><a xlink:href="_jacobian_8cpp.html" target="_top" xlink:title="/home/travis/build\l/robotology/wb&#45;toolbox\l/toolbox/src/Jacobian.cpp">
<polygon fill="none" stroke="black" points="981,-84.5 981,-125.5 1109,-125.5 1109,-84.5 981,-84.5"/>
<text text-anchor="start" x="989" y="-113.5" font-family="Helvetica,sans-Serif" font-size="10.00">/home/travis/build</text>
<text text-anchor="start" x="989" y="-102.5" font-family="Helvetica,sans-Serif" font-size="10.00">/robotology/wb&#45;toolbox</text>
<text text-anchor="middle" x="1045" y="-91.5" font-family="Helvetica,sans-Serif" font-size="10.00">/toolbox/src/Jacobian.cpp</text>
</a>
</g>
</g>
<!-- Node18&#45;&gt;Node19 -->
<g id="edge24" class="edge"><title>Node18&#45;&gt;Node19</title>
<path fill="none" stroke="midnightblue" d="M1000.7,-160.214C1009.97,-148.869 1020.48,-136.012 1028.93,-125.667"/>
<polygon fill="midnightblue" stroke="midnightblue" points="997.836,-158.192 994.219,-168.15 1003.26,-162.621 997.836,-158.192"/>
</g>
<!-- Node20&#45;&gt;Node3 -->
<g id="edge26" class="edge"><title>Node20&#45;&gt;Node3</title>
<path fill="none" stroke="midnightblue" d="M1067.41,-165.12C1037.89,-155.222 1003.16,-143.329 972,-132 968.951,-130.892 965.831,-129.74 962.684,-128.566"/>
<polygon fill="midnightblue" stroke="midnightblue" points="1066.62,-168.546 1077.21,-168.397 1068.84,-161.907 1066.62,-168.546"/>
</g>
<!-- Node21 -->
<g id="node21" class="node"><title>Node21</title>
<g id="a_node21"><a xlink:href="_mass_matrix_8cpp.html" target="_top" xlink:title="/home/travis/build\l/robotology/wb&#45;toolbox\l/toolbox/src/MassMatrix.cpp">
<polygon fill="none" stroke="black" points="1127,-84.5 1127,-125.5 1267,-125.5 1267,-84.5 1127,-84.5"/>
<text text-anchor="start" x="1135" y="-113.5" font-family="Helvetica,sans-Serif" font-size="10.00">/home/travis/build</text>
<text text-anchor="start" x="1135" y="-102.5" font-family="Helvetica,sans-Serif" font-size="10.00">/robotology/wb&#45;toolbox</text>
<text text-anchor="middle" x="1197" y="-91.5" font-family="Helvetica,sans-Serif" font-size="10.00">/toolbox/src/MassMatrix.cpp</text>
</a>
</g>
</g>
<!-- Node20&#45;&gt;Node21 -->
<g id="edge27" class="edge"><title>Node20&#45;&gt;Node21</title>
<path fill="none" stroke="midnightblue" d="M1157.57,-159.883C1165.82,-148.619 1175.11,-135.912 1182.61,-125.667"/>
<polygon fill="midnightblue" stroke="midnightblue" points="1154.6,-158.013 1151.52,-168.15 1160.25,-162.147 1154.6,-158.013"/>
</g>
<!-- Node22&#45;&gt;Node3 -->
<g id="edge29" class="edge"><title>Node22&#45;&gt;Node3</title>
<path fill="none" stroke="midnightblue" d="M1218.53,-168.004C1108.03,-148.97 1076.24,-159.447 972,-132 968.984,-131.206 965.917,-130.319 962.84,-129.365"/>
<polygon fill="midnightblue" stroke="midnightblue" points="1217.94,-171.454 1228.4,-169.745 1219.16,-164.56 1217.94,-171.454"/>
</g>
<!-- Node23 -->
<g id="node23" class="node"><title>Node23</title>
<g id="a_node23"><a xlink:href="_model_partitioner_8cpp.html" target="_top" xlink:title="/home/travis/build\l/robotology/wb&#45;toolbox\l/toolbox/src/ModelPartitioner.cpp">
<polygon fill="none" stroke="black" points="1285,-84.5 1285,-125.5 1445,-125.5 1445,-84.5 1285,-84.5"/>
<text text-anchor="start" x="1293" y="-113.5" font-family="Helvetica,sans-Serif" font-size="10.00">/home/travis/build</text>
<text text-anchor="start" x="1293" y="-102.5" font-family="Helvetica,sans-Serif" font-size="10.00">/robotology/wb&#45;toolbox</text>
<text text-anchor="middle" x="1365" y="-91.5" font-family="Helvetica,sans-Serif" font-size="10.00">/toolbox/src/ModelPartitioner.cpp</text>
</a>
</g>
</g>
<!-- Node22&#45;&gt;Node23 -->
<g id="edge30" class="edge"><title>Node22&#45;&gt;Node23</title>
<path fill="none" stroke="midnightblue" d="M1330.39,-159.551C1337.61,-148.37 1345.73,-135.811 1352.29,-125.667"/>
<polygon fill="midnightblue" stroke="midnightblue" points="1327.32,-157.852 1324.83,-168.15 1333.2,-161.652 1327.32,-157.852"/>
</g>
<!-- Node24&#45;&gt;Node3 -->
<g id="edge32" class="edge"><title>Node24&#45;&gt;Node3</title>
<path fill="none" stroke="midnightblue" d="M1404.31,-168.045C1404.2,-168.03 1404.1,-168.015 1404,-168 1213.37,-140.101 1159.74,-175.296 972,-132 968.961,-131.299 965.876,-130.487 962.783,-129.592"/>
<polygon fill="midnightblue" stroke="midnightblue" points="1403.47,-171.457 1413.9,-169.549 1404.56,-164.542 1403.47,-171.457"/>
</g>
<!-- Node25 -->
<g id="node25" class="node"><title>Node25</title>
<g id="a_node25"><a xlink:href="_set_low_level_p_i_d_8cpp.html" target="_top" xlink:title="/home/travis/build\l/robotology/wb&#45;toolbox\l/toolbox/src/SetLowLevelPID.cpp">
<polygon fill="none" stroke="black" points="1463.5,-84.5 1463.5,-125.5 1626.5,-125.5 1626.5,-84.5 1463.5,-84.5"/>
<text text-anchor="start" x="1471.5" y="-113.5" font-family="Helvetica,sans-Serif" font-size="10.00">/home/travis/build</text>
<text text-anchor="start" x="1471.5" y="-102.5" font-family="Helvetica,sans-Serif" font-size="10.00">/robotology/wb&#45;toolbox</text>
<text text-anchor="middle" x="1545" y="-91.5" font-family="Helvetica,sans-Serif" font-size="10.00">/toolbox/src/SetLowLevelPID.cpp</text>
</a>
</g>
</g>
<!-- Node24&#45;&gt;Node25 -->
<g id="edge33" class="edge"><title>Node24&#45;&gt;Node25</title>
<path fill="none" stroke="midnightblue" d="M1515.15,-159.219C1521.37,-148.122 1528.33,-135.711 1533.97,-125.667"/>
<polygon fill="midnightblue" stroke="midnightblue" points="1511.98,-157.716 1510.14,-168.15 1518.08,-161.141 1511.98,-157.716"/>
</g>
<!-- Node26&#45;&gt;Node3 -->
<g id="edge35" class="edge"><title>Node26&#45;&gt;Node3</title>
<path fill="none" stroke="midnightblue" d="M1591.89,-167.99C1317.27,-131.358 1238.86,-190.006 972,-132 968.952,-131.337 965.86,-130.556 962.762,-129.686"/>
<polygon fill="midnightblue" stroke="midnightblue" points="1591.78,-171.507 1602.16,-169.392 1592.72,-164.572 1591.78,-171.507"/>
</g>
<!-- Node27 -->
<g id="node27" class="node"><title>Node27</title>
<g id="a_node27"><a xlink:href="_set_references_8cpp.html" target="_top" xlink:title="/home/travis/build\l/robotology/wb&#45;toolbox\l/toolbox/src/SetReferences.cpp">
<polygon fill="none" stroke="black" points="1644.5,-84.5 1644.5,-125.5 1799.5,-125.5 1799.5,-84.5 1644.5,-84.5"/>
<text text-anchor="start" x="1652.5" y="-113.5" font-family="Helvetica,sans-Serif" font-size="10.00">/home/travis/build</text>
<text text-anchor="start" x="1652.5" y="-102.5" font-family="Helvetica,sans-Serif" font-size="10.00">/robotology/wb&#45;toolbox</text>
<text text-anchor="middle" x="1722" y="-91.5" font-family="Helvetica,sans-Serif" font-size="10.00">/toolbox/src/SetReferences.cpp</text>
</a>
</g>
</g>
<!-- Node26&#45;&gt;Node27 -->
<g id="edge36" class="edge"><title>Node26&#45;&gt;Node27</title>
<path fill="none" stroke="midnightblue" d="M1696.85,-158.885C1702.08,-147.874 1707.92,-135.61 1712.65,-125.667"/>
<polygon fill="midnightblue" stroke="midnightblue" points="1693.58,-157.616 1692.44,-168.15 1699.9,-160.623 1693.58,-157.616"/>
</g>
</g>
</svg>
        <g id="navigator" transform="translate(0 0)" fill="#404254">
                <rect fill="#f2f5e9" fill-opacity="0.5" stroke="#606060" stroke-width=".5" x="0" y="0" width="60" height="60"/>
                <use id="zoomplus" xlink:href="#zoomPlus" x="17" y="9" onmousedown="handleZoom(evt,'in')"/>
                <use id="zoomminus" xlink:href="#zoomMin" x="42" y="9" onmousedown="handleZoom(evt,'out')"/>
                <use id="reset" xlink:href="#resetDef" x="30" y="36" onmousedown="handleReset()"/>
                <g id="arrowUp" xlink:href="#dirArrow" transform="translate(30 24)" onmousedown="handlePan(0,-1)">
                  <use xlink:href="#rim" fill="#404040">
                        <set attributeName="fill" to="#808080" begin="arrowUp.mouseover" end="arrowUp.mouseout"/>
                  </use>
                  <path fill="none" stroke="white" stroke-width="1.5" d="M0,-3.0v7 M-2.5,-0.5L0,-3.0L2.5,-0.5"/>
                </g>
                <g id="arrowRight" xlink:href="#dirArrow" transform="rotate(90) translate(36 -43)" onmousedown="handlePan(1,0)">
                  <use xlink:href="#rim" fill="#404040">
                        <set attributeName="fill" to="#808080" begin="arrowRight.mouseover" end="arrowRight.mouseout"/>
                  </use>
                  <path fill="none" stroke="white" stroke-width="1.5" d="M0,-3.0v7 M-2.5,-0.5L0,-3.0L2.5,-0.5"/>
                </g>
                <g id="arrowDown" xlink:href="#dirArrow" transform="rotate(180) translate(-30 -48)" onmousedown="handlePan(0,1)">
                  <use xlink:href="#rim" fill="#404040">
                        <set attributeName="fill" to="#808080" begin="arrowDown.mouseover" end="arrowDown.mouseout"/>
                  </use>
                  <path fill="none" stroke="white" stroke-width="1.5" d="M0,-3.0v7 M-2.5,-0.5L0,-3.0L2.5,-0.5"/>
                </g>
                <g id="arrowLeft" xlink:href="#dirArrow" transform="rotate(270) translate(-36 17)" onmousedown="handlePan(-1,0)">
                  <use xlink:href="#rim" fill="#404040">
                        <set attributeName="fill" to="#808080" begin="arrowLeft.mouseover" end="arrowLeft.mouseout"/>
                  </use>
                  <path fill="none" stroke="white" stroke-width="1.5" d="M0,-3.0v7 M-2.5,-0.5L0,-3.0L2.5,-0.5"/>
                </g>
        </g>
        <svg viewBox="0 0 15 15" width="100%" height="30px" preserveAspectRatio="xMaxYMin meet">
         <g id="arrow_out" transform="scale(0.3 0.3)">
          <a xlink:href="_w_b_block_8h__dep__incl_org.svg" target="_base">
           <rect id="button" ry="5" rx="5" y="6" x="6" height="38" width="38"
                fill="#f2f5e9" fill-opacity="0.5" stroke="#606060" stroke-width="1.0"/>
           <path id="arrow"
             d="M 11.500037,31.436501 C 11.940474,20.09759 22.043105,11.32322 32.158766,21.979434 L 37.068811,17.246167 C 37.068811,17.246167 37.088388,32 37.088388,32 L 22.160133,31.978069 C 22.160133,31.978069 26.997745,27.140456 26.997745,27.140456 C 18.528582,18.264221 13.291696,25.230495 11.500037,31.436501 z"
             style="fill:#404040;"/>
          </a>
         </g>
        </svg>
</svg>
