<?xml version="1.0" encoding="UTF-8" standalone="no"?>
<!DOCTYPE svg PUBLIC "-//W3C//DTD SVG 1.1//EN"
 "http://www.w3.org/Graphics/SVG/1.1/DTD/svg11.dtd">
<!-- Generated by graphviz version 2.38.0 (20140413.2041)
 -->
<!-- Title: /home/travis/build/robotology/wb&#45;toolbox/toolbox/base/include/WBToolbox/Base/WholeBodySingleton.h Pages: 1 -->
<svg width="244pt" height="117pt"
 viewBox="0.00 0.00 243.50 117.00" xmlns="http://www.w3.org/2000/svg" xmlns:xlink="http://www.w3.org/1999/xlink">
<g id="graph0" class="graph" transform="scale(1 1) rotate(0) translate(4 113)">
<title>/home/travis/build/robotology/wb&#45;toolbox/toolbox/base/include/WBToolbox/Base/WholeBodySingleton.h</title>
<!-- Node1 -->
<g id="node1" class="node"><title>Node1</title>
<polygon fill="#bfbfbf" stroke="black" points="0,-56.5 0,-108.5 206,-108.5 206,-56.5 0,-56.5"/>
<text text-anchor="start" x="8" y="-96.5" font-family="Helvetica,sans-Serif" font-size="10.00">/home/travis/build</text>
<text text-anchor="start" x="8" y="-85.5" font-family="Helvetica,sans-Serif" font-size="10.00">/robotology/wb&#45;toolbox</text>
<text text-anchor="start" x="8" y="-74.5" font-family="Helvetica,sans-Serif" font-size="10.00">/toolbox/base/include</text>
<text text-anchor="middle" x="103" y="-63.5" font-family="Helvetica,sans-Serif" font-size="10.00">/WBToolbox/Base/WholeBodySingleton.h</text>
</g>
<!-- Node2 -->
<g id="node2" class="node"><title>Node2</title>
<polygon fill="none" stroke="#bfbfbf" points="5.5,-0.5 5.5,-19.5 62.5,-19.5 62.5,-0.5 5.5,-0.5"/>
<text text-anchor="middle" x="34" y="-7.5" font-family="Helvetica,sans-Serif" font-size="10.00">memory</text>
</g>
<!-- Node1&#45;&gt;Node2 -->
<g id="edge1" class="edge"><title>Node1&#45;&gt;Node2</title>
<path fill="none" stroke="midnightblue" d="M78.4789,-56.4458C68.8701,-46.6281 58.1313,-35.6559 49.613,-26.9524"/>
<polygon fill="midnightblue" stroke="midnightblue" points="52.0065,-24.3941 42.5105,-19.6955 47.0038,-29.2903 52.0065,-24.3941"/>
</g>
<!-- Node3 -->
<g id="node3" class="node"><title>Node3</title>
<polygon fill="none" stroke="#bfbfbf" points="81,-0.5 81,-19.5 125,-19.5 125,-0.5 81,-0.5"/>
<text text-anchor="middle" x="103" y="-7.5" font-family="Helvetica,sans-Serif" font-size="10.00">string</text>
</g>
<!-- Node1&#45;&gt;Node3 -->
<g id="edge2" class="edge"><title>Node1&#45;&gt;Node3</title>
<path fill="none" stroke="midnightblue" d="M103,-56.4458C103,-47.7301 103,-38.1045 103,-29.9641"/>
<polygon fill="midnightblue" stroke="midnightblue" points="106.5,-29.6954 103,-19.6955 99.5001,-29.6955 106.5,-29.6954"/>
</g>
<!-- Node4 -->
<g id="node4" class="node"><title>Node4</title>
<polygon fill="none" stroke="#bfbfbf" points="142.5,-0.5 142.5,-19.5 235.5,-19.5 235.5,-0.5 142.5,-0.5"/>
<text text-anchor="middle" x="189" y="-7.5" font-family="Helvetica,sans-Serif" font-size="10.00">unordered_map</text>
</g>
<!-- Node1&#45;&gt;Node4 -->
<g id="edge3" class="edge"><title>Node1&#45;&gt;Node4</title>
<path fill="none" stroke="midnightblue" d="M133.563,-56.4458C145.905,-46.3276 159.744,-34.983 170.507,-26.1596"/>
<polygon fill="midnightblue" stroke="midnightblue" points="172.878,-28.742 178.393,-19.6955 168.44,-23.3285 172.878,-28.742"/>
</g>
</g>
</svg>
