<?xml version="1.0" encoding="UTF-8" standalone="no"?>
<!DOCTYPE svg PUBLIC "-//W3C//DTD SVG 1.1//EN"
 "http://www.w3.org/Graphics/SVG/1.1/DTD/svg11.dtd">
<!-- Generated by graphviz version 2.43.0 (0)
 -->
<!-- Title: /home/dferigo/git/WB&#45;Toolbox/toolbox/base/src/WholeBodySingleton.cpp Pages: 1 -->
<svg width="1165pt" height="173pt"
 viewBox="0.00 0.00 1165.00 173.00" xmlns="http://www.w3.org/2000/svg" xmlns:xlink="http://www.w3.org/1999/xlink">
<g id="graph0" class="graph" transform="scale(1 1) rotate(0) translate(4 169)">
<title>/home/dferigo/git/WB&#45;Toolbox/toolbox/base/src/WholeBodySingleton.cpp</title>
<!-- Node1 -->
<g id="node1" class="node">
<title>Node1</title>
<g id="a_node1"><a xlink:title=" ">
<polygon fill="#bfbfbf" stroke="black" points="556,-123.5 556,-164.5 714,-164.5 714,-123.5 556,-123.5"/>
<text text-anchor="start" x="564" y="-152.5" font-family="Helvetica,sans-Serif" font-size="10.00">/home/dferigo/git/WB</text>
<text text-anchor="start" x="564" y="-141.5" font-family="Helvetica,sans-Serif" font-size="10.00">&#45;Toolbox/toolbox/base</text>
<text text-anchor="middle" x="635" y="-130.5" font-family="Helvetica,sans-Serif" font-size="10.00">/src/WholeBodySingleton.cpp</text>
</a>
</g>
</g>
<!-- Node2 -->
<g id="node2" class="node">
<title>Node2</title>
<g id="a_node2"><a xlink:href="_whole_body_singleton_8h.html" target="_top" xlink:title=" ">
<polygon fill="none" stroke="black" points="200,-56.5 200,-86.5 356,-86.5 356,-56.5 200,-56.5"/>
<text text-anchor="start" x="208" y="-74.5" font-family="Helvetica,sans-Serif" font-size="10.00">WBToolbox/Base/WholeBody</text>
<text text-anchor="middle" x="278" y="-63.5" font-family="Helvetica,sans-Serif" font-size="10.00">Singleton.h</text>
</a>
</g>
</g>
<!-- Node1&#45;&gt;Node2 -->
<g id="edge1" class="edge">
<title>Node1&#45;&gt;Node2</title>
<path fill="none" stroke="midnightblue" d="M555.77,-127.35C497.32,-115.81 418.05,-100.16 359.15,-88.53"/>
<polygon fill="midnightblue" stroke="midnightblue" points="359.63,-85.05 349.14,-86.55 358.27,-91.92 359.63,-85.05"/>
</g>
<!-- Node4 -->
<g id="node4" class="node">
<title>Node4</title>
<g id="a_node4"><a xlink:title=" ">
<polygon fill="none" stroke="#bfbfbf" points="344,-0.5 344,-19.5 388,-19.5 388,-0.5 344,-0.5"/>
<text text-anchor="middle" x="366" y="-7.5" font-family="Helvetica,sans-Serif" font-size="10.00">string</text>
</a>
</g>
</g>
<!-- Node1&#45;&gt;Node4 -->
<g id="edge20" class="edge">
<title>Node1&#45;&gt;Node4</title>
<path fill="none" stroke="midnightblue" d="M555.81,-140.59C507.12,-135.35 446.02,-121.6 403,-87 384.99,-72.52 375.13,-47.09 370.22,-29.66"/>
<polygon fill="midnightblue" stroke="midnightblue" points="373.51,-28.4 367.66,-19.56 366.72,-30.12 373.51,-28.4"/>
</g>
<!-- Node6 -->
<g id="node6" class="node">
<title>Node6</title>
<g id="a_node6"><a xlink:href="_configuration_8h.html" target="_top" xlink:title=" ">
<polygon fill="none" stroke="black" points="412,-62 412,-81 588,-81 588,-62 412,-62"/>
<text text-anchor="middle" x="500" y="-69" font-family="Helvetica,sans-Serif" font-size="10.00">WBToolbox/Base/Configuration.h</text>
</a>
</g>
</g>
<!-- Node1&#45;&gt;Node6 -->
<g id="edge5" class="edge">
<title>Node1&#45;&gt;Node6</title>
<path fill="none" stroke="midnightblue" d="M597.39,-123.36C574.5,-111.4 545.84,-96.44 525.56,-85.85"/>
<polygon fill="midnightblue" stroke="midnightblue" points="527.09,-82.7 516.61,-81.17 523.85,-88.9 527.09,-82.7"/>
</g>
<!-- Node7 -->
<g id="node7" class="node">
<title>Node7</title>
<g id="a_node7"><a xlink:title=" ">
<polygon fill="none" stroke="#bfbfbf" points="502,-0.5 502,-19.5 544,-19.5 544,-0.5 502,-0.5"/>
<text text-anchor="middle" x="523" y="-7.5" font-family="Helvetica,sans-Serif" font-size="10.00">array</text>
</a>
</g>
</g>
<!-- Node1&#45;&gt;Node7 -->
<g id="edge17" class="edge">
<title>Node1&#45;&gt;Node7</title>
<path fill="none" stroke="midnightblue" d="M630.19,-123.49C624.73,-104.52 614.24,-75.73 597,-56 585.15,-42.44 568.19,-31.72 553.5,-24.15"/>
<polygon fill="midnightblue" stroke="midnightblue" points="554.77,-20.87 544.25,-19.63 551.7,-27.16 554.77,-20.87"/>
</g>
<!-- Node8 -->
<g id="node8" class="node">
<title>Node8</title>
<g id="a_node8"><a xlink:title=" ">
<polygon fill="none" stroke="#bfbfbf" points="607.5,-0.5 607.5,-19.5 654.5,-19.5 654.5,-0.5 607.5,-0.5"/>
<text text-anchor="middle" x="631" y="-7.5" font-family="Helvetica,sans-Serif" font-size="10.00">vector</text>
</a>
</g>
</g>
<!-- Node1&#45;&gt;Node8 -->
<g id="edge21" class="edge">
<title>Node1&#45;&gt;Node8</title>
<path fill="none" stroke="midnightblue" d="M634.4,-123.24C633.64,-98.03 632.33,-54.74 631.57,-29.93"/>
<polygon fill="midnightblue" stroke="midnightblue" points="635.06,-29.57 631.26,-19.69 628.07,-29.79 635.06,-29.57"/>
</g>
<!-- Node9 -->
<g id="node9" class="node">
<title>Node9</title>
<g id="a_node9"><a xlink:href="_robot_interface_8h.html" target="_top" xlink:title=" ">
<polygon fill="none" stroke="black" points="0,-62 0,-81 182,-81 182,-62 0,-62"/>
<text text-anchor="middle" x="91" y="-69" font-family="Helvetica,sans-Serif" font-size="10.00">WBToolbox/Base/RobotInterface.h</text>
</a>
</g>
</g>
<!-- Node1&#45;&gt;Node9 -->
<g id="edge10" class="edge">
<title>Node1&#45;&gt;Node9</title>
<path fill="none" stroke="midnightblue" d="M555.94,-133.48C467.1,-122.67 318.61,-104.3 191,-87 180.42,-85.57 169.22,-83.99 158.29,-82.43"/>
<polygon fill="midnightblue" stroke="midnightblue" points="158.75,-78.96 148.35,-81 157.75,-85.89 158.75,-78.96"/>
</g>
<!-- Node11 -->
<g id="node11" class="node">
<title>Node11</title>
<g id="a_node11"><a xlink:title=" ">
<polygon fill="none" stroke="#bfbfbf" points="682,-62 682,-81 816,-81 816,-62 682,-62"/>
<text text-anchor="middle" x="749" y="-69" font-family="Helvetica,sans-Serif" font-size="10.00">BlockFactory/Core/Log.h</text>
</a>
</g>
</g>
<!-- Node1&#45;&gt;Node11 -->
<g id="edge15" class="edge">
<title>Node1&#45;&gt;Node11</title>
<path fill="none" stroke="midnightblue" d="M666.76,-123.36C685.66,-111.67 709.2,-97.12 726.24,-86.57"/>
<polygon fill="midnightblue" stroke="midnightblue" points="728.31,-89.41 734.97,-81.17 724.63,-83.46 728.31,-89.41"/>
</g>
<!-- Node12 -->
<g id="node12" class="node">
<title>Node12</title>
<g id="a_node12"><a xlink:title=" ">
<polygon fill="none" stroke="#bfbfbf" points="834.5,-62 834.5,-81 1007.5,-81 1007.5,-62 834.5,-62"/>
<text text-anchor="middle" x="921" y="-69" font-family="Helvetica,sans-Serif" font-size="10.00">BlockFactory/Core/Parameters.h</text>
</a>
</g>
</g>
<!-- Node1&#45;&gt;Node12 -->
<g id="edge16" class="edge">
<title>Node1&#45;&gt;Node12</title>
<path fill="none" stroke="midnightblue" d="M714.29,-123.46C766.63,-110.55 833.28,-94.12 876.53,-83.46"/>
<polygon fill="midnightblue" stroke="midnightblue" points="877.59,-86.8 886.47,-81.01 875.92,-80.01 877.59,-86.8"/>
</g>
<!-- Node13 -->
<g id="node13" class="node">
<title>Node13</title>
<g id="a_node13"><a xlink:title=" ">
<polygon fill="none" stroke="#bfbfbf" points="1025.5,-62 1025.5,-81 1082.5,-81 1082.5,-62 1025.5,-62"/>
<text text-anchor="middle" x="1054" y="-69" font-family="Helvetica,sans-Serif" font-size="10.00">ostream</text>
</a>
</g>
</g>
<!-- Node1&#45;&gt;Node13 -->
<g id="edge18" class="edge">
<title>Node1&#45;&gt;Node13</title>
<path fill="none" stroke="midnightblue" d="M714.34,-136.68C792.35,-129.23 914.32,-114.26 1017,-87 1019.66,-86.29 1022.39,-85.46 1025.1,-84.54"/>
<polygon fill="midnightblue" stroke="midnightblue" points="1026.51,-87.76 1034.69,-81.02 1024.1,-81.18 1026.51,-87.76"/>
</g>
<!-- Node14 -->
<g id="node14" class="node">
<title>Node14</title>
<g id="a_node14"><a xlink:title=" ">
<polygon fill="none" stroke="#bfbfbf" points="1101,-62 1101,-81 1157,-81 1157,-62 1101,-62"/>
<text text-anchor="middle" x="1129" y="-69" font-family="Helvetica,sans-Serif" font-size="10.00">stddef.h</text>
</a>
</g>
</g>
<!-- Node1&#45;&gt;Node14 -->
<g id="edge19" class="edge">
<title>Node1&#45;&gt;Node14</title>
<path fill="none" stroke="midnightblue" d="M714.14,-139.34C806.15,-133.71 962,-119.88 1092,-87 1094.67,-86.33 1097.4,-85.51 1100.12,-84.61"/>
<polygon fill="midnightblue" stroke="midnightblue" points="1101.52,-87.83 1109.72,-81.11 1099.12,-81.25 1101.52,-87.83"/>
</g>
<!-- Node3 -->
<g id="node3" class="node">
<title>Node3</title>
<g id="a_node3"><a xlink:title=" ">
<polygon fill="none" stroke="#bfbfbf" points="249,-0.5 249,-19.5 307,-19.5 307,-0.5 249,-0.5"/>
<text text-anchor="middle" x="278" y="-7.5" font-family="Helvetica,sans-Serif" font-size="10.00">memory</text>
</a>
</g>
</g>
<!-- Node2&#45;&gt;Node3 -->
<g id="edge2" class="edge">
<title>Node2&#45;&gt;Node3</title>
<path fill="none" stroke="midnightblue" d="M278,-56.4C278,-48.47 278,-38.46 278,-29.86"/>
<polygon fill="midnightblue" stroke="midnightblue" points="281.5,-29.66 278,-19.66 274.5,-29.66 281.5,-29.66"/>
</g>
<!-- Node2&#45;&gt;Node4 -->
<g id="edge3" class="edge">
<title>Node2&#45;&gt;Node4</title>
<path fill="none" stroke="midnightblue" d="M298.85,-56.4C312.7,-47.04 330.81,-34.79 344.74,-25.38"/>
<polygon fill="midnightblue" stroke="midnightblue" points="346.87,-28.16 353.2,-19.66 342.95,-22.36 346.87,-28.16"/>
</g>
<!-- Node5 -->
<g id="node5" class="node">
<title>Node5</title>
<g id="a_node5"><a xlink:title=" ">
<polygon fill="none" stroke="#bfbfbf" points="134.5,-0.5 134.5,-19.5 227.5,-19.5 227.5,-0.5 134.5,-0.5"/>
<text text-anchor="middle" x="181" y="-7.5" font-family="Helvetica,sans-Serif" font-size="10.00">unordered_map</text>
</a>
</g>
</g>
<!-- Node2&#45;&gt;Node5 -->
<g id="edge4" class="edge">
<title>Node2&#45;&gt;Node5</title>
<path fill="none" stroke="midnightblue" d="M255.01,-56.4C239.61,-46.95 219.41,-34.56 204,-25.11"/>
<polygon fill="midnightblue" stroke="midnightblue" points="205.47,-21.9 195.11,-19.66 201.81,-27.87 205.47,-21.9"/>
</g>
<!-- Node6&#45;&gt;Node3 -->
<g id="edge7" class="edge">
<title>Node6&#45;&gt;Node3</title>
<path fill="none" stroke="midnightblue" d="M468.19,-61.98C428.35,-51.3 360.09,-33 317.1,-21.48"/>
<polygon fill="midnightblue" stroke="midnightblue" points="317.84,-18.05 307.27,-18.85 316.02,-24.81 317.84,-18.05"/>
</g>
<!-- Node6&#45;&gt;Node4 -->
<g id="edge8" class="edge">
<title>Node6&#45;&gt;Node4</title>
<path fill="none" stroke="midnightblue" d="M480.8,-61.98C458.21,-51.95 420.5,-35.2 394.5,-23.65"/>
<polygon fill="midnightblue" stroke="midnightblue" points="395.72,-20.37 385.16,-19.51 392.88,-26.77 395.72,-20.37"/>
</g>
<!-- Node6&#45;&gt;Node7 -->
<g id="edge6" class="edge">
<title>Node6&#45;&gt;Node7</title>
<path fill="none" stroke="midnightblue" d="M503.3,-61.98C506.61,-53.4 511.82,-39.93 516.05,-28.98"/>
<polygon fill="midnightblue" stroke="midnightblue" points="519.37,-30.1 519.71,-19.51 512.84,-27.57 519.37,-30.1"/>
</g>
<!-- Node6&#45;&gt;Node8 -->
<g id="edge9" class="edge">
<title>Node6&#45;&gt;Node8</title>
<path fill="none" stroke="midnightblue" d="M518.77,-61.98C540.85,-51.95 577.72,-35.2 603.14,-23.65"/>
<polygon fill="midnightblue" stroke="midnightblue" points="604.61,-26.83 612.27,-19.51 601.71,-20.46 604.61,-26.83"/>
</g>
<!-- Node9&#45;&gt;Node3 -->
<g id="edge11" class="edge">
<title>Node9&#45;&gt;Node3</title>
<path fill="none" stroke="midnightblue" d="M117.79,-61.98C150.29,-51.64 205.21,-34.16 241.54,-22.6"/>
<polygon fill="midnightblue" stroke="midnightblue" points="242.79,-25.88 251.26,-19.51 240.67,-19.21 242.79,-25.88"/>
</g>
<!-- Node9&#45;&gt;Node4 -->
<g id="edge12" class="edge">
<title>Node9&#45;&gt;Node4</title>
<path fill="none" stroke="midnightblue" d="M130.4,-61.98C185.17,-50.13 283.26,-28.9 333.86,-17.95"/>
<polygon fill="midnightblue" stroke="midnightblue" points="334.87,-21.32 343.9,-15.78 333.39,-14.47 334.87,-21.32"/>
</g>
<!-- Node9&#45;&gt;Node5 -->
<g id="edge13" class="edge">
<title>Node9&#45;&gt;Node5</title>
<path fill="none" stroke="midnightblue" d="M103.89,-61.98C118.46,-52.34 142.4,-36.52 159.75,-25.05"/>
<polygon fill="midnightblue" stroke="midnightblue" points="161.72,-27.94 168.13,-19.51 157.86,-22.1 161.72,-27.94"/>
</g>
<!-- Node10 -->
<g id="node10" class="node">
<title>Node10</title>
<g id="a_node10"><a xlink:title=" ">
<polygon fill="none" stroke="#bfbfbf" points="68.5,-0.5 68.5,-19.5 113.5,-19.5 113.5,-0.5 68.5,-0.5"/>
<text text-anchor="middle" x="91" y="-7.5" font-family="Helvetica,sans-Serif" font-size="10.00">utility</text>
</a>
</g>
</g>
<!-- Node9&#45;&gt;Node10 -->
<g id="edge14" class="edge">
<title>Node9&#45;&gt;Node10</title>
<path fill="none" stroke="midnightblue" d="M91,-61.98C91,-53.58 91,-40.48 91,-29.66"/>
<polygon fill="midnightblue" stroke="midnightblue" points="94.5,-29.51 91,-19.51 87.5,-29.51 94.5,-29.51"/>
</g>
</g>
</svg>
