<?xml version="1.0" encoding="UTF-8" standalone="no"?>
<!DOCTYPE svg PUBLIC "-//W3C//DTD SVG 1.1//EN"
 "http://www.w3.org/Graphics/SVG/1.1/DTD/svg11.dtd">
<!-- Generated by graphviz version 2.36.0 (20140111.2315)
 -->
<!-- Title: /home/travis/build/robotology/wb&#45;toolbox/toolbox/library/src/YarpClock.cpp Pages: 1 -->
<!--zoomable 274 -->
<svg id="main" version="1.1" xmlns="http://www.w3.org/2000/svg" xmlns:xlink="http://www.w3.org/1999/xlink" xml:space="preserve" onload="init(evt)">
<style type="text/css"><![CDATA[
.edge:hover path { stroke: red; }
.edge:hover polygon { stroke: red; fill: red; }
]]></style>
<script type="text/javascript"><![CDATA[
var edges = document.getElementsByTagName('g');
if (edges && edges.length) {
  for (var i=0;i<edges.length;i++) {
    if (edges[i].id.substr(0,4)=='edge') {
      edges[i].setAttribute('class','edge');
    }
  }
}
]]></script>
        <defs>
                <circle id="rim" cx="0" cy="0" r="7"/>
                <circle id="rim2" cx="0" cy="0" r="3.5"/>
                <g id="zoomPlus">
                        <use xlink:href="#rim" fill="#404040">
                                <set attributeName="fill" to="#808080" begin="zoomplus.mouseover" end="zoomplus.mouseout"/>
                        </use>
                        <path d="M-4,0h8M0,-4v8" fill="none" stroke="white" stroke-width="1.5" pointer-events="none"/>
                </g>
                <g id="zoomMin">
                        <use xlink:href="#rim" fill="#404040">
                                <set attributeName="fill" to="#808080" begin="zoomminus.mouseover" end="zoomminus.mouseout"/>
                        </use>
                        <path d="M-4,0h8" fill="none" stroke="white" stroke-width="1.5" pointer-events="none"/>
                </g>
                <g id="dirArrow">
                        <path fill="none" stroke="white" stroke-width="1.5" d="M0,-3.0v7 M-2.5,-0.5L0,-3.0L2.5,-0.5"/>
                </g>
               <g id="resetDef">
                       <use xlink:href="#rim2" fill="#404040">
                               <set attributeName="fill" to="#808080" begin="reset.mouseover" end="reset.mouseout"/>
                       </use>
               </g>
        </defs>

<script type="text/javascript">
var viewWidth = 742;
var viewHeight = 274;
var sectionId = 'dynsection-0';
</script>
<script xlink:href="svgpan.js"/>
<svg id="graph" class="graph">
<g id="viewport">
<title>/home/travis/build/robotology/wb&#45;toolbox/toolbox/library/src/YarpClock.cpp</title>
<!-- Node1 -->
<g id="node1" class="node"><title>Node1</title>
<polygon fill="#bfbfbf" stroke="black" points="333.425,-224.5 333.425,-265.5 497.425,-265.5 497.425,-224.5 333.425,-224.5"/>
<text text-anchor="start" x="341.425" y="-253.5" font-family="Helvetica,sans-Serif" font-size="10.00">/home/travis/build</text>
<text text-anchor="start" x="341.425" y="-242.5" font-family="Helvetica,sans-Serif" font-size="10.00">/robotology/wb&#45;toolbox</text>
<text text-anchor="middle" x="415.425" y="-231.5" font-family="Helvetica,sans-Serif" font-size="10.00">/toolbox/library/src/YarpClock.cpp</text>
</g>
<!-- Node2 -->
<g id="node2" class="node"><title>Node2</title>
<g id="a_node2"><a xlink:href="_yarp_clock_8h.html" target="_top" xlink:title="YarpClock.h">
<polygon fill="none" stroke="black" points="31.9245,-168.5 31.9245,-187.5 102.925,-187.5 102.925,-168.5 31.9245,-168.5"/>
<text text-anchor="middle" x="67.4245" y="-175.5" font-family="Helvetica,sans-Serif" font-size="10.00">YarpClock.h</text>
</a>
</g>
</g>
<!-- Node1&#45;&gt;Node2 -->
<g id="edge1" class="edge"><title>Node1&#45;&gt;Node2</title>
<path fill="none" stroke="midnightblue" d="M333.394,-228.678C264.725,-215.852 169.237,-198.017 113.321,-187.573"/>
<polygon fill="midnightblue" stroke="midnightblue" points="113.829,-184.107 103.357,-185.711 112.544,-190.988 113.829,-184.107"/>
</g>
<!-- Node8 -->
<g id="node8" class="node"><title>Node8</title>
<g id="a_node8"><a xlink:href="_block_information_8h.html" target="_top" xlink:title="Core/BlockInformation.h">
<polygon fill="none" stroke="black" points="173.425,-56.5 173.425,-75.5 295.425,-75.5 295.425,-56.5 173.425,-56.5"/>
<text text-anchor="middle" x="234.425" y="-63.5" font-family="Helvetica,sans-Serif" font-size="10.00">Core/BlockInformation.h</text>
</a>
</g>
</g>
<!-- Node1&#45;&gt;Node8 -->
<g id="edge10" class="edge"><title>Node1&#45;&gt;Node8</title>
<path fill="none" stroke="midnightblue" d="M389.462,-224.354C376.207,-213.973 360.047,-200.764 346.425,-188 308.846,-152.788 268.771,-107.309 248.268,-83.3834"/>
<polygon fill="midnightblue" stroke="midnightblue" points="250.789,-80.9459 241.64,-75.6028 245.46,-85.4851 250.789,-80.9459"/>
</g>
<!-- Node9 -->
<g id="node9" class="node"><title>Node9</title>
<polygon fill="none" stroke="#bfbfbf" points="417.425,-0.5 417.425,-19.5 455.425,-19.5 455.425,-0.5 417.425,-0.5"/>
<text text-anchor="middle" x="436.425" y="-7.5" font-family="Helvetica,sans-Serif" font-size="10.00">tuple</text>
</g>
<!-- Node1&#45;&gt;Node9 -->
<g id="edge25" class="edge"><title>Node1&#45;&gt;Node9</title>
<path fill="none" stroke="midnightblue" d="M417.464,-224.182C419.746,-201.805 423.504,-164.301 426.425,-132 429.703,-95.738 433.11,-53.3224 434.98,-29.5667"/>
<polygon fill="midnightblue" stroke="midnightblue" points="438.475,-29.7551 435.766,-19.5125 431.497,-29.2089 438.475,-29.7551"/>
</g>
<!-- Node11 -->
<g id="node11" class="node"><title>Node11</title>
<g id="a_node11"><a xlink:href="_log_8h.html" target="_top" xlink:title="Core/Log.h">
<polygon fill="none" stroke="black" points="313.925,-56.5 313.925,-75.5 378.925,-75.5 378.925,-56.5 313.925,-56.5"/>
<text text-anchor="middle" x="346.425" y="-63.5" font-family="Helvetica,sans-Serif" font-size="10.00">Core/Log.h</text>
</a>
</g>
</g>
<!-- Node1&#45;&gt;Node11 -->
<g id="edge16" class="edge"><title>Node1&#45;&gt;Node11</title>
<path fill="none" stroke="midnightblue" d="M394.664,-224.463C374.319,-203.76 344.64,-169.001 332.425,-132 327.284,-116.431 332.157,-98.1299 337.515,-84.9205"/>
<polygon fill="midnightblue" stroke="midnightblue" points="340.812,-86.1226 341.733,-75.5679 334.431,-83.2445 340.812,-86.1226"/>
</g>
<!-- Node13 -->
<g id="node13" class="node"><title>Node13</title>
<g id="a_node13"><a xlink:href="_signal_8h.html" target="_top" xlink:title="Core/Signal.h">
<polygon fill="none" stroke="black" points="341.425,-112.5 341.425,-131.5 417.425,-131.5 417.425,-112.5 341.425,-112.5"/>
<text text-anchor="middle" x="379.425" y="-119.5" font-family="Helvetica,sans-Serif" font-size="10.00">Core/Signal.h</text>
</a>
</g>
</g>
<!-- Node1&#45;&gt;Node13 -->
<g id="edge20" class="edge"><title>Node1&#45;&gt;Node13</title>
<path fill="none" stroke="midnightblue" d="M409.56,-224.29C402.712,-201.27 391.475,-163.503 384.83,-141.168"/>
<polygon fill="midnightblue" stroke="midnightblue" points="388.182,-140.161 381.976,-131.575 381.473,-142.158 388.182,-140.161"/>
</g>
<!-- Node14 -->
<g id="node14" class="node"><title>Node14</title>
<polygon fill="none" stroke="#bfbfbf" points="466.925,-168.5 466.925,-187.5 563.925,-187.5 563.925,-168.5 466.925,-168.5"/>
<text text-anchor="middle" x="515.425" y="-175.5" font-family="Helvetica,sans-Serif" font-size="10.00">yarp/os/Network.h</text>
</g>
<!-- Node1&#45;&gt;Node14 -->
<g id="edge22" class="edge"><title>Node1&#45;&gt;Node14</title>
<path fill="none" stroke="midnightblue" d="M445.428,-224.498C460.907,-214.436 479.448,-202.385 493.558,-193.214"/>
<polygon fill="midnightblue" stroke="midnightblue" points="495.636,-196.037 502.113,-187.652 491.821,-190.168 495.636,-196.037"/>
</g>
<!-- Node15 -->
<g id="node15" class="node"><title>Node15</title>
<polygon fill="none" stroke="#bfbfbf" points="582.425,-168.5 582.425,-187.5 664.425,-187.5 664.425,-168.5 582.425,-168.5"/>
<text text-anchor="middle" x="623.425" y="-175.5" font-family="Helvetica,sans-Serif" font-size="10.00">yarp/os/Time.h</text>
</g>
<!-- Node1&#45;&gt;Node15 -->
<g id="edge23" class="edge"><title>Node1&#45;&gt;Node15</title>
<path fill="none" stroke="midnightblue" d="M477.831,-224.498C513.202,-213.444 556.258,-199.99 586.337,-190.59"/>
<polygon fill="midnightblue" stroke="midnightblue" points="587.509,-193.891 596.01,-187.567 585.421,-187.209 587.509,-193.891"/>
</g>
<!-- Node16 -->
<g id="node16" class="node"><title>Node16</title>
<polygon fill="none" stroke="#bfbfbf" points="682.425,-168.5 682.425,-187.5 734.425,-187.5 734.425,-168.5 682.425,-168.5"/>
<text text-anchor="middle" x="708.425" y="-175.5" font-family="Helvetica,sans-Serif" font-size="10.00">ostream</text>
</g>
<!-- Node1&#45;&gt;Node16 -->
<g id="edge24" class="edge"><title>Node1&#45;&gt;Node16</title>
<path fill="none" stroke="midnightblue" d="M497.522,-227.011C545.825,-216.819 608.323,-203.297 672.227,-188.223"/>
<polygon fill="midnightblue" stroke="midnightblue" points="673.154,-191.6 682.078,-185.889 671.54,-184.788 673.154,-191.6"/>
</g>
<!-- Node3 -->
<g id="node3" class="node"><title>Node3</title>
<g id="a_node3"><a xlink:href="_block_8h.html" target="_top" xlink:title="Core/Block.h">
<polygon fill="none" stroke="black" points="30.4245,-112.5 30.4245,-131.5 104.425,-131.5 104.425,-112.5 30.4245,-112.5"/>
<text text-anchor="middle" x="67.4245" y="-119.5" font-family="Helvetica,sans-Serif" font-size="10.00">Core/Block.h</text>
</a>
</g>
</g>
<!-- Node2&#45;&gt;Node3 -->
<g id="edge2" class="edge"><title>Node2&#45;&gt;Node3</title>
<path fill="none" stroke="midnightblue" d="M67.4245,-168.083C67.4245,-161.006 67.4245,-150.861 67.4245,-141.986"/>
<polygon fill="midnightblue" stroke="midnightblue" points="70.9246,-141.751 67.4245,-131.751 63.9246,-141.751 70.9246,-141.751"/>
</g>
<!-- Node6 -->
<g id="node6" class="node"><title>Node6</title>
<polygon fill="none" stroke="#bfbfbf" points="46.9245,-0.5 46.9245,-19.5 87.9245,-19.5 87.9245,-0.5 46.9245,-0.5"/>
<text text-anchor="middle" x="67.4245" y="-7.5" font-family="Helvetica,sans-Serif" font-size="10.00">string</text>
</g>
<!-- Node2&#45;&gt;Node6 -->
<g id="edge9" class="edge"><title>Node2&#45;&gt;Node6</title>
<path fill="none" stroke="midnightblue" d="M55.7005,-168.196C45.3737,-159.888 30.5889,-146.561 21.4245,-132 7.42488,-109.756 6.70385,-101.932 2.42452,-76 0.977224,-67.2297 -1.70087,-63.8736 2.42452,-56 9.98086,-41.5782 24.4911,-30.8595 37.8882,-23.5087"/>
<polygon fill="midnightblue" stroke="midnightblue" points="39.545,-26.593 46.8861,-18.9536 36.3833,-20.3476 39.545,-26.593"/>
</g>
<!-- Node4 -->
<g id="node4" class="node"><title>Node4</title>
<g id="a_node4"><a xlink:href="_parameters_8h.html" target="_top" xlink:title="Core/Parameters.h">
<polygon fill="none" stroke="black" points="17.9245,-56.5 17.9245,-75.5 116.925,-75.5 116.925,-56.5 17.9245,-56.5"/>
<text text-anchor="middle" x="67.4245" y="-63.5" font-family="Helvetica,sans-Serif" font-size="10.00">Core/Parameters.h</text>
</a>
</g>
</g>
<!-- Node3&#45;&gt;Node4 -->
<g id="edge3" class="edge"><title>Node3&#45;&gt;Node4</title>
<path fill="none" stroke="midnightblue" d="M67.4245,-112.083C67.4245,-105.006 67.4245,-94.8611 67.4245,-85.9865"/>
<polygon fill="midnightblue" stroke="midnightblue" points="70.9246,-85.751 67.4245,-75.7511 63.9246,-85.7511 70.9246,-85.751"/>
</g>
<!-- Node3&#45;&gt;Node6 -->
<g id="edge7" class="edge"><title>Node3&#45;&gt;Node6</title>
<path fill="none" stroke="midnightblue" d="M48.4404,-112.398C34.5383,-104.954 16.7106,-92.741 8.42452,-76 -1.71778,-55.5087 20.2897,-36.7114 40.2486,-24.66"/>
<polygon fill="midnightblue" stroke="midnightblue" points="42.1767,-27.5904 49.152,-19.6157 38.726,-21.5 42.1767,-27.5904"/>
</g>
<!-- Node7 -->
<g id="node7" class="node"><title>Node7</title>
<polygon fill="none" stroke="#bfbfbf" points="123.425,-0.5 123.425,-19.5 167.425,-19.5 167.425,-0.5 123.425,-0.5"/>
<text text-anchor="middle" x="145.425" y="-7.5" font-family="Helvetica,sans-Serif" font-size="10.00">vector</text>
</g>
<!-- Node3&#45;&gt;Node7 -->
<g id="edge8" class="edge"><title>Node3&#45;&gt;Node7</title>
<path fill="none" stroke="midnightblue" d="M83.1704,-112.489C96.2702,-104.643 114.483,-91.8317 125.425,-76 134.969,-62.1893 140.081,-43.6682 142.74,-29.9296"/>
<polygon fill="midnightblue" stroke="midnightblue" points="146.249,-30.1616 144.44,-19.7224 139.344,-29.0116 146.249,-30.1616"/>
</g>
<!-- Node5 -->
<g id="node5" class="node"><title>Node5</title>
<polygon fill="none" stroke="#bfbfbf" points="259.425,-0.5 259.425,-19.5 311.425,-19.5 311.425,-0.5 259.425,-0.5"/>
<text text-anchor="middle" x="285.425" y="-7.5" font-family="Helvetica,sans-Serif" font-size="10.00">memory</text>
</g>
<!-- Node4&#45;&gt;Node5 -->
<g id="edge4" class="edge"><title>Node4&#45;&gt;Node5</title>
<path fill="none" stroke="midnightblue" d="M102.534,-56.4832C137.378,-48.0049 192.57,-34.5067 249.217,-20.286"/>
<polygon fill="midnightblue" stroke="midnightblue" points="250.214,-23.6442 259.059,-17.8115 248.507,-16.8555 250.214,-23.6442"/>
</g>
<!-- Node4&#45;&gt;Node6 -->
<g id="edge5" class="edge"><title>Node4&#45;&gt;Node6</title>
<path fill="none" stroke="midnightblue" d="M67.4245,-56.083C67.4245,-49.0059 67.4245,-38.8611 67.4245,-29.9865"/>
<polygon fill="midnightblue" stroke="midnightblue" points="70.9246,-29.751 67.4245,-19.7511 63.9246,-29.7511 70.9246,-29.751"/>
</g>
<!-- Node4&#45;&gt;Node7 -->
<g id="edge6" class="edge"><title>Node4&#45;&gt;Node7</title>
<path fill="none" stroke="midnightblue" d="M79.9566,-56.324C92.0105,-47.979 110.451,-35.2122 124.693,-25.3524"/>
<polygon fill="midnightblue" stroke="midnightblue" points="126.694,-28.2243 132.924,-19.6545 122.709,-22.469 126.694,-28.2243"/>
</g>
<!-- Node8&#45;&gt;Node5 -->
<g id="edge11" class="edge"><title>Node8&#45;&gt;Node5</title>
<path fill="none" stroke="midnightblue" d="M242.846,-56.083C250.273,-48.2195 261.276,-36.5688 270.237,-27.0813"/>
<polygon fill="midnightblue" stroke="midnightblue" points="272.838,-29.4244 277.16,-19.7511 267.749,-24.618 272.838,-29.4244"/>
</g>
<!-- Node8&#45;&gt;Node6 -->
<g id="edge12" class="edge"><title>Node8&#45;&gt;Node6</title>
<path fill="none" stroke="midnightblue" d="M207.963,-56.4435C177.92,-46.7292 129.009,-30.9134 97.5322,-20.7354"/>
<polygon fill="midnightblue" stroke="midnightblue" points="98.5631,-17.3904 87.9713,-17.6439 96.4094,-24.0508 98.5631,-17.3904"/>
</g>
<!-- Node8&#45;&gt;Node7 -->
<g id="edge15" class="edge"><title>Node8&#45;&gt;Node7</title>
<path fill="none" stroke="midnightblue" d="M220.125,-56.324C206.242,-47.9002 184.932,-34.9709 168.621,-25.0741"/>
<polygon fill="midnightblue" stroke="midnightblue" points="170.053,-21.8495 159.688,-19.6545 166.422,-27.8341 170.053,-21.8495"/>
</g>
<!-- Node8&#45;&gt;Node9 -->
<g id="edge13" class="edge"><title>Node8&#45;&gt;Node9</title>
<path fill="none" stroke="midnightblue" d="M266.432,-56.4435C305.276,-46.0594 370.201,-28.7033 407.567,-18.7143"/>
<polygon fill="midnightblue" stroke="midnightblue" points="408.574,-22.068 417.331,-16.1041 406.767,-15.3055 408.574,-22.068"/>
</g>
<!-- Node10 -->
<g id="node10" class="node"><title>Node10</title>
<polygon fill="none" stroke="#bfbfbf" points="201.425,-0.5 201.425,-19.5 241.425,-19.5 241.425,-0.5 201.425,-0.5"/>
<text text-anchor="middle" x="221.425" y="-7.5" font-family="Helvetica,sans-Serif" font-size="10.00">utility</text>
</g>
<!-- Node8&#45;&gt;Node10 -->
<g id="edge14" class="edge"><title>Node8&#45;&gt;Node10</title>
<path fill="none" stroke="midnightblue" d="M232.278,-56.083C230.555,-48.9272 228.077,-38.6353 225.924,-29.6911"/>
<polygon fill="midnightblue" stroke="midnightblue" points="229.275,-28.6541 223.531,-19.7511 222.469,-30.2925 229.275,-28.6541"/>
</g>
<!-- Node11&#45;&gt;Node5 -->
<g id="edge17" class="edge"><title>Node11&#45;&gt;Node5</title>
<path fill="none" stroke="midnightblue" d="M336.624,-56.324C327.606,-48.3414 314.019,-36.3128 303.106,-26.6529"/>
<polygon fill="midnightblue" stroke="midnightblue" points="305.211,-23.8416 295.404,-19.8339 300.571,-29.083 305.211,-23.8416"/>
</g>
<!-- Node11&#45;&gt;Node6 -->
<g id="edge19" class="edge"><title>Node11&#45;&gt;Node6</title>
<path fill="none" stroke="midnightblue" d="M313.881,-57.9464C310.688,-57.2783 307.495,-56.6197 304.425,-56 220.177,-38.9946 198.853,-36.0821 114.425,-20 109.153,-18.9958 103.549,-17.9254 98.1168,-16.8862"/>
<polygon fill="midnightblue" stroke="midnightblue" points="98.4931,-13.3947 88.0133,-14.9515 97.1766,-20.2698 98.4931,-13.3947"/>
</g>
<!-- Node12 -->
<g id="node12" class="node"><title>Node12</title>
<polygon fill="none" stroke="#bfbfbf" points="329.425,-0.5 329.425,-19.5 381.425,-19.5 381.425,-0.5 329.425,-0.5"/>
<text text-anchor="middle" x="355.425" y="-7.5" font-family="Helvetica,sans-Serif" font-size="10.00">sstream</text>
</g>
<!-- Node11&#45;&gt;Node12 -->
<g id="edge18" class="edge"><title>Node11&#45;&gt;Node12</title>
<path fill="none" stroke="midnightblue" d="M347.911,-56.083C349.103,-48.9272 350.819,-38.6353 352.309,-29.6911"/>
<polygon fill="midnightblue" stroke="midnightblue" points="355.774,-30.1904 353.966,-19.7511 348.87,-29.0396 355.774,-30.1904"/>
</g>
<!-- Node13&#45;&gt;Node5 -->
<g id="edge21" class="edge"><title>Node13&#45;&gt;Node5</title>
<path fill="none" stroke="midnightblue" d="M383.876,-112.192C389.914,-98.8753 398.724,-73.3356 387.425,-56 379.693,-44.1383 347.482,-31.1364 321.298,-22.1721"/>
<polygon fill="midnightblue" stroke="midnightblue" points="322.216,-18.7885 311.622,-18.9449 320.001,-25.429 322.216,-18.7885"/>
</g>
</g>
</svg>
        <g id="navigator" transform="translate(0 0)" fill="#404254">
                <rect fill="#f2f5e9" fill-opacity="0.5" stroke="#606060" stroke-width=".5" x="0" y="0" width="60" height="60"/>
                <use id="zoomplus" xlink:href="#zoomPlus" x="17" y="9" onmousedown="handleZoom(evt,'in')"/>
                <use id="zoomminus" xlink:href="#zoomMin" x="42" y="9" onmousedown="handleZoom(evt,'out')"/>
                <use id="reset" xlink:href="#resetDef" x="30" y="36" onmousedown="handleReset()"/>
                <g id="arrowUp" xlink:href="#dirArrow" transform="translate(30 24)" onmousedown="handlePan(0,-1)">
                  <use xlink:href="#rim" fill="#404040">
                        <set attributeName="fill" to="#808080" begin="arrowUp.mouseover" end="arrowUp.mouseout"/>
                  </use>
                  <path fill="none" stroke="white" stroke-width="1.5" d="M0,-3.0v7 M-2.5,-0.5L0,-3.0L2.5,-0.5"/>
                </g>
                <g id="arrowRight" xlink:href="#dirArrow" transform="rotate(90) translate(36 -43)" onmousedown="handlePan(1,0)">
                  <use xlink:href="#rim" fill="#404040">
                        <set attributeName="fill" to="#808080" begin="arrowRight.mouseover" end="arrowRight.mouseout"/>
                  </use>
                  <path fill="none" stroke="white" stroke-width="1.5" d="M0,-3.0v7 M-2.5,-0.5L0,-3.0L2.5,-0.5"/>
                </g>
                <g id="arrowDown" xlink:href="#dirArrow" transform="rotate(180) translate(-30 -48)" onmousedown="handlePan(0,1)">
                  <use xlink:href="#rim" fill="#404040">
                        <set attributeName="fill" to="#808080" begin="arrowDown.mouseover" end="arrowDown.mouseout"/>
                  </use>
                  <path fill="none" stroke="white" stroke-width="1.5" d="M0,-3.0v7 M-2.5,-0.5L0,-3.0L2.5,-0.5"/>
                </g>
                <g id="arrowLeft" xlink:href="#dirArrow" transform="rotate(270) translate(-36 17)" onmousedown="handlePan(-1,0)">
                  <use xlink:href="#rim" fill="#404040">
                        <set attributeName="fill" to="#808080" begin="arrowLeft.mouseover" end="arrowLeft.mouseout"/>
                  </use>
                  <path fill="none" stroke="white" stroke-width="1.5" d="M0,-3.0v7 M-2.5,-0.5L0,-3.0L2.5,-0.5"/>
                </g>
        </g>
        <svg viewBox="0 0 15 15" width="100%" height="30px" preserveAspectRatio="xMaxYMin meet">
         <g id="arrow_out" transform="scale(0.3 0.3)">
          <a xlink:href="_yarp_clock_8cpp__incl_org.svg" target="_base">
           <rect id="button" ry="5" rx="5" y="6" x="6" height="38" width="38"
                fill="#f2f5e9" fill-opacity="0.5" stroke="#606060" stroke-width="1.0"/>
           <path id="arrow"
             d="M 11.500037,31.436501 C 11.940474,20.09759 22.043105,11.32322 32.158766,21.979434 L 37.068811,17.246167 C 37.068811,17.246167 37.088388,32 37.088388,32 L 22.160133,31.978069 C 22.160133,31.978069 26.997745,27.140456 26.997745,27.140456 C 18.528582,18.264221 13.291696,25.230495 11.500037,31.436501 z"
             style="fill:#404040;"/>
          </a>
         </g>
        </svg>
</svg>
