<?xml version="1.0" encoding="UTF-8" standalone="no"?>
<!DOCTYPE svg PUBLIC "-//W3C//DTD SVG 1.1//EN"
 "http://www.w3.org/Graphics/SVG/1.1/DTD/svg11.dtd">
<!-- Generated by graphviz version 2.36.0 (20140111.2315)
 -->
<!-- Title: wbt::BlockInformation Pages: 1 -->
<svg width="313pt" height="84pt"
 viewBox="0.00 0.00 313.00 84.00" xmlns="http://www.w3.org/2000/svg" xmlns:xlink="http://www.w3.org/1999/xlink">
<g id="graph0" class="graph" transform="scale(1 1) rotate(0) translate(4 80)">
<title>wbt::BlockInformation</title>
<!-- Node1 -->
<g id="node1" class="node"><title>Node1</title>
<polygon fill="#bfbfbf" stroke="black" points="94,-56.5 94,-75.5 206,-75.5 206,-56.5 94,-56.5"/>
<text text-anchor="middle" x="150" y="-63.5" font-family="Helvetica,sans-Serif" font-size="10.00">wbt::BlockInformation</text>
</g>
<!-- Node2 -->
<g id="node2" class="node"><title>Node2</title>
<g id="a_node2"><a xlink:href="classwbt_1_1_coder_block_information.html" target="_top" xlink:title="wbt::CoderBlockInformation">
<polygon fill="none" stroke="black" points="0,-0.5 0,-19.5 138,-19.5 138,-0.5 0,-0.5"/>
<text text-anchor="middle" x="69" y="-7.5" font-family="Helvetica,sans-Serif" font-size="10.00">wbt::CoderBlockInformation</text>
</a>
</g>
</g>
<!-- Node1&#45;&gt;Node2 -->
<g id="edge1" class="edge"><title>Node1&#45;&gt;Node2</title>
<path fill="none" stroke="midnightblue" d="M128.433,-50.6221C113.636,-40.7574 94.4878,-27.9919 81.9818,-19.6545"/>
<polygon fill="midnightblue" stroke="midnightblue" points="126.724,-53.6891 136.986,-56.324 130.607,-47.8647 126.724,-53.6891"/>
</g>
<!-- Node3 -->
<g id="node3" class="node"><title>Node3</title>
<g id="a_node3"><a xlink:href="classwbt_1_1_simulink_block_information.html" target="_top" xlink:title="wbt::SimulinkBlockInformation">
<polygon fill="none" stroke="black" points="156.5,-0.5 156.5,-19.5 305.5,-19.5 305.5,-0.5 156.5,-0.5"/>
<text text-anchor="middle" x="231" y="-7.5" font-family="Helvetica,sans-Serif" font-size="10.00">wbt::SimulinkBlockInformation</text>
</a>
</g>
</g>
<!-- Node1&#45;&gt;Node3 -->
<g id="edge2" class="edge"><title>Node1&#45;&gt;Node3</title>
<path fill="none" stroke="midnightblue" d="M171.567,-50.6221C186.364,-40.7574 205.512,-27.9919 218.018,-19.6545"/>
<polygon fill="midnightblue" stroke="midnightblue" points="169.393,-47.8647 163.014,-56.324 173.276,-53.6891 169.393,-47.8647"/>
</g>
</g>
</svg>
