<?xml version="1.0" encoding="UTF-8" standalone="no"?>
<!DOCTYPE svg PUBLIC "-//W3C//DTD SVG 1.1//EN"
 "http://www.w3.org/Graphics/SVG/1.1/DTD/svg11.dtd">
<!-- Generated by graphviz version 2.36.0 (20140111.2315)
 -->
<!-- Title: wbt::WBBlock Pages: 1 -->
<svg width="356pt" height="408pt"
 viewBox="0.00 0.00 356.00 408.00" xmlns="http://www.w3.org/2000/svg" xmlns:xlink="http://www.w3.org/1999/xlink">
<g id="graph0" class="graph" transform="scale(1 1) rotate(0) translate(4 404)">
<title>wbt::WBBlock</title>
<!-- Node1 -->
<g id="node1" class="node"><title>Node1</title>
<polygon fill="#bfbfbf" stroke="black" points="100,-190.5 100,-209.5 180,-209.5 180,-190.5 100,-190.5"/>
<text text-anchor="middle" x="140" y="-197.5" font-family="Helvetica,sans-Serif" font-size="10.00">wbt::WBBlock</text>
</g>
<!-- Node3 -->
<g id="node3" class="node"><title>Node3</title>
<g id="a_node3"><a xlink:href="classwbt_1_1_centroidal_momentum.html" target="_top" xlink:title="The wbt::CentroidalMomentum class. ">
<polygon fill="none" stroke="black" points="216.5,-380.5 216.5,-399.5 347.5,-399.5 347.5,-380.5 216.5,-380.5"/>
<text text-anchor="middle" x="282" y="-387.5" font-family="Helvetica,sans-Serif" font-size="10.00">wbt::CentroidalMomentum</text>
</a>
</g>
</g>
<!-- Node1&#45;&gt;Node3 -->
<g id="edge2" class="edge"><title>Node1&#45;&gt;Node3</title>
<path fill="none" stroke="midnightblue" d="M144.117,-219.908C150.751,-255.533 169.635,-330.259 216,-371 220.416,-374.88 225.586,-377.97 231.048,-380.429"/>
<polygon fill="midnightblue" stroke="midnightblue" points="147.524,-219.068 142.375,-209.808 140.626,-220.258 147.524,-219.068"/>
</g>
<!-- Node4 -->
<g id="node4" class="node"><title>Node4</title>
<g id="a_node4"><a xlink:href="classwbt_1_1_dot_j_nu.html" target="_top" xlink:title="The wbt::DotJNu class. ">
<polygon fill="none" stroke="black" points="246,-342.5 246,-361.5 318,-361.5 318,-342.5 246,-342.5"/>
<text text-anchor="middle" x="282" y="-349.5" font-family="Helvetica,sans-Serif" font-size="10.00">wbt::DotJNu</text>
</a>
</g>
</g>
<!-- Node1&#45;&gt;Node4 -->
<g id="edge3" class="edge"><title>Node1&#45;&gt;Node4</title>
<path fill="none" stroke="midnightblue" d="M146.74,-219.503C156.299,-248.572 178.256,-303.044 216,-333 224.564,-339.797 235.485,-344.163 245.918,-346.968"/>
<polygon fill="midnightblue" stroke="midnightblue" points="150.002,-218.209 143.676,-209.71 143.321,-220.299 150.002,-218.209"/>
</g>
<!-- Node5 -->
<g id="node5" class="node"><title>Node5</title>
<g id="a_node5"><a xlink:href="classwbt_1_1_forward_kinematics.html" target="_top" xlink:title="The wbt::ForwardKinematics class. ">
<polygon fill="none" stroke="black" points="221,-304.5 221,-323.5 343,-323.5 343,-304.5 221,-304.5"/>
<text text-anchor="middle" x="282" y="-311.5" font-family="Helvetica,sans-Serif" font-size="10.00">wbt::ForwardKinematics</text>
</a>
</g>
</g>
<!-- Node1&#45;&gt;Node5 -->
<g id="edge4" class="edge"><title>Node1&#45;&gt;Node5</title>
<path fill="none" stroke="midnightblue" d="M150.876,-218.539C163.276,-240.058 186.542,-275.129 216,-295 221.751,-298.879 228.303,-301.979 234.982,-304.454"/>
<polygon fill="midnightblue" stroke="midnightblue" points="153.882,-216.743 145.959,-209.708 147.766,-220.148 153.882,-216.743"/>
</g>
<!-- Node6 -->
<g id="node6" class="node"><title>Node6</title>
<g id="a_node6"><a xlink:href="classwbt_1_1_get_limits.html" target="_top" xlink:title="The wbt::GetLimits class. ">
<polygon fill="none" stroke="black" points="242,-266.5 242,-285.5 322,-285.5 322,-266.5 242,-266.5"/>
<text text-anchor="middle" x="282" y="-273.5" font-family="Helvetica,sans-Serif" font-size="10.00">wbt::GetLimits</text>
</a>
</g>
</g>
<!-- Node1&#45;&gt;Node6 -->
<g id="edge5" class="edge"><title>Node1&#45;&gt;Node6</title>
<path fill="none" stroke="midnightblue" d="M158.996,-216.714C173.445,-229.347 194.76,-246.288 216,-257 224.083,-261.077 233.184,-264.42 241.959,-267.102"/>
<polygon fill="midnightblue" stroke="midnightblue" points="161.119,-213.918 151.335,-209.854 156.449,-219.132 161.119,-213.918"/>
</g>
<!-- Node7 -->
<g id="node7" class="node"><title>Node7</title>
<g id="a_node7"><a xlink:href="classwbt_1_1_get_measurement.html" target="_top" xlink:title="The wbt::GetMeasurement class. ">
<polygon fill="none" stroke="black" points="225.5,-228.5 225.5,-247.5 338.5,-247.5 338.5,-228.5 225.5,-228.5"/>
<text text-anchor="middle" x="282" y="-235.5" font-family="Helvetica,sans-Serif" font-size="10.00">wbt::GetMeasurement</text>
</a>
</g>
</g>
<!-- Node1&#45;&gt;Node7 -->
<g id="edge6" class="edge"><title>Node1&#45;&gt;Node7</title>
<path fill="none" stroke="midnightblue" d="M186.118,-212.246C205.415,-217.484 227.612,-223.509 245.683,-228.414"/>
<polygon fill="midnightblue" stroke="midnightblue" points="186.896,-208.831 176.328,-209.589 185.062,-215.586 186.896,-208.831"/>
</g>
<!-- Node8 -->
<g id="node8" class="node"><title>Node8</title>
<g id="a_node8"><a xlink:href="classwbt_1_1_inverse_dynamics.html" target="_top" xlink:title="The wbt::InverseDynamics class. ">
<polygon fill="none" stroke="black" points="224.5,-190.5 224.5,-209.5 339.5,-209.5 339.5,-190.5 224.5,-190.5"/>
<text text-anchor="middle" x="282" y="-197.5" font-family="Helvetica,sans-Serif" font-size="10.00">wbt::InverseDynamics</text>
</a>
</g>
</g>
<!-- Node1&#45;&gt;Node8 -->
<g id="edge7" class="edge"><title>Node1&#45;&gt;Node8</title>
<path fill="none" stroke="midnightblue" d="M190.603,-200C201.55,-200 213.226,-200 224.426,-200"/>
<polygon fill="midnightblue" stroke="midnightblue" points="190.37,-196.5 180.37,-200 190.37,-203.5 190.37,-196.5"/>
</g>
<!-- Node9 -->
<g id="node9" class="node"><title>Node9</title>
<g id="a_node9"><a xlink:href="classwbt_1_1_jacobian.html" target="_top" xlink:title="The wbt::Jacobian class. ">
<polygon fill="none" stroke="black" points="243.5,-152.5 243.5,-171.5 320.5,-171.5 320.5,-152.5 243.5,-152.5"/>
<text text-anchor="middle" x="282" y="-159.5" font-family="Helvetica,sans-Serif" font-size="10.00">wbt::Jacobian</text>
</a>
</g>
</g>
<!-- Node1&#45;&gt;Node9 -->
<g id="edge8" class="edge"><title>Node1&#45;&gt;Node9</title>
<path fill="none" stroke="midnightblue" d="M186.118,-187.754C205.415,-182.516 227.612,-176.491 245.683,-171.586"/>
<polygon fill="midnightblue" stroke="midnightblue" points="185.062,-184.414 176.328,-190.411 186.896,-191.169 185.062,-184.414"/>
</g>
<!-- Node10 -->
<g id="node10" class="node"><title>Node10</title>
<g id="a_node10"><a xlink:href="classwbt_1_1_mass_matrix.html" target="_top" xlink:title="The wbt::MassMatrix class. ">
<polygon fill="none" stroke="black" points="237.5,-114.5 237.5,-133.5 326.5,-133.5 326.5,-114.5 237.5,-114.5"/>
<text text-anchor="middle" x="282" y="-121.5" font-family="Helvetica,sans-Serif" font-size="10.00">wbt::MassMatrix</text>
</a>
</g>
</g>
<!-- Node1&#45;&gt;Node10 -->
<g id="edge9" class="edge"><title>Node1&#45;&gt;Node10</title>
<path fill="none" stroke="midnightblue" d="M158.996,-183.286C173.445,-170.653 194.76,-153.712 216,-143 223.453,-139.241 231.772,-136.106 239.903,-133.537"/>
<polygon fill="midnightblue" stroke="midnightblue" points="156.449,-180.868 151.335,-190.146 161.119,-186.082 156.449,-180.868"/>
</g>
<!-- Node11 -->
<g id="node11" class="node"><title>Node11</title>
<g id="a_node11"><a xlink:href="classwbt_1_1_relative_transform.html" target="_top" xlink:title="The wbt::RelativeTransform class. ">
<polygon fill="none" stroke="black" points="222.5,-76.5 222.5,-95.5 341.5,-95.5 341.5,-76.5 222.5,-76.5"/>
<text text-anchor="middle" x="282" y="-83.5" font-family="Helvetica,sans-Serif" font-size="10.00">wbt::RelativeTransform</text>
</a>
</g>
</g>
<!-- Node1&#45;&gt;Node11 -->
<g id="edge10" class="edge"><title>Node1&#45;&gt;Node11</title>
<path fill="none" stroke="midnightblue" d="M150.876,-181.461C163.276,-159.942 186.542,-124.871 216,-105 221.751,-101.121 228.303,-98.0206 234.982,-95.5462"/>
<polygon fill="midnightblue" stroke="midnightblue" points="147.766,-179.852 145.959,-190.292 153.882,-183.257 147.766,-179.852"/>
</g>
<!-- Node12 -->
<g id="node12" class="node"><title>Node12</title>
<g id="a_node12"><a xlink:href="classwbt_1_1_set_motor_parameters.html" target="_top" xlink:title="The wbt::SetMotorParameters class. ">
<polygon fill="none" stroke="black" points="218,-38.5 218,-57.5 346,-57.5 346,-38.5 218,-38.5"/>
<text text-anchor="middle" x="282" y="-45.5" font-family="Helvetica,sans-Serif" font-size="10.00">wbt::SetMotorParameters</text>
</a>
</g>
</g>
<!-- Node1&#45;&gt;Node12 -->
<g id="edge11" class="edge"><title>Node1&#45;&gt;Node12</title>
<path fill="none" stroke="midnightblue" d="M146.74,-180.497C156.299,-151.428 178.256,-96.9557 216,-67 220.881,-63.1263 226.527,-60.0422 232.412,-57.5868"/>
<polygon fill="midnightblue" stroke="midnightblue" points="143.321,-179.701 143.676,-190.29 150.002,-181.791 143.321,-179.701"/>
</g>
<!-- Node13 -->
<g id="node13" class="node"><title>Node13</title>
<g id="a_node13"><a xlink:href="classwbt_1_1_set_references.html" target="_top" xlink:title="The wbt::SetReferences class. ">
<polygon fill="none" stroke="black" points="230,-0.5 230,-19.5 334,-19.5 334,-0.5 230,-0.5"/>
<text text-anchor="middle" x="282" y="-7.5" font-family="Helvetica,sans-Serif" font-size="10.00">wbt::SetReferences</text>
</a>
</g>
</g>
<!-- Node1&#45;&gt;Node13 -->
<g id="edge12" class="edge"><title>Node1&#45;&gt;Node13</title>
<path fill="none" stroke="midnightblue" d="M144.117,-180.092C150.751,-144.467 169.635,-69.7408 216,-29 220.416,-25.1197 225.586,-22.0304 231.048,-19.5711"/>
<polygon fill="midnightblue" stroke="midnightblue" points="140.626,-179.742 142.375,-190.192 147.524,-180.932 140.626,-179.742"/>
</g>
<!-- Node2 -->
<g id="node2" class="node"><title>Node2</title>
<g id="a_node2"><a xlink:href="classwbt_1_1_block.html" target="_top" xlink:title="Basic abstract class for wrapping generic algorithms. ">
<polygon fill="none" stroke="black" points="0.5,-190.5 0.5,-209.5 63.5,-209.5 63.5,-190.5 0.5,-190.5"/>
<text text-anchor="middle" x="32" y="-197.5" font-family="Helvetica,sans-Serif" font-size="10.00">wbt::Block</text>
</a>
</g>
</g>
<!-- Node2&#45;&gt;Node1 -->
<g id="edge1" class="edge"><title>Node2&#45;&gt;Node1</title>
<path fill="none" stroke="midnightblue" d="M73.7644,-200C82.282,-200 91.2455,-200 99.7084,-200"/>
<polygon fill="midnightblue" stroke="midnightblue" points="73.6596,-196.5 63.6596,-200 73.6596,-203.5 73.6596,-196.5"/>
</g>
</g>
</svg>
