<?xml version="1.0" encoding="UTF-8" standalone="no"?>
<!DOCTYPE svg PUBLIC "-//W3C//DTD SVG 1.1//EN"
 "http://www.w3.org/Graphics/SVG/1.1/DTD/svg11.dtd">
<!-- Generated by graphviz version 2.43.0 (0)
 -->
<!-- Title: wbt::base::WBBlock Pages: 1 -->
<svg width="416pt" height="458pt"
 viewBox="0.00 0.00 416.00 458.00" xmlns="http://www.w3.org/2000/svg" xmlns:xlink="http://www.w3.org/1999/xlink">
<g id="graph0" class="graph" transform="scale(1 1) rotate(0) translate(4 454)">
<title>wbt::base::WBBlock</title>
<!-- Node1 -->
<g id="node1" class="node">
<title>Node1</title>
<g id="a_node1"><a xlink:title="Extension of blockfactory::core::Block for simplifying the development of whole&#45;body blocks.">
<polygon fill="#bfbfbf" stroke="black" points="80,-209.5 80,-228.5 193,-228.5 193,-209.5 80,-209.5"/>
<text text-anchor="middle" x="136.5" y="-216.5" font-family="Helvetica,sans-Serif" font-size="10.00">wbt::base::WBBlock</text>
</a>
</g>
</g>
<!-- Node3 -->
<g id="node3" class="node">
<title>Node3</title>
<g id="a_node3"><a xlink:href="classwbt_1_1block_1_1_centroidal_momentum.html" target="_top" xlink:title="The wbt::CentroidalMomentum class.">
<polygon fill="none" stroke="black" points="229,-430.5 229,-449.5 408,-449.5 408,-430.5 229,-430.5"/>
<text text-anchor="middle" x="318.5" y="-437.5" font-family="Helvetica,sans-Serif" font-size="10.00">wbt::block::CentroidalMomentum</text>
</a>
</g>
</g>
<!-- Node1&#45;&gt;Node3 -->
<g id="edge2" class="edge">
<title>Node1&#45;&gt;Node3</title>
<path fill="none" stroke="midnightblue" d="M140.48,-238.95C147.71,-279.89 170.1,-373.51 229,-421 233.77,-424.85 239.14,-427.96 244.82,-430.48"/>
<polygon fill="midnightblue" stroke="midnightblue" points="143.9,-238.19 138.83,-228.89 137,-239.32 143.9,-238.19"/>
</g>
<!-- Node4 -->
<g id="node4" class="node">
<title>Node4</title>
<g id="a_node4"><a xlink:href="classwbt_1_1block_1_1_centroidal_total_momentum_matrix.html" target="_top" xlink:title="The wbt::CentroidalTotalMomentumMatrix class.">
<polygon fill="none" stroke="black" points="245.5,-381 245.5,-411 391.5,-411 391.5,-381 245.5,-381"/>
<text text-anchor="start" x="253.5" y="-399" font-family="Helvetica,sans-Serif" font-size="10.00">wbt::block::CentroidalTotal</text>
<text text-anchor="middle" x="318.5" y="-388" font-family="Helvetica,sans-Serif" font-size="10.00">MomentumMatrix</text>
</a>
</g>
</g>
<!-- Node1&#45;&gt;Node4 -->
<g id="edge3" class="edge">
<title>Node1&#45;&gt;Node4</title>
<path fill="none" stroke="midnightblue" d="M143.74,-238.15C155.27,-270.51 183.03,-335.9 229,-371 234.08,-374.88 239.73,-378.15 245.65,-380.92"/>
<polygon fill="midnightblue" stroke="midnightblue" points="147,-236.87 140.45,-228.54 140.37,-239.13 147,-236.87"/>
</g>
<!-- Node5 -->
<g id="node5" class="node">
<title>Node5</title>
<g id="a_node5"><a xlink:href="classwbt_1_1block_1_1_dot_j_nu.html" target="_top" xlink:title="The wbt::DotJNu class.">
<polygon fill="none" stroke="black" points="265,-342.5 265,-361.5 372,-361.5 372,-342.5 265,-342.5"/>
<text text-anchor="middle" x="318.5" y="-349.5" font-family="Helvetica,sans-Serif" font-size="10.00">wbt::block::DotJNu</text>
</a>
</g>
</g>
<!-- Node1&#45;&gt;Node5 -->
<g id="edge4" class="edge">
<title>Node1&#45;&gt;Node5</title>
<path fill="none" stroke="midnightblue" d="M147.23,-237.93C161.52,-263.71 190.68,-309.35 229,-333 239.7,-339.6 252.35,-343.93 264.7,-346.77"/>
<polygon fill="midnightblue" stroke="midnightblue" points="150.15,-235.97 142.34,-228.82 143.99,-239.28 150.15,-235.97"/>
</g>
<!-- Node6 -->
<g id="node6" class="node">
<title>Node6</title>
<g id="a_node6"><a xlink:href="classwbt_1_1block_1_1_forward_kinematics.html" target="_top" xlink:title="The wbt::ForwardKinematics class.">
<polygon fill="none" stroke="black" points="235,-304.5 235,-323.5 402,-323.5 402,-304.5 235,-304.5"/>
<text text-anchor="middle" x="318.5" y="-311.5" font-family="Helvetica,sans-Serif" font-size="10.00">wbt::block::ForwardKinematics</text>
</a>
</g>
</g>
<!-- Node1&#45;&gt;Node6 -->
<g id="edge5" class="edge">
<title>Node1&#45;&gt;Node6</title>
<path fill="none" stroke="midnightblue" d="M152.96,-235.97C169.9,-253.49 198.72,-280.29 229,-295 236.92,-298.85 245.6,-301.92 254.35,-304.37"/>
<polygon fill="midnightblue" stroke="midnightblue" points="155.46,-233.52 146.05,-228.65 150.37,-238.32 155.46,-233.52"/>
</g>
<!-- Node7 -->
<g id="node7" class="node">
<title>Node7</title>
<g id="a_node7"><a xlink:href="classwbt_1_1block_1_1_get_limits.html" target="_top" xlink:title="The wbt::GetLimits class.">
<polygon fill="none" stroke="black" points="258.5,-266.5 258.5,-285.5 378.5,-285.5 378.5,-266.5 258.5,-266.5"/>
<text text-anchor="middle" x="318.5" y="-273.5" font-family="Helvetica,sans-Serif" font-size="10.00">wbt::block::GetLimits</text>
</a>
</g>
</g>
<!-- Node1&#45;&gt;Node7 -->
<g id="edge6" class="edge">
<title>Node1&#45;&gt;Node7</title>
<path fill="none" stroke="midnightblue" d="M166.69,-232.72C184.42,-240.65 207.66,-250.34 229,-257 240.55,-260.61 253.16,-263.76 265.14,-266.41"/>
<polygon fill="midnightblue" stroke="midnightblue" points="168.01,-229.48 157.46,-228.53 165.12,-235.85 168.01,-229.48"/>
</g>
<!-- Node8 -->
<g id="node8" class="node">
<title>Node8</title>
<g id="a_node8"><a xlink:href="classwbt_1_1block_1_1_get_measurement.html" target="_top" xlink:title="The wbt::GetMeasurement class.">
<polygon fill="none" stroke="black" points="239.5,-228.5 239.5,-247.5 397.5,-247.5 397.5,-228.5 239.5,-228.5"/>
<text text-anchor="middle" x="318.5" y="-235.5" font-family="Helvetica,sans-Serif" font-size="10.00">wbt::block::GetMeasurement</text>
</a>
</g>
</g>
<!-- Node1&#45;&gt;Node8 -->
<g id="edge7" class="edge">
<title>Node1&#45;&gt;Node8</title>
<path fill="none" stroke="midnightblue" d="M203.55,-225.97C215.22,-227.2 227.47,-228.5 239.43,-229.76"/>
<polygon fill="midnightblue" stroke="midnightblue" points="203.78,-222.48 193.47,-224.91 203.04,-229.44 203.78,-222.48"/>
</g>
<!-- Node9 -->
<g id="node9" class="node">
<title>Node9</title>
<g id="a_node9"><a xlink:href="classwbt_1_1block_1_1_inverse_dynamics.html" target="_top" xlink:title="The wbt::InverseDynamics class.">
<polygon fill="none" stroke="black" points="239.5,-190.5 239.5,-209.5 397.5,-209.5 397.5,-190.5 239.5,-190.5"/>
<text text-anchor="middle" x="318.5" y="-197.5" font-family="Helvetica,sans-Serif" font-size="10.00">wbt::block::InverseDynamics</text>
</a>
</g>
</g>
<!-- Node1&#45;&gt;Node9 -->
<g id="edge8" class="edge">
<title>Node1&#45;&gt;Node9</title>
<path fill="none" stroke="midnightblue" d="M203.55,-212.03C215.22,-210.8 227.47,-209.5 239.43,-208.24"/>
<polygon fill="midnightblue" stroke="midnightblue" points="203.04,-208.56 193.47,-213.09 203.78,-215.52 203.04,-208.56"/>
</g>
<!-- Node10 -->
<g id="node10" class="node">
<title>Node10</title>
<g id="a_node10"><a xlink:href="classwbt_1_1block_1_1_jacobian.html" target="_top" xlink:title="The wbt::Jacobian class.">
<polygon fill="none" stroke="black" points="261.5,-152.5 261.5,-171.5 375.5,-171.5 375.5,-152.5 261.5,-152.5"/>
<text text-anchor="middle" x="318.5" y="-159.5" font-family="Helvetica,sans-Serif" font-size="10.00">wbt::block::Jacobian</text>
</a>
</g>
</g>
<!-- Node1&#45;&gt;Node10 -->
<g id="edge9" class="edge">
<title>Node1&#45;&gt;Node10</title>
<path fill="none" stroke="midnightblue" d="M166.69,-205.28C184.42,-197.35 207.66,-187.66 229,-181 240.55,-177.39 253.16,-174.24 265.14,-171.59"/>
<polygon fill="midnightblue" stroke="midnightblue" points="165.12,-202.15 157.46,-209.47 168.01,-208.52 165.12,-202.15"/>
</g>
<!-- Node11 -->
<g id="node11" class="node">
<title>Node11</title>
<g id="a_node11"><a xlink:href="classwbt_1_1block_1_1_mass_matrix.html" target="_top" xlink:title="The wbt::MassMatrix class.">
<polygon fill="none" stroke="black" points="253.5,-114.5 253.5,-133.5 383.5,-133.5 383.5,-114.5 253.5,-114.5"/>
<text text-anchor="middle" x="318.5" y="-121.5" font-family="Helvetica,sans-Serif" font-size="10.00">wbt::block::MassMatrix</text>
</a>
</g>
</g>
<!-- Node1&#45;&gt;Node11 -->
<g id="edge10" class="edge">
<title>Node1&#45;&gt;Node11</title>
<path fill="none" stroke="midnightblue" d="M152.96,-202.03C169.9,-184.51 198.72,-157.71 229,-143 236.92,-139.15 245.6,-136.08 254.35,-133.63"/>
<polygon fill="midnightblue" stroke="midnightblue" points="150.37,-199.68 146.05,-209.35 155.46,-204.48 150.37,-199.68"/>
</g>
<!-- Node12 -->
<g id="node12" class="node">
<title>Node12</title>
<g id="a_node12"><a xlink:href="classwbt_1_1block_1_1_relative_transform.html" target="_top" xlink:title="The wbt::RelativeTransform class.">
<polygon fill="none" stroke="black" points="237.5,-76.5 237.5,-95.5 399.5,-95.5 399.5,-76.5 237.5,-76.5"/>
<text text-anchor="middle" x="318.5" y="-83.5" font-family="Helvetica,sans-Serif" font-size="10.00">wbt::block::RelativeTransform</text>
</a>
</g>
</g>
<!-- Node1&#45;&gt;Node12 -->
<g id="edge11" class="edge">
<title>Node1&#45;&gt;Node12</title>
<path fill="none" stroke="midnightblue" d="M147.23,-200.07C161.52,-174.29 190.68,-128.65 229,-105 235.29,-101.12 242.25,-98.03 249.42,-95.56"/>
<polygon fill="midnightblue" stroke="midnightblue" points="143.99,-198.72 142.34,-209.18 150.15,-202.03 143.99,-198.72"/>
</g>
<!-- Node13 -->
<g id="node13" class="node">
<title>Node13</title>
<g id="a_node13"><a xlink:href="classwbt_1_1block_1_1_set_motor_parameters.html" target="_top" xlink:title="The wbt::SetMotorParameters class.">
<polygon fill="none" stroke="black" points="232,-38.5 232,-57.5 405,-57.5 405,-38.5 232,-38.5"/>
<text text-anchor="middle" x="318.5" y="-45.5" font-family="Helvetica,sans-Serif" font-size="10.00">wbt::block::SetMotorParameters</text>
</a>
</g>
</g>
<!-- Node1&#45;&gt;Node13 -->
<g id="edge12" class="edge">
<title>Node1&#45;&gt;Node13</title>
<path fill="none" stroke="midnightblue" d="M143.5,-199.53C154.69,-166.69 181.93,-100.61 229,-67 234.37,-63.16 240.36,-60.08 246.62,-57.59"/>
<polygon fill="midnightblue" stroke="midnightblue" points="140.09,-198.7 140.32,-209.29 146.75,-200.87 140.09,-198.7"/>
</g>
<!-- Node14 -->
<g id="node14" class="node">
<title>Node14</title>
<g id="a_node14"><a xlink:href="classwbt_1_1block_1_1_set_references.html" target="_top" xlink:title="The wbt::SetReferences class.">
<polygon fill="none" stroke="black" points="247,-0.5 247,-19.5 390,-19.5 390,-0.5 247,-0.5"/>
<text text-anchor="middle" x="318.5" y="-7.5" font-family="Helvetica,sans-Serif" font-size="10.00">wbt::block::SetReferences</text>
</a>
</g>
</g>
<!-- Node1&#45;&gt;Node14 -->
<g id="edge13" class="edge">
<title>Node1&#45;&gt;Node14</title>
<path fill="none" stroke="midnightblue" d="M141.03,-199.41C149.13,-160.45 172.84,-73.19 229,-29 234.31,-24.82 240.33,-21.51 246.68,-18.89"/>
<polygon fill="midnightblue" stroke="midnightblue" points="137.59,-198.76 139.11,-209.25 144.46,-200.1 137.59,-198.76"/>
</g>
<!-- Node2 -->
<g id="node2" class="node">
<title>Node2</title>
<g id="a_node2"><a xlink:title=" ">
<polygon fill="none" stroke="#bfbfbf" points="0,-209.5 0,-228.5 44,-228.5 44,-209.5 0,-209.5"/>
<text text-anchor="middle" x="22" y="-216.5" font-family="Helvetica,sans-Serif" font-size="10.00">Block</text>
</a>
</g>
</g>
<!-- Node2&#45;&gt;Node1 -->
<g id="edge1" class="edge">
<title>Node2&#45;&gt;Node1</title>
<path fill="none" stroke="midnightblue" d="M54.38,-219C62.3,-219 71.05,-219 79.79,-219"/>
<polygon fill="midnightblue" stroke="midnightblue" points="54.16,-215.5 44.16,-219 54.16,-222.5 54.16,-215.5"/>
</g>
</g>
</svg>
