<?xml version="1.0" encoding="UTF-8" standalone="no"?>
<!DOCTYPE svg PUBLIC "-//W3C//DTD SVG 1.1//EN"
 "http://www.w3.org/Graphics/SVG/1.1/DTD/svg11.dtd">
<!-- Generated by graphviz version 2.43.0 (0)
 -->
<!-- Title: wbt::block::DotJNu Pages: 1 -->
<svg width="121pt" height="151pt"
 viewBox="0.00 0.00 121.00 151.00" xmlns="http://www.w3.org/2000/svg" xmlns:xlink="http://www.w3.org/1999/xlink">
<g id="graph0" class="graph" transform="scale(1 1) rotate(0) translate(4 147)">
<title>wbt::block::DotJNu</title>
<!-- Node1 -->
<g id="node1" class="node">
<title>Node1</title>
<g id="a_node1"><a xlink:title="The wbt::DotJNu class.">
<polygon fill="#bfbfbf" stroke="black" points="3,-0.5 3,-19.5 110,-19.5 110,-0.5 3,-0.5"/>
<text text-anchor="middle" x="56.5" y="-7.5" font-family="Helvetica,sans-Serif" font-size="10.00">wbt::block::DotJNu</text>
</a>
</g>
</g>
<!-- Node2 -->
<g id="node2" class="node">
<title>Node2</title>
<g id="a_node2"><a xlink:href="classwbt_1_1base_1_1_w_b_block.html" target="_top" xlink:title="Extension of blockfactory::core::Block for simplifying the development of whole&#45;body blocks.">
<polygon fill="none" stroke="black" points="0,-56.5 0,-75.5 113,-75.5 113,-56.5 0,-56.5"/>
<text text-anchor="middle" x="56.5" y="-63.5" font-family="Helvetica,sans-Serif" font-size="10.00">wbt::base::WBBlock</text>
</a>
</g>
</g>
<!-- Node2&#45;&gt;Node1 -->
<g id="edge1" class="edge">
<title>Node2&#45;&gt;Node1</title>
<path fill="none" stroke="midnightblue" d="M56.5,-45.8C56.5,-36.91 56.5,-26.78 56.5,-19.75"/>
<polygon fill="midnightblue" stroke="midnightblue" points="53,-46.08 56.5,-56.08 60,-46.08 53,-46.08"/>
</g>
<!-- Node3 -->
<g id="node3" class="node">
<title>Node3</title>
<g id="a_node3"><a xlink:title=" ">
<polygon fill="none" stroke="#bfbfbf" points="4.5,-112.5 4.5,-142.5 108.5,-142.5 108.5,-112.5 4.5,-112.5"/>
<text text-anchor="start" x="12.5" y="-130.5" font-family="Helvetica,sans-Serif" font-size="10.00">blockfactory::core</text>
<text text-anchor="middle" x="56.5" y="-119.5" font-family="Helvetica,sans-Serif" font-size="10.00">::Block</text>
</a>
</g>
</g>
<!-- Node3&#45;&gt;Node2 -->
<g id="edge2" class="edge">
<title>Node3&#45;&gt;Node2</title>
<path fill="none" stroke="midnightblue" d="M56.5,-102.29C56.5,-92.86 56.5,-82.65 56.5,-75.66"/>
<polygon fill="midnightblue" stroke="midnightblue" points="53,-102.4 56.5,-112.4 60,-102.4 53,-102.4"/>
</g>
</g>
</svg>
