<?xml version="1.0" encoding="UTF-8" standalone="no"?>
<!DOCTYPE svg PUBLIC "-//W3C//DTD SVG 1.1//EN"
 "http://www.w3.org/Graphics/SVG/1.1/DTD/svg11.dtd">
<!-- Generated by graphviz version 2.43.0 (0)
 -->
<!-- Title: /home/runner/work/wb&#45;toolbox/wb&#45;toolbox/toolbox/library Pages: 1 -->
<svg width="182pt" height="247pt"
 viewBox="0.00 0.00 182.00 247.00" xmlns="http://www.w3.org/2000/svg" xmlns:xlink="http://www.w3.org/1999/xlink">
<g id="graph0" class="graph" transform="scale(1 1) rotate(0) translate(4 243)">
<title>/home/runner/work/wb&#45;toolbox/wb&#45;toolbox/toolbox/library</title>
<g id="clust1" class="cluster">
<title>clusterdir_cb851817d6f77244316f2683559617a2</title>
<g id="a_clust1"><a xlink:href="dir_cb851817d6f77244316f2683559617a2.html" target="_top" xlink:title="toolbox">
<polygon fill="#ddddee" stroke="black" points="8,-8 8,-231 166,-231 166,-8 8,-8"/>
<text text-anchor="middle" x="87" y="-219" font-family="Helvetica,sans-Serif" font-size="10.00">toolbox</text>
</a>
</g>
</g>
<g id="clust2" class="cluster">
<title>clusterdir_7bde9667b2ba59ec3c711e65eaa3055f</title>
<g id="a_clust2"><a xlink:href="dir_7bde9667b2ba59ec3c711e65eaa3055f.html" target="_top">
<polygon fill="#eeeeff" stroke="black" points="16,-80 16,-204 158,-204 158,-80 16,-80"/>
</a>
</g>
</g>
<!-- dir_ad2483e380b19eb5049237d6399c086c -->
<g id="node1" class="node">
<title>dir_ad2483e380b19eb5049237d6399c086c</title>
<g id="a_node1"><a xlink:href="dir_ad2483e380b19eb5049237d6399c086c.html" target="_top" xlink:title="base">
<polygon fill="none" stroke="red" points="101,-52 47,-52 47,-16 101,-16 101,-52"/>
<text text-anchor="middle" x="74" y="-31.5" font-family="Helvetica,sans-Serif" font-size="10.00">base</text>
</a>
</g>
</g>
<!-- dir_7bde9667b2ba59ec3c711e65eaa3055f -->
<g id="node2" class="node">
<title>dir_7bde9667b2ba59ec3c711e65eaa3055f</title>
<text text-anchor="middle" x="123" y="-175.5" font-family="Helvetica,sans-Serif" font-size="10.00">library</text>
</g>
<!-- dir_a9f127b3106376eed0de24ada65c0c04 -->
<g id="node3" class="node">
<title>dir_a9f127b3106376eed0de24ada65c0c04</title>
<g id="a_node3"><a xlink:href="dir_a9f127b3106376eed0de24ada65c0c04.html" target="_top" xlink:title="include">
<polygon fill="white" stroke="red" points="78,-124 24,-124 24,-88 78,-88 78,-124"/>
<text text-anchor="middle" x="51" y="-103.5" font-family="Helvetica,sans-Serif" font-size="10.00">include</text>
</a>
</g>
</g>
<!-- dir_a9f127b3106376eed0de24ada65c0c04&#45;&gt;dir_ad2483e380b19eb5049237d6399c086c -->
<g id="edge1" class="edge">
<title>dir_a9f127b3106376eed0de24ada65c0c04&#45;&gt;dir_ad2483e380b19eb5049237d6399c086c</title>
<path fill="none" stroke="black" d="M56.69,-87.7C59.25,-79.9 62.33,-70.51 65.18,-61.83"/>
<polygon fill="black" stroke="black" points="68.58,-62.7 68.38,-52.1 61.93,-60.51 68.58,-62.7"/>
<g id="a_edge1&#45;headlabel"><a xlink:href="dir_000009_000003.html" target="_top" xlink:title="13">
<text text-anchor="middle" x="70.16" y="-64.5" font-family="Helvetica,sans-Serif" font-size="10.00">13</text>
</a>
</g>
</g>
<!-- dir_2c4e11c39b7e19db47740eda5eef0028 -->
<g id="node4" class="node">
<title>dir_2c4e11c39b7e19db47740eda5eef0028</title>
<g id="a_node4"><a xlink:href="dir_2c4e11c39b7e19db47740eda5eef0028.html" target="_top" xlink:title="src">
<polygon fill="white" stroke="black" points="78,-196 24,-196 24,-160 78,-160 78,-196"/>
<text text-anchor="middle" x="51" y="-175.5" font-family="Helvetica,sans-Serif" font-size="10.00">src</text>
</a>
</g>
</g>
<!-- dir_2c4e11c39b7e19db47740eda5eef0028&#45;&gt;dir_ad2483e380b19eb5049237d6399c086c -->
<g id="edge3" class="edge">
<title>dir_2c4e11c39b7e19db47740eda5eef0028&#45;&gt;dir_ad2483e380b19eb5049237d6399c086c</title>
<path fill="none" stroke="black" d="M66.61,-159.77C74.37,-150.03 82.95,-137.18 87,-124 93.28,-103.57 89.13,-79.54 83.9,-61.6"/>
<polygon fill="black" stroke="black" points="87.24,-60.53 80.86,-52.07 80.57,-62.66 87.24,-60.53"/>
<g id="a_edge3&#45;headlabel"><a xlink:href="dir_000012_000003.html" target="_top" xlink:title="26">
<text text-anchor="middle" x="91.03" y="-60.59" font-family="Helvetica,sans-Serif" font-size="10.00">26</text>
</a>
</g>
</g>
<!-- dir_2c4e11c39b7e19db47740eda5eef0028&#45;&gt;dir_a9f127b3106376eed0de24ada65c0c04 -->
<g id="edge2" class="edge">
<title>dir_2c4e11c39b7e19db47740eda5eef0028&#45;&gt;dir_a9f127b3106376eed0de24ada65c0c04</title>
<path fill="none" stroke="black" d="M51,-159.7C51,-151.98 51,-142.71 51,-134.11"/>
<polygon fill="black" stroke="black" points="54.5,-134.1 51,-124.1 47.5,-134.1 54.5,-134.1"/>
<g id="a_edge2&#45;headlabel"><a xlink:href="dir_000012_000009.html" target="_top" xlink:title="42">
<text text-anchor="middle" x="57.34" y="-135.2" font-family="Helvetica,sans-Serif" font-size="10.00">42</text>
</a>
</g>
</g>
</g>
</svg>
