<?xml version="1.0" encoding="UTF-8" standalone="no"?>
<!DOCTYPE svg PUBLIC "-//W3C//DTD SVG 1.1//EN"
 "http://www.w3.org/Graphics/SVG/1.1/DTD/svg11.dtd">
<!-- Generated by graphviz version 2.36.0 (20140111.2315)
 -->
<!-- Title: /home/travis/build/robotology/wb&#45;toolbox/toolbox/src/base/factory.cpp Pages: 1 -->
<!--zoomable 330 -->
<svg id="main" version="1.1" xmlns="http://www.w3.org/2000/svg" xmlns:xlink="http://www.w3.org/1999/xlink" xml:space="preserve" onload="init(evt)">
<style type="text/css"><![CDATA[
.edge:hover path { stroke: red; }
.edge:hover polygon { stroke: red; fill: red; }
]]></style>
<script type="text/javascript"><![CDATA[
var edges = document.getElementsByTagName('g');
if (edges && edges.length) {
  for (var i=0;i<edges.length;i++) {
    if (edges[i].id.substr(0,4)=='edge') {
      edges[i].setAttribute('class','edge');
    }
  }
}
]]></script>
        <defs>
                <circle id="rim" cx="0" cy="0" r="7"/>
                <circle id="rim2" cx="0" cy="0" r="3.5"/>
                <g id="zoomPlus">
                        <use xlink:href="#rim" fill="#404040">
                                <set attributeName="fill" to="#808080" begin="zoomplus.mouseover" end="zoomplus.mouseout"/>
                        </use>
                        <path d="M-4,0h8M0,-4v8" fill="none" stroke="white" stroke-width="1.5" pointer-events="none"/>
                </g>
                <g id="zoomMin">
                        <use xlink:href="#rim" fill="#404040">
                                <set attributeName="fill" to="#808080" begin="zoomminus.mouseover" end="zoomminus.mouseout"/>
                        </use>
                        <path d="M-4,0h8" fill="none" stroke="white" stroke-width="1.5" pointer-events="none"/>
                </g>
                <g id="dirArrow">
                        <path fill="none" stroke="white" stroke-width="1.5" d="M0,-3.0v7 M-2.5,-0.5L0,-3.0L2.5,-0.5"/>
                </g>
               <g id="resetDef">
                       <use xlink:href="#rim2" fill="#404040">
                               <set attributeName="fill" to="#808080" begin="reset.mouseover" end="reset.mouseout"/>
                       </use>
               </g>
        </defs>

<script type="text/javascript">
var viewWidth = 1666;
var viewHeight = 330;
var sectionId = 'dynsection-0';
</script>
<script xlink:href="svgpan.js"/>
<svg id="graph" class="graph">
<g id="viewport">
<title>/home/travis/build/robotology/wb&#45;toolbox/toolbox/src/base/factory.cpp</title>
<!-- Node1 -->
<g id="node1" class="node"><title>Node1</title>
<polygon fill="#bfbfbf" stroke="black" points="603.182,-280.5 603.182,-321.5 746.182,-321.5 746.182,-280.5 603.182,-280.5"/>
<text text-anchor="start" x="611.182" y="-309.5" font-family="Helvetica,sans-Serif" font-size="10.00">/home/travis/build</text>
<text text-anchor="start" x="611.182" y="-298.5" font-family="Helvetica,sans-Serif" font-size="10.00">/robotology/wb&#45;toolbox</text>
<text text-anchor="middle" x="674.682" y="-287.5" font-family="Helvetica,sans-Serif" font-size="10.00">/toolbox/src/base/factory.cpp</text>
</g>
<!-- Node2 -->
<g id="node2" class="node"><title>Node2</title>
<g id="a_node2"><a xlink:href="toolbox_8h.html" target="_top" xlink:title="toolbox.h">
<polygon fill="none" stroke="black" points="646.682,-224.5 646.682,-243.5 702.682,-243.5 702.682,-224.5 646.682,-224.5"/>
<text text-anchor="middle" x="674.682" y="-231.5" font-family="Helvetica,sans-Serif" font-size="10.00">toolbox.h</text>
</a>
</g>
</g>
<!-- Node1&#45;&gt;Node2 -->
<g id="edge1" class="edge"><title>Node1&#45;&gt;Node2</title>
<path fill="none" stroke="midnightblue" d="M674.682,-280.498C674.682,-272.065 674.682,-262.235 674.682,-253.874"/>
<polygon fill="midnightblue" stroke="midnightblue" points="678.182,-253.652 674.682,-243.652 671.182,-253.653 678.182,-253.652"/>
</g>
<!-- Node3 -->
<g id="node3" class="node"><title>Node3</title>
<g id="a_node3"><a xlink:href="_log_8h.html" target="_top" xlink:title="Log.h">
<polygon fill="none" stroke="black" points="189.182,-56.5 189.182,-75.5 230.182,-75.5 230.182,-56.5 189.182,-56.5"/>
<text text-anchor="middle" x="209.682" y="-63.5" font-family="Helvetica,sans-Serif" font-size="10.00">Log.h</text>
</a>
</g>
</g>
<!-- Node2&#45;&gt;Node3 -->
<g id="edge2" class="edge"><title>Node2&#45;&gt;Node3</title>
<path fill="none" stroke="midnightblue" d="M646.404,-232.883C569.133,-232.048 348.281,-226.225 169.682,-188 95.189,-172.056 51.8831,-194.046 7.68235,-132 -35.0409,-72.0277 112.083,-66.0801 178.649,-66.355"/>
<polygon fill="midnightblue" stroke="midnightblue" points="178.939,-69.8577 188.971,-66.4505 179.004,-62.858 178.939,-69.8577"/>
</g>
<!-- Node6 -->
<g id="node6" class="node"><title>Node6</title>
<g id="a_node6"><a xlink:href="_yarp_read_8h.html" target="_top" xlink:title="YarpRead.h">
<polygon fill="none" stroke="black" points="428.682,-112.5 428.682,-131.5 496.682,-131.5 496.682,-112.5 428.682,-112.5"/>
<text text-anchor="middle" x="462.682" y="-119.5" font-family="Helvetica,sans-Serif" font-size="10.00">YarpRead.h</text>
</a>
</g>
</g>
<!-- Node2&#45;&gt;Node6 -->
<g id="edge5" class="edge"><title>Node2&#45;&gt;Node6</title>
<path fill="none" stroke="midnightblue" d="M646.667,-231.572C610.877,-228.489 548.456,-218.749 505.682,-188 489.079,-176.064 477.094,-155.569 470.06,-140.779"/>
<polygon fill="midnightblue" stroke="midnightblue" points="473.25,-139.339 465.986,-131.627 466.855,-142.186 473.25,-139.339"/>
</g>
<!-- Node9 -->
<g id="node9" class="node"><title>Node9</title>
<g id="a_node9"><a xlink:href="_yarp_write_8h.html" target="_top" xlink:title="YarpWrite.h">
<polygon fill="none" stroke="black" points="514.682,-112.5 514.682,-131.5 582.682,-131.5 582.682,-112.5 514.682,-112.5"/>
<text text-anchor="middle" x="548.682" y="-119.5" font-family="Helvetica,sans-Serif" font-size="10.00">YarpWrite.h</text>
</a>
</g>
</g>
<!-- Node2&#45;&gt;Node9 -->
<g id="edge10" class="edge"><title>Node2&#45;&gt;Node9</title>
<path fill="none" stroke="midnightblue" d="M646.447,-229.219C604.697,-222.984 529.691,-209.097 513.682,-188 501.916,-172.494 516.429,-152.509 530.182,-138.817"/>
<polygon fill="midnightblue" stroke="midnightblue" points="532.645,-141.305 537.572,-131.926 527.872,-136.185 532.645,-141.305"/>
</g>
<!-- Node10 -->
<g id="node10" class="node"><title>Node10</title>
<g id="a_node10"><a xlink:href="_model_partitioner_8h.html" target="_top" xlink:title="ModelPartitioner.h">
<polygon fill="none" stroke="black" points="523.182,-168.5 523.182,-187.5 618.182,-187.5 618.182,-168.5 523.182,-168.5"/>
<text text-anchor="middle" x="570.682" y="-175.5" font-family="Helvetica,sans-Serif" font-size="10.00">ModelPartitioner.h</text>
</a>
</g>
</g>
<!-- Node2&#45;&gt;Node10 -->
<g id="edge13" class="edge"><title>Node2&#45;&gt;Node10</title>
<path fill="none" stroke="midnightblue" d="M657.973,-224.324C641.37,-215.703 615.68,-202.364 596.462,-192.386"/>
<polygon fill="midnightblue" stroke="midnightblue" points="597.838,-189.156 587.35,-187.655 594.612,-195.369 597.838,-189.156"/>
</g>
<!-- Node22 -->
<g id="node22" class="node"><title>Node22</title>
<g id="a_node22"><a xlink:href="_yarp_clock_8h.html" target="_top" xlink:title="YarpClock.h">
<polygon fill="none" stroke="black" points="17.1824,-112.5 17.1824,-131.5 88.1824,-131.5 88.1824,-112.5 17.1824,-112.5"/>
<text text-anchor="middle" x="52.6824" y="-119.5" font-family="Helvetica,sans-Serif" font-size="10.00">YarpClock.h</text>
</a>
</g>
</g>
<!-- Node2&#45;&gt;Node22 -->
<g id="edge36" class="edge"><title>Node2&#45;&gt;Node22</title>
<path fill="none" stroke="midnightblue" d="M646.537,-232.261C577.13,-229.968 392.544,-220.994 242.682,-188 184.485,-175.187 119.299,-150.506 82.4018,-135.518"/>
<polygon fill="midnightblue" stroke="midnightblue" points="83.3545,-132.126 72.7744,-131.566 80.6959,-138.601 83.3545,-132.126"/>
</g>
<!-- Node23 -->
<g id="node23" class="node"><title>Node23</title>
<g id="a_node23"><a xlink:href="_mass_matrix_8h.html" target="_top" xlink:title="MassMatrix.h">
<polygon fill="none" stroke="black" points="636.682,-168.5 636.682,-187.5 712.682,-187.5 712.682,-168.5 636.682,-168.5"/>
<text text-anchor="middle" x="674.682" y="-175.5" font-family="Helvetica,sans-Serif" font-size="10.00">MassMatrix.h</text>
</a>
</g>
</g>
<!-- Node2&#45;&gt;Node23 -->
<g id="edge38" class="edge"><title>Node2&#45;&gt;Node23</title>
<path fill="none" stroke="midnightblue" d="M674.682,-224.083C674.682,-217.006 674.682,-206.861 674.682,-197.986"/>
<polygon fill="midnightblue" stroke="midnightblue" points="678.182,-197.751 674.682,-187.751 671.182,-197.751 678.182,-197.751"/>
</g>
<!-- Node24 -->
<g id="node24" class="node"><title>Node24</title>
<g id="a_node24"><a xlink:href="_forward_kinematics_8h.html" target="_top" xlink:title="ForwardKinematics.h">
<polygon fill="none" stroke="black" points="1035.18,-168.5 1035.18,-187.5 1144.18,-187.5 1144.18,-168.5 1035.18,-168.5"/>
<text text-anchor="middle" x="1089.68" y="-175.5" font-family="Helvetica,sans-Serif" font-size="10.00">ForwardKinematics.h</text>
</a>
</g>
</g>
<!-- Node2&#45;&gt;Node24 -->
<g id="edge41" class="edge"><title>Node2&#45;&gt;Node24</title>
<path fill="none" stroke="midnightblue" d="M702.906,-229.5C760.966,-222.275 898.238,-205.062 1024.63,-188.127"/>
<polygon fill="midnightblue" stroke="midnightblue" points="1025.43,-191.551 1034.88,-186.752 1024.5,-184.614 1025.43,-191.551"/>
</g>
<!-- Node26 -->
<g id="node26" class="node"><title>Node26</title>
<g id="a_node26"><a xlink:href="_set_references_8h.html" target="_top" xlink:title="SetReferences.h">
<polygon fill="none" stroke="black" points="300.682,-168.5 300.682,-187.5 390.682,-187.5 390.682,-168.5 300.682,-168.5"/>
<text text-anchor="middle" x="345.682" y="-175.5" font-family="Helvetica,sans-Serif" font-size="10.00">SetReferences.h</text>
</a>
</g>
</g>
<!-- Node2&#45;&gt;Node26 -->
<g id="edge45" class="edge"><title>Node2&#45;&gt;Node26</title>
<path fill="none" stroke="midnightblue" d="M646.632,-228.396C592.276,-219.474 471.721,-199.687 400.792,-188.045"/>
<polygon fill="midnightblue" stroke="midnightblue" points="401.136,-184.555 390.701,-186.389 400.002,-191.463 401.136,-184.555"/>
</g>
<!-- Node27 -->
<g id="node27" class="node"><title>Node27</title>
<g id="a_node27"><a xlink:href="_real_time_synchronizer_8h.html" target="_top" xlink:title="RealTimeSynchronizer.h">
<polygon fill="none" stroke="black" points="106.682,-112.5 106.682,-131.5 230.682,-131.5 230.682,-112.5 106.682,-112.5"/>
<text text-anchor="middle" x="168.682" y="-119.5" font-family="Helvetica,sans-Serif" font-size="10.00">RealTimeSynchronizer.h</text>
</a>
</g>
</g>
<!-- Node2&#45;&gt;Node27 -->
<g id="edge48" class="edge"><title>Node2&#45;&gt;Node27</title>
<path fill="none" stroke="midnightblue" d="M646.557,-233.194C582.195,-232.89 419.861,-227.869 291.682,-188 253.609,-176.158 213.49,-152.558 189.797,-137.29"/>
<polygon fill="midnightblue" stroke="midnightblue" points="191.554,-134.257 181.273,-131.697 187.714,-140.109 191.554,-134.257"/>
</g>
<!-- Node28 -->
<g id="node28" class="node"><title>Node28</title>
<g id="a_node28"><a xlink:href="_simulator_synchronizer_8h.html" target="_top" xlink:title="SimulatorSynchronizer.h">
<polygon fill="none" stroke="black" points="287.182,-112.5 287.182,-131.5 410.182,-131.5 410.182,-112.5 287.182,-112.5"/>
<text text-anchor="middle" x="348.682" y="-119.5" font-family="Helvetica,sans-Serif" font-size="10.00">SimulatorSynchronizer.h</text>
</a>
</g>
</g>
<!-- Node2&#45;&gt;Node28 -->
<g id="edge50" class="edge"><title>Node2&#45;&gt;Node28</title>
<path fill="none" stroke="midnightblue" d="M646.465,-228.409C608.531,-221.784 539.309,-208.09 482.682,-188 442.532,-173.755 398.556,-150.921 372.311,-136.455"/>
<polygon fill="midnightblue" stroke="midnightblue" points="373.923,-133.346 363.484,-131.535 370.515,-139.461 373.923,-133.346"/>
</g>
<!-- Node29 -->
<g id="node29" class="node"><title>Node29</title>
<g id="a_node29"><a xlink:href="_jacobian_8h.html" target="_top" xlink:title="Jacobian.h">
<polygon fill="none" stroke="black" points="952.682,-168.5 952.682,-187.5 1016.68,-187.5 1016.68,-168.5 952.682,-168.5"/>
<text text-anchor="middle" x="984.682" y="-175.5" font-family="Helvetica,sans-Serif" font-size="10.00">Jacobian.h</text>
</a>
</g>
</g>
<!-- Node2&#45;&gt;Node29 -->
<g id="edge53" class="edge"><title>Node2&#45;&gt;Node29</title>
<path fill="none" stroke="midnightblue" d="M703.038,-228.737C750.497,-221.499 849.229,-206 942.595,-188.134"/>
<polygon fill="midnightblue" stroke="midnightblue" points="943.328,-191.557 952.485,-186.228 942.003,-184.683 943.328,-191.557"/>
</g>
<!-- Node30 -->
<g id="node30" class="node"><title>Node30</title>
<g id="a_node30"><a xlink:href="_get_measurement_8h.html" target="_top" xlink:title="GetMeasurement.h">
<polygon fill="none" stroke="black" points="1162.68,-168.5 1162.68,-187.5 1262.68,-187.5 1262.68,-168.5 1162.68,-168.5"/>
<text text-anchor="middle" x="1212.68" y="-175.5" font-family="Helvetica,sans-Serif" font-size="10.00">GetMeasurement.h</text>
</a>
</g>
</g>
<!-- Node2&#45;&gt;Node30 -->
<g id="edge57" class="edge"><title>Node2&#45;&gt;Node30</title>
<path fill="none" stroke="midnightblue" d="M702.757,-230.9C776.587,-225.26 982.238,-208.79 1152.68,-188 1152.78,-187.988 1152.89,-187.975 1152.99,-187.963"/>
<polygon fill="midnightblue" stroke="midnightblue" points="1153.15,-191.471 1162.62,-186.72 1152.25,-184.528 1153.15,-191.471"/>
</g>
<!-- Node31 -->
<g id="node31" class="node"><title>Node31</title>
<g id="a_node31"><a xlink:href="_inverse_dynamics_8h.html" target="_top" xlink:title="InverseDynamics.h">
<polygon fill="none" stroke="black" points="1358.18,-168.5 1358.18,-187.5 1459.18,-187.5 1459.18,-168.5 1358.18,-168.5"/>
<text text-anchor="middle" x="1408.68" y="-175.5" font-family="Helvetica,sans-Serif" font-size="10.00">InverseDynamics.h</text>
</a>
</g>
</g>
<!-- Node2&#45;&gt;Node31 -->
<g id="edge59" class="edge"><title>Node2&#45;&gt;Node31</title>
<path fill="none" stroke="midnightblue" d="M702.682,-231.956C793.899,-228.383 1090.91,-215.377 1347.71,-188.009"/>
<polygon fill="midnightblue" stroke="midnightblue" points="1348.41,-191.454 1357.98,-186.905 1347.66,-184.494 1348.41,-191.454"/>
</g>
<!-- Node32 -->
<g id="node32" class="node"><title>Node32</title>
<g id="a_node32"><a xlink:href="_dot_j_nu_8h.html" target="_top" xlink:title="DotJNu.h">
<polygon fill="none" stroke="black" points="1281.18,-168.5 1281.18,-187.5 1340.18,-187.5 1340.18,-168.5 1281.18,-168.5"/>
<text text-anchor="middle" x="1310.68" y="-175.5" font-family="Helvetica,sans-Serif" font-size="10.00">DotJNu.h</text>
</a>
</g>
</g>
<!-- Node2&#45;&gt;Node32 -->
<g id="edge63" class="edge"><title>Node2&#45;&gt;Node32</title>
<path fill="none" stroke="midnightblue" d="M702.827,-232.391C787.381,-230.245 1046.61,-221.339 1270.98,-187.857"/>
<polygon fill="midnightblue" stroke="midnightblue" points="1271.6,-191.303 1280.96,-186.347 1270.55,-184.382 1271.6,-191.303"/>
</g>
<!-- Node33 -->
<g id="node33" class="node"><title>Node33</title>
<g id="a_node33"><a xlink:href="_get_limits_8h.html" target="_top" xlink:title="GetLimits.h">
<polygon fill="none" stroke="black" points="731.182,-168.5 731.182,-187.5 798.182,-187.5 798.182,-168.5 731.182,-168.5"/>
<text text-anchor="middle" x="764.682" y="-175.5" font-family="Helvetica,sans-Serif" font-size="10.00">GetLimits.h</text>
</a>
</g>
</g>
<!-- Node2&#45;&gt;Node33 -->
<g id="edge68" class="edge"><title>Node2&#45;&gt;Node33</title>
<path fill="none" stroke="midnightblue" d="M689.142,-224.324C703.182,-215.9 724.731,-202.971 741.225,-193.074"/>
<polygon fill="midnightblue" stroke="midnightblue" points="743.484,-195.801 750.258,-187.655 739.882,-189.798 743.484,-195.801"/>
</g>
<!-- Node34 -->
<g id="node34" class="node"><title>Node34</title>
<g id="a_node34"><a xlink:href="_centroidal_momentum_8h.html" target="_top" xlink:title="CentroidalMomentum.h">
<polygon fill="none" stroke="black" points="816.682,-168.5 816.682,-187.5 934.682,-187.5 934.682,-168.5 816.682,-168.5"/>
<text text-anchor="middle" x="875.682" y="-175.5" font-family="Helvetica,sans-Serif" font-size="10.00">CentroidalMomentum.h</text>
</a>
</g>
</g>
<!-- Node2&#45;&gt;Node34 -->
<g id="edge71" class="edge"><title>Node2&#45;&gt;Node34</title>
<path fill="none" stroke="midnightblue" d="M703.054,-225.378C737.2,-216.204 794.823,-200.724 834.017,-190.194"/>
<polygon fill="midnightblue" stroke="midnightblue" points="835.057,-193.538 843.806,-187.564 833.241,-186.778 835.057,-193.538"/>
</g>
<!-- Node35 -->
<g id="node35" class="node"><title>Node35</title>
<g id="a_node35"><a xlink:href="_set_low_level_p_i_d_8h.html" target="_top" xlink:title="SetLowLevelPID.h">
<polygon fill="none" stroke="black" points="1477.68,-168.5 1477.68,-187.5 1575.68,-187.5 1575.68,-168.5 1477.68,-168.5"/>
<text text-anchor="middle" x="1526.68" y="-175.5" font-family="Helvetica,sans-Serif" font-size="10.00">SetLowLevelPID.h</text>
</a>
</g>
</g>
<!-- Node2&#45;&gt;Node35 -->
<g id="edge74" class="edge"><title>Node2&#45;&gt;Node35</title>
<path fill="none" stroke="midnightblue" d="M702.854,-232.366C804.44,-229.877 1161.6,-219.374 1467.52,-187.896"/>
<polygon fill="midnightblue" stroke="midnightblue" points="1467.89,-191.377 1477.47,-186.863 1467.16,-184.415 1467.89,-191.377"/>
</g>
<!-- Node4 -->
<g id="node4" class="node"><title>Node4</title>
<polygon fill="none" stroke="#bfbfbf" points="480.182,-0.5 480.182,-19.5 521.182,-19.5 521.182,-0.5 480.182,-0.5"/>
<text text-anchor="middle" x="500.682" y="-7.5" font-family="Helvetica,sans-Serif" font-size="10.00">string</text>
</g>
<!-- Node3&#45;&gt;Node4 -->
<g id="edge3" class="edge"><title>Node3&#45;&gt;Node4</title>
<path fill="none" stroke="midnightblue" d="M230.347,-61.2877C272.538,-53.69 371.617,-35.7539 454.682,-20 459.619,-19.0637 464.851,-18.0554 469.948,-17.0644"/>
<polygon fill="midnightblue" stroke="midnightblue" points="470.941,-20.4367 480.083,-15.083 469.598,-13.5667 470.941,-20.4367"/>
</g>
<!-- Node5 -->
<g id="node5" class="node"><title>Node5</title>
<polygon fill="none" stroke="#bfbfbf" points="402.682,-0.5 402.682,-19.5 446.682,-19.5 446.682,-0.5 402.682,-0.5"/>
<text text-anchor="middle" x="424.682" y="-7.5" font-family="Helvetica,sans-Serif" font-size="10.00">vector</text>
</g>
<!-- Node3&#45;&gt;Node5 -->
<g id="edge4" class="edge"><title>Node3&#45;&gt;Node5</title>
<path fill="none" stroke="midnightblue" d="M230.405,-59.6469C235.098,-58.4413 240.06,-57.172 244.682,-56 296.404,-42.8851 356.556,-27.9014 392.572,-18.9585"/>
<polygon fill="midnightblue" stroke="midnightblue" points="393.639,-22.3001 402.502,-16.4944 391.953,-15.5062 393.639,-22.3001"/>
</g>
<!-- Node7 -->
<g id="node7" class="node"><title>Node7</title>
<g id="a_node7"><a xlink:href="_block_8h.html" target="_top" xlink:title="Block.h">
<polygon fill="none" stroke="black" points="384.682,-56.5 384.682,-75.5 434.682,-75.5 434.682,-56.5 384.682,-56.5"/>
<text text-anchor="middle" x="409.682" y="-63.5" font-family="Helvetica,sans-Serif" font-size="10.00">Block.h</text>
</a>
</g>
</g>
<!-- Node6&#45;&gt;Node7 -->
<g id="edge6" class="edge"><title>Node6&#45;&gt;Node7</title>
<path fill="none" stroke="midnightblue" d="M453.93,-112.083C446.213,-104.22 434.778,-92.5688 425.466,-83.0813"/>
<polygon fill="midnightblue" stroke="midnightblue" points="427.774,-80.4363 418.271,-75.7511 422.778,-85.3396 427.774,-80.4363"/>
</g>
<!-- Node8 -->
<g id="node8" class="node"><title>Node8</title>
<polygon fill="none" stroke="#bfbfbf" points="793.682,-56.5 793.682,-75.5 845.682,-75.5 845.682,-56.5 793.682,-56.5"/>
<text text-anchor="middle" x="819.682" y="-63.5" font-family="Helvetica,sans-Serif" font-size="10.00">memory</text>
</g>
<!-- Node6&#45;&gt;Node8 -->
<g id="edge9" class="edge"><title>Node6&#45;&gt;Node8</title>
<path fill="none" stroke="midnightblue" d="M496.904,-113.588C499.868,-113.021 502.825,-112.483 505.682,-112 625.406,-91.7503 659.544,-98.7636 783.537,-75.7985"/>
<polygon fill="midnightblue" stroke="midnightblue" points="784.233,-79.2291 793.414,-73.9416 782.94,-72.3496 784.233,-79.2291"/>
</g>
<!-- Node7&#45;&gt;Node4 -->
<g id="edge7" class="edge"><title>Node7&#45;&gt;Node4</title>
<path fill="none" stroke="midnightblue" d="M424.303,-56.324C438.631,-47.8215 460.695,-34.7288 477.431,-24.7975"/>
<polygon fill="midnightblue" stroke="midnightblue" points="479.284,-27.7677 486.098,-19.6545 475.712,-21.7478 479.284,-27.7677"/>
</g>
<!-- Node7&#45;&gt;Node5 -->
<g id="edge8" class="edge"><title>Node7&#45;&gt;Node5</title>
<path fill="none" stroke="midnightblue" d="M412.159,-56.083C414.169,-48.8486 417.069,-38.4087 419.572,-29.3968"/>
<polygon fill="midnightblue" stroke="midnightblue" points="422.947,-30.323 422.251,-19.7511 416.203,-28.4495 422.947,-30.323"/>
</g>
<!-- Node9&#45;&gt;Node7 -->
<g id="edge11" class="edge"><title>Node9&#45;&gt;Node7</title>
<path fill="none" stroke="midnightblue" d="M526.657,-112.444C503.578,-103.478 467.12,-89.314 441.041,-79.1827"/>
<polygon fill="midnightblue" stroke="midnightblue" points="442.193,-75.8753 431.604,-75.5164 439.658,-82.4002 442.193,-75.8753"/>
</g>
<!-- Node9&#45;&gt;Node8 -->
<g id="edge12" class="edge"><title>Node9&#45;&gt;Node8</title>
<path fill="none" stroke="midnightblue" d="M583.053,-115.038C627.062,-107.269 705.887,-92.8989 783.436,-75.9455"/>
<polygon fill="midnightblue" stroke="midnightblue" points="784.363,-79.3253 793.376,-73.7564 782.857,-72.4891 784.363,-79.3253"/>
</g>
<!-- Node10&#45;&gt;Node5 -->
<g id="edge34" class="edge"><title>Node10&#45;&gt;Node5</title>
<path fill="none" stroke="midnightblue" d="M577.948,-168.338C588.023,-155.213 603.713,-129.92 591.682,-112 568.129,-76.9158 539.962,-97.668 503.682,-76 480.009,-61.8611 455.995,-40.9657 440.759,-26.7086"/>
<polygon fill="midnightblue" stroke="midnightblue" points="442.909,-23.9228 433.256,-19.5561 438.079,-28.9895 442.909,-23.9228"/>
</g>
<!-- Node10&#45;&gt;Node8 -->
<g id="edge35" class="edge"><title>Node10&#45;&gt;Node8</title>
<path fill="none" stroke="midnightblue" d="M618.294,-169.335C652.507,-162.598 699.042,-150.862 736.682,-132 762.6,-119.012 788.219,-97.2134 803.988,-82.4784"/>
<polygon fill="midnightblue" stroke="midnightblue" points="806.477,-84.9415 811.286,-75.501 801.639,-79.882 806.477,-84.9415"/>
</g>
<!-- Node11 -->
<g id="node11" class="node"><title>Node11</title>
<g id="a_node11"><a xlink:href="_w_b_block_8h.html" target="_top" xlink:title="WBBlock.h">
<polygon fill="none" stroke="black" points="974.682,-112.5 974.682,-131.5 1040.68,-131.5 1040.68,-112.5 974.682,-112.5"/>
<text text-anchor="middle" x="1007.68" y="-119.5" font-family="Helvetica,sans-Serif" font-size="10.00">WBBlock.h</text>
</a>
</g>
</g>
<!-- Node10&#45;&gt;Node11 -->
<g id="edge14" class="edge"><title>Node10&#45;&gt;Node11</title>
<path fill="none" stroke="midnightblue" d="M618.248,-169.349C621.439,-168.879 624.606,-168.425 627.682,-168 749.43,-151.186 893.666,-135.173 964.305,-127.584"/>
<polygon fill="midnightblue" stroke="midnightblue" points="965.018,-131.028 974.588,-126.483 964.272,-124.067 965.018,-131.028"/>
</g>
<!-- Node17 -->
<g id="node17" class="node"><title>Node17</title>
<g id="a_node17"><a xlink:href="_robot_interface_8h.html" target="_top" xlink:title="RobotInterface.h">
<polygon fill="none" stroke="black" points="639.182,-112.5 639.182,-131.5 728.182,-131.5 728.182,-112.5 639.182,-112.5"/>
<text text-anchor="middle" x="683.682" y="-119.5" font-family="Helvetica,sans-Serif" font-size="10.00">RobotInterface.h</text>
</a>
</g>
</g>
<!-- Node10&#45;&gt;Node17 -->
<g id="edge23" class="edge"><title>Node10&#45;&gt;Node17</title>
<path fill="none" stroke="midnightblue" d="M588.588,-168.444C606.936,-159.675 635.688,-145.935 656.776,-135.858"/>
<polygon fill="midnightblue" stroke="midnightblue" points="658.347,-138.986 665.861,-131.516 655.329,-132.67 658.347,-138.986"/>
</g>
<!-- Node11&#45;&gt;Node4 -->
<g id="edge16" class="edge"><title>Node11&#45;&gt;Node4</title>
<path fill="none" stroke="midnightblue" d="M1007.84,-112.184C1007.56,-97.8854 1004.73,-69.8466 987.682,-56 952.272,-27.235 633.077,-15.0517 531.545,-11.8823"/>
<polygon fill="midnightblue" stroke="midnightblue" points="531.439,-8.37757 521.337,-11.5714 531.226,-15.3743 531.439,-8.37757"/>
</g>
<!-- Node11&#45;&gt;Node7 -->
<g id="edge15" class="edge"><title>Node11&#45;&gt;Node7</title>
<path fill="none" stroke="midnightblue" d="M974.679,-118.02C870.995,-108.657 552.34,-79.8821 445.227,-70.2097"/>
<polygon fill="midnightblue" stroke="midnightblue" points="445.231,-66.696 434.957,-69.2823 444.602,-73.6676 445.231,-66.696"/>
</g>
<!-- Node11&#45;&gt;Node8 -->
<g id="edge18" class="edge"><title>Node11&#45;&gt;Node8</title>
<path fill="none" stroke="midnightblue" d="M977.893,-112.444C944.723,-102.916 891.118,-87.5187 855.639,-77.328"/>
<polygon fill="midnightblue" stroke="midnightblue" points="856.277,-73.8698 845.7,-74.473 854.345,-80.5978 856.277,-73.8698"/>
</g>
<!-- Node12 -->
<g id="node12" class="node"><title>Node12</title>
<polygon fill="none" stroke="#bfbfbf" points="913.682,-0.5 913.682,-19.5 951.682,-19.5 951.682,-0.5 913.682,-0.5"/>
<text text-anchor="middle" x="932.682" y="-7.5" font-family="Helvetica,sans-Serif" font-size="10.00">array</text>
</g>
<!-- Node11&#45;&gt;Node12 -->
<g id="edge17" class="edge"><title>Node11&#45;&gt;Node12</title>
<path fill="none" stroke="midnightblue" d="M1040.8,-113.479C1089.8,-102.198 1176.34,-81.6162 1180.68,-76 1186.12,-68.9678 1186.38,-62.8234 1180.68,-56 1153.09,-22.9544 1021.42,-14.123 961.95,-11.8052"/>
<polygon fill="midnightblue" stroke="midnightblue" points="961.845,-8.29944 951.727,-11.4439 961.597,-15.2951 961.845,-8.29944"/>
</g>
<!-- Node13 -->
<g id="node13" class="node"><title>Node13</title>
<polygon fill="none" stroke="#bfbfbf" points="1505.18,-56.5 1505.18,-75.5 1658.18,-75.5 1658.18,-56.5 1505.18,-56.5"/>
<text text-anchor="middle" x="1581.68" y="-63.5" font-family="Helvetica,sans-Serif" font-size="10.00">iDynTree/Core/VectorFixSize.h</text>
</g>
<!-- Node11&#45;&gt;Node13 -->
<g id="edge19" class="edge"><title>Node11&#45;&gt;Node13</title>
<path fill="none" stroke="midnightblue" d="M1041.08,-113.432C1043.98,-112.9 1046.88,-112.412 1049.68,-112 1243.17,-83.584 1295.92,-93.9883 1494.61,-76.0695"/>
<polygon fill="midnightblue" stroke="midnightblue" points="1495.16,-79.5339 1504.8,-75.1374 1494.52,-72.5631 1495.16,-79.5339"/>
</g>
<!-- Node14 -->
<g id="node14" class="node"><title>Node14</title>
<polygon fill="none" stroke="#bfbfbf" points="1227.68,-56.5 1227.68,-75.5 1385.68,-75.5 1385.68,-56.5 1227.68,-56.5"/>
<text text-anchor="middle" x="1306.68" y="-63.5" font-family="Helvetica,sans-Serif" font-size="10.00">iDynTree/Core/VectorDynSize.h</text>
</g>
<!-- Node11&#45;&gt;Node14 -->
<g id="edge20" class="edge"><title>Node11&#45;&gt;Node14</title>
<path fill="none" stroke="midnightblue" d="M1041.13,-113.714C1044.02,-113.12 1046.9,-112.541 1049.68,-112 1115.96,-99.1012 1192.19,-85.9667 1244.31,-77.2442"/>
<polygon fill="midnightblue" stroke="midnightblue" points="1245.11,-80.6584 1254.4,-75.56 1243.96,-73.7539 1245.11,-80.6584"/>
</g>
<!-- Node15 -->
<g id="node15" class="node"><title>Node15</title>
<polygon fill="none" stroke="#bfbfbf" points="863.682,-56.5 863.682,-75.5 979.682,-75.5 979.682,-56.5 863.682,-56.5"/>
<text text-anchor="middle" x="921.682" y="-63.5" font-family="Helvetica,sans-Serif" font-size="10.00">iDynTree/Core/Twist.h</text>
</g>
<!-- Node11&#45;&gt;Node15 -->
<g id="edge21" class="edge"><title>Node11&#45;&gt;Node15</title>
<path fill="none" stroke="midnightblue" d="M993.865,-112.324C980.449,-103.9 959.858,-90.9709 944.097,-81.0741"/>
<polygon fill="midnightblue" stroke="midnightblue" points="945.796,-78.0081 935.465,-75.6545 942.073,-83.9364 945.796,-78.0081"/>
</g>
<!-- Node16 -->
<g id="node16" class="node"><title>Node16</title>
<polygon fill="none" stroke="#bfbfbf" points="1035.68,-56.5 1035.68,-75.5 1171.68,-75.5 1171.68,-56.5 1035.68,-56.5"/>
<text text-anchor="middle" x="1103.68" y="-63.5" font-family="Helvetica,sans-Serif" font-size="10.00">iDynTree/Core/Transform.h</text>
</g>
<!-- Node11&#45;&gt;Node16 -->
<g id="edge22" class="edge"><title>Node11&#45;&gt;Node16</title>
<path fill="none" stroke="midnightblue" d="M1023.11,-112.324C1038.22,-103.822 1061.5,-90.7288 1079.15,-80.7975"/>
<polygon fill="midnightblue" stroke="midnightblue" points="1081.3,-83.6077 1088.3,-75.6545 1077.86,-77.5066 1081.3,-83.6077"/>
</g>
<!-- Node17&#45;&gt;Node4 -->
<g id="edge29" class="edge"><title>Node17&#45;&gt;Node4</title>
<path fill="none" stroke="midnightblue" d="M638.896,-113.749C596.375,-106 536.522,-92.5626 519.682,-76 507.513,-64.0305 503.035,-44.7307 501.44,-30.2652"/>
<polygon fill="midnightblue" stroke="midnightblue" points="504.904,-29.6516 500.686,-19.9329 497.923,-30.1611 504.904,-29.6516"/>
</g>
<!-- Node17&#45;&gt;Node5 -->
<g id="edge30" class="edge"><title>Node17&#45;&gt;Node5</title>
<path fill="none" stroke="midnightblue" d="M670.671,-112.421C646.777,-96.7693 596.621,-64.4136 577.682,-56 537.558,-38.1748 488.437,-25.1663 456.86,-17.8467"/>
<polygon fill="midnightblue" stroke="midnightblue" points="457.389,-14.3778 446.863,-15.5838 455.843,-21.2051 457.389,-14.3778"/>
</g>
<!-- Node17&#45;&gt;Node8 -->
<g id="edge28" class="edge"><title>Node17&#45;&gt;Node8</title>
<path fill="none" stroke="midnightblue" d="M705.232,-112.444C727.713,-103.517 763.17,-89.4387 788.662,-79.3168"/>
<polygon fill="midnightblue" stroke="midnightblue" points="790.231,-82.4598 798.234,-75.5164 787.648,-75.9539 790.231,-82.4598"/>
</g>
<!-- Node18 -->
<g id="node18" class="node"><title>Node18</title>
<g id="a_node18"><a xlink:href="_configuration_8h.html" target="_top" xlink:title="Configuration.h">
<polygon fill="none" stroke="black" points="625.182,-56.5 625.182,-75.5 708.182,-75.5 708.182,-56.5 625.182,-56.5"/>
<text text-anchor="middle" x="666.682" y="-63.5" font-family="Helvetica,sans-Serif" font-size="10.00">Configuration.h</text>
</a>
</g>
</g>
<!-- Node17&#45;&gt;Node18 -->
<g id="edge24" class="edge"><title>Node17&#45;&gt;Node18</title>
<path fill="none" stroke="midnightblue" d="M680.875,-112.083C678.598,-104.849 675.311,-94.4087 672.474,-85.3968"/>
<polygon fill="midnightblue" stroke="midnightblue" points="675.779,-84.2385 669.437,-75.7511 669.102,-86.3406 675.779,-84.2385"/>
</g>
<!-- Node19 -->
<g id="node19" class="node"><title>Node19</title>
<polygon fill="none" stroke="#bfbfbf" points="528.682,-56.5 528.682,-75.5 568.682,-75.5 568.682,-56.5 528.682,-56.5"/>
<text text-anchor="middle" x="548.682" y="-63.5" font-family="Helvetica,sans-Serif" font-size="10.00">utility</text>
</g>
<!-- Node17&#45;&gt;Node19 -->
<g id="edge31" class="edge"><title>Node17&#45;&gt;Node19</title>
<path fill="none" stroke="midnightblue" d="M662.291,-112.444C639.713,-103.412 603.949,-89.1067 578.585,-78.9612"/>
<polygon fill="midnightblue" stroke="midnightblue" points="579.674,-75.6272 569.09,-75.1629 577.075,-82.1266 579.674,-75.6272"/>
</g>
<!-- Node20 -->
<g id="node20" class="node"><title>Node20</title>
<polygon fill="none" stroke="#bfbfbf" points="726.182,-56.5 726.182,-75.5 775.182,-75.5 775.182,-56.5 726.182,-56.5"/>
<text text-anchor="middle" x="750.682" y="-63.5" font-family="Helvetica,sans-Serif" font-size="10.00">cassert</text>
</g>
<!-- Node17&#45;&gt;Node20 -->
<g id="edge32" class="edge"><title>Node17&#45;&gt;Node20</title>
<path fill="none" stroke="midnightblue" d="M694.447,-112.324C704.448,-104.263 719.569,-92.0765 731.613,-82.3695"/>
<polygon fill="midnightblue" stroke="midnightblue" points="734.132,-84.8343 739.722,-75.8339 729.739,-79.3841 734.132,-84.8343"/>
</g>
<!-- Node21 -->
<g id="node21" class="node"><title>Node21</title>
<polygon fill="none" stroke="#bfbfbf" points="1404.18,-56.5 1404.18,-75.5 1487.18,-75.5 1487.18,-56.5 1404.18,-56.5"/>
<text text-anchor="middle" x="1445.68" y="-63.5" font-family="Helvetica,sans-Serif" font-size="10.00">unordered_map</text>
</g>
<!-- Node17&#45;&gt;Node21 -->
<g id="edge33" class="edge"><title>Node17&#45;&gt;Node21</title>
<path fill="none" stroke="midnightblue" d="M728.279,-119.847C840.428,-116.586 1143.15,-105.533 1393.68,-76 1393.79,-75.9876 1393.89,-75.9751 1394,-75.9626"/>
<polygon fill="midnightblue" stroke="midnightblue" points="1394.57,-79.417 1404.02,-74.619 1393.64,-72.4791 1394.57,-79.417"/>
</g>
<!-- Node18&#45;&gt;Node4 -->
<g id="edge27" class="edge"><title>Node18&#45;&gt;Node4</title>
<path fill="none" stroke="midnightblue" d="M640.379,-56.4435C610.682,-46.7829 562.434,-31.088 531.13,-20.9046"/>
<polygon fill="midnightblue" stroke="midnightblue" points="532.199,-17.5718 521.607,-17.8067 530.033,-24.2285 532.199,-17.5718"/>
</g>
<!-- Node18&#45;&gt;Node5 -->
<g id="edge25" class="edge"><title>Node18&#45;&gt;Node5</title>
<path fill="none" stroke="midnightblue" d="M628.337,-56.4435C580.957,-45.8712 501.19,-28.0719 456.853,-18.1785"/>
<polygon fill="midnightblue" stroke="midnightblue" points="457.43,-14.7213 446.907,-15.9593 455.905,-21.5532 457.43,-14.7213"/>
</g>
<!-- Node18&#45;&gt;Node12 -->
<g id="edge26" class="edge"><title>Node18&#45;&gt;Node12</title>
<path fill="none" stroke="midnightblue" d="M708.245,-56.5625C762.583,-45.5315 856.387,-26.4886 903.662,-16.8914"/>
<polygon fill="midnightblue" stroke="midnightblue" points="904.449,-20.3032 913.552,-14.8835 903.056,-13.4431 904.449,-20.3032"/>
</g>
<!-- Node22&#45;&gt;Node7 -->
<g id="edge37" class="edge"><title>Node22&#45;&gt;Node7</title>
<path fill="none" stroke="midnightblue" d="M88.5111,-113.652C91.6092,-113.072 94.6986,-112.513 97.6824,-112 197.709,-94.7968 316.551,-78.9023 374.452,-71.4489"/>
<polygon fill="midnightblue" stroke="midnightblue" points="375.062,-74.8995 384.536,-70.157 374.172,-67.9562 375.062,-74.8995"/>
</g>
<!-- Node23&#45;&gt;Node8 -->
<g id="edge40" class="edge"><title>Node23&#45;&gt;Node8</title>
<path fill="none" stroke="midnightblue" d="M701.486,-168.44C721.91,-161.019 749.956,-148.815 770.682,-132 787.089,-118.689 801.044,-98.7576 809.816,-84.4775"/>
<polygon fill="midnightblue" stroke="midnightblue" points="812.96,-86.0363 815.027,-75.645 806.931,-82.4794 812.96,-86.0363"/>
</g>
<!-- Node23&#45;&gt;Node11 -->
<g id="edge39" class="edge"><title>Node23&#45;&gt;Node11</title>
<path fill="none" stroke="midnightblue" d="M712.882,-169.575C715.858,-169.031 718.818,-168.499 721.682,-168 807.687,-153.004 908.642,-137.642 964.669,-129.314"/>
<polygon fill="midnightblue" stroke="midnightblue" points="965.216,-132.771 974.594,-127.842 964.189,-125.847 965.216,-132.771"/>
</g>
<!-- Node24&#45;&gt;Node8 -->
<g id="edge43" class="edge"><title>Node24&#45;&gt;Node8</title>
<path fill="none" stroke="midnightblue" d="M1064.31,-168.382C1039.11,-159.684 999.451,-145.624 965.682,-132 923.84,-115.118 876.244,-93.4557 847.088,-79.8981"/>
<polygon fill="midnightblue" stroke="midnightblue" points="848.484,-76.6873 837.942,-75.6297 845.523,-83.0305 848.484,-76.6873"/>
</g>
<!-- Node24&#45;&gt;Node11 -->
<g id="edge42" class="edge"><title>Node24&#45;&gt;Node11</title>
<path fill="none" stroke="midnightblue" d="M1076.51,-168.324C1063.84,-159.979 1044.45,-147.212 1029.48,-137.352"/>
<polygon fill="midnightblue" stroke="midnightblue" points="1031.1,-134.231 1020.82,-131.655 1027.25,-140.078 1031.1,-134.231"/>
</g>
<!-- Node25 -->
<g id="node25" class="node"><title>Node25</title>
<polygon fill="none" stroke="#bfbfbf" points="1058.68,-112.5 1058.68,-131.5 1186.68,-131.5 1186.68,-112.5 1058.68,-112.5"/>
<text text-anchor="middle" x="1122.68" y="-119.5" font-family="Helvetica,sans-Serif" font-size="10.00">iDynTree/Model/Indices.h</text>
</g>
<!-- Node24&#45;&gt;Node25 -->
<g id="edge44" class="edge"><title>Node24&#45;&gt;Node25</title>
<path fill="none" stroke="midnightblue" d="M1095.13,-168.083C1099.7,-160.613 1106.35,-149.724 1111.98,-140.52"/>
<polygon fill="midnightblue" stroke="midnightblue" points="1115.11,-142.109 1117.33,-131.751 1109.13,-138.459 1115.11,-142.109"/>
</g>
<!-- Node26&#45;&gt;Node5 -->
<g id="edge47" class="edge"><title>Node26&#45;&gt;Node5</title>
<path fill="none" stroke="midnightblue" d="M323.87,-168.435C299.387,-157.413 264.678,-136.714 277.682,-112 301.934,-65.9134 357.769,-36.7888 393.22,-22.2308"/>
<polygon fill="midnightblue" stroke="midnightblue" points="394.622,-25.4401 402.635,-18.509 392.049,-18.9303 394.622,-25.4401"/>
</g>
<!-- Node26&#45;&gt;Node11 -->
<g id="edge46" class="edge"><title>Node26&#45;&gt;Node11</title>
<path fill="none" stroke="midnightblue" d="M390.924,-173.31C512.483,-163.394 845.027,-136.268 964.348,-126.535"/>
<polygon fill="midnightblue" stroke="midnightblue" points="964.875,-130.004 974.557,-125.702 964.305,-123.027 964.875,-130.004"/>
</g>
<!-- Node27&#45;&gt;Node7 -->
<g id="edge49" class="edge"><title>Node27&#45;&gt;Node7</title>
<path fill="none" stroke="midnightblue" d="M206.87,-112.444C253.045,-102.097 330.109,-84.8296 374.766,-74.8237"/>
<polygon fill="midnightblue" stroke="midnightblue" points="375.588,-78.2262 384.581,-72.6243 374.058,-71.3956 375.588,-78.2262"/>
</g>
<!-- Node28&#45;&gt;Node7 -->
<g id="edge51" class="edge"><title>Node28&#45;&gt;Node7</title>
<path fill="none" stroke="midnightblue" d="M358.483,-112.324C367.5,-104.341 381.088,-92.3128 392,-82.6529"/>
<polygon fill="midnightblue" stroke="midnightblue" points="394.536,-85.083 399.703,-75.8339 389.896,-79.8416 394.536,-85.083"/>
</g>
<!-- Node28&#45;&gt;Node8 -->
<g id="edge52" class="edge"><title>Node28&#45;&gt;Node8</title>
<path fill="none" stroke="midnightblue" d="M410.244,-113.091C413.435,-112.714 416.596,-112.348 419.682,-112 577.912,-94.1502 621.724,-103.39 783.136,-75.8155"/>
<polygon fill="midnightblue" stroke="midnightblue" points="784.174,-79.188 793.431,-74.0345 782.981,-72.2904 784.174,-79.188"/>
</g>
<!-- Node29&#45;&gt;Node8 -->
<g id="edge55" class="edge"><title>Node29&#45;&gt;Node8</title>
<path fill="none" stroke="midnightblue" d="M971.735,-168.368C943.421,-149.492 875.76,-104.385 841.037,-81.2367"/>
<polygon fill="midnightblue" stroke="midnightblue" points="842.831,-78.2263 832.569,-75.5914 838.949,-84.0506 842.831,-78.2263"/>
</g>
<!-- Node29&#45;&gt;Node11 -->
<g id="edge54" class="edge"><title>Node29&#45;&gt;Node11</title>
<path fill="none" stroke="midnightblue" d="M988.48,-168.083C991.595,-160.77 996.105,-150.181 999.972,-141.103"/>
<polygon fill="midnightblue" stroke="midnightblue" points="1003.26,-142.323 1003.96,-131.751 996.816,-139.58 1003.26,-142.323"/>
</g>
<!-- Node29&#45;&gt;Node25 -->
<g id="edge56" class="edge"><title>Node29&#45;&gt;Node25</title>
<path fill="none" stroke="midnightblue" d="M1006.55,-168.444C1029.46,-159.478 1065.66,-145.314 1091.55,-135.183"/>
<polygon fill="midnightblue" stroke="midnightblue" points="1092.88,-138.42 1100.92,-131.516 1090.33,-131.901 1092.88,-138.42"/>
</g>
<!-- Node30&#45;&gt;Node11 -->
<g id="edge58" class="edge"><title>Node30&#45;&gt;Node11</title>
<path fill="none" stroke="midnightblue" d="M1180.2,-168.444C1144.96,-159.162 1088.58,-144.309 1049.92,-134.127"/>
<polygon fill="midnightblue" stroke="midnightblue" points="1050.57,-130.679 1040.01,-131.516 1048.79,-137.448 1050.57,-130.679"/>
</g>
<!-- Node31&#45;&gt;Node8 -->
<g id="edge61" class="edge"><title>Node31&#45;&gt;Node8</title>
<path fill="none" stroke="midnightblue" d="M1390.3,-168.452C1358.66,-154.152 1291.53,-125.609 1231.68,-112 1070.76,-75.4104 1022.36,-103.888 856.041,-75.964"/>
<polygon fill="midnightblue" stroke="midnightblue" points="856.409,-72.4759 845.959,-74.2272 855.22,-79.3742 856.409,-72.4759"/>
</g>
<!-- Node31&#45;&gt;Node11 -->
<g id="edge60" class="edge"><title>Node31&#45;&gt;Node11</title>
<path fill="none" stroke="midnightblue" d="M1357.96,-169.285C1354.82,-168.841 1351.71,-168.409 1348.68,-168 1219.28,-150.508 1183.44,-153.865 1051.21,-132.128"/>
<polygon fill="midnightblue" stroke="midnightblue" points="1051.54,-128.635 1041.1,-130.449 1050.39,-135.54 1051.54,-128.635"/>
</g>
<!-- Node31&#45;&gt;Node13 -->
<g id="edge62" class="edge"><title>Node31&#45;&gt;Node13</title>
<path fill="none" stroke="midnightblue" d="M1408.72,-168.097C1409.26,-154.183 1412.38,-127.296 1427.68,-112 1445.77,-93.9176 1470.69,-83.0173 1495.21,-76.4734"/>
<polygon fill="midnightblue" stroke="midnightblue" points="1496.06,-79.8689 1504.94,-74.091 1494.4,-73.0697 1496.06,-79.8689"/>
</g>
<!-- Node32&#45;&gt;Node8 -->
<g id="edge65" class="edge"><title>Node32&#45;&gt;Node8</title>
<path fill="none" stroke="midnightblue" d="M1299.34,-168.46C1279.52,-154.038 1236.75,-125.145 1195.68,-112 1053.66,-66.5346 1006.68,-101.476 856.039,-75.9677"/>
<polygon fill="midnightblue" stroke="midnightblue" points="856.419,-72.481 845.965,-74.1986 855.208,-79.3755 856.419,-72.481"/>
</g>
<!-- Node32&#45;&gt;Node11 -->
<g id="edge64" class="edge"><title>Node32&#45;&gt;Node11</title>
<path fill="none" stroke="midnightblue" d="M1280.92,-169.918C1277.8,-169.241 1274.68,-168.589 1271.68,-168 1176.76,-149.372 1149.65,-150.388 1051.2,-132.206"/>
<polygon fill="midnightblue" stroke="midnightblue" points="1051.59,-128.719 1041.12,-130.324 1050.31,-135.601 1051.59,-128.719"/>
</g>
<!-- Node32&#45;&gt;Node13 -->
<g id="edge67" class="edge"><title>Node32&#45;&gt;Node13</title>
<path fill="none" stroke="midnightblue" d="M1321.53,-168.366C1339.36,-154.578 1376.39,-127.564 1411.68,-112 1447.38,-96.2598 1489.79,-85.0214 1523.33,-77.7122"/>
<polygon fill="midnightblue" stroke="midnightblue" points="1524.38,-81.0678 1533.43,-75.5693 1522.92,-74.2201 1524.38,-81.0678"/>
</g>
<!-- Node32&#45;&gt;Node25 -->
<g id="edge66" class="edge"><title>Node32&#45;&gt;Node25</title>
<path fill="none" stroke="midnightblue" d="M1280.89,-168.444C1248.85,-159.241 1197.75,-144.562 1162.33,-134.388"/>
<polygon fill="midnightblue" stroke="midnightblue" points="1162.91,-130.913 1152.33,-131.516 1160.98,-137.641 1162.91,-130.913"/>
</g>
<!-- Node33&#45;&gt;Node8 -->
<g id="edge70" class="edge"><title>Node33&#45;&gt;Node8</title>
<path fill="none" stroke="midnightblue" d="M776.436,-168.403C786.676,-160.234 801.048,-146.995 808.682,-132 816.066,-117.498 818.641,-99.0531 819.471,-85.5194"/>
<polygon fill="midnightblue" stroke="midnightblue" points="822.97,-85.618 819.825,-75.5005 815.974,-85.3705 822.97,-85.618"/>
</g>
<!-- Node33&#45;&gt;Node11 -->
<g id="edge69" class="edge"><title>Node33&#45;&gt;Node11</title>
<path fill="none" stroke="midnightblue" d="M798.215,-169.548C841.519,-159.925 916.953,-143.162 964.501,-132.596"/>
<polygon fill="midnightblue" stroke="midnightblue" points="965.491,-135.961 974.494,-130.375 963.972,-129.128 965.491,-135.961"/>
</g>
<!-- Node34&#45;&gt;Node8 -->
<g id="edge73" class="edge"><title>Node34&#45;&gt;Node8</title>
<path fill="none" stroke="midnightblue" d="M871.288,-168.368C862.128,-150.376 840.835,-108.55 828.656,-84.6267"/>
<polygon fill="midnightblue" stroke="midnightblue" points="831.712,-82.9152 824.056,-75.5914 825.474,-86.091 831.712,-82.9152"/>
</g>
<!-- Node34&#45;&gt;Node11 -->
<g id="edge72" class="edge"><title>Node34&#45;&gt;Node11</title>
<path fill="none" stroke="midnightblue" d="M896.598,-168.444C918.418,-159.517 952.832,-145.439 977.575,-135.317"/>
<polygon fill="midnightblue" stroke="midnightblue" points="978.934,-138.542 986.864,-131.516 976.284,-132.063 978.934,-138.542"/>
</g>
<!-- Node35&#45;&gt;Node11 -->
<g id="edge75" class="edge"><title>Node35&#45;&gt;Node11</title>
<path fill="none" stroke="midnightblue" d="M1477.46,-169.245C1474.15,-168.8 1470.87,-168.38 1467.68,-168 1285.78,-146.317 1235.84,-159.12 1051.13,-132.044"/>
<polygon fill="midnightblue" stroke="midnightblue" points="1051.49,-128.559 1041.08,-130.552 1050.46,-135.483 1051.49,-128.559"/>
</g>
<!-- Node35&#45;&gt;Node21 -->
<g id="edge76" class="edge"><title>Node35&#45;&gt;Node21</title>
<path fill="none" stroke="midnightblue" d="M1537.07,-168.195C1550.98,-155.318 1572.5,-130.835 1559.68,-112 1551.2,-99.5285 1517.14,-87.0682 1488.44,-78.4322"/>
<polygon fill="midnightblue" stroke="midnightblue" points="1489.15,-74.9913 1478.57,-75.5432 1487.18,-81.7099 1489.15,-74.9913"/>
</g>
<!-- Node36 -->
<g id="node36" class="node"><title>Node36</title>
<polygon fill="none" stroke="#bfbfbf" points="1436.68,-112.5 1436.68,-131.5 1550.68,-131.5 1550.68,-112.5 1436.68,-112.5"/>
<text text-anchor="middle" x="1493.68" y="-119.5" font-family="Helvetica,sans-Serif" font-size="10.00">yarp/dev/IPidControl.h</text>
</g>
<!-- Node35&#45;&gt;Node36 -->
<g id="edge77" class="edge"><title>Node35&#45;&gt;Node36</title>
<path fill="none" stroke="midnightblue" d="M1521.23,-168.083C1516.67,-160.613 1510.01,-149.724 1504.39,-140.52"/>
<polygon fill="midnightblue" stroke="midnightblue" points="1507.23,-138.459 1499.03,-131.751 1501.26,-142.109 1507.23,-138.459"/>
</g>
</g>
</svg>
        <g id="navigator" transform="translate(0 0)" fill="#404254">
                <rect fill="#f2f5e9" fill-opacity="0.5" stroke="#606060" stroke-width=".5" x="0" y="0" width="60" height="60"/>
                <use id="zoomplus" xlink:href="#zoomPlus" x="17" y="9" onmousedown="handleZoom(evt,'in')"/>
                <use id="zoomminus" xlink:href="#zoomMin" x="42" y="9" onmousedown="handleZoom(evt,'out')"/>
                <use id="reset" xlink:href="#resetDef" x="30" y="36" onmousedown="handleReset()"/>
                <g id="arrowUp" xlink:href="#dirArrow" transform="translate(30 24)" onmousedown="handlePan(0,-1)">
                  <use xlink:href="#rim" fill="#404040">
                        <set attributeName="fill" to="#808080" begin="arrowUp.mouseover" end="arrowUp.mouseout"/>
                  </use>
                  <path fill="none" stroke="white" stroke-width="1.5" d="M0,-3.0v7 M-2.5,-0.5L0,-3.0L2.5,-0.5"/>
                </g>
                <g id="arrowRight" xlink:href="#dirArrow" transform="rotate(90) translate(36 -43)" onmousedown="handlePan(1,0)">
                  <use xlink:href="#rim" fill="#404040">
                        <set attributeName="fill" to="#808080" begin="arrowRight.mouseover" end="arrowRight.mouseout"/>
                  </use>
                  <path fill="none" stroke="white" stroke-width="1.5" d="M0,-3.0v7 M-2.5,-0.5L0,-3.0L2.5,-0.5"/>
                </g>
                <g id="arrowDown" xlink:href="#dirArrow" transform="rotate(180) translate(-30 -48)" onmousedown="handlePan(0,1)">
                  <use xlink:href="#rim" fill="#404040">
                        <set attributeName="fill" to="#808080" begin="arrowDown.mouseover" end="arrowDown.mouseout"/>
                  </use>
                  <path fill="none" stroke="white" stroke-width="1.5" d="M0,-3.0v7 M-2.5,-0.5L0,-3.0L2.5,-0.5"/>
                </g>
                <g id="arrowLeft" xlink:href="#dirArrow" transform="rotate(270) translate(-36 17)" onmousedown="handlePan(-1,0)">
                  <use xlink:href="#rim" fill="#404040">
                        <set attributeName="fill" to="#808080" begin="arrowLeft.mouseover" end="arrowLeft.mouseout"/>
                  </use>
                  <path fill="none" stroke="white" stroke-width="1.5" d="M0,-3.0v7 M-2.5,-0.5L0,-3.0L2.5,-0.5"/>
                </g>
        </g>
        <svg viewBox="0 0 15 15" width="100%" height="30px" preserveAspectRatio="xMaxYMin meet">
         <g id="arrow_out" transform="scale(0.3 0.3)">
          <a xlink:href="factory_8cpp__incl_org.svg" target="_base">
           <rect id="button" ry="5" rx="5" y="6" x="6" height="38" width="38"
                fill="#f2f5e9" fill-opacity="0.5" stroke="#606060" stroke-width="1.0"/>
           <path id="arrow"
             d="M 11.500037,31.436501 C 11.940474,20.09759 22.043105,11.32322 32.158766,21.979434 L 37.068811,17.246167 C 37.068811,17.246167 37.088388,32 37.088388,32 L 22.160133,31.978069 C 22.160133,31.978069 26.997745,27.140456 26.997745,27.140456 C 18.528582,18.264221 13.291696,25.230495 11.500037,31.436501 z"
             style="fill:#404040;"/>
          </a>
         </g>
        </svg>
</svg>
