<?xml version="1.0" encoding="UTF-8" standalone="no"?>
<!DOCTYPE svg PUBLIC "-//W3C//DTD SVG 1.1//EN"
 "http://www.w3.org/Graphics/SVG/1.1/DTD/svg11.dtd">
<!-- Generated by graphviz version 2.43.0 (0)
 -->
<!-- Title: Graphical Class Hierarchy Pages: 1 -->
<svg width="489pt" height="572pt"
 viewBox="0.00 0.00 489.00 572.00" xmlns="http://www.w3.org/2000/svg" xmlns:xlink="http://www.w3.org/1999/xlink">
<g id="graph0" class="graph" transform="scale(1 1) rotate(0) translate(4 568)">
<title>Graphical Class Hierarchy</title>
<!-- Node35 -->
<g id="node1" class="node">
<title>Node35</title>
<g id="a_node1"><a xlink:title=" ">
<polygon fill="none" stroke="#bfbfbf" points="0,-171.5 0,-190.5 44,-190.5 44,-171.5 0,-171.5"/>
<text text-anchor="middle" x="22" y="-178.5" font-family="Helvetica,sans-Serif" font-size="10.00">Block</text>
</a>
</g>
</g>
<!-- Node0 -->
<g id="node2" class="node">
<title>Node0</title>
<g id="a_node2"><a xlink:href="classwbt_1_1base_1_1_w_b_block.html" target="_top" xlink:title="Extension of blockfactory::core::Block for simplifying the development of whole&#45;body blocks.">
<polygon fill="none" stroke="black" points="116.5,-354.5 116.5,-373.5 229.5,-373.5 229.5,-354.5 116.5,-354.5"/>
<text text-anchor="middle" x="173" y="-361.5" font-family="Helvetica,sans-Serif" font-size="10.00">wbt::base::WBBlock</text>
</a>
</g>
</g>
<!-- Node35&#45;&gt;Node0 -->
<g id="edge1" class="edge">
<title>Node35&#45;&gt;Node0</title>
<path fill="none" stroke="midnightblue" d="M23.84,-200.79C26.45,-235.52 37.04,-307.32 80,-345 90.05,-353.82 103.11,-358.94 116.21,-361.82"/>
<polygon fill="midnightblue" stroke="midnightblue" points="27.32,-200.31 23.23,-190.53 20.33,-200.72 27.32,-200.31"/>
</g>
<!-- Node48 -->
<g id="node14" class="node">
<title>Node48</title>
<g id="a_node14"><a xlink:href="classwbt_1_1block_1_1_discrete_filter.html" target="_top" xlink:title="The wbt::DiscreteFilter class.">
<polygon fill="none" stroke="black" points="104,-316.5 104,-335.5 242,-335.5 242,-316.5 104,-316.5"/>
<text text-anchor="middle" x="173" y="-323.5" font-family="Helvetica,sans-Serif" font-size="10.00">wbt::block::DiscreteFilter</text>
</a>
</g>
</g>
<!-- Node35&#45;&gt;Node48 -->
<g id="edge13" class="edge">
<title>Node35&#45;&gt;Node48</title>
<path fill="none" stroke="midnightblue" d="M26.16,-200.54C31.77,-228.62 46.24,-279.99 80,-307 87,-312.6 95.25,-316.68 103.87,-319.62"/>
<polygon fill="midnightblue" stroke="midnightblue" points="29.6,-199.91 24.37,-190.7 22.71,-201.16 29.6,-199.91"/>
</g>
<!-- Node49 -->
<g id="node15" class="node">
<title>Node49</title>
<g id="a_node15"><a xlink:href="classwbt_1_1block_1_1_minimum_jerk_trajectory_generator.html" target="_top" xlink:title="The wbt::MinimumJerkTrajectoryGenerator class.">
<polygon fill="none" stroke="black" points="80,-267 80,-297 266,-297 266,-267 80,-267"/>
<text text-anchor="start" x="88" y="-285" font-family="Helvetica,sans-Serif" font-size="10.00">wbt::block::MinimumJerkTrajectory</text>
<text text-anchor="middle" x="173" y="-274" font-family="Helvetica,sans-Serif" font-size="10.00">Generator</text>
</a>
</g>
</g>
<!-- Node35&#45;&gt;Node49 -->
<g id="edge14" class="edge">
<title>Node35&#45;&gt;Node49</title>
<path fill="none" stroke="midnightblue" d="M32.34,-199.73C41.96,-217.12 58.55,-242.44 80,-257 85.75,-260.9 92.09,-264.2 98.67,-266.98"/>
<polygon fill="midnightblue" stroke="midnightblue" points="35.26,-197.76 27.5,-190.55 29.07,-201.03 35.26,-197.76"/>
</g>
<!-- Node50 -->
<g id="node16" class="node">
<title>Node50</title>
<g id="a_node16"><a xlink:href="classwbt_1_1block_1_1_qp_oases.html" target="_top" xlink:title="The wbt::QpOases class.">
<polygon fill="none" stroke="black" points="115,-228.5 115,-247.5 231,-247.5 231,-228.5 115,-228.5"/>
<text text-anchor="middle" x="173" y="-235.5" font-family="Helvetica,sans-Serif" font-size="10.00">wbt::block::QpOases</text>
</a>
</g>
</g>
<!-- Node35&#45;&gt;Node50 -->
<g id="edge15" class="edge">
<title>Node35&#45;&gt;Node50</title>
<path fill="none" stroke="midnightblue" d="M42.53,-196.76C53.07,-204.53 66.63,-213.41 80,-219 90.83,-223.53 102.85,-227.01 114.53,-229.68"/>
<polygon fill="midnightblue" stroke="midnightblue" points="44.53,-193.88 34.46,-190.59 40.28,-199.44 44.53,-193.88"/>
</g>
<!-- Node51 -->
<g id="node17" class="node">
<title>Node51</title>
<g id="a_node17"><a xlink:href="classwbt_1_1block_1_1_real_time_synchronizer.html" target="_top" xlink:title="The wbt::RealTimeSynchronizer class.">
<polygon fill="none" stroke="black" points="82,-190.5 82,-209.5 264,-209.5 264,-190.5 82,-190.5"/>
<text text-anchor="middle" x="173" y="-197.5" font-family="Helvetica,sans-Serif" font-size="10.00">wbt::block::RealTimeSynchronizer</text>
</a>
</g>
</g>
<!-- Node35&#45;&gt;Node51 -->
<g id="edge16" class="edge">
<title>Node35&#45;&gt;Node51</title>
<path fill="none" stroke="midnightblue" d="M54.02,-184.96C66.7,-186.57 81.96,-188.52 97.24,-190.47"/>
<polygon fill="midnightblue" stroke="midnightblue" points="54.39,-181.48 44.03,-183.68 53.51,-188.42 54.39,-181.48"/>
</g>
<!-- Node52 -->
<g id="node18" class="node">
<title>Node52</title>
<g id="a_node18"><a xlink:href="classwbt_1_1block_1_1_simulator_synchronizer.html" target="_top" xlink:title="The wbt::SimulatorSynchronizer class.">
<polygon fill="none" stroke="black" points="81.5,-152.5 81.5,-171.5 264.5,-171.5 264.5,-152.5 81.5,-152.5"/>
<text text-anchor="middle" x="173" y="-159.5" font-family="Helvetica,sans-Serif" font-size="10.00">wbt::block::SimulatorSynchronizer</text>
</a>
</g>
</g>
<!-- Node35&#45;&gt;Node52 -->
<g id="edge17" class="edge">
<title>Node35&#45;&gt;Node52</title>
<path fill="none" stroke="midnightblue" d="M54.02,-177.04C66.7,-175.43 81.96,-173.48 97.24,-171.53"/>
<polygon fill="midnightblue" stroke="midnightblue" points="53.51,-173.58 44.03,-178.32 54.39,-180.52 53.51,-173.58"/>
</g>
<!-- Node53 -->
<g id="node19" class="node">
<title>Node53</title>
<g id="a_node19"><a xlink:href="classwbt_1_1block_1_1_yarp_clock.html" target="_top" xlink:title="The wbt::YarpClock class.">
<polygon fill="none" stroke="black" points="113,-114.5 113,-133.5 233,-133.5 233,-114.5 113,-114.5"/>
<text text-anchor="middle" x="173" y="-121.5" font-family="Helvetica,sans-Serif" font-size="10.00">wbt::block::YarpClock</text>
</a>
</g>
</g>
<!-- Node35&#45;&gt;Node53 -->
<g id="edge18" class="edge">
<title>Node35&#45;&gt;Node53</title>
<path fill="none" stroke="midnightblue" d="M42.53,-165.24C53.07,-157.47 66.63,-148.59 80,-143 90.23,-138.72 101.52,-135.38 112.58,-132.77"/>
<polygon fill="midnightblue" stroke="midnightblue" points="40.28,-162.56 34.46,-171.41 44.53,-168.12 40.28,-162.56"/>
</g>
<!-- Node54 -->
<g id="node20" class="node">
<title>Node54</title>
<g id="a_node20"><a xlink:href="classwbt_1_1block_1_1_yarp_read.html" target="_top" xlink:title="The wbt::YarpRead class.">
<polygon fill="none" stroke="black" points="114,-76.5 114,-95.5 232,-95.5 232,-76.5 114,-76.5"/>
<text text-anchor="middle" x="173" y="-83.5" font-family="Helvetica,sans-Serif" font-size="10.00">wbt::block::YarpRead</text>
</a>
</g>
</g>
<!-- Node35&#45;&gt;Node54 -->
<g id="edge19" class="edge">
<title>Node35&#45;&gt;Node54</title>
<path fill="none" stroke="midnightblue" d="M32.14,-161.97C41.62,-144.37 58.11,-118.89 80,-105 90.05,-98.62 101.85,-94.33 113.59,-91.47"/>
<polygon fill="midnightblue" stroke="midnightblue" points="28.82,-160.78 27.39,-171.28 35.05,-163.97 28.82,-160.78"/>
</g>
<!-- Node55 -->
<g id="node21" class="node">
<title>Node55</title>
<g id="a_node21"><a xlink:href="classwbt_1_1block_1_1_yarp_write.html" target="_top" xlink:title="The wbt::YarpWrite class.">
<polygon fill="none" stroke="black" points="113.5,-38.5 113.5,-57.5 232.5,-57.5 232.5,-38.5 113.5,-38.5"/>
<text text-anchor="middle" x="173" y="-45.5" font-family="Helvetica,sans-Serif" font-size="10.00">wbt::block::YarpWrite</text>
</a>
</g>
</g>
<!-- Node35&#45;&gt;Node55 -->
<g id="edge20" class="edge">
<title>Node35&#45;&gt;Node55</title>
<path fill="none" stroke="midnightblue" d="M27.19,-161.46C33.78,-135.65 49.15,-90.72 80,-67 89.57,-59.64 101.29,-54.95 113.13,-52"/>
<polygon fill="midnightblue" stroke="midnightblue" points="23.77,-160.69 24.88,-171.23 30.59,-162.3 23.77,-160.69"/>
</g>
<!-- Node56 -->
<g id="node22" class="node">
<title>Node56</title>
<g id="a_node22"><a xlink:href="classwbt_1_1_remote_inverse_kinematics.html" target="_top" xlink:title=" ">
<polygon fill="none" stroke="black" points="88,-0.5 88,-19.5 258,-19.5 258,-0.5 88,-0.5"/>
<text text-anchor="middle" x="173" y="-7.5" font-family="Helvetica,sans-Serif" font-size="10.00">wbt::RemoteInverseKinematics</text>
</a>
</g>
</g>
<!-- Node35&#45;&gt;Node56 -->
<g id="edge21" class="edge">
<title>Node35&#45;&gt;Node56</title>
<path fill="none" stroke="midnightblue" d="M24.47,-161.27C28.01,-128.55 39.97,-63.26 80,-29 84.46,-25.18 89.49,-22.06 94.83,-19.52"/>
<polygon fill="midnightblue" stroke="midnightblue" points="20.97,-161.1 23.53,-171.38 27.94,-161.75 20.97,-161.1"/>
</g>
<!-- Node1 -->
<g id="node3" class="node">
<title>Node1</title>
<g id="a_node3"><a xlink:href="classwbt_1_1block_1_1_centroidal_momentum.html" target="_top" xlink:title="The wbt::CentroidalMomentum class.">
<polygon fill="none" stroke="black" points="302,-544.5 302,-563.5 481,-563.5 481,-544.5 302,-544.5"/>
<text text-anchor="middle" x="391.5" y="-551.5" font-family="Helvetica,sans-Serif" font-size="10.00">wbt::block::CentroidalMomentum</text>
</a>
</g>
</g>
<!-- Node0&#45;&gt;Node1 -->
<g id="edge2" class="edge">
<title>Node0&#45;&gt;Node1</title>
<path fill="none" stroke="midnightblue" d="M182.5,-382.98C199.61,-418.84 241.75,-496.4 302,-535 308.09,-538.9 314.84,-542.01 321.83,-544.49"/>
<polygon fill="midnightblue" stroke="midnightblue" points="185.56,-381.26 178.18,-373.66 179.21,-384.2 185.56,-381.26"/>
</g>
<!-- Node2 -->
<g id="node4" class="node">
<title>Node2</title>
<g id="a_node4"><a xlink:href="classwbt_1_1block_1_1_dot_j_nu.html" target="_top" xlink:title="The wbt::DotJNu class.">
<polygon fill="none" stroke="black" points="338,-506.5 338,-525.5 445,-525.5 445,-506.5 338,-506.5"/>
<text text-anchor="middle" x="391.5" y="-513.5" font-family="Helvetica,sans-Serif" font-size="10.00">wbt::block::DotJNu</text>
</a>
</g>
</g>
<!-- Node0&#45;&gt;Node2 -->
<g id="edge3" class="edge">
<title>Node0&#45;&gt;Node2</title>
<path fill="none" stroke="midnightblue" d="M185.83,-381.95C206,-411.01 249.95,-468.02 302,-497 312.85,-503.04 325.43,-507.16 337.64,-509.97"/>
<polygon fill="midnightblue" stroke="midnightblue" points="188.65,-379.87 180.14,-373.56 182.86,-383.8 188.65,-379.87"/>
</g>
<!-- Node3 -->
<g id="node5" class="node">
<title>Node3</title>
<g id="a_node5"><a xlink:href="classwbt_1_1block_1_1_forward_kinematics.html" target="_top" xlink:title="The wbt::ForwardKinematics class.">
<polygon fill="none" stroke="black" points="308,-468.5 308,-487.5 475,-487.5 475,-468.5 308,-468.5"/>
<text text-anchor="middle" x="391.5" y="-475.5" font-family="Helvetica,sans-Serif" font-size="10.00">wbt::block::ForwardKinematics</text>
</a>
</g>
</g>
<!-- Node0&#45;&gt;Node3 -->
<g id="edge4" class="edge">
<title>Node0&#45;&gt;Node3</title>
<path fill="none" stroke="midnightblue" d="M190.95,-380.4C214.1,-401.83 257.8,-438.99 302,-459 310.59,-462.89 320.02,-466 329.41,-468.48"/>
<polygon fill="midnightblue" stroke="midnightblue" points="193.33,-377.83 183.65,-373.52 188.54,-382.93 193.33,-377.83"/>
</g>
<!-- Node4 -->
<g id="node6" class="node">
<title>Node4</title>
<g id="a_node6"><a xlink:href="classwbt_1_1block_1_1_get_limits.html" target="_top" xlink:title="The wbt::GetLimits class.">
<polygon fill="none" stroke="black" points="331.5,-430.5 331.5,-449.5 451.5,-449.5 451.5,-430.5 331.5,-430.5"/>
<text text-anchor="middle" x="391.5" y="-437.5" font-family="Helvetica,sans-Serif" font-size="10.00">wbt::block::GetLimits</text>
</a>
</g>
</g>
<!-- Node0&#45;&gt;Node4 -->
<g id="edge5" class="edge">
<title>Node0&#45;&gt;Node4</title>
<path fill="none" stroke="midnightblue" d="M201.22,-378.11C226.7,-390.84 266.11,-409.3 302,-421 313.21,-424.65 325.44,-427.8 337.14,-430.42"/>
<polygon fill="midnightblue" stroke="midnightblue" points="202.68,-374.93 192.18,-373.54 199.53,-381.18 202.68,-374.93"/>
</g>
<!-- Node5 -->
<g id="node7" class="node">
<title>Node5</title>
<g id="a_node7"><a xlink:href="classwbt_1_1block_1_1_get_measurement.html" target="_top" xlink:title="The wbt::GetMeasurement class.">
<polygon fill="none" stroke="black" points="312.5,-392.5 312.5,-411.5 470.5,-411.5 470.5,-392.5 312.5,-392.5"/>
<text text-anchor="middle" x="391.5" y="-399.5" font-family="Helvetica,sans-Serif" font-size="10.00">wbt::block::GetMeasurement</text>
</a>
</g>
</g>
<!-- Node0&#45;&gt;Node5 -->
<g id="edge6" class="edge">
<title>Node0&#45;&gt;Node5</title>
<path fill="none" stroke="midnightblue" d="M238.24,-375.28C269.39,-380.74 306.4,-387.24 336.12,-392.46"/>
<polygon fill="midnightblue" stroke="midnightblue" points="238.81,-371.82 228.35,-373.54 237.6,-378.72 238.81,-371.82"/>
</g>
<!-- Node6 -->
<g id="node8" class="node">
<title>Node6</title>
<g id="a_node8"><a xlink:href="classwbt_1_1block_1_1_inverse_dynamics.html" target="_top" xlink:title="The wbt::InverseDynamics class.">
<polygon fill="none" stroke="black" points="312.5,-354.5 312.5,-373.5 470.5,-373.5 470.5,-354.5 312.5,-354.5"/>
<text text-anchor="middle" x="391.5" y="-361.5" font-family="Helvetica,sans-Serif" font-size="10.00">wbt::block::InverseDynamics</text>
</a>
</g>
</g>
<!-- Node0&#45;&gt;Node6 -->
<g id="edge7" class="edge">
<title>Node0&#45;&gt;Node6</title>
<path fill="none" stroke="midnightblue" d="M240.03,-364C262.91,-364 288.76,-364 312.5,-364"/>
<polygon fill="midnightblue" stroke="midnightblue" points="239.75,-360.5 229.75,-364 239.75,-367.5 239.75,-360.5"/>
</g>
<!-- Node7 -->
<g id="node9" class="node">
<title>Node7</title>
<g id="a_node9"><a xlink:href="classwbt_1_1block_1_1_jacobian.html" target="_top" xlink:title="The wbt::Jacobian class.">
<polygon fill="none" stroke="black" points="334.5,-316.5 334.5,-335.5 448.5,-335.5 448.5,-316.5 334.5,-316.5"/>
<text text-anchor="middle" x="391.5" y="-323.5" font-family="Helvetica,sans-Serif" font-size="10.00">wbt::block::Jacobian</text>
</a>
</g>
</g>
<!-- Node0&#45;&gt;Node7 -->
<g id="edge8" class="edge">
<title>Node0&#45;&gt;Node7</title>
<path fill="none" stroke="midnightblue" d="M238.24,-352.72C269.39,-347.26 306.4,-340.76 336.12,-335.54"/>
<polygon fill="midnightblue" stroke="midnightblue" points="237.6,-349.28 228.35,-354.46 238.81,-356.18 237.6,-349.28"/>
</g>
<!-- Node8 -->
<g id="node10" class="node">
<title>Node8</title>
<g id="a_node10"><a xlink:href="classwbt_1_1block_1_1_mass_matrix.html" target="_top" xlink:title="The wbt::MassMatrix class.">
<polygon fill="none" stroke="black" points="326.5,-278.5 326.5,-297.5 456.5,-297.5 456.5,-278.5 326.5,-278.5"/>
<text text-anchor="middle" x="391.5" y="-285.5" font-family="Helvetica,sans-Serif" font-size="10.00">wbt::block::MassMatrix</text>
</a>
</g>
</g>
<!-- Node0&#45;&gt;Node8 -->
<g id="edge9" class="edge">
<title>Node0&#45;&gt;Node8</title>
<path fill="none" stroke="midnightblue" d="M239.84,-355.54C248.96,-352.92 257.94,-349.49 266,-345 286.33,-333.68 281.72,-318.4 302,-307 309.53,-302.77 317.92,-299.47 326.43,-296.92"/>
<polygon fill="midnightblue" stroke="midnightblue" points="238.76,-352.21 229.94,-358.08 240.5,-358.99 238.76,-352.21"/>
</g>
<!-- Node9 -->
<g id="node11" class="node">
<title>Node9</title>
<g id="a_node11"><a xlink:href="classwbt_1_1block_1_1_relative_transform.html" target="_top" xlink:title="The wbt::RelativeTransform class.">
<polygon fill="none" stroke="black" points="310.5,-240.5 310.5,-259.5 472.5,-259.5 472.5,-240.5 310.5,-240.5"/>
<text text-anchor="middle" x="391.5" y="-247.5" font-family="Helvetica,sans-Serif" font-size="10.00">wbt::block::RelativeTransform</text>
</a>
</g>
</g>
<!-- Node0&#45;&gt;Node9 -->
<g id="edge10" class="edge">
<title>Node0&#45;&gt;Node9</title>
<path fill="none" stroke="midnightblue" d="M239.32,-358.39C248.94,-355.41 258.21,-351.12 266,-345 295.39,-321.91 272.7,-292.21 302,-269 306.8,-265.19 312.2,-262.11 317.89,-259.61"/>
<polygon fill="midnightblue" stroke="midnightblue" points="238.41,-355.01 229.64,-360.95 240.2,-361.77 238.41,-355.01"/>
</g>
<!-- Node10 -->
<g id="node12" class="node">
<title>Node10</title>
<g id="a_node12"><a xlink:href="classwbt_1_1block_1_1_set_motor_parameters.html" target="_top" xlink:title="The wbt::SetMotorParameters class.">
<polygon fill="none" stroke="black" points="305,-202.5 305,-221.5 478,-221.5 478,-202.5 305,-202.5"/>
<text text-anchor="middle" x="391.5" y="-209.5" font-family="Helvetica,sans-Serif" font-size="10.00">wbt::block::SetMotorParameters</text>
</a>
</g>
</g>
<!-- Node0&#45;&gt;Node10 -->
<g id="edge11" class="edge">
<title>Node0&#45;&gt;Node10</title>
<path fill="none" stroke="midnightblue" d="M239.73,-359.4C249.38,-356.31 258.55,-351.72 266,-345 305.44,-309.4 262.7,-266.76 302,-231 306.18,-227.19 310.94,-224.08 316.03,-221.54"/>
<polygon fill="midnightblue" stroke="midnightblue" points="238.72,-356.05 229.97,-362.02 240.54,-362.81 238.72,-356.05"/>
</g>
<!-- Node11 -->
<g id="node13" class="node">
<title>Node11</title>
<g id="a_node13"><a xlink:href="classwbt_1_1block_1_1_set_references.html" target="_top" xlink:title="The wbt::SetReferences class.">
<polygon fill="none" stroke="black" points="320,-164.5 320,-183.5 463,-183.5 463,-164.5 320,-164.5"/>
<text text-anchor="middle" x="391.5" y="-171.5" font-family="Helvetica,sans-Serif" font-size="10.00">wbt::block::SetReferences</text>
</a>
</g>
</g>
<!-- Node0&#45;&gt;Node11 -->
<g id="edge12" class="edge">
<title>Node0&#45;&gt;Node11</title>
<path fill="none" stroke="midnightblue" d="M239.81,-359.98C249.54,-356.83 258.72,-352.07 266,-345 315.79,-296.62 252.39,-241.57 302,-193 307.17,-187.94 313.33,-184.09 319.97,-181.17"/>
<polygon fill="midnightblue" stroke="midnightblue" points="238.71,-356.65 229.96,-362.62 240.52,-363.41 238.71,-356.65"/>
</g>
</g>
</svg>
