<?xml version="1.0" encoding="UTF-8" standalone="no"?>
<!DOCTYPE svg PUBLIC "-//W3C//DTD SVG 1.1//EN"
 "http://www.w3.org/Graphics/SVG/1.1/DTD/svg11.dtd">
<!-- Generated by graphviz version 2.43.0 (0)
 -->
<!-- Title: Graphical Class Hierarchy Pages: 1 -->
<svg width="549pt" height="622pt"
 viewBox="0.00 0.00 549.00 622.00" xmlns="http://www.w3.org/2000/svg" xmlns:xlink="http://www.w3.org/1999/xlink">
<g id="graph0" class="graph" transform="scale(1 1) rotate(0) translate(4 618)">
<title>Graphical Class Hierarchy</title>
<!-- Node1 -->
<g id="node1" class="node">
<title>Node1</title>
<g id="a_node1"><a xlink:title=" ">
<polygon fill="none" stroke="#bfbfbf" points="0,-185 0,-215 104,-215 104,-185 0,-185"/>
<text text-anchor="start" x="8" y="-203" font-family="Helvetica,sans-Serif" font-size="10.00">blockfactory::core</text>
<text text-anchor="middle" x="52" y="-192" font-family="Helvetica,sans-Serif" font-size="10.00">::Block</text>
</a>
</g>
</g>
<!-- Node0 -->
<g id="node2" class="node">
<title>Node0</title>
<g id="a_node2"><a xlink:href="classwbt_1_1_remote_inverse_kinematics.html" target="_top" xlink:title=" ">
<polygon fill="none" stroke="black" points="148,-392.5 148,-411.5 318,-411.5 318,-392.5 148,-392.5"/>
<text text-anchor="middle" x="233" y="-399.5" font-family="Helvetica,sans-Serif" font-size="10.00">wbt::RemoteInverseKinematics</text>
</a>
</g>
</g>
<!-- Node1&#45;&gt;Node0 -->
<g id="edge1" class="edge">
<title>Node1&#45;&gt;Node0</title>
<path fill="none" stroke="midnightblue" d="M57.54,-225.13C66.16,-265.12 88.79,-342.82 140,-383 144.88,-386.83 150.33,-389.93 156.09,-392.45"/>
<polygon fill="midnightblue" stroke="midnightblue" points="60.94,-224.24 55.52,-215.14 54.08,-225.63 60.94,-224.24"/>
</g>
<!-- Node3 -->
<g id="node3" class="node">
<title>Node3</title>
<g id="a_node3"><a xlink:href="classwbt_1_1base_1_1_w_b_block.html" target="_top" xlink:title="Extension of blockfactory::core::Block for simplifying the development of whole&#45;body blocks.">
<polygon fill="none" stroke="black" points="176.5,-354.5 176.5,-373.5 289.5,-373.5 289.5,-354.5 176.5,-354.5"/>
<text text-anchor="middle" x="233" y="-361.5" font-family="Helvetica,sans-Serif" font-size="10.00">wbt::base::WBBlock</text>
</a>
</g>
</g>
<!-- Node1&#45;&gt;Node3 -->
<g id="edge2" class="edge">
<title>Node1&#45;&gt;Node3</title>
<path fill="none" stroke="midnightblue" d="M60.84,-224.9C72.55,-257.81 97.87,-315.11 140,-345 150.64,-352.55 163.62,-357.24 176.43,-360.11"/>
<polygon fill="midnightblue" stroke="midnightblue" points="64.05,-223.47 57.51,-215.13 57.43,-225.73 64.05,-223.47"/>
</g>
<!-- Node17 -->
<g id="node17" class="node">
<title>Node17</title>
<g id="a_node17"><a xlink:href="classwbt_1_1block_1_1_discrete_filter.html" target="_top" xlink:title="The wbt::DiscreteFilter class.">
<polygon fill="none" stroke="black" points="164,-316.5 164,-335.5 302,-335.5 302,-316.5 164,-316.5"/>
<text text-anchor="middle" x="233" y="-323.5" font-family="Helvetica,sans-Serif" font-size="10.00">wbt::block::DiscreteFilter</text>
</a>
</g>
</g>
<!-- Node1&#45;&gt;Node17 -->
<g id="edge16" class="edge">
<title>Node1&#45;&gt;Node17</title>
<path fill="none" stroke="midnightblue" d="M65.86,-224.01C80.45,-248.83 106.61,-286.72 140,-307 147.25,-311.4 155.35,-314.8 163.65,-317.42"/>
<polygon fill="midnightblue" stroke="midnightblue" points="68.83,-222.16 60.84,-215.2 62.75,-225.62 68.83,-222.16"/>
</g>
<!-- Node18 -->
<g id="node18" class="node">
<title>Node18</title>
<g id="a_node18"><a xlink:href="classwbt_1_1block_1_1_minimum_jerk_trajectory_generator.html" target="_top" xlink:title="The wbt::MinimumJerkTrajectoryGenerator class.">
<polygon fill="none" stroke="black" points="140,-267 140,-297 326,-297 326,-267 140,-267"/>
<text text-anchor="start" x="148" y="-285" font-family="Helvetica,sans-Serif" font-size="10.00">wbt::block::MinimumJerkTrajectory</text>
<text text-anchor="middle" x="233" y="-274" font-family="Helvetica,sans-Serif" font-size="10.00">Generator</text>
</a>
</g>
</g>
<!-- Node1&#45;&gt;Node18 -->
<g id="edge17" class="edge">
<title>Node1&#45;&gt;Node18</title>
<path fill="none" stroke="midnightblue" d="M80.14,-220.99C96.68,-232.95 118.68,-247.41 140,-257 148.3,-260.73 157.28,-264.02 166.27,-266.87"/>
<polygon fill="midnightblue" stroke="midnightblue" points="82.14,-218.12 72.02,-215 77.99,-223.75 82.14,-218.12"/>
</g>
<!-- Node19 -->
<g id="node19" class="node">
<title>Node19</title>
<g id="a_node19"><a xlink:href="classwbt_1_1block_1_1_o_s_q_p.html" target="_top" xlink:title="The wbt::OSQP class.">
<polygon fill="none" stroke="black" points="183,-228.5 183,-247.5 283,-247.5 283,-228.5 183,-228.5"/>
<text text-anchor="middle" x="233" y="-235.5" font-family="Helvetica,sans-Serif" font-size="10.00">wbt::block::OSQP</text>
</a>
</g>
</g>
<!-- Node1&#45;&gt;Node19 -->
<g id="edge18" class="edge">
<title>Node1&#45;&gt;Node19</title>
<path fill="none" stroke="midnightblue" d="M113.85,-213.38C122.62,-215.28 131.54,-217.2 140,-219 154.68,-222.12 170.69,-225.45 185.18,-228.44"/>
<polygon fill="midnightblue" stroke="midnightblue" points="114.56,-209.95 104.04,-211.25 113.07,-216.79 114.56,-209.95"/>
</g>
<!-- Node20 -->
<g id="node20" class="node">
<title>Node20</title>
<g id="a_node20"><a xlink:href="classwbt_1_1block_1_1_qp_oases.html" target="_top" xlink:title="The wbt::QpOases class.">
<polygon fill="none" stroke="black" points="175,-190.5 175,-209.5 291,-209.5 291,-190.5 175,-190.5"/>
<text text-anchor="middle" x="233" y="-197.5" font-family="Helvetica,sans-Serif" font-size="10.00">wbt::block::QpOases</text>
</a>
</g>
</g>
<!-- Node1&#45;&gt;Node20 -->
<g id="edge19" class="edge">
<title>Node1&#45;&gt;Node20</title>
<path fill="none" stroke="midnightblue" d="M114.32,-200C133.89,-200 155.46,-200 174.72,-200"/>
<polygon fill="midnightblue" stroke="midnightblue" points="114.29,-196.5 104.29,-200 114.29,-203.5 114.29,-196.5"/>
</g>
<!-- Node21 -->
<g id="node21" class="node">
<title>Node21</title>
<g id="a_node21"><a xlink:href="classwbt_1_1block_1_1_real_time_synchronizer.html" target="_top" xlink:title="The wbt::RealTimeSynchronizer class.">
<polygon fill="none" stroke="black" points="142,-152.5 142,-171.5 324,-171.5 324,-152.5 142,-152.5"/>
<text text-anchor="middle" x="233" y="-159.5" font-family="Helvetica,sans-Serif" font-size="10.00">wbt::block::RealTimeSynchronizer</text>
</a>
</g>
</g>
<!-- Node1&#45;&gt;Node21 -->
<g id="edge20" class="edge">
<title>Node1&#45;&gt;Node21</title>
<path fill="none" stroke="midnightblue" d="M113.85,-186.62C122.62,-184.72 131.54,-182.8 140,-181 154.68,-177.88 170.69,-174.55 185.18,-171.56"/>
<polygon fill="midnightblue" stroke="midnightblue" points="113.07,-183.21 104.04,-188.75 114.56,-190.05 113.07,-183.21"/>
</g>
<!-- Node22 -->
<g id="node22" class="node">
<title>Node22</title>
<g id="a_node22"><a xlink:href="classwbt_1_1block_1_1_simulator_synchronizer.html" target="_top" xlink:title="The wbt::SimulatorSynchronizer class.">
<polygon fill="none" stroke="black" points="141.5,-114.5 141.5,-133.5 324.5,-133.5 324.5,-114.5 141.5,-114.5"/>
<text text-anchor="middle" x="233" y="-121.5" font-family="Helvetica,sans-Serif" font-size="10.00">wbt::block::SimulatorSynchronizer</text>
</a>
</g>
</g>
<!-- Node1&#45;&gt;Node22 -->
<g id="edge21" class="edge">
<title>Node1&#45;&gt;Node22</title>
<path fill="none" stroke="midnightblue" d="M79.6,-178.76C96.11,-166.59 118.26,-151.98 140,-143 149.35,-139.14 159.56,-136.03 169.68,-133.54"/>
<polygon fill="midnightblue" stroke="midnightblue" points="77.39,-176.05 71.52,-184.87 81.61,-181.64 77.39,-176.05"/>
</g>
<!-- Node23 -->
<g id="node23" class="node">
<title>Node23</title>
<g id="a_node23"><a xlink:href="classwbt_1_1block_1_1_yarp_clock.html" target="_top" xlink:title="The wbt::YarpClock class.">
<polygon fill="none" stroke="black" points="173,-76.5 173,-95.5 293,-95.5 293,-76.5 173,-76.5"/>
<text text-anchor="middle" x="233" y="-83.5" font-family="Helvetica,sans-Serif" font-size="10.00">wbt::block::YarpClock</text>
</a>
</g>
</g>
<!-- Node1&#45;&gt;Node23 -->
<g id="edge22" class="edge">
<title>Node1&#45;&gt;Node23</title>
<path fill="none" stroke="midnightblue" d="M68.18,-176.28C83.56,-154.27 109.41,-122.38 140,-105 149.93,-99.36 161.3,-95.39 172.6,-92.59"/>
<polygon fill="midnightblue" stroke="midnightblue" points="65.15,-174.51 62.43,-184.75 70.94,-178.44 65.15,-174.51"/>
</g>
<!-- Node24 -->
<g id="node24" class="node">
<title>Node24</title>
<g id="a_node24"><a xlink:href="classwbt_1_1block_1_1_yarp_read.html" target="_top" xlink:title="The wbt::YarpRead class.">
<polygon fill="none" stroke="black" points="174,-38.5 174,-57.5 292,-57.5 292,-38.5 174,-38.5"/>
<text text-anchor="middle" x="233" y="-45.5" font-family="Helvetica,sans-Serif" font-size="10.00">wbt::block::YarpRead</text>
</a>
</g>
</g>
<!-- Node1&#45;&gt;Node24 -->
<g id="edge23" class="edge">
<title>Node1&#45;&gt;Node24</title>
<path fill="none" stroke="midnightblue" d="M62.17,-175.33C74.83,-144.86 100.65,-93.78 140,-67 149.98,-60.21 161.87,-55.76 173.75,-52.86"/>
<polygon fill="midnightblue" stroke="midnightblue" points="58.84,-174.22 58.38,-184.81 65.34,-176.82 58.84,-174.22"/>
</g>
<!-- Node25 -->
<g id="node25" class="node">
<title>Node25</title>
<g id="a_node25"><a xlink:href="classwbt_1_1block_1_1_yarp_write.html" target="_top" xlink:title="The wbt::YarpWrite class.">
<polygon fill="none" stroke="black" points="173.5,-0.5 173.5,-19.5 292.5,-19.5 292.5,-0.5 173.5,-0.5"/>
<text text-anchor="middle" x="233" y="-7.5" font-family="Helvetica,sans-Serif" font-size="10.00">wbt::block::YarpWrite</text>
</a>
</g>
</g>
<!-- Node1&#45;&gt;Node25 -->
<g id="edge24" class="edge">
<title>Node1&#45;&gt;Node25</title>
<path fill="none" stroke="midnightblue" d="M58.52,-174.63C68.16,-136.72 91.8,-65.79 140,-29 149.59,-21.68 161.33,-17 173.16,-14.05"/>
<polygon fill="midnightblue" stroke="midnightblue" points="55,-174.29 56.07,-184.83 61.81,-175.93 55,-174.29"/>
</g>
<!-- Node4 -->
<g id="node4" class="node">
<title>Node4</title>
<g id="a_node4"><a xlink:href="classwbt_1_1block_1_1_centroidal_momentum.html" target="_top" xlink:title="The wbt::CentroidalMomentum class.">
<polygon fill="none" stroke="black" points="362,-594.5 362,-613.5 541,-613.5 541,-594.5 362,-594.5"/>
<text text-anchor="middle" x="451.5" y="-601.5" font-family="Helvetica,sans-Serif" font-size="10.00">wbt::block::CentroidalMomentum</text>
</a>
</g>
</g>
<!-- Node3&#45;&gt;Node4 -->
<g id="edge3" class="edge">
<title>Node3&#45;&gt;Node4</title>
<path fill="none" stroke="midnightblue" d="M299.81,-367.56C309.62,-370.75 318.83,-375.64 326,-383 389.6,-448.36 298.66,-519.4 362,-585 365.6,-588.73 369.75,-591.82 374.23,-594.36"/>
<polygon fill="midnightblue" stroke="midnightblue" points="300.41,-364.1 289.85,-364.91 298.61,-370.86 300.41,-364.1"/>
</g>
<!-- Node5 -->
<g id="node5" class="node">
<title>Node5</title>
<g id="a_node5"><a xlink:href="classwbt_1_1block_1_1_centroidal_total_momentum_matrix.html" target="_top" xlink:title="The wbt::CentroidalTotalMomentumMatrix class.">
<polygon fill="none" stroke="black" points="378.5,-545 378.5,-575 524.5,-575 524.5,-545 378.5,-545"/>
<text text-anchor="start" x="386.5" y="-563" font-family="Helvetica,sans-Serif" font-size="10.00">wbt::block::CentroidalTotal</text>
<text text-anchor="middle" x="451.5" y="-552" font-family="Helvetica,sans-Serif" font-size="10.00">MomentumMatrix</text>
</a>
</g>
</g>
<!-- Node3&#45;&gt;Node5 -->
<g id="edge4" class="edge">
<title>Node3&#45;&gt;Node5</title>
<path fill="none" stroke="midnightblue" d="M299.81,-368.02C309.54,-371.17 318.72,-375.93 326,-383 375.79,-431.38 313.97,-484.87 362,-535 366.64,-539.84 372.14,-543.77 378.09,-546.95"/>
<polygon fill="midnightblue" stroke="midnightblue" points="300.52,-364.59 289.96,-365.38 298.71,-371.35 300.52,-364.59"/>
</g>
<!-- Node6 -->
<g id="node6" class="node">
<title>Node6</title>
<g id="a_node6"><a xlink:href="classwbt_1_1block_1_1_dot_j_nu.html" target="_top" xlink:title="The wbt::DotJNu class.">
<polygon fill="none" stroke="black" points="398,-506.5 398,-525.5 505,-525.5 505,-506.5 398,-506.5"/>
<text text-anchor="middle" x="451.5" y="-513.5" font-family="Helvetica,sans-Serif" font-size="10.00">wbt::block::DotJNu</text>
</a>
</g>
</g>
<!-- Node3&#45;&gt;Node6 -->
<g id="edge5" class="edge">
<title>Node3&#45;&gt;Node6</title>
<path fill="none" stroke="midnightblue" d="M299.73,-368.6C309.38,-371.69 318.55,-376.28 326,-383 365.44,-418.6 322.7,-461.24 362,-497 371.76,-505.88 384.65,-510.98 397.56,-513.82"/>
<polygon fill="midnightblue" stroke="midnightblue" points="300.54,-365.19 289.97,-365.98 298.72,-371.95 300.54,-365.19"/>
</g>
<!-- Node7 -->
<g id="node7" class="node">
<title>Node7</title>
<g id="a_node7"><a xlink:href="classwbt_1_1block_1_1_forward_kinematics.html" target="_top" xlink:title="The wbt::ForwardKinematics class.">
<polygon fill="none" stroke="black" points="368,-468.5 368,-487.5 535,-487.5 535,-468.5 368,-468.5"/>
<text text-anchor="middle" x="451.5" y="-475.5" font-family="Helvetica,sans-Serif" font-size="10.00">wbt::block::ForwardKinematics</text>
</a>
</g>
</g>
<!-- Node3&#45;&gt;Node7 -->
<g id="edge6" class="edge">
<title>Node3&#45;&gt;Node7</title>
<path fill="none" stroke="midnightblue" d="M299.32,-369.61C308.94,-372.59 318.21,-376.88 326,-383 355.39,-406.09 332.7,-435.79 362,-459 366.8,-462.81 372.2,-465.89 377.89,-468.39"/>
<polygon fill="midnightblue" stroke="midnightblue" points="300.2,-366.23 289.64,-367.05 298.41,-372.99 300.2,-366.23"/>
</g>
<!-- Node8 -->
<g id="node8" class="node">
<title>Node8</title>
<g id="a_node8"><a xlink:href="classwbt_1_1block_1_1_get_limits.html" target="_top" xlink:title="The wbt::GetLimits class.">
<polygon fill="none" stroke="black" points="391.5,-430.5 391.5,-449.5 511.5,-449.5 511.5,-430.5 391.5,-430.5"/>
<text text-anchor="middle" x="451.5" y="-437.5" font-family="Helvetica,sans-Serif" font-size="10.00">wbt::block::GetLimits</text>
</a>
</g>
</g>
<!-- Node3&#45;&gt;Node8 -->
<g id="edge7" class="edge">
<title>Node3&#45;&gt;Node8</title>
<path fill="none" stroke="midnightblue" d="M299.84,-372.46C308.96,-375.08 317.94,-378.51 326,-383 346.33,-394.32 341.72,-409.6 362,-421 370.9,-426 380.99,-429.69 391.09,-432.41"/>
<polygon fill="midnightblue" stroke="midnightblue" points="300.5,-369.01 289.94,-369.92 298.76,-375.79 300.5,-369.01"/>
</g>
<!-- Node9 -->
<g id="node9" class="node">
<title>Node9</title>
<g id="a_node9"><a xlink:href="classwbt_1_1block_1_1_get_measurement.html" target="_top" xlink:title="The wbt::GetMeasurement class.">
<polygon fill="none" stroke="black" points="372.5,-392.5 372.5,-411.5 530.5,-411.5 530.5,-392.5 372.5,-392.5"/>
<text text-anchor="middle" x="451.5" y="-399.5" font-family="Helvetica,sans-Serif" font-size="10.00">wbt::block::GetMeasurement</text>
</a>
</g>
</g>
<!-- Node3&#45;&gt;Node9 -->
<g id="edge8" class="edge">
<title>Node3&#45;&gt;Node9</title>
<path fill="none" stroke="midnightblue" d="M298.24,-375.28C329.39,-380.74 366.4,-387.24 396.12,-392.46"/>
<polygon fill="midnightblue" stroke="midnightblue" points="298.81,-371.82 288.35,-373.54 297.6,-378.72 298.81,-371.82"/>
</g>
<!-- Node10 -->
<g id="node10" class="node">
<title>Node10</title>
<g id="a_node10"><a xlink:href="classwbt_1_1block_1_1_inverse_dynamics.html" target="_top" xlink:title="The wbt::InverseDynamics class.">
<polygon fill="none" stroke="black" points="372.5,-354.5 372.5,-373.5 530.5,-373.5 530.5,-354.5 372.5,-354.5"/>
<text text-anchor="middle" x="451.5" y="-361.5" font-family="Helvetica,sans-Serif" font-size="10.00">wbt::block::InverseDynamics</text>
</a>
</g>
</g>
<!-- Node3&#45;&gt;Node10 -->
<g id="edge9" class="edge">
<title>Node3&#45;&gt;Node10</title>
<path fill="none" stroke="midnightblue" d="M300.03,-364C322.91,-364 348.76,-364 372.5,-364"/>
<polygon fill="midnightblue" stroke="midnightblue" points="299.75,-360.5 289.75,-364 299.75,-367.5 299.75,-360.5"/>
</g>
<!-- Node11 -->
<g id="node11" class="node">
<title>Node11</title>
<g id="a_node11"><a xlink:href="classwbt_1_1block_1_1_jacobian.html" target="_top" xlink:title="The wbt::Jacobian class.">
<polygon fill="none" stroke="black" points="394.5,-316.5 394.5,-335.5 508.5,-335.5 508.5,-316.5 394.5,-316.5"/>
<text text-anchor="middle" x="451.5" y="-323.5" font-family="Helvetica,sans-Serif" font-size="10.00">wbt::block::Jacobian</text>
</a>
</g>
</g>
<!-- Node3&#45;&gt;Node11 -->
<g id="edge10" class="edge">
<title>Node3&#45;&gt;Node11</title>
<path fill="none" stroke="midnightblue" d="M298.24,-352.72C329.39,-347.26 366.4,-340.76 396.12,-335.54"/>
<polygon fill="midnightblue" stroke="midnightblue" points="297.6,-349.28 288.35,-354.46 298.81,-356.18 297.6,-349.28"/>
</g>
<!-- Node12 -->
<g id="node12" class="node">
<title>Node12</title>
<g id="a_node12"><a xlink:href="classwbt_1_1block_1_1_mass_matrix.html" target="_top" xlink:title="The wbt::MassMatrix class.">
<polygon fill="none" stroke="black" points="386.5,-278.5 386.5,-297.5 516.5,-297.5 516.5,-278.5 386.5,-278.5"/>
<text text-anchor="middle" x="451.5" y="-285.5" font-family="Helvetica,sans-Serif" font-size="10.00">wbt::block::MassMatrix</text>
</a>
</g>
</g>
<!-- Node3&#45;&gt;Node12 -->
<g id="edge11" class="edge">
<title>Node3&#45;&gt;Node12</title>
<path fill="none" stroke="midnightblue" d="M299.84,-355.54C308.96,-352.92 317.94,-349.49 326,-345 346.33,-333.68 341.72,-318.4 362,-307 369.53,-302.77 377.92,-299.47 386.43,-296.92"/>
<polygon fill="midnightblue" stroke="midnightblue" points="298.76,-352.21 289.94,-358.08 300.5,-358.99 298.76,-352.21"/>
</g>
<!-- Node13 -->
<g id="node13" class="node">
<title>Node13</title>
<g id="a_node13"><a xlink:href="classwbt_1_1block_1_1_relative_jacobian.html" target="_top" xlink:title="The wbt::RelativeJacobian class.">
<polygon fill="none" stroke="black" points="374,-240.5 374,-259.5 529,-259.5 529,-240.5 374,-240.5"/>
<text text-anchor="middle" x="451.5" y="-247.5" font-family="Helvetica,sans-Serif" font-size="10.00">wbt::block::RelativeJacobian</text>
</a>
</g>
</g>
<!-- Node3&#45;&gt;Node13 -->
<g id="edge12" class="edge">
<title>Node3&#45;&gt;Node13</title>
<path fill="none" stroke="midnightblue" d="M299.32,-358.39C308.94,-355.41 318.21,-351.12 326,-345 355.39,-321.91 332.7,-292.21 362,-269 366.8,-265.19 372.2,-262.11 377.89,-259.61"/>
<polygon fill="midnightblue" stroke="midnightblue" points="298.41,-355.01 289.64,-360.95 300.2,-361.77 298.41,-355.01"/>
</g>
<!-- Node14 -->
<g id="node14" class="node">
<title>Node14</title>
<g id="a_node14"><a xlink:href="classwbt_1_1block_1_1_relative_transform.html" target="_top" xlink:title="The wbt::RelativeTransform class.">
<polygon fill="none" stroke="black" points="370.5,-202.5 370.5,-221.5 532.5,-221.5 532.5,-202.5 370.5,-202.5"/>
<text text-anchor="middle" x="451.5" y="-209.5" font-family="Helvetica,sans-Serif" font-size="10.00">wbt::block::RelativeTransform</text>
</a>
</g>
</g>
<!-- Node3&#45;&gt;Node14 -->
<g id="edge13" class="edge">
<title>Node3&#45;&gt;Node14</title>
<path fill="none" stroke="midnightblue" d="M299.73,-359.4C309.38,-356.31 318.55,-351.72 326,-345 365.44,-309.4 322.7,-266.76 362,-231 366.18,-227.19 370.94,-224.08 376.03,-221.54"/>
<polygon fill="midnightblue" stroke="midnightblue" points="298.72,-356.05 289.97,-362.02 300.54,-362.81 298.72,-356.05"/>
</g>
<!-- Node15 -->
<g id="node15" class="node">
<title>Node15</title>
<g id="a_node15"><a xlink:href="classwbt_1_1block_1_1_set_motor_parameters.html" target="_top" xlink:title="The wbt::SetMotorParameters class.">
<polygon fill="none" stroke="black" points="365,-164.5 365,-183.5 538,-183.5 538,-164.5 365,-164.5"/>
<text text-anchor="middle" x="451.5" y="-171.5" font-family="Helvetica,sans-Serif" font-size="10.00">wbt::block::SetMotorParameters</text>
</a>
</g>
</g>
<!-- Node3&#45;&gt;Node15 -->
<g id="edge14" class="edge">
<title>Node3&#45;&gt;Node15</title>
<path fill="none" stroke="midnightblue" d="M299.81,-359.98C309.54,-356.83 318.72,-352.07 326,-345 375.79,-296.62 312.39,-241.57 362,-193 365.82,-189.26 370.18,-186.18 374.88,-183.65"/>
<polygon fill="midnightblue" stroke="midnightblue" points="298.71,-356.65 289.96,-362.62 300.52,-363.41 298.71,-356.65"/>
</g>
<!-- Node16 -->
<g id="node16" class="node">
<title>Node16</title>
<g id="a_node16"><a xlink:href="classwbt_1_1block_1_1_set_references.html" target="_top" xlink:title="The wbt::SetReferences class.">
<polygon fill="none" stroke="black" points="380,-126.5 380,-145.5 523,-145.5 523,-126.5 380,-126.5"/>
<text text-anchor="middle" x="451.5" y="-133.5" font-family="Helvetica,sans-Serif" font-size="10.00">wbt::block::SetReferences</text>
</a>
</g>
</g>
<!-- Node3&#45;&gt;Node16 -->
<g id="edge15" class="edge">
<title>Node3&#45;&gt;Node16</title>
<path fill="none" stroke="midnightblue" d="M299.74,-360.38C309.56,-357.2 318.79,-352.32 326,-345 386.27,-283.73 301.97,-216.51 362,-155 367.05,-149.83 373.14,-145.9 379.74,-142.94"/>
<polygon fill="midnightblue" stroke="midnightblue" points="298.54,-357.07 289.77,-363.02 300.34,-363.84 298.54,-357.07"/>
</g>
</g>
</svg>
