<?xml version="1.0" encoding="UTF-8" standalone="no"?>
<!DOCTYPE svg PUBLIC "-//W3C//DTD SVG 1.1//EN"
 "http://www.w3.org/Graphics/SVG/1.1/DTD/svg11.dtd">
<!-- Generated by graphviz version 2.36.0 (20140111.2315)
 -->
<!-- Title: Graphical Class Hierarchy Pages: 1 -->
<svg width="430pt" height="420pt"
 viewBox="0.00 0.00 430.00 420.00" xmlns="http://www.w3.org/2000/svg" xmlns:xlink="http://www.w3.org/1999/xlink">
<g id="graph0" class="graph" transform="scale(1 1) rotate(0) translate(4 416)">
<title>Graphical Class Hierarchy</title>
<!-- Node1 -->
<g id="node1" class="node"><title>Node1</title>
<g id="a_node1"><a xlink:href="classwbt_1_1_block.html" target="_top" xlink:title="wbt::Block">
<polygon fill="none" stroke="black" points="0.5,-228.5 0.5,-247.5 63.5,-247.5 63.5,-228.5 0.5,-228.5"/>
<text text-anchor="middle" x="32" y="-235.5" font-family="Helvetica,sans-Serif" font-size="10.00">wbt::Block</text>
</a>
</g>
</g>
<!-- Node2 -->
<g id="node2" class="node"><title>Node2</title>
<g id="a_node2"><a xlink:href="classwbt_1_1_discrete_filter.html" target="_top" xlink:title="wbt::DiscreteFilter">
<polygon fill="none" stroke="black" points="128.5,-392.5 128.5,-411.5 225.5,-411.5 225.5,-392.5 128.5,-392.5"/>
<text text-anchor="middle" x="177" y="-399.5" font-family="Helvetica,sans-Serif" font-size="10.00">wbt::DiscreteFilter</text>
</a>
</g>
</g>
<!-- Node1&#45;&gt;Node2 -->
<g id="edge1" class="edge"><title>Node1&#45;&gt;Node2</title>
<path fill="none" stroke="midnightblue" d="M36.6415,-257.86C43.424,-289.07 60.9993,-349.395 100,-382 108.06,-388.738 118.147,-393.232 128.313,-396.223"/>
<polygon fill="midnightblue" stroke="midnightblue" points="40.0176,-256.895 34.6113,-247.784 33.1555,-258.278 40.0176,-256.895"/>
</g>
<!-- Node3 -->
<g id="node3" class="node"><title>Node3</title>
<g id="a_node3"><a xlink:href="classwbt_1_1_minimum_jerk_trajectory_generator.html" target="_top" xlink:title="wbt::MinimumJerkTrajectory\lGenerator">
<polygon fill="none" stroke="black" points="107,-343 107,-373 247,-373 247,-343 107,-343"/>
<text text-anchor="start" x="115" y="-361" font-family="Helvetica,sans-Serif" font-size="10.00">wbt::MinimumJerkTrajectory</text>
<text text-anchor="middle" x="177" y="-350" font-family="Helvetica,sans-Serif" font-size="10.00">Generator</text>
</a>
</g>
</g>
<!-- Node1&#45;&gt;Node3 -->
<g id="edge2" class="edge"><title>Node1&#45;&gt;Node3</title>
<path fill="none" stroke="midnightblue" d="M41.5818,-256.679C52.3267,-278.079 72.6917,-312.788 100,-333 105.247,-336.884 111.13,-340.184 117.237,-342.985"/>
<polygon fill="midnightblue" stroke="midnightblue" points="44.71,-255.108 37.2113,-247.623 38.4058,-258.15 44.71,-255.108"/>
</g>
<!-- Node4 -->
<g id="node4" class="node"><title>Node4</title>
<g id="a_node4"><a xlink:href="classwbt_1_1_real_time_synchronizer.html" target="_top" xlink:title="wbt::RealTimeSynchronizer">
<polygon fill="none" stroke="black" points="108.5,-304.5 108.5,-323.5 245.5,-323.5 245.5,-304.5 108.5,-304.5"/>
<text text-anchor="middle" x="177" y="-311.5" font-family="Helvetica,sans-Serif" font-size="10.00">wbt::RealTimeSynchronizer</text>
</a>
</g>
</g>
<!-- Node1&#45;&gt;Node4 -->
<g id="edge3" class="edge"><title>Node1&#45;&gt;Node4</title>
<path fill="none" stroke="midnightblue" d="M48.5622,-254.946C61.2324,-267.757 80.205,-284.821 100,-295 107.499,-298.856 115.823,-301.959 124.134,-304.447"/>
<polygon fill="midnightblue" stroke="midnightblue" points="50.984,-252.415 41.5366,-247.619 45.9314,-257.26 50.984,-252.415"/>
</g>
<!-- Node5 -->
<g id="node5" class="node"><title>Node5</title>
<g id="a_node5"><a xlink:href="classwbt_1_1_remote_inverse_kinematics.html" target="_top" xlink:title="wbt::RemoteInverseKinematics">
<polygon fill="none" stroke="black" points="100,-266.5 100,-285.5 254,-285.5 254,-266.5 100,-266.5"/>
<text text-anchor="middle" x="177" y="-273.5" font-family="Helvetica,sans-Serif" font-size="10.00">wbt::RemoteInverseKinematics</text>
</a>
</g>
</g>
<!-- Node1&#45;&gt;Node5 -->
<g id="edge4" class="edge"><title>Node1&#45;&gt;Node5</title>
<path fill="none" stroke="midnightblue" d="M73.2945,-249.648C82.0825,-252.126 91.3424,-254.691 100,-257 111.958,-260.19 125.018,-263.512 136.886,-266.471"/>
<polygon fill="midnightblue" stroke="midnightblue" points="74.2061,-246.268 63.6304,-246.904 72.2944,-253.002 74.2061,-246.268"/>
</g>
<!-- Node6 -->
<g id="node6" class="node"><title>Node6</title>
<g id="a_node6"><a xlink:href="classwbt_1_1_simulator_synchronizer.html" target="_top" xlink:title="wbt::SimulatorSynchronizer">
<polygon fill="none" stroke="black" points="108.5,-228.5 108.5,-247.5 245.5,-247.5 245.5,-228.5 108.5,-228.5"/>
<text text-anchor="middle" x="177" y="-235.5" font-family="Helvetica,sans-Serif" font-size="10.00">wbt::SimulatorSynchronizer</text>
</a>
</g>
</g>
<!-- Node1&#45;&gt;Node6 -->
<g id="edge5" class="edge"><title>Node1&#45;&gt;Node6</title>
<path fill="none" stroke="midnightblue" d="M73.996,-238C84.7389,-238 96.6124,-238 108.347,-238"/>
<polygon fill="midnightblue" stroke="midnightblue" points="73.6771,-234.5 63.6771,-238 73.6771,-241.5 73.6771,-234.5"/>
</g>
<!-- Node7 -->
<g id="node7" class="node"><title>Node7</title>
<g id="a_node7"><a xlink:href="classwbt_1_1_w_b_block.html" target="_top" xlink:title="wbt::WBBlock">
<polygon fill="none" stroke="black" points="137,-190.5 137,-209.5 217,-209.5 217,-190.5 137,-190.5"/>
<text text-anchor="middle" x="177" y="-197.5" font-family="Helvetica,sans-Serif" font-size="10.00">wbt::WBBlock</text>
</a>
</g>
</g>
<!-- Node1&#45;&gt;Node7 -->
<g id="edge6" class="edge"><title>Node1&#45;&gt;Node7</title>
<path fill="none" stroke="midnightblue" d="M73.2945,-226.352C82.0825,-223.874 91.3424,-221.309 100,-219 111.958,-215.81 125.018,-212.488 136.886,-209.529"/>
<polygon fill="midnightblue" stroke="midnightblue" points="72.2944,-222.998 63.6304,-229.096 74.2061,-229.732 72.2944,-222.998"/>
</g>
<!-- Node19 -->
<g id="node19" class="node"><title>Node19</title>
<g id="a_node19"><a xlink:href="classwbt_1_1_yarp_clock.html" target="_top" xlink:title="wbt::YarpClock">
<polygon fill="none" stroke="black" points="135,-152.5 135,-171.5 219,-171.5 219,-152.5 135,-152.5"/>
<text text-anchor="middle" x="177" y="-159.5" font-family="Helvetica,sans-Serif" font-size="10.00">wbt::YarpClock</text>
</a>
</g>
</g>
<!-- Node1&#45;&gt;Node19 -->
<g id="edge18" class="edge"><title>Node1&#45;&gt;Node19</title>
<path fill="none" stroke="midnightblue" d="M48.5622,-221.054C61.2324,-208.243 80.205,-191.179 100,-181 110.765,-175.465 123.23,-171.482 134.913,-168.641"/>
<polygon fill="midnightblue" stroke="midnightblue" points="45.9314,-218.74 41.5366,-228.381 50.984,-223.585 45.9314,-218.74"/>
</g>
<!-- Node20 -->
<g id="node20" class="node"><title>Node20</title>
<g id="a_node20"><a xlink:href="classwbt_1_1_yarp_read.html" target="_top" xlink:title="wbt::YarpRead">
<polygon fill="none" stroke="black" points="136,-114.5 136,-133.5 218,-133.5 218,-114.5 136,-114.5"/>
<text text-anchor="middle" x="177" y="-121.5" font-family="Helvetica,sans-Serif" font-size="10.00">wbt::YarpRead</text>
</a>
</g>
</g>
<!-- Node1&#45;&gt;Node20 -->
<g id="edge19" class="edge"><title>Node1&#45;&gt;Node20</title>
<path fill="none" stroke="midnightblue" d="M41.1685,-219.3C51.6289,-197.591 71.8303,-162.303 100,-143 110.546,-135.773 123.594,-131.292 135.885,-128.514"/>
<polygon fill="midnightblue" stroke="midnightblue" points="37.9468,-217.929 36.9387,-228.476 44.3038,-220.859 37.9468,-217.929"/>
</g>
<!-- Node21 -->
<g id="node21" class="node"><title>Node21</title>
<g id="a_node21"><a xlink:href="classwbt_1_1_yarp_write.html" target="_top" xlink:title="wbt::YarpWrite">
<polygon fill="none" stroke="black" points="136,-76.5 136,-95.5 218,-95.5 218,-76.5 136,-76.5"/>
<text text-anchor="middle" x="177" y="-83.5" font-family="Helvetica,sans-Serif" font-size="10.00">wbt::YarpWrite</text>
</a>
</g>
</g>
<!-- Node1&#45;&gt;Node21 -->
<g id="edge20" class="edge"><title>Node1&#45;&gt;Node21</title>
<path fill="none" stroke="midnightblue" d="M37.3742,-218.345C44.9353,-189.079 63.2956,-134.353 100,-105 110.197,-96.8455 123.434,-92.135 135.996,-89.4322"/>
<polygon fill="midnightblue" stroke="midnightblue" points="33.9374,-217.666 34.9893,-228.209 40.7414,-219.312 33.9374,-217.666"/>
</g>
<!-- Node8 -->
<g id="node8" class="node"><title>Node8</title>
<g id="a_node8"><a xlink:href="classwbt_1_1_centroidal_momentum.html" target="_top" xlink:title="wbt::CentroidalMomentum">
<polygon fill="none" stroke="black" points="290.5,-380.5 290.5,-399.5 421.5,-399.5 421.5,-380.5 290.5,-380.5"/>
<text text-anchor="middle" x="356" y="-387.5" font-family="Helvetica,sans-Serif" font-size="10.00">wbt::CentroidalMomentum</text>
</a>
</g>
</g>
<!-- Node7&#45;&gt;Node8 -->
<g id="edge7" class="edge"><title>Node7&#45;&gt;Node8</title>
<path fill="none" stroke="midnightblue" d="M227.208,-204.092C237.151,-207.014 246.76,-211.67 254,-219 302.785,-268.394 242.198,-320.654 290,-371 293.643,-374.837 298.013,-377.912 302.743,-380.374"/>
<polygon fill="midnightblue" stroke="midnightblue" points="227.768,-200.628 217.229,-201.713 226.145,-207.437 227.768,-200.628"/>
</g>
<!-- Node9 -->
<g id="node9" class="node"><title>Node9</title>
<g id="a_node9"><a xlink:href="classwbt_1_1_dot_j_nu.html" target="_top" xlink:title="wbt::DotJNu">
<polygon fill="none" stroke="black" points="320,-342.5 320,-361.5 392,-361.5 392,-342.5 320,-342.5"/>
<text text-anchor="middle" x="356" y="-349.5" font-family="Helvetica,sans-Serif" font-size="10.00">wbt::DotJNu</text>
</a>
</g>
</g>
<!-- Node7&#45;&gt;Node9 -->
<g id="edge8" class="edge"><title>Node7&#45;&gt;Node9</title>
<path fill="none" stroke="midnightblue" d="M227.112,-204.581C236.972,-207.485 246.571,-212.01 254,-219 292.697,-255.409 252.028,-295.835 290,-333 297.982,-340.812 308.991,-345.443 319.681,-348.178"/>
<polygon fill="midnightblue" stroke="midnightblue" points="227.778,-201.141 217.235,-202.185 226.128,-207.944 227.778,-201.141"/>
</g>
<!-- Node10 -->
<g id="node10" class="node"><title>Node10</title>
<g id="a_node10"><a xlink:href="classwbt_1_1_forward_kinematics.html" target="_top" xlink:title="wbt::ForwardKinematics">
<polygon fill="none" stroke="black" points="295,-304.5 295,-323.5 417,-323.5 417,-304.5 295,-304.5"/>
<text text-anchor="middle" x="356" y="-311.5" font-family="Helvetica,sans-Serif" font-size="10.00">wbt::ForwardKinematics</text>
</a>
</g>
</g>
<!-- Node7&#45;&gt;Node10 -->
<g id="edge9" class="edge"><title>Node7&#45;&gt;Node10</title>
<path fill="none" stroke="midnightblue" d="M227.319,-205.628C236.912,-208.487 246.35,-212.728 254,-219 282.904,-242.696 261.568,-270.739 290,-295 294.561,-298.892 299.885,-301.987 305.486,-304.449"/>
<polygon fill="midnightblue" stroke="midnightblue" points="227.887,-202.162 217.336,-203.122 226.183,-208.951 227.887,-202.162"/>
</g>
<!-- Node11 -->
<g id="node11" class="node"><title>Node11</title>
<g id="a_node11"><a xlink:href="classwbt_1_1_get_limits.html" target="_top" xlink:title="wbt::GetLimits">
<polygon fill="none" stroke="black" points="316,-266.5 316,-285.5 396,-285.5 396,-266.5 316,-266.5"/>
<text text-anchor="middle" x="356" y="-273.5" font-family="Helvetica,sans-Serif" font-size="10.00">wbt::GetLimits</text>
</a>
</g>
</g>
<!-- Node7&#45;&gt;Node11 -->
<g id="edge10" class="edge"><title>Node7&#45;&gt;Node11</title>
<path fill="none" stroke="midnightblue" d="M226.839,-207.852C236.236,-210.549 245.72,-214.163 254,-219 274.088,-230.735 270.147,-244.872 290,-257 297.826,-261.781 306.917,-265.412 315.776,-268.151"/>
<polygon fill="midnightblue" stroke="midnightblue" points="227.688,-204.456 217.132,-205.359 225.947,-211.236 227.688,-204.456"/>
</g>
<!-- Node12 -->
<g id="node12" class="node"><title>Node12</title>
<g id="a_node12"><a xlink:href="classwbt_1_1_get_measurement.html" target="_top" xlink:title="wbt::GetMeasurement">
<polygon fill="none" stroke="black" points="299.5,-228.5 299.5,-247.5 412.5,-247.5 412.5,-228.5 299.5,-228.5"/>
<text text-anchor="middle" x="356" y="-235.5" font-family="Helvetica,sans-Serif" font-size="10.00">wbt::GetMeasurement</text>
</a>
</g>
</g>
<!-- Node7&#45;&gt;Node12 -->
<g id="edge11" class="edge"><title>Node7&#45;&gt;Node12</title>
<path fill="none" stroke="midnightblue" d="M227.343,-210.593C253.433,-216.195 285.209,-223.017 310.532,-228.453"/>
<polygon fill="midnightblue" stroke="midnightblue" points="227.794,-207.111 217.282,-208.433 226.325,-213.955 227.794,-207.111"/>
</g>
<!-- Node13 -->
<g id="node13" class="node"><title>Node13</title>
<g id="a_node13"><a xlink:href="classwbt_1_1_inverse_dynamics.html" target="_top" xlink:title="wbt::InverseDynamics">
<polygon fill="none" stroke="black" points="298.5,-190.5 298.5,-209.5 413.5,-209.5 413.5,-190.5 298.5,-190.5"/>
<text text-anchor="middle" x="356" y="-197.5" font-family="Helvetica,sans-Serif" font-size="10.00">wbt::InverseDynamics</text>
</a>
</g>
</g>
<!-- Node7&#45;&gt;Node13 -->
<g id="edge12" class="edge"><title>Node7&#45;&gt;Node13</title>
<path fill="none" stroke="midnightblue" d="M227.419,-200C249.458,-200 275.543,-200 298.365,-200"/>
<polygon fill="midnightblue" stroke="midnightblue" points="227.282,-196.5 217.282,-200 227.282,-203.5 227.282,-196.5"/>
</g>
<!-- Node14 -->
<g id="node14" class="node"><title>Node14</title>
<g id="a_node14"><a xlink:href="classwbt_1_1_jacobian.html" target="_top" xlink:title="wbt::Jacobian">
<polygon fill="none" stroke="black" points="317.5,-152.5 317.5,-171.5 394.5,-171.5 394.5,-152.5 317.5,-152.5"/>
<text text-anchor="middle" x="356" y="-159.5" font-family="Helvetica,sans-Serif" font-size="10.00">wbt::Jacobian</text>
</a>
</g>
</g>
<!-- Node7&#45;&gt;Node14 -->
<g id="edge13" class="edge"><title>Node7&#45;&gt;Node14</title>
<path fill="none" stroke="midnightblue" d="M227.063,-189.467C255.601,-183.34 291.015,-175.737 317.344,-170.084"/>
<polygon fill="midnightblue" stroke="midnightblue" points="226.325,-186.045 217.282,-191.567 227.794,-192.889 226.325,-186.045"/>
</g>
<!-- Node15 -->
<g id="node15" class="node"><title>Node15</title>
<g id="a_node15"><a xlink:href="classwbt_1_1_mass_matrix.html" target="_top" xlink:title="wbt::MassMatrix">
<polygon fill="none" stroke="black" points="311.5,-114.5 311.5,-133.5 400.5,-133.5 400.5,-114.5 311.5,-114.5"/>
<text text-anchor="middle" x="356" y="-121.5" font-family="Helvetica,sans-Serif" font-size="10.00">wbt::MassMatrix</text>
</a>
</g>
</g>
<!-- Node7&#45;&gt;Node15 -->
<g id="edge14" class="edge"><title>Node7&#45;&gt;Node15</title>
<path fill="none" stroke="midnightblue" d="M226.839,-192.148C236.236,-189.451 245.72,-185.837 254,-181 274.088,-169.265 270.147,-155.128 290,-143 296.521,-139.016 303.922,-135.83 311.334,-133.294"/>
<polygon fill="midnightblue" stroke="midnightblue" points="225.947,-188.764 217.132,-194.641 227.688,-195.544 225.947,-188.764"/>
</g>
<!-- Node16 -->
<g id="node16" class="node"><title>Node16</title>
<g id="a_node16"><a xlink:href="classwbt_1_1_model_partitioner.html" target="_top" xlink:title="wbt::ModelPartitioner">
<polygon fill="none" stroke="black" points="301.5,-76.5 301.5,-95.5 410.5,-95.5 410.5,-76.5 301.5,-76.5"/>
<text text-anchor="middle" x="356" y="-83.5" font-family="Helvetica,sans-Serif" font-size="10.00">wbt::ModelPartitioner</text>
</a>
</g>
</g>
<!-- Node7&#45;&gt;Node16 -->
<g id="edge15" class="edge"><title>Node7&#45;&gt;Node16</title>
<path fill="none" stroke="midnightblue" d="M227.319,-194.372C236.912,-191.513 246.35,-187.272 254,-181 282.904,-157.304 261.568,-129.261 290,-105 294.561,-101.108 299.885,-98.0126 305.486,-95.5509"/>
<polygon fill="midnightblue" stroke="midnightblue" points="226.183,-191.049 217.336,-196.878 227.887,-197.838 226.183,-191.049"/>
</g>
<!-- Node17 -->
<g id="node17" class="node"><title>Node17</title>
<g id="a_node17"><a xlink:href="classwbt_1_1_set_low_level_p_i_d.html" target="_top" xlink:title="wbt::SetLowLevelPID">
<polygon fill="none" stroke="black" points="300,-38.5 300,-57.5 412,-57.5 412,-38.5 300,-38.5"/>
<text text-anchor="middle" x="356" y="-45.5" font-family="Helvetica,sans-Serif" font-size="10.00">wbt::SetLowLevelPID</text>
</a>
</g>
</g>
<!-- Node7&#45;&gt;Node17 -->
<g id="edge16" class="edge"><title>Node7&#45;&gt;Node17</title>
<path fill="none" stroke="midnightblue" d="M227.112,-195.419C236.972,-192.515 246.571,-187.99 254,-181 292.697,-144.591 252.028,-104.165 290,-67 293.949,-63.1349 298.639,-60.0486 303.665,-57.5854"/>
<polygon fill="midnightblue" stroke="midnightblue" points="226.128,-192.056 217.235,-197.815 227.778,-198.859 226.128,-192.056"/>
</g>
<!-- Node18 -->
<g id="node18" class="node"><title>Node18</title>
<g id="a_node18"><a xlink:href="classwbt_1_1_set_references.html" target="_top" xlink:title="wbt::SetReferences">
<polygon fill="none" stroke="black" points="304,-0.5 304,-19.5 408,-19.5 408,-0.5 304,-0.5"/>
<text text-anchor="middle" x="356" y="-7.5" font-family="Helvetica,sans-Serif" font-size="10.00">wbt::SetReferences</text>
</a>
</g>
</g>
<!-- Node7&#45;&gt;Node18 -->
<g id="edge17" class="edge"><title>Node7&#45;&gt;Node18</title>
<path fill="none" stroke="midnightblue" d="M227.208,-195.908C237.151,-192.986 246.76,-188.33 254,-181 302.785,-131.606 242.198,-79.346 290,-29 293.886,-24.9075 298.599,-21.6817 303.694,-19.1415"/>
<polygon fill="midnightblue" stroke="midnightblue" points="226.145,-192.563 217.229,-198.287 227.768,-199.372 226.145,-192.563"/>
</g>
</g>
</svg>
